solid OpenSCAD_Model
  facet normal 0 -1 0
    outer loop
      vertex 0 0 15
      vertex 15 0 20
      vertex 5 0 20
    endloop
  endfacet
  facet normal 0 -1 0
    outer loop
      vertex 0 0 15
      vertex 20 0 15
      vertex 15 0 20
    endloop
  endfacet
  facet normal 0 -1 0
    outer loop
      vertex 0 0 5
      vertex 20 0 15
      vertex 0 0 15
    endloop
  endfacet
  facet normal 0 -1 0
    outer loop
      vertex 0 0 5
      vertex 20 0 5
      vertex 20 0 15
    endloop
  endfacet
  facet normal 0 -1 0
    outer loop
      vertex 5 0 0
      vertex 20 0 5
      vertex 0 0 5
    endloop
  endfacet
  facet normal 0 -1 0
    outer loop
      vertex 20 0 5
      vertex 5 0 0
      vertex 15 0 0
    endloop
  endfacet
  facet normal -0.57735 -0.57735 -0.57735
    outer loop
      vertex 0 5 0
      vertex 5 0 0
      vertex 0 0 5
    endloop
  endfacet
  facet normal -1 0 0
    outer loop
      vertex 0 15 0
      vertex 0 20 15
      vertex 0 20 5
    endloop
  endfacet
  facet normal -1 0 0
    outer loop
      vertex 0 15 0
      vertex 0 15 20
      vertex 0 20 15
    endloop
  endfacet
  facet normal -1 0 0
    outer loop
      vertex 0 5 0
      vertex 0 15 20
      vertex 0 15 0
    endloop
  endfacet
  facet normal -1 0 0
    outer loop
      vertex 0 5 0
      vertex 0 5 20
      vertex 0 15 20
    endloop
  endfacet
  facet normal -1 0 0
    outer loop
      vertex 0 0 5
      vertex 0 5 20
      vertex 0 5 0
    endloop
  endfacet
  facet normal -1 0 0
    outer loop
      vertex 0 5 20
      vertex 0 0 5
      vertex 0 0 15
    endloop
  endfacet
  facet normal 0 0 -1
    outer loop
      vertex 15 0 0
      vertex 20 15 0
      vertex 20 5 0
    endloop
  endfacet
  facet normal 0 0 -1
    outer loop
      vertex 15 0 0
      vertex 15 20 0
      vertex 20 15 0
    endloop
  endfacet
  facet normal 0 0 -1
    outer loop
      vertex 5 0 0
      vertex 15 20 0
      vertex 15 0 0
    endloop
  endfacet
  facet normal 0 0 -1
    outer loop
      vertex 5 0 0
      vertex 5 20 0
      vertex 15 20 0
    endloop
  endfacet
  facet normal 0 0 -1
    outer loop
      vertex 0 5 0
      vertex 5 20 0
      vertex 5 0 0
    endloop
  endfacet
  facet normal 0 0 -1
    outer loop
      vertex 5 20 0
      vertex 0 5 0
      vertex 0 15 0
    endloop
  endfacet
  facet normal 1 0 0
    outer loop
      vertex 20 15 20
      vertex 20 20 5
      vertex 20 20 15
    endloop
  endfacet
  facet normal 1 0 0
    outer loop
      vertex 20 15 20
      vertex 20 15 0
      vertex 20 20 5
    endloop
  endfacet
  facet normal 1 -0 0
    outer loop
      vertex 20 5 20
      vertex 20 15 0
      vertex 20 15 20
    endloop
  endfacet
  facet normal 1 0 0
    outer loop
      vertex 20 5 20
      vertex 20 5 0
      vertex 20 15 0
    endloop
  endfacet
  facet normal 1 -0 0
    outer loop
      vertex 20 0 15
      vertex 20 5 0
      vertex 20 5 20
    endloop
  endfacet
  facet normal 1 0 0
    outer loop
      vertex 20 5 0
      vertex 20 0 15
      vertex 20 0 5
    endloop
  endfacet
  facet normal 0.57735 -0.57735 -0.57735
    outer loop
      vertex 20 5 0
      vertex 20 0 5
      vertex 15 0 0
    endloop
  endfacet
  facet normal -0.57735 0.57735 -0.57735
    outer loop
      vertex 0 20 5
      vertex 5 20 0
      vertex 0 15 0
    endloop
  endfacet
  facet normal 0 1 0
    outer loop
      vertex 20 20 15
      vertex 5 20 20
      vertex 15 20 20
    endloop
  endfacet
  facet normal 0 1 0
    outer loop
      vertex 20 20 15
      vertex 0 20 15
      vertex 5 20 20
    endloop
  endfacet
  facet normal 0 1 -0
    outer loop
      vertex 20 20 5
      vertex 0 20 15
      vertex 20 20 15
    endloop
  endfacet
  facet normal 0 1 0
    outer loop
      vertex 20 20 5
      vertex 0 20 5
      vertex 0 20 15
    endloop
  endfacet
  facet normal 0 1 -0
    outer loop
      vertex 15 20 0
      vertex 0 20 5
      vertex 20 20 5
    endloop
  endfacet
  facet normal 0 1 0
    outer loop
      vertex 0 20 5
      vertex 15 20 0
      vertex 5 20 0
    endloop
  endfacet
  facet normal 0.57735 0.57735 -0.57735
    outer loop
      vertex 20 20 5
      vertex 20 15 0
      vertex 15 20 0
    endloop
  endfacet
  facet normal -0.57735 -0.57735 0.57735
    outer loop
      vertex 0 5 20
      vertex 0 0 15
      vertex 5 0 20
    endloop
  endfacet
  facet normal 0 0 1
    outer loop
      vertex 15 20 20
      vertex 20 5 20
      vertex 20 15 20
    endloop
  endfacet
  facet normal 0 0 1
    outer loop
      vertex 15 20 20
      vertex 15 0 20
      vertex 20 5 20
    endloop
  endfacet
  facet normal -0 0 1
    outer loop
      vertex 5 20 20
      vertex 15 0 20
      vertex 15 20 20
    endloop
  endfacet
  facet normal 0 0 1
    outer loop
      vertex 5 20 20
      vertex 5 0 20
      vertex 15 0 20
    endloop
  endfacet
  facet normal -0 0 1
    outer loop
      vertex 0 15 20
      vertex 5 0 20
      vertex 5 20 20
    endloop
  endfacet
  facet normal 0 0 1
    outer loop
      vertex 5 0 20
      vertex 0 15 20
      vertex 0 5 20
    endloop
  endfacet
  facet normal 0.57735 -0.57735 0.57735
    outer loop
      vertex 20 5 20
      vertex 15 0 20
      vertex 20 0 15
    endloop
  endfacet
  facet normal -0.57735 0.57735 0.57735
    outer loop
      vertex 0 20 15
      vertex 0 15 20
      vertex 5 20 20
    endloop
  endfacet
  facet normal 0.57735 0.57735 0.57735
    outer loop
      vertex 20 20 15
      vertex 15 20 20
      vertex 20 15 20
    endloop
  endfacet
endsolid OpenSCAD_Model
