solid OpenSCAD_Model
  facet normal 1 0 0
    outer loop
      vertex 32 4 12
      vertex 32 0 12
      vertex 32 4 3
    endloop
  endfacet
  facet normal 1 0 0
    outer loop
      vertex 32 20 3
      vertex 32 36 12
      vertex 32 20 12
    endloop
  endfacet
  facet normal 1 0 0
    outer loop
      vertex 32 36 12
      vertex 32 20 3
      vertex 32 36 0
    endloop
  endfacet
  facet normal 1 0 0
    outer loop
      vertex 32 0 0
      vertex 32 20 3
      vertex 32 12 3
    endloop
  endfacet
  facet normal 1 0 0
    outer loop
      vertex 32 0 0
      vertex 32 12 3
      vertex 32 4 3
    endloop
  endfacet
  facet normal 1 0 0
    outer loop
      vertex 32 20 3
      vertex 32 0 0
      vertex 32 36 0
    endloop
  endfacet
  facet normal 1 0 0
    outer loop
      vertex 32 0 0
      vertex 32 4 3
      vertex 32 0 12
    endloop
  endfacet
  facet normal 0 0 1
    outer loop
      vertex 4 36 12
      vertex 0 36 12
      vertex 4 4 12
    endloop
  endfacet
  facet normal -0 0 1
    outer loop
      vertex 4 4 12
      vertex 32 0 12
      vertex 32 4 12
    endloop
  endfacet
  facet normal 0 0 1
    outer loop
      vertex 4 4 12
      vertex 0 0 12
      vertex 32 0 12
    endloop
  endfacet
  facet normal 0 0 1
    outer loop
      vertex 0 0 12
      vertex 4 4 12
      vertex 0 36 12
    endloop
  endfacet
  facet normal 0 0 1
    outer loop
      vertex 32 36 12
      vertex 28 32 12
      vertex 32 20 12
    endloop
  endfacet
  facet normal -0 0 1
    outer loop
      vertex 14 36 12
      vertex 28 32 12
      vertex 32 36 12
    endloop
  endfacet
  facet normal 0 0 1
    outer loop
      vertex 28 32 12
      vertex 14 36 12
      vertex 14 32 12
    endloop
  endfacet
  facet normal 0 0 1
    outer loop
      vertex 32 20 12
      vertex 28 32 12
      vertex 28 20 12
    endloop
  endfacet
  facet normal 0 0 -1
    outer loop
      vertex 12 24 0
      vertex 4 24 0
      vertex 12 32 0
    endloop
  endfacet
  facet normal 0 0 -1
    outer loop
      vertex 32 0 0
      vertex 28 12 0
      vertex 32 36 0
    endloop
  endfacet
  facet normal 0 0 -1
    outer loop
      vertex 32 0 0
      vertex 20 4 0
      vertex 28 12 0
    endloop
  endfacet
  facet normal 0 0 -1
    outer loop
      vertex 32 0 0
      vertex 12 4 0
      vertex 20 4 0
    endloop
  endfacet
  facet normal 0 0 -1
    outer loop
      vertex 12 4 0
      vertex 4 12 0
      vertex 12 12 0
    endloop
  endfacet
  facet normal -0 0 -1
    outer loop
      vertex 4 12 0
      vertex 0 0 0
      vertex 4 24 0
    endloop
  endfacet
  facet normal -0 0 -1
    outer loop
      vertex 12 4 0
      vertex 0 0 0
      vertex 4 12 0
    endloop
  endfacet
  facet normal 0 0 -1
    outer loop
      vertex 0 0 0
      vertex 12 4 0
      vertex 32 0 0
    endloop
  endfacet
  facet normal 0 0 -1
    outer loop
      vertex 28 24 0
      vertex 32 36 0
      vertex 28 12 0
    endloop
  endfacet
  facet normal 0 0 -1
    outer loop
      vertex 20 32 0
      vertex 28 24 0
      vertex 20 24 0
    endloop
  endfacet
  facet normal 0 0 -1
    outer loop
      vertex 28 24 0
      vertex 20 32 0
      vertex 32 36 0
    endloop
  endfacet
  facet normal 0 0 -1
    outer loop
      vertex 12 32 0
      vertex 32 36 0
      vertex 20 32 0
    endloop
  endfacet
  facet normal 0 0 -1
    outer loop
      vertex 12 32 0
      vertex 0 36 0
      vertex 32 36 0
    endloop
  endfacet
  facet normal 0 0 -1
    outer loop
      vertex 4 24 0
      vertex 0 36 0
      vertex 12 32 0
    endloop
  endfacet
  facet normal 0 0 -1
    outer loop
      vertex 0 36 0
      vertex 4 24 0
      vertex 0 0 0
    endloop
  endfacet
  facet normal -0 0 -1
    outer loop
      vertex 28 12 0
      vertex 20 4 0
      vertex 20 12 0
    endloop
  endfacet
  facet normal -1 0 0
    outer loop
      vertex 0 0 0
      vertex 0 36 12
      vertex 0 36 0
    endloop
  endfacet
  facet normal -1 -0 0
    outer loop
      vertex 0 36 12
      vertex 0 0 0
      vertex 0 0 12
    endloop
  endfacet
  facet normal 0 1 0
    outer loop
      vertex 32 36 12
      vertex 14 36 3
      vertex 14 36 12
    endloop
  endfacet
  facet normal 0 1 0
    outer loop
      vertex 0 36 0
      vertex 12 36 3
      vertex 14 36 3
    endloop
  endfacet
  facet normal 0 1 0
    outer loop
      vertex 0 36 0
      vertex 14 36 3
      vertex 32 36 0
    endloop
  endfacet
  facet normal 0 1 -0
    outer loop
      vertex 32 36 0
      vertex 14 36 3
      vertex 32 36 12
    endloop
  endfacet
  facet normal 0 1 -0
    outer loop
      vertex 4 36 3
      vertex 0 36 12
      vertex 4 36 12
    endloop
  endfacet
  facet normal 0 1 0
    outer loop
      vertex 4 36 3
      vertex 0 36 0
      vertex 0 36 12
    endloop
  endfacet
  facet normal 0 1 0
    outer loop
      vertex 12 36 3
      vertex 0 36 0
      vertex 4 36 3
    endloop
  endfacet
  facet normal 0 -1 0
    outer loop
      vertex 0 0 0
      vertex 32 0 12
      vertex 0 0 12
    endloop
  endfacet
  facet normal 0 -1 -0
    outer loop
      vertex 32 0 12
      vertex 0 0 0
      vertex 32 0 0
    endloop
  endfacet
  facet normal -1 0 0
    outer loop
      vertex 28 24 0
      vertex 28 20 3
      vertex 28 24 3
    endloop
  endfacet
  facet normal -1 0 0
    outer loop
      vertex 28 12 0
      vertex 28 20 3
      vertex 28 24 0
    endloop
  endfacet
  facet normal -1 -0 0
    outer loop
      vertex 28 20 3
      vertex 28 12 0
      vertex 28 12 3
    endloop
  endfacet
  facet normal -1 0 0
    outer loop
      vertex 28 24 3
      vertex 28 32 12
      vertex 28 32 3
    endloop
  endfacet
  facet normal -1 0 0
    outer loop
      vertex 28 20 12
      vertex 28 24 3
      vertex 28 20 3
    endloop
  endfacet
  facet normal -1 0 0
    outer loop
      vertex 28 24 3
      vertex 28 20 12
      vertex 28 32 12
    endloop
  endfacet
  facet normal 1 0 0
    outer loop
      vertex 4 36 12
      vertex 4 24 3
      vertex 4 36 3
    endloop
  endfacet
  facet normal 1 0 0
    outer loop
      vertex 4 24 3
      vertex 4 12 3
      vertex 4 24 0
    endloop
  endfacet
  facet normal 1 -0 0
    outer loop
      vertex 4 4 12
      vertex 4 24 3
      vertex 4 36 12
    endloop
  endfacet
  facet normal 1 0 0
    outer loop
      vertex 4 24 3
      vertex 4 4 12
      vertex 4 12 3
    endloop
  endfacet
  facet normal 1 0 0
    outer loop
      vertex 4 12 3
      vertex 4 4 12
      vertex 4 4 3
    endloop
  endfacet
  facet normal 1 0 0
    outer loop
      vertex 4 24 0
      vertex 4 12 3
      vertex 4 12 0
    endloop
  endfacet
  facet normal 0 -1 0
    outer loop
      vertex 20 32 3
      vertex 14 32 12
      vertex 14 32 3
    endloop
  endfacet
  facet normal 0 -1 0
    outer loop
      vertex 14 32 12
      vertex 20 32 3
      vertex 28 32 12
    endloop
  endfacet
  facet normal 0 -1 -0
    outer loop
      vertex 28 32 12
      vertex 20 32 3
      vertex 28 32 3
    endloop
  endfacet
  facet normal 0 -1 0
    outer loop
      vertex 12 32 0
      vertex 14 32 3
      vertex 12 32 3
    endloop
  endfacet
  facet normal 0 -1 0
    outer loop
      vertex 20 32 0
      vertex 14 32 3
      vertex 12 32 0
    endloop
  endfacet
  facet normal 0 -1 0
    outer loop
      vertex 14 32 3
      vertex 20 32 0
      vertex 20 32 3
    endloop
  endfacet
  facet normal 0 1 -0
    outer loop
      vertex 20 4 0
      vertex 12 4 3
      vertex 20 4 3
    endloop
  endfacet
  facet normal 0 1 0
    outer loop
      vertex 12 4 3
      vertex 20 4 0
      vertex 12 4 0
    endloop
  endfacet
  facet normal 0 1 0
    outer loop
      vertex 20 4 3
      vertex 32 4 12
      vertex 32 4 3
    endloop
  endfacet
  facet normal 0 1 0
    outer loop
      vertex 32 4 12
      vertex 20 4 3
      vertex 4 4 12
    endloop
  endfacet
  facet normal 0 1 -0
    outer loop
      vertex 12 4 3
      vertex 4 4 12
      vertex 20 4 3
    endloop
  endfacet
  facet normal 0 1 0
    outer loop
      vertex 4 4 12
      vertex 12 4 3
      vertex 4 4 3
    endloop
  endfacet
  facet normal -0 0 1
    outer loop
      vertex 28 12 3
      vertex 32 4 3
      vertex 32 12 3
    endloop
  endfacet
  facet normal 0 0 1
    outer loop
      vertex 20 4 3
      vertex 28 12 3
      vertex 20 12 3
    endloop
  endfacet
  facet normal 0 0 1
    outer loop
      vertex 28 12 3
      vertex 20 4 3
      vertex 32 4 3
    endloop
  endfacet
  facet normal -0 0 1
    outer loop
      vertex 28 20 3
      vertex 32 12 3
      vertex 32 20 3
    endloop
  endfacet
  facet normal 0 0 1
    outer loop
      vertex 32 12 3
      vertex 28 20 3
      vertex 28 12 3
    endloop
  endfacet
  facet normal 0 -1 0
    outer loop
      vertex 28 20 3
      vertex 32 20 12
      vertex 28 20 12
    endloop
  endfacet
  facet normal 0 -1 -0
    outer loop
      vertex 32 20 12
      vertex 28 20 3
      vertex 32 20 3
    endloop
  endfacet
  facet normal -1 0 0
    outer loop
      vertex 14 32 3
      vertex 14 36 12
      vertex 14 36 3
    endloop
  endfacet
  facet normal -1 -0 0
    outer loop
      vertex 14 36 12
      vertex 14 32 3
      vertex 14 32 12
    endloop
  endfacet
  facet normal -0 0 1
    outer loop
      vertex 4 36 3
      vertex 12 32 3
      vertex 12 36 3
    endloop
  endfacet
  facet normal 0 0 1
    outer loop
      vertex 4 24 3
      vertex 12 32 3
      vertex 4 36 3
    endloop
  endfacet
  facet normal 0 0 1
    outer loop
      vertex 12 32 3
      vertex 4 24 3
      vertex 12 24 3
    endloop
  endfacet
  facet normal -0 0 1
    outer loop
      vertex 12 36 3
      vertex 14 32 3
      vertex 14 36 3
    endloop
  endfacet
  facet normal 0 0 1
    outer loop
      vertex 14 32 3
      vertex 12 36 3
      vertex 12 32 3
    endloop
  endfacet
  facet normal 1 -0 0
    outer loop
      vertex 12 4 3
      vertex 12 12 0
      vertex 12 12 3
    endloop
  endfacet
  facet normal 1 0 0
    outer loop
      vertex 12 12 0
      vertex 12 4 3
      vertex 12 4 0
    endloop
  endfacet
  facet normal -0 0 1
    outer loop
      vertex 4 12 3
      vertex 12 4 3
      vertex 12 12 3
    endloop
  endfacet
  facet normal 0 0 1
    outer loop
      vertex 12 4 3
      vertex 4 12 3
      vertex 4 4 3
    endloop
  endfacet
  facet normal 0 1 -0
    outer loop
      vertex 12 12 0
      vertex 4 12 3
      vertex 12 12 3
    endloop
  endfacet
  facet normal 0 1 0
    outer loop
      vertex 4 12 3
      vertex 12 12 0
      vertex 4 12 0
    endloop
  endfacet
  facet normal -1 0 0
    outer loop
      vertex 20 4 0
      vertex 20 12 3
      vertex 20 12 0
    endloop
  endfacet
  facet normal -1 -0 0
    outer loop
      vertex 20 12 3
      vertex 20 4 0
      vertex 20 4 3
    endloop
  endfacet
  facet normal 0 1 -0
    outer loop
      vertex 28 12 0
      vertex 20 12 3
      vertex 28 12 3
    endloop
  endfacet
  facet normal 0 1 0
    outer loop
      vertex 20 12 3
      vertex 28 12 0
      vertex 20 12 0
    endloop
  endfacet
  facet normal -0 0 1
    outer loop
      vertex 20 32 3
      vertex 28 24 3
      vertex 28 32 3
    endloop
  endfacet
  facet normal 0 0 1
    outer loop
      vertex 28 24 3
      vertex 20 32 3
      vertex 20 24 3
    endloop
  endfacet
  facet normal -1 0 0
    outer loop
      vertex 20 24 0
      vertex 20 32 3
      vertex 20 32 0
    endloop
  endfacet
  facet normal -1 -0 0
    outer loop
      vertex 20 32 3
      vertex 20 24 0
      vertex 20 24 3
    endloop
  endfacet
  facet normal 0 -1 0
    outer loop
      vertex 20 24 0
      vertex 28 24 3
      vertex 20 24 3
    endloop
  endfacet
  facet normal 0 -1 -0
    outer loop
      vertex 28 24 3
      vertex 20 24 0
      vertex 28 24 0
    endloop
  endfacet
  facet normal 1 -0 0
    outer loop
      vertex 12 24 3
      vertex 12 32 0
      vertex 12 32 3
    endloop
  endfacet
  facet normal 1 0 0
    outer loop
      vertex 12 32 0
      vertex 12 24 3
      vertex 12 24 0
    endloop
  endfacet
  facet normal 0 -1 0
    outer loop
      vertex 4 24 0
      vertex 12 24 3
      vertex 4 24 3
    endloop
  endfacet
  facet normal 0 -1 -0
    outer loop
      vertex 12 24 3
      vertex 4 24 0
      vertex 12 24 0
    endloop
  endfacet
  facet normal 1 -0 0
    outer loop
      vertex 72 0 2
      vertex 72 36 0
      vertex 72 36 2
    endloop
  endfacet
  facet normal 1 0 0
    outer loop
      vertex 72 36 0
      vertex 72 0 2
      vertex 72 0 0
    endloop
  endfacet
  facet normal 0 0 1
    outer loop
      vertex 72 36 2
      vertex 68 32 2
      vertex 72 0 2
    endloop
  endfacet
  facet normal 0 0 1
    outer loop
      vertex 72 36 2
      vertex 44 32 2
      vertex 68 32 2
    endloop
  endfacet
  facet normal 0 0 1
    outer loop
      vertex 44 32 2
      vertex 40 36 2
      vertex 44 4 2
    endloop
  endfacet
  facet normal -0 0 1
    outer loop
      vertex 40 36 2
      vertex 44 32 2
      vertex 72 36 2
    endloop
  endfacet
  facet normal -0 0 1
    outer loop
      vertex 68 4 2
      vertex 72 0 2
      vertex 68 32 2
    endloop
  endfacet
  facet normal -0 0 1
    outer loop
      vertex 44 4 2
      vertex 72 0 2
      vertex 68 4 2
    endloop
  endfacet
  facet normal 0 0 1
    outer loop
      vertex 44 4 2
      vertex 40 0 2
      vertex 72 0 2
    endloop
  endfacet
  facet normal 0 0 1
    outer loop
      vertex 40 0 2
      vertex 44 4 2
      vertex 40 36 2
    endloop
  endfacet
  facet normal 0 0 -1
    outer loop
      vertex 40 0 0
      vertex 72 36 0
      vertex 72 0 0
    endloop
  endfacet
  facet normal -0 0 -1
    outer loop
      vertex 72 36 0
      vertex 40 0 0
      vertex 40 36 0
    endloop
  endfacet
  facet normal -1 0 0
    outer loop
      vertex 40 0 0
      vertex 40 36 2
      vertex 40 36 0
    endloop
  endfacet
  facet normal -1 -0 0
    outer loop
      vertex 40 36 2
      vertex 40 0 0
      vertex 40 0 2
    endloop
  endfacet
  facet normal 0 1 -0
    outer loop
      vertex 72 36 0
      vertex 40 36 2
      vertex 72 36 2
    endloop
  endfacet
  facet normal 0 1 0
    outer loop
      vertex 40 36 2
      vertex 72 36 0
      vertex 40 36 0
    endloop
  endfacet
  facet normal 0 -1 0
    outer loop
      vertex 40 0 0
      vertex 72 0 2
      vertex 40 0 2
    endloop
  endfacet
  facet normal 0 -1 -0
    outer loop
      vertex 72 0 2
      vertex 40 0 0
      vertex 72 0 0
    endloop
  endfacet
  facet normal 1 -0 0
    outer loop
      vertex 68 4 3
      vertex 68 32 2
      vertex 68 32 3
    endloop
  endfacet
  facet normal 1 0 0
    outer loop
      vertex 68 32 2
      vertex 68 4 3
      vertex 68 4 2
    endloop
  endfacet
  facet normal -0 0 1
    outer loop
      vertex 44 32 3
      vertex 68 4 3
      vertex 68 32 3
    endloop
  endfacet
  facet normal 0 0 1
    outer loop
      vertex 68 4 3
      vertex 44 32 3
      vertex 44 4 3
    endloop
  endfacet
  facet normal -1 0 0
    outer loop
      vertex 44 4 2
      vertex 44 32 3
      vertex 44 32 2
    endloop
  endfacet
  facet normal -1 -0 0
    outer loop
      vertex 44 32 3
      vertex 44 4 2
      vertex 44 4 3
    endloop
  endfacet
  facet normal 0 1 -0
    outer loop
      vertex 68 32 2
      vertex 44 32 3
      vertex 68 32 3
    endloop
  endfacet
  facet normal 0 1 0
    outer loop
      vertex 44 32 3
      vertex 68 32 2
      vertex 44 32 2
    endloop
  endfacet
  facet normal 0 -1 0
    outer loop
      vertex 44 4 2
      vertex 68 4 3
      vertex 44 4 3
    endloop
  endfacet
  facet normal 0 -1 -0
    outer loop
      vertex 68 4 3
      vertex 44 4 2
      vertex 68 4 2
    endloop
  endfacet
endsolid OpenSCAD_Model
