solid OpenSCAD_Model
  facet normal -1 0 0
    outer loop
      vertex 0 0 0
      vertex 0 0 3
      vertex 0 24 0
    endloop
  endfacet
  facet normal -1 0 0
    outer loop
      vertex 0 24 0
      vertex 0 0 3
      vertex 0 4 3
    endloop
  endfacet
  facet normal -1 0 0
    outer loop
      vertex 0 7 3
      vertex 0 4 3
      vertex 0 4 7
    endloop
  endfacet
  facet normal -1 0 0
    outer loop
      vertex 0 24 0
      vertex 0 4 3
      vertex 0 7 3
    endloop
  endfacet
  facet normal -1 0 0
    outer loop
      vertex 0 17 3
      vertex 0 24 0
      vertex 0 7 3
    endloop
  endfacet
  facet normal -1 0 0
    outer loop
      vertex 0 20 3
      vertex 0 17 7
      vertex 0 20 7
    endloop
  endfacet
  facet normal -1 0 0
    outer loop
      vertex 0 20 3
      vertex 0 17 3
      vertex 0 17 7
    endloop
  endfacet
  facet normal -1 0 0
    outer loop
      vertex 0 24 0
      vertex 0 17 3
      vertex 0 20 3
    endloop
  endfacet
  facet normal -1 0 0
    outer loop
      vertex 0 24 3
      vertex 0 24 0
      vertex 0 20 3
    endloop
  endfacet
  facet normal -1 0 0
    outer loop
      vertex 0 7 3
      vertex 0 4 7
      vertex 0 7 7
    endloop
  endfacet
  facet normal 0 -1 0
    outer loop
      vertex 0 0 3
      vertex 0 0 0
      vertex 30 0 0
    endloop
  endfacet
  facet normal 0 -1 0
    outer loop
      vertex 30 0 3
      vertex 0 0 3
      vertex 30 0 0
    endloop
  endfacet
  facet normal 0 0 -1
    outer loop
      vertex 0 0 0
      vertex 0 24 0
      vertex 30 0 0
    endloop
  endfacet
  facet normal 0 0 -1
    outer loop
      vertex 30 0 0
      vertex 0 24 0
      vertex 30 24 0
    endloop
  endfacet
  facet normal 0 1 0
    outer loop
      vertex 0 24 0
      vertex 0 24 3
      vertex 30 24 0
    endloop
  endfacet
  facet normal 0 1 0
    outer loop
      vertex 30 24 0
      vertex 0 24 3
      vertex 30 24 3
    endloop
  endfacet
  facet normal 0 0 1
    outer loop
      vertex 0 24 3
      vertex 0 20 3
      vertex 30 20 3
    endloop
  endfacet
  facet normal 0 0 1
    outer loop
      vertex 30 24 3
      vertex 0 24 3
      vertex 30 20 3
    endloop
  endfacet
  facet normal 0 1 0
    outer loop
      vertex 0 20 3
      vertex 0 20 7
      vertex 30 20 3
    endloop
  endfacet
  facet normal 0 1 0
    outer loop
      vertex 30 20 3
      vertex 0 20 7
      vertex 30 20 7
    endloop
  endfacet
  facet normal 0 0 1
    outer loop
      vertex 0 20 7
      vertex 0 17 7
      vertex 30 17 7
    endloop
  endfacet
  facet normal 0 0 1
    outer loop
      vertex 30 20 7
      vertex 0 20 7
      vertex 30 17 7
    endloop
  endfacet
  facet normal 0 -1 0
    outer loop
      vertex 0 17 7
      vertex 0 17 3
      vertex 30 17 3
    endloop
  endfacet
  facet normal 0 -1 0
    outer loop
      vertex 30 17 7
      vertex 0 17 7
      vertex 30 17 3
    endloop
  endfacet
  facet normal 0 0 1
    outer loop
      vertex 0 17 3
      vertex 0 7 3
      vertex 30 7 3
    endloop
  endfacet
  facet normal 0 0 1
    outer loop
      vertex 30 17 3
      vertex 0 17 3
      vertex 30 7 3
    endloop
  endfacet
  facet normal 0 1 0
    outer loop
      vertex 0 7 3
      vertex 0 7 7
      vertex 30 7 3
    endloop
  endfacet
  facet normal 0 1 0
    outer loop
      vertex 30 7 3
      vertex 0 7 7
      vertex 30 7 7
    endloop
  endfacet
  facet normal 0 0 1
    outer loop
      vertex 0 7 7
      vertex 0 4 7
      vertex 30 4 7
    endloop
  endfacet
  facet normal 0 0 1
    outer loop
      vertex 30 7 7
      vertex 0 7 7
      vertex 30 4 7
    endloop
  endfacet
  facet normal 0 -1 0
    outer loop
      vertex 0 4 7
      vertex 0 4 3
      vertex 30 4 3
    endloop
  endfacet
  facet normal 0 -1 0
    outer loop
      vertex 30 4 7
      vertex 0 4 7
      vertex 30 4 3
    endloop
  endfacet
  facet normal 0 0 1
    outer loop
      vertex 0 4 3
      vertex 0 0 3
      vertex 30 0 3
    endloop
  endfacet
  facet normal 0 0 1
    outer loop
      vertex 30 4 3
      vertex 0 4 3
      vertex 30 0 3
    endloop
  endfacet
  facet normal 1 0 0
    outer loop
      vertex 30 0 3
      vertex 30 0 0
      vertex 30 24 0
    endloop
  endfacet
  facet normal 1 0 0
    outer loop
      vertex 30 17 3
      vertex 30 7 3
      vertex 30 24 0
    endloop
  endfacet
  facet normal 1 0 0
    outer loop
      vertex 30 20 3
      vertex 30 17 3
      vertex 30 24 0
    endloop
  endfacet
  facet normal 1 0 0
    outer loop
      vertex 30 24 3
      vertex 30 20 3
      vertex 30 24 0
    endloop
  endfacet
  facet normal 1 0 0
    outer loop
      vertex 30 20 7
      vertex 30 17 3
      vertex 30 20 3
    endloop
  endfacet
  facet normal 1 0 0
    outer loop
      vertex 30 7 3
      vertex 30 4 3
      vertex 30 24 0
    endloop
  endfacet
  facet normal 1 0 0
    outer loop
      vertex 30 4 3
      vertex 30 0 3
      vertex 30 24 0
    endloop
  endfacet
  facet normal 1 0 0
    outer loop
      vertex 30 7 3
      vertex 30 7 7
      vertex 30 4 3
    endloop
  endfacet
  facet normal 1 0 0
    outer loop
      vertex 30 4 7
      vertex 30 4 3
      vertex 30 7 7
    endloop
  endfacet
  facet normal 1 0 0
    outer loop
      vertex 30 17 7
      vertex 30 17 3
      vertex 30 20 7
    endloop
  endfacet
endsolid OpenSCAD_Model
