solid OpenSCAD_Model
  facet normal -1 0 0
    outer loop
      vertex -1.66477 -0.801713 1.23463
      vertex -1.66477 -0.801713 7.76537
      vertex -1.66477 10.8017 1.23463
    endloop
  endfacet
  facet normal -1 0 0
    outer loop
      vertex -1.66477 10.8017 1.23463
      vertex -1.66477 -0.801713 7.76537
      vertex -1.66477 10.8017 7.76537
    endloop
  endfacet
  facet normal -0.62349 -0.781831 0
    outer loop
      vertex -1.66477 -0.801713 7.76537
      vertex -1.66477 -0.801713 1.23463
      vertex -0.411165 -1.80143 1.23463
    endloop
  endfacet
  facet normal -0.62349 -0.781831 0
    outer loop
      vertex -0.411165 -1.80143 7.76537
      vertex -1.66477 -0.801713 7.76537
      vertex -0.411165 -1.80143 1.23463
    endloop
  endfacet
  facet normal -0.463213 -0.580851 -0.669362
    outer loop
      vertex -0.411165 -1.80143 1.23463
      vertex -1.66477 -0.801713 1.23463
      vertex -0.17031 -0.746178 0.152241
    endloop
  endfacet
  facet normal -0.463213 -0.580851 -0.669362
    outer loop
      vertex -0.17031 -0.746178 0.152241
      vertex -1.66477 -0.801713 1.23463
      vertex -0.689572 -0.33208 0.152241
    endloop
  endfacet
  facet normal -0.742936 0 -0.669362
    outer loop
      vertex -1.66477 -0.801713 1.23463
      vertex -1.66477 10.8017 1.23463
      vertex -0.689572 -0.33208 0.152241
    endloop
  endfacet
  facet normal -0.742936 0 -0.669362
    outer loop
      vertex -0.689572 -0.33208 0.152241
      vertex -1.66477 10.8017 1.23463
      vertex -0.689572 10.3321 0.152241
    endloop
  endfacet
  facet normal -0.62349 0.781831 0
    outer loop
      vertex -1.66477 10.8017 1.23463
      vertex -1.66477 10.8017 7.76537
      vertex -0.411165 11.8014 1.23463
    endloop
  endfacet
  facet normal -0.62349 0.781831 0
    outer loop
      vertex -0.411165 11.8014 1.23463
      vertex -1.66477 10.8017 7.76537
      vertex -0.411165 11.8014 7.76537
    endloop
  endfacet
  facet normal -0.463213 0.580851 -0.669362
    outer loop
      vertex -0.689572 10.3321 0.152241
      vertex -1.66477 10.8017 1.23463
      vertex -0.411165 11.8014 1.23463
    endloop
  endfacet
  facet normal -0.463213 0.580851 0.669362
    outer loop
      vertex -0.411165 11.8014 7.76537
      vertex -1.66477 10.8017 7.76537
      vertex -0.17031 10.7462 8.84776
    endloop
  endfacet
  facet normal -0.463213 0.580851 0.669362
    outer loop
      vertex -0.17031 10.7462 8.84776
      vertex -1.66477 10.8017 7.76537
      vertex -0.689572 10.3321 8.84776
    endloop
  endfacet
  facet normal -0.742936 0 0.669362
    outer loop
      vertex -1.66477 -0.801713 7.76537
      vertex -0.689572 -0.33208 8.84776
      vertex -1.66477 10.8017 7.76537
    endloop
  endfacet
  facet normal -0.742936 0 0.669362
    outer loop
      vertex -1.66477 10.8017 7.76537
      vertex -0.689572 -0.33208 8.84776
      vertex -0.689572 10.3321 8.84776
    endloop
  endfacet
  facet normal -0.463213 -0.580851 0.669362
    outer loop
      vertex -0.689572 -0.33208 8.84776
      vertex -1.66477 -0.801713 7.76537
      vertex -0.411165 -1.80143 7.76537
    endloop
  endfacet
  facet normal -0.463213 -0.580851 0.669362
    outer loop
      vertex -0.17031 -0.746178 8.84776
      vertex -0.689572 -0.33208 8.84776
      vertex -0.411165 -1.80143 7.76537
    endloop
  endfacet
  facet normal 0 -0.716026 0.698074
    outer loop
      vertex -0.17031 -0.746178 8.84776
      vertex -0.411165 -1.80143 7.76537
      vertex 9.58883 -1.80143 7.76537
    endloop
  endfacet
  facet normal 0 -0.716026 0.698074
    outer loop
      vertex 9.82969 -0.746178 8.84776
      vertex -0.17031 -0.746178 8.84776
      vertex 9.58883 -1.80143 7.76537
    endloop
  endfacet
  facet normal 0 -1 0
    outer loop
      vertex -0.411165 -1.80143 7.76537
      vertex -0.411165 -1.80143 1.23463
      vertex 9.58883 -1.80143 1.23463
    endloop
  endfacet
  facet normal 0 -1 0
    outer loop
      vertex 9.58883 -1.80143 7.76537
      vertex -0.411165 -1.80143 7.76537
      vertex 9.58883 -1.80143 1.23463
    endloop
  endfacet
  facet normal 0 -0.716026 -0.698074
    outer loop
      vertex 9.58883 -1.80143 1.23463
      vertex -0.411165 -1.80143 1.23463
      vertex -0.17031 -0.746178 0.152241
    endloop
  endfacet
  facet normal 0 -0.716026 -0.698074
    outer loop
      vertex 9.82969 -0.746178 0.152241
      vertex 9.58883 -1.80143 1.23463
      vertex -0.17031 -0.746178 0.152241
    endloop
  endfacet
  facet normal 0 0 -1
    outer loop
      vertex -0.689572 -0.33208 0.152241
      vertex -0.689572 10.3321 0.152241
      vertex -0.17031 -0.746178 0.152241
    endloop
  endfacet
  facet normal 0 0 -1
    outer loop
      vertex -0.17031 -0.746178 0.152241
      vertex -0.689572 10.3321 0.152241
      vertex -0.17031 10.7462 0.152241
    endloop
  endfacet
  facet normal 0 0 -1
    outer loop
      vertex 0 10 0.152241
      vertex -0.17031 10.7462 0.152241
      vertex 9.82969 10.7462 0.152241
    endloop
  endfacet
  facet normal 0 0 -1
    outer loop
      vertex 10 10 0.152241
      vertex 10.4772 10.5984 0.152241
      vertex 10.7654 10 0.152241
    endloop
  endfacet
  facet normal 0 0 -1
    outer loop
      vertex 10 0 0.152241
      vertex 10.7654 10 0.152241
      vertex 10.7654 0 0.152241
    endloop
  endfacet
  facet normal 0 0 -1
    outer loop
      vertex -0.17031 -0.746178 0.152241
      vertex 10.7654 0 0.152241
      vertex 10.4772 -0.598388 0.152241
    endloop
  endfacet
  facet normal 0 0 -1
    outer loop
      vertex -0.17031 -0.746178 0.152241
      vertex 10.4772 -0.598388 0.152241
      vertex 9.82969 -0.746178 0.152241
    endloop
  endfacet
  facet normal 0 0 -1
    outer loop
      vertex -0.17031 -0.746178 0.152241
      vertex -0.17031 10.7462 0.152241
      vertex 0 10 0.152241
    endloop
  endfacet
  facet normal 0 0 -1
    outer loop
      vertex 10 0 0.152241
      vertex -0.17031 -0.746178 0.152241
      vertex 0 0 0.152241
    endloop
  endfacet
  facet normal 0 0 -1
    outer loop
      vertex -0.17031 -0.746178 0.152241
      vertex 0 10 0.152241
      vertex 0 0 0.152241
    endloop
  endfacet
  facet normal 0 0 -1
    outer loop
      vertex 10 10 0.152241
      vertex 10.7654 10 0.152241
      vertex 10 0 0.152241
    endloop
  endfacet
  facet normal 0 0 -1
    outer loop
      vertex -0.17031 -0.746178 0.152241
      vertex 10 0 0.152241
      vertex 10.7654 0 0.152241
    endloop
  endfacet
  facet normal 0 0 -1
    outer loop
      vertex 0 10 0.152241
      vertex 9.82969 10.7462 0.152241
      vertex 10.4772 10.5984 0.152241
    endloop
  endfacet
  facet normal 0 0 -1
    outer loop
      vertex 0 10 0.152241
      vertex 10.4772 10.5984 0.152241
      vertex 10 10 0.152241
    endloop
  endfacet
  facet normal -0.463213 0.580851 -0.669362
    outer loop
      vertex -0.17031 10.7462 0.152241
      vertex -0.689572 10.3321 0.152241
      vertex -0.411165 11.8014 1.23463
    endloop
  endfacet
  facet normal 0 0.716026 -0.698074
    outer loop
      vertex -0.411165 11.8014 1.23463
      vertex 9.58883 11.8014 1.23463
      vertex -0.17031 10.7462 0.152241
    endloop
  endfacet
  facet normal 0 0.716026 -0.698074
    outer loop
      vertex -0.17031 10.7462 0.152241
      vertex 9.58883 11.8014 1.23463
      vertex 9.82969 10.7462 0.152241
    endloop
  endfacet
  facet normal 0 1 0
    outer loop
      vertex -0.411165 11.8014 1.23463
      vertex -0.411165 11.8014 7.76537
      vertex 9.58883 11.8014 1.23463
    endloop
  endfacet
  facet normal 0 1 0
    outer loop
      vertex 9.58883 11.8014 1.23463
      vertex -0.411165 11.8014 7.76537
      vertex 9.58883 11.8014 7.76537
    endloop
  endfacet
  facet normal 0 0.716026 0.698074
    outer loop
      vertex -0.411165 11.8014 7.76537
      vertex -0.17031 10.7462 8.84776
      vertex 9.58883 11.8014 7.76537
    endloop
  endfacet
  facet normal 0 0.716026 0.698074
    outer loop
      vertex 9.58883 11.8014 7.76537
      vertex -0.17031 10.7462 8.84776
      vertex 9.82969 10.7462 8.84776
    endloop
  endfacet
  facet normal 0 0 1
    outer loop
      vertex -0.689572 10.3321 8.84776
      vertex -0.689572 -0.33208 8.84776
      vertex -0.17031 -0.746178 8.84776
    endloop
  endfacet
  facet normal 0 0 1
    outer loop
      vertex 0 0 8.84776
      vertex -0.689572 10.3321 8.84776
      vertex -0.17031 -0.746178 8.84776
    endloop
  endfacet
  facet normal 0 0 1
    outer loop
      vertex 0 0 8.84776
      vertex 0 10 8.84776
      vertex -0.689572 10.3321 8.84776
    endloop
  endfacet
  facet normal 0 0 1
    outer loop
      vertex 10.4772 10.5984 8.84776
      vertex -0.689572 10.3321 8.84776
      vertex 10.7654 10 8.84776
    endloop
  endfacet
  facet normal 0 0 1
    outer loop
      vertex 9.82969 10.7462 8.84776
      vertex -0.689572 10.3321 8.84776
      vertex 10.4772 10.5984 8.84776
    endloop
  endfacet
  facet normal 0 0 1
    outer loop
      vertex -0.17031 10.7462 8.84776
      vertex -0.689572 10.3321 8.84776
      vertex 9.82969 10.7462 8.84776
    endloop
  endfacet
  facet normal 0 0 1
    outer loop
      vertex 9.82969 -0.746178 8.84776
      vertex 0 0 8.84776
      vertex -0.17031 -0.746178 8.84776
    endloop
  endfacet
  facet normal 0 0 1
    outer loop
      vertex 10.7654 10 8.84776
      vertex 10 10 8.84776
      vertex 10.7654 0 8.84776
    endloop
  endfacet
  facet normal 0 0 1
    outer loop
      vertex 10 10 8.84776
      vertex -0.689572 10.3321 8.84776
      vertex 0 10 8.84776
    endloop
  endfacet
  facet normal 0 0 1
    outer loop
      vertex 10.7654 10 8.84776
      vertex -0.689572 10.3321 8.84776
      vertex 10 10 8.84776
    endloop
  endfacet
  facet normal 0 0 1
    outer loop
      vertex 10.7654 0 8.84776
      vertex 10 0 8.84776
      vertex 10.4772 -0.598388 8.84776
    endloop
  endfacet
  facet normal 0 0 1
    outer loop
      vertex 10 10 8.84776
      vertex 10 0 8.84776
      vertex 10.7654 0 8.84776
    endloop
  endfacet
  facet normal 0 0 1
    outer loop
      vertex 10 0 8.84776
      vertex 9.82969 -0.746178 8.84776
      vertex 10.4772 -0.598388 8.84776
    endloop
  endfacet
  facet normal 0 0 1
    outer loop
      vertex 10 0 8.84776
      vertex 0 0 8.84776
      vertex 9.82969 -0.746178 8.84776
    endloop
  endfacet
  facet normal 0.165319 -0.724309 0.669362
    outer loop
      vertex 10.4772 -0.598388 8.84776
      vertex 9.82969 -0.746178 8.84776
      vertex 11.1521 -1.44464 7.76537
    endloop
  endfacet
  facet normal 0.165319 -0.724309 0.669362
    outer loop
      vertex 9.82969 -0.746178 8.84776
      vertex 9.58883 -1.80143 7.76537
      vertex 11.1521 -1.44464 7.76537
    endloop
  endfacet
  facet normal 0.222521 -0.974928 0
    outer loop
      vertex 9.58883 -1.80143 7.76537
      vertex 9.58883 -1.80143 1.23463
      vertex 11.1521 -1.44464 1.23463
    endloop
  endfacet
  facet normal 0.222521 -0.974928 0
    outer loop
      vertex 11.1521 -1.44464 7.76537
      vertex 9.58883 -1.80143 7.76537
      vertex 11.1521 -1.44464 1.23463
    endloop
  endfacet
  facet normal 0.165319 -0.724309 -0.669362
    outer loop
      vertex 11.1521 -1.44464 1.23463
      vertex 9.58883 -1.80143 1.23463
      vertex 10.4772 -0.598388 0.152241
    endloop
  endfacet
  facet normal 0.165319 -0.724309 -0.669362
    outer loop
      vertex 10.4772 -0.598388 0.152241
      vertex 9.58883 -1.80143 1.23463
      vertex 9.82969 -0.746178 0.152241
    endloop
  endfacet
  facet normal 0.669362 -0.322348 -0.669363
    outer loop
      vertex 11.1521 -1.44464 1.23463
      vertex 10.4772 -0.598388 0.152241
      vertex 10.7654 0 0.152241
    endloop
  endfacet
  facet normal 0.669362 -0.322348 -0.669362
    outer loop
      vertex 11.1521 -1.44464 1.23463
      vertex 10.7654 0 0.152241
      vertex 11.8478 0 1.23463
    endloop
  endfacet
  facet normal 0.707107 0 -0.707107
    outer loop
      vertex 11.8478 0 1.23463
      vertex 10.7654 0 0.152241
      vertex 10.7654 10 0.152241
    endloop
  endfacet
  facet normal 0.707107 0 -0.707107
    outer loop
      vertex 11.8478 10 1.23463
      vertex 11.8478 0 1.23463
      vertex 10.7654 10 0.152241
    endloop
  endfacet
  facet normal 0.669362 0.322348 -0.669362
    outer loop
      vertex 10.7654 10 0.152241
      vertex 10.4772 10.5984 0.152241
      vertex 11.8478 10 1.23463
    endloop
  endfacet
  facet normal 0.669362 0.322348 -0.669363
    outer loop
      vertex 11.8478 10 1.23463
      vertex 10.4772 10.5984 0.152241
      vertex 11.1521 11.4446 1.23463
    endloop
  endfacet
  facet normal 0.165319 0.724309 -0.669362
    outer loop
      vertex 10.4772 10.5984 0.152241
      vertex 9.82969 10.7462 0.152241
      vertex 11.1521 11.4446 1.23463
    endloop
  endfacet
  facet normal 0.165319 0.724309 -0.669362
    outer loop
      vertex 9.82969 10.7462 0.152241
      vertex 9.58883 11.8014 1.23463
      vertex 11.1521 11.4446 1.23463
    endloop
  endfacet
  facet normal 1 0 0
    outer loop
      vertex 0 10 0.152241
      vertex 0 10 8.84776
      vertex 0 0 8.84776
    endloop
  endfacet
  facet normal 1 0 0
    outer loop
      vertex 0 0 0.152241
      vertex 0 10 0.152241
      vertex 0 0 8.84776
    endloop
  endfacet
  facet normal 0 -1 0
    outer loop
      vertex 10 10 0.152241
      vertex 10 10 8.84776
      vertex 0 10 8.84776
    endloop
  endfacet
  facet normal 0 -1 0
    outer loop
      vertex 0 10 0.152241
      vertex 10 10 0.152241
      vertex 0 10 8.84776
    endloop
  endfacet
  facet normal -1 0 0
    outer loop
      vertex 10 10 8.84776
      vertex 10 10 0.152241
      vertex 10 0 8.84776
    endloop
  endfacet
  facet normal -1 0 0
    outer loop
      vertex 10 0 8.84776
      vertex 10 10 0.152241
      vertex 10 0 0.152241
    endloop
  endfacet
  facet normal 0 1 0
    outer loop
      vertex 10 0 8.84776
      vertex 10 0 0.152241
      vertex 0 0 8.84776
    endloop
  endfacet
  facet normal 0 1 0
    outer loop
      vertex 0 0 8.84776
      vertex 10 0 0.152241
      vertex 0 0 0.152241
    endloop
  endfacet
  facet normal 0.222521 0.974928 0
    outer loop
      vertex 9.58883 11.8014 1.23463
      vertex 9.58883 11.8014 7.76537
      vertex 11.1521 11.4446 1.23463
    endloop
  endfacet
  facet normal 0.222521 0.974928 0
    outer loop
      vertex 11.1521 11.4446 1.23463
      vertex 9.58883 11.8014 7.76537
      vertex 11.1521 11.4446 7.76537
    endloop
  endfacet
  facet normal 0.165319 0.724309 0.669362
    outer loop
      vertex 11.1521 11.4446 7.76537
      vertex 9.58883 11.8014 7.76537
      vertex 10.4772 10.5984 8.84776
    endloop
  endfacet
  facet normal 0.165319 0.724309 0.669362
    outer loop
      vertex 10.4772 10.5984 8.84776
      vertex 9.58883 11.8014 7.76537
      vertex 9.82969 10.7462 8.84776
    endloop
  endfacet
  facet normal 0.669362 0.322348 0.669363
    outer loop
      vertex 11.1521 11.4446 7.76537
      vertex 10.4772 10.5984 8.84776
      vertex 10.7654 10 8.84776
    endloop
  endfacet
  facet normal 0.669362 0.322348 0.669362
    outer loop
      vertex 11.1521 11.4446 7.76537
      vertex 10.7654 10 8.84776
      vertex 11.8478 10 7.76537
    endloop
  endfacet
  facet normal 0.707107 0 0.707107
    outer loop
      vertex 10.7654 10 8.84776
      vertex 10.7654 0 8.84776
      vertex 11.8478 0 7.76537
    endloop
  endfacet
  facet normal 0.707107 0 0.707107
    outer loop
      vertex 11.8478 10 7.76537
      vertex 10.7654 10 8.84776
      vertex 11.8478 0 7.76537
    endloop
  endfacet
  facet normal 0.669362 -0.322348 0.669362
    outer loop
      vertex 10.7654 0 8.84776
      vertex 10.4772 -0.598388 8.84776
      vertex 11.8478 0 7.76537
    endloop
  endfacet
  facet normal 0.669362 -0.322348 0.669363
    outer loop
      vertex 11.8478 0 7.76537
      vertex 10.4772 -0.598388 8.84776
      vertex 11.1521 -1.44464 7.76537
    endloop
  endfacet
  facet normal 0.900969 -0.433884 0
    outer loop
      vertex 11.1521 -1.44464 7.76537
      vertex 11.1521 -1.44464 1.23463
      vertex 11.8478 0 1.23463
    endloop
  endfacet
  facet normal 0.900969 -0.433884 0
    outer loop
      vertex 11.8478 0 7.76537
      vertex 11.1521 -1.44464 7.76537
      vertex 11.8478 0 1.23463
    endloop
  endfacet
  facet normal 1 0 0
    outer loop
      vertex 11.8478 0 7.76537
      vertex 11.8478 0 1.23463
      vertex 11.8478 10 1.23463
    endloop
  endfacet
  facet normal 1 0 0
    outer loop
      vertex 11.8478 10 7.76537
      vertex 11.8478 0 7.76537
      vertex 11.8478 10 1.23463
    endloop
  endfacet
  facet normal 0.900969 0.433884 0
    outer loop
      vertex 11.8478 10 1.23463
      vertex 11.1521 11.4446 1.23463
      vertex 11.1521 11.4446 7.76537
    endloop
  endfacet
  facet normal 0.900969 0.433884 0
    outer loop
      vertex 11.8478 10 7.76537
      vertex 11.8478 10 1.23463
      vertex 11.1521 11.4446 7.76537
    endloop
  endfacet
endsolid OpenSCAD_Model
