solid OpenSCAD_Model
  facet normal 1 -0 0
    outer loop
      vertex 14.5 0.519382 10
      vertex 14.5 30.5 7
      vertex 14.5 30.5 10
    endloop
  endfacet
  facet normal 1 0 0
    outer loop
      vertex 14.5 30.5 7
      vertex 14.5 0.519382 10
      vertex 14.5 0.519382 7
    endloop
  endfacet
  facet normal -1 0 0
    outer loop
      vertex 16.5 8.24228 7
      vertex 16.5 29.8083 10
      vertex 16.5 29.8083 7
    endloop
  endfacet
  facet normal -1 -0 0
    outer loop
      vertex 16.5 29.8083 10
      vertex 16.5 8.24228 7
      vertex 16.5 8.24228 10
    endloop
  endfacet
  facet normal 0 0 1
    outer loop
      vertex 23.8042 28.7145 7
      vertex 18.9791 7.39219 7
      vertex 25.7712 28.2964 7
    endloop
  endfacet
  facet normal 0 -0 1
    outer loop
      vertex 18.9791 7.39219 7
      vertex 23.8042 28.7145 7
      vertex 17.1102 8.11258 7
    endloop
  endfacet
  facet normal 0 0 1
    outer loop
      vertex 32.6776 25.1818 7
      vertex 21.1731 5.94464 7
      vertex 34.2957 24.0063 7
    endloop
  endfacet
  facet normal 0 -0 1
    outer loop
      vertex 21.1731 5.94464 7
      vertex 32.6776 25.1818 7
      vertex 19.5551 7.12021 7
    endloop
  endfacet
  facet normal 0 0 1
    outer loop
      vertex 40.2576 18.9687 7
      vertex 22.8819 3.87247 7
      vertex 41.6032 17.4743 7
    endloop
  endfacet
  facet normal 0 -0 1
    outer loop
      vertex 22.8819 3.87247 7
      vertex 40.2576 18.9687 7
      vertex 21.635 5.43865 7
    endloop
  endfacet
  facet normal 0 0 1
    outer loop
      vertex 46.1579 10.6495 7
      vertex 47.0987 8.8523 7
      vertex 46.9741 9.23578 7
    endloop
  endfacet
  facet normal 0 0 1
    outer loop
      vertex 46.1579 10.6495 7
      vertex 24.0289 1.35647 7
      vertex 47.0987 8.8523 7
    endloop
  endfacet
  facet normal 0 -0 1
    outer loop
      vertex 24.0289 1.35647 7
      vertex 46.1579 10.6495 7
      vertex 23.2639 3.21084 7
    endloop
  endfacet
  facet normal 0 0 1
    outer loop
      vertex 49.4219 0.5 7
      vertex 24.5 -1.5 7
      vertex 49.6321 -1.5 7
    endloop
  endfacet
  facet normal -0 0 1
    outer loop
      vertex 24.2898 0.5 7
      vertex 24.5 -1.5 7
      vertex 49.4219 0.5 7
    endloop
  endfacet
  facet normal 0 0 1
    outer loop
      vertex 16.5194 -1.5 7
      vertex 24.5 -1.5 7
      vertex 24.2898 0.5 7
    endloop
  endfacet
  facet normal 0 0 1
    outer loop
      vertex 24.0289 1.35647 7
      vertex 24.2898 0.5 7
      vertex 24.2815 0.579117 7
    endloop
  endfacet
  facet normal 0 0 1
    outer loop
      vertex 24.2898 0.5 7
      vertex 24.0289 1.35647 7
      vertex 16.5194 -1.5 7
    endloop
  endfacet
  facet normal 0 0 1
    outer loop
      vertex 16.5194 -1.5 7
      vertex 24.0289 1.35647 7
      vertex 23.2639 3.21084 7
    endloop
  endfacet
  facet normal 0 0 1
    outer loop
      vertex 16.5194 -1.5 7
      vertex 23.2639 3.21084 7
      vertex 22.8819 3.87247 7
    endloop
  endfacet
  facet normal 0 0 1
    outer loop
      vertex 16.5194 -1.5 7
      vertex 22.8819 3.87247 7
      vertex 21.635 5.43865 7
    endloop
  endfacet
  facet normal 0 0 1
    outer loop
      vertex 21.1731 5.94464 7
      vertex 21.635 5.43865 7
      vertex 21.1913 5.93144 7
    endloop
  endfacet
  facet normal 0 0 1
    outer loop
      vertex 21.635 5.43865 7
      vertex 21.1731 5.94464 7
      vertex 16.5194 -1.5 7
    endloop
  endfacet
  facet normal 0 0 1
    outer loop
      vertex 16.5194 -1.5 7
      vertex 21.1731 5.94464 7
      vertex 19.5551 7.12021 7
    endloop
  endfacet
  facet normal 0 0 1
    outer loop
      vertex 18.9791 7.39219 7
      vertex 19.5551 7.12021 7
      vertex 19.5 7.16025 7
    endloop
  endfacet
  facet normal 0 0 1
    outer loop
      vertex 19.5551 7.12021 7
      vertex 18.9791 7.39219 7
      vertex 16.5194 -1.5 7
    endloop
  endfacet
  facet normal 0 0 1
    outer loop
      vertex 16.5194 -1.5 7
      vertex 18.9791 7.39219 7
      vertex 17.1102 8.11258 7
    endloop
  endfacet
  facet normal 0 0 1
    outer loop
      vertex 16.5 8.24228 7
      vertex 16.5194 -1.5 7
      vertex 17.1102 8.11258 7
    endloop
  endfacet
  facet normal 0 0 1
    outer loop
      vertex 15 -2.6 7
      vertex 16.5194 -1.5 7
      vertex 16.5 8.24228 7
    endloop
  endfacet
  facet normal 0 0 1
    outer loop
      vertex 14.5 30.5 7
      vertex 15 29.8083 7
      vertex 15 30 7
    endloop
  endfacet
  facet normal 0 0 1
    outer loop
      vertex 15 29.8083 7
      vertex 14.5 0.519382 7
      vertex 15 -2.6 7
    endloop
  endfacet
  facet normal 0 0 1
    outer loop
      vertex 15 -2.6 7
      vertex 14.5 0.519382 7
      vertex 14.7497 -2.5803 7
    endloop
  endfacet
  facet normal 0 0 1
    outer loop
      vertex 15 29.8083 7
      vertex 14.5 30.5 7
      vertex 14.5 0.519382 7
    endloop
  endfacet
  facet normal 0 0 1
    outer loop
      vertex 14.7497 -2.5803 7
      vertex 14.5 0.519382 7
      vertex 14.5056 -2.52169 7
    endloop
  endfacet
  facet normal -0 0 1
    outer loop
      vertex 14.2736 0.42561 7
      vertex 14.5056 -2.52169 7
      vertex 14.5 0.519382 7
    endloop
  endfacet
  facet normal 0 0 1
    outer loop
      vertex 14.2736 0.42561 7
      vertex 14.2736 -2.42561 7
      vertex 14.5056 -2.52169 7
    endloop
  endfacet
  facet normal -0 0 1
    outer loop
      vertex 14.0595 0.294427 7
      vertex 14.2736 -2.42561 7
      vertex 14.2736 0.42561 7
    endloop
  endfacet
  facet normal 0 0 1
    outer loop
      vertex 14.0595 0.294427 7
      vertex 14.0595 -2.29443 7
      vertex 14.2736 -2.42561 7
    endloop
  endfacet
  facet normal -0 0 1
    outer loop
      vertex 13.8686 0.131371 7
      vertex 14.0595 -2.29443 7
      vertex 14.0595 0.294427 7
    endloop
  endfacet
  facet normal 0 0 1
    outer loop
      vertex 13.8686 0.131371 7
      vertex 13.8686 -2.13137 7
      vertex 14.0595 -2.29443 7
    endloop
  endfacet
  facet normal -0 0 1
    outer loop
      vertex 13.7056 -0.0595436 7
      vertex 13.8686 -2.13137 7
      vertex 13.8686 0.131371 7
    endloop
  endfacet
  facet normal 0 0 1
    outer loop
      vertex 13.7056 -0.0595436 7
      vertex 13.7056 -1.94046 7
      vertex 13.8686 -2.13137 7
    endloop
  endfacet
  facet normal -0 0 1
    outer loop
      vertex 13.5744 -0.273616 7
      vertex 13.7056 -1.94046 7
      vertex 13.7056 -0.0595436 7
    endloop
  endfacet
  facet normal 0 0 1
    outer loop
      vertex 13.5744 -0.273616 7
      vertex 13.5744 -1.72638 7
      vertex 13.7056 -1.94046 7
    endloop
  endfacet
  facet normal -0 0 1
    outer loop
      vertex 13.4783 -0.505573 7
      vertex 13.5744 -1.72638 7
      vertex 13.5744 -0.273616 7
    endloop
  endfacet
  facet normal 0 0 1
    outer loop
      vertex 13.4783 -0.505573 7
      vertex 13.4783 -1.49443 7
      vertex 13.5744 -1.72638 7
    endloop
  endfacet
  facet normal -0 0 1
    outer loop
      vertex 13.4197 -0.749705 7
      vertex 13.4783 -1.49443 7
      vertex 13.4783 -0.505573 7
    endloop
  endfacet
  facet normal 0 0 1
    outer loop
      vertex 13.4197 -0.749705 7
      vertex 13.4197 -1.2503 7
      vertex 13.4783 -1.49443 7
    endloop
  endfacet
  facet normal 0 -0 1
    outer loop
      vertex 13.4197 -1.2503 7
      vertex 13.4197 -0.749705 7
      vertex 13.4 -1 7
    endloop
  endfacet
  facet normal -0 0 1
    outer loop
      vertex 15 29.8083 7
      vertex 16.5 8.24228 7
      vertex 16.5 29.8083 7
    endloop
  endfacet
  facet normal 0 0 1
    outer loop
      vertex 15 -2.6 7
      vertex 16.5 8.24228 7
      vertex 15 29.8083 7
    endloop
  endfacet
  facet normal 0 0 1
    outer loop
      vertex 16.5194 -1.5 7
      vertex 15 -2.6 7
      vertex 16.4256 -1.72638 7
    endloop
  endfacet
  facet normal 0 0 1
    outer loop
      vertex 16.4256 -1.72638 7
      vertex 15 -2.6 7
      vertex 16.2944 -1.94046 7
    endloop
  endfacet
  facet normal 0 0 1
    outer loop
      vertex 16.2944 -1.94046 7
      vertex 15 -2.6 7
      vertex 16.1314 -2.13137 7
    endloop
  endfacet
  facet normal 0 0 1
    outer loop
      vertex 16.1314 -2.13137 7
      vertex 15 -2.6 7
      vertex 15.9405 -2.29443 7
    endloop
  endfacet
  facet normal 0 0 1
    outer loop
      vertex 15.9405 -2.29443 7
      vertex 15 -2.6 7
      vertex 15.7264 -2.42561 7
    endloop
  endfacet
  facet normal 0 0 1
    outer loop
      vertex 15.7264 -2.42561 7
      vertex 15 -2.6 7
      vertex 15.4944 -2.52169 7
    endloop
  endfacet
  facet normal 0 0 1
    outer loop
      vertex 15.4944 -2.52169 7
      vertex 15 -2.6 7
      vertex 15.2503 -2.5803 7
    endloop
  endfacet
  facet normal 0.951057 -0.309017 0
    outer loop
      vertex 17.1102 8.11258 10
      vertex 23.8042 28.7145 7
      vertex 23.8042 28.7145 10
    endloop
  endfacet
  facet normal 0.951057 -0.309017 0
    outer loop
      vertex 23.8042 28.7145 7
      vertex 17.1102 8.11258 10
      vertex 17.1102 8.11258 7
    endloop
  endfacet
  facet normal -0.951057 0.309017 0
    outer loop
      vertex 18.9791 7.39219 7
      vertex 25.7712 28.2964 10
      vertex 25.7712 28.2964 7
    endloop
  endfacet
  facet normal -0.951057 0.309017 0
    outer loop
      vertex 25.7712 28.2964 10
      vertex 18.9791 7.39219 7
      vertex 18.9791 7.39219 10
    endloop
  endfacet
  facet normal 0.809017 -0.587785 0
    outer loop
      vertex 19.5551 7.12021 10
      vertex 32.6776 25.1818 7
      vertex 32.6776 25.1818 10
    endloop
  endfacet
  facet normal 0.809017 -0.587785 0
    outer loop
      vertex 32.6776 25.1818 7
      vertex 19.5551 7.12021 10
      vertex 19.5551 7.12021 7
    endloop
  endfacet
  facet normal -0.809017 0.587785 0
    outer loop
      vertex 21.1731 5.94464 7
      vertex 34.2957 24.0063 10
      vertex 34.2957 24.0063 7
    endloop
  endfacet
  facet normal -0.809017 0.587785 0
    outer loop
      vertex 34.2957 24.0063 10
      vertex 21.1731 5.94464 7
      vertex 21.1731 5.94464 10
    endloop
  endfacet
  facet normal 0.587785 -0.809017 0
    outer loop
      vertex 21.635 5.43865 7
      vertex 40.2576 18.9687 10
      vertex 21.635 5.43865 10
    endloop
  endfacet
  facet normal 0.587785 -0.809017 0
    outer loop
      vertex 40.2576 18.9687 10
      vertex 21.635 5.43865 7
      vertex 40.2576 18.9687 7
    endloop
  endfacet
  facet normal -0.587785 0.809017 0
    outer loop
      vertex 41.6032 17.4743 7
      vertex 22.8819 3.87247 10
      vertex 41.6032 17.4743 10
    endloop
  endfacet
  facet normal -0.587785 0.809017 0
    outer loop
      vertex 22.8819 3.87247 10
      vertex 41.6032 17.4743 7
      vertex 22.8819 3.87247 7
    endloop
  endfacet
  facet normal 0.309017 -0.951057 0
    outer loop
      vertex 23.2639 3.21084 7
      vertex 46.1579 10.6495 10
      vertex 23.2639 3.21084 10
    endloop
  endfacet
  facet normal 0.309017 -0.951057 0
    outer loop
      vertex 46.1579 10.6495 10
      vertex 23.2639 3.21084 7
      vertex 46.1579 10.6495 7
    endloop
  endfacet
  facet normal -0.309017 0.951057 0
    outer loop
      vertex 47.0987 8.8523 7
      vertex 24.0289 1.35647 10
      vertex 47.0987 8.8523 10
    endloop
  endfacet
  facet normal -0.309017 0.951057 0
    outer loop
      vertex 24.0289 1.35647 10
      vertex 47.0987 8.8523 7
      vertex 24.0289 1.35647 7
    endloop
  endfacet
  facet normal 0 -1 0
    outer loop
      vertex 24.2898 0.5 7
      vertex 49.4219 0.5 10
      vertex 24.2898 0.5 10
    endloop
  endfacet
  facet normal 0 -1 -0
    outer loop
      vertex 49.4219 0.5 10
      vertex 24.2898 0.5 7
      vertex 49.4219 0.5 7
    endloop
  endfacet
  facet normal -1.89732e-08 1 0
    outer loop
      vertex 49.6321 -1.5 7
      vertex 24.5 -1.5 10
      vertex 49.6321 -1.5 10
    endloop
  endfacet
  facet normal -1.89732e-08 1 0
    outer loop
      vertex 24.5 -1.5 10
      vertex 49.6321 -1.5 7
      vertex 24.5 -1.5 7
    endloop
  endfacet
  facet normal 0 1 -0
    outer loop
      vertex 24.5 -1.5 7
      vertex 16.5194 -1.5 10
      vertex 24.5 -1.5 10
    endloop
  endfacet
  facet normal 0 1 0
    outer loop
      vertex 16.5194 -1.5 10
      vertex 24.5 -1.5 7
      vertex 16.5194 -1.5 7
    endloop
  endfacet
  facet normal -0.743146 -0.669129 0
    outer loop
      vertex 21.635 5.43865 7
      vertex 21.1913 5.93144 10
      vertex 21.1913 5.93144 7
    endloop
  endfacet
  facet normal -0.743146 -0.669129 0
    outer loop
      vertex 21.1913 5.93144 10
      vertex 21.635 5.43865 7
      vertex 21.635 5.43865 10
    endloop
  endfacet
  facet normal -0.866024 -0.500002 0
    outer loop
      vertex 23.2639 3.21084 7
      vertex 22.8819 3.87247 10
      vertex 22.8819 3.87247 7
    endloop
  endfacet
  facet normal -0.866024 -0.500002 0
    outer loop
      vertex 22.8819 3.87247 10
      vertex 23.2639 3.21084 7
      vertex 23.2639 3.21084 10
    endloop
  endfacet
  facet normal -0.994521 -0.104535 0
    outer loop
      vertex 24.2898 0.5 7
      vertex 24.2815 0.579117 10
      vertex 24.2815 0.579117 7
    endloop
  endfacet
  facet normal -0.994521 -0.104535 0
    outer loop
      vertex 24.2815 0.579117 10
      vertex 24.2898 0.5 7
      vertex 24.2898 0.5 10
    endloop
  endfacet
  facet normal -0.951057 -0.309014 0
    outer loop
      vertex 24.2815 0.579117 7
      vertex 24.0289 1.35647 10
      vertex 24.0289 1.35647 7
    endloop
  endfacet
  facet normal -0.951057 -0.309014 0
    outer loop
      vertex 24.0289 1.35647 10
      vertex 24.2815 0.579117 7
      vertex 24.2815 0.579117 10
    endloop
  endfacet
  facet normal -0.207908 -0.978148 0
    outer loop
      vertex 16.5 8.24228 7
      vertex 17.1102 8.11258 10
      vertex 16.5 8.24228 10
    endloop
  endfacet
  facet normal -0.207908 -0.978148 -0
    outer loop
      vertex 17.1102 8.11258 10
      vertex 16.5 8.24228 7
      vertex 17.1102 8.11258 7
    endloop
  endfacet
  facet normal -0.406736 -0.913546 0
    outer loop
      vertex 18.9791 7.39219 7
      vertex 19.5 7.16025 10
      vertex 18.9791 7.39219 10
    endloop
  endfacet
  facet normal -0.406736 -0.913546 -0
    outer loop
      vertex 19.5 7.16025 10
      vertex 18.9791 7.39219 7
      vertex 19.5 7.16025 7
    endloop
  endfacet
  facet normal -0.587807 -0.809001 0
    outer loop
      vertex 21.1731 5.94464 7
      vertex 21.1913 5.93144 10
      vertex 21.1731 5.94464 10
    endloop
  endfacet
  facet normal -0.587807 -0.809001 -0
    outer loop
      vertex 21.1913 5.93144 10
      vertex 21.1731 5.94464 7
      vertex 21.1913 5.93144 7
    endloop
  endfacet
  facet normal -0.587789 -0.809015 0
    outer loop
      vertex 19.5 7.16025 7
      vertex 19.5551 7.12021 10
      vertex 19.5 7.16025 10
    endloop
  endfacet
  facet normal -0.587789 -0.809015 -0
    outer loop
      vertex 19.5551 7.12021 10
      vertex 19.5 7.16025 7
      vertex 19.5551 7.12021 7
    endloop
  endfacet
  facet normal 0.97237 -0.233445 0
    outer loop
      vertex 13.4197 -0.749705 10
      vertex 13.4783 -0.505573 7
      vertex 13.4783 -0.505573 10
    endloop
  endfacet
  facet normal 0.97237 -0.233445 0
    outer loop
      vertex 13.4783 -0.505573 7
      vertex 13.4197 -0.749705 10
      vertex 13.4197 -0.749705 7
    endloop
  endfacet
  facet normal 0.233445 0.97237 -0
    outer loop
      vertex 14.7497 -2.5803 7
      vertex 14.5056 -2.52169 10
      vertex 14.7497 -2.5803 10
    endloop
  endfacet
  facet normal 0.233445 0.97237 0
    outer loop
      vertex 14.5056 -2.52169 10
      vertex 14.7497 -2.5803 7
      vertex 14.5056 -2.52169 7
    endloop
  endfacet
  facet normal 0.522496 -0.852642 0
    outer loop
      vertex 14.0595 0.294427 7
      vertex 14.2736 0.42561 10
      vertex 14.0595 0.294427 10
    endloop
  endfacet
  facet normal 0.522496 -0.852642 0
    outer loop
      vertex 14.2736 0.42561 10
      vertex 14.0595 0.294427 7
      vertex 14.2736 0.42561 7
    endloop
  endfacet
  facet normal 0.923878 -0.382686 0
    outer loop
      vertex 13.4783 -0.505573 10
      vertex 13.5744 -0.273616 7
      vertex 13.5744 -0.273616 10
    endloop
  endfacet
  facet normal 0.923878 -0.382686 0
    outer loop
      vertex 13.5744 -0.273616 7
      vertex 13.4783 -0.505573 10
      vertex 13.4783 -0.505573 7
    endloop
  endfacet
  facet normal 0.996917 -0.0784572 0
    outer loop
      vertex 13.4 -1 10
      vertex 13.4197 -0.749705 7
      vertex 13.4197 -0.749705 10
    endloop
  endfacet
  facet normal 0.996917 -0.0784572 0
    outer loop
      vertex 13.4197 -0.749705 7
      vertex 13.4 -1 10
      vertex 13.4 -1 7
    endloop
  endfacet
  facet normal 0.852642 -0.522496 0
    outer loop
      vertex 13.5744 -0.273616 10
      vertex 13.7056 -0.0595436 7
      vertex 13.7056 -0.0595436 10
    endloop
  endfacet
  facet normal 0.852642 -0.522496 0
    outer loop
      vertex 13.7056 -0.0595436 7
      vertex 13.5744 -0.273616 10
      vertex 13.5744 -0.273616 7
    endloop
  endfacet
  facet normal 0.649449 -0.760405 0
    outer loop
      vertex 13.8686 0.131371 7
      vertex 14.0595 0.294427 10
      vertex 13.8686 0.131371 10
    endloop
  endfacet
  facet normal 0.649449 -0.760405 0
    outer loop
      vertex 14.0595 0.294427 10
      vertex 13.8686 0.131371 7
      vertex 14.0595 0.294427 7
    endloop
  endfacet
  facet normal 0.760405 -0.649449 0
    outer loop
      vertex 13.7056 -0.0595436 10
      vertex 13.8686 0.131371 7
      vertex 13.8686 0.131371 10
    endloop
  endfacet
  facet normal 0.760405 -0.649449 0
    outer loop
      vertex 13.8686 0.131371 7
      vertex 13.7056 -0.0595436 10
      vertex 13.7056 -0.0595436 7
    endloop
  endfacet
  facet normal -0.233445 0.97237 0
    outer loop
      vertex 15.4944 -2.52169 7
      vertex 15.2503 -2.5803 10
      vertex 15.4944 -2.52169 10
    endloop
  endfacet
  facet normal -0.233445 0.97237 0
    outer loop
      vertex 15.2503 -2.5803 10
      vertex 15.4944 -2.52169 7
      vertex 15.2503 -2.5803 7
    endloop
  endfacet
  facet normal -0.649449 0.760405 0
    outer loop
      vertex 16.1314 -2.13137 7
      vertex 15.9405 -2.29443 10
      vertex 16.1314 -2.13137 10
    endloop
  endfacet
  facet normal -0.649449 0.760405 0
    outer loop
      vertex 15.9405 -2.29443 10
      vertex 16.1314 -2.13137 7
      vertex 15.9405 -2.29443 7
    endloop
  endfacet
  facet normal -0.85264 0.522499 0
    outer loop
      vertex 16.2944 -1.94046 7
      vertex 16.4256 -1.72638 10
      vertex 16.4256 -1.72638 7
    endloop
  endfacet
  facet normal -0.85264 0.522499 0
    outer loop
      vertex 16.4256 -1.72638 10
      vertex 16.2944 -1.94046 7
      vertex 16.2944 -1.94046 10
    endloop
  endfacet
  facet normal 0.0784572 0.996917 -0
    outer loop
      vertex 15 -2.6 7
      vertex 14.7497 -2.5803 10
      vertex 15 -2.6 10
    endloop
  endfacet
  facet normal 0.0784572 0.996917 0
    outer loop
      vertex 14.7497 -2.5803 10
      vertex 15 -2.6 7
      vertex 14.7497 -2.5803 7
    endloop
  endfacet
  facet normal 0.522496 0.852642 -0
    outer loop
      vertex 14.2736 -2.42561 7
      vertex 14.0595 -2.29443 10
      vertex 14.2736 -2.42561 10
    endloop
  endfacet
  facet normal 0.522496 0.852642 0
    outer loop
      vertex 14.0595 -2.29443 10
      vertex 14.2736 -2.42561 7
      vertex 14.0595 -2.29443 7
    endloop
  endfacet
  facet normal 0.760405 0.649449 0
    outer loop
      vertex 13.8686 -2.13137 10
      vertex 13.7056 -1.94046 7
      vertex 13.7056 -1.94046 10
    endloop
  endfacet
  facet normal 0.760405 0.649449 0
    outer loop
      vertex 13.7056 -1.94046 7
      vertex 13.8686 -2.13137 10
      vertex 13.8686 -2.13137 7
    endloop
  endfacet
  facet normal 0.97237 0.233445 0
    outer loop
      vertex 13.4783 -1.49443 10
      vertex 13.4197 -1.2503 7
      vertex 13.4197 -1.2503 10
    endloop
  endfacet
  facet normal 0.97237 0.233445 0
    outer loop
      vertex 13.4197 -1.2503 7
      vertex 13.4783 -1.49443 10
      vertex 13.4783 -1.49443 7
    endloop
  endfacet
  facet normal 0.382688 -0.923878 0
    outer loop
      vertex 14.2736 0.42561 7
      vertex 14.5 0.519382 10
      vertex 14.2736 0.42561 10
    endloop
  endfacet
  facet normal 0.382688 -0.923878 0
    outer loop
      vertex 14.5 0.519382 10
      vertex 14.2736 0.42561 7
      vertex 14.5 0.519382 7
    endloop
  endfacet
  facet normal -0.382686 0.923878 0
    outer loop
      vertex 15.7264 -2.42561 7
      vertex 15.4944 -2.52169 10
      vertex 15.7264 -2.42561 10
    endloop
  endfacet
  facet normal -0.382686 0.923878 0
    outer loop
      vertex 15.4944 -2.52169 10
      vertex 15.7264 -2.42561 7
      vertex 15.4944 -2.52169 7
    endloop
  endfacet
  facet normal -0.760407 0.649447 0
    outer loop
      vertex 16.1314 -2.13137 7
      vertex 16.2944 -1.94046 10
      vertex 16.2944 -1.94046 7
    endloop
  endfacet
  facet normal -0.760407 0.649447 0
    outer loop
      vertex 16.2944 -1.94046 10
      vertex 16.1314 -2.13137 7
      vertex 16.1314 -2.13137 10
    endloop
  endfacet
  facet normal -0.923877 0.382689 0
    outer loop
      vertex 16.4256 -1.72638 7
      vertex 16.5194 -1.5 10
      vertex 16.5194 -1.5 7
    endloop
  endfacet
  facet normal -0.923877 0.382689 0
    outer loop
      vertex 16.5194 -1.5 10
      vertex 16.4256 -1.72638 7
      vertex 16.4256 -1.72638 10
    endloop
  endfacet
  facet normal 0.382688 0.923878 -0
    outer loop
      vertex 14.5056 -2.52169 7
      vertex 14.2736 -2.42561 10
      vertex 14.5056 -2.52169 10
    endloop
  endfacet
  facet normal 0.382688 0.923878 0
    outer loop
      vertex 14.2736 -2.42561 10
      vertex 14.5056 -2.52169 7
      vertex 14.2736 -2.42561 7
    endloop
  endfacet
  facet normal 0.923878 0.382688 0
    outer loop
      vertex 13.5744 -1.72638 10
      vertex 13.4783 -1.49443 7
      vertex 13.4783 -1.49443 10
    endloop
  endfacet
  facet normal 0.923878 0.382688 0
    outer loop
      vertex 13.4783 -1.49443 7
      vertex 13.5744 -1.72638 10
      vertex 13.5744 -1.72638 7
    endloop
  endfacet
  facet normal 0.649449 0.760405 -0
    outer loop
      vertex 14.0595 -2.29443 7
      vertex 13.8686 -2.13137 10
      vertex 14.0595 -2.29443 10
    endloop
  endfacet
  facet normal 0.649449 0.760405 0
    outer loop
      vertex 13.8686 -2.13137 10
      vertex 14.0595 -2.29443 7
      vertex 13.8686 -2.13137 7
    endloop
  endfacet
  facet normal 0.996918 0.0784569 0
    outer loop
      vertex 13.4197 -1.2503 10
      vertex 13.4 -1 7
      vertex 13.4 -1 10
    endloop
  endfacet
  facet normal 0.996918 0.0784569 0
    outer loop
      vertex 13.4 -1 7
      vertex 13.4197 -1.2503 10
      vertex 13.4197 -1.2503 7
    endloop
  endfacet
  facet normal -0.522496 0.852642 0
    outer loop
      vertex 15.9405 -2.29443 7
      vertex 15.7264 -2.42561 10
      vertex 15.9405 -2.29443 10
    endloop
  endfacet
  facet normal -0.522496 0.852642 0
    outer loop
      vertex 15.7264 -2.42561 10
      vertex 15.9405 -2.29443 7
      vertex 15.7264 -2.42561 7
    endloop
  endfacet
  facet normal -0.0784569 0.996918 0
    outer loop
      vertex 15.2503 -2.5803 7
      vertex 15 -2.6 10
      vertex 15.2503 -2.5803 10
    endloop
  endfacet
  facet normal -0.0784569 0.996918 0
    outer loop
      vertex 15 -2.6 10
      vertex 15.2503 -2.5803 7
      vertex 15 -2.6 7
    endloop
  endfacet
  facet normal 0.852642 0.522496 0
    outer loop
      vertex 13.7056 -1.94046 10
      vertex 13.5744 -1.72638 7
      vertex 13.5744 -1.72638 10
    endloop
  endfacet
  facet normal 0.852642 0.522496 0
    outer loop
      vertex 13.5744 -1.72638 7
      vertex 13.7056 -1.94046 10
      vertex 13.7056 -1.94046 7
    endloop
  endfacet
  facet normal 0 0 -1
    outer loop
      vertex -16.5 9 0
      vertex -20 17 0
      vertex -15 9 0
    endloop
  endfacet
  facet normal -0 -0 -1
    outer loop
      vertex -20 17 0
      vertex -16.5 9 0
      vertex -21.5 17 0
    endloop
  endfacet
  facet normal 0 0 -1
    outer loop
      vertex -20 17 0
      vertex -17.5 28 0
      vertex -16 28 0
    endloop
  endfacet
  facet normal 0 0 -1
    outer loop
      vertex -17.5 28 0
      vertex -20 17 0
      vertex -21.5 17 0
    endloop
  endfacet
  facet normal 0 0 -1
    outer loop
      vertex -17.5 28 0
      vertex -20 39 0
      vertex -16 28 0
    endloop
  endfacet
  facet normal 0 0 -1
    outer loop
      vertex -21.5 38 0
      vertex -20 39 0
      vertex -17.5 28 0
    endloop
  endfacet
  facet normal 0 0 -1
    outer loop
      vertex -22 40 0
      vertex -21.5 38 0
      vertex -22 38 0
    endloop
  endfacet
  facet normal 0 0 -1
    outer loop
      vertex -21.5 38 0
      vertex -22 40 0
      vertex -20 39 0
    endloop
  endfacet
  facet normal 0 0 -1
    outer loop
      vertex 0 0 0
      vertex 50 -5 0
      vertex 50 -10 0
    endloop
  endfacet
  facet normal 0 0 -1
    outer loop
      vertex 50 -5 0
      vertex 0 0 0
      vertex 49.2352 2.2769 0
    endloop
  endfacet
  facet normal -0 0 -1
    outer loop
      vertex 49.2352 2.2769 0
      vertex 0 0 0
      vertex 46.9741 9.23578 0
    endloop
  endfacet
  facet normal -0 0 -1
    outer loop
      vertex 46.9741 9.23578 0
      vertex 0 0 0
      vertex 43.3156 15.5725 0
    endloop
  endfacet
  facet normal -0 0 -1
    outer loop
      vertex 43.3156 15.5725 0
      vertex 0 0 0
      vertex 38.4196 21.0101 0
    endloop
  endfacet
  facet normal -0 0 -1
    outer loop
      vertex 38.4196 21.0101 0
      vertex 0 0 0
      vertex 32.5 25.3109 0
    endloop
  endfacet
  facet normal -0 0 -1
    outer loop
      vertex 32.5 25.3109 0
      vertex 0 0 0
      vertex 25.8156 28.287 0
    endloop
  endfacet
  facet normal -0 0 -1
    outer loop
      vertex 25.8156 28.287 0
      vertex 0 0 0
      vertex 18.6585 29.8083 0
    endloop
  endfacet
  facet normal 0 0 -1
    outer loop
      vertex 15 29.8083 0
      vertex 5 40 0
      vertex 15 30 0
    endloop
  endfacet
  facet normal -0 0 -1
    outer loop
      vertex 18.6585 29.8083 0
      vertex 0 0 0
      vertex 15 29.8083 0
    endloop
  endfacet
  facet normal 0 0 -1
    outer loop
      vertex 0 40 0
      vertex 15 29.8083 0
      vertex 0 0 0
    endloop
  endfacet
  facet normal 0 0 -1
    outer loop
      vertex -37 -10 0
      vertex 0 0 0
      vertex 50 -10 0
    endloop
  endfacet
  facet normal 0 0 -1
    outer loop
      vertex -37 20 0
      vertex -22 38 0
      vertex -22 0 0
    endloop
  endfacet
  facet normal 0 -0 -1
    outer loop
      vertex -27 40 0
      vertex -22 38 0
      vertex -37 20 0
    endloop
  endfacet
  facet normal -0 0 -1
    outer loop
      vertex 0 0 0
      vertex -37 -10 0
      vertex -22 0 0
    endloop
  endfacet
  facet normal 0 0 -1
    outer loop
      vertex -37 20 0
      vertex -22 0 0
      vertex -37 -10 0
    endloop
  endfacet
  facet normal 0 0 -1
    outer loop
      vertex -22 38 0
      vertex -27 40 0
      vertex -22 40 0
    endloop
  endfacet
  facet normal 0 0 -1
    outer loop
      vertex 15 29.8083 0
      vertex 0 40 0
      vertex 5 40 0
    endloop
  endfacet
  facet normal 0 0 1
    outer loop
      vertex -20 39 10
      vertex -17.5 28 10
      vertex -16 28 10
    endloop
  endfacet
  facet normal 0 0 1
    outer loop
      vertex -20 39 10
      vertex -21.5 38 10
      vertex -17.5 28 10
    endloop
  endfacet
  facet normal 0 0 1
    outer loop
      vertex -22 40 10
      vertex -21.5 38 10
      vertex -20 39 10
    endloop
  endfacet
  facet normal 0 0 1
    outer loop
      vertex -22 40 10
      vertex -22 38 10
      vertex -21.5 38 10
    endloop
  endfacet
  facet normal -0 0 1
    outer loop
      vertex -27 40 10
      vertex -22 38 10
      vertex -22 40 10
    endloop
  endfacet
  facet normal 0 0 1
    outer loop
      vertex -22 38 10
      vertex -27 40 10
      vertex -37 20 10
    endloop
  endfacet
  facet normal -0 0 1
    outer loop
      vertex -17.5 28 10
      vertex -20 17 10
      vertex -16 28 10
    endloop
  endfacet
  facet normal 0 -0 1
    outer loop
      vertex -20 17 10
      vertex -17.5 28 10
      vertex -21.5 17 10
    endloop
  endfacet
  facet normal 0 0 1
    outer loop
      vertex 14.5 30.5 10
      vertex 14.2736 0.42561 10
      vertex 14.5 0.519382 10
    endloop
  endfacet
  facet normal 0 0 1
    outer loop
      vertex 0 0 10
      vertex 14.2736 0.42561 10
      vertex 14.5 30.5 10
    endloop
  endfacet
  facet normal 0 0 1
    outer loop
      vertex 14.2736 0.42561 10
      vertex 0 0 10
      vertex 14.0595 0.294427 10
    endloop
  endfacet
  facet normal 0 0 1
    outer loop
      vertex 14.0595 0.294427 10
      vertex 0 0 10
      vertex 13.8686 0.131371 10
    endloop
  endfacet
  facet normal 0 0 1
    outer loop
      vertex 13.8686 0.131371 10
      vertex 0 0 10
      vertex 13.7056 -0.0595436 10
    endloop
  endfacet
  facet normal 0 0 1
    outer loop
      vertex 13.7056 -0.0595436 10
      vertex 0 0 10
      vertex 13.5744 -0.273616 10
    endloop
  endfacet
  facet normal 0 0 1
    outer loop
      vertex 13.5744 -0.273616 10
      vertex 0 0 10
      vertex 13.4783 -0.505573 10
    endloop
  endfacet
  facet normal 0 0 1
    outer loop
      vertex 13.4783 -0.505573 10
      vertex 0 0 10
      vertex 13.4197 -0.749705 10
    endloop
  endfacet
  facet normal -0 0 1
    outer loop
      vertex 0 40 10
      vertex 14.5 30.5 10
      vertex 5 40 10
    endloop
  endfacet
  facet normal -0 0 1
    outer loop
      vertex 24.5 -1.5 10
      vertex 50 -5 10
      vertex 49.6321 -1.5 10
    endloop
  endfacet
  facet normal 0 0 1
    outer loop
      vertex 50 -5 10
      vertex 24.5 -1.5 10
      vertex 50 -10 10
    endloop
  endfacet
  facet normal 0 0 1
    outer loop
      vertex 16.4256 -1.72638 10
      vertex 24.5 -1.5 10
      vertex 16.5194 -1.5 10
    endloop
  endfacet
  facet normal 0 0 1
    outer loop
      vertex 16.2944 -1.94046 10
      vertex 24.5 -1.5 10
      vertex 16.4256 -1.72638 10
    endloop
  endfacet
  facet normal 0 0 1
    outer loop
      vertex 16.1314 -2.13137 10
      vertex 24.5 -1.5 10
      vertex 16.2944 -1.94046 10
    endloop
  endfacet
  facet normal 0 0 1
    outer loop
      vertex 15.9405 -2.29443 10
      vertex 24.5 -1.5 10
      vertex 16.1314 -2.13137 10
    endloop
  endfacet
  facet normal 0 0 1
    outer loop
      vertex 15.7264 -2.42561 10
      vertex 24.5 -1.5 10
      vertex 15.9405 -2.29443 10
    endloop
  endfacet
  facet normal 0 0 1
    outer loop
      vertex 15.4944 -2.52169 10
      vertex 24.5 -1.5 10
      vertex 15.7264 -2.42561 10
    endloop
  endfacet
  facet normal 0 0 1
    outer loop
      vertex 15.2503 -2.5803 10
      vertex 24.5 -1.5 10
      vertex 15.4944 -2.52169 10
    endloop
  endfacet
  facet normal 0 0 1
    outer loop
      vertex 24.5 -1.5 10
      vertex 15.2503 -2.5803 10
      vertex 50 -10 10
    endloop
  endfacet
  facet normal -0 0 1
    outer loop
      vertex 15 -2.6 10
      vertex 50 -10 10
      vertex 15.2503 -2.5803 10
    endloop
  endfacet
  facet normal 0 0 1
    outer loop
      vertex -37 -10 10
      vertex 15 -2.6 10
      vertex 14.7497 -2.5803 10
    endloop
  endfacet
  facet normal 0 0 1
    outer loop
      vertex 13.4197 -0.749705 10
      vertex 0 0 10
      vertex 13.4 -1 10
    endloop
  endfacet
  facet normal 0 0 1
    outer loop
      vertex 14.5 30.5 10
      vertex 0 40 10
      vertex 0 0 10
    endloop
  endfacet
  facet normal 0 0 1
    outer loop
      vertex 13.4 -1 10
      vertex 0 0 10
      vertex 13.4197 -1.2503 10
    endloop
  endfacet
  facet normal 0 0 1
    outer loop
      vertex 13.4197 -1.2503 10
      vertex 0 0 10
      vertex 13.4783 -1.49443 10
    endloop
  endfacet
  facet normal 0 0 1
    outer loop
      vertex 0 0 10
      vertex 13.5744 -1.72638 10
      vertex 13.4783 -1.49443 10
    endloop
  endfacet
  facet normal 0 0 1
    outer loop
      vertex 0 0 10
      vertex 13.7056 -1.94046 10
      vertex 13.5744 -1.72638 10
    endloop
  endfacet
  facet normal 0 0 1
    outer loop
      vertex 0 0 10
      vertex 13.8686 -2.13137 10
      vertex 13.7056 -1.94046 10
    endloop
  endfacet
  facet normal 0 0 1
    outer loop
      vertex 0 0 10
      vertex 14.0595 -2.29443 10
      vertex 13.8686 -2.13137 10
    endloop
  endfacet
  facet normal 0 0 1
    outer loop
      vertex 0 0 10
      vertex 14.2736 -2.42561 10
      vertex 14.0595 -2.29443 10
    endloop
  endfacet
  facet normal 0 0 1
    outer loop
      vertex 0 0 10
      vertex 14.5056 -2.52169 10
      vertex 14.2736 -2.42561 10
    endloop
  endfacet
  facet normal 0 0 1
    outer loop
      vertex -37 -10 10
      vertex 14.5056 -2.52169 10
      vertex 0 0 10
    endloop
  endfacet
  facet normal 0 0 1
    outer loop
      vertex 14.5056 -2.52169 10
      vertex -37 -10 10
      vertex 14.7497 -2.5803 10
    endloop
  endfacet
  facet normal 0 0 1
    outer loop
      vertex -37 -10 10
      vertex 0 0 10
      vertex -22 0 10
    endloop
  endfacet
  facet normal 0 0 1
    outer loop
      vertex -22 38 10
      vertex -37 20 10
      vertex -22 0 10
    endloop
  endfacet
  facet normal 0 0 1
    outer loop
      vertex 15 -2.6 10
      vertex -37 -10 10
      vertex 50 -10 10
    endloop
  endfacet
  facet normal 0 0 1
    outer loop
      vertex -37 -10 10
      vertex -22 0 10
      vertex -37 20 10
    endloop
  endfacet
  facet normal 0 0 1
    outer loop
      vertex -20 17 10
      vertex -16.5 9 10
      vertex -15 9 10
    endloop
  endfacet
  facet normal 0 0 1
    outer loop
      vertex -16.5 9 10
      vertex -20 17 10
      vertex -21.5 17 10
    endloop
  endfacet
  facet normal 0 0 1
    outer loop
      vertex 23.2639 3.21084 10
      vertex 43.3156 15.5725 10
      vertex 41.6032 17.4743 10
    endloop
  endfacet
  facet normal 0 0 1
    outer loop
      vertex 43.3156 15.5725 10
      vertex 23.2639 3.21084 10
      vertex 46.1579 10.6495 10
    endloop
  endfacet
  facet normal 0 -0 1
    outer loop
      vertex 23.2639 3.21084 10
      vertex 41.6032 17.4743 10
      vertex 22.8819 3.87247 10
    endloop
  endfacet
  facet normal 0 0 1
    outer loop
      vertex 19.5 7.16025 10
      vertex 32.5 25.3109 10
      vertex 25.8156 28.287 10
    endloop
  endfacet
  facet normal 0 0 1
    outer loop
      vertex 18.9791 7.39219 10
      vertex 25.8156 28.287 10
      vertex 25.7712 28.2964 10
    endloop
  endfacet
  facet normal 0 0 1
    outer loop
      vertex 32.5 25.3109 10
      vertex 19.5 7.16025 10
      vertex 32.6776 25.1818 10
    endloop
  endfacet
  facet normal 0 0 1
    outer loop
      vertex 32.6776 25.1818 10
      vertex 19.5 7.16025 10
      vertex 19.5551 7.12021 10
    endloop
  endfacet
  facet normal 0 0 1
    outer loop
      vertex 25.8156 28.287 10
      vertex 18.9791 7.39219 10
      vertex 19.5 7.16025 10
    endloop
  endfacet
  facet normal 0 0 1
    outer loop
      vertex 21.1913 5.93144 10
      vertex 38.4196 21.0101 10
      vertex 34.2957 24.0063 10
    endloop
  endfacet
  facet normal 0 0 1
    outer loop
      vertex 38.4196 21.0101 10
      vertex 21.635 5.43865 10
      vertex 40.2576 18.9687 10
    endloop
  endfacet
  facet normal 0 0 1
    outer loop
      vertex 38.4196 21.0101 10
      vertex 21.1913 5.93144 10
      vertex 21.635 5.43865 10
    endloop
  endfacet
  facet normal 0 -0 1
    outer loop
      vertex 21.1913 5.93144 10
      vertex 34.2957 24.0063 10
      vertex 21.1731 5.94464 10
    endloop
  endfacet
  facet normal 0 0 1
    outer loop
      vertex 24.2898 0.5 10
      vertex 49.2352 2.2769 10
      vertex 47.0987 8.8523 10
    endloop
  endfacet
  facet normal 0 0 1
    outer loop
      vertex 49.2352 2.2769 10
      vertex 24.2898 0.5 10
      vertex 49.4219 0.5 10
    endloop
  endfacet
  facet normal 0 0 1
    outer loop
      vertex 47.0987 8.8523 10
      vertex 24.2815 0.579117 10
      vertex 24.2898 0.5 10
    endloop
  endfacet
  facet normal 0 -0 1
    outer loop
      vertex 24.2815 0.579117 10
      vertex 47.0987 8.8523 10
      vertex 24.0289 1.35647 10
    endloop
  endfacet
  facet normal 0 0 1
    outer loop
      vertex 18.6585 29.8083 10
      vertex 17.1102 8.11258 10
      vertex 23.8042 28.7145 10
    endloop
  endfacet
  facet normal 0 0 1
    outer loop
      vertex 16.5 8.24228 10
      vertex 18.6585 29.8083 10
      vertex 16.5 29.8083 10
    endloop
  endfacet
  facet normal 0 0 1
    outer loop
      vertex 18.6585 29.8083 10
      vertex 16.5 8.24228 10
      vertex 17.1102 8.11258 10
    endloop
  endfacet
  facet normal 1 -0 0
    outer loop
      vertex 15 29.8083 7
      vertex 15 30 0
      vertex 15 30 7
    endloop
  endfacet
  facet normal 1 0 0
    outer loop
      vertex 15 30 0
      vertex 15 29.8083 7
      vertex 15 29.8083 0
    endloop
  endfacet
  facet normal 0.707107 0.707107 -0
    outer loop
      vertex 14.5 30.5 7
      vertex 5 40 10
      vertex 14.5 30.5 10
    endloop
  endfacet
  facet normal 0.707107 0.707107 0
    outer loop
      vertex 5 40 10
      vertex 14.5 30.5 7
      vertex 5 40 0
    endloop
  endfacet
  facet normal 0.707107 0.707107 -0
    outer loop
      vertex 15 30 0
      vertex 14.5 30.5 7
      vertex 15 30 7
    endloop
  endfacet
  facet normal 0.707107 0.707107 0
    outer loop
      vertex 14.5 30.5 7
      vertex 15 30 0
      vertex 5 40 0
    endloop
  endfacet
  facet normal 0 1 -0
    outer loop
      vertex 5 40 0
      vertex 0 40 10
      vertex 5 40 10
    endloop
  endfacet
  facet normal 0 1 0
    outer loop
      vertex 0 40 10
      vertex 5 40 0
      vertex 0 40 0
    endloop
  endfacet
  facet normal -1 0 0
    outer loop
      vertex 0 0 0
      vertex 0 40 10
      vertex 0 40 0
    endloop
  endfacet
  facet normal -1 -0 0
    outer loop
      vertex 0 40 10
      vertex 0 0 0
      vertex 0 0 10
    endloop
  endfacet
  facet normal 0 1 -0
    outer loop
      vertex 0 0 0
      vertex -22 0 10
      vertex 0 0 10
    endloop
  endfacet
  facet normal 0 1 0
    outer loop
      vertex -22 0 10
      vertex 0 0 0
      vertex -22 0 0
    endloop
  endfacet
  facet normal 1 -0 0
    outer loop
      vertex -22 0 10
      vertex -22 38 0
      vertex -22 38 10
    endloop
  endfacet
  facet normal 1 0 0
    outer loop
      vertex -22 38 0
      vertex -22 0 10
      vertex -22 0 0
    endloop
  endfacet
  facet normal 0 1 -0
    outer loop
      vertex -22 40 0
      vertex -27 40 10
      vertex -22 40 10
    endloop
  endfacet
  facet normal 0 1 0
    outer loop
      vertex -27 40 10
      vertex -22 40 0
      vertex -27 40 0
    endloop
  endfacet
  facet normal -0.894427 0.447214 0
    outer loop
      vertex -37 20 0
      vertex -27 40 10
      vertex -27 40 0
    endloop
  endfacet
  facet normal -0.894427 0.447214 0
    outer loop
      vertex -27 40 10
      vertex -37 20 0
      vertex -37 20 10
    endloop
  endfacet
  facet normal -1 0 0
    outer loop
      vertex -37 -10 0
      vertex -37 20 10
      vertex -37 20 0
    endloop
  endfacet
  facet normal -1 -0 0
    outer loop
      vertex -37 20 10
      vertex -37 -10 0
      vertex -37 -10 10
    endloop
  endfacet
  facet normal 0 -1 0
    outer loop
      vertex -37 -10 0
      vertex 50 -10 10
      vertex -37 -10 10
    endloop
  endfacet
  facet normal 0 -1 -0
    outer loop
      vertex 50 -10 10
      vertex -37 -10 0
      vertex 50 -10 0
    endloop
  endfacet
  facet normal 1 -0 0
    outer loop
      vertex 50 -10 10
      vertex 50 -5 0
      vertex 50 -5 10
    endloop
  endfacet
  facet normal 1 0 0
    outer loop
      vertex 50 -5 0
      vertex 50 -10 10
      vertex 50 -10 0
    endloop
  endfacet
  facet normal 0.743145 0.66913 0
    outer loop
      vertex 41.6032 17.4743 10
      vertex 43.3156 15.5725 10
      vertex 41.6032 17.4743 7
    endloop
  endfacet
  facet normal 0.743145 0.66913 -0
    outer loop
      vertex 40.2576 18.9687 7
      vertex 38.4196 21.0101 10
      vertex 40.2576 18.9687 10
    endloop
  endfacet
  facet normal 0.743145 0.66913 0
    outer loop
      vertex 38.4196 21.0101 10
      vertex 40.2576 18.9687 7
      vertex 38.4196 21.0101 0
    endloop
  endfacet
  facet normal 0.743145 0.66913 1.18646e-07
    outer loop
      vertex 43.3156 15.5725 0
      vertex 40.2576 18.9687 7
      vertex 41.6032 17.4743 7
    endloop
  endfacet
  facet normal 0.743145 0.66913 -0
    outer loop
      vertex 43.3156 15.5725 0
      vertex 41.6032 17.4743 7
      vertex 43.3156 15.5725 10
    endloop
  endfacet
  facet normal 0.743145 0.66913 -4.64535e-08
    outer loop
      vertex 40.2576 18.9687 7
      vertex 43.3156 15.5725 0
      vertex 38.4196 21.0101 0
    endloop
  endfacet
  facet normal 0.866025 0.500001 -0
    outer loop
      vertex 46.1579 10.6495 7
      vertex 43.3156 15.5725 10
      vertex 46.1579 10.6495 10
    endloop
  endfacet
  facet normal 0.866025 0.500001 0
    outer loop
      vertex 43.3156 15.5725 10
      vertex 46.1579 10.6495 7
      vertex 43.3156 15.5725 0
    endloop
  endfacet
  facet normal 0.866024 0.500002 -0
    outer loop
      vertex 46.9741 9.23578 0
      vertex 46.1579 10.6495 7
      vertex 46.9741 9.23578 7
    endloop
  endfacet
  facet normal 0.866025 0.500001 1.00091e-07
    outer loop
      vertex 46.1579 10.6495 7
      vertex 46.9741 9.23578 0
      vertex 43.3156 15.5725 0
    endloop
  endfacet
  facet normal 0.994522 0.10453 0
    outer loop
      vertex 49.6321 -1.5 10
      vertex 50 -5 10
      vertex 49.6321 -1.5 7
    endloop
  endfacet
  facet normal 0.994522 0.104531 -0
    outer loop
      vertex 49.4219 0.5 7
      vertex 49.2352 2.2769 10
      vertex 49.4219 0.5 10
    endloop
  endfacet
  facet normal 0.994522 0.104531 0
    outer loop
      vertex 49.2352 2.2769 10
      vertex 49.4219 0.5 7
      vertex 49.2352 2.2769 0
    endloop
  endfacet
  facet normal 0.994522 0.104531 -1.21858e-08
    outer loop
      vertex 49.6321 -1.5 7
      vertex 49.2352 2.2769 0
      vertex 49.4219 0.5 7
    endloop
  endfacet
  facet normal 0.994522 0.10453 -0
    outer loop
      vertex 50 -5 0
      vertex 49.6321 -1.5 7
      vertex 50 -5 10
    endloop
  endfacet
  facet normal 0.994522 0.10453 -1.61755e-07
    outer loop
      vertex 49.6321 -1.5 7
      vertex 50 -5 0
      vertex 49.2352 2.2769 0
    endloop
  endfacet
  facet normal 0.951057 0.309015 0
    outer loop
      vertex 47.0987 8.8523 10
      vertex 49.2352 2.2769 10
      vertex 47.0987 8.8523 7
    endloop
  endfacet
  facet normal 0.951056 0.309018 0
    outer loop
      vertex 47.0987 8.8523 7
      vertex 46.9741 9.23578 0
      vertex 46.9741 9.23578 7
    endloop
  endfacet
  facet normal 0.951057 0.309015 -0
    outer loop
      vertex 49.2352 2.2769 0
      vertex 47.0987 8.8523 7
      vertex 49.2352 2.2769 10
    endloop
  endfacet
  facet normal 0.951057 0.309015 -1.66586e-07
    outer loop
      vertex 47.0987 8.8523 7
      vertex 49.2352 2.2769 0
      vertex 46.9741 9.23578 0
    endloop
  endfacet
  facet normal 0 1 0
    outer loop
      vertex 18.6585 29.8083 10
      vertex 16.5 29.8083 7
      vertex 16.5 29.8083 10
    endloop
  endfacet
  facet normal 0 1 -0
    outer loop
      vertex 18.6585 29.8083 0
      vertex 16.5 29.8083 7
      vertex 18.6585 29.8083 10
    endloop
  endfacet
  facet normal 0 1 0
    outer loop
      vertex 15 29.8083 0
      vertex 16.5 29.8083 7
      vertex 18.6585 29.8083 0
    endloop
  endfacet
  facet normal 0 1 0
    outer loop
      vertex 16.5 29.8083 7
      vertex 15 29.8083 0
      vertex 15 29.8083 7
    endloop
  endfacet
  facet normal 0.207934 0.978143 0
    outer loop
      vertex 25.8156 28.287 10
      vertex 25.7712 28.2964 7
      vertex 25.7712 28.2964 10
    endloop
  endfacet
  facet normal 0.207912 0.978148 -1.46809e-07
    outer loop
      vertex 25.7712 28.2964 7
      vertex 25.8156 28.287 0
      vertex 23.8042 28.7145 7
    endloop
  endfacet
  facet normal 0.207934 0.978143 -0
    outer loop
      vertex 25.8156 28.287 0
      vertex 25.7712 28.2964 7
      vertex 25.8156 28.287 10
    endloop
  endfacet
  facet normal 0.207911 0.978148 -0
    outer loop
      vertex 23.8042 28.7145 7
      vertex 18.6585 29.8083 10
      vertex 23.8042 28.7145 10
    endloop
  endfacet
  facet normal 0.207912 0.978148 -1.21172e-07
    outer loop
      vertex 18.6585 29.8083 0
      vertex 23.8042 28.7145 7
      vertex 25.8156 28.287 0
    endloop
  endfacet
  facet normal 0.207911 0.978148 0
    outer loop
      vertex 23.8042 28.7145 7
      vertex 18.6585 29.8083 0
      vertex 18.6585 29.8083 10
    endloop
  endfacet
  facet normal 0.406736 0.913546 -0
    outer loop
      vertex 32.5 25.3109 0
      vertex 25.8156 28.287 10
      vertex 32.5 25.3109 10
    endloop
  endfacet
  facet normal 0.406736 0.913546 0
    outer loop
      vertex 25.8156 28.287 10
      vertex 32.5 25.3109 0
      vertex 25.8156 28.287 0
    endloop
  endfacet
  facet normal 0.587786 0.809017 0
    outer loop
      vertex 38.4196 21.0101 10
      vertex 34.2957 24.0063 7
      vertex 34.2957 24.0063 10
    endloop
  endfacet
  facet normal 0.587786 0.809017 7.26053e-08
    outer loop
      vertex 32.5 25.3109 0
      vertex 34.2957 24.0063 7
      vertex 38.4196 21.0101 0
    endloop
  endfacet
  facet normal 0.587786 0.809017 -0
    outer loop
      vertex 38.4196 21.0101 0
      vertex 34.2957 24.0063 7
      vertex 38.4196 21.0101 10
    endloop
  endfacet
  facet normal 0.587791 0.809012 -0
    outer loop
      vertex 32.6776 25.1818 7
      vertex 32.5 25.3109 10
      vertex 32.6776 25.1818 10
    endloop
  endfacet
  facet normal 0.587791 0.809012 0
    outer loop
      vertex 32.6776 25.1818 7
      vertex 32.5 25.3109 0
      vertex 32.5 25.3109 10
    endloop
  endfacet
  facet normal 0.587785 0.809017 2.328e-07
    outer loop
      vertex 34.2957 24.0063 7
      vertex 32.5 25.3109 0
      vertex 32.6776 25.1818 7
    endloop
  endfacet
  facet normal 0.939793 -0.341743 0
    outer loop
      vertex -20 17 10
      vertex -16 28 0
      vertex -16 28 10
    endloop
  endfacet
  facet normal 0.939793 -0.341743 0
    outer loop
      vertex -16 28 0
      vertex -20 17 10
      vertex -20 17 0
    endloop
  endfacet
  facet normal 0.939793 0.341743 0
    outer loop
      vertex -16 28 10
      vertex -20 39 0
      vertex -20 39 10
    endloop
  endfacet
  facet normal 0.939793 0.341743 0
    outer loop
      vertex -20 39 0
      vertex -16 28 10
      vertex -16 28 0
    endloop
  endfacet
  facet normal 0.447214 0.894427 -0
    outer loop
      vertex -20 39 0
      vertex -22 40 10
      vertex -20 39 10
    endloop
  endfacet
  facet normal 0.447214 0.894427 0
    outer loop
      vertex -22 40 10
      vertex -20 39 0
      vertex -22 40 0
    endloop
  endfacet
  facet normal 0 -1 0
    outer loop
      vertex -22 38 0
      vertex -21.5 38 10
      vertex -22 38 10
    endloop
  endfacet
  facet normal 0 -1 -0
    outer loop
      vertex -21.5 38 10
      vertex -22 38 0
      vertex -21.5 38 0
    endloop
  endfacet
  facet normal -0.928477 -0.371391 0
    outer loop
      vertex -17.5 28 0
      vertex -21.5 38 10
      vertex -21.5 38 0
    endloop
  endfacet
  facet normal -0.928477 -0.371391 0
    outer loop
      vertex -21.5 38 10
      vertex -17.5 28 0
      vertex -17.5 28 10
    endloop
  endfacet
  facet normal -0.939793 0.341743 0
    outer loop
      vertex -21.5 17 0
      vertex -17.5 28 10
      vertex -17.5 28 0
    endloop
  endfacet
  facet normal -0.939793 0.341743 0
    outer loop
      vertex -17.5 28 10
      vertex -21.5 17 0
      vertex -21.5 17 10
    endloop
  endfacet
  facet normal -0.847998 -0.529999 0
    outer loop
      vertex -16.5 9 0
      vertex -21.5 17 10
      vertex -21.5 17 0
    endloop
  endfacet
  facet normal -0.847998 -0.529999 0
    outer loop
      vertex -21.5 17 10
      vertex -16.5 9 0
      vertex -16.5 9 10
    endloop
  endfacet
  facet normal 0 -1 0
    outer loop
      vertex -16.5 9 0
      vertex -15 9 10
      vertex -16.5 9 10
    endloop
  endfacet
  facet normal 0 -1 -0
    outer loop
      vertex -15 9 10
      vertex -16.5 9 0
      vertex -15 9 0
    endloop
  endfacet
  facet normal 0.847998 0.529999 0
    outer loop
      vertex -15 9 10
      vertex -20 17 0
      vertex -20 17 10
    endloop
  endfacet
  facet normal 0.847998 0.529999 0
    outer loop
      vertex -20 17 0
      vertex -15 9 10
      vertex -15 9 0
    endloop
  endfacet
  facet normal 1 -0 0
    outer loop
      vertex 14.5 -60.5 10
      vertex 14.5 -30.5194 7
      vertex 14.5 -30.5194 10
    endloop
  endfacet
  facet normal 1 0 0
    outer loop
      vertex 14.5 -30.5194 7
      vertex 14.5 -60.5 10
      vertex 14.5 -60.5 7
    endloop
  endfacet
  facet normal -1 0 0
    outer loop
      vertex 16.5 -59.8083 7
      vertex 16.5 -38.2423 10
      vertex 16.5 -38.2423 7
    endloop
  endfacet
  facet normal -1 -0 0
    outer loop
      vertex 16.5 -38.2423 10
      vertex 16.5 -59.8083 7
      vertex 16.5 -59.8083 10
    endloop
  endfacet
  facet normal -0 0 1
    outer loop
      vertex 14.2736 -27.5744 7
      vertex 14.5 -30.5194 7
      vertex 14.5056 -27.4783 7
    endloop
  endfacet
  facet normal 0 0 1
    outer loop
      vertex 14.2736 -27.5744 7
      vertex 14.2736 -30.4256 7
      vertex 14.5 -30.5194 7
    endloop
  endfacet
  facet normal -0 0 1
    outer loop
      vertex 14.0595 -27.7056 7
      vertex 14.2736 -30.4256 7
      vertex 14.2736 -27.5744 7
    endloop
  endfacet
  facet normal 0 0 1
    outer loop
      vertex 14.0595 -27.7056 7
      vertex 14.0595 -30.2944 7
      vertex 14.2736 -30.4256 7
    endloop
  endfacet
  facet normal -0 0 1
    outer loop
      vertex 13.8686 -27.8686 7
      vertex 14.0595 -30.2944 7
      vertex 14.0595 -27.7056 7
    endloop
  endfacet
  facet normal 0 0 1
    outer loop
      vertex 13.8686 -27.8686 7
      vertex 13.8686 -30.1314 7
      vertex 14.0595 -30.2944 7
    endloop
  endfacet
  facet normal -0 0 1
    outer loop
      vertex 13.7056 -28.0595 7
      vertex 13.8686 -30.1314 7
      vertex 13.8686 -27.8686 7
    endloop
  endfacet
  facet normal 0 0 1
    outer loop
      vertex 13.7056 -28.0595 7
      vertex 13.7056 -29.9405 7
      vertex 13.8686 -30.1314 7
    endloop
  endfacet
  facet normal -0 0 1
    outer loop
      vertex 13.5744 -28.2736 7
      vertex 13.7056 -29.9405 7
      vertex 13.7056 -28.0595 7
    endloop
  endfacet
  facet normal 0 0 1
    outer loop
      vertex 13.5744 -28.2736 7
      vertex 13.5744 -29.7264 7
      vertex 13.7056 -29.9405 7
    endloop
  endfacet
  facet normal -0 0 1
    outer loop
      vertex 13.4783 -28.5056 7
      vertex 13.5744 -29.7264 7
      vertex 13.5744 -28.2736 7
    endloop
  endfacet
  facet normal 0 0 1
    outer loop
      vertex 13.4783 -28.5056 7
      vertex 13.4783 -29.4944 7
      vertex 13.5744 -29.7264 7
    endloop
  endfacet
  facet normal -0 0 1
    outer loop
      vertex 13.4197 -28.7497 7
      vertex 13.4783 -29.4944 7
      vertex 13.4783 -28.5056 7
    endloop
  endfacet
  facet normal 0 0 1
    outer loop
      vertex 13.4197 -28.7497 7
      vertex 13.4197 -29.2503 7
      vertex 13.4783 -29.4944 7
    endloop
  endfacet
  facet normal 0 -0 1
    outer loop
      vertex 13.4197 -29.2503 7
      vertex 13.4197 -28.7497 7
      vertex 13.4 -29 7
    endloop
  endfacet
  facet normal -0 0 1
    outer loop
      vertex 24.5 -28.5 7
      vertex 49.4219 -30.5 7
      vertex 49.6321 -28.5 7
    endloop
  endfacet
  facet normal 0 0 1
    outer loop
      vertex 24.5 -28.5 7
      vertex 24.2898 -30.5 7
      vertex 49.4219 -30.5 7
    endloop
  endfacet
  facet normal -0 0 1
    outer loop
      vertex 16.5194 -28.5 7
      vertex 24.2898 -30.5 7
      vertex 24.5 -28.5 7
    endloop
  endfacet
  facet normal 0 -0 1
    outer loop
      vertex 24.0289 -31.3565 7
      vertex 24.2898 -30.5 7
      vertex 16.5194 -28.5 7
    endloop
  endfacet
  facet normal 0 0 1
    outer loop
      vertex 24.2898 -30.5 7
      vertex 24.0289 -31.3565 7
      vertex 24.2815 -30.5791 7
    endloop
  endfacet
  facet normal 0 0 1
    outer loop
      vertex 24.0289 -31.3565 7
      vertex 16.5194 -28.5 7
      vertex 23.2639 -33.2108 7
    endloop
  endfacet
  facet normal 0 0 1
    outer loop
      vertex 23.2639 -33.2108 7
      vertex 16.5194 -28.5 7
      vertex 22.8819 -33.8725 7
    endloop
  endfacet
  facet normal 0 0 1
    outer loop
      vertex 22.8819 -33.8725 7
      vertex 16.5194 -28.5 7
      vertex 21.635 -35.4386 7
    endloop
  endfacet
  facet normal -0 0 1
    outer loop
      vertex 14.5 -30.5194 7
      vertex 21.635 -35.4386 7
      vertex 16.5194 -28.5 7
    endloop
  endfacet
  facet normal 0 0 1
    outer loop
      vertex 21.635 -35.4386 7
      vertex 21.1731 -35.9446 7
      vertex 21.1913 -35.9314 7
    endloop
  endfacet
  facet normal 0 0 1
    outer loop
      vertex 21.635 -35.4386 7
      vertex 14.5 -30.5194 7
      vertex 21.1731 -35.9446 7
    endloop
  endfacet
  facet normal 0 0 1
    outer loop
      vertex 21.1731 -35.9446 7
      vertex 14.5 -30.5194 7
      vertex 19.5551 -37.1202 7
    endloop
  endfacet
  facet normal 0 -0 1
    outer loop
      vertex 18.9791 -37.3922 7
      vertex 19.5551 -37.1202 7
      vertex 14.5 -30.5194 7
    endloop
  endfacet
  facet normal 0 0 1
    outer loop
      vertex 19.5551 -37.1202 7
      vertex 18.9791 -37.3922 7
      vertex 19.5 -37.1602 7
    endloop
  endfacet
  facet normal 0 0 1
    outer loop
      vertex 18.9791 -37.3922 7
      vertex 14.5 -30.5194 7
      vertex 17.1102 -38.1126 7
    endloop
  endfacet
  facet normal 0 0 1
    outer loop
      vertex 14.5 -30.5194 7
      vertex 16.5194 -28.5 7
      vertex 16.4256 -28.2736 7
    endloop
  endfacet
  facet normal 0 0 1
    outer loop
      vertex 17.1102 -38.1126 7
      vertex 14.5 -30.5194 7
      vertex 16.5 -38.2423 7
    endloop
  endfacet
  facet normal 0 0 1
    outer loop
      vertex 14.5 -30.5194 7
      vertex 16.4256 -28.2736 7
      vertex 16.2944 -28.0595 7
    endloop
  endfacet
  facet normal 0 0 1
    outer loop
      vertex 14.5 -30.5194 7
      vertex 16.2944 -28.0595 7
      vertex 16.1314 -27.8686 7
    endloop
  endfacet
  facet normal 0 0 1
    outer loop
      vertex 14.5 -30.5194 7
      vertex 16.1314 -27.8686 7
      vertex 15.9405 -27.7056 7
    endloop
  endfacet
  facet normal 0 0 1
    outer loop
      vertex 14.5 -30.5194 7
      vertex 15.9405 -27.7056 7
      vertex 15.7264 -27.5744 7
    endloop
  endfacet
  facet normal 0 0 1
    outer loop
      vertex 14.5 -30.5194 7
      vertex 15.7264 -27.5744 7
      vertex 15.4944 -27.4783 7
    endloop
  endfacet
  facet normal 0 0 1
    outer loop
      vertex 14.5 -30.5194 7
      vertex 15.4944 -27.4783 7
      vertex 15.2503 -27.4197 7
    endloop
  endfacet
  facet normal 0 0 1
    outer loop
      vertex 14.5 -60.5 7
      vertex 16.5 -38.2423 7
      vertex 14.5 -30.5194 7
    endloop
  endfacet
  facet normal 0 0 1
    outer loop
      vertex 14.5 -30.5194 7
      vertex 15.2503 -27.4197 7
      vertex 15 -27.4 7
    endloop
  endfacet
  facet normal 0 0 1
    outer loop
      vertex 16.5 -38.2423 7
      vertex 15 -59.8083 7
      vertex 16.5 -59.8083 7
    endloop
  endfacet
  facet normal 0 0 1
    outer loop
      vertex 14.5 -30.5194 7
      vertex 15 -27.4 7
      vertex 14.7497 -27.4197 7
    endloop
  endfacet
  facet normal 0 0 1
    outer loop
      vertex 14.5 -30.5194 7
      vertex 14.7497 -27.4197 7
      vertex 14.5056 -27.4783 7
    endloop
  endfacet
  facet normal 0 0 1
    outer loop
      vertex 16.5 -38.2423 7
      vertex 14.5 -60.5 7
      vertex 15 -59.8083 7
    endloop
  endfacet
  facet normal 0 0 1
    outer loop
      vertex 15 -59.8083 7
      vertex 14.5 -60.5 7
      vertex 15 -60 7
    endloop
  endfacet
  facet normal 0 0 1
    outer loop
      vertex 47.0987 -38.8523 7
      vertex 46.1579 -40.6495 7
      vertex 46.9741 -39.2358 7
    endloop
  endfacet
  facet normal 0 0 1
    outer loop
      vertex 24.0289 -31.3565 7
      vertex 46.1579 -40.6495 7
      vertex 47.0987 -38.8523 7
    endloop
  endfacet
  facet normal 0 0 1
    outer loop
      vertex 46.1579 -40.6495 7
      vertex 24.0289 -31.3565 7
      vertex 23.2639 -33.2108 7
    endloop
  endfacet
  facet normal 0 0 1
    outer loop
      vertex 22.8819 -33.8725 7
      vertex 40.2576 -48.9687 7
      vertex 41.6032 -47.4743 7
    endloop
  endfacet
  facet normal 0 0 1
    outer loop
      vertex 40.2576 -48.9687 7
      vertex 22.8819 -33.8725 7
      vertex 21.635 -35.4386 7
    endloop
  endfacet
  facet normal 0 0 1
    outer loop
      vertex 21.1731 -35.9446 7
      vertex 32.6776 -55.1818 7
      vertex 34.2957 -54.0063 7
    endloop
  endfacet
  facet normal 0 0 1
    outer loop
      vertex 32.6776 -55.1818 7
      vertex 21.1731 -35.9446 7
      vertex 19.5551 -37.1202 7
    endloop
  endfacet
  facet normal 0 0 1
    outer loop
      vertex 18.9791 -37.3922 7
      vertex 23.8042 -58.7145 7
      vertex 25.7712 -58.2964 7
    endloop
  endfacet
  facet normal 0 0 1
    outer loop
      vertex 23.8042 -58.7145 7
      vertex 18.9791 -37.3922 7
      vertex 17.1102 -38.1126 7
    endloop
  endfacet
  facet normal 0.951057 0.309017 0
    outer loop
      vertex 23.8042 -58.7145 10
      vertex 17.1102 -38.1126 7
      vertex 17.1102 -38.1126 10
    endloop
  endfacet
  facet normal 0.951057 0.309017 0
    outer loop
      vertex 17.1102 -38.1126 7
      vertex 23.8042 -58.7145 10
      vertex 23.8042 -58.7145 7
    endloop
  endfacet
  facet normal -0.951056 -0.309017 0
    outer loop
      vertex 25.7712 -58.2964 7
      vertex 18.9791 -37.3922 10
      vertex 18.9791 -37.3922 7
    endloop
  endfacet
  facet normal -0.951056 -0.309017 0
    outer loop
      vertex 18.9791 -37.3922 10
      vertex 25.7712 -58.2964 7
      vertex 25.7712 -58.2964 10
    endloop
  endfacet
  facet normal 0.809017 0.587785 0
    outer loop
      vertex 32.6776 -55.1818 10
      vertex 19.5551 -37.1202 7
      vertex 19.5551 -37.1202 10
    endloop
  endfacet
  facet normal 0.809017 0.587785 0
    outer loop
      vertex 19.5551 -37.1202 7
      vertex 32.6776 -55.1818 10
      vertex 32.6776 -55.1818 7
    endloop
  endfacet
  facet normal -0.809017 -0.587785 0
    outer loop
      vertex 34.2957 -54.0063 7
      vertex 21.1731 -35.9446 10
      vertex 21.1731 -35.9446 7
    endloop
  endfacet
  facet normal -0.809017 -0.587785 0
    outer loop
      vertex 21.1731 -35.9446 10
      vertex 34.2957 -54.0063 7
      vertex 34.2957 -54.0063 10
    endloop
  endfacet
  facet normal 0.587785 0.809017 -0
    outer loop
      vertex 40.2576 -48.9687 7
      vertex 21.635 -35.4386 10
      vertex 40.2576 -48.9687 10
    endloop
  endfacet
  facet normal 0.587785 0.809017 0
    outer loop
      vertex 21.635 -35.4386 10
      vertex 40.2576 -48.9687 7
      vertex 21.635 -35.4386 7
    endloop
  endfacet
  facet normal -0.587785 -0.809017 0
    outer loop
      vertex 22.8819 -33.8725 7
      vertex 41.6032 -47.4743 10
      vertex 22.8819 -33.8725 10
    endloop
  endfacet
  facet normal -0.587785 -0.809017 -0
    outer loop
      vertex 41.6032 -47.4743 10
      vertex 22.8819 -33.8725 7
      vertex 41.6032 -47.4743 7
    endloop
  endfacet
  facet normal 0.309017 0.951057 -0
    outer loop
      vertex 46.1579 -40.6495 7
      vertex 23.2639 -33.2108 10
      vertex 46.1579 -40.6495 10
    endloop
  endfacet
  facet normal 0.309017 0.951057 0
    outer loop
      vertex 23.2639 -33.2108 10
      vertex 46.1579 -40.6495 7
      vertex 23.2639 -33.2108 7
    endloop
  endfacet
  facet normal -0.309017 -0.951057 0
    outer loop
      vertex 24.0289 -31.3565 7
      vertex 47.0987 -38.8523 10
      vertex 24.0289 -31.3565 10
    endloop
  endfacet
  facet normal -0.309017 -0.951057 -0
    outer loop
      vertex 47.0987 -38.8523 10
      vertex 24.0289 -31.3565 7
      vertex 47.0987 -38.8523 7
    endloop
  endfacet
  facet normal 0 1 -0
    outer loop
      vertex 49.4219 -30.5 7
      vertex 24.2898 -30.5 10
      vertex 49.4219 -30.5 10
    endloop
  endfacet
  facet normal 0 1 0
    outer loop
      vertex 24.2898 -30.5 10
      vertex 49.4219 -30.5 7
      vertex 24.2898 -30.5 7
    endloop
  endfacet
  facet normal 0 -1 0
    outer loop
      vertex 24.5 -28.5 7
      vertex 49.6321 -28.5 10
      vertex 24.5 -28.5 10
    endloop
  endfacet
  facet normal 0 -1 -0
    outer loop
      vertex 49.6321 -28.5 10
      vertex 24.5 -28.5 7
      vertex 49.6321 -28.5 7
    endloop
  endfacet
  facet normal 0 -1 0
    outer loop
      vertex 16.5194 -28.5 7
      vertex 24.5 -28.5 10
      vertex 16.5194 -28.5 10
    endloop
  endfacet
  facet normal 0 -1 -0
    outer loop
      vertex 24.5 -28.5 10
      vertex 16.5194 -28.5 7
      vertex 24.5 -28.5 7
    endloop
  endfacet
  facet normal -0.743147 0.669128 0
    outer loop
      vertex 21.1913 -35.9314 7
      vertex 21.635 -35.4386 10
      vertex 21.635 -35.4386 7
    endloop
  endfacet
  facet normal -0.743147 0.669128 0
    outer loop
      vertex 21.635 -35.4386 10
      vertex 21.1913 -35.9314 7
      vertex 21.1913 -35.9314 10
    endloop
  endfacet
  facet normal -0.866023 0.500004 0
    outer loop
      vertex 22.8819 -33.8725 7
      vertex 23.2639 -33.2108 10
      vertex 23.2639 -33.2108 7
    endloop
  endfacet
  facet normal -0.866023 0.500004 0
    outer loop
      vertex 23.2639 -33.2108 10
      vertex 22.8819 -33.8725 7
      vertex 22.8819 -33.8725 10
    endloop
  endfacet
  facet normal -0.994521 0.104535 0
    outer loop
      vertex 24.2815 -30.5791 7
      vertex 24.2898 -30.5 10
      vertex 24.2898 -30.5 7
    endloop
  endfacet
  facet normal -0.994521 0.104535 0
    outer loop
      vertex 24.2898 -30.5 10
      vertex 24.2815 -30.5791 7
      vertex 24.2815 -30.5791 10
    endloop
  endfacet
  facet normal -0.951057 0.309014 0
    outer loop
      vertex 24.0289 -31.3565 7
      vertex 24.2815 -30.5791 10
      vertex 24.2815 -30.5791 7
    endloop
  endfacet
  facet normal -0.951057 0.309014 0
    outer loop
      vertex 24.2815 -30.5791 10
      vertex 24.0289 -31.3565 7
      vertex 24.0289 -31.3565 10
    endloop
  endfacet
  facet normal -0.207907 0.978149 0
    outer loop
      vertex 17.1102 -38.1126 7
      vertex 16.5 -38.2423 10
      vertex 17.1102 -38.1126 10
    endloop
  endfacet
  facet normal -0.207907 0.978149 0
    outer loop
      vertex 16.5 -38.2423 10
      vertex 17.1102 -38.1126 7
      vertex 16.5 -38.2423 7
    endloop
  endfacet
  facet normal -0.406736 0.913546 0
    outer loop
      vertex 19.5 -37.1602 7
      vertex 18.9791 -37.3922 10
      vertex 19.5 -37.1602 10
    endloop
  endfacet
  facet normal -0.406736 0.913546 0
    outer loop
      vertex 18.9791 -37.3922 10
      vertex 19.5 -37.1602 7
      vertex 18.9791 -37.3922 7
    endloop
  endfacet
  facet normal -0.587848 0.808971 0
    outer loop
      vertex 21.1913 -35.9314 7
      vertex 21.1731 -35.9446 10
      vertex 21.1913 -35.9314 10
    endloop
  endfacet
  facet normal -0.587848 0.808971 0
    outer loop
      vertex 21.1731 -35.9446 10
      vertex 21.1913 -35.9314 7
      vertex 21.1731 -35.9446 7
    endloop
  endfacet
  facet normal -0.587789 0.809015 0
    outer loop
      vertex 19.5551 -37.1202 7
      vertex 19.5 -37.1602 10
      vertex 19.5551 -37.1202 10
    endloop
  endfacet
  facet normal -0.587789 0.809015 0
    outer loop
      vertex 19.5 -37.1602 10
      vertex 19.5551 -37.1202 7
      vertex 19.5 -37.1602 7
    endloop
  endfacet
  facet normal 0.97237 0.233444 0
    outer loop
      vertex 13.4783 -29.4944 10
      vertex 13.4197 -29.2503 7
      vertex 13.4197 -29.2503 10
    endloop
  endfacet
  facet normal 0.97237 0.233444 0
    outer loop
      vertex 13.4197 -29.2503 7
      vertex 13.4783 -29.4944 10
      vertex 13.4783 -29.4944 7
    endloop
  endfacet
  facet normal 0.233445 -0.97237 0
    outer loop
      vertex 14.5056 -27.4783 7
      vertex 14.7497 -27.4197 10
      vertex 14.5056 -27.4783 10
    endloop
  endfacet
  facet normal 0.233445 -0.97237 0
    outer loop
      vertex 14.7497 -27.4197 10
      vertex 14.5056 -27.4783 7
      vertex 14.7497 -27.4197 7
    endloop
  endfacet
  facet normal 0.522499 0.85264 -0
    outer loop
      vertex 14.2736 -30.4256 7
      vertex 14.0595 -30.2944 10
      vertex 14.2736 -30.4256 10
    endloop
  endfacet
  facet normal 0.522499 0.85264 0
    outer loop
      vertex 14.0595 -30.2944 10
      vertex 14.2736 -30.4256 7
      vertex 14.0595 -30.2944 7
    endloop
  endfacet
  facet normal 0.923878 0.382688 0
    outer loop
      vertex 13.5744 -29.7264 10
      vertex 13.4783 -29.4944 7
      vertex 13.4783 -29.4944 10
    endloop
  endfacet
  facet normal 0.923878 0.382688 0
    outer loop
      vertex 13.4783 -29.4944 7
      vertex 13.5744 -29.7264 10
      vertex 13.5744 -29.7264 7
    endloop
  endfacet
  facet normal 0.996917 0.0784575 0
    outer loop
      vertex 13.4197 -29.2503 10
      vertex 13.4 -29 7
      vertex 13.4 -29 10
    endloop
  endfacet
  facet normal 0.996917 0.0784575 0
    outer loop
      vertex 13.4 -29 7
      vertex 13.4197 -29.2503 10
      vertex 13.4197 -29.2503 7
    endloop
  endfacet
  facet normal 0.852643 0.522494 0
    outer loop
      vertex 13.7056 -29.9405 10
      vertex 13.5744 -29.7264 7
      vertex 13.5744 -29.7264 10
    endloop
  endfacet
  facet normal 0.852643 0.522494 0
    outer loop
      vertex 13.5744 -29.7264 7
      vertex 13.7056 -29.9405 10
      vertex 13.7056 -29.9405 7
    endloop
  endfacet
  facet normal 0.649447 0.760407 -0
    outer loop
      vertex 14.0595 -30.2944 7
      vertex 13.8686 -30.1314 10
      vertex 14.0595 -30.2944 10
    endloop
  endfacet
  facet normal 0.649447 0.760407 0
    outer loop
      vertex 13.8686 -30.1314 10
      vertex 14.0595 -30.2944 7
      vertex 13.8686 -30.1314 7
    endloop
  endfacet
  facet normal 0.760405 0.649449 0
    outer loop
      vertex 13.8686 -30.1314 10
      vertex 13.7056 -29.9405 7
      vertex 13.7056 -29.9405 10
    endloop
  endfacet
  facet normal 0.760405 0.649449 0
    outer loop
      vertex 13.7056 -29.9405 7
      vertex 13.8686 -30.1314 10
      vertex 13.8686 -30.1314 7
    endloop
  endfacet
  facet normal -0.233445 -0.97237 0
    outer loop
      vertex 15.2503 -27.4197 7
      vertex 15.4944 -27.4783 10
      vertex 15.2503 -27.4197 10
    endloop
  endfacet
  facet normal -0.233445 -0.97237 -0
    outer loop
      vertex 15.4944 -27.4783 10
      vertex 15.2503 -27.4197 7
      vertex 15.4944 -27.4783 7
    endloop
  endfacet
  facet normal -0.649447 -0.760407 0
    outer loop
      vertex 15.9405 -27.7056 7
      vertex 16.1314 -27.8686 10
      vertex 15.9405 -27.7056 10
    endloop
  endfacet
  facet normal -0.649447 -0.760407 -0
    outer loop
      vertex 16.1314 -27.8686 10
      vertex 15.9405 -27.7056 7
      vertex 16.1314 -27.8686 7
    endloop
  endfacet
  facet normal -0.852641 -0.522497 0
    outer loop
      vertex 16.4256 -28.2736 7
      vertex 16.2944 -28.0595 10
      vertex 16.2944 -28.0595 7
    endloop
  endfacet
  facet normal -0.852641 -0.522497 0
    outer loop
      vertex 16.2944 -28.0595 10
      vertex 16.4256 -28.2736 7
      vertex 16.4256 -28.2736 10
    endloop
  endfacet
  facet normal 0.0784534 -0.996918 0
    outer loop
      vertex 14.7497 -27.4197 7
      vertex 15 -27.4 10
      vertex 14.7497 -27.4197 10
    endloop
  endfacet
  facet normal 0.0784534 -0.996918 0
    outer loop
      vertex 15 -27.4 10
      vertex 14.7497 -27.4197 7
      vertex 15 -27.4 7
    endloop
  endfacet
  facet normal 0.522499 -0.85264 0
    outer loop
      vertex 14.0595 -27.7056 7
      vertex 14.2736 -27.5744 10
      vertex 14.0595 -27.7056 10
    endloop
  endfacet
  facet normal 0.522499 -0.85264 0
    outer loop
      vertex 14.2736 -27.5744 10
      vertex 14.0595 -27.7056 7
      vertex 14.2736 -27.5744 7
    endloop
  endfacet
  facet normal 0.760405 -0.649449 0
    outer loop
      vertex 13.7056 -28.0595 10
      vertex 13.8686 -27.8686 7
      vertex 13.8686 -27.8686 10
    endloop
  endfacet
  facet normal 0.760405 -0.649449 0
    outer loop
      vertex 13.8686 -27.8686 7
      vertex 13.7056 -28.0595 10
      vertex 13.7056 -28.0595 7
    endloop
  endfacet
  facet normal 0.97237 -0.233446 0
    outer loop
      vertex 13.4197 -28.7497 10
      vertex 13.4783 -28.5056 7
      vertex 13.4783 -28.5056 10
    endloop
  endfacet
  facet normal 0.97237 -0.233446 0
    outer loop
      vertex 13.4783 -28.5056 7
      vertex 13.4197 -28.7497 10
      vertex 13.4197 -28.7497 7
    endloop
  endfacet
  facet normal 0.382689 0.923877 -0
    outer loop
      vertex 14.5 -30.5194 7
      vertex 14.2736 -30.4256 10
      vertex 14.5 -30.5194 10
    endloop
  endfacet
  facet normal 0.382689 0.923877 0
    outer loop
      vertex 14.2736 -30.4256 10
      vertex 14.5 -30.5194 7
      vertex 14.2736 -30.4256 7
    endloop
  endfacet
  facet normal -0.382686 -0.923878 0
    outer loop
      vertex 15.4944 -27.4783 7
      vertex 15.7264 -27.5744 10
      vertex 15.4944 -27.4783 10
    endloop
  endfacet
  facet normal -0.382686 -0.923878 -0
    outer loop
      vertex 15.7264 -27.5744 10
      vertex 15.4944 -27.4783 7
      vertex 15.7264 -27.5744 7
    endloop
  endfacet
  facet normal -0.760407 -0.649447 0
    outer loop
      vertex 16.2944 -28.0595 7
      vertex 16.1314 -27.8686 10
      vertex 16.1314 -27.8686 7
    endloop
  endfacet
  facet normal -0.760407 -0.649447 0
    outer loop
      vertex 16.1314 -27.8686 10
      vertex 16.2944 -28.0595 7
      vertex 16.2944 -28.0595 10
    endloop
  endfacet
  facet normal -0.923877 -0.38269 0
    outer loop
      vertex 16.5194 -28.5 7
      vertex 16.4256 -28.2736 10
      vertex 16.4256 -28.2736 7
    endloop
  endfacet
  facet normal -0.923877 -0.38269 0
    outer loop
      vertex 16.4256 -28.2736 10
      vertex 16.5194 -28.5 7
      vertex 16.5194 -28.5 10
    endloop
  endfacet
  facet normal 0.382688 -0.923878 0
    outer loop
      vertex 14.2736 -27.5744 7
      vertex 14.5056 -27.4783 10
      vertex 14.2736 -27.5744 10
    endloop
  endfacet
  facet normal 0.382688 -0.923878 0
    outer loop
      vertex 14.5056 -27.4783 10
      vertex 14.2736 -27.5744 7
      vertex 14.5056 -27.4783 7
    endloop
  endfacet
  facet normal 0.923878 -0.382688 0
    outer loop
      vertex 13.4783 -28.5056 10
      vertex 13.5744 -28.2736 7
      vertex 13.5744 -28.2736 10
    endloop
  endfacet
  facet normal 0.923878 -0.382688 0
    outer loop
      vertex 13.5744 -28.2736 7
      vertex 13.4783 -28.5056 10
      vertex 13.4783 -28.5056 7
    endloop
  endfacet
  facet normal 0.649447 -0.760407 0
    outer loop
      vertex 13.8686 -27.8686 7
      vertex 14.0595 -27.7056 10
      vertex 13.8686 -27.8686 10
    endloop
  endfacet
  facet normal 0.649447 -0.760407 0
    outer loop
      vertex 14.0595 -27.7056 10
      vertex 13.8686 -27.8686 7
      vertex 14.0595 -27.7056 7
    endloop
  endfacet
  facet normal 0.996918 -0.0784569 0
    outer loop
      vertex 13.4 -29 10
      vertex 13.4197 -28.7497 7
      vertex 13.4197 -28.7497 10
    endloop
  endfacet
  facet normal 0.996918 -0.0784569 0
    outer loop
      vertex 13.4197 -28.7497 7
      vertex 13.4 -29 10
      vertex 13.4 -29 7
    endloop
  endfacet
  facet normal -0.522499 -0.85264 0
    outer loop
      vertex 15.7264 -27.5744 7
      vertex 15.9405 -27.7056 10
      vertex 15.7264 -27.5744 10
    endloop
  endfacet
  facet normal -0.522499 -0.85264 -0
    outer loop
      vertex 15.9405 -27.7056 10
      vertex 15.7264 -27.5744 7
      vertex 15.9405 -27.7056 7
    endloop
  endfacet
  facet normal -0.0784531 -0.996918 0
    outer loop
      vertex 15 -27.4 7
      vertex 15.2503 -27.4197 10
      vertex 15 -27.4 10
    endloop
  endfacet
  facet normal -0.0784531 -0.996918 -0
    outer loop
      vertex 15.2503 -27.4197 10
      vertex 15 -27.4 7
      vertex 15.2503 -27.4197 7
    endloop
  endfacet
  facet normal 0.852643 -0.522494 0
    outer loop
      vertex 13.5744 -28.2736 10
      vertex 13.7056 -28.0595 7
      vertex 13.7056 -28.0595 10
    endloop
  endfacet
  facet normal 0.852643 -0.522494 0
    outer loop
      vertex 13.7056 -28.0595 7
      vertex 13.5744 -28.2736 10
      vertex 13.5744 -28.2736 7
    endloop
  endfacet
  facet normal 0 0 -1
    outer loop
      vertex -20 -69 0
      vertex -17.5 -58 0
      vertex -16 -58 0
    endloop
  endfacet
  facet normal 0 0 -1
    outer loop
      vertex -20 -69 0
      vertex -21.5 -68 0
      vertex -17.5 -58 0
    endloop
  endfacet
  facet normal 0 0 -1
    outer loop
      vertex -22 -70 0
      vertex -21.5 -68 0
      vertex -20 -69 0
    endloop
  endfacet
  facet normal 0 0 -1
    outer loop
      vertex -22 -70 0
      vertex -22 -68 0
      vertex -21.5 -68 0
    endloop
  endfacet
  facet normal 0 0 -1
    outer loop
      vertex -27 -70 0
      vertex -22 -68 0
      vertex -22 -70 0
    endloop
  endfacet
  facet normal -0 0 -1
    outer loop
      vertex -22 -68 0
      vertex -27 -70 0
      vertex -37 -50 0
    endloop
  endfacet
  facet normal 0 0 -1
    outer loop
      vertex -17.5 -58 0
      vertex -20 -47 0
      vertex -16 -58 0
    endloop
  endfacet
  facet normal -0 -0 -1
    outer loop
      vertex -20 -47 0
      vertex -17.5 -58 0
      vertex -21.5 -47 0
    endloop
  endfacet
  facet normal -0 0 -1
    outer loop
      vertex 15 -60 0
      vertex 5 -70 0
      vertex 15 -59.8083 0
    endloop
  endfacet
  facet normal 0 0 -1
    outer loop
      vertex 0 -30 0
      vertex 50 -25 0
      vertex 49.2352 -32.2769 0
    endloop
  endfacet
  facet normal 0 0 -1
    outer loop
      vertex 0 -30 0
      vertex 49.2352 -32.2769 0
      vertex 46.9741 -39.2358 0
    endloop
  endfacet
  facet normal 0 0 -1
    outer loop
      vertex 0 -30 0
      vertex 46.9741 -39.2358 0
      vertex 43.3156 -45.5725 0
    endloop
  endfacet
  facet normal 0 0 -1
    outer loop
      vertex 0 -30 0
      vertex 43.3156 -45.5725 0
      vertex 38.4196 -51.0101 0
    endloop
  endfacet
  facet normal 0 0 -1
    outer loop
      vertex 0 -30 0
      vertex 38.4196 -51.0101 0
      vertex 32.5 -55.3109 0
    endloop
  endfacet
  facet normal 0 0 -1
    outer loop
      vertex 0 -30 0
      vertex 32.5 -55.3109 0
      vertex 25.8156 -58.287 0
    endloop
  endfacet
  facet normal 0 0 -1
    outer loop
      vertex 0 -30 0
      vertex 25.8156 -58.287 0
      vertex 18.6585 -59.8083 0
    endloop
  endfacet
  facet normal 0 0 -1
    outer loop
      vertex 0 -30 0
      vertex 18.6585 -59.8083 0
      vertex 15 -59.8083 0
    endloop
  endfacet
  facet normal 0 0 -1
    outer loop
      vertex -4.89859e-15 -70 0
      vertex 15 -59.8083 0
      vertex 5 -70 0
    endloop
  endfacet
  facet normal -0 0 -1
    outer loop
      vertex 50 -25 0
      vertex 0 -30 0
      vertex 50 -20 0
    endloop
  endfacet
  facet normal 0 0 -1
    outer loop
      vertex -37 -20 0
      vertex 0 -30 0
      vertex -22 -30 0
    endloop
  endfacet
  facet normal 0 0 -1
    outer loop
      vertex -22 -68 0
      vertex -37 -50 0
      vertex -22 -30 0
    endloop
  endfacet
  facet normal 0 0 -1
    outer loop
      vertex 0 -30 0
      vertex -37 -20 0
      vertex 50 -20 0
    endloop
  endfacet
  facet normal 0 0 -1
    outer loop
      vertex -37 -20 0
      vertex -22 -30 0
      vertex -37 -50 0
    endloop
  endfacet
  facet normal -0 0 -1
    outer loop
      vertex 15 -59.8083 0
      vertex -4.89859e-15 -70 0
      vertex 0 -30 0
    endloop
  endfacet
  facet normal 0 0 -1
    outer loop
      vertex -20 -47 0
      vertex -16.5 -39 0
      vertex -15 -39 0
    endloop
  endfacet
  facet normal 0 0 -1
    outer loop
      vertex -16.5 -39 0
      vertex -20 -47 0
      vertex -21.5 -47 0
    endloop
  endfacet
  facet normal -0 0 1
    outer loop
      vertex -16.5 -39 10
      vertex -20 -47 10
      vertex -15 -39 10
    endloop
  endfacet
  facet normal 0 -0 1
    outer loop
      vertex -20 -47 10
      vertex -16.5 -39 10
      vertex -21.5 -47 10
    endloop
  endfacet
  facet normal 0 0 1
    outer loop
      vertex -20 -47 10
      vertex -17.5 -58 10
      vertex -16 -58 10
    endloop
  endfacet
  facet normal 0 0 1
    outer loop
      vertex -17.5 -58 10
      vertex -20 -47 10
      vertex -21.5 -47 10
    endloop
  endfacet
  facet normal -0 0 1
    outer loop
      vertex -17.5 -58 10
      vertex -20 -69 10
      vertex -16 -58 10
    endloop
  endfacet
  facet normal -0 0 1
    outer loop
      vertex -21.5 -68 10
      vertex -20 -69 10
      vertex -17.5 -58 10
    endloop
  endfacet
  facet normal 0 0 1
    outer loop
      vertex -22 -70 10
      vertex -21.5 -68 10
      vertex -22 -68 10
    endloop
  endfacet
  facet normal 0 0 1
    outer loop
      vertex -21.5 -68 10
      vertex -22 -70 10
      vertex -20 -69 10
    endloop
  endfacet
  facet normal 0 0 1
    outer loop
      vertex 24.5 -28.5 10
      vertex 50 -25 10
      vertex 50 -20 10
    endloop
  endfacet
  facet normal 0 0 1
    outer loop
      vertex 50 -25 10
      vertex 24.5 -28.5 10
      vertex 49.6321 -28.5 10
    endloop
  endfacet
  facet normal -0 0 1
    outer loop
      vertex 15.2503 -27.4197 10
      vertex 24.5 -28.5 10
      vertex 50 -20 10
    endloop
  endfacet
  facet normal 0 0 1
    outer loop
      vertex 24.5 -28.5 10
      vertex 16.4256 -28.2736 10
      vertex 16.5194 -28.5 10
    endloop
  endfacet
  facet normal 0 0 1
    outer loop
      vertex 24.5 -28.5 10
      vertex 16.2944 -28.0595 10
      vertex 16.4256 -28.2736 10
    endloop
  endfacet
  facet normal 0 0 1
    outer loop
      vertex 24.5 -28.5 10
      vertex 16.1314 -27.8686 10
      vertex 16.2944 -28.0595 10
    endloop
  endfacet
  facet normal 0 0 1
    outer loop
      vertex 24.5 -28.5 10
      vertex 15.9405 -27.7056 10
      vertex 16.1314 -27.8686 10
    endloop
  endfacet
  facet normal 0 0 1
    outer loop
      vertex 24.5 -28.5 10
      vertex 15.7264 -27.5744 10
      vertex 15.9405 -27.7056 10
    endloop
  endfacet
  facet normal 0 0 1
    outer loop
      vertex 24.5 -28.5 10
      vertex 15.4944 -27.4783 10
      vertex 15.7264 -27.5744 10
    endloop
  endfacet
  facet normal 0 0 1
    outer loop
      vertex 24.5 -28.5 10
      vertex 15.2503 -27.4197 10
      vertex 15.4944 -27.4783 10
    endloop
  endfacet
  facet normal 0 0 1
    outer loop
      vertex 50 -20 10
      vertex 15 -27.4 10
      vertex 15.2503 -27.4197 10
    endloop
  endfacet
  facet normal -0 0 1
    outer loop
      vertex -37 -20 10
      vertex 15 -27.4 10
      vertex 50 -20 10
    endloop
  endfacet
  facet normal 0 0 1
    outer loop
      vertex 0 -30 10
      vertex 13.4 -29 10
      vertex 13.4197 -28.7497 10
    endloop
  endfacet
  facet normal 0 0 1
    outer loop
      vertex 13.4 -29 10
      vertex 0 -30 10
      vertex 5 -70 10
    endloop
  endfacet
  facet normal 0 0 1
    outer loop
      vertex 13.4783 -28.5056 10
      vertex 0 -30 10
      vertex 13.4197 -28.7497 10
    endloop
  endfacet
  facet normal 0 0 1
    outer loop
      vertex 13.5744 -28.2736 10
      vertex 0 -30 10
      vertex 13.4783 -28.5056 10
    endloop
  endfacet
  facet normal 0 0 1
    outer loop
      vertex 13.7056 -28.0595 10
      vertex 0 -30 10
      vertex 13.5744 -28.2736 10
    endloop
  endfacet
  facet normal 0 0 1
    outer loop
      vertex 13.8686 -27.8686 10
      vertex 0 -30 10
      vertex 13.7056 -28.0595 10
    endloop
  endfacet
  facet normal 0 0 1
    outer loop
      vertex 14.0595 -27.7056 10
      vertex 0 -30 10
      vertex 13.8686 -27.8686 10
    endloop
  endfacet
  facet normal 0 0 1
    outer loop
      vertex 14.2736 -27.5744 10
      vertex 0 -30 10
      vertex 14.0595 -27.7056 10
    endloop
  endfacet
  facet normal 0 0 1
    outer loop
      vertex 14.5056 -27.4783 10
      vertex 0 -30 10
      vertex 14.2736 -27.5744 10
    endloop
  endfacet
  facet normal 0 0 1
    outer loop
      vertex -37 -20 10
      vertex 14.5056 -27.4783 10
      vertex 14.7497 -27.4197 10
    endloop
  endfacet
  facet normal 0 0 1
    outer loop
      vertex 15 -27.4 10
      vertex -37 -20 10
      vertex 14.7497 -27.4197 10
    endloop
  endfacet
  facet normal 0 0 1
    outer loop
      vertex 14.5056 -27.4783 10
      vertex -37 -20 10
      vertex 0 -30 10
    endloop
  endfacet
  facet normal -0 0 1
    outer loop
      vertex -37 -50 10
      vertex -22 -68 10
      vertex -22 -30 10
    endloop
  endfacet
  facet normal 0 -0 1
    outer loop
      vertex -27 -70 10
      vertex -22 -68 10
      vertex -37 -50 10
    endloop
  endfacet
  facet normal 0 0 1
    outer loop
      vertex 0 -30 10
      vertex -37 -20 10
      vertex -22 -30 10
    endloop
  endfacet
  facet normal 0 0 1
    outer loop
      vertex -37 -50 10
      vertex -22 -30 10
      vertex -37 -20 10
    endloop
  endfacet
  facet normal 0 0 1
    outer loop
      vertex -22 -68 10
      vertex -27 -70 10
      vertex -22 -70 10
    endloop
  endfacet
  facet normal 0 0 1
    outer loop
      vertex 14.2736 -30.4256 10
      vertex 14.5 -60.5 10
      vertex 14.5 -30.5194 10
    endloop
  endfacet
  facet normal 0 0 1
    outer loop
      vertex 14.0595 -30.2944 10
      vertex 14.5 -60.5 10
      vertex 14.2736 -30.4256 10
    endloop
  endfacet
  facet normal 0 0 1
    outer loop
      vertex 13.8686 -30.1314 10
      vertex 14.5 -60.5 10
      vertex 14.0595 -30.2944 10
    endloop
  endfacet
  facet normal 0 0 1
    outer loop
      vertex 13.7056 -29.9405 10
      vertex 14.5 -60.5 10
      vertex 13.8686 -30.1314 10
    endloop
  endfacet
  facet normal 0 0 1
    outer loop
      vertex 5 -70 10
      vertex 13.7056 -29.9405 10
      vertex 13.5744 -29.7264 10
    endloop
  endfacet
  facet normal 0 0 1
    outer loop
      vertex 5 -70 10
      vertex 13.5744 -29.7264 10
      vertex 13.4783 -29.4944 10
    endloop
  endfacet
  facet normal 0 0 1
    outer loop
      vertex 5 -70 10
      vertex 13.4783 -29.4944 10
      vertex 13.4197 -29.2503 10
    endloop
  endfacet
  facet normal 0 0 1
    outer loop
      vertex 5 -70 10
      vertex 13.4197 -29.2503 10
      vertex 13.4 -29 10
    endloop
  endfacet
  facet normal 0 0 1
    outer loop
      vertex 13.7056 -29.9405 10
      vertex 5 -70 10
      vertex 14.5 -60.5 10
    endloop
  endfacet
  facet normal 0 0 1
    outer loop
      vertex 5 -70 10
      vertex 0 -30 10
      vertex -4.89859e-15 -70 10
    endloop
  endfacet
  facet normal 0 0 1
    outer loop
      vertex 23.2639 -33.2108 10
      vertex 43.3156 -45.5725 10
      vertex 46.1579 -40.6495 10
    endloop
  endfacet
  facet normal 0 0 1
    outer loop
      vertex 43.3156 -45.5725 10
      vertex 23.2639 -33.2108 10
      vertex 41.6032 -47.4743 10
    endloop
  endfacet
  facet normal 0 0 1
    outer loop
      vertex 41.6032 -47.4743 10
      vertex 23.2639 -33.2108 10
      vertex 22.8819 -33.8725 10
    endloop
  endfacet
  facet normal 0 0 1
    outer loop
      vertex 19.5 -37.1602 10
      vertex 32.5 -55.3109 10
      vertex 32.6776 -55.1818 10
    endloop
  endfacet
  facet normal 0 0 1
    outer loop
      vertex 32.5 -55.3109 10
      vertex 19.5 -37.1602 10
      vertex 25.8156 -58.287 10
    endloop
  endfacet
  facet normal -0 0 1
    outer loop
      vertex 19.5 -37.1602 10
      vertex 32.6776 -55.1818 10
      vertex 19.5551 -37.1202 10
    endloop
  endfacet
  facet normal -0 0 1
    outer loop
      vertex 18.9791 -37.3922 10
      vertex 25.8156 -58.287 10
      vertex 19.5 -37.1602 10
    endloop
  endfacet
  facet normal 0 0 1
    outer loop
      vertex 25.8156 -58.287 10
      vertex 18.9791 -37.3922 10
      vertex 25.7712 -58.2964 10
    endloop
  endfacet
  facet normal 0 0 1
    outer loop
      vertex 21.635 -35.4386 10
      vertex 38.4196 -51.0101 10
      vertex 40.2576 -48.9687 10
    endloop
  endfacet
  facet normal -0 0 1
    outer loop
      vertex 21.1913 -35.9314 10
      vertex 38.4196 -51.0101 10
      vertex 21.635 -35.4386 10
    endloop
  endfacet
  facet normal 0 0 1
    outer loop
      vertex 38.4196 -51.0101 10
      vertex 21.1913 -35.9314 10
      vertex 34.2957 -54.0063 10
    endloop
  endfacet
  facet normal 0 0 1
    outer loop
      vertex 34.2957 -54.0063 10
      vertex 21.1913 -35.9314 10
      vertex 21.1731 -35.9446 10
    endloop
  endfacet
  facet normal -0 0 1
    outer loop
      vertex 24.2898 -30.5 10
      vertex 49.2352 -32.2769 10
      vertex 49.4219 -30.5 10
    endloop
  endfacet
  facet normal 0 0 1
    outer loop
      vertex 49.2352 -32.2769 10
      vertex 24.2898 -30.5 10
      vertex 47.0987 -38.8523 10
    endloop
  endfacet
  facet normal -0 0 1
    outer loop
      vertex 24.2815 -30.5791 10
      vertex 47.0987 -38.8523 10
      vertex 24.2898 -30.5 10
    endloop
  endfacet
  facet normal 0 0 1
    outer loop
      vertex 47.0987 -38.8523 10
      vertex 24.2815 -30.5791 10
      vertex 24.0289 -31.3565 10
    endloop
  endfacet
  facet normal 0 0 1
    outer loop
      vertex 17.1102 -38.1126 10
      vertex 18.6585 -59.8083 10
      vertex 23.8042 -58.7145 10
    endloop
  endfacet
  facet normal -0 0 1
    outer loop
      vertex 16.5 -38.2423 10
      vertex 18.6585 -59.8083 10
      vertex 17.1102 -38.1126 10
    endloop
  endfacet
  facet normal 0 0 1
    outer loop
      vertex 18.6585 -59.8083 10
      vertex 16.5 -38.2423 10
      vertex 16.5 -59.8083 10
    endloop
  endfacet
  facet normal 1 -0 0
    outer loop
      vertex 15 -60 7
      vertex 15 -59.8083 0
      vertex 15 -59.8083 7
    endloop
  endfacet
  facet normal 1 0 0
    outer loop
      vertex 15 -59.8083 0
      vertex 15 -60 7
      vertex 15 -60 0
    endloop
  endfacet
  facet normal 0.707107 -0.707107 0
    outer loop
      vertex 14.5 -60.5 10
      vertex 5 -70 10
      vertex 14.5 -60.5 7
    endloop
  endfacet
  facet normal 0.707107 -0.707107 0
    outer loop
      vertex 14.5 -60.5 7
      vertex 15 -60 0
      vertex 15 -60 7
    endloop
  endfacet
  facet normal 0.707107 -0.707107 0
    outer loop
      vertex 5 -70 0
      vertex 14.5 -60.5 7
      vertex 5 -70 10
    endloop
  endfacet
  facet normal 0.707107 -0.707107 0
    outer loop
      vertex 14.5 -60.5 7
      vertex 5 -70 0
      vertex 15 -60 0
    endloop
  endfacet
  facet normal 0 -1 0
    outer loop
      vertex -4.89859e-15 -70 0
      vertex 5 -70 10
      vertex -4.89859e-15 -70 10
    endloop
  endfacet
  facet normal 0 -1 -0
    outer loop
      vertex 5 -70 10
      vertex -4.89859e-15 -70 0
      vertex 5 -70 0
    endloop
  endfacet
  facet normal -1 1.22465e-16 0
    outer loop
      vertex -4.89859e-15 -70 0
      vertex 0 -30 10
      vertex 0 -30 0
    endloop
  endfacet
  facet normal -1 1.22465e-16 0
    outer loop
      vertex 0 -30 10
      vertex -4.89859e-15 -70 0
      vertex -4.89859e-15 -70 10
    endloop
  endfacet
  facet normal 0 -1 0
    outer loop
      vertex -22 -30 0
      vertex 0 -30 10
      vertex -22 -30 10
    endloop
  endfacet
  facet normal 0 -1 -0
    outer loop
      vertex 0 -30 10
      vertex -22 -30 0
      vertex 0 -30 0
    endloop
  endfacet
  facet normal 1 -0 0
    outer loop
      vertex -22 -68 10
      vertex -22 -30 0
      vertex -22 -30 10
    endloop
  endfacet
  facet normal 1 0 0
    outer loop
      vertex -22 -30 0
      vertex -22 -68 10
      vertex -22 -68 0
    endloop
  endfacet
  facet normal 0 -1 0
    outer loop
      vertex -27 -70 0
      vertex -22 -70 10
      vertex -27 -70 10
    endloop
  endfacet
  facet normal 0 -1 -0
    outer loop
      vertex -22 -70 10
      vertex -27 -70 0
      vertex -22 -70 0
    endloop
  endfacet
  facet normal -0.894427 -0.447214 0
    outer loop
      vertex -27 -70 0
      vertex -37 -50 10
      vertex -37 -50 0
    endloop
  endfacet
  facet normal -0.894427 -0.447214 0
    outer loop
      vertex -37 -50 10
      vertex -27 -70 0
      vertex -27 -70 10
    endloop
  endfacet
  facet normal -1 0 0
    outer loop
      vertex -37 -50 0
      vertex -37 -20 10
      vertex -37 -20 0
    endloop
  endfacet
  facet normal -1 -0 0
    outer loop
      vertex -37 -20 10
      vertex -37 -50 0
      vertex -37 -50 10
    endloop
  endfacet
  facet normal 0 1 -0
    outer loop
      vertex 50 -20 0
      vertex -37 -20 10
      vertex 50 -20 10
    endloop
  endfacet
  facet normal 0 1 0
    outer loop
      vertex -37 -20 10
      vertex 50 -20 0
      vertex -37 -20 0
    endloop
  endfacet
  facet normal 1 -0 0
    outer loop
      vertex 50 -25 10
      vertex 50 -20 0
      vertex 50 -20 10
    endloop
  endfacet
  facet normal 1 0 0
    outer loop
      vertex 50 -20 0
      vertex 50 -25 10
      vertex 50 -25 0
    endloop
  endfacet
  facet normal 0.743145 -0.66913 0
    outer loop
      vertex 40.2576 -48.9687 10
      vertex 38.4196 -51.0101 10
      vertex 40.2576 -48.9687 7
    endloop
  endfacet
  facet normal 0.743145 -0.66913 0
    outer loop
      vertex 41.6032 -47.4743 7
      vertex 43.3156 -45.5725 10
      vertex 41.6032 -47.4743 10
    endloop
  endfacet
  facet normal 0.743145 -0.66913 0
    outer loop
      vertex 43.3156 -45.5725 10
      vertex 41.6032 -47.4743 7
      vertex 43.3156 -45.5725 0
    endloop
  endfacet
  facet normal 0.743145 -0.66913 1.18646e-07
    outer loop
      vertex 40.2576 -48.9687 7
      vertex 43.3156 -45.5725 0
      vertex 41.6032 -47.4743 7
    endloop
  endfacet
  facet normal 0.743145 -0.66913 0
    outer loop
      vertex 38.4196 -51.0101 0
      vertex 40.2576 -48.9687 7
      vertex 38.4196 -51.0101 10
    endloop
  endfacet
  facet normal 0.743145 -0.66913 -4.64535e-08
    outer loop
      vertex 40.2576 -48.9687 7
      vertex 38.4196 -51.0101 0
      vertex 43.3156 -45.5725 0
    endloop
  endfacet
  facet normal 0.866025 -0.500001 0
    outer loop
      vertex 46.1579 -40.6495 10
      vertex 43.3156 -45.5725 10
      vertex 46.1579 -40.6495 7
    endloop
  endfacet
  facet normal 0.866024 -0.500002 0
    outer loop
      vertex 46.1579 -40.6495 7
      vertex 46.9741 -39.2358 0
      vertex 46.9741 -39.2358 7
    endloop
  endfacet
  facet normal 0.866025 -0.500001 0
    outer loop
      vertex 43.3156 -45.5725 0
      vertex 46.1579 -40.6495 7
      vertex 43.3156 -45.5725 10
    endloop
  endfacet
  facet normal 0.866025 -0.500001 1.00091e-07
    outer loop
      vertex 46.1579 -40.6495 7
      vertex 43.3156 -45.5725 0
      vertex 46.9741 -39.2358 0
    endloop
  endfacet
  facet normal 0.994522 -0.104531 0
    outer loop
      vertex 49.4219 -30.5 10
      vertex 49.2352 -32.2769 10
      vertex 49.4219 -30.5 7
    endloop
  endfacet
  facet normal 0.994522 -0.10453 0
    outer loop
      vertex 49.6321 -28.5 7
      vertex 50 -25 10
      vertex 49.6321 -28.5 10
    endloop
  endfacet
  facet normal 0.994522 -0.10453 0
    outer loop
      vertex 50 -25 10
      vertex 49.6321 -28.5 7
      vertex 50 -25 0
    endloop
  endfacet
  facet normal 0.994522 -0.104531 -2.16752e-08
    outer loop
      vertex 49.2352 -32.2769 0
      vertex 49.6321 -28.5 7
      vertex 49.4219 -30.5 7
    endloop
  endfacet
  facet normal 0.994522 -0.10453 -1.51074e-07
    outer loop
      vertex 49.6321 -28.5 7
      vertex 49.2352 -32.2769 0
      vertex 50 -25 0
    endloop
  endfacet
  facet normal 0.994522 -0.104531 0
    outer loop
      vertex 49.2352 -32.2769 0
      vertex 49.4219 -30.5 7
      vertex 49.2352 -32.2769 10
    endloop
  endfacet
  facet normal 0.951057 -0.309015 0
    outer loop
      vertex 47.0987 -38.8523 7
      vertex 49.2352 -32.2769 10
      vertex 47.0987 -38.8523 10
    endloop
  endfacet
  facet normal 0.951057 -0.309015 0
    outer loop
      vertex 49.2352 -32.2769 10
      vertex 47.0987 -38.8523 7
      vertex 49.2352 -32.2769 0
    endloop
  endfacet
  facet normal 0.951056 -0.309018 0
    outer loop
      vertex 46.9741 -39.2358 0
      vertex 47.0987 -38.8523 7
      vertex 46.9741 -39.2358 7
    endloop
  endfacet
  facet normal 0.951057 -0.309015 -1.66586e-07
    outer loop
      vertex 47.0987 -38.8523 7
      vertex 46.9741 -39.2358 0
      vertex 49.2352 -32.2769 0
    endloop
  endfacet
  facet normal 0 -1 0
    outer loop
      vertex 15 -59.8083 7
      vertex 15 -59.8083 0
      vertex 16.5 -59.8083 7
    endloop
  endfacet
  facet normal 0 -1 0
    outer loop
      vertex 16.5 -59.8083 7
      vertex 18.6585 -59.8083 10
      vertex 16.5 -59.8083 10
    endloop
  endfacet
  facet normal 0 -1 0
    outer loop
      vertex 18.6585 -59.8083 0
      vertex 16.5 -59.8083 7
      vertex 15 -59.8083 0
    endloop
  endfacet
  facet normal 0 -1 0
    outer loop
      vertex 16.5 -59.8083 7
      vertex 18.6585 -59.8083 0
      vertex 18.6585 -59.8083 10
    endloop
  endfacet
  facet normal 0.207912 -0.978148 0
    outer loop
      vertex 18.6585 -59.8083 10
      vertex 23.8042 -58.7145 7
      vertex 23.8042 -58.7145 10
    endloop
  endfacet
  facet normal 0.207912 -0.978148 1.45352e-07
    outer loop
      vertex 25.8156 -58.287 0
      vertex 23.8042 -58.7145 7
      vertex 18.6585 -59.8083 0
    endloop
  endfacet
  facet normal 0.207912 -0.978148 0
    outer loop
      vertex 18.6585 -59.8083 0
      vertex 23.8042 -58.7145 7
      vertex 18.6585 -59.8083 10
    endloop
  endfacet
  facet normal 0.207893 -0.978151 0
    outer loop
      vertex 25.7712 -58.2964 7
      vertex 25.8156 -58.287 10
      vertex 25.7712 -58.2964 10
    endloop
  endfacet
  facet normal 0.207893 -0.978151 0
    outer loop
      vertex 25.7712 -58.2964 7
      vertex 25.8156 -58.287 0
      vertex 25.8156 -58.287 10
    endloop
  endfacet
  facet normal 0.207912 -0.978148 1.19715e-07
    outer loop
      vertex 23.8042 -58.7145 7
      vertex 25.8156 -58.287 0
      vertex 25.7712 -58.2964 7
    endloop
  endfacet
  facet normal 0.406736 -0.913546 0
    outer loop
      vertex 25.8156 -58.287 0
      vertex 32.5 -55.3109 10
      vertex 25.8156 -58.287 10
    endloop
  endfacet
  facet normal 0.406736 -0.913546 0
    outer loop
      vertex 32.5 -55.3109 10
      vertex 25.8156 -58.287 0
      vertex 32.5 -55.3109 0
    endloop
  endfacet
  facet normal 0.587791 -0.809012 0
    outer loop
      vertex 32.5 -55.3109 10
      vertex 32.6776 -55.1818 7
      vertex 32.6776 -55.1818 10
    endloop
  endfacet
  facet normal 0.587785 -0.809017 2.328e-07
    outer loop
      vertex 32.6776 -55.1818 7
      vertex 32.5 -55.3109 0
      vertex 34.2957 -54.0063 7
    endloop
  endfacet
  facet normal 0.587791 -0.809012 0
    outer loop
      vertex 32.5 -55.3109 0
      vertex 32.6776 -55.1818 7
      vertex 32.5 -55.3109 10
    endloop
  endfacet
  facet normal 0.587786 -0.809017 0
    outer loop
      vertex 34.2957 -54.0063 7
      vertex 38.4196 -51.0101 10
      vertex 34.2957 -54.0063 10
    endloop
  endfacet
  facet normal 0.587786 -0.809017 7.26053e-08
    outer loop
      vertex 38.4196 -51.0101 0
      vertex 34.2957 -54.0063 7
      vertex 32.5 -55.3109 0
    endloop
  endfacet
  facet normal 0.587786 -0.809017 0
    outer loop
      vertex 34.2957 -54.0063 7
      vertex 38.4196 -51.0101 0
      vertex 38.4196 -51.0101 10
    endloop
  endfacet
  facet normal 0.939793 0.341743 0
    outer loop
      vertex -16 -58 10
      vertex -20 -47 0
      vertex -20 -47 10
    endloop
  endfacet
  facet normal 0.939793 0.341743 0
    outer loop
      vertex -20 -47 0
      vertex -16 -58 10
      vertex -16 -58 0
    endloop
  endfacet
  facet normal 0.939793 -0.341743 0
    outer loop
      vertex -20 -69 10
      vertex -16 -58 0
      vertex -16 -58 10
    endloop
  endfacet
  facet normal 0.939793 -0.341743 0
    outer loop
      vertex -16 -58 0
      vertex -20 -69 10
      vertex -20 -69 0
    endloop
  endfacet
  facet normal 0.447214 -0.894427 0
    outer loop
      vertex -22 -70 0
      vertex -20 -69 10
      vertex -22 -70 10
    endloop
  endfacet
  facet normal 0.447214 -0.894427 0
    outer loop
      vertex -20 -69 10
      vertex -22 -70 0
      vertex -20 -69 0
    endloop
  endfacet
  facet normal 0 1 -0
    outer loop
      vertex -21.5 -68 0
      vertex -22 -68 10
      vertex -21.5 -68 10
    endloop
  endfacet
  facet normal 0 1 0
    outer loop
      vertex -22 -68 10
      vertex -21.5 -68 0
      vertex -22 -68 0
    endloop
  endfacet
  facet normal -0.928477 0.371391 0
    outer loop
      vertex -21.5 -68 0
      vertex -17.5 -58 10
      vertex -17.5 -58 0
    endloop
  endfacet
  facet normal -0.928477 0.371391 0
    outer loop
      vertex -17.5 -58 10
      vertex -21.5 -68 0
      vertex -21.5 -68 10
    endloop
  endfacet
  facet normal -0.939793 -0.341743 0
    outer loop
      vertex -17.5 -58 0
      vertex -21.5 -47 10
      vertex -21.5 -47 0
    endloop
  endfacet
  facet normal -0.939793 -0.341743 0
    outer loop
      vertex -21.5 -47 10
      vertex -17.5 -58 0
      vertex -17.5 -58 10
    endloop
  endfacet
  facet normal -0.847998 0.529999 0
    outer loop
      vertex -21.5 -47 0
      vertex -16.5 -39 10
      vertex -16.5 -39 0
    endloop
  endfacet
  facet normal -0.847998 0.529999 0
    outer loop
      vertex -16.5 -39 10
      vertex -21.5 -47 0
      vertex -21.5 -47 10
    endloop
  endfacet
  facet normal 0 1 -0
    outer loop
      vertex -15 -39 0
      vertex -16.5 -39 10
      vertex -15 -39 10
    endloop
  endfacet
  facet normal 0 1 0
    outer loop
      vertex -16.5 -39 10
      vertex -15 -39 0
      vertex -16.5 -39 0
    endloop
  endfacet
  facet normal 0.847998 -0.529999 0
    outer loop
      vertex -20 -47 10
      vertex -15 -39 0
      vertex -15 -39 10
    endloop
  endfacet
  facet normal 0.847998 -0.529999 0
    outer loop
      vertex -15 -39 0
      vertex -20 -47 10
      vertex -20 -47 0
    endloop
  endfacet
endsolid OpenSCAD_Model
