solid ZMR_standoff_spacer
facet normal -0.0 -0.0 1.0
  outer loop
    vertex 100.23891553764541 -1.1805175463901283 8.003815999999999
    vertex 100.2389155376454 1.1805175463901103 8.003815999999999
    vertex 100.08349745421738 1.9827889330414905e-16 8.003815999999999
  endloop
endfacet
facet normal -0.0 -0.0 1.0
  outer loop
    vertex 100.2389155376454 1.1805175463901103 8.003815999999999
    vertex 100.23891553764541 -1.1805175463901283 8.003815999999999
    vertex 100.6945783023843 2.280584772891297 8.003815999999999
  endloop
endfacet
facet normal -0.0 -0.0 1.0
  outer loop
    vertex 100.6945783023843 2.280584772891297 8.003815999999999
    vertex 100.23891553764541 -1.1805175463901283 8.003815999999999
    vertex 100.6945783023843 -2.2805847728913036 8.003815999999999
  endloop
endfacet
facet normal -0.0 -0.0 1.0
  outer loop
    vertex 100.6945783023843 2.280584772891297 8.003815999999999
    vertex 100.6945783023843 -2.2805847728913036 8.003815999999999
    vertex 101.41943308403555 -3.225233915964427 8.003815999999999
  endloop
endfacet
facet normal -0.0 -0.0 1.0
  outer loop
    vertex 100.6945783023843 2.280584772891297 8.003815999999999
    vertex 101.41943308403555 -3.225233915964427 8.003815999999999
    vertex 101.41943308403556 3.225233915964443 8.003815999999999
  endloop
endfacet
facet normal -0.0 -0.0 1.0
  outer loop
    vertex 101.41943308403556 3.225233915964443 8.003815999999999
    vertex 101.41943308403555 -3.225233915964427 8.003815999999999
    vertex 102.36408222710874 -3.9500886976157004 8.003815999999999
  endloop
endfacet
facet normal -0.0 -0.0 1.0
  outer loop
    vertex 101.41943308403556 3.225233915964443 8.003815999999999
    vertex 102.36408222710874 -3.9500886976157004 8.003815999999999
    vertex 102.36408222710877 3.9500886976157052 8.003815999999999
  endloop
endfacet
facet normal -0.0 -0.0 1.0
  outer loop
    vertex 102.36408222710877 3.9500886976157052 8.003815999999999
    vertex 102.36408222710874 -3.9500886976157004 8.003815999999999
    vertex 103.46414945360982 -4.4057514623546 8.003815999999999
  endloop
endfacet
facet normal -0.0 -0.0 1.0
  outer loop
    vertex 102.36408222710877 3.9500886976157052 8.003815999999999
    vertex 103.46414945360982 -4.4057514623546 8.003815999999999
    vertex 103.144667 9.184850993605148e-17 8.003815999999999
  endloop
endfacet
facet normal -0.0 -0.0 1.0
  outer loop
    vertex 103.144667 9.184850993605148e-17 8.003815999999999
    vertex 103.46414945360982 -4.4057514623546 8.003815999999999
    vertex 103.1957782605664 -0.38822856765378094 8.003815999999999
  endloop
endfacet
facet normal -0.0 -0.0 1.0
  outer loop
    vertex 103.1957782605664 -0.38822856765378094 8.003815999999999
    vertex 103.46414945360982 -4.4057514623546 8.003815999999999
    vertex 103.34562889432335 -0.7499999999999996 8.003815999999999
  endloop
endfacet
facet normal -0.0 -0.0 1.0
  outer loop
    vertex 103.34562889432335 -0.7499999999999996 8.003815999999999
    vertex 103.46414945360982 -4.4057514623546 8.003815999999999
    vertex 103.58400682822017 -1.0606601717798212 8.003815999999999
  endloop
endfacet
facet normal -0.0 -0.0 1.0
  outer loop
    vertex 103.58400682822017 -1.0606601717798212 8.003815999999999
    vertex 103.46414945360982 -4.4057514623546 8.003815999999999
    vertex 104.644667 -4.561169545782611 8.003815999999999
  endloop
endfacet
facet normal -0.0 -0.0 1.0
  outer loop
    vertex 103.58400682822017 -1.0606601717798212 8.003815999999999
    vertex 104.644667 -4.561169545782611 8.003815999999999
    vertex 103.89466699999998 -1.2990381056766578 8.003815999999999
  endloop
endfacet
facet normal -0.0 -0.0 1.0
  outer loop
    vertex 103.89466699999998 -1.2990381056766578 8.003815999999999
    vertex 104.644667 -4.561169545782611 8.003815999999999
    vertex 104.25643843234621 -1.4488887394336023 8.003815999999999
  endloop
endfacet
facet normal -0.0 -0.0 1.0
  outer loop
    vertex 104.25643843234621 -1.4488887394336023 8.003815999999999
    vertex 104.644667 -4.561169545782611 8.003815999999999
    vertex 104.644667 -1.5 8.003815999999999
  endloop
endfacet
facet normal -0.0 -0.0 1.0
  outer loop
    vertex 104.644667 -1.5 8.003815999999999
    vertex 104.644667 -4.561169545782611 8.003815999999999
    vertex 105.82518454639018 -4.405751462354601 8.003815999999999
  endloop
endfacet
facet normal -0.0 -0.0 1.0
  outer loop
    vertex 104.644667 -1.5 8.003815999999999
    vertex 105.82518454639018 -4.405751462354601 8.003815999999999
    vertex 105.03289556765378 -1.4488887394336025 8.003815999999999
  endloop
endfacet
facet normal -0.0 -0.0 1.0
  outer loop
    vertex 105.03289556765378 -1.4488887394336025 8.003815999999999
    vertex 105.82518454639018 -4.405751462354601 8.003815999999999
    vertex 105.39466700000001 -1.299038105676658 8.003815999999999
  endloop
endfacet
facet normal -0.0 -0.0 1.0
  outer loop
    vertex 105.39466700000001 -1.299038105676658 8.003815999999999
    vertex 105.82518454639018 -4.405751462354601 8.003815999999999
    vertex 105.70532717177983 -1.0606601717798219 8.003815999999999
  endloop
endfacet
facet normal -0.0 -0.0 1.0
  outer loop
    vertex 105.70532717177983 -1.0606601717798219 8.003815999999999
    vertex 105.82518454639018 -4.405751462354601 8.003815999999999
    vertex 105.94370510567666 -0.7500000000000007 8.003815999999999
  endloop
endfacet
facet normal -0.0 -0.0 1.0
  outer loop
    vertex 105.94370510567666 -0.7500000000000007 8.003815999999999
    vertex 105.82518454639018 -4.405751462354601 8.003815999999999
    vertex 106.92525177289126 -3.950088697615694 8.003815999999999
  endloop
endfacet
facet normal -0.0 -0.0 1.0
  outer loop
    vertex 105.94370510567666 -0.7500000000000007 8.003815999999999
    vertex 106.92525177289126 -3.950088697615694 8.003815999999999
    vertex 106.0935557394336 -0.3882285676537823 8.003815999999999
  endloop
endfacet
facet normal -0.0 -0.0 1.0
  outer loop
    vertex 106.0935557394336 -0.3882285676537823 8.003815999999999
    vertex 106.92525177289126 -3.950088697615694 8.003815999999999
    vertex 106.144667 -2.7554552980815443e-16 8.003815999999999
  endloop
endfacet
facet normal -0.0 -0.0 1.0
  outer loop
    vertex 103.144667 9.184850993605148e-17 8.003815999999999
    vertex 103.46414945360982 4.405751462354598 8.003815999999999
    vertex 102.36408222710877 3.9500886976157052 8.003815999999999
  endloop
endfacet
facet normal -0.0 -0.0 1.0
  outer loop
    vertex 103.46414945360982 4.405751462354598 8.003815999999999
    vertex 103.144667 9.184850993605148e-17 8.003815999999999
    vertex 103.1957782605664 0.38822856765378144 8.003815999999999
  endloop
endfacet
facet normal -0.0 -0.0 1.0
  outer loop
    vertex 103.46414945360982 4.405751462354598 8.003815999999999
    vertex 103.1957782605664 0.38822856765378144 8.003815999999999
    vertex 103.34562889432335 0.7500000000000001 8.003815999999999
  endloop
endfacet
facet normal -0.0 -0.0 1.0
  outer loop
    vertex 103.46414945360982 4.405751462354598 8.003815999999999
    vertex 103.34562889432335 0.7500000000000001 8.003815999999999
    vertex 103.58400682822017 1.0606601717798212 8.003815999999999
  endloop
endfacet
facet normal -0.0 -0.0 1.0
  outer loop
    vertex 103.46414945360982 4.405751462354598 8.003815999999999
    vertex 103.58400682822017 1.0606601717798212 8.003815999999999
    vertex 104.644667 4.5611695457826125 8.003815999999999
  endloop
endfacet
facet normal -0.0 -0.0 1.0
  outer loop
    vertex 104.644667 4.5611695457826125 8.003815999999999
    vertex 103.58400682822017 1.0606601717798212 8.003815999999999
    vertex 103.89466699999998 1.2990381056766578 8.003815999999999
  endloop
endfacet
facet normal -0.0 -0.0 1.0
  outer loop
    vertex 104.644667 4.5611695457826125 8.003815999999999
    vertex 103.89466699999998 1.2990381056766578 8.003815999999999
    vertex 104.25643843234621 1.4488887394336025 8.003815999999999
  endloop
endfacet
facet normal -0.0 -0.0 1.0
  outer loop
    vertex 104.644667 4.5611695457826125 8.003815999999999
    vertex 104.25643843234621 1.4488887394336025 8.003815999999999
    vertex 104.644667 1.5 8.003815999999999
  endloop
endfacet
facet normal -0.0 -0.0 1.0
  outer loop
    vertex 104.644667 4.5611695457826125 8.003815999999999
    vertex 104.644667 1.5 8.003815999999999
    vertex 105.03289556765378 1.448888739433602 8.003815999999999
  endloop
endfacet
facet normal -0.0 -0.0 1.0
  outer loop
    vertex 104.644667 4.5611695457826125 8.003815999999999
    vertex 105.03289556765378 1.448888739433602 8.003815999999999
    vertex 105.82518454639018 4.405751462354601 8.003815999999999
  endloop
endfacet
facet normal -0.0 -0.0 1.0
  outer loop
    vertex 105.82518454639018 4.405751462354601 8.003815999999999
    vertex 105.03289556765378 1.448888739433602 8.003815999999999
    vertex 105.39466700000001 1.2990381056766576 8.003815999999999
  endloop
endfacet
facet normal -0.0 -0.0 1.0
  outer loop
    vertex 105.82518454639018 4.405751462354601 8.003815999999999
    vertex 105.39466700000001 1.2990381056766576 8.003815999999999
    vertex 105.70532717177983 1.060660171779821 8.003815999999999
  endloop
endfacet
facet normal -0.0 -0.0 1.0
  outer loop
    vertex 105.82518454639018 4.405751462354601 8.003815999999999
    vertex 105.70532717177983 1.060660171779821 8.003815999999999
    vertex 105.94370510567666 0.7499999999999989 8.003815999999999
  endloop
endfacet
facet normal -0.0 -0.0 1.0
  outer loop
    vertex 105.82518454639018 4.405751462354601 8.003815999999999
    vertex 105.94370510567666 0.7499999999999989 8.003815999999999
    vertex 106.92525177289126 3.9500886976157017 8.003815999999999
  endloop
endfacet
facet normal -0.0 -0.0 1.0
  outer loop
    vertex 106.92525177289126 3.9500886976157017 8.003815999999999
    vertex 105.94370510567666 0.7499999999999989 8.003815999999999
    vertex 106.0935557394336 0.3882285676537804 8.003815999999999
  endloop
endfacet
facet normal -0.0 -0.0 1.0
  outer loop
    vertex 106.92525177289126 3.9500886976157017 8.003815999999999
    vertex 106.0935557394336 0.3882285676537804 8.003815999999999
    vertex 106.144667 -2.7554552980815443e-16 8.003815999999999
  endloop
endfacet
facet normal -0.0 -0.0 1.0
  outer loop
    vertex 106.92525177289126 3.9500886976157017 8.003815999999999
    vertex 106.144667 -2.7554552980815443e-16 8.003815999999999
    vertex 106.92525177289126 -3.950088697615694 8.003815999999999
  endloop
endfacet
facet normal -0.0 -0.0 1.0
  outer loop
    vertex 106.92525177289126 3.9500886976157017 8.003815999999999
    vertex 106.92525177289126 -3.950088697615694 8.003815999999999
    vertex 107.86990091596445 -3.2252339159644094 8.003815999999999
  endloop
endfacet
facet normal -0.0 -0.0 1.0
  outer loop
    vertex 106.92525177289126 3.9500886976157017 8.003815999999999
    vertex 107.86990091596445 -3.2252339159644094 8.003815999999999
    vertex 107.86990091596448 3.2252339159644228 8.003815999999999
  endloop
endfacet
facet normal -0.0 -0.0 1.0
  outer loop
    vertex 107.86990091596448 3.2252339159644228 8.003815999999999
    vertex 107.86990091596445 -3.2252339159644094 8.003815999999999
    vertex 108.5947556976157 -2.2805847728912902 8.003815999999999
  endloop
endfacet
facet normal -0.0 -0.0 1.0
  outer loop
    vertex 107.86990091596448 3.2252339159644228 8.003815999999999
    vertex 108.5947556976157 -2.2805847728912902 8.003815999999999
    vertex 108.5947556976157 2.2805847728912916 8.003815999999999
  endloop
endfacet
facet normal -0.0 -0.0 1.0
  outer loop
    vertex 108.5947556976157 2.2805847728912916 8.003815999999999
    vertex 108.5947556976157 -2.2805847728912902 8.003815999999999
    vertex 109.05041846235459 -1.1805175463901982 8.003815999999999
  endloop
endfacet
facet normal -0.0 -0.0 1.0
  outer loop
    vertex 108.5947556976157 2.2805847728912916 8.003815999999999
    vertex 109.05041846235459 -1.1805175463901982 8.003815999999999
    vertex 108.82258707998513 1.730551159640772 8.003815999999999
  endloop
endfacet
facet normal -0.0 -0.0 1.0
  outer loop
    vertex 108.82258707998513 1.730551159640772 8.003815999999999
    vertex 109.05041846235459 -1.1805175463901982 8.003815999999999
    vertex 109.05041846235463 1.180517546390154 8.003815999999999
  endloop
endfacet
facet normal -0.0 -0.0 1.0
  outer loop
    vertex 109.05041846235463 1.180517546390154 8.003815999999999
    vertex 109.05041846235459 -1.1805175463901982 8.003815999999999
    vertex 109.20583654578262 5.166266719980328e-14 8.003815999999999
  endloop
endfacet
facet normal 0.0 0.0 -1.0
  outer loop
    vertex 100.2389155376454 1.1805175463901103 0.0038160000000000745
    vertex 100.23891553764541 -1.1805175463901283 0.0038160000000000745
    vertex 100.08349745421738 1.9827889330414905e-16 0.0038160000000000745
  endloop
endfacet
facet normal 0.0 0.0 -1.0
  outer loop
    vertex 100.23891553764541 -1.1805175463901283 0.0038160000000000745
    vertex 100.2389155376454 1.1805175463901103 0.0038160000000000745
    vertex 100.6945783023843 2.280584772891297 0.0038160000000000745
  endloop
endfacet
facet normal 0.0 0.0 -1.0
  outer loop
    vertex 100.23891553764541 -1.1805175463901283 0.0038160000000000745
    vertex 100.6945783023843 2.280584772891297 0.0038160000000000745
    vertex 100.6945783023843 -2.2805847728913036 0.0038160000000000745
  endloop
endfacet
facet normal 0.0 0.0 -1.0
  outer loop
    vertex 100.6945783023843 -2.2805847728913036 0.0038160000000000745
    vertex 100.6945783023843 2.280584772891297 0.0038160000000000745
    vertex 101.41943308403556 3.225233915964443 0.0038160000000000745
  endloop
endfacet
facet normal 0.0 0.0 -1.0
  outer loop
    vertex 100.6945783023843 -2.2805847728913036 0.0038160000000000745
    vertex 101.41943308403556 3.225233915964443 0.0038160000000000745
    vertex 101.09212641479753 -3.662651779090531e-15 0.0038160000000000745
  endloop
endfacet
facet normal 0.0 0.0 -1.0
  outer loop
    vertex 101.09212641479753 -3.662651779090531e-15 0.0038160000000000745
    vertex 101.41943308403556 3.225233915964443 0.0038160000000000745
    vertex 101.21317629981287 0.9194651619500138 0.0038160000000000745
  endloop
endfacet
facet normal 0.0 0.0 -1.0
  outer loop
    vertex 101.21317629981287 0.9194651619500138 0.0038160000000000745
    vertex 101.41943308403556 3.225233915964443 0.0038160000000000745
    vertex 101.56807660523943 1.7762702926012233 0.0038160000000000745
  endloop
endfacet
facet normal 0.0 0.0 -1.0
  outer loop
    vertex 101.56807660523943 1.7762702926012233 0.0038160000000000745
    vertex 101.41943308403556 3.225233915964443 0.0038160000000000745
    vertex 102.36408222710877 3.9500886976157052 0.0038160000000000745
  endloop
endfacet
facet normal 0.0 0.0 -1.0
  outer loop
    vertex 101.56807660523943 1.7762702926012233 0.0038160000000000745
    vertex 102.36408222710877 3.9500886976157052 0.0038160000000000745
    vertex 102.13264146176293 2.5120255382370784 0.0038160000000000745
  endloop
endfacet
facet normal 0.0 0.0 -1.0
  outer loop
    vertex 102.13264146176293 2.5120255382370784 0.0038160000000000745
    vertex 102.36408222710877 3.9500886976157052 0.0038160000000000745
    vertex 102.86839670739882 3.076590394760589 0.0038160000000000745
  endloop
endfacet
facet normal 0.0 0.0 -1.0
  outer loop
    vertex 102.86839670739882 3.076590394760589 0.0038160000000000745
    vertex 102.36408222710877 3.9500886976157052 0.0038160000000000745
    vertex 103.46414945360982 4.405751462354598 0.0038160000000000745
  endloop
endfacet
facet normal 0.0 0.0 -1.0
  outer loop
    vertex 102.86839670739882 3.076590394760589 0.0038160000000000745
    vertex 103.46414945360982 4.405751462354598 0.0038160000000000745
    vertex 103.72520183804994 3.4314907001871333 0.0038160000000000745
  endloop
endfacet
facet normal 0.0 0.0 -1.0
  outer loop
    vertex 103.72520183804994 3.4314907001871333 0.0038160000000000745
    vertex 103.46414945360982 4.405751462354598 0.0038160000000000745
    vertex 104.644667 4.5611695457826125 0.0038160000000000745
  endloop
endfacet
facet normal 0.0 0.0 -1.0
  outer loop
    vertex 103.72520183804994 3.4314907001871333 0.0038160000000000745
    vertex 104.644667 4.5611695457826125 0.0038160000000000745
    vertex 104.644667 3.5525405852024594 0.0038160000000000745
  endloop
endfacet
facet normal 0.0 0.0 -1.0
  outer loop
    vertex 104.644667 3.5525405852024594 0.0038160000000000745
    vertex 104.644667 4.5611695457826125 0.0038160000000000745
    vertex 105.82518454639018 4.405751462354601 0.0038160000000000745
  endloop
endfacet
facet normal 0.0 0.0 -1.0
  outer loop
    vertex 104.644667 3.5525405852024594 0.0038160000000000745
    vertex 105.82518454639018 4.405751462354601 0.0038160000000000745
    vertex 105.56413216195006 3.4314907001871333 0.0038160000000000745
  endloop
endfacet
facet normal 0.0 0.0 -1.0
  outer loop
    vertex 105.56413216195006 3.4314907001871333 0.0038160000000000745
    vertex 105.82518454639018 4.405751462354601 0.0038160000000000745
    vertex 106.42093729260118 3.0765903947605886 0.0038160000000000745
  endloop
endfacet
facet normal 0.0 0.0 -1.0
  outer loop
    vertex 106.42093729260118 3.0765903947605886 0.0038160000000000745
    vertex 105.82518454639018 4.405751462354601 0.0038160000000000745
    vertex 106.92525177289126 3.9500886976157017 0.0038160000000000745
  endloop
endfacet
facet normal 0.0 0.0 -1.0
  outer loop
    vertex 106.42093729260118 3.0765903947605886 0.0038160000000000745
    vertex 106.92525177289126 3.9500886976157017 0.0038160000000000745
    vertex 107.1566925382371 2.5120255382370584 0.0038160000000000745
  endloop
endfacet
facet normal 0.0 0.0 -1.0
  outer loop
    vertex 107.1566925382371 2.5120255382370584 0.0038160000000000745
    vertex 106.92525177289126 3.9500886976157017 0.0038160000000000745
    vertex 107.86990091596448 3.2252339159644228 0.0038160000000000745
  endloop
endfacet
facet normal 0.0 0.0 -1.0
  outer loop
    vertex 107.1566925382371 2.5120255382370584 0.0038160000000000745
    vertex 107.86990091596448 3.2252339159644228 0.0038160000000000745
    vertex 107.72125739476057 1.7762702926012268 0.0038160000000000745
  endloop
endfacet
facet normal 0.0 0.0 -1.0
  outer loop
    vertex 107.72125739476057 1.7762702926012268 0.0038160000000000745
    vertex 107.86990091596448 3.2252339159644228 0.0038160000000000745
    vertex 107.89870754747385 1.3478677272756403 0.0038160000000000745
  endloop
endfacet
facet normal 0.0 0.0 -1.0
  outer loop
    vertex 107.89870754747385 1.3478677272756403 0.0038160000000000745
    vertex 107.86990091596448 3.2252339159644228 0.0038160000000000745
    vertex 108.5947556976157 2.2805847728912916 0.0038160000000000745
  endloop
endfacet
facet normal 0.0 0.0 -1.0
  outer loop
    vertex 107.89870754747385 1.3478677272756403 0.0038160000000000745
    vertex 108.5947556976157 2.2805847728912916 0.0038160000000000745
    vertex 108.07615770018715 0.9194651619500318 0.0038160000000000745
  endloop
endfacet
facet normal 0.0 0.0 -1.0
  outer loop
    vertex 108.07615770018715 0.9194651619500318 0.0038160000000000745
    vertex 108.5947556976157 2.2805847728912916 0.0038160000000000745
    vertex 108.19720758520246 -9.390708696765948e-16 0.0038160000000000745
  endloop
endfacet
facet normal 0.0 0.0 -1.0
  outer loop
    vertex 101.09212641479753 -3.662651779090531e-15 0.0038160000000000745
    vertex 101.41943308403555 -3.225233915964427 0.0038160000000000745
    vertex 100.6945783023843 -2.2805847728913036 0.0038160000000000745
  endloop
endfacet
facet normal 0.0 0.0 -1.0
  outer loop
    vertex 101.41943308403555 -3.225233915964427 0.0038160000000000745
    vertex 101.09212641479753 -3.662651779090531e-15 0.0038160000000000745
    vertex 101.21317629981287 -0.9194651619500219 0.0038160000000000745
  endloop
endfacet
facet normal 0.0 0.0 -1.0
  outer loop
    vertex 101.41943308403555 -3.225233915964427 0.0038160000000000745
    vertex 101.21317629981287 -0.9194651619500219 0.0038160000000000745
    vertex 101.56807660523944 -1.7762702926012528 0.0038160000000000745
  endloop
endfacet
facet normal 0.0 0.0 -1.0
  outer loop
    vertex 101.41943308403555 -3.225233915964427 0.0038160000000000745
    vertex 101.56807660523944 -1.7762702926012528 0.0038160000000000745
    vertex 102.36408222710874 -3.9500886976157004 0.0038160000000000745
  endloop
endfacet
facet normal 0.0 0.0 -1.0
  outer loop
    vertex 102.36408222710874 -3.9500886976157004 0.0038160000000000745
    vertex 101.56807660523944 -1.7762702926012528 0.0038160000000000745
    vertex 102.1326414617629 -2.512025538237052 0.0038160000000000745
  endloop
endfacet
facet normal 0.0 0.0 -1.0
  outer loop
    vertex 102.36408222710874 -3.9500886976157004 0.0038160000000000745
    vertex 102.1326414617629 -2.512025538237052 0.0038160000000000745
    vertex 102.86839670739882 -3.0765903947605877 0.0038160000000000745
  endloop
endfacet
facet normal 0.0 0.0 -1.0
  outer loop
    vertex 102.36408222710874 -3.9500886976157004 0.0038160000000000745
    vertex 102.86839670739882 -3.0765903947605877 0.0038160000000000745
    vertex 103.46414945360982 -4.4057514623546 0.0038160000000000745
  endloop
endfacet
facet normal 0.0 0.0 -1.0
  outer loop
    vertex 103.46414945360982 -4.4057514623546 0.0038160000000000745
    vertex 102.86839670739882 -3.0765903947605877 0.0038160000000000745
    vertex 103.72520183804994 -3.4314907001871324 0.0038160000000000745
  endloop
endfacet
facet normal 0.0 0.0 -1.0
  outer loop
    vertex 103.46414945360982 -4.4057514623546 0.0038160000000000745
    vertex 103.72520183804994 -3.4314907001871324 0.0038160000000000745
    vertex 104.644667 -4.561169545782611 0.0038160000000000745
  endloop
endfacet
facet normal 0.0 0.0 -1.0
  outer loop
    vertex 104.644667 -4.561169545782611 0.0038160000000000745
    vertex 103.72520183804994 -3.4314907001871324 0.0038160000000000745
    vertex 104.644667 -3.5525405852024585 0.0038160000000000745
  endloop
endfacet
facet normal 0.0 0.0 -1.0
  outer loop
    vertex 104.644667 -4.561169545782611 0.0038160000000000745
    vertex 104.644667 -3.5525405852024585 0.0038160000000000745
    vertex 105.56413216195008 -3.4314907001871333 0.0038160000000000745
  endloop
endfacet
facet normal 0.0 0.0 -1.0
  outer loop
    vertex 104.644667 -4.561169545782611 0.0038160000000000745
    vertex 105.56413216195008 -3.4314907001871333 0.0038160000000000745
    vertex 105.82518454639018 -4.405751462354601 0.0038160000000000745
  endloop
endfacet
facet normal 0.0 0.0 -1.0
  outer loop
    vertex 105.82518454639018 -4.405751462354601 0.0038160000000000745
    vertex 105.56413216195008 -3.4314907001871333 0.0038160000000000745
    vertex 106.42093729260118 -3.0765903947605873 0.0038160000000000745
  endloop
endfacet
facet normal 0.0 0.0 -1.0
  outer loop
    vertex 105.82518454639018 -4.405751462354601 0.0038160000000000745
    vertex 106.42093729260118 -3.0765903947605873 0.0038160000000000745
    vertex 106.92525177289126 -3.950088697615694 0.0038160000000000745
  endloop
endfacet
facet normal 0.0 0.0 -1.0
  outer loop
    vertex 106.92525177289126 -3.950088697615694 0.0038160000000000745
    vertex 106.42093729260118 -3.0765903947605873 0.0038160000000000745
    vertex 107.15669253823708 -2.5120255382370664 0.0038160000000000745
  endloop
endfacet
facet normal 0.0 0.0 -1.0
  outer loop
    vertex 106.92525177289126 -3.950088697615694 0.0038160000000000745
    vertex 107.15669253823708 -2.5120255382370664 0.0038160000000000745
    vertex 107.86990091596445 -3.2252339159644094 0.0038160000000000745
  endloop
endfacet
facet normal 0.0 0.0 -1.0
  outer loop
    vertex 107.86990091596445 -3.2252339159644094 0.0038160000000000745
    vertex 107.15669253823708 -2.5120255382370664 0.0038160000000000745
    vertex 107.72125739476057 -1.7762702926012177 0.0038160000000000745
  endloop
endfacet
facet normal 0.0 0.0 -1.0
  outer loop
    vertex 107.86990091596445 -3.2252339159644094 0.0038160000000000745
    vertex 107.72125739476057 -1.7762702926012177 0.0038160000000000745
    vertex 108.07615770018714 -0.9194651619500258 0.0038160000000000745
  endloop
endfacet
facet normal 0.0 0.0 -1.0
  outer loop
    vertex 107.86990091596445 -3.2252339159644094 0.0038160000000000745
    vertex 108.07615770018714 -0.9194651619500258 0.0038160000000000745
    vertex 108.5947556976157 -2.2805847728912902 0.0038160000000000745
  endloop
endfacet
facet normal 0.0 0.0 -1.0
  outer loop
    vertex 108.5947556976157 -2.2805847728912902 0.0038160000000000745
    vertex 108.07615770018714 -0.9194651619500258 0.0038160000000000745
    vertex 108.19720758520246 -9.390708696765948e-16 0.0038160000000000745
  endloop
endfacet
facet normal 0.0 0.0 -1.0
  outer loop
    vertex 108.5947556976157 -2.2805847728912902 0.0038160000000000745
    vertex 108.19720758520246 -9.390708696765948e-16 0.0038160000000000745
    vertex 108.5947556976157 2.2805847728912916 0.0038160000000000745
  endloop
endfacet
facet normal 0.0 0.0 -1.0
  outer loop
    vertex 108.5947556976157 -2.2805847728912902 0.0038160000000000745
    vertex 108.5947556976157 2.2805847728912916 0.0038160000000000745
    vertex 108.82258707998513 1.730551159640772 0.0038160000000000745
  endloop
endfacet
facet normal 0.0 0.0 -1.0
  outer loop
    vertex 108.5947556976157 -2.2805847728912902 0.0038160000000000745
    vertex 108.82258707998513 1.730551159640772 0.0038160000000000745
    vertex 109.05041846235459 -1.1805175463901982 0.0038160000000000745
  endloop
endfacet
facet normal 0.0 0.0 -1.0
  outer loop
    vertex 109.05041846235459 -1.1805175463901982 0.0038160000000000745
    vertex 108.82258707998513 1.730551159640772 0.0038160000000000745
    vertex 109.05041846235463 1.180517546390154 0.0038160000000000745
  endloop
endfacet
facet normal 0.0 0.0 -1.0
  outer loop
    vertex 109.05041846235459 -1.1805175463901982 0.0038160000000000745
    vertex 109.05041846235463 1.180517546390154 0.0038160000000000745
    vertex 109.20583654578262 5.166266719980328e-14 0.0038160000000000745
  endloop
endfacet
facet normal 0.5000000000000093 -0.8660254037844332 0.0
  outer loop
    vertex 106.92525177289126 -3.950088697615694 8.003815999999999
    vertex 105.82518454639018 -4.405751462354601 0.0038160000000000745
    vertex 106.92525177289126 -3.950088697615694 0.0038160000000000745
  endloop
endfacet
facet normal 0.2588190451025213 -0.9659258262890681 0.0
  outer loop
    vertex 105.82518454639018 -4.405751462354601 0.0038160000000000745
    vertex 106.92525177289126 -3.950088697615694 8.003815999999999
    vertex 105.82518454639018 -4.405751462354601 8.003815999999999
  endloop
endfacet
facet normal 0.2588190451025213 -0.9659258262890681 0.0
  outer loop
    vertex 105.82518454639018 -4.405751462354601 8.003815999999999
    vertex 104.644667 -4.561169545782611 0.0038160000000000745
    vertex 105.82518454639018 -4.405751462354601 0.0038160000000000745
  endloop
endfacet
facet normal -5.881332531126956e-16 -1.0 0.0
  outer loop
    vertex 104.644667 -4.561169545782611 0.0038160000000000745
    vertex 105.82518454639018 -4.405751462354601 8.003815999999999
    vertex 104.644667 -4.561169545782611 8.003815999999999
  endloop
endfacet
facet normal -5.881332531126956e-16 -1.0 0.0
  outer loop
    vertex 104.644667 -4.561169545782611 8.003815999999999
    vertex 103.46414945360982 -4.4057514623546 0.0038160000000000745
    vertex 104.644667 -4.561169545782611 0.0038160000000000745
  endloop
endfacet
facet normal -0.258819045102519 -0.9659258262890688 0.0
  outer loop
    vertex 103.46414945360982 -4.4057514623546 0.0038160000000000745
    vertex 104.644667 -4.561169545782611 8.003815999999999
    vertex 103.46414945360982 -4.4057514623546 8.003815999999999
  endloop
endfacet
facet normal -0.258819045102519 -0.9659258262890688 0.0
  outer loop
    vertex 103.46414945360982 -4.4057514623546 8.003815999999999
    vertex 102.36408222710874 -3.9500886976157004 0.0038160000000000745
    vertex 103.46414945360982 -4.4057514623546 0.0038160000000000745
  endloop
endfacet
facet normal -0.5000000000000034 -0.8660254037844366 0.0
  outer loop
    vertex 102.36408222710874 -3.9500886976157004 0.0038160000000000745
    vertex 103.46414945360982 -4.4057514623546 8.003815999999999
    vertex 102.36408222710874 -3.9500886976157004 8.003815999999999
  endloop
endfacet
facet normal -0.5000000000000034 -0.8660254037844366 0.0
  outer loop
    vertex 102.36408222710874 -3.9500886976157004 8.003815999999999
    vertex 101.41943308403555 -3.225233915964427 0.0038160000000000745
    vertex 102.36408222710874 -3.9500886976157004 0.0038160000000000745
  endloop
endfacet
facet normal -0.7071067811865434 -0.7071067811865518 0.0
  outer loop
    vertex 101.41943308403555 -3.225233915964427 0.0038160000000000745
    vertex 102.36408222710874 -3.9500886976157004 8.003815999999999
    vertex 101.41943308403555 -3.225233915964427 8.003815999999999
  endloop
endfacet
facet normal -0.8660254037844419 -0.49999999999999417 0.0
  outer loop
    vertex 100.6945783023843 -2.2805847728913036 8.003815999999999
    vertex 101.41943308403555 -3.225233915964427 0.0038160000000000745
    vertex 101.41943308403555 -3.225233915964427 8.003815999999999
  endloop
endfacet
facet normal -0.7071067811865434 -0.7071067811865518 0.0
  outer loop
    vertex 101.41943308403555 -3.225233915964427 0.0038160000000000745
    vertex 100.6945783023843 -2.2805847728913036 8.003815999999999
    vertex 100.6945783023843 -2.2805847728913036 0.0038160000000000745
  endloop
endfacet
facet normal -0.9659258262890694 -0.25881904510251624 0.0
  outer loop
    vertex 100.23891553764541 -1.1805175463901283 8.003815999999999
    vertex 100.6945783023843 -2.2805847728913036 0.0038160000000000745
    vertex 100.6945783023843 -2.2805847728913036 8.003815999999999
  endloop
endfacet
facet normal -0.8660254037844419 -0.49999999999999417 0.0
  outer loop
    vertex 100.6945783023843 -2.2805847728913036 0.0038160000000000745
    vertex 100.23891553764541 -1.1805175463901283 8.003815999999999
    vertex 100.23891553764541 -1.1805175463901283 0.0038160000000000745
  endloop
endfacet
facet normal -1.0 -3.707021716589123e-15 0.0
  outer loop
    vertex 100.08349745421738 1.9827889330414905e-16 8.003815999999999
    vertex 100.23891553764541 -1.1805175463901283 0.0038160000000000745
    vertex 100.23891553764541 -1.1805175463901283 8.003815999999999
  endloop
endfacet
facet normal -0.9659258262890694 -0.25881904510251624 0.0
  outer loop
    vertex 100.23891553764541 -1.1805175463901283 0.0038160000000000745
    vertex 100.08349745421738 1.9827889330414905e-16 8.003815999999999
    vertex 100.08349745421738 1.9827889330414905e-16 0.0038160000000000745
  endloop
endfacet
facet normal -0.9659258262890698 0.2588190451025152 0.0
  outer loop
    vertex 100.2389155376454 1.1805175463901103 8.003815999999999
    vertex 100.08349745421738 1.9827889330414905e-16 0.0038160000000000745
    vertex 100.08349745421738 1.9827889330414905e-16 8.003815999999999
  endloop
endfacet
facet normal -1.0 -3.707021716589123e-15 0.0
  outer loop
    vertex 100.08349745421738 1.9827889330414905e-16 0.0038160000000000745
    vertex 100.2389155376454 1.1805175463901103 8.003815999999999
    vertex 100.2389155376454 1.1805175463901103 0.0038160000000000745
  endloop
endfacet
facet normal -0.8660254037844416 0.49999999999999467 0.0
  outer loop
    vertex 100.6945783023843 2.280584772891297 8.003815999999999
    vertex 100.2389155376454 1.1805175463901103 0.0038160000000000745
    vertex 100.2389155376454 1.1805175463901103 8.003815999999999
  endloop
endfacet
facet normal -0.9659258262890698 0.2588190451025152 0.0
  outer loop
    vertex 100.2389155376454 1.1805175463901103 0.0038160000000000745
    vertex 100.6945783023843 2.280584772891297 8.003815999999999
    vertex 100.6945783023843 2.280584772891297 0.0038160000000000745
  endloop
endfacet
facet normal -0.7071067811865401 0.7071067811865549 0.0
  outer loop
    vertex 101.41943308403556 3.225233915964443 8.003815999999999
    vertex 100.6945783023843 2.280584772891297 0.0038160000000000745
    vertex 100.6945783023843 2.280584772891297 8.003815999999999
  endloop
endfacet
facet normal -0.8660254037844416 0.49999999999999467 0.0
  outer loop
    vertex 100.6945783023843 2.280584772891297 0.0038160000000000745
    vertex 101.41943308403556 3.225233915964443 8.003815999999999
    vertex 101.41943308403556 3.225233915964443 0.0038160000000000745
  endloop
endfacet
facet normal -0.7071067811865401 0.7071067811865549 0.0
  outer loop
    vertex 101.41943308403556 3.225233915964443 8.003815999999999
    vertex 102.36408222710877 3.9500886976157052 0.0038160000000000745
    vertex 101.41943308403556 3.225233915964443 0.0038160000000000745
  endloop
endfacet
facet normal -0.49999999999999845 0.8660254037844395 0.0
  outer loop
    vertex 102.36408222710877 3.9500886976157052 0.0038160000000000745
    vertex 101.41943308403556 3.225233915964443 8.003815999999999
    vertex 102.36408222710877 3.9500886976157052 8.003815999999999
  endloop
endfacet
facet normal -0.49999999999999845 0.8660254037844395 0.0
  outer loop
    vertex 102.36408222710877 3.9500886976157052 8.003815999999999
    vertex 103.46414945360982 4.405751462354598 0.0038160000000000745
    vertex 102.36408222710877 3.9500886976157052 0.0038160000000000745
  endloop
endfacet
facet normal -0.2588190451025213 0.9659258262890682 0.0
  outer loop
    vertex 103.46414945360982 4.405751462354598 0.0038160000000000745
    vertex 102.36408222710877 3.9500886976157052 8.003815999999999
    vertex 103.46414945360982 4.405751462354598 8.003815999999999
  endloop
endfacet
facet normal -0.2588190451025213 0.9659258262890682 0.0
  outer loop
    vertex 103.46414945360982 4.405751462354598 8.003815999999999
    vertex 104.644667 4.5611695457826125 0.0038160000000000745
    vertex 103.46414945360982 4.405751462354598 0.0038160000000000745
  endloop
endfacet
facet normal -1.1762665062253916e-15 1.0 0.0
  outer loop
    vertex 104.644667 4.5611695457826125 0.0038160000000000745
    vertex 103.46414945360982 4.405751462354598 8.003815999999999
    vertex 104.644667 4.5611695457826125 8.003815999999999
  endloop
endfacet
facet normal -1.1762665062253916e-15 1.0 0.0
  outer loop
    vertex 104.644667 4.5611695457826125 8.003815999999999
    vertex 105.82518454639018 4.405751462354601 0.0038160000000000745
    vertex 104.644667 4.5611695457826125 0.0038160000000000745
  endloop
endfacet
facet normal 0.2588190451025191 0.9659258262890688 0.0
  outer loop
    vertex 105.82518454639018 4.405751462354601 0.0038160000000000745
    vertex 104.644667 4.5611695457826125 8.003815999999999
    vertex 105.82518454639018 4.405751462354601 8.003815999999999
  endloop
endfacet
facet normal 0.2588190451025191 0.9659258262890688 0.0
  outer loop
    vertex 105.82518454639018 4.405751462354601 8.003815999999999
    vertex 106.92525177289126 3.9500886976157017 0.0038160000000000745
    vertex 105.82518454639018 4.405751462354601 0.0038160000000000745
  endloop
endfacet
facet normal 0.49999999999999983 0.8660254037844387 0.0
  outer loop
    vertex 106.92525177289126 3.9500886976157017 0.0038160000000000745
    vertex 105.82518454639018 4.405751462354601 8.003815999999999
    vertex 106.92525177289126 3.9500886976157017 8.003815999999999
  endloop
endfacet
facet normal 0.49999999999999983 0.8660254037844387 0.0
  outer loop
    vertex 106.92525177289126 3.9500886976157017 8.003815999999999
    vertex 107.86990091596448 3.2252339159644228 0.0038160000000000745
    vertex 106.92525177289126 3.9500886976157017 0.0038160000000000745
  endloop
endfacet
facet normal 0.7071067811865447 0.7071067811865506 0.0
  outer loop
    vertex 107.86990091596448 3.2252339159644228 0.0038160000000000745
    vertex 106.92525177289126 3.9500886976157017 8.003815999999999
    vertex 107.86990091596448 3.2252339159644228 8.003815999999999
  endloop
endfacet
facet normal 0.7071067811865447 0.7071067811865506 0.0
  outer loop
    vertex 107.86990091596448 3.2252339159644228 0.0038160000000000745
    vertex 108.5947556976157 2.2805847728912916 8.003815999999999
    vertex 108.5947556976157 2.2805847728912916 0.0038160000000000745
  endloop
endfacet
facet normal 0.8660254037844352 0.5000000000000059 5.624806197467171e-19
  outer loop
    vertex 108.5947556976157 2.2805847728912916 8.003815999999999
    vertex 107.86990091596448 3.2252339159644228 0.0038160000000000745
    vertex 107.86990091596448 3.2252339159644228 8.003815999999999
  endloop
endfacet
facet normal 0.9238795325112857 0.3826834323650924 1.115337040140477e-18
  outer loop
    vertex 108.82258707998513 1.730551159640772 0.0038160000000000745
    vertex 109.05041846235463 1.180517546390154 8.003815999999999
    vertex 109.05041846235463 1.180517546390154 0.0038160000000000745
  endloop
endfacet
facet normal 0.9659258262890703 0.2588190451025136 5.624806197467176e-19
  outer loop
    vertex 109.05041846235463 1.180517546390154 8.003815999999999
    vertex 108.82258707998513 1.730551159640772 0.0038160000000000745
    vertex 108.82258707998513 1.730551159640772 8.003815999999999
  endloop
endfacet
facet normal 0.9238795325112857 0.3826834323650924 1.115337040140477e-18
  outer loop
    vertex 108.82258707998513 1.730551159640772 8.003815999999999
    vertex 108.82258707998513 1.730551159640772 0.0038160000000000745
    vertex 108.5947556976157 2.2805847728912916 0.0038160000000000745
  endloop
endfacet
facet normal 0.9238795325112857 0.3826834323650924 1.115337040140477e-18
  outer loop
    vertex 108.82258707998513 1.730551159640772 8.003815999999999
    vertex 108.5947556976157 2.2805847728912916 0.0038160000000000745
    vertex 108.5947556976157 2.2805847728912916 8.003815999999999
  endloop
endfacet
facet normal 0.9659258262890703 0.2588190451025136 5.624806197467176e-19
  outer loop
    vertex 109.05041846235463 1.180517546390154 0.0038160000000000745
    vertex 109.20583654578262 5.166266719980328e-14 8.003815999999999
    vertex 109.20583654578262 5.166266719980328e-14 0.0038160000000000745
  endloop
endfacet
facet normal 1.0 -1.0711154094567569e-14 0.0
  outer loop
    vertex 109.20583654578262 5.166266719980328e-14 8.003815999999999
    vertex 109.05041846235463 1.180517546390154 0.0038160000000000745
    vertex 109.05041846235463 1.180517546390154 8.003815999999999
  endloop
endfacet
facet normal 1.0 -1.0711154094567569e-14 0.0
  outer loop
    vertex 109.20583654578262 5.166266719980328e-14 0.0038160000000000745
    vertex 109.05041846235459 -1.1805175463901982 8.003815999999999
    vertex 109.05041846235459 -1.1805175463901982 0.0038160000000000745
  endloop
endfacet
facet normal 0.9659258262890701 -0.258819045102514 0.0
  outer loop
    vertex 109.05041846235459 -1.1805175463901982 8.003815999999999
    vertex 109.20583654578262 5.166266719980328e-14 0.0038160000000000745
    vertex 109.20583654578262 5.166266719980328e-14 8.003815999999999
  endloop
endfacet
facet normal 0.9659258262890701 -0.258819045102514 0.0
  outer loop
    vertex 109.05041846235459 -1.1805175463901982 0.0038160000000000745
    vertex 108.5947556976157 -2.2805847728912902 8.003815999999999
    vertex 108.5947556976157 -2.2805847728912902 0.0038160000000000745
  endloop
endfacet
facet normal 0.8660254037844349 -0.5000000000000063 0.0
  outer loop
    vertex 108.5947556976157 -2.2805847728912902 8.003815999999999
    vertex 109.05041846235459 -1.1805175463901982 0.0038160000000000745
    vertex 109.05041846235459 -1.1805175463901982 8.003815999999999
  endloop
endfacet
facet normal 0.8660254037844349 -0.5000000000000063 0.0
  outer loop
    vertex 108.5947556976157 -2.2805847728912902 0.0038160000000000745
    vertex 107.86990091596445 -3.2252339159644094 8.003815999999999
    vertex 107.86990091596445 -3.2252339159644094 0.0038160000000000745
  endloop
endfacet
facet normal 0.7071067811865426 -0.7071067811865523 0.0
  outer loop
    vertex 107.86990091596445 -3.2252339159644094 8.003815999999999
    vertex 108.5947556976157 -2.2805847728912902 0.0038160000000000745
    vertex 108.5947556976157 -2.2805847728912902 8.003815999999999
  endloop
endfacet
facet normal 0.7071067811865426 -0.7071067811865523 0.0
  outer loop
    vertex 107.86990091596445 -3.2252339159644094 8.003815999999999
    vertex 106.92525177289126 -3.950088697615694 0.0038160000000000745
    vertex 107.86990091596445 -3.2252339159644094 0.0038160000000000745
  endloop
endfacet
facet normal 0.5000000000000093 -0.8660254037844332 0.0
  outer loop
    vertex 106.92525177289126 -3.950088697615694 0.0038160000000000745
    vertex 107.86990091596445 -3.2252339159644094 8.003815999999999
    vertex 106.92525177289126 -3.950088697615694 8.003815999999999
  endloop
endfacet
facet normal -0.9659258262890686 0.25881904510251946 -8.215604592911124e-19
  outer loop
    vertex 108.07615770018714 -0.9194651619500258 7.003816
    vertex 107.72125739476057 -1.7762702926012177 0.0038160000000000745
    vertex 107.72125739476057 -1.7762702926012177 7.003816
  endloop
endfacet
facet normal -0.8660254037844369 0.500000000000003 2.0987168242654176e-19
  outer loop
    vertex 107.72125739476057 -1.7762702926012177 0.0038160000000000745
    vertex 108.07615770018714 -0.9194651619500258 7.003816
    vertex 108.07615770018714 -0.9194651619500258 0.0038160000000000745
  endloop
endfacet
facet normal -1.0 1.262704272213166e-14 -2.4233894468900283e-19
  outer loop
    vertex 108.19720758520246 -9.390708696765948e-16 7.003816
    vertex 108.07615770018714 -0.9194651619500258 0.0038160000000000745
    vertex 108.07615770018714 -0.9194651619500258 7.003816
  endloop
endfacet
facet normal -0.9659258262890686 0.25881904510251946 -8.215604592911124e-19
  outer loop
    vertex 108.07615770018714 -0.9194651619500258 0.0038160000000000745
    vertex 108.19720758520246 -9.390708696765948e-16 7.003816
    vertex 108.19720758520246 -9.390708696765948e-16 0.0038160000000000745
  endloop
endfacet
facet normal -0.9659258262890692 -0.25881904510251763 9.58639161434055e-19
  outer loop
    vertex 108.07615770018715 0.9194651619500318 7.003816
    vertex 108.19720758520246 -9.390708696765948e-16 0.0038160000000000745
    vertex 108.19720758520246 -9.390708696765948e-16 7.003816
  endloop
endfacet
facet normal -1.0 1.262704272213166e-14 -2.4233894468900283e-19
  outer loop
    vertex 108.19720758520246 -9.390708696765948e-16 0.0038160000000000745
    vertex 108.07615770018715 0.9194651619500318 7.003816
    vertex 108.07615770018715 0.9194651619500318 0.0038160000000000745
  endloop
endfacet
facet normal -0.9238795325112831 -0.38268343236509844 1.4567667463055345e-18
  outer loop
    vertex 107.89870754747385 1.3478677272756403 7.003816
    vertex 108.07615770018715 0.9194651619500318 0.0038160000000000745
    vertex 108.07615770018715 0.9194651619500318 7.003816
  endloop
endfacet
facet normal -0.9659258262890692 -0.25881904510251763 9.58639161434055e-19
  outer loop
    vertex 108.07615770018715 0.9194651619500318 0.0038160000000000745
    vertex 107.89870754747385 1.3478677272756403 7.003816
    vertex 107.89870754747385 1.3478677272756403 0.0038160000000000745
  endloop
endfacet
facet normal -0.9238795325112831 -0.38268343236509844 1.4567667463055345e-18
  outer loop
    vertex 107.89870754747385 1.3478677272756403 0.0038160000000000745
    vertex 107.89870754747385 1.3478677272756403 7.003816
    vertex 107.72125739476057 1.7762702926012268 7.003816
  endloop
endfacet
facet normal -0.9238795325112831 -0.38268343236509844 1.4567667463055345e-18
  outer loop
    vertex 107.89870754747385 1.3478677272756403 0.0038160000000000745
    vertex 107.72125739476057 1.7762702926012268 7.003816
    vertex 107.72125739476057 1.7762702926012268 0.0038160000000000745
  endloop
endfacet
facet normal -0.7071067811865458 -0.7071067811865495 -7.364821112960001e-19
  outer loop
    vertex 107.1566925382371 2.5120255382370584 7.003816
    vertex 107.72125739476057 1.7762702926012268 0.0038160000000000745
    vertex 107.72125739476057 1.7762702926012268 7.003816
  endloop
endfacet
facet normal -0.8660254037844336 -0.5000000000000089 3.6642750891893847e-19
  outer loop
    vertex 107.72125739476057 1.7762702926012268 0.0038160000000000745
    vertex 107.1566925382371 2.5120255382370584 7.003816
    vertex 107.1566925382371 2.5120255382370584 0.0038160000000000745
  endloop
endfacet
facet normal -0.7071067811865458 -0.7071067811865495 -7.364821112960001e-19
  outer loop
    vertex 107.1566925382371 2.5120255382370584 7.003816
    vertex 106.42093729260118 3.0765903947605886 0.0038160000000000745
    vertex 107.1566925382371 2.5120255382370584 0.0038160000000000745
  endloop
endfacet
facet normal -0.5000000000000011 -0.866025403784438 -2.946661815622741e-19
  outer loop
    vertex 106.42093729260118 3.0765903947605886 0.0038160000000000745
    vertex 107.1566925382371 2.5120255382370584 7.003816
    vertex 106.42093729260118 3.0765903947605886 7.003816
  endloop
endfacet
facet normal -0.5000000000000011 -0.866025403784438 -2.946661815622741e-19
  outer loop
    vertex 106.42093729260118 3.0765903947605886 7.003816
    vertex 105.56413216195006 3.4314907001871333 0.0038160000000000745
    vertex 106.42093729260118 3.0765903947605886 0.0038160000000000745
  endloop
endfacet
facet normal -0.2588190451025197 -0.9659258262890685 -4.759459825867022e-20
  outer loop
    vertex 105.56413216195006 3.4314907001871333 0.0038160000000000745
    vertex 106.42093729260118 3.0765903947605886 7.003816
    vertex 105.56413216195006 3.4314907001871333 7.003816
  endloop
endfacet
facet normal -0.2588190451025197 -0.9659258262890685 -4.759459825867022e-20
  outer loop
    vertex 105.56413216195006 3.4314907001871333 7.003816
    vertex 104.644667 3.5525405852024594 0.0038160000000000745
    vertex 105.56413216195006 3.4314907001871333 0.0038160000000000745
  endloop
endfacet
facet normal 0.0 -1.0 0.0
  outer loop
    vertex 104.644667 3.5525405852024594 0.0038160000000000745
    vertex 105.56413216195006 3.4314907001871333 7.003816
    vertex 104.644667 3.5525405852024594 7.003816
  endloop
endfacet
facet normal 0.0 -1.0 0.0
  outer loop
    vertex 104.644667 3.5525405852024594 7.003816
    vertex 103.72520183804994 3.4314907001871333 0.0038160000000000745
    vertex 104.644667 3.5525405852024594 0.0038160000000000745
  endloop
endfacet
facet normal 0.2588190451025193 -0.9659258262890688 9.05246181899288e-19
  outer loop
    vertex 103.72520183804994 3.4314907001871333 0.0038160000000000745
    vertex 104.644667 3.5525405852024594 7.003816
    vertex 103.72520183804994 3.4314907001871333 7.003816
  endloop
endfacet
facet normal 0.2588190451025193 -0.9659258262890688 9.05246181899288e-19
  outer loop
    vertex 103.72520183804994 3.4314907001871333 7.003816
    vertex 102.86839670739882 3.076590394760589 0.0038160000000000745
    vertex 103.72520183804994 3.4314907001871333 0.0038160000000000745
  endloop
endfacet
facet normal 0.49999999999999994 -0.8660254037844388 1.1523177652031762e-18
  outer loop
    vertex 102.86839670739882 3.076590394760589 0.0038160000000000745
    vertex 103.72520183804994 3.4314907001871333 7.003816
    vertex 102.86839670739882 3.076590394760589 7.003816
  endloop
endfacet
facet normal 0.49999999999999994 -0.8660254037844388 1.1523177652031762e-18
  outer loop
    vertex 102.86839670739882 3.076590394760589 7.003816
    vertex 102.13264146176293 2.5120255382370784 0.0038160000000000745
    vertex 102.86839670739882 3.076590394760589 0.0038160000000000745
  endloop
endfacet
facet normal 0.7071067811865437 -0.7071067811865513 -1.9688154451251046e-19
  outer loop
    vertex 102.13264146176293 2.5120255382370784 0.0038160000000000745
    vertex 102.86839670739882 3.076590394760589 7.003816
    vertex 102.13264146176293 2.5120255382370784 7.003816
  endloop
endfacet
facet normal 0.7071067811865437 -0.7071067811865513 -1.9688154451251046e-19
  outer loop
    vertex 102.13264146176293 2.5120255382370784 0.0038160000000000745
    vertex 101.56807660523943 1.7762702926012233 7.003816
    vertex 101.56807660523943 1.7762702926012233 0.0038160000000000745
  endloop
endfacet
facet normal 0.8660254037844426 -0.4999999999999933 2.925289834801581e-19
  outer loop
    vertex 101.56807660523943 1.7762702926012233 7.003816
    vertex 102.13264146176293 2.5120255382370784 0.0038160000000000745
    vertex 102.13264146176293 2.5120255382370784 7.003816
  endloop
endfacet
facet normal 0.8660254037844426 -0.4999999999999933 2.925289834801581e-19
  outer loop
    vertex 101.56807660523943 1.7762702926012233 0.0038160000000000745
    vertex 101.21317629981287 0.9194651619500138 7.003816
    vertex 101.21317629981287 0.9194651619500138 0.0038160000000000745
  endloop
endfacet
facet normal 0.9659258262890694 -0.2588190451025171 7.426048939042174e-19
  outer loop
    vertex 101.21317629981287 0.9194651619500138 7.003816
    vertex 101.56807660523943 1.7762702926012233 0.0038160000000000745
    vertex 101.56807660523943 1.7762702926012233 7.003816
  endloop
endfacet
facet normal 0.9659258262890694 -0.2588190451025171 7.426048939042174e-19
  outer loop
    vertex 101.21317629981287 0.9194651619500138 0.0038160000000000745
    vertex 101.09212641479753 -3.662651779090531e-15 7.003816
    vertex 101.09212641479753 -3.662651779090531e-15 0.0038160000000000745
  endloop
endfacet
facet normal 1.0 -3.5644439582587724e-17 -2.3009337947346037e-19
  outer loop
    vertex 101.09212641479753 -3.662651779090531e-15 7.003816
    vertex 101.21317629981287 0.9194651619500138 0.0038160000000000745
    vertex 101.21317629981287 0.9194651619500138 7.003816
  endloop
endfacet
facet normal 1.0 -3.5644439582587724e-17 -2.3009337947346037e-19
  outer loop
    vertex 101.09212641479753 -3.662651779090531e-15 0.0038160000000000745
    vertex 101.21317629981287 -0.9194651619500219 7.003816
    vertex 101.21317629981287 -0.9194651619500219 0.0038160000000000745
  endloop
endfacet
facet normal 0.965925826289069 0.258819045102518 -1.150466897371682e-19
  outer loop
    vertex 101.21317629981287 -0.9194651619500219 7.003816
    vertex 101.09212641479753 -3.662651779090531e-15 0.0038160000000000745
    vertex 101.09212641479753 -3.662651779090531e-15 7.003816
  endloop
endfacet
facet normal 0.965925826289069 0.258819045102518 -1.150466897371682e-19
  outer loop
    vertex 101.21317629981287 -0.9194651619500219 0.0038160000000000745
    vertex 101.56807660523944 -1.7762702926012528 7.003816
    vertex 101.56807660523944 -1.7762702926012528 0.0038160000000000745
  endloop
endfacet
facet normal 0.8660254037844402 0.4999999999999976 5.651226001609173e-19
  outer loop
    vertex 101.56807660523944 -1.7762702926012528 7.003816
    vertex 101.21317629981287 -0.9194651619500219 0.0038160000000000745
    vertex 101.21317629981287 -0.9194651619500219 7.003816
  endloop
endfacet
facet normal 0.8660254037844402 0.4999999999999976 5.651226001609173e-19
  outer loop
    vertex 101.56807660523944 -1.7762702926012528 0.0038160000000000745
    vertex 102.1326414617629 -2.512025538237052 7.003816
    vertex 102.1326414617629 -2.512025538237052 0.0038160000000000745
  endloop
endfacet
facet normal 0.7071067811865434 0.7071067811865518 5.651226001613529e-19
  outer loop
    vertex 102.1326414617629 -2.512025538237052 7.003816
    vertex 101.56807660523944 -1.7762702926012528 0.0038160000000000745
    vertex 101.56807660523944 -1.7762702926012528 7.003816
  endloop
endfacet
facet normal 0.7071067811865434 0.7071067811865518 5.651226001613529e-19
  outer loop
    vertex 102.1326414617629 -2.512025538237052 7.003816
    vertex 102.86839670739882 -3.0765903947605877 0.0038160000000000745
    vertex 102.1326414617629 -2.512025538237052 0.0038160000000000745
  endloop
endfacet
facet normal 0.5000000000000031 0.8660254037844368 7.357487408575168e-20
  outer loop
    vertex 102.86839670739882 -3.0765903947605877 0.0038160000000000745
    vertex 102.1326414617629 -2.512025538237052 7.003816
    vertex 102.86839670739882 -3.0765903947605877 7.003816
  endloop
endfacet
facet normal 0.5000000000000031 0.8660254037844368 7.357487408575168e-20
  outer loop
    vertex 102.86839670739882 -3.0765903947605877 7.003816
    vertex 103.72520183804994 -3.4314907001871324 0.0038160000000000745
    vertex 102.86839670739882 -3.0765903947605877 0.0038160000000000745
  endloop
endfacet
facet normal 0.2588190451025197 0.9659258262890685 1.8862156382268725e-19
  outer loop
    vertex 103.72520183804994 -3.4314907001871324 0.0038160000000000745
    vertex 102.86839670739882 -3.0765903947605877 7.003816
    vertex 103.72520183804994 -3.4314907001871324 7.003816
  endloop
endfacet
facet normal 0.2588190451025197 0.9659258262890685 1.8862156382268725e-19
  outer loop
    vertex 103.72520183804994 -3.4314907001871324 7.003816
    vertex 104.644667 -3.5525405852024585 0.0038160000000000745
    vertex 103.72520183804994 -3.4314907001871324 0.0038160000000000745
  endloop
endfacet
facet normal 1.9693552869379656e-15 1.0 -1.1504668973719527e-19
  outer loop
    vertex 104.644667 -3.5525405852024585 0.0038160000000000745
    vertex 103.72520183804994 -3.4314907001871324 7.003816
    vertex 104.644667 -3.5525405852024585 7.003816
  endloop
endfacet
facet normal 1.9693552869379656e-15 1.0 -1.1504668973719527e-19
  outer loop
    vertex 104.644667 -3.5525405852024585 7.003816
    vertex 105.56413216195008 -3.4314907001871333 0.0038160000000000745
    vertex 104.644667 -3.5525405852024585 0.0038160000000000745
  endloop
endfacet
facet normal -0.25881904510252274 0.9659258262890679 5.539833300805678e-19
  outer loop
    vertex 105.56413216195008 -3.4314907001871333 0.0038160000000000745
    vertex 104.644667 -3.5525405852024585 7.003816
    vertex 105.56413216195008 -3.4314907001871333 7.003816
  endloop
endfacet
facet normal -0.25881904510252274 0.9659258262890679 5.539833300805678e-19
  outer loop
    vertex 105.56413216195008 -3.4314907001871333 7.003816
    vertex 106.42093729260118 -3.0765903947605873 0.0038160000000000745
    vertex 105.56413216195008 -3.4314907001871333 0.0038160000000000745
  endloop
endfacet
facet normal -0.5000000000000084 0.8660254037844338 7.84076709554982e-19
  outer loop
    vertex 106.42093729260118 -3.0765903947605873 0.0038160000000000745
    vertex 105.56413216195008 -3.4314907001871333 7.003816
    vertex 106.42093729260118 -3.0765903947605873 7.003816
  endloop
endfacet
facet normal -0.5000000000000084 0.8660254037844338 7.84076709554982e-19
  outer loop
    vertex 106.42093729260118 -3.0765903947605873 7.003816
    vertex 107.15669253823708 -2.5120255382370664 0.0038160000000000745
    vertex 106.42093729260118 -3.0765903947605873 0.0038160000000000745
  endloop
endfacet
facet normal -0.7071067811865452 0.7071067811865497 5.65122600161822e-19
  outer loop
    vertex 107.15669253823708 -2.5120255382370664 0.0038160000000000745
    vertex 106.42093729260118 -3.0765903947605873 7.003816
    vertex 107.15669253823708 -2.5120255382370664 7.003816
  endloop
endfacet
facet normal -0.8660254037844369 0.500000000000003 2.0987168242654176e-19
  outer loop
    vertex 107.72125739476057 -1.7762702926012177 7.003816
    vertex 107.15669253823708 -2.5120255382370664 0.0038160000000000745
    vertex 107.15669253823708 -2.5120255382370664 7.003816
  endloop
endfacet
facet normal -0.7071067811865452 0.7071067811865497 5.65122600161822e-19
  outer loop
    vertex 107.15669253823708 -2.5120255382370664 0.0038160000000000745
    vertex 107.72125739476057 -1.7762702926012177 7.003816
    vertex 107.72125739476057 -1.7762702926012177 0.0038160000000000745
  endloop
endfacet
facet normal 0.0 0.0 -1.0
  outer loop
    vertex 101.21317629981287 0.9194651619500138 7.003816
    vertex 101.21317629981287 -0.9194651619500219 7.003816
    vertex 101.09212641479753 -3.662651779090531e-15 7.003816
  endloop
endfacet
facet normal 0.0 0.0 -1.0
  outer loop
    vertex 101.21317629981287 -0.9194651619500219 7.003816
    vertex 101.21317629981287 0.9194651619500138 7.003816
    vertex 101.56807660523943 1.7762702926012233 7.003816
  endloop
endfacet
facet normal 0.0 0.0 -1.0
  outer loop
    vertex 101.21317629981287 -0.9194651619500219 7.003816
    vertex 101.56807660523943 1.7762702926012233 7.003816
    vertex 101.56807660523944 -1.7762702926012528 7.003816
  endloop
endfacet
facet normal 0.0 0.0 -1.0
  outer loop
    vertex 101.56807660523944 -1.7762702926012528 7.003816
    vertex 101.56807660523943 1.7762702926012233 7.003816
    vertex 102.13264146176293 2.5120255382370784 7.003816
  endloop
endfacet
facet normal 0.0 0.0 -1.0
  outer loop
    vertex 101.56807660523944 -1.7762702926012528 7.003816
    vertex 102.13264146176293 2.5120255382370784 7.003816
    vertex 102.1326414617629 -2.512025538237052 7.003816
  endloop
endfacet
facet normal 0.0 0.0 -1.0
  outer loop
    vertex 102.1326414617629 -2.512025538237052 7.003816
    vertex 102.13264146176293 2.5120255382370784 7.003816
    vertex 102.86839670739882 -3.0765903947605877 7.003816
  endloop
endfacet
facet normal 0.0 0.0 -1.0
  outer loop
    vertex 102.86839670739882 -3.0765903947605877 7.003816
    vertex 102.13264146176293 2.5120255382370784 7.003816
    vertex 102.86839670739882 3.076590394760589 7.003816
  endloop
endfacet
facet normal 0.0 0.0 -1.0
  outer loop
    vertex 102.86839670739882 -3.0765903947605877 7.003816
    vertex 102.86839670739882 3.076590394760589 7.003816
    vertex 103.144667 9.184850993605148e-17 7.003816
  endloop
endfacet
facet normal 0.0 0.0 -1.0
  outer loop
    vertex 103.144667 9.184850993605148e-17 7.003816
    vertex 102.86839670739882 3.076590394760589 7.003816
    vertex 103.1957782605664 0.38822856765378144 7.003816
  endloop
endfacet
facet normal 0.0 0.0 -1.0
  outer loop
    vertex 103.1957782605664 0.38822856765378144 7.003816
    vertex 102.86839670739882 3.076590394760589 7.003816
    vertex 103.72520183804994 3.4314907001871333 7.003816
  endloop
endfacet
facet normal 0.0 0.0 -1.0
  outer loop
    vertex 103.1957782605664 0.38822856765378144 7.003816
    vertex 103.72520183804994 3.4314907001871333 7.003816
    vertex 103.34562889432335 0.7500000000000001 7.003816
  endloop
endfacet
facet normal 0.0 0.0 -1.0
  outer loop
    vertex 103.34562889432335 0.7500000000000001 7.003816
    vertex 103.72520183804994 3.4314907001871333 7.003816
    vertex 103.58400682822017 1.0606601717798212 7.003816
  endloop
endfacet
facet normal 0.0 0.0 -1.0
  outer loop
    vertex 103.58400682822017 1.0606601717798212 7.003816
    vertex 103.72520183804994 3.4314907001871333 7.003816
    vertex 103.89466699999998 1.2990381056766578 7.003816
  endloop
endfacet
facet normal 0.0 0.0 -1.0
  outer loop
    vertex 103.89466699999998 1.2990381056766578 7.003816
    vertex 103.72520183804994 3.4314907001871333 7.003816
    vertex 104.644667 3.5525405852024594 7.003816
  endloop
endfacet
facet normal 0.0 0.0 -1.0
  outer loop
    vertex 103.89466699999998 1.2990381056766578 7.003816
    vertex 104.644667 3.5525405852024594 7.003816
    vertex 104.25643843234621 1.4488887394336025 7.003816
  endloop
endfacet
facet normal 0.0 0.0 -1.0
  outer loop
    vertex 104.25643843234621 1.4488887394336025 7.003816
    vertex 104.644667 3.5525405852024594 7.003816
    vertex 104.644667 1.5 7.003816
  endloop
endfacet
facet normal 0.0 0.0 -1.0
  outer loop
    vertex 104.644667 1.5 7.003816
    vertex 104.644667 3.5525405852024594 7.003816
    vertex 105.56413216195006 3.4314907001871333 7.003816
  endloop
endfacet
facet normal 0.0 0.0 -1.0
  outer loop
    vertex 104.644667 1.5 7.003816
    vertex 105.56413216195006 3.4314907001871333 7.003816
    vertex 105.03289556765378 1.448888739433602 7.003816
  endloop
endfacet
facet normal 0.0 0.0 -1.0
  outer loop
    vertex 105.03289556765378 1.448888739433602 7.003816
    vertex 105.56413216195006 3.4314907001871333 7.003816
    vertex 105.39466700000001 1.2990381056766576 7.003816
  endloop
endfacet
facet normal 0.0 0.0 -1.0
  outer loop
    vertex 105.39466700000001 1.2990381056766576 7.003816
    vertex 105.56413216195006 3.4314907001871333 7.003816
    vertex 105.70532717177983 1.060660171779821 7.003816
  endloop
endfacet
facet normal 0.0 0.0 -1.0
  outer loop
    vertex 105.70532717177983 1.060660171779821 7.003816
    vertex 105.56413216195006 3.4314907001871333 7.003816
    vertex 106.42093729260118 3.0765903947605886 7.003816
  endloop
endfacet
facet normal 0.0 0.0 -1.0
  outer loop
    vertex 105.70532717177983 1.060660171779821 7.003816
    vertex 106.42093729260118 3.0765903947605886 7.003816
    vertex 105.94370510567666 0.7499999999999989 7.003816
  endloop
endfacet
facet normal 0.0 0.0 -1.0
  outer loop
    vertex 105.94370510567666 0.7499999999999989 7.003816
    vertex 106.42093729260118 3.0765903947605886 7.003816
    vertex 106.0935557394336 0.3882285676537804 7.003816
  endloop
endfacet
facet normal 0.0 0.0 -1.0
  outer loop
    vertex 106.0935557394336 0.3882285676537804 7.003816
    vertex 106.42093729260118 3.0765903947605886 7.003816
    vertex 106.144667 -2.7554552980815443e-16 7.003816
  endloop
endfacet
facet normal 0.0 0.0 -1.0
  outer loop
    vertex 102.86839670739882 -3.0765903947605877 7.003816
    vertex 103.1957782605664 -0.38822856765378094 7.003816
    vertex 103.72520183804994 -3.4314907001871324 7.003816
  endloop
endfacet
facet normal 0.0 0.0 -1.0
  outer loop
    vertex 103.1957782605664 -0.38822856765378094 7.003816
    vertex 102.86839670739882 -3.0765903947605877 7.003816
    vertex 103.144667 9.184850993605148e-17 7.003816
  endloop
endfacet
facet normal 0.0 0.0 -1.0
  outer loop
    vertex 103.72520183804994 -3.4314907001871324 7.003816
    vertex 103.1957782605664 -0.38822856765378094 7.003816
    vertex 103.34562889432335 -0.7499999999999996 7.003816
  endloop
endfacet
facet normal 0.0 0.0 -1.0
  outer loop
    vertex 103.72520183804994 -3.4314907001871324 7.003816
    vertex 103.34562889432335 -0.7499999999999996 7.003816
    vertex 103.58400682822017 -1.0606601717798212 7.003816
  endloop
endfacet
facet normal 0.0 0.0 -1.0
  outer loop
    vertex 103.72520183804994 -3.4314907001871324 7.003816
    vertex 103.58400682822017 -1.0606601717798212 7.003816
    vertex 103.89466699999998 -1.2990381056766578 7.003816
  endloop
endfacet
facet normal 0.0 0.0 -1.0
  outer loop
    vertex 103.72520183804994 -3.4314907001871324 7.003816
    vertex 103.89466699999998 -1.2990381056766578 7.003816
    vertex 104.644667 -3.5525405852024585 7.003816
  endloop
endfacet
facet normal 0.0 0.0 -1.0
  outer loop
    vertex 104.644667 -3.5525405852024585 7.003816
    vertex 103.89466699999998 -1.2990381056766578 7.003816
    vertex 104.25643843234621 -1.4488887394336023 7.003816
  endloop
endfacet
facet normal 0.0 0.0 -1.0
  outer loop
    vertex 104.644667 -3.5525405852024585 7.003816
    vertex 104.25643843234621 -1.4488887394336023 7.003816
    vertex 104.644667 -1.5 7.003816
  endloop
endfacet
facet normal 0.0 0.0 -1.0
  outer loop
    vertex 104.644667 -3.5525405852024585 7.003816
    vertex 104.644667 -1.5 7.003816
    vertex 105.03289556765378 -1.4488887394336025 7.003816
  endloop
endfacet
facet normal 0.0 0.0 -1.0
  outer loop
    vertex 104.644667 -3.5525405852024585 7.003816
    vertex 105.03289556765378 -1.4488887394336025 7.003816
    vertex 105.56413216195008 -3.4314907001871333 7.003816
  endloop
endfacet
facet normal 0.0 0.0 -1.0
  outer loop
    vertex 105.56413216195008 -3.4314907001871333 7.003816
    vertex 105.03289556765378 -1.4488887394336025 7.003816
    vertex 105.39466700000001 -1.299038105676658 7.003816
  endloop
endfacet
facet normal 0.0 0.0 -1.0
  outer loop
    vertex 105.56413216195008 -3.4314907001871333 7.003816
    vertex 105.39466700000001 -1.299038105676658 7.003816
    vertex 105.70532717177983 -1.0606601717798219 7.003816
  endloop
endfacet
facet normal 0.0 0.0 -1.0
  outer loop
    vertex 105.56413216195008 -3.4314907001871333 7.003816
    vertex 105.70532717177983 -1.0606601717798219 7.003816
    vertex 106.42093729260118 -3.0765903947605873 7.003816
  endloop
endfacet
facet normal 0.0 0.0 -1.0
  outer loop
    vertex 106.42093729260118 -3.0765903947605873 7.003816
    vertex 105.70532717177983 -1.0606601717798219 7.003816
    vertex 105.94370510567666 -0.7500000000000007 7.003816
  endloop
endfacet
facet normal 0.0 0.0 -1.0
  outer loop
    vertex 106.42093729260118 -3.0765903947605873 7.003816
    vertex 105.94370510567666 -0.7500000000000007 7.003816
    vertex 106.0935557394336 -0.3882285676537823 7.003816
  endloop
endfacet
facet normal 0.0 0.0 -1.0
  outer loop
    vertex 106.42093729260118 -3.0765903947605873 7.003816
    vertex 106.0935557394336 -0.3882285676537823 7.003816
    vertex 106.144667 -2.7554552980815443e-16 7.003816
  endloop
endfacet
facet normal 0.0 0.0 -1.0
  outer loop
    vertex 106.42093729260118 -3.0765903947605873 7.003816
    vertex 106.144667 -2.7554552980815443e-16 7.003816
    vertex 106.42093729260118 3.0765903947605886 7.003816
  endloop
endfacet
facet normal 0.0 0.0 -1.0
  outer loop
    vertex 106.42093729260118 -3.0765903947605873 7.003816
    vertex 106.42093729260118 3.0765903947605886 7.003816
    vertex 107.1566925382371 2.5120255382370584 7.003816
  endloop
endfacet
facet normal 0.0 0.0 -1.0
  outer loop
    vertex 106.42093729260118 -3.0765903947605873 7.003816
    vertex 107.1566925382371 2.5120255382370584 7.003816
    vertex 107.15669253823708 -2.5120255382370664 7.003816
  endloop
endfacet
facet normal 0.0 0.0 -1.0
  outer loop
    vertex 107.15669253823708 -2.5120255382370664 7.003816
    vertex 107.1566925382371 2.5120255382370584 7.003816
    vertex 107.72125739476057 -1.7762702926012177 7.003816
  endloop
endfacet
facet normal 0.0 0.0 -1.0
  outer loop
    vertex 107.72125739476057 -1.7762702926012177 7.003816
    vertex 107.1566925382371 2.5120255382370584 7.003816
    vertex 107.72125739476057 1.7762702926012268 7.003816
  endloop
endfacet
facet normal 0.0 0.0 -1.0
  outer loop
    vertex 107.72125739476057 -1.7762702926012177 7.003816
    vertex 107.72125739476057 1.7762702926012268 7.003816
    vertex 107.89870754747385 1.3478677272756403 7.003816
  endloop
endfacet
facet normal 0.0 0.0 -1.0
  outer loop
    vertex 107.72125739476057 -1.7762702926012177 7.003816
    vertex 107.89870754747385 1.3478677272756403 7.003816
    vertex 108.07615770018714 -0.9194651619500258 7.003816
  endloop
endfacet
facet normal 0.0 0.0 -1.0
  outer loop
    vertex 108.07615770018714 -0.9194651619500258 7.003816
    vertex 107.89870754747385 1.3478677272756403 7.003816
    vertex 108.07615770018715 0.9194651619500318 7.003816
  endloop
endfacet
facet normal 0.0 0.0 -1.0
  outer loop
    vertex 108.07615770018714 -0.9194651619500258 7.003816
    vertex 108.07615770018715 0.9194651619500318 7.003816
    vertex 108.19720758520246 -9.390708696765948e-16 7.003816
  endloop
endfacet
facet normal 0.7071067811865587 -0.7071067811865364 0.0
  outer loop
    vertex 103.58400682822017 1.0606601717798212 7.003816
    vertex 103.34562889432335 0.7500000000000001 8.003815999999999
    vertex 103.34562889432335 0.7500000000000001 7.003816
  endloop
endfacet
facet normal 0.8660254037844393 -0.49999999999999895 0.0
  outer loop
    vertex 103.34562889432335 0.7500000000000001 8.003815999999999
    vertex 103.58400682822017 1.0606601717798212 7.003816
    vertex 103.58400682822017 1.0606601717798212 8.003815999999999
  endloop
endfacet
facet normal 0.8660254037844393 -0.49999999999999895 0.0
  outer loop
    vertex 103.34562889432335 0.7500000000000001 7.003816
    vertex 103.1957782605664 0.38822856765378144 8.003815999999999
    vertex 103.1957782605664 0.38822856765378144 7.003816
  endloop
endfacet
facet normal 0.9659258262890669 -0.2588190451025262 0.0
  outer loop
    vertex 103.1957782605664 0.38822856765378144 8.003815999999999
    vertex 103.34562889432335 0.7500000000000001 7.003816
    vertex 103.34562889432335 0.7500000000000001 8.003815999999999
  endloop
endfacet
facet normal 0.9659258262890669 -0.2588190451025262 0.0
  outer loop
    vertex 103.1957782605664 0.38822856765378144 7.003816
    vertex 103.144667 9.184850993605148e-17 8.003815999999999
    vertex 103.144667 9.184850993605148e-17 7.003816
  endloop
endfacet
facet normal 1.0 4.455554947823449e-17 0.0
  outer loop
    vertex 103.144667 9.184850993605148e-17 8.003815999999999
    vertex 103.1957782605664 0.38822856765378144 7.003816
    vertex 103.1957782605664 0.38822856765378144 8.003815999999999
  endloop
endfacet
facet normal 1.0 4.455554947823449e-17 0.0
  outer loop
    vertex 103.144667 9.184850993605148e-17 7.003816
    vertex 103.1957782605664 -0.38822856765378094 8.003815999999999
    vertex 103.1957782605664 -0.38822856765378094 7.003816
  endloop
endfacet
facet normal 0.9659258262890668 0.25881904510252624 0.0
  outer loop
    vertex 103.1957782605664 -0.38822856765378094 8.003815999999999
    vertex 103.144667 9.184850993605148e-17 7.003816
    vertex 103.144667 9.184850993605148e-17 8.003815999999999
  endloop
endfacet
facet normal 0.9659258262890668 0.25881904510252624 0.0
  outer loop
    vertex 103.1957782605664 -0.38822856765378094 7.003816
    vertex 103.34562889432335 -0.7499999999999996 8.003815999999999
    vertex 103.34562889432335 -0.7499999999999996 7.003816
  endloop
endfacet
facet normal 0.8660254037844394 0.4999999999999987 0.0
  outer loop
    vertex 103.34562889432335 -0.7499999999999996 8.003815999999999
    vertex 103.1957782605664 -0.38822856765378094 7.003816
    vertex 103.1957782605664 -0.38822856765378094 8.003815999999999
  endloop
endfacet
facet normal 0.8660254037844394 0.4999999999999987 0.0
  outer loop
    vertex 103.34562889432335 -0.7499999999999996 7.003816
    vertex 103.58400682822017 -1.0606601717798212 8.003815999999999
    vertex 103.58400682822017 -1.0606601717798212 7.003816
  endloop
endfacet
facet normal 0.7071067811865589 0.707106781186536 0.0
  outer loop
    vertex 103.58400682822017 -1.0606601717798212 8.003815999999999
    vertex 103.34562889432335 -0.7499999999999996 7.003816
    vertex 103.34562889432335 -0.7499999999999996 8.003815999999999
  endloop
endfacet
facet normal 0.7071067811865589 0.707106781186536 0.0
  outer loop
    vertex 103.58400682822017 -1.0606601717798212 8.003815999999999
    vertex 103.89466699999998 -1.2990381056766578 7.003816
    vertex 103.58400682822017 -1.0606601717798212 7.003816
  endloop
endfacet
facet normal 0.49999999999999956 0.8660254037844388 0.0
  outer loop
    vertex 103.89466699999998 -1.2990381056766578 7.003816
    vertex 103.58400682822017 -1.0606601717798212 8.003815999999999
    vertex 103.89466699999998 -1.2990381056766578 8.003815999999999
  endloop
endfacet
facet normal 0.49999999999999956 0.8660254037844388 0.0
  outer loop
    vertex 103.89466699999998 -1.2990381056766578 8.003815999999999
    vertex 104.25643843234621 -1.4488887394336023 7.003816
    vertex 103.89466699999998 -1.2990381056766578 7.003816
  endloop
endfacet
facet normal 0.25881904510251547 0.9659258262890699 0.0
  outer loop
    vertex 104.25643843234621 -1.4488887394336023 7.003816
    vertex 103.89466699999998 -1.2990381056766578 8.003815999999999
    vertex 104.25643843234621 -1.4488887394336023 8.003815999999999
  endloop
endfacet
facet normal 0.25881904510251547 0.9659258262890699 0.0
  outer loop
    vertex 104.25643843234621 -1.4488887394336023 8.003815999999999
    vertex 104.644667 -1.5 7.003816
    vertex 104.25643843234621 -1.4488887394336023 7.003816
  endloop
endfacet
facet normal 2.227777473911727e-16 1.0 0.0
  outer loop
    vertex 104.644667 -1.5 7.003816
    vertex 104.25643843234621 -1.4488887394336023 8.003815999999999
    vertex 104.644667 -1.5 8.003815999999999
  endloop
endfacet
facet normal 2.227777473911727e-16 1.0 0.0
  outer loop
    vertex 104.644667 -1.5 8.003815999999999
    vertex 105.03289556765378 -1.4488887394336025 7.003816
    vertex 104.644667 -1.5 7.003816
  endloop
endfacet
facet normal -0.2588190451025151 0.9659258262890699 0.0
  outer loop
    vertex 105.03289556765378 -1.4488887394336025 7.003816
    vertex 104.644667 -1.5 8.003815999999999
    vertex 105.03289556765378 -1.4488887394336025 8.003815999999999
  endloop
endfacet
facet normal -0.2588190451025151 0.9659258262890699 0.0
  outer loop
    vertex 105.03289556765378 -1.4488887394336025 8.003815999999999
    vertex 105.39466700000001 -1.299038105676658 7.003816
    vertex 105.03289556765378 -1.4488887394336025 7.003816
  endloop
endfacet
facet normal -0.499999999999999 0.8660254037844392 0.0
  outer loop
    vertex 105.39466700000001 -1.299038105676658 7.003816
    vertex 105.03289556765378 -1.4488887394336025 8.003815999999999
    vertex 105.39466700000001 -1.299038105676658 8.003815999999999
  endloop
endfacet
facet normal -0.499999999999999 0.8660254037844392 0.0
  outer loop
    vertex 105.39466700000001 -1.299038105676658 8.003815999999999
    vertex 105.70532717177983 -1.0606601717798219 7.003816
    vertex 105.39466700000001 -1.299038105676658 7.003816
  endloop
endfacet
facet normal -0.7071067811865586 0.7071067811865366 0.0
  outer loop
    vertex 105.70532717177983 -1.0606601717798219 7.003816
    vertex 105.39466700000001 -1.299038105676658 8.003815999999999
    vertex 105.70532717177983 -1.0606601717798219 8.003815999999999
  endloop
endfacet
facet normal -0.866025403784439 0.499999999999999 0.0
  outer loop
    vertex 105.94370510567666 -0.7500000000000007 8.003815999999999
    vertex 105.70532717177983 -1.0606601717798219 7.003816
    vertex 105.70532717177983 -1.0606601717798219 8.003815999999999
  endloop
endfacet
facet normal -0.7071067811865586 0.7071067811865366 0.0
  outer loop
    vertex 105.70532717177983 -1.0606601717798219 7.003816
    vertex 105.94370510567666 -0.7500000000000007 8.003815999999999
    vertex 105.94370510567666 -0.7500000000000007 7.003816
  endloop
endfacet
facet normal -0.9659258262890668 0.2588190451025262 0.0
  outer loop
    vertex 106.0935557394336 -0.3882285676537823 8.003815999999999
    vertex 105.94370510567666 -0.7500000000000007 7.003816
    vertex 105.94370510567666 -0.7500000000000007 8.003815999999999
  endloop
endfacet
facet normal -0.866025403784439 0.499999999999999 0.0
  outer loop
    vertex 105.94370510567666 -0.7500000000000007 7.003816
    vertex 106.0935557394336 -0.3882285676537823 8.003815999999999
    vertex 106.0935557394336 -0.3882285676537823 7.003816
  endloop
endfacet
facet normal -1.0 -2.2277774739117245e-16 0.0
  outer loop
    vertex 106.144667 -2.7554552980815443e-16 8.003815999999999
    vertex 106.0935557394336 -0.3882285676537823 7.003816
    vertex 106.0935557394336 -0.3882285676537823 8.003815999999999
  endloop
endfacet
facet normal -0.9659258262890668 0.2588190451025262 0.0
  outer loop
    vertex 106.0935557394336 -0.3882285676537823 7.003816
    vertex 106.144667 -2.7554552980815443e-16 8.003815999999999
    vertex 106.144667 -2.7554552980815443e-16 7.003816
  endloop
endfacet
facet normal -0.9659258262890668 -0.25881904510252635 0.0
  outer loop
    vertex 106.0935557394336 0.3882285676537804 8.003815999999999
    vertex 106.144667 -2.7554552980815443e-16 7.003816
    vertex 106.144667 -2.7554552980815443e-16 8.003815999999999
  endloop
endfacet
facet normal -1.0 -2.2277774739117245e-16 0.0
  outer loop
    vertex 106.144667 -2.7554552980815443e-16 7.003816
    vertex 106.0935557394336 0.3882285676537804 8.003815999999999
    vertex 106.0935557394336 0.3882285676537804 7.003816
  endloop
endfacet
facet normal -0.8660254037844395 -0.49999999999999845 0.0
  outer loop
    vertex 105.94370510567666 0.7499999999999989 8.003815999999999
    vertex 106.0935557394336 0.3882285676537804 7.003816
    vertex 106.0935557394336 0.3882285676537804 8.003815999999999
  endloop
endfacet
facet normal -0.9659258262890668 -0.25881904510252635 0.0
  outer loop
    vertex 106.0935557394336 0.3882285676537804 7.003816
    vertex 105.94370510567666 0.7499999999999989 8.003815999999999
    vertex 105.94370510567666 0.7499999999999989 7.003816
  endloop
endfacet
facet normal -0.7071067811865592 -0.7071067811865358 0.0
  outer loop
    vertex 105.70532717177983 1.060660171779821 8.003815999999999
    vertex 105.94370510567666 0.7499999999999989 7.003816
    vertex 105.94370510567666 0.7499999999999989 8.003815999999999
  endloop
endfacet
facet normal -0.8660254037844395 -0.49999999999999845 0.0
  outer loop
    vertex 105.94370510567666 0.7499999999999989 7.003816
    vertex 105.70532717177983 1.060660171779821 8.003815999999999
    vertex 105.70532717177983 1.060660171779821 7.003816
  endloop
endfacet
facet normal -0.7071067811865592 -0.7071067811865358 0.0
  outer loop
    vertex 105.70532717177983 1.060660171779821 8.003815999999999
    vertex 105.39466700000001 1.2990381056766576 7.003816
    vertex 105.70532717177983 1.060660171779821 7.003816
  endloop
endfacet
facet normal -0.49999999999999956 -0.8660254037844388 0.0
  outer loop
    vertex 105.39466700000001 1.2990381056766576 7.003816
    vertex 105.70532717177983 1.060660171779821 8.003815999999999
    vertex 105.39466700000001 1.2990381056766576 8.003815999999999
  endloop
endfacet
facet normal -0.49999999999999956 -0.8660254037844388 0.0
  outer loop
    vertex 105.39466700000001 1.2990381056766576 8.003815999999999
    vertex 105.03289556765378 1.448888739433602 7.003816
    vertex 105.39466700000001 1.2990381056766576 7.003816
  endloop
endfacet
facet normal -0.25881904510251563 -0.9659258262890696 0.0
  outer loop
    vertex 105.03289556765378 1.448888739433602 7.003816
    vertex 105.39466700000001 1.2990381056766576 8.003815999999999
    vertex 105.03289556765378 1.448888739433602 8.003815999999999
  endloop
endfacet
facet normal -0.25881904510251563 -0.9659258262890696 0.0
  outer loop
    vertex 105.03289556765378 1.448888739433602 8.003815999999999
    vertex 104.644667 1.5 7.003816
    vertex 105.03289556765378 1.448888739433602 7.003816
  endloop
endfacet
facet normal -4.455554947823454e-16 -1.0 0.0
  outer loop
    vertex 104.644667 1.5 7.003816
    vertex 105.03289556765378 1.448888739433602 8.003815999999999
    vertex 104.644667 1.5 8.003815999999999
  endloop
endfacet
facet normal -4.455554947823454e-16 -1.0 0.0
  outer loop
    vertex 104.644667 1.5 8.003815999999999
    vertex 104.25643843234621 1.4488887394336025 7.003816
    vertex 104.644667 1.5 7.003816
  endloop
endfacet
facet normal 0.25881904510251524 -0.9659258262890699 0.0
  outer loop
    vertex 104.25643843234621 1.4488887394336025 7.003816
    vertex 104.644667 1.5 8.003815999999999
    vertex 104.25643843234621 1.4488887394336025 8.003815999999999
  endloop
endfacet
facet normal 0.25881904510251524 -0.9659258262890699 0.0
  outer loop
    vertex 104.25643843234621 1.4488887394336025 8.003815999999999
    vertex 103.89466699999998 1.2990381056766578 7.003816
    vertex 104.25643843234621 1.4488887394336025 7.003816
  endloop
endfacet
facet normal 0.49999999999999956 -0.8660254037844388 0.0
  outer loop
    vertex 103.89466699999998 1.2990381056766578 7.003816
    vertex 104.25643843234621 1.4488887394336025 8.003815999999999
    vertex 103.89466699999998 1.2990381056766578 8.003815999999999
  endloop
endfacet
facet normal 0.49999999999999956 -0.8660254037844388 0.0
  outer loop
    vertex 103.89466699999998 1.2990381056766578 8.003815999999999
    vertex 103.58400682822017 1.0606601717798212 7.003816
    vertex 103.89466699999998 1.2990381056766578 7.003816
  endloop
endfacet
facet normal 0.7071067811865587 -0.7071067811865364 0.0
  outer loop
    vertex 103.58400682822017 1.0606601717798212 7.003816
    vertex 103.89466699999998 1.2990381056766578 8.003815999999999
    vertex 103.58400682822017 1.0606601717798212 8.003815999999999
  endloop
endfacet
endsolid ZMR_standoff_spacer
