solid OpenSCAD_Model
  facet normal 1 -0 0
    outer loop
      vertex 7 3 3
      vertex 7 26.15 0
      vertex 7 26.15 3
    endloop
  endfacet
  facet normal 1 0 0
    outer loop
      vertex 7 26.15 0
      vertex 7 3 3
      vertex 7 3 0
    endloop
  endfacet
  facet normal -1 0 0
    outer loop
      vertex 19.15 3 0
      vertex 19.15 26.15 3
      vertex 19.15 26.15 0
    endloop
  endfacet
  facet normal -1 -0 0
    outer loop
      vertex 19.15 26.15 3
      vertex 19.15 3 0
      vertex 19.15 3 3
    endloop
  endfacet
  facet normal 0 0 -1
    outer loop
      vertex 136.9 0 0
      vertex 129.9 3 0
      vertex 136.9 29.15 0
    endloop
  endfacet
  facet normal 0 0 -1
    outer loop
      vertex 136.9 0 0
      vertex 117.75 3 0
      vertex 129.9 3 0
    endloop
  endfacet
  facet normal 0 0 -1
    outer loop
      vertex 117.75 3 0
      vertex 107.75 3 0
      vertex 117.75 26.15 0
    endloop
  endfacet
  facet normal 0 0 -1
    outer loop
      vertex 136.9 0 0
      vertex 107.75 3 0
      vertex 117.75 3 0
    endloop
  endfacet
  facet normal 0 0 -1
    outer loop
      vertex 136.9 0 0
      vertex 95.6 3 0
      vertex 107.75 3 0
    endloop
  endfacet
  facet normal 0 0 -1
    outer loop
      vertex 95.6 3 0
      vertex 85.6 3 0
      vertex 95.6 26.15 0
    endloop
  endfacet
  facet normal 0 0 -1
    outer loop
      vertex 136.9 0 0
      vertex 85.6 3 0
      vertex 95.6 3 0
    endloop
  endfacet
  facet normal 0 0 -1
    outer loop
      vertex 136.9 0 0
      vertex 73.45 3 0
      vertex 85.6 3 0
    endloop
  endfacet
  facet normal 0 0 -1
    outer loop
      vertex 73.45 3 0
      vertex 63.45 3 0
      vertex 73.45 26.15 0
    endloop
  endfacet
  facet normal 0 0 -1
    outer loop
      vertex 136.9 0 0
      vertex 63.45 3 0
      vertex 73.45 3 0
    endloop
  endfacet
  facet normal 0 0 -1
    outer loop
      vertex 0 0 0
      vertex 63.45 3 0
      vertex 136.9 0 0
    endloop
  endfacet
  facet normal 0 0 -1
    outer loop
      vertex 51.3 3 0
      vertex 41.3 3 0
      vertex 51.3 26.15 0
    endloop
  endfacet
  facet normal -0 0 -1
    outer loop
      vertex 63.45 3 0
      vertex 0 0 0
      vertex 51.3 3 0
    endloop
  endfacet
  facet normal -0 0 -1
    outer loop
      vertex 51.3 3 0
      vertex 0 0 0
      vertex 41.3 3 0
    endloop
  endfacet
  facet normal 0 0 -1
    outer loop
      vertex 29.15 3 0
      vertex 19.15 3 0
      vertex 29.15 26.15 0
    endloop
  endfacet
  facet normal -0 0 -1
    outer loop
      vertex 41.3 3 0
      vertex 0 0 0
      vertex 29.15 3 0
    endloop
  endfacet
  facet normal -0 0 -1
    outer loop
      vertex 29.15 3 0
      vertex 0 0 0
      vertex 19.15 3 0
    endloop
  endfacet
  facet normal -0 0 -1
    outer loop
      vertex 7 3 0
      vertex 0 0 0
      vertex 7 26.15 0
    endloop
  endfacet
  facet normal -0 0 -1
    outer loop
      vertex 19.15 3 0
      vertex 0 0 0
      vertex 7 3 0
    endloop
  endfacet
  facet normal 0 0 -1
    outer loop
      vertex 129.9 26.15 0
      vertex 136.9 29.15 0
      vertex 129.9 3 0
    endloop
  endfacet
  facet normal 0 0 -1
    outer loop
      vertex 117.75 26.15 0
      vertex 136.9 29.15 0
      vertex 129.9 26.15 0
    endloop
  endfacet
  facet normal 0 0 -1
    outer loop
      vertex 107.75 26.15 0
      vertex 117.75 26.15 0
      vertex 107.75 3 0
    endloop
  endfacet
  facet normal 0 0 -1
    outer loop
      vertex 107.75 26.15 0
      vertex 136.9 29.15 0
      vertex 117.75 26.15 0
    endloop
  endfacet
  facet normal 0 0 -1
    outer loop
      vertex 95.6 26.15 0
      vertex 136.9 29.15 0
      vertex 107.75 26.15 0
    endloop
  endfacet
  facet normal 0 0 -1
    outer loop
      vertex 85.6 26.15 0
      vertex 95.6 26.15 0
      vertex 85.6 3 0
    endloop
  endfacet
  facet normal 0 0 -1
    outer loop
      vertex 85.6 26.15 0
      vertex 136.9 29.15 0
      vertex 95.6 26.15 0
    endloop
  endfacet
  facet normal 0 0 -1
    outer loop
      vertex 73.45 26.15 0
      vertex 136.9 29.15 0
      vertex 85.6 26.15 0
    endloop
  endfacet
  facet normal 0 0 -1
    outer loop
      vertex 63.45 26.15 0
      vertex 73.45 26.15 0
      vertex 63.45 3 0
    endloop
  endfacet
  facet normal 0 0 -1
    outer loop
      vertex 63.45 26.15 0
      vertex 136.9 29.15 0
      vertex 73.45 26.15 0
    endloop
  endfacet
  facet normal 0 0 -1
    outer loop
      vertex 0 29.15 0
      vertex 63.45 26.15 0
      vertex 51.3 26.15 0
    endloop
  endfacet
  facet normal 0 0 -1
    outer loop
      vertex 41.3 26.15 0
      vertex 51.3 26.15 0
      vertex 41.3 3 0
    endloop
  endfacet
  facet normal 0 0 -1
    outer loop
      vertex 0 29.15 0
      vertex 51.3 26.15 0
      vertex 41.3 26.15 0
    endloop
  endfacet
  facet normal 0 0 -1
    outer loop
      vertex 0 29.15 0
      vertex 41.3 26.15 0
      vertex 29.15 26.15 0
    endloop
  endfacet
  facet normal 0 0 -1
    outer loop
      vertex 19.15 26.15 0
      vertex 29.15 26.15 0
      vertex 19.15 3 0
    endloop
  endfacet
  facet normal 0 0 -1
    outer loop
      vertex 0 29.15 0
      vertex 29.15 26.15 0
      vertex 19.15 26.15 0
    endloop
  endfacet
  facet normal 0 0 -1
    outer loop
      vertex 0 29.15 0
      vertex 19.15 26.15 0
      vertex 7 26.15 0
    endloop
  endfacet
  facet normal 0 0 -1
    outer loop
      vertex 63.45 26.15 0
      vertex 0 29.15 0
      vertex 136.9 29.15 0
    endloop
  endfacet
  facet normal 0 0 -1
    outer loop
      vertex 0 29.15 0
      vertex 7 26.15 0
      vertex 0 0 0
    endloop
  endfacet
  facet normal 0 1 -0
    outer loop
      vertex 19.15 3 0
      vertex 7 3 3
      vertex 19.15 3 3
    endloop
  endfacet
  facet normal 0 1 0
    outer loop
      vertex 7 3 3
      vertex 19.15 3 0
      vertex 7 3 0
    endloop
  endfacet
  facet normal 0 -1 0
    outer loop
      vertex 7 26.15 0
      vertex 19.15 26.15 3
      vertex 7 26.15 3
    endloop
  endfacet
  facet normal 0 -1 -0
    outer loop
      vertex 19.15 26.15 3
      vertex 7 26.15 0
      vertex 19.15 26.15 0
    endloop
  endfacet
  facet normal 1 -0 0
    outer loop
      vertex 29.15 3 3
      vertex 29.15 26.15 0
      vertex 29.15 26.15 3
    endloop
  endfacet
  facet normal 1 0 0
    outer loop
      vertex 29.15 26.15 0
      vertex 29.15 3 3
      vertex 29.15 3 0
    endloop
  endfacet
  facet normal -1 0 0
    outer loop
      vertex 41.3 3 0
      vertex 41.3 26.15 3
      vertex 41.3 26.15 0
    endloop
  endfacet
  facet normal -1 -0 0
    outer loop
      vertex 41.3 26.15 3
      vertex 41.3 3 0
      vertex 41.3 3 3
    endloop
  endfacet
  facet normal 0 1 -0
    outer loop
      vertex 41.3 3 0
      vertex 29.15 3 3
      vertex 41.3 3 3
    endloop
  endfacet
  facet normal 0 1 0
    outer loop
      vertex 29.15 3 3
      vertex 41.3 3 0
      vertex 29.15 3 0
    endloop
  endfacet
  facet normal 0 -1 0
    outer loop
      vertex 29.15 26.15 0
      vertex 41.3 26.15 3
      vertex 29.15 26.15 3
    endloop
  endfacet
  facet normal 0 -1 -0
    outer loop
      vertex 41.3 26.15 3
      vertex 29.15 26.15 0
      vertex 41.3 26.15 0
    endloop
  endfacet
  facet normal 1 -0 0
    outer loop
      vertex 51.3 3 3
      vertex 51.3 26.15 0
      vertex 51.3 26.15 3
    endloop
  endfacet
  facet normal 1 0 0
    outer loop
      vertex 51.3 26.15 0
      vertex 51.3 3 3
      vertex 51.3 3 0
    endloop
  endfacet
  facet normal -1 0 0
    outer loop
      vertex 63.45 3 0
      vertex 63.45 26.15 3
      vertex 63.45 26.15 0
    endloop
  endfacet
  facet normal -1 -0 0
    outer loop
      vertex 63.45 26.15 3
      vertex 63.45 3 0
      vertex 63.45 3 3
    endloop
  endfacet
  facet normal 0 -1 0
    outer loop
      vertex 51.3 26.15 0
      vertex 63.45 26.15 3
      vertex 51.3 26.15 3
    endloop
  endfacet
  facet normal 0 -1 -0
    outer loop
      vertex 63.45 26.15 3
      vertex 51.3 26.15 0
      vertex 63.45 26.15 0
    endloop
  endfacet
  facet normal 0 1 -0
    outer loop
      vertex 63.45 3 0
      vertex 51.3 3 3
      vertex 63.45 3 3
    endloop
  endfacet
  facet normal 0 1 0
    outer loop
      vertex 51.3 3 3
      vertex 63.45 3 0
      vertex 51.3 3 0
    endloop
  endfacet
  facet normal 1 -0 0
    outer loop
      vertex 73.45 3 3
      vertex 73.45 26.15 0
      vertex 73.45 26.15 3
    endloop
  endfacet
  facet normal 1 0 0
    outer loop
      vertex 73.45 26.15 0
      vertex 73.45 3 3
      vertex 73.45 3 0
    endloop
  endfacet
  facet normal -1 0 0
    outer loop
      vertex 85.6 3 0
      vertex 85.6 26.15 3
      vertex 85.6 26.15 0
    endloop
  endfacet
  facet normal -1 -0 0
    outer loop
      vertex 85.6 26.15 3
      vertex 85.6 3 0
      vertex 85.6 3 3
    endloop
  endfacet
  facet normal 0 1 -0
    outer loop
      vertex 85.6 3 0
      vertex 73.45 3 3
      vertex 85.6 3 3
    endloop
  endfacet
  facet normal 0 1 0
    outer loop
      vertex 73.45 3 3
      vertex 85.6 3 0
      vertex 73.45 3 0
    endloop
  endfacet
  facet normal 0 -1 0
    outer loop
      vertex 73.45 26.15 0
      vertex 85.6 26.15 3
      vertex 73.45 26.15 3
    endloop
  endfacet
  facet normal 0 -1 -0
    outer loop
      vertex 85.6 26.15 3
      vertex 73.45 26.15 0
      vertex 85.6 26.15 0
    endloop
  endfacet
  facet normal 1 -0 0
    outer loop
      vertex 95.6 3 3
      vertex 95.6 26.15 0
      vertex 95.6 26.15 3
    endloop
  endfacet
  facet normal 1 0 0
    outer loop
      vertex 95.6 26.15 0
      vertex 95.6 3 3
      vertex 95.6 3 0
    endloop
  endfacet
  facet normal -1 0 0
    outer loop
      vertex 107.75 3 0
      vertex 107.75 26.15 3
      vertex 107.75 26.15 0
    endloop
  endfacet
  facet normal -1 -0 0
    outer loop
      vertex 107.75 26.15 3
      vertex 107.75 3 0
      vertex 107.75 3 3
    endloop
  endfacet
  facet normal 0 1 -0
    outer loop
      vertex 107.75 3 0
      vertex 95.6 3 3
      vertex 107.75 3 3
    endloop
  endfacet
  facet normal 0 1 0
    outer loop
      vertex 95.6 3 3
      vertex 107.75 3 0
      vertex 95.6 3 0
    endloop
  endfacet
  facet normal 0 -1 0
    outer loop
      vertex 95.6 26.15 0
      vertex 107.75 26.15 3
      vertex 95.6 26.15 3
    endloop
  endfacet
  facet normal 0 -1 -0
    outer loop
      vertex 107.75 26.15 3
      vertex 95.6 26.15 0
      vertex 107.75 26.15 0
    endloop
  endfacet
  facet normal 1 -0 0
    outer loop
      vertex 117.75 3 3
      vertex 117.75 26.15 0
      vertex 117.75 26.15 3
    endloop
  endfacet
  facet normal 1 0 0
    outer loop
      vertex 117.75 26.15 0
      vertex 117.75 3 3
      vertex 117.75 3 0
    endloop
  endfacet
  facet normal -1 0 0
    outer loop
      vertex 129.9 3 0
      vertex 129.9 26.15 3
      vertex 129.9 26.15 0
    endloop
  endfacet
  facet normal -1 -0 0
    outer loop
      vertex 129.9 26.15 3
      vertex 129.9 3 0
      vertex 129.9 3 3
    endloop
  endfacet
  facet normal 0 1 -0
    outer loop
      vertex 129.9 3 0
      vertex 117.75 3 3
      vertex 129.9 3 3
    endloop
  endfacet
  facet normal 0 1 0
    outer loop
      vertex 117.75 3 3
      vertex 129.9 3 0
      vertex 117.75 3 0
    endloop
  endfacet
  facet normal 0 -1 0
    outer loop
      vertex 117.75 26.15 0
      vertex 129.9 26.15 3
      vertex 117.75 26.15 3
    endloop
  endfacet
  facet normal 0 -1 -0
    outer loop
      vertex 129.9 26.15 3
      vertex 117.75 26.15 0
      vertex 129.9 26.15 0
    endloop
  endfacet
  facet normal -1 0 0
    outer loop
      vertex 0 23.15 3
      vertex 0 29.15 2
      vertex 0 29.15 0
    endloop
  endfacet
  facet normal -1 0 0
    outer loop
      vertex 0 29.15 2
      vertex 0 23.15 3
      vertex 0 29.15 6
    endloop
  endfacet
  facet normal -1 0 0
    outer loop
      vertex 0 0 0
      vertex 0 23.15 3
      vertex 0 29.15 0
    endloop
  endfacet
  facet normal -1 -0 0
    outer loop
      vertex 0 23.15 3
      vertex 0 0 0
      vertex 0 0 3
    endloop
  endfacet
  facet normal -1 -0 0
    outer loop
      vertex 0 29.15 6
      vertex 0 23.15 3
      vertex 0 23.15 6
    endloop
  endfacet
  facet normal 0 0 1
    outer loop
      vertex 5 29.15 3
      vertex 1 29.15 3
      vertex 5 23.15 3
    endloop
  endfacet
  facet normal 0 0 1
    outer loop
      vertex 44.3 29.15 3
      vertex 41.3 26.15 3
      vertex 44.3 23.15 3
    endloop
  endfacet
  facet normal 0 0 1
    outer loop
      vertex 44.3 29.15 3
      vertex 29.15 26.15 3
      vertex 41.3 26.15 3
    endloop
  endfacet
  facet normal 0 0 1
    outer loop
      vertex 29.15 26.15 3
      vertex 19.15 26.15 3
      vertex 29.15 3 3
    endloop
  endfacet
  facet normal -0 0 1
    outer loop
      vertex 6 29.15 3
      vertex 29.15 26.15 3
      vertex 44.3 29.15 3
    endloop
  endfacet
  facet normal 0 0 1
    outer loop
      vertex 29.15 26.15 3
      vertex 6 29.15 3
      vertex 19.15 26.15 3
    endloop
  endfacet
  facet normal 0 0 1
    outer loop
      vertex 6 23.15 3
      vertex 7 26.15 3
      vertex 6 29.15 3
    endloop
  endfacet
  facet normal 0 0 1
    outer loop
      vertex 19.15 26.15 3
      vertex 6 29.15 3
      vertex 7 26.15 3
    endloop
  endfacet
  facet normal 0 0 1
    outer loop
      vertex 49.3 29.15 3
      vertex 45.3 29.15 3
      vertex 49.3 23.15 3
    endloop
  endfacet
  facet normal 0 0 1
    outer loop
      vertex 88.6 29.15 3
      vertex 85.6 26.15 3
      vertex 88.6 23.15 3
    endloop
  endfacet
  facet normal 0 0 1
    outer loop
      vertex 88.6 29.15 3
      vertex 73.45 26.15 3
      vertex 85.6 26.15 3
    endloop
  endfacet
  facet normal 0 0 1
    outer loop
      vertex 73.45 26.15 3
      vertex 63.45 26.15 3
      vertex 73.45 3 3
    endloop
  endfacet
  facet normal -0 0 1
    outer loop
      vertex 50.3 29.15 3
      vertex 73.45 26.15 3
      vertex 88.6 29.15 3
    endloop
  endfacet
  facet normal 0 0 1
    outer loop
      vertex 73.45 26.15 3
      vertex 50.3 29.15 3
      vertex 63.45 26.15 3
    endloop
  endfacet
  facet normal 0 0 1
    outer loop
      vertex 50.3 23.15 3
      vertex 51.3 26.15 3
      vertex 50.3 29.15 3
    endloop
  endfacet
  facet normal 0 0 1
    outer loop
      vertex 63.45 26.15 3
      vertex 50.3 29.15 3
      vertex 51.3 26.15 3
    endloop
  endfacet
  facet normal 0 0 1
    outer loop
      vertex 93.6 29.15 3
      vertex 89.6 29.15 3
      vertex 93.6 23.15 3
    endloop
  endfacet
  facet normal 0 0 1
    outer loop
      vertex 136.9 29.15 3
      vertex 129.9 26.15 3
      vertex 136.9 0 3
    endloop
  endfacet
  facet normal 0 0 1
    outer loop
      vertex 136.9 29.15 3
      vertex 117.75 26.15 3
      vertex 129.9 26.15 3
    endloop
  endfacet
  facet normal 0 0 1
    outer loop
      vertex 117.75 26.15 3
      vertex 107.75 26.15 3
      vertex 117.75 3 3
    endloop
  endfacet
  facet normal -0 0 1
    outer loop
      vertex 94.6 29.15 3
      vertex 117.75 26.15 3
      vertex 136.9 29.15 3
    endloop
  endfacet
  facet normal 0 0 1
    outer loop
      vertex 117.75 26.15 3
      vertex 94.6 29.15 3
      vertex 107.75 26.15 3
    endloop
  endfacet
  facet normal 0 0 1
    outer loop
      vertex 94.6 23.15 3
      vertex 95.6 26.15 3
      vertex 94.6 29.15 3
    endloop
  endfacet
  facet normal 0 0 1
    outer loop
      vertex 107.75 26.15 3
      vertex 94.6 29.15 3
      vertex 95.6 26.15 3
    endloop
  endfacet
  facet normal -0 0 1
    outer loop
      vertex 129.9 3 3
      vertex 136.9 0 3
      vertex 129.9 26.15 3
    endloop
  endfacet
  facet normal -0 0 1
    outer loop
      vertex 117.75 3 3
      vertex 136.9 0 3
      vertex 129.9 3 3
    endloop
  endfacet
  facet normal 0 0 1
    outer loop
      vertex 107.75 3 3
      vertex 117.75 3 3
      vertex 107.75 26.15 3
    endloop
  endfacet
  facet normal -0 0 1
    outer loop
      vertex 107.75 3 3
      vertex 136.9 0 3
      vertex 117.75 3 3
    endloop
  endfacet
  facet normal -0 0 1
    outer loop
      vertex 95.6 3 3
      vertex 136.9 0 3
      vertex 107.75 3 3
    endloop
  endfacet
  facet normal 0 0 1
    outer loop
      vertex 95.6 26.15 3
      vertex 94.6 23.15 3
      vertex 95.6 3 3
    endloop
  endfacet
  facet normal -0 0 1
    outer loop
      vertex 93.6 23.15 3
      vertex 95.6 3 3
      vertex 94.6 23.15 3
    endloop
  endfacet
  facet normal 0 0 1
    outer loop
      vertex 89.6 23.15 3
      vertex 93.6 23.15 3
      vertex 89.6 29.15 3
    endloop
  endfacet
  facet normal 0 0 1
    outer loop
      vertex 93.6 23.15 3
      vertex 89.6 23.15 3
      vertex 95.6 3 3
    endloop
  endfacet
  facet normal 0 0 1
    outer loop
      vertex 85.6 3 3
      vertex 89.6 23.15 3
      vertex 88.6 23.15 3
    endloop
  endfacet
  facet normal 0 0 1
    outer loop
      vertex 85.6 3 3
      vertex 88.6 23.15 3
      vertex 85.6 26.15 3
    endloop
  endfacet
  facet normal 0 0 1
    outer loop
      vertex 89.6 23.15 3
      vertex 85.6 3 3
      vertex 95.6 3 3
    endloop
  endfacet
  facet normal -0 0 1
    outer loop
      vertex 85.6 3 3
      vertex 136.9 0 3
      vertex 95.6 3 3
    endloop
  endfacet
  facet normal -0 0 1
    outer loop
      vertex 73.45 3 3
      vertex 136.9 0 3
      vertex 85.6 3 3
    endloop
  endfacet
  facet normal 0 0 1
    outer loop
      vertex 63.45 3 3
      vertex 73.45 3 3
      vertex 63.45 26.15 3
    endloop
  endfacet
  facet normal -0 0 1
    outer loop
      vertex 63.45 3 3
      vertex 136.9 0 3
      vertex 73.45 3 3
    endloop
  endfacet
  facet normal 0 0 1
    outer loop
      vertex 0 0 3
      vertex 63.45 3 3
      vertex 51.3 3 3
    endloop
  endfacet
  facet normal 0 0 1
    outer loop
      vertex 51.3 26.15 3
      vertex 50.3 23.15 3
      vertex 51.3 3 3
    endloop
  endfacet
  facet normal -0 0 1
    outer loop
      vertex 49.3 23.15 3
      vertex 51.3 3 3
      vertex 50.3 23.15 3
    endloop
  endfacet
  facet normal 0 0 1
    outer loop
      vertex 45.3 23.15 3
      vertex 49.3 23.15 3
      vertex 45.3 29.15 3
    endloop
  endfacet
  facet normal 0 0 1
    outer loop
      vertex 49.3 23.15 3
      vertex 45.3 23.15 3
      vertex 51.3 3 3
    endloop
  endfacet
  facet normal 0 0 1
    outer loop
      vertex 41.3 3 3
      vertex 45.3 23.15 3
      vertex 44.3 23.15 3
    endloop
  endfacet
  facet normal 0 0 1
    outer loop
      vertex 41.3 3 3
      vertex 44.3 23.15 3
      vertex 41.3 26.15 3
    endloop
  endfacet
  facet normal 0 0 1
    outer loop
      vertex 45.3 23.15 3
      vertex 41.3 3 3
      vertex 51.3 3 3
    endloop
  endfacet
  facet normal 0 0 1
    outer loop
      vertex 0 0 3
      vertex 51.3 3 3
      vertex 41.3 3 3
    endloop
  endfacet
  facet normal 0 0 1
    outer loop
      vertex 0 0 3
      vertex 41.3 3 3
      vertex 29.15 3 3
    endloop
  endfacet
  facet normal 0 0 1
    outer loop
      vertex 19.15 3 3
      vertex 29.15 3 3
      vertex 19.15 26.15 3
    endloop
  endfacet
  facet normal 0 0 1
    outer loop
      vertex 0 0 3
      vertex 29.15 3 3
      vertex 19.15 3 3
    endloop
  endfacet
  facet normal 0 0 1
    outer loop
      vertex 0 0 3
      vertex 19.15 3 3
      vertex 7 3 3
    endloop
  endfacet
  facet normal 0 0 1
    outer loop
      vertex 7 26.15 3
      vertex 6 23.15 3
      vertex 7 3 3
    endloop
  endfacet
  facet normal -0 0 1
    outer loop
      vertex 5 23.15 3
      vertex 7 3 3
      vertex 6 23.15 3
    endloop
  endfacet
  facet normal 0 0 1
    outer loop
      vertex 1 23.15 3
      vertex 5 23.15 3
      vertex 1 29.15 3
    endloop
  endfacet
  facet normal 0 0 1
    outer loop
      vertex 5 23.15 3
      vertex 1 23.15 3
      vertex 7 3 3
    endloop
  endfacet
  facet normal -0 0 1
    outer loop
      vertex 0 23.15 3
      vertex 7 3 3
      vertex 1 23.15 3
    endloop
  endfacet
  facet normal 0 0 1
    outer loop
      vertex 63.45 3 3
      vertex 0 0 3
      vertex 136.9 0 3
    endloop
  endfacet
  facet normal 0 0 1
    outer loop
      vertex 0 0 3
      vertex 7 3 3
      vertex 0 23.15 3
    endloop
  endfacet
  facet normal 1 -0 0
    outer loop
      vertex 136.9 0 3
      vertex 136.9 29.15 0
      vertex 136.9 29.15 3
    endloop
  endfacet
  facet normal 1 0 0
    outer loop
      vertex 136.9 29.15 0
      vertex 136.9 0 3
      vertex 136.9 0 0
    endloop
  endfacet
  facet normal 0 1 0
    outer loop
      vertex 136.9 29.15 3
      vertex 94.6 29.15 2
      vertex 94.6 29.15 3
    endloop
  endfacet
  facet normal 0 1 0
    outer loop
      vertex 136.9 29.15 0
      vertex 88.6 29.15 2
      vertex 94.6 29.15 2
    endloop
  endfacet
  facet normal 0 1 0
    outer loop
      vertex 88.6 29.15 2
      vertex 0 29.15 0
      vertex 50.3 29.15 2
    endloop
  endfacet
  facet normal 0 1 0
    outer loop
      vertex 50.3 29.15 2
      vertex 0 29.15 0
      vertex 44.3 29.15 2
    endloop
  endfacet
  facet normal 0 1 0
    outer loop
      vertex 44.3 29.15 2
      vertex 0 29.15 0
      vertex 6 29.15 2
    endloop
  endfacet
  facet normal 0 1 -0
    outer loop
      vertex 136.9 29.15 0
      vertex 94.6 29.15 2
      vertex 136.9 29.15 3
    endloop
  endfacet
  facet normal 0 1 0
    outer loop
      vertex 88.6 29.15 2
      vertex 136.9 29.15 0
      vertex 0 29.15 0
    endloop
  endfacet
  facet normal 0 1 0
    outer loop
      vertex 6 29.15 2
      vertex 0 29.15 0
      vertex 0 29.15 2
    endloop
  endfacet
  facet normal 0 1 -0
    outer loop
      vertex 88.6 29.15 2
      vertex 50.3 29.15 3
      vertex 88.6 29.15 3
    endloop
  endfacet
  facet normal 0 1 0
    outer loop
      vertex 50.3 29.15 3
      vertex 88.6 29.15 2
      vertex 50.3 29.15 2
    endloop
  endfacet
  facet normal 0 1 -0
    outer loop
      vertex 44.3 29.15 2
      vertex 6 29.15 3
      vertex 44.3 29.15 3
    endloop
  endfacet
  facet normal 0 1 0
    outer loop
      vertex 6 29.15 3
      vertex 44.3 29.15 2
      vertex 6 29.15 2
    endloop
  endfacet
  facet normal 0 -1 0
    outer loop
      vertex 0 0 0
      vertex 136.9 0 3
      vertex 0 0 3
    endloop
  endfacet
  facet normal 0 -1 -0
    outer loop
      vertex 136.9 0 3
      vertex 0 0 0
      vertex 136.9 0 0
    endloop
  endfacet
  facet normal -0 0 1
    outer loop
      vertex 0 29.15 6
      vertex 6 23.15 6
      vertex 6 29.15 6
    endloop
  endfacet
  facet normal 0 0 1
    outer loop
      vertex 6 23.15 6
      vertex 0 29.15 6
      vertex 0 23.15 6
    endloop
  endfacet
  facet normal 1 -0 0
    outer loop
      vertex 6 23.15 6
      vertex 6 29.15 3
      vertex 6 29.15 6
    endloop
  endfacet
  facet normal 1 0 0
    outer loop
      vertex 6 29.15 3
      vertex 6 23.15 6
      vertex 6 23.15 3
    endloop
  endfacet
  facet normal 0 0 0
    outer loop
      vertex 6 29.15 6
      vertex 6 29.15 3
      vertex 6 29.15 2
    endloop
  endfacet
  facet normal 0 -1 0
    outer loop
      vertex 0 23.15 6
      vertex 1 23.15 5
      vertex 6 23.15 6
    endloop
  endfacet
  facet normal 0 -1 0
    outer loop
      vertex 0 23.15 3
      vertex 1 23.15 5
      vertex 0 23.15 6
    endloop
  endfacet
  facet normal 0 -1 -0
    outer loop
      vertex 1 23.15 5
      vertex 0 23.15 3
      vertex 1 23.15 3
    endloop
  endfacet
  facet normal 0 -1 0
    outer loop
      vertex 5 23.15 5
      vertex 6 23.15 6
      vertex 1 23.15 5
    endloop
  endfacet
  facet normal 0 -1 0
    outer loop
      vertex 6 23.15 3
      vertex 5 23.15 5
      vertex 5 23.15 3
    endloop
  endfacet
  facet normal 0 -1 0
    outer loop
      vertex 5 23.15 5
      vertex 6 23.15 3
      vertex 6 23.15 6
    endloop
  endfacet
  facet normal 0 1 0
    outer loop
      vertex 6 29.15 6
      vertex 5 29.15 5
      vertex 0 29.15 6
    endloop
  endfacet
  facet normal 0 1 0
    outer loop
      vertex 6 29.15 6
      vertex 5 29.15 3
      vertex 5 29.15 5
    endloop
  endfacet
  facet normal 0 1 0
    outer loop
      vertex 5 29.15 3
      vertex 6 29.15 2
      vertex 1 29.15 3
    endloop
  endfacet
  facet normal 0 1 -0
    outer loop
      vertex 6 29.15 2
      vertex 5 29.15 3
      vertex 6 29.15 6
    endloop
  endfacet
  facet normal 0 1 -0
    outer loop
      vertex 1 29.15 5
      vertex 0 29.15 6
      vertex 5 29.15 5
    endloop
  endfacet
  facet normal 0 1 -0
    outer loop
      vertex 1 29.15 3
      vertex 0 29.15 6
      vertex 1 29.15 5
    endloop
  endfacet
  facet normal 0 1 0
    outer loop
      vertex 1 29.15 3
      vertex 0 29.15 2
      vertex 0 29.15 6
    endloop
  endfacet
  facet normal 0 1 0
    outer loop
      vertex 0 29.15 2
      vertex 1 29.15 3
      vertex 6 29.15 2
    endloop
  endfacet
  facet normal 1 -0 0
    outer loop
      vertex 1 23.15 5
      vertex 1 29.15 3
      vertex 1 29.15 5
    endloop
  endfacet
  facet normal 1 0 0
    outer loop
      vertex 1 29.15 3
      vertex 1 23.15 5
      vertex 1 23.15 3
    endloop
  endfacet
  facet normal 0 0 -1
    outer loop
      vertex 1 23.15 5
      vertex 5 29.15 5
      vertex 5 23.15 5
    endloop
  endfacet
  facet normal -0 0 -1
    outer loop
      vertex 5 29.15 5
      vertex 1 23.15 5
      vertex 1 29.15 5
    endloop
  endfacet
  facet normal -1 0 0
    outer loop
      vertex 5 23.15 3
      vertex 5 29.15 5
      vertex 5 29.15 3
    endloop
  endfacet
  facet normal -1 -0 0
    outer loop
      vertex 5 29.15 5
      vertex 5 23.15 3
      vertex 5 23.15 5
    endloop
  endfacet
  facet normal -1 0 0
    outer loop
      vertex 44.3 23.15 3
      vertex 44.3 29.15 6
      vertex 44.3 29.15 3
    endloop
  endfacet
  facet normal -1 -0 0
    outer loop
      vertex 44.3 29.15 6
      vertex 44.3 23.15 3
      vertex 44.3 23.15 6
    endloop
  endfacet
  facet normal 0 0 0
    outer loop
      vertex 44.3 29.15 2
      vertex 44.3 29.15 3
      vertex 44.3 29.15 6
    endloop
  endfacet
  facet normal -0 0 1
    outer loop
      vertex 44.3 29.15 6
      vertex 50.3 23.15 6
      vertex 50.3 29.15 6
    endloop
  endfacet
  facet normal 0 0 1
    outer loop
      vertex 50.3 23.15 6
      vertex 44.3 29.15 6
      vertex 44.3 23.15 6
    endloop
  endfacet
  facet normal 1 -0 0
    outer loop
      vertex 50.3 23.15 6
      vertex 50.3 29.15 3
      vertex 50.3 29.15 6
    endloop
  endfacet
  facet normal 1 0 0
    outer loop
      vertex 50.3 29.15 3
      vertex 50.3 23.15 6
      vertex 50.3 23.15 3
    endloop
  endfacet
  facet normal 0 0 0
    outer loop
      vertex 50.3 29.15 6
      vertex 50.3 29.15 3
      vertex 50.3 29.15 2
    endloop
  endfacet
  facet normal 0 -1 0
    outer loop
      vertex 44.3 23.15 6
      vertex 45.3 23.15 5
      vertex 50.3 23.15 6
    endloop
  endfacet
  facet normal 0 -1 0
    outer loop
      vertex 44.3 23.15 3
      vertex 45.3 23.15 5
      vertex 44.3 23.15 6
    endloop
  endfacet
  facet normal 0 -1 -0
    outer loop
      vertex 45.3 23.15 5
      vertex 44.3 23.15 3
      vertex 45.3 23.15 3
    endloop
  endfacet
  facet normal 0 -1 0
    outer loop
      vertex 49.3 23.15 5
      vertex 50.3 23.15 6
      vertex 45.3 23.15 5
    endloop
  endfacet
  facet normal 0 -1 0
    outer loop
      vertex 50.3 23.15 3
      vertex 49.3 23.15 5
      vertex 49.3 23.15 3
    endloop
  endfacet
  facet normal 0 -1 0
    outer loop
      vertex 49.3 23.15 5
      vertex 50.3 23.15 3
      vertex 50.3 23.15 6
    endloop
  endfacet
  facet normal 0 1 0
    outer loop
      vertex 50.3 29.15 6
      vertex 49.3 29.15 5
      vertex 44.3 29.15 6
    endloop
  endfacet
  facet normal 0 1 0
    outer loop
      vertex 50.3 29.15 6
      vertex 49.3 29.15 3
      vertex 49.3 29.15 5
    endloop
  endfacet
  facet normal 0 1 0
    outer loop
      vertex 49.3 29.15 3
      vertex 50.3 29.15 2
      vertex 45.3 29.15 3
    endloop
  endfacet
  facet normal 0 1 -0
    outer loop
      vertex 50.3 29.15 2
      vertex 49.3 29.15 3
      vertex 50.3 29.15 6
    endloop
  endfacet
  facet normal 0 1 -0
    outer loop
      vertex 45.3 29.15 5
      vertex 44.3 29.15 6
      vertex 49.3 29.15 5
    endloop
  endfacet
  facet normal 0 1 -0
    outer loop
      vertex 45.3 29.15 3
      vertex 44.3 29.15 6
      vertex 45.3 29.15 5
    endloop
  endfacet
  facet normal 0 1 0
    outer loop
      vertex 45.3 29.15 3
      vertex 44.3 29.15 2
      vertex 44.3 29.15 6
    endloop
  endfacet
  facet normal 0 1 0
    outer loop
      vertex 44.3 29.15 2
      vertex 45.3 29.15 3
      vertex 50.3 29.15 2
    endloop
  endfacet
  facet normal 1 -0 0
    outer loop
      vertex 45.3 23.15 5
      vertex 45.3 29.15 3
      vertex 45.3 29.15 5
    endloop
  endfacet
  facet normal 1 0 0
    outer loop
      vertex 45.3 29.15 3
      vertex 45.3 23.15 5
      vertex 45.3 23.15 3
    endloop
  endfacet
  facet normal 0 0 -1
    outer loop
      vertex 45.3 23.15 5
      vertex 49.3 29.15 5
      vertex 49.3 23.15 5
    endloop
  endfacet
  facet normal -0 0 -1
    outer loop
      vertex 49.3 29.15 5
      vertex 45.3 23.15 5
      vertex 45.3 29.15 5
    endloop
  endfacet
  facet normal -1 0 0
    outer loop
      vertex 49.3 23.15 3
      vertex 49.3 29.15 5
      vertex 49.3 29.15 3
    endloop
  endfacet
  facet normal -1 -0 0
    outer loop
      vertex 49.3 29.15 5
      vertex 49.3 23.15 3
      vertex 49.3 23.15 5
    endloop
  endfacet
  facet normal -1 0 0
    outer loop
      vertex 88.6 23.15 3
      vertex 88.6 29.15 6
      vertex 88.6 29.15 3
    endloop
  endfacet
  facet normal -1 -0 0
    outer loop
      vertex 88.6 29.15 6
      vertex 88.6 23.15 3
      vertex 88.6 23.15 6
    endloop
  endfacet
  facet normal 0 0 0
    outer loop
      vertex 88.6 29.15 3
      vertex 88.6 29.15 6
      vertex 88.6 29.15 2
    endloop
  endfacet
  facet normal -0 0 1
    outer loop
      vertex 88.6 29.15 6
      vertex 94.6 23.15 6
      vertex 94.6 29.15 6
    endloop
  endfacet
  facet normal 0 0 1
    outer loop
      vertex 94.6 23.15 6
      vertex 88.6 29.15 6
      vertex 88.6 23.15 6
    endloop
  endfacet
  facet normal 1 -0 0
    outer loop
      vertex 94.6 23.15 6
      vertex 94.6 29.15 3
      vertex 94.6 29.15 6
    endloop
  endfacet
  facet normal 1 0 0
    outer loop
      vertex 94.6 29.15 3
      vertex 94.6 23.15 6
      vertex 94.6 23.15 3
    endloop
  endfacet
  facet normal 0 0 0
    outer loop
      vertex 94.6 29.15 6
      vertex 94.6 29.15 3
      vertex 94.6 29.15 2
    endloop
  endfacet
  facet normal 0 -1 0
    outer loop
      vertex 88.6 23.15 6
      vertex 89.6 23.15 5
      vertex 94.6 23.15 6
    endloop
  endfacet
  facet normal 0 -1 0
    outer loop
      vertex 88.6 23.15 3
      vertex 89.6 23.15 5
      vertex 88.6 23.15 6
    endloop
  endfacet
  facet normal 0 -1 -0
    outer loop
      vertex 89.6 23.15 5
      vertex 88.6 23.15 3
      vertex 89.6 23.15 3
    endloop
  endfacet
  facet normal 0 -1 0
    outer loop
      vertex 93.6 23.15 5
      vertex 94.6 23.15 6
      vertex 89.6 23.15 5
    endloop
  endfacet
  facet normal 0 -1 0
    outer loop
      vertex 94.6 23.15 3
      vertex 93.6 23.15 5
      vertex 93.6 23.15 3
    endloop
  endfacet
  facet normal 0 -1 0
    outer loop
      vertex 93.6 23.15 5
      vertex 94.6 23.15 3
      vertex 94.6 23.15 6
    endloop
  endfacet
  facet normal 0 1 0
    outer loop
      vertex 94.6 29.15 6
      vertex 93.6 29.15 5
      vertex 88.6 29.15 6
    endloop
  endfacet
  facet normal 0 1 0
    outer loop
      vertex 94.6 29.15 6
      vertex 93.6 29.15 3
      vertex 93.6 29.15 5
    endloop
  endfacet
  facet normal 0 1 0
    outer loop
      vertex 93.6 29.15 3
      vertex 94.6 29.15 2
      vertex 89.6 29.15 3
    endloop
  endfacet
  facet normal 0 1 -0
    outer loop
      vertex 94.6 29.15 2
      vertex 93.6 29.15 3
      vertex 94.6 29.15 6
    endloop
  endfacet
  facet normal 0 1 -0
    outer loop
      vertex 89.6 29.15 5
      vertex 88.6 29.15 6
      vertex 93.6 29.15 5
    endloop
  endfacet
  facet normal 0 1 -0
    outer loop
      vertex 89.6 29.15 3
      vertex 88.6 29.15 6
      vertex 89.6 29.15 5
    endloop
  endfacet
  facet normal 0 1 0
    outer loop
      vertex 89.6 29.15 3
      vertex 88.6 29.15 2
      vertex 88.6 29.15 6
    endloop
  endfacet
  facet normal 0 1 0
    outer loop
      vertex 88.6 29.15 2
      vertex 89.6 29.15 3
      vertex 94.6 29.15 2
    endloop
  endfacet
  facet normal 1 -0 0
    outer loop
      vertex 89.6 23.15 5
      vertex 89.6 29.15 3
      vertex 89.6 29.15 5
    endloop
  endfacet
  facet normal 1 0 0
    outer loop
      vertex 89.6 29.15 3
      vertex 89.6 23.15 5
      vertex 89.6 23.15 3
    endloop
  endfacet
  facet normal 0 0 -1
    outer loop
      vertex 89.6 23.15 5
      vertex 93.6 29.15 5
      vertex 93.6 23.15 5
    endloop
  endfacet
  facet normal -0 0 -1
    outer loop
      vertex 93.6 29.15 5
      vertex 89.6 23.15 5
      vertex 89.6 29.15 5
    endloop
  endfacet
  facet normal -1 0 0
    outer loop
      vertex 93.6 23.15 3
      vertex 93.6 29.15 5
      vertex 93.6 29.15 3
    endloop
  endfacet
  facet normal -1 -0 0
    outer loop
      vertex 93.6 29.15 5
      vertex 93.6 23.15 3
      vertex 93.6 23.15 5
    endloop
  endfacet
endsolid OpenSCAD_Model
