0
SECTION
2
HEADER
9
$INSUNITS
70
4
9
$ACADVER
1
AC1014
9
$HANDSEED
5
FFFF
0
ENDSEC
0
SECTION
2
TABLES
0
TABLE
2
VPORT
5
8
100
AcDbSymbolTable
0
ENDTAB
0
TABLE
2
LTYPE
5
5
100
AcDbSymbolTable
0
LTYPE
5
14
100
AcDbSymbolTableRecord
100
AcDbLinetypeTableRecord
2
BYBLOCK
70
0
0
LTYPE
5
15
100
AcDbSymbolTableRecord
100
AcDbLinetypeTableRecord
2
BYLAYER
70
0
0
ENDTAB
0
TABLE
2
LAYER
5
2
100
AcDbSymbolTable
70
2
0
LAYER
5
50
100
AcDbSymbolTableRecord
100
AcDbLayerTableRecord
2
0
70
0
6
CONTINUOUS
0
ENDTAB
0
TABLE
2
STYLE
5
3
100
AcDbSymbolTable
70
1
0
STYLE
5
11
100
AcDbSymbolTableRecord
100
AcDbTextStyleTableRecord
2
STANDARD
70
0
0
ENDTAB
0
TABLE
2
VIEW
5
6
100
AcDbSymbolTable
70
0
0
ENDTAB
0
TABLE
2
UCS
5
7
100
AcDbSymbolTable
70
0
0
ENDTAB
0
TABLE
2
APPID
5
9
100
AcDbSymbolTable
70
2
0
APPID
5
12
100
AcDbSymbolTableRecord
100
AcDbRegAppTableRecord
2
ACAD
70
0
0
ENDTAB
0
TABLE
2
DIMSTYLE
5
A
100
AcDbSymbolTable
70
1
0
ENDTAB
0
TABLE
2
BLOCK_RECORD
5
1
100
AcDbSymbolTable
70
1
0
BLOCK_RECORD
5
1F
100
AcDbSymbolTableRecord
100
AcDbBlockTableRecord
2
*MODEL_SPACE
0
BLOCK_RECORD
5
1B
100
AcDbSymbolTableRecord
100
AcDbBlockTableRecord
2
*PAPER_SPACE
0
ENDTAB
0
ENDSEC
0
SECTION
2
BLOCKS
0
BLOCK
5
20
100
AcDbEntity
100
AcDbBlockBegin
2
*MODEL_SPACE
0
ENDBLK
5
21
100
AcDbEntity
100
AcDbBlockEnd
0
BLOCK
5
1C
100
AcDbEntity
100
AcDbBlockBegin
2
*PAPER_SPACE
0
ENDBLK
5
1D
100
AcDbEntity
100
AcDbBlockEnd
0
ENDSEC
0
SECTION
2
ENTITIES
0
LWPOLYLINE
5
100
100
AcDbEntity
8
0
100
AcDbPolyline
90
6
70
1
43
0.0
10
90.413973738871519
20
-1.204155450636009
10
89.714169433734668
20
0.25310474158953628
10
90.626291627557336
20
1.5877831436285486
10
92.23821812651687
20
1.4652013534420165
10
92.938022431653735
20
0.0079411612164734247
10
92.025900237831053
20
-1.3267372408225377
0
LWPOLYLINE
5
101
100
AcDbEntity
8
0
100
AcDbPolyline
90
6
70
1
43
0.0
10
-67.201553056931147
20
41.230522951403692
10
-68.009843433796647
20
42.630522951403684
10
-67.201553056931175
20
44.03052295140369
10
-65.584972303200217
20
44.030522951403697
10
-64.776681926334732
20
42.630522951403698
10
-65.584972303200203
20
41.230522951403692
0
LWPOLYLINE
5
102
100
AcDbEntity
8
0
100
AcDbPolyline
90
6
70
1
43
0.0
10
-67.201553056931189
20
-43.769477048596343
10
-68.009843433796675
20
-42.369477048596352
10
-67.201553056931203
20
-40.969477048596346
10
-65.58497230320026
20
-40.969477048596339
10
-64.77668192633476
20
-42.369477048596337
10
-65.584972303200232
20
-43.769477048596343
0
LWPOLYLINE
5
103
100
AcDbEntity
8
0
100
AcDbPolyline
90
8
70
1
43
0.0
10
97.499999999999602
20
-32.500000000000014
42
-0.41421356237309509
10
82.499999999999545
20
-47.500000000000085
10
-82.5
20
-47.500000000000014
42
-0.41421356237309515
10
-97.5
20
-32.500000000000014
10
-97.5
20
32.500000000000007
42
-0.41421356237309653
10
-82.499999999999929
20
47.500000000000014
10
82.500000000000071
20
47.500000000000014
42
-0.4142135623730937
10
97.5
20
32.500000000000007
0
LWPOLYLINE
5
104
100
AcDbEntity
8
0
100
AcDbPolyline
90
6
70
1
43
0.0
10
51.33276176615518
20
-29.082587277317998
10
50.978827072973715
20
-27.530429547789787
10
52.146067750834789
20
-26.44783424744988
10
53.667243121877334
20
-26.91739667663818
10
54.021177815058792
20
-28.469554406166392
10
52.853937137197732
20
-29.552149706506299
0
LWPOLYLINE
5
105
100
AcDbEntity
8
0
100
AcDbPolyline
90
6
70
1
43
0.0
10
17.158762039390108
20
-23.80830116893117
10
18.428409779168671
20
-22.992604438057363
10
19.769647739778588
20
-23.684303269126197
10
19.841237960609945
20
-25.19169883106883
10
18.571590220831382
20
-26.007395561942637
10
17.230352260221462
20
-25.315696730873803
0
LWPOLYLINE
5
106
100
AcDbEntity
8
0
100
AcDbPolyline
90
6
70
1
43
0.0
10
-89.324782432107085
20
-14.737461474655539
10
-90.350089693094219
20
-12.038422794743495
10
-88.525307260987148
20
-9.8009613200879677
10
-85.675217567892915
20
-10.262538525344485
10
-84.649910306905781
20
-12.961577205256528
10
-86.474692739012852
20
-15.199038679912057
0
LWPOLYLINE
5
107
100
AcDbEntity
8
0
100
AcDbPolyline
90
6
70
1
43
0.0
10
-40.974653101558694
20
24.155786960725546
10
-40.535423787104875
20
25.60498052808213
10
-39.06077068554616
20
25.949193567356581
10
-38.025346898441292
20
24.844213039274443
10
-38.464576212895111
20
23.395019471917866
10
-39.939229314453826
20
23.050806432643416
0
LWPOLYLINE
5
108
100
AcDbEntity
8
0
100
AcDbPolyline
90
6
70
1
43
0.0
10
85.901414765685928
20
10.095662940814314
10
84.618490410327794
20
12.682246893437824
10
86.217075644641852
20
15.086583952623521
10
89.098585234314072
20
14.904337059185695
10
90.38150958967222
20
12.317753106562183
10
88.782924355358148
20
9.9134160473764901
0
LWPOLYLINE
5
109
100
AcDbEntity
8
0
100
AcDbPolyline
90
6
70
1
43
0.0
10
52.695715473086423
20
26.505276876282011
10
51.30338136962942
20
27.083145761464834
10
51.107663452525848
20
28.57787690820544
10
52.304279638879265
20
29.494739169763214
10
53.696613742336254
20
28.916870284580391
10
53.892331659439833
20
27.4221391378398
0
LWPOLYLINE
5
110
100
AcDbEntity
8
0
100
AcDbPolyline
90
6
70
1
43
0.0
10
71.982374154014522
20
-27.213909589279893
10
72.421951215757133
20
-28.024694397401358
10
71.939579505792764
20
-28.810771703852115
10
71.017630734085785
20
-28.786064202181411
10
70.57805367234316
20
-27.975279394059918
10
71.060425382307528
20
-27.189202087609189
0
LWPOLYLINE
5
111
100
AcDbEntity
8
0
100
AcDbPolyline
90
6
70
1
43
0.0
10
19.225478316258815
20
23.169631704328019
10
17.710606417688073
20
23.206533200389131
10
16.985128101429275
20
24.536901496061109
10
17.774521683741217
20
25.830368295671985
10
19.289393582311959
20
25.793466799610876
10
20.01487189857076
20
24.463098503938888
0
LWPOLYLINE
5
112
100
AcDbEntity
8
0
100
AcDbPolyline
90
6
70
1
43
0.0
10
-88.685180448802058
20
9.8672414759452973
10
-90.372625988262399
20
12.210017114703856
10
-89.187445539460327
20
14.842775638758525
10
-86.314819551197957
20
15.132758524054633
10
-84.627374011737601
20
12.789982885296073
10
-85.812554460539673
20
10.157224361241401
0
LWPOLYLINE
5
113
100
AcDbEntity
8
0
100
AcDbPolyline
90
6
70
1
43
0.0
10
-40.971529236515842
20
-24.156846825709557
10
-39.938585251933112
20
-23.054041711620513
10
-38.467056015417249
20
-23.39719488591097
10
-38.028470763484108
20
-24.843153174290453
10
-39.061414748066838
20
-25.945958288379494
10
-40.532943984582701
20
-25.602805114089048
0
LWPOLYLINE
5
114
100
AcDbEntity
8
0
100
AcDbPolyline
90
6
70
1
43
0.0
10
87.336267172044359
20
-15.382619633168284
10
84.921711754250651
20
-13.799513028141078
10
85.085444582206293
20
-10.916893394972778
10
87.66373282795567
20
-9.6173803668316875
10
90.078288245749363
20
-11.200486971858899
10
89.914555417793707
20
-14.083106605027201
0
LWPOLYLINE
5
115
100
AcDbEntity
8
0
100
AcDbPolyline
90
6
70
1
43
0.0
10
71.201174137014647
20
26.466143224307835
10
70.022215564351484
20
27.491866836360799
10
70.321038983319312
20
29.025736716323021
10
71.798820974950303
20
29.533882984232257
10
72.977779547613451
20
28.508159372179289
10
72.678956128645623
20
26.974289492217078
0
LWPOLYLINE
5
116
100
AcDbEntity
8
0
100
AcDbPolyline
90
4
70
1
43
0.0
10
40
20
12.500000000000018
10
40
20
-12.499999999999984
42
-0.99999999999999989
10
20.999999999999996
20
-12.499999999999984
10
20.999999999999996
20
12.500000000000027
42
-0.99999999999999989
0
LINE
5
117
100
AcDbEntity
8
0
100
AcDbLine
10
-68.009843433796647
20
42.630522951403684
30
0
11
-68.009843433796675
21
-42.369477048596352
31
0
0
LINE
5
118
100
AcDbEntity
8
0
100
AcDbLine
10
-64.77668192633476
20
-42.369477048596337
30
0
11
-64.776681926334732
21
42.630522951403698
31
0
0
LINE
5
119
100
AcDbEntity
8
0
100
AcDbLine
10
-69.409843433796638
20
47.500000000000014
30
0
11
-69.409843433796681
21
-47.500000000000028
31
0
0
LINE
5
120
100
AcDbEntity
8
0
100
AcDbLine
10
-63.376681926334761
20
-47.500000000000028
30
0
11
-63.376681926334733
21
47.500000000000014
31
0
0
LINE
5
121
100
AcDbEntity
8
0
100
AcDbLine
10
92.23821812651687
20
1.4652013534420165
30
0
11
90.413973738871519
21
-1.204155450636009
31
0
0
LWPOLYLINE
5
122
100
AcDbEntity
8
0
100
AcDbPolyline
90
6
70
1
43
0.0
10
91.326095932694201
20
3.5946245665407641
10
94.326095932694201
20
1.8625737589718803
10
94.326095932694201
20
-1.6015278561658777
10
91.326095932694201
20
-3.3335786637347589
10
88.326095932694187
20
-1.6015278561658777
10
88.326095932694187
20
1.862573758971884
0
LWPOLYLINE
5
123
100
AcDbEntity
8
0
100
AcDbPolyline
90
4
70
1
43
0.0
10
1.2034560192830668e-06
20
-32.50000142811264
10
-15.000045643008493
20
-32.500005439649883
42
-0.99999999999999989
10
-15.000048049920878
20
-23.500014617959998
10
-1.2034563517948627e-06
20
-23.500010606422769
42
-0.99999999999999989
0
LWPOLYLINE
5
124
100
AcDbEntity
8
0
100
AcDbPolyline
90
4
70
1
43
0.0
10
0.13239669115651331
20
23.499987134331356
10
-14.999979371528038
20
23.49998308741835
42
-0.99999999999999989
10
-14.999981778438389
20
32.499996855038368
10
0.13239428424616284
20
32.500000901951381
42
-0.99999999999999989
0
ENDSEC
0
SECTION
2
OBJECTS
0
DICTIONARY
5
C
100
AcDbDictionary
3
ACAD_GROUP
350
D
3
ACAD_MLINESTYLE
350
17
0
DICTIONARY
5
D
100
AcDbDictionary
0
DICTIONARY
5
1A
330
C
100
AcDbDictionary
0
DICTIONARY
5
17
100
AcDbDictionary
0
ENDSEC
0
EOF
