solid "Boolean_12"; Produced by Art of Illusion 3.0.2, Thu Dec 15 10:15:02 EST 2016
facet normal  -0.866025403784 -0.5 0
  outer loop
    vertex  7.831491243868 -16.324332213299 0
    vertex  13.777665131762 -26.623407497769 2
    vertex  7.831491243868 -16.324332213299 2
  endloop
endfacet
facet normal  -1 -0 0
  outer loop
    vertex  1.725978888597 1.725978888597 0.4
    vertex  1.725978888597 1.725978888597 0
    vertex  1.725978888597 -16.320026508545 0
  endloop
endfacet
facet normal  -0.923879532511 -0.382683432365 -0
  outer loop
    vertex  20.797 -23.793021111403 0
    vertex  20.797 -23.793021111403 2
    vertex  20.504106781187 -23.085914330216 2
  endloop
endfacet
facet normal  -0.866025403784 -0.5 0
  outer loop
    vertex  7.831491243868 -16.324332213299 0
    vertex  13.777665131762 -26.623407497769 0
    vertex  13.777665131762 -26.623407497769 2
  endloop
endfacet
facet normal  0 -0 1
  outer loop
    vertex  25.238921691022 -26.955771087466 2
    vertex  14.958459836725 -27.174021111403 2
    vertex  24.424401512938 -27.174021111403 2
  endloop
endfacet
facet normal  0 0 -1
  outer loop
    vertex  7.831491243868 -16.324332213299 0
    vertex  1.725978888597 1.725978888597 0
    vertex  27.174021111403 -22.570415894446 0
  endloop
endfacet
facet normal  0.819152044289 0.573576436351 -0
  outer loop
    vertex  27.174021111403 -22.570415894446 2
    vertex  27.174021111403 -22.570415894446 0
    vertex  10.161502332997 1.725978888597 2
  endloop
endfacet
facet normal  0 0 1
  outer loop
    vertex  10.161502332997 1.725978888597 2
    vertex  27.174021111403 -24.602504524427 2
    vertex  27.174021111403 -22.570415894446 2
  endloop
endfacet
facet normal  -0 1 0
  outer loop
    vertex  10.161502332997 1.725978888597 2
    vertex  10.161502332997 1.725978888597 0
    vertex  1.725978888597 1.725978888597 0
  endloop
endfacet
facet normal  0 0 -1
  outer loop
    vertex  14.958459836725 -27.174021111403 0
    vertex  26.48282413802 -26.084781217281 0
    vertex  25.238921691022 -26.955771087466 0
  endloop
endfacet
facet normal  -1 -0 -0
  outer loop
    vertex  1.725978888597 -16.320026508545 0
    vertex  1.725978888597 -16.324767038646 0.4
    vertex  1.725978888597 1.725978888597 0.4
  endloop
endfacet
facet normal  0 0 -1
  outer loop
    vertex  27.174021111403 -22.570415894446 0
    vertex  27.174021111403 -24.602504524427 0
    vertex  26.48282413802 -26.084781217281 0
  endloop
endfacet
facet normal  -0.422618261741 -0.906307787037 0
  outer loop
    vertex  14.958459836725 -27.174021111403 0
    vertex  14.958459836725 -27.174021111403 2
    vertex  13.777665131762 -26.623407497769 2
  endloop
endfacet
facet normal  -0.002014045764 -0.999989989511 0.003995559823
  outer loop
    vertex  6.592237892868 -16.321836275351 2
    vertex  1.725978888597 -16.320026508545 0
    vertex  7.831491243868 -16.324332213299 2
  endloop
endfacet
facet normal  0 -0 -1
  outer loop
    vertex  14.958459836725 -27.174021111403 0
    vertex  25.238921691022 -26.955771087466 0
    vertex  24.424401512938 -27.174021111403 0
  endloop
endfacet
facet normal  -0.422618261741 -0.906307787037 0
  outer loop
    vertex  13.777665131762 -26.623407497769 2
    vertex  13.777665131762 -26.623407497769 0
    vertex  14.958459836725 -27.174021111403 0
  endloop
endfacet
facet normal  0.004498553172 -0.999919662611 -0.011850373148
  outer loop
    vertex  1.725978888597 -16.324767038646 0.4
    vertex  1.725978888597 -16.320026508545 0
    vertex  6.592237892868 -16.321836275351 2
  endloop
endfacet
facet normal  0.258819045103 -0.965925826289 -0
  outer loop
    vertex  24.424401512938 -27.174021111403 2
    vertex  25.238921691022 -26.955771087466 0
    vertex  25.238921691022 -26.955771087466 2
  endloop
endfacet
facet normal  -0 0 1
  outer loop
    vertex  26.48282413802 -26.084781217281 2
    vertex  13.777665131762 -26.623407497769 2
    vertex  14.958459836725 -27.174021111403 2
  endloop
endfacet
facet normal  -0.312344686639 -0 0.949968839872
  outer loop
    vertex  6.592237892868 -16.321836275351 2
    vertex  1.725978888597 1.725978888597 0.4
    vertex  1.725978888597 -16.324767038646 0.4
  endloop
endfacet
facet normal  0 0 -1
  outer loop
    vertex  1.725978888597 1.725978888597 0
    vertex  7.831491243868 -16.324332213299 0
    vertex  1.725978888597 -16.320026508545 0
  endloop
endfacet
facet normal  0.573576436351 -0.819152044289 -0
  outer loop
    vertex  26.48282413802 -26.084781217281 2
    vertex  25.238921691022 -26.955771087466 0
    vertex  26.48282413802 -26.084781217281 0
  endloop
endfacet
facet normal  -0.309388055772 0.000882895 0.950935461239
  outer loop
    vertex  6.592237892868 -16.321836275351 2
    vertex  6.643740610797 1.725978888597 2
    vertex  1.725978888597 1.725978888597 0.4
  endloop
endfacet
facet normal  0.258819045103 -0.965925826289 -0
  outer loop
    vertex  24.424401512938 -27.174021111403 0
    vertex  25.238921691022 -26.955771087466 0
    vertex  24.424401512938 -27.174021111403 2
  endloop
endfacet
facet normal  -0 -0 1
  outer loop
    vertex  23.798347761156 -22.792942531499 2
    vertex  24.505454542343 -23.085835750313 2
    vertex  8.438091468642 -16.137355702409 2
  endloop
endfacet
facet normal  0 -0 1
  outer loop
    vertex  26.48282413802 -26.084781217281 2
    vertex  14.958459836725 -27.174021111403 2
    vertex  25.238921691022 -26.955771087466 2
  endloop
endfacet
facet normal  1 -0 -0
  outer loop
    vertex  27.174021111403 -24.602504524427 0
    vertex  27.174021111403 -22.570415894446 2
    vertex  27.174021111403 -24.602504524427 2
  endloop
endfacet
facet normal  0.906307787037 -0.422618261741 -0
  outer loop
    vertex  27.174021111403 -24.602504524427 2
    vertex  26.48282413802 -26.084781217281 0
    vertex  27.174021111403 -24.602504524427 0
  endloop
endfacet
facet normal  -0 1 0
  outer loop
    vertex  1.725978888597 1.725978888597 0.4
    vertex  6.643740610797 1.725978888597 2
    vertex  1.725978888597 1.725978888597 0
  endloop
endfacet
facet normal  1 -0 -0
  outer loop
    vertex  27.174021111403 -22.570415894446 2
    vertex  27.174021111403 -24.602504524427 0
    vertex  27.174021111403 -22.570415894446 0
  endloop
endfacet
facet normal  0.573576436351 -0.819152044289 -0
  outer loop
    vertex  26.48282413802 -26.084781217281 2
    vertex  25.238921691022 -26.955771087466 2
    vertex  25.238921691022 -26.955771087466 0
  endloop
endfacet
facet normal  0.819152044289 0.573576436351 0
  outer loop
    vertex  10.161502332997 1.725978888597 2
    vertex  27.174021111403 -22.570415894446 0
    vertex  10.161502332997 1.725978888597 0
  endloop
endfacet
facet normal  0 0 -1
  outer loop
    vertex  27.174021111403 -22.570415894446 0
    vertex  1.725978888597 1.725978888597 0
    vertex  10.161502332997 1.725978888597 0
  endloop
endfacet
facet normal  -0 -1 -0
  outer loop
    vertex  24.424401512938 -27.174021111403 0
    vertex  24.424401512938 -27.174021111403 2
    vertex  14.958459836725 -27.174021111403 2
  endloop
endfacet
facet normal  -0.000705215784 -0.999999751335 0
  outer loop
    vertex  1.725978888597 -16.320026508545 0
    vertex  7.831491243868 -16.324332213299 0
    vertex  7.831491243868 -16.324332213299 2
  endloop
endfacet
facet normal  0.965925826289 -0.258819045103 -0
  outer loop
    vertex  9.610914599901 -11.760320188257 2
    vertex  9.610914599901 -11.760320188257 8.583630818338
    vertex  8.438091468642 -16.137355702409 8.583630818338
  endloop
endfacet
facet normal  -0 0 -1
  outer loop
    vertex  26.48282413802 -26.084781217281 0
    vertex  14.958459836725 -27.174021111403 0
    vertex  13.777665131762 -26.623407497769 0
  endloop
endfacet
facet normal  0.906307787037 -0.422618261741 -0
  outer loop
    vertex  27.174021111403 -24.602504524427 2
    vertex  26.48282413802 -26.084781217281 2
    vertex  26.48282413802 -26.084781217281 0
  endloop
endfacet
facet normal  -0 1 0
  outer loop
    vertex  1.725978888597 1.725978888597 0
    vertex  6.643740610797 1.725978888597 2
    vertex  10.161502332997 1.725978888597 2
  endloop
endfacet
facet normal  0 -1 0
  outer loop
    vertex  24.424401512938 -27.174021111403 0
    vertex  14.958459836725 -27.174021111403 2
    vertex  14.958459836725 -27.174021111403 0
  endloop
endfacet
facet normal  0 0 1
  outer loop
    vertex  9.610914599901 -11.760320188257 8.583630818338
    vertex  8.475897108167 1.615522559124 8.583630818338
    vertex  7.923378643482 1.615522559124 8.583630818338
  endloop
endfacet
facet normal  0.382683432365 -0.923879532511 0
  outer loop
    vertex  23.798347761156 -22.792942531499 0
    vertex  23.798347761156 -22.792942531499 2
    vertex  23.09124097997 -23.085835750313 2
  endloop
endfacet
facet normal  -0 -0 1
  outer loop
    vertex  27.174021111403 -24.602504524427 2
    vertex  9.610914599901 -11.760320188257 2
    vertex  24.505454542343 -23.085835750313 2
  endloop
endfacet
facet normal  0 0 1
  outer loop
    vertex  9.610914599901 -2.620420387507 8.583630818338
    vertex  8.475897108167 1.615522559124 8.583630818338
    vertex  9.610914599901 -11.760320188257 8.583630818338
  endloop
endfacet
facet normal  0.965925826289 0.258819045103 0
  outer loop
    vertex  9.610914599901 -2.620420387507 8.583630818338
    vertex  9.610914599901 -2.620420387507 2
    vertex  8.475897108167 1.615522559124 2
  endloop
endfacet
facet normal  0 -1 0
  outer loop
    vertex  8.438091468642 -16.137355702409 2
    vertex  8.438091468642 -16.137355702409 8.583630818338
    vertex  7.923378643482 -16.137355702409 8.583630818338
  endloop
endfacet
facet normal  -0 0 1
  outer loop
    vertex  6.592237892868 -16.321836275351 2
    vertex  7.831491243868 -16.324332213299 2
    vertex  7.923378643482 1.615522559124 2
  endloop
endfacet
facet normal  0 0 1
  outer loop
    vertex  7.831491243868 -16.324332213299 2
    vertex  7.923378643482 -16.137355702409 2
    vertex  7.923378643482 1.615522559124 2
  endloop
endfacet
facet normal  -0 0 1
  outer loop
    vertex  9.610914599901 -2.620420387507 2
    vertex  10.161502332997 1.725978888597 2
    vertex  8.475897108167 1.615522559124 2
  endloop
endfacet
facet normal  -0 0 1
  outer loop
    vertex  7.923378643482 1.615522559124 2
    vertex  6.643740610797 1.725978888597 2
    vertex  6.592237892868 -16.321836275351 2
  endloop
endfacet
facet normal  0.382683432365 -0.923879532511 0
  outer loop
    vertex  23.798347761156 -22.792942531499 0
    vertex  23.09124097997 -23.085835750313 2
    vertex  23.09124097997 -23.085835750313 0
  endloop
endfacet
facet normal  1 0 0
  outer loop
    vertex  9.610914599901 -11.760320188257 2
    vertex  9.610914599901 -2.620420387507 2
    vertex  9.610914599901 -2.620420387507 8.583630818338
  endloop
endfacet
facet normal  -0 1 0
  outer loop
    vertex  7.923378643482 1.615522559124 2
    vertex  7.923378643482 1.615522559124 8.583630818338
    vertex  8.475897108167 1.615522559124 2
  endloop
endfacet
facet normal  1 0 -0
  outer loop
    vertex  9.610914599901 -11.760320188257 2
    vertex  9.610914599901 -2.620420387507 8.583630818338
    vertex  9.610914599901 -11.760320188257 8.583630818338
  endloop
endfacet
facet normal  -0 0 1
  outer loop
    vertex  10.161502332997 1.725978888597 2
    vertex  6.643740610797 1.725978888597 2
    vertex  7.923378643482 1.615522559124 2
  endloop
endfacet
facet normal  -0 1 -0
  outer loop
    vertex  8.475897108167 1.615522559124 8.583630818338
    vertex  8.475897108167 1.615522559124 2
    vertex  7.923378643482 1.615522559124 8.583630818338
  endloop
endfacet
facet normal  0 -0 1
  outer loop
    vertex  10.161502332997 1.725978888597 2
    vertex  7.923378643482 1.615522559124 2
    vertex  8.475897108167 1.615522559124 2
  endloop
endfacet
facet normal  -1 -0 0
  outer loop
    vertex  7.923378643482 -16.137355702409 8.583630818338
    vertex  7.923378643482 1.615522559124 8.583630818338
    vertex  7.923378643482 -16.137355702409 2
  endloop
endfacet
facet normal  -0 -1 0
  outer loop
    vertex  7.923378643482 -16.137355702409 8.583630818338
    vertex  7.923378643482 -16.137355702409 2
    vertex  8.438091468642 -16.137355702409 2
  endloop
endfacet
facet normal  0 0 1
  outer loop
    vertex  8.438091468642 -16.137355702409 8.583630818338
    vertex  9.610914599901 -11.760320188257 8.583630818338
    vertex  7.923378643482 -16.137355702409 8.583630818338
  endloop
endfacet
facet normal  0 0 1
  outer loop
    vertex  9.610914599901 -11.760320188257 2
    vertex  10.161502332997 1.725978888597 2
    vertex  9.610914599901 -2.620420387507 2
  endloop
endfacet
facet normal  0.965925826289 -0.258819045103 0
  outer loop
    vertex  8.438091468642 -16.137355702409 8.583630818338
    vertex  8.438091468642 -16.137355702409 2
    vertex  9.610914599901 -11.760320188257 2
  endloop
endfacet
facet normal  -0 0 1
  outer loop
    vertex  27.174021111403 -24.602504524427 2
    vertex  10.161502332997 1.725978888597 2
    vertex  9.610914599901 -11.760320188257 2
  endloop
endfacet
facet normal  0 0 1
  outer loop
    vertex  7.923378643482 1.615522559124 8.583630818338
    vertex  7.923378643482 -16.137355702409 8.583630818338
    vertex  9.610914599901 -11.760320188257 8.583630818338
  endloop
endfacet
facet normal  -1 -0 0
  outer loop
    vertex  7.923378643482 1.615522559124 2
    vertex  7.923378643482 -16.137355702409 2
    vertex  7.923378643482 1.615522559124 8.583630818338
  endloop
endfacet
facet normal  0.965925826289 0.258819045103 -0
  outer loop
    vertex  9.610914599901 -2.620420387507 8.583630818338
    vertex  8.475897108167 1.615522559124 2
    vertex  8.475897108167 1.615522559124 8.583630818338
  endloop
endfacet
facet normal  -0.382683432365 0.923879532511 0
  outer loop
    vertex  23.798347761156 -24.792942531499 0
    vertex  24.505454542343 -24.500049312686 2
    vertex  24.505454542343 -24.500049312686 0
  endloop
endfacet
facet normal  0 -0 -1
  outer loop
    vertex  20.797 -23.793021111403 0
    vertex  20.504106781187 -23.085914330216 0
    vertex  23.798347761156 -22.792942531499 0
  endloop
endfacet
facet normal  0 0 -1
  outer loop
    vertex  23.798347761156 -24.792942531499 0
    vertex  24.505454542343 -24.500049312686 0
    vertex  26.48282413802 -26.084781217281 0
  endloop
endfacet
facet normal  -0 -0 1
  outer loop
    vertex  22.798347761156 -23.792942531499 2
    vertex  23.09124097997 -23.085835750313 2
    vertex  7.831491243868 -16.324332213299 2
  endloop
endfacet
facet normal  0 -0 -1
  outer loop
    vertex  23.09124097997 -24.500049312686 0
    vertex  13.777665131762 -26.623407497769 0
    vertex  19.797 -24.793021111403 0
  endloop
endfacet
facet normal  -0.923879532511 -0.382683432365 0
  outer loop
    vertex  24.798347761156 -23.792942531499 0
    vertex  24.798347761156 -23.792942531499 2
    vertex  24.505454542343 -23.085835750313 0
  endloop
endfacet
facet normal  0 -0 -1
  outer loop
    vertex  26.48282413802 -26.084781217281 0
    vertex  13.777665131762 -26.623407497769 0
    vertex  23.798347761156 -24.792942531499 0
  endloop
endfacet
facet normal  0 0 -1
  outer loop
    vertex  27.174021111403 -22.570415894446 0
    vertex  26.48282413802 -26.084781217281 0
    vertex  24.798347761156 -23.792942531499 0
  endloop
endfacet
facet normal  0.382683432365 0.923879532511 0
  outer loop
    vertex  23.798347761156 -24.792942531499 2
    vertex  23.09124097997 -24.500049312686 0
    vertex  23.09124097997 -24.500049312686 2
  endloop
endfacet
facet normal  0.923879532511 0.382683432365 0
  outer loop
    vertex  23.09124097997 -24.500049312686 2
    vertex  23.09124097997 -24.500049312686 0
    vertex  22.798347761156 -23.792942531499 2
  endloop
endfacet
facet normal  0.923879532511 -0.382683432365 0
  outer loop
    vertex  23.09124097997 -23.085835750313 2
    vertex  22.798347761156 -23.792942531499 0
    vertex  23.09124097997 -23.085835750313 0
  endloop
endfacet
facet normal  -0 0 1
  outer loop
    vertex  13.777665131762 -26.623407497769 2
    vertex  26.48282413802 -26.084781217281 2
    vertex  23.09124097997 -24.500049312686 2
  endloop
endfacet
facet normal  0 0 1
  outer loop
    vertex  24.798347761156 -23.792942531499 2
    vertex  24.505454542343 -24.500049312686 2
    vertex  26.48282413802 -26.084781217281 2
  endloop
endfacet
facet normal  0.923879532511 0.382683432365 0
  outer loop
    vertex  22.798347761156 -23.792942531499 2
    vertex  23.09124097997 -24.500049312686 0
    vertex  22.798347761156 -23.792942531499 0
  endloop
endfacet
facet normal  -0 0 -1
  outer loop
    vertex  23.09124097997 -23.085835750313 0
    vertex  20.504106781187 -24.500127892589 0
    vertex  20.797 -23.793021111403 0
  endloop
endfacet
facet normal  0 0 1
  outer loop
    vertex  24.505454542343 -23.085835750313 2
    vertex  24.798347761156 -23.792942531499 2
    vertex  27.174021111403 -24.602504524427 2
  endloop
endfacet
facet normal  0 -0 -1
  outer loop
    vertex  24.798347761156 -23.792942531499 0
    vertex  24.505454542343 -23.085835750313 0
    vertex  27.174021111403 -22.570415894446 0
  endloop
endfacet
facet normal  0 0 1
  outer loop
    vertex  23.798347761156 -24.792942531499 2
    vertex  26.48282413802 -26.084781217281 2
    vertex  24.505454542343 -24.500049312686 2
  endloop
endfacet
facet normal  0 0 1
  outer loop
    vertex  7.831491243868 -16.324332213299 2
    vertex  23.09124097997 -23.085835750313 2
    vertex  7.923378643482 -16.137355702409 2
  endloop
endfacet
facet normal  -0 -0 1
  outer loop
    vertex  23.798347761156 -24.792942531499 2
    vertex  23.09124097997 -24.500049312686 2
    vertex  26.48282413802 -26.084781217281 2
  endloop
endfacet
facet normal  0 0 1
  outer loop
    vertex  8.438091468642 -16.137355702409 2
    vertex  23.09124097997 -23.085835750313 2
    vertex  23.798347761156 -22.792942531499 2
  endloop
endfacet
facet normal  0 0 1
  outer loop
    vertex  9.610914599901 -11.760320188257 2
    vertex  8.438091468642 -16.137355702409 2
    vertex  24.505454542343 -23.085835750313 2
  endloop
endfacet
facet normal  0 0 1
  outer loop
    vertex  7.923378643482 -16.137355702409 2
    vertex  23.09124097997 -23.085835750313 2
    vertex  8.438091468642 -16.137355702409 2
  endloop
endfacet
facet normal  -0.382683432365 -0.923879532511 0
  outer loop
    vertex  24.505454542343 -23.085835750313 0
    vertex  24.505454542343 -23.085835750313 2
    vertex  23.798347761156 -22.792942531499 0
  endloop
endfacet
facet normal  0 0 -1
  outer loop
    vertex  7.831491243868 -16.324332213299 0
    vertex  27.174021111403 -22.570415894446 0
    vertex  23.798347761156 -22.792942531499 0
  endloop
endfacet
facet normal  0 -0 -1
  outer loop
    vertex  27.174021111403 -22.570415894446 0
    vertex  24.505454542343 -23.085835750313 0
    vertex  23.798347761156 -22.792942531499 0
  endloop
endfacet
facet normal  -0.923879532511 -0.382683432365 -0
  outer loop
    vertex  20.797 -23.793021111403 0
    vertex  20.504106781187 -23.085914330216 2
    vertex  20.504106781187 -23.085914330216 0
  endloop
endfacet
facet normal  0 0 -1
  outer loop
    vertex  24.505454542343 -24.500049312686 0
    vertex  24.798347761156 -23.792942531499 0
    vertex  26.48282413802 -26.084781217281 0
  endloop
endfacet
facet normal  0.382683432365 0.923879532511 0
  outer loop
    vertex  23.798347761156 -24.792942531499 2
    vertex  23.798347761156 -24.792942531499 0
    vertex  23.09124097997 -24.500049312686 0
  endloop
endfacet
facet normal  0.923879532511 -0.382683432365 0
  outer loop
    vertex  22.798347761156 -23.792942531499 2
    vertex  22.798347761156 -23.792942531499 0
    vertex  23.09124097997 -23.085835750313 2
  endloop
endfacet
facet normal  -0.382683432365 -0.923879532511 0
  outer loop
    vertex  23.798347761156 -22.792942531499 0
    vertex  24.505454542343 -23.085835750313 2
    vertex  23.798347761156 -22.792942531499 2
  endloop
endfacet
facet normal  -0 0 -1
  outer loop
    vertex  23.798347761156 -24.792942531499 0
    vertex  13.777665131762 -26.623407497769 0
    vertex  23.09124097997 -24.500049312686 0
  endloop
endfacet
facet normal  -0.923879532511 -0.382683432365 0
  outer loop
    vertex  24.505454542343 -23.085835750313 0
    vertex  24.798347761156 -23.792942531499 2
    vertex  24.505454542343 -23.085835750313 2
  endloop
endfacet
facet normal  -0.923879532511 0.382683432365 0
  outer loop
    vertex  24.798347761156 -23.792942531499 0
    vertex  24.505454542343 -24.500049312686 2
    vertex  24.798347761156 -23.792942531499 2
  endloop
endfacet
facet normal  -0.382683432365 0.923879532511 -0
  outer loop
    vertex  23.798347761156 -24.792942531499 0
    vertex  23.798347761156 -24.792942531499 2
    vertex  24.505454542343 -24.500049312686 2
  endloop
endfacet
facet normal  -0.923879532511 0.382683432365 0
  outer loop
    vertex  24.505454542343 -24.500049312686 2
    vertex  24.798347761156 -23.792942531499 0
    vertex  24.505454542343 -24.500049312686 0
  endloop
endfacet
facet normal  -0 0 1
  outer loop
    vertex  26.48282413802 -26.084781217281 2
    vertex  27.174021111403 -24.602504524427 2
    vertex  24.798347761156 -23.792942531499 2
  endloop
endfacet
facet normal  -0 -0 1
  outer loop
    vertex  23.09124097997 -24.500049312686 2
    vertex  22.798347761156 -23.792942531499 2
    vertex  20.504106781187 -23.085914330216 2
  endloop
endfacet
facet normal  0 0 1
  outer loop
    vertex  22.798347761156 -23.792942531499 2
    vertex  7.831491243868 -16.324332213299 2
    vertex  20.504106781187 -23.085914330216 2
  endloop
endfacet
facet normal  0.923879532511 0.382683432365 -0
  outer loop
    vertex  18.797 -23.793021111403 0
    vertex  18.797 -23.793021111403 2
    vertex  19.089893218813 -24.500127892589 2
  endloop
endfacet
facet normal  -0 0 -1
  outer loop
    vertex  19.089893218813 -24.500127892589 0
    vertex  19.797 -24.793021111403 0
    vertex  13.777665131762 -26.623407497769 0
  endloop
endfacet
facet normal  0 -0 -1
  outer loop
    vertex  22.798347761156 -23.792942531499 0
    vertex  20.504106781187 -24.500127892589 0
    vertex  23.09124097997 -23.085835750313 0
  endloop
endfacet
facet normal  -0 -0 -1
  outer loop
    vertex  7.831491243868 -16.324332213299 0
    vertex  19.797 -22.793021111403 0
    vertex  19.089893218813 -23.085914330216 0
  endloop
endfacet
facet normal  0 -0 1
  outer loop
    vertex  19.089893218813 -24.500127892589 2
    vertex  18.797 -23.793021111403 2
    vertex  13.777665131762 -26.623407497769 2
  endloop
endfacet
facet normal  0 -0 -1
  outer loop
    vertex  23.09124097997 -24.500049312686 0
    vertex  19.797 -24.793021111403 0
    vertex  22.798347761156 -23.792942531499 0
  endloop
endfacet
facet normal  -0 0 1
  outer loop
    vertex  18.797 -23.793021111403 2
    vertex  19.089893218813 -23.085914330216 2
    vertex  13.777665131762 -26.623407497769 2
  endloop
endfacet
facet normal  -0 -0 1
  outer loop
    vertex  20.504106781187 -23.085914330216 2
    vertex  7.831491243868 -16.324332213299 2
    vertex  19.797 -22.793021111403 2
  endloop
endfacet
facet normal  -0 0 1
  outer loop
    vertex  13.777665131762 -26.623407497769 2
    vertex  23.09124097997 -24.500049312686 2
    vertex  19.797 -24.793021111403 2
  endloop
endfacet
facet normal  0 -0 1
  outer loop
    vertex  19.797 -24.793021111403 2
    vertex  19.089893218813 -24.500127892589 2
    vertex  13.777665131762 -26.623407497769 2
  endloop
endfacet
facet normal  -0 0 -1
  outer loop
    vertex  23.09124097997 -23.085835750313 0
    vertex  20.797 -23.793021111403 0
    vertex  23.798347761156 -22.792942531499 0
  endloop
endfacet
facet normal  0 -0 -1
  outer loop
    vertex  20.504106781187 -23.085914330216 0
    vertex  19.797 -22.793021111403 0
    vertex  23.798347761156 -22.792942531499 0
  endloop
endfacet
facet normal  0.923879532511 -0.382683432365 0
  outer loop
    vertex  19.089893218813 -23.085914330216 2
    vertex  18.797 -23.793021111403 0
    vertex  19.089893218813 -23.085914330216 0
  endloop
endfacet
facet normal  0 0 -1
  outer loop
    vertex  23.798347761156 -22.792942531499 0
    vertex  19.797 -22.793021111403 0
    vertex  7.831491243868 -16.324332213299 0
  endloop
endfacet
facet normal  0.382683432365 -0.923879532511 -0
  outer loop
    vertex  19.089893218813 -23.085914330216 2
    vertex  19.089893218813 -23.085914330216 0
    vertex  19.797 -22.793021111403 0
  endloop
endfacet
facet normal  -0.382683432365 0.923879532511 0
  outer loop
    vertex  19.797 -24.793021111403 0
    vertex  19.797 -24.793021111403 2
    vertex  20.504106781187 -24.500127892589 2
  endloop
endfacet
facet normal  -0.923879532511 0.382683432365 0
  outer loop
    vertex  20.504106781187 -24.500127892589 2
    vertex  20.797 -23.793021111403 0
    vertex  20.504106781187 -24.500127892589 0
  endloop
endfacet
facet normal  -0.382683432365 -0.923879532511 0
  outer loop
    vertex  20.504106781187 -23.085914330216 0
    vertex  20.504106781187 -23.085914330216 2
    vertex  19.797 -22.793021111403 0
  endloop
endfacet
facet normal  0.382683432365 0.923879532511 0
  outer loop
    vertex  19.797 -24.793021111403 2
    vertex  19.797 -24.793021111403 0
    vertex  19.089893218813 -24.500127892589 2
  endloop
endfacet
facet normal  -0 0 -1
  outer loop
    vertex  19.089893218813 -23.085914330216 0
    vertex  18.797 -23.793021111403 0
    vertex  13.777665131762 -26.623407497769 0
  endloop
endfacet
facet normal  -0.382683432365 -0.923879532511 0
  outer loop
    vertex  19.797 -22.793021111403 0
    vertex  20.504106781187 -23.085914330216 2
    vertex  19.797 -22.793021111403 2
  endloop
endfacet
facet normal  0.923879532511 0.382683432365 -0
  outer loop
    vertex  18.797 -23.793021111403 0
    vertex  19.089893218813 -24.500127892589 2
    vertex  19.089893218813 -24.500127892589 0
  endloop
endfacet
facet normal  0.923879532511 -0.382683432365 -0
  outer loop
    vertex  18.797 -23.793021111403 2
    vertex  18.797 -23.793021111403 0
    vertex  19.089893218813 -23.085914330216 2
  endloop
endfacet
facet normal  0 -0 -1
  outer loop
    vertex  20.504106781187 -24.500127892589 0
    vertex  22.798347761156 -23.792942531499 0
    vertex  19.797 -24.793021111403 0
  endloop
endfacet
facet normal  0.382683432365 -0.923879532511 -0
  outer loop
    vertex  19.797 -22.793021111403 0
    vertex  19.797 -22.793021111403 2
    vertex  19.089893218813 -23.085914330216 2
  endloop
endfacet
facet normal  -0 -0 1
  outer loop
    vertex  7.831491243868 -16.324332213299 2
    vertex  19.089893218813 -23.085914330216 2
    vertex  19.797 -22.793021111403 2
  endloop
endfacet
facet normal  0 -0 -1
  outer loop
    vertex  19.089893218813 -23.085914330216 0
    vertex  13.777665131762 -26.623407497769 0
    vertex  16.504314267753 -24.500127892589 0
  endloop
endfacet
facet normal  -0 -0 1
  outer loop
    vertex  20.504106781187 -23.085914330216 2
    vertex  20.797 -23.793021111403 2
    vertex  23.09124097997 -24.500049312686 2
  endloop
endfacet
facet normal  -0.382683432365 0.923879532511 0
  outer loop
    vertex  20.504106781187 -24.500127892589 2
    vertex  20.504106781187 -24.500127892589 0
    vertex  19.797 -24.793021111403 0
  endloop
endfacet
facet normal  0 -0 1
  outer loop
    vertex  13.777665131762 -26.623407497769 2
    vertex  19.089893218813 -23.085914330216 2
    vertex  16.504314267754 -24.500127892589 2
  endloop
endfacet
facet normal  0 0 1
  outer loop
    vertex  20.797 -23.793021111403 2
    vertex  20.504106781187 -24.500127892589 2
    vertex  23.09124097997 -24.500049312686 2
  endloop
endfacet
facet normal  0 -0 1
  outer loop
    vertex  20.504106781187 -24.500127892589 2
    vertex  19.797 -24.793021111403 2
    vertex  23.09124097997 -24.500049312686 2
  endloop
endfacet
facet normal  -0.923879532511 0.382683432365 -0
  outer loop
    vertex  20.797 -23.793021111403 0
    vertex  20.504106781187 -24.500127892589 2
    vertex  20.797 -23.793021111403 2
  endloop
endfacet
facet normal  0.382683432365 0.923879532511 -0
  outer loop
    vertex  19.089893218813 -24.500127892589 2
    vertex  19.797 -24.793021111403 0
    vertex  19.089893218813 -24.500127892589 0
  endloop
endfacet
facet normal  0 -0 -1
  outer loop
    vertex  19.089893218813 -24.500127892589 0
    vertex  13.777665131762 -26.623407497769 0
    vertex  18.797 -23.793021111403 0
  endloop
endfacet
facet normal  0 0 -1
  outer loop
    vertex  16.504314267753 -23.085914330216 0
    vertex  15.797207486567 -22.793021111403 0
    vertex  19.089893218813 -23.085914330216 0
  endloop
endfacet
facet normal  0 -0 1
  outer loop
    vertex  7.831491243868 -16.324332213299 2
    vertex  13.777665131762 -26.623407497769 2
    vertex  14.797207486567 -23.793021111403 2
  endloop
endfacet
facet normal  0 0 -1
  outer loop
    vertex  19.089893218813 -23.085914330216 0
    vertex  15.797207486567 -22.793021111403 0
    vertex  7.831491243868 -16.324332213299 0
  endloop
endfacet
facet normal  0.923879532511 0.382683432365 0
  outer loop
    vertex  14.797207486567 -23.793021111403 2
    vertex  15.09010070538 -24.500127892589 0
    vertex  14.797207486567 -23.793021111403 0
  endloop
endfacet
facet normal  -0.382683432365 0.923879532511 0
  outer loop
    vertex  15.797207486567 -24.793021111403 0
    vertex  15.797207486567 -24.793021111403 2
    vertex  16.504314267754 -24.500127892589 2
  endloop
endfacet
facet normal  -0.382683432365 0.923879532511 0
  outer loop
    vertex  15.797207486567 -24.793021111403 0
    vertex  16.504314267754 -24.500127892589 2
    vertex  16.504314267753 -24.500127892589 0
  endloop
endfacet
facet normal  -0 -0 -1
  outer loop
    vertex  14.797207486567 -23.793021111403 0
    vertex  15.09010070538 -24.500127892589 0
    vertex  13.777665131762 -26.623407497769 0
  endloop
endfacet
facet normal  0 -0 1
  outer loop
    vertex  15.09010070538 -24.500127892589 2
    vertex  14.797207486567 -23.793021111403 2
    vertex  13.777665131762 -26.623407497769 2
  endloop
endfacet
facet normal  -0 -0 -1
  outer loop
    vertex  15.797207486567 -22.793021111403 0
    vertex  15.09010070538 -23.085914330216 0
    vertex  7.831491243868 -16.324332213299 0
  endloop
endfacet
facet normal  -0 0 -1
  outer loop
    vertex  19.089893218813 -23.085914330216 0
    vertex  16.504314267753 -24.500127892589 0
    vertex  16.797207486567 -23.793021111403 0
  endloop
endfacet
facet normal  -0.923879532511 0.382683432365 0
  outer loop
    vertex  16.504314267753 -24.500127892589 0
    vertex  16.504314267754 -24.500127892589 2
    vertex  16.797207486567 -23.793021111403 2
  endloop
endfacet
facet normal  0 -0 1
  outer loop
    vertex  15.09010070538 -23.085914330216 2
    vertex  15.797207486567 -22.793021111403 2
    vertex  7.831491243868 -16.324332213299 2
  endloop
endfacet
facet normal  0 -0 1
  outer loop
    vertex  19.089893218813 -23.085914330216 2
    vertex  7.831491243868 -16.324332213299 2
    vertex  15.797207486567 -22.793021111403 2
  endloop
endfacet
facet normal  -0.923879532511 -0.382683432365 0
  outer loop
    vertex  16.797207486567 -23.793021111403 0
    vertex  16.797207486567 -23.793021111403 2
    vertex  16.504314267753 -23.085914330216 0
  endloop
endfacet
facet normal  0 -0 1
  outer loop
    vertex  16.504314267753 -23.085914330216 2
    vertex  16.797207486567 -23.793021111403 2
    vertex  19.089893218813 -23.085914330216 2
  endloop
endfacet
facet normal  -0 0 1
  outer loop
    vertex  16.797207486567 -23.793021111403 2
    vertex  16.504314267754 -24.500127892589 2
    vertex  19.089893218813 -23.085914330216 2
  endloop
endfacet
facet normal  0 0 1
  outer loop
    vertex  14.797207486567 -23.793021111403 2
    vertex  15.09010070538 -23.085914330216 2
    vertex  7.831491243868 -16.324332213299 2
  endloop
endfacet
facet normal  -0 -0 -1
  outer loop
    vertex  15.09010070538 -23.085914330216 0
    vertex  14.797207486567 -23.793021111403 0
    vertex  7.831491243868 -16.324332213299 0
  endloop
endfacet
facet normal  0.382683432365 -0.923879532511 0
  outer loop
    vertex  15.09010070538 -23.085914330216 0
    vertex  15.797207486567 -22.793021111403 2
    vertex  15.09010070538 -23.085914330216 2
  endloop
endfacet
facet normal  0.382683432365 -0.923879532511 -0
  outer loop
    vertex  15.797207486567 -22.793021111403 0
    vertex  15.797207486567 -22.793021111403 2
    vertex  15.09010070538 -23.085914330216 0
  endloop
endfacet
facet normal  0 0 1
  outer loop
    vertex  15.797207486567 -22.793021111403 2
    vertex  16.504314267753 -23.085914330216 2
    vertex  19.089893218813 -23.085914330216 2
  endloop
endfacet
facet normal  -0.923879532511 0.382683432365 0
  outer loop
    vertex  16.797207486567 -23.793021111403 2
    vertex  16.797207486567 -23.793021111403 0
    vertex  16.504314267753 -24.500127892589 0
  endloop
endfacet
facet normal  0.382683432365 0.923879532511 0
  outer loop
    vertex  15.09010070538 -24.500127892589 2
    vertex  15.797207486567 -24.793021111403 2
    vertex  15.797207486567 -24.793021111403 0
  endloop
endfacet
facet normal  0.923879532511 -0.382683432365 0
  outer loop
    vertex  15.09010070538 -23.085914330216 2
    vertex  14.797207486567 -23.793021111403 0
    vertex  15.09010070538 -23.085914330216 0
  endloop
endfacet
facet normal  0.382683432365 0.923879532511 -0
  outer loop
    vertex  15.09010070538 -24.500127892589 0
    vertex  15.09010070538 -24.500127892589 2
    vertex  15.797207486567 -24.793021111403 0
  endloop
endfacet
facet normal  -0.923879532511 -0.382683432365 -0
  outer loop
    vertex  16.504314267753 -23.085914330216 0
    vertex  16.797207486567 -23.793021111403 2
    vertex  16.504314267753 -23.085914330216 2
  endloop
endfacet
facet normal  -0.382683432365 -0.923879532511 -0
  outer loop
    vertex  15.797207486567 -22.793021111403 2
    vertex  15.797207486567 -22.793021111403 0
    vertex  16.504314267753 -23.085914330216 2
  endloop
endfacet
facet normal  0 -0 -1
  outer loop
    vertex  15.797207486567 -24.793021111403 0
    vertex  16.504314267753 -24.500127892589 0
    vertex  13.777665131762 -26.623407497769 0
  endloop
endfacet
facet normal  -0 0 1
  outer loop
    vertex  15.09010070538 -24.500127892589 2
    vertex  13.777665131762 -26.623407497769 2
    vertex  15.797207486567 -24.793021111403 2
  endloop
endfacet
facet normal  0 -0 -1
  outer loop
    vertex  16.797207486567 -23.793021111403 0
    vertex  16.504314267753 -23.085914330216 0
    vertex  19.089893218813 -23.085914330216 0
  endloop
endfacet
facet normal  -0.382683432365 -0.923879532511 -0
  outer loop
    vertex  16.504314267753 -23.085914330216 2
    vertex  15.797207486567 -22.793021111403 0
    vertex  16.504314267753 -23.085914330216 0
  endloop
endfacet
facet normal  0 -0 1
  outer loop
    vertex  16.504314267754 -24.500127892589 2
    vertex  15.797207486567 -24.793021111403 2
    vertex  13.777665131762 -26.623407497769 2
  endloop
endfacet
facet normal  0.923879532511 -0.382683432365 -0
  outer loop
    vertex  14.797207486567 -23.793021111403 2
    vertex  14.797207486567 -23.793021111403 0
    vertex  15.09010070538 -23.085914330216 2
  endloop
endfacet
facet normal  -0 -0 -1
  outer loop
    vertex  13.777665131762 -26.623407497769 0
    vertex  7.831491243868 -16.324332213299 0
    vertex  14.797207486567 -23.793021111403 0
  endloop
endfacet
facet normal  -0 0 -1
  outer loop
    vertex  15.797207486567 -24.793021111403 0
    vertex  13.777665131762 -26.623407497769 0
    vertex  15.09010070538 -24.500127892589 0
  endloop
endfacet
facet normal  0.923879532511 0.382683432365 -0
  outer loop
    vertex  15.09010070538 -24.500127892589 2
    vertex  15.09010070538 -24.500127892589 0
    vertex  14.797207486567 -23.793021111403 2
  endloop
endfacet
endsolid
