solid OpenSCAD_Model
  facet normal 1 0 0
    outer loop
      vertex 10 1.25148 4.54709
      vertex 10 0 5
      vertex 10 1.25148 4.45291
    endloop
  endfacet
  facet normal 1 0 0
    outer loop
      vertex 10 1.26328 4.64054
      vertex 10 0 5
      vertex 10 1.25148 4.54709
    endloop
  endfacet
  facet normal 1 0 0
    outer loop
      vertex 10 1.28671 4.73176
      vertex 10 0 5
      vertex 10 1.26328 4.64054
    endloop
  endfacet
  facet normal 1 0 0
    outer loop
      vertex 10 1.32138 4.81933
      vertex 10 0 5
      vertex 10 1.28671 4.73176
    endloop
  endfacet
  facet normal 1 0 0
    outer loop
      vertex 10 1.36675 4.90187
      vertex 10 0 5
      vertex 10 1.32138 4.81933
    endloop
  endfacet
  facet normal 1 0 0
    outer loop
      vertex 10 1.42211 4.97807
      vertex 10 0 5
      vertex 10 1.36675 4.90187
    endloop
  endfacet
  facet normal 1 -0 0
    outer loop
      vertex 10 0 5
      vertex 10 1.42211 4.97807
      vertex 10 1.44271 5
    endloop
  endfacet
  facet normal 1 0 0
    outer loop
      vertex 10 2.74852 4.45291
      vertex 10 4 5
      vertex 10 2.74852 4.54709
    endloop
  endfacet
  facet normal 1 0 0
    outer loop
      vertex 10 4 5
      vertex 10 2.73672 4.64054
      vertex 10 2.74852 4.54709
    endloop
  endfacet
  facet normal 1 0 0
    outer loop
      vertex 10 4 5
      vertex 10 2.71329 4.73176
      vertex 10 2.73672 4.64054
    endloop
  endfacet
  facet normal 1 0 0
    outer loop
      vertex 10 4 5
      vertex 10 2.67862 4.81933
      vertex 10 2.71329 4.73176
    endloop
  endfacet
  facet normal 1 0 0
    outer loop
      vertex 10 4 5
      vertex 10 2.63325 4.90187
      vertex 10 2.67862 4.81933
    endloop
  endfacet
  facet normal 1 0 0
    outer loop
      vertex 10 4 5
      vertex 10 2.57788 4.97807
      vertex 10 2.63325 4.90187
    endloop
  endfacet
  facet normal 1 0 -0
    outer loop
      vertex 10 2.57788 4.97807
      vertex 10 4 5
      vertex 10 2.55729 5
    endloop
  endfacet
  facet normal 1 0 0
    outer loop
      vertex 10 2.73672 4.35946
      vertex 10 4 5
      vertex 10 2.74852 4.45291
    endloop
  endfacet
  facet normal 1 0 0
    outer loop
      vertex 10 2.71329 4.26824
      vertex 10 4 5
      vertex 10 2.73672 4.35946
    endloop
  endfacet
  facet normal 1 0 0
    outer loop
      vertex 10 2.67862 4.18067
      vertex 10 4 5
      vertex 10 2.71329 4.26824
    endloop
  endfacet
  facet normal 1 0 0
    outer loop
      vertex 10 2.63325 4.09813
      vertex 10 4 5
      vertex 10 2.67862 4.18067
    endloop
  endfacet
  facet normal 1 0 0
    outer loop
      vertex 10 4 5
      vertex 10 2.63325 4.09813
      vertex 10 4 1.5
    endloop
  endfacet
  facet normal 1 -0 0
    outer loop
      vertex 10 2.57788 4.02193
      vertex 10 4 1.5
      vertex 10 2.63325 4.09813
    endloop
  endfacet
  facet normal 1 -0 0
    outer loop
      vertex 10 2.51341 3.95327
      vertex 10 4 1.5
      vertex 10 2.57788 4.02193
    endloop
  endfacet
  facet normal 1 -0 0
    outer loop
      vertex 10 2.44084 3.89324
      vertex 10 4 1.5
      vertex 10 2.51341 3.95327
    endloop
  endfacet
  facet normal 1 -0 0
    outer loop
      vertex 10 2.36131 3.84277
      vertex 10 4 1.5
      vertex 10 2.44084 3.89324
    endloop
  endfacet
  facet normal 1 -0 0
    outer loop
      vertex 10 2.27609 3.80267
      vertex 10 4 1.5
      vertex 10 2.36131 3.84277
    endloop
  endfacet
  facet normal 1 -0 0
    outer loop
      vertex 10 2.18652 3.77356
      vertex 10 4 1.5
      vertex 10 2.27609 3.80267
    endloop
  endfacet
  facet normal 1 -0 0
    outer loop
      vertex 10 2.094 3.75591
      vertex 10 4 1.5
      vertex 10 2.18652 3.77356
    endloop
  endfacet
  facet normal 1 -0 0
    outer loop
      vertex 10 2 3.75
      vertex 10 4 1.5
      vertex 10 2.094 3.75591
    endloop
  endfacet
  facet normal 1 0 0
    outer loop
      vertex 10 0 1.5
      vertex 10 2 3.75
      vertex 10 1.906 3.75591
    endloop
  endfacet
  facet normal 1 0 0
    outer loop
      vertex 10 0 1.5
      vertex 10 1.906 3.75591
      vertex 10 1.81348 3.77356
    endloop
  endfacet
  facet normal 1 0 0
    outer loop
      vertex 10 0 1.5
      vertex 10 1.81348 3.77356
      vertex 10 1.72391 3.80267
    endloop
  endfacet
  facet normal 1 0 0
    outer loop
      vertex 10 0 1.5
      vertex 10 1.72391 3.80267
      vertex 10 1.63868 3.84277
    endloop
  endfacet
  facet normal 1 0 0
    outer loop
      vertex 10 0 1.5
      vertex 10 1.63868 3.84277
      vertex 10 1.55916 3.89324
    endloop
  endfacet
  facet normal 1 0 0
    outer loop
      vertex 10 0 1.5
      vertex 10 1.55916 3.89324
      vertex 10 1.48659 3.95327
    endloop
  endfacet
  facet normal 1 0 0
    outer loop
      vertex 10 0 5
      vertex 10 1.26328 4.35946
      vertex 10 1.25148 4.45291
    endloop
  endfacet
  facet normal 1 0 0
    outer loop
      vertex 10 0 5
      vertex 10 1.28671 4.26824
      vertex 10 1.26328 4.35946
    endloop
  endfacet
  facet normal 1 0 0
    outer loop
      vertex 10 0 5
      vertex 10 1.32138 4.18067
      vertex 10 1.28671 4.26824
    endloop
  endfacet
  facet normal 1 0 0
    outer loop
      vertex 10 0 5
      vertex 10 1.36675 4.09813
      vertex 10 1.32138 4.18067
    endloop
  endfacet
  facet normal 1 0 0
    outer loop
      vertex 10 0 1.5
      vertex 10 1.36675 4.09813
      vertex 10 0 5
    endloop
  endfacet
  facet normal 1 0 0
    outer loop
      vertex 10 1.36675 4.09813
      vertex 10 0 1.5
      vertex 10 1.42211 4.02193
    endloop
  endfacet
  facet normal 1 0 0
    outer loop
      vertex 10 1.42211 4.02193
      vertex 10 0 1.5
      vertex 10 1.48659 3.95327
    endloop
  endfacet
  facet normal 1 0 0
    outer loop
      vertex 10 2 3.75
      vertex 10 0 1.5
      vertex 10 4 1.5
    endloop
  endfacet
  facet normal -0 0 1
    outer loop
      vertex 0 4 5
      vertex 10 2.55729 5
      vertex 10 4 5
    endloop
  endfacet
  facet normal 0 0 1
    outer loop
      vertex 10 2.55729 5
      vertex 0 4 5
      vertex 0 2.55729 5
    endloop
  endfacet
  facet normal -0 0 1
    outer loop
      vertex 0 1.44271 5
      vertex 10 0 5
      vertex 10 1.44271 5
    endloop
  endfacet
  facet normal 0 0 1
    outer loop
      vertex 10 0 5
      vertex 0 1.44271 5
      vertex 0 0 5
    endloop
  endfacet
  facet normal 0 0 -1
    outer loop
      vertex 20 0 0
      vertex 18.25 2 0
      vertex 20 4 0
    endloop
  endfacet
  facet normal 0 0 -1
    outer loop
      vertex 20 0 0
      vertex 18.2441 1.906 0
      vertex 18.25 2 0
    endloop
  endfacet
  facet normal 0 0 -1
    outer loop
      vertex 20 0 0
      vertex 18.2264 1.81348 0
      vertex 18.2441 1.906 0
    endloop
  endfacet
  facet normal 0 0 -1
    outer loop
      vertex 20 0 0
      vertex 18.1973 1.72391 0
      vertex 18.2264 1.81348 0
    endloop
  endfacet
  facet normal 0 0 -1
    outer loop
      vertex 20 0 0
      vertex 18.1572 1.63868 0
      vertex 18.1973 1.72391 0
    endloop
  endfacet
  facet normal 0 0 -1
    outer loop
      vertex 20 0 0
      vertex 18.1068 1.55916 0
      vertex 18.1572 1.63868 0
    endloop
  endfacet
  facet normal 0 0 -1
    outer loop
      vertex 20 0 0
      vertex 18.0467 1.48659 0
      vertex 18.1068 1.55916 0
    endloop
  endfacet
  facet normal 0 0 -1
    outer loop
      vertex 20 0 0
      vertex 17.9781 1.42211 0
      vertex 18.0467 1.48659 0
    endloop
  endfacet
  facet normal 0 0 -1
    outer loop
      vertex 20 0 0
      vertex 17.9019 1.36675 0
      vertex 17.9781 1.42211 0
    endloop
  endfacet
  facet normal 0 0 -1
    outer loop
      vertex 20 0 0
      vertex 17.8193 1.32138 0
      vertex 17.9019 1.36675 0
    endloop
  endfacet
  facet normal 0 0 -1
    outer loop
      vertex 20 0 0
      vertex 17.7318 1.28671 0
      vertex 17.8193 1.32138 0
    endloop
  endfacet
  facet normal 0 0 -1
    outer loop
      vertex 20 0 0
      vertex 17.6405 1.26328 0
      vertex 17.7318 1.28671 0
    endloop
  endfacet
  facet normal 0 0 -1
    outer loop
      vertex 20 0 0
      vertex 17.5471 1.25148 0
      vertex 17.6405 1.26328 0
    endloop
  endfacet
  facet normal 0 0 -1
    outer loop
      vertex 20 0 0
      vertex 17.4529 1.25148 0
      vertex 17.5471 1.25148 0
    endloop
  endfacet
  facet normal 0 0 -1
    outer loop
      vertex 20 0 0
      vertex 17.3595 1.26328 0
      vertex 17.4529 1.25148 0
    endloop
  endfacet
  facet normal 0 0 -1
    outer loop
      vertex 20 0 0
      vertex 17.2682 1.28671 0
      vertex 17.3595 1.26328 0
    endloop
  endfacet
  facet normal 0 0 -1
    outer loop
      vertex 0 0 0
      vertex 17.2682 1.28671 0
      vertex 20 0 0
    endloop
  endfacet
  facet normal -0 0 -1
    outer loop
      vertex 16.7559 1.906 0
      vertex 0 0 0
      vertex 16.75 2 0
    endloop
  endfacet
  facet normal -0 0 -1
    outer loop
      vertex 16.7736 1.81348 0
      vertex 0 0 0
      vertex 16.7559 1.906 0
    endloop
  endfacet
  facet normal -0 0 -1
    outer loop
      vertex 16.8027 1.72391 0
      vertex 0 0 0
      vertex 16.7736 1.81348 0
    endloop
  endfacet
  facet normal -0 0 -1
    outer loop
      vertex 16.8428 1.63868 0
      vertex 0 0 0
      vertex 16.8027 1.72391 0
    endloop
  endfacet
  facet normal -0 0 -1
    outer loop
      vertex 16.8932 1.55916 0
      vertex 0 0 0
      vertex 16.8428 1.63868 0
    endloop
  endfacet
  facet normal -0 0 -1
    outer loop
      vertex 16.9533 1.48659 0
      vertex 0 0 0
      vertex 16.8932 1.55916 0
    endloop
  endfacet
  facet normal -0 0 -1
    outer loop
      vertex 17.0219 1.42211 0
      vertex 0 0 0
      vertex 16.9533 1.48659 0
    endloop
  endfacet
  facet normal -0 0 -1
    outer loop
      vertex 17.0981 1.36675 0
      vertex 0 0 0
      vertex 17.0219 1.42211 0
    endloop
  endfacet
  facet normal -0 0 -1
    outer loop
      vertex 17.1807 1.32138 0
      vertex 0 0 0
      vertex 17.0981 1.36675 0
    endloop
  endfacet
  facet normal -0 0 -1
    outer loop
      vertex 17.2682 1.28671 0
      vertex 0 0 0
      vertex 17.1807 1.32138 0
    endloop
  endfacet
  facet normal 0 0 -1
    outer loop
      vertex 18.2441 2.094 0
      vertex 20 4 0
      vertex 18.25 2 0
    endloop
  endfacet
  facet normal 0 0 -1
    outer loop
      vertex 18.2264 2.18652 0
      vertex 20 4 0
      vertex 18.2441 2.094 0
    endloop
  endfacet
  facet normal 0 0 -1
    outer loop
      vertex 18.1973 2.27609 0
      vertex 20 4 0
      vertex 18.2264 2.18652 0
    endloop
  endfacet
  facet normal 0 0 -1
    outer loop
      vertex 18.1572 2.36131 0
      vertex 20 4 0
      vertex 18.1973 2.27609 0
    endloop
  endfacet
  facet normal 0 0 -1
    outer loop
      vertex 18.1068 2.44084 0
      vertex 20 4 0
      vertex 18.1572 2.36131 0
    endloop
  endfacet
  facet normal 0 0 -1
    outer loop
      vertex 18.0467 2.51341 0
      vertex 20 4 0
      vertex 18.1068 2.44084 0
    endloop
  endfacet
  facet normal 0 0 -1
    outer loop
      vertex 17.9781 2.57788 0
      vertex 20 4 0
      vertex 18.0467 2.51341 0
    endloop
  endfacet
  facet normal 0 0 -1
    outer loop
      vertex 17.9019 2.63325 0
      vertex 20 4 0
      vertex 17.9781 2.57788 0
    endloop
  endfacet
  facet normal 0 0 -1
    outer loop
      vertex 17.8193 2.67862 0
      vertex 20 4 0
      vertex 17.9019 2.63325 0
    endloop
  endfacet
  facet normal 0 0 -1
    outer loop
      vertex 17.7318 2.71329 0
      vertex 20 4 0
      vertex 17.8193 2.67862 0
    endloop
  endfacet
  facet normal 0 0 -1
    outer loop
      vertex 17.6405 2.73672 0
      vertex 20 4 0
      vertex 17.7318 2.71329 0
    endloop
  endfacet
  facet normal 0 0 -1
    outer loop
      vertex 17.5471 2.74852 0
      vertex 20 4 0
      vertex 17.6405 2.73672 0
    endloop
  endfacet
  facet normal 0 0 -1
    outer loop
      vertex 17.4529 2.74852 0
      vertex 20 4 0
      vertex 17.5471 2.74852 0
    endloop
  endfacet
  facet normal 0 0 -1
    outer loop
      vertex 17.3595 2.73672 0
      vertex 20 4 0
      vertex 17.4529 2.74852 0
    endloop
  endfacet
  facet normal 0 0 -1
    outer loop
      vertex 17.2682 2.71329 0
      vertex 20 4 0
      vertex 17.3595 2.73672 0
    endloop
  endfacet
  facet normal 0 0 -1
    outer loop
      vertex 0 4 0
      vertex 17.2682 2.71329 0
      vertex 17.1807 2.67862 0
    endloop
  endfacet
  facet normal 0 0 -1
    outer loop
      vertex 0 4 0
      vertex 16.75 2 0
      vertex 0 0 0
    endloop
  endfacet
  facet normal 0 0 -1
    outer loop
      vertex 16.75 2 0
      vertex 0 4 0
      vertex 16.7559 2.094 0
    endloop
  endfacet
  facet normal 0 0 -1
    outer loop
      vertex 16.7559 2.094 0
      vertex 0 4 0
      vertex 16.7736 2.18652 0
    endloop
  endfacet
  facet normal 0 0 -1
    outer loop
      vertex 16.7736 2.18652 0
      vertex 0 4 0
      vertex 16.8027 2.27609 0
    endloop
  endfacet
  facet normal 0 0 -1
    outer loop
      vertex 16.8027 2.27609 0
      vertex 0 4 0
      vertex 16.8428 2.36131 0
    endloop
  endfacet
  facet normal 0 0 -1
    outer loop
      vertex 16.8428 2.36131 0
      vertex 0 4 0
      vertex 16.8932 2.44084 0
    endloop
  endfacet
  facet normal 0 0 -1
    outer loop
      vertex 16.8932 2.44084 0
      vertex 0 4 0
      vertex 16.9533 2.51341 0
    endloop
  endfacet
  facet normal 0 0 -1
    outer loop
      vertex 16.9533 2.51341 0
      vertex 0 4 0
      vertex 17.0219 2.57788 0
    endloop
  endfacet
  facet normal 0 0 -1
    outer loop
      vertex 17.0219 2.57788 0
      vertex 0 4 0
      vertex 17.0981 2.63325 0
    endloop
  endfacet
  facet normal 0 0 -1
    outer loop
      vertex 17.0981 2.63325 0
      vertex 0 4 0
      vertex 17.1807 2.67862 0
    endloop
  endfacet
  facet normal 0 0 -1
    outer loop
      vertex 17.2682 2.71329 0
      vertex 0 4 0
      vertex 20 4 0
    endloop
  endfacet
  facet normal -1 0 0
    outer loop
      vertex 0 2.57788 4.02193
      vertex 0 4 5
      vertex 0 4 0
    endloop
  endfacet
  facet normal -1 0 0
    outer loop
      vertex 0 4 5
      vertex 0 2.73672 4.35946
      vertex 0 2.74852 4.45291
    endloop
  endfacet
  facet normal -1 0 0
    outer loop
      vertex 0 4 5
      vertex 0 2.71329 4.26824
      vertex 0 2.73672 4.35946
    endloop
  endfacet
  facet normal -1 0 0
    outer loop
      vertex 0 4 5
      vertex 0 2.67862 4.18067
      vertex 0 2.71329 4.26824
    endloop
  endfacet
  facet normal -1 0 0
    outer loop
      vertex 0 4 5
      vertex 0 2.63325 4.09813
      vertex 0 2.67862 4.18067
    endloop
  endfacet
  facet normal -1 0 0
    outer loop
      vertex 0 4 5
      vertex 0 2.57788 4.02193
      vertex 0 2.63325 4.09813
    endloop
  endfacet
  facet normal -1 0 0
    outer loop
      vertex 0 4 0
      vertex 0 2.51341 3.95327
      vertex 0 2.57788 4.02193
    endloop
  endfacet
  facet normal -1 0 0
    outer loop
      vertex 0 4 0
      vertex 0 2.44084 3.89324
      vertex 0 2.51341 3.95327
    endloop
  endfacet
  facet normal -1 0 0
    outer loop
      vertex 0 4 0
      vertex 0 2.36131 3.84277
      vertex 0 2.44084 3.89324
    endloop
  endfacet
  facet normal -1 0 0
    outer loop
      vertex 0 4 0
      vertex 0 2.27609 3.80267
      vertex 0 2.36131 3.84277
    endloop
  endfacet
  facet normal -1 0 0
    outer loop
      vertex 0 4 0
      vertex 0 2.18652 3.77356
      vertex 0 2.27609 3.80267
    endloop
  endfacet
  facet normal -1 0 0
    outer loop
      vertex 0 4 0
      vertex 0 2.094 3.75591
      vertex 0 2.18652 3.77356
    endloop
  endfacet
  facet normal -1 0 0
    outer loop
      vertex 0 4 0
      vertex 0 2 3.75
      vertex 0 2.094 3.75591
    endloop
  endfacet
  facet normal -1 0 0
    outer loop
      vertex 0 0 0
      vertex 0 2 3.75
      vertex 0 4 0
    endloop
  endfacet
  facet normal -1 -0 0
    outer loop
      vertex 0 2 3.75
      vertex 0 0 0
      vertex 0 1.906 3.75591
    endloop
  endfacet
  facet normal -1 -0 0
    outer loop
      vertex 0 1.906 3.75591
      vertex 0 0 0
      vertex 0 1.81348 3.77356
    endloop
  endfacet
  facet normal -1 -0 0
    outer loop
      vertex 0 1.81348 3.77356
      vertex 0 0 0
      vertex 0 1.72391 3.80267
    endloop
  endfacet
  facet normal -1 -0 0
    outer loop
      vertex 0 1.72391 3.80267
      vertex 0 0 0
      vertex 0 1.63868 3.84277
    endloop
  endfacet
  facet normal -1 -0 0
    outer loop
      vertex 0 1.63868 3.84277
      vertex 0 0 0
      vertex 0 1.55916 3.89324
    endloop
  endfacet
  facet normal -1 -0 0
    outer loop
      vertex 0 1.55916 3.89324
      vertex 0 0 0
      vertex 0 1.48659 3.95327
    endloop
  endfacet
  facet normal -1 -0 0
    outer loop
      vertex 0 1.48659 3.95327
      vertex 0 0 0
      vertex 0 1.42211 4.02193
    endloop
  endfacet
  facet normal -1 0 0
    outer loop
      vertex 0 1.26328 4.35946
      vertex 0 0 5
      vertex 0 1.25148 4.45291
    endloop
  endfacet
  facet normal -1 0 0
    outer loop
      vertex 0 1.28671 4.26824
      vertex 0 0 5
      vertex 0 1.26328 4.35946
    endloop
  endfacet
  facet normal -1 0 0
    outer loop
      vertex 0 1.32138 4.18067
      vertex 0 0 5
      vertex 0 1.28671 4.26824
    endloop
  endfacet
  facet normal -1 0 0
    outer loop
      vertex 0 1.36675 4.09813
      vertex 0 0 5
      vertex 0 1.32138 4.18067
    endloop
  endfacet
  facet normal -1 0 0
    outer loop
      vertex 0 1.42211 4.02193
      vertex 0 0 5
      vertex 0 1.36675 4.09813
    endloop
  endfacet
  facet normal -1 0 0
    outer loop
      vertex 0 0 5
      vertex 0 1.42211 4.02193
      vertex 0 0 0
    endloop
  endfacet
  facet normal -1 0 0
    outer loop
      vertex 0 2.74852 4.54709
      vertex 0 4 5
      vertex 0 2.74852 4.45291
    endloop
  endfacet
  facet normal -1 0 0
    outer loop
      vertex 0 2.73672 4.64054
      vertex 0 4 5
      vertex 0 2.74852 4.54709
    endloop
  endfacet
  facet normal -1 0 0
    outer loop
      vertex 0 2.71329 4.73176
      vertex 0 4 5
      vertex 0 2.73672 4.64054
    endloop
  endfacet
  facet normal -1 0 0
    outer loop
      vertex 0 2.67862 4.81933
      vertex 0 4 5
      vertex 0 2.71329 4.73176
    endloop
  endfacet
  facet normal -1 0 0
    outer loop
      vertex 0 2.63325 4.90187
      vertex 0 4 5
      vertex 0 2.67862 4.81933
    endloop
  endfacet
  facet normal -1 0 0
    outer loop
      vertex 0 2.57788 4.97807
      vertex 0 4 5
      vertex 0 2.63325 4.90187
    endloop
  endfacet
  facet normal -1 -0 0
    outer loop
      vertex 0 4 5
      vertex 0 2.57788 4.97807
      vertex 0 2.55729 5
    endloop
  endfacet
  facet normal -1 0 0
    outer loop
      vertex 0 1.25148 4.45291
      vertex 0 0 5
      vertex 0 1.25148 4.54709
    endloop
  endfacet
  facet normal -1 0 0
    outer loop
      vertex 0 1.25148 4.54709
      vertex 0 0 5
      vertex 0 1.26328 4.64054
    endloop
  endfacet
  facet normal -1 0 0
    outer loop
      vertex 0 1.42211 4.97807
      vertex 0 0 5
      vertex 0 1.44271 5
    endloop
  endfacet
  facet normal -1 0 0
    outer loop
      vertex 0 1.36675 4.90187
      vertex 0 0 5
      vertex 0 1.42211 4.97807
    endloop
  endfacet
  facet normal -1 0 0
    outer loop
      vertex 0 1.32138 4.81933
      vertex 0 0 5
      vertex 0 1.36675 4.90187
    endloop
  endfacet
  facet normal -1 0 0
    outer loop
      vertex 0 1.28671 4.73176
      vertex 0 0 5
      vertex 0 1.32138 4.81933
    endloop
  endfacet
  facet normal -1 0 0
    outer loop
      vertex 0 1.26328 4.64054
      vertex 0 0 5
      vertex 0 1.28671 4.73176
    endloop
  endfacet
  facet normal 0 1 0
    outer loop
      vertex 20 4 1.5
      vertex 20 4 0
      vertex 10 4 1.5
    endloop
  endfacet
  facet normal 0 1 -0
    outer loop
      vertex 10 4 1.5
      vertex 0 4 5
      vertex 10 4 5
    endloop
  endfacet
  facet normal 0 1 0
    outer loop
      vertex 10 4 1.5
      vertex 0 4 0
      vertex 0 4 5
    endloop
  endfacet
  facet normal 0 1 0
    outer loop
      vertex 0 4 0
      vertex 10 4 1.5
      vertex 20 4 0
    endloop
  endfacet
  facet normal 0 -1 0
    outer loop
      vertex 0 0 5
      vertex 10 0 1.5
      vertex 10 0 5
    endloop
  endfacet
  facet normal 0 -1 0
    outer loop
      vertex 0 0 0
      vertex 10 0 1.5
      vertex 0 0 5
    endloop
  endfacet
  facet normal 0 -1 0
    outer loop
      vertex 20 0 0
      vertex 10 0 1.5
      vertex 0 0 0
    endloop
  endfacet
  facet normal 0 -1 0
    outer loop
      vertex 10 0 1.5
      vertex 20 0 0
      vertex 20 0 1.5
    endloop
  endfacet
  facet normal 0 0.876337 -0.481699
    outer loop
      vertex 10 1.32138 4.81933
      vertex 0 1.36675 4.90187
      vertex 10 1.36675 4.90187
    endloop
  endfacet
  facet normal 0 0.876337 -0.481699
    outer loop
      vertex 0 1.36675 4.90187
      vertex 10 1.32138 4.81933
      vertex 0 1.32138 4.81933
    endloop
  endfacet
  facet normal 0 -0.929782 0.368112
    outer loop
      vertex 0 2.67862 4.18067
      vertex 10 2.71329 4.26824
      vertex 0 2.71329 4.26824
    endloop
  endfacet
  facet normal 0 -0.929782 0.368112
    outer loop
      vertex 10 2.71329 4.26824
      vertex 0 2.67862 4.18067
      vertex 10 2.67862 4.18067
    endloop
  endfacet
  facet normal 0 -0.18739 0.982286
    outer loop
      vertex 0 2.18652 3.77356
      vertex 10 2.094 3.75591
      vertex 10 2.18652 3.77356
    endloop
  endfacet
  facet normal 0 -0.18739 0.982286
    outer loop
      vertex 10 2.094 3.75591
      vertex 0 2.18652 3.77356
      vertex 0 2.094 3.75591
    endloop
  endfacet
  facet normal 0 -0.729001 0.684513
    outer loop
      vertex 0 2.51341 3.95327
      vertex 10 2.57788 4.02193
      vertex 0 2.57788 4.02193
    endloop
  endfacet
  facet normal 0 -0.729001 0.684513
    outer loop
      vertex 10 2.57788 4.02193
      vertex 0 2.51341 3.95327
      vertex 10 2.51341 3.95327
    endloop
  endfacet
  facet normal 0 0.992122 0.125276
    outer loop
      vertex 10 1.26328 4.35946
      vertex 0 1.25148 4.45291
      vertex 10 1.25148 4.45291
    endloop
  endfacet
  facet normal 0 0.992122 0.125276
    outer loop
      vertex 0 1.25148 4.45291
      vertex 10 1.26328 4.35946
      vertex 0 1.26328 4.35946
    endloop
  endfacet
  facet normal 0 0.80903 -0.587768
    outer loop
      vertex 10 1.36675 4.90187
      vertex 0 1.42211 4.97807
      vertex 10 1.42211 4.97807
    endloop
  endfacet
  facet normal 0 0.80903 -0.587768
    outer loop
      vertex 0 1.42211 4.97807
      vertex 10 1.36675 4.90187
      vertex 0 1.36675 4.90187
    endloop
  endfacet
  facet normal 0 -0.0627484 0.998029
    outer loop
      vertex 0 2.094 3.75591
      vertex 10 2 3.75
      vertex 10 2.094 3.75591
    endloop
  endfacet
  facet normal 0 -0.0627484 0.998029
    outer loop
      vertex 10 2 3.75
      vertex 0 2.094 3.75591
      vertex 0 2 3.75
    endloop
  endfacet
  facet normal 0 -0.535817 0.844334
    outer loop
      vertex 0 2.44084 3.89324
      vertex 10 2.36131 3.84277
      vertex 10 2.44084 3.89324
    endloop
  endfacet
  facet normal 0 -0.535817 0.844334
    outer loop
      vertex 10 2.36131 3.84277
      vertex 0 2.44084 3.89324
      vertex 0 2.36131 3.84277
    endloop
  endfacet
  facet normal 0 -0.992122 -0.125276
    outer loop
      vertex 0 2.74852 4.54709
      vertex 10 2.73672 4.64054
      vertex 0 2.73672 4.64054
    endloop
  endfacet
  facet normal 0 -0.992122 -0.125276
    outer loop
      vertex 10 2.73672 4.64054
      vertex 0 2.74852 4.54709
      vertex 10 2.74852 4.54709
    endloop
  endfacet
  facet normal 0 -0.637392 0.77054
    outer loop
      vertex 0 2.51341 3.95327
      vertex 10 2.44084 3.89324
      vertex 10 2.51341 3.95327
    endloop
  endfacet
  facet normal 0 -0.637392 0.77054
    outer loop
      vertex 10 2.44084 3.89324
      vertex 0 2.51341 3.95327
      vertex 0 2.44084 3.89324
    endloop
  endfacet
  facet normal 0 -0.808979 0.587837
    outer loop
      vertex 0 2.57788 4.02193
      vertex 10 2.63325 4.09813
      vertex 0 2.63325 4.09813
    endloop
  endfacet
  facet normal 0 -0.808979 0.587837
    outer loop
      vertex 10 2.63325 4.09813
      vertex 0 2.57788 4.02193
      vertex 10 2.57788 4.02193
    endloop
  endfacet
  facet normal 0 0.728948 0.684569
    outer loop
      vertex 10 1.48659 3.95327
      vertex 0 1.42211 4.02193
      vertex 10 1.42211 4.02193
    endloop
  endfacet
  facet normal 0 0.728948 0.684569
    outer loop
      vertex 0 1.42211 4.02193
      vertex 10 1.48659 3.95327
      vertex 0 1.48659 3.95327
    endloop
  endfacet
  facet normal 0 -0.309084 0.951035
    outer loop
      vertex 0 2.27609 3.80267
      vertex 10 2.18652 3.77356
      vertex 10 2.27609 3.80267
    endloop
  endfacet
  facet normal 0 -0.309084 0.951035
    outer loop
      vertex 10 2.18652 3.77356
      vertex 0 2.27609 3.80267
      vertex 0 2.18652 3.77356
    endloop
  endfacet
  facet normal 0 -0.425766 0.904833
    outer loop
      vertex 0 2.36131 3.84277
      vertex 10 2.27609 3.80267
      vertex 10 2.36131 3.84277
    endloop
  endfacet
  facet normal 0 -0.425766 0.904833
    outer loop
      vertex 10 2.27609 3.80267
      vertex 0 2.36131 3.84277
      vertex 0 2.27609 3.80267
    endloop
  endfacet
  facet normal 0 -0.968561 -0.248776
    outer loop
      vertex 0 2.73672 4.64054
      vertex 10 2.71329 4.73176
      vertex 0 2.71329 4.73176
    endloop
  endfacet
  facet normal 0 -0.968561 -0.248776
    outer loop
      vertex 10 2.71329 4.73176
      vertex 0 2.73672 4.64054
      vertex 10 2.73672 4.64054
    endloop
  endfacet
  facet normal -0 0.637392 0.77054
    outer loop
      vertex 0 1.55916 3.89324
      vertex 10 1.48659 3.95327
      vertex 10 1.55916 3.89324
    endloop
  endfacet
  facet normal 0 0.637392 0.77054
    outer loop
      vertex 10 1.48659 3.95327
      vertex 0 1.55916 3.89324
      vertex 0 1.48659 3.95327
    endloop
  endfacet
  facet normal 0 0.929782 0.368112
    outer loop
      vertex 10 1.32138 4.18067
      vertex 0 1.28671 4.26824
      vertex 10 1.28671 4.26824
    endloop
  endfacet
  facet normal 0 0.929782 0.368112
    outer loop
      vertex 0 1.28671 4.26824
      vertex 10 1.32138 4.18067
      vertex 0 1.32138 4.18067
    endloop
  endfacet
  facet normal -0 0.0627484 0.998029
    outer loop
      vertex 0 2 3.75
      vertex 10 1.906 3.75591
      vertex 10 2 3.75
    endloop
  endfacet
  facet normal 0 0.0627484 0.998029
    outer loop
      vertex 10 1.906 3.75591
      vertex 0 2 3.75
      vertex 0 1.906 3.75591
    endloop
  endfacet
  facet normal -0 0.18739 0.982286
    outer loop
      vertex 0 1.906 3.75591
      vertex 10 1.81348 3.77356
      vertex 10 1.906 3.75591
    endloop
  endfacet
  facet normal 0 0.18739 0.982286
    outer loop
      vertex 10 1.81348 3.77356
      vertex 0 1.906 3.75591
      vertex 0 1.81348 3.77356
    endloop
  endfacet
  facet normal 0 -0.876337 0.481699
    outer loop
      vertex 0 2.63325 4.09813
      vertex 10 2.67862 4.18067
      vertex 0 2.67862 4.18067
    endloop
  endfacet
  facet normal 0 -0.876337 0.481699
    outer loop
      vertex 10 2.67862 4.18067
      vertex 0 2.63325 4.09813
      vertex 10 2.63325 4.09813
    endloop
  endfacet
  facet normal 0 -0.968561 0.248776
    outer loop
      vertex 0 2.71329 4.26824
      vertex 10 2.73672 4.35946
      vertex 0 2.73672 4.35946
    endloop
  endfacet
  facet normal 0 -0.968561 0.248776
    outer loop
      vertex 10 2.73672 4.35946
      vertex 0 2.71329 4.26824
      vertex 10 2.71329 4.26824
    endloop
  endfacet
  facet normal 0 -0.992122 0.125276
    outer loop
      vertex 0 2.73672 4.35946
      vertex 10 2.74852 4.45291
      vertex 0 2.74852 4.45291
    endloop
  endfacet
  facet normal 0 -0.992122 0.125276
    outer loop
      vertex 10 2.74852 4.45291
      vertex 0 2.73672 4.35946
      vertex 10 2.73672 4.35946
    endloop
  endfacet
  facet normal -0 0.425725 0.904852
    outer loop
      vertex 0 1.72391 3.80267
      vertex 10 1.63868 3.84277
      vertex 10 1.72391 3.80267
    endloop
  endfacet
  facet normal 0 0.425725 0.904852
    outer loop
      vertex 10 1.63868 3.84277
      vertex 0 1.72391 3.80267
      vertex 0 1.63868 3.84277
    endloop
  endfacet
  facet normal 0 -0.876337 -0.481699
    outer loop
      vertex 0 2.67862 4.81933
      vertex 10 2.63325 4.90187
      vertex 0 2.63325 4.90187
    endloop
  endfacet
  facet normal 0 -0.876337 -0.481699
    outer loop
      vertex 10 2.63325 4.90187
      vertex 0 2.67862 4.81933
      vertex 10 2.67862 4.81933
    endloop
  endfacet
  facet normal 0 -0.729029 -0.684483
    outer loop
      vertex 0 2.57788 4.97807
      vertex 10 2.55729 5
      vertex 0 2.55729 5
    endloop
  endfacet
  facet normal 0 -0.729029 -0.684483
    outer loop
      vertex 10 2.55729 5
      vertex 0 2.57788 4.97807
      vertex 10 2.57788 4.97807
    endloop
  endfacet
  facet normal 0 0.992122 -0.125276
    outer loop
      vertex 10 1.25148 4.54709
      vertex 0 1.26328 4.64054
      vertex 10 1.26328 4.64054
    endloop
  endfacet
  facet normal 0 0.992122 -0.125276
    outer loop
      vertex 0 1.26328 4.64054
      vertex 10 1.25148 4.54709
      vertex 0 1.25148 4.54709
    endloop
  endfacet
  facet normal 0 0.968561 0.248776
    outer loop
      vertex 10 1.28671 4.26824
      vertex 0 1.26328 4.35946
      vertex 10 1.26328 4.35946
    endloop
  endfacet
  facet normal 0 0.968561 0.248776
    outer loop
      vertex 0 1.26328 4.35946
      vertex 10 1.28671 4.26824
      vertex 0 1.28671 4.26824
    endloop
  endfacet
  facet normal 0 -0.929782 -0.368112
    outer loop
      vertex 0 2.71329 4.73176
      vertex 10 2.67862 4.81933
      vertex 0 2.67862 4.81933
    endloop
  endfacet
  facet normal 0 -0.929782 -0.368112
    outer loop
      vertex 10 2.67862 4.81933
      vertex 0 2.71329 4.73176
      vertex 10 2.71329 4.73176
    endloop
  endfacet
  facet normal -0 0.309084 0.951035
    outer loop
      vertex 0 1.81348 3.77356
      vertex 10 1.72391 3.80267
      vertex 10 1.81348 3.77356
    endloop
  endfacet
  facet normal 0 0.309084 0.951035
    outer loop
      vertex 10 1.72391 3.80267
      vertex 0 1.81348 3.77356
      vertex 0 1.72391 3.80267
    endloop
  endfacet
  facet normal 0 -0.808979 -0.587837
    outer loop
      vertex 0 2.63325 4.90187
      vertex 10 2.57788 4.97807
      vertex 0 2.57788 4.97807
    endloop
  endfacet
  facet normal 0 -0.808979 -0.587837
    outer loop
      vertex 10 2.57788 4.97807
      vertex 0 2.63325 4.90187
      vertex 10 2.63325 4.90187
    endloop
  endfacet
  facet normal 0 1 -0
    outer loop
      vertex 10 1.25148 4.45291
      vertex 0 1.25148 4.54709
      vertex 10 1.25148 4.54709
    endloop
  endfacet
  facet normal 0 1 0
    outer loop
      vertex 0 1.25148 4.54709
      vertex 10 1.25148 4.45291
      vertex 0 1.25148 4.45291
    endloop
  endfacet
  facet normal 0 0.876337 0.481699
    outer loop
      vertex 10 1.36675 4.09813
      vertex 0 1.32138 4.18067
      vertex 10 1.32138 4.18067
    endloop
  endfacet
  facet normal 0 0.876337 0.481699
    outer loop
      vertex 0 1.32138 4.18067
      vertex 10 1.36675 4.09813
      vertex 0 1.36675 4.09813
    endloop
  endfacet
  facet normal 0 0.968561 -0.248776
    outer loop
      vertex 10 1.26328 4.64054
      vertex 0 1.28671 4.73176
      vertex 10 1.28671 4.73176
    endloop
  endfacet
  facet normal 0 0.968561 -0.248776
    outer loop
      vertex 0 1.28671 4.73176
      vertex 10 1.26328 4.64054
      vertex 0 1.26328 4.64054
    endloop
  endfacet
  facet normal 0 0.728863 -0.684659
    outer loop
      vertex 10 1.42211 4.97807
      vertex 0 1.44271 5
      vertex 10 1.44271 5
    endloop
  endfacet
  facet normal 0 0.728863 -0.684659
    outer loop
      vertex 0 1.44271 5
      vertex 10 1.42211 4.97807
      vertex 0 1.42211 4.97807
    endloop
  endfacet
  facet normal 0 0.929782 -0.368112
    outer loop
      vertex 10 1.28671 4.73176
      vertex 0 1.32138 4.81933
      vertex 10 1.32138 4.81933
    endloop
  endfacet
  facet normal 0 0.929782 -0.368112
    outer loop
      vertex 0 1.32138 4.81933
      vertex 10 1.28671 4.73176
      vertex 0 1.28671 4.73176
    endloop
  endfacet
  facet normal 0 -1 0
    outer loop
      vertex 0 2.74852 4.45291
      vertex 10 2.74852 4.54709
      vertex 0 2.74852 4.54709
    endloop
  endfacet
  facet normal 0 -1 -0
    outer loop
      vertex 10 2.74852 4.54709
      vertex 0 2.74852 4.45291
      vertex 10 2.74852 4.45291
    endloop
  endfacet
  facet normal 0 0.80903 0.587768
    outer loop
      vertex 10 1.42211 4.02193
      vertex 0 1.36675 4.09813
      vertex 10 1.36675 4.09813
    endloop
  endfacet
  facet normal 0 0.80903 0.587768
    outer loop
      vertex 0 1.36675 4.09813
      vertex 10 1.42211 4.02193
      vertex 0 1.42211 4.02193
    endloop
  endfacet
  facet normal -0 0.535865 0.844304
    outer loop
      vertex 0 1.63868 3.84277
      vertex 10 1.55916 3.89324
      vertex 10 1.63868 3.84277
    endloop
  endfacet
  facet normal 0 0.535865 0.844304
    outer loop
      vertex 10 1.55916 3.89324
      vertex 0 1.63868 3.84277
      vertex 0 1.55916 3.89324
    endloop
  endfacet
  facet normal 1 -0 0
    outer loop
      vertex 20 0 1.5
      vertex 20 4 0
      vertex 20 4 1.5
    endloop
  endfacet
  facet normal 1 0 0
    outer loop
      vertex 20 4 0
      vertex 20 0 1.5
      vertex 20 0 0
    endloop
  endfacet
  facet normal 0 0 1
    outer loop
      vertex 20 4 1.5
      vertex 18.25 2 1.5
      vertex 20 0 1.5
    endloop
  endfacet
  facet normal 0 0 1
    outer loop
      vertex 20 4 1.5
      vertex 18.2441 2.094 1.5
      vertex 18.25 2 1.5
    endloop
  endfacet
  facet normal 0 0 1
    outer loop
      vertex 20 4 1.5
      vertex 18.2264 2.18652 1.5
      vertex 18.2441 2.094 1.5
    endloop
  endfacet
  facet normal 0 0 1
    outer loop
      vertex 20 4 1.5
      vertex 18.1973 2.27609 1.5
      vertex 18.2264 2.18652 1.5
    endloop
  endfacet
  facet normal 0 0 1
    outer loop
      vertex 20 4 1.5
      vertex 18.1572 2.36131 1.5
      vertex 18.1973 2.27609 1.5
    endloop
  endfacet
  facet normal 0 0 1
    outer loop
      vertex 20 4 1.5
      vertex 18.1068 2.44084 1.5
      vertex 18.1572 2.36131 1.5
    endloop
  endfacet
  facet normal 0 0 1
    outer loop
      vertex 20 4 1.5
      vertex 18.0467 2.51341 1.5
      vertex 18.1068 2.44084 1.5
    endloop
  endfacet
  facet normal 0 0 1
    outer loop
      vertex 20 4 1.5
      vertex 17.9781 2.57788 1.5
      vertex 18.0467 2.51341 1.5
    endloop
  endfacet
  facet normal 0 0 1
    outer loop
      vertex 20 4 1.5
      vertex 17.9019 2.63325 1.5
      vertex 17.9781 2.57788 1.5
    endloop
  endfacet
  facet normal 0 0 1
    outer loop
      vertex 20 4 1.5
      vertex 17.8193 2.67862 1.5
      vertex 17.9019 2.63325 1.5
    endloop
  endfacet
  facet normal 0 0 1
    outer loop
      vertex 20 4 1.5
      vertex 17.7318 2.71329 1.5
      vertex 17.8193 2.67862 1.5
    endloop
  endfacet
  facet normal 0 0 1
    outer loop
      vertex 20 4 1.5
      vertex 17.6405 2.73672 1.5
      vertex 17.7318 2.71329 1.5
    endloop
  endfacet
  facet normal 0 0 1
    outer loop
      vertex 20 4 1.5
      vertex 17.5471 2.74852 1.5
      vertex 17.6405 2.73672 1.5
    endloop
  endfacet
  facet normal 0 0 1
    outer loop
      vertex 20 4 1.5
      vertex 17.4529 2.74852 1.5
      vertex 17.5471 2.74852 1.5
    endloop
  endfacet
  facet normal 0 0 1
    outer loop
      vertex 20 4 1.5
      vertex 17.3595 2.73672 1.5
      vertex 17.4529 2.74852 1.5
    endloop
  endfacet
  facet normal 0 0 1
    outer loop
      vertex 20 4 1.5
      vertex 17.2682 2.71329 1.5
      vertex 17.3595 2.73672 1.5
    endloop
  endfacet
  facet normal -0 0 1
    outer loop
      vertex 10 4 1.5
      vertex 17.2682 2.71329 1.5
      vertex 20 4 1.5
    endloop
  endfacet
  facet normal 0 0 1
    outer loop
      vertex 16.7559 2.094 1.5
      vertex 10 4 1.5
      vertex 16.75 2 1.5
    endloop
  endfacet
  facet normal 0 0 1
    outer loop
      vertex 16.7736 2.18652 1.5
      vertex 10 4 1.5
      vertex 16.7559 2.094 1.5
    endloop
  endfacet
  facet normal 0 0 1
    outer loop
      vertex 16.8027 2.27609 1.5
      vertex 10 4 1.5
      vertex 16.7736 2.18652 1.5
    endloop
  endfacet
  facet normal 0 0 1
    outer loop
      vertex 16.8428 2.36131 1.5
      vertex 10 4 1.5
      vertex 16.8027 2.27609 1.5
    endloop
  endfacet
  facet normal 0 0 1
    outer loop
      vertex 16.8932 2.44084 1.5
      vertex 10 4 1.5
      vertex 16.8428 2.36131 1.5
    endloop
  endfacet
  facet normal 0 0 1
    outer loop
      vertex 16.9533 2.51341 1.5
      vertex 10 4 1.5
      vertex 16.8932 2.44084 1.5
    endloop
  endfacet
  facet normal 0 0 1
    outer loop
      vertex 17.0219 2.57788 1.5
      vertex 10 4 1.5
      vertex 16.9533 2.51341 1.5
    endloop
  endfacet
  facet normal 0 0 1
    outer loop
      vertex 17.0981 2.63325 1.5
      vertex 10 4 1.5
      vertex 17.0219 2.57788 1.5
    endloop
  endfacet
  facet normal 0 0 1
    outer loop
      vertex 17.1807 2.67862 1.5
      vertex 10 4 1.5
      vertex 17.0981 2.63325 1.5
    endloop
  endfacet
  facet normal 0 0 1
    outer loop
      vertex 17.2682 2.71329 1.5
      vertex 10 4 1.5
      vertex 17.1807 2.67862 1.5
    endloop
  endfacet
  facet normal -0 0 1
    outer loop
      vertex 18.2441 1.906 1.5
      vertex 20 0 1.5
      vertex 18.25 2 1.5
    endloop
  endfacet
  facet normal -0 0 1
    outer loop
      vertex 18.2264 1.81348 1.5
      vertex 20 0 1.5
      vertex 18.2441 1.906 1.5
    endloop
  endfacet
  facet normal -0 0 1
    outer loop
      vertex 18.1973 1.72391 1.5
      vertex 20 0 1.5
      vertex 18.2264 1.81348 1.5
    endloop
  endfacet
  facet normal -0 0 1
    outer loop
      vertex 18.1572 1.63868 1.5
      vertex 20 0 1.5
      vertex 18.1973 1.72391 1.5
    endloop
  endfacet
  facet normal -0 0 1
    outer loop
      vertex 18.1068 1.55916 1.5
      vertex 20 0 1.5
      vertex 18.1572 1.63868 1.5
    endloop
  endfacet
  facet normal -0 0 1
    outer loop
      vertex 18.0467 1.48659 1.5
      vertex 20 0 1.5
      vertex 18.1068 1.55916 1.5
    endloop
  endfacet
  facet normal -0 0 1
    outer loop
      vertex 17.9781 1.42211 1.5
      vertex 20 0 1.5
      vertex 18.0467 1.48659 1.5
    endloop
  endfacet
  facet normal -0 0 1
    outer loop
      vertex 17.9019 1.36675 1.5
      vertex 20 0 1.5
      vertex 17.9781 1.42211 1.5
    endloop
  endfacet
  facet normal -0 0 1
    outer loop
      vertex 17.8193 1.32138 1.5
      vertex 20 0 1.5
      vertex 17.9019 1.36675 1.5
    endloop
  endfacet
  facet normal -0 0 1
    outer loop
      vertex 17.7318 1.28671 1.5
      vertex 20 0 1.5
      vertex 17.8193 1.32138 1.5
    endloop
  endfacet
  facet normal -0 0 1
    outer loop
      vertex 17.6405 1.26328 1.5
      vertex 20 0 1.5
      vertex 17.7318 1.28671 1.5
    endloop
  endfacet
  facet normal -0 0 1
    outer loop
      vertex 17.5471 1.25148 1.5
      vertex 20 0 1.5
      vertex 17.6405 1.26328 1.5
    endloop
  endfacet
  facet normal -0 0 1
    outer loop
      vertex 17.4529 1.25148 1.5
      vertex 20 0 1.5
      vertex 17.5471 1.25148 1.5
    endloop
  endfacet
  facet normal 0 0 1
    outer loop
      vertex 17.3595 1.26328 1.5
      vertex 20 0 1.5
      vertex 17.4529 1.25148 1.5
    endloop
  endfacet
  facet normal 0 0 1
    outer loop
      vertex 17.2682 1.28671 1.5
      vertex 20 0 1.5
      vertex 17.3595 1.26328 1.5
    endloop
  endfacet
  facet normal 0 0 1
    outer loop
      vertex 10 0 1.5
      vertex 17.2682 1.28671 1.5
      vertex 17.1807 1.32138 1.5
    endloop
  endfacet
  facet normal 0 0 1
    outer loop
      vertex 10 0 1.5
      vertex 16.75 2 1.5
      vertex 10 4 1.5
    endloop
  endfacet
  facet normal 0 0 1
    outer loop
      vertex 16.75 2 1.5
      vertex 10 0 1.5
      vertex 16.7559 1.906 1.5
    endloop
  endfacet
  facet normal 0 0 1
    outer loop
      vertex 16.7559 1.906 1.5
      vertex 10 0 1.5
      vertex 16.7736 1.81348 1.5
    endloop
  endfacet
  facet normal 0 0 1
    outer loop
      vertex 16.7736 1.81348 1.5
      vertex 10 0 1.5
      vertex 16.8027 1.72391 1.5
    endloop
  endfacet
  facet normal 0 0 1
    outer loop
      vertex 16.8027 1.72391 1.5
      vertex 10 0 1.5
      vertex 16.8428 1.63868 1.5
    endloop
  endfacet
  facet normal 0 0 1
    outer loop
      vertex 16.8428 1.63868 1.5
      vertex 10 0 1.5
      vertex 16.8932 1.55916 1.5
    endloop
  endfacet
  facet normal 0 0 1
    outer loop
      vertex 16.8932 1.55916 1.5
      vertex 10 0 1.5
      vertex 16.9533 1.48659 1.5
    endloop
  endfacet
  facet normal 0 0 1
    outer loop
      vertex 16.9533 1.48659 1.5
      vertex 10 0 1.5
      vertex 17.0219 1.42211 1.5
    endloop
  endfacet
  facet normal 0 0 1
    outer loop
      vertex 17.0219 1.42211 1.5
      vertex 10 0 1.5
      vertex 17.0981 1.36675 1.5
    endloop
  endfacet
  facet normal 0 0 1
    outer loop
      vertex 17.0981 1.36675 1.5
      vertex 10 0 1.5
      vertex 17.1807 1.32138 1.5
    endloop
  endfacet
  facet normal 0 0 1
    outer loop
      vertex 17.2682 1.28671 1.5
      vertex 10 0 1.5
      vertex 20 0 1.5
    endloop
  endfacet
  facet normal 0.368366 0.929681 -0
    outer loop
      vertex 17.2682 1.28671 0
      vertex 17.1807 1.32138 1.5
      vertex 17.2682 1.28671 1.5
    endloop
  endfacet
  facet normal 0.368366 0.929681 0
    outer loop
      vertex 17.1807 1.32138 1.5
      vertex 17.2682 1.28671 0
      vertex 17.1807 1.32138 0
    endloop
  endfacet
  facet normal 0.998036 0.0626427 0
    outer loop
      vertex 16.7559 1.906 1.5
      vertex 16.75 2 0
      vertex 16.75 2 1.5
    endloop
  endfacet
  facet normal 0.998036 0.0626427 0
    outer loop
      vertex 16.75 2 0
      vertex 16.7559 1.906 1.5
      vertex 16.7559 1.906 0
    endloop
  endfacet
  facet normal 0 -1 0
    outer loop
      vertex 17.4529 2.74852 0
      vertex 17.5471 2.74852 1.5
      vertex 17.4529 2.74852 1.5
    endloop
  endfacet
  facet normal 0 -1 -0
    outer loop
      vertex 17.5471 2.74852 1.5
      vertex 17.4529 2.74852 0
      vertex 17.5471 2.74852 0
    endloop
  endfacet
  facet normal -0.684831 -0.728702 0
    outer loop
      vertex 17.9781 2.57788 0
      vertex 18.0467 2.51341 1.5
      vertex 17.9781 2.57788 1.5
    endloop
  endfacet
  facet normal -0.684831 -0.728702 -0
    outer loop
      vertex 18.0467 2.51341 1.5
      vertex 17.9781 2.57788 0
      vertex 18.0467 2.51341 0
    endloop
  endfacet
  facet normal -0.368366 0.929681 0
    outer loop
      vertex 17.8193 1.32138 0
      vertex 17.7318 1.28671 1.5
      vertex 17.8193 1.32138 1.5
    endloop
  endfacet
  facet normal -0.368366 0.929681 0
    outer loop
      vertex 17.7318 1.28671 1.5
      vertex 17.8193 1.32138 0
      vertex 17.7318 1.28671 0
    endloop
  endfacet
  facet normal 0.982188 0.187902 0
    outer loop
      vertex 16.7736 1.81348 1.5
      vertex 16.7559 1.906 0
      vertex 16.7559 1.906 1.5
    endloop
  endfacet
  facet normal 0.982188 0.187902 0
    outer loop
      vertex 16.7559 1.906 0
      vertex 16.7736 1.81348 1.5
      vertex 16.7736 1.81348 0
    endloop
  endfacet
  facet normal -0.48143 0.876485 0
    outer loop
      vertex 17.9019 1.36675 0
      vertex 17.8193 1.32138 1.5
      vertex 17.9019 1.36675 1.5
    endloop
  endfacet
  facet normal -0.48143 0.876485 0
    outer loop
      vertex 17.8193 1.32138 1.5
      vertex 17.9019 1.36675 0
      vertex 17.8193 1.32138 0
    endloop
  endfacet
  facet normal 0.770175 0.637833 0
    outer loop
      vertex 16.9533 1.48659 1.5
      vertex 16.8932 1.55916 0
      vertex 16.8932 1.55916 1.5
    endloop
  endfacet
  facet normal 0.770175 0.637833 0
    outer loop
      vertex 16.8932 1.55916 0
      vertex 16.9533 1.48659 1.5
      vertex 16.9533 1.48659 0
    endloop
  endfacet
  facet normal 0.684887 0.728649 -0
    outer loop
      vertex 17.0219 1.42211 0
      vertex 16.9533 1.48659 1.5
      vertex 17.0219 1.42211 1.5
    endloop
  endfacet
  facet normal 0.684887 0.728649 0
    outer loop
      vertex 16.9533 1.48659 1.5
      vertex 17.0219 1.42211 0
      vertex 16.9533 1.48659 0
    endloop
  endfacet
  facet normal -0.84467 -0.535287 0
    outer loop
      vertex 18.1572 2.36131 0
      vertex 18.1068 2.44084 1.5
      vertex 18.1068 2.44084 0
    endloop
  endfacet
  facet normal -0.84467 -0.535287 0
    outer loop
      vertex 18.1068 2.44084 1.5
      vertex 18.1572 2.36131 0
      vertex 18.1572 2.36131 1.5
    endloop
  endfacet
  facet normal -0.998036 -0.0626427 0
    outer loop
      vertex 18.25 2 0
      vertex 18.2441 2.094 1.5
      vertex 18.2441 2.094 0
    endloop
  endfacet
  facet normal -0.998036 -0.0626427 0
    outer loop
      vertex 18.2441 2.094 1.5
      vertex 18.25 2 0
      vertex 18.25 2 1.5
    endloop
  endfacet
  facet normal 0.125342 0.992114 -0
    outer loop
      vertex 17.4529 1.25148 0
      vertex 17.3595 1.26328 1.5
      vertex 17.4529 1.25148 1.5
    endloop
  endfacet
  facet normal 0.125342 0.992114 0
    outer loop
      vertex 17.3595 1.26328 1.5
      vertex 17.4529 1.25148 0
      vertex 17.3595 1.26328 0
    endloop
  endfacet
  facet normal -0.368366 -0.929681 0
    outer loop
      vertex 17.7318 2.71329 0
      vertex 17.8193 2.67862 1.5
      vertex 17.7318 2.71329 1.5
    endloop
  endfacet
  facet normal -0.368366 -0.929681 -0
    outer loop
      vertex 17.8193 2.67862 1.5
      vertex 17.7318 2.71329 0
      vertex 17.8193 2.67862 0
    endloop
  endfacet
  facet normal -0.982188 -0.187902 0
    outer loop
      vertex 18.2441 2.094 0
      vertex 18.2264 2.18652 1.5
      vertex 18.2264 2.18652 0
    endloop
  endfacet
  facet normal -0.982188 -0.187902 0
    outer loop
      vertex 18.2264 2.18652 1.5
      vertex 18.2441 2.094 0
      vertex 18.2441 2.094 1.5
    endloop
  endfacet
  facet normal 0.84467 -0.535287 0
    outer loop
      vertex 16.8428 2.36131 1.5
      vertex 16.8932 2.44084 0
      vertex 16.8932 2.44084 1.5
    endloop
  endfacet
  facet normal 0.84467 -0.535287 0
    outer loop
      vertex 16.8932 2.44084 0
      vertex 16.8428 2.36131 1.5
      vertex 16.8428 2.36131 0
    endloop
  endfacet
  facet normal 0 1 -0
    outer loop
      vertex 17.5471 1.25148 0
      vertex 17.4529 1.25148 1.5
      vertex 17.5471 1.25148 1.5
    endloop
  endfacet
  facet normal 0 1 0
    outer loop
      vertex 17.4529 1.25148 1.5
      vertex 17.5471 1.25148 0
      vertex 17.4529 1.25148 0
    endloop
  endfacet
  facet normal 0.982188 -0.187902 0
    outer loop
      vertex 16.7559 2.094 1.5
      vertex 16.7736 2.18652 0
      vertex 16.7736 2.18652 1.5
    endloop
  endfacet
  facet normal 0.982188 -0.187902 0
    outer loop
      vertex 16.7736 2.18652 0
      vertex 16.7559 2.094 1.5
      vertex 16.7559 2.094 0
    endloop
  endfacet
  facet normal -0.684887 0.728649 0
    outer loop
      vertex 18.0467 1.48659 0
      vertex 17.9781 1.42211 1.5
      vertex 18.0467 1.48659 1.5
    endloop
  endfacet
  facet normal -0.684887 0.728649 0
    outer loop
      vertex 17.9781 1.42211 1.5
      vertex 18.0467 1.48659 0
      vertex 17.9781 1.42211 0
    endloop
  endfacet
  facet normal -0.951066 0.308988 0
    outer loop
      vertex 18.1973 1.72391 0
      vertex 18.2264 1.81348 1.5
      vertex 18.2264 1.81348 0
    endloop
  endfacet
  facet normal -0.951066 0.308988 0
    outer loop
      vertex 18.2264 1.81348 1.5
      vertex 18.1973 1.72391 0
      vertex 18.1973 1.72391 1.5
    endloop
  endfacet
  facet normal -0.248572 0.968613 0
    outer loop
      vertex 17.7318 1.28671 0
      vertex 17.6405 1.26328 1.5
      vertex 17.7318 1.28671 1.5
    endloop
  endfacet
  facet normal -0.248572 0.968613 0
    outer loop
      vertex 17.6405 1.26328 1.5
      vertex 17.7318 1.28671 0
      vertex 17.6405 1.26328 0
    endloop
  endfacet
  facet normal 0.248572 -0.968613 0
    outer loop
      vertex 17.2682 2.71329 0
      vertex 17.3595 2.73672 1.5
      vertex 17.2682 2.71329 1.5
    endloop
  endfacet
  facet normal 0.248572 -0.968613 0
    outer loop
      vertex 17.3595 2.73672 1.5
      vertex 17.2682 2.71329 0
      vertex 17.3595 2.73672 0
    endloop
  endfacet
  facet normal -0.248572 -0.968613 0
    outer loop
      vertex 17.6405 2.73672 0
      vertex 17.7318 2.71329 1.5
      vertex 17.6405 2.73672 1.5
    endloop
  endfacet
  facet normal -0.248572 -0.968613 -0
    outer loop
      vertex 17.7318 2.71329 1.5
      vertex 17.6405 2.73672 0
      vertex 17.7318 2.71329 0
    endloop
  endfacet
  facet normal 0.684831 -0.728702 0
    outer loop
      vertex 16.9533 2.51341 0
      vertex 17.0219 2.57788 1.5
      vertex 16.9533 2.51341 1.5
    endloop
  endfacet
  facet normal 0.684831 -0.728702 0
    outer loop
      vertex 17.0219 2.57788 1.5
      vertex 16.9533 2.51341 0
      vertex 17.0219 2.57788 0
    endloop
  endfacet
  facet normal -0.125342 0.992114 0
    outer loop
      vertex 17.6405 1.26328 0
      vertex 17.5471 1.25148 1.5
      vertex 17.6405 1.26328 1.5
    endloop
  endfacet
  facet normal -0.125342 0.992114 0
    outer loop
      vertex 17.5471 1.25148 1.5
      vertex 17.6405 1.26328 0
      vertex 17.5471 1.25148 0
    endloop
  endfacet
  facet normal -0.587837 -0.808979 0
    outer loop
      vertex 17.9019 2.63325 0
      vertex 17.9781 2.57788 1.5
      vertex 17.9019 2.63325 1.5
    endloop
  endfacet
  facet normal -0.587837 -0.808979 -0
    outer loop
      vertex 17.9781 2.57788 1.5
      vertex 17.9019 2.63325 0
      vertex 17.9781 2.57788 0
    endloop
  endfacet
  facet normal 0.248572 0.968613 -0
    outer loop
      vertex 17.3595 1.26328 0
      vertex 17.2682 1.28671 1.5
      vertex 17.3595 1.26328 1.5
    endloop
  endfacet
  facet normal 0.248572 0.968613 0
    outer loop
      vertex 17.2682 1.28671 1.5
      vertex 17.3595 1.26328 0
      vertex 17.2682 1.28671 0
    endloop
  endfacet
  facet normal 0.84464 0.535335 0
    outer loop
      vertex 16.8932 1.55916 1.5
      vertex 16.8428 1.63868 0
      vertex 16.8428 1.63868 1.5
    endloop
  endfacet
  facet normal 0.84464 0.535335 0
    outer loop
      vertex 16.8428 1.63868 0
      vertex 16.8932 1.55916 1.5
      vertex 16.8932 1.55916 0
    endloop
  endfacet
  facet normal -0.951066 -0.308988 0
    outer loop
      vertex 18.2264 2.18652 0
      vertex 18.1973 2.27609 1.5
      vertex 18.1973 2.27609 0
    endloop
  endfacet
  facet normal -0.951066 -0.308988 0
    outer loop
      vertex 18.1973 2.27609 1.5
      vertex 18.2264 2.18652 0
      vertex 18.2264 2.18652 1.5
    endloop
  endfacet
  facet normal -0.998036 0.0626427 0
    outer loop
      vertex 18.2441 1.906 0
      vertex 18.25 2 1.5
      vertex 18.25 2 0
    endloop
  endfacet
  facet normal -0.998036 0.0626427 0
    outer loop
      vertex 18.25 2 1.5
      vertex 18.2441 1.906 0
      vertex 18.2441 1.906 1.5
    endloop
  endfacet
  facet normal 0.904833 -0.425766 0
    outer loop
      vertex 16.8027 2.27609 1.5
      vertex 16.8428 2.36131 0
      vertex 16.8428 2.36131 1.5
    endloop
  endfacet
  facet normal 0.904833 -0.425766 0
    outer loop
      vertex 16.8428 2.36131 0
      vertex 16.8027 2.27609 1.5
      vertex 16.8027 2.27609 0
    endloop
  endfacet
  facet normal 0.587837 -0.808979 0
    outer loop
      vertex 17.0219 2.57788 0
      vertex 17.0981 2.63325 1.5
      vertex 17.0219 2.57788 1.5
    endloop
  endfacet
  facet normal 0.587837 -0.808979 0
    outer loop
      vertex 17.0981 2.63325 1.5
      vertex 17.0219 2.57788 0
      vertex 17.0981 2.63325 0
    endloop
  endfacet
  facet normal 0.48143 0.876485 -0
    outer loop
      vertex 17.1807 1.32138 0
      vertex 17.0981 1.36675 1.5
      vertex 17.1807 1.32138 1.5
    endloop
  endfacet
  facet normal 0.48143 0.876485 0
    outer loop
      vertex 17.0981 1.36675 1.5
      vertex 17.1807 1.32138 0
      vertex 17.0981 1.36675 0
    endloop
  endfacet
  facet normal -0.84464 0.535335 0
    outer loop
      vertex 18.1068 1.55916 0
      vertex 18.1572 1.63868 1.5
      vertex 18.1572 1.63868 0
    endloop
  endfacet
  facet normal -0.84464 0.535335 0
    outer loop
      vertex 18.1572 1.63868 1.5
      vertex 18.1068 1.55916 0
      vertex 18.1068 1.55916 1.5
    endloop
  endfacet
  facet normal -0.904852 0.425725 0
    outer loop
      vertex 18.1572 1.63868 0
      vertex 18.1973 1.72391 1.5
      vertex 18.1973 1.72391 0
    endloop
  endfacet
  facet normal -0.904852 0.425725 0
    outer loop
      vertex 18.1973 1.72391 1.5
      vertex 18.1572 1.63868 0
      vertex 18.1572 1.63868 1.5
    endloop
  endfacet
  facet normal 0.951066 0.308988 0
    outer loop
      vertex 16.8027 1.72391 1.5
      vertex 16.7736 1.81348 0
      vertex 16.7736 1.81348 1.5
    endloop
  endfacet
  facet normal 0.951066 0.308988 0
    outer loop
      vertex 16.7736 1.81348 0
      vertex 16.8027 1.72391 1.5
      vertex 16.8027 1.72391 0
    endloop
  endfacet
  facet normal 0.951066 -0.308988 0
    outer loop
      vertex 16.7736 2.18652 1.5
      vertex 16.8027 2.27609 0
      vertex 16.8027 2.27609 1.5
    endloop
  endfacet
  facet normal 0.951066 -0.308988 0
    outer loop
      vertex 16.8027 2.27609 0
      vertex 16.7736 2.18652 1.5
      vertex 16.7736 2.18652 0
    endloop
  endfacet
  facet normal 0.998036 -0.0626427 0
    outer loop
      vertex 16.75 2 1.5
      vertex 16.7559 2.094 0
      vertex 16.7559 2.094 1.5
    endloop
  endfacet
  facet normal 0.998036 -0.0626427 0
    outer loop
      vertex 16.7559 2.094 0
      vertex 16.75 2 1.5
      vertex 16.75 2 0
    endloop
  endfacet
  facet normal -0.770175 -0.637833 0
    outer loop
      vertex 18.1068 2.44084 0
      vertex 18.0467 2.51341 1.5
      vertex 18.0467 2.51341 0
    endloop
  endfacet
  facet normal -0.770175 -0.637833 0
    outer loop
      vertex 18.0467 2.51341 1.5
      vertex 18.1068 2.44084 0
      vertex 18.1068 2.44084 1.5
    endloop
  endfacet
  facet normal 0.904852 0.425725 0
    outer loop
      vertex 16.8428 1.63868 1.5
      vertex 16.8027 1.72391 0
      vertex 16.8027 1.72391 1.5
    endloop
  endfacet
  facet normal 0.904852 0.425725 0
    outer loop
      vertex 16.8027 1.72391 0
      vertex 16.8428 1.63868 1.5
      vertex 16.8428 1.63868 0
    endloop
  endfacet
  facet normal -0.982188 0.187902 0
    outer loop
      vertex 18.2264 1.81348 0
      vertex 18.2441 1.906 1.5
      vertex 18.2441 1.906 0
    endloop
  endfacet
  facet normal -0.982188 0.187902 0
    outer loop
      vertex 18.2441 1.906 1.5
      vertex 18.2264 1.81348 0
      vertex 18.2264 1.81348 1.5
    endloop
  endfacet
  facet normal 0.368366 -0.929681 0
    outer loop
      vertex 17.1807 2.67862 0
      vertex 17.2682 2.71329 1.5
      vertex 17.1807 2.67862 1.5
    endloop
  endfacet
  facet normal 0.368366 -0.929681 0
    outer loop
      vertex 17.2682 2.71329 1.5
      vertex 17.1807 2.67862 0
      vertex 17.2682 2.71329 0
    endloop
  endfacet
  facet normal -0.904833 -0.425766 0
    outer loop
      vertex 18.1973 2.27609 0
      vertex 18.1572 2.36131 1.5
      vertex 18.1572 2.36131 0
    endloop
  endfacet
  facet normal -0.904833 -0.425766 0
    outer loop
      vertex 18.1572 2.36131 1.5
      vertex 18.1973 2.27609 0
      vertex 18.1973 2.27609 1.5
    endloop
  endfacet
  facet normal -0.770175 0.637833 0
    outer loop
      vertex 18.0467 1.48659 0
      vertex 18.1068 1.55916 1.5
      vertex 18.1068 1.55916 0
    endloop
  endfacet
  facet normal -0.770175 0.637833 0
    outer loop
      vertex 18.1068 1.55916 1.5
      vertex 18.0467 1.48659 0
      vertex 18.0467 1.48659 1.5
    endloop
  endfacet
  facet normal -0.587768 0.80903 0
    outer loop
      vertex 17.9781 1.42211 0
      vertex 17.9019 1.36675 1.5
      vertex 17.9781 1.42211 1.5
    endloop
  endfacet
  facet normal -0.587768 0.80903 0
    outer loop
      vertex 17.9019 1.36675 1.5
      vertex 17.9781 1.42211 0
      vertex 17.9019 1.36675 0
    endloop
  endfacet
  facet normal 0.770175 -0.637833 0
    outer loop
      vertex 16.8932 2.44084 1.5
      vertex 16.9533 2.51341 0
      vertex 16.9533 2.51341 1.5
    endloop
  endfacet
  facet normal 0.770175 -0.637833 0
    outer loop
      vertex 16.9533 2.51341 0
      vertex 16.8932 2.44084 1.5
      vertex 16.8932 2.44084 0
    endloop
  endfacet
  facet normal -0.48143 -0.876485 0
    outer loop
      vertex 17.8193 2.67862 0
      vertex 17.9019 2.63325 1.5
      vertex 17.8193 2.67862 1.5
    endloop
  endfacet
  facet normal -0.48143 -0.876485 -0
    outer loop
      vertex 17.9019 2.63325 1.5
      vertex 17.8193 2.67862 0
      vertex 17.9019 2.63325 0
    endloop
  endfacet
  facet normal -0.125342 -0.992114 0
    outer loop
      vertex 17.5471 2.74852 0
      vertex 17.6405 2.73672 1.5
      vertex 17.5471 2.74852 1.5
    endloop
  endfacet
  facet normal -0.125342 -0.992114 -0
    outer loop
      vertex 17.6405 2.73672 1.5
      vertex 17.5471 2.74852 0
      vertex 17.6405 2.73672 0
    endloop
  endfacet
  facet normal 0.48143 -0.876485 0
    outer loop
      vertex 17.0981 2.63325 0
      vertex 17.1807 2.67862 1.5
      vertex 17.0981 2.63325 1.5
    endloop
  endfacet
  facet normal 0.48143 -0.876485 0
    outer loop
      vertex 17.1807 2.67862 1.5
      vertex 17.0981 2.63325 0
      vertex 17.1807 2.67862 0
    endloop
  endfacet
  facet normal 0.587768 0.80903 -0
    outer loop
      vertex 17.0981 1.36675 0
      vertex 17.0219 1.42211 1.5
      vertex 17.0981 1.36675 1.5
    endloop
  endfacet
  facet normal 0.587768 0.80903 0
    outer loop
      vertex 17.0219 1.42211 1.5
      vertex 17.0981 1.36675 0
      vertex 17.0219 1.42211 0
    endloop
  endfacet
  facet normal 0.125342 -0.992114 0
    outer loop
      vertex 17.3595 2.73672 0
      vertex 17.4529 2.74852 1.5
      vertex 17.3595 2.73672 1.5
    endloop
  endfacet
  facet normal 0.125342 -0.992114 0
    outer loop
      vertex 17.4529 2.74852 1.5
      vertex 17.3595 2.73672 0
      vertex 17.4529 2.74852 0
    endloop
  endfacet
endsolid OpenSCAD_Model
