solid OpenSCAD_Model
  facet normal 0 0 -1
    outer loop
      vertex 15 8 0
      vertex 20 8.6 0
      vertex 15 7 0
    endloop
  endfacet
  facet normal -0 0 -1
    outer loop
      vertex 5 3 0
      vertex 1.25828 0.00662252 0
      vertex 5 4 0
    endloop
  endfacet
  facet normal 0 -0 -1
    outer loop
      vertex 25 10.8 0
      vertex 25 9.8 0
      vertex 20 9.6 0
    endloop
  endfacet
  facet normal -0 0 -1
    outer loop
      vertex 1.25828 0.00662252 0
      vertex 0 0 0
      vertex 5 4 0
    endloop
  endfacet
  facet normal 0 0 -1
    outer loop
      vertex 25 10.8 0
      vertex 30 10.8 0
      vertex 25 9.8 0
    endloop
  endfacet
  facet normal -0 0 -1
    outer loop
      vertex 40 12 0
      vertex 35 11.2 0
      vertex 35 12.2 0
    endloop
  endfacet
  facet normal 0 -0 -1
    outer loop
      vertex 50 14.1 0
      vertex 50 13.1 0
      vertex 45 13.9 0
    endloop
  endfacet
  facet normal 0 -0 -1
    outer loop
      vertex 60 15 0
      vertex 60 14 0
      vertex 55 14.9 0
    endloop
  endfacet
  facet normal -0 0 -1
    outer loop
      vertex 45 12.9 0
      vertex 40 12 0
      vertex 40 13 0
    endloop
  endfacet
  facet normal -0 0 -1
    outer loop
      vertex 50 13.1 0
      vertex 45 12.9 0
      vertex 45 13.9 0
    endloop
  endfacet
  facet normal 0 0 -1
    outer loop
      vertex 80 14.8 0
      vertex 80 15.8 0
      vertex 85 15.7 0
    endloop
  endfacet
  facet normal 0 -0 -1
    outer loop
      vertex 55 14.9 0
      vertex 55 13.9 0
      vertex 50 14.1 0
    endloop
  endfacet
  facet normal 0 0 -1
    outer loop
      vertex 75 14.5 0
      vertex 75 15.5 0
      vertex 80 14.8 0
    endloop
  endfacet
  facet normal 0 0 -1
    outer loop
      vertex 70 14.1 0
      vertex 70 15.1 0
      vertex 75 14.5 0
    endloop
  endfacet
  facet normal 0 0 -1
    outer loop
      vertex 100 14 0
      vertex 95 14.3 0
      vertex 100 15 0
    endloop
  endfacet
  facet normal 0 0 -1
    outer loop
      vertex 80 14.8 0
      vertex 75 15.5 0
      vertex 80 15.8 0
    endloop
  endfacet
  facet normal 0 0 -1
    outer loop
      vertex 70 15.1 0
      vertex 75 15.5 0
      vertex 75 14.5 0
    endloop
  endfacet
  facet normal 0 0 -1
    outer loop
      vertex 110 13.2 0
      vertex 105 13.95 0
      vertex 110 14.2 0
    endloop
  endfacet
  facet normal -0 0 -1
    outer loop
      vertex 110 14.2 0
      vertex 105 13.95 0
      vertex 105 14.95 0
    endloop
  endfacet
  facet normal 0 0 -1
    outer loop
      vertex 105 13.95 0
      vertex 100 14 0
      vertex 105 14.95 0
    endloop
  endfacet
  facet normal 0 0 -1
    outer loop
      vertex 130 11.05 0
      vertex 125 11.95 0
      vertex 130 12.05 0
    endloop
  endfacet
  facet normal -0 0 -1
    outer loop
      vertex 135 11.7 0
      vertex 130 11.05 0
      vertex 130 12.05 0
    endloop
  endfacet
  facet normal 0 -0 -1
    outer loop
      vertex 115 14 0
      vertex 115 13 0
      vertex 110 13.2 0
    endloop
  endfacet
  facet normal 0 -0 -1
    outer loop
      vertex 135 11.7 0
      vertex 135 10.7 0
      vertex 130 11.05 0
    endloop
  endfacet
  facet normal 0 -0 -1
    outer loop
      vertex 125 12.95 0
      vertex 125 11.95 0
      vertex 120 12.2 0
    endloop
  endfacet
  facet normal 0 0 -1
    outer loop
      vertex 140 11 0
      vertex 155 8 0
      vertex 140 10 0
    endloop
  endfacet
  facet normal -0 0 -1
    outer loop
      vertex 140 11 0
      vertex 135 10.7 0
      vertex 135 11.7 0
    endloop
  endfacet
  facet normal 0 0 -1
    outer loop
      vertex 170 4.1 0
      vertex 165 5.2 0
      vertex 170 5.1 0
    endloop
  endfacet
  facet normal 0 0 -1
    outer loop
      vertex 185 2.1 0
      vertex 170 4.1 0
      vertex 170 5.1 0
    endloop
  endfacet
  facet normal 0 0 -1
    outer loop
      vertex 185.561 0.976636 0
      vertex 185 1.1 0
      vertex 185 2.1 0
    endloop
  endfacet
  facet normal -0 -0 -1
    outer loop
      vertex 185 2.1 0
      vertex 185 1.1 0
      vertex 170 4.1 0
    endloop
  endfacet
  facet normal 0 0 -1
    outer loop
      vertex 185 2.1 0
      vertex 190 1 0
      vertex 185.561 0.976636 0
    endloop
  endfacet
  facet normal 0 0 -1
    outer loop
      vertex 170 5.1 0
      vertex 165 5.2 0
      vertex 165 6.2 0
    endloop
  endfacet
  facet normal -0 -0 -1
    outer loop
      vertex 165 6.2 0
      vertex 165 5.2 0
      vertex 160 7.1 0
    endloop
  endfacet
  facet normal 0 -0 -1
    outer loop
      vertex 160 7.1 0
      vertex 165 5.2 0
      vertex 155 7 0
    endloop
  endfacet
  facet normal 0 0 -1
    outer loop
      vertex 155 8 0
      vertex 160 7.1 0
      vertex 155 7 0
    endloop
  endfacet
  facet normal 0 0 -1
    outer loop
      vertex 140 10 0
      vertex 155 8 0
      vertex 155 7 0
    endloop
  endfacet
  facet normal 0 0 -1
    outer loop
      vertex 135 10.7 0
      vertex 140 11 0
      vertex 140 10 0
    endloop
  endfacet
  facet normal -0 0 -1
    outer loop
      vertex 125 12.95 0
      vertex 120 12.2 0
      vertex 120 13.2 0
    endloop
  endfacet
  facet normal -0 0 -1
    outer loop
      vertex 130 12.05 0
      vertex 125 11.95 0
      vertex 125 12.95 0
    endloop
  endfacet
  facet normal 0 0 -1
    outer loop
      vertex 115 14 0
      vertex 120 13.2 0
      vertex 115 13 0
    endloop
  endfacet
  facet normal 0 -0 -1
    outer loop
      vertex 120 13.2 0
      vertex 120 12.2 0
      vertex 115 13 0
    endloop
  endfacet
  facet normal 0 0 -1
    outer loop
      vertex 110 14.2 0
      vertex 115 14 0
      vertex 110 13.2 0
    endloop
  endfacet
  facet normal -0 0 -1
    outer loop
      vertex 105 14.95 0
      vertex 100 14 0
      vertex 100 15 0
    endloop
  endfacet
  facet normal -0 0 -1
    outer loop
      vertex 100 15 0
      vertex 95 14.3 0
      vertex 95 15.3 0
    endloop
  endfacet
  facet normal 0 -0 -1
    outer loop
      vertex 95 15.3 0
      vertex 95 14.3 0
      vertex 85 14.7 0
    endloop
  endfacet
  facet normal 0 0 -1
    outer loop
      vertex 85 15.7 0
      vertex 95 15.3 0
      vertex 85 14.7 0
    endloop
  endfacet
  facet normal 0 0 -1
    outer loop
      vertex 80 14.8 0
      vertex 85 15.7 0
      vertex 85 14.7 0
    endloop
  endfacet
  facet normal 0 0 -1
    outer loop
      vertex 70 14.1 0
      vertex 65 15 0
      vertex 70 15.1 0
    endloop
  endfacet
  facet normal -0 -0 -1
    outer loop
      vertex 65 15 0
      vertex 65 14 0
      vertex 60 15 0
    endloop
  endfacet
  facet normal -0 0 -1
    outer loop
      vertex 70 14.1 0
      vertex 65 14 0
      vertex 65 15 0
    endloop
  endfacet
  facet normal 0 0 -1
    outer loop
      vertex 60 15 0
      vertex 65 14 0
      vertex 60 14 0
    endloop
  endfacet
  facet normal 0 0 -1
    outer loop
      vertex 55 14.9 0
      vertex 60 14 0
      vertex 55 13.9 0
    endloop
  endfacet
  facet normal 0 0 -1
    outer loop
      vertex 50 14.1 0
      vertex 55 13.9 0
      vertex 50 13.1 0
    endloop
  endfacet
  facet normal 0 -0 -1
    outer loop
      vertex 45 13.9 0
      vertex 45 12.9 0
      vertex 40 13 0
    endloop
  endfacet
  facet normal 0 -0 -1
    outer loop
      vertex 40 13 0
      vertex 40 12 0
      vertex 35 12.2 0
    endloop
  endfacet
  facet normal 0 -0 -1
    outer loop
      vertex 35 12.2 0
      vertex 35 11.2 0
      vertex 30 11.8 0
    endloop
  endfacet
  facet normal 0 0 -1
    outer loop
      vertex 30 11.8 0
      vertex 35 11.2 0
      vertex 30 10.8 0
    endloop
  endfacet
  facet normal 0 0 -1
    outer loop
      vertex 25 10.8 0
      vertex 30 11.8 0
      vertex 30 10.8 0
    endloop
  endfacet
  facet normal 0 0 -1
    outer loop
      vertex 20 9.6 0
      vertex 25 9.8 0
      vertex 20 8.6 0
    endloop
  endfacet
  facet normal 0 0 -1
    outer loop
      vertex 15 8 0
      vertex 20 9.6 0
      vertex 20 8.6 0
    endloop
  endfacet
  facet normal 0 0 -1
    outer loop
      vertex 5 4 0
      vertex 15 8 0
      vertex 15 7 0
    endloop
  endfacet
  facet normal 0 0 -1
    outer loop
      vertex 5 3 0
      vertex 5 4 0
      vertex 15 7 0
    endloop
  endfacet
  facet normal 0.624695 -0.780869 0
    outer loop
      vertex 5 3 0
      vertex 1.25828 0.00662252 20
      vertex 1.25828 0.00662252 0
    endloop
  endfacet
  facet normal 0.624695 -0.780869 0
    outer loop
      vertex 5 3 0
      vertex 5 3 20
      vertex 1.25828 0.00662252 20
    endloop
  endfacet
  facet normal 0.371391 -0.928477 0
    outer loop
      vertex 15 7 0
      vertex 5 3 20
      vertex 5 3 0
    endloop
  endfacet
  facet normal 0.371391 -0.928477 0
    outer loop
      vertex 15 7 0
      vertex 15 7 20
      vertex 5 3 20
    endloop
  endfacet
  facet normal 0.304776 -0.952424 0
    outer loop
      vertex 20 8.6 0
      vertex 15 7 20
      vertex 15 7 0
    endloop
  endfacet
  facet normal 0.304776 -0.952424 0
    outer loop
      vertex 20 8.6 0
      vertex 20 8.6 20
      vertex 15 7 20
    endloop
  endfacet
  facet normal 0.233373 -0.972387 0
    outer loop
      vertex 25 9.8 0
      vertex 20 8.6 20
      vertex 20 8.6 0
    endloop
  endfacet
  facet normal 0.233373 -0.972387 0
    outer loop
      vertex 25 9.8 0
      vertex 25 9.8 20
      vertex 20 8.6 20
    endloop
  endfacet
  facet normal 0.196116 -0.980581 0
    outer loop
      vertex 30 10.8 0
      vertex 25 9.8 20
      vertex 25 9.8 0
    endloop
  endfacet
  facet normal 0.196116 -0.980581 0
    outer loop
      vertex 30 10.8 0
      vertex 30 10.8 20
      vertex 25 9.8 20
    endloop
  endfacet
  facet normal 0.0797452 -0.996815 0
    outer loop
      vertex 35 11.2 0
      vertex 30 10.8 20
      vertex 30 10.8 0
    endloop
  endfacet
  facet normal 0.0797452 -0.996815 0
    outer loop
      vertex 35 11.2 0
      vertex 35 11.2 20
      vertex 30 10.8 20
    endloop
  endfacet
  facet normal 0.157991 -0.987441 0
    outer loop
      vertex 40 12 0
      vertex 35 11.2 20
      vertex 35 11.2 0
    endloop
  endfacet
  facet normal 0.157991 -0.987441 0
    outer loop
      vertex 40 12 0
      vertex 40 12 20
      vertex 35 11.2 20
    endloop
  endfacet
  facet normal 0.177153 -0.984183 0
    outer loop
      vertex 45 12.9 0
      vertex 40 12 20
      vertex 40 12 0
    endloop
  endfacet
  facet normal 0.177153 -0.984183 0
    outer loop
      vertex 45 12.9 0
      vertex 45 12.9 20
      vertex 40 12 20
    endloop
  endfacet
  facet normal 0.039968 -0.999201 0
    outer loop
      vertex 50 13.1 0
      vertex 45 12.9 20
      vertex 45 12.9 0
    endloop
  endfacet
  facet normal 0.039968 -0.999201 0
    outer loop
      vertex 50 13.1 0
      vertex 50 13.1 20
      vertex 45 12.9 20
    endloop
  endfacet
  facet normal 0.157991 -0.987441 0
    outer loop
      vertex 55 13.9 0
      vertex 50 13.1 20
      vertex 50 13.1 0
    endloop
  endfacet
  facet normal 0.157991 -0.987441 0
    outer loop
      vertex 55 13.9 0
      vertex 55 13.9 20
      vertex 50 13.1 20
    endloop
  endfacet
  facet normal 0.019996 -0.9998 0
    outer loop
      vertex 60 14 0
      vertex 55 13.9 20
      vertex 55 13.9 0
    endloop
  endfacet
  facet normal 0.019996 -0.9998 0
    outer loop
      vertex 60 14 0
      vertex 60 14 20
      vertex 55 13.9 20
    endloop
  endfacet
  facet normal 0 -1 0
    outer loop
      vertex 65 14 0
      vertex 60 14 20
      vertex 60 14 0
    endloop
  endfacet
  facet normal 0 -1 0
    outer loop
      vertex 65 14 0
      vertex 65 14 20
      vertex 60 14 20
    endloop
  endfacet
  facet normal 0.019996 -0.9998 0
    outer loop
      vertex 70 14.1 0
      vertex 65 14 20
      vertex 65 14 0
    endloop
  endfacet
  facet normal 0.019996 -0.9998 0
    outer loop
      vertex 70 14.1 0
      vertex 70 14.1 20
      vertex 65 14 20
    endloop
  endfacet
  facet normal 0.0797452 -0.996815 0
    outer loop
      vertex 75 14.5 0
      vertex 70 14.1 20
      vertex 70 14.1 0
    endloop
  endfacet
  facet normal 0.0797452 -0.996815 0
    outer loop
      vertex 75 14.5 0
      vertex 75 14.5 20
      vertex 70 14.1 20
    endloop
  endfacet
  facet normal 0.0598923 -0.998205 0
    outer loop
      vertex 80 14.8 0
      vertex 75 14.5 20
      vertex 75 14.5 0
    endloop
  endfacet
  facet normal 0.0598923 -0.998205 0
    outer loop
      vertex 80 14.8 0
      vertex 80 14.8 20
      vertex 75 14.5 20
    endloop
  endfacet
  facet normal -0.019996 -0.9998 0
    outer loop
      vertex 85 14.7 0
      vertex 80 14.8 20
      vertex 80 14.8 0
    endloop
  endfacet
  facet normal -0.019996 -0.9998 0
    outer loop
      vertex 85 14.7 0
      vertex 85 14.7 20
      vertex 80 14.8 20
    endloop
  endfacet
  facet normal -0.039968 -0.999201 0
    outer loop
      vertex 95 14.3 0
      vertex 85 14.7 20
      vertex 85 14.7 0
    endloop
  endfacet
  facet normal -0.039968 -0.999201 0
    outer loop
      vertex 95 14.3 0
      vertex 95 14.3 20
      vertex 85 14.7 20
    endloop
  endfacet
  facet normal -0.0598923 -0.998205 0
    outer loop
      vertex 100 14 0
      vertex 95 14.3 20
      vertex 95 14.3 0
    endloop
  endfacet
  facet normal -0.0598923 -0.998205 0
    outer loop
      vertex 100 14 0
      vertex 100 14 20
      vertex 95 14.3 20
    endloop
  endfacet
  facet normal -0.0099995 -0.99995 0
    outer loop
      vertex 105 13.95 0
      vertex 100 14 20
      vertex 100 14 0
    endloop
  endfacet
  facet normal -0.0099995 -0.99995 0
    outer loop
      vertex 105 13.95 0
      vertex 105 13.95 20
      vertex 100 14 20
    endloop
  endfacet
  facet normal -0.14834 -0.988936 0
    outer loop
      vertex 110 13.2 0
      vertex 105 13.95 20
      vertex 105 13.95 0
    endloop
  endfacet
  facet normal -0.14834 -0.988936 0
    outer loop
      vertex 110 13.2 0
      vertex 110 13.2 20
      vertex 105 13.95 20
    endloop
  endfacet
  facet normal -0.039968 -0.999201 0
    outer loop
      vertex 115 13 0
      vertex 110 13.2 20
      vertex 110 13.2 0
    endloop
  endfacet
  facet normal -0.039968 -0.999201 0
    outer loop
      vertex 115 13 0
      vertex 115 13 20
      vertex 110 13.2 20
    endloop
  endfacet
  facet normal -0.157991 -0.987441 0
    outer loop
      vertex 120 12.2 0
      vertex 115 13 20
      vertex 115 13 0
    endloop
  endfacet
  facet normal -0.157991 -0.987441 0
    outer loop
      vertex 120 12.2 0
      vertex 120 12.2 20
      vertex 115 13 20
    endloop
  endfacet
  facet normal -0.0499376 -0.998752 0
    outer loop
      vertex 125 11.95 0
      vertex 120 12.2 20
      vertex 120 12.2 0
    endloop
  endfacet
  facet normal -0.0499376 -0.998752 0
    outer loop
      vertex 125 11.95 0
      vertex 125 11.95 20
      vertex 120 12.2 20
    endloop
  endfacet
  facet normal -0.177153 -0.984183 0
    outer loop
      vertex 130 11.05 0
      vertex 125 11.95 20
      vertex 125 11.95 0
    endloop
  endfacet
  facet normal -0.177153 -0.984183 0
    outer loop
      vertex 130 11.05 0
      vertex 130 11.05 20
      vertex 125 11.95 20
    endloop
  endfacet
  facet normal -0.0698291 -0.997559 0
    outer loop
      vertex 135 10.7 0
      vertex 130 11.05 20
      vertex 130 11.05 0
    endloop
  endfacet
  facet normal -0.0698291 -0.997559 0
    outer loop
      vertex 135 10.7 0
      vertex 135 10.7 20
      vertex 130 11.05 20
    endloop
  endfacet
  facet normal -0.138648 -0.990342 0
    outer loop
      vertex 140 10 0
      vertex 135 10.7 20
      vertex 135 10.7 0
    endloop
  endfacet
  facet normal -0.138648 -0.990342 0
    outer loop
      vertex 140 10 0
      vertex 140 10 20
      vertex 135 10.7 20
    endloop
  endfacet
  facet normal -0.196116 -0.980581 0
    outer loop
      vertex 155 7 0
      vertex 140 10 20
      vertex 140 10 0
    endloop
  endfacet
  facet normal -0.196116 -0.980581 0
    outer loop
      vertex 155 7 0
      vertex 155 7 20
      vertex 140 10 20
    endloop
  endfacet
  facet normal -0.177153 -0.984183 0
    outer loop
      vertex 165 5.2 0
      vertex 155 7 20
      vertex 155 7 0
    endloop
  endfacet
  facet normal -0.177153 -0.984183 0
    outer loop
      vertex 165 5.2 0
      vertex 165 5.2 20
      vertex 155 7 20
    endloop
  endfacet
  facet normal -0.214862 -0.976644 0
    outer loop
      vertex 170 4.1 0
      vertex 165 5.2 20
      vertex 165 5.2 0
    endloop
  endfacet
  facet normal -0.214862 -0.976644 0
    outer loop
      vertex 170 4.1 0
      vertex 170 4.1 20
      vertex 165 5.2 20
    endloop
  endfacet
  facet normal -0.196116 -0.980581 0
    outer loop
      vertex 185 1.1 0
      vertex 170 4.1 20
      vertex 170 4.1 0
    endloop
  endfacet
  facet normal -0.196116 -0.980581 0
    outer loop
      vertex 185 1.1 0
      vertex 185 1.1 20
      vertex 170 4.1 20
    endloop
  endfacet
  facet normal -0.214769 -0.976665 0
    outer loop
      vertex 185.561 0.976636 0
      vertex 185 1.1 20
      vertex 185 1.1 0
    endloop
  endfacet
  facet normal -0.214769 -0.976665 0
    outer loop
      vertex 185.561 0.976636 0
      vertex 185.561 0.976636 20
      vertex 185 1.1 20
    endloop
  endfacet
  facet normal 0.00526327 -0.999986 0
    outer loop
      vertex 190 1 0
      vertex 185.561 0.976636 20
      vertex 185.561 0.976636 0
    endloop
  endfacet
  facet normal 0.00526327 -0.999986 0
    outer loop
      vertex 190 1 0
      vertex 190 1 20
      vertex 185.561 0.976636 20
    endloop
  endfacet
  facet normal 0.214862 0.976644 0
    outer loop
      vertex 185 2.1 0
      vertex 190 1 20
      vertex 190 1 0
    endloop
  endfacet
  facet normal 0.214862 0.976644 -0
    outer loop
      vertex 185 2.1 0
      vertex 185 2.1 20
      vertex 190 1 20
    endloop
  endfacet
  facet normal 0.196116 0.980581 0
    outer loop
      vertex 170 5.1 0
      vertex 185 2.1 20
      vertex 185 2.1 0
    endloop
  endfacet
  facet normal 0.196116 0.980581 -0
    outer loop
      vertex 170 5.1 0
      vertex 170 5.1 20
      vertex 185 2.1 20
    endloop
  endfacet
  facet normal 0.214862 0.976644 0
    outer loop
      vertex 165 6.2 0
      vertex 170 5.1 20
      vertex 170 5.1 0
    endloop
  endfacet
  facet normal 0.214862 0.976644 -0
    outer loop
      vertex 165 6.2 0
      vertex 165 6.2 20
      vertex 170 5.1 20
    endloop
  endfacet
  facet normal 0.177153 0.984183 0
    outer loop
      vertex 160 7.1 0
      vertex 165 6.2 20
      vertex 165 6.2 0
    endloop
  endfacet
  facet normal 0.177153 0.984183 -0
    outer loop
      vertex 160 7.1 0
      vertex 160 7.1 20
      vertex 165 6.2 20
    endloop
  endfacet
  facet normal 0.177153 0.984183 0
    outer loop
      vertex 155 8 0
      vertex 160 7.1 20
      vertex 160 7.1 0
    endloop
  endfacet
  facet normal 0.177153 0.984183 -0
    outer loop
      vertex 155 8 0
      vertex 155 8 20
      vertex 160 7.1 20
    endloop
  endfacet
  facet normal 0.196116 0.980581 0
    outer loop
      vertex 140 11 0
      vertex 155 8 20
      vertex 155 8 0
    endloop
  endfacet
  facet normal 0.196116 0.980581 -0
    outer loop
      vertex 140 11 0
      vertex 140 11 20
      vertex 155 8 20
    endloop
  endfacet
  facet normal 0.138648 0.990342 0
    outer loop
      vertex 135 11.7 0
      vertex 140 11 20
      vertex 140 11 0
    endloop
  endfacet
  facet normal 0.138648 0.990342 -0
    outer loop
      vertex 135 11.7 0
      vertex 135 11.7 20
      vertex 140 11 20
    endloop
  endfacet
  facet normal 0.0698291 0.997559 0
    outer loop
      vertex 130 12.05 0
      vertex 135 11.7 20
      vertex 135 11.7 0
    endloop
  endfacet
  facet normal 0.0698291 0.997559 -0
    outer loop
      vertex 130 12.05 0
      vertex 130 12.05 20
      vertex 135 11.7 20
    endloop
  endfacet
  facet normal 0.177153 0.984183 0
    outer loop
      vertex 125 12.95 0
      vertex 130 12.05 20
      vertex 130 12.05 0
    endloop
  endfacet
  facet normal 0.177153 0.984183 -0
    outer loop
      vertex 125 12.95 0
      vertex 125 12.95 20
      vertex 130 12.05 20
    endloop
  endfacet
  facet normal 0.0499376 0.998752 0
    outer loop
      vertex 120 13.2 0
      vertex 125 12.95 20
      vertex 125 12.95 0
    endloop
  endfacet
  facet normal 0.0499376 0.998752 -0
    outer loop
      vertex 120 13.2 0
      vertex 120 13.2 20
      vertex 125 12.95 20
    endloop
  endfacet
  facet normal 0.157991 0.987441 0
    outer loop
      vertex 115 14 0
      vertex 120 13.2 20
      vertex 120 13.2 0
    endloop
  endfacet
  facet normal 0.157991 0.987441 -0
    outer loop
      vertex 115 14 0
      vertex 115 14 20
      vertex 120 13.2 20
    endloop
  endfacet
  facet normal 0.039968 0.999201 0
    outer loop
      vertex 110 14.2 0
      vertex 115 14 20
      vertex 115 14 0
    endloop
  endfacet
  facet normal 0.039968 0.999201 -0
    outer loop
      vertex 110 14.2 0
      vertex 110 14.2 20
      vertex 115 14 20
    endloop
  endfacet
  facet normal 0.14834 0.988936 0
    outer loop
      vertex 105 14.95 0
      vertex 110 14.2 20
      vertex 110 14.2 0
    endloop
  endfacet
  facet normal 0.14834 0.988936 -0
    outer loop
      vertex 105 14.95 0
      vertex 105 14.95 20
      vertex 110 14.2 20
    endloop
  endfacet
  facet normal 0.0099995 0.99995 0
    outer loop
      vertex 100 15 0
      vertex 105 14.95 20
      vertex 105 14.95 0
    endloop
  endfacet
  facet normal 0.0099995 0.99995 -0
    outer loop
      vertex 100 15 0
      vertex 100 15 20
      vertex 105 14.95 20
    endloop
  endfacet
  facet normal 0.0598923 0.998205 0
    outer loop
      vertex 95 15.3 0
      vertex 100 15 20
      vertex 100 15 0
    endloop
  endfacet
  facet normal 0.0598923 0.998205 -0
    outer loop
      vertex 95 15.3 0
      vertex 95 15.3 20
      vertex 100 15 20
    endloop
  endfacet
  facet normal 0.039968 0.999201 0
    outer loop
      vertex 85 15.7 0
      vertex 95 15.3 20
      vertex 95 15.3 0
    endloop
  endfacet
  facet normal 0.039968 0.999201 -0
    outer loop
      vertex 85 15.7 0
      vertex 85 15.7 20
      vertex 95 15.3 20
    endloop
  endfacet
  facet normal 0.019996 0.9998 0
    outer loop
      vertex 80 15.8 0
      vertex 85 15.7 20
      vertex 85 15.7 0
    endloop
  endfacet
  facet normal 0.019996 0.9998 -0
    outer loop
      vertex 80 15.8 0
      vertex 80 15.8 20
      vertex 85 15.7 20
    endloop
  endfacet
  facet normal -0.0598923 0.998205 0
    outer loop
      vertex 75 15.5 0
      vertex 80 15.8 20
      vertex 80 15.8 0
    endloop
  endfacet
  facet normal -0.0598923 0.998205 0
    outer loop
      vertex 75 15.5 0
      vertex 75 15.5 20
      vertex 80 15.8 20
    endloop
  endfacet
  facet normal -0.0797452 0.996815 0
    outer loop
      vertex 70 15.1 0
      vertex 75 15.5 20
      vertex 75 15.5 0
    endloop
  endfacet
  facet normal -0.0797452 0.996815 0
    outer loop
      vertex 70 15.1 0
      vertex 70 15.1 20
      vertex 75 15.5 20
    endloop
  endfacet
  facet normal -0.019996 0.9998 0
    outer loop
      vertex 65 15 0
      vertex 70 15.1 20
      vertex 70 15.1 0
    endloop
  endfacet
  facet normal -0.019996 0.9998 0
    outer loop
      vertex 65 15 0
      vertex 65 15 20
      vertex 70 15.1 20
    endloop
  endfacet
  facet normal 0 1 0
    outer loop
      vertex 60 15 0
      vertex 65 15 20
      vertex 65 15 0
    endloop
  endfacet
  facet normal 0 1 0
    outer loop
      vertex 60 15 0
      vertex 60 15 20
      vertex 65 15 20
    endloop
  endfacet
  facet normal -0.019996 0.9998 0
    outer loop
      vertex 55 14.9 0
      vertex 60 15 20
      vertex 60 15 0
    endloop
  endfacet
  facet normal -0.019996 0.9998 0
    outer loop
      vertex 55 14.9 0
      vertex 55 14.9 20
      vertex 60 15 20
    endloop
  endfacet
  facet normal -0.157991 0.987441 0
    outer loop
      vertex 50 14.1 0
      vertex 55 14.9 20
      vertex 55 14.9 0
    endloop
  endfacet
  facet normal -0.157991 0.987441 0
    outer loop
      vertex 50 14.1 0
      vertex 50 14.1 20
      vertex 55 14.9 20
    endloop
  endfacet
  facet normal -0.039968 0.999201 0
    outer loop
      vertex 45 13.9 0
      vertex 50 14.1 20
      vertex 50 14.1 0
    endloop
  endfacet
  facet normal -0.039968 0.999201 0
    outer loop
      vertex 45 13.9 0
      vertex 45 13.9 20
      vertex 50 14.1 20
    endloop
  endfacet
  facet normal -0.177153 0.984183 0
    outer loop
      vertex 40 13 0
      vertex 45 13.9 20
      vertex 45 13.9 0
    endloop
  endfacet
  facet normal -0.177153 0.984183 0
    outer loop
      vertex 40 13 0
      vertex 40 13 20
      vertex 45 13.9 20
    endloop
  endfacet
  facet normal -0.157991 0.987441 0
    outer loop
      vertex 35 12.2 0
      vertex 40 13 20
      vertex 40 13 0
    endloop
  endfacet
  facet normal -0.157991 0.987441 0
    outer loop
      vertex 35 12.2 0
      vertex 35 12.2 20
      vertex 40 13 20
    endloop
  endfacet
  facet normal -0.0797452 0.996815 0
    outer loop
      vertex 30 11.8 0
      vertex 35 12.2 20
      vertex 35 12.2 0
    endloop
  endfacet
  facet normal -0.0797452 0.996815 0
    outer loop
      vertex 30 11.8 0
      vertex 30 11.8 20
      vertex 35 12.2 20
    endloop
  endfacet
  facet normal -0.196116 0.980581 0
    outer loop
      vertex 25 10.8 0
      vertex 30 11.8 20
      vertex 30 11.8 0
    endloop
  endfacet
  facet normal -0.196116 0.980581 0
    outer loop
      vertex 25 10.8 0
      vertex 25 10.8 20
      vertex 30 11.8 20
    endloop
  endfacet
  facet normal -0.233373 0.972387 0
    outer loop
      vertex 20 9.6 0
      vertex 25 10.8 20
      vertex 25 10.8 0
    endloop
  endfacet
  facet normal -0.233373 0.972387 0
    outer loop
      vertex 20 9.6 0
      vertex 20 9.6 20
      vertex 25 10.8 20
    endloop
  endfacet
  facet normal -0.304776 0.952424 0
    outer loop
      vertex 15 8 0
      vertex 20 9.6 20
      vertex 20 9.6 0
    endloop
  endfacet
  facet normal -0.304776 0.952424 0
    outer loop
      vertex 15 8 0
      vertex 15 8 20
      vertex 20 9.6 20
    endloop
  endfacet
  facet normal -0.371391 0.928477 0
    outer loop
      vertex 5 4 0
      vertex 15 8 20
      vertex 15 8 0
    endloop
  endfacet
  facet normal -0.371391 0.928477 0
    outer loop
      vertex 5 4 0
      vertex 5 4 20
      vertex 15 8 20
    endloop
  endfacet
  facet normal -0.624695 0.780869 0
    outer loop
      vertex 0 0 0
      vertex 5 4 20
      vertex 5 4 0
    endloop
  endfacet
  facet normal -0.624695 0.780869 0
    outer loop
      vertex 0 0 0
      vertex 0 0 20
      vertex 5 4 20
    endloop
  endfacet
  facet normal 0.00526308 -0.999986 0
    outer loop
      vertex 1.25828 0.00662252 0
      vertex 0 0 20
      vertex 0 0 0
    endloop
  endfacet
  facet normal 0.00526308 -0.999986 0
    outer loop
      vertex 1.25828 0.00662252 0
      vertex 1.25828 0.00662252 20
      vertex 0 0 20
    endloop
  endfacet
  facet normal 0 0 1
    outer loop
      vertex 15 7 20
      vertex 20 8.6 20
      vertex 15 8 20
    endloop
  endfacet
  facet normal 0 0 1
    outer loop
      vertex 5 4 20
      vertex 1.25828 0.00662252 20
      vertex 5 3 20
    endloop
  endfacet
  facet normal 0 0 1
    outer loop
      vertex 20 9.6 20
      vertex 25 9.8 20
      vertex 25 10.8 20
    endloop
  endfacet
  facet normal 0 0 1
    outer loop
      vertex 5 4 20
      vertex 0 0 20
      vertex 1.25828 0.00662252 20
    endloop
  endfacet
  facet normal 0 0 1
    outer loop
      vertex 25 9.8 20
      vertex 30 10.8 20
      vertex 25 10.8 20
    endloop
  endfacet
  facet normal 0 0 1
    outer loop
      vertex 35 12.2 20
      vertex 35 11.2 20
      vertex 40 12 20
    endloop
  endfacet
  facet normal -0 0 1
    outer loop
      vertex 45 13.9 20
      vertex 50 13.1 20
      vertex 50 14.1 20
    endloop
  endfacet
  facet normal -0 0 1
    outer loop
      vertex 55 14.9 20
      vertex 60 14 20
      vertex 60 15 20
    endloop
  endfacet
  facet normal 0 0 1
    outer loop
      vertex 40 13 20
      vertex 40 12 20
      vertex 45 12.9 20
    endloop
  endfacet
  facet normal 0 0 1
    outer loop
      vertex 45 13.9 20
      vertex 45 12.9 20
      vertex 50 13.1 20
    endloop
  endfacet
  facet normal 0 0 1
    outer loop
      vertex 85 15.7 20
      vertex 80 15.8 20
      vertex 80 14.8 20
    endloop
  endfacet
  facet normal -0 0 1
    outer loop
      vertex 50 14.1 20
      vertex 55 13.9 20
      vertex 55 14.9 20
    endloop
  endfacet
  facet normal 0 0 1
    outer loop
      vertex 80 14.8 20
      vertex 75 15.5 20
      vertex 75 14.5 20
    endloop
  endfacet
  facet normal 0 0 1
    outer loop
      vertex 75 14.5 20
      vertex 70 15.1 20
      vertex 70 14.1 20
    endloop
  endfacet
  facet normal 0 0 1
    outer loop
      vertex 100 15 20
      vertex 95 14.3 20
      vertex 100 14 20
    endloop
  endfacet
  facet normal 0 0 1
    outer loop
      vertex 80 15.8 20
      vertex 75 15.5 20
      vertex 80 14.8 20
    endloop
  endfacet
  facet normal 0 -0 1
    outer loop
      vertex 75 14.5 20
      vertex 75 15.5 20
      vertex 70 15.1 20
    endloop
  endfacet
  facet normal 0 0 1
    outer loop
      vertex 110 14.2 20
      vertex 105 13.95 20
      vertex 110 13.2 20
    endloop
  endfacet
  facet normal 0 0 1
    outer loop
      vertex 105 14.95 20
      vertex 105 13.95 20
      vertex 110 14.2 20
    endloop
  endfacet
  facet normal 0 0 1
    outer loop
      vertex 105 14.95 20
      vertex 100 14 20
      vertex 105 13.95 20
    endloop
  endfacet
  facet normal 0 0 1
    outer loop
      vertex 130 12.05 20
      vertex 125 11.95 20
      vertex 130 11.05 20
    endloop
  endfacet
  facet normal 0 0 1
    outer loop
      vertex 130 12.05 20
      vertex 130 11.05 20
      vertex 135 11.7 20
    endloop
  endfacet
  facet normal -0 0 1
    outer loop
      vertex 110 13.2 20
      vertex 115 13 20
      vertex 115 14 20
    endloop
  endfacet
  facet normal -0 0 1
    outer loop
      vertex 130 11.05 20
      vertex 135 10.7 20
      vertex 135 11.7 20
    endloop
  endfacet
  facet normal -0 0 1
    outer loop
      vertex 120 12.2 20
      vertex 125 11.95 20
      vertex 125 12.95 20
    endloop
  endfacet
  facet normal -0 0 1
    outer loop
      vertex 140 10 20
      vertex 155 8 20
      vertex 140 11 20
    endloop
  endfacet
  facet normal 0 0 1
    outer loop
      vertex 135 11.7 20
      vertex 135 10.7 20
      vertex 140 11 20
    endloop
  endfacet
  facet normal 0 0 1
    outer loop
      vertex 170 5.1 20
      vertex 165 5.2 20
      vertex 170 4.1 20
    endloop
  endfacet
  facet normal 0 0 1
    outer loop
      vertex 170 5.1 20
      vertex 170 4.1 20
      vertex 185 2.1 20
    endloop
  endfacet
  facet normal 0 0 1
    outer loop
      vertex 185 2.1 20
      vertex 185 1.1 20
      vertex 185.561 0.976636 20
    endloop
  endfacet
  facet normal 0 0 1
    outer loop
      vertex 170 4.1 20
      vertex 185 1.1 20
      vertex 185 2.1 20
    endloop
  endfacet
  facet normal 0 -0 1
    outer loop
      vertex 185.561 0.976636 20
      vertex 190 1 20
      vertex 185 2.1 20
    endloop
  endfacet
  facet normal 0 0 1
    outer loop
      vertex 165 6.2 20
      vertex 165 5.2 20
      vertex 170 5.1 20
    endloop
  endfacet
  facet normal 0 0 1
    outer loop
      vertex 160 7.1 20
      vertex 165 5.2 20
      vertex 165 6.2 20
    endloop
  endfacet
  facet normal -0 0 1
    outer loop
      vertex 155 7 20
      vertex 165 5.2 20
      vertex 160 7.1 20
    endloop
  endfacet
  facet normal 0 0 1
    outer loop
      vertex 155 7 20
      vertex 160 7.1 20
      vertex 155 8 20
    endloop
  endfacet
  facet normal 0 -0 1
    outer loop
      vertex 155 7 20
      vertex 155 8 20
      vertex 140 10 20
    endloop
  endfacet
  facet normal 0 -0 1
    outer loop
      vertex 140 10 20
      vertex 140 11 20
      vertex 135 10.7 20
    endloop
  endfacet
  facet normal 0 0 1
    outer loop
      vertex 120 13.2 20
      vertex 120 12.2 20
      vertex 125 12.95 20
    endloop
  endfacet
  facet normal 0 0 1
    outer loop
      vertex 125 12.95 20
      vertex 125 11.95 20
      vertex 130 12.05 20
    endloop
  endfacet
  facet normal 0 0 1
    outer loop
      vertex 115 13 20
      vertex 120 13.2 20
      vertex 115 14 20
    endloop
  endfacet
  facet normal -0 0 1
    outer loop
      vertex 115 13 20
      vertex 120 12.2 20
      vertex 120 13.2 20
    endloop
  endfacet
  facet normal 0 0 1
    outer loop
      vertex 110 13.2 20
      vertex 115 14 20
      vertex 110 14.2 20
    endloop
  endfacet
  facet normal 0 0 1
    outer loop
      vertex 100 15 20
      vertex 100 14 20
      vertex 105 14.95 20
    endloop
  endfacet
  facet normal 0 0 1
    outer loop
      vertex 95 15.3 20
      vertex 95 14.3 20
      vertex 100 15 20
    endloop
  endfacet
  facet normal -0 0 1
    outer loop
      vertex 85 14.7 20
      vertex 95 14.3 20
      vertex 95 15.3 20
    endloop
  endfacet
  facet normal 0 0 1
    outer loop
      vertex 85 14.7 20
      vertex 95 15.3 20
      vertex 85 15.7 20
    endloop
  endfacet
  facet normal 0 -0 1
    outer loop
      vertex 85 14.7 20
      vertex 85 15.7 20
      vertex 80 14.8 20
    endloop
  endfacet
  facet normal 0 0 1
    outer loop
      vertex 70 15.1 20
      vertex 65 15 20
      vertex 70 14.1 20
    endloop
  endfacet
  facet normal -0 0 1
    outer loop
      vertex 60 15 20
      vertex 65 14 20
      vertex 65 15 20
    endloop
  endfacet
  facet normal 0 0 1
    outer loop
      vertex 65 15 20
      vertex 65 14 20
      vertex 70 14.1 20
    endloop
  endfacet
  facet normal 0 0 1
    outer loop
      vertex 60 14 20
      vertex 65 14 20
      vertex 60 15 20
    endloop
  endfacet
  facet normal 0 0 1
    outer loop
      vertex 55 13.9 20
      vertex 60 14 20
      vertex 55 14.9 20
    endloop
  endfacet
  facet normal 0 0 1
    outer loop
      vertex 50 13.1 20
      vertex 55 13.9 20
      vertex 50 14.1 20
    endloop
  endfacet
  facet normal -0 0 1
    outer loop
      vertex 40 13 20
      vertex 45 12.9 20
      vertex 45 13.9 20
    endloop
  endfacet
  facet normal -0 0 1
    outer loop
      vertex 35 12.2 20
      vertex 40 12 20
      vertex 40 13 20
    endloop
  endfacet
  facet normal -0 0 1
    outer loop
      vertex 30 11.8 20
      vertex 35 11.2 20
      vertex 35 12.2 20
    endloop
  endfacet
  facet normal 0 0 1
    outer loop
      vertex 30 10.8 20
      vertex 35 11.2 20
      vertex 30 11.8 20
    endloop
  endfacet
  facet normal 0 -0 1
    outer loop
      vertex 30 10.8 20
      vertex 30 11.8 20
      vertex 25 10.8 20
    endloop
  endfacet
  facet normal 0 0 1
    outer loop
      vertex 20 8.6 20
      vertex 25 9.8 20
      vertex 20 9.6 20
    endloop
  endfacet
  facet normal 0 -0 1
    outer loop
      vertex 20 8.6 20
      vertex 20 9.6 20
      vertex 15 8 20
    endloop
  endfacet
  facet normal 0 -0 1
    outer loop
      vertex 15 7 20
      vertex 15 8 20
      vertex 5 4 20
    endloop
  endfacet
  facet normal 0 0 1
    outer loop
      vertex 15 7 20
      vertex 5 4 20
      vertex 5 3 20
    endloop
  endfacet
endsolid OpenSCAD_Model
