solid OpenSCAD_Model
  facet normal -1 0 0
    outer loop
      vertex -19 -30 4
      vertex -19 -30 -4
      vertex -19 -35 4
    endloop
  endfacet
  facet normal -1 0 0
    outer loop
      vertex -19 -35 4
      vertex -19 -30 -4
      vertex -19 -35 -4
    endloop
  endfacet
  facet normal 0 -1 0
    outer loop
      vertex 17 -35 -4
      vertex 17 -35 4
      vertex -19 -35 4
    endloop
  endfacet
  facet normal 0 -1 0
    outer loop
      vertex -13.3047 -35 2.13988
      vertex 17 -35 -4
      vertex -19 -35 4
    endloop
  endfacet
  facet normal 0 -1 0
    outer loop
      vertex -19 -35 -4
      vertex -16.2008 -35 0.467801
      vertex -19 -35 4
    endloop
  endfacet
  facet normal 0 -1 0
    outer loop
      vertex -16.2008 -35 0.467801
      vertex -15.8203 -35 1.32252
      vertex -19 -35 4
    endloop
  endfacet
  facet normal 0 -1 0
    outer loop
      vertex -15.8203 -35 1.32252
      vertex -15.125 -35 1.94856
      vertex -19 -35 4
    endloop
  endfacet
  facet normal 0 -1 0
    outer loop
      vertex -15.125 -35 1.94856
      vertex -14.2352 -35 2.23767
      vertex -19 -35 4
    endloop
  endfacet
  facet normal 0 -1 0
    outer loop
      vertex -14.2352 -35 2.23767
      vertex -13.3047 -35 2.13988
      vertex -19 -35 4
    endloop
  endfacet
  facet normal 0 -1 0
    outer loop
      vertex -12.4945 -35 1.67208
      vertex -11.9445 -35 0.915157
      vertex 17 -35 -4
    endloop
  endfacet
  facet normal 0 -1 0
    outer loop
      vertex -11.9445 -35 0.915157
      vertex -11.75 -35 -1.53081e-16
      vertex 17 -35 -4
    endloop
  endfacet
  facet normal 0 -1 0
    outer loop
      vertex -11.75 -35 -1.53081e-16
      vertex -11.9445 -35 -0.915157
      vertex 17 -35 -4
    endloop
  endfacet
  facet normal 0 -1 0
    outer loop
      vertex -13.3047 -35 -2.13988
      vertex -14.2352 -35 -2.23767
      vertex -19 -35 -4
    endloop
  endfacet
  facet normal 0 -1 0
    outer loop
      vertex -12.4945 -35 -1.67208
      vertex 17 -35 -4
      vertex -11.9445 -35 -0.915157
    endloop
  endfacet
  facet normal 0 -1 0
    outer loop
      vertex -13.3047 -35 -2.13988
      vertex 17 -35 -4
      vertex -12.4945 -35 -1.67208
    endloop
  endfacet
  facet normal 0 -1 0
    outer loop
      vertex -14.2352 -35 -2.23767
      vertex -15.125 -35 -1.94856
      vertex -19 -35 -4
    endloop
  endfacet
  facet normal 0 -1 0
    outer loop
      vertex -19 -35 -4
      vertex 17 -35 -4
      vertex -13.3047 -35 -2.13988
    endloop
  endfacet
  facet normal 0 -1 0
    outer loop
      vertex -19 -35 -4
      vertex -15.125 -35 -1.94856
      vertex -15.8203 -35 -1.32252
    endloop
  endfacet
  facet normal 0 -1 0
    outer loop
      vertex -19 -35 -4
      vertex -16.2008 -35 -0.467801
      vertex -16.2008 -35 0.467801
    endloop
  endfacet
  facet normal 0 -1 0
    outer loop
      vertex -19 -35 -4
      vertex -15.8203 -35 -1.32252
      vertex -16.2008 -35 -0.467801
    endloop
  endfacet
  facet normal 0 -1 0
    outer loop
      vertex -13.3047 -35 2.13988
      vertex -12.4945 -35 1.67208
      vertex 17 -35 -4
    endloop
  endfacet
  facet normal 0 0 -1
    outer loop
      vertex -19 -35 -4
      vertex -19 -30 -4
      vertex 17 -35 -4
    endloop
  endfacet
  facet normal 0 0 -1
    outer loop
      vertex 17 -35 -4
      vertex -19 -30 -4
      vertex -4 -30 -4
    endloop
  endfacet
  facet normal 0 0 -1
    outer loop
      vertex 0 -29 -4
      vertex -4 -30 -4
      vertex -4 -19.5 -4
    endloop
  endfacet
  facet normal 0 0 -1
    outer loop
      vertex -4 -19.5 -4
      vertex -19 -19.5 -4
      vertex -19 -14.5 -4
    endloop
  endfacet
  facet normal 0 0 -1
    outer loop
      vertex -4 -19.5 -4
      vertex -19 -14.5 -4
      vertex -4 -14.5 -4
    endloop
  endfacet
  facet normal 0 0 -1
    outer loop
      vertex 0 -29 -4
      vertex -4 -14.5 -4
      vertex 0 -5 -4
    endloop
  endfacet
  facet normal 0 0 -1
    outer loop
      vertex -4 30 -4
      vertex -19 30 -4
      vertex -19 35 -4
    endloop
  endfacet
  facet normal 0 0 -1
    outer loop
      vertex -4 30 -4
      vertex -19 35 -4
      vertex 17 35 -4
    endloop
  endfacet
  facet normal 0 0 -1
    outer loop
      vertex 13 -5 -4
      vertex 17 35 -4
      vertex 17 -35 -4
    endloop
  endfacet
  facet normal 0 0 -1
    outer loop
      vertex -4 -14.5 -4
      vertex -4 30 -4
      vertex 0 -5 -4
    endloop
  endfacet
  facet normal 0 0 -1
    outer loop
      vertex 17 -35 -4
      vertex -4 -30 -4
      vertex 0 -29 -4
    endloop
  endfacet
  facet normal 0 0 -1
    outer loop
      vertex 13 -5 -4
      vertex 17 -35 -4
      vertex 13 -29 -4
    endloop
  endfacet
  facet normal 0 0 -1
    outer loop
      vertex 13 5 -4
      vertex 17 35 -4
      vertex 13 -5 -4
    endloop
  endfacet
  facet normal 0 0 -1
    outer loop
      vertex 13 -29 -4
      vertex 17 -35 -4
      vertex 0 -29 -4
    endloop
  endfacet
  facet normal 0 0 -1
    outer loop
      vertex -4 30 -4
      vertex 17 35 -4
      vertex 0 29 -4
    endloop
  endfacet
  facet normal 0 0 -1
    outer loop
      vertex 0 -5 -4
      vertex -4 30 -4
      vertex 0 5 -4
    endloop
  endfacet
  facet normal 0 0 -1
    outer loop
      vertex 0 -29 -4
      vertex -4 -19.5 -4
      vertex -4 -14.5 -4
    endloop
  endfacet
  facet normal 0 0 -1
    outer loop
      vertex 13 29 -4
      vertex 17 35 -4
      vertex 13 5 -4
    endloop
  endfacet
  facet normal 0 0 -1
    outer loop
      vertex 0 29 -4
      vertex 17 35 -4
      vertex 13 29 -4
    endloop
  endfacet
  facet normal 0 0 -1
    outer loop
      vertex 13 5 -4
      vertex 13 -5 -4
      vertex 0 5 -4
    endloop
  endfacet
  facet normal 0 0 -1
    outer loop
      vertex 0 -5 -4
      vertex 0 5 -4
      vertex 13 -5 -4
    endloop
  endfacet
  facet normal 0 0 -1
    outer loop
      vertex 0 5 -4
      vertex -4 30 -4
      vertex 0 29 -4
    endloop
  endfacet
  facet normal 0 0 1
    outer loop
      vertex -19 -30 4
      vertex -19 -35 4
      vertex 17 -35 4
    endloop
  endfacet
  facet normal 0 0 1
    outer loop
      vertex -4 -14.5 4
      vertex -19 -14.5 4
      vertex -19 -19.5 4
    endloop
  endfacet
  facet normal 0 0 1
    outer loop
      vertex -4 -30 4
      vertex -19 -30 4
      vertex 17 -35 4
    endloop
  endfacet
  facet normal 0 0 1
    outer loop
      vertex -19 35 4
      vertex -19 30 4
      vertex 17 35 4
    endloop
  endfacet
  facet normal 0 0 1
    outer loop
      vertex -19 30 4
      vertex -4 30 4
      vertex 17 35 4
    endloop
  endfacet
  facet normal 0 0 1
    outer loop
      vertex -19 -19.5 4
      vertex -4 -19.5 4
      vertex -4 -14.5 4
    endloop
  endfacet
  facet normal 0 0 1
    outer loop
      vertex 0 -5 4
      vertex 13 -5 4
      vertex 13 5 4
    endloop
  endfacet
  facet normal 0 0 1
    outer loop
      vertex 0 -29 4
      vertex -4 -14.5 4
      vertex -4 -19.5 4
    endloop
  endfacet
  facet normal 0 0 1
    outer loop
      vertex 0 -29 4
      vertex -4 -30 4
      vertex 17 -35 4
    endloop
  endfacet
  facet normal 0 0 1
    outer loop
      vertex 13 29 4
      vertex 13 5 4
      vertex 17 35 4
    endloop
  endfacet
  facet normal 0 0 1
    outer loop
      vertex -4 -19.5 4
      vertex -4 -30 4
      vertex 0 -29 4
    endloop
  endfacet
  facet normal 0 0 1
    outer loop
      vertex 17 35 4
      vertex 13 -5 4
      vertex 17 -35 4
    endloop
  endfacet
  facet normal 0 0 1
    outer loop
      vertex 13 -5 4
      vertex 13 -29 4
      vertex 17 -35 4
    endloop
  endfacet
  facet normal 0 0 1
    outer loop
      vertex -4 30 4
      vertex 0 29 4
      vertex 17 35 4
    endloop
  endfacet
  facet normal 0 0 1
    outer loop
      vertex -4 30 4
      vertex 0 5 4
      vertex 0 29 4
    endloop
  endfacet
  facet normal 0 0 1
    outer loop
      vertex 0 29 4
      vertex 13 29 4
      vertex 17 35 4
    endloop
  endfacet
  facet normal 0 0 1
    outer loop
      vertex 17 35 4
      vertex 13 5 4
      vertex 13 -5 4
    endloop
  endfacet
  facet normal 0 0 1
    outer loop
      vertex 13 5 4
      vertex 0 5 4
      vertex 0 -5 4
    endloop
  endfacet
  facet normal 0 0 1
    outer loop
      vertex 13 -29 4
      vertex 0 -29 4
      vertex 17 -35 4
    endloop
  endfacet
  facet normal 0 0 1
    outer loop
      vertex -4 30 4
      vertex 0 -5 4
      vertex 0 5 4
    endloop
  endfacet
  facet normal 0 0 1
    outer loop
      vertex -4 30 4
      vertex -4 -14.5 4
      vertex 0 -5 4
    endloop
  endfacet
  facet normal 0 0 1
    outer loop
      vertex 0 -29 4
      vertex 0 -5 4
      vertex -4 -14.5 4
    endloop
  endfacet
  facet normal 0 1 0
    outer loop
      vertex -14.2352 -30 -2.23767
      vertex -4 -30 -4
      vertex -19 -30 -4
    endloop
  endfacet
  facet normal 0 1 0
    outer loop
      vertex -11.9445 -30 0.915157
      vertex -4 -30 -4
      vertex -11.75 -30 1.53081e-16
    endloop
  endfacet
  facet normal 0 1 0
    outer loop
      vertex -19 -30 4
      vertex -16.2008 -30 -0.467801
      vertex -19 -30 -4
    endloop
  endfacet
  facet normal 0 1 0
    outer loop
      vertex -11.9445 -30 -0.915157
      vertex -4 -30 -4
      vertex -12.4945 -30 -1.67208
    endloop
  endfacet
  facet normal 0 1 0
    outer loop
      vertex -16.2008 -30 -0.467801
      vertex -15.8203 -30 -1.32252
      vertex -19 -30 -4
    endloop
  endfacet
  facet normal 0 1 0
    outer loop
      vertex -12.4945 -30 -1.67208
      vertex -4 -30 -4
      vertex -13.3047 -30 -2.13988
    endloop
  endfacet
  facet normal 0 1 0
    outer loop
      vertex -15.8203 -30 -1.32252
      vertex -15.125 -30 -1.94856
      vertex -19 -30 -4
    endloop
  endfacet
  facet normal 0 1 0
    outer loop
      vertex -15.125 -30 -1.94856
      vertex -14.2352 -30 -2.23767
      vertex -19 -30 -4
    endloop
  endfacet
  facet normal 0 1 0
    outer loop
      vertex -11.75 -30 1.53081e-16
      vertex -4 -30 -4
      vertex -11.9445 -30 -0.915157
    endloop
  endfacet
  facet normal 0 1 0
    outer loop
      vertex -4 -30 4
      vertex -4 -30 -4
      vertex -11.9445 -30 0.915157
    endloop
  endfacet
  facet normal 0 1 0
    outer loop
      vertex -4 -30 4
      vertex -11.9445 -30 0.915157
      vertex -12.4945 -30 1.67208
    endloop
  endfacet
  facet normal 0 1 0
    outer loop
      vertex -4 -30 4
      vertex -12.4945 -30 1.67208
      vertex -13.3047 -30 2.13988
    endloop
  endfacet
  facet normal 0 1 0
    outer loop
      vertex -4 -30 4
      vertex -13.3047 -30 2.13988
      vertex -19 -30 4
    endloop
  endfacet
  facet normal 0 1 0
    outer loop
      vertex -15.125 -30 1.94856
      vertex -19 -30 4
      vertex -14.2352 -30 2.23767
    endloop
  endfacet
  facet normal 0 1 0
    outer loop
      vertex -14.2352 -30 2.23767
      vertex -19 -30 4
      vertex -13.3047 -30 2.13988
    endloop
  endfacet
  facet normal 0 1 0
    outer loop
      vertex -15.8203 -30 1.32252
      vertex -19 -30 4
      vertex -15.125 -30 1.94856
    endloop
  endfacet
  facet normal 0 1 0
    outer loop
      vertex -19 -30 4
      vertex -15.8203 -30 1.32252
      vertex -16.2008 -30 0.467801
    endloop
  endfacet
  facet normal 0 1 0
    outer loop
      vertex -19 -30 4
      vertex -16.2008 -30 0.467801
      vertex -16.2008 -30 -0.467801
    endloop
  endfacet
  facet normal 0 1 0
    outer loop
      vertex -13.3047 -30 -2.13988
      vertex -4 -30 -4
      vertex -14.2352 -30 -2.23767
    endloop
  endfacet
  facet normal 1 0 0
    outer loop
      vertex 17 -35 4
      vertex 17 -35 -4
      vertex 17 35 -4
    endloop
  endfacet
  facet normal 1 0 0
    outer loop
      vertex 17 35 4
      vertex 17 -35 4
      vertex 17 35 -4
    endloop
  endfacet
  facet normal 0.913545 2.49054e-17 -0.406737
    outer loop
      vertex -15.8203 -35 1.32252
      vertex -16.2008 -35 0.467801
      vertex -16.2008 -30 0.467801
    endloop
  endfacet
  facet normal 0.913545 2.49054e-17 -0.406737
    outer loop
      vertex -15.8203 -30 1.32252
      vertex -15.8203 -35 1.32252
      vertex -16.2008 -30 0.467801
    endloop
  endfacet
  facet normal 1 0 0
    outer loop
      vertex -16.2008 -35 0.467801
      vertex -16.2008 -35 -0.467801
      vertex -16.2008 -30 -0.467801
    endloop
  endfacet
  facet normal 1 0 0
    outer loop
      vertex -16.2008 -30 0.467801
      vertex -16.2008 -35 0.467801
      vertex -16.2008 -30 -0.467801
    endloop
  endfacet
  facet normal 0.913545 -2.49054e-17 0.406737
    outer loop
      vertex -16.2008 -30 -0.467801
      vertex -16.2008 -35 -0.467801
      vertex -15.8203 -35 -1.32252
    endloop
  endfacet
  facet normal 0.913545 -2.49054e-17 0.406737
    outer loop
      vertex -15.8203 -30 -1.32252
      vertex -16.2008 -30 -0.467801
      vertex -15.8203 -35 -1.32252
    endloop
  endfacet
  facet normal 0.669131 -4.55045e-17 0.743145
    outer loop
      vertex -15.8203 -30 -1.32252
      vertex -15.8203 -35 -1.32252
      vertex -15.125 -35 -1.94856
    endloop
  endfacet
  facet normal 0.669131 -4.55045e-17 0.743145
    outer loop
      vertex -15.125 -30 -1.94856
      vertex -15.8203 -30 -1.32252
      vertex -15.125 -35 -1.94856
    endloop
  endfacet
  facet normal 0.309017 -5.82354e-17 0.951057
    outer loop
      vertex -15.125 -30 -1.94856
      vertex -15.125 -35 -1.94856
      vertex -14.2352 -35 -2.23767
    endloop
  endfacet
  facet normal 0.309017 -5.82354e-17 0.951057
    outer loop
      vertex -14.2352 -30 -2.23767
      vertex -15.125 -30 -1.94856
      vertex -14.2352 -35 -2.23767
    endloop
  endfacet
  facet normal -0.104528 -6.08969e-17 0.994522
    outer loop
      vertex -14.2352 -30 -2.23767
      vertex -14.2352 -35 -2.23767
      vertex -13.3047 -35 -2.13988
    endloop
  endfacet
  facet normal -0.104528 -6.08969e-17 0.994522
    outer loop
      vertex -13.3047 -30 -2.13988
      vertex -14.2352 -30 -2.23767
      vertex -13.3047 -35 -2.13988
    endloop
  endfacet
  facet normal -0.5 -5.30288e-17 0.866026
    outer loop
      vertex -13.3047 -30 -2.13988
      vertex -13.3047 -35 -2.13988
      vertex -12.4945 -35 -1.67208
    endloop
  endfacet
  facet normal -0.5 -5.30288e-17 0.866026
    outer loop
      vertex -12.4945 -30 -1.67208
      vertex -13.3047 -30 -2.13988
      vertex -12.4945 -35 -1.67208
    endloop
  endfacet
  facet normal -0.809017 -3.59914e-17 0.587785
    outer loop
      vertex -12.4945 -35 -1.67208
      vertex -11.9445 -35 -0.915157
      vertex -12.4945 -30 -1.67208
    endloop
  endfacet
  facet normal -0.809017 -3.59914e-17 0.587785
    outer loop
      vertex -12.4945 -30 -1.67208
      vertex -11.9445 -35 -0.915157
      vertex -11.9445 -30 -0.915157
    endloop
  endfacet
  facet normal -0.978148 -1.27309e-17 0.207912
    outer loop
      vertex -11.9445 -35 -0.915157
      vertex -11.75 -35 -1.53081e-16
      vertex -11.9445 -30 -0.915157
    endloop
  endfacet
  facet normal -0.978148 -1.27309e-17 0.207912
    outer loop
      vertex -11.9445 -30 -0.915157
      vertex -11.75 -35 -1.53081e-16
      vertex -11.75 -30 1.53081e-16
    endloop
  endfacet
  facet normal -0.978148 1.27309e-17 -0.207912
    outer loop
      vertex -11.9445 -35 0.915157
      vertex -11.9445 -30 0.915157
      vertex -11.75 -35 -1.53081e-16
    endloop
  endfacet
  facet normal -0.978148 1.27309e-17 -0.207912
    outer loop
      vertex -11.75 -35 -1.53081e-16
      vertex -11.9445 -30 0.915157
      vertex -11.75 -30 1.53081e-16
    endloop
  endfacet
  facet normal -0.809017 3.59914e-17 -0.587785
    outer loop
      vertex -12.4945 -35 1.67208
      vertex -12.4945 -30 1.67208
      vertex -11.9445 -35 0.915157
    endloop
  endfacet
  facet normal -0.809017 3.59914e-17 -0.587785
    outer loop
      vertex -11.9445 -35 0.915157
      vertex -12.4945 -30 1.67208
      vertex -11.9445 -30 0.915157
    endloop
  endfacet
  facet normal -0.5 5.30288e-17 -0.866026
    outer loop
      vertex -13.3047 -35 2.13988
      vertex -13.3047 -30 2.13988
      vertex -12.4945 -35 1.67208
    endloop
  endfacet
  facet normal -0.5 5.30288e-17 -0.866026
    outer loop
      vertex -12.4945 -35 1.67208
      vertex -13.3047 -30 2.13988
      vertex -12.4945 -30 1.67208
    endloop
  endfacet
  facet normal -0.104528 6.08969e-17 -0.994522
    outer loop
      vertex -14.2352 -35 2.23767
      vertex -14.2352 -30 2.23767
      vertex -13.3047 -35 2.13988
    endloop
  endfacet
  facet normal -0.104528 6.08969e-17 -0.994522
    outer loop
      vertex -13.3047 -35 2.13988
      vertex -14.2352 -30 2.23767
      vertex -13.3047 -30 2.13988
    endloop
  endfacet
  facet normal 0.309017 5.82354e-17 -0.951057
    outer loop
      vertex -15.125 -35 1.94856
      vertex -15.125 -30 1.94856
      vertex -14.2352 -35 2.23767
    endloop
  endfacet
  facet normal 0.309017 5.82354e-17 -0.951057
    outer loop
      vertex -14.2352 -35 2.23767
      vertex -15.125 -30 1.94856
      vertex -14.2352 -30 2.23767
    endloop
  endfacet
  facet normal 0.669131 4.55045e-17 -0.743145
    outer loop
      vertex -15.8203 -35 1.32252
      vertex -15.8203 -30 1.32252
      vertex -15.125 -35 1.94856
    endloop
  endfacet
  facet normal 0.669131 4.55045e-17 -0.743145
    outer loop
      vertex -15.125 -35 1.94856
      vertex -15.8203 -30 1.32252
      vertex -15.125 -30 1.94856
    endloop
  endfacet
  facet normal 0 1 0
    outer loop
      vertex -13.3047 35 2.13988
      vertex -19 35 4
      vertex 17 35 -4
    endloop
  endfacet
  facet normal 0 1 0
    outer loop
      vertex 17 35 -4
      vertex -19 35 4
      vertex 17 35 4
    endloop
  endfacet
  facet normal 0 1 0
    outer loop
      vertex -19 35 -4
      vertex -19 35 4
      vertex -16.2008 35 0.467801
    endloop
  endfacet
  facet normal 0 1 0
    outer loop
      vertex -19 35 -4
      vertex -16.2008 35 0.467801
      vertex -16.2008 35 -0.467801
    endloop
  endfacet
  facet normal 0 1 0
    outer loop
      vertex -19 35 -4
      vertex -16.2008 35 -0.467801
      vertex -15.8203 35 -1.32252
    endloop
  endfacet
  facet normal 0 1 0
    outer loop
      vertex -19 35 -4
      vertex -15.8203 35 -1.32252
      vertex -15.125 35 -1.94856
    endloop
  endfacet
  facet normal 0 1 0
    outer loop
      vertex -19 35 -4
      vertex -15.125 35 -1.94856
      vertex -14.2352 35 -2.23767
    endloop
  endfacet
  facet normal 0 1 0
    outer loop
      vertex -19 35 -4
      vertex -14.2352 35 -2.23767
      vertex 17 35 -4
    endloop
  endfacet
  facet normal 0 1 0
    outer loop
      vertex -14.2352 35 -2.23767
      vertex -13.3047 35 -2.13988
      vertex 17 35 -4
    endloop
  endfacet
  facet normal 0 1 0
    outer loop
      vertex -11.9445 35 -0.915157
      vertex 17 35 -4
      vertex -12.4945 35 -1.67208
    endloop
  endfacet
  facet normal 0 1 0
    outer loop
      vertex -11.75 35 -1.53081e-16
      vertex 17 35 -4
      vertex -11.9445 35 -0.915157
    endloop
  endfacet
  facet normal 0 1 0
    outer loop
      vertex -14.2352 35 2.23767
      vertex -19 35 4
      vertex -13.3047 35 2.13988
    endloop
  endfacet
  facet normal 0 1 0
    outer loop
      vertex -15.8203 35 1.32252
      vertex -19 35 4
      vertex -15.125 35 1.94856
    endloop
  endfacet
  facet normal 0 1 0
    outer loop
      vertex -11.75 35 -1.53081e-16
      vertex -11.9445 35 0.915157
      vertex 17 35 -4
    endloop
  endfacet
  facet normal 0 1 0
    outer loop
      vertex -15.125 35 1.94856
      vertex -19 35 4
      vertex -14.2352 35 2.23767
    endloop
  endfacet
  facet normal 0 1 0
    outer loop
      vertex -11.9445 35 0.915157
      vertex -12.4945 35 1.67208
      vertex 17 35 -4
    endloop
  endfacet
  facet normal 0 1 0
    outer loop
      vertex -12.4945 35 1.67208
      vertex -13.3047 35 2.13988
      vertex 17 35 -4
    endloop
  endfacet
  facet normal 0 1 0
    outer loop
      vertex -16.2008 35 0.467801
      vertex -19 35 4
      vertex -15.8203 35 1.32252
    endloop
  endfacet
  facet normal 0 1 0
    outer loop
      vertex -12.4945 35 -1.67208
      vertex 17 35 -4
      vertex -13.3047 35 -2.13988
    endloop
  endfacet
  facet normal -1 0 0
    outer loop
      vertex -19 30 -4
      vertex -19 30 4
      vertex -19 35 -4
    endloop
  endfacet
  facet normal -1 0 0
    outer loop
      vertex -19 35 -4
      vertex -19 30 4
      vertex -19 35 4
    endloop
  endfacet
  facet normal 0 -1 0
    outer loop
      vertex -13.3047 30 -2.13988
      vertex -19 30 -4
      vertex -4 30 -4
    endloop
  endfacet
  facet normal 0 -1 0
    outer loop
      vertex -13.3047 30 -2.13988
      vertex -14.2352 30 -2.23767
      vertex -19 30 -4
    endloop
  endfacet
  facet normal 0 -1 0
    outer loop
      vertex -19 30 4
      vertex -19 30 -4
      vertex -16.2008 30 -0.467801
    endloop
  endfacet
  facet normal 0 -1 0
    outer loop
      vertex -19 30 4
      vertex -16.2008 30 -0.467801
      vertex -16.2008 30 0.467801
    endloop
  endfacet
  facet normal 0 -1 0
    outer loop
      vertex -19 30 4
      vertex -16.2008 30 0.467801
      vertex -15.8203 30 1.32252
    endloop
  endfacet
  facet normal 0 -1 0
    outer loop
      vertex -11.75 30 1.53081e-16
      vertex -11.9445 30 -0.915157
      vertex -4 30 -4
    endloop
  endfacet
  facet normal 0 -1 0
    outer loop
      vertex -14.2352 30 2.23767
      vertex -19 30 4
      vertex -15.125 30 1.94856
    endloop
  endfacet
  facet normal 0 -1 0
    outer loop
      vertex -12.4945 30 1.67208
      vertex -11.9445 30 0.915157
      vertex -4 30 -4
    endloop
  endfacet
  facet normal 0 -1 0
    outer loop
      vertex -4 30 4
      vertex -19 30 4
      vertex -14.2352 30 2.23767
    endloop
  endfacet
  facet normal 0 -1 0
    outer loop
      vertex -11.9445 30 0.915157
      vertex -11.75 30 1.53081e-16
      vertex -4 30 -4
    endloop
  endfacet
  facet normal 0 -1 0
    outer loop
      vertex -4 30 4
      vertex -12.4945 30 1.67208
      vertex -4 30 -4
    endloop
  endfacet
  facet normal 0 -1 0
    outer loop
      vertex -4 30 4
      vertex -13.3047 30 2.13988
      vertex -12.4945 30 1.67208
    endloop
  endfacet
  facet normal 0 -1 0
    outer loop
      vertex -14.2352 30 2.23767
      vertex -13.3047 30 2.13988
      vertex -4 30 4
    endloop
  endfacet
  facet normal 0 -1 0
    outer loop
      vertex -11.9445 30 -0.915157
      vertex -12.4945 30 -1.67208
      vertex -4 30 -4
    endloop
  endfacet
  facet normal 0 -1 0
    outer loop
      vertex -12.4945 30 -1.67208
      vertex -13.3047 30 -2.13988
      vertex -4 30 -4
    endloop
  endfacet
  facet normal 0 -1 0
    outer loop
      vertex -15.125 30 -1.94856
      vertex -19 30 -4
      vertex -14.2352 30 -2.23767
    endloop
  endfacet
  facet normal 0 -1 0
    outer loop
      vertex -15.8203 30 -1.32252
      vertex -19 30 -4
      vertex -15.125 30 -1.94856
    endloop
  endfacet
  facet normal 0 -1 0
    outer loop
      vertex -16.2008 30 -0.467801
      vertex -19 30 -4
      vertex -15.8203 30 -1.32252
    endloop
  endfacet
  facet normal 0 -1 0
    outer loop
      vertex -15.8203 30 1.32252
      vertex -15.125 30 1.94856
      vertex -19 30 4
    endloop
  endfacet
  facet normal -1 0 0
    outer loop
      vertex -4 -14.5 -4
      vertex -4 -14.5 4
      vertex -4 30 -4
    endloop
  endfacet
  facet normal -1 0 0
    outer loop
      vertex -4 30 -4
      vertex -4 -14.5 4
      vertex -4 30 4
    endloop
  endfacet
  facet normal 0 1 0
    outer loop
      vertex -12.8639 -14.5 1.64597
      vertex -19 -14.5 4
      vertex -4 -14.5 4
    endloop
  endfacet
  facet normal 0 1 0
    outer loop
      vertex -19 -14.5 -4
      vertex -19 -14.5 4
      vertex -15.9419 -14.5 0.478631
    endloop
  endfacet
  facet normal 0 1 0
    outer loop
      vertex -19 -14.5 -4
      vertex -15.9419 -14.5 0.478631
      vertex -15.9419 -14.5 -0.478631
    endloop
  endfacet
  facet normal 0 1 0
    outer loop
      vertex -19 -14.5 -4
      vertex -15.9419 -14.5 -0.478631
      vertex -15.497 -14.5 -1.32624
    endloop
  endfacet
  facet normal 0 1 0
    outer loop
      vertex -19 -14.5 -4
      vertex -15.497 -14.5 -1.32624
      vertex -14.7092 -14.5 -1.87003
    endloop
  endfacet
  facet normal 0 1 0
    outer loop
      vertex -19 -14.5 -4
      vertex -14.7092 -14.5 -1.87003
      vertex -4 -14.5 -4
    endloop
  endfacet
  facet normal 0 1 0
    outer loop
      vertex -14.7092 -14.5 -1.87003
      vertex -13.7589 -14.5 -1.98542
      vertex -4 -14.5 -4
    endloop
  endfacet
  facet normal 0 1 0
    outer loop
      vertex -12.2291 -14.5 -0.929446
      vertex -4 -14.5 -4
      vertex -12.8639 -14.5 -1.64597
    endloop
  endfacet
  facet normal 0 1 0
    outer loop
      vertex -12 -14.5 -1.53081e-16
      vertex -4 -14.5 -4
      vertex -12.2291 -14.5 -0.929446
    endloop
  endfacet
  facet normal 0 1 0
    outer loop
      vertex -12.2291 -14.5 0.929446
      vertex -4 -14.5 -4
      vertex -12 -14.5 -1.53081e-16
    endloop
  endfacet
  facet normal 0 1 0
    outer loop
      vertex -15.497 -14.5 1.32624
      vertex -19 -14.5 4
      vertex -14.7092 -14.5 1.87003
    endloop
  endfacet
  facet normal 0 1 0
    outer loop
      vertex -4 -14.5 -4
      vertex -12.2291 -14.5 0.929446
      vertex -4 -14.5 4
    endloop
  endfacet
  facet normal 0 1 0
    outer loop
      vertex -13.7589 -14.5 1.98542
      vertex -19 -14.5 4
      vertex -12.8639 -14.5 1.64597
    endloop
  endfacet
  facet normal 0 1 0
    outer loop
      vertex -12.2291 -14.5 0.929446
      vertex -12.8639 -14.5 1.64597
      vertex -4 -14.5 4
    endloop
  endfacet
  facet normal 0 1 0
    outer loop
      vertex -14.7092 -14.5 1.87003
      vertex -19 -14.5 4
      vertex -13.7589 -14.5 1.98542
    endloop
  endfacet
  facet normal 0 1 0
    outer loop
      vertex -15.9419 -14.5 0.478631
      vertex -19 -14.5 4
      vertex -15.497 -14.5 1.32624
    endloop
  endfacet
  facet normal 0 1 0
    outer loop
      vertex -12.8639 -14.5 -1.64597
      vertex -4 -14.5 -4
      vertex -13.7589 -14.5 -1.98542
    endloop
  endfacet
  facet normal -1 0 0
    outer loop
      vertex -19 -19.5 -4
      vertex -19 -19.5 4
      vertex -19 -14.5 -4
    endloop
  endfacet
  facet normal -1 0 0
    outer loop
      vertex -19 -14.5 -4
      vertex -19 -19.5 4
      vertex -19 -14.5 4
    endloop
  endfacet
  facet normal 0 -1 0
    outer loop
      vertex -12.8639 -19.5 -1.64597
      vertex -19 -19.5 -4
      vertex -4 -19.5 -4
    endloop
  endfacet
  facet normal 0 -1 0
    outer loop
      vertex -19 -19.5 4
      vertex -19 -19.5 -4
      vertex -15.9419 -19.5 -0.478631
    endloop
  endfacet
  facet normal 0 -1 0
    outer loop
      vertex -12.2291 -19.5 -0.929446
      vertex -12.8639 -19.5 -1.64597
      vertex -4 -19.5 -4
    endloop
  endfacet
  facet normal 0 -1 0
    outer loop
      vertex -19 -19.5 4
      vertex -15.9419 -19.5 -0.478631
      vertex -15.9419 -19.5 0.478631
    endloop
  endfacet
  facet normal 0 -1 0
    outer loop
      vertex -19 -19.5 4
      vertex -15.9419 -19.5 0.478631
      vertex -15.497 -19.5 1.32624
    endloop
  endfacet
  facet normal 0 -1 0
    outer loop
      vertex -4 -19.5 4
      vertex -19 -19.5 4
      vertex -14.7092 -19.5 1.87003
    endloop
  endfacet
  facet normal 0 -1 0
    outer loop
      vertex -12.2291 -19.5 0.929446
      vertex -12 -19.5 1.53081e-16
      vertex -4 -19.5 -4
    endloop
  endfacet
  facet normal 0 -1 0
    outer loop
      vertex -4 -19.5 4
      vertex -14.7092 -19.5 1.87003
      vertex -13.7589 -19.5 1.98542
    endloop
  endfacet
  facet normal 0 -1 0
    outer loop
      vertex -4 -19.5 4
      vertex -12.8639 -19.5 1.64597
      vertex -4 -19.5 -4
    endloop
  endfacet
  facet normal 0 -1 0
    outer loop
      vertex -4 -19.5 4
      vertex -13.7589 -19.5 1.98542
      vertex -12.8639 -19.5 1.64597
    endloop
  endfacet
  facet normal 0 -1 0
    outer loop
      vertex -12.8639 -19.5 1.64597
      vertex -12.2291 -19.5 0.929446
      vertex -4 -19.5 -4
    endloop
  endfacet
  facet normal 0 -1 0
    outer loop
      vertex -12 -19.5 1.53081e-16
      vertex -12.2291 -19.5 -0.929446
      vertex -4 -19.5 -4
    endloop
  endfacet
  facet normal 0 -1 0
    outer loop
      vertex -13.7589 -19.5 -1.98542
      vertex -19 -19.5 -4
      vertex -12.8639 -19.5 -1.64597
    endloop
  endfacet
  facet normal 0 -1 0
    outer loop
      vertex -14.7092 -19.5 -1.87003
      vertex -19 -19.5 -4
      vertex -13.7589 -19.5 -1.98542
    endloop
  endfacet
  facet normal 0 -1 0
    outer loop
      vertex -15.497 -19.5 -1.32624
      vertex -19 -19.5 -4
      vertex -14.7092 -19.5 -1.87003
    endloop
  endfacet
  facet normal 0 -1 0
    outer loop
      vertex -15.9419 -19.5 -0.478631
      vertex -19 -19.5 -4
      vertex -15.497 -19.5 -1.32624
    endloop
  endfacet
  facet normal 0 -1 0
    outer loop
      vertex -15.497 -19.5 1.32624
      vertex -14.7092 -19.5 1.87003
      vertex -19 -19.5 4
    endloop
  endfacet
  facet normal -1 0 0
    outer loop
      vertex -4 -30 -4
      vertex -4 -30 4
      vertex -4 -19.5 -4
    endloop
  endfacet
  facet normal -1 0 0
    outer loop
      vertex -4 -19.5 -4
      vertex -4 -30 4
      vertex -4 -19.5 4
    endloop
  endfacet
  facet normal 1 0 0
    outer loop
      vertex 0 -29 4
      vertex 0 -29 -4
      vertex 0 -5 -4
    endloop
  endfacet
  facet normal 1 0 0
    outer loop
      vertex 0 -5 4
      vertex 0 -29 4
      vertex 0 -5 -4
    endloop
  endfacet
  facet normal 0 -1 0
    outer loop
      vertex 0 -5 4
      vertex 0 -5 -4
      vertex 13 -5 -4
    endloop
  endfacet
  facet normal 0 -1 0
    outer loop
      vertex 13 -5 4
      vertex 0 -5 4
      vertex 13 -5 -4
    endloop
  endfacet
  facet normal -1 0 0
    outer loop
      vertex 13 -29 -4
      vertex 13 -29 4
      vertex 13 -5 -4
    endloop
  endfacet
  facet normal -1 0 0
    outer loop
      vertex 13 -5 -4
      vertex 13 -29 4
      vertex 13 -5 4
    endloop
  endfacet
  facet normal 0 1 0
    outer loop
      vertex 0 -29 -4
      vertex 0 -29 4
      vertex 13 -29 -4
    endloop
  endfacet
  facet normal 0 1 0
    outer loop
      vertex 13 -29 -4
      vertex 0 -29 4
      vertex 13 -29 4
    endloop
  endfacet
  facet normal 1 0 0
    outer loop
      vertex 0 29 -4
      vertex 0 29 4
      vertex 0 5 4
    endloop
  endfacet
  facet normal 1 0 0
    outer loop
      vertex 0 5 -4
      vertex 0 29 -4
      vertex 0 5 4
    endloop
  endfacet
  facet normal 0 -1 0
    outer loop
      vertex 13 29 -4
      vertex 13 29 4
      vertex 0 29 4
    endloop
  endfacet
  facet normal 0 -1 0
    outer loop
      vertex 0 29 -4
      vertex 13 29 -4
      vertex 0 29 4
    endloop
  endfacet
  facet normal -1 0 0
    outer loop
      vertex 13 29 4
      vertex 13 29 -4
      vertex 13 5 4
    endloop
  endfacet
  facet normal -1 0 0
    outer loop
      vertex 13 5 4
      vertex 13 29 -4
      vertex 13 5 -4
    endloop
  endfacet
  facet normal 0 1 0
    outer loop
      vertex 13 5 4
      vertex 13 5 -4
      vertex 0 5 4
    endloop
  endfacet
  facet normal 0 1 0
    outer loop
      vertex 0 5 4
      vertex 13 5 -4
      vertex 0 5 -4
    endloop
  endfacet
  facet normal 0.913545 -2.49054e-17 -0.406737
    outer loop
      vertex -16.2008 35 0.467801
      vertex -15.8203 35 1.32252
      vertex -15.8203 30 1.32252
    endloop
  endfacet
  facet normal 0.913545 -2.49054e-17 -0.406737
    outer loop
      vertex -16.2008 30 0.467801
      vertex -16.2008 35 0.467801
      vertex -15.8203 30 1.32252
    endloop
  endfacet
  facet normal 1 0 0
    outer loop
      vertex -16.2008 35 -0.467801
      vertex -16.2008 35 0.467801
      vertex -16.2008 30 0.467801
    endloop
  endfacet
  facet normal 1 0 0
    outer loop
      vertex -16.2008 30 -0.467801
      vertex -16.2008 35 -0.467801
      vertex -16.2008 30 0.467801
    endloop
  endfacet
  facet normal 0.669131 -4.55045e-17 -0.743145
    outer loop
      vertex -15.125 35 1.94856
      vertex -15.125 30 1.94856
      vertex -15.8203 35 1.32252
    endloop
  endfacet
  facet normal 0.669131 -4.55045e-17 -0.743145
    outer loop
      vertex -15.8203 35 1.32252
      vertex -15.125 30 1.94856
      vertex -15.8203 30 1.32252
    endloop
  endfacet
  facet normal 0.309017 -5.82354e-17 -0.951057
    outer loop
      vertex -14.2352 35 2.23767
      vertex -14.2352 30 2.23767
      vertex -15.125 35 1.94856
    endloop
  endfacet
  facet normal 0.309017 -5.82354e-17 -0.951057
    outer loop
      vertex -15.125 35 1.94856
      vertex -14.2352 30 2.23767
      vertex -15.125 30 1.94856
    endloop
  endfacet
  facet normal -0.104528 -6.08969e-17 -0.994522
    outer loop
      vertex -13.3047 35 2.13988
      vertex -13.3047 30 2.13988
      vertex -14.2352 35 2.23767
    endloop
  endfacet
  facet normal -0.104528 -6.08969e-17 -0.994522
    outer loop
      vertex -14.2352 35 2.23767
      vertex -13.3047 30 2.13988
      vertex -14.2352 30 2.23767
    endloop
  endfacet
  facet normal -0.5 -5.30288e-17 -0.866026
    outer loop
      vertex -12.4945 35 1.67208
      vertex -12.4945 30 1.67208
      vertex -13.3047 35 2.13988
    endloop
  endfacet
  facet normal -0.5 -5.30288e-17 -0.866026
    outer loop
      vertex -13.3047 35 2.13988
      vertex -12.4945 30 1.67208
      vertex -13.3047 30 2.13988
    endloop
  endfacet
  facet normal -0.809017 -3.59914e-17 -0.587785
    outer loop
      vertex -11.9445 35 0.915157
      vertex -11.9445 30 0.915157
      vertex -12.4945 35 1.67208
    endloop
  endfacet
  facet normal -0.809017 -3.59914e-17 -0.587785
    outer loop
      vertex -12.4945 35 1.67208
      vertex -11.9445 30 0.915157
      vertex -12.4945 30 1.67208
    endloop
  endfacet
  facet normal -0.978148 -1.27309e-17 -0.207912
    outer loop
      vertex -11.75 35 -1.53081e-16
      vertex -11.75 30 1.53081e-16
      vertex -11.9445 35 0.915157
    endloop
  endfacet
  facet normal -0.978148 -1.27309e-17 -0.207912
    outer loop
      vertex -11.9445 35 0.915157
      vertex -11.75 30 1.53081e-16
      vertex -11.9445 30 0.915157
    endloop
  endfacet
  facet normal -0.978148 1.27309e-17 0.207912
    outer loop
      vertex -11.75 35 -1.53081e-16
      vertex -11.9445 35 -0.915157
      vertex -11.75 30 1.53081e-16
    endloop
  endfacet
  facet normal -0.978148 1.27309e-17 0.207912
    outer loop
      vertex -11.75 30 1.53081e-16
      vertex -11.9445 35 -0.915157
      vertex -11.9445 30 -0.915157
    endloop
  endfacet
  facet normal -0.809017 3.59914e-17 0.587785
    outer loop
      vertex -11.9445 35 -0.915157
      vertex -12.4945 35 -1.67208
      vertex -11.9445 30 -0.915157
    endloop
  endfacet
  facet normal -0.809017 3.59914e-17 0.587785
    outer loop
      vertex -11.9445 30 -0.915157
      vertex -12.4945 35 -1.67208
      vertex -12.4945 30 -1.67208
    endloop
  endfacet
  facet normal -0.5 5.30288e-17 0.866026
    outer loop
      vertex -12.4945 30 -1.67208
      vertex -12.4945 35 -1.67208
      vertex -13.3047 35 -2.13988
    endloop
  endfacet
  facet normal -0.5 5.30288e-17 0.866026
    outer loop
      vertex -13.3047 30 -2.13988
      vertex -12.4945 30 -1.67208
      vertex -13.3047 35 -2.13988
    endloop
  endfacet
  facet normal -0.104528 6.08969e-17 0.994522
    outer loop
      vertex -13.3047 30 -2.13988
      vertex -13.3047 35 -2.13988
      vertex -14.2352 35 -2.23767
    endloop
  endfacet
  facet normal -0.104528 6.08969e-17 0.994522
    outer loop
      vertex -14.2352 30 -2.23767
      vertex -13.3047 30 -2.13988
      vertex -14.2352 35 -2.23767
    endloop
  endfacet
  facet normal 0.309017 5.82354e-17 0.951057
    outer loop
      vertex -14.2352 30 -2.23767
      vertex -14.2352 35 -2.23767
      vertex -15.125 35 -1.94856
    endloop
  endfacet
  facet normal 0.309017 5.82354e-17 0.951057
    outer loop
      vertex -15.125 30 -1.94856
      vertex -14.2352 30 -2.23767
      vertex -15.125 35 -1.94856
    endloop
  endfacet
  facet normal 0.669131 4.55045e-17 0.743145
    outer loop
      vertex -15.125 30 -1.94856
      vertex -15.125 35 -1.94856
      vertex -15.8203 35 -1.32252
    endloop
  endfacet
  facet normal 0.669131 4.55045e-17 0.743145
    outer loop
      vertex -15.8203 30 -1.32252
      vertex -15.125 30 -1.94856
      vertex -15.8203 35 -1.32252
    endloop
  endfacet
  facet normal 0.913545 2.49054e-17 0.406737
    outer loop
      vertex -15.8203 30 -1.32252
      vertex -15.8203 35 -1.32252
      vertex -16.2008 35 -0.467801
    endloop
  endfacet
  facet normal 0.913545 2.49054e-17 0.406737
    outer loop
      vertex -16.2008 30 -0.467801
      vertex -15.8203 30 -1.32252
      vertex -16.2008 35 -0.467801
    endloop
  endfacet
  facet normal 0.885456 -2.84561e-17 -0.464724
    outer loop
      vertex -15.9419 -14.5 0.478631
      vertex -15.497 -14.5 1.32624
      vertex -15.497 -19.5 1.32624
    endloop
  endfacet
  facet normal 0.885456 -2.84561e-17 -0.464724
    outer loop
      vertex -15.9419 -19.5 0.478631
      vertex -15.9419 -14.5 0.478631
      vertex -15.497 -19.5 1.32624
    endloop
  endfacet
  facet normal 1 0 0
    outer loop
      vertex -15.9419 -14.5 -0.478631
      vertex -15.9419 -14.5 0.478631
      vertex -15.9419 -19.5 0.478631
    endloop
  endfacet
  facet normal 1 0 0
    outer loop
      vertex -15.9419 -19.5 -0.478631
      vertex -15.9419 -14.5 -0.478631
      vertex -15.9419 -19.5 0.478631
    endloop
  endfacet
  facet normal 0.568065 -5.03932e-17 -0.822984
    outer loop
      vertex -14.7092 -14.5 1.87003
      vertex -14.7092 -19.5 1.87003
      vertex -15.497 -14.5 1.32624
    endloop
  endfacet
  facet normal 0.568065 -5.03932e-17 -0.822984
    outer loop
      vertex -15.497 -14.5 1.32624
      vertex -14.7092 -19.5 1.87003
      vertex -15.497 -19.5 1.32624
    endloop
  endfacet
  facet normal 0.120537 -6.07859e-17 -0.992709
    outer loop
      vertex -13.7589 -14.5 1.98542
      vertex -13.7589 -19.5 1.98542
      vertex -14.7092 -14.5 1.87003
    endloop
  endfacet
  facet normal 0.120537 -6.07859e-17 -0.992709
    outer loop
      vertex -14.7092 -14.5 1.87003
      vertex -13.7589 -19.5 1.98542
      vertex -14.7092 -19.5 1.87003
    endloop
  endfacet
  facet normal -0.354605 -5.72532e-17 -0.935016
    outer loop
      vertex -12.8639 -14.5 1.64597
      vertex -12.8639 -19.5 1.64597
      vertex -13.7589 -14.5 1.98542
    endloop
  endfacet
  facet normal -0.354605 -5.72532e-17 -0.935016
    outer loop
      vertex -13.7589 -14.5 1.98542
      vertex -12.8639 -19.5 1.64597
      vertex -13.7589 -19.5 1.98542
    endloop
  endfacet
  facet normal -0.748511 -4.06045e-17 -0.663123
    outer loop
      vertex -12.2291 -14.5 0.929446
      vertex -12.2291 -19.5 0.929446
      vertex -12.8639 -14.5 1.64597
    endloop
  endfacet
  facet normal -0.748511 -4.06045e-17 -0.663123
    outer loop
      vertex -12.8639 -14.5 1.64597
      vertex -12.2291 -19.5 0.929446
      vertex -12.8639 -19.5 1.64597
    endloop
  endfacet
  facet normal -0.970942 -1.46539e-17 -0.239316
    outer loop
      vertex -12 -14.5 -1.53081e-16
      vertex -12 -19.5 1.53081e-16
      vertex -12.2291 -14.5 0.929446
    endloop
  endfacet
  facet normal -0.970942 -1.46539e-17 -0.239316
    outer loop
      vertex -12.2291 -14.5 0.929446
      vertex -12 -19.5 1.53081e-16
      vertex -12.2291 -19.5 0.929446
    endloop
  endfacet
  facet normal -0.970942 1.46539e-17 0.239316
    outer loop
      vertex -12 -14.5 -1.53081e-16
      vertex -12.2291 -14.5 -0.929446
      vertex -12 -19.5 1.53081e-16
    endloop
  endfacet
  facet normal -0.970942 1.46539e-17 0.239316
    outer loop
      vertex -12 -19.5 1.53081e-16
      vertex -12.2291 -14.5 -0.929446
      vertex -12.2291 -19.5 -0.929446
    endloop
  endfacet
  facet normal -0.748511 4.06045e-17 0.663123
    outer loop
      vertex -12.2291 -14.5 -0.929446
      vertex -12.8639 -14.5 -1.64597
      vertex -12.2291 -19.5 -0.929446
    endloop
  endfacet
  facet normal -0.748511 4.06045e-17 0.663123
    outer loop
      vertex -12.2291 -19.5 -0.929446
      vertex -12.8639 -14.5 -1.64597
      vertex -12.8639 -19.5 -1.64597
    endloop
  endfacet
  facet normal -0.354605 5.72532e-17 0.935016
    outer loop
      vertex -12.8639 -19.5 -1.64597
      vertex -12.8639 -14.5 -1.64597
      vertex -13.7589 -14.5 -1.98542
    endloop
  endfacet
  facet normal -0.354605 5.72532e-17 0.935016
    outer loop
      vertex -13.7589 -19.5 -1.98542
      vertex -12.8639 -19.5 -1.64597
      vertex -13.7589 -14.5 -1.98542
    endloop
  endfacet
  facet normal 0.120537 6.07859e-17 0.992709
    outer loop
      vertex -13.7589 -19.5 -1.98542
      vertex -13.7589 -14.5 -1.98542
      vertex -14.7092 -14.5 -1.87003
    endloop
  endfacet
  facet normal 0.120537 6.07859e-17 0.992709
    outer loop
      vertex -14.7092 -19.5 -1.87003
      vertex -13.7589 -19.5 -1.98542
      vertex -14.7092 -14.5 -1.87003
    endloop
  endfacet
  facet normal 0.568065 5.03932e-17 0.822984
    outer loop
      vertex -14.7092 -19.5 -1.87003
      vertex -14.7092 -14.5 -1.87003
      vertex -15.497 -14.5 -1.32624
    endloop
  endfacet
  facet normal 0.568065 5.03932e-17 0.822984
    outer loop
      vertex -15.497 -19.5 -1.32624
      vertex -14.7092 -19.5 -1.87003
      vertex -15.497 -14.5 -1.32624
    endloop
  endfacet
  facet normal 0.885456 2.84561e-17 0.464724
    outer loop
      vertex -15.497 -19.5 -1.32624
      vertex -15.497 -14.5 -1.32624
      vertex -15.9419 -14.5 -0.478631
    endloop
  endfacet
  facet normal 0.885456 2.84561e-17 0.464724
    outer loop
      vertex -15.9419 -19.5 -0.478631
      vertex -15.497 -19.5 -1.32624
      vertex -15.9419 -14.5 -0.478631
    endloop
  endfacet
endsolid OpenSCAD_Model
