solid OpenSCAD_Model
  facet normal -0.83147 0.55557 0
    outer loop
      vertex 0.3806 16.9134 0
      vertex 1.46446 18.5355 21
      vertex 1.46446 18.5355 0
    endloop
  endfacet
  facet normal -0.83147 0.55557 0
    outer loop
      vertex 1.46446 18.5355 21
      vertex 0.3806 16.9134 0
      vertex 0.3806 16.9134 21
    endloop
  endfacet
  facet normal -0.55557 0.83147 0
    outer loop
      vertex 3.08658 19.6194 0
      vertex 1.46446 18.5355 21
      vertex 3.08658 19.6194 21
    endloop
  endfacet
  facet normal -0.55557 0.83147 0
    outer loop
      vertex 1.46446 18.5355 21
      vertex 3.08658 19.6194 0
      vertex 1.46446 18.5355 0
    endloop
  endfacet
  facet normal 0 0 -1
    outer loop
      vertex 25 20 0
      vertex 30 15 0
      vertex 30 0 0
    endloop
  endfacet
  facet normal 0 0 -1
    outer loop
      vertex 30 15 0
      vertex 25 20 0
      vertex 29.6194 16.9134 0
    endloop
  endfacet
  facet normal 0 0 -1
    outer loop
      vertex 29.6194 16.9134 0
      vertex 25 20 0
      vertex 28.5355 18.5355 0
    endloop
  endfacet
  facet normal 0 0 -1
    outer loop
      vertex 28.5355 18.5355 0
      vertex 25 20 0
      vertex 26.9134 19.6194 0
    endloop
  endfacet
  facet normal 0 0 -1
    outer loop
      vertex 30 0 0
      vertex 5 20 0
      vertex 25 20 0
    endloop
  endfacet
  facet normal 0 0 -1
    outer loop
      vertex 0 0 0
      vertex 5 20 0
      vertex 30 0 0
    endloop
  endfacet
  facet normal 0 0 -1
    outer loop
      vertex 5 20 0
      vertex 0 15 0
      vertex 3.08658 19.6194 0
    endloop
  endfacet
  facet normal 0 0 -1
    outer loop
      vertex 3.08658 19.6194 0
      vertex 0 15 0
      vertex 1.46446 18.5355 0
    endloop
  endfacet
  facet normal 0 0 -1
    outer loop
      vertex 5 20 0
      vertex 0 0 0
      vertex 0 15 0
    endloop
  endfacet
  facet normal 0 0 -1
    outer loop
      vertex 1.46446 18.5355 0
      vertex 0 15 0
      vertex 0.3806 16.9134 0
    endloop
  endfacet
  facet normal -0.195096 0.980784 0
    outer loop
      vertex 5 20 0
      vertex 3.08658 19.6194 21
      vertex 5 20 21
    endloop
  endfacet
  facet normal -0.195096 0.980784 0
    outer loop
      vertex 3.08658 19.6194 21
      vertex 5 20 0
      vertex 3.08658 19.6194 0
    endloop
  endfacet
  facet normal 1 -0 0
    outer loop
      vertex 30 10 21
      vertex 30 15 0
      vertex 30 15 21
    endloop
  endfacet
  facet normal 1 -0 0
    outer loop
      vertex 30 0 1
      vertex 30 15 0
      vertex 30 10 21
    endloop
  endfacet
  facet normal 1 0 0
    outer loop
      vertex 30 15 0
      vertex 30 0 1
      vertex 30 0 0
    endloop
  endfacet
  facet normal -1 0 0
    outer loop
      vertex 0 15 0
      vertex 0 10 21
      vertex 0 15 21
    endloop
  endfacet
  facet normal -1 0 0
    outer loop
      vertex 0 0 1
      vertex 0 15 0
      vertex 0 0 0
    endloop
  endfacet
  facet normal -1 0 0
    outer loop
      vertex 0 15 0
      vertex 0 0 1
      vertex 0 10 21
    endloop
  endfacet
  facet normal -0.980785 0.19509 0
    outer loop
      vertex 0 15 0
      vertex 0.3806 16.9134 21
      vertex 0.3806 16.9134 0
    endloop
  endfacet
  facet normal -0.980785 0.19509 0
    outer loop
      vertex 0.3806 16.9134 21
      vertex 0 15 0
      vertex 0 15 21
    endloop
  endfacet
  facet normal 0 0 1
    outer loop
      vertex 25.5355 15.5355 21
      vertex 28.5355 18.5355 21
      vertex 26.9134 19.6194 21
    endloop
  endfacet
  facet normal 0 0 1
    outer loop
      vertex 28.5355 18.5355 21
      vertex 26.6194 13.9134 21
      vertex 27 12 21
    endloop
  endfacet
  facet normal 0 0 1
    outer loop
      vertex 28.5355 18.5355 21
      vertex 25.5355 15.5355 21
      vertex 26.6194 13.9134 21
    endloop
  endfacet
  facet normal 0 0 1
    outer loop
      vertex 23.9134 16.6194 21
      vertex 26.9134 19.6194 21
      vertex 25 20 21
    endloop
  endfacet
  facet normal 0 0 1
    outer loop
      vertex 26.9134 19.6194 21
      vertex 23.9134 16.6194 21
      vertex 25.5355 15.5355 21
    endloop
  endfacet
  facet normal 0 0 1
    outer loop
      vertex 25 20 21
      vertex 22 17 21
      vertex 23.9134 16.6194 21
    endloop
  endfacet
  facet normal 0 0 1
    outer loop
      vertex 25 20 21
      vertex 8 17 21
      vertex 22 17 21
    endloop
  endfacet
  facet normal -0 0 1
    outer loop
      vertex 5 20 21
      vertex 8 17 21
      vertex 25 20 21
    endloop
  endfacet
  facet normal 0 0 1
    outer loop
      vertex 5 20 21
      vertex 6.08658 16.6194 21
      vertex 8 17 21
    endloop
  endfacet
  facet normal -0 0 1
    outer loop
      vertex 3.08658 19.6194 21
      vertex 6.08658 16.6194 21
      vertex 5 20 21
    endloop
  endfacet
  facet normal 0 0 1
    outer loop
      vertex 6.08658 16.6194 21
      vertex 3.08658 19.6194 21
      vertex 4.46446 15.5355 21
    endloop
  endfacet
  facet normal -0 0 1
    outer loop
      vertex 1.46446 18.5355 21
      vertex 4.46446 15.5355 21
      vertex 3.08658 19.6194 21
    endloop
  endfacet
  facet normal -0 0 1
    outer loop
      vertex 0.3806 16.9134 21
      vertex 4.46446 15.5355 21
      vertex 1.46446 18.5355 21
    endloop
  endfacet
  facet normal 0 0 1
    outer loop
      vertex 4.46446 15.5355 21
      vertex 0.3806 16.9134 21
      vertex 3.3806 13.9134 21
    endloop
  endfacet
  facet normal -0 0 1
    outer loop
      vertex 0 15 21
      vertex 3.3806 13.9134 21
      vertex 0.3806 16.9134 21
    endloop
  endfacet
  facet normal 0 0 1
    outer loop
      vertex 3.3806 13.9134 21
      vertex 0 15 21
      vertex 3 12 21
    endloop
  endfacet
  facet normal 0 0 1
    outer loop
      vertex 0 10 21
      vertex 3 12 21
      vertex 0 15 21
    endloop
  endfacet
  facet normal 0 0 1
    outer loop
      vertex 3 12 21
      vertex 0 10 21
      vertex 3 10 21
    endloop
  endfacet
  facet normal 0 0 1
    outer loop
      vertex 27 12 21
      vertex 30 15 21
      vertex 29.6194 16.9134 21
    endloop
  endfacet
  facet normal 0 0 1
    outer loop
      vertex 27 12 21
      vertex 29.6194 16.9134 21
      vertex 28.5355 18.5355 21
    endloop
  endfacet
  facet normal 0 0 1
    outer loop
      vertex 30 15 21
      vertex 27 12 21
      vertex 30 10 21
    endloop
  endfacet
  facet normal 0 0 1
    outer loop
      vertex 30 10 21
      vertex 27 12 21
      vertex 27 10 21
    endloop
  endfacet
  facet normal 0 -1 0
    outer loop
      vertex 0 0 0
      vertex 30 0 1
      vertex 0 0 1
    endloop
  endfacet
  facet normal 0 -1 -0
    outer loop
      vertex 30 0 1
      vertex 0 0 0
      vertex 30 0 0
    endloop
  endfacet
  facet normal 0 -0.894427 0.447214
    outer loop
      vertex 0 10 21
      vertex 3 1 3
      vertex 3 10 21
    endloop
  endfacet
  facet normal 0 -0.894427 0.447214
    outer loop
      vertex 3 1 3
      vertex 0 0 1
      vertex 27 1 3
    endloop
  endfacet
  facet normal 0 -0.894427 0.447214
    outer loop
      vertex 0 0 1
      vertex 3 1 3
      vertex 0 10 21
    endloop
  endfacet
  facet normal 0 -0.894427 0.447214
    outer loop
      vertex 27 1 3
      vertex 30 10 21
      vertex 27 10 21
    endloop
  endfacet
  facet normal 0 -0.894427 0.447214
    outer loop
      vertex 27 1 3
      vertex 30 0 1
      vertex 30 10 21
    endloop
  endfacet
  facet normal 0 -0.894427 0.447214
    outer loop
      vertex 30 0 1
      vertex 27 1 3
      vertex 0 0 1
    endloop
  endfacet
  facet normal 0 1 -0
    outer loop
      vertex 25 20 0
      vertex 5 20 21
      vertex 25 20 21
    endloop
  endfacet
  facet normal 0 1 0
    outer loop
      vertex 5 20 21
      vertex 25 20 0
      vertex 5 20 0
    endloop
  endfacet
  facet normal 0.195098 0.980784 -0
    outer loop
      vertex 26.9134 19.6194 0
      vertex 25 20 21
      vertex 26.9134 19.6194 21
    endloop
  endfacet
  facet normal 0.195098 0.980784 0
    outer loop
      vertex 25 20 21
      vertex 26.9134 19.6194 0
      vertex 25 20 0
    endloop
  endfacet
  facet normal 0.55557 0.83147 -0
    outer loop
      vertex 28.5355 18.5355 0
      vertex 26.9134 19.6194 21
      vertex 28.5355 18.5355 21
    endloop
  endfacet
  facet normal 0.55557 0.83147 0
    outer loop
      vertex 26.9134 19.6194 21
      vertex 28.5355 18.5355 0
      vertex 26.9134 19.6194 0
    endloop
  endfacet
  facet normal 0.83147 0.55557 0
    outer loop
      vertex 29.6194 16.9134 21
      vertex 28.5355 18.5355 0
      vertex 28.5355 18.5355 21
    endloop
  endfacet
  facet normal 0.83147 0.55557 0
    outer loop
      vertex 28.5355 18.5355 0
      vertex 29.6194 16.9134 21
      vertex 29.6194 16.9134 0
    endloop
  endfacet
  facet normal 0.980784 0.195098 0
    outer loop
      vertex 30 15 21
      vertex 29.6194 16.9134 0
      vertex 29.6194 16.9134 21
    endloop
  endfacet
  facet normal 0.980784 0.195098 0
    outer loop
      vertex 29.6194 16.9134 0
      vertex 30 15 21
      vertex 30 15 0
    endloop
  endfacet
  facet normal 0.83147 -0.55557 0
    outer loop
      vertex 3.3806 13.9134 21
      vertex 4.46446 15.5355 3
      vertex 4.46446 15.5355 21
    endloop
  endfacet
  facet normal 0.83147 -0.55557 0
    outer loop
      vertex 4.46446 15.5355 3
      vertex 3.3806 13.9134 21
      vertex 3.3806 13.9134 3
    endloop
  endfacet
  facet normal 0.55557 -0.83147 0
    outer loop
      vertex 4.46446 15.5355 3
      vertex 6.08658 16.6194 21
      vertex 4.46446 15.5355 21
    endloop
  endfacet
  facet normal 0.55557 -0.83147 0
    outer loop
      vertex 6.08658 16.6194 21
      vertex 4.46446 15.5355 3
      vertex 6.08658 16.6194 3
    endloop
  endfacet
  facet normal 0 0 1
    outer loop
      vertex 22 17 3
      vertex 27 12 3
      vertex 26.6194 13.9134 3
    endloop
  endfacet
  facet normal 0 0 1
    outer loop
      vertex 22 17 3
      vertex 26.6194 13.9134 3
      vertex 25.5355 15.5355 3
    endloop
  endfacet
  facet normal 0 0 1
    outer loop
      vertex 22 17 3
      vertex 25.5355 15.5355 3
      vertex 23.9134 16.6194 3
    endloop
  endfacet
  facet normal 0 0 1
    outer loop
      vertex 27 12 3
      vertex 22 17 3
      vertex 27 1 3
    endloop
  endfacet
  facet normal -0 0 1
    outer loop
      vertex 8 17 3
      vertex 27 1 3
      vertex 22 17 3
    endloop
  endfacet
  facet normal 0 0 1
    outer loop
      vertex 3 12 3
      vertex 8 17 3
      vertex 6.08658 16.6194 3
    endloop
  endfacet
  facet normal 0 0 1
    outer loop
      vertex 3 12 3
      vertex 6.08658 16.6194 3
      vertex 4.46446 15.5355 3
    endloop
  endfacet
  facet normal 0 0 1
    outer loop
      vertex 3 12 3
      vertex 4.46446 15.5355 3
      vertex 3.3806 13.9134 3
    endloop
  endfacet
  facet normal 0 0 1
    outer loop
      vertex 3 1 3
      vertex 8 17 3
      vertex 3 12 3
    endloop
  endfacet
  facet normal 0 0 1
    outer loop
      vertex 8 17 3
      vertex 3 1 3
      vertex 27 1 3
    endloop
  endfacet
  facet normal 0.195096 -0.980784 0
    outer loop
      vertex 6.08658 16.6194 3
      vertex 8 17 21
      vertex 6.08658 16.6194 21
    endloop
  endfacet
  facet normal 0.195096 -0.980784 0
    outer loop
      vertex 8 17 21
      vertex 6.08658 16.6194 3
      vertex 8 17 3
    endloop
  endfacet
  facet normal -1 0 0
    outer loop
      vertex 27 12 3
      vertex 27 10 21
      vertex 27 12 21
    endloop
  endfacet
  facet normal -1 0 -0
    outer loop
      vertex 27 10 21
      vertex 27 12 3
      vertex 27 1 3
    endloop
  endfacet
  facet normal 1 -0 0
    outer loop
      vertex 3 10 21
      vertex 3 12 3
      vertex 3 12 21
    endloop
  endfacet
  facet normal 1 0 0
    outer loop
      vertex 3 12 3
      vertex 3 10 21
      vertex 3 1 3
    endloop
  endfacet
  facet normal 0.980785 -0.19509 0
    outer loop
      vertex 3 12 21
      vertex 3.3806 13.9134 3
      vertex 3.3806 13.9134 21
    endloop
  endfacet
  facet normal 0.980785 -0.19509 0
    outer loop
      vertex 3.3806 13.9134 3
      vertex 3 12 21
      vertex 3 12 3
    endloop
  endfacet
  facet normal 0 -1 0
    outer loop
      vertex 8 17 3
      vertex 22 17 21
      vertex 8 17 21
    endloop
  endfacet
  facet normal 0 -1 -0
    outer loop
      vertex 22 17 21
      vertex 8 17 3
      vertex 22 17 3
    endloop
  endfacet
  facet normal -0.195098 -0.980784 0
    outer loop
      vertex 22 17 3
      vertex 23.9134 16.6194 21
      vertex 22 17 21
    endloop
  endfacet
  facet normal -0.195098 -0.980784 -0
    outer loop
      vertex 23.9134 16.6194 21
      vertex 22 17 3
      vertex 23.9134 16.6194 3
    endloop
  endfacet
  facet normal -0.55557 -0.83147 0
    outer loop
      vertex 23.9134 16.6194 3
      vertex 25.5355 15.5355 21
      vertex 23.9134 16.6194 21
    endloop
  endfacet
  facet normal -0.55557 -0.83147 -0
    outer loop
      vertex 25.5355 15.5355 21
      vertex 23.9134 16.6194 3
      vertex 25.5355 15.5355 3
    endloop
  endfacet
  facet normal -0.83147 -0.55557 0
    outer loop
      vertex 26.6194 13.9134 3
      vertex 25.5355 15.5355 21
      vertex 25.5355 15.5355 3
    endloop
  endfacet
  facet normal -0.83147 -0.55557 0
    outer loop
      vertex 25.5355 15.5355 21
      vertex 26.6194 13.9134 3
      vertex 26.6194 13.9134 21
    endloop
  endfacet
  facet normal -0.980784 -0.195098 0
    outer loop
      vertex 27 12 3
      vertex 26.6194 13.9134 21
      vertex 26.6194 13.9134 3
    endloop
  endfacet
  facet normal -0.980784 -0.195098 0
    outer loop
      vertex 26.6194 13.9134 21
      vertex 27 12 3
      vertex 27 12 21
    endloop
  endfacet
endsolid OpenSCAD_Model
