solid OpenSCAD_Model
  facet normal -0.454015 0.890994 0
    outer loop
      vertex 23.4585 21.4034 0
      vertex 21.8581 20.5879 0.5
      vertex 23.4585 21.4034 0.5
    endloop
  endfacet
  facet normal -0.454015 0.890994 0
    outer loop
      vertex 21.8581 20.5879 0.5
      vertex 23.4585 21.4034 0
      vertex 21.8581 20.5879 0
    endloop
  endfacet
  facet normal 0.890994 -0.454015 0
    outer loop
      vertex 20.5879 21.8581 0.5
      vertex 21.4034 23.4585 0
      vertex 21.4034 23.4585 0.5
    endloop
  endfacet
  facet normal 0.890994 -0.454015 0
    outer loop
      vertex 21.4034 23.4585 0
      vertex 20.5879 21.8581 0.5
      vertex 20.5879 21.8581 0
    endloop
  endfacet
  facet normal -0.15644 -0.987687 0
    outer loop
      vertex 21.4034 23.4585 0
      vertex 23.1775 23.1775 0.5
      vertex 21.4034 23.4585 0.5
    endloop
  endfacet
  facet normal -0.15644 -0.987687 -0
    outer loop
      vertex 23.1775 23.1775 0.5
      vertex 21.4034 23.4585 0
      vertex 23.1775 23.1775 0
    endloop
  endfacet
  facet normal 0.707107 0.707107 0
    outer loop
      vertex 21.8581 20.5879 0.5
      vertex 20.5879 21.8581 0
      vertex 20.5879 21.8581 0.5
    endloop
  endfacet
  facet normal 0.707107 0.707107 0
    outer loop
      vertex 20.5879 21.8581 0
      vertex 21.8581 20.5879 0.5
      vertex 21.8581 20.5879 0
    endloop
  endfacet
  facet normal -0.987687 -0.15644 0
    outer loop
      vertex 23.4585 21.4034 0
      vertex 23.1775 23.1775 0.5
      vertex 23.1775 23.1775 0
    endloop
  endfacet
  facet normal -0.987687 -0.15644 0
    outer loop
      vertex 23.1775 23.1775 0.5
      vertex 23.4585 21.4034 0
      vertex 23.4585 21.4034 0.5
    endloop
  endfacet
  facet normal 0.987687 -0.15644 0
    outer loop
      vertex -23.4585 21.4034 0.5
      vertex -23.1775 23.1775 0
      vertex -23.1775 23.1775 0.5
    endloop
  endfacet
  facet normal 0.987687 -0.15644 0
    outer loop
      vertex -23.1775 23.1775 0
      vertex -23.4585 21.4034 0.5
      vertex -23.4585 21.4034 0
    endloop
  endfacet
  facet normal -0.707107 0.707107 0
    outer loop
      vertex -21.8581 20.5879 0
      vertex -20.5879 21.8581 0.5
      vertex -20.5879 21.8581 0
    endloop
  endfacet
  facet normal -0.707107 0.707107 0
    outer loop
      vertex -20.5879 21.8581 0.5
      vertex -21.8581 20.5879 0
      vertex -21.8581 20.5879 0.5
    endloop
  endfacet
  facet normal -0.890994 -0.454015 0
    outer loop
      vertex -20.5879 21.8581 0
      vertex -21.4034 23.4585 0.5
      vertex -21.4034 23.4585 0
    endloop
  endfacet
  facet normal -0.890994 -0.454015 0
    outer loop
      vertex -21.4034 23.4585 0.5
      vertex -20.5879 21.8581 0
      vertex -20.5879 21.8581 0.5
    endloop
  endfacet
  facet normal 0.454015 0.890994 -0
    outer loop
      vertex -21.8581 20.5879 0
      vertex -23.4585 21.4034 0.5
      vertex -21.8581 20.5879 0.5
    endloop
  endfacet
  facet normal 0.454015 0.890994 0
    outer loop
      vertex -23.4585 21.4034 0.5
      vertex -21.8581 20.5879 0
      vertex -23.4585 21.4034 0
    endloop
  endfacet
  facet normal 0.15644 -0.987687 0
    outer loop
      vertex -23.1775 23.1775 0
      vertex -21.4034 23.4585 0.5
      vertex -23.1775 23.1775 0.5
    endloop
  endfacet
  facet normal 0.15644 -0.987687 0
    outer loop
      vertex -21.4034 23.4585 0.5
      vertex -23.1775 23.1775 0
      vertex -21.4034 23.4585 0
    endloop
  endfacet
  facet normal 0.15644 0.987687 -0
    outer loop
      vertex -21.4034 -23.4585 0
      vertex -23.1775 -23.1775 0.5
      vertex -21.4034 -23.4585 0.5
    endloop
  endfacet
  facet normal 0.15644 0.987687 0
    outer loop
      vertex -23.1775 -23.1775 0.5
      vertex -21.4034 -23.4585 0
      vertex -23.1775 -23.1775 0
    endloop
  endfacet
  facet normal -0.890994 0.454015 0
    outer loop
      vertex -21.4034 -23.4585 0
      vertex -20.5879 -21.8581 0.5
      vertex -20.5879 -21.8581 0
    endloop
  endfacet
  facet normal -0.890994 0.454015 0
    outer loop
      vertex -20.5879 -21.8581 0.5
      vertex -21.4034 -23.4585 0
      vertex -21.4034 -23.4585 0.5
    endloop
  endfacet
  facet normal -0.707107 -0.707107 0
    outer loop
      vertex -20.5879 -21.8581 0
      vertex -21.8581 -20.5879 0.5
      vertex -21.8581 -20.5879 0
    endloop
  endfacet
  facet normal -0.707107 -0.707107 0
    outer loop
      vertex -21.8581 -20.5879 0.5
      vertex -20.5879 -21.8581 0
      vertex -20.5879 -21.8581 0.5
    endloop
  endfacet
  facet normal 0.454015 -0.890994 0
    outer loop
      vertex -23.4585 -21.4034 0
      vertex -21.8581 -20.5879 0.5
      vertex -23.4585 -21.4034 0.5
    endloop
  endfacet
  facet normal 0.454015 -0.890994 0
    outer loop
      vertex -21.8581 -20.5879 0.5
      vertex -23.4585 -21.4034 0
      vertex -21.8581 -20.5879 0
    endloop
  endfacet
  facet normal 0.987687 0.15644 0
    outer loop
      vertex -23.1775 -23.1775 0.5
      vertex -23.4585 -21.4034 0
      vertex -23.4585 -21.4034 0.5
    endloop
  endfacet
  facet normal 0.987687 0.15644 0
    outer loop
      vertex -23.4585 -21.4034 0
      vertex -23.1775 -23.1775 0.5
      vertex -23.1775 -23.1775 0
    endloop
  endfacet
  facet normal -0.987687 0.15644 0
    outer loop
      vertex 23.1775 -23.1775 0
      vertex 23.4585 -21.4034 0.5
      vertex 23.4585 -21.4034 0
    endloop
  endfacet
  facet normal -0.987687 0.15644 0
    outer loop
      vertex 23.4585 -21.4034 0.5
      vertex 23.1775 -23.1775 0
      vertex 23.1775 -23.1775 0.5
    endloop
  endfacet
  facet normal 0.890994 0.454015 0
    outer loop
      vertex 21.4034 -23.4585 0.5
      vertex 20.5879 -21.8581 0
      vertex 20.5879 -21.8581 0.5
    endloop
  endfacet
  facet normal 0.890994 0.454015 0
    outer loop
      vertex 20.5879 -21.8581 0
      vertex 21.4034 -23.4585 0.5
      vertex 21.4034 -23.4585 0
    endloop
  endfacet
  facet normal -0.454015 -0.890994 0
    outer loop
      vertex 21.8581 -20.5879 0
      vertex 23.4585 -21.4034 0.5
      vertex 21.8581 -20.5879 0.5
    endloop
  endfacet
  facet normal -0.454015 -0.890994 -0
    outer loop
      vertex 23.4585 -21.4034 0.5
      vertex 21.8581 -20.5879 0
      vertex 23.4585 -21.4034 0
    endloop
  endfacet
  facet normal 0.707107 -0.707107 0
    outer loop
      vertex 20.5879 -21.8581 0.5
      vertex 21.8581 -20.5879 0
      vertex 21.8581 -20.5879 0.5
    endloop
  endfacet
  facet normal 0.707107 -0.707107 0
    outer loop
      vertex 21.8581 -20.5879 0
      vertex 20.5879 -21.8581 0.5
      vertex 20.5879 -21.8581 0
    endloop
  endfacet
  facet normal -0.15644 0.987687 0
    outer loop
      vertex 23.1775 -23.1775 0
      vertex 21.4034 -23.4585 0.5
      vertex 23.1775 -23.1775 0.5
    endloop
  endfacet
  facet normal -0.15644 0.987687 0
    outer loop
      vertex 21.4034 -23.4585 0.5
      vertex 23.1775 -23.1775 0
      vertex 21.4034 -23.4585 0
    endloop
  endfacet
  facet normal 0.309002 0.951061 -0
    outer loop
      vertex 21.4722 -1.45318 0
      vertex 19.7638 -0.898117 0.5
      vertex 21.4722 -1.45318 0.5
    endloop
  endfacet
  facet normal 0.309002 0.951061 0
    outer loop
      vertex 19.7638 -0.898117 0.5
      vertex 21.4722 -1.45318 0
      vertex 19.7638 -0.898117 0
    endloop
  endfacet
  facet normal 0.309002 -0.951061 0
    outer loop
      vertex 19.7638 0.898117 0
      vertex 21.4722 1.45318 0.5
      vertex 19.7638 0.898117 0.5
    endloop
  endfacet
  facet normal 0.309002 -0.951061 0
    outer loop
      vertex 21.4722 1.45318 0.5
      vertex 19.7638 0.898117 0
      vertex 21.4722 1.45318 0
    endloop
  endfacet
  facet normal -0.809016 -0.587786 0
    outer loop
      vertex 22.528 0 0
      vertex 21.4722 1.45318 0.5
      vertex 21.4722 1.45318 0
    endloop
  endfacet
  facet normal -0.809016 -0.587786 0
    outer loop
      vertex 21.4722 1.45318 0.5
      vertex 22.528 0 0
      vertex 22.528 0 0.5
    endloop
  endfacet
  facet normal 1 -0 0
    outer loop
      vertex 19.7638 -0.898117 0.5
      vertex 19.7638 0.898117 0
      vertex 19.7638 0.898117 0.5
    endloop
  endfacet
  facet normal 1 0 0
    outer loop
      vertex 19.7638 0.898117 0
      vertex 19.7638 -0.898117 0.5
      vertex 19.7638 -0.898117 0
    endloop
  endfacet
  facet normal -0.809016 0.587786 0
    outer loop
      vertex 21.4722 -1.45318 0
      vertex 22.528 0 0.5
      vertex 22.528 0 0
    endloop
  endfacet
  facet normal -0.809016 0.587786 0
    outer loop
      vertex 22.528 0 0.5
      vertex 21.4722 -1.45318 0
      vertex 21.4722 -1.45318 0.5
    endloop
  endfacet
  facet normal -0.453992 0.891006 0
    outer loop
      vertex 16.2107 14.1556 0
      vertex 14.6102 13.3401 0.5
      vertex 16.2107 14.1556 0.5
    endloop
  endfacet
  facet normal -0.453992 0.891006 0
    outer loop
      vertex 14.6102 13.3401 0.5
      vertex 16.2107 14.1556 0
      vertex 14.6102 13.3401 0
    endloop
  endfacet
  facet normal 0.891006 -0.453992 0
    outer loop
      vertex 13.3401 14.6102 0.5
      vertex 14.1556 16.2107 0
      vertex 14.1556 16.2107 0.5
    endloop
  endfacet
  facet normal 0.891006 -0.453992 0
    outer loop
      vertex 14.1556 16.2107 0
      vertex 13.3401 14.6102 0.5
      vertex 13.3401 14.6102 0
    endloop
  endfacet
  facet normal -0.15644 -0.987687 0
    outer loop
      vertex 14.1556 16.2107 0
      vertex 15.9297 15.9297 0.5
      vertex 14.1556 16.2107 0.5
    endloop
  endfacet
  facet normal -0.15644 -0.987687 -0
    outer loop
      vertex 15.9297 15.9297 0.5
      vertex 14.1556 16.2107 0
      vertex 15.9297 15.9297 0
    endloop
  endfacet
  facet normal 0.707107 0.707107 0
    outer loop
      vertex 14.6102 13.3401 0.5
      vertex 13.3401 14.6102 0
      vertex 13.3401 14.6102 0.5
    endloop
  endfacet
  facet normal 0.707107 0.707107 0
    outer loop
      vertex 13.3401 14.6102 0
      vertex 14.6102 13.3401 0.5
      vertex 14.6102 13.3401 0
    endloop
  endfacet
  facet normal -0.987687 -0.15644 0
    outer loop
      vertex 16.2107 14.1556 0
      vertex 15.9297 15.9297 0.5
      vertex 15.9297 15.9297 0
    endloop
  endfacet
  facet normal -0.987687 -0.15644 0
    outer loop
      vertex 15.9297 15.9297 0.5
      vertex 16.2107 14.1556 0
      vertex 16.2107 14.1556 0.5
    endloop
  endfacet
  facet normal -0.951061 0.309002 0
    outer loop
      vertex 0.898117 19.7638 0
      vertex 1.45318 21.4722 0.5
      vertex 1.45318 21.4722 0
    endloop
  endfacet
  facet normal -0.951061 0.309002 0
    outer loop
      vertex 1.45318 21.4722 0.5
      vertex 0.898117 19.7638 0
      vertex 0.898117 19.7638 0.5
    endloop
  endfacet
  facet normal 0.587786 -0.809016 0
    outer loop
      vertex -1.45318 21.4722 0
      vertex 0 22.528 0.5
      vertex -1.45318 21.4722 0.5
    endloop
  endfacet
  facet normal 0.587786 -0.809016 0
    outer loop
      vertex 0 22.528 0.5
      vertex -1.45318 21.4722 0
      vertex 0 22.528 0
    endloop
  endfacet
  facet normal 0 1 -0
    outer loop
      vertex 0.898117 19.7638 0
      vertex -0.898117 19.7638 0.5
      vertex 0.898117 19.7638 0.5
    endloop
  endfacet
  facet normal 0 1 0
    outer loop
      vertex -0.898117 19.7638 0.5
      vertex 0.898117 19.7638 0
      vertex -0.898117 19.7638 0
    endloop
  endfacet
  facet normal 0.951061 0.309002 0
    outer loop
      vertex -0.898117 19.7638 0.5
      vertex -1.45318 21.4722 0
      vertex -1.45318 21.4722 0.5
    endloop
  endfacet
  facet normal 0.951061 0.309002 0
    outer loop
      vertex -1.45318 21.4722 0
      vertex -0.898117 19.7638 0.5
      vertex -0.898117 19.7638 0
    endloop
  endfacet
  facet normal -0.587786 -0.809016 0
    outer loop
      vertex 0 22.528 0
      vertex 1.45318 21.4722 0.5
      vertex 0 22.528 0.5
    endloop
  endfacet
  facet normal -0.587786 -0.809016 -0
    outer loop
      vertex 1.45318 21.4722 0.5
      vertex 0 22.528 0
      vertex 1.45318 21.4722 0
    endloop
  endfacet
  facet normal 0.987687 -0.15644 0
    outer loop
      vertex -16.2107 14.1556 0.5
      vertex -15.9297 15.9297 0
      vertex -15.9297 15.9297 0.5
    endloop
  endfacet
  facet normal 0.987687 -0.15644 0
    outer loop
      vertex -15.9297 15.9297 0
      vertex -16.2107 14.1556 0.5
      vertex -16.2107 14.1556 0
    endloop
  endfacet
  facet normal -0.707107 0.707107 0
    outer loop
      vertex -14.6102 13.3401 0
      vertex -13.3401 14.6102 0.5
      vertex -13.3401 14.6102 0
    endloop
  endfacet
  facet normal -0.707107 0.707107 0
    outer loop
      vertex -13.3401 14.6102 0.5
      vertex -14.6102 13.3401 0
      vertex -14.6102 13.3401 0.5
    endloop
  endfacet
  facet normal -0.891006 -0.453992 0
    outer loop
      vertex -13.3401 14.6102 0
      vertex -14.1556 16.2107 0.5
      vertex -14.1556 16.2107 0
    endloop
  endfacet
  facet normal -0.891006 -0.453992 0
    outer loop
      vertex -14.1556 16.2107 0.5
      vertex -13.3401 14.6102 0
      vertex -13.3401 14.6102 0.5
    endloop
  endfacet
  facet normal 0.453992 0.891006 -0
    outer loop
      vertex -14.6102 13.3401 0
      vertex -16.2107 14.1556 0.5
      vertex -14.6102 13.3401 0.5
    endloop
  endfacet
  facet normal 0.453992 0.891006 0
    outer loop
      vertex -16.2107 14.1556 0.5
      vertex -14.6102 13.3401 0
      vertex -16.2107 14.1556 0
    endloop
  endfacet
  facet normal 0.15644 -0.987687 0
    outer loop
      vertex -15.9297 15.9297 0
      vertex -14.1556 16.2107 0.5
      vertex -15.9297 15.9297 0.5
    endloop
  endfacet
  facet normal 0.15644 -0.987687 0
    outer loop
      vertex -14.1556 16.2107 0.5
      vertex -15.9297 15.9297 0
      vertex -14.1556 16.2107 0
    endloop
  endfacet
  facet normal -1 0 0
    outer loop
      vertex -19.7638 -0.898117 0
      vertex -19.7638 0.898117 0.5
      vertex -19.7638 0.898117 0
    endloop
  endfacet
  facet normal -1 -0 0
    outer loop
      vertex -19.7638 0.898117 0.5
      vertex -19.7638 -0.898117 0
      vertex -19.7638 -0.898117 0.5
    endloop
  endfacet
  facet normal -0.309002 -0.951061 0
    outer loop
      vertex -21.4722 1.45318 0
      vertex -19.7638 0.898117 0.5
      vertex -21.4722 1.45318 0.5
    endloop
  endfacet
  facet normal -0.309002 -0.951061 -0
    outer loop
      vertex -19.7638 0.898117 0.5
      vertex -21.4722 1.45318 0
      vertex -19.7638 0.898117 0
    endloop
  endfacet
  facet normal 0.809016 0.587786 0
    outer loop
      vertex -21.4722 -1.45318 0.5
      vertex -22.528 0 0
      vertex -22.528 0 0.5
    endloop
  endfacet
  facet normal 0.809016 0.587786 0
    outer loop
      vertex -22.528 0 0
      vertex -21.4722 -1.45318 0.5
      vertex -21.4722 -1.45318 0
    endloop
  endfacet
  facet normal -0.309002 0.951061 0
    outer loop
      vertex -19.7638 -0.898117 0
      vertex -21.4722 -1.45318 0.5
      vertex -19.7638 -0.898117 0.5
    endloop
  endfacet
  facet normal -0.309002 0.951061 0
    outer loop
      vertex -21.4722 -1.45318 0.5
      vertex -19.7638 -0.898117 0
      vertex -21.4722 -1.45318 0
    endloop
  endfacet
  facet normal 0.809016 -0.587786 0
    outer loop
      vertex -22.528 0 0.5
      vertex -21.4722 1.45318 0
      vertex -21.4722 1.45318 0.5
    endloop
  endfacet
  facet normal 0.809016 -0.587786 0
    outer loop
      vertex -21.4722 1.45318 0
      vertex -22.528 0 0.5
      vertex -22.528 0 0
    endloop
  endfacet
  facet normal -0.707107 -0.707107 0
    outer loop
      vertex -13.3401 -14.6102 0
      vertex -14.6102 -13.3401 0.5
      vertex -14.6102 -13.3401 0
    endloop
  endfacet
  facet normal -0.707107 -0.707107 0
    outer loop
      vertex -14.6102 -13.3401 0.5
      vertex -13.3401 -14.6102 0
      vertex -13.3401 -14.6102 0.5
    endloop
  endfacet
  facet normal 0.453992 -0.891006 0
    outer loop
      vertex -16.2107 -14.1556 0
      vertex -14.6102 -13.3401 0.5
      vertex -16.2107 -14.1556 0.5
    endloop
  endfacet
  facet normal 0.453992 -0.891006 0
    outer loop
      vertex -14.6102 -13.3401 0.5
      vertex -16.2107 -14.1556 0
      vertex -14.6102 -13.3401 0
    endloop
  endfacet
  facet normal 0.15644 0.987687 -0
    outer loop
      vertex -14.1556 -16.2107 0
      vertex -15.9297 -15.9297 0.5
      vertex -14.1556 -16.2107 0.5
    endloop
  endfacet
  facet normal 0.15644 0.987687 0
    outer loop
      vertex -15.9297 -15.9297 0.5
      vertex -14.1556 -16.2107 0
      vertex -15.9297 -15.9297 0
    endloop
  endfacet
  facet normal 0.987687 0.15644 0
    outer loop
      vertex -15.9297 -15.9297 0.5
      vertex -16.2107 -14.1556 0
      vertex -16.2107 -14.1556 0.5
    endloop
  endfacet
  facet normal 0.987687 0.15644 0
    outer loop
      vertex -16.2107 -14.1556 0
      vertex -15.9297 -15.9297 0.5
      vertex -15.9297 -15.9297 0
    endloop
  endfacet
  facet normal -0.891006 0.453992 0
    outer loop
      vertex -14.1556 -16.2107 0
      vertex -13.3401 -14.6102 0.5
      vertex -13.3401 -14.6102 0
    endloop
  endfacet
  facet normal -0.891006 0.453992 0
    outer loop
      vertex -13.3401 -14.6102 0.5
      vertex -14.1556 -16.2107 0
      vertex -14.1556 -16.2107 0.5
    endloop
  endfacet
  facet normal -0.951061 -0.309002 0
    outer loop
      vertex 1.45318 -21.4722 0
      vertex 0.898117 -19.7638 0.5
      vertex 0.898117 -19.7638 0
    endloop
  endfacet
  facet normal -0.951061 -0.309002 0
    outer loop
      vertex 0.898117 -19.7638 0.5
      vertex 1.45318 -21.4722 0
      vertex 1.45318 -21.4722 0.5
    endloop
  endfacet
  facet normal 0 -1 0
    outer loop
      vertex -0.898117 -19.7638 0
      vertex 0.898117 -19.7638 0.5
      vertex -0.898117 -19.7638 0.5
    endloop
  endfacet
  facet normal 0 -1 -0
    outer loop
      vertex 0.898117 -19.7638 0.5
      vertex -0.898117 -19.7638 0
      vertex 0.898117 -19.7638 0
    endloop
  endfacet
  facet normal 0.951061 -0.309002 0
    outer loop
      vertex -1.45318 -21.4722 0.5
      vertex -0.898117 -19.7638 0
      vertex -0.898117 -19.7638 0.5
    endloop
  endfacet
  facet normal 0.951061 -0.309002 0
    outer loop
      vertex -0.898117 -19.7638 0
      vertex -1.45318 -21.4722 0.5
      vertex -1.45318 -21.4722 0
    endloop
  endfacet
  facet normal -0.587786 0.809016 0
    outer loop
      vertex 1.45318 -21.4722 0
      vertex 0 -22.528 0.5
      vertex 1.45318 -21.4722 0.5
    endloop
  endfacet
  facet normal -0.587786 0.809016 0
    outer loop
      vertex 0 -22.528 0.5
      vertex 1.45318 -21.4722 0
      vertex 0 -22.528 0
    endloop
  endfacet
  facet normal 0.587786 0.809016 -0
    outer loop
      vertex 0 -22.528 0
      vertex -1.45318 -21.4722 0.5
      vertex 0 -22.528 0.5
    endloop
  endfacet
  facet normal 0.587786 0.809016 0
    outer loop
      vertex -1.45318 -21.4722 0.5
      vertex 0 -22.528 0
      vertex -1.45318 -21.4722 0
    endloop
  endfacet
  facet normal 0.891006 0.453992 0
    outer loop
      vertex 14.1556 -16.2107 0.5
      vertex 13.3401 -14.6102 0
      vertex 13.3401 -14.6102 0.5
    endloop
  endfacet
  facet normal 0.891006 0.453992 0
    outer loop
      vertex 13.3401 -14.6102 0
      vertex 14.1556 -16.2107 0.5
      vertex 14.1556 -16.2107 0
    endloop
  endfacet
  facet normal -0.453992 -0.891006 0
    outer loop
      vertex 14.6102 -13.3401 0
      vertex 16.2107 -14.1556 0.5
      vertex 14.6102 -13.3401 0.5
    endloop
  endfacet
  facet normal -0.453992 -0.891006 -0
    outer loop
      vertex 16.2107 -14.1556 0.5
      vertex 14.6102 -13.3401 0
      vertex 16.2107 -14.1556 0
    endloop
  endfacet
  facet normal 0.707107 -0.707107 0
    outer loop
      vertex 13.3401 -14.6102 0.5
      vertex 14.6102 -13.3401 0
      vertex 14.6102 -13.3401 0.5
    endloop
  endfacet
  facet normal 0.707107 -0.707107 0
    outer loop
      vertex 14.6102 -13.3401 0
      vertex 13.3401 -14.6102 0.5
      vertex 13.3401 -14.6102 0
    endloop
  endfacet
  facet normal -0.987687 0.15644 0
    outer loop
      vertex 15.9297 -15.9297 0
      vertex 16.2107 -14.1556 0.5
      vertex 16.2107 -14.1556 0
    endloop
  endfacet
  facet normal -0.987687 0.15644 0
    outer loop
      vertex 16.2107 -14.1556 0.5
      vertex 15.9297 -15.9297 0
      vertex 15.9297 -15.9297 0.5
    endloop
  endfacet
  facet normal -0.15644 0.987687 0
    outer loop
      vertex 15.9297 -15.9297 0
      vertex 14.1556 -16.2107 0.5
      vertex 15.9297 -15.9297 0.5
    endloop
  endfacet
  facet normal -0.15644 0.987687 0
    outer loop
      vertex 14.1556 -16.2107 0.5
      vertex 15.9297 -15.9297 0
      vertex 14.1556 -16.2107 0
    endloop
  endfacet
  facet normal 1 -0 0
    outer loop
      vertex 25 -25 0.5
      vertex 25 25 0
      vertex 25 25 0.5
    endloop
  endfacet
  facet normal 1 0 0
    outer loop
      vertex 25 25 0
      vertex 25 -25 0.5
      vertex 25 -25 0
    endloop
  endfacet
  facet normal 0 0 1
    outer loop
      vertex -21.8581 -20.5879 0.5
      vertex -16.2107 -14.1556 0.5
      vertex -21.4722 -1.45318 0.5
    endloop
  endfacet
  facet normal 0 0 1
    outer loop
      vertex -16.2107 -14.1556 0.5
      vertex -21.8581 -20.5879 0.5
      vertex -20.5879 -21.8581 0.5
    endloop
  endfacet
  facet normal 0 0 1
    outer loop
      vertex -23.4585 -21.4034 0.5
      vertex -21.4722 -1.45318 0.5
      vertex -22.528 0 0.5
    endloop
  endfacet
  facet normal 0 0 1
    outer loop
      vertex -25 25 0.5
      vertex -22.528 0 0.5
      vertex -23.4585 21.4034 0.5
    endloop
  endfacet
  facet normal 0 0 1
    outer loop
      vertex -21.4722 -1.45318 0.5
      vertex -23.4585 -21.4034 0.5
      vertex -21.8581 -20.5879 0.5
    endloop
  endfacet
  facet normal -0 0 1
    outer loop
      vertex -14.6102 13.3401 0.5
      vertex -13.3401 -14.6102 0.5
      vertex -13.3401 14.6102 0.5
    endloop
  endfacet
  facet normal 0 0 1
    outer loop
      vertex -14.6102 13.3401 0.5
      vertex -14.6102 -13.3401 0.5
      vertex -13.3401 -14.6102 0.5
    endloop
  endfacet
  facet normal 0 0 1
    outer loop
      vertex -19.7638 0.898117 0.5
      vertex -14.6102 13.3401 0.5
      vertex -16.2107 14.1556 0.5
    endloop
  endfacet
  facet normal 0 0 1
    outer loop
      vertex -14.6102 13.3401 0.5
      vertex -19.7638 0.898117 0.5
      vertex -14.6102 -13.3401 0.5
    endloop
  endfacet
  facet normal 0 0 1
    outer loop
      vertex 0.898117 -19.7638 0.5
      vertex 13.3401 -14.6102 0.5
      vertex 0.898117 19.7638 0.5
    endloop
  endfacet
  facet normal 0 0 1
    outer loop
      vertex 13.3401 -14.6102 0.5
      vertex 0.898117 -19.7638 0.5
      vertex 1.45318 -21.4722 0.5
    endloop
  endfacet
  facet normal -0 0 1
    outer loop
      vertex -0.898117 19.7638 0.5
      vertex 0.898117 -19.7638 0.5
      vertex 0.898117 19.7638 0.5
    endloop
  endfacet
  facet normal 0 0 1
    outer loop
      vertex -0.898117 19.7638 0.5
      vertex -0.898117 -19.7638 0.5
      vertex 0.898117 -19.7638 0.5
    endloop
  endfacet
  facet normal 0 0 1
    outer loop
      vertex -13.3401 14.6102 0.5
      vertex -0.898117 19.7638 0.5
      vertex -1.45318 21.4722 0.5
    endloop
  endfacet
  facet normal 0 0 1
    outer loop
      vertex -0.898117 19.7638 0.5
      vertex -13.3401 14.6102 0.5
      vertex -0.898117 -19.7638 0.5
    endloop
  endfacet
  facet normal 0 0 1
    outer loop
      vertex 14.6102 -13.3401 0.5
      vertex 19.7638 -0.898117 0.5
      vertex 14.6102 13.3401 0.5
    endloop
  endfacet
  facet normal 0 0 1
    outer loop
      vertex 19.7638 -0.898117 0.5
      vertex 14.6102 -13.3401 0.5
      vertex 16.2107 -14.1556 0.5
    endloop
  endfacet
  facet normal 0 0 1
    outer loop
      vertex 13.3401 14.6102 0.5
      vertex 14.6102 -13.3401 0.5
      vertex 14.6102 13.3401 0.5
    endloop
  endfacet
  facet normal 0 0 1
    outer loop
      vertex 14.6102 -13.3401 0.5
      vertex 13.3401 14.6102 0.5
      vertex 13.3401 -14.6102 0.5
    endloop
  endfacet
  facet normal 0 0 1
    outer loop
      vertex -16.2107 14.1556 0.5
      vertex -21.4722 1.45318 0.5
      vertex -19.7638 0.898117 0.5
    endloop
  endfacet
  facet normal 0 0 1
    outer loop
      vertex -16.2107 14.1556 0.5
      vertex -21.8581 20.5879 0.5
      vertex -21.4722 1.45318 0.5
    endloop
  endfacet
  facet normal 0 0 1
    outer loop
      vertex -23.4585 21.4034 0.5
      vertex -21.4722 1.45318 0.5
      vertex -21.8581 20.5879 0.5
    endloop
  endfacet
  facet normal 0 0 1
    outer loop
      vertex -21.4722 1.45318 0.5
      vertex -23.4585 21.4034 0.5
      vertex -22.528 0 0.5
    endloop
  endfacet
  facet normal 0 0 1
    outer loop
      vertex 25 -25 0.5
      vertex 22.528 0 0.5
      vertex 23.4585 -21.4034 0.5
    endloop
  endfacet
  facet normal 0 0 1
    outer loop
      vertex 21.4722 1.45318 0.5
      vertex 23.4585 21.4034 0.5
      vertex 21.8581 20.5879 0.5
    endloop
  endfacet
  facet normal 0 0 1
    outer loop
      vertex 23.4585 21.4034 0.5
      vertex 21.4722 1.45318 0.5
      vertex 22.528 0 0.5
    endloop
  endfacet
  facet normal 0 0 1
    outer loop
      vertex 15.9297 15.9297 0.5
      vertex 21.8581 20.5879 0.5
      vertex 20.5879 21.8581 0.5
    endloop
  endfacet
  facet normal 0 0 1
    outer loop
      vertex 21.8581 20.5879 0.5
      vertex 16.2107 14.1556 0.5
      vertex 21.4722 1.45318 0.5
    endloop
  endfacet
  facet normal 0 0 1
    outer loop
      vertex 22.528 0 0.5
      vertex 25 25 0.5
      vertex 23.4585 21.4034 0.5
    endloop
  endfacet
  facet normal 0 0 1
    outer loop
      vertex 25 25 0.5
      vertex 23.1775 23.1775 0.5
      vertex 23.4585 21.4034 0.5
    endloop
  endfacet
  facet normal 0 0 1
    outer loop
      vertex 25 25 0.5
      vertex 21.4034 23.4585 0.5
      vertex 23.1775 23.1775 0.5
    endloop
  endfacet
  facet normal -0 0 1
    outer loop
      vertex 14.6102 13.3401 0.5
      vertex 19.7638 0.898117 0.5
      vertex 16.2107 14.1556 0.5
    endloop
  endfacet
  facet normal 0 0 1
    outer loop
      vertex 21.4722 1.45318 0.5
      vertex 16.2107 14.1556 0.5
      vertex 19.7638 0.898117 0.5
    endloop
  endfacet
  facet normal 0 0 1
    outer loop
      vertex 1.45318 21.4722 0.5
      vertex 20.5879 21.8581 0.5
      vertex 21.4034 23.4585 0.5
    endloop
  endfacet
  facet normal 0 0 1
    outer loop
      vertex 21.8581 20.5879 0.5
      vertex 15.9297 15.9297 0.5
      vertex 16.2107 14.1556 0.5
    endloop
  endfacet
  facet normal 0 0 1
    outer loop
      vertex 20.5879 21.8581 0.5
      vertex 14.1556 16.2107 0.5
      vertex 15.9297 15.9297 0.5
    endloop
  endfacet
  facet normal -0 0 1
    outer loop
      vertex 0.898117 19.7638 0.5
      vertex 13.3401 14.6102 0.5
      vertex 1.45318 21.4722 0.5
    endloop
  endfacet
  facet normal 0 0 1
    outer loop
      vertex 14.1556 16.2107 0.5
      vertex 1.45318 21.4722 0.5
      vertex 13.3401 14.6102 0.5
    endloop
  endfacet
  facet normal 0 0 1
    outer loop
      vertex 20.5879 21.8581 0.5
      vertex 1.45318 21.4722 0.5
      vertex 14.1556 16.2107 0.5
    endloop
  endfacet
  facet normal 0 0 1
    outer loop
      vertex 0 22.528 0.5
      vertex 21.4034 23.4585 0.5
      vertex 25 25 0.5
    endloop
  endfacet
  facet normal 0 0 1
    outer loop
      vertex 21.4034 23.4585 0.5
      vertex 0 22.528 0.5
      vertex 1.45318 21.4722 0.5
    endloop
  endfacet
  facet normal -0 0 1
    outer loop
      vertex -13.3401 -14.6102 0.5
      vertex -0.898117 -19.7638 0.5
      vertex -13.3401 14.6102 0.5
    endloop
  endfacet
  facet normal 0 0 1
    outer loop
      vertex -21.4034 23.4585 0.5
      vertex -1.45318 21.4722 0.5
      vertex 0 22.528 0.5
    endloop
  endfacet
  facet normal 0 0 1
    outer loop
      vertex -1.45318 21.4722 0.5
      vertex -14.1556 16.2107 0.5
      vertex -13.3401 14.6102 0.5
    endloop
  endfacet
  facet normal 0 0 1
    outer loop
      vertex -1.45318 21.4722 0.5
      vertex -20.5879 21.8581 0.5
      vertex -14.1556 16.2107 0.5
    endloop
  endfacet
  facet normal -0 0 1
    outer loop
      vertex -19.7638 -0.898117 0.5
      vertex -14.6102 -13.3401 0.5
      vertex -19.7638 0.898117 0.5
    endloop
  endfacet
  facet normal -0 0 1
    outer loop
      vertex -21.8581 20.5879 0.5
      vertex -15.9297 15.9297 0.5
      vertex -20.5879 21.8581 0.5
    endloop
  endfacet
  facet normal 0 0 1
    outer loop
      vertex -15.9297 15.9297 0.5
      vertex -21.8581 20.5879 0.5
      vertex -16.2107 14.1556 0.5
    endloop
  endfacet
  facet normal 0 0 1
    outer loop
      vertex -14.1556 16.2107 0.5
      vertex -20.5879 21.8581 0.5
      vertex -15.9297 15.9297 0.5
    endloop
  endfacet
  facet normal -0 0 1
    outer loop
      vertex -25 25 0.5
      vertex 0 22.528 0.5
      vertex 25 25 0.5
    endloop
  endfacet
  facet normal 0 0 1
    outer loop
      vertex -1.45318 21.4722 0.5
      vertex -21.4034 23.4585 0.5
      vertex -20.5879 21.8581 0.5
    endloop
  endfacet
  facet normal 0 0 1
    outer loop
      vertex -25 -25 0.5
      vertex -22.528 0 0.5
      vertex -25 25 0.5
    endloop
  endfacet
  facet normal 0 0 1
    outer loop
      vertex -23.1775 23.1775 0.5
      vertex -25 25 0.5
      vertex -23.4585 21.4034 0.5
    endloop
  endfacet
  facet normal 0 0 1
    outer loop
      vertex -21.4034 23.4585 0.5
      vertex -25 25 0.5
      vertex -23.1775 23.1775 0.5
    endloop
  endfacet
  facet normal 0 0 1
    outer loop
      vertex 0 22.528 0.5
      vertex -25 25 0.5
      vertex -21.4034 23.4585 0.5
    endloop
  endfacet
  facet normal 0 0 1
    outer loop
      vertex 25 25 0.5
      vertex 22.528 0 0.5
      vertex 25 -25 0.5
    endloop
  endfacet
  facet normal -0 0 1
    outer loop
      vertex 23.1775 -23.1775 0.5
      vertex 25 -25 0.5
      vertex 23.4585 -21.4034 0.5
    endloop
  endfacet
  facet normal -0 0 1
    outer loop
      vertex 21.4034 -23.4585 0.5
      vertex 25 -25 0.5
      vertex 23.1775 -23.1775 0.5
    endloop
  endfacet
  facet normal 0 0 1
    outer loop
      vertex 19.7638 0.898117 0.5
      vertex 14.6102 13.3401 0.5
      vertex 19.7638 -0.898117 0.5
    endloop
  endfacet
  facet normal 0 0 1
    outer loop
      vertex 19.7638 -0.898117 0.5
      vertex 16.2107 -14.1556 0.5
      vertex 20.5879 -21.8581 0.5
    endloop
  endfacet
  facet normal -0 0 1
    outer loop
      vertex 15.9297 -15.9297 0.5
      vertex 20.5879 -21.8581 0.5
      vertex 16.2107 -14.1556 0.5
    endloop
  endfacet
  facet normal -0 0 1
    outer loop
      vertex 14.1556 -16.2107 0.5
      vertex 20.5879 -21.8581 0.5
      vertex 15.9297 -15.9297 0.5
    endloop
  endfacet
  facet normal -0 0 1
    outer loop
      vertex 1.45318 -21.4722 0.5
      vertex 20.5879 -21.8581 0.5
      vertex 14.1556 -16.2107 0.5
    endloop
  endfacet
  facet normal 0 0 1
    outer loop
      vertex 13.3401 14.6102 0.5
      vertex 0.898117 19.7638 0.5
      vertex 13.3401 -14.6102 0.5
    endloop
  endfacet
  facet normal 0 0 1
    outer loop
      vertex 1.45318 -21.4722 0.5
      vertex 14.1556 -16.2107 0.5
      vertex 13.3401 -14.6102 0.5
    endloop
  endfacet
  facet normal 0 0 1
    outer loop
      vertex 20.5879 -21.8581 0.5
      vertex 1.45318 -21.4722 0.5
      vertex 21.4034 -23.4585 0.5
    endloop
  endfacet
  facet normal -0 0 1
    outer loop
      vertex 0 -22.528 0.5
      vertex 21.4034 -23.4585 0.5
      vertex 1.45318 -21.4722 0.5
    endloop
  endfacet
  facet normal 0 0 1
    outer loop
      vertex 21.4034 -23.4585 0.5
      vertex 0 -22.528 0.5
      vertex 25 -25 0.5
    endloop
  endfacet
  facet normal 0 0 1
    outer loop
      vertex -0.898117 -19.7638 0.5
      vertex -13.3401 -14.6102 0.5
      vertex -1.45318 -21.4722 0.5
    endloop
  endfacet
  facet normal -0 0 1
    outer loop
      vertex -14.1556 -16.2107 0.5
      vertex -1.45318 -21.4722 0.5
      vertex -13.3401 -14.6102 0.5
    endloop
  endfacet
  facet normal 0 0 1
    outer loop
      vertex -20.5879 -21.8581 0.5
      vertex -1.45318 -21.4722 0.5
      vertex -14.1556 -16.2107 0.5
    endloop
  endfacet
  facet normal 0 0 1
    outer loop
      vertex -20.5879 -21.8581 0.5
      vertex -14.1556 -16.2107 0.5
      vertex -15.9297 -15.9297 0.5
    endloop
  endfacet
  facet normal 0 0 1
    outer loop
      vertex -14.6102 -13.3401 0.5
      vertex -19.7638 -0.898117 0.5
      vertex -16.2107 -14.1556 0.5
    endloop
  endfacet
  facet normal -0 0 1
    outer loop
      vertex -21.4722 -1.45318 0.5
      vertex -16.2107 -14.1556 0.5
      vertex -19.7638 -0.898117 0.5
    endloop
  endfacet
  facet normal 0 0 1
    outer loop
      vertex -16.2107 -14.1556 0.5
      vertex -20.5879 -21.8581 0.5
      vertex -15.9297 -15.9297 0.5
    endloop
  endfacet
  facet normal 0 0 1
    outer loop
      vertex -21.4034 -23.4585 0.5
      vertex -1.45318 -21.4722 0.5
      vertex -20.5879 -21.8581 0.5
    endloop
  endfacet
  facet normal 0 0 1
    outer loop
      vertex -1.45318 -21.4722 0.5
      vertex -21.4034 -23.4585 0.5
      vertex 0 -22.528 0.5
    endloop
  endfacet
  facet normal 0 0 1
    outer loop
      vertex -25 -25 0.5
      vertex 0 -22.528 0.5
      vertex -21.4034 -23.4585 0.5
    endloop
  endfacet
  facet normal 0 0 1
    outer loop
      vertex 0 -22.528 0.5
      vertex -25 -25 0.5
      vertex 25 -25 0.5
    endloop
  endfacet
  facet normal 0 0 1
    outer loop
      vertex -23.1775 -23.1775 0.5
      vertex -25 -25 0.5
      vertex -21.4034 -23.4585 0.5
    endloop
  endfacet
  facet normal 0 0 1
    outer loop
      vertex -23.4585 -21.4034 0.5
      vertex -25 -25 0.5
      vertex -23.1775 -23.1775 0.5
    endloop
  endfacet
  facet normal 0 0 1
    outer loop
      vertex -22.528 0 0.5
      vertex -25 -25 0.5
      vertex -23.4585 -21.4034 0.5
    endloop
  endfacet
  facet normal -0 0 1
    outer loop
      vertex 21.4722 -1.45318 0.5
      vertex 23.4585 -21.4034 0.5
      vertex 22.528 0 0.5
    endloop
  endfacet
  facet normal 0 0 1
    outer loop
      vertex 23.4585 -21.4034 0.5
      vertex 21.4722 -1.45318 0.5
      vertex 21.8581 -20.5879 0.5
    endloop
  endfacet
  facet normal 0 0 1
    outer loop
      vertex 19.7638 -0.898117 0.5
      vertex 21.8581 -20.5879 0.5
      vertex 21.4722 -1.45318 0.5
    endloop
  endfacet
  facet normal 0 0 1
    outer loop
      vertex 21.8581 -20.5879 0.5
      vertex 19.7638 -0.898117 0.5
      vertex 20.5879 -21.8581 0.5
    endloop
  endfacet
  facet normal 0 0 -1
    outer loop
      vertex -21.8581 20.5879 0
      vertex -16.2107 14.1556 0
      vertex -21.4722 1.45318 0
    endloop
  endfacet
  facet normal 0 0 -1
    outer loop
      vertex -16.2107 14.1556 0
      vertex -21.8581 20.5879 0
      vertex -20.5879 21.8581 0
    endloop
  endfacet
  facet normal 0 0 -1
    outer loop
      vertex -23.4585 21.4034 0
      vertex -21.4722 1.45318 0
      vertex -22.528 0 0
    endloop
  endfacet
  facet normal 0 0 -1
    outer loop
      vertex -25 -25 0
      vertex -22.528 0 0
      vertex -23.4585 -21.4034 0
    endloop
  endfacet
  facet normal 0 0 -1
    outer loop
      vertex -21.4722 1.45318 0
      vertex -23.4585 21.4034 0
      vertex -21.8581 20.5879 0
    endloop
  endfacet
  facet normal 0 0 -1
    outer loop
      vertex -14.6102 -13.3401 0
      vertex -13.3401 14.6102 0
      vertex -13.3401 -14.6102 0
    endloop
  endfacet
  facet normal 0 0 -1
    outer loop
      vertex -14.6102 -13.3401 0
      vertex -14.6102 13.3401 0
      vertex -13.3401 14.6102 0
    endloop
  endfacet
  facet normal 0 0 -1
    outer loop
      vertex -19.7638 -0.898117 0
      vertex -14.6102 -13.3401 0
      vertex -16.2107 -14.1556 0
    endloop
  endfacet
  facet normal 0 0 -1
    outer loop
      vertex -14.6102 -13.3401 0
      vertex -19.7638 -0.898117 0
      vertex -14.6102 13.3401 0
    endloop
  endfacet
  facet normal 0 0 -1
    outer loop
      vertex 0.898117 19.7638 0
      vertex 13.3401 14.6102 0
      vertex 0.898117 -19.7638 0
    endloop
  endfacet
  facet normal 0 0 -1
    outer loop
      vertex 13.3401 14.6102 0
      vertex 0.898117 19.7638 0
      vertex 1.45318 21.4722 0
    endloop
  endfacet
  facet normal 0 0 -1
    outer loop
      vertex -0.898117 -19.7638 0
      vertex 0.898117 19.7638 0
      vertex 0.898117 -19.7638 0
    endloop
  endfacet
  facet normal 0 0 -1
    outer loop
      vertex -0.898117 -19.7638 0
      vertex -0.898117 19.7638 0
      vertex 0.898117 19.7638 0
    endloop
  endfacet
  facet normal 0 0 -1
    outer loop
      vertex -13.3401 -14.6102 0
      vertex -0.898117 -19.7638 0
      vertex -1.45318 -21.4722 0
    endloop
  endfacet
  facet normal 0 0 -1
    outer loop
      vertex -0.898117 -19.7638 0
      vertex -13.3401 -14.6102 0
      vertex -0.898117 19.7638 0
    endloop
  endfacet
  facet normal 0 0 -1
    outer loop
      vertex 14.6102 13.3401 0
      vertex 19.7638 0.898117 0
      vertex 14.6102 -13.3401 0
    endloop
  endfacet
  facet normal 0 0 -1
    outer loop
      vertex 19.7638 0.898117 0
      vertex 14.6102 13.3401 0
      vertex 16.2107 14.1556 0
    endloop
  endfacet
  facet normal 0 0 -1
    outer loop
      vertex 13.3401 -14.6102 0
      vertex 14.6102 13.3401 0
      vertex 14.6102 -13.3401 0
    endloop
  endfacet
  facet normal -0 0 -1
    outer loop
      vertex 14.6102 13.3401 0
      vertex 13.3401 -14.6102 0
      vertex 13.3401 14.6102 0
    endloop
  endfacet
  facet normal 0 0 -1
    outer loop
      vertex -16.2107 -14.1556 0
      vertex -21.4722 -1.45318 0
      vertex -19.7638 -0.898117 0
    endloop
  endfacet
  facet normal -0 0 -1
    outer loop
      vertex -16.2107 -14.1556 0
      vertex -21.8581 -20.5879 0
      vertex -21.4722 -1.45318 0
    endloop
  endfacet
  facet normal 0 0 -1
    outer loop
      vertex -23.4585 -21.4034 0
      vertex -21.4722 -1.45318 0
      vertex -21.8581 -20.5879 0
    endloop
  endfacet
  facet normal -0 0 -1
    outer loop
      vertex -21.4722 -1.45318 0
      vertex -23.4585 -21.4034 0
      vertex -22.528 0 0
    endloop
  endfacet
  facet normal 0 0 -1
    outer loop
      vertex 25 25 0
      vertex 22.528 0 0
      vertex 23.4585 21.4034 0
    endloop
  endfacet
  facet normal 0 0 -1
    outer loop
      vertex 21.4722 -1.45318 0
      vertex 23.4585 -21.4034 0
      vertex 21.8581 -20.5879 0
    endloop
  endfacet
  facet normal 0 0 -1
    outer loop
      vertex 23.4585 -21.4034 0
      vertex 21.4722 -1.45318 0
      vertex 22.528 0 0
    endloop
  endfacet
  facet normal 0 0 -1
    outer loop
      vertex 15.9297 -15.9297 0
      vertex 21.8581 -20.5879 0
      vertex 20.5879 -21.8581 0
    endloop
  endfacet
  facet normal 0 0 -1
    outer loop
      vertex 21.8581 -20.5879 0
      vertex 16.2107 -14.1556 0
      vertex 21.4722 -1.45318 0
    endloop
  endfacet
  facet normal 0 0 -1
    outer loop
      vertex 22.528 0 0
      vertex 25 -25 0
      vertex 23.4585 -21.4034 0
    endloop
  endfacet
  facet normal 0 0 -1
    outer loop
      vertex 25 -25 0
      vertex 23.1775 -23.1775 0
      vertex 23.4585 -21.4034 0
    endloop
  endfacet
  facet normal 0 0 -1
    outer loop
      vertex 25 -25 0
      vertex 21.4034 -23.4585 0
      vertex 23.1775 -23.1775 0
    endloop
  endfacet
  facet normal 0 0 -1
    outer loop
      vertex 14.6102 -13.3401 0
      vertex 19.7638 -0.898117 0
      vertex 16.2107 -14.1556 0
    endloop
  endfacet
  facet normal -0 0 -1
    outer loop
      vertex 21.4722 -1.45318 0
      vertex 16.2107 -14.1556 0
      vertex 19.7638 -0.898117 0
    endloop
  endfacet
  facet normal 0 0 -1
    outer loop
      vertex 1.45318 -21.4722 0
      vertex 20.5879 -21.8581 0
      vertex 21.4034 -23.4585 0
    endloop
  endfacet
  facet normal 0 0 -1
    outer loop
      vertex 21.8581 -20.5879 0
      vertex 15.9297 -15.9297 0
      vertex 16.2107 -14.1556 0
    endloop
  endfacet
  facet normal 0 0 -1
    outer loop
      vertex 20.5879 -21.8581 0
      vertex 14.1556 -16.2107 0
      vertex 15.9297 -15.9297 0
    endloop
  endfacet
  facet normal 0 0 -1
    outer loop
      vertex 0.898117 -19.7638 0
      vertex 13.3401 -14.6102 0
      vertex 1.45318 -21.4722 0
    endloop
  endfacet
  facet normal -0 0 -1
    outer loop
      vertex 14.1556 -16.2107 0
      vertex 1.45318 -21.4722 0
      vertex 13.3401 -14.6102 0
    endloop
  endfacet
  facet normal 0 0 -1
    outer loop
      vertex 20.5879 -21.8581 0
      vertex 1.45318 -21.4722 0
      vertex 14.1556 -16.2107 0
    endloop
  endfacet
  facet normal 0 0 -1
    outer loop
      vertex 0 -22.528 0
      vertex 21.4034 -23.4585 0
      vertex 25 -25 0
    endloop
  endfacet
  facet normal 0 0 -1
    outer loop
      vertex 21.4034 -23.4585 0
      vertex 0 -22.528 0
      vertex 1.45318 -21.4722 0
    endloop
  endfacet
  facet normal 0 0 -1
    outer loop
      vertex -13.3401 14.6102 0
      vertex -0.898117 19.7638 0
      vertex -13.3401 -14.6102 0
    endloop
  endfacet
  facet normal 0 0 -1
    outer loop
      vertex -21.4034 -23.4585 0
      vertex -1.45318 -21.4722 0
      vertex 0 -22.528 0
    endloop
  endfacet
  facet normal 0 0 -1
    outer loop
      vertex -1.45318 -21.4722 0
      vertex -14.1556 -16.2107 0
      vertex -13.3401 -14.6102 0
    endloop
  endfacet
  facet normal -0 0 -1
    outer loop
      vertex -1.45318 -21.4722 0
      vertex -20.5879 -21.8581 0
      vertex -14.1556 -16.2107 0
    endloop
  endfacet
  facet normal 0 0 -1
    outer loop
      vertex -19.7638 0.898117 0
      vertex -14.6102 13.3401 0
      vertex -19.7638 -0.898117 0
    endloop
  endfacet
  facet normal 0 0 -1
    outer loop
      vertex -21.8581 -20.5879 0
      vertex -15.9297 -15.9297 0
      vertex -20.5879 -21.8581 0
    endloop
  endfacet
  facet normal -0 0 -1
    outer loop
      vertex -15.9297 -15.9297 0
      vertex -21.8581 -20.5879 0
      vertex -16.2107 -14.1556 0
    endloop
  endfacet
  facet normal -0 0 -1
    outer loop
      vertex -14.1556 -16.2107 0
      vertex -20.5879 -21.8581 0
      vertex -15.9297 -15.9297 0
    endloop
  endfacet
  facet normal 0 0 -1
    outer loop
      vertex -25 -25 0
      vertex 0 -22.528 0
      vertex 25 -25 0
    endloop
  endfacet
  facet normal 0 0 -1
    outer loop
      vertex -1.45318 -21.4722 0
      vertex -21.4034 -23.4585 0
      vertex -20.5879 -21.8581 0
    endloop
  endfacet
  facet normal 0 0 -1
    outer loop
      vertex -25 25 0
      vertex -22.528 0 0
      vertex -25 -25 0
    endloop
  endfacet
  facet normal -0 0 -1
    outer loop
      vertex -23.1775 -23.1775 0
      vertex -25 -25 0
      vertex -23.4585 -21.4034 0
    endloop
  endfacet
  facet normal -0 0 -1
    outer loop
      vertex -21.4034 -23.4585 0
      vertex -25 -25 0
      vertex -23.1775 -23.1775 0
    endloop
  endfacet
  facet normal 0 0 -1
    outer loop
      vertex 0 -22.528 0
      vertex -25 -25 0
      vertex -21.4034 -23.4585 0
    endloop
  endfacet
  facet normal 0 0 -1
    outer loop
      vertex 25 -25 0
      vertex 22.528 0 0
      vertex 25 25 0
    endloop
  endfacet
  facet normal 0 0 -1
    outer loop
      vertex 23.1775 23.1775 0
      vertex 25 25 0
      vertex 23.4585 21.4034 0
    endloop
  endfacet
  facet normal 0 0 -1
    outer loop
      vertex 21.4034 23.4585 0
      vertex 25 25 0
      vertex 23.1775 23.1775 0
    endloop
  endfacet
  facet normal -0 0 -1
    outer loop
      vertex 19.7638 -0.898117 0
      vertex 14.6102 -13.3401 0
      vertex 19.7638 0.898117 0
    endloop
  endfacet
  facet normal 0 0 -1
    outer loop
      vertex 19.7638 0.898117 0
      vertex 16.2107 14.1556 0
      vertex 20.5879 21.8581 0
    endloop
  endfacet
  facet normal 0 0 -1
    outer loop
      vertex 15.9297 15.9297 0
      vertex 20.5879 21.8581 0
      vertex 16.2107 14.1556 0
    endloop
  endfacet
  facet normal 0 0 -1
    outer loop
      vertex 14.1556 16.2107 0
      vertex 20.5879 21.8581 0
      vertex 15.9297 15.9297 0
    endloop
  endfacet
  facet normal 0 0 -1
    outer loop
      vertex 1.45318 21.4722 0
      vertex 20.5879 21.8581 0
      vertex 14.1556 16.2107 0
    endloop
  endfacet
  facet normal -0 0 -1
    outer loop
      vertex 13.3401 -14.6102 0
      vertex 0.898117 -19.7638 0
      vertex 13.3401 14.6102 0
    endloop
  endfacet
  facet normal 0 0 -1
    outer loop
      vertex 1.45318 21.4722 0
      vertex 14.1556 16.2107 0
      vertex 13.3401 14.6102 0
    endloop
  endfacet
  facet normal -0 0 -1
    outer loop
      vertex 20.5879 21.8581 0
      vertex 1.45318 21.4722 0
      vertex 21.4034 23.4585 0
    endloop
  endfacet
  facet normal 0 0 -1
    outer loop
      vertex 0 22.528 0
      vertex 21.4034 23.4585 0
      vertex 1.45318 21.4722 0
    endloop
  endfacet
  facet normal -0 0 -1
    outer loop
      vertex 21.4034 23.4585 0
      vertex 0 22.528 0
      vertex 25 25 0
    endloop
  endfacet
  facet normal -0 0 -1
    outer loop
      vertex -0.898117 19.7638 0
      vertex -13.3401 14.6102 0
      vertex -1.45318 21.4722 0
    endloop
  endfacet
  facet normal 0 0 -1
    outer loop
      vertex -14.1556 16.2107 0
      vertex -1.45318 21.4722 0
      vertex -13.3401 14.6102 0
    endloop
  endfacet
  facet normal 0 0 -1
    outer loop
      vertex -20.5879 21.8581 0
      vertex -1.45318 21.4722 0
      vertex -14.1556 16.2107 0
    endloop
  endfacet
  facet normal 0 0 -1
    outer loop
      vertex -20.5879 21.8581 0
      vertex -14.1556 16.2107 0
      vertex -15.9297 15.9297 0
    endloop
  endfacet
  facet normal -0 0 -1
    outer loop
      vertex -14.6102 13.3401 0
      vertex -19.7638 0.898117 0
      vertex -16.2107 14.1556 0
    endloop
  endfacet
  facet normal 0 0 -1
    outer loop
      vertex -21.4722 1.45318 0
      vertex -16.2107 14.1556 0
      vertex -19.7638 0.898117 0
    endloop
  endfacet
  facet normal 0 0 -1
    outer loop
      vertex -16.2107 14.1556 0
      vertex -20.5879 21.8581 0
      vertex -15.9297 15.9297 0
    endloop
  endfacet
  facet normal 0 0 -1
    outer loop
      vertex -21.4034 23.4585 0
      vertex -1.45318 21.4722 0
      vertex -20.5879 21.8581 0
    endloop
  endfacet
  facet normal 0 0 -1
    outer loop
      vertex -1.45318 21.4722 0
      vertex -21.4034 23.4585 0
      vertex 0 22.528 0
    endloop
  endfacet
  facet normal 0 0 -1
    outer loop
      vertex -25 25 0
      vertex 0 22.528 0
      vertex -21.4034 23.4585 0
    endloop
  endfacet
  facet normal 0 0 -1
    outer loop
      vertex 0 22.528 0
      vertex -25 25 0
      vertex 25 25 0
    endloop
  endfacet
  facet normal 0 0 -1
    outer loop
      vertex -23.1775 23.1775 0
      vertex -25 25 0
      vertex -21.4034 23.4585 0
    endloop
  endfacet
  facet normal 0 0 -1
    outer loop
      vertex -23.4585 21.4034 0
      vertex -25 25 0
      vertex -23.1775 23.1775 0
    endloop
  endfacet
  facet normal 0 0 -1
    outer loop
      vertex -22.528 0 0
      vertex -25 25 0
      vertex -23.4585 21.4034 0
    endloop
  endfacet
  facet normal 0 0 -1
    outer loop
      vertex 21.4722 1.45318 0
      vertex 23.4585 21.4034 0
      vertex 22.528 0 0
    endloop
  endfacet
  facet normal 0 0 -1
    outer loop
      vertex 23.4585 21.4034 0
      vertex 21.4722 1.45318 0
      vertex 21.8581 20.5879 0
    endloop
  endfacet
  facet normal 0 0 -1
    outer loop
      vertex 19.7638 0.898117 0
      vertex 21.8581 20.5879 0
      vertex 21.4722 1.45318 0
    endloop
  endfacet
  facet normal -0 0 -1
    outer loop
      vertex 21.8581 20.5879 0
      vertex 19.7638 0.898117 0
      vertex 20.5879 21.8581 0
    endloop
  endfacet
  facet normal -1 0 0
    outer loop
      vertex -25 -25 0
      vertex -25 25 0.5
      vertex -25 25 0
    endloop
  endfacet
  facet normal -1 -0 0
    outer loop
      vertex -25 25 0.5
      vertex -25 -25 0
      vertex -25 -25 0.5
    endloop
  endfacet
  facet normal 0 1 -0
    outer loop
      vertex 25 25 0
      vertex -25 25 0.5
      vertex 25 25 0.5
    endloop
  endfacet
  facet normal 0 1 0
    outer loop
      vertex -25 25 0.5
      vertex 25 25 0
      vertex -25 25 0
    endloop
  endfacet
  facet normal 0 -1 0
    outer loop
      vertex -25 -25 0
      vertex 25 -25 0.5
      vertex -25 -25 0.5
    endloop
  endfacet
  facet normal 0 -1 -0
    outer loop
      vertex 25 -25 0.5
      vertex -25 -25 0
      vertex 25 -25 0
    endloop
  endfacet
endsolid OpenSCAD_Model
