solid OpenSCAD_Model
  facet normal -0.45401 0.890996 0
    outer loop
      vertex 23.3348 21.4665 0
      vertex 21.8798 20.7251 0.5
      vertex 23.3348 21.4665 0.5
    endloop
  endfacet
  facet normal -0.45401 0.890996 0
    outer loop
      vertex 21.8798 20.7251 0.5
      vertex 23.3348 21.4665 0
      vertex 21.8798 20.7251 0
    endloop
  endfacet
  facet normal 0.890996 -0.45401 0
    outer loop
      vertex 20.7251 21.8798 0.5
      vertex 21.4665 23.3348 0
      vertex 21.4665 23.3348 0.5
    endloop
  endfacet
  facet normal 0.890996 -0.45401 0
    outer loop
      vertex 21.4665 23.3348 0
      vertex 20.7251 21.8798 0.5
      vertex 20.7251 21.8798 0
    endloop
  endfacet
  facet normal -0.156469 -0.987683 0
    outer loop
      vertex 21.4665 23.3348 0
      vertex 23.0793 23.0793 0.5
      vertex 21.4665 23.3348 0.5
    endloop
  endfacet
  facet normal -0.156469 -0.987683 -0
    outer loop
      vertex 23.0793 23.0793 0.5
      vertex 21.4665 23.3348 0
      vertex 23.0793 23.0793 0
    endloop
  endfacet
  facet normal 0.707107 0.707107 0
    outer loop
      vertex 21.8798 20.7251 0.5
      vertex 20.7251 21.8798 0
      vertex 20.7251 21.8798 0.5
    endloop
  endfacet
  facet normal 0.707107 0.707107 0
    outer loop
      vertex 20.7251 21.8798 0
      vertex 21.8798 20.7251 0.5
      vertex 21.8798 20.7251 0
    endloop
  endfacet
  facet normal -0.987683 -0.156469 0
    outer loop
      vertex 23.3348 21.4665 0
      vertex 23.0793 23.0793 0.5
      vertex 23.0793 23.0793 0
    endloop
  endfacet
  facet normal -0.987683 -0.156469 0
    outer loop
      vertex 23.0793 23.0793 0.5
      vertex 23.3348 21.4665 0
      vertex 23.3348 21.4665 0.5
    endloop
  endfacet
  facet normal 0.987683 -0.156469 0
    outer loop
      vertex -23.3348 21.4665 0.5
      vertex -23.0793 23.0793 0
      vertex -23.0793 23.0793 0.5
    endloop
  endfacet
  facet normal 0.987683 -0.156469 0
    outer loop
      vertex -23.0793 23.0793 0
      vertex -23.3348 21.4665 0.5
      vertex -23.3348 21.4665 0
    endloop
  endfacet
  facet normal -0.707107 0.707107 0
    outer loop
      vertex -21.8798 20.7251 0
      vertex -20.7251 21.8798 0.5
      vertex -20.7251 21.8798 0
    endloop
  endfacet
  facet normal -0.707107 0.707107 0
    outer loop
      vertex -20.7251 21.8798 0.5
      vertex -21.8798 20.7251 0
      vertex -21.8798 20.7251 0.5
    endloop
  endfacet
  facet normal -0.890996 -0.45401 0
    outer loop
      vertex -20.7251 21.8798 0
      vertex -21.4665 23.3348 0.5
      vertex -21.4665 23.3348 0
    endloop
  endfacet
  facet normal -0.890996 -0.45401 0
    outer loop
      vertex -21.4665 23.3348 0.5
      vertex -20.7251 21.8798 0
      vertex -20.7251 21.8798 0.5
    endloop
  endfacet
  facet normal 0.45401 0.890996 -0
    outer loop
      vertex -21.8798 20.7251 0
      vertex -23.3348 21.4665 0.5
      vertex -21.8798 20.7251 0.5
    endloop
  endfacet
  facet normal 0.45401 0.890996 0
    outer loop
      vertex -23.3348 21.4665 0.5
      vertex -21.8798 20.7251 0
      vertex -23.3348 21.4665 0
    endloop
  endfacet
  facet normal 0.156469 -0.987683 0
    outer loop
      vertex -23.0793 23.0793 0
      vertex -21.4665 23.3348 0.5
      vertex -23.0793 23.0793 0.5
    endloop
  endfacet
  facet normal 0.156469 -0.987683 0
    outer loop
      vertex -21.4665 23.3348 0.5
      vertex -23.0793 23.0793 0
      vertex -21.4665 23.3348 0
    endloop
  endfacet
  facet normal 0.156469 0.987683 -0
    outer loop
      vertex -21.4665 -23.3348 0
      vertex -23.0793 -23.0793 0.5
      vertex -21.4665 -23.3348 0.5
    endloop
  endfacet
  facet normal 0.156469 0.987683 0
    outer loop
      vertex -23.0793 -23.0793 0.5
      vertex -21.4665 -23.3348 0
      vertex -23.0793 -23.0793 0
    endloop
  endfacet
  facet normal -0.707107 -0.707107 0
    outer loop
      vertex -20.7251 -21.8798 0
      vertex -21.8798 -20.7251 0.5
      vertex -21.8798 -20.7251 0
    endloop
  endfacet
  facet normal -0.707107 -0.707107 0
    outer loop
      vertex -21.8798 -20.7251 0.5
      vertex -20.7251 -21.8798 0
      vertex -20.7251 -21.8798 0.5
    endloop
  endfacet
  facet normal 0.45401 -0.890996 0
    outer loop
      vertex -23.3348 -21.4665 0
      vertex -21.8798 -20.7251 0.5
      vertex -23.3348 -21.4665 0.5
    endloop
  endfacet
  facet normal 0.45401 -0.890996 0
    outer loop
      vertex -21.8798 -20.7251 0.5
      vertex -23.3348 -21.4665 0
      vertex -21.8798 -20.7251 0
    endloop
  endfacet
  facet normal 0.987683 0.156469 0
    outer loop
      vertex -23.0793 -23.0793 0.5
      vertex -23.3348 -21.4665 0
      vertex -23.3348 -21.4665 0.5
    endloop
  endfacet
  facet normal 0.987683 0.156469 0
    outer loop
      vertex -23.3348 -21.4665 0
      vertex -23.0793 -23.0793 0.5
      vertex -23.0793 -23.0793 0
    endloop
  endfacet
  facet normal -0.890996 0.45401 0
    outer loop
      vertex -21.4665 -23.3348 0
      vertex -20.7251 -21.8798 0.5
      vertex -20.7251 -21.8798 0
    endloop
  endfacet
  facet normal -0.890996 0.45401 0
    outer loop
      vertex -20.7251 -21.8798 0.5
      vertex -21.4665 -23.3348 0
      vertex -21.4665 -23.3348 0.5
    endloop
  endfacet
  facet normal -0.987683 0.156469 0
    outer loop
      vertex 23.0793 -23.0793 0
      vertex 23.3348 -21.4665 0.5
      vertex 23.3348 -21.4665 0
    endloop
  endfacet
  facet normal -0.987683 0.156469 0
    outer loop
      vertex 23.3348 -21.4665 0.5
      vertex 23.0793 -23.0793 0
      vertex 23.0793 -23.0793 0.5
    endloop
  endfacet
  facet normal 0.890996 0.45401 0
    outer loop
      vertex 21.4665 -23.3348 0.5
      vertex 20.7251 -21.8798 0
      vertex 20.7251 -21.8798 0.5
    endloop
  endfacet
  facet normal 0.890996 0.45401 0
    outer loop
      vertex 20.7251 -21.8798 0
      vertex 21.4665 -23.3348 0.5
      vertex 21.4665 -23.3348 0
    endloop
  endfacet
  facet normal -0.45401 -0.890996 0
    outer loop
      vertex 21.8798 -20.7251 0
      vertex 23.3348 -21.4665 0.5
      vertex 21.8798 -20.7251 0.5
    endloop
  endfacet
  facet normal -0.45401 -0.890996 -0
    outer loop
      vertex 23.3348 -21.4665 0.5
      vertex 21.8798 -20.7251 0
      vertex 23.3348 -21.4665 0
    endloop
  endfacet
  facet normal 0.707107 -0.707107 0
    outer loop
      vertex 20.7251 -21.8798 0.5
      vertex 21.8798 -20.7251 0
      vertex 21.8798 -20.7251 0.5
    endloop
  endfacet
  facet normal 0.707107 -0.707107 0
    outer loop
      vertex 21.8798 -20.7251 0
      vertex 20.7251 -21.8798 0.5
      vertex 20.7251 -21.8798 0
    endloop
  endfacet
  facet normal -0.156469 0.987683 0
    outer loop
      vertex 23.0793 -23.0793 0
      vertex 21.4665 -23.3348 0.5
      vertex 23.0793 -23.0793 0.5
    endloop
  endfacet
  facet normal -0.156469 0.987683 0
    outer loop
      vertex 21.4665 -23.3348 0.5
      vertex 23.0793 -23.0793 0
      vertex 21.4665 -23.3348 0
    endloop
  endfacet
  facet normal 0.309022 0.951055 -0
    outer loop
      vertex 21.4292 -1.32108 0
      vertex 19.8762 -0.81647 0.5
      vertex 21.4292 -1.32108 0.5
    endloop
  endfacet
  facet normal 0.309022 0.951055 0
    outer loop
      vertex 19.8762 -0.81647 0.5
      vertex 21.4292 -1.32108 0
      vertex 19.8762 -0.81647 0
    endloop
  endfacet
  facet normal 0.309022 -0.951055 0
    outer loop
      vertex 19.8762 0.81647 0
      vertex 21.4292 1.32108 0.5
      vertex 19.8762 0.81647 0.5
    endloop
  endfacet
  facet normal 0.309022 -0.951055 0
    outer loop
      vertex 21.4292 1.32108 0.5
      vertex 19.8762 0.81647 0
      vertex 21.4292 1.32108 0
    endloop
  endfacet
  facet normal -0.808994 -0.587817 0
    outer loop
      vertex 22.3891 0 0
      vertex 21.4292 1.32108 0.5
      vertex 21.4292 1.32108 0
    endloop
  endfacet
  facet normal -0.808994 -0.587817 0
    outer loop
      vertex 21.4292 1.32108 0.5
      vertex 22.3891 0 0
      vertex 22.3891 0 0.5
    endloop
  endfacet
  facet normal 1 -0 0
    outer loop
      vertex 19.8762 -0.81647 0.5
      vertex 19.8762 0.81647 0
      vertex 19.8762 0.81647 0.5
    endloop
  endfacet
  facet normal 1 0 0
    outer loop
      vertex 19.8762 0.81647 0
      vertex 19.8762 -0.81647 0.5
      vertex 19.8762 -0.81647 0
    endloop
  endfacet
  facet normal -0.808994 0.587817 0
    outer loop
      vertex 21.4292 -1.32108 0
      vertex 22.3891 0 0.5
      vertex 22.3891 0 0
    endloop
  endfacet
  facet normal -0.808994 0.587817 0
    outer loop
      vertex 22.3891 0 0.5
      vertex 21.4292 -1.32108 0
      vertex 21.4292 -1.32108 0.5
    endloop
  endfacet
  facet normal -0.453962 0.891021 0
    outer loop
      vertex 16.0869 14.2186 0
      vertex 14.6319 13.4773 0.5
      vertex 16.0869 14.2186 0.5
    endloop
  endfacet
  facet normal -0.453962 0.891021 0
    outer loop
      vertex 14.6319 13.4773 0.5
      vertex 16.0869 14.2186 0
      vertex 14.6319 13.4773 0
    endloop
  endfacet
  facet normal 0.891021 -0.453962 0
    outer loop
      vertex 13.4773 14.6319 0.5
      vertex 14.2186 16.0869 0
      vertex 14.2186 16.0869 0.5
    endloop
  endfacet
  facet normal 0.891021 -0.453962 0
    outer loop
      vertex 14.2186 16.0869 0
      vertex 13.4773 14.6319 0.5
      vertex 13.4773 14.6319 0
    endloop
  endfacet
  facet normal -0.1564 -0.987694 0
    outer loop
      vertex 14.2186 16.0869 0
      vertex 15.8315 15.8315 0.5
      vertex 14.2186 16.0869 0.5
    endloop
  endfacet
  facet normal -0.1564 -0.987694 -0
    outer loop
      vertex 15.8315 15.8315 0.5
      vertex 14.2186 16.0869 0
      vertex 15.8315 15.8315 0
    endloop
  endfacet
  facet normal 0.707107 0.707107 0
    outer loop
      vertex 14.6319 13.4773 0.5
      vertex 13.4773 14.6319 0
      vertex 13.4773 14.6319 0.5
    endloop
  endfacet
  facet normal 0.707107 0.707107 0
    outer loop
      vertex 13.4773 14.6319 0
      vertex 14.6319 13.4773 0.5
      vertex 14.6319 13.4773 0
    endloop
  endfacet
  facet normal -0.987694 -0.1564 0
    outer loop
      vertex 16.0869 14.2186 0
      vertex 15.8315 15.8315 0.5
      vertex 15.8315 15.8315 0
    endloop
  endfacet
  facet normal -0.987694 -0.1564 0
    outer loop
      vertex 15.8315 15.8315 0.5
      vertex 16.0869 14.2186 0
      vertex 16.0869 14.2186 0.5
    endloop
  endfacet
  facet normal -0.951055 0.309022 0
    outer loop
      vertex 0.81647 19.8762 0
      vertex 1.32108 21.4292 0.5
      vertex 1.32108 21.4292 0
    endloop
  endfacet
  facet normal -0.951055 0.309022 0
    outer loop
      vertex 1.32108 21.4292 0.5
      vertex 0.81647 19.8762 0
      vertex 0.81647 19.8762 0.5
    endloop
  endfacet
  facet normal 0.951055 0.309022 0
    outer loop
      vertex -0.81647 19.8762 0.5
      vertex -1.32108 21.4292 0
      vertex -1.32108 21.4292 0.5
    endloop
  endfacet
  facet normal 0.951055 0.309022 0
    outer loop
      vertex -1.32108 21.4292 0
      vertex -0.81647 19.8762 0.5
      vertex -0.81647 19.8762 0
    endloop
  endfacet
  facet normal 0.587817 -0.808994 0
    outer loop
      vertex -1.32108 21.4292 0
      vertex 0 22.3891 0.5
      vertex -1.32108 21.4292 0.5
    endloop
  endfacet
  facet normal 0.587817 -0.808994 0
    outer loop
      vertex 0 22.3891 0.5
      vertex -1.32108 21.4292 0
      vertex 0 22.3891 0
    endloop
  endfacet
  facet normal 0 1 -0
    outer loop
      vertex 0.81647 19.8762 0
      vertex -0.81647 19.8762 0.5
      vertex 0.81647 19.8762 0.5
    endloop
  endfacet
  facet normal 0 1 0
    outer loop
      vertex -0.81647 19.8762 0.5
      vertex 0.81647 19.8762 0
      vertex -0.81647 19.8762 0
    endloop
  endfacet
  facet normal -0.587817 -0.808994 0
    outer loop
      vertex 0 22.3891 0
      vertex 1.32108 21.4292 0.5
      vertex 0 22.3891 0.5
    endloop
  endfacet
  facet normal -0.587817 -0.808994 -0
    outer loop
      vertex 1.32108 21.4292 0.5
      vertex 0 22.3891 0
      vertex 1.32108 21.4292 0
    endloop
  endfacet
  facet normal 0.453962 0.891021 -0
    outer loop
      vertex -14.6319 13.4773 0
      vertex -16.0869 14.2186 0.5
      vertex -14.6319 13.4773 0.5
    endloop
  endfacet
  facet normal 0.453962 0.891021 0
    outer loop
      vertex -16.0869 14.2186 0.5
      vertex -14.6319 13.4773 0
      vertex -16.0869 14.2186 0
    endloop
  endfacet
  facet normal 0.987694 -0.1564 0
    outer loop
      vertex -16.0869 14.2186 0.5
      vertex -15.8315 15.8315 0
      vertex -15.8315 15.8315 0.5
    endloop
  endfacet
  facet normal 0.987694 -0.1564 0
    outer loop
      vertex -15.8315 15.8315 0
      vertex -16.0869 14.2186 0.5
      vertex -16.0869 14.2186 0
    endloop
  endfacet
  facet normal -0.707107 0.707107 0
    outer loop
      vertex -14.6319 13.4773 0
      vertex -13.4773 14.6319 0.5
      vertex -13.4773 14.6319 0
    endloop
  endfacet
  facet normal -0.707107 0.707107 0
    outer loop
      vertex -13.4773 14.6319 0.5
      vertex -14.6319 13.4773 0
      vertex -14.6319 13.4773 0.5
    endloop
  endfacet
  facet normal -0.891021 -0.453962 0
    outer loop
      vertex -13.4773 14.6319 0
      vertex -14.2186 16.0869 0.5
      vertex -14.2186 16.0869 0
    endloop
  endfacet
  facet normal -0.891021 -0.453962 0
    outer loop
      vertex -14.2186 16.0869 0.5
      vertex -13.4773 14.6319 0
      vertex -13.4773 14.6319 0.5
    endloop
  endfacet
  facet normal 0.1564 -0.987694 0
    outer loop
      vertex -15.8315 15.8315 0
      vertex -14.2186 16.0869 0.5
      vertex -15.8315 15.8315 0.5
    endloop
  endfacet
  facet normal 0.1564 -0.987694 0
    outer loop
      vertex -14.2186 16.0869 0.5
      vertex -15.8315 15.8315 0
      vertex -14.2186 16.0869 0
    endloop
  endfacet
  facet normal 0.808994 0.587817 0
    outer loop
      vertex -21.4292 -1.32108 0.5
      vertex -22.3891 0 0
      vertex -22.3891 0 0.5
    endloop
  endfacet
  facet normal 0.808994 0.587817 0
    outer loop
      vertex -22.3891 0 0
      vertex -21.4292 -1.32108 0.5
      vertex -21.4292 -1.32108 0
    endloop
  endfacet
  facet normal -0.309022 0.951055 0
    outer loop
      vertex -19.8762 -0.81647 0
      vertex -21.4292 -1.32108 0.5
      vertex -19.8762 -0.81647 0.5
    endloop
  endfacet
  facet normal -0.309022 0.951055 0
    outer loop
      vertex -21.4292 -1.32108 0.5
      vertex -19.8762 -0.81647 0
      vertex -21.4292 -1.32108 0
    endloop
  endfacet
  facet normal -1 0 0
    outer loop
      vertex -19.8762 -0.81647 0
      vertex -19.8762 0.81647 0.5
      vertex -19.8762 0.81647 0
    endloop
  endfacet
  facet normal -1 -0 0
    outer loop
      vertex -19.8762 0.81647 0.5
      vertex -19.8762 -0.81647 0
      vertex -19.8762 -0.81647 0.5
    endloop
  endfacet
  facet normal -0.309022 -0.951055 0
    outer loop
      vertex -21.4292 1.32108 0
      vertex -19.8762 0.81647 0.5
      vertex -21.4292 1.32108 0.5
    endloop
  endfacet
  facet normal -0.309022 -0.951055 -0
    outer loop
      vertex -19.8762 0.81647 0.5
      vertex -21.4292 1.32108 0
      vertex -19.8762 0.81647 0
    endloop
  endfacet
  facet normal 0.808994 -0.587817 0
    outer loop
      vertex -22.3891 0 0.5
      vertex -21.4292 1.32108 0
      vertex -21.4292 1.32108 0.5
    endloop
  endfacet
  facet normal 0.808994 -0.587817 0
    outer loop
      vertex -21.4292 1.32108 0
      vertex -22.3891 0 0.5
      vertex -22.3891 0 0
    endloop
  endfacet
  facet normal 0.1564 0.987694 -0
    outer loop
      vertex -14.2186 -16.0869 0
      vertex -15.8315 -15.8315 0.5
      vertex -14.2186 -16.0869 0.5
    endloop
  endfacet
  facet normal 0.1564 0.987694 0
    outer loop
      vertex -15.8315 -15.8315 0.5
      vertex -14.2186 -16.0869 0
      vertex -15.8315 -15.8315 0
    endloop
  endfacet
  facet normal -0.707107 -0.707107 0
    outer loop
      vertex -13.4773 -14.6319 0
      vertex -14.6319 -13.4773 0.5
      vertex -14.6319 -13.4773 0
    endloop
  endfacet
  facet normal -0.707107 -0.707107 0
    outer loop
      vertex -14.6319 -13.4773 0.5
      vertex -13.4773 -14.6319 0
      vertex -13.4773 -14.6319 0.5
    endloop
  endfacet
  facet normal 0.453962 -0.891021 0
    outer loop
      vertex -16.0869 -14.2186 0
      vertex -14.6319 -13.4773 0.5
      vertex -16.0869 -14.2186 0.5
    endloop
  endfacet
  facet normal 0.453962 -0.891021 0
    outer loop
      vertex -14.6319 -13.4773 0.5
      vertex -16.0869 -14.2186 0
      vertex -14.6319 -13.4773 0
    endloop
  endfacet
  facet normal 0.987694 0.1564 0
    outer loop
      vertex -15.8315 -15.8315 0.5
      vertex -16.0869 -14.2186 0
      vertex -16.0869 -14.2186 0.5
    endloop
  endfacet
  facet normal 0.987694 0.1564 0
    outer loop
      vertex -16.0869 -14.2186 0
      vertex -15.8315 -15.8315 0.5
      vertex -15.8315 -15.8315 0
    endloop
  endfacet
  facet normal -0.891021 0.453962 0
    outer loop
      vertex -14.2186 -16.0869 0
      vertex -13.4773 -14.6319 0.5
      vertex -13.4773 -14.6319 0
    endloop
  endfacet
  facet normal -0.891021 0.453962 0
    outer loop
      vertex -13.4773 -14.6319 0.5
      vertex -14.2186 -16.0869 0
      vertex -14.2186 -16.0869 0.5
    endloop
  endfacet
  facet normal -0.587817 0.808994 0
    outer loop
      vertex 1.32108 -21.4292 0
      vertex 0 -22.3891 0.5
      vertex 1.32108 -21.4292 0.5
    endloop
  endfacet
  facet normal -0.587817 0.808994 0
    outer loop
      vertex 0 -22.3891 0.5
      vertex 1.32108 -21.4292 0
      vertex 0 -22.3891 0
    endloop
  endfacet
  facet normal -0.951055 -0.309022 0
    outer loop
      vertex 1.32108 -21.4292 0
      vertex 0.81647 -19.8762 0.5
      vertex 0.81647 -19.8762 0
    endloop
  endfacet
  facet normal -0.951055 -0.309022 0
    outer loop
      vertex 0.81647 -19.8762 0.5
      vertex 1.32108 -21.4292 0
      vertex 1.32108 -21.4292 0.5
    endloop
  endfacet
  facet normal 0 -1 0
    outer loop
      vertex -0.81647 -19.8762 0
      vertex 0.81647 -19.8762 0.5
      vertex -0.81647 -19.8762 0.5
    endloop
  endfacet
  facet normal 0 -1 -0
    outer loop
      vertex 0.81647 -19.8762 0.5
      vertex -0.81647 -19.8762 0
      vertex 0.81647 -19.8762 0
    endloop
  endfacet
  facet normal 0.951055 -0.309022 0
    outer loop
      vertex -1.32108 -21.4292 0.5
      vertex -0.81647 -19.8762 0
      vertex -0.81647 -19.8762 0.5
    endloop
  endfacet
  facet normal 0.951055 -0.309022 0
    outer loop
      vertex -0.81647 -19.8762 0
      vertex -1.32108 -21.4292 0.5
      vertex -1.32108 -21.4292 0
    endloop
  endfacet
  facet normal 0.587817 0.808994 -0
    outer loop
      vertex 0 -22.3891 0
      vertex -1.32108 -21.4292 0.5
      vertex 0 -22.3891 0.5
    endloop
  endfacet
  facet normal 0.587817 0.808994 0
    outer loop
      vertex -1.32108 -21.4292 0.5
      vertex 0 -22.3891 0
      vertex -1.32108 -21.4292 0
    endloop
  endfacet
  facet normal -0.987694 0.1564 0
    outer loop
      vertex 15.8315 -15.8315 0
      vertex 16.0869 -14.2186 0.5
      vertex 16.0869 -14.2186 0
    endloop
  endfacet
  facet normal -0.987694 0.1564 0
    outer loop
      vertex 16.0869 -14.2186 0.5
      vertex 15.8315 -15.8315 0
      vertex 15.8315 -15.8315 0.5
    endloop
  endfacet
  facet normal 0.891021 0.453962 0
    outer loop
      vertex 14.2186 -16.0869 0.5
      vertex 13.4773 -14.6319 0
      vertex 13.4773 -14.6319 0.5
    endloop
  endfacet
  facet normal 0.891021 0.453962 0
    outer loop
      vertex 13.4773 -14.6319 0
      vertex 14.2186 -16.0869 0.5
      vertex 14.2186 -16.0869 0
    endloop
  endfacet
  facet normal -0.453962 -0.891021 0
    outer loop
      vertex 14.6319 -13.4773 0
      vertex 16.0869 -14.2186 0.5
      vertex 14.6319 -13.4773 0.5
    endloop
  endfacet
  facet normal -0.453962 -0.891021 -0
    outer loop
      vertex 16.0869 -14.2186 0.5
      vertex 14.6319 -13.4773 0
      vertex 16.0869 -14.2186 0
    endloop
  endfacet
  facet normal 0.707107 -0.707107 0
    outer loop
      vertex 13.4773 -14.6319 0.5
      vertex 14.6319 -13.4773 0
      vertex 14.6319 -13.4773 0.5
    endloop
  endfacet
  facet normal 0.707107 -0.707107 0
    outer loop
      vertex 14.6319 -13.4773 0
      vertex 13.4773 -14.6319 0.5
      vertex 13.4773 -14.6319 0
    endloop
  endfacet
  facet normal -0.1564 0.987694 0
    outer loop
      vertex 15.8315 -15.8315 0
      vertex 14.2186 -16.0869 0.5
      vertex 15.8315 -15.8315 0.5
    endloop
  endfacet
  facet normal -0.1564 0.987694 0
    outer loop
      vertex 14.2186 -16.0869 0.5
      vertex 15.8315 -15.8315 0
      vertex 14.2186 -16.0869 0
    endloop
  endfacet
  facet normal 1 -0 0
    outer loop
      vertex 25 -25 0.5
      vertex 25 25 0
      vertex 25 25 0.5
    endloop
  endfacet
  facet normal 1 0 0
    outer loop
      vertex 25 25 0
      vertex 25 -25 0.5
      vertex 25 -25 0
    endloop
  endfacet
  facet normal 0 0 1
    outer loop
      vertex -21.8798 -20.7251 0.5
      vertex -16.0869 -14.2186 0.5
      vertex -21.4292 -1.32108 0.5
    endloop
  endfacet
  facet normal 0 0 1
    outer loop
      vertex -16.0869 -14.2186 0.5
      vertex -21.8798 -20.7251 0.5
      vertex -20.7251 -21.8798 0.5
    endloop
  endfacet
  facet normal 0 0 1
    outer loop
      vertex -23.3348 -21.4665 0.5
      vertex -21.4292 -1.32108 0.5
      vertex -22.3891 0 0.5
    endloop
  endfacet
  facet normal 0 0 1
    outer loop
      vertex -25 25 0.5
      vertex -22.3891 0 0.5
      vertex -23.3348 21.4665 0.5
    endloop
  endfacet
  facet normal 0 0 1
    outer loop
      vertex -21.4292 -1.32108 0.5
      vertex -23.3348 -21.4665 0.5
      vertex -21.8798 -20.7251 0.5
    endloop
  endfacet
  facet normal -0 0 1
    outer loop
      vertex -14.6319 13.4773 0.5
      vertex -13.4773 -14.6319 0.5
      vertex -13.4773 14.6319 0.5
    endloop
  endfacet
  facet normal 0 0 1
    outer loop
      vertex -14.6319 13.4773 0.5
      vertex -14.6319 -13.4773 0.5
      vertex -13.4773 -14.6319 0.5
    endloop
  endfacet
  facet normal 0 0 1
    outer loop
      vertex -19.8762 0.81647 0.5
      vertex -14.6319 13.4773 0.5
      vertex -16.0869 14.2186 0.5
    endloop
  endfacet
  facet normal 0 0 1
    outer loop
      vertex -14.6319 13.4773 0.5
      vertex -19.8762 0.81647 0.5
      vertex -14.6319 -13.4773 0.5
    endloop
  endfacet
  facet normal 0 0 1
    outer loop
      vertex 0.81647 -19.8762 0.5
      vertex 13.4773 -14.6319 0.5
      vertex 0.81647 19.8762 0.5
    endloop
  endfacet
  facet normal 0 0 1
    outer loop
      vertex 13.4773 -14.6319 0.5
      vertex 0.81647 -19.8762 0.5
      vertex 1.32108 -21.4292 0.5
    endloop
  endfacet
  facet normal -0 0 1
    outer loop
      vertex -0.81647 19.8762 0.5
      vertex 0.81647 -19.8762 0.5
      vertex 0.81647 19.8762 0.5
    endloop
  endfacet
  facet normal 0 0 1
    outer loop
      vertex -0.81647 19.8762 0.5
      vertex -0.81647 -19.8762 0.5
      vertex 0.81647 -19.8762 0.5
    endloop
  endfacet
  facet normal 0 0 1
    outer loop
      vertex -13.4773 14.6319 0.5
      vertex -0.81647 19.8762 0.5
      vertex -1.32108 21.4292 0.5
    endloop
  endfacet
  facet normal 0 0 1
    outer loop
      vertex -0.81647 19.8762 0.5
      vertex -13.4773 14.6319 0.5
      vertex -0.81647 -19.8762 0.5
    endloop
  endfacet
  facet normal 0 0 1
    outer loop
      vertex 14.6319 -13.4773 0.5
      vertex 19.8762 -0.81647 0.5
      vertex 14.6319 13.4773 0.5
    endloop
  endfacet
  facet normal 0 0 1
    outer loop
      vertex 19.8762 -0.81647 0.5
      vertex 14.6319 -13.4773 0.5
      vertex 16.0869 -14.2186 0.5
    endloop
  endfacet
  facet normal 0 0 1
    outer loop
      vertex 13.4773 14.6319 0.5
      vertex 14.6319 -13.4773 0.5
      vertex 14.6319 13.4773 0.5
    endloop
  endfacet
  facet normal 0 0 1
    outer loop
      vertex 14.6319 -13.4773 0.5
      vertex 13.4773 14.6319 0.5
      vertex 13.4773 -14.6319 0.5
    endloop
  endfacet
  facet normal 0 0 1
    outer loop
      vertex -16.0869 14.2186 0.5
      vertex -21.4292 1.32108 0.5
      vertex -19.8762 0.81647 0.5
    endloop
  endfacet
  facet normal 0 0 1
    outer loop
      vertex -16.0869 14.2186 0.5
      vertex -21.8798 20.7251 0.5
      vertex -21.4292 1.32108 0.5
    endloop
  endfacet
  facet normal 0 0 1
    outer loop
      vertex -23.3348 21.4665 0.5
      vertex -21.4292 1.32108 0.5
      vertex -21.8798 20.7251 0.5
    endloop
  endfacet
  facet normal 0 0 1
    outer loop
      vertex -21.4292 1.32108 0.5
      vertex -23.3348 21.4665 0.5
      vertex -22.3891 0 0.5
    endloop
  endfacet
  facet normal 0 0 1
    outer loop
      vertex 25 -25 0.5
      vertex 22.3891 0 0.5
      vertex 23.3348 -21.4665 0.5
    endloop
  endfacet
  facet normal 0 0 1
    outer loop
      vertex 21.4292 1.32108 0.5
      vertex 23.3348 21.4665 0.5
      vertex 21.8798 20.7251 0.5
    endloop
  endfacet
  facet normal 0 0 1
    outer loop
      vertex 23.3348 21.4665 0.5
      vertex 21.4292 1.32108 0.5
      vertex 22.3891 0 0.5
    endloop
  endfacet
  facet normal 0 0 1
    outer loop
      vertex 15.8315 15.8315 0.5
      vertex 21.8798 20.7251 0.5
      vertex 20.7251 21.8798 0.5
    endloop
  endfacet
  facet normal 0 0 1
    outer loop
      vertex 21.8798 20.7251 0.5
      vertex 16.0869 14.2186 0.5
      vertex 21.4292 1.32108 0.5
    endloop
  endfacet
  facet normal 0 0 1
    outer loop
      vertex 22.3891 0 0.5
      vertex 25 25 0.5
      vertex 23.3348 21.4665 0.5
    endloop
  endfacet
  facet normal 0 0 1
    outer loop
      vertex 25 25 0.5
      vertex 23.0793 23.0793 0.5
      vertex 23.3348 21.4665 0.5
    endloop
  endfacet
  facet normal 0 0 1
    outer loop
      vertex 25 25 0.5
      vertex 21.4665 23.3348 0.5
      vertex 23.0793 23.0793 0.5
    endloop
  endfacet
  facet normal -0 0 1
    outer loop
      vertex 14.6319 13.4773 0.5
      vertex 19.8762 0.81647 0.5
      vertex 16.0869 14.2186 0.5
    endloop
  endfacet
  facet normal 0 0 1
    outer loop
      vertex 21.4292 1.32108 0.5
      vertex 16.0869 14.2186 0.5
      vertex 19.8762 0.81647 0.5
    endloop
  endfacet
  facet normal 0 0 1
    outer loop
      vertex 1.32108 21.4292 0.5
      vertex 20.7251 21.8798 0.5
      vertex 21.4665 23.3348 0.5
    endloop
  endfacet
  facet normal 0 0 1
    outer loop
      vertex 21.8798 20.7251 0.5
      vertex 15.8315 15.8315 0.5
      vertex 16.0869 14.2186 0.5
    endloop
  endfacet
  facet normal 0 0 1
    outer loop
      vertex 20.7251 21.8798 0.5
      vertex 14.2186 16.0869 0.5
      vertex 15.8315 15.8315 0.5
    endloop
  endfacet
  facet normal -0 0 1
    outer loop
      vertex 0.81647 19.8762 0.5
      vertex 13.4773 14.6319 0.5
      vertex 1.32108 21.4292 0.5
    endloop
  endfacet
  facet normal 0 0 1
    outer loop
      vertex 14.2186 16.0869 0.5
      vertex 1.32108 21.4292 0.5
      vertex 13.4773 14.6319 0.5
    endloop
  endfacet
  facet normal 0 0 1
    outer loop
      vertex 20.7251 21.8798 0.5
      vertex 1.32108 21.4292 0.5
      vertex 14.2186 16.0869 0.5
    endloop
  endfacet
  facet normal 0 0 1
    outer loop
      vertex 0 22.3891 0.5
      vertex 21.4665 23.3348 0.5
      vertex 25 25 0.5
    endloop
  endfacet
  facet normal 0 0 1
    outer loop
      vertex 21.4665 23.3348 0.5
      vertex 0 22.3891 0.5
      vertex 1.32108 21.4292 0.5
    endloop
  endfacet
  facet normal -0 0 1
    outer loop
      vertex -13.4773 -14.6319 0.5
      vertex -0.81647 -19.8762 0.5
      vertex -13.4773 14.6319 0.5
    endloop
  endfacet
  facet normal 0 0 1
    outer loop
      vertex -21.4665 23.3348 0.5
      vertex -1.32108 21.4292 0.5
      vertex 0 22.3891 0.5
    endloop
  endfacet
  facet normal 0 0 1
    outer loop
      vertex -1.32108 21.4292 0.5
      vertex -14.2186 16.0869 0.5
      vertex -13.4773 14.6319 0.5
    endloop
  endfacet
  facet normal 0 0 1
    outer loop
      vertex -1.32108 21.4292 0.5
      vertex -20.7251 21.8798 0.5
      vertex -14.2186 16.0869 0.5
    endloop
  endfacet
  facet normal -0 0 1
    outer loop
      vertex -19.8762 -0.81647 0.5
      vertex -14.6319 -13.4773 0.5
      vertex -19.8762 0.81647 0.5
    endloop
  endfacet
  facet normal -0 0 1
    outer loop
      vertex -21.8798 20.7251 0.5
      vertex -15.8315 15.8315 0.5
      vertex -20.7251 21.8798 0.5
    endloop
  endfacet
  facet normal 0 0 1
    outer loop
      vertex -15.8315 15.8315 0.5
      vertex -21.8798 20.7251 0.5
      vertex -16.0869 14.2186 0.5
    endloop
  endfacet
  facet normal 0 0 1
    outer loop
      vertex -14.2186 16.0869 0.5
      vertex -20.7251 21.8798 0.5
      vertex -15.8315 15.8315 0.5
    endloop
  endfacet
  facet normal -0 0 1
    outer loop
      vertex -25 25 0.5
      vertex 0 22.3891 0.5
      vertex 25 25 0.5
    endloop
  endfacet
  facet normal 0 0 1
    outer loop
      vertex -1.32108 21.4292 0.5
      vertex -21.4665 23.3348 0.5
      vertex -20.7251 21.8798 0.5
    endloop
  endfacet
  facet normal 0 0 1
    outer loop
      vertex -25 -25 0.5
      vertex -22.3891 0 0.5
      vertex -25 25 0.5
    endloop
  endfacet
  facet normal 0 0 1
    outer loop
      vertex -23.0793 23.0793 0.5
      vertex -25 25 0.5
      vertex -23.3348 21.4665 0.5
    endloop
  endfacet
  facet normal 0 0 1
    outer loop
      vertex -21.4665 23.3348 0.5
      vertex -25 25 0.5
      vertex -23.0793 23.0793 0.5
    endloop
  endfacet
  facet normal 0 0 1
    outer loop
      vertex 0 22.3891 0.5
      vertex -25 25 0.5
      vertex -21.4665 23.3348 0.5
    endloop
  endfacet
  facet normal 0 0 1
    outer loop
      vertex 25 25 0.5
      vertex 22.3891 0 0.5
      vertex 25 -25 0.5
    endloop
  endfacet
  facet normal -0 0 1
    outer loop
      vertex 23.0793 -23.0793 0.5
      vertex 25 -25 0.5
      vertex 23.3348 -21.4665 0.5
    endloop
  endfacet
  facet normal -0 0 1
    outer loop
      vertex 21.4665 -23.3348 0.5
      vertex 25 -25 0.5
      vertex 23.0793 -23.0793 0.5
    endloop
  endfacet
  facet normal 0 0 1
    outer loop
      vertex 19.8762 0.81647 0.5
      vertex 14.6319 13.4773 0.5
      vertex 19.8762 -0.81647 0.5
    endloop
  endfacet
  facet normal 0 0 1
    outer loop
      vertex 19.8762 -0.81647 0.5
      vertex 16.0869 -14.2186 0.5
      vertex 20.7251 -21.8798 0.5
    endloop
  endfacet
  facet normal -0 0 1
    outer loop
      vertex 15.8315 -15.8315 0.5
      vertex 20.7251 -21.8798 0.5
      vertex 16.0869 -14.2186 0.5
    endloop
  endfacet
  facet normal -0 0 1
    outer loop
      vertex 14.2186 -16.0869 0.5
      vertex 20.7251 -21.8798 0.5
      vertex 15.8315 -15.8315 0.5
    endloop
  endfacet
  facet normal -0 0 1
    outer loop
      vertex 1.32108 -21.4292 0.5
      vertex 20.7251 -21.8798 0.5
      vertex 14.2186 -16.0869 0.5
    endloop
  endfacet
  facet normal 0 0 1
    outer loop
      vertex 13.4773 14.6319 0.5
      vertex 0.81647 19.8762 0.5
      vertex 13.4773 -14.6319 0.5
    endloop
  endfacet
  facet normal 0 0 1
    outer loop
      vertex 1.32108 -21.4292 0.5
      vertex 14.2186 -16.0869 0.5
      vertex 13.4773 -14.6319 0.5
    endloop
  endfacet
  facet normal 0 0 1
    outer loop
      vertex 20.7251 -21.8798 0.5
      vertex 1.32108 -21.4292 0.5
      vertex 21.4665 -23.3348 0.5
    endloop
  endfacet
  facet normal -0 0 1
    outer loop
      vertex 0 -22.3891 0.5
      vertex 21.4665 -23.3348 0.5
      vertex 1.32108 -21.4292 0.5
    endloop
  endfacet
  facet normal 0 0 1
    outer loop
      vertex 21.4665 -23.3348 0.5
      vertex 0 -22.3891 0.5
      vertex 25 -25 0.5
    endloop
  endfacet
  facet normal 0 0 1
    outer loop
      vertex -0.81647 -19.8762 0.5
      vertex -13.4773 -14.6319 0.5
      vertex -1.32108 -21.4292 0.5
    endloop
  endfacet
  facet normal -0 0 1
    outer loop
      vertex -14.2186 -16.0869 0.5
      vertex -1.32108 -21.4292 0.5
      vertex -13.4773 -14.6319 0.5
    endloop
  endfacet
  facet normal 0 0 1
    outer loop
      vertex -20.7251 -21.8798 0.5
      vertex -1.32108 -21.4292 0.5
      vertex -14.2186 -16.0869 0.5
    endloop
  endfacet
  facet normal 0 0 1
    outer loop
      vertex -20.7251 -21.8798 0.5
      vertex -14.2186 -16.0869 0.5
      vertex -15.8315 -15.8315 0.5
    endloop
  endfacet
  facet normal 0 0 1
    outer loop
      vertex -14.6319 -13.4773 0.5
      vertex -19.8762 -0.81647 0.5
      vertex -16.0869 -14.2186 0.5
    endloop
  endfacet
  facet normal -0 0 1
    outer loop
      vertex -21.4292 -1.32108 0.5
      vertex -16.0869 -14.2186 0.5
      vertex -19.8762 -0.81647 0.5
    endloop
  endfacet
  facet normal 0 0 1
    outer loop
      vertex -16.0869 -14.2186 0.5
      vertex -20.7251 -21.8798 0.5
      vertex -15.8315 -15.8315 0.5
    endloop
  endfacet
  facet normal 0 0 1
    outer loop
      vertex -21.4665 -23.3348 0.5
      vertex -1.32108 -21.4292 0.5
      vertex -20.7251 -21.8798 0.5
    endloop
  endfacet
  facet normal 0 0 1
    outer loop
      vertex -1.32108 -21.4292 0.5
      vertex -21.4665 -23.3348 0.5
      vertex 0 -22.3891 0.5
    endloop
  endfacet
  facet normal 0 0 1
    outer loop
      vertex -25 -25 0.5
      vertex 0 -22.3891 0.5
      vertex -21.4665 -23.3348 0.5
    endloop
  endfacet
  facet normal 0 0 1
    outer loop
      vertex 0 -22.3891 0.5
      vertex -25 -25 0.5
      vertex 25 -25 0.5
    endloop
  endfacet
  facet normal 0 0 1
    outer loop
      vertex -23.0793 -23.0793 0.5
      vertex -25 -25 0.5
      vertex -21.4665 -23.3348 0.5
    endloop
  endfacet
  facet normal 0 0 1
    outer loop
      vertex -23.3348 -21.4665 0.5
      vertex -25 -25 0.5
      vertex -23.0793 -23.0793 0.5
    endloop
  endfacet
  facet normal 0 0 1
    outer loop
      vertex -22.3891 0 0.5
      vertex -25 -25 0.5
      vertex -23.3348 -21.4665 0.5
    endloop
  endfacet
  facet normal -0 0 1
    outer loop
      vertex 21.4292 -1.32108 0.5
      vertex 23.3348 -21.4665 0.5
      vertex 22.3891 0 0.5
    endloop
  endfacet
  facet normal 0 0 1
    outer loop
      vertex 23.3348 -21.4665 0.5
      vertex 21.4292 -1.32108 0.5
      vertex 21.8798 -20.7251 0.5
    endloop
  endfacet
  facet normal 0 0 1
    outer loop
      vertex 19.8762 -0.81647 0.5
      vertex 21.8798 -20.7251 0.5
      vertex 21.4292 -1.32108 0.5
    endloop
  endfacet
  facet normal 0 0 1
    outer loop
      vertex 21.8798 -20.7251 0.5
      vertex 19.8762 -0.81647 0.5
      vertex 20.7251 -21.8798 0.5
    endloop
  endfacet
  facet normal 0 0 -1
    outer loop
      vertex -21.8798 20.7251 0
      vertex -16.0869 14.2186 0
      vertex -21.4292 1.32108 0
    endloop
  endfacet
  facet normal 0 0 -1
    outer loop
      vertex -16.0869 14.2186 0
      vertex -21.8798 20.7251 0
      vertex -20.7251 21.8798 0
    endloop
  endfacet
  facet normal 0 0 -1
    outer loop
      vertex -23.3348 21.4665 0
      vertex -21.4292 1.32108 0
      vertex -22.3891 0 0
    endloop
  endfacet
  facet normal 0 0 -1
    outer loop
      vertex -25 -25 0
      vertex -22.3891 0 0
      vertex -23.3348 -21.4665 0
    endloop
  endfacet
  facet normal 0 0 -1
    outer loop
      vertex -21.4292 1.32108 0
      vertex -23.3348 21.4665 0
      vertex -21.8798 20.7251 0
    endloop
  endfacet
  facet normal 0 0 -1
    outer loop
      vertex -14.6319 -13.4773 0
      vertex -13.4773 14.6319 0
      vertex -13.4773 -14.6319 0
    endloop
  endfacet
  facet normal 0 0 -1
    outer loop
      vertex -14.6319 -13.4773 0
      vertex -14.6319 13.4773 0
      vertex -13.4773 14.6319 0
    endloop
  endfacet
  facet normal 0 0 -1
    outer loop
      vertex -19.8762 -0.81647 0
      vertex -14.6319 -13.4773 0
      vertex -16.0869 -14.2186 0
    endloop
  endfacet
  facet normal 0 0 -1
    outer loop
      vertex -14.6319 -13.4773 0
      vertex -19.8762 -0.81647 0
      vertex -14.6319 13.4773 0
    endloop
  endfacet
  facet normal 0 0 -1
    outer loop
      vertex 0.81647 19.8762 0
      vertex 13.4773 14.6319 0
      vertex 0.81647 -19.8762 0
    endloop
  endfacet
  facet normal 0 0 -1
    outer loop
      vertex 13.4773 14.6319 0
      vertex 0.81647 19.8762 0
      vertex 1.32108 21.4292 0
    endloop
  endfacet
  facet normal 0 0 -1
    outer loop
      vertex -0.81647 -19.8762 0
      vertex 0.81647 19.8762 0
      vertex 0.81647 -19.8762 0
    endloop
  endfacet
  facet normal 0 0 -1
    outer loop
      vertex -0.81647 -19.8762 0
      vertex -0.81647 19.8762 0
      vertex 0.81647 19.8762 0
    endloop
  endfacet
  facet normal 0 0 -1
    outer loop
      vertex -13.4773 -14.6319 0
      vertex -0.81647 -19.8762 0
      vertex -1.32108 -21.4292 0
    endloop
  endfacet
  facet normal 0 0 -1
    outer loop
      vertex -0.81647 -19.8762 0
      vertex -13.4773 -14.6319 0
      vertex -0.81647 19.8762 0
    endloop
  endfacet
  facet normal 0 0 -1
    outer loop
      vertex 14.6319 13.4773 0
      vertex 19.8762 0.81647 0
      vertex 14.6319 -13.4773 0
    endloop
  endfacet
  facet normal 0 0 -1
    outer loop
      vertex 19.8762 0.81647 0
      vertex 14.6319 13.4773 0
      vertex 16.0869 14.2186 0
    endloop
  endfacet
  facet normal 0 0 -1
    outer loop
      vertex 13.4773 -14.6319 0
      vertex 14.6319 13.4773 0
      vertex 14.6319 -13.4773 0
    endloop
  endfacet
  facet normal -0 0 -1
    outer loop
      vertex 14.6319 13.4773 0
      vertex 13.4773 -14.6319 0
      vertex 13.4773 14.6319 0
    endloop
  endfacet
  facet normal 0 0 -1
    outer loop
      vertex -16.0869 -14.2186 0
      vertex -21.4292 -1.32108 0
      vertex -19.8762 -0.81647 0
    endloop
  endfacet
  facet normal -0 0 -1
    outer loop
      vertex -16.0869 -14.2186 0
      vertex -21.8798 -20.7251 0
      vertex -21.4292 -1.32108 0
    endloop
  endfacet
  facet normal 0 0 -1
    outer loop
      vertex -23.3348 -21.4665 0
      vertex -21.4292 -1.32108 0
      vertex -21.8798 -20.7251 0
    endloop
  endfacet
  facet normal -0 0 -1
    outer loop
      vertex -21.4292 -1.32108 0
      vertex -23.3348 -21.4665 0
      vertex -22.3891 0 0
    endloop
  endfacet
  facet normal 0 0 -1
    outer loop
      vertex 25 25 0
      vertex 22.3891 0 0
      vertex 23.3348 21.4665 0
    endloop
  endfacet
  facet normal 0 0 -1
    outer loop
      vertex 21.4292 -1.32108 0
      vertex 23.3348 -21.4665 0
      vertex 21.8798 -20.7251 0
    endloop
  endfacet
  facet normal 0 0 -1
    outer loop
      vertex 23.3348 -21.4665 0
      vertex 21.4292 -1.32108 0
      vertex 22.3891 0 0
    endloop
  endfacet
  facet normal 0 0 -1
    outer loop
      vertex 15.8315 -15.8315 0
      vertex 21.8798 -20.7251 0
      vertex 20.7251 -21.8798 0
    endloop
  endfacet
  facet normal 0 0 -1
    outer loop
      vertex 21.8798 -20.7251 0
      vertex 16.0869 -14.2186 0
      vertex 21.4292 -1.32108 0
    endloop
  endfacet
  facet normal 0 0 -1
    outer loop
      vertex 22.3891 0 0
      vertex 25 -25 0
      vertex 23.3348 -21.4665 0
    endloop
  endfacet
  facet normal 0 0 -1
    outer loop
      vertex 25 -25 0
      vertex 23.0793 -23.0793 0
      vertex 23.3348 -21.4665 0
    endloop
  endfacet
  facet normal 0 0 -1
    outer loop
      vertex 25 -25 0
      vertex 21.4665 -23.3348 0
      vertex 23.0793 -23.0793 0
    endloop
  endfacet
  facet normal 0 0 -1
    outer loop
      vertex 14.6319 -13.4773 0
      vertex 19.8762 -0.81647 0
      vertex 16.0869 -14.2186 0
    endloop
  endfacet
  facet normal -0 0 -1
    outer loop
      vertex 21.4292 -1.32108 0
      vertex 16.0869 -14.2186 0
      vertex 19.8762 -0.81647 0
    endloop
  endfacet
  facet normal 0 0 -1
    outer loop
      vertex 1.32108 -21.4292 0
      vertex 20.7251 -21.8798 0
      vertex 21.4665 -23.3348 0
    endloop
  endfacet
  facet normal 0 0 -1
    outer loop
      vertex 21.8798 -20.7251 0
      vertex 15.8315 -15.8315 0
      vertex 16.0869 -14.2186 0
    endloop
  endfacet
  facet normal 0 0 -1
    outer loop
      vertex 20.7251 -21.8798 0
      vertex 14.2186 -16.0869 0
      vertex 15.8315 -15.8315 0
    endloop
  endfacet
  facet normal 0 0 -1
    outer loop
      vertex 0.81647 -19.8762 0
      vertex 13.4773 -14.6319 0
      vertex 1.32108 -21.4292 0
    endloop
  endfacet
  facet normal -0 0 -1
    outer loop
      vertex 14.2186 -16.0869 0
      vertex 1.32108 -21.4292 0
      vertex 13.4773 -14.6319 0
    endloop
  endfacet
  facet normal 0 0 -1
    outer loop
      vertex 20.7251 -21.8798 0
      vertex 1.32108 -21.4292 0
      vertex 14.2186 -16.0869 0
    endloop
  endfacet
  facet normal 0 0 -1
    outer loop
      vertex 0 -22.3891 0
      vertex 21.4665 -23.3348 0
      vertex 25 -25 0
    endloop
  endfacet
  facet normal 0 0 -1
    outer loop
      vertex 21.4665 -23.3348 0
      vertex 0 -22.3891 0
      vertex 1.32108 -21.4292 0
    endloop
  endfacet
  facet normal 0 0 -1
    outer loop
      vertex -13.4773 14.6319 0
      vertex -0.81647 19.8762 0
      vertex -13.4773 -14.6319 0
    endloop
  endfacet
  facet normal 0 0 -1
    outer loop
      vertex -21.4665 -23.3348 0
      vertex -1.32108 -21.4292 0
      vertex 0 -22.3891 0
    endloop
  endfacet
  facet normal 0 0 -1
    outer loop
      vertex -1.32108 -21.4292 0
      vertex -14.2186 -16.0869 0
      vertex -13.4773 -14.6319 0
    endloop
  endfacet
  facet normal -0 0 -1
    outer loop
      vertex -1.32108 -21.4292 0
      vertex -20.7251 -21.8798 0
      vertex -14.2186 -16.0869 0
    endloop
  endfacet
  facet normal 0 0 -1
    outer loop
      vertex -19.8762 0.81647 0
      vertex -14.6319 13.4773 0
      vertex -19.8762 -0.81647 0
    endloop
  endfacet
  facet normal 0 0 -1
    outer loop
      vertex -21.8798 -20.7251 0
      vertex -15.8315 -15.8315 0
      vertex -20.7251 -21.8798 0
    endloop
  endfacet
  facet normal -0 0 -1
    outer loop
      vertex -15.8315 -15.8315 0
      vertex -21.8798 -20.7251 0
      vertex -16.0869 -14.2186 0
    endloop
  endfacet
  facet normal -0 0 -1
    outer loop
      vertex -14.2186 -16.0869 0
      vertex -20.7251 -21.8798 0
      vertex -15.8315 -15.8315 0
    endloop
  endfacet
  facet normal 0 0 -1
    outer loop
      vertex -25 -25 0
      vertex 0 -22.3891 0
      vertex 25 -25 0
    endloop
  endfacet
  facet normal 0 0 -1
    outer loop
      vertex -1.32108 -21.4292 0
      vertex -21.4665 -23.3348 0
      vertex -20.7251 -21.8798 0
    endloop
  endfacet
  facet normal 0 0 -1
    outer loop
      vertex -25 25 0
      vertex -22.3891 0 0
      vertex -25 -25 0
    endloop
  endfacet
  facet normal -0 0 -1
    outer loop
      vertex -23.0793 -23.0793 0
      vertex -25 -25 0
      vertex -23.3348 -21.4665 0
    endloop
  endfacet
  facet normal -0 0 -1
    outer loop
      vertex -21.4665 -23.3348 0
      vertex -25 -25 0
      vertex -23.0793 -23.0793 0
    endloop
  endfacet
  facet normal 0 0 -1
    outer loop
      vertex 0 -22.3891 0
      vertex -25 -25 0
      vertex -21.4665 -23.3348 0
    endloop
  endfacet
  facet normal 0 0 -1
    outer loop
      vertex 25 -25 0
      vertex 22.3891 0 0
      vertex 25 25 0
    endloop
  endfacet
  facet normal 0 0 -1
    outer loop
      vertex 23.0793 23.0793 0
      vertex 25 25 0
      vertex 23.3348 21.4665 0
    endloop
  endfacet
  facet normal 0 0 -1
    outer loop
      vertex 21.4665 23.3348 0
      vertex 25 25 0
      vertex 23.0793 23.0793 0
    endloop
  endfacet
  facet normal -0 0 -1
    outer loop
      vertex 19.8762 -0.81647 0
      vertex 14.6319 -13.4773 0
      vertex 19.8762 0.81647 0
    endloop
  endfacet
  facet normal 0 0 -1
    outer loop
      vertex 19.8762 0.81647 0
      vertex 16.0869 14.2186 0
      vertex 20.7251 21.8798 0
    endloop
  endfacet
  facet normal 0 0 -1
    outer loop
      vertex 15.8315 15.8315 0
      vertex 20.7251 21.8798 0
      vertex 16.0869 14.2186 0
    endloop
  endfacet
  facet normal 0 0 -1
    outer loop
      vertex 14.2186 16.0869 0
      vertex 20.7251 21.8798 0
      vertex 15.8315 15.8315 0
    endloop
  endfacet
  facet normal 0 0 -1
    outer loop
      vertex 1.32108 21.4292 0
      vertex 20.7251 21.8798 0
      vertex 14.2186 16.0869 0
    endloop
  endfacet
  facet normal -0 0 -1
    outer loop
      vertex 13.4773 -14.6319 0
      vertex 0.81647 -19.8762 0
      vertex 13.4773 14.6319 0
    endloop
  endfacet
  facet normal 0 0 -1
    outer loop
      vertex 1.32108 21.4292 0
      vertex 14.2186 16.0869 0
      vertex 13.4773 14.6319 0
    endloop
  endfacet
  facet normal -0 0 -1
    outer loop
      vertex 20.7251 21.8798 0
      vertex 1.32108 21.4292 0
      vertex 21.4665 23.3348 0
    endloop
  endfacet
  facet normal 0 0 -1
    outer loop
      vertex 0 22.3891 0
      vertex 21.4665 23.3348 0
      vertex 1.32108 21.4292 0
    endloop
  endfacet
  facet normal -0 0 -1
    outer loop
      vertex 21.4665 23.3348 0
      vertex 0 22.3891 0
      vertex 25 25 0
    endloop
  endfacet
  facet normal -0 0 -1
    outer loop
      vertex -0.81647 19.8762 0
      vertex -13.4773 14.6319 0
      vertex -1.32108 21.4292 0
    endloop
  endfacet
  facet normal 0 0 -1
    outer loop
      vertex -14.2186 16.0869 0
      vertex -1.32108 21.4292 0
      vertex -13.4773 14.6319 0
    endloop
  endfacet
  facet normal 0 0 -1
    outer loop
      vertex -20.7251 21.8798 0
      vertex -1.32108 21.4292 0
      vertex -14.2186 16.0869 0
    endloop
  endfacet
  facet normal 0 0 -1
    outer loop
      vertex -20.7251 21.8798 0
      vertex -14.2186 16.0869 0
      vertex -15.8315 15.8315 0
    endloop
  endfacet
  facet normal -0 0 -1
    outer loop
      vertex -14.6319 13.4773 0
      vertex -19.8762 0.81647 0
      vertex -16.0869 14.2186 0
    endloop
  endfacet
  facet normal 0 0 -1
    outer loop
      vertex -21.4292 1.32108 0
      vertex -16.0869 14.2186 0
      vertex -19.8762 0.81647 0
    endloop
  endfacet
  facet normal 0 0 -1
    outer loop
      vertex -16.0869 14.2186 0
      vertex -20.7251 21.8798 0
      vertex -15.8315 15.8315 0
    endloop
  endfacet
  facet normal 0 0 -1
    outer loop
      vertex -21.4665 23.3348 0
      vertex -1.32108 21.4292 0
      vertex -20.7251 21.8798 0
    endloop
  endfacet
  facet normal 0 0 -1
    outer loop
      vertex -1.32108 21.4292 0
      vertex -21.4665 23.3348 0
      vertex 0 22.3891 0
    endloop
  endfacet
  facet normal 0 0 -1
    outer loop
      vertex -25 25 0
      vertex 0 22.3891 0
      vertex -21.4665 23.3348 0
    endloop
  endfacet
  facet normal 0 0 -1
    outer loop
      vertex 0 22.3891 0
      vertex -25 25 0
      vertex 25 25 0
    endloop
  endfacet
  facet normal 0 0 -1
    outer loop
      vertex -23.0793 23.0793 0
      vertex -25 25 0
      vertex -21.4665 23.3348 0
    endloop
  endfacet
  facet normal 0 0 -1
    outer loop
      vertex -23.3348 21.4665 0
      vertex -25 25 0
      vertex -23.0793 23.0793 0
    endloop
  endfacet
  facet normal 0 0 -1
    outer loop
      vertex -22.3891 0 0
      vertex -25 25 0
      vertex -23.3348 21.4665 0
    endloop
  endfacet
  facet normal 0 0 -1
    outer loop
      vertex 21.4292 1.32108 0
      vertex 23.3348 21.4665 0
      vertex 22.3891 0 0
    endloop
  endfacet
  facet normal 0 0 -1
    outer loop
      vertex 23.3348 21.4665 0
      vertex 21.4292 1.32108 0
      vertex 21.8798 20.7251 0
    endloop
  endfacet
  facet normal 0 0 -1
    outer loop
      vertex 19.8762 0.81647 0
      vertex 21.8798 20.7251 0
      vertex 21.4292 1.32108 0
    endloop
  endfacet
  facet normal -0 0 -1
    outer loop
      vertex 21.8798 20.7251 0
      vertex 19.8762 0.81647 0
      vertex 20.7251 21.8798 0
    endloop
  endfacet
  facet normal -1 0 0
    outer loop
      vertex -25 -25 0
      vertex -25 25 0.5
      vertex -25 25 0
    endloop
  endfacet
  facet normal -1 -0 0
    outer loop
      vertex -25 25 0.5
      vertex -25 -25 0
      vertex -25 -25 0.5
    endloop
  endfacet
  facet normal 0 1 -0
    outer loop
      vertex 25 25 0
      vertex -25 25 0.5
      vertex 25 25 0.5
    endloop
  endfacet
  facet normal 0 1 0
    outer loop
      vertex -25 25 0.5
      vertex 25 25 0
      vertex -25 25 0
    endloop
  endfacet
  facet normal 0 -1 0
    outer loop
      vertex -25 -25 0
      vertex 25 -25 0.5
      vertex -25 -25 0.5
    endloop
  endfacet
  facet normal 0 -1 -0
    outer loop
      vertex 25 -25 0.5
      vertex -25 -25 0
      vertex 25 -25 0
    endloop
  endfacet
endsolid OpenSCAD_Model
