solid OpenSCAD_Model
  facet normal 1 -0 0
    outer loop
      vertex 33 0 18
      vertex 33 30 0
      vertex 33 30 18
    endloop
  endfacet
  facet normal 1 0 0
    outer loop
      vertex 33 30 0
      vertex 33 0 18
      vertex 33 0 0
    endloop
  endfacet
  facet normal 0 1 0
    outer loop
      vertex 33 30 18
      vertex 27 30 3
      vertex 27 30 18
    endloop
  endfacet
  facet normal 0 1 0
    outer loop
      vertex 0 30 0
      vertex 27 30 3
      vertex 33 30 0
    endloop
  endfacet
  facet normal 0 1 -0
    outer loop
      vertex 33 30 0
      vertex 27 30 3
      vertex 33 30 18
    endloop
  endfacet
  facet normal 0 1 -0
    outer loop
      vertex 3 30 3
      vertex 0 30 18
      vertex 3 30 18
    endloop
  endfacet
  facet normal 0 1 0
    outer loop
      vertex 3 30 3
      vertex 0 30 0
      vertex 0 30 18
    endloop
  endfacet
  facet normal 0 1 0
    outer loop
      vertex 27 30 3
      vertex 0 30 0
      vertex 3 30 3
    endloop
  endfacet
  facet normal 0 -1 0
    outer loop
      vertex 0 0 18
      vertex 3 0 3
      vertex 3 0 18
    endloop
  endfacet
  facet normal 0 -1 -0
    outer loop
      vertex 3 0 3
      vertex 0 0 0
      vertex 30 0 3
    endloop
  endfacet
  facet normal 0 -1 0
    outer loop
      vertex 0 0 0
      vertex 3 0 3
      vertex 0 0 18
    endloop
  endfacet
  facet normal 0 -1 0
    outer loop
      vertex 30 0 3
      vertex 33 0 18
      vertex 30 0 18
    endloop
  endfacet
  facet normal 0 -1 0
    outer loop
      vertex 30 0 3
      vertex 33 0 0
      vertex 33 0 18
    endloop
  endfacet
  facet normal 0 -1 0
    outer loop
      vertex 33 0 0
      vertex 30 0 3
      vertex 0 0 0
    endloop
  endfacet
  facet normal -1 0 0
    outer loop
      vertex 0 0 0
      vertex 0 30 18
      vertex 0 30 0
    endloop
  endfacet
  facet normal -1 -0 0
    outer loop
      vertex 0 30 18
      vertex 0 0 0
      vertex 0 0 18
    endloop
  endfacet
  facet normal 0 0 -1
    outer loop
      vertex 0 0 0
      vertex 33 30 0
      vertex 33 0 0
    endloop
  endfacet
  facet normal -0 0 -1
    outer loop
      vertex 33 30 0
      vertex 0 0 0
      vertex 0 30 0
    endloop
  endfacet
  facet normal -0 0 1
    outer loop
      vertex 0 30 18
      vertex 3 16.5 18
      vertex 3 30 18
    endloop
  endfacet
  facet normal 0 0 1
    outer loop
      vertex 3 16.5 18
      vertex 0 30 18
      vertex 3 13.5 18
    endloop
  endfacet
  facet normal 0 0 1
    outer loop
      vertex 0 0 18
      vertex 3 13.5 18
      vertex 0 30 18
    endloop
  endfacet
  facet normal 0 0 1
    outer loop
      vertex 3 13.5 18
      vertex 0 0 18
      vertex 3 0 18
    endloop
  endfacet
  facet normal -0 0 1
    outer loop
      vertex 3 16.5 18
      vertex 6 13.5 18
      vertex 6 16.5 18
    endloop
  endfacet
  facet normal 0 0 1
    outer loop
      vertex 6 13.5 18
      vertex 3 16.5 18
      vertex 3 13.5 18
    endloop
  endfacet
  facet normal 0 0 1
    outer loop
      vertex 33 30 18
      vertex 30 13.5 18
      vertex 33 0 18
    endloop
  endfacet
  facet normal 0 0 1
    outer loop
      vertex 27 16.5 18
      vertex 33 30 18
      vertex 27 30 18
    endloop
  endfacet
  facet normal 0 0 1
    outer loop
      vertex 33 30 18
      vertex 27 16.5 18
      vertex 30 13.5 18
    endloop
  endfacet
  facet normal 0 0 1
    outer loop
      vertex 24 13.5 18
      vertex 27 16.5 18
      vertex 24 16.5 18
    endloop
  endfacet
  facet normal 0 0 1
    outer loop
      vertex 27 16.5 18
      vertex 24 13.5 18
      vertex 30 13.5 18
    endloop
  endfacet
  facet normal 0 0 1
    outer loop
      vertex 33 0 18
      vertex 30 13.5 18
      vertex 30 0 18
    endloop
  endfacet
  facet normal -1 0 0
    outer loop
      vertex 30 0 3
      vertex 30 13.5 18
      vertex 30 13.5 3
    endloop
  endfacet
  facet normal -1 -0 0
    outer loop
      vertex 30 13.5 18
      vertex 30 0 3
      vertex 30 0 18
    endloop
  endfacet
  facet normal 0 -1 0
    outer loop
      vertex 3 13.5 18
      vertex 6 13.5 6
      vertex 6 13.5 18
    endloop
  endfacet
  facet normal 0 -1 -0
    outer loop
      vertex 6 13.5 6
      vertex 3 13.5 3
      vertex 24 13.5 6
    endloop
  endfacet
  facet normal 0 -1 0
    outer loop
      vertex 3 13.5 3
      vertex 6 13.5 6
      vertex 3 13.5 18
    endloop
  endfacet
  facet normal 0 -1 0
    outer loop
      vertex 24 13.5 6
      vertex 30 13.5 18
      vertex 24 13.5 18
    endloop
  endfacet
  facet normal 0 -1 0
    outer loop
      vertex 24 13.5 6
      vertex 30 13.5 3
      vertex 30 13.5 18
    endloop
  endfacet
  facet normal 0 -1 0
    outer loop
      vertex 30 13.5 3
      vertex 24 13.5 6
      vertex 3 13.5 3
    endloop
  endfacet
  facet normal 1 -0 0
    outer loop
      vertex 3 0 18
      vertex 3 13.5 3
      vertex 3 13.5 18
    endloop
  endfacet
  facet normal 1 0 0
    outer loop
      vertex 3 13.5 3
      vertex 3 0 18
      vertex 3 0 3
    endloop
  endfacet
  facet normal -0 0 1
    outer loop
      vertex 3 13.5 3
      vertex 30 0 3
      vertex 30 13.5 3
    endloop
  endfacet
  facet normal 0 0 1
    outer loop
      vertex 30 0 3
      vertex 3 13.5 3
      vertex 3 0 3
    endloop
  endfacet
  facet normal -1 0 0
    outer loop
      vertex 27 16.5 3
      vertex 27 30 18
      vertex 27 30 3
    endloop
  endfacet
  facet normal -1 -0 0
    outer loop
      vertex 27 30 18
      vertex 27 16.5 3
      vertex 27 16.5 18
    endloop
  endfacet
  facet normal 0 1 0
    outer loop
      vertex 27 16.5 18
      vertex 24 16.5 6
      vertex 24 16.5 18
    endloop
  endfacet
  facet normal 0 1 0
    outer loop
      vertex 24 16.5 6
      vertex 27 16.5 3
      vertex 6 16.5 6
    endloop
  endfacet
  facet normal 0 1 -0
    outer loop
      vertex 27 16.5 3
      vertex 24 16.5 6
      vertex 27 16.5 18
    endloop
  endfacet
  facet normal 0 1 -0
    outer loop
      vertex 6 16.5 6
      vertex 3 16.5 18
      vertex 6 16.5 18
    endloop
  endfacet
  facet normal 0 1 0
    outer loop
      vertex 6 16.5 6
      vertex 3 16.5 3
      vertex 3 16.5 18
    endloop
  endfacet
  facet normal 0 1 0
    outer loop
      vertex 3 16.5 3
      vertex 6 16.5 6
      vertex 27 16.5 3
    endloop
  endfacet
  facet normal 1 -0 0
    outer loop
      vertex 3 16.5 18
      vertex 3 30 3
      vertex 3 30 18
    endloop
  endfacet
  facet normal 1 0 0
    outer loop
      vertex 3 30 3
      vertex 3 16.5 18
      vertex 3 16.5 3
    endloop
  endfacet
  facet normal -0 0 1
    outer loop
      vertex 3 30 3
      vertex 27 16.5 3
      vertex 27 30 3
    endloop
  endfacet
  facet normal 0 0 1
    outer loop
      vertex 27 16.5 3
      vertex 3 30 3
      vertex 3 16.5 3
    endloop
  endfacet
  facet normal -1 0 0
    outer loop
      vertex 24 13.5 6
      vertex 24 16.5 18
      vertex 24 16.5 6
    endloop
  endfacet
  facet normal -1 -0 0
    outer loop
      vertex 24 16.5 18
      vertex 24 13.5 6
      vertex 24 13.5 18
    endloop
  endfacet
  facet normal 1 -0 0
    outer loop
      vertex 6 13.5 18
      vertex 6 16.5 6
      vertex 6 16.5 18
    endloop
  endfacet
  facet normal 1 0 0
    outer loop
      vertex 6 16.5 6
      vertex 6 13.5 18
      vertex 6 13.5 6
    endloop
  endfacet
  facet normal -0 0 1
    outer loop
      vertex 6 16.5 6
      vertex 24 13.5 6
      vertex 24 16.5 6
    endloop
  endfacet
  facet normal 0 0 1
    outer loop
      vertex 24 13.5 6
      vertex 6 16.5 6
      vertex 6 13.5 6
    endloop
  endfacet
endsolid OpenSCAD_Model
