solid OpenSCAD_Model
  facet normal 1 -0 0
    outer loop
      vertex 12 0 3
      vertex 12 20 0
      vertex 12 20 3
    endloop
  endfacet
  facet normal 1 0 0
    outer loop
      vertex 12 20 0
      vertex 12 0 3
      vertex 12 0 0
    endloop
  endfacet
  facet normal 0 0 1
    outer loop
      vertex 12 20 3
      vertex 7.5 10 3
      vertex 12 0 3
    endloop
  endfacet
  facet normal 0 0 1
    outer loop
      vertex 12 20 3
      vertex 6.46352 11.4266 3
      vertex 7.5 10 3
    endloop
  endfacet
  facet normal -0 0 1
    outer loop
      vertex 0 20 3
      vertex 6.46352 11.4266 3
      vertex 12 20 3
    endloop
  endfacet
  facet normal 0 0 1
    outer loop
      vertex 4.78647 10.8817 3
      vertex 0 20 3
      vertex 4.78647 9.11832 3
    endloop
  endfacet
  facet normal 0 0 1
    outer loop
      vertex 6.46352 11.4266 3
      vertex 0 20 3
      vertex 4.78647 10.8817 3
    endloop
  endfacet
  facet normal -0 0 1
    outer loop
      vertex 6.46352 8.57341 3
      vertex 12 0 3
      vertex 7.5 10 3
    endloop
  endfacet
  facet normal 0 0 1
    outer loop
      vertex 0 0 3
      vertex 6.46352 8.57341 3
      vertex 4.78647 9.11832 3
    endloop
  endfacet
  facet normal 0 0 1
    outer loop
      vertex 6.46352 8.57341 3
      vertex 0 0 3
      vertex 12 0 3
    endloop
  endfacet
  facet normal 0 0 1
    outer loop
      vertex 0 0 3
      vertex 4.78647 9.11832 3
      vertex 0 20 3
    endloop
  endfacet
  facet normal 0 0 -1
    outer loop
      vertex 12 0 0
      vertex 7.5 10 0
      vertex 12 20 0
    endloop
  endfacet
  facet normal 0 0 -1
    outer loop
      vertex 12 0 0
      vertex 6.46352 8.57341 0
      vertex 7.5 10 0
    endloop
  endfacet
  facet normal 0 0 -1
    outer loop
      vertex 0 0 0
      vertex 6.46352 8.57341 0
      vertex 12 0 0
    endloop
  endfacet
  facet normal -0 0 -1
    outer loop
      vertex 4.78647 9.11832 0
      vertex 0 0 0
      vertex 4.78647 10.8817 0
    endloop
  endfacet
  facet normal -0 0 -1
    outer loop
      vertex 6.46352 8.57341 0
      vertex 0 0 0
      vertex 4.78647 9.11832 0
    endloop
  endfacet
  facet normal 0 0 -1
    outer loop
      vertex 6.46352 11.4266 0
      vertex 12 20 0
      vertex 7.5 10 0
    endloop
  endfacet
  facet normal 0 0 -1
    outer loop
      vertex 0 20 0
      vertex 6.46352 11.4266 0
      vertex 4.78647 10.8817 0
    endloop
  endfacet
  facet normal 0 0 -1
    outer loop
      vertex 6.46352 11.4266 0
      vertex 0 20 0
      vertex 12 20 0
    endloop
  endfacet
  facet normal 0 0 -1
    outer loop
      vertex 0 20 0
      vertex 4.78647 10.8817 0
      vertex 0 0 0
    endloop
  endfacet
  facet normal -1 0 0
    outer loop
      vertex 0 0 0
      vertex 0 20 3
      vertex 0 20 0
    endloop
  endfacet
  facet normal -1 -0 0
    outer loop
      vertex 0 20 3
      vertex 0 0 0
      vertex 0 0 3
    endloop
  endfacet
  facet normal 0 1 -0
    outer loop
      vertex 12 20 0
      vertex 0 20 3
      vertex 12 20 3
    endloop
  endfacet
  facet normal 0 1 0
    outer loop
      vertex 0 20 3
      vertex 12 20 0
      vertex 0 20 0
    endloop
  endfacet
  facet normal 0 -1 0
    outer loop
      vertex 0 0 0
      vertex 12 0 3
      vertex 0 0 3
    endloop
  endfacet
  facet normal 0 -1 -0
    outer loop
      vertex 12 0 3
      vertex 0 0 0
      vertex 12 0 0
    endloop
  endfacet
  facet normal 0.309019 0.951056 -0
    outer loop
      vertex 6.46352 8.57341 0
      vertex 4.78647 9.11832 3
      vertex 6.46352 8.57341 3
    endloop
  endfacet
  facet normal 0.309019 0.951056 0
    outer loop
      vertex 4.78647 9.11832 3
      vertex 6.46352 8.57341 0
      vertex 4.78647 9.11832 0
    endloop
  endfacet
  facet normal 0.309014 -0.951058 0
    outer loop
      vertex 4.78647 10.8817 0
      vertex 6.46352 11.4266 3
      vertex 4.78647 10.8817 3
    endloop
  endfacet
  facet normal 0.309014 -0.951058 0
    outer loop
      vertex 6.46352 11.4266 3
      vertex 4.78647 10.8817 0
      vertex 6.46352 11.4266 0
    endloop
  endfacet
  facet normal -0.809018 -0.587783 0
    outer loop
      vertex 7.5 10 0
      vertex 6.46352 11.4266 3
      vertex 6.46352 11.4266 0
    endloop
  endfacet
  facet normal -0.809018 -0.587783 0
    outer loop
      vertex 6.46352 11.4266 3
      vertex 7.5 10 0
      vertex 7.5 10 3
    endloop
  endfacet
  facet normal 1 -0 0
    outer loop
      vertex 4.78647 9.11832 3
      vertex 4.78647 10.8817 0
      vertex 4.78647 10.8817 3
    endloop
  endfacet
  facet normal 1 0 0
    outer loop
      vertex 4.78647 10.8817 0
      vertex 4.78647 9.11832 3
      vertex 4.78647 9.11832 0
    endloop
  endfacet
  facet normal -0.809017 0.587786 0
    outer loop
      vertex 6.46352 8.57341 0
      vertex 7.5 10 3
      vertex 7.5 10 0
    endloop
  endfacet
  facet normal -0.809017 0.587786 0
    outer loop
      vertex 7.5 10 3
      vertex 6.46352 8.57341 0
      vertex 6.46352 8.57341 3
    endloop
  endfacet
endsolid OpenSCAD_Model
