solid OpenSCAD_Model
  facet normal -1 0 0
    outer loop
      vertex 0 17.9605 0
      vertex 0 14.4526 2.2892
      vertex 0 17.6336 0.27051
    endloop
  endfacet
  facet normal -1 0 0
    outer loop
      vertex 0 17.9605 0
      vertex 0 11.0437 3.89329
      vertex 0 14.4526 2.2892
    endloop
  endfacet
  facet normal -1 0 0
    outer loop
      vertex 0 17.9605 0
      vertex 0 7.4607 5.05749
      vertex 0 11.0437 3.89329
    endloop
  endfacet
  facet normal -1 0 0
    outer loop
      vertex 0 17.9605 0
      vertex 0 3.76 5.76344
      vertex 0 7.4607 5.05749
    endloop
  endfacet
  facet normal -1 0 0
    outer loop
      vertex 0 17.9605 0
      vertex 0 0 6
      vertex 0 3.76 5.76344
    endloop
  endfacet
  facet normal -1 0 0
    outer loop
      vertex 0 17.9605 0
      vertex 0 -3.76 5.76344
      vertex 0 0 6
    endloop
  endfacet
  facet normal -1 0 0
    outer loop
      vertex 0 17.9605 0
      vertex 0 -7.4607 5.05749
      vertex 0 -3.76 5.76344
    endloop
  endfacet
  facet normal -1 0 0
    outer loop
      vertex 0 17.9605 0
      vertex 0 -11.0437 3.89329
      vertex 0 -7.4607 5.05749
    endloop
  endfacet
  facet normal -1 0 0
    outer loop
      vertex 0 17.9605 0
      vertex 0 -14.4526 2.2892
      vertex 0 -11.0437 3.89329
    endloop
  endfacet
  facet normal -1 0 0
    outer loop
      vertex 0 -17.9605 0
      vertex 0 -14.4526 2.2892
      vertex 0 17.9605 0
    endloop
  endfacet
  facet normal -1 0 0
    outer loop
      vertex 0 -14.4526 2.2892
      vertex 0 -17.9605 0
      vertex 0 -17.6336 0.27051
    endloop
  endfacet
  facet normal 1 0 0
    outer loop
      vertex 1 14.4526 2.2892
      vertex 1 17.9605 0
      vertex 1 17.6336 0.27051
    endloop
  endfacet
  facet normal 1 0 0
    outer loop
      vertex 1 11.0437 3.89329
      vertex 1 17.9605 0
      vertex 1 14.4526 2.2892
    endloop
  endfacet
  facet normal 1 0 0
    outer loop
      vertex 1 7.4607 5.05749
      vertex 1 17.9605 0
      vertex 1 11.0437 3.89329
    endloop
  endfacet
  facet normal 1 0 0
    outer loop
      vertex 1 3.76 5.76344
      vertex 1 17.9605 0
      vertex 1 7.4607 5.05749
    endloop
  endfacet
  facet normal 1 0 0
    outer loop
      vertex 1 0 6
      vertex 1 17.9605 0
      vertex 1 3.76 5.76344
    endloop
  endfacet
  facet normal 1 -0 0
    outer loop
      vertex 1 -3.76 5.76344
      vertex 1 17.9605 0
      vertex 1 0 6
    endloop
  endfacet
  facet normal 1 -0 0
    outer loop
      vertex 1 -7.4607 5.05749
      vertex 1 17.9605 0
      vertex 1 -3.76 5.76344
    endloop
  endfacet
  facet normal 1 -0 0
    outer loop
      vertex 1 -11.0437 3.89329
      vertex 1 17.9605 0
      vertex 1 -7.4607 5.05749
    endloop
  endfacet
  facet normal 1 -0 0
    outer loop
      vertex 1 -14.4526 2.2892
      vertex 1 17.9605 0
      vertex 1 -11.0437 3.89329
    endloop
  endfacet
  facet normal 1 0 0
    outer loop
      vertex 1 -17.9605 0
      vertex 1 -14.4526 2.2892
      vertex 1 -17.6336 0.27051
    endloop
  endfacet
  facet normal 1 0 0
    outer loop
      vertex 1 -14.4526 2.2892
      vertex 1 -17.9605 0
      vertex 1 17.9605 0
    endloop
  endfacet
  facet normal 0 0 -1
    outer loop
      vertex 0 -17.9605 0
      vertex 1 17.9605 0
      vertex 1 -17.9605 0
    endloop
  endfacet
  facet normal -0 0 -1
    outer loop
      vertex 1 17.9605 0
      vertex 0 -17.9605 0
      vertex 0 17.9605 0
    endloop
  endfacet
  facet normal -0 0.187382 0.982287
    outer loop
      vertex 0 7.4607 5.05749
      vertex 1 3.76 5.76344
      vertex 1 7.4607 5.05749
    endloop
  endfacet
  facet normal 0 0.187382 0.982287
    outer loop
      vertex 1 3.76 5.76344
      vertex 0 7.4607 5.05749
      vertex 0 3.76 5.76344
    endloop
  endfacet
  facet normal -0 0.0627907 0.998027
    outer loop
      vertex 0 3.76 5.76344
      vertex 1 0 6
      vertex 1 3.76 5.76344
    endloop
  endfacet
  facet normal 0 0.0627907 0.998027
    outer loop
      vertex 1 0 6
      vertex 0 3.76 5.76344
      vertex 0 0 6
    endloop
  endfacet
  facet normal -0 0.30902 0.951056
    outer loop
      vertex 0 11.0437 3.89329
      vertex 1 7.4607 5.05749
      vertex 1 11.0437 3.89329
    endloop
  endfacet
  facet normal 0 0.30902 0.951056
    outer loop
      vertex 1 7.4607 5.05749
      vertex 0 11.0437 3.89329
      vertex 0 7.4607 5.05749
    endloop
  endfacet
  facet normal -0 0.637529 0.770427
    outer loop
      vertex 0 17.9605 0
      vertex 1 17.6336 0.27051
      vertex 1 17.9605 0
    endloop
  endfacet
  facet normal 0 0.637529 0.770427
    outer loop
      vertex 1 17.6336 0.27051
      vertex 0 17.9605 0
      vertex 0 17.6336 0.27051
    endloop
  endfacet
  facet normal -0 0.53582 0.844332
    outer loop
      vertex 0 17.6336 0.27051
      vertex 1 14.4526 2.2892
      vertex 1 17.6336 0.27051
    endloop
  endfacet
  facet normal 0 0.53582 0.844332
    outer loop
      vertex 1 14.4526 2.2892
      vertex 0 17.6336 0.27051
      vertex 0 14.4526 2.2892
    endloop
  endfacet
  facet normal -0 0.425776 0.904829
    outer loop
      vertex 0 14.4526 2.2892
      vertex 1 11.0437 3.89329
      vertex 1 14.4526 2.2892
    endloop
  endfacet
  facet normal 0 0.425776 0.904829
    outer loop
      vertex 1 11.0437 3.89329
      vertex 0 14.4526 2.2892
      vertex 0 11.0437 3.89329
    endloop
  endfacet
  facet normal 0 -0.30902 0.951056
    outer loop
      vertex 0 -7.4607 5.05749
      vertex 1 -11.0437 3.89329
      vertex 1 -7.4607 5.05749
    endloop
  endfacet
  facet normal 0 -0.30902 0.951056
    outer loop
      vertex 1 -11.0437 3.89329
      vertex 0 -7.4607 5.05749
      vertex 0 -11.0437 3.89329
    endloop
  endfacet
  facet normal 0 -0.53582 0.844332
    outer loop
      vertex 0 -14.4526 2.2892
      vertex 1 -17.6336 0.27051
      vertex 1 -14.4526 2.2892
    endloop
  endfacet
  facet normal 0 -0.53582 0.844332
    outer loop
      vertex 1 -17.6336 0.27051
      vertex 0 -14.4526 2.2892
      vertex 0 -17.6336 0.27051
    endloop
  endfacet
  facet normal 0 -0.425776 0.904829
    outer loop
      vertex 0 -11.0437 3.89329
      vertex 1 -14.4526 2.2892
      vertex 1 -11.0437 3.89329
    endloop
  endfacet
  facet normal 0 -0.425776 0.904829
    outer loop
      vertex 1 -14.4526 2.2892
      vertex 0 -11.0437 3.89329
      vertex 0 -14.4526 2.2892
    endloop
  endfacet
  facet normal 0 -0.187382 0.982287
    outer loop
      vertex 0 -3.76 5.76344
      vertex 1 -7.4607 5.05749
      vertex 1 -3.76 5.76344
    endloop
  endfacet
  facet normal 0 -0.187382 0.982287
    outer loop
      vertex 1 -7.4607 5.05749
      vertex 0 -3.76 5.76344
      vertex 0 -7.4607 5.05749
    endloop
  endfacet
  facet normal 0 -0.0627907 0.998027
    outer loop
      vertex 0 0 6
      vertex 1 -3.76 5.76344
      vertex 1 0 6
    endloop
  endfacet
  facet normal 0 -0.0627907 0.998027
    outer loop
      vertex 1 -3.76 5.76344
      vertex 0 0 6
      vertex 0 -3.76 5.76344
    endloop
  endfacet
  facet normal 0 -0.637529 0.770427
    outer loop
      vertex 0 -17.6336 0.27051
      vertex 1 -17.9605 0
      vertex 1 -17.6336 0.27051
    endloop
  endfacet
  facet normal 0 -0.637529 0.770427
    outer loop
      vertex 1 -17.9605 0
      vertex 0 -17.6336 0.27051
      vertex 0 -17.9605 0
    endloop
  endfacet
  facet normal -1 0 0
    outer loop
      vertex 10 21.3525 0
      vertex 10 17.6336 3.27051
      vertex 10 20.5364 0.869059
    endloop
  endfacet
  facet normal -1 0 0
    outer loop
      vertex 10 21.3525 0
      vertex 10 14.4526 5.2892
      vertex 10 17.6336 3.27051
    endloop
  endfacet
  facet normal -1 0 0
    outer loop
      vertex 10 21.3525 0
      vertex 10 11.0437 6.89329
      vertex 10 14.4526 5.2892
    endloop
  endfacet
  facet normal -1 0 0
    outer loop
      vertex 10 21.3525 0
      vertex 10 7.4607 8.05749
      vertex 10 11.0437 6.89329
    endloop
  endfacet
  facet normal -1 0 0
    outer loop
      vertex 10 21.3525 0
      vertex 10 3.76 8.76344
      vertex 10 7.4607 8.05749
    endloop
  endfacet
  facet normal -1 0 0
    outer loop
      vertex 10 21.3525 0
      vertex 10 0 9
      vertex 10 3.76 8.76344
    endloop
  endfacet
  facet normal -1 0 0
    outer loop
      vertex 10 21.3525 0
      vertex 10 -3.76 8.76344
      vertex 10 0 9
    endloop
  endfacet
  facet normal -1 0 0
    outer loop
      vertex 10 21.3525 0
      vertex 10 -7.4607 8.05749
      vertex 10 -3.76 8.76344
    endloop
  endfacet
  facet normal -1 0 0
    outer loop
      vertex 10 21.3525 0
      vertex 10 -11.0437 6.89329
      vertex 10 -7.4607 8.05749
    endloop
  endfacet
  facet normal -1 0 0
    outer loop
      vertex 10 21.3525 0
      vertex 10 -14.4526 5.2892
      vertex 10 -11.0437 6.89329
    endloop
  endfacet
  facet normal -1 0 0
    outer loop
      vertex 10 21.3525 0
      vertex 10 -17.6336 3.27051
      vertex 10 -14.4526 5.2892
    endloop
  endfacet
  facet normal -1 0 0
    outer loop
      vertex 10 -21.3525 0
      vertex 10 -17.6336 3.27051
      vertex 10 21.3525 0
    endloop
  endfacet
  facet normal -1 0 0
    outer loop
      vertex 10 -17.6336 3.27051
      vertex 10 -21.3525 0
      vertex 10 -20.5364 0.869059
    endloop
  endfacet
  facet normal 1 0 0
    outer loop
      vertex 11 17.6336 3.27051
      vertex 11 21.3525 0
      vertex 11 20.5364 0.869059
    endloop
  endfacet
  facet normal 1 0 0
    outer loop
      vertex 11 14.4526 5.2892
      vertex 11 21.3525 0
      vertex 11 17.6336 3.27051
    endloop
  endfacet
  facet normal 1 0 0
    outer loop
      vertex 11 11.0437 6.89329
      vertex 11 21.3525 0
      vertex 11 14.4526 5.2892
    endloop
  endfacet
  facet normal 1 0 0
    outer loop
      vertex 11 7.4607 8.05749
      vertex 11 21.3525 0
      vertex 11 11.0437 6.89329
    endloop
  endfacet
  facet normal 1 0 0
    outer loop
      vertex 11 3.76 8.76344
      vertex 11 21.3525 0
      vertex 11 7.4607 8.05749
    endloop
  endfacet
  facet normal 1 0 0
    outer loop
      vertex 11 0 9
      vertex 11 21.3525 0
      vertex 11 3.76 8.76344
    endloop
  endfacet
  facet normal 1 -0 0
    outer loop
      vertex 11 -3.76 8.76344
      vertex 11 21.3525 0
      vertex 11 0 9
    endloop
  endfacet
  facet normal 1 -0 0
    outer loop
      vertex 11 -7.4607 8.05749
      vertex 11 21.3525 0
      vertex 11 -3.76 8.76344
    endloop
  endfacet
  facet normal 1 -0 0
    outer loop
      vertex 11 -11.0437 6.89329
      vertex 11 21.3525 0
      vertex 11 -7.4607 8.05749
    endloop
  endfacet
  facet normal 1 -0 0
    outer loop
      vertex 11 -14.4526 5.2892
      vertex 11 21.3525 0
      vertex 11 -11.0437 6.89329
    endloop
  endfacet
  facet normal 1 -0 0
    outer loop
      vertex 11 -17.6336 3.27051
      vertex 11 21.3525 0
      vertex 11 -14.4526 5.2892
    endloop
  endfacet
  facet normal 1 0 0
    outer loop
      vertex 11 -21.3525 0
      vertex 11 -17.6336 3.27051
      vertex 11 -20.5364 0.869059
    endloop
  endfacet
  facet normal 1 0 0
    outer loop
      vertex 11 -17.6336 3.27051
      vertex 11 -21.3525 0
      vertex 11 21.3525 0
    endloop
  endfacet
  facet normal 0 0 -1
    outer loop
      vertex 10 -21.3525 0
      vertex 11 21.3525 0
      vertex 11 -21.3525 0
    endloop
  endfacet
  facet normal -0 0 -1
    outer loop
      vertex 11 21.3525 0
      vertex 10 -21.3525 0
      vertex 10 21.3525 0
    endloop
  endfacet
  facet normal -0 0.53582 0.844332
    outer loop
      vertex 10 17.6336 3.27051
      vertex 11 14.4526 5.2892
      vertex 11 17.6336 3.27051
    endloop
  endfacet
  facet normal 0 0.53582 0.844332
    outer loop
      vertex 11 14.4526 5.2892
      vertex 10 17.6336 3.27051
      vertex 10 14.4526 5.2892
    endloop
  endfacet
  facet normal -0 0.425776 0.904829
    outer loop
      vertex 10 14.4526 5.2892
      vertex 11 11.0437 6.89329
      vertex 11 14.4526 5.2892
    endloop
  endfacet
  facet normal 0 0.425776 0.904829
    outer loop
      vertex 11 11.0437 6.89329
      vertex 10 14.4526 5.2892
      vertex 10 11.0437 6.89329
    endloop
  endfacet
  facet normal 0 -0.425776 0.904829
    outer loop
      vertex 10 -11.0437 6.89329
      vertex 11 -14.4526 5.2892
      vertex 11 -11.0437 6.89329
    endloop
  endfacet
  facet normal 0 -0.425776 0.904829
    outer loop
      vertex 11 -14.4526 5.2892
      vertex 10 -11.0437 6.89329
      vertex 10 -14.4526 5.2892
    endloop
  endfacet
  facet normal -0 0.0627907 0.998027
    outer loop
      vertex 10 3.76 8.76344
      vertex 11 0 9
      vertex 11 3.76 8.76344
    endloop
  endfacet
  facet normal 0 0.0627907 0.998027
    outer loop
      vertex 11 0 9
      vertex 10 3.76 8.76344
      vertex 10 0 9
    endloop
  endfacet
  facet normal -0 0.187382 0.982287
    outer loop
      vertex 10 7.4607 8.05749
      vertex 11 3.76 8.76344
      vertex 11 7.4607 8.05749
    endloop
  endfacet
  facet normal 0 0.187382 0.982287
    outer loop
      vertex 11 3.76 8.76344
      vertex 10 7.4607 8.05749
      vertex 10 3.76 8.76344
    endloop
  endfacet
  facet normal 0 -0.728969 0.684547
    outer loop
      vertex 10 -21.3525 0
      vertex 11 -20.5364 0.869059
      vertex 10 -20.5364 0.869059
    endloop
  endfacet
  facet normal 0 -0.728969 0.684547
    outer loop
      vertex 11 -20.5364 0.869059
      vertex 10 -21.3525 0
      vertex 11 -21.3525 0
    endloop
  endfacet
  facet normal 0 -0.0627907 0.998027
    outer loop
      vertex 10 0 9
      vertex 11 -3.76 8.76344
      vertex 11 0 9
    endloop
  endfacet
  facet normal 0 -0.0627907 0.998027
    outer loop
      vertex 11 -3.76 8.76344
      vertex 10 0 9
      vertex 10 -3.76 8.76344
    endloop
  endfacet
  facet normal 0 -0.53582 0.844332
    outer loop
      vertex 10 -14.4526 5.2892
      vertex 11 -17.6336 3.27051
      vertex 11 -14.4526 5.2892
    endloop
  endfacet
  facet normal 0 -0.53582 0.844332
    outer loop
      vertex 11 -17.6336 3.27051
      vertex 10 -14.4526 5.2892
      vertex 10 -17.6336 3.27051
    endloop
  endfacet
  facet normal -0 0.637431 0.770507
    outer loop
      vertex 10 20.5364 0.869059
      vertex 11 17.6336 3.27051
      vertex 11 20.5364 0.869059
    endloop
  endfacet
  facet normal 0 0.637431 0.770507
    outer loop
      vertex 11 17.6336 3.27051
      vertex 10 20.5364 0.869059
      vertex 10 17.6336 3.27051
    endloop
  endfacet
  facet normal 0 -0.30902 0.951056
    outer loop
      vertex 10 -7.4607 8.05749
      vertex 11 -11.0437 6.89329
      vertex 11 -7.4607 8.05749
    endloop
  endfacet
  facet normal 0 -0.30902 0.951056
    outer loop
      vertex 11 -11.0437 6.89329
      vertex 10 -7.4607 8.05749
      vertex 10 -11.0437 6.89329
    endloop
  endfacet
  facet normal -0 0.30902 0.951056
    outer loop
      vertex 10 11.0437 6.89329
      vertex 11 7.4607 8.05749
      vertex 11 11.0437 6.89329
    endloop
  endfacet
  facet normal 0 0.30902 0.951056
    outer loop
      vertex 11 7.4607 8.05749
      vertex 10 11.0437 6.89329
      vertex 10 7.4607 8.05749
    endloop
  endfacet
  facet normal 0 -0.637431 0.770507
    outer loop
      vertex 10 -17.6336 3.27051
      vertex 11 -20.5364 0.869059
      vertex 11 -17.6336 3.27051
    endloop
  endfacet
  facet normal 0 -0.637431 0.770507
    outer loop
      vertex 11 -20.5364 0.869059
      vertex 10 -17.6336 3.27051
      vertex 10 -20.5364 0.869059
    endloop
  endfacet
  facet normal 0 -0.187382 0.982287
    outer loop
      vertex 10 -3.76 8.76344
      vertex 11 -7.4607 8.05749
      vertex 11 -3.76 8.76344
    endloop
  endfacet
  facet normal 0 -0.187382 0.982287
    outer loop
      vertex 11 -7.4607 8.05749
      vertex 10 -3.76 8.76344
      vertex 10 -7.4607 8.05749
    endloop
  endfacet
  facet normal 0 0.728969 0.684547
    outer loop
      vertex 11 21.3525 0
      vertex 10 20.5364 0.869059
      vertex 11 20.5364 0.869059
    endloop
  endfacet
  facet normal 0 0.728969 0.684547
    outer loop
      vertex 10 20.5364 0.869059
      vertex 11 21.3525 0
      vertex 10 21.3525 0
    endloop
  endfacet
  facet normal -1 0 0
    outer loop
      vertex 20 23.9311 0
      vertex 20 20.5364 3.86906
      vertex 20 23.1154 1.12272
    endloop
  endfacet
  facet normal -1 0 0
    outer loop
      vertex 20 23.9311 0
      vertex 20 17.6336 6.27051
      vertex 20 20.5364 3.86906
    endloop
  endfacet
  facet normal -1 0 0
    outer loop
      vertex 20 23.9311 0
      vertex 20 14.4526 8.2892
      vertex 20 17.6336 6.27051
    endloop
  endfacet
  facet normal -1 0 0
    outer loop
      vertex 20 23.9311 0
      vertex 20 11.0437 9.89329
      vertex 20 14.4526 8.2892
    endloop
  endfacet
  facet normal -1 0 0
    outer loop
      vertex 20 23.9311 0
      vertex 20 7.4607 11.0575
      vertex 20 11.0437 9.89329
    endloop
  endfacet
  facet normal -1 0 0
    outer loop
      vertex 20 23.9311 0
      vertex 20 3.76 11.7634
      vertex 20 7.4607 11.0575
    endloop
  endfacet
  facet normal -1 0 0
    outer loop
      vertex 20 23.9311 0
      vertex 20 0 12
      vertex 20 3.76 11.7634
    endloop
  endfacet
  facet normal -1 0 0
    outer loop
      vertex 20 23.9311 0
      vertex 20 -3.76 11.7634
      vertex 20 0 12
    endloop
  endfacet
  facet normal -1 0 0
    outer loop
      vertex 20 23.9311 0
      vertex 20 -7.4607 11.0575
      vertex 20 -3.76 11.7634
    endloop
  endfacet
  facet normal -1 0 0
    outer loop
      vertex 20 23.9311 0
      vertex 20 -11.0437 9.89329
      vertex 20 -7.4607 11.0575
    endloop
  endfacet
  facet normal -1 0 0
    outer loop
      vertex 20 23.9311 0
      vertex 20 -14.4526 8.2892
      vertex 20 -11.0437 9.89329
    endloop
  endfacet
  facet normal -1 0 0
    outer loop
      vertex 20 23.9311 0
      vertex 20 -17.6336 6.27051
      vertex 20 -14.4526 8.2892
    endloop
  endfacet
  facet normal -1 0 0
    outer loop
      vertex 20 23.9311 0
      vertex 20 -20.5364 3.86906
      vertex 20 -17.6336 6.27051
    endloop
  endfacet
  facet normal -1 0 0
    outer loop
      vertex 20 -23.9311 0
      vertex 20 -20.5364 3.86906
      vertex 20 23.9311 0
    endloop
  endfacet
  facet normal -1 0 0
    outer loop
      vertex 20 -20.5364 3.86906
      vertex 20 -23.9311 0
      vertex 20 -23.1154 1.12272
    endloop
  endfacet
  facet normal 1 0 0
    outer loop
      vertex 21 20.5364 3.86906
      vertex 21 23.9311 0
      vertex 21 23.1154 1.12272
    endloop
  endfacet
  facet normal 1 0 0
    outer loop
      vertex 21 17.6336 6.27051
      vertex 21 23.9311 0
      vertex 21 20.5364 3.86906
    endloop
  endfacet
  facet normal 1 0 0
    outer loop
      vertex 21 14.4526 8.2892
      vertex 21 23.9311 0
      vertex 21 17.6336 6.27051
    endloop
  endfacet
  facet normal 1 0 0
    outer loop
      vertex 21 11.0437 9.89329
      vertex 21 23.9311 0
      vertex 21 14.4526 8.2892
    endloop
  endfacet
  facet normal 1 0 0
    outer loop
      vertex 21 7.4607 11.0575
      vertex 21 23.9311 0
      vertex 21 11.0437 9.89329
    endloop
  endfacet
  facet normal 1 0 0
    outer loop
      vertex 21 3.76 11.7634
      vertex 21 23.9311 0
      vertex 21 7.4607 11.0575
    endloop
  endfacet
  facet normal 1 0 0
    outer loop
      vertex 21 0 12
      vertex 21 23.9311 0
      vertex 21 3.76 11.7634
    endloop
  endfacet
  facet normal 1 -0 0
    outer loop
      vertex 21 -3.76 11.7634
      vertex 21 23.9311 0
      vertex 21 0 12
    endloop
  endfacet
  facet normal 1 -0 0
    outer loop
      vertex 21 -7.4607 11.0575
      vertex 21 23.9311 0
      vertex 21 -3.76 11.7634
    endloop
  endfacet
  facet normal 1 -0 0
    outer loop
      vertex 21 -11.0437 9.89329
      vertex 21 23.9311 0
      vertex 21 -7.4607 11.0575
    endloop
  endfacet
  facet normal 1 -0 0
    outer loop
      vertex 21 -14.4526 8.2892
      vertex 21 23.9311 0
      vertex 21 -11.0437 9.89329
    endloop
  endfacet
  facet normal 1 -0 0
    outer loop
      vertex 21 -17.6336 6.27051
      vertex 21 23.9311 0
      vertex 21 -14.4526 8.2892
    endloop
  endfacet
  facet normal 1 -0 0
    outer loop
      vertex 21 -20.5364 3.86906
      vertex 21 23.9311 0
      vertex 21 -17.6336 6.27051
    endloop
  endfacet
  facet normal 1 0 0
    outer loop
      vertex 21 -23.9311 0
      vertex 21 -20.5364 3.86906
      vertex 21 -23.1154 1.12272
    endloop
  endfacet
  facet normal 1 0 0
    outer loop
      vertex 21 -20.5364 3.86906
      vertex 21 -23.9311 0
      vertex 21 23.9311 0
    endloop
  endfacet
  facet normal 0 0 -1
    outer loop
      vertex 20 -23.9311 0
      vertex 21 23.9311 0
      vertex 21 -23.9311 0
    endloop
  endfacet
  facet normal -0 0 -1
    outer loop
      vertex 21 23.9311 0
      vertex 20 -23.9311 0
      vertex 20 23.9311 0
    endloop
  endfacet
  facet normal -0 0.53582 0.844332
    outer loop
      vertex 20 17.6336 6.27051
      vertex 21 14.4526 8.2892
      vertex 21 17.6336 6.27051
    endloop
  endfacet
  facet normal 0 0.53582 0.844332
    outer loop
      vertex 21 14.4526 8.2892
      vertex 20 17.6336 6.27051
      vertex 20 14.4526 8.2892
    endloop
  endfacet
  facet normal 0 0.809018 0.587783
    outer loop
      vertex 21 23.9311 0
      vertex 20 23.1154 1.12272
      vertex 21 23.1154 1.12272
    endloop
  endfacet
  facet normal 0 0.809018 0.587783
    outer loop
      vertex 20 23.1154 1.12272
      vertex 21 23.9311 0
      vertex 20 23.9311 0
    endloop
  endfacet
  facet normal -0 0.425776 0.904829
    outer loop
      vertex 20 14.4526 8.2892
      vertex 21 11.0437 9.89329
      vertex 21 14.4526 8.2892
    endloop
  endfacet
  facet normal 0 0.425776 0.904829
    outer loop
      vertex 21 11.0437 9.89329
      vertex 20 14.4526 8.2892
      vertex 20 11.0437 9.89329
    endloop
  endfacet
  facet normal 0 -0.425776 0.904829
    outer loop
      vertex 20 -11.0437 9.89329
      vertex 21 -14.4526 8.2892
      vertex 21 -11.0437 9.89329
    endloop
  endfacet
  facet normal 0 -0.425776 0.904829
    outer loop
      vertex 21 -14.4526 8.2892
      vertex 20 -11.0437 9.89329
      vertex 20 -14.4526 8.2892
    endloop
  endfacet
  facet normal -0 0.0628013 0.998026
    outer loop
      vertex 20 3.76 11.7634
      vertex 21 0 12
      vertex 21 3.76 11.7634
    endloop
  endfacet
  facet normal 0 0.0628013 0.998026
    outer loop
      vertex 21 0 12
      vertex 20 3.76 11.7634
      vertex 20 0 12
    endloop
  endfacet
  facet normal -0 0.187369 0.98229
    outer loop
      vertex 20 7.4607 11.0575
      vertex 21 3.76 11.7634
      vertex 21 7.4607 11.0575
    endloop
  endfacet
  facet normal 0 0.187369 0.98229
    outer loop
      vertex 21 3.76 11.7634
      vertex 20 7.4607 11.0575
      vertex 20 3.76 11.7634
    endloop
  endfacet
  facet normal 0 -0.728967 0.684549
    outer loop
      vertex 20 -23.1154 1.12272
      vertex 21 -20.5364 3.86906
      vertex 20 -20.5364 3.86906
    endloop
  endfacet
  facet normal 0 -0.728967 0.684549
    outer loop
      vertex 21 -20.5364 3.86906
      vertex 20 -23.1154 1.12272
      vertex 21 -23.1154 1.12272
    endloop
  endfacet
  facet normal 0 -0.0628013 0.998026
    outer loop
      vertex 20 0 12
      vertex 21 -3.76 11.7634
      vertex 21 0 12
    endloop
  endfacet
  facet normal 0 -0.0628013 0.998026
    outer loop
      vertex 21 -3.76 11.7634
      vertex 20 0 12
      vertex 20 -3.76 11.7634
    endloop
  endfacet
  facet normal 0 -0.53582 0.844332
    outer loop
      vertex 20 -14.4526 8.2892
      vertex 21 -17.6336 6.27051
      vertex 21 -14.4526 8.2892
    endloop
  endfacet
  facet normal 0 -0.53582 0.844332
    outer loop
      vertex 21 -17.6336 6.27051
      vertex 20 -14.4526 8.2892
      vertex 20 -17.6336 6.27051
    endloop
  endfacet
  facet normal -0 0.637431 0.770507
    outer loop
      vertex 20 20.5364 3.86906
      vertex 21 17.6336 6.27051
      vertex 21 20.5364 3.86906
    endloop
  endfacet
  facet normal 0 0.637431 0.770507
    outer loop
      vertex 21 17.6336 6.27051
      vertex 20 20.5364 3.86906
      vertex 20 17.6336 6.27051
    endloop
  endfacet
  facet normal 0 -0.809018 0.587783
    outer loop
      vertex 20 -23.9311 0
      vertex 21 -23.1154 1.12272
      vertex 20 -23.1154 1.12272
    endloop
  endfacet
  facet normal 0 -0.809018 0.587783
    outer loop
      vertex 21 -23.1154 1.12272
      vertex 20 -23.9311 0
      vertex 21 -23.9311 0
    endloop
  endfacet
  facet normal 0 -0.309022 0.951055
    outer loop
      vertex 20 -7.4607 11.0575
      vertex 21 -11.0437 9.89329
      vertex 21 -7.4607 11.0575
    endloop
  endfacet
  facet normal 0 -0.309022 0.951055
    outer loop
      vertex 21 -11.0437 9.89329
      vertex 20 -7.4607 11.0575
      vertex 20 -11.0437 9.89329
    endloop
  endfacet
  facet normal -0 0.309022 0.951055
    outer loop
      vertex 20 11.0437 9.89329
      vertex 21 7.4607 11.0575
      vertex 21 11.0437 9.89329
    endloop
  endfacet
  facet normal 0 0.309022 0.951055
    outer loop
      vertex 21 7.4607 11.0575
      vertex 20 11.0437 9.89329
      vertex 20 7.4607 11.0575
    endloop
  endfacet
  facet normal 0 -0.637431 0.770507
    outer loop
      vertex 20 -17.6336 6.27051
      vertex 21 -20.5364 3.86906
      vertex 21 -17.6336 6.27051
    endloop
  endfacet
  facet normal 0 -0.637431 0.770507
    outer loop
      vertex 21 -20.5364 3.86906
      vertex 20 -17.6336 6.27051
      vertex 20 -20.5364 3.86906
    endloop
  endfacet
  facet normal 0 -0.187369 0.98229
    outer loop
      vertex 20 -3.76 11.7634
      vertex 21 -7.4607 11.0575
      vertex 21 -3.76 11.7634
    endloop
  endfacet
  facet normal 0 -0.187369 0.98229
    outer loop
      vertex 21 -7.4607 11.0575
      vertex 20 -3.76 11.7634
      vertex 20 -7.4607 11.0575
    endloop
  endfacet
  facet normal 0 0.728967 0.684549
    outer loop
      vertex 21 23.1154 1.12272
      vertex 20 20.5364 3.86906
      vertex 21 20.5364 3.86906
    endloop
  endfacet
  facet normal 0 0.728967 0.684549
    outer loop
      vertex 20 20.5364 3.86906
      vertex 21 23.1154 1.12272
      vertex 20 23.1154 1.12272
    endloop
  endfacet
  facet normal -1 0 0
    outer loop
      vertex 30 25.9207 0
      vertex 30 23.1154 4.12272
      vertex 30 25.3298 1.0748
    endloop
  endfacet
  facet normal -1 0 0
    outer loop
      vertex 30 25.9207 0
      vertex 30 20.5364 6.86906
      vertex 30 23.1154 4.12272
    endloop
  endfacet
  facet normal -1 0 0
    outer loop
      vertex 30 25.9207 0
      vertex 30 17.6336 9.27051
      vertex 30 20.5364 6.86906
    endloop
  endfacet
  facet normal -1 0 0
    outer loop
      vertex 30 25.9207 0
      vertex 30 14.4526 11.2892
      vertex 30 17.6336 9.27051
    endloop
  endfacet
  facet normal -1 0 0
    outer loop
      vertex 30 25.9207 0
      vertex 30 11.0437 12.8933
      vertex 30 14.4526 11.2892
    endloop
  endfacet
  facet normal -1 0 0
    outer loop
      vertex 30 25.9207 0
      vertex 30 7.4607 14.0575
      vertex 30 11.0437 12.8933
    endloop
  endfacet
  facet normal -1 0 0
    outer loop
      vertex 30 25.9207 0
      vertex 30 3.76 14.7634
      vertex 30 7.4607 14.0575
    endloop
  endfacet
  facet normal -1 0 0
    outer loop
      vertex 30 25.9207 0
      vertex 30 0 15
      vertex 30 3.76 14.7634
    endloop
  endfacet
  facet normal -1 0 0
    outer loop
      vertex 30 25.9207 0
      vertex 30 -3.76 14.7634
      vertex 30 0 15
    endloop
  endfacet
  facet normal -1 0 0
    outer loop
      vertex 30 25.9207 0
      vertex 30 -7.4607 14.0575
      vertex 30 -3.76 14.7634
    endloop
  endfacet
  facet normal -1 0 0
    outer loop
      vertex 30 25.9207 0
      vertex 30 -11.0437 12.8933
      vertex 30 -7.4607 14.0575
    endloop
  endfacet
  facet normal -1 0 0
    outer loop
      vertex 30 25.9207 0
      vertex 30 -14.4526 11.2892
      vertex 30 -11.0437 12.8933
    endloop
  endfacet
  facet normal -1 0 0
    outer loop
      vertex 30 25.9207 0
      vertex 30 -17.6336 9.27051
      vertex 30 -14.4526 11.2892
    endloop
  endfacet
  facet normal -1 0 0
    outer loop
      vertex 30 25.9207 0
      vertex 30 -20.5364 6.86906
      vertex 30 -17.6336 9.27051
    endloop
  endfacet
  facet normal -1 0 0
    outer loop
      vertex 30 25.9207 0
      vertex 30 -23.1154 4.12272
      vertex 30 -20.5364 6.86906
    endloop
  endfacet
  facet normal -1 0 0
    outer loop
      vertex 30 -25.9207 0
      vertex 30 -23.1154 4.12272
      vertex 30 25.9207 0
    endloop
  endfacet
  facet normal -1 0 0
    outer loop
      vertex 30 -23.1154 4.12272
      vertex 30 -25.9207 0
      vertex 30 -25.3298 1.0748
    endloop
  endfacet
  facet normal 1 0 0
    outer loop
      vertex 31 23.1154 4.12272
      vertex 31 25.9207 0
      vertex 31 25.3298 1.0748
    endloop
  endfacet
  facet normal 1 0 0
    outer loop
      vertex 31 20.5364 6.86906
      vertex 31 25.9207 0
      vertex 31 23.1154 4.12272
    endloop
  endfacet
  facet normal 1 0 0
    outer loop
      vertex 31 17.6336 9.27051
      vertex 31 25.9207 0
      vertex 31 20.5364 6.86906
    endloop
  endfacet
  facet normal 1 0 0
    outer loop
      vertex 31 14.4526 11.2892
      vertex 31 25.9207 0
      vertex 31 17.6336 9.27051
    endloop
  endfacet
  facet normal 1 0 0
    outer loop
      vertex 31 11.0437 12.8933
      vertex 31 25.9207 0
      vertex 31 14.4526 11.2892
    endloop
  endfacet
  facet normal 1 0 0
    outer loop
      vertex 31 7.4607 14.0575
      vertex 31 25.9207 0
      vertex 31 11.0437 12.8933
    endloop
  endfacet
  facet normal 1 0 0
    outer loop
      vertex 31 3.76 14.7634
      vertex 31 25.9207 0
      vertex 31 7.4607 14.0575
    endloop
  endfacet
  facet normal 1 0 0
    outer loop
      vertex 31 0 15
      vertex 31 25.9207 0
      vertex 31 3.76 14.7634
    endloop
  endfacet
  facet normal 1 -0 0
    outer loop
      vertex 31 -3.76 14.7634
      vertex 31 25.9207 0
      vertex 31 0 15
    endloop
  endfacet
  facet normal 1 -0 0
    outer loop
      vertex 31 -7.4607 14.0575
      vertex 31 25.9207 0
      vertex 31 -3.76 14.7634
    endloop
  endfacet
  facet normal 1 -0 0
    outer loop
      vertex 31 -11.0437 12.8933
      vertex 31 25.9207 0
      vertex 31 -7.4607 14.0575
    endloop
  endfacet
  facet normal 1 -0 0
    outer loop
      vertex 31 -14.4526 11.2892
      vertex 31 25.9207 0
      vertex 31 -11.0437 12.8933
    endloop
  endfacet
  facet normal 1 -0 0
    outer loop
      vertex 31 -17.6336 9.27051
      vertex 31 25.9207 0
      vertex 31 -14.4526 11.2892
    endloop
  endfacet
  facet normal 1 -0 0
    outer loop
      vertex 31 -20.5364 6.86906
      vertex 31 25.9207 0
      vertex 31 -17.6336 9.27051
    endloop
  endfacet
  facet normal 1 -0 0
    outer loop
      vertex 31 -23.1154 4.12272
      vertex 31 25.9207 0
      vertex 31 -20.5364 6.86906
    endloop
  endfacet
  facet normal 1 0 0
    outer loop
      vertex 31 -25.9207 0
      vertex 31 -23.1154 4.12272
      vertex 31 -25.3298 1.0748
    endloop
  endfacet
  facet normal 1 0 0
    outer loop
      vertex 31 -23.1154 4.12272
      vertex 31 -25.9207 0
      vertex 31 25.9207 0
    endloop
  endfacet
  facet normal 0 0 -1
    outer loop
      vertex 30 -25.9207 0
      vertex 31 25.9207 0
      vertex 31 -25.9207 0
    endloop
  endfacet
  facet normal -0 0 -1
    outer loop
      vertex 31 25.9207 0
      vertex 30 -25.9207 0
      vertex 30 25.9207 0
    endloop
  endfacet
  facet normal -0 0.187369 0.98229
    outer loop
      vertex 30 7.4607 14.0575
      vertex 31 3.76 14.7634
      vertex 31 7.4607 14.0575
    endloop
  endfacet
  facet normal 0 0.187369 0.98229
    outer loop
      vertex 31 3.76 14.7634
      vertex 30 7.4607 14.0575
      vertex 30 3.76 14.7634
    endloop
  endfacet
  facet normal -0 0.0628013 0.998026
    outer loop
      vertex 30 3.76 14.7634
      vertex 31 0 15
      vertex 31 3.76 14.7634
    endloop
  endfacet
  facet normal 0 0.0628013 0.998026
    outer loop
      vertex 31 0 15
      vertex 30 3.76 14.7634
      vertex 30 0 15
    endloop
  endfacet
  facet normal -0 0.30902 0.951056
    outer loop
      vertex 30 11.0437 12.8933
      vertex 31 7.4607 14.0575
      vertex 31 11.0437 12.8933
    endloop
  endfacet
  facet normal 0 0.30902 0.951056
    outer loop
      vertex 31 7.4607 14.0575
      vertex 30 11.0437 12.8933
      vertex 30 7.4607 14.0575
    endloop
  endfacet
  facet normal 0 0.728967 0.684549
    outer loop
      vertex 31 23.1154 4.12272
      vertex 30 20.5364 6.86906
      vertex 31 20.5364 6.86906
    endloop
  endfacet
  facet normal 0 0.728967 0.684549
    outer loop
      vertex 30 20.5364 6.86906
      vertex 31 23.1154 4.12272
      vertex 30 23.1154 4.12272
    endloop
  endfacet
  facet normal -0 0.637431 0.770507
    outer loop
      vertex 30 20.5364 6.86906
      vertex 31 17.6336 9.27051
      vertex 31 20.5364 6.86906
    endloop
  endfacet
  facet normal 0 0.637431 0.770507
    outer loop
      vertex 31 17.6336 9.27051
      vertex 30 20.5364 6.86906
      vertex 30 17.6336 9.27051
    endloop
  endfacet
  facet normal 0 -0.728967 0.684549
    outer loop
      vertex 30 -23.1154 4.12272
      vertex 31 -20.5364 6.86906
      vertex 30 -20.5364 6.86906
    endloop
  endfacet
  facet normal 0 -0.728967 0.684549
    outer loop
      vertex 31 -20.5364 6.86906
      vertex 30 -23.1154 4.12272
      vertex 31 -23.1154 4.12272
    endloop
  endfacet
  facet normal -0 0.53582 0.844332
    outer loop
      vertex 30 17.6336 9.27051
      vertex 31 14.4526 11.2892
      vertex 31 17.6336 9.27051
    endloop
  endfacet
  facet normal 0 0.53582 0.844332
    outer loop
      vertex 31 14.4526 11.2892
      vertex 30 17.6336 9.27051
      vertex 30 14.4526 11.2892
    endloop
  endfacet
  facet normal -0 0.425778 0.904828
    outer loop
      vertex 30 14.4526 11.2892
      vertex 31 11.0437 12.8933
      vertex 31 14.4526 11.2892
    endloop
  endfacet
  facet normal 0 0.425778 0.904828
    outer loop
      vertex 31 11.0437 12.8933
      vertex 30 14.4526 11.2892
      vertex 30 11.0437 12.8933
    endloop
  endfacet
  facet normal 0 -0.30902 0.951056
    outer loop
      vertex 30 -7.4607 14.0575
      vertex 31 -11.0437 12.8933
      vertex 31 -7.4607 14.0575
    endloop
  endfacet
  facet normal 0 -0.30902 0.951056
    outer loop
      vertex 31 -11.0437 12.8933
      vertex 30 -7.4607 14.0575
      vertex 30 -11.0437 12.8933
    endloop
  endfacet
  facet normal 0 0.809022 0.587778
    outer loop
      vertex 31 25.3298 1.0748
      vertex 30 23.1154 4.12272
      vertex 31 23.1154 4.12272
    endloop
  endfacet
  facet normal 0 0.809022 0.587778
    outer loop
      vertex 30 23.1154 4.12272
      vertex 31 25.3298 1.0748
      vertex 30 25.3298 1.0748
    endloop
  endfacet
  facet normal 0 -0.53582 0.844332
    outer loop
      vertex 30 -14.4526 11.2892
      vertex 31 -17.6336 9.27051
      vertex 31 -14.4526 11.2892
    endloop
  endfacet
  facet normal 0 -0.53582 0.844332
    outer loop
      vertex 31 -17.6336 9.27051
      vertex 30 -14.4526 11.2892
      vertex 30 -17.6336 9.27051
    endloop
  endfacet
  facet normal 0 -0.876299 0.481769
    outer loop
      vertex 30 -25.9207 0
      vertex 31 -25.3298 1.0748
      vertex 30 -25.3298 1.0748
    endloop
  endfacet
  facet normal 0 -0.876299 0.481769
    outer loop
      vertex 31 -25.3298 1.0748
      vertex 30 -25.9207 0
      vertex 31 -25.9207 0
    endloop
  endfacet
  facet normal 0 0.876299 0.481769
    outer loop
      vertex 31 25.9207 0
      vertex 30 25.3298 1.0748
      vertex 31 25.3298 1.0748
    endloop
  endfacet
  facet normal 0 0.876299 0.481769
    outer loop
      vertex 30 25.3298 1.0748
      vertex 31 25.9207 0
      vertex 30 25.9207 0
    endloop
  endfacet
  facet normal 0 -0.425778 0.904828
    outer loop
      vertex 30 -11.0437 12.8933
      vertex 31 -14.4526 11.2892
      vertex 31 -11.0437 12.8933
    endloop
  endfacet
  facet normal 0 -0.425778 0.904828
    outer loop
      vertex 31 -14.4526 11.2892
      vertex 30 -11.0437 12.8933
      vertex 30 -14.4526 11.2892
    endloop
  endfacet
  facet normal 0 -0.187369 0.98229
    outer loop
      vertex 30 -3.76 14.7634
      vertex 31 -7.4607 14.0575
      vertex 31 -3.76 14.7634
    endloop
  endfacet
  facet normal 0 -0.187369 0.98229
    outer loop
      vertex 31 -7.4607 14.0575
      vertex 30 -3.76 14.7634
      vertex 30 -7.4607 14.0575
    endloop
  endfacet
  facet normal 0 -0.0628013 0.998026
    outer loop
      vertex 30 0 15
      vertex 31 -3.76 14.7634
      vertex 31 0 15
    endloop
  endfacet
  facet normal 0 -0.0628013 0.998026
    outer loop
      vertex 31 -3.76 14.7634
      vertex 30 0 15
      vertex 30 -3.76 14.7634
    endloop
  endfacet
  facet normal 0 -0.809022 0.587778
    outer loop
      vertex 30 -25.3298 1.0748
      vertex 31 -23.1154 4.12272
      vertex 30 -23.1154 4.12272
    endloop
  endfacet
  facet normal 0 -0.809022 0.587778
    outer loop
      vertex 31 -23.1154 4.12272
      vertex 30 -25.3298 1.0748
      vertex 31 -25.3298 1.0748
    endloop
  endfacet
  facet normal 0 -0.637431 0.770507
    outer loop
      vertex 30 -17.6336 9.27051
      vertex 31 -20.5364 6.86906
      vertex 31 -17.6336 9.27051
    endloop
  endfacet
  facet normal 0 -0.637431 0.770507
    outer loop
      vertex 31 -20.5364 6.86906
      vertex 30 -17.6336 9.27051
      vertex 30 -20.5364 6.86906
    endloop
  endfacet
endsolid OpenSCAD_Model
