solid OpenSCAD_Model
  facet normal 0.587778 0.809022 -0
    outer loop
      vertex 9.56136 11.5577 0
      vertex 8.0374 12.6649 50
      vertex 9.56136 11.5577 50
    endloop
  endfacet
  facet normal 0.587778 0.809022 0
    outer loop
      vertex 8.0374 12.6649 50
      vertex 9.56136 11.5577 0
      vertex 8.0374 12.6649 0
    endloop
  endfacet
  facet normal 0.684557 0.728959 -0
    outer loop
      vertex 10.9345 10.2682 0
      vertex 9.56136 11.5577 50
      vertex 10.9345 10.2682 50
    endloop
  endfacet
  facet normal 0.684557 0.728959 0
    outer loop
      vertex 9.56136 11.5577 50
      vertex 10.9345 10.2682 0
      vertex 9.56136 11.5577 0
    endloop
  endfacet
  facet normal 0.587778 -0.809022 0
    outer loop
      vertex 8.0374 -12.6649 0
      vertex 9.56136 -11.5577 50
      vertex 8.0374 -12.6649 50
    endloop
  endfacet
  facet normal 0.587778 -0.809022 0
    outer loop
      vertex 9.56136 -11.5577 50
      vertex 8.0374 -12.6649 0
      vertex 9.56136 -11.5577 0
    endloop
  endfacet
  facet normal 0.48176 0.876303 -0
    outer loop
      vertex 8.0374 12.6649 0
      vertex 6.38669 13.5724 50
      vertex 8.0374 12.6649 50
    endloop
  endfacet
  facet normal 0.48176 0.876303 0
    outer loop
      vertex 6.38669 13.5724 50
      vertex 8.0374 12.6649 0
      vertex 6.38669 13.5724 0
    endloop
  endfacet
  facet normal 0 -1 0
    outer loop
      vertex -0.941857 -14.9704 0
      vertex 0.941857 -14.9704 50
      vertex -0.941857 -14.9704 50
    endloop
  endfacet
  facet normal 0 -1 -0
    outer loop
      vertex 0.941857 -14.9704 50
      vertex -0.941857 -14.9704 0
      vertex 0.941857 -14.9704 0
    endloop
  endfacet
  facet normal 0.904837 0.425758 0
    outer loop
      vertex 13.9466 5.52187 50
      vertex 13.1446 7.22631 0
      vertex 13.1446 7.22631 50
    endloop
  endfacet
  facet normal 0.904837 0.425758 0
    outer loop
      vertex 13.1446 7.22631 0
      vertex 13.9466 5.52187 50
      vertex 13.9466 5.52187 0
    endloop
  endfacet
  facet normal -0.951057 -0.309017 0
    outer loop
      vertex -13.9466 -5.52187 0
      vertex -14.5287 -3.73035 50
      vertex -14.5287 -3.73035 0
    endloop
  endfacet
  facet normal -0.951057 -0.309017 0
    outer loop
      vertex -14.5287 -3.73035 50
      vertex -13.9466 -5.52187 0
      vertex -13.9466 -5.52187 50
    endloop
  endfacet
  facet normal 0.998026 0.0628013 0
    outer loop
      vertex 15 0 50
      vertex 14.8817 1.88 0
      vertex 14.8817 1.88 50
    endloop
  endfacet
  facet normal 0.998026 0.0628013 0
    outer loop
      vertex 14.8817 1.88 0
      vertex 15 0 50
      vertex 15 0 0
    endloop
  endfacet
  facet normal 0.982285 0.187395 0
    outer loop
      vertex 14.8817 1.88 50
      vertex 14.5287 3.73035 0
      vertex 14.5287 3.73035 50
    endloop
  endfacet
  facet normal 0.982285 0.187395 0
    outer loop
      vertex 14.5287 3.73035 0
      vertex 14.8817 1.88 50
      vertex 14.8817 1.88 0
    endloop
  endfacet
  facet normal -0.24871 -0.968578 0
    outer loop
      vertex -4.63525 -14.2658 0
      vertex -2.81072 -14.7343 50
      vertex -4.63525 -14.2658 50
    endloop
  endfacet
  facet normal -0.24871 -0.968578 -0
    outer loop
      vertex -2.81072 -14.7343 50
      vertex -4.63525 -14.2658 0
      vertex -2.81072 -14.7343 0
    endloop
  endfacet
  facet normal 0.951057 0.309017 0
    outer loop
      vertex 14.5287 3.73035 50
      vertex 13.9466 5.52187 0
      vertex 13.9466 5.52187 50
    endloop
  endfacet
  facet normal 0.951057 0.309017 0
    outer loop
      vertex 13.9466 5.52187 0
      vertex 14.5287 3.73035 50
      vertex 14.5287 3.73035 0
    endloop
  endfacet
  facet normal 0.770492 -0.63745 0
    outer loop
      vertex 10.9345 -10.2682 50
      vertex 12.1353 -8.81678 0
      vertex 12.1353 -8.81678 50
    endloop
  endfacet
  facet normal 0.770492 -0.63745 0
    outer loop
      vertex 12.1353 -8.81678 0
      vertex 10.9345 -10.2682 50
      vertex 10.9345 -10.2682 0
    endloop
  endfacet
  facet normal 0.951057 -0.309017 0
    outer loop
      vertex 13.9466 -5.52187 50
      vertex 14.5287 -3.73035 0
      vertex 14.5287 -3.73035 50
    endloop
  endfacet
  facet normal 0.951057 -0.309017 0
    outer loop
      vertex 14.5287 -3.73035 0
      vertex 13.9466 -5.52187 50
      vertex 13.9466 -5.52187 0
    endloop
  endfacet
  facet normal -0.951057 0.309017 0
    outer loop
      vertex -14.5287 3.73035 0
      vertex -13.9466 5.52187 50
      vertex -13.9466 5.52187 0
    endloop
  endfacet
  facet normal -0.951057 0.309017 0
    outer loop
      vertex -13.9466 5.52187 50
      vertex -14.5287 3.73035 0
      vertex -14.5287 3.73035 50
    endloop
  endfacet
  facet normal -0.904837 -0.425758 0
    outer loop
      vertex -13.1446 -7.22631 0
      vertex -13.9466 -5.52187 50
      vertex -13.9466 -5.52187 0
    endloop
  endfacet
  facet normal -0.904837 -0.425758 0
    outer loop
      vertex -13.9466 -5.52187 50
      vertex -13.1446 -7.22631 0
      vertex -13.1446 -7.22631 50
    endloop
  endfacet
  facet normal 0.125337 -0.992114 0
    outer loop
      vertex 0.941857 -14.9704 0
      vertex 2.81072 -14.7343 50
      vertex 0.941857 -14.9704 50
    endloop
  endfacet
  facet normal 0.125337 -0.992114 0
    outer loop
      vertex 2.81072 -14.7343 50
      vertex 0.941857 -14.9704 0
      vertex 2.81072 -14.7343 0
    endloop
  endfacet
  facet normal 0.982285 -0.187395 0
    outer loop
      vertex 14.5287 -3.73035 50
      vertex 14.8817 -1.88 0
      vertex 14.8817 -1.88 50
    endloop
  endfacet
  facet normal 0.982285 -0.187395 0
    outer loop
      vertex 14.8817 -1.88 0
      vertex 14.5287 -3.73035 50
      vertex 14.5287 -3.73035 0
    endloop
  endfacet
  facet normal 0.684557 -0.728959 0
    outer loop
      vertex 9.56136 -11.5577 0
      vertex 10.9345 -10.2682 50
      vertex 9.56136 -11.5577 50
    endloop
  endfacet
  facet normal 0.684557 -0.728959 0
    outer loop
      vertex 10.9345 -10.2682 50
      vertex 9.56136 -11.5577 0
      vertex 10.9345 -10.2682 0
    endloop
  endfacet
  facet normal -0.982285 -0.187395 0
    outer loop
      vertex -14.5287 -3.73035 0
      vertex -14.8817 -1.88 50
      vertex -14.8817 -1.88 0
    endloop
  endfacet
  facet normal -0.982285 -0.187395 0
    outer loop
      vertex -14.8817 -1.88 50
      vertex -14.5287 -3.73035 0
      vertex -14.5287 -3.73035 50
    endloop
  endfacet
  facet normal 0.998026 -0.0628013 0
    outer loop
      vertex 14.8817 -1.88 50
      vertex 15 0 0
      vertex 15 0 50
    endloop
  endfacet
  facet normal 0.998026 -0.0628013 0
    outer loop
      vertex 15 0 0
      vertex 14.8817 -1.88 50
      vertex 14.8817 -1.88 0
    endloop
  endfacet
  facet normal -0.587778 0.809022 0
    outer loop
      vertex -8.0374 12.6649 0
      vertex -9.56136 11.5577 50
      vertex -8.0374 12.6649 50
    endloop
  endfacet
  facet normal -0.587778 0.809022 0
    outer loop
      vertex -9.56136 11.5577 50
      vertex -8.0374 12.6649 0
      vertex -9.56136 11.5577 0
    endloop
  endfacet
  facet normal -0.48176 0.876303 0
    outer loop
      vertex -6.38669 13.5724 0
      vertex -8.0374 12.6649 50
      vertex -6.38669 13.5724 50
    endloop
  endfacet
  facet normal -0.48176 0.876303 0
    outer loop
      vertex -8.0374 12.6649 50
      vertex -6.38669 13.5724 0
      vertex -8.0374 12.6649 0
    endloop
  endfacet
  facet normal -0.844338 0.535811 0
    outer loop
      vertex -13.1446 7.22631 0
      vertex -12.1353 8.81678 50
      vertex -12.1353 8.81678 0
    endloop
  endfacet
  facet normal -0.844338 0.535811 0
    outer loop
      vertex -12.1353 8.81678 50
      vertex -13.1446 7.22631 0
      vertex -13.1446 7.22631 50
    endloop
  endfacet
  facet normal -0.904837 0.425758 0
    outer loop
      vertex -13.9466 5.52187 0
      vertex -13.1446 7.22631 50
      vertex -13.1446 7.22631 0
    endloop
  endfacet
  facet normal -0.904837 0.425758 0
    outer loop
      vertex -13.1446 7.22631 50
      vertex -13.9466 5.52187 0
      vertex -13.9466 5.52187 50
    endloop
  endfacet
  facet normal -0.684557 -0.728959 0
    outer loop
      vertex -10.9345 -10.2682 0
      vertex -9.56136 -11.5577 50
      vertex -10.9345 -10.2682 50
    endloop
  endfacet
  facet normal -0.684557 -0.728959 -0
    outer loop
      vertex -9.56136 -11.5577 50
      vertex -10.9345 -10.2682 0
      vertex -9.56136 -11.5577 0
    endloop
  endfacet
  facet normal -0.24871 0.968578 0
    outer loop
      vertex -2.81072 14.7343 0
      vertex -4.63525 14.2658 50
      vertex -2.81072 14.7343 50
    endloop
  endfacet
  facet normal -0.24871 0.968578 0
    outer loop
      vertex -4.63525 14.2658 50
      vertex -2.81072 14.7343 0
      vertex -4.63525 14.2658 0
    endloop
  endfacet
  facet normal 0.368104 0.929785 -0
    outer loop
      vertex 6.38669 13.5724 0
      vertex 4.63525 14.2658 50
      vertex 6.38669 13.5724 50
    endloop
  endfacet
  facet normal 0.368104 0.929785 0
    outer loop
      vertex 4.63525 14.2658 50
      vertex 6.38669 13.5724 0
      vertex 4.63525 14.2658 0
    endloop
  endfacet
  facet normal -0.770492 0.63745 0
    outer loop
      vertex -12.1353 8.81678 0
      vertex -10.9345 10.2682 50
      vertex -10.9345 10.2682 0
    endloop
  endfacet
  facet normal -0.770492 0.63745 0
    outer loop
      vertex -10.9345 10.2682 50
      vertex -12.1353 8.81678 0
      vertex -12.1353 8.81678 50
    endloop
  endfacet
  facet normal 0.844338 0.535811 0
    outer loop
      vertex 13.1446 7.22631 50
      vertex 12.1353 8.81678 0
      vertex 12.1353 8.81678 50
    endloop
  endfacet
  facet normal 0.844338 0.535811 0
    outer loop
      vertex 12.1353 8.81678 0
      vertex 13.1446 7.22631 50
      vertex 13.1446 7.22631 0
    endloop
  endfacet
  facet normal 0.24871 0.968578 -0
    outer loop
      vertex 4.63525 14.2658 0
      vertex 2.81072 14.7343 50
      vertex 4.63525 14.2658 50
    endloop
  endfacet
  facet normal 0.24871 0.968578 0
    outer loop
      vertex 2.81072 14.7343 50
      vertex 4.63525 14.2658 0
      vertex 2.81072 14.7343 0
    endloop
  endfacet
  facet normal -0.368104 0.929785 0
    outer loop
      vertex -4.63525 14.2658 0
      vertex -6.38669 13.5724 50
      vertex -4.63525 14.2658 50
    endloop
  endfacet
  facet normal -0.368104 0.929785 0
    outer loop
      vertex -6.38669 13.5724 50
      vertex -4.63525 14.2658 0
      vertex -6.38669 13.5724 0
    endloop
  endfacet
  facet normal -0.684557 0.728959 0
    outer loop
      vertex -9.56136 11.5577 0
      vertex -10.9345 10.2682 50
      vertex -9.56136 11.5577 50
    endloop
  endfacet
  facet normal -0.684557 0.728959 0
    outer loop
      vertex -10.9345 10.2682 50
      vertex -9.56136 11.5577 0
      vertex -10.9345 10.2682 0
    endloop
  endfacet
  facet normal -0.125337 -0.992114 0
    outer loop
      vertex -2.81072 -14.7343 0
      vertex -0.941857 -14.9704 50
      vertex -2.81072 -14.7343 50
    endloop
  endfacet
  facet normal -0.125337 -0.992114 -0
    outer loop
      vertex -0.941857 -14.9704 50
      vertex -2.81072 -14.7343 0
      vertex -0.941857 -14.9704 0
    endloop
  endfacet
  facet normal 0 1 -0
    outer loop
      vertex 0.941857 14.9704 0
      vertex -0.941857 14.9704 50
      vertex 0.941857 14.9704 50
    endloop
  endfacet
  facet normal 0 1 0
    outer loop
      vertex -0.941857 14.9704 50
      vertex 0.941857 14.9704 0
      vertex -0.941857 14.9704 0
    endloop
  endfacet
  facet normal 0.844338 -0.535811 0
    outer loop
      vertex 12.1353 -8.81678 50
      vertex 13.1446 -7.22631 0
      vertex 13.1446 -7.22631 50
    endloop
  endfacet
  facet normal 0.844338 -0.535811 0
    outer loop
      vertex 13.1446 -7.22631 0
      vertex 12.1353 -8.81678 50
      vertex 12.1353 -8.81678 0
    endloop
  endfacet
  facet normal -0.125337 0.992114 0
    outer loop
      vertex -0.941857 14.9704 0
      vertex -2.81072 14.7343 50
      vertex -0.941857 14.9704 50
    endloop
  endfacet
  facet normal -0.125337 0.992114 0
    outer loop
      vertex -2.81072 14.7343 50
      vertex -0.941857 14.9704 0
      vertex -2.81072 14.7343 0
    endloop
  endfacet
  facet normal 0.904837 -0.425758 0
    outer loop
      vertex 13.1446 -7.22631 50
      vertex 13.9466 -5.52187 0
      vertex 13.9466 -5.52187 50
    endloop
  endfacet
  facet normal 0.904837 -0.425758 0
    outer loop
      vertex 13.9466 -5.52187 0
      vertex 13.1446 -7.22631 50
      vertex 13.1446 -7.22631 0
    endloop
  endfacet
  facet normal 0.368104 -0.929785 0
    outer loop
      vertex 4.63525 -14.2658 0
      vertex 6.38669 -13.5724 50
      vertex 4.63525 -14.2658 50
    endloop
  endfacet
  facet normal 0.368104 -0.929785 0
    outer loop
      vertex 6.38669 -13.5724 50
      vertex 4.63525 -14.2658 0
      vertex 6.38669 -13.5724 0
    endloop
  endfacet
  facet normal 0.125337 0.992114 -0
    outer loop
      vertex 2.81072 14.7343 0
      vertex 0.941857 14.9704 50
      vertex 2.81072 14.7343 50
    endloop
  endfacet
  facet normal 0.125337 0.992114 0
    outer loop
      vertex 0.941857 14.9704 50
      vertex 2.81072 14.7343 0
      vertex 0.941857 14.9704 0
    endloop
  endfacet
  facet normal -0.982285 0.187395 0
    outer loop
      vertex -14.8817 1.88 0
      vertex -14.5287 3.73035 50
      vertex -14.5287 3.73035 0
    endloop
  endfacet
  facet normal -0.982285 0.187395 0
    outer loop
      vertex -14.5287 3.73035 50
      vertex -14.8817 1.88 0
      vertex -14.8817 1.88 50
    endloop
  endfacet
  facet normal 0.24871 -0.968578 0
    outer loop
      vertex 2.81072 -14.7343 0
      vertex 4.63525 -14.2658 50
      vertex 2.81072 -14.7343 50
    endloop
  endfacet
  facet normal 0.24871 -0.968578 0
    outer loop
      vertex 4.63525 -14.2658 50
      vertex 2.81072 -14.7343 0
      vertex 4.63525 -14.2658 0
    endloop
  endfacet
  facet normal 0.770492 0.63745 0
    outer loop
      vertex 12.1353 8.81678 50
      vertex 10.9345 10.2682 0
      vertex 10.9345 10.2682 50
    endloop
  endfacet
  facet normal 0.770492 0.63745 0
    outer loop
      vertex 10.9345 10.2682 0
      vertex 12.1353 8.81678 50
      vertex 12.1353 8.81678 0
    endloop
  endfacet
  facet normal -0.770492 -0.63745 0
    outer loop
      vertex -10.9345 -10.2682 0
      vertex -12.1353 -8.81678 50
      vertex -12.1353 -8.81678 0
    endloop
  endfacet
  facet normal -0.770492 -0.63745 0
    outer loop
      vertex -12.1353 -8.81678 50
      vertex -10.9345 -10.2682 0
      vertex -10.9345 -10.2682 50
    endloop
  endfacet
  facet normal 0 0 -1
    outer loop
      vertex 14.8 0 0
      vertex 15 0 0
      vertex 14.8817 -1.88 0
    endloop
  endfacet
  facet normal 0 0 -1
    outer loop
      vertex 15 0 0
      vertex 14.8 0 0
      vertex 14.8817 1.88 0
    endloop
  endfacet
  facet normal 0 0 -1
    outer loop
      vertex 14.8817 -1.88 0
      vertex 14.6833 -1.85493 0
      vertex 14.8 0 0
    endloop
  endfacet
  facet normal 0 0 -1
    outer loop
      vertex 14.5287 -3.73035 0
      vertex 14.6833 -1.85493 0
      vertex 14.8817 -1.88 0
    endloop
  endfacet
  facet normal 0 0 -1
    outer loop
      vertex 14.5287 -3.73035 0
      vertex 14.335 -3.68061 0
      vertex 14.6833 -1.85493 0
    endloop
  endfacet
  facet normal 0 0 -1
    outer loop
      vertex 13.9466 -5.52187 0
      vertex 14.335 -3.68061 0
      vertex 14.5287 -3.73035 0
    endloop
  endfacet
  facet normal 0 0 -1
    outer loop
      vertex 13.9466 -5.52187 0
      vertex 13.7607 -5.44824 0
      vertex 14.335 -3.68061 0
    endloop
  endfacet
  facet normal 0 0 -1
    outer loop
      vertex 13.1446 -7.22631 0
      vertex 13.7607 -5.44824 0
      vertex 13.9466 -5.52187 0
    endloop
  endfacet
  facet normal 0 0 -1
    outer loop
      vertex 13.1446 -7.22631 0
      vertex 12.9693 -7.12995 0
      vertex 13.7607 -5.44824 0
    endloop
  endfacet
  facet normal 0 0 -1
    outer loop
      vertex 12.1353 -8.81678 0
      vertex 12.9693 -7.12995 0
      vertex 13.1446 -7.22631 0
    endloop
  endfacet
  facet normal 0 0 -1
    outer loop
      vertex 12.1353 -8.81678 0
      vertex 11.9735 -8.69922 0
      vertex 12.9693 -7.12995 0
    endloop
  endfacet
  facet normal 0 0 -1
    outer loop
      vertex 10.9345 -10.2682 0
      vertex 11.9735 -8.69922 0
      vertex 12.1353 -8.81678 0
    endloop
  endfacet
  facet normal 0 0 -1
    outer loop
      vertex 10.9345 -10.2682 0
      vertex 10.7887 -10.1313 0
      vertex 11.9735 -8.69922 0
    endloop
  endfacet
  facet normal 0 0 -1
    outer loop
      vertex 9.56136 -11.5577 0
      vertex 10.7887 -10.1313 0
      vertex 10.9345 -10.2682 0
    endloop
  endfacet
  facet normal 0 0 -1
    outer loop
      vertex 9.56136 -11.5577 0
      vertex 9.43387 -11.4036 0
      vertex 10.7887 -10.1313 0
    endloop
  endfacet
  facet normal 0 0 -1
    outer loop
      vertex 8.0374 -12.6649 0
      vertex 9.43387 -11.4036 0
      vertex 9.56136 -11.5577 0
    endloop
  endfacet
  facet normal 0 0 -1
    outer loop
      vertex 8.0374 -12.6649 0
      vertex 7.93024 -12.4961 0
      vertex 9.43387 -11.4036 0
    endloop
  endfacet
  facet normal 0 0 -1
    outer loop
      vertex 6.38669 -13.5724 0
      vertex 7.93024 -12.4961 0
      vertex 8.0374 -12.6649 0
    endloop
  endfacet
  facet normal 0 0 -1
    outer loop
      vertex 6.38669 -13.5724 0
      vertex 6.30153 -13.3914 0
      vertex 7.93024 -12.4961 0
    endloop
  endfacet
  facet normal 0 0 -1
    outer loop
      vertex 4.63525 -14.2658 0
      vertex 6.30153 -13.3914 0
      vertex 6.38669 -13.5724 0
    endloop
  endfacet
  facet normal 0 0 -1
    outer loop
      vertex 4.63525 -14.2658 0
      vertex 4.57345 -14.0756 0
      vertex 6.30153 -13.3914 0
    endloop
  endfacet
  facet normal 0 0 -1
    outer loop
      vertex 2.81072 -14.7343 0
      vertex 4.57345 -14.0756 0
      vertex 4.63525 -14.2658 0
    endloop
  endfacet
  facet normal 0 0 -1
    outer loop
      vertex 2.81072 -14.7343 0
      vertex 2.77324 -14.5379 0
      vertex 4.57345 -14.0756 0
    endloop
  endfacet
  facet normal 0 0 -1
    outer loop
      vertex 0.941857 -14.9704 0
      vertex 2.77324 -14.5379 0
      vertex 2.81072 -14.7343 0
    endloop
  endfacet
  facet normal 0 0 -1
    outer loop
      vertex 0.941857 -14.9704 0
      vertex 0.929299 -14.7708 0
      vertex 2.77324 -14.5379 0
    endloop
  endfacet
  facet normal 0 0 -1
    outer loop
      vertex 0.941857 -14.9704 0
      vertex -0.929299 -14.7708 0
      vertex 0.929299 -14.7708 0
    endloop
  endfacet
  facet normal 0 0 -1
    outer loop
      vertex -0.941857 -14.9704 0
      vertex -0.929299 -14.7708 0
      vertex 0.941857 -14.9704 0
    endloop
  endfacet
  facet normal 0 0 -1
    outer loop
      vertex -0.941857 -14.9704 0
      vertex -2.77324 -14.5379 0
      vertex -0.929299 -14.7708 0
    endloop
  endfacet
  facet normal 0 0 -1
    outer loop
      vertex -2.81072 -14.7343 0
      vertex -2.77324 -14.5379 0
      vertex -0.941857 -14.9704 0
    endloop
  endfacet
  facet normal 0 0 -1
    outer loop
      vertex -2.81072 -14.7343 0
      vertex -4.57345 -14.0756 0
      vertex -2.77324 -14.5379 0
    endloop
  endfacet
  facet normal 0 0 -1
    outer loop
      vertex -4.63525 -14.2658 0
      vertex -4.57345 -14.0756 0
      vertex -2.81072 -14.7343 0
    endloop
  endfacet
  facet normal 0 0 -1
    outer loop
      vertex -4.63525 -14.2658 0
      vertex -6.30153 -13.3914 0
      vertex -4.57345 -14.0756 0
    endloop
  endfacet
  facet normal 0 0 -1
    outer loop
      vertex -6.38669 -13.5724 0
      vertex -6.30153 -13.3914 0
      vertex -4.63525 -14.2658 0
    endloop
  endfacet
  facet normal 0 0 -1
    outer loop
      vertex -6.38669 -13.5724 0
      vertex -7.93024 -12.4961 0
      vertex -6.30153 -13.3914 0
    endloop
  endfacet
  facet normal 0 0 -1
    outer loop
      vertex -8.0374 -12.6649 0
      vertex -7.93024 -12.4961 0
      vertex -6.38669 -13.5724 0
    endloop
  endfacet
  facet normal 0 0 -1
    outer loop
      vertex -8.0374 -12.6649 0
      vertex -9.43387 -11.4036 0
      vertex -7.93024 -12.4961 0
    endloop
  endfacet
  facet normal 0 0 -1
    outer loop
      vertex -9.56136 -11.5577 0
      vertex -9.43387 -11.4036 0
      vertex -8.0374 -12.6649 0
    endloop
  endfacet
  facet normal 0 0 -1
    outer loop
      vertex -9.56136 -11.5577 0
      vertex -10.7887 -10.1313 0
      vertex -9.43387 -11.4036 0
    endloop
  endfacet
  facet normal 0 0 -1
    outer loop
      vertex -10.9345 -10.2682 0
      vertex -10.7887 -10.1313 0
      vertex -9.56136 -11.5577 0
    endloop
  endfacet
  facet normal 0 0 -1
    outer loop
      vertex -10.9345 -10.2682 0
      vertex -11.9735 -8.69922 0
      vertex -10.7887 -10.1313 0
    endloop
  endfacet
  facet normal 0 0 -1
    outer loop
      vertex -12.1353 -8.81678 0
      vertex -11.9735 -8.69922 0
      vertex -10.9345 -10.2682 0
    endloop
  endfacet
  facet normal 0 0 -1
    outer loop
      vertex -12.1353 -8.81678 0
      vertex -12.9693 -7.12995 0
      vertex -11.9735 -8.69922 0
    endloop
  endfacet
  facet normal 0 0 -1
    outer loop
      vertex -13.1446 -7.22631 0
      vertex -12.9693 -7.12995 0
      vertex -12.1353 -8.81678 0
    endloop
  endfacet
  facet normal 0 0 -1
    outer loop
      vertex -13.1446 -7.22631 0
      vertex -13.7607 -5.44824 0
      vertex -12.9693 -7.12995 0
    endloop
  endfacet
  facet normal 0 0 -1
    outer loop
      vertex -13.9466 -5.52187 0
      vertex -13.7607 -5.44824 0
      vertex -13.1446 -7.22631 0
    endloop
  endfacet
  facet normal 0 0 -1
    outer loop
      vertex -13.9466 -5.52187 0
      vertex -14.335 -3.68061 0
      vertex -13.7607 -5.44824 0
    endloop
  endfacet
  facet normal 0 0 -1
    outer loop
      vertex -14.5287 -3.73035 0
      vertex -14.335 -3.68061 0
      vertex -13.9466 -5.52187 0
    endloop
  endfacet
  facet normal 0 0 -1
    outer loop
      vertex -14.5287 -3.73035 0
      vertex -14.6833 -1.85493 0
      vertex -14.335 -3.68061 0
    endloop
  endfacet
  facet normal -0 0 -1
    outer loop
      vertex -14.6833 -1.85493 0
      vertex -14.8817 -1.88 0
      vertex -14.8 0 0
    endloop
  endfacet
  facet normal 0 0 -1
    outer loop
      vertex -14.8817 -1.88 0
      vertex -14.6833 -1.85493 0
      vertex -14.5287 -3.73035 0
    endloop
  endfacet
  facet normal 0 0 -1
    outer loop
      vertex 14.6833 1.85493 0
      vertex 14.8817 1.88 0
      vertex 14.8 0 0
    endloop
  endfacet
  facet normal 0 0 -1
    outer loop
      vertex 14.6833 1.85493 0
      vertex 14.5287 3.73035 0
      vertex 14.8817 1.88 0
    endloop
  endfacet
  facet normal 0 0 -1
    outer loop
      vertex 14.335 3.68061 0
      vertex 14.5287 3.73035 0
      vertex 14.6833 1.85493 0
    endloop
  endfacet
  facet normal 0 0 -1
    outer loop
      vertex 14.335 3.68061 0
      vertex 13.9466 5.52187 0
      vertex 14.5287 3.73035 0
    endloop
  endfacet
  facet normal 0 0 -1
    outer loop
      vertex 13.7607 5.44824 0
      vertex 13.9466 5.52187 0
      vertex 14.335 3.68061 0
    endloop
  endfacet
  facet normal 0 0 -1
    outer loop
      vertex 13.7607 5.44824 0
      vertex 13.1446 7.22631 0
      vertex 13.9466 5.52187 0
    endloop
  endfacet
  facet normal 0 0 -1
    outer loop
      vertex 12.9693 7.12995 0
      vertex 13.1446 7.22631 0
      vertex 13.7607 5.44824 0
    endloop
  endfacet
  facet normal 0 0 -1
    outer loop
      vertex 12.9693 7.12995 0
      vertex 12.1353 8.81678 0
      vertex 13.1446 7.22631 0
    endloop
  endfacet
  facet normal 0 0 -1
    outer loop
      vertex 11.9735 8.69922 0
      vertex 12.1353 8.81678 0
      vertex 12.9693 7.12995 0
    endloop
  endfacet
  facet normal 0 0 -1
    outer loop
      vertex 11.9735 8.69922 0
      vertex 10.9345 10.2682 0
      vertex 12.1353 8.81678 0
    endloop
  endfacet
  facet normal 0 0 -1
    outer loop
      vertex 10.7887 10.1313 0
      vertex 10.9345 10.2682 0
      vertex 11.9735 8.69922 0
    endloop
  endfacet
  facet normal 0 0 -1
    outer loop
      vertex 10.7887 10.1313 0
      vertex 9.56136 11.5577 0
      vertex 10.9345 10.2682 0
    endloop
  endfacet
  facet normal 0 0 -1
    outer loop
      vertex 9.43387 11.4036 0
      vertex 9.56136 11.5577 0
      vertex 10.7887 10.1313 0
    endloop
  endfacet
  facet normal 0 0 -1
    outer loop
      vertex 9.43387 11.4036 0
      vertex 8.0374 12.6649 0
      vertex 9.56136 11.5577 0
    endloop
  endfacet
  facet normal 0 0 -1
    outer loop
      vertex 7.93024 12.4961 0
      vertex 8.0374 12.6649 0
      vertex 9.43387 11.4036 0
    endloop
  endfacet
  facet normal 0 0 -1
    outer loop
      vertex 7.93024 12.4961 0
      vertex 6.38669 13.5724 0
      vertex 8.0374 12.6649 0
    endloop
  endfacet
  facet normal 0 0 -1
    outer loop
      vertex 6.30153 13.3914 0
      vertex 6.38669 13.5724 0
      vertex 7.93024 12.4961 0
    endloop
  endfacet
  facet normal 0 0 -1
    outer loop
      vertex 6.30153 13.3914 0
      vertex 4.63525 14.2658 0
      vertex 6.38669 13.5724 0
    endloop
  endfacet
  facet normal 0 0 -1
    outer loop
      vertex 4.57345 14.0756 0
      vertex 4.63525 14.2658 0
      vertex 6.30153 13.3914 0
    endloop
  endfacet
  facet normal 0 0 -1
    outer loop
      vertex 4.57345 14.0756 0
      vertex 2.81072 14.7343 0
      vertex 4.63525 14.2658 0
    endloop
  endfacet
  facet normal 0 0 -1
    outer loop
      vertex 2.77324 14.5379 0
      vertex 2.81072 14.7343 0
      vertex 4.57345 14.0756 0
    endloop
  endfacet
  facet normal 0 0 -1
    outer loop
      vertex 2.77324 14.5379 0
      vertex 0.941857 14.9704 0
      vertex 2.81072 14.7343 0
    endloop
  endfacet
  facet normal 0 0 -1
    outer loop
      vertex 0.929299 14.7708 0
      vertex 0.941857 14.9704 0
      vertex 2.77324 14.5379 0
    endloop
  endfacet
  facet normal 0 0 -1
    outer loop
      vertex -0.929299 14.7708 0
      vertex 0.941857 14.9704 0
      vertex 0.929299 14.7708 0
    endloop
  endfacet
  facet normal 0 0 -1
    outer loop
      vertex -0.929299 14.7708 0
      vertex -0.941857 14.9704 0
      vertex 0.941857 14.9704 0
    endloop
  endfacet
  facet normal 0 0 -1
    outer loop
      vertex -2.77324 14.5379 0
      vertex -0.941857 14.9704 0
      vertex -0.929299 14.7708 0
    endloop
  endfacet
  facet normal 0 0 -1
    outer loop
      vertex -2.77324 14.5379 0
      vertex -2.81072 14.7343 0
      vertex -0.941857 14.9704 0
    endloop
  endfacet
  facet normal 0 0 -1
    outer loop
      vertex -4.57345 14.0756 0
      vertex -2.81072 14.7343 0
      vertex -2.77324 14.5379 0
    endloop
  endfacet
  facet normal 0 0 -1
    outer loop
      vertex -4.57345 14.0756 0
      vertex -4.63525 14.2658 0
      vertex -2.81072 14.7343 0
    endloop
  endfacet
  facet normal 0 0 -1
    outer loop
      vertex -6.30153 13.3914 0
      vertex -4.63525 14.2658 0
      vertex -4.57345 14.0756 0
    endloop
  endfacet
  facet normal 0 0 -1
    outer loop
      vertex -6.30153 13.3914 0
      vertex -6.38669 13.5724 0
      vertex -4.63525 14.2658 0
    endloop
  endfacet
  facet normal 0 0 -1
    outer loop
      vertex -7.93024 12.4961 0
      vertex -6.38669 13.5724 0
      vertex -6.30153 13.3914 0
    endloop
  endfacet
  facet normal 0 0 -1
    outer loop
      vertex -7.93024 12.4961 0
      vertex -8.0374 12.6649 0
      vertex -6.38669 13.5724 0
    endloop
  endfacet
  facet normal 0 0 -1
    outer loop
      vertex -9.43387 11.4036 0
      vertex -8.0374 12.6649 0
      vertex -7.93024 12.4961 0
    endloop
  endfacet
  facet normal 0 0 -1
    outer loop
      vertex -9.43387 11.4036 0
      vertex -9.56136 11.5577 0
      vertex -8.0374 12.6649 0
    endloop
  endfacet
  facet normal 0 0 -1
    outer loop
      vertex -10.7887 10.1313 0
      vertex -9.56136 11.5577 0
      vertex -9.43387 11.4036 0
    endloop
  endfacet
  facet normal 0 0 -1
    outer loop
      vertex -10.7887 10.1313 0
      vertex -10.9345 10.2682 0
      vertex -9.56136 11.5577 0
    endloop
  endfacet
  facet normal 0 0 -1
    outer loop
      vertex -11.9735 8.69922 0
      vertex -10.9345 10.2682 0
      vertex -10.7887 10.1313 0
    endloop
  endfacet
  facet normal 0 0 -1
    outer loop
      vertex -11.9735 8.69922 0
      vertex -12.1353 8.81678 0
      vertex -10.9345 10.2682 0
    endloop
  endfacet
  facet normal 0 0 -1
    outer loop
      vertex -12.9693 7.12995 0
      vertex -12.1353 8.81678 0
      vertex -11.9735 8.69922 0
    endloop
  endfacet
  facet normal 0 0 -1
    outer loop
      vertex -12.9693 7.12995 0
      vertex -13.1446 7.22631 0
      vertex -12.1353 8.81678 0
    endloop
  endfacet
  facet normal 0 0 -1
    outer loop
      vertex -13.7607 5.44824 0
      vertex -13.1446 7.22631 0
      vertex -12.9693 7.12995 0
    endloop
  endfacet
  facet normal 0 0 -1
    outer loop
      vertex -13.7607 5.44824 0
      vertex -13.9466 5.52187 0
      vertex -13.1446 7.22631 0
    endloop
  endfacet
  facet normal 0 0 -1
    outer loop
      vertex -14.335 3.68061 0
      vertex -13.9466 5.52187 0
      vertex -13.7607 5.44824 0
    endloop
  endfacet
  facet normal 0 0 -1
    outer loop
      vertex -14.335 3.68061 0
      vertex -14.5287 3.73035 0
      vertex -13.9466 5.52187 0
    endloop
  endfacet
  facet normal 0 0 -1
    outer loop
      vertex -14.6833 1.85493 0
      vertex -14.5287 3.73035 0
      vertex -14.335 3.68061 0
    endloop
  endfacet
  facet normal 0 0 -1
    outer loop
      vertex -14.6833 1.85493 0
      vertex -14.8817 1.88 0
      vertex -14.5287 3.73035 0
    endloop
  endfacet
  facet normal 0 0 -1
    outer loop
      vertex -14.8 0 0
      vertex -14.8817 1.88 0
      vertex -14.6833 1.85493 0
    endloop
  endfacet
  facet normal 0 0 -1
    outer loop
      vertex -15 0 0
      vertex -14.8 0 0
      vertex -14.8817 -1.88 0
    endloop
  endfacet
  facet normal 0 0 -1
    outer loop
      vertex -14.8 0 0
      vertex -15 0 0
      vertex -14.8817 1.88 0
    endloop
  endfacet
  facet normal -0.48176 -0.876303 0
    outer loop
      vertex -8.0374 -12.6649 0
      vertex -6.38669 -13.5724 50
      vertex -8.0374 -12.6649 50
    endloop
  endfacet
  facet normal -0.48176 -0.876303 -0
    outer loop
      vertex -6.38669 -13.5724 50
      vertex -8.0374 -12.6649 0
      vertex -6.38669 -13.5724 0
    endloop
  endfacet
  facet normal -0.368104 -0.929785 0
    outer loop
      vertex -6.38669 -13.5724 0
      vertex -4.63525 -14.2658 50
      vertex -6.38669 -13.5724 50
    endloop
  endfacet
  facet normal -0.368104 -0.929785 -0
    outer loop
      vertex -4.63525 -14.2658 50
      vertex -6.38669 -13.5724 0
      vertex -4.63525 -14.2658 0
    endloop
  endfacet
  facet normal -0.998026 -0.0628013 0
    outer loop
      vertex -14.8817 -1.88 0
      vertex -15 0 50
      vertex -15 0 0
    endloop
  endfacet
  facet normal -0.998026 -0.0628013 0
    outer loop
      vertex -15 0 50
      vertex -14.8817 -1.88 0
      vertex -14.8817 -1.88 50
    endloop
  endfacet
  facet normal -0.844338 -0.535811 0
    outer loop
      vertex -12.1353 -8.81678 0
      vertex -13.1446 -7.22631 50
      vertex -13.1446 -7.22631 0
    endloop
  endfacet
  facet normal -0.844338 -0.535811 0
    outer loop
      vertex -13.1446 -7.22631 50
      vertex -12.1353 -8.81678 0
      vertex -12.1353 -8.81678 50
    endloop
  endfacet
  facet normal 0 0 1
    outer loop
      vertex 14.8 0 50
      vertex 15 0 50
      vertex 14.8817 1.88 50
    endloop
  endfacet
  facet normal 0 0 1
    outer loop
      vertex 15 0 50
      vertex 14.8 0 50
      vertex 14.8817 -1.88 50
    endloop
  endfacet
  facet normal 0 0 1
    outer loop
      vertex 14.8817 1.88 50
      vertex 14.6833 1.85493 50
      vertex 14.8 0 50
    endloop
  endfacet
  facet normal 0 0 1
    outer loop
      vertex 14.5287 3.73035 50
      vertex 14.6833 1.85493 50
      vertex 14.8817 1.88 50
    endloop
  endfacet
  facet normal 0 0 1
    outer loop
      vertex 14.5287 3.73035 50
      vertex 14.335 3.68061 50
      vertex 14.6833 1.85493 50
    endloop
  endfacet
  facet normal 0 0 1
    outer loop
      vertex 13.9466 5.52187 50
      vertex 14.335 3.68061 50
      vertex 14.5287 3.73035 50
    endloop
  endfacet
  facet normal 0 0 1
    outer loop
      vertex 13.9466 5.52187 50
      vertex 13.7607 5.44824 50
      vertex 14.335 3.68061 50
    endloop
  endfacet
  facet normal 0 0 1
    outer loop
      vertex 13.1446 7.22631 50
      vertex 13.7607 5.44824 50
      vertex 13.9466 5.52187 50
    endloop
  endfacet
  facet normal 0 0 1
    outer loop
      vertex 13.1446 7.22631 50
      vertex 12.9693 7.12995 50
      vertex 13.7607 5.44824 50
    endloop
  endfacet
  facet normal 0 0 1
    outer loop
      vertex 12.1353 8.81678 50
      vertex 12.9693 7.12995 50
      vertex 13.1446 7.22631 50
    endloop
  endfacet
  facet normal 0 0 1
    outer loop
      vertex 12.1353 8.81678 50
      vertex 11.9735 8.69922 50
      vertex 12.9693 7.12995 50
    endloop
  endfacet
  facet normal 0 0 1
    outer loop
      vertex 10.9345 10.2682 50
      vertex 11.9735 8.69922 50
      vertex 12.1353 8.81678 50
    endloop
  endfacet
  facet normal 0 0 1
    outer loop
      vertex 10.9345 10.2682 50
      vertex 10.7887 10.1313 50
      vertex 11.9735 8.69922 50
    endloop
  endfacet
  facet normal 0 0 1
    outer loop
      vertex 9.56136 11.5577 50
      vertex 10.7887 10.1313 50
      vertex 10.9345 10.2682 50
    endloop
  endfacet
  facet normal 0 0 1
    outer loop
      vertex 9.56136 11.5577 50
      vertex 9.43387 11.4036 50
      vertex 10.7887 10.1313 50
    endloop
  endfacet
  facet normal 0 0 1
    outer loop
      vertex 8.0374 12.6649 50
      vertex 9.43387 11.4036 50
      vertex 9.56136 11.5577 50
    endloop
  endfacet
  facet normal 0 0 1
    outer loop
      vertex 8.0374 12.6649 50
      vertex 7.93024 12.4961 50
      vertex 9.43387 11.4036 50
    endloop
  endfacet
  facet normal 0 0 1
    outer loop
      vertex 6.38669 13.5724 50
      vertex 7.93024 12.4961 50
      vertex 8.0374 12.6649 50
    endloop
  endfacet
  facet normal 0 0 1
    outer loop
      vertex 6.38669 13.5724 50
      vertex 6.30153 13.3914 50
      vertex 7.93024 12.4961 50
    endloop
  endfacet
  facet normal 0 0 1
    outer loop
      vertex 4.63525 14.2658 50
      vertex 6.30153 13.3914 50
      vertex 6.38669 13.5724 50
    endloop
  endfacet
  facet normal 0 0 1
    outer loop
      vertex 4.63525 14.2658 50
      vertex 4.57345 14.0756 50
      vertex 6.30153 13.3914 50
    endloop
  endfacet
  facet normal 0 0 1
    outer loop
      vertex 2.81072 14.7343 50
      vertex 4.57345 14.0756 50
      vertex 4.63525 14.2658 50
    endloop
  endfacet
  facet normal 0 0 1
    outer loop
      vertex 2.81072 14.7343 50
      vertex 2.77324 14.5379 50
      vertex 4.57345 14.0756 50
    endloop
  endfacet
  facet normal 0 0 1
    outer loop
      vertex 0.941857 14.9704 50
      vertex 2.77324 14.5379 50
      vertex 2.81072 14.7343 50
    endloop
  endfacet
  facet normal 0 0 1
    outer loop
      vertex 0.941857 14.9704 50
      vertex 0.929299 14.7708 50
      vertex 2.77324 14.5379 50
    endloop
  endfacet
  facet normal 0 0 1
    outer loop
      vertex 0.941857 14.9704 50
      vertex -0.929299 14.7708 50
      vertex 0.929299 14.7708 50
    endloop
  endfacet
  facet normal -0 0 1
    outer loop
      vertex -0.941857 14.9704 50
      vertex -0.929299 14.7708 50
      vertex 0.941857 14.9704 50
    endloop
  endfacet
  facet normal 0 0 1
    outer loop
      vertex -0.941857 14.9704 50
      vertex -2.77324 14.5379 50
      vertex -0.929299 14.7708 50
    endloop
  endfacet
  facet normal -0 0 1
    outer loop
      vertex -2.81072 14.7343 50
      vertex -2.77324 14.5379 50
      vertex -0.941857 14.9704 50
    endloop
  endfacet
  facet normal 0 0 1
    outer loop
      vertex -2.81072 14.7343 50
      vertex -4.57345 14.0756 50
      vertex -2.77324 14.5379 50
    endloop
  endfacet
  facet normal -0 0 1
    outer loop
      vertex -4.63525 14.2658 50
      vertex -4.57345 14.0756 50
      vertex -2.81072 14.7343 50
    endloop
  endfacet
  facet normal 0 0 1
    outer loop
      vertex -4.63525 14.2658 50
      vertex -6.30153 13.3914 50
      vertex -4.57345 14.0756 50
    endloop
  endfacet
  facet normal -0 0 1
    outer loop
      vertex -6.38669 13.5724 50
      vertex -6.30153 13.3914 50
      vertex -4.63525 14.2658 50
    endloop
  endfacet
  facet normal 0 0 1
    outer loop
      vertex -6.38669 13.5724 50
      vertex -7.93024 12.4961 50
      vertex -6.30153 13.3914 50
    endloop
  endfacet
  facet normal -0 0 1
    outer loop
      vertex -8.0374 12.6649 50
      vertex -7.93024 12.4961 50
      vertex -6.38669 13.5724 50
    endloop
  endfacet
  facet normal 0 0 1
    outer loop
      vertex -8.0374 12.6649 50
      vertex -9.43387 11.4036 50
      vertex -7.93024 12.4961 50
    endloop
  endfacet
  facet normal -0 0 1
    outer loop
      vertex -9.56136 11.5577 50
      vertex -9.43387 11.4036 50
      vertex -8.0374 12.6649 50
    endloop
  endfacet
  facet normal 0 0 1
    outer loop
      vertex -9.56136 11.5577 50
      vertex -10.7887 10.1313 50
      vertex -9.43387 11.4036 50
    endloop
  endfacet
  facet normal -0 0 1
    outer loop
      vertex -10.9345 10.2682 50
      vertex -10.7887 10.1313 50
      vertex -9.56136 11.5577 50
    endloop
  endfacet
  facet normal 0 0 1
    outer loop
      vertex -10.9345 10.2682 50
      vertex -11.9735 8.69922 50
      vertex -10.7887 10.1313 50
    endloop
  endfacet
  facet normal -0 0 1
    outer loop
      vertex -12.1353 8.81678 50
      vertex -11.9735 8.69922 50
      vertex -10.9345 10.2682 50
    endloop
  endfacet
  facet normal 0 0 1
    outer loop
      vertex -12.1353 8.81678 50
      vertex -12.9693 7.12995 50
      vertex -11.9735 8.69922 50
    endloop
  endfacet
  facet normal -0 0 1
    outer loop
      vertex -13.1446 7.22631 50
      vertex -12.9693 7.12995 50
      vertex -12.1353 8.81678 50
    endloop
  endfacet
  facet normal 0 0 1
    outer loop
      vertex -13.1446 7.22631 50
      vertex -13.7607 5.44824 50
      vertex -12.9693 7.12995 50
    endloop
  endfacet
  facet normal -0 0 1
    outer loop
      vertex -13.9466 5.52187 50
      vertex -13.7607 5.44824 50
      vertex -13.1446 7.22631 50
    endloop
  endfacet
  facet normal 0 0 1
    outer loop
      vertex -13.9466 5.52187 50
      vertex -14.335 3.68061 50
      vertex -13.7607 5.44824 50
    endloop
  endfacet
  facet normal -0 0 1
    outer loop
      vertex -14.5287 3.73035 50
      vertex -14.335 3.68061 50
      vertex -13.9466 5.52187 50
    endloop
  endfacet
  facet normal 0 0 1
    outer loop
      vertex -14.5287 3.73035 50
      vertex -14.6833 1.85493 50
      vertex -14.335 3.68061 50
    endloop
  endfacet
  facet normal 0 0 1
    outer loop
      vertex -14.6833 1.85493 50
      vertex -14.8817 1.88 50
      vertex -14.8 0 50
    endloop
  endfacet
  facet normal -0 0 1
    outer loop
      vertex -14.8817 1.88 50
      vertex -14.6833 1.85493 50
      vertex -14.5287 3.73035 50
    endloop
  endfacet
  facet normal -0 0 1
    outer loop
      vertex 14.6833 -1.85493 50
      vertex 14.8817 -1.88 50
      vertex 14.8 0 50
    endloop
  endfacet
  facet normal 0 0 1
    outer loop
      vertex 14.6833 -1.85493 50
      vertex 14.5287 -3.73035 50
      vertex 14.8817 -1.88 50
    endloop
  endfacet
  facet normal -0 0 1
    outer loop
      vertex 14.335 -3.68061 50
      vertex 14.5287 -3.73035 50
      vertex 14.6833 -1.85493 50
    endloop
  endfacet
  facet normal 0 0 1
    outer loop
      vertex 14.335 -3.68061 50
      vertex 13.9466 -5.52187 50
      vertex 14.5287 -3.73035 50
    endloop
  endfacet
  facet normal -0 0 1
    outer loop
      vertex 13.7607 -5.44824 50
      vertex 13.9466 -5.52187 50
      vertex 14.335 -3.68061 50
    endloop
  endfacet
  facet normal 0 0 1
    outer loop
      vertex 13.7607 -5.44824 50
      vertex 13.1446 -7.22631 50
      vertex 13.9466 -5.52187 50
    endloop
  endfacet
  facet normal -0 0 1
    outer loop
      vertex 12.9693 -7.12995 50
      vertex 13.1446 -7.22631 50
      vertex 13.7607 -5.44824 50
    endloop
  endfacet
  facet normal 0 0 1
    outer loop
      vertex 12.9693 -7.12995 50
      vertex 12.1353 -8.81678 50
      vertex 13.1446 -7.22631 50
    endloop
  endfacet
  facet normal -0 0 1
    outer loop
      vertex 11.9735 -8.69922 50
      vertex 12.1353 -8.81678 50
      vertex 12.9693 -7.12995 50
    endloop
  endfacet
  facet normal 0 0 1
    outer loop
      vertex 11.9735 -8.69922 50
      vertex 10.9345 -10.2682 50
      vertex 12.1353 -8.81678 50
    endloop
  endfacet
  facet normal -0 0 1
    outer loop
      vertex 10.7887 -10.1313 50
      vertex 10.9345 -10.2682 50
      vertex 11.9735 -8.69922 50
    endloop
  endfacet
  facet normal 0 0 1
    outer loop
      vertex 10.7887 -10.1313 50
      vertex 9.56136 -11.5577 50
      vertex 10.9345 -10.2682 50
    endloop
  endfacet
  facet normal -0 0 1
    outer loop
      vertex 9.43387 -11.4036 50
      vertex 9.56136 -11.5577 50
      vertex 10.7887 -10.1313 50
    endloop
  endfacet
  facet normal 0 0 1
    outer loop
      vertex 9.43387 -11.4036 50
      vertex 8.0374 -12.6649 50
      vertex 9.56136 -11.5577 50
    endloop
  endfacet
  facet normal -0 0 1
    outer loop
      vertex 7.93024 -12.4961 50
      vertex 8.0374 -12.6649 50
      vertex 9.43387 -11.4036 50
    endloop
  endfacet
  facet normal 0 0 1
    outer loop
      vertex 7.93024 -12.4961 50
      vertex 6.38669 -13.5724 50
      vertex 8.0374 -12.6649 50
    endloop
  endfacet
  facet normal -0 0 1
    outer loop
      vertex 6.30153 -13.3914 50
      vertex 6.38669 -13.5724 50
      vertex 7.93024 -12.4961 50
    endloop
  endfacet
  facet normal 0 0 1
    outer loop
      vertex 6.30153 -13.3914 50
      vertex 4.63525 -14.2658 50
      vertex 6.38669 -13.5724 50
    endloop
  endfacet
  facet normal -0 0 1
    outer loop
      vertex 4.57345 -14.0756 50
      vertex 4.63525 -14.2658 50
      vertex 6.30153 -13.3914 50
    endloop
  endfacet
  facet normal 0 0 1
    outer loop
      vertex 4.57345 -14.0756 50
      vertex 2.81072 -14.7343 50
      vertex 4.63525 -14.2658 50
    endloop
  endfacet
  facet normal -0 0 1
    outer loop
      vertex 2.77324 -14.5379 50
      vertex 2.81072 -14.7343 50
      vertex 4.57345 -14.0756 50
    endloop
  endfacet
  facet normal 0 0 1
    outer loop
      vertex 2.77324 -14.5379 50
      vertex 0.941857 -14.9704 50
      vertex 2.81072 -14.7343 50
    endloop
  endfacet
  facet normal -0 0 1
    outer loop
      vertex 0.929299 -14.7708 50
      vertex 0.941857 -14.9704 50
      vertex 2.77324 -14.5379 50
    endloop
  endfacet
  facet normal -0 0 1
    outer loop
      vertex -0.929299 -14.7708 50
      vertex 0.941857 -14.9704 50
      vertex 0.929299 -14.7708 50
    endloop
  endfacet
  facet normal 0 0 1
    outer loop
      vertex -0.929299 -14.7708 50
      vertex -0.941857 -14.9704 50
      vertex 0.941857 -14.9704 50
    endloop
  endfacet
  facet normal 0 0 1
    outer loop
      vertex -2.77324 -14.5379 50
      vertex -0.941857 -14.9704 50
      vertex -0.929299 -14.7708 50
    endloop
  endfacet
  facet normal 0 0 1
    outer loop
      vertex -2.77324 -14.5379 50
      vertex -2.81072 -14.7343 50
      vertex -0.941857 -14.9704 50
    endloop
  endfacet
  facet normal 0 0 1
    outer loop
      vertex -4.57345 -14.0756 50
      vertex -2.81072 -14.7343 50
      vertex -2.77324 -14.5379 50
    endloop
  endfacet
  facet normal 0 0 1
    outer loop
      vertex -4.57345 -14.0756 50
      vertex -4.63525 -14.2658 50
      vertex -2.81072 -14.7343 50
    endloop
  endfacet
  facet normal 0 0 1
    outer loop
      vertex -6.30153 -13.3914 50
      vertex -4.63525 -14.2658 50
      vertex -4.57345 -14.0756 50
    endloop
  endfacet
  facet normal 0 0 1
    outer loop
      vertex -6.30153 -13.3914 50
      vertex -6.38669 -13.5724 50
      vertex -4.63525 -14.2658 50
    endloop
  endfacet
  facet normal 0 0 1
    outer loop
      vertex -7.93024 -12.4961 50
      vertex -6.38669 -13.5724 50
      vertex -6.30153 -13.3914 50
    endloop
  endfacet
  facet normal 0 0 1
    outer loop
      vertex -7.93024 -12.4961 50
      vertex -8.0374 -12.6649 50
      vertex -6.38669 -13.5724 50
    endloop
  endfacet
  facet normal 0 0 1
    outer loop
      vertex -9.43387 -11.4036 50
      vertex -8.0374 -12.6649 50
      vertex -7.93024 -12.4961 50
    endloop
  endfacet
  facet normal 0 0 1
    outer loop
      vertex -9.43387 -11.4036 50
      vertex -9.56136 -11.5577 50
      vertex -8.0374 -12.6649 50
    endloop
  endfacet
  facet normal 0 0 1
    outer loop
      vertex -10.7887 -10.1313 50
      vertex -9.56136 -11.5577 50
      vertex -9.43387 -11.4036 50
    endloop
  endfacet
  facet normal 0 0 1
    outer loop
      vertex -10.7887 -10.1313 50
      vertex -10.9345 -10.2682 50
      vertex -9.56136 -11.5577 50
    endloop
  endfacet
  facet normal 0 0 1
    outer loop
      vertex -11.9735 -8.69922 50
      vertex -10.9345 -10.2682 50
      vertex -10.7887 -10.1313 50
    endloop
  endfacet
  facet normal 0 0 1
    outer loop
      vertex -11.9735 -8.69922 50
      vertex -12.1353 -8.81678 50
      vertex -10.9345 -10.2682 50
    endloop
  endfacet
  facet normal 0 0 1
    outer loop
      vertex -12.9693 -7.12995 50
      vertex -12.1353 -8.81678 50
      vertex -11.9735 -8.69922 50
    endloop
  endfacet
  facet normal 0 0 1
    outer loop
      vertex -12.9693 -7.12995 50
      vertex -13.1446 -7.22631 50
      vertex -12.1353 -8.81678 50
    endloop
  endfacet
  facet normal 0 0 1
    outer loop
      vertex -13.7607 -5.44824 50
      vertex -13.1446 -7.22631 50
      vertex -12.9693 -7.12995 50
    endloop
  endfacet
  facet normal 0 0 1
    outer loop
      vertex -13.7607 -5.44824 50
      vertex -13.9466 -5.52187 50
      vertex -13.1446 -7.22631 50
    endloop
  endfacet
  facet normal 0 0 1
    outer loop
      vertex -14.335 -3.68061 50
      vertex -13.9466 -5.52187 50
      vertex -13.7607 -5.44824 50
    endloop
  endfacet
  facet normal 0 0 1
    outer loop
      vertex -14.335 -3.68061 50
      vertex -14.5287 -3.73035 50
      vertex -13.9466 -5.52187 50
    endloop
  endfacet
  facet normal 0 0 1
    outer loop
      vertex -14.6833 -1.85493 50
      vertex -14.5287 -3.73035 50
      vertex -14.335 -3.68061 50
    endloop
  endfacet
  facet normal 0 0 1
    outer loop
      vertex -14.6833 -1.85493 50
      vertex -14.8817 -1.88 50
      vertex -14.5287 -3.73035 50
    endloop
  endfacet
  facet normal 0 0 1
    outer loop
      vertex -14.8 0 50
      vertex -14.8817 -1.88 50
      vertex -14.6833 -1.85493 50
    endloop
  endfacet
  facet normal 0 0 1
    outer loop
      vertex -15 0 50
      vertex -14.8 0 50
      vertex -14.8817 1.88 50
    endloop
  endfacet
  facet normal 0 0 1
    outer loop
      vertex -14.8 0 50
      vertex -15 0 50
      vertex -14.8817 -1.88 50
    endloop
  endfacet
  facet normal -0.998026 0.0628013 0
    outer loop
      vertex -15 0 0
      vertex -14.8817 1.88 50
      vertex -14.8817 1.88 0
    endloop
  endfacet
  facet normal -0.998026 0.0628013 0
    outer loop
      vertex -14.8817 1.88 50
      vertex -15 0 0
      vertex -15 0 50
    endloop
  endfacet
  facet normal -0.587778 -0.809022 0
    outer loop
      vertex -9.56136 -11.5577 0
      vertex -8.0374 -12.6649 50
      vertex -9.56136 -11.5577 50
    endloop
  endfacet
  facet normal -0.587778 -0.809022 -0
    outer loop
      vertex -8.0374 -12.6649 50
      vertex -9.56136 -11.5577 0
      vertex -8.0374 -12.6649 0
    endloop
  endfacet
  facet normal 0.48176 -0.876303 0
    outer loop
      vertex 6.38669 -13.5724 0
      vertex 8.0374 -12.6649 50
      vertex 6.38669 -13.5724 50
    endloop
  endfacet
  facet normal 0.48176 -0.876303 0
    outer loop
      vertex 8.0374 -12.6649 50
      vertex 6.38669 -13.5724 0
      vertex 8.0374 -12.6649 0
    endloop
  endfacet
  facet normal 0.684556 -0.728961 0
    outer loop
      vertex -10.7887 10.1313 0
      vertex -9.43387 11.4036 50
      vertex -10.7887 10.1313 50
    endloop
  endfacet
  facet normal 0.684556 -0.728961 0
    outer loop
      vertex -9.43387 11.4036 50
      vertex -10.7887 10.1313 0
      vertex -9.43387 11.4036 0
    endloop
  endfacet
  facet normal -0.587802 -0.809004 0
    outer loop
      vertex 7.93024 12.4961 0
      vertex 9.43387 11.4036 50
      vertex 7.93024 12.4961 50
    endloop
  endfacet
  facet normal -0.587802 -0.809004 -0
    outer loop
      vertex 9.43387 11.4036 50
      vertex 7.93024 12.4961 0
      vertex 9.43387 11.4036 0
    endloop
  endfacet
  facet normal -0.12531 0.992118 0
    outer loop
      vertex 2.77324 -14.5379 0
      vertex 0.929299 -14.7708 50
      vertex 2.77324 -14.5379 50
    endloop
  endfacet
  facet normal -0.12531 0.992118 0
    outer loop
      vertex 0.929299 -14.7708 50
      vertex 2.77324 -14.5379 0
      vertex 0.929299 -14.7708 0
    endloop
  endfacet
  facet normal -0.904817 -0.4258 0
    outer loop
      vertex 13.7607 5.44824 0
      vertex 12.9693 7.12995 50
      vertex 12.9693 7.12995 0
    endloop
  endfacet
  facet normal -0.904817 -0.4258 0
    outer loop
      vertex 12.9693 7.12995 50
      vertex 13.7607 5.44824 0
      vertex 13.7607 5.44824 50
    endloop
  endfacet
  facet normal -0.770492 0.63745 0
    outer loop
      vertex 10.7887 -10.1313 0
      vertex 11.9735 -8.69922 50
      vertex 11.9735 -8.69922 0
    endloop
  endfacet
  facet normal -0.770492 0.63745 0
    outer loop
      vertex 11.9735 -8.69922 50
      vertex 10.7887 -10.1313 0
      vertex 10.7887 -10.1313 50
    endloop
  endfacet
  facet normal -0.684556 0.728961 0
    outer loop
      vertex 10.7887 -10.1313 0
      vertex 9.43387 -11.4036 50
      vertex 10.7887 -10.1313 50
    endloop
  endfacet
  facet normal -0.684556 0.728961 0
    outer loop
      vertex 9.43387 -11.4036 50
      vertex 10.7887 -10.1313 0
      vertex 9.43387 -11.4036 0
    endloop
  endfacet
  facet normal -0.248733 -0.968572 0
    outer loop
      vertex 2.77324 14.5379 0
      vertex 4.57345 14.0756 50
      vertex 2.77324 14.5379 50
    endloop
  endfacet
  facet normal -0.248733 -0.968572 -0
    outer loop
      vertex 4.57345 14.0756 50
      vertex 2.77324 14.5379 0
      vertex 4.57345 14.0756 0
    endloop
  endfacet
  facet normal -0.982284 -0.187398 0
    outer loop
      vertex 14.6833 1.85493 0
      vertex 14.335 3.68061 50
      vertex 14.335 3.68061 0
    endloop
  endfacet
  facet normal -0.982284 -0.187398 0
    outer loop
      vertex 14.335 3.68061 50
      vertex 14.6833 1.85493 0
      vertex 14.6833 1.85493 50
    endloop
  endfacet
  facet normal -0.84435 0.535793 0
    outer loop
      vertex 11.9735 -8.69922 0
      vertex 12.9693 -7.12995 50
      vertex 12.9693 -7.12995 0
    endloop
  endfacet
  facet normal -0.84435 0.535793 0
    outer loop
      vertex 12.9693 -7.12995 50
      vertex 11.9735 -8.69922 0
      vertex 11.9735 -8.69922 50
    endloop
  endfacet
  facet normal -0.904817 0.4258 0
    outer loop
      vertex 12.9693 -7.12995 0
      vertex 13.7607 -5.44824 50
      vertex 13.7607 -5.44824 0
    endloop
  endfacet
  facet normal -0.904817 0.4258 0
    outer loop
      vertex 13.7607 -5.44824 50
      vertex 12.9693 -7.12995 0
      vertex 12.9693 -7.12995 50
    endloop
  endfacet
  facet normal -0.368127 -0.929776 0
    outer loop
      vertex 4.57345 14.0756 0
      vertex 6.30153 13.3914 50
      vertex 4.57345 14.0756 50
    endloop
  endfacet
  facet normal -0.368127 -0.929776 -0
    outer loop
      vertex 6.30153 13.3914 50
      vertex 4.57345 14.0756 0
      vertex 6.30153 13.3914 0
    endloop
  endfacet
  facet normal 0.684556 0.728961 -0
    outer loop
      vertex -9.43387 -11.4036 0
      vertex -10.7887 -10.1313 50
      vertex -9.43387 -11.4036 50
    endloop
  endfacet
  facet normal 0.684556 0.728961 0
    outer loop
      vertex -10.7887 -10.1313 50
      vertex -9.43387 -11.4036 0
      vertex -10.7887 -10.1313 0
    endloop
  endfacet
  facet normal 0.248733 -0.968572 0
    outer loop
      vertex -4.57345 14.0756 0
      vertex -2.77324 14.5379 50
      vertex -4.57345 14.0756 50
    endloop
  endfacet
  facet normal 0.248733 -0.968572 0
    outer loop
      vertex -2.77324 14.5379 50
      vertex -4.57345 14.0756 0
      vertex -2.77324 14.5379 0
    endloop
  endfacet
  facet normal 0.481716 -0.876327 0
    outer loop
      vertex -7.93024 12.4961 0
      vertex -6.30153 13.3914 50
      vertex -7.93024 12.4961 50
    endloop
  endfacet
  facet normal 0.481716 -0.876327 0
    outer loop
      vertex -6.30153 13.3914 50
      vertex -7.93024 12.4961 0
      vertex -6.30153 13.3914 0
    endloop
  endfacet
  facet normal -0.248733 0.968572 0
    outer loop
      vertex 4.57345 -14.0756 0
      vertex 2.77324 -14.5379 50
      vertex 4.57345 -14.0756 50
    endloop
  endfacet
  facet normal -0.248733 0.968572 0
    outer loop
      vertex 2.77324 -14.5379 50
      vertex 4.57345 -14.0756 0
      vertex 2.77324 -14.5379 0
    endloop
  endfacet
  facet normal 0.904817 0.4258 0
    outer loop
      vertex -12.9693 -7.12995 50
      vertex -13.7607 -5.44824 0
      vertex -13.7607 -5.44824 50
    endloop
  endfacet
  facet normal 0.904817 0.4258 0
    outer loop
      vertex -13.7607 -5.44824 0
      vertex -12.9693 -7.12995 50
      vertex -12.9693 -7.12995 0
    endloop
  endfacet
  facet normal -0.84435 -0.535793 0
    outer loop
      vertex 12.9693 7.12995 0
      vertex 11.9735 8.69922 50
      vertex 11.9735 8.69922 0
    endloop
  endfacet
  facet normal -0.84435 -0.535793 0
    outer loop
      vertex 11.9735 8.69922 50
      vertex 12.9693 7.12995 0
      vertex 12.9693 7.12995 50
    endloop
  endfacet
  facet normal -0.368127 0.929776 0
    outer loop
      vertex 6.30153 -13.3914 0
      vertex 4.57345 -14.0756 50
      vertex 6.30153 -13.3914 50
    endloop
  endfacet
  facet normal -0.368127 0.929776 0
    outer loop
      vertex 4.57345 -14.0756 50
      vertex 6.30153 -13.3914 0
      vertex 4.57345 -14.0756 0
    endloop
  endfacet
  facet normal -0.998027 -0.0627893 0
    outer loop
      vertex 14.8 0 0
      vertex 14.6833 1.85493 50
      vertex 14.6833 1.85493 0
    endloop
  endfacet
  facet normal -0.998027 -0.0627893 0
    outer loop
      vertex 14.6833 1.85493 50
      vertex 14.8 0 0
      vertex 14.8 0 50
    endloop
  endfacet
  facet normal -0.684556 -0.728961 0
    outer loop
      vertex 9.43387 11.4036 0
      vertex 10.7887 10.1313 50
      vertex 9.43387 11.4036 50
    endloop
  endfacet
  facet normal -0.684556 -0.728961 -0
    outer loop
      vertex 10.7887 10.1313 50
      vertex 9.43387 11.4036 0
      vertex 10.7887 10.1313 0
    endloop
  endfacet
  facet normal -0.998027 0.0627893 0
    outer loop
      vertex 14.6833 -1.85493 0
      vertex 14.8 0 50
      vertex 14.8 0 0
    endloop
  endfacet
  facet normal -0.998027 0.0627893 0
    outer loop
      vertex 14.8 0 50
      vertex 14.6833 -1.85493 0
      vertex 14.6833 -1.85493 50
    endloop
  endfacet
  facet normal -0.982284 0.187398 0
    outer loop
      vertex 14.335 -3.68061 0
      vertex 14.6833 -1.85493 50
      vertex 14.6833 -1.85493 0
    endloop
  endfacet
  facet normal -0.982284 0.187398 0
    outer loop
      vertex 14.6833 -1.85493 50
      vertex 14.335 -3.68061 0
      vertex 14.335 -3.68061 50
    endloop
  endfacet
  facet normal 0.770492 0.63745 0
    outer loop
      vertex -10.7887 -10.1313 50
      vertex -11.9735 -8.69922 0
      vertex -11.9735 -8.69922 50
    endloop
  endfacet
  facet normal 0.770492 0.63745 0
    outer loop
      vertex -11.9735 -8.69922 0
      vertex -10.7887 -10.1313 50
      vertex -10.7887 -10.1313 0
    endloop
  endfacet
  facet normal -0.951062 -0.308999 0
    outer loop
      vertex 14.335 3.68061 0
      vertex 13.7607 5.44824 50
      vertex 13.7607 5.44824 0
    endloop
  endfacet
  facet normal -0.951062 -0.308999 0
    outer loop
      vertex 13.7607 5.44824 50
      vertex 14.335 3.68061 0
      vertex 14.335 3.68061 50
    endloop
  endfacet
  facet normal 0.12531 -0.992118 0
    outer loop
      vertex -2.77324 14.5379 0
      vertex -0.929299 14.7708 50
      vertex -2.77324 14.5379 50
    endloop
  endfacet
  facet normal 0.12531 -0.992118 0
    outer loop
      vertex -0.929299 14.7708 50
      vertex -2.77324 14.5379 0
      vertex -0.929299 14.7708 0
    endloop
  endfacet
  facet normal 0 1 -0
    outer loop
      vertex 0.929299 -14.7708 0
      vertex -0.929299 -14.7708 50
      vertex 0.929299 -14.7708 50
    endloop
  endfacet
  facet normal 0 1 0
    outer loop
      vertex -0.929299 -14.7708 50
      vertex 0.929299 -14.7708 0
      vertex -0.929299 -14.7708 0
    endloop
  endfacet
  facet normal -0.481716 -0.876327 0
    outer loop
      vertex 6.30153 13.3914 0
      vertex 7.93024 12.4961 50
      vertex 6.30153 13.3914 50
    endloop
  endfacet
  facet normal -0.481716 -0.876327 -0
    outer loop
      vertex 7.93024 12.4961 50
      vertex 6.30153 13.3914 0
      vertex 7.93024 12.4961 0
    endloop
  endfacet
  facet normal 0.12531 0.992118 -0
    outer loop
      vertex -0.929299 -14.7708 0
      vertex -2.77324 -14.5379 50
      vertex -0.929299 -14.7708 50
    endloop
  endfacet
  facet normal 0.12531 0.992118 0
    outer loop
      vertex -2.77324 -14.5379 50
      vertex -0.929299 -14.7708 0
      vertex -2.77324 -14.5379 0
    endloop
  endfacet
  facet normal 0.951062 -0.308999 0
    outer loop
      vertex -14.335 3.68061 50
      vertex -13.7607 5.44824 0
      vertex -13.7607 5.44824 50
    endloop
  endfacet
  facet normal 0.951062 -0.308999 0
    outer loop
      vertex -13.7607 5.44824 0
      vertex -14.335 3.68061 50
      vertex -14.335 3.68061 0
    endloop
  endfacet
  facet normal 0.587802 0.809004 -0
    outer loop
      vertex -7.93024 -12.4961 0
      vertex -9.43387 -11.4036 50
      vertex -7.93024 -12.4961 50
    endloop
  endfacet
  facet normal 0.587802 0.809004 0
    outer loop
      vertex -9.43387 -11.4036 50
      vertex -7.93024 -12.4961 0
      vertex -9.43387 -11.4036 0
    endloop
  endfacet
  facet normal 0.84435 0.535793 0
    outer loop
      vertex -11.9735 -8.69922 50
      vertex -12.9693 -7.12995 0
      vertex -12.9693 -7.12995 50
    endloop
  endfacet
  facet normal 0.84435 0.535793 0
    outer loop
      vertex -12.9693 -7.12995 0
      vertex -11.9735 -8.69922 50
      vertex -11.9735 -8.69922 0
    endloop
  endfacet
  facet normal -0.587802 0.809004 0
    outer loop
      vertex 9.43387 -11.4036 0
      vertex 7.93024 -12.4961 50
      vertex 9.43387 -11.4036 50
    endloop
  endfacet
  facet normal -0.587802 0.809004 0
    outer loop
      vertex 7.93024 -12.4961 50
      vertex 9.43387 -11.4036 0
      vertex 7.93024 -12.4961 0
    endloop
  endfacet
  facet normal -0.770492 -0.63745 0
    outer loop
      vertex 11.9735 8.69922 0
      vertex 10.7887 10.1313 50
      vertex 10.7887 10.1313 0
    endloop
  endfacet
  facet normal -0.770492 -0.63745 0
    outer loop
      vertex 10.7887 10.1313 50
      vertex 11.9735 8.69922 0
      vertex 11.9735 8.69922 50
    endloop
  endfacet
  facet normal 0.982284 -0.187398 0
    outer loop
      vertex -14.6833 1.85493 50
      vertex -14.335 3.68061 0
      vertex -14.335 3.68061 50
    endloop
  endfacet
  facet normal 0.982284 -0.187398 0
    outer loop
      vertex -14.335 3.68061 0
      vertex -14.6833 1.85493 50
      vertex -14.6833 1.85493 0
    endloop
  endfacet
  facet normal 0 -1 0
    outer loop
      vertex -0.929299 14.7708 0
      vertex 0.929299 14.7708 50
      vertex -0.929299 14.7708 50
    endloop
  endfacet
  facet normal 0 -1 -0
    outer loop
      vertex 0.929299 14.7708 50
      vertex -0.929299 14.7708 0
      vertex 0.929299 14.7708 0
    endloop
  endfacet
  facet normal 0.998027 -0.0627893 0
    outer loop
      vertex -14.8 0 50
      vertex -14.6833 1.85493 0
      vertex -14.6833 1.85493 50
    endloop
  endfacet
  facet normal 0.998027 -0.0627893 0
    outer loop
      vertex -14.6833 1.85493 0
      vertex -14.8 0 50
      vertex -14.8 0 0
    endloop
  endfacet
  facet normal 0.368127 -0.929776 0
    outer loop
      vertex -6.30153 13.3914 0
      vertex -4.57345 14.0756 50
      vertex -6.30153 13.3914 50
    endloop
  endfacet
  facet normal 0.368127 -0.929776 0
    outer loop
      vertex -4.57345 14.0756 50
      vertex -6.30153 13.3914 0
      vertex -4.57345 14.0756 0
    endloop
  endfacet
  facet normal 0.998027 0.0627893 0
    outer loop
      vertex -14.6833 -1.85493 50
      vertex -14.8 0 0
      vertex -14.8 0 50
    endloop
  endfacet
  facet normal 0.998027 0.0627893 0
    outer loop
      vertex -14.8 0 0
      vertex -14.6833 -1.85493 50
      vertex -14.6833 -1.85493 0
    endloop
  endfacet
  facet normal 0.982284 0.187398 0
    outer loop
      vertex -14.335 -3.68061 50
      vertex -14.6833 -1.85493 0
      vertex -14.6833 -1.85493 50
    endloop
  endfacet
  facet normal 0.982284 0.187398 0
    outer loop
      vertex -14.6833 -1.85493 0
      vertex -14.335 -3.68061 50
      vertex -14.335 -3.68061 0
    endloop
  endfacet
  facet normal 0.904817 -0.4258 0
    outer loop
      vertex -13.7607 5.44824 50
      vertex -12.9693 7.12995 0
      vertex -12.9693 7.12995 50
    endloop
  endfacet
  facet normal 0.904817 -0.4258 0
    outer loop
      vertex -12.9693 7.12995 0
      vertex -13.7607 5.44824 50
      vertex -13.7607 5.44824 0
    endloop
  endfacet
  facet normal 0.481716 0.876327 -0
    outer loop
      vertex -6.30153 -13.3914 0
      vertex -7.93024 -12.4961 50
      vertex -6.30153 -13.3914 50
    endloop
  endfacet
  facet normal 0.481716 0.876327 0
    outer loop
      vertex -7.93024 -12.4961 50
      vertex -6.30153 -13.3914 0
      vertex -7.93024 -12.4961 0
    endloop
  endfacet
  facet normal -0.481716 0.876327 0
    outer loop
      vertex 7.93024 -12.4961 0
      vertex 6.30153 -13.3914 50
      vertex 7.93024 -12.4961 50
    endloop
  endfacet
  facet normal -0.481716 0.876327 0
    outer loop
      vertex 6.30153 -13.3914 50
      vertex 7.93024 -12.4961 0
      vertex 6.30153 -13.3914 0
    endloop
  endfacet
  facet normal 0.587802 -0.809004 0
    outer loop
      vertex -9.43387 11.4036 0
      vertex -7.93024 12.4961 50
      vertex -9.43387 11.4036 50
    endloop
  endfacet
  facet normal 0.587802 -0.809004 0
    outer loop
      vertex -7.93024 12.4961 50
      vertex -9.43387 11.4036 0
      vertex -7.93024 12.4961 0
    endloop
  endfacet
  facet normal 0.368127 0.929776 -0
    outer loop
      vertex -4.57345 -14.0756 0
      vertex -6.30153 -13.3914 50
      vertex -4.57345 -14.0756 50
    endloop
  endfacet
  facet normal 0.368127 0.929776 0
    outer loop
      vertex -6.30153 -13.3914 50
      vertex -4.57345 -14.0756 0
      vertex -6.30153 -13.3914 0
    endloop
  endfacet
  facet normal -0.951062 0.308999 0
    outer loop
      vertex 13.7607 -5.44824 0
      vertex 14.335 -3.68061 50
      vertex 14.335 -3.68061 0
    endloop
  endfacet
  facet normal -0.951062 0.308999 0
    outer loop
      vertex 14.335 -3.68061 50
      vertex 13.7607 -5.44824 0
      vertex 13.7607 -5.44824 50
    endloop
  endfacet
  facet normal -0.12531 -0.992118 0
    outer loop
      vertex 0.929299 14.7708 0
      vertex 2.77324 14.5379 50
      vertex 0.929299 14.7708 50
    endloop
  endfacet
  facet normal -0.12531 -0.992118 -0
    outer loop
      vertex 2.77324 14.5379 50
      vertex 0.929299 14.7708 0
      vertex 2.77324 14.5379 0
    endloop
  endfacet
  facet normal 0.951062 0.308999 0
    outer loop
      vertex -13.7607 -5.44824 50
      vertex -14.335 -3.68061 0
      vertex -14.335 -3.68061 50
    endloop
  endfacet
  facet normal 0.951062 0.308999 0
    outer loop
      vertex -14.335 -3.68061 0
      vertex -13.7607 -5.44824 50
      vertex -13.7607 -5.44824 0
    endloop
  endfacet
  facet normal 0.84435 -0.535793 0
    outer loop
      vertex -12.9693 7.12995 50
      vertex -11.9735 8.69922 0
      vertex -11.9735 8.69922 50
    endloop
  endfacet
  facet normal 0.84435 -0.535793 0
    outer loop
      vertex -11.9735 8.69922 0
      vertex -12.9693 7.12995 50
      vertex -12.9693 7.12995 0
    endloop
  endfacet
  facet normal 0.770492 -0.63745 0
    outer loop
      vertex -11.9735 8.69922 50
      vertex -10.7887 10.1313 0
      vertex -10.7887 10.1313 50
    endloop
  endfacet
  facet normal 0.770492 -0.63745 0
    outer loop
      vertex -10.7887 10.1313 0
      vertex -11.9735 8.69922 50
      vertex -11.9735 8.69922 0
    endloop
  endfacet
  facet normal 0.248733 0.968572 -0
    outer loop
      vertex -2.77324 -14.5379 0
      vertex -4.57345 -14.0756 50
      vertex -2.77324 -14.5379 50
    endloop
  endfacet
  facet normal 0.248733 0.968572 0
    outer loop
      vertex -4.57345 -14.0756 50
      vertex -2.77324 -14.5379 0
      vertex -4.57345 -14.0756 0
    endloop
  endfacet
endsolid OpenSCAD_Model
