solid OpenSCAD_Model
  facet normal 1 -0 0
    outer loop
      vertex 20 0 10
      vertex 20 20 0
      vertex 20 20 10
    endloop
  endfacet
  facet normal 1 0 0
    outer loop
      vertex 20 20 0
      vertex 20 0 10
      vertex 20 0 0
    endloop
  endfacet
  facet normal 0 0 -1
    outer loop
      vertex 0 0 0
      vertex 20 20 0
      vertex 20 0 0
    endloop
  endfacet
  facet normal -0 0 -1
    outer loop
      vertex 20 20 0
      vertex 0 0 0
      vertex 0 20 0
    endloop
  endfacet
  facet normal -1 0 0
    outer loop
      vertex 0 0 0
      vertex 0 20 10
      vertex 0 20 0
    endloop
  endfacet
  facet normal -1 -0 0
    outer loop
      vertex 0 20 10
      vertex 0 0 0
      vertex 0 0 10
    endloop
  endfacet
  facet normal 0 1 -0
    outer loop
      vertex 20 20 0
      vertex 0 20 10
      vertex 20 20 10
    endloop
  endfacet
  facet normal 0 1 0
    outer loop
      vertex 0 20 10
      vertex 20 20 0
      vertex 0 20 0
    endloop
  endfacet
  facet normal 0 -1 0
    outer loop
      vertex 0 0 0
      vertex 20 0 10
      vertex 0 0 10
    endloop
  endfacet
  facet normal 0 -1 -0
    outer loop
      vertex 20 0 10
      vertex 0 0 0
      vertex 20 0 0
    endloop
  endfacet
  facet normal -1 0 0
    outer loop
      vertex 15 5 5
      vertex 15 15 10
      vertex 15 15 5
    endloop
  endfacet
  facet normal -1 -0 0
    outer loop
      vertex 15 15 10
      vertex 15 5 5
      vertex 15 5 10
    endloop
  endfacet
  facet normal -0 0 1
    outer loop
      vertex 5 15 5
      vertex 15 5 5
      vertex 15 15 5
    endloop
  endfacet
  facet normal 0 0 1
    outer loop
      vertex 15 5 5
      vertex 5 15 5
      vertex 5 5 5
    endloop
  endfacet
  facet normal 1 -0 0
    outer loop
      vertex 5 5 10
      vertex 5 15 5
      vertex 5 15 10
    endloop
  endfacet
  facet normal 1 0 0
    outer loop
      vertex 5 15 5
      vertex 5 5 10
      vertex 5 5 5
    endloop
  endfacet
  facet normal 0 -1 0
    outer loop
      vertex 5 15 5
      vertex 15 15 10
      vertex 5 15 10
    endloop
  endfacet
  facet normal 0 -1 -0
    outer loop
      vertex 15 15 10
      vertex 5 15 5
      vertex 15 15 5
    endloop
  endfacet
  facet normal 0 1 -0
    outer loop
      vertex 15 5 5
      vertex 5 5 10
      vertex 15 5 10
    endloop
  endfacet
  facet normal 0 1 0
    outer loop
      vertex 5 5 10
      vertex 15 5 5
      vertex 5 5 5
    endloop
  endfacet
  facet normal 0 0 1
    outer loop
      vertex 20 20 10
      vertex 15 15 10
      vertex 20 0 10
    endloop
  endfacet
  facet normal 0 0 1
    outer loop
      vertex 20 20 10
      vertex 5 15 10
      vertex 15 15 10
    endloop
  endfacet
  facet normal 0 0 1
    outer loop
      vertex 5 15 10
      vertex 0 20 10
      vertex 5 5 10
    endloop
  endfacet
  facet normal -0 0 1
    outer loop
      vertex 0 20 10
      vertex 5 15 10
      vertex 20 20 10
    endloop
  endfacet
  facet normal -0 0 1
    outer loop
      vertex 15 5 10
      vertex 20 0 10
      vertex 15 15 10
    endloop
  endfacet
  facet normal -0 0 1
    outer loop
      vertex 5 5 10
      vertex 20 0 10
      vertex 15 5 10
    endloop
  endfacet
  facet normal 0 0 1
    outer loop
      vertex 5 5 10
      vertex 0 0 10
      vertex 20 0 10
    endloop
  endfacet
  facet normal 0 0 1
    outer loop
      vertex 0 0 10
      vertex 5 5 10
      vertex 0 20 10
    endloop
  endfacet
  facet normal 1 -0 0
    outer loop
      vertex 50 0 10
      vertex 50 20 0
      vertex 50 20 10
    endloop
  endfacet
  facet normal 1 0 0
    outer loop
      vertex 50 20 0
      vertex 50 0 10
      vertex 50 0 0
    endloop
  endfacet
  facet normal -0 0 1
    outer loop
      vertex 30 20 10
      vertex 50 0 10
      vertex 50 20 10
    endloop
  endfacet
  facet normal 0 0 1
    outer loop
      vertex 50 0 10
      vertex 30 20 10
      vertex 30 0 10
    endloop
  endfacet
  facet normal -1 0 0
    outer loop
      vertex 30 0 0
      vertex 30 20 10
      vertex 30 20 0
    endloop
  endfacet
  facet normal -1 -0 0
    outer loop
      vertex 30 20 10
      vertex 30 0 0
      vertex 30 0 10
    endloop
  endfacet
  facet normal 0 1 -0
    outer loop
      vertex 50 20 0
      vertex 30 20 10
      vertex 50 20 10
    endloop
  endfacet
  facet normal 0 1 0
    outer loop
      vertex 30 20 10
      vertex 50 20 0
      vertex 30 20 0
    endloop
  endfacet
  facet normal 0 -1 0
    outer loop
      vertex 30 0 0
      vertex 50 0 10
      vertex 30 0 10
    endloop
  endfacet
  facet normal 0 -1 -0
    outer loop
      vertex 50 0 10
      vertex 30 0 0
      vertex 50 0 0
    endloop
  endfacet
  facet normal -1 0 0
    outer loop
      vertex 45 5 0
      vertex 45 15 5
      vertex 45 15 0
    endloop
  endfacet
  facet normal -1 -0 0
    outer loop
      vertex 45 15 5
      vertex 45 5 0
      vertex 45 5 5
    endloop
  endfacet
  facet normal 0 0 -1
    outer loop
      vertex 35 5 5
      vertex 45 15 5
      vertex 45 5 5
    endloop
  endfacet
  facet normal -0 0 -1
    outer loop
      vertex 45 15 5
      vertex 35 5 5
      vertex 35 15 5
    endloop
  endfacet
  facet normal 1 -0 0
    outer loop
      vertex 35 5 5
      vertex 35 15 0
      vertex 35 15 5
    endloop
  endfacet
  facet normal 1 0 0
    outer loop
      vertex 35 15 0
      vertex 35 5 5
      vertex 35 5 0
    endloop
  endfacet
  facet normal 0 -1 0
    outer loop
      vertex 35 15 0
      vertex 45 15 5
      vertex 35 15 5
    endloop
  endfacet
  facet normal 0 -1 -0
    outer loop
      vertex 45 15 5
      vertex 35 15 0
      vertex 45 15 0
    endloop
  endfacet
  facet normal 0 1 -0
    outer loop
      vertex 45 5 0
      vertex 35 5 5
      vertex 45 5 5
    endloop
  endfacet
  facet normal 0 1 0
    outer loop
      vertex 35 5 5
      vertex 45 5 0
      vertex 35 5 0
    endloop
  endfacet
  facet normal 0 0 -1
    outer loop
      vertex 50 0 0
      vertex 45 5 0
      vertex 50 20 0
    endloop
  endfacet
  facet normal 0 0 -1
    outer loop
      vertex 50 0 0
      vertex 35 5 0
      vertex 45 5 0
    endloop
  endfacet
  facet normal -0 0 -1
    outer loop
      vertex 35 5 0
      vertex 30 0 0
      vertex 35 15 0
    endloop
  endfacet
  facet normal 0 0 -1
    outer loop
      vertex 30 0 0
      vertex 35 5 0
      vertex 50 0 0
    endloop
  endfacet
  facet normal 0 0 -1
    outer loop
      vertex 45 15 0
      vertex 50 20 0
      vertex 45 5 0
    endloop
  endfacet
  facet normal 0 0 -1
    outer loop
      vertex 35 15 0
      vertex 50 20 0
      vertex 45 15 0
    endloop
  endfacet
  facet normal 0 0 -1
    outer loop
      vertex 35 15 0
      vertex 30 20 0
      vertex 50 20 0
    endloop
  endfacet
  facet normal 0 0 -1
    outer loop
      vertex 30 20 0
      vertex 35 15 0
      vertex 30 0 0
    endloop
  endfacet
endsolid OpenSCAD_Model
