solid OpenSCAD_Model
  facet normal 0.951053 -0.309026 0
    outer loop
      vertex 62.8386 39.8316 10
      vertex 64.4537 44.8022 0
      vertex 64.4537 44.8022 10
    endloop
  endfacet
  facet normal 0.951053 -0.309026 0
    outer loop
      vertex 64.4537 44.8022 0
      vertex 62.8386 39.8316 10
      vertex 62.8386 39.8316 0
    endloop
  endfacet
  facet normal 0.780869 -0.624695 0
    outer loop
      vertex 20.2254 -14.6946 10
      vertex 60.2254 35.3054 0
      vertex 60.2254 35.3054 10
    endloop
  endfacet
  facet normal 0.780869 -0.624695 0
    outer loop
      vertex 60.2254 35.3054 0
      vertex 20.2254 -14.6946 10
      vertex 20.2254 -14.6946 0
    endloop
  endfacet
  facet normal 0.994522 -0.104526 0
    outer loop
      vertex 64.4537 44.8022 10
      vertex 65 50 0
      vertex 65 50 10
    endloop
  endfacet
  facet normal 0.994522 -0.104526 0
    outer loop
      vertex 65 50 0
      vertex 64.4537 44.8022 10
      vertex 64.4537 44.8022 0
    endloop
  endfacet
  facet normal 0 1 -0
    outer loop
      vertex 42.6132 74.863 0
      vertex -42.6132 74.863 10
      vertex 42.6132 74.863 10
    endloop
  endfacet
  facet normal 0 1 0
    outer loop
      vertex -42.6132 74.863 10
      vertex 42.6132 74.863 0
      vertex -42.6132 74.863 0
    endloop
  endfacet
  facet normal 0.951053 0.309026 0
    outer loop
      vertex 64.4537 55.1978 10
      vertex 62.8386 60.1684 0
      vertex 62.8386 60.1684 10
    endloop
  endfacet
  facet normal 0.951053 0.309026 0
    outer loop
      vertex 62.8386 60.1684 0
      vertex 64.4537 55.1978 10
      vertex 64.4537 55.1978 0
    endloop
  endfacet
  facet normal 0.406738 0.913545 -0
    outer loop
      vertex 52.5 71.6506 0
      vertex 47.7254 73.7764 10
      vertex 52.5 71.6506 10
    endloop
  endfacet
  facet normal 0.406738 0.913545 0
    outer loop
      vertex 47.7254 73.7764 10
      vertex 52.5 71.6506 0
      vertex 47.7254 73.7764 0
    endloop
  endfacet
  facet normal -0.866026 0.5 0
    outer loop
      vertex -62.8386 60.1684 0
      vertex -60.2254 64.6946 10
      vertex -60.2254 64.6946 0
    endloop
  endfacet
  facet normal -0.866026 0.5 0
    outer loop
      vertex -60.2254 64.6946 10
      vertex -62.8386 60.1684 0
      vertex -62.8386 60.1684 10
    endloop
  endfacet
  facet normal 0.866026 -0.5 0
    outer loop
      vertex 60.2254 35.3054 10
      vertex 62.8386 39.8316 0
      vertex 62.8386 39.8316 10
    endloop
  endfacet
  facet normal 0.866026 -0.5 0
    outer loop
      vertex 62.8386 39.8316 0
      vertex 60.2254 35.3054 10
      vertex 60.2254 35.3054 0
    endloop
  endfacet
  facet normal 0.994522 0.104526 0
    outer loop
      vertex 65 50 10
      vertex 64.4537 55.1978 0
      vertex 64.4537 55.1978 10
    endloop
  endfacet
  facet normal 0.994522 0.104526 0
    outer loop
      vertex 64.4537 55.1978 0
      vertex 65 50 10
      vertex 65 50 0
    endloop
  endfacet
  facet normal 0.743151 -0.669123 0
    outer loop
      vertex 16.7283 -18.5786 10
      vertex 20.2254 -14.6946 0
      vertex 20.2254 -14.6946 10
    endloop
  endfacet
  facet normal 0.743151 -0.669123 0
    outer loop
      vertex 20.2254 -14.6946 0
      vertex 16.7283 -18.5786 10
      vertex 16.7283 -18.5786 0
    endloop
  endfacet
  facet normal 0.743151 0.669123 0
    outer loop
      vertex 60.2254 64.6946 10
      vertex 56.7283 68.5786 0
      vertex 56.7283 68.5786 10
    endloop
  endfacet
  facet normal 0.743151 0.669123 0
    outer loop
      vertex 56.7283 68.5786 0
      vertex 60.2254 64.6946 10
      vertex 60.2254 64.6946 0
    endloop
  endfacet
  facet normal -0.994522 -0.104526 0
    outer loop
      vertex -64.4537 44.8022 0
      vertex -65 50 10
      vertex -65 50 0
    endloop
  endfacet
  facet normal -0.994522 -0.104526 0
    outer loop
      vertex -65 50 10
      vertex -64.4537 44.8022 0
      vertex -64.4537 44.8022 10
    endloop
  endfacet
  facet normal -0.951053 0.309026 0
    outer loop
      vertex -64.4537 55.1978 0
      vertex -62.8386 60.1684 10
      vertex -62.8386 60.1684 0
    endloop
  endfacet
  facet normal -0.951053 0.309026 0
    outer loop
      vertex -62.8386 60.1684 10
      vertex -64.4537 55.1978 0
      vertex -64.4537 55.1978 10
    endloop
  endfacet
  facet normal 0.207906 -0.978149 0
    outer loop
      vertex 2.61321 -24.863 0
      vertex 7.72542 -23.7764 10
      vertex 2.61321 -24.863 10
    endloop
  endfacet
  facet normal 0.207906 -0.978149 0
    outer loop
      vertex 7.72542 -23.7764 10
      vertex 2.61321 -24.863 0
      vertex 7.72542 -23.7764 0
    endloop
  endfacet
  facet normal -0.207906 0.978149 0
    outer loop
      vertex -42.6132 74.863 0
      vertex -47.7254 73.7764 10
      vertex -42.6132 74.863 10
    endloop
  endfacet
  facet normal -0.207906 0.978149 0
    outer loop
      vertex -47.7254 73.7764 10
      vertex -42.6132 74.863 0
      vertex -47.7254 73.7764 0
    endloop
  endfacet
  facet normal 0.207906 0.978149 -0
    outer loop
      vertex 47.7254 73.7764 0
      vertex 42.6132 74.863 10
      vertex 47.7254 73.7764 10
    endloop
  endfacet
  facet normal 0.207906 0.978149 0
    outer loop
      vertex 42.6132 74.863 10
      vertex 47.7254 73.7764 0
      vertex 42.6132 74.863 0
    endloop
  endfacet
  facet normal -0.780869 -0.624695 0
    outer loop
      vertex -20.2254 -14.6946 0
      vertex -60.2254 35.3054 10
      vertex -60.2254 35.3054 0
    endloop
  endfacet
  facet normal -0.780869 -0.624695 0
    outer loop
      vertex -60.2254 35.3054 10
      vertex -20.2254 -14.6946 0
      vertex -20.2254 -14.6946 10
    endloop
  endfacet
  facet normal -0.58778 -0.809021 0
    outer loop
      vertex -16.7283 -18.5786 0
      vertex -12.5 -21.6506 10
      vertex -16.7283 -18.5786 10
    endloop
  endfacet
  facet normal -0.58778 -0.809021 -0
    outer loop
      vertex -12.5 -21.6506 10
      vertex -16.7283 -18.5786 0
      vertex -12.5 -21.6506 0
    endloop
  endfacet
  facet normal -0.866026 -0.5 0
    outer loop
      vertex -60.2254 35.3054 0
      vertex -62.8386 39.8316 10
      vertex -62.8386 39.8316 0
    endloop
  endfacet
  facet normal -0.866026 -0.5 0
    outer loop
      vertex -62.8386 39.8316 10
      vertex -60.2254 35.3054 0
      vertex -60.2254 35.3054 10
    endloop
  endfacet
  facet normal -0.406738 0.913545 0
    outer loop
      vertex -47.7254 73.7764 0
      vertex -52.5 71.6506 10
      vertex -47.7254 73.7764 10
    endloop
  endfacet
  facet normal -0.406738 0.913545 0
    outer loop
      vertex -52.5 71.6506 10
      vertex -47.7254 73.7764 0
      vertex -52.5 71.6506 0
    endloop
  endfacet
  facet normal 0.58778 -0.809021 0
    outer loop
      vertex 12.5 -21.6506 0
      vertex 16.7283 -18.5786 10
      vertex 12.5 -21.6506 10
    endloop
  endfacet
  facet normal 0.58778 -0.809021 0
    outer loop
      vertex 16.7283 -18.5786 10
      vertex 12.5 -21.6506 0
      vertex 16.7283 -18.5786 0
    endloop
  endfacet
  facet normal 0 0 -1
    outer loop
      vertex 60 50 0
      vertex 65 50 0
      vertex 64.4537 44.8022 0
    endloop
  endfacet
  facet normal 0 0 -1
    outer loop
      vertex 59.563 45.8418 0
      vertex 64.4537 44.8022 0
      vertex 62.8386 39.8316 0
    endloop
  endfacet
  facet normal 0 0 -1
    outer loop
      vertex 65 50 0
      vertex 60 50 0
      vertex 64.4537 55.1978 0
    endloop
  endfacet
  facet normal 0 0 -1
    outer loop
      vertex 58.2709 41.8653 0
      vertex 62.8386 39.8316 0
      vertex 60.2254 35.3054 0
    endloop
  endfacet
  facet normal 0 0 -1
    outer loop
      vertex 59.563 54.1582 0
      vertex 64.4537 55.1978 0
      vertex 60 50 0
    endloop
  endfacet
  facet normal -0 0 -1
    outer loop
      vertex 64.4537 55.1978 0
      vertex 59.563 54.1582 0
      vertex 62.8386 60.1684 0
    endloop
  endfacet
  facet normal 0 0 -1
    outer loop
      vertex 64.4537 44.8022 0
      vertex 59.563 45.8418 0
      vertex 60 50 0
    endloop
  endfacet
  facet normal 0 0 -1
    outer loop
      vertex 62.8386 39.8316 0
      vertex 58.2709 41.8653 0
      vertex 59.563 45.8418 0
    endloop
  endfacet
  facet normal 0 0 -1
    outer loop
      vertex 60.2254 35.3054 0
      vertex 56.1803 38.2443 0
      vertex 58.2709 41.8653 0
    endloop
  endfacet
  facet normal 0 0 -1
    outer loop
      vertex 20.2254 -14.6946 0
      vertex 56.1803 38.2443 0
      vertex 60.2254 35.3054 0
    endloop
  endfacet
  facet normal 0 0 -1
    outer loop
      vertex 16.1803 -11.7557 0
      vertex 20.2254 -14.6946 0
      vertex 16.7283 -18.5786 0
    endloop
  endfacet
  facet normal 0 0 -1
    outer loop
      vertex 20.2254 -14.6946 0
      vertex 16.1803 -11.7557 0
      vertex 56.1803 38.2443 0
    endloop
  endfacet
  facet normal 0 0 -1
    outer loop
      vertex 16.7283 -18.5786 0
      vertex 13.3826 -14.8629 0
      vertex 16.1803 -11.7557 0
    endloop
  endfacet
  facet normal 0 0 -1
    outer loop
      vertex 12.5 -21.6506 0
      vertex 13.3826 -14.8629 0
      vertex 16.7283 -18.5786 0
    endloop
  endfacet
  facet normal 0 0 -1
    outer loop
      vertex 12.5 -21.6506 0
      vertex 10 -17.3205 0
      vertex 13.3826 -14.8629 0
    endloop
  endfacet
  facet normal 0 0 -1
    outer loop
      vertex 7.72542 -23.7764 0
      vertex 10 -17.3205 0
      vertex 12.5 -21.6506 0
    endloop
  endfacet
  facet normal 0 0 -1
    outer loop
      vertex 7.72542 -23.7764 0
      vertex 6.18034 -19.0211 0
      vertex 10 -17.3205 0
    endloop
  endfacet
  facet normal 0 0 -1
    outer loop
      vertex 2.61321 -24.863 0
      vertex 6.18034 -19.0211 0
      vertex 7.72542 -23.7764 0
    endloop
  endfacet
  facet normal 0 0 -1
    outer loop
      vertex 2.61321 -24.863 0
      vertex 2.09057 -19.8904 0
      vertex 6.18034 -19.0211 0
    endloop
  endfacet
  facet normal 0 0 -1
    outer loop
      vertex 2.61321 -24.863 0
      vertex -2.09057 -19.8904 0
      vertex 2.09057 -19.8904 0
    endloop
  endfacet
  facet normal 0 0 -1
    outer loop
      vertex -2.61321 -24.863 0
      vertex -2.09057 -19.8904 0
      vertex 2.61321 -24.863 0
    endloop
  endfacet
  facet normal 0 0 -1
    outer loop
      vertex -2.61321 -24.863 0
      vertex -6.18034 -19.0211 0
      vertex -2.09057 -19.8904 0
    endloop
  endfacet
  facet normal 0 0 -1
    outer loop
      vertex -7.72542 -23.7764 0
      vertex -6.18034 -19.0211 0
      vertex -2.61321 -24.863 0
    endloop
  endfacet
  facet normal 0 0 -1
    outer loop
      vertex -7.72542 -23.7764 0
      vertex -10 -17.3205 0
      vertex -6.18034 -19.0211 0
    endloop
  endfacet
  facet normal 0 0 -1
    outer loop
      vertex -12.5 -21.6506 0
      vertex -10 -17.3205 0
      vertex -7.72542 -23.7764 0
    endloop
  endfacet
  facet normal 0 0 -1
    outer loop
      vertex -12.5 -21.6506 0
      vertex -13.3826 -14.8629 0
      vertex -10 -17.3205 0
    endloop
  endfacet
  facet normal 0 0 -1
    outer loop
      vertex -16.7283 -18.5786 0
      vertex -13.3826 -14.8629 0
      vertex -12.5 -21.6506 0
    endloop
  endfacet
  facet normal -0 0 -1
    outer loop
      vertex -13.3826 -14.8629 0
      vertex -16.7283 -18.5786 0
      vertex -16.1803 -11.7557 0
    endloop
  endfacet
  facet normal 0 0 -1
    outer loop
      vertex -20.2254 -14.6946 0
      vertex -16.1803 -11.7557 0
      vertex -16.7283 -18.5786 0
    endloop
  endfacet
  facet normal 0 0 -1
    outer loop
      vertex -20.2254 -14.6946 0
      vertex -56.1803 38.2443 0
      vertex -16.1803 -11.7557 0
    endloop
  endfacet
  facet normal -0 0 -1
    outer loop
      vertex -58.2709 41.8653 0
      vertex -62.8386 39.8316 0
      vertex -59.563 45.8418 0
    endloop
  endfacet
  facet normal 0 0 -1
    outer loop
      vertex -62.8386 39.8316 0
      vertex -58.2709 41.8653 0
      vertex -60.2254 35.3054 0
    endloop
  endfacet
  facet normal -0 0 -1
    outer loop
      vertex -56.1803 38.2443 0
      vertex -60.2254 35.3054 0
      vertex -58.2709 41.8653 0
    endloop
  endfacet
  facet normal 0 0 -1
    outer loop
      vertex -60.2254 35.3054 0
      vertex -56.1803 38.2443 0
      vertex -20.2254 -14.6946 0
    endloop
  endfacet
  facet normal 0 0 -1
    outer loop
      vertex 58.2709 58.1347 0
      vertex 62.8386 60.1684 0
      vertex 59.563 54.1582 0
    endloop
  endfacet
  facet normal -0 0 -1
    outer loop
      vertex 62.8386 60.1684 0
      vertex 58.2709 58.1347 0
      vertex 60.2254 64.6946 0
    endloop
  endfacet
  facet normal 0 0 -1
    outer loop
      vertex 56.1803 61.7557 0
      vertex 60.2254 64.6946 0
      vertex 58.2709 58.1347 0
    endloop
  endfacet
  facet normal -0 0 -1
    outer loop
      vertex 60.2254 64.6946 0
      vertex 56.1803 61.7557 0
      vertex 56.7283 68.5786 0
    endloop
  endfacet
  facet normal 0 0 -1
    outer loop
      vertex 53.3826 64.8629 0
      vertex 56.7283 68.5786 0
      vertex 56.1803 61.7557 0
    endloop
  endfacet
  facet normal 0 0 -1
    outer loop
      vertex 53.3826 64.8629 0
      vertex 52.5 71.6506 0
      vertex 56.7283 68.5786 0
    endloop
  endfacet
  facet normal 0 0 -1
    outer loop
      vertex 50 67.3205 0
      vertex 52.5 71.6506 0
      vertex 53.3826 64.8629 0
    endloop
  endfacet
  facet normal 0 0 -1
    outer loop
      vertex 50 67.3205 0
      vertex 47.7254 73.7764 0
      vertex 52.5 71.6506 0
    endloop
  endfacet
  facet normal 0 0 -1
    outer loop
      vertex 46.1803 69.0211 0
      vertex 47.7254 73.7764 0
      vertex 50 67.3205 0
    endloop
  endfacet
  facet normal 0 0 -1
    outer loop
      vertex 46.1803 69.0211 0
      vertex 42.6132 74.863 0
      vertex 47.7254 73.7764 0
    endloop
  endfacet
  facet normal 0 0 -1
    outer loop
      vertex 42.0906 69.8904 0
      vertex 42.6132 74.863 0
      vertex 46.1803 69.0211 0
    endloop
  endfacet
  facet normal 0 0 -1
    outer loop
      vertex -42.0906 69.8904 0
      vertex 42.6132 74.863 0
      vertex 42.0906 69.8904 0
    endloop
  endfacet
  facet normal 0 0 -1
    outer loop
      vertex -42.0906 69.8904 0
      vertex -42.6132 74.863 0
      vertex 42.6132 74.863 0
    endloop
  endfacet
  facet normal 0 0 -1
    outer loop
      vertex -46.1803 69.0211 0
      vertex -42.6132 74.863 0
      vertex -42.0906 69.8904 0
    endloop
  endfacet
  facet normal 0 0 -1
    outer loop
      vertex -46.1803 69.0211 0
      vertex -47.7254 73.7764 0
      vertex -42.6132 74.863 0
    endloop
  endfacet
  facet normal 0 0 -1
    outer loop
      vertex -50 67.3205 0
      vertex -47.7254 73.7764 0
      vertex -46.1803 69.0211 0
    endloop
  endfacet
  facet normal 0 0 -1
    outer loop
      vertex -50 67.3205 0
      vertex -52.5 71.6506 0
      vertex -47.7254 73.7764 0
    endloop
  endfacet
  facet normal 0 0 -1
    outer loop
      vertex -53.3826 64.8629 0
      vertex -52.5 71.6506 0
      vertex -50 67.3205 0
    endloop
  endfacet
  facet normal 0 0 -1
    outer loop
      vertex -56.7283 68.5786 0
      vertex -53.3826 64.8629 0
      vertex -56.1803 61.7557 0
    endloop
  endfacet
  facet normal 0 0 -1
    outer loop
      vertex -53.3826 64.8629 0
      vertex -56.7283 68.5786 0
      vertex -52.5 71.6506 0
    endloop
  endfacet
  facet normal 0 0 -1
    outer loop
      vertex -60.2254 64.6946 0
      vertex -56.1803 61.7557 0
      vertex -58.2709 58.1347 0
    endloop
  endfacet
  facet normal 0 0 -1
    outer loop
      vertex -62.8386 60.1684 0
      vertex -58.2709 58.1347 0
      vertex -59.563 54.1582 0
    endloop
  endfacet
  facet normal 0 0 -1
    outer loop
      vertex -56.1803 61.7557 0
      vertex -60.2254 64.6946 0
      vertex -56.7283 68.5786 0
    endloop
  endfacet
  facet normal 0 0 -1
    outer loop
      vertex -64.4537 55.1978 0
      vertex -59.563 54.1582 0
      vertex -60 50 0
    endloop
  endfacet
  facet normal 0 0 -1
    outer loop
      vertex -64.4537 44.8022 0
      vertex -59.563 45.8418 0
      vertex -62.8386 39.8316 0
    endloop
  endfacet
  facet normal -0 0 -1
    outer loop
      vertex -59.563 45.8418 0
      vertex -64.4537 44.8022 0
      vertex -60 50 0
    endloop
  endfacet
  facet normal 0 0 -1
    outer loop
      vertex -58.2709 58.1347 0
      vertex -62.8386 60.1684 0
      vertex -60.2254 64.6946 0
    endloop
  endfacet
  facet normal 0 0 -1
    outer loop
      vertex -65 50 0
      vertex -60 50 0
      vertex -64.4537 44.8022 0
    endloop
  endfacet
  facet normal 0 0 -1
    outer loop
      vertex -59.563 54.1582 0
      vertex -64.4537 55.1978 0
      vertex -62.8386 60.1684 0
    endloop
  endfacet
  facet normal 0 0 -1
    outer loop
      vertex -60 50 0
      vertex -65 50 0
      vertex -64.4537 55.1978 0
    endloop
  endfacet
  facet normal 0.866026 0.5 0
    outer loop
      vertex 62.8386 60.1684 10
      vertex 60.2254 64.6946 0
      vertex 60.2254 64.6946 10
    endloop
  endfacet
  facet normal 0.866026 0.5 0
    outer loop
      vertex 60.2254 64.6946 0
      vertex 62.8386 60.1684 10
      vertex 62.8386 60.1684 0
    endloop
  endfacet
  facet normal -0.994522 0.104526 0
    outer loop
      vertex -65 50 0
      vertex -64.4537 55.1978 10
      vertex -64.4537 55.1978 0
    endloop
  endfacet
  facet normal -0.994522 0.104526 0
    outer loop
      vertex -64.4537 55.1978 10
      vertex -65 50 0
      vertex -65 50 10
    endloop
  endfacet
  facet normal 0.58778 0.809021 -0
    outer loop
      vertex 56.7283 68.5786 0
      vertex 52.5 71.6506 10
      vertex 56.7283 68.5786 10
    endloop
  endfacet
  facet normal 0.58778 0.809021 0
    outer loop
      vertex 52.5 71.6506 10
      vertex 56.7283 68.5786 0
      vertex 52.5 71.6506 0
    endloop
  endfacet
  facet normal -0.743151 -0.669123 0
    outer loop
      vertex -16.7283 -18.5786 0
      vertex -20.2254 -14.6946 10
      vertex -20.2254 -14.6946 0
    endloop
  endfacet
  facet normal -0.743151 -0.669123 0
    outer loop
      vertex -20.2254 -14.6946 10
      vertex -16.7283 -18.5786 0
      vertex -16.7283 -18.5786 10
    endloop
  endfacet
  facet normal -0.207906 -0.978149 0
    outer loop
      vertex -7.72542 -23.7764 0
      vertex -2.61321 -24.863 10
      vertex -7.72542 -23.7764 10
    endloop
  endfacet
  facet normal -0.207906 -0.978149 -0
    outer loop
      vertex -2.61321 -24.863 10
      vertex -7.72542 -23.7764 0
      vertex -2.61321 -24.863 0
    endloop
  endfacet
  facet normal -0.58778 0.809021 0
    outer loop
      vertex -52.5 71.6506 0
      vertex -56.7283 68.5786 10
      vertex -52.5 71.6506 10
    endloop
  endfacet
  facet normal -0.58778 0.809021 0
    outer loop
      vertex -56.7283 68.5786 10
      vertex -52.5 71.6506 0
      vertex -56.7283 68.5786 0
    endloop
  endfacet
  facet normal -0.40674 -0.913544 0
    outer loop
      vertex -12.5 -21.6506 0
      vertex -7.72542 -23.7764 10
      vertex -12.5 -21.6506 10
    endloop
  endfacet
  facet normal -0.40674 -0.913544 -0
    outer loop
      vertex -7.72542 -23.7764 10
      vertex -12.5 -21.6506 0
      vertex -7.72542 -23.7764 0
    endloop
  endfacet
  facet normal 0.40674 -0.913544 0
    outer loop
      vertex 7.72542 -23.7764 0
      vertex 12.5 -21.6506 10
      vertex 7.72542 -23.7764 10
    endloop
  endfacet
  facet normal 0.40674 -0.913544 0
    outer loop
      vertex 12.5 -21.6506 10
      vertex 7.72542 -23.7764 0
      vertex 12.5 -21.6506 0
    endloop
  endfacet
  facet normal 0 -1 0
    outer loop
      vertex -2.61321 -24.863 0
      vertex 2.61321 -24.863 10
      vertex -2.61321 -24.863 10
    endloop
  endfacet
  facet normal 0 -1 -0
    outer loop
      vertex 2.61321 -24.863 10
      vertex -2.61321 -24.863 0
      vertex 2.61321 -24.863 0
    endloop
  endfacet
  facet normal -0.743151 0.669123 0
    outer loop
      vertex -60.2254 64.6946 0
      vertex -56.7283 68.5786 10
      vertex -56.7283 68.5786 0
    endloop
  endfacet
  facet normal -0.743151 0.669123 0
    outer loop
      vertex -56.7283 68.5786 10
      vertex -60.2254 64.6946 0
      vertex -60.2254 64.6946 10
    endloop
  endfacet
  facet normal -0.951053 -0.309026 0
    outer loop
      vertex -62.8386 39.8316 0
      vertex -64.4537 44.8022 10
      vertex -64.4537 44.8022 0
    endloop
  endfacet
  facet normal -0.951053 -0.309026 0
    outer loop
      vertex -64.4537 44.8022 10
      vertex -62.8386 39.8316 0
      vertex -62.8386 39.8316 10
    endloop
  endfacet
  facet normal 0 0 1
    outer loop
      vertex 60 50 10
      vertex 65 50 10
      vertex 64.4537 55.1978 10
    endloop
  endfacet
  facet normal 0 0 1
    outer loop
      vertex 59.563 54.1582 10
      vertex 64.4537 55.1978 10
      vertex 62.8386 60.1684 10
    endloop
  endfacet
  facet normal 0 0 1
    outer loop
      vertex 65 50 10
      vertex 60 50 10
      vertex 64.4537 44.8022 10
    endloop
  endfacet
  facet normal 0 0 1
    outer loop
      vertex 58.2709 58.1347 10
      vertex 62.8386 60.1684 10
      vertex 60.2254 64.6946 10
    endloop
  endfacet
  facet normal -0 0 1
    outer loop
      vertex 59.563 45.8418 10
      vertex 64.4537 44.8022 10
      vertex 60 50 10
    endloop
  endfacet
  facet normal 0 0 1
    outer loop
      vertex 64.4537 44.8022 10
      vertex 59.563 45.8418 10
      vertex 62.8386 39.8316 10
    endloop
  endfacet
  facet normal 0 0 1
    outer loop
      vertex 64.4537 55.1978 10
      vertex 59.563 54.1582 10
      vertex 60 50 10
    endloop
  endfacet
  facet normal 0 0 1
    outer loop
      vertex 62.8386 60.1684 10
      vertex 58.2709 58.1347 10
      vertex 59.563 54.1582 10
    endloop
  endfacet
  facet normal 0 0 1
    outer loop
      vertex 56.1803 61.7557 10
      vertex 60.2254 64.6946 10
      vertex 56.7283 68.5786 10
    endloop
  endfacet
  facet normal 0 0 1
    outer loop
      vertex 60.2254 64.6946 10
      vertex 56.1803 61.7557 10
      vertex 58.2709 58.1347 10
    endloop
  endfacet
  facet normal 0 0 1
    outer loop
      vertex 56.7283 68.5786 10
      vertex 53.3826 64.8629 10
      vertex 56.1803 61.7557 10
    endloop
  endfacet
  facet normal 0 0 1
    outer loop
      vertex 52.5 71.6506 10
      vertex 53.3826 64.8629 10
      vertex 56.7283 68.5786 10
    endloop
  endfacet
  facet normal 0 0 1
    outer loop
      vertex 52.5 71.6506 10
      vertex 50 67.3205 10
      vertex 53.3826 64.8629 10
    endloop
  endfacet
  facet normal 0 0 1
    outer loop
      vertex 47.7254 73.7764 10
      vertex 50 67.3205 10
      vertex 52.5 71.6506 10
    endloop
  endfacet
  facet normal 0 0 1
    outer loop
      vertex 47.7254 73.7764 10
      vertex 46.1803 69.0211 10
      vertex 50 67.3205 10
    endloop
  endfacet
  facet normal 0 0 1
    outer loop
      vertex 42.6132 74.863 10
      vertex 46.1803 69.0211 10
      vertex 47.7254 73.7764 10
    endloop
  endfacet
  facet normal 0 0 1
    outer loop
      vertex 42.6132 74.863 10
      vertex 42.0906 69.8904 10
      vertex 46.1803 69.0211 10
    endloop
  endfacet
  facet normal 0 0 1
    outer loop
      vertex 42.6132 74.863 10
      vertex -42.0906 69.8904 10
      vertex 42.0906 69.8904 10
    endloop
  endfacet
  facet normal -0 0 1
    outer loop
      vertex -42.6132 74.863 10
      vertex -42.0906 69.8904 10
      vertex 42.6132 74.863 10
    endloop
  endfacet
  facet normal 0 0 1
    outer loop
      vertex -42.6132 74.863 10
      vertex -46.1803 69.0211 10
      vertex -42.0906 69.8904 10
    endloop
  endfacet
  facet normal -0 0 1
    outer loop
      vertex -47.7254 73.7764 10
      vertex -46.1803 69.0211 10
      vertex -42.6132 74.863 10
    endloop
  endfacet
  facet normal 0 0 1
    outer loop
      vertex -47.7254 73.7764 10
      vertex -50 67.3205 10
      vertex -46.1803 69.0211 10
    endloop
  endfacet
  facet normal -0 0 1
    outer loop
      vertex -52.5 71.6506 10
      vertex -50 67.3205 10
      vertex -47.7254 73.7764 10
    endloop
  endfacet
  facet normal 0 0 1
    outer loop
      vertex -52.5 71.6506 10
      vertex -53.3826 64.8629 10
      vertex -50 67.3205 10
    endloop
  endfacet
  facet normal -0 0 1
    outer loop
      vertex -56.7283 68.5786 10
      vertex -53.3826 64.8629 10
      vertex -52.5 71.6506 10
    endloop
  endfacet
  facet normal 0 0 1
    outer loop
      vertex -53.3826 64.8629 10
      vertex -56.7283 68.5786 10
      vertex -56.1803 61.7557 10
    endloop
  endfacet
  facet normal -0 0 1
    outer loop
      vertex -60.2254 64.6946 10
      vertex -56.1803 61.7557 10
      vertex -56.7283 68.5786 10
    endloop
  endfacet
  facet normal 0 0 1
    outer loop
      vertex -56.1803 61.7557 10
      vertex -60.2254 64.6946 10
      vertex -58.2709 58.1347 10
    endloop
  endfacet
  facet normal 0 0 1
    outer loop
      vertex -58.2709 58.1347 10
      vertex -62.8386 60.1684 10
      vertex -59.563 54.1582 10
    endloop
  endfacet
  facet normal -0 0 1
    outer loop
      vertex -62.8386 60.1684 10
      vertex -58.2709 58.1347 10
      vertex -60.2254 64.6946 10
    endloop
  endfacet
  facet normal -0 0 1
    outer loop
      vertex 58.2709 41.8653 10
      vertex 62.8386 39.8316 10
      vertex 59.563 45.8418 10
    endloop
  endfacet
  facet normal 0 0 1
    outer loop
      vertex 62.8386 39.8316 10
      vertex 58.2709 41.8653 10
      vertex 60.2254 35.3054 10
    endloop
  endfacet
  facet normal -0 0 1
    outer loop
      vertex 56.1803 38.2443 10
      vertex 60.2254 35.3054 10
      vertex 58.2709 41.8653 10
    endloop
  endfacet
  facet normal 0 0 1
    outer loop
      vertex 56.1803 38.2443 10
      vertex 20.2254 -14.6946 10
      vertex 60.2254 35.3054 10
    endloop
  endfacet
  facet normal -0 0 1
    outer loop
      vertex 16.1803 -11.7557 10
      vertex 20.2254 -14.6946 10
      vertex 56.1803 38.2443 10
    endloop
  endfacet
  facet normal 0 0 1
    outer loop
      vertex 20.2254 -14.6946 10
      vertex 16.1803 -11.7557 10
      vertex 16.7283 -18.5786 10
    endloop
  endfacet
  facet normal -0 0 1
    outer loop
      vertex 13.3826 -14.8629 10
      vertex 16.7283 -18.5786 10
      vertex 16.1803 -11.7557 10
    endloop
  endfacet
  facet normal 0 0 1
    outer loop
      vertex 13.3826 -14.8629 10
      vertex 12.5 -21.6506 10
      vertex 16.7283 -18.5786 10
    endloop
  endfacet
  facet normal -0 0 1
    outer loop
      vertex 10 -17.3205 10
      vertex 12.5 -21.6506 10
      vertex 13.3826 -14.8629 10
    endloop
  endfacet
  facet normal 0 0 1
    outer loop
      vertex 10 -17.3205 10
      vertex 7.72542 -23.7764 10
      vertex 12.5 -21.6506 10
    endloop
  endfacet
  facet normal -0 0 1
    outer loop
      vertex 6.18034 -19.0211 10
      vertex 7.72542 -23.7764 10
      vertex 10 -17.3205 10
    endloop
  endfacet
  facet normal 0 0 1
    outer loop
      vertex 6.18034 -19.0211 10
      vertex 2.61321 -24.863 10
      vertex 7.72542 -23.7764 10
    endloop
  endfacet
  facet normal -0 0 1
    outer loop
      vertex 2.09057 -19.8904 10
      vertex 2.61321 -24.863 10
      vertex 6.18034 -19.0211 10
    endloop
  endfacet
  facet normal -0 0 1
    outer loop
      vertex -2.09057 -19.8904 10
      vertex 2.61321 -24.863 10
      vertex 2.09057 -19.8904 10
    endloop
  endfacet
  facet normal 0 0 1
    outer loop
      vertex -2.09057 -19.8904 10
      vertex -2.61321 -24.863 10
      vertex 2.61321 -24.863 10
    endloop
  endfacet
  facet normal 0 0 1
    outer loop
      vertex -6.18034 -19.0211 10
      vertex -2.61321 -24.863 10
      vertex -2.09057 -19.8904 10
    endloop
  endfacet
  facet normal 0 0 1
    outer loop
      vertex -6.18034 -19.0211 10
      vertex -7.72542 -23.7764 10
      vertex -2.61321 -24.863 10
    endloop
  endfacet
  facet normal 0 0 1
    outer loop
      vertex -10 -17.3205 10
      vertex -7.72542 -23.7764 10
      vertex -6.18034 -19.0211 10
    endloop
  endfacet
  facet normal 0 0 1
    outer loop
      vertex -10 -17.3205 10
      vertex -12.5 -21.6506 10
      vertex -7.72542 -23.7764 10
    endloop
  endfacet
  facet normal 0 0 1
    outer loop
      vertex -13.3826 -14.8629 10
      vertex -12.5 -21.6506 10
      vertex -10 -17.3205 10
    endloop
  endfacet
  facet normal 0 0 1
    outer loop
      vertex -16.7283 -18.5786 10
      vertex -13.3826 -14.8629 10
      vertex -16.1803 -11.7557 10
    endloop
  endfacet
  facet normal 0 0 1
    outer loop
      vertex -13.3826 -14.8629 10
      vertex -16.7283 -18.5786 10
      vertex -12.5 -21.6506 10
    endloop
  endfacet
  facet normal 0 0 1
    outer loop
      vertex -16.1803 -11.7557 10
      vertex -20.2254 -14.6946 10
      vertex -16.7283 -18.5786 10
    endloop
  endfacet
  facet normal 0 0 1
    outer loop
      vertex -56.1803 38.2443 10
      vertex -20.2254 -14.6946 10
      vertex -16.1803 -11.7557 10
    endloop
  endfacet
  facet normal 0 0 1
    outer loop
      vertex -56.1803 38.2443 10
      vertex -60.2254 35.3054 10
      vertex -20.2254 -14.6946 10
    endloop
  endfacet
  facet normal 0 0 1
    outer loop
      vertex -58.2709 41.8653 10
      vertex -60.2254 35.3054 10
      vertex -56.1803 38.2443 10
    endloop
  endfacet
  facet normal 0 0 1
    outer loop
      vertex -62.8386 39.8316 10
      vertex -58.2709 41.8653 10
      vertex -59.563 45.8418 10
    endloop
  endfacet
  facet normal 0 0 1
    outer loop
      vertex -64.4537 44.8022 10
      vertex -59.563 45.8418 10
      vertex -60 50 10
    endloop
  endfacet
  facet normal -0 0 1
    outer loop
      vertex -64.4537 55.1978 10
      vertex -59.563 54.1582 10
      vertex -62.8386 60.1684 10
    endloop
  endfacet
  facet normal 0 0 1
    outer loop
      vertex -59.563 54.1582 10
      vertex -64.4537 55.1978 10
      vertex -60 50 10
    endloop
  endfacet
  facet normal 0 0 1
    outer loop
      vertex -58.2709 41.8653 10
      vertex -62.8386 39.8316 10
      vertex -60.2254 35.3054 10
    endloop
  endfacet
  facet normal 0 0 1
    outer loop
      vertex -65 50 10
      vertex -60 50 10
      vertex -64.4537 55.1978 10
    endloop
  endfacet
  facet normal 0 0 1
    outer loop
      vertex -59.563 45.8418 10
      vertex -64.4537 44.8022 10
      vertex -62.8386 39.8316 10
    endloop
  endfacet
  facet normal 0 0 1
    outer loop
      vertex -60 50 10
      vertex -65 50 10
      vertex -64.4537 44.8022 10
    endloop
  endfacet
  facet normal 0.406732 0.913547 -0
    outer loop
      vertex -6.18034 -19.0211 0
      vertex -10 -17.3205 10
      vertex -6.18034 -19.0211 10
    endloop
  endfacet
  facet normal 0.406732 0.913547 0
    outer loop
      vertex -10 -17.3205 10
      vertex -6.18034 -19.0211 0
      vertex -10 -17.3205 0
    endloop
  endfacet
  facet normal 0 -1 0
    outer loop
      vertex -42.0906 69.8904 0
      vertex 42.0906 69.8904 10
      vertex -42.0906 69.8904 10
    endloop
  endfacet
  facet normal 0 -1 -0
    outer loop
      vertex 42.0906 69.8904 10
      vertex -42.0906 69.8904 0
      vertex 42.0906 69.8904 0
    endloop
  endfacet
  facet normal -0.866024 0.500003 0
    outer loop
      vertex 56.1803 38.2443 0
      vertex 58.2709 41.8653 10
      vertex 58.2709 41.8653 0
    endloop
  endfacet
  facet normal -0.866024 0.500003 0
    outer loop
      vertex 58.2709 41.8653 10
      vertex 56.1803 38.2443 0
      vertex 56.1803 38.2443 10
    endloop
  endfacet
  facet normal -0.994523 0.104518 0
    outer loop
      vertex 59.563 45.8418 0
      vertex 60 50 10
      vertex 60 50 0
    endloop
  endfacet
  facet normal -0.994523 0.104518 0
    outer loop
      vertex 60 50 10
      vertex 59.563 45.8418 0
      vertex 59.563 45.8418 10
    endloop
  endfacet
  facet normal -0.780869 0.624695 0
    outer loop
      vertex 16.1803 -11.7557 0
      vertex 56.1803 38.2443 10
      vertex 56.1803 38.2443 0
    endloop
  endfacet
  facet normal -0.780869 0.624695 0
    outer loop
      vertex 56.1803 38.2443 10
      vertex 16.1803 -11.7557 0
      vertex 16.1803 -11.7557 10
    endloop
  endfacet
  facet normal 0.207913 -0.978147 0
    outer loop
      vertex -46.1803 69.0211 0
      vertex -42.0906 69.8904 10
      vertex -46.1803 69.0211 10
    endloop
  endfacet
  facet normal 0.207913 -0.978147 0
    outer loop
      vertex -42.0906 69.8904 10
      vertex -46.1803 69.0211 0
      vertex -42.0906 69.8904 0
    endloop
  endfacet
  facet normal -0.951053 0.309029 0
    outer loop
      vertex 58.2709 41.8653 0
      vertex 59.563 45.8418 10
      vertex 59.563 45.8418 0
    endloop
  endfacet
  facet normal -0.951053 0.309029 0
    outer loop
      vertex 59.563 45.8418 10
      vertex 58.2709 41.8653 0
      vertex 58.2709 41.8653 10
    endloop
  endfacet
  facet normal 0 1 -0
    outer loop
      vertex 2.09057 -19.8904 0
      vertex -2.09057 -19.8904 10
      vertex 2.09057 -19.8904 10
    endloop
  endfacet
  facet normal 0 1 0
    outer loop
      vertex -2.09057 -19.8904 10
      vertex 2.09057 -19.8904 0
      vertex -2.09057 -19.8904 0
    endloop
  endfacet
  facet normal -0.743149 0.669126 0
    outer loop
      vertex 13.3826 -14.8629 0
      vertex 16.1803 -11.7557 10
      vertex 16.1803 -11.7557 0
    endloop
  endfacet
  facet normal -0.743149 0.669126 0
    outer loop
      vertex 16.1803 -11.7557 10
      vertex 13.3826 -14.8629 0
      vertex 13.3826 -14.8629 10
    endloop
  endfacet
  facet normal -0.994523 -0.104518 0
    outer loop
      vertex 60 50 0
      vertex 59.563 54.1582 10
      vertex 59.563 54.1582 0
    endloop
  endfacet
  facet normal -0.994523 -0.104518 0
    outer loop
      vertex 59.563 54.1582 10
      vertex 60 50 0
      vertex 60 50 10
    endloop
  endfacet
  facet normal 0.743149 0.669126 0
    outer loop
      vertex -13.3826 -14.8629 10
      vertex -16.1803 -11.7557 0
      vertex -16.1803 -11.7557 10
    endloop
  endfacet
  facet normal 0.743149 0.669126 0
    outer loop
      vertex -16.1803 -11.7557 0
      vertex -13.3826 -14.8629 10
      vertex -13.3826 -14.8629 0
    endloop
  endfacet
  facet normal -0.951053 -0.309029 0
    outer loop
      vertex 59.563 54.1582 0
      vertex 58.2709 58.1347 10
      vertex 58.2709 58.1347 0
    endloop
  endfacet
  facet normal -0.951053 -0.309029 0
    outer loop
      vertex 58.2709 58.1347 10
      vertex 59.563 54.1582 0
      vertex 59.563 54.1582 10
    endloop
  endfacet
  facet normal 0.994523 -0.104518 0
    outer loop
      vertex -60 50 10
      vertex -59.563 54.1582 0
      vertex -59.563 54.1582 10
    endloop
  endfacet
  facet normal 0.994523 -0.104518 0
    outer loop
      vertex -59.563 54.1582 0
      vertex -60 50 10
      vertex -60 50 0
    endloop
  endfacet
  facet normal 0.406729 -0.913549 0
    outer loop
      vertex -50 67.3205 0
      vertex -46.1803 69.0211 10
      vertex -50 67.3205 10
    endloop
  endfacet
  facet normal 0.406729 -0.913549 0
    outer loop
      vertex -46.1803 69.0211 10
      vertex -50 67.3205 0
      vertex -46.1803 69.0211 0
    endloop
  endfacet
  facet normal 0.994523 0.104518 0
    outer loop
      vertex -59.563 45.8418 10
      vertex -60 50 0
      vertex -60 50 10
    endloop
  endfacet
  facet normal 0.994523 0.104518 0
    outer loop
      vertex -60 50 0
      vertex -59.563 45.8418 10
      vertex -59.563 45.8418 0
    endloop
  endfacet
  facet normal 0.587785 -0.809017 0
    outer loop
      vertex -53.3826 64.8629 0
      vertex -50 67.3205 10
      vertex -53.3826 64.8629 10
    endloop
  endfacet
  facet normal 0.587785 -0.809017 0
    outer loop
      vertex -50 67.3205 10
      vertex -53.3826 64.8629 0
      vertex -50 67.3205 0
    endloop
  endfacet
  facet normal 0.866024 -0.500003 0
    outer loop
      vertex -58.2709 58.1347 10
      vertex -56.1803 61.7557 0
      vertex -56.1803 61.7557 10
    endloop
  endfacet
  facet normal 0.866024 -0.500003 0
    outer loop
      vertex -56.1803 61.7557 0
      vertex -58.2709 58.1347 10
      vertex -58.2709 58.1347 0
    endloop
  endfacet
  facet normal 0.866024 0.500003 0
    outer loop
      vertex -56.1803 38.2443 10
      vertex -58.2709 41.8653 0
      vertex -58.2709 41.8653 10
    endloop
  endfacet
  facet normal 0.866024 0.500003 0
    outer loop
      vertex -58.2709 41.8653 0
      vertex -56.1803 38.2443 10
      vertex -56.1803 38.2443 0
    endloop
  endfacet
  facet normal 0.780869 0.624695 0
    outer loop
      vertex -16.1803 -11.7557 10
      vertex -56.1803 38.2443 0
      vertex -56.1803 38.2443 10
    endloop
  endfacet
  facet normal 0.780869 0.624695 0
    outer loop
      vertex -56.1803 38.2443 0
      vertex -16.1803 -11.7557 10
      vertex -16.1803 -11.7557 0
    endloop
  endfacet
  facet normal -0.743149 -0.669126 0
    outer loop
      vertex 56.1803 61.7557 0
      vertex 53.3826 64.8629 10
      vertex 53.3826 64.8629 0
    endloop
  endfacet
  facet normal -0.743149 -0.669126 0
    outer loop
      vertex 53.3826 64.8629 10
      vertex 56.1803 61.7557 0
      vertex 56.1803 61.7557 10
    endloop
  endfacet
  facet normal -0.587785 -0.809017 0
    outer loop
      vertex 50 67.3205 0
      vertex 53.3826 64.8629 10
      vertex 50 67.3205 10
    endloop
  endfacet
  facet normal -0.587785 -0.809017 -0
    outer loop
      vertex 53.3826 64.8629 10
      vertex 50 67.3205 0
      vertex 53.3826 64.8629 0
    endloop
  endfacet
  facet normal -0.20791 0.978148 0
    outer loop
      vertex 6.18034 -19.0211 0
      vertex 2.09057 -19.8904 10
      vertex 6.18034 -19.0211 10
    endloop
  endfacet
  facet normal -0.20791 0.978148 0
    outer loop
      vertex 2.09057 -19.8904 10
      vertex 6.18034 -19.0211 0
      vertex 2.09057 -19.8904 0
    endloop
  endfacet
  facet normal -0.587785 0.809017 0
    outer loop
      vertex 13.3826 -14.8629 0
      vertex 10 -17.3205 10
      vertex 13.3826 -14.8629 10
    endloop
  endfacet
  facet normal -0.587785 0.809017 0
    outer loop
      vertex 10 -17.3205 10
      vertex 13.3826 -14.8629 0
      vertex 10 -17.3205 0
    endloop
  endfacet
  facet normal -0.406732 0.913547 0
    outer loop
      vertex 10 -17.3205 0
      vertex 6.18034 -19.0211 10
      vertex 10 -17.3205 10
    endloop
  endfacet
  facet normal -0.406732 0.913547 0
    outer loop
      vertex 6.18034 -19.0211 10
      vertex 10 -17.3205 0
      vertex 6.18034 -19.0211 0
    endloop
  endfacet
  facet normal -0.866024 -0.500003 0
    outer loop
      vertex 58.2709 58.1347 0
      vertex 56.1803 61.7557 10
      vertex 56.1803 61.7557 0
    endloop
  endfacet
  facet normal -0.866024 -0.500003 0
    outer loop
      vertex 56.1803 61.7557 10
      vertex 58.2709 58.1347 0
      vertex 58.2709 58.1347 10
    endloop
  endfacet
  facet normal -0.406729 -0.913549 0
    outer loop
      vertex 46.1803 69.0211 0
      vertex 50 67.3205 10
      vertex 46.1803 69.0211 10
    endloop
  endfacet
  facet normal -0.406729 -0.913549 -0
    outer loop
      vertex 50 67.3205 10
      vertex 46.1803 69.0211 0
      vertex 50 67.3205 0
    endloop
  endfacet
  facet normal 0.20791 0.978148 -0
    outer loop
      vertex -2.09057 -19.8904 0
      vertex -6.18034 -19.0211 10
      vertex -2.09057 -19.8904 10
    endloop
  endfacet
  facet normal 0.20791 0.978148 0
    outer loop
      vertex -6.18034 -19.0211 10
      vertex -2.09057 -19.8904 0
      vertex -6.18034 -19.0211 0
    endloop
  endfacet
  facet normal 0.951053 0.309029 0
    outer loop
      vertex -58.2709 41.8653 10
      vertex -59.563 45.8418 0
      vertex -59.563 45.8418 10
    endloop
  endfacet
  facet normal 0.951053 0.309029 0
    outer loop
      vertex -59.563 45.8418 0
      vertex -58.2709 41.8653 10
      vertex -58.2709 41.8653 0
    endloop
  endfacet
  facet normal 0.951053 -0.309029 0
    outer loop
      vertex -59.563 54.1582 10
      vertex -58.2709 58.1347 0
      vertex -58.2709 58.1347 10
    endloop
  endfacet
  facet normal 0.951053 -0.309029 0
    outer loop
      vertex -58.2709 58.1347 0
      vertex -59.563 54.1582 10
      vertex -59.563 54.1582 0
    endloop
  endfacet
  facet normal 0.743149 -0.669126 0
    outer loop
      vertex -56.1803 61.7557 10
      vertex -53.3826 64.8629 0
      vertex -53.3826 64.8629 10
    endloop
  endfacet
  facet normal 0.743149 -0.669126 0
    outer loop
      vertex -53.3826 64.8629 0
      vertex -56.1803 61.7557 10
      vertex -56.1803 61.7557 0
    endloop
  endfacet
  facet normal 0.587785 0.809017 -0
    outer loop
      vertex -10 -17.3205 0
      vertex -13.3826 -14.8629 10
      vertex -10 -17.3205 10
    endloop
  endfacet
  facet normal 0.587785 0.809017 0
    outer loop
      vertex -13.3826 -14.8629 10
      vertex -10 -17.3205 0
      vertex -13.3826 -14.8629 0
    endloop
  endfacet
  facet normal -0.207913 -0.978147 0
    outer loop
      vertex 42.0906 69.8904 0
      vertex 46.1803 69.0211 10
      vertex 42.0906 69.8904 10
    endloop
  endfacet
  facet normal -0.207913 -0.978147 -0
    outer loop
      vertex 46.1803 69.0211 10
      vertex 42.0906 69.8904 0
      vertex 46.1803 69.0211 0
    endloop
  endfacet
endsolid OpenSCAD_Model
