solid INTERCEPTOR v2 and MARAUDER
facet normal 0.9994446787253157 -0.027908652639172738 0.018205528707422765
  outer loop
    vertex -859.1417581847713 1981.0278593972987 -3.62736941419592
    vertex -859.7121591756205 1983.0084521822982 30.72263058580645
    vertex -859.2323603457625 1977.7832797017393 -3.62736941419592
  endloop
endfacet
facet normal 0.9994446787253157 -0.027908652639172738 0.018205528707422765
  outer loop
    vertex -859.7121591756205 1983.0084521822982 30.72263058580645
    vertex -859.1417581847713 1981.0278593972987 -3.62736941419592
    vertex -859.6405479196791 1985.5729431884688 30.72263058580645
  endloop
endfacet
facet normal 0.9994446787253157 -0.027908652639172738 0.018205528707422765
  outer loop
    vertex -859.6405479196791 1985.5729431884688 30.72263058580645
    vertex -859.1417581847713 1981.0278593972987 -3.62736941419592
    vertex -859.6254414523704 1986.1380883460652 30.75967216470991
  endloop
endfacet
facet normal 0.9970730656436871 -0.07211270279542174 0.025398028731357367
  outer loop
    vertex -861.2467619410868 1964.5223365273634 56.07263058581173
    vertex -861.3154262425836 1963.5729431065126 56.07263058581173
    vertex -861.1795079575181 1963.5729431065126 50.7367652475741
  endloop
endfacet
facet normal 0.9995615886828847 0.027673076066660227 0.010527644121865671
  outer loop
    vertex -859.2332507336024 2003.7402494620476 -3.62736941419592
    vertex -859.9590361613064 2007.24426473124 56.07263058581173
    vertex -859.1177557791758 1999.5685296339564 -3.62736941419592
  endloop
endfacet
facet normal 0.9995615886828847 0.027673076066660227 0.010527644121865671
  outer loop
    vertex -859.9590361613064 2007.24426473124 56.07263058581173
    vertex -859.2332507336024 2003.7402494620476 -3.62736941419592
    vertex -859.6309595253717 2007.2729431065122 24.847560809541303
  endloop
endfacet
facet normal 0.9995615886828847 0.027673076066660227 0.010527644121865671
  outer loop
    vertex -859.9590361613064 2007.24426473124 56.07263058581173
    vertex -859.6309595253717 2007.2729431065122 24.847560809541303
    vertex -859.9598301282507 2007.2729431065122 56.07263058581173
  endloop
endfacet
facet normal 0.9991661775786921 0.03982057544136546 0.009015062634528318
  outer loop
    vertex -859.6309595253717 2007.2729431065122 24.847560809541303
    vertex -859.2332507336024 2003.7402494620476 -3.62736941419592
    vertex -859.3740420223164 2007.2729431065122 -3.62736941419592
  endloop
endfacet
facet normal 0.9997972923037594 0.016158605605367152 0.012011401540268201
  outer loop
    vertex -859.1177557791758 1999.5685296339564 -3.62736941419592
    vertex -859.8925548625482 2003.1308019665323 56.07263058581173
    vertex -859.0466893224992 1995.1713648850775 -3.62736941419592
  endloop
endfacet
facet normal 0.9997972923037594 0.016158605605367152 0.012011401540268201
  outer loop
    vertex -859.8925548625482 2003.1308019665323 56.07263058581173
    vertex -859.1177557791758 1999.5685296339564 -3.62736941419592
    vertex -859.9590361613064 2007.24426473124 56.07263058581173
  endloop
endfacet
facet normal 4.996003610813203e-16 0.0 1.0
  outer loop
    vertex -861.3154262425836 1963.5729431065126 56.07263058581173
    vertex -863.1300957891042 2007.2729431065122 56.072630585811744
    vertex -863.1300957891042 1963.5729431065126 56.072630585811744
  endloop
endfacet
facet normal 4.996003610813203e-16 0.0 1.0
  outer loop
    vertex -863.1300957891042 2007.2729431065122 56.072630585811744
    vertex -861.3154262425836 1963.5729431065126 56.07263058581173
    vertex -859.9598301282507 2007.2729431065122 56.07263058581173
  endloop
endfacet
facet normal 4.996003610813203e-16 0.0 1.0
  outer loop
    vertex -859.9598301282507 2007.2729431065122 56.07263058581173
    vertex -861.3154262425836 1963.5729431065126 56.07263058581173
    vertex -861.2467619410868 1964.5223365273634 56.07263058581173
  endloop
endfacet
facet normal 4.996003610813203e-16 0.0 1.0
  outer loop
    vertex -859.9598301282507 2007.2729431065122 56.07263058581173
    vertex -861.2467619410868 1964.5223365273634 56.07263058581173
    vertex -861.0205586529712 1967.8410447211259 56.07263058581173
  endloop
endfacet
facet normal 4.996003610813203e-16 0.0 1.0
  outer loop
    vertex -859.9598301282507 2007.2729431065122 56.07263058581173
    vertex -861.0205586529712 1967.8410447211259 56.07263058581173
    vertex -860.8122656940451 1971.115152999927 56.07263058581173
  endloop
endfacet
facet normal 4.996003610813203e-16 0.0 1.0
  outer loop
    vertex -859.9598301282507 2007.2729431065122 56.07263058581173
    vertex -860.8122656940451 1971.115152999927 56.07263058581173
    vertex -860.6226485124342 1974.3460295971604 56.07263058581173
  endloop
endfacet
facet normal 4.996003610813203e-16 0.0 1.0
  outer loop
    vertex -859.9598301282507 2007.2729431065122 56.07263058581173
    vertex -860.6226485124342 1974.3460295971604 56.07263058581173
    vertex -860.4524725562652 1977.5350427462176 56.07263058581173
  endloop
endfacet
facet normal 4.996003610813203e-16 0.0 1.0
  outer loop
    vertex -859.9598301282507 2007.2729431065122 56.07263058581173
    vertex -860.4524725562652 1977.5350427462176 56.07263058581173
    vertex -860.3025032736645 1980.6835606804918 56.07263058581173
  endloop
endfacet
facet normal 4.996003610813203e-16 0.0 1.0
  outer loop
    vertex -859.9598301282507 2007.2729431065122 56.07263058581173
    vertex -860.3025032736645 1980.6835606804918 56.07263058581173
    vertex -860.1735061127584 1983.792951633374 56.07263058581173
  endloop
endfacet
facet normal 4.996003610813203e-16 0.0 1.0
  outer loop
    vertex -859.9598301282507 2007.2729431065122 56.07263058581173
    vertex -860.1735061127584 1983.792951633374 56.07263058581173
    vertex -860.0662465216731 1986.8645838382567 56.07263058581173
  endloop
endfacet
facet normal 4.996003610813203e-16 0.0 1.0
  outer loop
    vertex -859.9598301282507 2007.2729431065122 56.07263058581173
    vertex -860.0662465216731 1986.8645838382567 56.07263058581173
    vertex -859.981489948535 1989.899825528533 56.07263058581173
  endloop
endfacet
facet normal 4.996003610813203e-16 0.0 1.0
  outer loop
    vertex -859.9598301282507 2007.2729431065122 56.07263058581173
    vertex -859.981489948535 1989.899825528533 56.07263058581173
    vertex -859.9200018414705 1992.9000449375944 56.07263058581173
  endloop
endfacet
facet normal 4.996003610813203e-16 0.0 1.0
  outer loop
    vertex -859.9598301282507 2007.2729431065122 56.07263058581173
    vertex -859.9200018414705 1992.9000449375944 56.07263058581173
    vertex -859.9590361613064 2007.24426473124 56.07263058581173
  endloop
endfacet
facet normal 4.996003610813203e-16 0.0 1.0
  outer loop
    vertex -859.9590361613064 2007.24426473124 56.07263058581173
    vertex -859.9200018414705 1992.9000449375944 56.07263058581173
    vertex -859.8925548625482 2003.1308019665323 56.07263058581173
  endloop
endfacet
facet normal 4.996003610813203e-16 0.0 1.0
  outer loop
    vertex -859.8925548625482 2003.1308019665323 56.07263058581173
    vertex -859.9200018414705 1992.9000449375944 56.07263058581173
    vertex -859.8825476486057 1995.8666102988336 56.07263058581173
  endloop
endfacet
facet normal 4.996003610813203e-16 0.0 1.0
  outer loop
    vertex -859.8925548625482 2003.1308019665323 56.07263058581173
    vertex -859.8825476486057 1995.8666102988336 56.07263058581173
    vertex -859.8698928180672 1998.8008898456424 56.07263058581173
  endloop
endfacet
facet normal 0.9998955885248976 0.005233288267935419 0.013469400222485658
  outer loop
    vertex -859.0466893224992 1995.1713648850775 -3.62736941419592
    vertex -859.8698928180672 1998.8008898456424 56.07263058581173
    vertex -859.022464296328 1990.5428224543373 -3.62736941419592
  endloop
endfacet
facet normal 0.9998955885248976 0.005233288267935419 0.013469400222485658
  outer loop
    vertex -859.8698928180672 1998.8008898456424 56.07263058581173
    vertex -859.0466893224992 1995.1713648850775 -3.62736941419592
    vertex -859.8925548625482 2003.1308019665323 56.07263058581173
  endloop
endfacet
facet normal -2.3371815153625967e-15 1.0 -7.791890238575185e-16
  outer loop
    vertex -863.1300957891042 2007.2729431065122 -3.6273694141959085
    vertex -859.6309595253717 2007.2729431065122 24.847560809541303
    vertex -859.3740420223164 2007.2729431065122 -3.62736941419592
  endloop
endfacet
facet normal -2.3371815153625967e-15 1.0 -7.791890238575185e-16
  outer loop
    vertex -859.6309595253717 2007.2729431065122 24.847560809541303
    vertex -863.1300957891042 2007.2729431065122 -3.6273694141959085
    vertex -863.1300957891042 2007.2729431065122 56.072630585811744
  endloop
endfacet
facet normal -2.3371815153625967e-15 1.0 -7.791890238575185e-16
  outer loop
    vertex -859.6309595253717 2007.2729431065122 24.847560809541303
    vertex -863.1300957891042 2007.2729431065122 56.072630585811744
    vertex -859.9598301282507 2007.2729431065122 56.07263058581173
  endloop
endfacet
facet normal 0.9998813291912734 -0.004312243798749865 0.014789593913047107
  outer loop
    vertex -859.022464296328 1990.5428224543373 -3.62736941419592
    vertex -859.8825476486057 1995.8666102988336 56.07263058581173
    vertex -859.0359919196297 1987.4061681743265 -3.62736941419592
  endloop
endfacet
facet normal 0.9998813291912734 -0.004312243798749865 0.014789593913047107
  outer loop
    vertex -859.8825476486057 1995.8666102988336 56.07263058581173
    vertex -859.022464296328 1990.5428224543373 -3.62736941419592
    vertex -859.8698928180672 1998.8008898456424 56.07263058581173
  endloop
endfacet
facet normal -4.996003610813203e-16 0.0 -1.0
  outer loop
    vertex -859.3740420223164 2007.2729431065122 -3.62736941419592
    vertex -863.1300957891042 1963.5729431065126 -3.6273694141959085
    vertex -863.1300957891042 2007.2729431065122 -3.6273694141959085
  endloop
endfacet
facet normal -4.996003610813203e-16 0.0 -1.0
  outer loop
    vertex -863.1300957891042 1963.5729431065126 -3.6273694141959085
    vertex -859.3740420223164 2007.2729431065122 -3.62736941419592
    vertex -859.875754260295 1963.5729431065126 -3.62736941419592
  endloop
endfacet
facet normal -4.996003610813203e-16 0.0 -1.0
  outer loop
    vertex -859.875754260295 1963.5729431065126 -3.62736941419592
    vertex -859.3740420223164 2007.2729431065122 -3.62736941419592
    vertex -859.8271369026264 1964.4013315562117 -3.62736941419592
  endloop
endfacet
facet normal -4.996003610813203e-16 0.0 -1.0
  outer loop
    vertex -859.8271369026264 1964.4013315562117 -3.62736941419592
    vertex -859.3740420223164 2007.2729431065122 -3.62736941419592
    vertex -859.6452240573241 1967.8102881956286 -3.62736941419592
  endloop
endfacet
facet normal -4.996003610813203e-16 0.0 -1.0
  outer loop
    vertex -859.6452240573241 1967.8102881956286 -3.62736941419592
    vertex -859.3740420223164 2007.2729431065122 -3.62736941419592
    vertex -859.4849115224632 1971.1759567001754 -3.62736941419592
  endloop
endfacet
facet normal -4.996003610813203e-16 0.0 -1.0
  outer loop
    vertex -859.4849115224632 1971.1759567001754 -3.62736941419592
    vertex -859.3740420223164 2007.2729431065122 -3.62736941419592
    vertex -859.3470175384678 1974.499799669122 -3.62736941419592
  endloop
endfacet
facet normal -4.996003610813203e-16 0.0 -1.0
  outer loop
    vertex -859.3470175384678 1974.499799669122 -3.62736941419592
    vertex -859.3740420223164 2007.2729431065122 -3.62736941419592
    vertex -859.2332507336024 2003.7402494620476 -3.62736941419592
  endloop
endfacet
facet normal -4.996003610813203e-16 0.0 -1.0
  outer loop
    vertex -859.3470175384678 1974.499799669122 -3.62736941419592
    vertex -859.2332507336024 2003.7402494620476 -3.62736941419592
    vertex -859.2323603457625 1977.7832797017393 -3.62736941419592
  endloop
endfacet
facet normal -4.996003610813203e-16 0.0 -1.0
  outer loop
    vertex -859.2323603457625 1977.7832797017393 -3.62736941419592
    vertex -859.2332507336024 2003.7402494620476 -3.62736941419592
    vertex -859.1177557791758 1999.5685296339564 -3.62736941419592
  endloop
endfacet
facet normal -4.996003610813203e-16 0.0 -1.0
  outer loop
    vertex -859.2323603457625 1977.7832797017393 -3.62736941419592
    vertex -859.1177557791758 1999.5685296339564 -3.62736941419592
    vertex -859.1417581847713 1981.0278593972987 -3.62736941419592
  endloop
endfacet
facet normal -4.996003610813203e-16 0.0 -1.0
  outer loop
    vertex -859.1417581847713 1981.0278593972987 -3.62736941419592
    vertex -859.1177557791758 1999.5685296339564 -3.62736941419592
    vertex -859.076029295919 1984.2350013550704 -3.62736941419592
  endloop
endfacet
facet normal -4.996003610813203e-16 0.0 -1.0
  outer loop
    vertex -859.076029295919 1984.2350013550704 -3.62736941419592
    vertex -859.1177557791758 1999.5685296339564 -3.62736941419592
    vertex -859.0466893224992 1995.1713648850775 -3.62736941419592
  endloop
endfacet
facet normal -4.996003610813203e-16 0.0 -1.0
  outer loop
    vertex -859.076029295919 1984.2350013550704 -3.62736941419592
    vertex -859.0466893224992 1995.1713648850775 -3.62736941419592
    vertex -859.0359919196297 1987.4061681743265 -3.62736941419592
  endloop
endfacet
facet normal -4.996003610813203e-16 0.0 -1.0
  outer loop
    vertex -859.0359919196297 1987.4061681743265 -3.62736941419592
    vertex -859.0466893224992 1995.1713648850775 -3.62736941419592
    vertex -859.022464296328 1990.5428224543373 -3.62736941419592
  endloop
endfacet
facet normal 0.9976977514243609 -0.0634717605717884 0.023885820326963427
  outer loop
    vertex -860.4800261838419 1966.7977852358079 30.72263058580645
    vertex -860.6851849177573 1963.5729431065122 30.72263058580645
    vertex -860.2318610915779 1963.5729431065126 11.787540400288929
  endloop
endfacet
facet normal -1.7838633002667457e-14 -1.0 -2.980510446804092e-15
  outer loop
    vertex -860.2318610915779 1963.5729431065126 11.787540400288929
    vertex -863.1300957891042 1963.5729431065126 -3.6273694141959085
    vertex -859.875754260295 1963.5729431065126 -3.62736941419592
  endloop
endfacet
facet normal -1.7838633002667457e-14 -1.0 -2.980510446804092e-15
  outer loop
    vertex -863.1300957891042 1963.5729431065126 -3.6273694141959085
    vertex -860.2318610915779 1963.5729431065126 11.787540400288929
    vertex -863.1300957891042 1963.5729431065126 30.72263058580645
  endloop
endfacet
facet normal -1.7838633002667457e-14 -1.0 -2.980510446804092e-15
  outer loop
    vertex -863.1300957891042 1963.5729431065126 30.72263058580645
    vertex -860.2318610915779 1963.5729431065126 11.787540400288929
    vertex -860.6851849177573 1963.5729431065122 30.72263058580645
  endloop
endfacet
facet normal 0.999205411360986 -0.034891665630537076 0.01926441217503374
  outer loop
    vertex -859.2323603457625 1977.7832797017393 -3.62736941419592
    vertex -859.8225599593535 1979.8468644927743 30.72263058580645
    vertex -859.3470175384678 1974.499799669122 -3.62736941419592
  endloop
endfacet
facet normal 0.999205411360986 -0.034891665630537076 0.01926441217503374
  outer loop
    vertex -859.8225599593535 1979.8468644927743 30.72263058580645
    vertex -859.2323603457625 1977.7832797017393 -3.62736941419592
    vertex -859.7121591756205 1983.0084521822982 30.72263058580645
  endloop
endfacet
facet normal 0.99979285282045 -0.012622824638768845 0.015966081149887006
  outer loop
    vertex -859.0359919196297 1987.4061681743265 -3.62736941419592
    vertex -859.584297630692 1989.4533787722496 32.325956017884046
    vertex -859.076029295919 1984.2350013550704 -3.62736941419592
  endloop
endfacet
facet normal 0.99979285282045 -0.012622824638768845 0.015966081149887006
  outer loop
    vertex -859.584297630692 1989.4533787722496 32.325956017884046
    vertex -859.0359919196297 1987.4061681743265 -3.62736941419592
    vertex -859.5843095642819 1989.4620304465018 32.333543332744384
  endloop
endfacet
facet normal 0.99979285282045 -0.012622824638768845 0.015966081149887006
  outer loop
    vertex -859.5843095642819 1989.4620304465018 32.333543332744384
    vertex -859.0359919196297 1987.4061681743265 -3.62736941419592
    vertex -859.5869584438866 1989.9363865134537 32.87444277231454
  endloop
endfacet
facet normal 0.99979285282045 -0.012622824638768845 0.015966081149887006
  outer loop
    vertex -859.5869584438866 1989.9363865134537 32.87444277231454
    vertex -859.0359919196297 1987.4061681743265 -3.62736941419592
    vertex -859.5914647964696 1990.3360828546452 33.47263063312398
  endloop
endfacet
facet normal 0.99979285282045 -0.012622824638768845 0.015966081149887006
  outer loop
    vertex -859.5914647964696 1990.3360828546452 33.47263063312398
    vertex -859.0359919196297 1987.4061681743265 -3.62736941419592
    vertex -859.5977515170902 1990.6542805549263 34.117871755122096
  endloop
endfacet
facet normal 0.99979285282045 -0.012622824638768845 0.015966081149887006
  outer loop
    vertex -859.5977515170902 1990.6542805549263 34.117871755122096
    vertex -859.0359919196297 1987.4061681743265 -3.62736941419592
    vertex -859.6057110382159 1990.8855351634757 34.79912588392152
  endloop
endfacet
facet normal 0.99979285282045 -0.012622824638768845 0.015966081149887006
  outer loop
    vertex -859.6057110382159 1990.8855351634757 34.79912588392152
    vertex -859.0359919196297 1987.4061681743265 -3.62736941419592
    vertex -859.8825476486057 1995.8666102988336 56.07263058581173
  endloop
endfacet
facet normal 0.99979285282045 -0.012622824638768845 0.015966081149887006
  outer loop
    vertex -859.6057110382159 1990.8855351634757 34.79912588392152
    vertex -859.8825476486057 1995.8666102988336 56.07263058581173
    vertex -859.6152071702352 1991.0258898498628 35.504736572609424
  endloop
endfacet
facet normal 0.99979285282045 -0.012622824638768845 0.015966081149887006
  outer loop
    vertex -859.6152071702352 1991.0258898498628 35.504736572609424
    vertex -859.8825476486057 1995.8666102988336 56.07263058581173
    vertex -859.6260774316978 1991.072943106512 36.222630626784635
  endloop
endfacet
facet normal 0.99979285282045 -0.012622824638768845 0.015966081149887006
  outer loop
    vertex -859.6260774316978 1991.072943106512 36.222630626784635
    vertex -859.8825476486057 1995.8666102988336 56.07263058581173
    vertex -859.9200018414705 1992.9000449375944 56.07263058581173
  endloop
endfacet
facet normal 0.99979285282045 -0.012622824638768845 0.015966081149887006
  outer loop
    vertex -859.6649749444216 1990.6542805235629 38.32738949220866
    vertex -859.9200018414705 1992.9000449375944 56.07263058581173
    vertex -859.676444484211 1990.3994480560702 38.84413861052364
  endloop
endfacet
facet normal 0.99979285282045 -0.012622824638768845 0.015966081149887006
  outer loop
    vertex -859.9200018414705 1992.9000449375944 56.07263058581173
    vertex -859.6649749444216 1990.6542805235629 38.32738949220866
    vertex -859.6511760408698 1990.885535142264 37.64613536685526
  endloop
endfacet
facet normal 0.99979285282045 -0.012622824638768845 0.015966081149887006
  outer loop
    vertex -859.9200018414705 1992.9000449375944 56.07263058581173
    vertex -859.6511760408698 1990.885535142264 37.64613536685526
    vertex -859.6381358294182 1991.0258898391648 36.94052468025872
  endloop
endfacet
facet normal 0.99979285282045 -0.012622824638768845 0.015966081149887006
  outer loop
    vertex -859.9200018414705 1992.9000449375944 56.07263058581173
    vertex -859.6381358294182 1991.0258898391648 36.94052468025872
    vertex -859.6260774316978 1991.072943106512 36.222630626784635
  endloop
endfacet
facet normal 0.9994446787253155 -0.027908652639171798 0.018205528707423653
  outer loop
    vertex -859.840920008632 1985.572943106512 41.72263058580644
    vertex -860.0662465216731 1986.8645838382567 56.07263058581173
    vertex -859.8658065447163 1984.6817243012545 41.72263058580644
  endloop
endfacet
facet normal 0.9994446787253155 -0.027908652639171798 0.018205528707423653
  outer loop
    vertex -860.0662465216731 1986.8645838382567 56.07263058581173
    vertex -859.840920008632 1985.572943106512 41.72263058580644
    vertex -859.8200163150741 1986.2908371603369 41.67557732380812
  endloop
endfacet
facet normal 0.9994446787253155 -0.027908652639171798 0.018205528707423653
  outer loop
    vertex -860.0662465216731 1986.8645838382567 56.07263058581173
    vertex -859.8200163150741 1986.2908371603369 41.67557732380812
    vertex -859.7977560785434 1986.9964478479792 41.535222632163965
  endloop
endfacet
facet normal 0.9994446787253155 -0.027908652639171798 0.018205528707423653
  outer loop
    vertex -860.0662465216731 1986.8645838382567 56.07263058581173
    vertex -859.7977560785434 1986.9964478479792 41.535222632163965
    vertex -859.981489948535 1989.899825528533 56.07263058581173
  endloop
endfacet
facet normal 0.9994446787253155 -0.027908652639171798 0.018205528707423653
  outer loop
    vertex -859.981489948535 1989.899825528533 56.07263058581173
    vertex -859.7977560785434 1986.9964478479792 41.535222632163965
    vertex -859.7745201778547 1987.6777019750552 41.30396801853898
  endloop
endfacet
facet normal 0.9994446787253155 -0.027908652639171798 0.018205528707423653
  outer loop
    vertex -859.981489948535 1989.899825528533 56.07263058581173
    vertex -859.7745201778547 1987.6777019750552 41.30396801853898
    vertex -859.7735791699791 1987.7031986230563 41.29139446326705
  endloop
endfacet
facet normal 0.9983336216488522 -0.053274279753301526 0.022177263182218895
  outer loop
    vertex -860.2584354380106 1975.1975179924323 41.72263058580644
    vertex -860.6226485124342 1974.3460295971604 56.07263058581173
    vertex -860.4314325727232 1971.9556373544865 41.72263058580644
  endloop
endfacet
facet normal 0.9983336216488522 -0.053274279753301526 0.022177263182218895
  outer loop
    vertex -860.6226485124342 1974.3460295971604 56.07263058581173
    vertex -860.2584354380106 1975.1975179924323 41.72263058580644
    vertex -860.4524725562652 1977.5350427462176 56.07263058581173
  endloop
endfacet
facet normal 0.9996437751118102 -0.020487236128426435 0.017105438784986843
  outer loop
    vertex -859.7556480959689 1988.3229430946828 40.98577031345068
    vertex -859.981489948535 1989.899825528533 56.07263058581173
    vertex -859.7735791699791 1987.7031986230563 41.29139446326705
  endloop
endfacet
facet normal 0.9996437751118102 -0.020487236128426435 0.017105438784986843
  outer loop
    vertex -859.981489948535 1989.899825528533 56.07263058581173
    vertex -859.7556480959689 1988.3229430946828 40.98577031345068
    vertex -859.7365490951638 1988.9211309525142 40.586073967802406
  endloop
endfacet
facet normal 0.9996437751118102 -0.020487236128426435 0.017105438784986843
  outer loop
    vertex -859.981489948535 1989.899825528533 56.07263058581173
    vertex -859.7365490951638 1988.9211309525142 40.586073967802406
    vertex -859.7173466515732 1989.4620303885501 40.11171789682032
  endloop
endfacet
facet normal 0.9996437751118102 -0.020487236128426435 0.017105438784986843
  outer loop
    vertex -859.981489948535 1989.899825528533 56.07263058581173
    vertex -859.7173466515732 1989.4620303885501 40.11171789682032
    vertex -859.6983693243277 1989.936386463562 39.57081846431871
  endloop
endfacet
facet normal 0.9996437751118102 -0.020487236128426435 0.017105438784986843
  outer loop
    vertex -859.981489948535 1989.899825528533 56.07263058581173
    vertex -859.6983693243277 1989.936386463562 39.57081846431871
    vertex -859.9200018414705 1992.9000449375944 56.07263058581173
  endloop
endfacet
facet normal 0.9996437751118102 -0.020487236128426435 0.017105438784986843
  outer loop
    vertex -859.9200018414705 1992.9000449375944 56.07263058581173
    vertex -859.6983693243277 1989.936386463562 39.57081846431871
    vertex -859.6799418207551 1990.3360828136672 38.97263060946521
  endloop
endfacet
facet normal 0.9996437751118102 -0.020487236128426435 0.017105438784986843
  outer loop
    vertex -859.9200018414705 1992.9000449375944 56.07263058581173
    vertex -859.6799418207551 1990.3360828136672 38.97263060946521
    vertex -859.676444484211 1990.3994480560702 38.84413861052364
  endloop
endfacet
facet normal 0.9980168720672847 -0.05857269406181185 0.023055640944775434
  outer loop
    vertex -859.8271369026264 1964.4013315562117 -3.62736941419592
    vertex -860.2318610915779 1963.5729431065126 11.787540400288929
    vertex -859.875754260295 1963.5729431065126 -3.62736941419592
  endloop
endfacet
facet normal 0.9980168720672847 -0.05857269406181185 0.023055640944775434
  outer loop
    vertex -860.2318610915779 1963.5729431065126 11.787540400288929
    vertex -859.8271369026264 1964.4013315562117 -3.62736941419592
    vertex -860.4800261838419 1966.7977852358079 30.72263058580645
  endloop
endfacet
facet normal 0.9980168720672847 -0.05857269406181185 0.023055640944775434
  outer loop
    vertex -860.4800261838419 1966.7977852358079 30.72263058580645
    vertex -859.8271369026264 1964.4013315562117 -3.62736941419592
    vertex -860.2848558941993 1970.123280931531 30.72263058580645
  endloop
endfacet
facet normal 0.9983336216488531 -0.0532742797532864 0.02217726318221845
  outer loop
    vertex -859.6452240573241 1967.8102881956286 -3.62736941419592
    vertex -860.2848558941993 1970.123280931531 30.72263058580645
    vertex -859.8271369026264 1964.4013315562117 -3.62736941419592
  endloop
endfacet
facet normal 0.9983336216488531 -0.0532742797532864 0.02217726318221845
  outer loop
    vertex -860.2848558941993 1970.123280931531 30.72263058580645
    vertex -859.6452240573241 1967.8102881956286 -3.62736941419592
    vertex -860.1096961835992 1973.4056871707162 30.72263058580645
  endloop
endfacet
facet normal 0.9986419485776266 -0.047567020334482436 0.021251755635249215
  outer loop
    vertex -860.1059799632836 1978.3982320855578 41.72263058580644
    vertex -860.4524725562652 1977.5350427462176 56.07263058581173
    vertex -860.2584354380106 1975.1975179924323 41.72263058580644
  endloop
endfacet
facet normal 0.9986419485776266 -0.047567020334482436 0.021251755635249215
  outer loop
    vertex -860.4524725562652 1977.5350427462176 56.07263058581173
    vertex -860.1059799632836 1978.3982320855578 41.72263058580644
    vertex -860.3025032736645 1980.6835606804918 56.07263058581173
  endloop
endfacet
facet normal 0.9980168720672827 -0.05857269406184383 0.023055640944781658
  outer loop
    vertex -860.4314325727232 1971.9556373544865 41.72263058580644
    vertex -860.8122656940451 1971.115152999927 56.07263058581173
    vertex -860.6241932296892 1968.6711992557407 41.72263058580644
  endloop
endfacet
facet normal 0.9980168720672827 -0.05857269406184383 0.023055640944781658
  outer loop
    vertex -860.8122656940451 1971.115152999927 56.07263058581173
    vertex -860.4314325727232 1971.9556373544865 41.72263058580644
    vertex -860.6226485124342 1974.3460295971604 56.07263058581173
  endloop
endfacet
facet normal -1.0 9.508607186807499e-34 4.996003610813202e-16
  outer loop
    vertex -863.1300957891042 2007.2729431065122 56.072630585811744
    vertex -863.1300957891042 1963.5729431065126 41.72263058580644
    vertex -863.1300957891042 1963.5729431065126 56.072630585811744
  endloop
endfacet
facet normal -1.0 9.508607186807499e-34 4.996003610813202e-16
  outer loop
    vertex -863.1300957891042 1963.5729431065126 41.72263058580644
    vertex -863.1300957891042 2007.2729431065122 56.072630585811744
    vertex -863.1300957891042 1985.5729431065124 41.72263058580644
  endloop
endfacet
facet normal -1.0 9.508607186807499e-34 4.996003610813202e-16
  outer loop
    vertex -863.1300957891042 1985.5729431065124 41.72263058580644
    vertex -863.1300957891042 2007.2729431065122 56.072630585811744
    vertex -863.1300957891042 1986.2908371603369 41.67557732380812
  endloop
endfacet
facet normal -1.0 9.508607186807499e-34 4.996003610813202e-16
  outer loop
    vertex -863.1300957891042 1986.2908371603369 41.67557732380812
    vertex -863.1300957891042 2007.2729431065122 56.072630585811744
    vertex -863.1300957891042 1986.9964478479792 41.5352226321639
  endloop
endfacet
facet normal -1.0 9.508607186807499e-34 4.996003610813202e-16
  outer loop
    vertex -863.1300957891042 1986.9964478479792 41.5352226321639
    vertex -863.1300957891042 2007.2729431065122 56.072630585811744
    vertex -863.1300957891042 1987.6777019750552 41.30396801853889
  endloop
endfacet
facet normal -1.0 9.508607186807499e-34 4.996003610813202e-16
  outer loop
    vertex -863.1300957891042 1987.6777019750552 41.30396801853889
    vertex -863.1300957891042 2007.2729431065122 56.072630585811744
    vertex -863.1300957891042 1988.3229430946826 40.98577031345059
  endloop
endfacet
facet normal -1.0 9.508607186807499e-34 4.996003610813202e-16
  outer loop
    vertex -863.1300957891042 1988.3229430946826 40.98577031345059
    vertex -863.1300957891042 2007.2729431065122 56.072630585811744
    vertex -863.1300957891042 1988.9211309525142 40.586073967802314
  endloop
endfacet
facet normal -1.0 9.508607186807499e-34 4.996003610813202e-16
  outer loop
    vertex -863.1300957891042 1988.9211309525142 40.586073967802314
    vertex -863.1300957891042 2007.2729431065122 56.072630585811744
    vertex -863.1300957891042 1989.4620303885501 40.111717896820416
  endloop
endfacet
facet normal -1.0 9.508607186807499e-34 4.996003610813202e-16
  outer loop
    vertex -863.1300957891042 1989.4620303885501 40.111717896820416
    vertex -863.1300957891042 2007.2729431065122 56.072630585811744
    vertex -863.1300957891042 1989.936386463562 39.57081846431874
  endloop
endfacet
facet normal -1.0 9.508607186807499e-34 4.996003610813202e-16
  outer loop
    vertex -863.1300957891042 1989.936386463562 39.57081846431874
    vertex -863.1300957891042 2007.2729431065122 56.072630585811744
    vertex -863.1300957891042 1990.3360828136672 38.97263060946521
  endloop
endfacet
facet normal -1.0 9.508607186807499e-34 4.996003610813202e-16
  outer loop
    vertex -863.1300957891042 1990.3360828136672 38.97263060946521
    vertex -863.1300957891042 2007.2729431065122 56.072630585811744
    vertex -863.1300957891042 1990.6542805235629 38.32738949220868
  endloop
endfacet
facet normal -1.0 9.508607186807499e-34 4.996003610813202e-16
  outer loop
    vertex -863.1300957891042 1990.6542805235629 38.32738949220868
    vertex -863.1300957891042 2007.2729431065122 56.072630585811744
    vertex -863.1300957891042 1990.885535142264 37.64613536685526
  endloop
endfacet
facet normal -1.0 9.508607186807499e-34 4.996003610813202e-16
  outer loop
    vertex -863.1300957891042 1990.885535142264 37.64613536685526
    vertex -863.1300957891042 2007.2729431065122 56.072630585811744
    vertex -863.1300957891042 1991.0258898391653 36.94052468025874
  endloop
endfacet
facet normal -1.0 9.508607186807499e-34 4.996003610813202e-16
  outer loop
    vertex -863.1300957891042 1991.0258898391653 36.94052468025874
    vertex -863.1300957891042 2007.2729431065122 56.072630585811744
    vertex -863.1300957891042 1991.072943106512 36.222630626784635
  endloop
endfacet
facet normal -1.0 9.508607186807499e-34 4.996003610813202e-16
  outer loop
    vertex -863.1300957891042 1985.5729431884688 30.722630585806474
    vertex -863.1300957891042 1963.5729431065126 -3.6273694141959085
    vertex -863.1300957891042 1963.5729431065126 30.72263058580645
  endloop
endfacet
facet normal -1.0 9.508607186807499e-34 4.996003610813202e-16
  outer loop
    vertex -863.1300957891042 1963.5729431065126 -3.6273694141959085
    vertex -863.1300957891042 1985.5729431884688 30.722630585806474
    vertex -863.1300957891042 2007.2729431065122 -3.6273694141959085
  endloop
endfacet
facet normal -1.0 9.508607186807499e-34 4.996003610813202e-16
  outer loop
    vertex -863.1300957891042 2007.2729431065122 -3.6273694141959085
    vertex -863.1300957891042 1985.5729431884688 30.722630585806474
    vertex -863.1300957891042 1986.2908372415925 30.769683858502276
  endloop
endfacet
facet normal -1.0 9.508607186807499e-34 4.996003610813202e-16
  outer loop
    vertex -863.1300957891042 2007.2729431065122 -3.6273694141959085
    vertex -863.1300957891042 1986.2908372415925 30.769683858502276
    vertex -863.1300957891042 1986.9964479271434 30.91003856066081
  endloop
endfacet
facet normal -1.0 9.508607186807499e-34 4.996003610813202e-16
  outer loop
    vertex -863.1300957891042 2007.2729431065122 -3.6273694141959085
    vertex -863.1300957891042 1986.9964479271434 30.91003856066081
    vertex -863.1300957891042 1987.6777020507739 31.141293184437444
  endloop
endfacet
facet normal -1.0 9.508607186807499e-34 4.996003610813202e-16
  outer loop
    vertex -863.1300957891042 2007.2729431065122 -3.6273694141959085
    vertex -863.1300957891042 1987.6777020507739 31.141293184437444
    vertex -863.1300957891042 1988.3229431656594 31.459490899140587
  endloop
endfacet
facet normal -1.0 9.508607186807499e-34 4.996003610813202e-16
  outer loop
    vertex -863.1300957891042 2007.2729431065122 -3.6273694141959085
    vertex -863.1300957891042 1988.3229431656594 31.459490899140587
    vertex -863.1300957891042 1988.9211310175344 31.859187253702494
  endloop
endfacet
facet normal -1.0 9.508607186807499e-34 4.996003610813202e-16
  outer loop
    vertex -863.1300957891042 2007.2729431065122 -3.6273694141959085
    vertex -863.1300957891042 1988.9211310175344 31.859187253702494
    vertex -863.1300957891042 1989.4620304465018 32.33354333274455
  endloop
endfacet
facet normal -1.0 9.508607186807499e-34 4.996003610813202e-16
  outer loop
    vertex -863.1300957891042 2007.2729431065122 -3.6273694141959085
    vertex -863.1300957891042 1989.4620304465018 32.33354333274455
    vertex -863.1300957891042 1989.9363865134537 32.874442772314744
  endloop
endfacet
facet normal -1.0 9.508607186807499e-34 4.996003610813202e-16
  outer loop
    vertex -863.1300957891042 2007.2729431065122 -3.6273694141959085
    vertex -863.1300957891042 1989.9363865134537 32.874442772314744
    vertex -863.1300957891042 1990.3360828546452 33.47263063312402
  endloop
endfacet
facet normal -1.0 9.508607186807499e-34 4.996003610813202e-16
  outer loop
    vertex -863.1300957891042 2007.2729431065122 -3.6273694141959085
    vertex -863.1300957891042 1990.3360828546452 33.47263063312402
    vertex -863.1300957891042 1990.6542805549263 34.117871755122046
  endloop
endfacet
facet normal -1.0 9.508607186807499e-34 4.996003610813202e-16
  outer loop
    vertex -863.1300957891042 2007.2729431065122 -3.6273694141959085
    vertex -863.1300957891042 1990.6542805549263 34.117871755122046
    vertex -863.1300957891042 1990.8855351634757 34.79912588392147
  endloop
endfacet
facet normal -1.0 9.508607186807499e-34 4.996003610813202e-16
  outer loop
    vertex -863.1300957891042 2007.2729431065122 -3.6273694141959085
    vertex -863.1300957891042 1990.8855351634757 34.79912588392147
    vertex -863.1300957891042 1991.0258898498628 35.5047365726094
  endloop
endfacet
facet normal -1.0 9.508607186807499e-34 4.996003610813202e-16
  outer loop
    vertex -863.1300957891042 2007.2729431065122 -3.6273694141959085
    vertex -863.1300957891042 1991.0258898498628 35.5047365726094
    vertex -863.1300957891042 1991.072943106512 36.222630626784635
  endloop
endfacet
facet normal -1.0 9.508607186807499e-34 4.996003610813202e-16
  outer loop
    vertex -863.1300957891042 2007.2729431065122 -3.6273694141959085
    vertex -863.1300957891042 1991.072943106512 36.222630626784635
    vertex -863.1300957891042 2007.2729431065122 56.072630585811744
  endloop
endfacet
facet normal 0.9973815975361617 -0.06798157105002685 0.024666878476702247
  outer loop
    vertex -860.8359392711766 1965.3428127802183 41.72263058580644
    vertex -861.1795079575181 1963.5729431065126 50.7367652475741
    vertex -860.9565736615338 1963.5729431065126 41.72263058580644
  endloop
endfacet
facet normal 0.9973815975361617 -0.06798157105002685 0.024666878476702247
  outer loop
    vertex -861.1795079575181 1963.5729431065126 50.7367652475741
    vertex -860.8359392711766 1965.3428127802183 41.72263058580644
    vertex -861.2467619410868 1964.5223365273634 56.07263058581173
  endloop
endfacet
facet normal 0.9973815975361617 -0.06798157105002685 0.024666878476702247
  outer loop
    vertex -861.2467619410868 1964.5223365273634 56.07263058581173
    vertex -860.8359392711766 1965.3428127802183 41.72263058580644
    vertex -861.0205586529712 1967.8410447211259 56.07263058581173
  endloop
endfacet
facet normal 0.998935061704591 -0.04144213090030929 0.020280342297084326
  outer loop
    vertex -859.3470175384678 1974.499799669122 -3.62736941419592
    vertex -859.9553349169986 1976.646412256689 30.72263058580645
    vertex -859.4849115224632 1971.1759567001754 -3.62736941419592
  endloop
endfacet
facet normal 0.998935061704591 -0.04144213090030929 0.020280342297084326
  outer loop
    vertex -859.9553349169986 1976.646412256689 30.72263058580645
    vertex -859.3470175384678 1974.499799669122 -3.62736941419592
    vertex -859.8225599593535 1979.8468644927743 30.72263058580645
  endloop
endfacet
facet normal 0.999205411360986 -0.034891665630540185 0.019264412175035932
  outer loop
    vertex -859.8658065447163 1984.6817243012545 41.72263058580644
    vertex -860.1735061127584 1983.792951633374 56.07263058581173
    vertex -859.9748442862747 1981.5591705498387 41.72263058580644
  endloop
endfacet
facet normal 0.999205411360986 -0.034891665630540185 0.019264412175035932
  outer loop
    vertex -860.1735061127584 1983.792951633374 56.07263058581173
    vertex -859.8658065447163 1984.6817243012545 41.72263058580644
    vertex -860.0662465216731 1986.8645838382567 56.07263058581173
  endloop
endfacet
facet normal 0.9976977514243598 -0.06347176057180423 0.023885820326965845
  outer loop
    vertex -860.6241932296892 1968.6711992557407 41.72263058580644
    vertex -861.0205586529712 1967.8410447211259 56.07263058581173
    vertex -860.8359392711766 1965.3428127802183 41.72263058580644
  endloop
endfacet
facet normal 0.9976977514243598 -0.06347176057180423 0.023885820326965845
  outer loop
    vertex -861.0205586529712 1967.8410447211259 56.07263058581173
    vertex -860.6241932296892 1968.6711992557407 41.72263058580644
    vertex -860.8122656940451 1971.115152999927 56.07263058581173
  endloop
endfacet
facet normal 0.9986419485776261 -0.04756702033448732 0.02125175563525077
  outer loop
    vertex -859.4849115224632 1971.1759567001754 -3.62736941419592
    vertex -860.1096961835992 1973.4056871707162 30.72263058580645
    vertex -859.6452240573241 1967.8102881956286 -3.62736941419592
  endloop
endfacet
facet normal 0.9986419485776261 -0.04756702033448732 0.02125175563525077
  outer loop
    vertex -860.1096961835992 1973.4056871707162 30.72263058580645
    vertex -859.4849115224632 1971.1759567001754 -3.62736941419592
    vertex -859.9553349169986 1976.646412256689 30.72263058580645
  endloop
endfacet
facet normal 7.323108584545556e-14 -1.0 -1.2952002948663414e-14
  outer loop
    vertex -861.1795079575181 1963.5729431065126 50.7367652475741
    vertex -863.1300957891042 1963.5729431065126 41.72263058580644
    vertex -860.9565736615338 1963.5729431065126 41.72263058580644
  endloop
endfacet
facet normal 7.323108584545556e-14 -1.0 -1.2952002948663414e-14
  outer loop
    vertex -863.1300957891042 1963.5729431065126 41.72263058580644
    vertex -861.1795079575181 1963.5729431065126 50.7367652475741
    vertex -863.1300957891042 1963.5729431065126 56.072630585811744
  endloop
endfacet
facet normal 7.323108584545556e-14 -1.0 -1.2952002948663414e-14
  outer loop
    vertex -863.1300957891042 1963.5729431065126 56.072630585811744
    vertex -861.1795079575181 1963.5729431065126 50.7367652475741
    vertex -861.3154262425836 1963.5729431065126 56.07263058581173
  endloop
endfacet
facet normal 0.9996437751118105 -0.020487236128410136 0.01710543878498532
  outer loop
    vertex -859.076029295919 1984.2350013550704 -3.62736941419592
    vertex -859.6254414523704 1986.1380883460652 30.75967216470991
    vertex -859.1417581847713 1981.0278593972987 -3.62736941419592
  endloop
endfacet
facet normal 0.9996437751118105 -0.020487236128410136 0.01710543878498532
  outer loop
    vertex -859.6254414523704 1986.1380883460652 30.75967216470991
    vertex -859.076029295919 1984.2350013550704 -3.62736941419592
    vertex -859.6224822499532 1986.2908372415925 30.76968385850223
  endloop
endfacet
facet normal 0.9996437751118105 -0.020487236128410136 0.01710543878498532
  outer loop
    vertex -859.6224822499532 1986.2908372415925 30.76968385850223
    vertex -859.076029295919 1984.2350013550704 -3.62736941419592
    vertex -859.6104227701027 1986.9964479271428 30.910038560660716
  endloop
endfacet
facet normal 0.9996437751118105 -0.020487236128410136 0.01710543878498532
  outer loop
    vertex -859.6104227701027 1986.9964479271428 30.910038560660716
    vertex -859.076029295919 1984.2350013550704 -3.62736941419592
    vertex -859.6004179038368 1987.6777020507734 31.14129318443735
  endloop
endfacet
facet normal 0.9996437751118105 -0.020487236128410136 0.01710543878498532
  outer loop
    vertex -859.6004179038368 1987.6777020507734 31.14129318443735
    vertex -859.076029295919 1984.2350013550704 -3.62736941419592
    vertex -859.5926388371895 1988.3229431656594 31.459490899140864
  endloop
endfacet
facet normal 0.9996437751118105 -0.020487236128410136 0.01710543878498532
  outer loop
    vertex -859.5926388371895 1988.3229431656594 31.459490899140864
    vertex -859.076029295919 1984.2350013550704 -3.62736941419592
    vertex -859.587218672147 1988.9211310175344 31.859187253702586
  endloop
endfacet
facet normal 0.9996437751118105 -0.020487236128410136 0.01710543878498532
  outer loop
    vertex -859.587218672147 1988.9211310175344 31.859187253702586
    vertex -859.076029295919 1984.2350013550704 -3.62736941419592
    vertex -859.584297630692 1989.4533787722496 32.325956017884046
  endloop
endfacet
facet normal 0.9989350617045917 -0.04144213090029123 0.02028034229708226
  outer loop
    vertex -859.9748442862747 1981.5591705498387 41.72263058580644
    vertex -860.3025032736645 1980.6835606804918 56.07263058581173
    vertex -860.1059799632836 1978.3982320855578 41.72263058580644
  endloop
endfacet
facet normal 0.9989350617045917 -0.04144213090029123 0.02028034229708226
  outer loop
    vertex -860.3025032736645 1980.6835606804918 56.07263058581173
    vertex -859.9748442862747 1981.5591705498387 41.72263058580644
    vertex -860.1735061127584 1983.792951633374 56.07263058581173
  endloop
endfacet
facet normal 6.787345208596344e-16 -0.06540314378963986 0.9978589222843237
  outer loop
    vertex -859.6405479196791 1985.5729431884688 30.72263058580645
    vertex -863.1300957891042 1986.2908372415925 30.769683858502276
    vertex -863.1300957891042 1985.5729431884688 30.722630585806474
  endloop
endfacet
facet normal 6.787345208596344e-16 -0.06540314378963986 0.9978589222843237
  outer loop
    vertex -863.1300957891042 1986.2908372415925 30.769683858502276
    vertex -859.6405479196791 1985.5729431884688 30.72263058580645
    vertex -859.6224822499532 1986.2908372415925 30.76968385850223
  endloop
endfacet
facet normal 6.787345208596344e-16 -0.06540314378963986 0.9978589222843237
  outer loop
    vertex -859.6224822499532 1986.2908372415925 30.76968385850223
    vertex -859.6405479196791 1985.5729431884688 30.72263058580645
    vertex -859.6254414523704 1986.1380883460652 30.75967216470991
  endloop
endfacet
facet normal 2.6838371078979773e-16 -0.8314696179940452 0.5555702245016706
  outer loop
    vertex -859.5914647964696 1990.3360828546452 33.47263063312398
    vertex -863.1300957891042 1989.9363865134537 32.874442772314744
    vertex -859.5869584438866 1989.9363865134537 32.87444277231454
  endloop
endfacet
facet normal 2.6838371078979773e-16 -0.8314696179940452 0.5555702245016706
  outer loop
    vertex -863.1300957891042 1989.9363865134537 32.874442772314744
    vertex -859.5914647964696 1990.3360828546452 33.47263063312398
    vertex -863.1300957891042 1990.3360828546452 33.47263063312402
  endloop
endfacet
facet normal -5.348357433183468e-15 -0.980785282038464 0.1950903137952538
  outer loop
    vertex -859.6057110382159 1990.8855351634757 34.79912588392152
    vertex -863.1300957891042 1991.0258898498628 35.5047365726094
    vertex -863.1300957891042 1990.8855351634757 34.79912588392147
  endloop
endfacet
facet normal -5.348357433183468e-15 -0.980785282038464 0.1950903137952538
  outer loop
    vertex -863.1300957891042 1991.0258898498628 35.5047365726094
    vertex -859.6057110382159 1990.8855351634757 34.79912588392152
    vertex -859.6152071702352 1991.0258898498628 35.504736572609424
  endloop
endfacet
facet normal 1.2324253079652929e-15 -0.44228868827000023 -0.8968727424938293
  outer loop
    vertex -859.7556480959689 1988.3229430946828 40.98577031345068
    vertex -863.1300957891042 1987.6777019750552 41.30396801853889
    vertex -863.1300957891042 1988.3229430946826 40.98577031345059
  endloop
endfacet
facet normal 1.2324253079652929e-15 -0.44228868827000023 -0.8968727424938293
  outer loop
    vertex -863.1300957891042 1987.6777019750552 41.30396801853889
    vertex -859.7556480959689 1988.3229430946828 40.98577031345068
    vertex -859.7745201778547 1987.6777019750552 41.30396801853898
  endloop
endfacet
facet normal 1.2324253079652929e-15 -0.44228868827000023 -0.8968727424938293
  outer loop
    vertex -859.7745201778547 1987.6777019750552 41.30396801853898
    vertex -859.7556480959689 1988.3229430946828 40.98577031345068
    vertex -859.7735791699791 1987.7031986230563 41.29139446326705
  endloop
endfacet
facet normal -4.9235807179628275e-15 -0.9807852791313935 -0.19509032841008514
  outer loop
    vertex -859.6511760408698 1990.885535142264 37.64613536685526
    vertex -863.1300957891042 1991.0258898391653 36.94052468025874
    vertex -859.6381358294182 1991.0258898391648 36.94052468025872
  endloop
endfacet
facet normal -4.9235807179628275e-15 -0.9807852791313935 -0.19509032841008514
  outer loop
    vertex -863.1300957891042 1991.0258898391653 36.94052468025874
    vertex -859.6511760408698 1990.885535142264 37.64613536685526
    vertex -863.1300957891042 1990.885535142264 37.64613536685526
  endloop
endfacet
facet normal 4.76162060385458e-15 -5.105882667523047e-16 1.0
  outer loop
    vertex -860.6851849177573 1963.5729431065122 30.72263058580645
    vertex -863.1300957891042 1985.5729431884688 30.722630585806474
    vertex -863.1300957891042 1963.5729431065126 30.72263058580645
  endloop
endfacet
facet normal 4.76162060385458e-15 -5.105882667523047e-16 1.0
  outer loop
    vertex -863.1300957891042 1985.5729431884688 30.722630585806474
    vertex -860.6851849177573 1963.5729431065122 30.72263058580645
    vertex -859.6405479196791 1985.5729431884688 30.72263058580645
  endloop
endfacet
facet normal 4.76162060385458e-15 -5.105882667523047e-16 1.0
  outer loop
    vertex -859.6405479196791 1985.5729431884688 30.72263058580645
    vertex -860.6851849177573 1963.5729431065122 30.72263058580645
    vertex -860.4800261838419 1966.7977852358079 30.72263058580645
  endloop
endfacet
facet normal 4.76162060385458e-15 -5.105882667523047e-16 1.0
  outer loop
    vertex -859.6405479196791 1985.5729431884688 30.72263058580645
    vertex -860.4800261838419 1966.7977852358079 30.72263058580645
    vertex -860.2848558941993 1970.123280931531 30.72263058580645
  endloop
endfacet
facet normal 4.76162060385458e-15 -5.105882667523047e-16 1.0
  outer loop
    vertex -859.6405479196791 1985.5729431884688 30.72263058580645
    vertex -860.2848558941993 1970.123280931531 30.72263058580645
    vertex -860.1096961835992 1973.4056871707162 30.72263058580645
  endloop
endfacet
facet normal 4.76162060385458e-15 -5.105882667523047e-16 1.0
  outer loop
    vertex -859.6405479196791 1985.5729431884688 30.72263058580645
    vertex -860.1096961835992 1973.4056871707162 30.72263058580645
    vertex -859.9553349169986 1976.646412256689 30.72263058580645
  endloop
endfacet
facet normal 4.76162060385458e-15 -5.105882667523047e-16 1.0
  outer loop
    vertex -859.6405479196791 1985.5729431884688 30.72263058580645
    vertex -859.9553349169986 1976.646412256689 30.72263058580645
    vertex -859.8225599593535 1979.8468644927743 30.72263058580645
  endloop
endfacet
facet normal 4.76162060385458e-15 -5.105882667523047e-16 1.0
  outer loop
    vertex -859.6405479196791 1985.5729431884688 30.72263058580645
    vertex -859.8225599593535 1979.8468644927743 30.72263058580645
    vertex -859.7121591756205 1983.0084521822982 30.72263058580645
  endloop
endfacet
facet normal 2.0323076686785563e-15 -0.32143947794374184 0.9469301252042068
  outer loop
    vertex -859.6104227701027 1986.9964479271428 30.910038560660716
    vertex -863.1300957891042 1987.6777020507739 31.141293184437444
    vertex -863.1300957891042 1986.9964479271434 30.91003856066081
  endloop
endfacet
facet normal 2.0323076686785563e-15 -0.32143947794374184 0.9469301252042068
  outer loop
    vertex -863.1300957891042 1987.6777020507739 31.141293184437444
    vertex -859.6104227701027 1986.9964479271428 30.910038560660716
    vertex -859.6004179038368 1987.6777020507734 31.14129318443735
  endloop
endfacet
facet normal -1.3403249014759106e-15 -0.8314696097154495 -0.5555702368914647
  outer loop
    vertex -859.6983693243277 1989.936386463562 39.57081846431871
    vertex -863.1300957891042 1990.3360828136672 38.97263060946521
    vertex -859.6799418207551 1990.3360828136672 38.97263060946521
  endloop
endfacet
facet normal -1.3403249014759106e-15 -0.8314696097154495 -0.5555702368914647
  outer loop
    vertex -863.1300957891042 1990.3360828136672 38.97263060946521
    vertex -859.6983693243277 1989.936386463562 39.57081846431871
    vertex -863.1300957891042 1989.936386463562 39.57081846431874
  endloop
endfacet
facet normal -3.5720735332009223e-16 -0.06540312892035922 -0.9978589232589078
  outer loop
    vertex -859.8200163150741 1986.2908371603369 41.67557732380812
    vertex -863.1300957891042 1985.5729431065124 41.72263058580644
    vertex -863.1300957891042 1986.2908371603369 41.67557732380812
  endloop
endfacet
facet normal -3.5720735332009223e-16 -0.06540312892035922 -0.9978589232589078
  outer loop
    vertex -863.1300957891042 1985.5729431065124 41.72263058580644
    vertex -859.8200163150741 1986.2908371603369 41.67557732380812
    vertex -859.840920008632 1985.572943106512 41.72263058580644
  endloop
endfacet
facet normal -8.065344532041018e-15 -0.6593458125325558 -0.7518398097306263
  outer loop
    vertex -859.7173466515732 1989.4620303885501 40.11171789682032
    vertex -863.1300957891042 1988.9211309525142 40.586073967802314
    vertex -863.1300957891042 1989.4620303885501 40.111717896820416
  endloop
endfacet
facet normal -8.065344532041018e-15 -0.6593458125325558 -0.7518398097306263
  outer loop
    vertex -863.1300957891042 1988.9211309525142 40.586073967802314
    vertex -859.7173466515732 1989.4620303885501 40.11171789682032
    vertex -859.7365490951638 1988.9211309525142 40.586073967802406
  endloop
endfacet
facet normal -2.068632615268308e-15 -0.4422887016345855 0.8968727359031451
  outer loop
    vertex -859.6004179038368 1987.6777020507734 31.14129318443735
    vertex -863.1300957891042 1988.3229431656594 31.459490899140587
    vertex -863.1300957891042 1987.6777020507739 31.141293184437444
  endloop
endfacet
facet normal -2.068632615268308e-15 -0.4422887016345855 0.8968727359031451
  outer loop
    vertex -863.1300957891042 1988.3229431656594 31.459490899140587
    vertex -859.6004179038368 1987.6777020507734 31.14129318443735
    vertex -859.5926388371895 1988.3229431656594 31.459490899140864
  endloop
endfacet
facet normal 1.8534709086827e-15 -0.19509033571750362 0.9807852776778573
  outer loop
    vertex -859.6224822499532 1986.2908372415925 30.76968385850223
    vertex -863.1300957891042 1986.9964479271434 30.91003856066081
    vertex -863.1300957891042 1986.2908372415925 30.769683858502276
  endloop
endfacet
facet normal 1.8534709086827e-15 -0.19509033571750362 0.9807852776778573
  outer loop
    vertex -863.1300957891042 1986.9964479271434 30.91003856066081
    vertex -859.6224822499532 1986.2908372415925 30.76968385850223
    vertex -859.6104227701027 1986.9964479271428 30.910038560660716
  endloop
endfacet
facet normal -1.802214577208771e-14 -0.9978589227716244 -0.06540313635486923
  outer loop
    vertex -859.6381358294182 1991.0258898391648 36.94052468025872
    vertex -863.1300957891042 1991.072943106512 36.222630626784635
    vertex -859.6260774316978 1991.072943106512 36.222630626784635
  endloop
endfacet
facet normal -1.802214577208771e-14 -0.9978589227716244 -0.06540313635486923
  outer loop
    vertex -863.1300957891042 1991.072943106512 36.222630626784635
    vertex -859.6381358294182 1991.0258898391648 36.94052468025872
    vertex -863.1300957891042 1991.0258898391653 36.94052468025874
  endloop
endfacet
facet normal 1.814067468027984e-15 -0.9469301323890126 0.3214394567779868
  outer loop
    vertex -859.5977515170902 1990.6542805549263 34.117871755122096
    vertex -863.1300957891042 1990.8855351634757 34.79912588392147
    vertex -863.1300957891042 1990.6542805549263 34.117871755122046
  endloop
endfacet
facet normal 1.814067468027984e-15 -0.9469301323890126 0.3214394567779868
  outer loop
    vertex -863.1300957891042 1990.8855351634757 34.79912588392147
    vertex -859.5977515170902 1990.6542805549263 34.117871755122096
    vertex -859.6057110382159 1990.8855351634757 34.79912588392152
  endloop
endfacet
facet normal 1.92812650071019e-15 -0.3214394638333584 -0.9469301299940367
  outer loop
    vertex -859.7745201778547 1987.6777019750552 41.30396801853898
    vertex -863.1300957891042 1986.9964478479792 41.5352226321639
    vertex -863.1300957891042 1987.6777019750552 41.30396801853889
  endloop
endfacet
facet normal 1.92812650071019e-15 -0.3214394638333584 -0.9469301299940367
  outer loop
    vertex -863.1300957891042 1986.9964478479792 41.5352226321639
    vertex -859.7745201778547 1987.6777019750552 41.30396801853898
    vertex -859.7977560785434 1986.9964478479792 41.535222632163965
  endloop
endfacet
facet normal 4.428148589303867e-17 -0.8968727391985339 -0.442288694952198
  outer loop
    vertex -859.676444484211 1990.3994480560702 38.84413861052364
    vertex -863.1300957891042 1990.6542805235629 38.32738949220868
    vertex -859.6649749444216 1990.6542805235629 38.32738949220866
  endloop
endfacet
facet normal 4.428148589303867e-17 -0.8968727391985339 -0.442288694952198
  outer loop
    vertex -863.1300957891042 1990.6542805235629 38.32738949220868
    vertex -859.676444484211 1990.3994480560702 38.84413861052364
    vertex -863.1300957891042 1990.3360828136672 38.97263060946521
  endloop
endfacet
facet normal 4.428148589303867e-17 -0.8968727391985339 -0.442288694952198
  outer loop
    vertex -863.1300957891042 1990.3360828136672 38.97263060946521
    vertex -859.676444484211 1990.3994480560702 38.84413861052364
    vertex -859.6799418207551 1990.3360828136672 38.97263060946521
  endloop
endfacet
facet normal 8.127448155920196e-16 -0.9469301275991452 -0.3214394708884812
  outer loop
    vertex -859.6649749444216 1990.6542805235629 38.32738949220866
    vertex -863.1300957891042 1990.885535142264 37.64613536685526
    vertex -859.6511760408698 1990.885535142264 37.64613536685526
  endloop
endfacet
facet normal 8.127448155920196e-16 -0.9469301275991452 -0.3214394708884812
  outer loop
    vertex -863.1300957891042 1990.885535142264 37.64613536685526
    vertex -859.6649749444216 1990.6542805235629 38.32738949220866
    vertex -863.1300957891042 1990.6542805235629 38.32738949220868
  endloop
endfacet
facet normal -1.9120292546484632e-15 -0.7518398048180713 -0.6593458181342509
  outer loop
    vertex -859.7173466515732 1989.4620303885501 40.11171789682032
    vertex -863.1300957891042 1989.936386463562 39.57081846431874
    vertex -859.6983693243277 1989.936386463562 39.57081846431871
  endloop
endfacet
facet normal -1.9120292546484632e-15 -0.7518398048180713 -0.6593458181342509
  outer loop
    vertex -863.1300957891042 1989.936386463562 39.57081846431874
    vertex -859.7173466515732 1989.4620303885501 40.11171789682032
    vertex -863.1300957891042 1989.4620303885501 40.111717896820416
  endloop
endfacet
facet normal -9.419809899916443e-15 -0.6593458237360175 0.7518397999054538
  outer loop
    vertex -859.587218672147 1988.9211310175344 31.859187253702586
    vertex -863.1300957891042 1989.4620304465018 32.33354333274455
    vertex -863.1300957891042 1988.9211310175344 31.859187253702494
  endloop
endfacet
facet normal -9.419809899916443e-15 -0.6593458237360175 0.7518397999054538
  outer loop
    vertex -863.1300957891042 1989.4620304465018 32.33354333274455
    vertex -859.587218672147 1988.9211310175344 31.859187253702586
    vertex -859.5843095642819 1989.4620304465018 32.333543332744384
  endloop
endfacet
facet normal -9.419809899916443e-15 -0.6593458237360175 0.7518397999054538
  outer loop
    vertex -859.5843095642819 1989.4620304465018 32.333543332744384
    vertex -859.587218672147 1988.9211310175344 31.859187253702586
    vertex -859.584297630692 1989.4533787722496 32.325956017884046
  endloop
endfacet
facet normal -1.262112729260465e-14 -0.9978589237462167 0.06540312148546343
  outer loop
    vertex -859.6152071702352 1991.0258898498628 35.504736572609424
    vertex -863.1300957891042 1991.072943106512 36.222630626784635
    vertex -863.1300957891042 1991.0258898498628 35.5047365726094
  endloop
endfacet
facet normal -1.262112729260465e-14 -0.9978589237462167 0.06540312148546343
  outer loop
    vertex -863.1300957891042 1991.072943106512 36.222630626784635
    vertex -859.6152071702352 1991.0258898498628 35.504736572609424
    vertex -859.6260774316978 1991.072943106512 36.222630626784635
  endloop
endfacet
facet normal -4.996003610813203e-16 0.0 -1.0
  outer loop
    vertex -859.840920008632 1985.572943106512 41.72263058580644
    vertex -863.1300957891042 1963.5729431065126 41.72263058580644
    vertex -863.1300957891042 1985.5729431065124 41.72263058580644
  endloop
endfacet
facet normal -4.996003610813203e-16 0.0 -1.0
  outer loop
    vertex -863.1300957891042 1963.5729431065126 41.72263058580644
    vertex -859.840920008632 1985.572943106512 41.72263058580644
    vertex -860.9565736615338 1963.5729431065126 41.72263058580644
  endloop
endfacet
facet normal -4.996003610813203e-16 0.0 -1.0
  outer loop
    vertex -860.9565736615338 1963.5729431065126 41.72263058580644
    vertex -859.840920008632 1985.572943106512 41.72263058580644
    vertex -860.8359392711766 1965.3428127802183 41.72263058580644
  endloop
endfacet
facet normal -4.996003610813203e-16 0.0 -1.0
  outer loop
    vertex -860.8359392711766 1965.3428127802183 41.72263058580644
    vertex -859.840920008632 1985.572943106512 41.72263058580644
    vertex -860.6241932296892 1968.6711992557407 41.72263058580644
  endloop
endfacet
facet normal -4.996003610813203e-16 0.0 -1.0
  outer loop
    vertex -860.6241932296892 1968.6711992557407 41.72263058580644
    vertex -859.840920008632 1985.572943106512 41.72263058580644
    vertex -860.4314325727232 1971.9556373544865 41.72263058580644
  endloop
endfacet
facet normal -4.996003610813203e-16 0.0 -1.0
  outer loop
    vertex -860.4314325727232 1971.9556373544865 41.72263058580644
    vertex -859.840920008632 1985.572943106512 41.72263058580644
    vertex -860.2584354380106 1975.1975179924323 41.72263058580644
  endloop
endfacet
facet normal -4.996003610813203e-16 0.0 -1.0
  outer loop
    vertex -860.2584354380106 1975.1975179924323 41.72263058580644
    vertex -859.840920008632 1985.572943106512 41.72263058580644
    vertex -860.1059799632836 1978.3982320855578 41.72263058580644
  endloop
endfacet
facet normal -4.996003610813203e-16 0.0 -1.0
  outer loop
    vertex -860.1059799632836 1978.3982320855578 41.72263058580644
    vertex -859.840920008632 1985.572943106512 41.72263058580644
    vertex -859.9748442862747 1981.5591705498387 41.72263058580644
  endloop
endfacet
facet normal -4.996003610813203e-16 0.0 -1.0
  outer loop
    vertex -859.9748442862747 1981.5591705498387 41.72263058580644
    vertex -859.840920008632 1985.572943106512 41.72263058580644
    vertex -859.8658065447163 1984.6817243012545 41.72263058580644
  endloop
endfacet
facet normal -5.12826912344428e-15 -0.7518398146429885 0.6593458069310799
  outer loop
    vertex -859.5869584438866 1989.9363865134537 32.87444277231454
    vertex -863.1300957891042 1989.4620304465018 32.33354333274455
    vertex -859.5843095642819 1989.4620304465018 32.333543332744384
  endloop
endfacet
facet normal -5.12826912344428e-15 -0.7518398146429885 0.6593458069310799
  outer loop
    vertex -863.1300957891042 1989.4620304465018 32.33354333274455
    vertex -859.5869584438866 1989.9363865134537 32.87444277231454
    vertex -863.1300957891042 1989.9363865134537 32.874442772314744
  endloop
endfacet
facet normal 7.22355878722373e-15 -0.8968727457890345 0.44228868158798496
  outer loop
    vertex -859.5977515170902 1990.6542805549263 34.117871755122096
    vertex -863.1300957891042 1990.3360828546452 33.47263063312402
    vertex -859.5914647964696 1990.3360828546452 33.47263063312398
  endloop
endfacet
facet normal 7.22355878722373e-15 -0.8968727457890345 0.44228868158798496
  outer loop
    vertex -863.1300957891042 1990.3360828546452 33.47263063312402
    vertex -859.5977515170902 1990.6542805549263 34.117871755122096
    vertex -863.1300957891042 1990.6542805549263 34.117871755122046
  endloop
endfacet
facet normal -7.112049493404893e-15 -0.5555702430864161 0.8314696055761152
  outer loop
    vertex -859.5926388371895 1988.3229431656594 31.459490899140864
    vertex -863.1300957891042 1988.9211310175344 31.859187253702494
    vertex -863.1300957891042 1988.3229431656594 31.459490899140587
  endloop
endfacet
facet normal -7.112049493404893e-15 -0.5555702430864161 0.8314696055761152
  outer loop
    vertex -863.1300957891042 1988.9211310175344 31.859187253702494
    vertex -859.5926388371895 1988.3229431656594 31.459490899140864
    vertex -859.587218672147 1988.9211310175344 31.859187253702586
  endloop
endfacet
facet normal 1.6394045546774716e-15 -0.19509032110274657 -0.9807852805849133
  outer loop
    vertex -859.7977560785434 1986.9964478479792 41.535222632163965
    vertex -863.1300957891042 1986.2908371603369 41.67557732380812
    vertex -863.1300957891042 1986.9964478479792 41.5352226321639
  endloop
endfacet
facet normal 1.6394045546774716e-15 -0.19509032110274657 -0.9807852805849133
  outer loop
    vertex -863.1300957891042 1986.2908371603369 41.67557732380812
    vertex -859.7977560785434 1986.9964478479792 41.535222632163965
    vertex -859.8200163150741 1986.2908371603369 41.67557732380812
  endloop
endfacet
facet normal -2.8331171301277816e-15 -0.5555702306965576 -0.8314696138547542
  outer loop
    vertex -859.7365490951638 1988.9211309525142 40.586073967802406
    vertex -863.1300957891042 1988.3229430946826 40.98577031345059
    vertex -863.1300957891042 1988.9211309525142 40.586073967802314
  endloop
endfacet
facet normal -2.8331171301277816e-15 -0.5555702306965576 -0.8314696138547542
  outer loop
    vertex -863.1300957891042 1988.3229430946826 40.98577031345059
    vertex -859.7365490951638 1988.9211309525142 40.586073967802406
    vertex -859.7556480959689 1988.3229430946828 40.98577031345068
  endloop
endfacet
endsolid INTERCEPTOR v2 and MARAUDER
