solid OpenSCAD_Model
  facet normal 0.956971 0.290185 0
    outer loop
      vertex -130.314 -38.711 7.001
      vertex -130.314 -38.711 0
      vertex -130.905 -36.762 0
    endloop
  endfacet
  facet normal 0.956971 0.290185 0
    outer loop
      vertex -130.314 -38.711 7.001
      vertex -130.905 -36.762 0
      vertex -130.905 -36.762 7.001
    endloop
  endfacet
  facet normal 0 0 -1
    outer loop
      vertex -148.349 -39.291 0
      vertex -150.686 -38.711 0
      vertex -147.894 -37.789 0
    endloop
  endfacet
  facet normal 0 0 -1
    outer loop
      vertex -148.503 -40.852 0
      vertex -150.885 -40.737 0
      vertex -148.349 -39.291 0
    endloop
  endfacet
  facet normal 0.995211 0.0977527 0
    outer loop
      vertex -130.115 -40.737 7.001
      vertex -130.115 -40.737 0
      vertex -130.314 -38.711 0
    endloop
  endfacet
  facet normal 0.995211 0.0977527 0
    outer loop
      vertex -130.115 -40.737 7.001
      vertex -130.314 -38.711 0
      vertex -130.314 -38.711 7.001
    endloop
  endfacet
  facet normal 0.995211 -0.0977527 0
    outer loop
      vertex -130.314 -42.763 7.001
      vertex -130.314 -42.763 0
      vertex -130.115 -40.737 0
    endloop
  endfacet
  facet normal 0.995211 -0.0977527 0
    outer loop
      vertex -130.314 -42.763 7.001
      vertex -130.115 -40.737 0
      vertex -130.115 -40.737 7.001
    endloop
  endfacet
  facet normal 0.881717 -0.471779 0
    outer loop
      vertex -173.994 -37.789 7.001
      vertex -173.994 -37.789 0
      vertex -173.254 -36.406 0
    endloop
  endfacet
  facet normal 0.881717 -0.471779 0
    outer loop
      vertex -173.994 -37.789 7.001
      vertex -173.254 -36.406 0
      vertex -173.254 -36.406 7.001
    endloop
  endfacet
  facet normal 0 1 0
    outer loop
      vertex -151.549 -24.201 26.058
      vertex -149.673 -24.201 25.489
      vertex -152.874 -24.201 17.235
    endloop
  endfacet
  facet normal -0.965824 0 0.259199
    outer loop
      vertex -152.247 -27.702 16.15
      vertex -152.247 -24.201 16.15
      vertex -152.415 -24.201 15.524
    endloop
  endfacet
  facet normal -0.965824 0 0.259199
    outer loop
      vertex -152.247 -27.702 16.15
      vertex -152.415 -24.201 15.524
      vertex -152.415 -27.702 15.524
    endloop
  endfacet
  facet normal -0 1 0
    outer loop
      vertex -153.5 -24.201 17.403
      vertex -151.549 -24.201 26.058
      vertex -152.874 -24.201 17.235
    endloop
  endfacet
  facet normal 0.956929 -0.290321 0
    outer loop
      vertex -130.314 -42.763 7.001
      vertex -130.905 -44.711 7.001
      vertex -130.905 -44.711 0
    endloop
  endfacet
  facet normal 0.956929 -0.290321 0
    outer loop
      vertex -130.314 -42.763 7.001
      vertex -130.905 -44.711 0
      vertex -130.314 -42.763 0
    endloop
  endfacet
  facet normal 0 1 -0
    outer loop
      vertex -154.585 -24.201 16.777
      vertex -160.571 -24.201 23.321
      vertex -154.127 -24.201 17.235
    endloop
  endfacet
  facet normal 0 1 -0
    outer loop
      vertex -154.127 -24.201 17.235
      vertex -155.451 -24.201 26.058
      vertex -153.5 -24.201 17.403
    endloop
  endfacet
  facet normal 0.880153 -0.474689 0
    outer loop
      vertex -130.905 -44.711 7.001
      vertex -130.953 -44.8 7.001
      vertex -130.953 -44.8 0
    endloop
  endfacet
  facet normal 0.880153 -0.474689 0
    outer loop
      vertex -130.905 -44.711 7.001
      vertex -130.953 -44.8 0
      vertex -130.905 -44.711 0
    endloop
  endfacet
  facet normal 0 0 1
    outer loop
      vertex -158.597 -40.852 7.001
      vertex -158.751 -42.413 7.001
      vertex -156.53 -42.763 7.001
    endloop
  endfacet
  facet normal 0 0 1
    outer loop
      vertex -156.33 -40.737 7.001
      vertex -158.597 -40.852 7.001
      vertex -156.53 -42.763 7.001
    endloop
  endfacet
  facet normal 0 0 1
    outer loop
      vertex -158.08 -34.967 7.001
      vertex -158.421 -34.552 7.001
      vertex -159.946 -36.406 7.001
    endloop
  endfacet
  facet normal 0 0 1
    outer loop
      vertex -157.121 -36.762 7.001
      vertex -158.08 -34.967 7.001
      vertex -159.946 -36.406 7.001
    endloop
  endfacet
  facet normal -0 0 1
    outer loop
      vertex -160.941 -35.193 7.001
      vertex -159.946 -36.406 7.001
      vertex -158.421 -34.552 7.001
    endloop
  endfacet
  facet normal 0 -0 1
    outer loop
      vertex -163.537 -33.458 7.001
      vertex -163.5 -30.9117 7.001
      vertex -165.039 -33.003 7.001
    endloop
  endfacet
  facet normal 0.957051 -0.289919 0
    outer loop
      vertex -174.449 -39.291 7.001
      vertex -174.449 -39.291 0
      vertex -173.994 -37.789 0
    endloop
  endfacet
  facet normal 0.957051 -0.289919 0
    outer loop
      vertex -174.449 -39.291 7.001
      vertex -173.994 -37.789 0
      vertex -173.994 -37.789 7.001
    endloop
  endfacet
  facet normal 0 -0 -1
    outer loop
      vertex -148.503 -40.852 0
      vertex -148.349 -42.413 0
      vertex -150.686 -42.763 0
    endloop
  endfacet
  facet normal -0 0 -1
    outer loop
      vertex -148.503 -40.852 0
      vertex -150.686 -42.763 0
      vertex -150.885 -40.737 0
    endloop
  endfacet
  facet normal 0 -0 -1
    outer loop
      vertex -150.686 -38.711 0
      vertex -148.349 -39.291 0
      vertex -150.885 -40.737 0
    endloop
  endfacet
  facet normal 0 -0 -1
    outer loop
      vertex -150.095 -36.762 0
      vertex -147.894 -37.789 0
      vertex -150.686 -38.711 0
    endloop
  endfacet
  facet normal 0 -0 -1
    outer loop
      vertex -149.135 -34.967 0
      vertex -147.154 -36.406 0
      vertex -150.095 -36.762 0
    endloop
  endfacet
  facet normal 0 -0 -1
    outer loop
      vertex -148.794 -34.552 0
      vertex -147.154 -36.406 0
      vertex -149.135 -34.967 0
    endloop
  endfacet
  facet normal 0 0 1
    outer loop
      vertex -166.6 -32.849 7.001
      vertex -166.715 -30.351 7.001
      vertex -168.161 -33.003 7.001
    endloop
  endfacet
  facet normal 0 0 1
    outer loop
      vertex -168.161 -33.003 7.001
      vertex -168.741 -30.551 7.001
      vertex -169.663 -33.458 7.001
    endloop
  endfacet
  facet normal 0.995169 -0.0981781 0
    outer loop
      vertex -174.603 -40.852 7.001
      vertex -174.603 -40.852 0
      vertex -174.449 -39.291 0
    endloop
  endfacet
  facet normal 0.995169 -0.0981781 0
    outer loop
      vertex -174.603 -40.852 7.001
      vertex -174.449 -39.291 0
      vertex -174.449 -39.291 7.001
    endloop
  endfacet
  facet normal 0.881808 0.471608 -0
    outer loop
      vertex -130.905 -36.762 0
      vertex -131.865 -34.967 0
      vertex -130.905 -36.762 7.001
    endloop
  endfacet
  facet normal 0.881808 0.471608 0
    outer loop
      vertex -131.865 -34.967 7.001
      vertex -130.905 -36.762 7.001
      vertex -131.865 -34.967 0
    endloop
  endfacet
  facet normal 0 -0 -1
    outer loop
      vertex -158.751 -42.413 0
      vertex -157.121 -44.711 0
      vertex -159.206 -43.915 0
    endloop
  endfacet
  facet normal 0 0 1
    outer loop
      vertex -169.663 -33.458 7.001
      vertex -170.69 -31.142 7.001
      vertex -171.046 -34.198 7.001
    endloop
  endfacet
  facet normal -0 0 1
    outer loop
      vertex -140.5 -32.849 7.001
      vertex -138.939 -33.003 7.001
      vertex -138.474 -30.551 7.001
    endloop
  endfacet
  facet normal 0 0 1
    outer loop
      vertex -140.5 -30.351 7.001
      vertex -140.5 -32.849 7.001
      vertex -138.474 -30.551 7.001
    endloop
  endfacet
  facet normal 0 -1 0
    outer loop
      vertex -154.753 -27.702 16.15
      vertex -154.585 -27.702 16.777
      vertex -163.308 -27.702 18.201
    endloop
  endfacet
  facet normal 0 0 1
    outer loop
      vertex -173.52 -44.8 7.001
      vertex -173.994 -43.915 7.001
      vertex -176.262 -44.8 7.001
    endloop
  endfacet
  facet normal 0 -1 0
    outer loop
      vertex -130.953 -44.8 0
      vertex -130.953 -44.8 7.001
      vertex -133.58 -44.8 0
    endloop
  endfacet
  facet normal 0 -1 0
    outer loop
      vertex -133.58 -44.8 7.001
      vertex -133.58 -44.8 0
      vertex -130.953 -44.8 7.001
    endloop
  endfacet
  facet normal 0 0 -1
    outer loop
      vertex -159.68 -44.8 0
      vertex -159.206 -43.915 0
      vertex -157.169 -44.8 0
    endloop
  endfacet
  facet normal 0 0 -1
    outer loop
      vertex -156.33 -40.737 0
      vertex -156.53 -42.763 0
      vertex -158.597 -40.852 0
    endloop
  endfacet
  facet normal 0 1 0
    outer loop
      vertex -146.429 -24.201 23.321
      vertex -145.185 -24.201 21.806
      vertex -152.415 -24.201 16.777
    endloop
  endfacet
  facet normal 0 1 0
    outer loop
      vertex -153.5 -24.201 17.403
      vertex -153.5 -24.201 26.251
      vertex -151.549 -24.201 26.058
    endloop
  endfacet
  facet normal 0 1 -0
    outer loop
      vertex -152.415 -24.201 16.777
      vertex -152.874 -24.201 17.235
      vertex -146.429 -24.201 23.321
    endloop
  endfacet
  facet normal 0 1 0
    outer loop
      vertex -144.261 -24.201 20.077
      vertex -143.692 -24.201 18.201
      vertex -152.415 -24.201 16.777
    endloop
  endfacet
  facet normal 0 1 -0
    outer loop
      vertex -152.247 -24.201 16.15
      vertex -152.415 -24.201 16.777
      vertex -143.692 -24.201 18.201
    endloop
  endfacet
  facet normal 0 1 0
    outer loop
      vertex -145.185 -24.201 21.806
      vertex -144.261 -24.201 20.077
      vertex -152.415 -24.201 16.777
    endloop
  endfacet
  facet normal 0 0 1
    outer loop
      vertex -177.101 -40.737 7.001
      vertex -176.901 -42.763 7.001
      vertex -174.603 -40.852 7.001
    endloop
  endfacet
  facet normal 0 -0 -1
    outer loop
      vertex -158.08 -34.967 0
      vertex -157.121 -36.762 0
      vertex -159.946 -36.406 0
    endloop
  endfacet
  facet normal 0 0 -1
    outer loop
      vertex -159.206 -37.789 0
      vertex -159.946 -36.406 0
      vertex -157.121 -36.762 0
    endloop
  endfacet
  facet normal 0 -1 0
    outer loop
      vertex -152.874 -27.702 15.065
      vertex -143.5 -27.702 7.001
      vertex -152.415 -27.702 15.524
    endloop
  endfacet
  facet normal 0 -0 -1
    outer loop
      vertex -158.421 -34.552 0
      vertex -158.08 -34.967 0
      vertex -159.946 -36.406 0
    endloop
  endfacet
  facet normal -0.881524 0.472138 0
    outer loop
      vertex -133.106 -43.915 7.001
      vertex -133.106 -43.915 0
      vertex -133.58 -44.8 0
    endloop
  endfacet
  facet normal -0.881524 0.472138 0
    outer loop
      vertex -133.106 -43.915 7.001
      vertex -133.58 -44.8 0
      vertex -133.58 -44.8 7.001
    endloop
  endfacet
  facet normal 0 -1 0
    outer loop
      vertex -152.415 -27.702 15.524
      vertex -143.5 -27.702 7.001
      vertex -143.5 -27.702 16.251
    endloop
  endfacet
  facet normal 0 -1 -0
    outer loop
      vertex -152.247 -27.702 16.15
      vertex -152.415 -27.702 15.524
      vertex -143.5 -27.702 16.251
    endloop
  endfacet
  facet normal 0 1 0
    outer loop
      vertex -160.571 -24.201 23.321
      vertex -154.585 -24.201 16.777
      vertex -161.815 -24.201 21.806
    endloop
  endfacet
  facet normal 0 1 0
    outer loop
      vertex -161.815 -24.201 21.806
      vertex -154.585 -24.201 16.777
      vertex -162.739 -24.201 20.077
    endloop
  endfacet
  facet normal 0 1 0
    outer loop
      vertex -159.056 -24.201 24.565
      vertex -154.127 -24.201 17.235
      vertex -160.571 -24.201 23.321
    endloop
  endfacet
  facet normal 0 1 0
    outer loop
      vertex -157.327 -24.201 25.489
      vertex -154.127 -24.201 17.235
      vertex -159.056 -24.201 24.565
    endloop
  endfacet
  facet normal 0 1 0
    outer loop
      vertex -155.451 -24.201 26.058
      vertex -154.127 -24.201 17.235
      vertex -157.327 -24.201 25.489
    endloop
  endfacet
  facet normal 0 1 0
    outer loop
      vertex -153.5 -24.201 26.251
      vertex -153.5 -24.201 17.403
      vertex -155.451 -24.201 26.058
    endloop
  endfacet
  facet normal 0 -1 0
    outer loop
      vertex -153.5 -27.702 14.897
      vertex -143.5 -27.702 7.001
      vertex -152.874 -27.702 15.065
    endloop
  endfacet
  facet normal 0 -1 -0
    outer loop
      vertex -154.127 -27.702 15.065
      vertex -163.5 -27.702 7.001
      vertex -153.5 -27.702 14.897
    endloop
  endfacet
  facet normal -0.957051 0.289919 0
    outer loop
      vertex -132.651 -42.413 7.001
      vertex -132.651 -42.413 0
      vertex -133.106 -43.915 0
    endloop
  endfacet
  facet normal -0.957051 0.289919 0
    outer loop
      vertex -132.651 -42.413 7.001
      vertex -133.106 -43.915 0
      vertex -133.106 -43.915 7.001
    endloop
  endfacet
  facet normal 0 0 1
    outer loop
      vertex -172.259 -35.193 7.001
      vertex -175.35 -34.967 7.001
      vertex -173.254 -36.406 7.001
    endloop
  endfacet
  facet normal 0 0 1
    outer loop
      vertex -171.046 -34.198 7.001
      vertex -172.485 -32.102 7.001
      vertex -172.259 -35.193 7.001
    endloop
  endfacet
  facet normal 0 0 1
    outer loop
      vertex -168.741 -30.551 7.001
      vertex -170.69 -31.142 7.001
      vertex -169.663 -33.458 7.001
    endloop
  endfacet
  facet normal 0 -0 1
    outer loop
      vertex -165.039 -33.003 7.001
      vertex -164.689 -30.551 7.001
      vertex -166.6 -32.849 7.001
    endloop
  endfacet
  facet normal -0 0 1
    outer loop
      vertex -174.059 -33.393 7.001
      vertex -172.259 -35.193 7.001
      vertex -172.485 -32.102 7.001
    endloop
  endfacet
  facet normal 0 1 0
    outer loop
      vertex -149.673 -24.201 25.489
      vertex -147.944 -24.201 24.565
      vertex -152.874 -24.201 17.235
    endloop
  endfacet
  facet normal 0 0 1
    outer loop
      vertex -172.259 -35.193 7.001
      vertex -174.059 -33.393 7.001
      vertex -175.35 -34.967 7.001
    endloop
  endfacet
  facet normal 0 1 -0
    outer loop
      vertex -154.753 -24.201 16.15
      vertex -163.308 -24.201 18.201
      vertex -154.585 -24.201 16.777
    endloop
  endfacet
  facet normal -0.471608 0.881808 0
    outer loop
      vertex -170.69 -31.142 7.001
      vertex -170.69 -31.142 0
      vertex -172.485 -32.102 0
    endloop
  endfacet
  facet normal -0.471608 0.881808 0
    outer loop
      vertex -170.69 -31.142 7.001
      vertex -172.485 -32.102 0
      vertex -172.485 -32.102 7.001
    endloop
  endfacet
  facet normal 0 -0 1
    outer loop
      vertex -173.994 -37.789 7.001
      vertex -173.254 -36.406 7.001
      vertex -176.31 -36.762 7.001
    endloop
  endfacet
  facet normal 0 0 1
    outer loop
      vertex -175.35 -34.967 7.001
      vertex -176.31 -36.762 7.001
      vertex -173.254 -36.406 7.001
    endloop
  endfacet
  facet normal 0 -1 0
    outer loop
      vertex -163.501 -27.702 16.251
      vertex -163.5 -27.702 7.001
      vertex -154.585 -27.702 15.524
    endloop
  endfacet
  facet normal -0 -1 -0
    outer loop
      vertex -154.753 -27.702 16.15
      vertex -163.501 -27.702 16.251
      vertex -154.585 -27.702 15.524
    endloop
  endfacet
  facet normal 0 -1 -0
    outer loop
      vertex -163.308 -27.702 18.201
      vertex -163.501 -27.702 16.251
      vertex -154.753 -27.702 16.15
    endloop
  endfacet
  facet normal -0 -1 0
    outer loop
      vertex -154.127 -27.702 15.065
      vertex -154.585 -27.702 15.524
      vertex -163.5 -27.702 7.001
    endloop
  endfacet
  facet normal 0 -1 0
    outer loop
      vertex -143.5 -27.702 7.001
      vertex -153.5 -27.702 14.897
      vertex -163.5 -27.702 7.001
    endloop
  endfacet
  facet normal 0 1 0
    outer loop
      vertex -143.5 -24.201 16.251
      vertex -152.247 -24.201 16.15
      vertex -143.692 -24.201 18.201
    endloop
  endfacet
  facet normal 0 1 0
    outer loop
      vertex -147.944 -24.201 24.565
      vertex -146.429 -24.201 23.321
      vertex -152.874 -24.201 17.235
    endloop
  endfacet
  facet normal -0 -1 -0
    outer loop
      vertex -148.794 -34.552 7.001
      vertex -158.421 -34.552 7.001
      vertex -148.794 -34.552 0
    endloop
  endfacet
  facet normal 0 -1 0
    outer loop
      vertex -158.421 -34.552 0
      vertex -148.794 -34.552 0
      vertex -158.421 -34.552 7.001
    endloop
  endfacet
  facet normal -0.290185 0.956971 0
    outer loop
      vertex -168.741 -30.551 7.001
      vertex -168.741 -30.551 0
      vertex -170.69 -31.142 0
    endloop
  endfacet
  facet normal -0.290185 0.956971 0
    outer loop
      vertex -168.741 -30.551 7.001
      vertex -170.69 -31.142 0
      vertex -170.69 -31.142 7.001
    endloop
  endfacet
  facet normal -0.0982392 0.995163 0
    outer loop
      vertex -166.715 -30.351 7.001
      vertex -166.715 -30.351 0
      vertex -168.741 -30.551 0
    endloop
  endfacet
  facet normal -0.0982392 0.995163 0
    outer loop
      vertex -166.715 -30.351 7.001
      vertex -168.741 -30.551 0
      vertex -168.741 -30.551 7.001
    endloop
  endfacet
  facet normal 0 1 0
    outer loop
      vertex -162.739 -24.201 20.077
      vertex -154.585 -24.201 16.777
      vertex -163.308 -24.201 18.201
    endloop
  endfacet
  facet normal 0 1 0
    outer loop
      vertex -154.585 -24.201 15.524
      vertex -163.501 -24.201 16.251
      vertex -154.753 -24.201 16.15
    endloop
  endfacet
  facet normal 0 1 0
    outer loop
      vertex -163.308 -24.201 18.201
      vertex -154.753 -24.201 16.15
      vertex -163.501 -24.201 16.251
    endloop
  endfacet
  facet normal 0.0982392 0.995163 0
    outer loop
      vertex -164.689 -30.551 7.001
      vertex -164.689 -30.551 0
      vertex -166.715 -30.351 0
    endloop
  endfacet
  facet normal 0.0982392 0.995163 0
    outer loop
      vertex -164.689 -30.551 7.001
      vertex -166.715 -30.351 0
      vertex -166.715 -30.351 7.001
    endloop
  endfacet
  facet normal 0 0 -1
    outer loop
      vertex -165.039 -33.003 0
      vertex -166.6 -32.849 0
      vertex -164.689 -30.551 0
    endloop
  endfacet
  facet normal -0 0 -1
    outer loop
      vertex -163.5 -30.9117 0
      vertex -165.039 -33.003 0
      vertex -164.689 -30.551 0
    endloop
  endfacet
  facet normal -0.956951 0 0.290248
    outer loop
      vertex -162.739 -27.702 20.077
      vertex -162.739 -24.201 20.077
      vertex -163.308 -24.201 18.201
    endloop
  endfacet
  facet normal -0.956951 0 0.290248
    outer loop
      vertex -162.739 -27.702 20.077
      vertex -163.308 -24.201 18.201
      vertex -163.308 -27.702 18.201
    endloop
  endfacet
  facet normal 0.2903 0.956936 0
    outer loop
      vertex -163.5 -30.9117 7.001
      vertex -163.5 -30.9117 0
      vertex -164.689 -30.551 0
    endloop
  endfacet
  facet normal 0.2903 0.956936 0
    outer loop
      vertex -163.5 -30.9117 7.001
      vertex -164.689 -30.551 0
      vertex -164.689 -30.551 7.001
    endloop
  endfacet
  facet normal 0 0 -1
    outer loop
      vertex -163.5 -30.9117 0
      vertex -163.537 -33.458 0
      vertex -165.039 -33.003 0
    endloop
  endfacet
  facet normal 0 0 -1
    outer loop
      vertex -162.154 -34.198 0
      vertex -163.537 -33.458 0
      vertex -163.5 -30.9117 0
    endloop
  endfacet
  facet normal -0 0 -1
    outer loop
      vertex -166.6 -32.849 0
      vertex -168.161 -33.003 0
      vertex -166.715 -30.351 0
    endloop
  endfacet
  facet normal 0 0 -1
    outer loop
      vertex -166.715 -30.351 0
      vertex -164.689 -30.551 0
      vertex -166.6 -32.849 0
    endloop
  endfacet
  facet normal -0.471779 -0.881717 -0
    outer loop
      vertex -163.537 -33.458 7.001
      vertex -163.537 -33.458 0
      vertex -162.154 -34.198 0
    endloop
  endfacet
  facet normal -0.289919 -0.957051 -0
    outer loop
      vertex -163.537 -33.458 7.001
      vertex -165.039 -33.003 0
      vertex -163.537 -33.458 0
    endloop
  endfacet
  facet normal -0.881957 0 0.471329
    outer loop
      vertex -161.815 -27.702 21.806
      vertex -161.815 -24.201 21.806
      vertex -162.739 -24.201 20.077
    endloop
  endfacet
  facet normal -0.881957 0 0.471329
    outer loop
      vertex -161.815 -27.702 21.806
      vertex -162.739 -24.201 20.077
      vertex -162.739 -27.702 20.077
    endloop
  endfacet
  facet normal 0 0 1
    outer loop
      vertex -133.157 -33.393 7.001
      vertex -134.73 -32.102 7.001
      vertex -136.054 -34.198 7.001
    endloop
  endfacet
  facet normal -0.772842 0 0.634598
    outer loop
      vertex -160.571 -27.702 23.321
      vertex -160.571 -24.201 23.321
      vertex -161.815 -24.201 21.806
    endloop
  endfacet
  facet normal -0.772842 0 0.634598
    outer loop
      vertex -160.571 -27.702 23.321
      vertex -161.815 -24.201 21.806
      vertex -161.815 -27.702 21.806
    endloop
  endfacet
  facet normal -0.634598 0 0.772842
    outer loop
      vertex -159.056 -27.702 24.565
      vertex -159.056 -24.201 24.565
      vertex -160.571 -24.201 23.321
    endloop
  endfacet
  facet normal -0.634598 0 0.772842
    outer loop
      vertex -159.056 -27.702 24.565
      vertex -160.571 -24.201 23.321
      vertex -160.571 -27.702 23.321
    endloop
  endfacet
  facet normal -0.471329 0 0.881957
    outer loop
      vertex -157.327 -27.702 25.489
      vertex -157.327 -24.201 25.489
      vertex -159.056 -24.201 24.565
    endloop
  endfacet
  facet normal -0.471329 0 0.881957
    outer loop
      vertex -157.327 -27.702 25.489
      vertex -159.056 -24.201 24.565
      vertex -159.056 -27.702 24.565
    endloop
  endfacet
  facet normal 0 1 -0
    outer loop
      vertex -143.5 -24.201 0
      vertex -152.415 -24.201 15.524
      vertex -143.5 -24.201 16.251
    endloop
  endfacet
  facet normal 0.773162 -0.634209 0
    outer loop
      vertex -147.154 -36.406 7.001
      vertex -147.154 -36.406 0
      vertex -146.159 -35.193 0
    endloop
  endfacet
  facet normal 0.773162 -0.634209 0
    outer loop
      vertex -147.154 -36.406 7.001
      vertex -146.159 -35.193 0
      vertex -146.159 -35.193 7.001
    endloop
  endfacet
  facet normal -0 1 0
    outer loop
      vertex -152.247 -24.201 16.15
      vertex -143.5 -24.201 16.251
      vertex -152.415 -24.201 15.524
    endloop
  endfacet
  facet normal -0.290248 0 0.956951
    outer loop
      vertex -155.451 -27.702 26.058
      vertex -155.451 -24.201 26.058
      vertex -157.327 -24.201 25.489
    endloop
  endfacet
  facet normal -0.290248 0 0.956951
    outer loop
      vertex -155.451 -27.702 26.058
      vertex -157.327 -24.201 25.489
      vertex -157.327 -27.702 25.489
    endloop
  endfacet
  facet normal -0 0 1
    outer loop
      vertex -137.437 -33.458 7.001
      vertex -136.054 -34.198 7.001
      vertex -134.73 -32.102 7.001
    endloop
  endfacet
  facet normal 0 0 1
    outer loop
      vertex -134.73 -32.102 7.001
      vertex -136.526 -31.142 7.001
      vertex -137.437 -33.458 7.001
    endloop
  endfacet
  facet normal -0 1 0
    outer loop
      vertex -152.874 -24.201 15.065
      vertex -152.415 -24.201 15.524
      vertex -143.5 -24.201 0
    endloop
  endfacet
  facet normal -0 1 0
    outer loop
      vertex -153.5 -24.201 14.897
      vertex -152.874 -24.201 15.065
      vertex -143.5 -24.201 0
    endloop
  endfacet
  facet normal 0 0 -1
    outer loop
      vertex -172.485 -32.102 0
      vertex -170.69 -31.142 0
      vertex -171.046 -34.198 0
    endloop
  endfacet
  facet normal 0 -0 1
    outer loop
      vertex -142.061 -33.003 7.001
      vertex -140.5 -32.849 7.001
      vertex -142.526 -30.551 7.001
    endloop
  endfacet
  facet normal 0 0 1
    outer loop
      vertex -140.5 -30.351 7.001
      vertex -142.526 -30.551 7.001
      vertex -140.5 -32.849 7.001
    endloop
  endfacet
  facet normal -0 0 1
    outer loop
      vertex -138.939 -33.003 7.001
      vertex -137.437 -33.458 7.001
      vertex -136.526 -31.142 7.001
    endloop
  endfacet
  facet normal 0 0 1
    outer loop
      vertex -136.526 -31.142 7.001
      vertex -138.474 -30.551 7.001
      vertex -138.939 -33.003 7.001
    endloop
  endfacet
  facet normal 0 0 -1
    outer loop
      vertex -158.751 -39.291 0
      vertex -159.206 -37.789 0
      vertex -156.53 -38.711 0
    endloop
  endfacet
  facet normal 0 -0 -1
    outer loop
      vertex -156.53 -38.711 0
      vertex -156.33 -40.737 0
      vertex -158.751 -39.291 0
    endloop
  endfacet
  facet normal 0 0 -1
    outer loop
      vertex -158.597 -40.852 0
      vertex -158.751 -39.291 0
      vertex -156.33 -40.737 0
    endloop
  endfacet
  facet normal 0 0 -1
    outer loop
      vertex -157.121 -44.711 0
      vertex -158.751 -42.413 0
      vertex -156.53 -42.763 0
    endloop
  endfacet
  facet normal 0 0 -1
    outer loop
      vertex -157.169 -44.8 0
      vertex -159.206 -43.915 0
      vertex -157.121 -44.711 0
    endloop
  endfacet
  facet normal 0 0 -1
    outer loop
      vertex -158.751 -42.413 0
      vertex -158.597 -40.852 0
      vertex -156.53 -42.763 0
    endloop
  endfacet
  facet normal 0 -0 -1
    outer loop
      vertex -157.121 -36.762 0
      vertex -156.53 -38.711 0
      vertex -159.206 -37.789 0
    endloop
  endfacet
  facet normal 0 0 -1
    outer loop
      vertex -158.421 -34.552 0
      vertex -159.946 -36.406 0
      vertex -160.941 -35.193 0
    endloop
  endfacet
  facet normal -0.0984431 0 0.995143
    outer loop
      vertex -153.5 -27.702 26.251
      vertex -153.5 -24.201 26.251
      vertex -155.451 -24.201 26.058
    endloop
  endfacet
  facet normal -0.0984431 0 0.995143
    outer loop
      vertex -153.5 -27.702 26.251
      vertex -155.451 -24.201 26.058
      vertex -155.451 -27.702 26.058
    endloop
  endfacet
  facet normal -0.773191 0.634174 0
    outer loop
      vertex -174.059 -33.393 7.001
      vertex -174.059 -33.393 0
      vertex -175.35 -34.967 0
    endloop
  endfacet
  facet normal -0.995169 0.0981781 0
    outer loop
      vertex -132.497 -40.852 0
      vertex -132.651 -42.413 0
      vertex -132.651 -42.413 7.001
    endloop
  endfacet
  facet normal -0.995169 0.0981781 0
    outer loop
      vertex -132.497 -40.852 0
      vertex -132.651 -42.413 7.001
      vertex -132.497 -40.852 7.001
    endloop
  endfacet
  facet normal 0.0984431 0 0.995143
    outer loop
      vertex -151.549 -24.201 26.058
      vertex -153.5 -24.201 26.251
      vertex -151.549 -27.702 26.058
    endloop
  endfacet
  facet normal 0.0984431 -0 0.995143
    outer loop
      vertex -153.5 -27.702 26.251
      vertex -151.549 -27.702 26.058
      vertex -153.5 -24.201 26.251
    endloop
  endfacet
  facet normal -0.773191 0.634174 0
    outer loop
      vertex -174.059 -33.393 7.001
      vertex -175.35 -34.967 0
      vertex -175.35 -34.967 7.001
    endloop
  endfacet
  facet normal 0 0 1
    outer loop
      vertex -159.946 -36.406 7.001
      vertex -159.206 -37.789 7.001
      vertex -157.121 -36.762 7.001
    endloop
  endfacet
  facet normal -0.995169 -0.0981781 -0
    outer loop
      vertex -132.651 -39.291 7.001
      vertex -132.651 -39.291 0
      vertex -132.497 -40.852 0
    endloop
  endfacet
  facet normal -0.995169 -0.0981781 0
    outer loop
      vertex -132.651 -39.291 7.001
      vertex -132.497 -40.852 0
      vertex -132.497 -40.852 7.001
    endloop
  endfacet
  facet normal -0.634174 0.773191 0
    outer loop
      vertex -172.485 -32.102 0
      vertex -174.059 -33.393 0
      vertex -172.485 -32.102 7.001
    endloop
  endfacet
  facet normal -0.634174 0.773191 0
    outer loop
      vertex -174.059 -33.393 7.001
      vertex -172.485 -32.102 7.001
      vertex -174.059 -33.393 0
    endloop
  endfacet
  facet normal -0 0 -1
    outer loop
      vertex -173.994 -43.915 0
      vertex -176.31 -44.711 0
      vertex -174.449 -42.413 0
    endloop
  endfacet
  facet normal -0.957051 -0.289919 -0
    outer loop
      vertex -133.106 -37.789 7.001
      vertex -133.106 -37.789 0
      vertex -132.651 -39.291 0
    endloop
  endfacet
  facet normal -0.957051 -0.289919 0
    outer loop
      vertex -133.106 -37.789 7.001
      vertex -132.651 -39.291 0
      vertex -132.651 -39.291 7.001
    endloop
  endfacet
  facet normal 0 -0 1
    outer loop
      vertex -176.262 -44.8 7.001
      vertex -173.994 -43.915 7.001
      vertex -176.31 -44.711 7.001
    endloop
  endfacet
  facet normal -0 0 1
    outer loop
      vertex -176.901 -42.763 7.001
      vertex -176.31 -44.711 7.001
      vertex -174.449 -42.413 7.001
    endloop
  endfacet
  facet normal 0 0 1
    outer loop
      vertex -174.449 -42.413 7.001
      vertex -176.31 -44.711 7.001
      vertex -173.994 -43.915 7.001
    endloop
  endfacet
  facet normal 0 0 1
    outer loop
      vertex -174.449 -42.413 7.001
      vertex -174.603 -40.852 7.001
      vertex -176.901 -42.763 7.001
    endloop
  endfacet
  facet normal 0 -0 1
    outer loop
      vertex -174.603 -40.852 7.001
      vertex -174.449 -39.291 7.001
      vertex -177.101 -40.737 7.001
    endloop
  endfacet
  facet normal 0 0 1
    outer loop
      vertex -176.31 -36.762 7.001
      vertex -176.901 -38.711 7.001
      vertex -173.994 -37.789 7.001
    endloop
  endfacet
  facet normal 0 -0 1
    outer loop
      vertex -174.449 -39.291 7.001
      vertex -173.994 -37.789 7.001
      vertex -176.901 -38.711 7.001
    endloop
  endfacet
  facet normal 0 0 1
    outer loop
      vertex -177.101 -40.737 7.001
      vertex -174.449 -39.291 7.001
      vertex -176.901 -38.711 7.001
    endloop
  endfacet
  facet normal -0 -0 1
    outer loop
      vertex -162.154 -34.198 7.001
      vertex -158.421 -34.552 7.001
      vertex -163.5 -30.9117 7.001
    endloop
  endfacet
  facet normal 0 0 1
    outer loop
      vertex -164.689 -30.551 7.001
      vertex -165.039 -33.003 7.001
      vertex -163.5 -30.9117 7.001
    endloop
  endfacet
  facet normal 0 0 1
    outer loop
      vertex -162.154 -34.198 7.001
      vertex -163.5 -30.9117 7.001
      vertex -163.537 -33.458 7.001
    endloop
  endfacet
  facet normal 0.290248 0 0.956951
    outer loop
      vertex -151.549 -27.702 26.058
      vertex -149.673 -27.702 25.489
      vertex -149.673 -24.201 25.489
    endloop
  endfacet
  facet normal 0.290248 -0 0.956951
    outer loop
      vertex -151.549 -27.702 26.058
      vertex -149.673 -24.201 25.489
      vertex -151.549 -24.201 26.058
    endloop
  endfacet
  facet normal 0 -0 -1
    outer loop
      vertex -172.485 -32.102 0
      vertex -172.259 -35.193 0
      vertex -174.059 -33.393 0
    endloop
  endfacet
  facet normal 0 -0 -1
    outer loop
      vertex -174.059 -33.393 0
      vertex -172.259 -35.193 0
      vertex -175.35 -34.967 0
    endloop
  endfacet
  facet normal -0.881717 -0.471779 -0
    outer loop
      vertex -133.846 -36.406 7.001
      vertex -133.846 -36.406 0
      vertex -133.106 -37.789 0
    endloop
  endfacet
  facet normal -0.881717 -0.471779 0
    outer loop
      vertex -133.846 -36.406 7.001
      vertex -133.106 -37.789 0
      vertex -133.106 -37.789 7.001
    endloop
  endfacet
  facet normal 0.772628 0.634859 0
    outer loop
      vertex -158.08 -34.967 7.001
      vertex -158.08 -34.967 0
      vertex -158.421 -34.552 0
    endloop
  endfacet
  facet normal 0.772628 0.634859 0
    outer loop
      vertex -158.08 -34.967 7.001
      vertex -158.421 -34.552 0
      vertex -158.421 -34.552 7.001
    endloop
  endfacet
  facet normal -0.289919 -0.957051 0
    outer loop
      vertex -165.039 -33.003 0
      vertex -163.537 -33.458 7.001
      vertex -165.039 -33.003 7.001
    endloop
  endfacet
  facet normal 0.471329 0 0.881957
    outer loop
      vertex -149.673 -27.702 25.489
      vertex -147.944 -27.702 24.565
      vertex -147.944 -24.201 24.565
    endloop
  endfacet
  facet normal 0.471329 -0 0.881957
    outer loop
      vertex -149.673 -27.702 25.489
      vertex -147.944 -24.201 24.565
      vertex -149.673 -24.201 25.489
    endloop
  endfacet
  facet normal 0 0 1
    outer loop
      vertex -142.526 -30.551 7.001
      vertex -143.5 -30.8465 7.001
      vertex -142.061 -33.003 7.001
    endloop
  endfacet
  facet normal 0 0 -1
    outer loop
      vertex -170.69 -31.142 0
      vertex -168.741 -30.551 0
      vertex -169.663 -33.458 0
    endloop
  endfacet
  facet normal -0 0 -1
    outer loop
      vertex -169.663 -33.458 0
      vertex -171.046 -34.198 0
      vertex -170.69 -31.142 0
    endloop
  endfacet
  facet normal 0 0 -1
    outer loop
      vertex -172.259 -35.193 0
      vertex -172.485 -32.102 0
      vertex -171.046 -34.198 0
    endloop
  endfacet
  facet normal -0 0 -1
    outer loop
      vertex -168.161 -33.003 0
      vertex -169.663 -33.458 0
      vertex -168.741 -30.551 0
    endloop
  endfacet
  facet normal 0 0 -1
    outer loop
      vertex -168.741 -30.551 0
      vertex -166.715 -30.351 0
      vertex -168.161 -33.003 0
    endloop
  endfacet
  facet normal -0.773162 -0.634209 -0
    outer loop
      vertex -134.841 -35.193 7.001
      vertex -134.841 -35.193 0
      vertex -133.846 -36.406 0
    endloop
  endfacet
  facet normal -0.773162 -0.634209 0
    outer loop
      vertex -134.841 -35.193 7.001
      vertex -133.846 -36.406 0
      vertex -133.846 -36.406 7.001
    endloop
  endfacet
  facet normal 0.882013 0.471226 0
    outer loop
      vertex -157.121 -36.762 7.001
      vertex -157.121 -36.762 0
      vertex -158.08 -34.967 0
    endloop
  endfacet
  facet normal 0.882013 0.471226 0
    outer loop
      vertex -157.121 -36.762 7.001
      vertex -158.08 -34.967 0
      vertex -158.08 -34.967 7.001
    endloop
  endfacet
  facet normal -0.0981781 -0.995169 0
    outer loop
      vertex -165.039 -33.003 0
      vertex -165.039 -33.003 7.001
      vertex -166.6 -32.849 7.001
    endloop
  endfacet
  facet normal -0.0981781 -0.995169 0
    outer loop
      vertex -165.039 -33.003 0
      vertex -166.6 -32.849 7.001
      vertex -166.6 -32.849 0
    endloop
  endfacet
  facet normal 0.634598 0 0.772842
    outer loop
      vertex -147.944 -27.702 24.565
      vertex -146.429 -27.702 23.321
      vertex -146.429 -24.201 23.321
    endloop
  endfacet
  facet normal 0.634598 -0 0.772842
    outer loop
      vertex -147.944 -27.702 24.565
      vertex -146.429 -24.201 23.321
      vertex -147.944 -24.201 24.565
    endloop
  endfacet
  facet normal 0.956971 0.290185 0
    outer loop
      vertex -156.53 -38.711 7.001
      vertex -156.53 -38.711 0
      vertex -157.121 -36.762 0
    endloop
  endfacet
  facet normal 0.956971 0.290185 0
    outer loop
      vertex -156.53 -38.711 7.001
      vertex -157.121 -36.762 0
      vertex -157.121 -36.762 7.001
    endloop
  endfacet
  facet normal 0.0981781 -0.995169 0
    outer loop
      vertex -168.161 -33.003 7.001
      vertex -168.161 -33.003 0
      vertex -166.6 -32.849 0
    endloop
  endfacet
  facet normal 0.0981781 -0.995169 0
    outer loop
      vertex -168.161 -33.003 7.001
      vertex -166.6 -32.849 0
      vertex -166.6 -32.849 7.001
    endloop
  endfacet
  facet normal 0 0 -1
    outer loop
      vertex -163.501 -24.201 0
      vertex -163.5 -27.702 0
      vertex -163.501 -27.702 0
    endloop
  endfacet
  facet normal 0.772842 0 0.634598
    outer loop
      vertex -146.429 -27.702 23.321
      vertex -145.185 -27.702 21.806
      vertex -145.185 -24.201 21.806
    endloop
  endfacet
  facet normal 0.772842 -0 0.634598
    outer loop
      vertex -146.429 -27.702 23.321
      vertex -145.185 -24.201 21.806
      vertex -146.429 -24.201 23.321
    endloop
  endfacet
  facet normal -0.634209 -0.773162 0
    outer loop
      vertex -136.054 -34.198 7.001
      vertex -134.841 -35.193 0
      vertex -134.841 -35.193 7.001
    endloop
  endfacet
  facet normal 0 1 0
    outer loop
      vertex -163.501 -24.201 0
      vertex -154.585 -24.201 15.524
      vertex -154.127 -24.201 15.065
    endloop
  endfacet
  facet normal 0 1 0
    outer loop
      vertex -163.501 -24.201 0
      vertex -163.501 -24.201 16.251
      vertex -154.585 -24.201 15.524
    endloop
  endfacet
  facet normal 0.995163 0.0982392 0
    outer loop
      vertex -156.33 -40.737 7.001
      vertex -156.33 -40.737 0
      vertex -156.53 -38.711 0
    endloop
  endfacet
  facet normal 0.995163 0.0982392 0
    outer loop
      vertex -156.33 -40.737 7.001
      vertex -156.53 -38.711 0
      vertex -156.53 -38.711 7.001
    endloop
  endfacet
  facet normal 0.995163 -0.0982392 0
    outer loop
      vertex -156.53 -42.763 7.001
      vertex -156.53 -42.763 0
      vertex -156.33 -40.737 0
    endloop
  endfacet
  facet normal 0.995163 -0.0982392 0
    outer loop
      vertex -156.53 -42.763 7.001
      vertex -156.33 -40.737 0
      vertex -156.33 -40.737 7.001
    endloop
  endfacet
  facet normal 0.289919 -0.957051 0
    outer loop
      vertex -169.663 -33.458 7.001
      vertex -169.663 -33.458 0
      vertex -168.161 -33.003 0
    endloop
  endfacet
  facet normal 0.289919 -0.957051 0
    outer loop
      vertex -169.663 -33.458 7.001
      vertex -168.161 -33.003 0
      vertex -168.161 -33.003 7.001
    endloop
  endfacet
  facet normal 0.956929 -0.290321 0
    outer loop
      vertex -156.53 -42.763 7.001
      vertex -157.121 -44.711 7.001
      vertex -157.121 -44.711 0
    endloop
  endfacet
  facet normal 0.956929 -0.290321 0
    outer loop
      vertex -156.53 -42.763 7.001
      vertex -157.121 -44.711 0
      vertex -156.53 -42.763 0
    endloop
  endfacet
  facet normal -0.995211 0.0977527 0
    outer loop
      vertex -150.686 -38.711 7.001
      vertex -150.686 -38.711 0
      vertex -150.885 -40.737 0
    endloop
  endfacet
  facet normal -0.995211 0.0977527 0
    outer loop
      vertex -150.686 -38.711 7.001
      vertex -150.885 -40.737 0
      vertex -150.885 -40.737 7.001
    endloop
  endfacet
  facet normal 0.880153 -0.474689 0
    outer loop
      vertex -157.121 -44.711 7.001
      vertex -157.169 -44.8 7.001
      vertex -157.169 -44.8 0
    endloop
  endfacet
  facet normal 0.880153 -0.474689 0
    outer loop
      vertex -157.121 -44.711 7.001
      vertex -157.169 -44.8 0
      vertex -157.121 -44.711 0
    endloop
  endfacet
  facet normal 0.471779 -0.881717 0
    outer loop
      vertex -171.046 -34.198 7.001
      vertex -171.046 -34.198 0
      vertex -169.663 -33.458 0
    endloop
  endfacet
  facet normal 0.471779 -0.881717 0
    outer loop
      vertex -171.046 -34.198 7.001
      vertex -169.663 -33.458 0
      vertex -169.663 -33.458 7.001
    endloop
  endfacet
  facet normal 0.881957 0 0.471329
    outer loop
      vertex -145.185 -27.702 21.806
      vertex -144.261 -27.702 20.077
      vertex -144.261 -24.201 20.077
    endloop
  endfacet
  facet normal 0.881957 -0 0.471329
    outer loop
      vertex -145.185 -27.702 21.806
      vertex -144.261 -24.201 20.077
      vertex -145.185 -24.201 21.806
    endloop
  endfacet
  facet normal -0.956971 0.290185 0
    outer loop
      vertex -150.095 -36.762 7.001
      vertex -150.095 -36.762 0
      vertex -150.686 -38.711 0
    endloop
  endfacet
  facet normal -0.956971 0.290185 0
    outer loop
      vertex -150.095 -36.762 7.001
      vertex -150.686 -38.711 0
      vertex -150.686 -38.711 7.001
    endloop
  endfacet
  facet normal -0 0 -1
    outer loop
      vertex -138.474 -30.551 0
      vertex -140.5 -32.849 0
      vertex -140.5 -30.351 0
    endloop
  endfacet
  facet normal 0 0 -1
    outer loop
      vertex -142.526 -30.551 0
      vertex -140.5 -30.351 0
      vertex -140.5 -32.849 0
    endloop
  endfacet
  facet normal -0 0 -1
    outer loop
      vertex -136.526 -31.142 0
      vertex -138.939 -33.003 0
      vertex -138.474 -30.551 0
    endloop
  endfacet
  facet normal -0 0 -1
    outer loop
      vertex -134.73 -32.102 0
      vertex -137.437 -33.458 0
      vertex -136.526 -31.142 0
    endloop
  endfacet
  facet normal 0 0 -1
    outer loop
      vertex -173.994 -37.789 0
      vertex -176.31 -36.762 0
      vertex -173.254 -36.406 0
    endloop
  endfacet
  facet normal 0 0 -1
    outer loop
      vertex -173.254 -36.406 0
      vertex -175.35 -34.967 0
      vertex -172.259 -35.193 0
    endloop
  endfacet
  facet normal -0.881808 0.471608 0
    outer loop
      vertex -149.135 -34.967 7.001
      vertex -149.135 -34.967 0
      vertex -150.095 -36.762 0
    endloop
  endfacet
  facet normal -0.881808 0.471608 0
    outer loop
      vertex -149.135 -34.967 7.001
      vertex -150.095 -36.762 0
      vertex -150.095 -36.762 7.001
    endloop
  endfacet
  facet normal 0.956951 0 0.290248
    outer loop
      vertex -144.261 -27.702 20.077
      vertex -143.692 -27.702 18.201
      vertex -143.692 -24.201 18.201
    endloop
  endfacet
  facet normal 0.956951 -0 0.290248
    outer loop
      vertex -144.261 -27.702 20.077
      vertex -143.692 -24.201 18.201
      vertex -144.261 -24.201 20.077
    endloop
  endfacet
  facet normal 0 1 0
    outer loop
      vertex -154.127 -24.201 15.065
      vertex -153.5 -24.201 14.897
      vertex -163.501 -24.201 0
    endloop
  endfacet
  facet normal 0 1 0
    outer loop
      vertex -143.5 -24.201 0
      vertex -163.501 -24.201 0
      vertex -153.5 -24.201 14.897
    endloop
  endfacet
  facet normal 0 0 -1
    outer loop
      vertex -174.449 -39.291 0
      vertex -174.603 -40.852 0
      vertex -177.101 -40.737 0
    endloop
  endfacet
  facet normal -0.772628 0.634859 0
    outer loop
      vertex -148.794 -34.552 7.001
      vertex -148.794 -34.552 0
      vertex -149.135 -34.967 0
    endloop
  endfacet
  facet normal -0.772628 0.634859 0
    outer loop
      vertex -148.794 -34.552 7.001
      vertex -149.135 -34.967 0
      vertex -149.135 -34.967 7.001
    endloop
  endfacet
  facet normal 0 -1 0
    outer loop
      vertex -163.501 -27.702 0
      vertex -163.5 -27.702 0
      vertex -163.501 -27.702 16.251
    endloop
  endfacet
  facet normal 0 -1 0
    outer loop
      vertex -163.501 -27.702 16.251
      vertex -163.5 -27.702 0
      vertex -163.5 -27.702 7.001
    endloop
  endfacet
  facet normal 0 -1 0
    outer loop
      vertex -159.68 -44.8 7.001
      vertex -159.68 -44.8 0
      vertex -157.169 -44.8 0
    endloop
  endfacet
  facet normal 0 -1 0
    outer loop
      vertex -159.68 -44.8 7.001
      vertex -157.169 -44.8 0
      vertex -157.169 -44.8 7.001
    endloop
  endfacet
  facet normal 0 0 -1
    outer loop
      vertex -176.901 -42.763 0
      vertex -177.101 -40.737 0
      vertex -174.603 -40.852 0
    endloop
  endfacet
  facet normal 0 0 -1
    outer loop
      vertex -174.449 -39.291 0
      vertex -176.901 -38.711 0
      vertex -173.994 -37.789 0
    endloop
  endfacet
  facet normal -1 0 0
    outer loop
      vertex -163.501 -27.702 16.251
      vertex -163.501 -24.201 16.251
      vertex -163.501 -24.201 0
    endloop
  endfacet
  facet normal -1 0 0
    outer loop
      vertex -163.501 -27.702 16.251
      vertex -163.501 -24.201 0
      vertex -163.501 -27.702 0
    endloop
  endfacet
  facet normal -0.880153 -0.474689 -0
    outer loop
      vertex -150.095 -44.711 7.001
      vertex -150.095 -44.711 0
      vertex -150.047 -44.8 0
    endloop
  endfacet
  facet normal -0.880153 -0.474689 0
    outer loop
      vertex -150.095 -44.711 7.001
      vertex -150.047 -44.8 0
      vertex -150.047 -44.8 7.001
    endloop
  endfacet
  facet normal 0.995188 0 0.0979877
    outer loop
      vertex -143.5 -24.201 16.251
      vertex -143.692 -24.201 18.201
      vertex -143.5 -27.702 16.251
    endloop
  endfacet
  facet normal 0.995188 -0 0.0979877
    outer loop
      vertex -143.692 -27.702 18.201
      vertex -143.5 -27.702 16.251
      vertex -143.692 -24.201 18.201
    endloop
  endfacet
  facet normal 0 0 -1
    outer loop
      vertex -132.497 -40.852 0
      vertex -132.651 -39.291 0
      vertex -130.115 -40.737 0
    endloop
  endfacet
  facet normal 0 0 -1
    outer loop
      vertex -130.314 -42.763 0
      vertex -132.497 -40.852 0
      vertex -130.115 -40.737 0
    endloop
  endfacet
  facet normal 0 0 -1
    outer loop
      vertex -130.905 -44.711 0
      vertex -132.651 -42.413 0
      vertex -130.314 -42.763 0
    endloop
  endfacet
  facet normal 0 0 -1
    outer loop
      vertex -130.953 -44.8 0
      vertex -133.106 -43.915 0
      vertex -130.905 -44.711 0
    endloop
  endfacet
  facet normal 0 0 1
    outer loop
      vertex -144.946 -34.198 7.001
      vertex -143.563 -33.458 7.001
      vertex -143.5 -30.8465 7.001
    endloop
  endfacet
  facet normal 0 0 1
    outer loop
      vertex -143.563 -33.458 7.001
      vertex -142.061 -33.003 7.001
      vertex -143.5 -30.8465 7.001
    endloop
  endfacet
  facet normal -0.956929 -0.290321 -0
    outer loop
      vertex -150.686 -42.763 7.001
      vertex -150.686 -42.763 0
      vertex -150.095 -44.711 0
    endloop
  endfacet
  facet normal -0.956929 -0.290321 0
    outer loop
      vertex -150.686 -42.763 7.001
      vertex -150.095 -44.711 0
      vertex -150.095 -44.711 7.001
    endloop
  endfacet
  facet normal -0.881524 0.472138 0
    outer loop
      vertex -159.206 -43.915 7.001
      vertex -159.206 -43.915 0
      vertex -159.68 -44.8 0
    endloop
  endfacet
  facet normal -0.881524 0.472138 0
    outer loop
      vertex -159.206 -43.915 7.001
      vertex -159.68 -44.8 0
      vertex -159.68 -44.8 7.001
    endloop
  endfacet
  facet normal -0.995211 -0.0977527 -0
    outer loop
      vertex -150.885 -40.737 7.001
      vertex -150.885 -40.737 0
      vertex -150.686 -42.763 0
    endloop
  endfacet
  facet normal -0.995211 -0.0977527 0
    outer loop
      vertex -150.885 -40.737 7.001
      vertex -150.686 -42.763 0
      vertex -150.686 -42.763 7.001
    endloop
  endfacet
  facet normal -0.957051 0.289919 0
    outer loop
      vertex -158.751 -42.413 7.001
      vertex -158.751 -42.413 0
      vertex -159.206 -43.915 0
    endloop
  endfacet
  facet normal -0.957051 0.289919 0
    outer loop
      vertex -158.751 -42.413 7.001
      vertex -159.206 -43.915 0
      vertex -159.206 -43.915 7.001
    endloop
  endfacet
  facet normal 0 -1 0
    outer loop
      vertex -150.047 -44.8 7.001
      vertex -150.047 -44.8 0
      vertex -147.42 -44.8 0
    endloop
  endfacet
  facet normal 0 -1 0
    outer loop
      vertex -150.047 -44.8 7.001
      vertex -147.42 -44.8 0
      vertex -147.42 -44.8 7.001
    endloop
  endfacet
  facet normal 0 0 -1
    outer loop
      vertex -176.901 -42.763 0
      vertex -174.603 -40.852 0
      vertex -174.449 -42.413 0
    endloop
  endfacet
  facet normal 0 0 -1
    outer loop
      vertex -176.31 -44.711 0
      vertex -173.994 -43.915 0
      vertex -176.262 -44.8 0
    endloop
  endfacet
  facet normal 0 0 -1
    outer loop
      vertex -173.52 -44.8 0
      vertex -176.262 -44.8 0
      vertex -173.994 -43.915 0
    endloop
  endfacet
  facet normal 0 0 -1
    outer loop
      vertex -176.901 -42.763 0
      vertex -174.449 -42.413 0
      vertex -176.31 -44.711 0
    endloop
  endfacet
  facet normal 0 -0 -1
    outer loop
      vertex -176.901 -38.711 0
      vertex -174.449 -39.291 0
      vertex -177.101 -40.737 0
    endloop
  endfacet
  facet normal 0 -0 -1
    outer loop
      vertex -176.31 -36.762 0
      vertex -173.994 -37.789 0
      vertex -176.901 -38.711 0
    endloop
  endfacet
  facet normal 0 -0 -1
    outer loop
      vertex -175.35 -34.967 0
      vertex -173.254 -36.406 0
      vertex -176.31 -36.762 0
    endloop
  endfacet
  facet normal -0.706335 0 -0.707877
    outer loop
      vertex -152.874 -27.702 17.235
      vertex -152.874 -24.201 17.235
      vertex -152.415 -24.201 16.777
    endloop
  endfacet
  facet normal -0.706335 0 -0.707877
    outer loop
      vertex -152.874 -27.702 17.235
      vertex -152.415 -24.201 16.777
      vertex -152.415 -27.702 16.777
    endloop
  endfacet
  facet normal -0.995169 0.0981781 0
    outer loop
      vertex -158.597 -40.852 7.001
      vertex -158.751 -42.413 0
      vertex -158.751 -42.413 7.001
    endloop
  endfacet
  facet normal 0 -0 -1
    outer loop
      vertex -132.651 -42.413 0
      vertex -130.905 -44.711 0
      vertex -133.106 -43.915 0
    endloop
  endfacet
  facet normal -1 -0 -0
    outer loop
      vertex -163.5 -27.702 7.001
      vertex -163.5 -27.702 0
      vertex -163.5 -30.9117 7.001
    endloop
  endfacet
  facet normal -1 0 0
    outer loop
      vertex -163.5 -30.9117 0
      vertex -163.5 -30.9117 7.001
      vertex -163.5 -27.702 0
    endloop
  endfacet
  facet normal 0 0 -1
    outer loop
      vertex -137.437 -33.458 0
      vertex -134.73 -32.102 0
      vertex -136.054 -34.198 0
    endloop
  endfacet
  facet normal 0 0 1
    outer loop
      vertex -130.115 -40.737 7.001
      vertex -132.497 -40.852 7.001
      vertex -130.314 -42.763 7.001
    endloop
  endfacet
  facet normal 0 0 1
    outer loop
      vertex -132.497 -40.852 7.001
      vertex -132.651 -42.413 7.001
      vertex -130.314 -42.763 7.001
    endloop
  endfacet
  facet normal 0 0 1
    outer loop
      vertex -130.314 -38.711 7.001
      vertex -132.651 -39.291 7.001
      vertex -130.115 -40.737 7.001
    endloop
  endfacet
  facet normal 0 0 1
    outer loop
      vertex -130.905 -36.762 7.001
      vertex -133.106 -37.789 7.001
      vertex -130.314 -38.711 7.001
    endloop
  endfacet
  facet normal 0.995169 0.0981781 0
    outer loop
      vertex -148.503 -40.852 0
      vertex -148.349 -42.413 7.001
      vertex -148.349 -42.413 0
    endloop
  endfacet
  facet normal -0.995169 0.0981781 0
    outer loop
      vertex -158.597 -40.852 0
      vertex -158.751 -42.413 0
      vertex -158.597 -40.852 7.001
    endloop
  endfacet
  facet normal -0.259199 0 -0.965824
    outer loop
      vertex -153.5 -27.702 17.403
      vertex -153.5 -24.201 17.403
      vertex -152.874 -24.201 17.235
    endloop
  endfacet
  facet normal -0.259199 0 -0.965824
    outer loop
      vertex -153.5 -27.702 17.403
      vertex -152.874 -24.201 17.235
      vertex -152.874 -27.702 17.235
    endloop
  endfacet
  facet normal 0 -0 -1
    outer loop
      vertex -132.497 -40.852 0
      vertex -130.314 -42.763 0
      vertex -132.651 -42.413 0
    endloop
  endfacet
  facet normal 0 0 -1
    outer loop
      vertex -133.58 -44.8 0
      vertex -133.106 -43.915 0
      vertex -130.953 -44.8 0
    endloop
  endfacet
  facet normal 0.957051 0.289919 0
    outer loop
      vertex -147.894 -43.915 7.001
      vertex -147.894 -43.915 0
      vertex -148.349 -42.413 0
    endloop
  endfacet
  facet normal 0.957051 0.289919 0
    outer loop
      vertex -147.894 -43.915 7.001
      vertex -148.349 -42.413 0
      vertex -148.349 -42.413 7.001
    endloop
  endfacet
  facet normal -0.995169 -0.0981781 -0
    outer loop
      vertex -158.751 -39.291 7.001
      vertex -158.751 -39.291 0
      vertex -158.597 -40.852 0
    endloop
  endfacet
  facet normal -0.995169 -0.0981781 0
    outer loop
      vertex -158.751 -39.291 7.001
      vertex -158.597 -40.852 0
      vertex -158.597 -40.852 7.001
    endloop
  endfacet
  facet normal 0 0 1
    outer loop
      vertex -158.421 -34.552 7.001
      vertex -148.794 -34.552 7.001
      vertex -143.5 -27.702 7.001
    endloop
  endfacet
  facet normal 0 -0 1
    outer loop
      vertex -158.421 -34.552 7.001
      vertex -143.5 -27.702 7.001
      vertex -163.5 -30.9117 7.001
    endloop
  endfacet
  facet normal -0 0 1
    outer loop
      vertex -163.5 -27.702 7.001
      vertex -163.5 -30.9117 7.001
      vertex -143.5 -27.702 7.001
    endloop
  endfacet
  facet normal 0 0 1
    outer loop
      vertex -162.154 -34.198 7.001
      vertex -160.941 -35.193 7.001
      vertex -158.421 -34.552 7.001
    endloop
  endfacet
  facet normal 0 -0 1
    outer loop
      vertex -143.5 -30.8465 7.001
      vertex -143.5 -27.702 7.001
      vertex -148.794 -34.552 7.001
    endloop
  endfacet
  facet normal 0.881524 0.472138 -0
    outer loop
      vertex -147.894 -43.915 0
      vertex -147.894 -43.915 7.001
      vertex -147.42 -44.8 0
    endloop
  endfacet
  facet normal 0.881524 0.472138 0
    outer loop
      vertex -147.42 -44.8 7.001
      vertex -147.42 -44.8 0
      vertex -147.894 -43.915 7.001
    endloop
  endfacet
  facet normal -0.290321 0.956929 0
    outer loop
      vertex -142.526 -30.551 7.001
      vertex -142.526 -30.551 0
      vertex -143.5 -30.8465 0
    endloop
  endfacet
  facet normal -0.290321 0.956929 0
    outer loop
      vertex -142.526 -30.551 7.001
      vertex -143.5 -30.8465 0
      vertex -143.5 -30.8465 7.001
    endloop
  endfacet
  facet normal -0.957051 -0.289919 -0
    outer loop
      vertex -159.206 -37.789 7.001
      vertex -159.206 -37.789 0
      vertex -158.751 -39.291 0
    endloop
  endfacet
  facet normal -0.957051 -0.289919 0
    outer loop
      vertex -159.206 -37.789 7.001
      vertex -158.751 -39.291 0
      vertex -158.751 -39.291 7.001
    endloop
  endfacet
  facet normal 0 0 -1
    outer loop
      vertex -138.939 -33.003 0
      vertex -136.526 -31.142 0
      vertex -137.437 -33.458 0
    endloop
  endfacet
  facet normal 0 0 -1
    outer loop
      vertex -136.054 -34.198 0
      vertex -133.157 -33.393 0
      vertex -134.841 -35.193 0
    endloop
  endfacet
  facet normal -0.0982392 0.995163 0
    outer loop
      vertex -140.5 -30.351 7.001
      vertex -140.5 -30.351 0
      vertex -142.526 -30.551 0
    endloop
  endfacet
  facet normal -0.0982392 0.995163 0
    outer loop
      vertex -140.5 -30.351 7.001
      vertex -142.526 -30.551 0
      vertex -142.526 -30.551 7.001
    endloop
  endfacet
  facet normal 0.995169 0.0981781 0
    outer loop
      vertex -148.349 -42.413 7.001
      vertex -148.503 -40.852 0
      vertex -148.503 -40.852 7.001
    endloop
  endfacet
  facet normal 0 -1 0
    outer loop
      vertex -152.874 -27.702 17.235
      vertex -151.549 -27.702 26.058
      vertex -153.5 -27.702 17.403
    endloop
  endfacet
  facet normal 0 -1 -0
    outer loop
      vertex -153.5 -27.702 26.251
      vertex -155.451 -27.702 26.058
      vertex -153.5 -27.702 17.403
    endloop
  endfacet
  facet normal 0.0982392 0.995163 0
    outer loop
      vertex -138.474 -30.551 7.001
      vertex -138.474 -30.551 0
      vertex -140.5 -30.351 0
    endloop
  endfacet
  facet normal 0.0982392 0.995163 0
    outer loop
      vertex -138.474 -30.551 7.001
      vertex -140.5 -30.351 0
      vertex -140.5 -30.351 7.001
    endloop
  endfacet
  facet normal -0.881717 -0.471779 -0
    outer loop
      vertex -159.946 -36.406 7.001
      vertex -159.946 -36.406 0
      vertex -159.206 -37.789 0
    endloop
  endfacet
  facet normal -0.881717 -0.471779 0
    outer loop
      vertex -159.946 -36.406 7.001
      vertex -159.206 -37.789 0
      vertex -159.206 -37.789 7.001
    endloop
  endfacet
  facet normal 0 0 -1
    outer loop
      vertex -140.5 -32.849 0
      vertex -138.474 -30.551 0
      vertex -138.939 -33.003 0
    endloop
  endfacet
  facet normal 0 0 1
    outer loop
      vertex -133.58 -44.8 7.001
      vertex -130.953 -44.8 7.001
      vertex -133.106 -43.915 7.001
    endloop
  endfacet
  facet normal 0.881717 -0.471779 0
    outer loop
      vertex -147.154 -36.406 0
      vertex -147.154 -36.406 7.001
      vertex -147.894 -37.789 7.001
    endloop
  endfacet
  facet normal 0.881717 -0.471779 0
    outer loop
      vertex -147.154 -36.406 0
      vertex -147.894 -37.789 7.001
      vertex -147.894 -37.789 0
    endloop
  endfacet
  facet normal 0.290321 0.956929 0
    outer loop
      vertex -136.526 -31.142 7.001
      vertex -136.526 -31.142 0
      vertex -138.474 -30.551 0
    endloop
  endfacet
  facet normal 0.290321 0.956929 0
    outer loop
      vertex -136.526 -31.142 7.001
      vertex -138.474 -30.551 0
      vertex -138.474 -30.551 7.001
    endloop
  endfacet
  facet normal -0.773162 -0.634209 -0
    outer loop
      vertex -160.941 -35.193 7.001
      vertex -160.941 -35.193 0
      vertex -159.946 -36.406 0
    endloop
  endfacet
  facet normal -0.773162 -0.634209 0
    outer loop
      vertex -160.941 -35.193 7.001
      vertex -159.946 -36.406 0
      vertex -159.946 -36.406 7.001
    endloop
  endfacet
  facet normal -0 0 -1
    outer loop
      vertex -133.157 -33.393 0
      vertex -136.054 -34.198 0
      vertex -134.73 -32.102 0
    endloop
  endfacet
  facet normal -0 0 -1
    outer loop
      vertex -140.5 -32.849 0
      vertex -142.061 -33.003 0
      vertex -142.526 -30.551 0
    endloop
  endfacet
  facet normal 0 0 -1
    outer loop
      vertex -143.5 -30.8465 0
      vertex -142.526 -30.551 0
      vertex -142.061 -33.003 0
    endloop
  endfacet
  facet normal 0.957051 -0.289919 0
    outer loop
      vertex -147.894 -37.789 0
      vertex -147.894 -37.789 7.001
      vertex -148.349 -39.291 7.001
    endloop
  endfacet
  facet normal 0.957051 -0.289919 0
    outer loop
      vertex -147.894 -37.789 0
      vertex -148.349 -39.291 7.001
      vertex -148.349 -39.291 0
    endloop
  endfacet
  facet normal 0 -0 1
    outer loop
      vertex -130.953 -44.8 7.001
      vertex -130.905 -44.711 7.001
      vertex -133.106 -43.915 7.001
    endloop
  endfacet
  facet normal 0.471404 0.881918 0
    outer loop
      vertex -134.73 -32.102 7.001
      vertex -134.73 -32.102 0
      vertex -136.526 -31.142 0
    endloop
  endfacet
  facet normal 0.471404 0.881918 0
    outer loop
      vertex -134.73 -32.102 7.001
      vertex -136.526 -31.142 0
      vertex -136.526 -31.142 7.001
    endloop
  endfacet
  facet normal 0.634415 0.772993 -0
    outer loop
      vertex -134.73 -32.102 0
      vertex -134.73 -32.102 7.001
      vertex -133.157 -33.393 7.001
    endloop
  endfacet
  facet normal -0.634209 -0.773162 0
    outer loop
      vertex -162.154 -34.198 7.001
      vertex -160.941 -35.193 0
      vertex -160.941 -35.193 7.001
    endloop
  endfacet
  facet normal 0 -1 0
    outer loop
      vertex -154.127 -27.702 17.235
      vertex -153.5 -27.702 17.403
      vertex -155.451 -27.702 26.058
    endloop
  endfacet
  facet normal 0 -1 -0
    outer loop
      vertex -155.451 -27.702 26.058
      vertex -157.327 -27.702 25.489
      vertex -154.127 -27.702 17.235
    endloop
  endfacet
  facet normal 0.995169 -0.0981781 0
    outer loop
      vertex -148.503 -40.852 7.001
      vertex -148.503 -40.852 0
      vertex -148.349 -39.291 0
    endloop
  endfacet
  facet normal 0.995169 -0.0981781 0
    outer loop
      vertex -148.503 -40.852 7.001
      vertex -148.349 -39.291 0
      vertex -148.349 -39.291 7.001
    endloop
  endfacet
  facet normal 0.258813 0 -0.965927
    outer loop
      vertex -154.127 -27.702 17.235
      vertex -154.127 -24.201 17.235
      vertex -153.5 -24.201 17.403
    endloop
  endfacet
  facet normal 0.258813 0 -0.965927
    outer loop
      vertex -154.127 -27.702 17.235
      vertex -153.5 -24.201 17.403
      vertex -153.5 -27.702 17.403
    endloop
  endfacet
  facet normal 0.707107 0 -0.707107
    outer loop
      vertex -154.585 -27.702 16.777
      vertex -154.585 -24.201 16.777
      vertex -154.127 -24.201 17.235
    endloop
  endfacet
  facet normal 0.707107 0 -0.707107
    outer loop
      vertex -154.585 -27.702 16.777
      vertex -154.127 -24.201 17.235
      vertex -154.127 -27.702 17.235
    endloop
  endfacet
  facet normal 0 0 -1
    outer loop
      vertex -163.5 -30.9117 0
      vertex -158.421 -34.552 0
      vertex -162.154 -34.198 0
    endloop
  endfacet
  facet normal -0.995163 0.0982392 0
    outer loop
      vertex -176.901 -38.711 7.001
      vertex -176.901 -38.711 0
      vertex -177.101 -40.737 0
    endloop
  endfacet
  facet normal -0.995163 0.0982392 0
    outer loop
      vertex -176.901 -38.711 7.001
      vertex -177.101 -40.737 0
      vertex -177.101 -40.737 7.001
    endloop
  endfacet
  facet normal 0.634415 0.772993 0
    outer loop
      vertex -133.157 -33.393 7.001
      vertex -133.157 -33.393 0
      vertex -134.73 -32.102 0
    endloop
  endfacet
  facet normal 0 0 1
    outer loop
      vertex -159.68 -44.8 7.001
      vertex -157.169 -44.8 7.001
      vertex -159.206 -43.915 7.001
    endloop
  endfacet
  facet normal 0 0 -1
    outer loop
      vertex -163.501 -24.201 0
      vertex -143.5 -24.201 0
      vertex -163.5 -27.702 0
    endloop
  endfacet
  facet normal -0.956971 0.290185 0
    outer loop
      vertex -176.31 -36.762 7.001
      vertex -176.31 -36.762 0
      vertex -176.901 -38.711 0
    endloop
  endfacet
  facet normal -0.956971 0.290185 0
    outer loop
      vertex -176.31 -36.762 7.001
      vertex -176.901 -38.711 0
      vertex -176.901 -38.711 7.001
    endloop
  endfacet
  facet normal -0.995138 0 0.0984931
    outer loop
      vertex -163.308 -27.702 18.201
      vertex -163.308 -24.201 18.201
      vertex -163.501 -27.702 16.251
    endloop
  endfacet
  facet normal -0.995138 0 0.0984931
    outer loop
      vertex -163.501 -24.201 16.251
      vertex -163.501 -27.702 16.251
      vertex -163.308 -24.201 18.201
    endloop
  endfacet
  facet normal 0 0 -1
    outer loop
      vertex -147.154 -36.406 0
      vertex -148.794 -34.552 0
      vertex -146.159 -35.193 0
    endloop
  endfacet
  facet normal 0 0 -1
    outer loop
      vertex -147.894 -37.789 0
      vertex -150.095 -36.762 0
      vertex -147.154 -36.406 0
    endloop
  endfacet
  facet normal 0 -0 1
    outer loop
      vertex -157.169 -44.8 7.001
      vertex -157.121 -44.711 7.001
      vertex -159.206 -43.915 7.001
    endloop
  endfacet
  facet normal 0 0 1
    outer loop
      vertex -158.751 -42.413 7.001
      vertex -159.206 -43.915 7.001
      vertex -157.121 -44.711 7.001
    endloop
  endfacet
  facet normal 0 -0 -1
    outer loop
      vertex -133.157 -33.393 0
      vertex -131.865 -34.967 0
      vertex -134.841 -35.193 0
    endloop
  endfacet
  facet normal 0 -0 -1
    outer loop
      vertex -131.865 -34.967 0
      vertex -130.905 -36.762 0
      vertex -133.846 -36.406 0
    endloop
  endfacet
  facet normal -0.881808 0.471608 0
    outer loop
      vertex -175.35 -34.967 7.001
      vertex -175.35 -34.967 0
      vertex -176.31 -36.762 0
    endloop
  endfacet
  facet normal -0.881808 0.471608 0
    outer loop
      vertex -175.35 -34.967 7.001
      vertex -176.31 -36.762 0
      vertex -176.31 -36.762 7.001
    endloop
  endfacet
  facet normal -0.965927 0 -0.258813
    outer loop
      vertex -152.247 -27.702 16.15
      vertex -152.415 -27.702 16.777
      vertex -152.247 -24.201 16.15
    endloop
  endfacet
  facet normal -0.965927 -0 -0.258813
    outer loop
      vertex -152.415 -24.201 16.777
      vertex -152.247 -24.201 16.15
      vertex -152.415 -27.702 16.777
    endloop
  endfacet
  facet normal 0.77295 0.634467 -0
    outer loop
      vertex -133.157 -33.393 0
      vertex -133.157 -33.393 7.001
      vertex -131.865 -34.967 7.001
    endloop
  endfacet
  facet normal 0.77295 0.634467 0
    outer loop
      vertex -133.157 -33.393 0
      vertex -131.865 -34.967 7.001
      vertex -131.865 -34.967 0
    endloop
  endfacet
  facet normal 0 -0 1
    outer loop
      vertex -157.121 -44.711 7.001
      vertex -156.53 -42.763 7.001
      vertex -158.751 -42.413 7.001
    endloop
  endfacet
  facet normal 0.965927 0 -0.258813
    outer loop
      vertex -154.585 -27.702 16.777
      vertex -154.753 -24.201 16.15
      vertex -154.585 -24.201 16.777
    endloop
  endfacet
  facet normal -0.880153 -0.474689 -0
    outer loop
      vertex -176.31 -44.711 7.001
      vertex -176.31 -44.711 0
      vertex -176.262 -44.8 0
    endloop
  endfacet
  facet normal -0.880153 -0.474689 0
    outer loop
      vertex -176.31 -44.711 7.001
      vertex -176.262 -44.8 0
      vertex -176.262 -44.8 7.001
    endloop
  endfacet
  facet normal 0.0981781 -0.995169 0
    outer loop
      vertex -142.061 -33.003 7.001
      vertex -142.061 -33.003 0
      vertex -140.5 -32.849 0
    endloop
  endfacet
  facet normal 0.0981781 -0.995169 0
    outer loop
      vertex -142.061 -33.003 7.001
      vertex -140.5 -32.849 0
      vertex -140.5 -32.849 7.001
    endloop
  endfacet
  facet normal 0 -0 1
    outer loop
      vertex -158.597 -40.852 7.001
      vertex -156.33 -40.737 7.001
      vertex -158.751 -39.291 7.001
    endloop
  endfacet
  facet normal 0 0 1
    outer loop
      vertex -156.33 -40.737 7.001
      vertex -156.53 -38.711 7.001
      vertex -158.751 -39.291 7.001
    endloop
  endfacet
  facet normal 1 -0 0
    outer loop
      vertex -143.5 -27.702 16.251
      vertex -143.5 -27.702 7.001
      vertex -143.5 -24.201 16.251
    endloop
  endfacet
  facet normal -0.956929 -0.290321 -0
    outer loop
      vertex -176.901 -42.763 7.001
      vertex -176.901 -42.763 0
      vertex -176.31 -44.711 0
    endloop
  endfacet
  facet normal -0.956929 -0.290321 0
    outer loop
      vertex -176.901 -42.763 7.001
      vertex -176.31 -44.711 0
      vertex -176.31 -44.711 7.001
    endloop
  endfacet
  facet normal 1 0 -0
    outer loop
      vertex -143.5 -24.201 0
      vertex -143.5 -24.201 16.251
      vertex -143.5 -27.702 7.001
    endloop
  endfacet
  facet normal -0.634209 -0.773162 0
    outer loop
      vertex -134.841 -35.193 0
      vertex -136.054 -34.198 7.001
      vertex -136.054 -34.198 0
    endloop
  endfacet
  facet normal -0.995163 -0.0982392 -0
    outer loop
      vertex -177.101 -40.737 7.001
      vertex -177.101 -40.737 0
      vertex -176.901 -42.763 0
    endloop
  endfacet
  facet normal -0.995163 -0.0982392 0
    outer loop
      vertex -177.101 -40.737 7.001
      vertex -176.901 -42.763 0
      vertex -176.901 -42.763 7.001
    endloop
  endfacet
  facet normal 0 0 1
    outer loop
      vertex -159.206 -37.789 7.001
      vertex -158.751 -39.291 7.001
      vertex -156.53 -38.711 7.001
    endloop
  endfacet
  facet normal -0 0 -1
    outer loop
      vertex -142.061 -33.003 0
      vertex -143.563 -33.458 0
      vertex -143.5 -30.8465 0
    endloop
  endfacet
  facet normal 0 0 -1
    outer loop
      vertex -144.946 -34.198 0
      vertex -143.5 -30.8465 0
      vertex -143.563 -33.458 0
    endloop
  endfacet
  facet normal 0 0 -1
    outer loop
      vertex -146.159 -35.193 0
      vertex -148.794 -34.552 0
      vertex -144.946 -34.198 0
    endloop
  endfacet
  facet normal 0 0 -1
    outer loop
      vertex -143.5 -30.8465 0
      vertex -144.946 -34.198 0
      vertex -148.794 -34.552 0
    endloop
  endfacet
  facet normal 0 -0 -1
    outer loop
      vertex -143.5 -24.201 0
      vertex -143.5 -30.8465 0
      vertex -148.794 -34.552 0
    endloop
  endfacet
  facet normal -0.471779 -0.881717 -0
    outer loop
      vertex -137.437 -33.458 7.001
      vertex -137.437 -33.458 0
      vertex -136.054 -34.198 0
    endloop
  endfacet
  facet normal -0.471779 -0.881717 0
    outer loop
      vertex -137.437 -33.458 7.001
      vertex -136.054 -34.198 0
      vertex -136.054 -34.198 7.001
    endloop
  endfacet
  facet normal 0.965927 0 -0.258813
    outer loop
      vertex -154.585 -27.702 16.777
      vertex -154.753 -27.702 16.15
      vertex -154.753 -24.201 16.15
    endloop
  endfacet
  facet normal -0.289919 -0.957051 -0
    outer loop
      vertex -138.939 -33.003 7.001
      vertex -138.939 -33.003 0
      vertex -137.437 -33.458 0
    endloop
  endfacet
  facet normal -0.289919 -0.957051 0
    outer loop
      vertex -138.939 -33.003 7.001
      vertex -137.437 -33.458 0
      vertex -137.437 -33.458 7.001
    endloop
  endfacet
  facet normal 0 0 1
    outer loop
      vertex -156.53 -38.711 7.001
      vertex -157.121 -36.762 7.001
      vertex -159.206 -37.789 7.001
    endloop
  endfacet
  facet normal 0.965824 -0 0.259199
    outer loop
      vertex -154.585 -27.702 15.524
      vertex -154.585 -24.201 15.524
      vertex -154.753 -24.201 16.15
    endloop
  endfacet
  facet normal 0.965824 0 0.259199
    outer loop
      vertex -154.585 -27.702 15.524
      vertex -154.753 -24.201 16.15
      vertex -154.753 -27.702 16.15
    endloop
  endfacet
  facet normal -0.0981781 -0.995169 0
    outer loop
      vertex -138.939 -33.003 0
      vertex -138.939 -33.003 7.001
      vertex -140.5 -32.849 0
    endloop
  endfacet
  facet normal -0.0981781 -0.995169 -0
    outer loop
      vertex -140.5 -32.849 7.001
      vertex -140.5 -32.849 0
      vertex -138.939 -33.003 7.001
    endloop
  endfacet
  facet normal 0 0 -1
    outer loop
      vertex -148.794 -34.552 0
      vertex -158.421 -34.552 0
      vertex -143.5 -24.201 0
    endloop
  endfacet
  facet normal 0 0 -1
    outer loop
      vertex -163.5 -30.9117 0
      vertex -143.5 -24.201 0
      vertex -158.421 -34.552 0
    endloop
  endfacet
  facet normal 0 0 -1
    outer loop
      vertex -160.941 -35.193 0
      vertex -162.154 -34.198 0
      vertex -158.421 -34.552 0
    endloop
  endfacet
  facet normal 0 0 -1
    outer loop
      vertex -163.5 -30.9117 0
      vertex -163.5 -27.702 0
      vertex -143.5 -24.201 0
    endloop
  endfacet
  facet normal 0 -1 0
    outer loop
      vertex -176.262 -44.8 7.001
      vertex -173.52 -44.8 0
      vertex -173.52 -44.8 7.001
    endloop
  endfacet
  facet normal 0 -0 -1
    outer loop
      vertex -130.314 -38.711 0
      vertex -130.115 -40.737 0
      vertex -132.651 -39.291 0
    endloop
  endfacet
  facet normal 0 0 -1
    outer loop
      vertex -132.651 -39.291 0
      vertex -133.106 -37.789 0
      vertex -130.314 -38.711 0
    endloop
  endfacet
  facet normal 0 -0 -1
    outer loop
      vertex -130.905 -36.762 0
      vertex -130.314 -38.711 0
      vertex -133.106 -37.789 0
    endloop
  endfacet
  facet normal 0 0 -1
    outer loop
      vertex -133.106 -37.789 0
      vertex -133.846 -36.406 0
      vertex -130.905 -36.762 0
    endloop
  endfacet
  facet normal 0 0 -1
    outer loop
      vertex -133.846 -36.406 0
      vertex -134.841 -35.193 0
      vertex -131.865 -34.967 0
    endloop
  endfacet
  facet normal 0.707877 -0 0.706335
    outer loop
      vertex -154.127 -27.702 15.065
      vertex -154.127 -24.201 15.065
      vertex -154.585 -24.201 15.524
    endloop
  endfacet
  facet normal 0.707877 0 0.706335
    outer loop
      vertex -154.127 -27.702 15.065
      vertex -154.585 -24.201 15.524
      vertex -154.585 -27.702 15.524
    endloop
  endfacet
  facet normal 1 -0 0
    outer loop
      vertex -143.5 -30.8465 7.001
      vertex -143.5 -30.8465 0
      vertex -143.5 -27.702 7.001
    endloop
  endfacet
  facet normal 0.258813 -0 0.965927
    outer loop
      vertex -153.5 -27.702 14.897
      vertex -153.5 -24.201 14.897
      vertex -154.127 -24.201 15.065
    endloop
  endfacet
  facet normal 0.258813 0 0.965927
    outer loop
      vertex -153.5 -27.702 14.897
      vertex -154.127 -24.201 15.065
      vertex -154.127 -27.702 15.065
    endloop
  endfacet
  facet normal -0 0 1
    outer loop
      vertex -168.741 -30.551 7.001
      vertex -168.161 -33.003 7.001
      vertex -166.715 -30.351 7.001
    endloop
  endfacet
  facet normal -0 0 1
    outer loop
      vertex -172.485 -32.102 7.001
      vertex -171.046 -34.198 7.001
      vertex -170.69 -31.142 7.001
    endloop
  endfacet
  facet normal 0 0 1
    outer loop
      vertex -164.689 -30.551 7.001
      vertex -166.715 -30.351 7.001
      vertex -166.6 -32.849 7.001
    endloop
  endfacet
  facet normal 1 0 0
    outer loop
      vertex -143.5 -24.201 0
      vertex -143.5 -27.702 7.001
      vertex -143.5 -30.8465 0
    endloop
  endfacet
  facet normal 0 -1 0
    outer loop
      vertex -176.262 -44.8 0
      vertex -173.52 -44.8 0
      vertex -176.262 -44.8 7.001
    endloop
  endfacet
  facet normal -0.259199 0 0.965824
    outer loop
      vertex -152.874 -27.702 15.065
      vertex -152.874 -24.201 15.065
      vertex -153.5 -24.201 14.897
    endloop
  endfacet
  facet normal -0.259199 0 0.965824
    outer loop
      vertex -152.874 -27.702 15.065
      vertex -153.5 -24.201 14.897
      vertex -153.5 -27.702 14.897
    endloop
  endfacet
  facet normal -0.634209 -0.773162 -0
    outer loop
      vertex -162.154 -34.198 7.001
      vertex -162.154 -34.198 0
      vertex -160.941 -35.193 0
    endloop
  endfacet
  facet normal 0 0 -1
    outer loop
      vertex -150.047 -44.8 0
      vertex -150.095 -44.711 0
      vertex -147.894 -43.915 0
    endloop
  endfacet
  facet normal 0 -0 -1
    outer loop
      vertex -148.349 -42.413 0
      vertex -147.894 -43.915 0
      vertex -150.095 -44.711 0
    endloop
  endfacet
  facet normal 0 0 1
    outer loop
      vertex -143.5 -30.8465 7.001
      vertex -148.794 -34.552 7.001
      vertex -144.946 -34.198 7.001
    endloop
  endfacet
  facet normal -0.707107 0 0.707107
    outer loop
      vertex -152.415 -27.702 15.524
      vertex -152.415 -24.201 15.524
      vertex -152.874 -24.201 15.065
    endloop
  endfacet
  facet normal -0.707107 0 0.707107
    outer loop
      vertex -152.415 -27.702 15.524
      vertex -152.874 -24.201 15.065
      vertex -152.874 -27.702 15.065
    endloop
  endfacet
  facet normal -0.471779 -0.881717 0
    outer loop
      vertex -163.537 -33.458 7.001
      vertex -162.154 -34.198 0
      vertex -162.154 -34.198 7.001
    endloop
  endfacet
  facet normal 0 -0 -1
    outer loop
      vertex -147.894 -43.915 0
      vertex -147.42 -44.8 0
      vertex -150.047 -44.8 0
    endloop
  endfacet
  facet normal 0.289919 -0.957051 0
    outer loop
      vertex -143.563 -33.458 7.001
      vertex -143.563 -33.458 0
      vertex -142.061 -33.003 0
    endloop
  endfacet
  facet normal 0.289919 -0.957051 0
    outer loop
      vertex -143.563 -33.458 7.001
      vertex -142.061 -33.003 0
      vertex -142.061 -33.003 7.001
    endloop
  endfacet
  facet normal 0 -1 -0
    outer loop
      vertex -144.261 -27.702 20.077
      vertex -152.415 -27.702 16.777
      vertex -143.692 -27.702 18.201
    endloop
  endfacet
  facet normal 0 -1 -0
    outer loop
      vertex -145.185 -27.702 21.806
      vertex -152.415 -27.702 16.777
      vertex -144.261 -27.702 20.077
    endloop
  endfacet
  facet normal 0 -1 -0
    outer loop
      vertex -146.429 -27.702 23.321
      vertex -152.415 -27.702 16.777
      vertex -145.185 -27.702 21.806
    endloop
  endfacet
  facet normal 0 -1 -0
    outer loop
      vertex -147.944 -27.702 24.565
      vertex -152.874 -27.702 17.235
      vertex -146.429 -27.702 23.321
    endloop
  endfacet
  facet normal 0 -1 -0
    outer loop
      vertex -149.673 -27.702 25.489
      vertex -152.874 -27.702 17.235
      vertex -147.944 -27.702 24.565
    endloop
  endfacet
  facet normal 0 -1 0
    outer loop
      vertex -153.5 -27.702 26.251
      vertex -153.5 -27.702 17.403
      vertex -151.549 -27.702 26.058
    endloop
  endfacet
  facet normal 0 -1 -0
    outer loop
      vertex -151.549 -27.702 26.058
      vertex -152.874 -27.702 17.235
      vertex -149.673 -27.702 25.489
    endloop
  endfacet
  facet normal 0 -1 0
    outer loop
      vertex -152.415 -27.702 16.777
      vertex -146.429 -27.702 23.321
      vertex -152.874 -27.702 17.235
    endloop
  endfacet
  facet normal 0 -1 0
    outer loop
      vertex -152.415 -27.702 16.777
      vertex -152.247 -27.702 16.15
      vertex -143.692 -27.702 18.201
    endloop
  endfacet
  facet normal 0.957051 0.289919 0
    outer loop
      vertex -173.994 -43.915 7.001
      vertex -173.994 -43.915 0
      vertex -174.449 -42.413 0
    endloop
  endfacet
  facet normal 0.957051 0.289919 0
    outer loop
      vertex -173.994 -43.915 7.001
      vertex -174.449 -42.413 0
      vertex -174.449 -42.413 7.001
    endloop
  endfacet
  facet normal 0.471779 -0.881717 0
    outer loop
      vertex -144.946 -34.198 7.001
      vertex -144.946 -34.198 0
      vertex -143.563 -33.458 0
    endloop
  endfacet
  facet normal 0.471779 -0.881717 0
    outer loop
      vertex -144.946 -34.198 7.001
      vertex -143.563 -33.458 0
      vertex -143.563 -33.458 7.001
    endloop
  endfacet
  facet normal 0 0 -1
    outer loop
      vertex -150.095 -44.711 0
      vertex -150.686 -42.763 0
      vertex -148.349 -42.413 0
    endloop
  endfacet
  facet normal 0 0 1
    outer loop
      vertex -132.651 -42.413 7.001
      vertex -133.106 -43.915 7.001
      vertex -130.905 -44.711 7.001
    endloop
  endfacet
  facet normal 0.634209 -0.773162 0
    outer loop
      vertex -146.159 -35.193 7.001
      vertex -146.159 -35.193 0
      vertex -144.946 -34.198 0
    endloop
  endfacet
  facet normal 0.634209 -0.773162 0
    outer loop
      vertex -146.159 -35.193 7.001
      vertex -144.946 -34.198 0
      vertex -144.946 -34.198 7.001
    endloop
  endfacet
  facet normal 0.881524 0.472138 0
    outer loop
      vertex -173.52 -44.8 0
      vertex -173.994 -43.915 0
      vertex -173.994 -43.915 7.001
    endloop
  endfacet
  facet normal 0.881524 0.472138 -0
    outer loop
      vertex -173.52 -44.8 0
      vertex -173.994 -43.915 7.001
      vertex -173.52 -44.8 7.001
    endloop
  endfacet
  facet normal 0 -1 -0
    outer loop
      vertex -157.327 -27.702 25.489
      vertex -159.056 -27.702 24.565
      vertex -154.127 -27.702 17.235
    endloop
  endfacet
  facet normal 0 -1 -0
    outer loop
      vertex -159.056 -27.702 24.565
      vertex -160.571 -27.702 23.321
      vertex -154.127 -27.702 17.235
    endloop
  endfacet
  facet normal 0 -1 0
    outer loop
      vertex -154.585 -27.702 16.777
      vertex -154.127 -27.702 17.235
      vertex -160.571 -27.702 23.321
    endloop
  endfacet
  facet normal 0 -1 0
    outer loop
      vertex -154.585 -27.702 16.777
      vertex -160.571 -27.702 23.321
      vertex -161.815 -27.702 21.806
    endloop
  endfacet
  facet normal 0 -1 0
    outer loop
      vertex -154.585 -27.702 16.777
      vertex -161.815 -27.702 21.806
      vertex -162.739 -27.702 20.077
    endloop
  endfacet
  facet normal 0 -1 0
    outer loop
      vertex -154.585 -27.702 16.777
      vertex -162.739 -27.702 20.077
      vertex -163.308 -27.702 18.201
    endloop
  endfacet
  facet normal 0.995169 0.0981781 0
    outer loop
      vertex -174.449 -42.413 7.001
      vertex -174.449 -42.413 0
      vertex -174.603 -40.852 0
    endloop
  endfacet
  facet normal 0.995169 0.0981781 0
    outer loop
      vertex -174.449 -42.413 7.001
      vertex -174.603 -40.852 0
      vertex -174.603 -40.852 7.001
    endloop
  endfacet
  facet normal 0 -0 1
    outer loop
      vertex -132.497 -40.852 7.001
      vertex -130.115 -40.737 7.001
      vertex -132.651 -39.291 7.001
    endloop
  endfacet
  facet normal 0.634209 -0.773162 0
    outer loop
      vertex -172.259 -35.193 7.001
      vertex -172.259 -35.193 0
      vertex -171.046 -34.198 0
    endloop
  endfacet
  facet normal 0.634209 -0.773162 0
    outer loop
      vertex -172.259 -35.193 7.001
      vertex -171.046 -34.198 0
      vertex -171.046 -34.198 7.001
    endloop
  endfacet
  facet normal -0 -1 0
    outer loop
      vertex -143.5 -27.702 16.251
      vertex -143.692 -27.702 18.201
      vertex -152.247 -27.702 16.15
    endloop
  endfacet
  facet normal 0 -0 1
    outer loop
      vertex -133.106 -37.789 7.001
      vertex -130.905 -36.762 7.001
      vertex -133.846 -36.406 7.001
    endloop
  endfacet
  facet normal 0.773162 -0.634209 0
    outer loop
      vertex -173.254 -36.406 7.001
      vertex -173.254 -36.406 0
      vertex -172.259 -35.193 0
    endloop
  endfacet
  facet normal 0.773162 -0.634209 0
    outer loop
      vertex -173.254 -36.406 7.001
      vertex -172.259 -35.193 0
      vertex -172.259 -35.193 7.001
    endloop
  endfacet
  facet normal 0 0 1
    outer loop
      vertex -131.865 -34.967 7.001
      vertex -133.157 -33.393 7.001
      vertex -134.841 -35.193 7.001
    endloop
  endfacet
  facet normal -0 0 1
    outer loop
      vertex -136.054 -34.198 7.001
      vertex -134.841 -35.193 7.001
      vertex -133.157 -33.393 7.001
    endloop
  endfacet
  facet normal 0 0 1
    outer loop
      vertex -131.865 -34.967 7.001
      vertex -134.841 -35.193 7.001
      vertex -133.846 -36.406 7.001
    endloop
  endfacet
  facet normal 0 -0 1
    outer loop
      vertex -132.651 -39.291 7.001
      vertex -130.314 -38.711 7.001
      vertex -133.106 -37.789 7.001
    endloop
  endfacet
  facet normal 0 -0 1
    outer loop
      vertex -130.905 -44.711 7.001
      vertex -130.314 -42.763 7.001
      vertex -132.651 -42.413 7.001
    endloop
  endfacet
  facet normal 0 0 1
    outer loop
      vertex -131.865 -34.967 7.001
      vertex -133.846 -36.406 7.001
      vertex -130.905 -36.762 7.001
    endloop
  endfacet
  facet normal 0 0 1
    outer loop
      vertex -148.349 -42.413 7.001
      vertex -150.095 -44.711 7.001
      vertex -147.894 -43.915 7.001
    endloop
  endfacet
  facet normal 0 0 1
    outer loop
      vertex -147.42 -44.8 7.001
      vertex -147.894 -43.915 7.001
      vertex -150.047 -44.8 7.001
    endloop
  endfacet
  facet normal 0 0 1
    outer loop
      vertex -150.885 -40.737 7.001
      vertex -150.686 -42.763 7.001
      vertex -148.503 -40.852 7.001
    endloop
  endfacet
  facet normal 0 -0 1
    outer loop
      vertex -147.154 -36.406 7.001
      vertex -146.159 -35.193 7.001
      vertex -148.794 -34.552 7.001
    endloop
  endfacet
  facet normal 0 -0 1
    outer loop
      vertex -146.159 -35.193 7.001
      vertex -144.946 -34.198 7.001
      vertex -148.794 -34.552 7.001
    endloop
  endfacet
  facet normal 0 -0 1
    outer loop
      vertex -147.894 -37.789 7.001
      vertex -147.154 -36.406 7.001
      vertex -150.095 -36.762 7.001
    endloop
  endfacet
  facet normal 0 0 1
    outer loop
      vertex -149.135 -34.967 7.001
      vertex -150.095 -36.762 7.001
      vertex -147.154 -36.406 7.001
    endloop
  endfacet
  facet normal 0 -0 1
    outer loop
      vertex -150.047 -44.8 7.001
      vertex -147.894 -43.915 7.001
      vertex -150.095 -44.711 7.001
    endloop
  endfacet
  facet normal 0 -0 1
    outer loop
      vertex -150.095 -44.711 7.001
      vertex -148.349 -42.413 7.001
      vertex -150.686 -42.763 7.001
    endloop
  endfacet
  facet normal 0 0 1
    outer loop
      vertex -148.349 -42.413 7.001
      vertex -148.503 -40.852 7.001
      vertex -150.686 -42.763 7.001
    endloop
  endfacet
  facet normal 0 -0 1
    outer loop
      vertex -148.503 -40.852 7.001
      vertex -148.349 -39.291 7.001
      vertex -150.885 -40.737 7.001
    endloop
  endfacet
  facet normal -0 0 1
    outer loop
      vertex -149.135 -34.967 7.001
      vertex -147.154 -36.406 7.001
      vertex -148.794 -34.552 7.001
    endloop
  endfacet
  facet normal 0 -0 1
    outer loop
      vertex -148.349 -39.291 7.001
      vertex -147.894 -37.789 7.001
      vertex -150.686 -38.711 7.001
    endloop
  endfacet
  facet normal 0 0 1
    outer loop
      vertex -150.686 -38.711 7.001
      vertex -147.894 -37.789 7.001
      vertex -150.095 -36.762 7.001
    endloop
  endfacet
  facet normal 0 0 1
    outer loop
      vertex -150.885 -40.737 7.001
      vertex -148.349 -39.291 7.001
      vertex -150.686 -38.711 7.001
    endloop
  endfacet
endsolid OpenSCAD_Model
