solid OpenSCAD_Model
  facet normal -0.258813 0 0.965927
    outer loop
      vertex -152.823 -95.601 15.065
      vertex -152.823 -92.1 15.065
      vertex -153.45 -92.1 14.897
    endloop
  endfacet
  facet normal -0.258813 0 0.965927
    outer loop
      vertex -152.823 -95.601 15.065
      vertex -153.45 -92.1 14.897
      vertex -153.45 -95.601 14.897
    endloop
  endfacet
  facet normal 0 -0 -1
    outer loop
      vertex -156.95 -110.311 -0.001
      vertex -155.32 -112.609 -0.001
      vertex -157.406 -111.813 -0.001
    endloop
  endfacet
  facet normal -0 0 1
    outer loop
      vertex -159.141 -103.091 5
      vertex -158.145 -104.304 5
      vertex -156.62 -102.45 5
    endloop
  endfacet
  facet normal 0 0 -1
    outer loop
      vertex -154.53 -108.635 -0.001
      vertex -154.729 -110.661 -0.001
      vertex -156.796 -108.75 -0.001
    endloop
  endfacet
  facet normal 0 0 -1
    outer loop
      vertex -160.941 -99.04 0
      vertex -162.889 -98.449 0
      vertex -163.45 -92.099 0
    endloop
  endfacet
  facet normal -1 0 0
    outer loop
      vertex -163.45 -95.601 16.251
      vertex -163.45 -92.1 16.251
      vertex -163.45 -92.1 5
    endloop
  endfacet
  facet normal -1 0 0
    outer loop
      vertex -163.45 -95.601 16.251
      vertex -163.45 -92.1 5
      vertex -163.45 -95.601 5
    endloop
  endfacet
  facet normal -1 -0 -0
    outer loop
      vertex -163.45 -92.1 5
      vertex -163.45 -92.099 0
      vertex -163.45 -95.601 5
    endloop
  endfacet
  facet normal -1 -0 -0
    outer loop
      vertex -163.45 -92.099 5
      vertex -163.45 -92.099 0
      vertex -163.45 -92.1 5
    endloop
  endfacet
  facet normal 0 -0 -1
    outer loop
      vertex -156.28 -102.865 -0.001
      vertex -155.32 -104.66 -0.001
      vertex -158.145 -104.304 -0.001
    endloop
  endfacet
  facet normal 0 0 -1
    outer loop
      vertex -157.406 -105.687 -0.001
      vertex -158.145 -104.304 -0.001
      vertex -155.32 -104.66 -0.001
    endloop
  endfacet
  facet normal 0 0 -1
    outer loop
      vertex -159.141 -103.091 -0.001
      vertex -156.28 -102.865 -0.001
      vertex -158.145 -104.304 -0.001
    endloop
  endfacet
  facet normal 0 0 -1
    outer loop
      vertex -161.737 -101.356 -0.001
      vertex -159.145 -100 -0.001
      vertex -160.353 -102.096 -0.001
    endloop
  endfacet
  facet normal 0 0 -1
    outer loop
      vertex -160.353 -102.096 -0.001
      vertex -157.571 -101.291 -0.001
      vertex -159.141 -103.091 -0.001
    endloop
  endfacet
  facet normal 0 -0 -1
    outer loop
      vertex -162.889 -98.449 -0.001
      vertex -160.941 -99.04 -0.001
      vertex -163.238 -100.901 -0.001
    endloop
  endfacet
  facet normal 0 -0 1
    outer loop
      vertex -148.854 -104.304 5
      vertex -147.858 -103.091 5
      vertex -150.494 -102.45 5
    endloop
  endfacet
  facet normal -0.772849 -0.63459 -0
    outer loop
      vertex -159.141 -103.091 5
      vertex -159.141 -103.091 -0.001
      vertex -158.145 -104.304 -0.001
    endloop
  endfacet
  facet normal 0 1 0
    outer loop
      vertex -154.076 -92.1 17.235
      vertex -154.535 -92.1 16.777
      vertex -160.521 -92.1 23.321
    endloop
  endfacet
  facet normal -0 1 0
    outer loop
      vertex -161.765 -92.1 21.806
      vertex -160.521 -92.1 23.321
      vertex -154.535 -92.1 16.777
    endloop
  endfacet
  facet normal 0 1 0
    outer loop
      vertex -159.006 -92.1 24.565
      vertex -154.076 -92.1 17.235
      vertex -160.521 -92.1 23.321
    endloop
  endfacet
  facet normal 0 1 0
    outer loop
      vertex -157.277 -92.1 25.489
      vertex -154.076 -92.1 17.235
      vertex -159.006 -92.1 24.565
    endloop
  endfacet
  facet normal 0 1 0
    outer loop
      vertex -155.401 -92.1 26.058
      vertex -154.076 -92.1 17.235
      vertex -157.277 -92.1 25.489
    endloop
  endfacet
  facet normal 0 1 0
    outer loop
      vertex -163.258 -92.1 18.201
      vertex -154.535 -92.1 16.777
      vertex -154.703 -92.1 16.15
    endloop
  endfacet
  facet normal 0 0 -1
    outer loop
      vertex -161.737 -101.356 -0.001
      vertex -163.238 -100.901 -0.001
      vertex -160.941 -99.04 -0.001
    endloop
  endfacet
  facet normal -0 0 -1
    outer loop
      vertex -157.571 -101.291 -0.001
      vertex -160.353 -102.096 -0.001
      vertex -159.145 -100 -0.001
    endloop
  endfacet
  facet normal 0 -1 -0
    outer loop
      vertex -143.449 -95.601 16.251
      vertex -152.364 -95.601 15.524
      vertex -143.449 -95.601 5
    endloop
  endfacet
  facet normal 0 1 0
    outer loop
      vertex -154.703 -92.1 16.15
      vertex -163.45 -92.1 16.251
      vertex -163.258 -92.1 18.201
    endloop
  endfacet
  facet normal 0 0 1
    outer loop
      vertex -163.45 -95.601 5
      vertex -163.45 -98.3936 5
      vertex -156.62 -102.45 5
    endloop
  endfacet
  facet normal 0 -0 1
    outer loop
      vertex -155.32 -112.609 5
      vertex -154.729 -110.661 5
      vertex -156.95 -110.311 5
    endloop
  endfacet
  facet normal 0 -0 1
    outer loop
      vertex -154.729 -110.661 5
      vertex -154.53 -108.635 5
      vertex -156.796 -108.75 5
    endloop
  endfacet
  facet normal 0 0 1
    outer loop
      vertex -156.95 -107.189 5
      vertex -156.796 -108.75 5
      vertex -154.53 -108.635 5
    endloop
  endfacet
  facet normal 0 0 1
    outer loop
      vertex -157.406 -105.687 5
      vertex -156.95 -107.189 5
      vertex -154.729 -106.609 5
    endloop
  endfacet
  facet normal 0 0 1
    outer loop
      vertex -154.729 -106.609 5
      vertex -155.32 -104.66 5
      vertex -157.406 -105.687 5
    endloop
  endfacet
  facet normal 0 0 1
    outer loop
      vertex -156.28 -102.865 5
      vertex -158.145 -104.304 5
      vertex -155.32 -104.66 5
    endloop
  endfacet
  facet normal 0 0 1
    outer loop
      vertex -156.62 -102.45 5
      vertex -158.145 -104.304 5
      vertex -156.28 -102.865 5
    endloop
  endfacet
  facet normal 0 0 1
    outer loop
      vertex -175.3 -108.635 5
      vertex -175.1 -110.661 5
      vertex -172.802 -108.75 5
    endloop
  endfacet
  facet normal -0 0 -1
    outer loop
      vertex -159.145 -100 -0.001
      vertex -161.737 -101.356 -0.001
      vertex -160.941 -99.04 -0.001
    endloop
  endfacet
  facet normal 0 -1 0
    outer loop
      vertex -152.823 -95.601 15.065
      vertex -143.449 -95.601 5
      vertex -152.364 -95.601 15.524
    endloop
  endfacet
  facet normal 0 -1 -0
    outer loop
      vertex -152.197 -95.601 16.15
      vertex -152.364 -95.601 15.524
      vertex -143.449 -95.601 16.251
    endloop
  endfacet
  facet normal 0 0 1
    outer loop
      vertex -150.834 -102.865 5
      vertex -151.794 -104.66 5
      vertex -148.854 -104.304 5
    endloop
  endfacet
  facet normal 0 0 1
    outer loop
      vertex -150.494 -102.45 5
      vertex -150.834 -102.865 5
      vertex -148.854 -104.304 5
    endloop
  endfacet
  facet normal 0.0984431 0 0.995143
    outer loop
      vertex -153.45 -95.601 26.251
      vertex -151.499 -95.601 26.058
      vertex -151.499 -92.1 26.058
    endloop
  endfacet
  facet normal 0 -0 -1
    outer loop
      vertex -134.35 -110.311 -0.001
      vertex -132.605 -112.609 -0.001
      vertex -134.806 -111.813 -0.001
    endloop
  endfacet
  facet normal 0 0 1
    outer loop
      vertex -172.649 -110.311 5
      vertex -174.509 -112.609 5
      vertex -172.193 -111.813 5
    endloop
  endfacet
  facet normal 0 0 -1
    outer loop
      vertex -135.279 -112.698 -0.001
      vertex -134.806 -111.813 -0.001
      vertex -132.653 -112.698 -0.001
    endloop
  endfacet
  facet normal 0 0 -1
    outer loop
      vertex -131.814 -108.635 -0.001
      vertex -132.014 -110.661 -0.001
      vertex -134.197 -108.75 -0.001
    endloop
  endfacet
  facet normal 0 0 -1
    outer loop
      vertex -157.879 -112.698 -0.001
      vertex -157.406 -111.813 -0.001
      vertex -155.368 -112.698 -0.001
    endloop
  endfacet
  facet normal 0 -0 -1
    outer loop
      vertex -155.32 -104.66 -0.001
      vertex -154.729 -106.609 -0.001
      vertex -157.406 -105.687 -0.001
    endloop
  endfacet
  facet normal 0 0 -1
    outer loop
      vertex -156.95 -107.189 -0.001
      vertex -157.406 -105.687 -0.001
      vertex -154.729 -106.609 -0.001
    endloop
  endfacet
  facet normal -0 0 -1
    outer loop
      vertex -156.28 -102.865 -0.001
      vertex -159.141 -103.091 -0.001
      vertex -157.571 -101.291 -0.001
    endloop
  endfacet
  facet normal 0 -0 -1
    outer loop
      vertex -154.729 -106.609 -0.001
      vertex -154.53 -108.635 -0.001
      vertex -156.95 -107.189 -0.001
    endloop
  endfacet
  facet normal 0 0 -1
    outer loop
      vertex -156.796 -108.75 -0.001
      vertex -156.95 -107.189 -0.001
      vertex -154.53 -108.635 -0.001
    endloop
  endfacet
  facet normal 0 0 -1
    outer loop
      vertex -156.95 -110.311 -0.001
      vertex -156.796 -108.75 -0.001
      vertex -154.729 -110.661 -0.001
    endloop
  endfacet
  facet normal 0 0 -1
    outer loop
      vertex -155.32 -112.609 -0.001
      vertex -156.95 -110.311 -0.001
      vertex -154.729 -110.661 -0.001
    endloop
  endfacet
  facet normal 0 0 -1
    outer loop
      vertex -155.368 -112.698 -0.001
      vertex -157.406 -111.813 -0.001
      vertex -155.32 -112.609 -0.001
    endloop
  endfacet
  facet normal 0.290106 0 0.956994
    outer loop
      vertex -151.499 -95.601 26.058
      vertex -149.622 -95.601 25.489
      vertex -149.622 -92.1 25.489
    endloop
  endfacet
  facet normal 0.290106 -0 0.956994
    outer loop
      vertex -151.499 -95.601 26.058
      vertex -149.622 -92.1 25.489
      vertex -151.499 -92.1 26.058
    endloop
  endfacet
  facet normal 0 -0 1
    outer loop
      vertex -151.746 -112.698 5
      vertex -149.593 -111.813 5
      vertex -151.794 -112.609 5
    endloop
  endfacet
  facet normal 0 0 1
    outer loop
      vertex -149.593 -111.813 5
      vertex -150.049 -110.311 5
      vertex -151.794 -112.609 5
    endloop
  endfacet
  facet normal 0 0 1
    outer loop
      vertex -152.585 -108.635 5
      vertex -152.385 -110.661 5
      vertex -150.203 -108.75 5
    endloop
  endfacet
  facet normal 0 -0 1
    outer loop
      vertex -150.203 -108.75 5
      vertex -150.049 -107.189 5
      vertex -152.585 -108.635 5
    endloop
  endfacet
  facet normal 0 0 1
    outer loop
      vertex -149.593 -105.687 5
      vertex -152.385 -106.609 5
      vertex -150.049 -107.189 5
    endloop
  endfacet
  facet normal 0 -0 1
    outer loop
      vertex -149.593 -105.687 5
      vertex -148.854 -104.304 5
      vertex -151.794 -104.66 5
    endloop
  endfacet
  facet normal 0 0 1
    outer loop
      vertex -152.385 -106.609 5
      vertex -149.593 -105.687 5
      vertex -151.794 -104.66 5
    endloop
  endfacet
  facet normal 0 0 1
    outer loop
      vertex -152.585 -108.635 5
      vertex -150.049 -107.189 5
      vertex -152.385 -106.609 5
    endloop
  endfacet
  facet normal 0.471542 0 0.881844
    outer loop
      vertex -149.622 -95.601 25.489
      vertex -147.894 -95.601 24.565
      vertex -147.894 -92.1 24.565
    endloop
  endfacet
  facet normal 0.471542 -0 0.881844
    outer loop
      vertex -149.622 -95.601 25.489
      vertex -147.894 -92.1 24.565
      vertex -149.622 -92.1 25.489
    endloop
  endfacet
  facet normal 0 1 0
    outer loop
      vertex -154.076 -92.1 15.065
      vertex -153.45 -92.1 14.897
      vertex -163.45 -92.1 5
    endloop
  endfacet
  facet normal 1 -0 0
    outer loop
      vertex -143.449 -98.3723 5
      vertex -143.449 -98.3723 0
      vertex -143.449 -95.601 5
    endloop
  endfacet
  facet normal 0.634348 0 0.773048
    outer loop
      vertex -147.894 -95.601 24.565
      vertex -146.378 -95.601 23.321
      vertex -146.378 -92.1 23.321
    endloop
  endfacet
  facet normal 0.634348 -0 0.773048
    outer loop
      vertex -147.894 -95.601 24.565
      vertex -146.378 -92.1 23.321
      vertex -147.894 -92.1 24.565
    endloop
  endfacet
  facet normal 0 0 1
    outer loop
      vertex -163.45 -98.3936 5
      vertex -164.915 -98.249 5
      vertex -164.799 -100.747 5
    endloop
  endfacet
  facet normal 0 1 0
    outer loop
      vertex -154.703 -92.1 16.15
      vertex -154.535 -92.1 15.524
      vertex -163.45 -92.1 16.251
    endloop
  endfacet
  facet normal 0 1 0
    outer loop
      vertex -163.45 -92.1 16.251
      vertex -154.535 -92.1 15.524
      vertex -163.45 -92.1 5
    endloop
  endfacet
  facet normal -0.634522 -0.772905 0
    outer loop
      vertex -159.141 -103.091 -0.001
      vertex -159.141 -103.091 5
      vertex -160.353 -102.096 -0.001
    endloop
  endfacet
  facet normal 0.772842 0 0.634598
    outer loop
      vertex -146.378 -95.601 23.321
      vertex -145.134 -95.601 21.806
      vertex -145.134 -92.1 21.806
    endloop
  endfacet
  facet normal 0.772842 -0 0.634598
    outer loop
      vertex -146.378 -95.601 23.321
      vertex -145.134 -92.1 21.806
      vertex -146.378 -92.1 23.321
    endloop
  endfacet
  facet normal 0.881957 0 0.471329
    outer loop
      vertex -145.134 -95.601 21.806
      vertex -144.21 -95.601 20.077
      vertex -144.21 -92.1 20.077
    endloop
  endfacet
  facet normal 0.881957 -0 0.471329
    outer loop
      vertex -145.134 -95.601 21.806
      vertex -144.21 -92.1 20.077
      vertex -145.134 -92.1 21.806
    endloop
  endfacet
  facet normal 0 0 1
    outer loop
      vertex -166.361 -100.901 5
      vertex -164.799 -100.747 5
      vertex -164.915 -98.249 5
    endloop
  endfacet
  facet normal 0.0981912 0.995168 0
    outer loop
      vertex -140.173 -98.449 5
      vertex -140.173 -98.449 -0.001
      vertex -142.2 -98.249 5
    endloop
  endfacet
  facet normal 0 -1 -0
    outer loop
      vertex -157.277 -95.601 25.489
      vertex -159.006 -95.601 24.565
      vertex -154.076 -95.601 17.235
    endloop
  endfacet
  facet normal 0.290096 -0.956998 0
    outer loop
      vertex -145.262 -101.356 5
      vertex -145.262 -101.356 -0.001
      vertex -143.761 -100.901 5
    endloop
  endfacet
  facet normal 0.956951 0 0.290248
    outer loop
      vertex -144.21 -95.601 20.077
      vertex -143.641 -95.601 18.201
      vertex -143.641 -92.1 18.201
    endloop
  endfacet
  facet normal 0.956951 -0 0.290248
    outer loop
      vertex -144.21 -95.601 20.077
      vertex -143.641 -92.1 18.201
      vertex -144.21 -92.1 20.077
    endloop
  endfacet
  facet normal 0 0 -1
    outer loop
      vertex -135.545 -104.304 -0.001
      vertex -136.541 -103.091 -0.001
      vertex -133.565 -102.865 -0.001
    endloop
  endfacet
  facet normal 0.995188 -0 0.0979877
    outer loop
      vertex -143.641 -95.601 18.201
      vertex -143.449 -95.601 16.251
      vertex -143.641 -92.1 18.201
    endloop
  endfacet
  facet normal 0.471514 -0.881859 0
    outer loop
      vertex -145.262 -101.356 -0.001
      vertex -145.262 -101.356 5
      vertex -146.646 -102.096 5
    endloop
  endfacet
  facet normal 0 0 1
    outer loop
      vertex -169.246 -102.096 5
      vertex -170.685 -100 5
      vertex -170.458 -103.091 5
    endloop
  endfacet
  facet normal 0 0 1
    outer loop
      vertex -166.941 -98.449 5
      vertex -168.889 -99.04 5
      vertex -167.862 -101.356 5
    endloop
  endfacet
  facet normal -0 -1 0
    outer loop
      vertex -154.076 -95.601 17.235
      vertex -160.521 -95.601 23.321
      vertex -154.535 -95.601 16.777
    endloop
  endfacet
  facet normal 0 -1 0
    outer loop
      vertex -160.521 -95.601 23.321
      vertex -154.076 -95.601 17.235
      vertex -159.006 -95.601 24.565
    endloop
  endfacet
  facet normal 0 -1 0
    outer loop
      vertex -161.765 -95.601 21.806
      vertex -154.535 -95.601 16.777
      vertex -160.521 -95.601 23.321
    endloop
  endfacet
  facet normal 0 -1 0
    outer loop
      vertex -162.689 -95.601 20.077
      vertex -154.535 -95.601 16.777
      vertex -161.765 -95.601 21.806
    endloop
  endfacet
  facet normal 0 -1 0
    outer loop
      vertex -163.258 -95.601 18.201
      vertex -154.535 -95.601 16.777
      vertex -162.689 -95.601 20.077
    endloop
  endfacet
  facet normal 0 0 -1
    outer loop
      vertex -163.238 -100.901 -0.001
      vertex -164.799 -100.747 -0.001
      vertex -162.889 -98.449 -0.001
    endloop
  endfacet
  facet normal 0 0 -1
    outer loop
      vertex -146.174 -99.04 0
      vertex -143.449 -92.099 0
      vertex -144.226 -98.449 0
    endloop
  endfacet
  facet normal -0 0 -1
    outer loop
      vertex -143.449 -98.3723 0
      vertex -144.226 -98.449 0
      vertex -143.449 -92.099 0
    endloop
  endfacet
  facet normal 0 0 -1
    outer loop
      vertex -137.753 -102.096 -0.001
      vertex -134.856 -101.291 -0.001
      vertex -136.541 -103.091 -0.001
    endloop
  endfacet
  facet normal 0 -0 -1
    outer loop
      vertex -134.856 -101.291 -0.001
      vertex -133.565 -102.865 -0.001
      vertex -136.541 -103.091 -0.001
    endloop
  endfacet
  facet normal -0.290321 0.956929 0
    outer loop
      vertex -144.226 -98.449 0
      vertex -144.226 -98.449 -0.001
      vertex -146.174 -99.04 -0.001
    endloop
  endfacet
  facet normal -0.290321 0.956929 0
    outer loop
      vertex -144.226 -98.449 0
      vertex -146.174 -99.04 -0.001
      vertex -146.174 -99.04 0
    endloop
  endfacet
  facet normal -0.706335 -0 -0.707877
    outer loop
      vertex -152.364 -92.1 16.777
      vertex -152.364 -95.601 16.777
      vertex -152.823 -92.1 17.235
    endloop
  endfacet
  facet normal 0 -1 0
    outer loop
      vertex -163.45 -95.601 16.251
      vertex -154.703 -95.601 16.15
      vertex -163.258 -95.601 18.201
    endloop
  endfacet
  facet normal 0 0 1
    outer loop
      vertex -173.55 -102.865 5
      vertex -174.509 -104.66 5
      vertex -171.454 -104.304 5
    endloop
  endfacet
  facet normal 0 -0 1
    outer loop
      vertex -171.454 -104.304 5
      vertex -170.458 -103.091 5
      vertex -173.55 -102.865 5
    endloop
  endfacet
  facet normal 0 0 1
    outer loop
      vertex -172.258 -101.291 5
      vertex -173.55 -102.865 5
      vertex -170.458 -103.091 5
    endloop
  endfacet
  facet normal 0 0 -1
    outer loop
      vertex -139.137 -101.356 -0.001
      vertex -136.43 -100 -0.001
      vertex -137.753 -102.096 -0.001
    endloop
  endfacet
  facet normal 0.995188 -0 0.0979877
    outer loop
      vertex -143.449 -95.601 16.251
      vertex -143.449 -92.1 16.251
      vertex -143.641 -92.1 18.201
    endloop
  endfacet
  facet normal -0 -1 0
    outer loop
      vertex -154.535 -95.601 16.777
      vertex -163.258 -95.601 18.201
      vertex -154.703 -95.601 16.15
    endloop
  endfacet
  facet normal -0 -1 -0
    outer loop
      vertex -154.703 -95.601 16.15
      vertex -163.45 -95.601 16.251
      vertex -154.535 -95.601 15.524
    endloop
  endfacet
  facet normal -0.966312 0 -0.257375
    outer loop
      vertex -152.197 -95.601 16.15
      vertex -152.364 -95.601 16.777
      vertex -152.364 -92.1 16.777
    endloop
  endfacet
  facet normal 0 -0 1
    outer loop
      vertex -172.193 -105.687 5
      vertex -171.454 -104.304 5
      vertex -174.509 -104.66 5
    endloop
  endfacet
  facet normal 0 -0 -1
    outer loop
      vertex -140.173 -98.449 -0.001
      vertex -138.225 -99.04 -0.001
      vertex -140.638 -100.901 -0.001
    endloop
  endfacet
  facet normal -0.0982355 0.995163 0
    outer loop
      vertex -144.226 -98.449 0
      vertex -143.449 -98.3723 0
      vertex -144.226 -98.449 -0.001
    endloop
  endfacet
  facet normal -0.0982388 0.995159 0.00284892
    outer loop
      vertex -142.2 -98.249 -0.001
      vertex -144.226 -98.449 -0.001
      vertex -143.449 -98.3723 0
    endloop
  endfacet
  facet normal -0.0982414 0.995163 0
    outer loop
      vertex -142.2 -98.249 -0.001
      vertex -143.449 -98.3723 0
      vertex -142.2 -98.249 5
    endloop
  endfacet
  facet normal -0.995163 0.0982392 0
    outer loop
      vertex -152.385 -106.609 5
      vertex -152.385 -106.609 -0.001
      vertex -152.585 -108.635 -0.001
    endloop
  endfacet
  facet normal -0.995163 0.0982392 0
    outer loop
      vertex -152.385 -106.609 5
      vertex -152.585 -108.635 -0.001
      vertex -152.585 -108.635 5
    endloop
  endfacet
  facet normal -0 0 -1
    outer loop
      vertex -142.2 -100.747 -0.001
      vertex -143.761 -100.901 -0.001
      vertex -144.226 -98.449 -0.001
    endloop
  endfacet
  facet normal 1 0 0
    outer loop
      vertex -143.449 -92.1 16.251
      vertex -143.449 -95.601 16.251
      vertex -143.449 -95.601 5
    endloop
  endfacet
  facet normal 1 0 0
    outer loop
      vertex -143.449 -92.1 16.251
      vertex -143.449 -95.601 5
      vertex -143.449 -92.1 5
    endloop
  endfacet
  facet normal -0.0982414 0.995163 0
    outer loop
      vertex -142.2 -98.249 5
      vertex -143.449 -98.3723 0
      vertex -143.449 -98.3723 5
    endloop
  endfacet
  facet normal 0 0 -1
    outer loop
      vertex -170.458 -103.091 -0.001
      vertex -170.685 -100 -0.001
      vertex -169.246 -102.096 -0.001
    endloop
  endfacet
  facet normal -0.966312 0 -0.257375
    outer loop
      vertex -152.364 -92.1 16.777
      vertex -152.197 -92.1 16.15
      vertex -152.197 -95.601 16.15
    endloop
  endfacet
  facet normal 0 0 1
    outer loop
      vertex -164.915 -98.249 5
      vertex -166.941 -98.449 5
      vertex -166.361 -100.901 5
    endloop
  endfacet
  facet normal 0 0 1
    outer loop
      vertex -163.238 -100.901 5
      vertex -163.45 -98.3936 5
      vertex -164.799 -100.747 5
    endloop
  endfacet
  facet normal 0 0 1
    outer loop
      vertex -169.246 -102.096 5
      vertex -167.862 -101.356 5
      vertex -168.889 -99.04 5
    endloop
  endfacet
  facet normal 0 0 1
    outer loop
      vertex -168.889 -99.04 5
      vertex -170.685 -100 5
      vertex -169.246 -102.096 5
    endloop
  endfacet
  facet normal -0 0 1
    outer loop
      vertex -172.258 -101.291 5
      vertex -170.458 -103.091 5
      vertex -170.685 -100 5
    endloop
  endfacet
  facet normal 0.0981912 0.995168 -0
    outer loop
      vertex -142.2 -98.249 -0.001
      vertex -142.2 -98.249 5
      vertex -140.173 -98.449 -0.001
    endloop
  endfacet
  facet normal 0 -1 0
    outer loop
      vertex -163.45 -95.601 16.251
      vertex -163.45 -95.601 5
      vertex -154.535 -95.601 15.524
    endloop
  endfacet
  facet normal 0 0 -1
    outer loop
      vertex -172.193 -105.687 -0.001
      vertex -174.509 -104.66 -0.001
      vertex -171.454 -104.304 -0.001
    endloop
  endfacet
  facet normal 0 0 -1
    outer loop
      vertex -171.454 -104.304 -0.001
      vertex -173.55 -102.865 -0.001
      vertex -170.458 -103.091 -0.001
    endloop
  endfacet
  facet normal -0.707107 0 0.707107
    outer loop
      vertex -152.364 -95.601 15.524
      vertex -152.364 -92.1 15.524
      vertex -152.823 -92.1 15.065
    endloop
  endfacet
  facet normal -0.707107 0 0.707107
    outer loop
      vertex -152.364 -95.601 15.524
      vertex -152.823 -92.1 15.065
      vertex -152.823 -95.601 15.065
    endloop
  endfacet
  facet normal -0.956971 0.290185 0
    outer loop
      vertex -151.794 -104.66 5
      vertex -151.794 -104.66 -0.001
      vertex -152.385 -106.609 -0.001
    endloop
  endfacet
  facet normal -0.956971 0.290185 0
    outer loop
      vertex -151.794 -104.66 5
      vertex -152.385 -106.609 -0.001
      vertex -152.385 -106.609 5
    endloop
  endfacet
  facet normal 0.290321 0.956929 0
    outer loop
      vertex -138.225 -99.04 5
      vertex -138.225 -99.04 -0.001
      vertex -140.173 -98.449 -0.001
    endloop
  endfacet
  facet normal 0.290321 0.956929 0
    outer loop
      vertex -138.225 -99.04 5
      vertex -140.173 -98.449 -0.001
      vertex -140.173 -98.449 5
    endloop
  endfacet
  facet normal -0.966209 0 0.257759
    outer loop
      vertex -152.197 -95.601 16.15
      vertex -152.197 -92.1 16.15
      vertex -152.364 -92.1 15.524
    endloop
  endfacet
  facet normal -0.966209 0 0.257759
    outer loop
      vertex -152.197 -95.601 16.15
      vertex -152.364 -92.1 15.524
      vertex -152.364 -95.601 15.524
    endloop
  endfacet
  facet normal 0 0 -1
    outer loop
      vertex -172.649 -107.189 -0.001
      vertex -175.1 -106.609 -0.001
      vertex -172.193 -105.687 -0.001
    endloop
  endfacet
  facet normal 0 -0 1
    outer loop
      vertex -143.449 -92.1 5
      vertex -143.449 -92.099 5
      vertex -163.45 -92.099 5
    endloop
  endfacet
  facet normal -0 0 -1
    outer loop
      vertex -143.761 -100.901 -0.001
      vertex -145.262 -101.356 -0.001
      vertex -146.174 -99.04 -0.001
    endloop
  endfacet
  facet normal 0.471608 0.881808 0
    outer loop
      vertex -136.43 -100 5
      vertex -136.43 -100 -0.001
      vertex -138.225 -99.04 -0.001
    endloop
  endfacet
  facet normal 0.471608 0.881808 0
    outer loop
      vertex -136.43 -100 5
      vertex -138.225 -99.04 -0.001
      vertex -138.225 -99.04 5
    endloop
  endfacet
  facet normal -0.956951 0 0.290248
    outer loop
      vertex -162.689 -95.601 20.077
      vertex -162.689 -92.1 20.077
      vertex -163.258 -92.1 18.201
    endloop
  endfacet
  facet normal -0.956951 0 0.290248
    outer loop
      vertex -162.689 -95.601 20.077
      vertex -163.258 -92.1 18.201
      vertex -163.258 -95.601 18.201
    endloop
  endfacet
  facet normal 0 0 -1
    outer loop
      vertex -172.802 -108.75 -0.001
      vertex -175.3 -108.635 -0.001
      vertex -172.649 -107.189 -0.001
    endloop
  endfacet
  facet normal 0 -0 -1
    outer loop
      vertex -172.258 -101.291 -0.001
      vertex -170.458 -103.091 -0.001
      vertex -173.55 -102.865 -0.001
    endloop
  endfacet
  facet normal -0.881808 0.471608 0
    outer loop
      vertex -150.834 -102.865 5
      vertex -150.834 -102.865 -0.001
      vertex -151.794 -104.66 -0.001
    endloop
  endfacet
  facet normal -0.881808 0.471608 0
    outer loop
      vertex -150.834 -102.865 5
      vertex -151.794 -104.66 -0.001
      vertex -151.794 -104.66 5
    endloop
  endfacet
  facet normal -0.881957 0 0.471329
    outer loop
      vertex -161.765 -95.601 21.806
      vertex -161.765 -92.1 21.806
      vertex -162.689 -92.1 20.077
    endloop
  endfacet
  facet normal -0.881957 0 0.471329
    outer loop
      vertex -161.765 -95.601 21.806
      vertex -162.689 -92.1 20.077
      vertex -162.689 -95.601 20.077
    endloop
  endfacet
  facet normal 1 0 0
    outer loop
      vertex -143.449 -92.1 5
      vertex -143.449 -95.601 5
      vertex -143.449 -92.099 0
    endloop
  endfacet
  facet normal 1 0 0
    outer loop
      vertex -143.449 -92.099 5
      vertex -143.449 -92.1 5
      vertex -143.449 -92.099 0
    endloop
  endfacet
  facet normal 1 0 0
    outer loop
      vertex -143.449 -98.3723 0
      vertex -143.449 -92.099 0
      vertex -143.449 -95.601 5
    endloop
  endfacet
  facet normal 0 -0 1
    outer loop
      vertex -174.461 -112.698 5
      vertex -172.193 -111.813 5
      vertex -174.509 -112.609 5
    endloop
  endfacet
  facet normal 0 -0 1
    outer loop
      vertex -174.509 -112.609 5
      vertex -172.649 -110.311 5
      vertex -175.1 -110.661 5
    endloop
  endfacet
  facet normal 0 0 1
    outer loop
      vertex -171.72 -112.698 5
      vertex -172.193 -111.813 5
      vertex -174.461 -112.698 5
    endloop
  endfacet
  facet normal 0 0 1
    outer loop
      vertex -172.649 -110.311 5
      vertex -172.802 -108.75 5
      vertex -175.1 -110.661 5
    endloop
  endfacet
  facet normal 0 -0 1
    outer loop
      vertex -172.802 -108.75 5
      vertex -172.649 -107.189 5
      vertex -175.3 -108.635 5
    endloop
  endfacet
  facet normal 0 -0 1
    outer loop
      vertex -172.649 -107.189 5
      vertex -172.193 -105.687 5
      vertex -175.1 -106.609 5
    endloop
  endfacet
  facet normal 0 0 1
    outer loop
      vertex -175.1 -106.609 5
      vertex -172.193 -105.687 5
      vertex -174.509 -104.66 5
    endloop
  endfacet
  facet normal 0 0 1
    outer loop
      vertex -175.3 -108.635 5
      vertex -172.649 -107.189 5
      vertex -175.1 -106.609 5
    endloop
  endfacet
  facet normal 0 0 -1
    outer loop
      vertex -146.646 -102.096 -0.001
      vertex -147.969 -100 -0.001
      vertex -145.262 -101.356 -0.001
    endloop
  endfacet
  facet normal -0.772842 0 0.634598
    outer loop
      vertex -160.521 -95.601 23.321
      vertex -160.521 -92.1 23.321
      vertex -161.765 -92.1 21.806
    endloop
  endfacet
  facet normal -0.772842 0 0.634598
    outer loop
      vertex -160.521 -95.601 23.321
      vertex -161.765 -92.1 21.806
      vertex -161.765 -95.601 21.806
    endloop
  endfacet
  facet normal -0.0982392 0.995163 0
    outer loop
      vertex -166.941 -98.449 -0.001
      vertex -164.915 -98.249 5
      vertex -164.915 -98.249 -0.001
    endloop
  endfacet
  facet normal 0 -0 1
    outer loop
      vertex -143.449 -98.3723 5
      vertex -143.449 -95.601 5
      vertex -163.45 -95.601 5
    endloop
  endfacet
  facet normal 0.634174 0.773191 -0
    outer loop
      vertex -136.43 -100 -0.001
      vertex -136.43 -100 5
      vertex -134.856 -101.291 -0.001
    endloop
  endfacet
  facet normal 0.634174 0.773191 0
    outer loop
      vertex -134.856 -101.291 5
      vertex -134.856 -101.291 -0.001
      vertex -136.43 -100 5
    endloop
  endfacet
  facet normal -0.634598 0 0.772842
    outer loop
      vertex -159.006 -95.601 24.565
      vertex -159.006 -92.1 24.565
      vertex -160.521 -92.1 23.321
    endloop
  endfacet
  facet normal -0.634598 0 0.772842
    outer loop
      vertex -159.006 -95.601 24.565
      vertex -160.521 -92.1 23.321
      vertex -160.521 -95.601 23.321
    endloop
  endfacet
  facet normal -0.471329 0 0.881957
    outer loop
      vertex -157.277 -95.601 25.489
      vertex -157.277 -92.1 25.489
      vertex -159.006 -92.1 24.565
    endloop
  endfacet
  facet normal -0.471329 0 0.881957
    outer loop
      vertex -157.277 -95.601 25.489
      vertex -159.006 -92.1 24.565
      vertex -159.006 -95.601 24.565
    endloop
  endfacet
  facet normal -1 0 0
    outer loop
      vertex -163.45 -92.099 0
      vertex -163.45 -98.3936 0
      vertex -163.45 -95.601 5
    endloop
  endfacet
  facet normal 0 0 -1
    outer loop
      vertex -166.941 -98.449 -0.001
      vertex -164.915 -98.249 -0.001
      vertex -166.361 -100.901 -0.001
    endloop
  endfacet
  facet normal 0 0 -1
    outer loop
      vertex -167.862 -101.356 -0.001
      vertex -166.941 -98.449 -0.001
      vertex -166.361 -100.901 -0.001
    endloop
  endfacet
  facet normal 0 0 -1
    outer loop
      vertex -170.685 -100 -0.001
      vertex -168.889 -99.04 -0.001
      vertex -169.246 -102.096 -0.001
    endloop
  endfacet
  facet normal 0 -0 -1
    outer loop
      vertex -170.685 -100 -0.001
      vertex -170.458 -103.091 -0.001
      vertex -172.258 -101.291 -0.001
    endloop
  endfacet
  facet normal -0 0 -1
    outer loop
      vertex -167.862 -101.356 -0.001
      vertex -169.246 -102.096 -0.001
      vertex -168.889 -99.04 -0.001
    endloop
  endfacet
  facet normal 0 0 -1
    outer loop
      vertex -168.889 -99.04 -0.001
      vertex -166.941 -98.449 -0.001
      vertex -167.862 -101.356 -0.001
    endloop
  endfacet
  facet normal -0 0 -1
    outer loop
      vertex -164.799 -100.747 -0.001
      vertex -166.361 -100.901 -0.001
      vertex -164.915 -98.249 -0.001
    endloop
  endfacet
  facet normal -0 0 -1
    outer loop
      vertex -162.889 -98.449 -0.001
      vertex -164.799 -100.747 -0.001
      vertex -164.915 -98.249 -0.001
    endloop
  endfacet
  facet normal 0.0982258 0.995164 0
    outer loop
      vertex -163.45 -98.3936 5
      vertex -163.45 -98.3936 0
      vertex -164.915 -98.249 5
    endloop
  endfacet
  facet normal -0.290248 0 0.956951
    outer loop
      vertex -155.401 -95.601 26.058
      vertex -155.401 -92.1 26.058
      vertex -157.277 -92.1 25.489
    endloop
  endfacet
  facet normal -0.290248 0 0.956951
    outer loop
      vertex -155.401 -95.601 26.058
      vertex -157.277 -92.1 25.489
      vertex -157.277 -95.601 25.489
    endloop
  endfacet
  facet normal -0.773542 0.633745 0
    outer loop
      vertex -150.834 -102.865 -0.001
      vertex -150.834 -102.865 5
      vertex -150.494 -102.45 0
    endloop
  endfacet
  facet normal -0.773542 0.633745 0
    outer loop
      vertex -150.494 -102.45 5
      vertex -150.494 -102.45 0
      vertex -150.834 -102.865 5
    endloop
  endfacet
  facet normal 0 0 -1
    outer loop
      vertex -146.174 -99.04 -0.001
      vertex -144.226 -98.449 -0.001
      vertex -143.761 -100.901 -0.001
    endloop
  endfacet
  facet normal 0 0 -1
    outer loop
      vertex -144.226 -98.449 -0.001
      vertex -142.2 -98.249 -0.001
      vertex -142.2 -100.747 -0.001
    endloop
  endfacet
  facet normal 0 0 -1
    outer loop
      vertex -142.2 -98.249 -0.001
      vertex -140.173 -98.449 -0.001
      vertex -142.2 -100.747 -0.001
    endloop
  endfacet
  facet normal 0 0 -1
    outer loop
      vertex -140.638 -100.901 -0.001
      vertex -142.2 -100.747 -0.001
      vertex -140.173 -98.449 -0.001
    endloop
  endfacet
  facet normal 0 0 -1
    outer loop
      vertex -139.137 -101.356 -0.001
      vertex -140.638 -100.901 -0.001
      vertex -138.225 -99.04 -0.001
    endloop
  endfacet
  facet normal -0 0 -1
    outer loop
      vertex -136.43 -100 -0.001
      vertex -139.137 -101.356 -0.001
      vertex -138.225 -99.04 -0.001
    endloop
  endfacet
  facet normal -0 0 -1
    outer loop
      vertex -134.856 -101.291 -0.001
      vertex -137.753 -102.096 -0.001
      vertex -136.43 -100 -0.001
    endloop
  endfacet
  facet normal -0.0984431 0 0.995143
    outer loop
      vertex -155.401 -95.601 26.058
      vertex -153.45 -92.1 26.251
      vertex -155.401 -92.1 26.058
    endloop
  endfacet
  facet normal -0.741153 0.607896 -0.284878
    outer loop
      vertex -150.834 -102.865 -0.001
      vertex -150.494 -102.45 0
      vertex -149.543 -101.291 -0.001
    endloop
  endfacet
  facet normal -0.773065 0.634327 0
    outer loop
      vertex -149.543 -101.291 0
      vertex -149.543 -101.291 -0.001
      vertex -150.494 -102.45 0
    endloop
  endfacet
  facet normal 0 0 -1
    outer loop
      vertex -163.45 -98.3936 0
      vertex -163.45 -92.099 0
      vertex -162.889 -98.449 0
    endloop
  endfacet
  facet normal 0.773191 0.634174 0
    outer loop
      vertex -133.565 -102.865 5
      vertex -133.565 -102.865 -0.001
      vertex -134.856 -101.291 5
    endloop
  endfacet
  facet normal 0 0 -1
    outer loop
      vertex -149.543 -101.291 0
      vertex -157.571 -101.291 0
      vertex -147.969 -100 0
    endloop
  endfacet
  facet normal 0 -0 -1
    outer loop
      vertex -175.1 -106.609 -0.001
      vertex -172.649 -107.189 -0.001
      vertex -175.3 -108.635 -0.001
    endloop
  endfacet
  facet normal 0 -0 -1
    outer loop
      vertex -174.509 -104.66 -0.001
      vertex -172.193 -105.687 -0.001
      vertex -175.1 -106.609 -0.001
    endloop
  endfacet
  facet normal 0 -0 -1
    outer loop
      vertex -173.55 -102.865 -0.001
      vertex -171.454 -104.304 -0.001
      vertex -174.509 -104.66 -0.001
    endloop
  endfacet
  facet normal 0 0 -1
    outer loop
      vertex -175.1 -110.661 -0.001
      vertex -175.3 -108.635 -0.001
      vertex -172.802 -108.75 -0.001
    endloop
  endfacet
  facet normal 0 0 -1
    outer loop
      vertex -175.1 -110.661 -0.001
      vertex -172.802 -108.75 -0.001
      vertex -172.649 -110.311 -0.001
    endloop
  endfacet
  facet normal -0 0 -1
    outer loop
      vertex -172.193 -111.813 -0.001
      vertex -174.509 -112.609 -0.001
      vertex -172.649 -110.311 -0.001
    endloop
  endfacet
  facet normal 0 0 -1
    outer loop
      vertex -174.509 -112.609 -0.001
      vertex -172.193 -111.813 -0.001
      vertex -174.461 -112.698 -0.001
    endloop
  endfacet
  facet normal 0 0 -1
    outer loop
      vertex -171.72 -112.698 -0.001
      vertex -174.461 -112.698 -0.001
      vertex -172.193 -111.813 -0.001
    endloop
  endfacet
  facet normal 0 0 -1
    outer loop
      vertex -175.1 -110.661 -0.001
      vertex -172.649 -110.311 -0.001
      vertex -174.509 -112.609 -0.001
    endloop
  endfacet
  facet normal -1 0 0
    outer loop
      vertex -163.45 -98.3936 5
      vertex -163.45 -95.601 5
      vertex -163.45 -98.3936 0
    endloop
  endfacet
  facet normal 0 0 1
    outer loop
      vertex -135.279 -112.698 5
      vertex -132.653 -112.698 5
      vertex -134.806 -111.813 5
    endloop
  endfacet
  facet normal 0.706335 0 -0.707877
    outer loop
      vertex -154.535 -95.601 16.777
      vertex -154.535 -92.1 16.777
      vertex -154.076 -95.601 17.235
    endloop
  endfacet
  facet normal -0.634174 0.773191 0
    outer loop
      vertex -149.543 -101.291 -0.001
      vertex -149.543 -101.291 0
      vertex -147.969 -100 0
    endloop
  endfacet
  facet normal 0 0 1
    outer loop
      vertex -134.35 -110.311 5
      vertex -134.806 -111.813 5
      vertex -132.605 -112.609 5
    endloop
  endfacet
  facet normal 0 -0 1
    outer loop
      vertex -132.653 -112.698 5
      vertex -132.605 -112.609 5
      vertex -134.806 -111.813 5
    endloop
  endfacet
  facet normal 0.0982742 0.995159 0
    outer loop
      vertex -162.889 -98.449 0
      vertex -162.889 -98.449 -0.001
      vertex -163.45 -98.3936 0
    endloop
  endfacet
  facet normal 0 0 -1
    outer loop
      vertex -132.653 -112.698 -0.001
      vertex -134.806 -111.813 -0.001
      vertex -132.605 -112.609 -0.001
    endloop
  endfacet
  facet normal -0 0 -1
    outer loop
      vertex -132.014 -110.661 -0.001
      vertex -132.605 -112.609 -0.001
      vertex -134.35 -110.311 -0.001
    endloop
  endfacet
  facet normal 0 0 -1
    outer loop
      vertex -134.35 -110.311 -0.001
      vertex -134.197 -108.75 -0.001
      vertex -132.014 -110.661 -0.001
    endloop
  endfacet
  facet normal -0 0 -1
    outer loop
      vertex -131.814 -108.635 -0.001
      vertex -134.197 -108.75 -0.001
      vertex -134.35 -107.189 -0.001
    endloop
  endfacet
  facet normal 0 0 -1
    outer loop
      vertex -134.806 -105.687 -0.001
      vertex -132.014 -106.609 -0.001
      vertex -134.35 -107.189 -0.001
    endloop
  endfacet
  facet normal 0 -0 -1
    outer loop
      vertex -133.565 -102.865 -0.001
      vertex -132.605 -104.66 -0.001
      vertex -135.545 -104.304 -0.001
    endloop
  endfacet
  facet normal 0 0 -1
    outer loop
      vertex -134.806 -105.687 -0.001
      vertex -135.545 -104.304 -0.001
      vertex -132.605 -104.66 -0.001
    endloop
  endfacet
  facet normal 0 0 -1
    outer loop
      vertex -132.014 -106.609 -0.001
      vertex -134.806 -105.687 -0.001
      vertex -132.605 -104.66 -0.001
    endloop
  endfacet
  facet normal 0 0 -1
    outer loop
      vertex -131.814 -108.635 -0.001
      vertex -134.35 -107.189 -0.001
      vertex -132.014 -106.609 -0.001
    endloop
  endfacet
  facet normal 0 0 -1
    outer loop
      vertex -150.494 -102.45 0
      vertex -157.571 -101.291 0
      vertex -149.543 -101.291 0
    endloop
  endfacet
  facet normal 0 0 -1
    outer loop
      vertex -156.62 -102.45 0
      vertex -157.571 -101.291 0
      vertex -150.494 -102.45 0
    endloop
  endfacet
  facet normal 0 0 -1
    outer loop
      vertex -159.145 -100 0
      vertex -160.941 -99.04 0
      vertex -143.449 -92.099 0
    endloop
  endfacet
  facet normal 0.773191 0.634174 -0
    outer loop
      vertex -134.856 -101.291 -0.001
      vertex -134.856 -101.291 5
      vertex -133.565 -102.865 -0.001
    endloop
  endfacet
  facet normal -0.634174 0.773191 0
    outer loop
      vertex -149.543 -101.291 -0.001
      vertex -147.969 -100 0
      vertex -147.969 -100 -0.001
    endloop
  endfacet
  facet normal -0.995188 0 0.0979877
    outer loop
      vertex -163.45 -95.601 16.251
      vertex -163.258 -95.601 18.201
      vertex -163.45 -92.1 16.251
    endloop
  endfacet
  facet normal -0.995188 0 0.0979877
    outer loop
      vertex -163.258 -92.1 18.201
      vertex -163.45 -92.1 16.251
      vertex -163.258 -95.601 18.201
    endloop
  endfacet
  facet normal 0 0 -1
    outer loop
      vertex -147.969 -100 0
      vertex -143.449 -92.099 0
      vertex -146.174 -99.04 0
    endloop
  endfacet
  facet normal 0.881808 0.471608 0
    outer loop
      vertex -133.565 -102.865 5
      vertex -132.605 -104.66 5
      vertex -132.605 -104.66 -0.001
    endloop
  endfacet
  facet normal 0.881808 0.471608 0
    outer loop
      vertex -133.565 -102.865 5
      vertex -132.605 -104.66 -0.001
      vertex -133.565 -102.865 -0.001
    endloop
  endfacet
  facet normal 0.965927 0 -0.258813
    outer loop
      vertex -154.703 -92.1 16.15
      vertex -154.535 -92.1 16.777
      vertex -154.535 -95.601 16.777
    endloop
  endfacet
  facet normal -0.471608 0.881808 0
    outer loop
      vertex -146.174 -99.04 -0.001
      vertex -147.969 -100 -0.001
      vertex -147.969 -100 0
    endloop
  endfacet
  facet normal -0.471608 0.881808 0
    outer loop
      vertex -146.174 -99.04 -0.001
      vertex -147.969 -100 0
      vertex -146.174 -99.04 0
    endloop
  endfacet
  facet normal 0.965927 0 -0.258813
    outer loop
      vertex -154.535 -95.601 16.777
      vertex -154.703 -95.601 16.15
      vertex -154.703 -92.1 16.15
    endloop
  endfacet
  facet normal 0 0 -1
    outer loop
      vertex -149.12 -112.698 -0.001
      vertex -151.746 -112.698 -0.001
      vertex -149.593 -111.813 -0.001
    endloop
  endfacet
  facet normal 0 0 -1
    outer loop
      vertex -151.746 -112.698 -0.001
      vertex -151.794 -112.609 -0.001
      vertex -149.593 -111.813 -0.001
    endloop
  endfacet
  facet normal 0.956971 0.290185 0
    outer loop
      vertex -132.605 -104.66 5
      vertex -132.014 -106.609 5
      vertex -132.014 -106.609 -0.001
    endloop
  endfacet
  facet normal 0.956971 0.290185 0
    outer loop
      vertex -132.605 -104.66 5
      vertex -132.014 -106.609 -0.001
      vertex -132.605 -104.66 -0.001
    endloop
  endfacet
  facet normal 0 1 -0
    outer loop
      vertex -154.076 -92.1 17.235
      vertex -155.401 -92.1 26.058
      vertex -153.45 -92.1 17.403
    endloop
  endfacet
  facet normal 0.290321 0.956929 0
    outer loop
      vertex -160.941 -99.04 0
      vertex -160.941 -99.04 -0.001
      vertex -162.889 -98.449 -0.001
    endloop
  endfacet
  facet normal 0.290321 0.956929 0
    outer loop
      vertex -160.941 -99.04 0
      vertex -162.889 -98.449 -0.001
      vertex -162.889 -98.449 0
    endloop
  endfacet
  facet normal -0.880153 -0.474689 -0
    outer loop
      vertex -151.794 -112.609 5
      vertex -151.794 -112.609 -0.001
      vertex -151.746 -112.698 -0.001
    endloop
  endfacet
  facet normal -0.880153 -0.474689 0
    outer loop
      vertex -151.794 -112.609 5
      vertex -151.746 -112.698 -0.001
      vertex -151.746 -112.698 5
    endloop
  endfacet
  facet normal 0.965824 -0 0.259199
    outer loop
      vertex -154.535 -95.601 15.524
      vertex -154.535 -92.1 15.524
      vertex -154.703 -92.1 16.15
    endloop
  endfacet
  facet normal 0.965824 0 0.259199
    outer loop
      vertex -154.535 -95.601 15.524
      vertex -154.703 -92.1 16.15
      vertex -154.703 -95.601 16.15
    endloop
  endfacet
  facet normal 0.995163 0.0982392 0
    outer loop
      vertex -132.014 -106.609 5
      vertex -131.814 -108.635 5
      vertex -131.814 -108.635 -0.001
    endloop
  endfacet
  facet normal 0.995163 0.0982392 0
    outer loop
      vertex -132.014 -106.609 5
      vertex -131.814 -108.635 -0.001
      vertex -132.014 -106.609 -0.001
    endloop
  endfacet
  facet normal -0.956929 -0.290321 -0
    outer loop
      vertex -152.385 -110.661 5
      vertex -152.385 -110.661 -0.001
      vertex -151.794 -112.609 -0.001
    endloop
  endfacet
  facet normal -0.956929 -0.290321 0
    outer loop
      vertex -152.385 -110.661 5
      vertex -151.794 -112.609 -0.001
      vertex -151.794 -112.609 5
    endloop
  endfacet
  facet normal 0.707107 0 0.707107
    outer loop
      vertex -154.076 -95.601 15.065
      vertex -154.535 -92.1 15.524
      vertex -154.535 -95.601 15.524
    endloop
  endfacet
  facet normal -0 1 0
    outer loop
      vertex -163.258 -92.1 18.201
      vertex -162.689 -92.1 20.077
      vertex -154.535 -92.1 16.777
    endloop
  endfacet
  facet normal -0 1 0
    outer loop
      vertex -162.689 -92.1 20.077
      vertex -161.765 -92.1 21.806
      vertex -154.535 -92.1 16.777
    endloop
  endfacet
  facet normal 0 0 -1
    outer loop
      vertex -163.45 -92.099 0
      vertex -143.449 -92.099 0
      vertex -160.941 -99.04 0
    endloop
  endfacet
  facet normal 0 0 -1
    outer loop
      vertex -143.449 -92.099 0
      vertex -147.969 -100 0
      vertex -157.571 -101.291 0
    endloop
  endfacet
  facet normal 0 0 1
    outer loop
      vertex -163.45 -92.1 5
      vertex -143.449 -92.1 5
      vertex -163.45 -92.099 5
    endloop
  endfacet
  facet normal 0 -0 1
    outer loop
      vertex -134.806 -105.687 5
      vertex -132.605 -104.66 5
      vertex -135.545 -104.304 5
    endloop
  endfacet
  facet normal 0.995163 -0.0982392 0
    outer loop
      vertex -132.014 -110.661 5
      vertex -132.014 -110.661 -0.001
      vertex -131.814 -108.635 -0.001
    endloop
  endfacet
  facet normal 0.995163 -0.0982392 0
    outer loop
      vertex -132.014 -110.661 5
      vertex -131.814 -108.635 -0.001
      vertex -131.814 -108.635 5
    endloop
  endfacet
  facet normal -0.995163 -0.0982392 -0
    outer loop
      vertex -152.585 -108.635 5
      vertex -152.585 -108.635 -0.001
      vertex -152.385 -110.661 -0.001
    endloop
  endfacet
  facet normal -0.995163 -0.0982392 0
    outer loop
      vertex -152.585 -108.635 5
      vertex -152.385 -110.661 -0.001
      vertex -152.385 -110.661 5
    endloop
  endfacet
  facet normal 0 1 0
    outer loop
      vertex -153.45 -92.1 26.251
      vertex -153.45 -92.1 17.403
      vertex -155.401 -92.1 26.058
    endloop
  endfacet
  facet normal 0.471404 0.881918 0
    outer loop
      vertex -160.941 -99.04 0
      vertex -159.145 -100 0
      vertex -159.145 -100 -0.001
    endloop
  endfacet
  facet normal 0.471404 0.881918 0
    outer loop
      vertex -160.941 -99.04 0
      vertex -159.145 -100 -0.001
      vertex -160.941 -99.04 -0.001
    endloop
  endfacet
  facet normal 0 0 1
    outer loop
      vertex -134.856 -101.291 5
      vertex -136.541 -103.091 5
      vertex -133.565 -102.865 5
    endloop
  endfacet
  facet normal 0.956929 -0.290321 0
    outer loop
      vertex -132.014 -110.661 5
      vertex -132.605 -112.609 5
      vertex -132.605 -112.609 -0.001
    endloop
  endfacet
  facet normal 0.956929 -0.290321 0
    outer loop
      vertex -132.014 -110.661 5
      vertex -132.605 -112.609 -0.001
      vertex -132.014 -110.661 -0.001
    endloop
  endfacet
  facet normal -0 -0 1
    outer loop
      vertex -163.238 -100.901 5
      vertex -161.737 -101.356 5
      vertex -163.45 -98.3936 5
    endloop
  endfacet
  facet normal 0 -1 0
    outer loop
      vertex -156.62 -102.45 0
      vertex -150.494 -102.45 0
      vertex -150.494 -102.45 5
    endloop
  endfacet
  facet normal 0.995169 0.0981781 0
    outer loop
      vertex -150.203 -108.75 5
      vertex -150.049 -110.311 5
      vertex -150.049 -110.311 -0.001
    endloop
  endfacet
  facet normal 0.995169 0.0981781 0
    outer loop
      vertex -150.203 -108.75 5
      vertex -150.049 -110.311 -0.001
      vertex -150.203 -108.75 -0.001
    endloop
  endfacet
  facet normal 0 1 0
    outer loop
      vertex -154.076 -92.1 15.065
      vertex -163.45 -92.1 5
      vertex -154.535 -92.1 15.524
    endloop
  endfacet
  facet normal 0.880153 -0.474689 0
    outer loop
      vertex -132.605 -112.609 5
      vertex -132.653 -112.698 5
      vertex -132.653 -112.698 -0.001
    endloop
  endfacet
  facet normal 0.880153 -0.474689 0
    outer loop
      vertex -132.605 -112.609 5
      vertex -132.653 -112.698 -0.001
      vertex -132.605 -112.609 -0.001
    endloop
  endfacet
  facet normal 0 0 1
    outer loop
      vertex -167.862 -101.356 5
      vertex -166.361 -100.901 5
      vertex -166.941 -98.449 5
    endloop
  endfacet
  facet normal 0 -0 1
    outer loop
      vertex -135.545 -104.304 5
      vertex -133.565 -102.865 5
      vertex -136.541 -103.091 5
    endloop
  endfacet
  facet normal 0 1 0
    outer loop
      vertex -143.449 -92.1 5
      vertex -163.45 -92.1 5
      vertex -153.45 -92.1 14.897
    endloop
  endfacet
  facet normal 0 0 -1
    outer loop
      vertex -148.854 -104.304 -0.001
      vertex -150.834 -102.865 -0.001
      vertex -147.858 -103.091 -0.001
    endloop
  endfacet
  facet normal 0 0 -1
    outer loop
      vertex -159.145 -100 0
      vertex -143.449 -92.099 0
      vertex -157.571 -101.291 0
    endloop
  endfacet
  facet normal 0.956874 0.290502 0
    outer loop
      vertex -149.593 -111.813 5
      vertex -149.593 -111.813 -0.001
      vertex -150.049 -110.311 5
    endloop
  endfacet
  facet normal 0.956874 0.290502 -0
    outer loop
      vertex -150.049 -110.311 -0.001
      vertex -150.049 -110.311 5
      vertex -149.593 -111.813 -0.001
    endloop
  endfacet
  facet normal -0.881939 0.471364 0
    outer loop
      vertex -134.806 -111.813 -0.001
      vertex -135.279 -112.698 -0.001
      vertex -135.279 -112.698 5
    endloop
  endfacet
  facet normal -0 0 1
    outer loop
      vertex -137.753 -102.096 5
      vertex -136.541 -103.091 5
      vertex -134.856 -101.291 5
    endloop
  endfacet
  facet normal 0 0 1
    outer loop
      vertex -134.856 -101.291 5
      vertex -136.43 -100 5
      vertex -137.753 -102.096 5
    endloop
  endfacet
  facet normal -0 -0 1
    outer loop
      vertex -161.737 -101.356 5
      vertex -160.353 -102.096 5
      vertex -163.45 -98.3936 5
    endloop
  endfacet
  facet normal -0 -0 1
    outer loop
      vertex -160.353 -102.096 5
      vertex -156.62 -102.45 5
      vertex -163.45 -98.3936 5
    endloop
  endfacet
  facet normal 0.634174 0.773191 0
    outer loop
      vertex -159.145 -100 -0.001
      vertex -157.571 -101.291 0
      vertex -157.571 -101.291 -0.001
    endloop
  endfacet
  facet normal 0 0 -1
    outer loop
      vertex -149.593 -105.687 -0.001
      vertex -151.794 -104.66 -0.001
      vertex -148.854 -104.304 -0.001
    endloop
  endfacet
  facet normal 0 1 0
    outer loop
      vertex -143.449 -92.1 5
      vertex -153.45 -92.1 14.897
      vertex -152.823 -92.1 15.065
    endloop
  endfacet
  facet normal -0 0 1
    outer loop
      vertex -139.137 -101.356 5
      vertex -137.753 -102.096 5
      vertex -136.43 -100 5
    endloop
  endfacet
  facet normal 0 0 1
    outer loop
      vertex -136.43 -100 5
      vertex -138.225 -99.04 5
      vertex -139.137 -101.356 5
    endloop
  endfacet
  facet normal 0.881939 0.471364 -0
    outer loop
      vertex -149.593 -111.813 -0.001
      vertex -149.593 -111.813 5
      vertex -149.12 -112.698 -0.001
    endloop
  endfacet
  facet normal 0 0 -1
    outer loop
      vertex -150.049 -107.189 -0.001
      vertex -152.385 -106.609 -0.001
      vertex -149.593 -105.687 -0.001
    endloop
  endfacet
  facet normal 0 -0 1
    outer loop
      vertex -159.141 -103.091 5
      vertex -156.62 -102.45 5
      vertex -160.353 -102.096 5
    endloop
  endfacet
  facet normal 0 0 -1
    outer loop
      vertex -150.203 -108.75 -0.001
      vertex -152.585 -108.635 -0.001
      vertex -150.049 -107.189 -0.001
    endloop
  endfacet
  facet normal 0 0 1
    outer loop
      vertex -150.494 -102.45 5
      vertex -163.45 -95.601 5
      vertex -156.62 -102.45 5
    endloop
  endfacet
  facet normal 0 0 -1
    outer loop
      vertex -147.858 -103.091 -0.001
      vertex -149.543 -101.291 -0.001
      vertex -146.646 -102.096 -0.001
    endloop
  endfacet
  facet normal 0 -0 -1
    outer loop
      vertex -147.969 -100 -0.001
      vertex -146.646 -102.096 -0.001
      vertex -149.543 -101.291 -0.001
    endloop
  endfacet
  facet normal 0 -0 -1
    outer loop
      vertex -146.174 -99.04 -0.001
      vertex -145.262 -101.356 -0.001
      vertex -147.969 -100 -0.001
    endloop
  endfacet
  facet normal 0.634174 0.773191 0
    outer loop
      vertex -159.145 -100 0
      vertex -157.571 -101.291 0
      vertex -159.145 -100 -0.001
    endloop
  endfacet
  facet normal 0 -1 0
    outer loop
      vertex -156.62 -102.45 0
      vertex -150.494 -102.45 5
      vertex -156.62 -102.45 5
    endloop
  endfacet
  facet normal 0 0 1
    outer loop
      vertex -143.761 -100.901 5
      vertex -142.2 -100.747 5
      vertex -143.449 -98.3723 5
    endloop
  endfacet
  facet normal -0.956874 0.290502 0
    outer loop
      vertex -134.35 -110.311 5
      vertex -134.35 -110.311 -0.001
      vertex -134.806 -111.813 -0.001
    endloop
  endfacet
  facet normal 0 0 1
    outer loop
      vertex -143.449 -98.3723 5
      vertex -163.45 -95.601 5
      vertex -145.262 -101.356 5
    endloop
  endfacet
  facet normal 0 0 1
    outer loop
      vertex -146.646 -102.096 5
      vertex -150.494 -102.45 5
      vertex -147.858 -103.091 5
    endloop
  endfacet
  facet normal 0 -0 -1
    outer loop
      vertex -152.385 -106.609 -0.001
      vertex -150.049 -107.189 -0.001
      vertex -152.585 -108.635 -0.001
    endloop
  endfacet
  facet normal 0 -0 -1
    outer loop
      vertex -151.794 -104.66 -0.001
      vertex -149.593 -105.687 -0.001
      vertex -152.385 -106.609 -0.001
    endloop
  endfacet
  facet normal 0 -0 -1
    outer loop
      vertex -150.834 -102.865 -0.001
      vertex -148.854 -104.304 -0.001
      vertex -151.794 -104.66 -0.001
    endloop
  endfacet
  facet normal 0 -0 -1
    outer loop
      vertex -149.543 -101.291 -0.001
      vertex -147.858 -103.091 -0.001
      vertex -150.834 -102.865 -0.001
    endloop
  endfacet
  facet normal 0 0 -1
    outer loop
      vertex -152.385 -110.661 -0.001
      vertex -152.585 -108.635 -0.001
      vertex -150.203 -108.75 -0.001
    endloop
  endfacet
  facet normal 0 0 -1
    outer loop
      vertex -152.385 -110.661 -0.001
      vertex -150.203 -108.75 -0.001
      vertex -150.049 -110.311 -0.001
    endloop
  endfacet
  facet normal 0 -0 -1
    outer loop
      vertex -150.049 -110.311 -0.001
      vertex -149.593 -111.813 -0.001
      vertex -151.794 -112.609 -0.001
    endloop
  endfacet
  facet normal 0 0 -1
    outer loop
      vertex -152.385 -110.661 -0.001
      vertex -150.049 -110.311 -0.001
      vertex -151.794 -112.609 -0.001
    endloop
  endfacet
  facet normal 0 1 -0
    outer loop
      vertex -143.449 -92.099 0
      vertex -163.45 -92.099 0
      vertex -143.449 -92.099 5
    endloop
  endfacet
  facet normal -0 1 0
    outer loop
      vertex -163.45 -92.099 5
      vertex -143.449 -92.099 5
      vertex -163.45 -92.099 0
    endloop
  endfacet
  facet normal 0.773065 0.634327 -0
    outer loop
      vertex -157.571 -101.291 -0.001
      vertex -157.571 -101.291 0
      vertex -156.62 -102.45 0
    endloop
  endfacet
  facet normal 0 -1 -0
    outer loop
      vertex -153.45 -95.601 26.251
      vertex -155.401 -95.601 26.058
      vertex -153.45 -95.601 17.403
    endloop
  endfacet
  facet normal -0.995231 0.0975467 0
    outer loop
      vertex -134.35 -110.311 -0.001
      vertex -134.35 -110.311 5
      vertex -134.197 -108.75 5
    endloop
  endfacet
  facet normal -0.995231 0.0975467 0
    outer loop
      vertex -134.35 -110.311 -0.001
      vertex -134.197 -108.75 5
      vertex -134.197 -108.75 -0.001
    endloop
  endfacet
  facet normal -0 0 1
    outer loop
      vertex -142.2 -100.747 5
      vertex -140.638 -100.901 5
      vertex -140.173 -98.449 5
    endloop
  endfacet
  facet normal -0 0 1
    outer loop
      vertex -140.638 -100.901 5
      vertex -139.137 -101.356 5
      vertex -138.225 -99.04 5
    endloop
  endfacet
  facet normal 0 0 1
    outer loop
      vertex -138.225 -99.04 5
      vertex -140.173 -98.449 5
      vertex -140.638 -100.901 5
    endloop
  endfacet
  facet normal 0 0 1
    outer loop
      vertex -140.173 -98.449 5
      vertex -142.2 -98.249 5
      vertex -142.2 -100.747 5
    endloop
  endfacet
  facet normal 0 0 1
    outer loop
      vertex -142.2 -98.249 5
      vertex -143.449 -98.3723 5
      vertex -142.2 -100.747 5
    endloop
  endfacet
  facet normal 0 0 1
    outer loop
      vertex -145.262 -101.356 5
      vertex -143.761 -100.901 5
      vertex -143.449 -98.3723 5
    endloop
  endfacet
  facet normal 0 -1 -0
    outer loop
      vertex -155.401 -95.601 26.058
      vertex -157.277 -95.601 25.489
      vertex -154.076 -95.601 17.235
    endloop
  endfacet
  facet normal 0 -1 0
    outer loop
      vertex -154.076 -95.601 17.235
      vertex -153.45 -95.601 17.403
      vertex -155.401 -95.601 26.058
    endloop
  endfacet
  facet normal 0.773542 0.633745 0
    outer loop
      vertex -156.28 -102.865 5
      vertex -156.28 -102.865 -0.001
      vertex -156.62 -102.45 0
    endloop
  endfacet
  facet normal 0.773542 0.633745 0
    outer loop
      vertex -156.28 -102.865 5
      vertex -156.62 -102.45 0
      vertex -156.62 -102.45 5
    endloop
  endfacet
  facet normal 0 -1 0
    outer loop
      vertex -135.279 -112.698 -0.001
      vertex -132.653 -112.698 -0.001
      vertex -132.653 -112.698 5
    endloop
  endfacet
  facet normal 0 1 0
    outer loop
      vertex -153.45 -92.1 26.251
      vertex -151.499 -92.1 26.058
      vertex -153.45 -92.1 17.403
    endloop
  endfacet
  facet normal 0 -1 -0
    outer loop
      vertex -154.535 -95.601 15.524
      vertex -163.45 -95.601 5
      vertex -154.076 -95.601 15.065
    endloop
  endfacet
  facet normal 0.741153 0.607896 -0.284878
    outer loop
      vertex -157.571 -101.291 -0.001
      vertex -156.62 -102.45 0
      vertex -156.28 -102.865 -0.001
    endloop
  endfacet
  facet normal -0.995231 -0.0975467 -0
    outer loop
      vertex -134.35 -107.189 5
      vertex -134.35 -107.189 -0.001
      vertex -134.197 -108.75 -0.001
    endloop
  endfacet
  facet normal -0.995231 -0.0975467 0
    outer loop
      vertex -134.35 -107.189 5
      vertex -134.197 -108.75 -0.001
      vertex -134.197 -108.75 5
    endloop
  endfacet
  facet normal 0 0 1
    outer loop
      vertex -134.35 -107.189 5
      vertex -134.197 -108.75 5
      vertex -131.814 -108.635 5
    endloop
  endfacet
  facet normal 0 0 1
    outer loop
      vertex -134.806 -105.687 5
      vertex -134.35 -107.189 5
      vertex -132.014 -106.609 5
    endloop
  endfacet
  facet normal 0 0 1
    outer loop
      vertex -132.014 -106.609 5
      vertex -132.605 -104.66 5
      vertex -134.806 -105.687 5
    endloop
  endfacet
  facet normal 0 0 1
    outer loop
      vertex -133.565 -102.865 5
      vertex -135.545 -104.304 5
      vertex -132.605 -104.66 5
    endloop
  endfacet
  facet normal 0 0 1
    outer loop
      vertex -134.197 -108.75 5
      vertex -134.35 -110.311 5
      vertex -132.014 -110.661 5
    endloop
  endfacet
  facet normal 0 0 1
    outer loop
      vertex -131.814 -108.635 5
      vertex -132.014 -106.609 5
      vertex -134.35 -107.189 5
    endloop
  endfacet
  facet normal 0 -0 1
    outer loop
      vertex -132.014 -110.661 5
      vertex -131.814 -108.635 5
      vertex -134.197 -108.75 5
    endloop
  endfacet
  facet normal 0 -0 1
    outer loop
      vertex -132.605 -112.609 5
      vertex -132.014 -110.661 5
      vertex -134.35 -110.311 5
    endloop
  endfacet
  facet normal 0.881808 0.471608 0
    outer loop
      vertex -155.32 -104.66 5
      vertex -155.32 -104.66 -0.001
      vertex -156.28 -102.865 -0.001
    endloop
  endfacet
  facet normal 0.881808 0.471608 0
    outer loop
      vertex -155.32 -104.66 5
      vertex -156.28 -102.865 -0.001
      vertex -156.28 -102.865 5
    endloop
  endfacet
  facet normal -0 1 0
    outer loop
      vertex -153.45 -92.1 17.403
      vertex -151.499 -92.1 26.058
      vertex -152.823 -92.1 17.235
    endloop
  endfacet
  facet normal -0.956874 -0.290502 -0
    outer loop
      vertex -134.35 -107.189 5
      vertex -134.806 -105.687 5
      vertex -134.35 -107.189 -0.001
    endloop
  endfacet
  facet normal -0.956874 -0.290502 0
    outer loop
      vertex -134.806 -105.687 -0.001
      vertex -134.35 -107.189 -0.001
      vertex -134.806 -105.687 5
    endloop
  endfacet
  facet normal 0 -1 0
    outer loop
      vertex -163.45 -95.601 5
      vertex -143.449 -95.601 5
      vertex -153.45 -95.601 14.897
    endloop
  endfacet
  facet normal 0 -1 -0
    outer loop
      vertex -154.076 -95.601 15.065
      vertex -163.45 -95.601 5
      vertex -153.45 -95.601 14.897
    endloop
  endfacet
  facet normal 0 -1 -0
    outer loop
      vertex -152.823 -95.601 15.065
      vertex -153.45 -95.601 14.897
      vertex -143.449 -95.601 5
    endloop
  endfacet
  facet normal 0.956971 0.290185 0
    outer loop
      vertex -154.729 -106.609 5
      vertex -154.729 -106.609 -0.001
      vertex -155.32 -104.66 -0.001
    endloop
  endfacet
  facet normal 0.956971 0.290185 0
    outer loop
      vertex -154.729 -106.609 5
      vertex -155.32 -104.66 -0.001
      vertex -155.32 -104.66 5
    endloop
  endfacet
  facet normal 0.995169 -0.0981781 0
    outer loop
      vertex -150.049 -107.189 -0.001
      vertex -150.203 -108.75 5
      vertex -150.203 -108.75 -0.001
    endloop
  endfacet
  facet normal -0.0984431 0 0.995143
    outer loop
      vertex -153.45 -95.601 26.251
      vertex -153.45 -92.1 26.251
      vertex -155.401 -95.601 26.058
    endloop
  endfacet
  facet normal 0.995211 0.0977527 0
    outer loop
      vertex -154.53 -108.635 5
      vertex -154.53 -108.635 -0.001
      vertex -154.729 -106.609 -0.001
    endloop
  endfacet
  facet normal 0.995211 0.0977527 0
    outer loop
      vertex -154.53 -108.635 5
      vertex -154.729 -106.609 -0.001
      vertex -154.729 -106.609 5
    endloop
  endfacet
  facet normal 0 -0 1
    outer loop
      vertex -150.494 -102.45 5
      vertex -146.646 -102.096 5
      vertex -163.45 -95.601 5
    endloop
  endfacet
  facet normal 0.0984431 -0 0.995143
    outer loop
      vertex -153.45 -95.601 26.251
      vertex -151.499 -92.1 26.058
      vertex -153.45 -92.1 26.251
    endloop
  endfacet
  facet normal 0 -0 1
    outer loop
      vertex -146.646 -102.096 5
      vertex -145.262 -101.356 5
      vertex -163.45 -95.601 5
    endloop
  endfacet
  facet normal 0.995211 -0.0977527 0
    outer loop
      vertex -154.729 -110.661 5
      vertex -154.729 -110.661 -0.001
      vertex -154.53 -108.635 -0.001
    endloop
  endfacet
  facet normal 0.995211 -0.0977527 0
    outer loop
      vertex -154.729 -110.661 5
      vertex -154.53 -108.635 -0.001
      vertex -154.53 -108.635 5
    endloop
  endfacet
  facet normal -0.706335 0 -0.707877
    outer loop
      vertex -152.823 -95.601 17.235
      vertex -152.823 -92.1 17.235
      vertex -152.364 -95.601 16.777
    endloop
  endfacet
  facet normal -0.881982 -0.471283 0
    outer loop
      vertex -134.806 -105.687 -0.001
      vertex -134.806 -105.687 5
      vertex -135.545 -104.304 -0.001
    endloop
  endfacet
  facet normal -0.881982 -0.471283 -0
    outer loop
      vertex -135.545 -104.304 5
      vertex -135.545 -104.304 -0.001
      vertex -134.806 -105.687 5
    endloop
  endfacet
  facet normal 0.956929 -0.290321 0
    outer loop
      vertex -154.729 -110.661 5
      vertex -155.32 -112.609 5
      vertex -155.32 -112.609 -0.001
    endloop
  endfacet
  facet normal 0.956929 -0.290321 0
    outer loop
      vertex -154.729 -110.661 5
      vertex -155.32 -112.609 -0.001
      vertex -154.729 -110.661 -0.001
    endloop
  endfacet
  facet normal -0.258813 0 -0.965927
    outer loop
      vertex -153.45 -95.601 17.403
      vertex -153.45 -92.1 17.403
      vertex -152.823 -92.1 17.235
    endloop
  endfacet
  facet normal -0.258813 0 -0.965927
    outer loop
      vertex -153.45 -95.601 17.403
      vertex -152.823 -92.1 17.235
      vertex -152.823 -95.601 17.235
    endloop
  endfacet
  facet normal 0.880153 -0.474689 0
    outer loop
      vertex -155.32 -112.609 5
      vertex -155.368 -112.698 5
      vertex -155.368 -112.698 -0.001
    endloop
  endfacet
  facet normal 0.880153 -0.474689 0
    outer loop
      vertex -155.32 -112.609 5
      vertex -155.368 -112.698 -0.001
      vertex -155.32 -112.609 -0.001
    endloop
  endfacet
  facet normal 0.259199 0 -0.965824
    outer loop
      vertex -154.076 -95.601 17.235
      vertex -154.076 -92.1 17.235
      vertex -153.45 -92.1 17.403
    endloop
  endfacet
  facet normal 0.259199 0 -0.965824
    outer loop
      vertex -154.076 -95.601 17.235
      vertex -153.45 -92.1 17.403
      vertex -153.45 -95.601 17.403
    endloop
  endfacet
  facet normal -0.772849 -0.63459 -0
    outer loop
      vertex -136.541 -103.091 5
      vertex -136.541 -103.091 -0.001
      vertex -135.545 -104.304 -0.001
    endloop
  endfacet
  facet normal -0.772849 -0.63459 0
    outer loop
      vertex -136.541 -103.091 5
      vertex -135.545 -104.304 -0.001
      vertex -135.545 -104.304 5
    endloop
  endfacet
  facet normal 0 0 1
    outer loop
      vertex -150.049 -110.311 5
      vertex -150.203 -108.75 5
      vertex -152.385 -110.661 5
    endloop
  endfacet
  facet normal 0 1 0
    outer loop
      vertex -146.378 -92.1 23.321
      vertex -145.134 -92.1 21.806
      vertex -152.364 -92.1 16.777
    endloop
  endfacet
  facet normal 0 1 0
    outer loop
      vertex -149.622 -92.1 25.489
      vertex -152.823 -92.1 17.235
      vertex -151.499 -92.1 26.058
    endloop
  endfacet
  facet normal 0 1 0
    outer loop
      vertex -149.622 -92.1 25.489
      vertex -147.894 -92.1 24.565
      vertex -152.823 -92.1 17.235
    endloop
  endfacet
  facet normal 0 1 0
    outer loop
      vertex -147.894 -92.1 24.565
      vertex -146.378 -92.1 23.321
      vertex -152.823 -92.1 17.235
    endloop
  endfacet
  facet normal 0 1 -0
    outer loop
      vertex -152.364 -92.1 16.777
      vertex -152.823 -92.1 17.235
      vertex -146.378 -92.1 23.321
    endloop
  endfacet
  facet normal 0 1 0
    outer loop
      vertex -144.21 -92.1 20.077
      vertex -152.364 -92.1 16.777
      vertex -145.134 -92.1 21.806
    endloop
  endfacet
  facet normal 0.881939 0.471364 0
    outer loop
      vertex -149.12 -112.698 5
      vertex -149.12 -112.698 -0.001
      vertex -149.593 -111.813 5
    endloop
  endfacet
  facet normal 0.706335 0 -0.707877
    outer loop
      vertex -154.076 -92.1 17.235
      vertex -154.076 -95.601 17.235
      vertex -154.535 -92.1 16.777
    endloop
  endfacet
  facet normal 0 1 0
    outer loop
      vertex -143.641 -92.1 18.201
      vertex -143.449 -92.1 16.251
      vertex -152.197 -92.1 16.15
    endloop
  endfacet
  facet normal 0 0 1
    outer loop
      vertex -151.746 -112.698 5
      vertex -149.12 -112.698 5
      vertex -149.593 -111.813 5
    endloop
  endfacet
  facet normal -0 0 1
    outer loop
      vertex -152.385 -110.661 5
      vertex -151.794 -112.609 5
      vertex -150.049 -110.311 5
    endloop
  endfacet
  facet normal -0.634522 -0.772905 -0
    outer loop
      vertex -137.753 -102.096 5
      vertex -137.753 -102.096 -0.001
      vertex -136.541 -103.091 5
    endloop
  endfacet
  facet normal -0.634522 -0.772905 0
    outer loop
      vertex -136.541 -103.091 -0.001
      vertex -136.541 -103.091 5
      vertex -137.753 -102.096 -0.001
    endloop
  endfacet
  facet normal -0.881939 0.471364 0
    outer loop
      vertex -157.406 -111.813 5
      vertex -157.406 -111.813 -0.001
      vertex -157.879 -112.698 -0.001
    endloop
  endfacet
  facet normal 0.707107 -0 0.707107
    outer loop
      vertex -154.076 -95.601 15.065
      vertex -154.076 -92.1 15.065
      vertex -154.535 -92.1 15.524
    endloop
  endfacet
  facet normal 0 -1 0
    outer loop
      vertex -151.746 -112.698 5
      vertex -149.12 -112.698 -0.001
      vertex -149.12 -112.698 5
    endloop
  endfacet
  facet normal 0 1 -0
    outer loop
      vertex -152.197 -92.1 16.15
      vertex -152.364 -92.1 16.777
      vertex -143.641 -92.1 18.201
    endloop
  endfacet
  facet normal 0 1 0
    outer loop
      vertex -144.21 -92.1 20.077
      vertex -143.641 -92.1 18.201
      vertex -152.364 -92.1 16.777
    endloop
  endfacet
  facet normal 0 0 1
    outer loop
      vertex -157.879 -112.698 5
      vertex -155.368 -112.698 5
      vertex -157.406 -111.813 5
    endloop
  endfacet
  facet normal -0.471514 -0.881859 0
    outer loop
      vertex -137.753 -102.096 -0.001
      vertex -137.753 -102.096 5
      vertex -139.137 -101.356 5
    endloop
  endfacet
  facet normal -0.471514 -0.881859 0
    outer loop
      vertex -137.753 -102.096 -0.001
      vertex -139.137 -101.356 5
      vertex -139.137 -101.356 -0.001
    endloop
  endfacet
  facet normal 0.259199 -0 0.965824
    outer loop
      vertex -153.45 -95.601 14.897
      vertex -153.45 -92.1 14.897
      vertex -154.076 -92.1 15.065
    endloop
  endfacet
  facet normal 0.259199 0 0.965824
    outer loop
      vertex -153.45 -95.601 14.897
      vertex -154.076 -92.1 15.065
      vertex -154.076 -95.601 15.065
    endloop
  endfacet
  facet normal 0 -0 1
    outer loop
      vertex -155.368 -112.698 5
      vertex -155.32 -112.609 5
      vertex -157.406 -111.813 5
    endloop
  endfacet
  facet normal 0 0 1
    outer loop
      vertex -156.95 -110.311 5
      vertex -157.406 -111.813 5
      vertex -155.32 -112.609 5
    endloop
  endfacet
  facet normal -0 1 0
    outer loop
      vertex -152.197 -92.1 16.15
      vertex -143.449 -92.1 16.251
      vertex -152.364 -92.1 15.524
    endloop
  endfacet
  facet normal 0 1 0
    outer loop
      vertex -143.449 -92.1 16.251
      vertex -143.449 -92.1 5
      vertex -152.364 -92.1 15.524
    endloop
  endfacet
  facet normal -0.290096 -0.956998 -0
    outer loop
      vertex -140.638 -100.901 5
      vertex -140.638 -100.901 -0.001
      vertex -139.137 -101.356 5
    endloop
  endfacet
  facet normal -0.290096 -0.956998 0
    outer loop
      vertex -139.137 -101.356 -0.001
      vertex -139.137 -101.356 5
      vertex -140.638 -100.901 -0.001
    endloop
  endfacet
  facet normal -0.956874 0.290502 0
    outer loop
      vertex -157.406 -111.813 -0.001
      vertex -157.406 -111.813 5
      vertex -156.95 -110.311 -0.001
    endloop
  endfacet
  facet normal -0.956874 0.290502 0
    outer loop
      vertex -156.95 -110.311 5
      vertex -156.95 -110.311 -0.001
      vertex -157.406 -111.813 5
    endloop
  endfacet
  facet normal -0 1 0
    outer loop
      vertex -152.823 -92.1 15.065
      vertex -152.364 -92.1 15.524
      vertex -143.449 -92.1 5
    endloop
  endfacet
  facet normal 0 0 1
    outer loop
      vertex -156.796 -108.75 5
      vertex -156.95 -110.311 5
      vertex -154.729 -110.661 5
    endloop
  endfacet
  facet normal 0 0 1
    outer loop
      vertex -154.53 -108.635 5
      vertex -154.729 -106.609 5
      vertex -156.95 -107.189 5
    endloop
  endfacet
  facet normal -0.0981158 -0.995175 0
    outer loop
      vertex -140.638 -100.901 -0.001
      vertex -140.638 -100.901 5
      vertex -142.2 -100.747 5
    endloop
  endfacet
  facet normal -0.0981158 -0.995175 0
    outer loop
      vertex -140.638 -100.901 -0.001
      vertex -142.2 -100.747 5
      vertex -142.2 -100.747 -0.001
    endloop
  endfacet
  facet normal 0 -0 1
    outer loop
      vertex -157.406 -105.687 5
      vertex -155.32 -104.66 5
      vertex -158.145 -104.304 5
    endloop
  endfacet
  facet normal 0.772849 -0.63459 0
    outer loop
      vertex -147.858 -103.091 -0.001
      vertex -147.858 -103.091 5
      vertex -148.854 -104.304 5
    endloop
  endfacet
  facet normal 0.772849 -0.63459 0
    outer loop
      vertex -147.858 -103.091 -0.001
      vertex -148.854 -104.304 5
      vertex -148.854 -104.304 -0.001
    endloop
  endfacet
  facet normal 0.0981781 -0.995169 0
    outer loop
      vertex -143.761 -100.901 5
      vertex -143.761 -100.901 -0.001
      vertex -142.2 -100.747 5
    endloop
  endfacet
  facet normal 0.0981781 -0.995169 0
    outer loop
      vertex -142.2 -100.747 -0.001
      vertex -142.2 -100.747 5
      vertex -143.761 -100.901 -0.001
    endloop
  endfacet
  facet normal -0.995169 0.0981781 0
    outer loop
      vertex -156.95 -110.311 -0.001
      vertex -156.95 -110.311 5
      vertex -156.796 -108.75 -0.001
    endloop
  endfacet
  facet normal -0 -1 0
    outer loop
      vertex -146.378 -95.601 23.321
      vertex -147.894 -95.601 24.565
      vertex -152.823 -95.601 17.235
    endloop
  endfacet
  facet normal 0.290096 -0.956998 0
    outer loop
      vertex -143.761 -100.901 -0.001
      vertex -143.761 -100.901 5
      vertex -145.262 -101.356 -0.001
    endloop
  endfacet
  facet normal 0.881982 -0.471283 0
    outer loop
      vertex -149.593 -105.687 5
      vertex -149.593 -105.687 -0.001
      vertex -148.854 -104.304 5
    endloop
  endfacet
  facet normal 0.881982 -0.471283 0
    outer loop
      vertex -148.854 -104.304 -0.001
      vertex -148.854 -104.304 5
      vertex -149.593 -105.687 -0.001
    endloop
  endfacet
  facet normal 0.471514 -0.881859 0
    outer loop
      vertex -145.262 -101.356 -0.001
      vertex -146.646 -102.096 5
      vertex -146.646 -102.096 -0.001
    endloop
  endfacet
  facet normal 0 -1 0
    outer loop
      vertex -152.823 -95.601 17.235
      vertex -151.499 -95.601 26.058
      vertex -153.45 -95.601 17.403
    endloop
  endfacet
  facet normal 0.956874 -0.290502 0
    outer loop
      vertex -150.049 -107.189 5
      vertex -150.049 -107.189 -0.001
      vertex -149.593 -105.687 -0.001
    endloop
  endfacet
  facet normal 0.956874 -0.290502 0
    outer loop
      vertex -150.049 -107.189 5
      vertex -149.593 -105.687 -0.001
      vertex -149.593 -105.687 5
    endloop
  endfacet
  facet normal 0.634522 -0.772905 0
    outer loop
      vertex -147.858 -103.091 5
      vertex -147.858 -103.091 -0.001
      vertex -146.646 -102.096 5
    endloop
  endfacet
  facet normal 0.634522 -0.772905 0
    outer loop
      vertex -146.646 -102.096 -0.001
      vertex -146.646 -102.096 5
      vertex -147.858 -103.091 -0.001
    endloop
  endfacet
  facet normal -0.881939 0.471364 0
    outer loop
      vertex -134.806 -111.813 5
      vertex -134.806 -111.813 -0.001
      vertex -135.279 -112.698 5
    endloop
  endfacet
  facet normal 0.995169 -0.0981781 0
    outer loop
      vertex -150.049 -107.189 -0.001
      vertex -150.049 -107.189 5
      vertex -150.203 -108.75 5
    endloop
  endfacet
  facet normal -0 -1 0
    outer loop
      vertex -144.21 -95.601 20.077
      vertex -145.134 -95.601 21.806
      vertex -152.364 -95.601 16.777
    endloop
  endfacet
  facet normal -0 -1 0
    outer loop
      vertex -145.134 -95.601 21.806
      vertex -146.378 -95.601 23.321
      vertex -152.364 -95.601 16.777
    endloop
  endfacet
  facet normal 0 -1 0
    outer loop
      vertex -152.823 -95.601 17.235
      vertex -152.364 -95.601 16.777
      vertex -146.378 -95.601 23.321
    endloop
  endfacet
  facet normal 0 -1 -0
    outer loop
      vertex -151.499 -95.601 26.058
      vertex -152.823 -95.601 17.235
      vertex -149.622 -95.601 25.489
    endloop
  endfacet
  facet normal 0 -1 0
    outer loop
      vertex -153.45 -95.601 26.251
      vertex -153.45 -95.601 17.403
      vertex -151.499 -95.601 26.058
    endloop
  endfacet
  facet normal -0 -1 0
    outer loop
      vertex -147.894 -95.601 24.565
      vertex -149.622 -95.601 25.489
      vertex -152.823 -95.601 17.235
    endloop
  endfacet
  facet normal -0 -1 0
    outer loop
      vertex -143.641 -95.601 18.201
      vertex -144.21 -95.601 20.077
      vertex -152.364 -95.601 16.777
    endloop
  endfacet
  facet normal 0 -1 0
    outer loop
      vertex -152.364 -95.601 16.777
      vertex -152.197 -95.601 16.15
      vertex -143.641 -95.601 18.201
    endloop
  endfacet
  facet normal -0 -1 0
    outer loop
      vertex -143.449 -95.601 16.251
      vertex -143.641 -95.601 18.201
      vertex -152.197 -95.601 16.15
    endloop
  endfacet
  facet normal -0.956874 0.290502 0
    outer loop
      vertex -134.35 -110.311 5
      vertex -134.806 -111.813 -0.001
      vertex -134.806 -111.813 5
    endloop
  endfacet
  facet normal 0 -1 0
    outer loop
      vertex -151.746 -112.698 -0.001
      vertex -149.12 -112.698 -0.001
      vertex -151.746 -112.698 5
    endloop
  endfacet
  facet normal 0 -1 0
    outer loop
      vertex -135.279 -112.698 -0.001
      vertex -132.653 -112.698 5
      vertex -135.279 -112.698 5
    endloop
  endfacet
  facet normal -0.881939 0.471364 0
    outer loop
      vertex -157.406 -111.813 5
      vertex -157.879 -112.698 -0.001
      vertex -157.879 -112.698 5
    endloop
  endfacet
  facet normal -0.995169 0.0981781 0
    outer loop
      vertex -156.796 -108.75 -0.001
      vertex -156.95 -110.311 5
      vertex -156.796 -108.75 5
    endloop
  endfacet
  facet normal 0 -1 0
    outer loop
      vertex -157.879 -112.698 -0.001
      vertex -155.368 -112.698 5
      vertex -157.879 -112.698 5
    endloop
  endfacet
  facet normal -0.995169 -0.0981781 0
    outer loop
      vertex -156.796 -108.75 -0.001
      vertex -156.796 -108.75 5
      vertex -156.95 -107.189 -0.001
    endloop
  endfacet
  facet normal -0.995169 -0.0981781 -0
    outer loop
      vertex -156.95 -107.189 5
      vertex -156.95 -107.189 -0.001
      vertex -156.796 -108.75 5
    endloop
  endfacet
  facet normal -0.956874 -0.290502 0
    outer loop
      vertex -156.95 -107.189 -0.001
      vertex -156.95 -107.189 5
      vertex -157.406 -105.687 -0.001
    endloop
  endfacet
  facet normal -0.956874 -0.290502 -0
    outer loop
      vertex -157.406 -105.687 5
      vertex -157.406 -105.687 -0.001
      vertex -156.95 -107.189 5
    endloop
  endfacet
  facet normal -0.881982 -0.471283 -0
    outer loop
      vertex -158.145 -104.304 5
      vertex -158.145 -104.304 -0.001
      vertex -157.406 -105.687 -0.001
    endloop
  endfacet
  facet normal -0.881982 -0.471283 0
    outer loop
      vertex -158.145 -104.304 5
      vertex -157.406 -105.687 -0.001
      vertex -157.406 -105.687 5
    endloop
  endfacet
  facet normal -0.772849 -0.63459 0
    outer loop
      vertex -159.141 -103.091 5
      vertex -158.145 -104.304 -0.001
      vertex -158.145 -104.304 5
    endloop
  endfacet
  facet normal -0.634522 -0.772905 -0
    outer loop
      vertex -160.353 -102.096 5
      vertex -160.353 -102.096 -0.001
      vertex -159.141 -103.091 5
    endloop
  endfacet
  facet normal -0.471514 -0.881859 0
    outer loop
      vertex -160.353 -102.096 -0.001
      vertex -160.353 -102.096 5
      vertex -161.737 -101.356 -0.001
    endloop
  endfacet
  facet normal -0.471514 -0.881859 -0
    outer loop
      vertex -161.737 -101.356 5
      vertex -161.737 -101.356 -0.001
      vertex -160.353 -102.096 5
    endloop
  endfacet
  facet normal -0.290096 -0.956998 -0
    outer loop
      vertex -163.238 -100.901 5
      vertex -163.238 -100.901 -0.001
      vertex -161.737 -101.356 -0.001
    endloop
  endfacet
  facet normal -0.290096 -0.956998 0
    outer loop
      vertex -163.238 -100.901 5
      vertex -161.737 -101.356 -0.001
      vertex -161.737 -101.356 5
    endloop
  endfacet
  facet normal -0.0981781 -0.995169 0
    outer loop
      vertex -163.238 -100.901 -0.001
      vertex -163.238 -100.901 5
      vertex -164.799 -100.747 -0.001
    endloop
  endfacet
  facet normal 0 -1 -0
    outer loop
      vertex -155.368 -112.698 5
      vertex -157.879 -112.698 -0.001
      vertex -155.368 -112.698 -0.001
    endloop
  endfacet
  facet normal -0.995163 0.0982392 0
    outer loop
      vertex -175.1 -106.609 5
      vertex -175.1 -106.609 -0.001
      vertex -175.3 -108.635 -0.001
    endloop
  endfacet
  facet normal -0.995163 0.0982392 0
    outer loop
      vertex -175.1 -106.609 5
      vertex -175.3 -108.635 -0.001
      vertex -175.3 -108.635 5
    endloop
  endfacet
  facet normal -0.956971 0.290185 0
    outer loop
      vertex -174.509 -104.66 5
      vertex -174.509 -104.66 -0.001
      vertex -175.1 -106.609 -0.001
    endloop
  endfacet
  facet normal -0.956971 0.290185 0
    outer loop
      vertex -174.509 -104.66 5
      vertex -175.1 -106.609 -0.001
      vertex -175.1 -106.609 5
    endloop
  endfacet
  facet normal -0.882013 0.471226 0
    outer loop
      vertex -173.55 -102.865 5
      vertex -173.55 -102.865 -0.001
      vertex -174.509 -104.66 -0.001
    endloop
  endfacet
  facet normal -0.882013 0.471226 0
    outer loop
      vertex -173.55 -102.865 5
      vertex -174.509 -104.66 -0.001
      vertex -174.509 -104.66 5
    endloop
  endfacet
  facet normal -0.77295 0.634467 0
    outer loop
      vertex -173.55 -102.865 -0.001
      vertex -173.55 -102.865 5
      vertex -172.258 -101.291 -0.001
    endloop
  endfacet
  facet normal -0.77295 0.634467 0
    outer loop
      vertex -172.258 -101.291 5
      vertex -172.258 -101.291 -0.001
      vertex -173.55 -102.865 5
    endloop
  endfacet
  facet normal -0.634415 0.772993 0
    outer loop
      vertex -172.258 -101.291 5
      vertex -170.685 -100 5
      vertex -172.258 -101.291 -0.001
    endloop
  endfacet
  facet normal -0.634415 0.772993 0
    outer loop
      vertex -170.685 -100 -0.001
      vertex -172.258 -101.291 -0.001
      vertex -170.685 -100 5
    endloop
  endfacet
  facet normal -0.471404 0.881918 0
    outer loop
      vertex -168.889 -99.04 5
      vertex -168.889 -99.04 -0.001
      vertex -170.685 -100 -0.001
    endloop
  endfacet
  facet normal -0.471404 0.881918 0
    outer loop
      vertex -168.889 -99.04 5
      vertex -170.685 -100 -0.001
      vertex -170.685 -100 5
    endloop
  endfacet
  facet normal -0.290321 0.956929 0
    outer loop
      vertex -166.941 -98.449 5
      vertex -166.941 -98.449 -0.001
      vertex -168.889 -99.04 -0.001
    endloop
  endfacet
  facet normal -0.290321 0.956929 0
    outer loop
      vertex -166.941 -98.449 5
      vertex -168.889 -99.04 -0.001
      vertex -168.889 -99.04 5
    endloop
  endfacet
  facet normal -0.0982392 0.995163 0
    outer loop
      vertex -166.941 -98.449 -0.001
      vertex -166.941 -98.449 5
      vertex -164.915 -98.249 5
    endloop
  endfacet
  facet normal 0.0982198 0.994967 -0.0198404
    outer loop
      vertex -162.889 -98.449 -0.001
      vertex -164.915 -98.249 -0.001
      vertex -163.45 -98.3936 0
    endloop
  endfacet
  facet normal 0.0982258 0.995164 -0
    outer loop
      vertex -164.915 -98.249 -0.001
      vertex -164.915 -98.249 5
      vertex -163.45 -98.3936 0
    endloop
  endfacet
  facet normal -0.880153 -0.474689 -0
    outer loop
      vertex -174.509 -112.609 5
      vertex -174.509 -112.609 -0.001
      vertex -174.461 -112.698 -0.001
    endloop
  endfacet
  facet normal -0.880153 -0.474689 0
    outer loop
      vertex -174.509 -112.609 5
      vertex -174.461 -112.698 -0.001
      vertex -174.461 -112.698 5
    endloop
  endfacet
  facet normal -0.956929 -0.290321 -0
    outer loop
      vertex -175.1 -110.661 5
      vertex -175.1 -110.661 -0.001
      vertex -174.509 -112.609 -0.001
    endloop
  endfacet
  facet normal -0.956929 -0.290321 0
    outer loop
      vertex -175.1 -110.661 5
      vertex -174.509 -112.609 -0.001
      vertex -174.509 -112.609 5
    endloop
  endfacet
  facet normal -0.995163 -0.0982392 -0
    outer loop
      vertex -175.3 -108.635 5
      vertex -175.3 -108.635 -0.001
      vertex -175.1 -110.661 -0.001
    endloop
  endfacet
  facet normal -0.995163 -0.0982392 0
    outer loop
      vertex -175.3 -108.635 5
      vertex -175.1 -110.661 -0.001
      vertex -175.1 -110.661 5
    endloop
  endfacet
  facet normal 0.995231 0.0975467 0
    outer loop
      vertex -172.802 -108.75 5
      vertex -172.649 -110.311 -0.001
      vertex -172.802 -108.75 -0.001
    endloop
  endfacet
  facet normal -0 -1 -0
    outer loop
      vertex -171.72 -112.698 5
      vertex -174.461 -112.698 5
      vertex -171.72 -112.698 -0.001
    endloop
  endfacet
  facet normal 0.290096 -0.956998 0
    outer loop
      vertex -167.862 -101.356 5
      vertex -167.862 -101.356 -0.001
      vertex -166.361 -100.901 -0.001
    endloop
  endfacet
  facet normal 0.471514 -0.881859 0
    outer loop
      vertex -169.246 -102.096 5
      vertex -169.246 -102.096 -0.001
      vertex -167.862 -101.356 5
    endloop
  endfacet
  facet normal 0.471514 -0.881859 0
    outer loop
      vertex -167.862 -101.356 -0.001
      vertex -167.862 -101.356 5
      vertex -169.246 -102.096 -0.001
    endloop
  endfacet
  facet normal 0.634522 -0.772905 0
    outer loop
      vertex -169.246 -102.096 -0.001
      vertex -169.246 -102.096 5
      vertex -170.458 -103.091 5
    endloop
  endfacet
  facet normal 0.634522 -0.772905 0
    outer loop
      vertex -169.246 -102.096 -0.001
      vertex -170.458 -103.091 5
      vertex -170.458 -103.091 -0.001
    endloop
  endfacet
  facet normal 0.772849 -0.63459 0
    outer loop
      vertex -171.454 -104.304 5
      vertex -171.454 -104.304 -0.001
      vertex -170.458 -103.091 5
    endloop
  endfacet
  facet normal 0.772849 -0.63459 0
    outer loop
      vertex -170.458 -103.091 -0.001
      vertex -170.458 -103.091 5
      vertex -171.454 -104.304 -0.001
    endloop
  endfacet
  facet normal 0.881982 -0.471283 0
    outer loop
      vertex -171.454 -104.304 -0.001
      vertex -171.454 -104.304 5
      vertex -172.193 -105.687 5
    endloop
  endfacet
  facet normal 0.881982 -0.471283 0
    outer loop
      vertex -171.454 -104.304 -0.001
      vertex -172.193 -105.687 5
      vertex -172.193 -105.687 -0.001
    endloop
  endfacet
  facet normal 0.956874 -0.290502 0
    outer loop
      vertex -172.649 -107.189 5
      vertex -172.649 -107.189 -0.001
      vertex -172.193 -105.687 5
    endloop
  endfacet
  facet normal 0.956874 -0.290502 0
    outer loop
      vertex -172.193 -105.687 -0.001
      vertex -172.193 -105.687 5
      vertex -172.649 -107.189 -0.001
    endloop
  endfacet
  facet normal 0.995231 -0.0975467 0
    outer loop
      vertex -172.649 -107.189 -0.001
      vertex -172.649 -107.189 5
      vertex -172.802 -108.75 5
    endloop
  endfacet
  facet normal 0.995231 -0.0975467 0
    outer loop
      vertex -172.649 -107.189 -0.001
      vertex -172.802 -108.75 5
      vertex -172.802 -108.75 -0.001
    endloop
  endfacet
  facet normal 0.995231 0.0975467 0
    outer loop
      vertex -172.649 -110.311 5
      vertex -172.649 -110.311 -0.001
      vertex -172.802 -108.75 5
    endloop
  endfacet
  facet normal 0.956874 0.290502 -0
    outer loop
      vertex -172.649 -110.311 -0.001
      vertex -172.649 -110.311 5
      vertex -172.193 -111.813 -0.001
    endloop
  endfacet
  facet normal 0.956874 0.290502 0
    outer loop
      vertex -172.193 -111.813 5
      vertex -172.193 -111.813 -0.001
      vertex -172.649 -110.311 5
    endloop
  endfacet
  facet normal 0.881939 0.471364 -0
    outer loop
      vertex -172.193 -111.813 -0.001
      vertex -172.193 -111.813 5
      vertex -171.72 -112.698 -0.001
    endloop
  endfacet
  facet normal 0.881939 0.471364 0
    outer loop
      vertex -171.72 -112.698 5
      vertex -171.72 -112.698 -0.001
      vertex -172.193 -111.813 5
    endloop
  endfacet
  facet normal 0 -1 0
    outer loop
      vertex -174.461 -112.698 -0.001
      vertex -171.72 -112.698 -0.001
      vertex -174.461 -112.698 5
    endloop
  endfacet
  facet normal -0.0981781 -0.995169 0
    outer loop
      vertex -164.799 -100.747 -0.001
      vertex -163.238 -100.901 5
      vertex -164.799 -100.747 5
    endloop
  endfacet
  facet normal 0.0981158 -0.995175 0
    outer loop
      vertex -166.361 -100.901 5
      vertex -166.361 -100.901 -0.001
      vertex -164.799 -100.747 -0.001
    endloop
  endfacet
  facet normal 0.0981158 -0.995175 0
    outer loop
      vertex -166.361 -100.901 5
      vertex -164.799 -100.747 -0.001
      vertex -164.799 -100.747 5
    endloop
  endfacet
  facet normal 0.290096 -0.956998 0
    outer loop
      vertex -167.862 -101.356 5
      vertex -166.361 -100.901 -0.001
      vertex -166.361 -100.901 5
    endloop
  endfacet
endsolid OpenSCAD_Model
