solid OpenSCAD_Model
  facet normal 0.998027 0.0627906 0
    outer loop
      vertex 63.5 0 6
      vertex 62.9993 7.95866 0
      vertex 62.9993 7.95866 6
    endloop
  endfacet
  facet normal 0.998027 0.0627906 0
    outer loop
      vertex 62.9993 7.95866 0
      vertex 63.5 0 6
      vertex 63.5 0 0
    endloop
  endfacet
  facet normal -0.998027 0.0627906 0
    outer loop
      vertex -63.5 0 0
      vertex -62.9993 7.95866 6
      vertex -62.9993 7.95866 0
    endloop
  endfacet
  facet normal -0.998027 0.0627906 0
    outer loop
      vertex -62.9993 7.95866 6
      vertex -63.5 0 0
      vertex -63.5 0 6
    endloop
  endfacet
  facet normal 0 1 -0
    outer loop
      vertex 3.9872 63.3747 0
      vertex -3.9872 63.3747 6
      vertex 3.9872 63.3747 6
    endloop
  endfacet
  facet normal 0 1 0
    outer loop
      vertex -3.9872 63.3747 6
      vertex 3.9872 63.3747 0
      vertex -3.9872 63.3747 0
    endloop
  endfacet
  facet normal 0 -1 0
    outer loop
      vertex -3.9872 -63.3747 0
      vertex 3.9872 -63.3747 6
      vertex -3.9872 -63.3747 6
    endloop
  endfacet
  facet normal 0 -1 -0
    outer loop
      vertex 3.9872 -63.3747 6
      vertex -3.9872 -63.3747 0
      vertex 3.9872 -63.3747 0
    endloop
  endfacet
  facet normal 0.684547 0.728969 -0
    outer loop
      vertex 46.2895 43.4687 0
      vertex 40.4764 48.9276 6
      vertex 46.2895 43.4687 6
    endloop
  endfacet
  facet normal 0.684547 0.728969 0
    outer loop
      vertex 40.4764 48.9276 6
      vertex 46.2895 43.4687 0
      vertex 40.4764 48.9276 0
    endloop
  endfacet
  facet normal -0.684547 0.728969 0
    outer loop
      vertex -40.4764 48.9276 0
      vertex -46.2895 43.4687 6
      vertex -40.4764 48.9276 6
    endloop
  endfacet
  facet normal -0.684547 0.728969 0
    outer loop
      vertex -46.2895 43.4687 6
      vertex -40.4764 48.9276 0
      vertex -46.2895 43.4687 0
    endloop
  endfacet
  facet normal -0.368125 0.929776 0
    outer loop
      vertex -19.6226 60.3921 0
      vertex -27.037 57.4565 6
      vertex -19.6226 60.3921 6
    endloop
  endfacet
  facet normal -0.368125 0.929776 0
    outer loop
      vertex -27.037 57.4565 6
      vertex -19.6226 60.3921 0
      vertex -27.037 57.4565 0
    endloop
  endfacet
  facet normal 0.904827 0.425779 0
    outer loop
      vertex 59.0408 23.3759 6
      vertex 55.6455 30.5914 0
      vertex 55.6455 30.5914 6
    endloop
  endfacet
  facet normal 0.904827 0.425779 0
    outer loop
      vertex 55.6455 30.5914 0
      vertex 59.0408 23.3759 6
      vertex 59.0408 23.3759 0
    endloop
  endfacet
  facet normal 0.844328 0.535827 0
    outer loop
      vertex 55.6455 30.5914 6
      vertex 51.3726 37.3244 0
      vertex 51.3726 37.3244 6
    endloop
  endfacet
  facet normal 0.844328 0.535827 0
    outer loop
      vertex 51.3726 37.3244 0
      vertex 55.6455 30.5914 6
      vertex 55.6455 30.5914 0
    endloop
  endfacet
  facet normal 0.368125 0.929776 -0
    outer loop
      vertex 27.037 57.4565 0
      vertex 19.6226 60.3921 6
      vertex 27.037 57.4565 6
    endloop
  endfacet
  facet normal 0.368125 0.929776 0
    outer loop
      vertex 19.6226 60.3921 6
      vertex 27.037 57.4565 0
      vertex 19.6226 60.3921 0
    endloop
  endfacet
  facet normal 0.24869 0.968583 -0
    outer loop
      vertex 19.6226 60.3921 0
      vertex 11.8987 62.3752 6
      vertex 19.6226 60.3921 6
    endloop
  endfacet
  facet normal 0.24869 0.968583 0
    outer loop
      vertex 11.8987 62.3752 6
      vertex 19.6226 60.3921 0
      vertex 11.8987 62.3752 0
    endloop
  endfacet
  facet normal 0.481754 0.876307 -0
    outer loop
      vertex 34.025 53.6148 0
      vertex 27.037 57.4565 6
      vertex 34.025 53.6148 6
    endloop
  endfacet
  facet normal 0.481754 0.876307 0
    outer loop
      vertex 27.037 57.4565 6
      vertex 34.025 53.6148 0
      vertex 27.037 57.4565 0
    endloop
  endfacet
  facet normal -0.844328 0.535827 0
    outer loop
      vertex -55.6455 30.5914 0
      vertex -51.3726 37.3244 6
      vertex -51.3726 37.3244 0
    endloop
  endfacet
  facet normal -0.844328 0.535827 0
    outer loop
      vertex -51.3726 37.3244 6
      vertex -55.6455 30.5914 0
      vertex -55.6455 30.5914 6
    endloop
  endfacet
  facet normal -0.770513 0.637424 0
    outer loop
      vertex -51.3726 37.3244 0
      vertex -46.2895 43.4687 6
      vertex -46.2895 43.4687 0
    endloop
  endfacet
  facet normal -0.770513 0.637424 0
    outer loop
      vertex -46.2895 43.4687 6
      vertex -51.3726 37.3244 0
      vertex -51.3726 37.3244 6
    endloop
  endfacet
  facet normal -0.951056 0.309017 0
    outer loop
      vertex -61.505 15.7918 0
      vertex -59.0408 23.3759 6
      vertex -59.0408 23.3759 0
    endloop
  endfacet
  facet normal -0.951056 0.309017 0
    outer loop
      vertex -59.0408 23.3759 6
      vertex -61.505 15.7918 0
      vertex -61.505 15.7918 6
    endloop
  endfacet
  facet normal -0.587785 0.809017 0
    outer loop
      vertex -34.025 53.6148 0
      vertex -40.4764 48.9276 6
      vertex -34.025 53.6148 6
    endloop
  endfacet
  facet normal -0.587785 0.809017 0
    outer loop
      vertex -40.4764 48.9276 6
      vertex -34.025 53.6148 0
      vertex -40.4764 48.9276 0
    endloop
  endfacet
  facet normal -0.125333 0.992115 0
    outer loop
      vertex -3.9872 63.3747 0
      vertex -11.8987 62.3752 6
      vertex -3.9872 63.3747 6
    endloop
  endfacet
  facet normal -0.125333 0.992115 0
    outer loop
      vertex -11.8987 62.3752 6
      vertex -3.9872 63.3747 0
      vertex -11.8987 62.3752 0
    endloop
  endfacet
  facet normal 0.125333 -0.992115 0
    outer loop
      vertex 3.9872 -63.3747 0
      vertex 11.8987 -62.3752 6
      vertex 3.9872 -63.3747 6
    endloop
  endfacet
  facet normal 0.125333 -0.992115 0
    outer loop
      vertex 11.8987 -62.3752 6
      vertex 3.9872 -63.3747 0
      vertex 11.8987 -62.3752 0
    endloop
  endfacet
  facet normal 0.951056 0.309017 0
    outer loop
      vertex 61.505 15.7918 6
      vertex 59.0408 23.3759 0
      vertex 59.0408 23.3759 6
    endloop
  endfacet
  facet normal 0.951056 0.309017 0
    outer loop
      vertex 59.0408 23.3759 0
      vertex 61.505 15.7918 6
      vertex 61.505 15.7918 0
    endloop
  endfacet
  facet normal 0.982287 0.187381 0
    outer loop
      vertex 62.9993 7.95866 6
      vertex 61.505 15.7918 0
      vertex 61.505 15.7918 6
    endloop
  endfacet
  facet normal 0.982287 0.187381 0
    outer loop
      vertex 61.505 15.7918 0
      vertex 62.9993 7.95866 6
      vertex 62.9993 7.95866 0
    endloop
  endfacet
  facet normal 0.770513 0.637424 0
    outer loop
      vertex 51.3726 37.3244 6
      vertex 46.2895 43.4687 0
      vertex 46.2895 43.4687 6
    endloop
  endfacet
  facet normal 0.770513 0.637424 0
    outer loop
      vertex 46.2895 43.4687 0
      vertex 51.3726 37.3244 6
      vertex 51.3726 37.3244 0
    endloop
  endfacet
  facet normal 0.125333 0.992115 -0
    outer loop
      vertex 11.8987 62.3752 0
      vertex 3.9872 63.3747 6
      vertex 11.8987 62.3752 6
    endloop
  endfacet
  facet normal 0.125333 0.992115 0
    outer loop
      vertex 3.9872 63.3747 6
      vertex 11.8987 62.3752 0
      vertex 3.9872 63.3747 0
    endloop
  endfacet
  facet normal 0.587785 0.809017 -0
    outer loop
      vertex 40.4764 48.9276 0
      vertex 34.025 53.6148 6
      vertex 40.4764 48.9276 6
    endloop
  endfacet
  facet normal 0.587785 0.809017 0
    outer loop
      vertex 34.025 53.6148 6
      vertex 40.4764 48.9276 0
      vertex 34.025 53.6148 0
    endloop
  endfacet
  facet normal -0.904827 0.425779 0
    outer loop
      vertex -59.0408 23.3759 0
      vertex -55.6455 30.5914 6
      vertex -55.6455 30.5914 0
    endloop
  endfacet
  facet normal -0.904827 0.425779 0
    outer loop
      vertex -55.6455 30.5914 6
      vertex -59.0408 23.3759 0
      vertex -59.0408 23.3759 6
    endloop
  endfacet
  facet normal -0.982287 0.187381 0
    outer loop
      vertex -62.9993 7.95866 0
      vertex -61.505 15.7918 6
      vertex -61.505 15.7918 0
    endloop
  endfacet
  facet normal -0.982287 0.187381 0
    outer loop
      vertex -61.505 15.7918 6
      vertex -62.9993 7.95866 0
      vertex -62.9993 7.95866 6
    endloop
  endfacet
  facet normal 0 0 1
    outer loop
      vertex 61.4 0 6
      vertex 63.5 0 6
      vertex 62.9993 7.95866 6
    endloop
  endfacet
  facet normal 0 0 1
    outer loop
      vertex 60.9158 7.69546 6
      vertex 62.9993 7.95866 6
      vertex 61.505 15.7918 6
    endloop
  endfacet
  facet normal 0 0 1
    outer loop
      vertex 63.5 0 6
      vertex 61.4 0 6
      vertex 62.9993 -7.95866 6
    endloop
  endfacet
  facet normal -0 0 1
    outer loop
      vertex 60.9158 -7.69546 6
      vertex 62.9993 -7.95866 6
      vertex 61.4 0 6
    endloop
  endfacet
  facet normal 0 0 1
    outer loop
      vertex 62.9993 7.95866 6
      vertex 60.9158 7.69546 6
      vertex 61.4 0 6
    endloop
  endfacet
  facet normal 0 0 1
    outer loop
      vertex 61.505 15.7918 6
      vertex 59.471 15.2696 6
      vertex 60.9158 7.69546 6
    endloop
  endfacet
  facet normal 0 0 1
    outer loop
      vertex 59.0408 23.3759 6
      vertex 59.471 15.2696 6
      vertex 61.505 15.7918 6
    endloop
  endfacet
  facet normal 0 0 1
    outer loop
      vertex 59.0408 23.3759 6
      vertex 57.0883 22.6028 6
      vertex 59.471 15.2696 6
    endloop
  endfacet
  facet normal 0 0 1
    outer loop
      vertex 55.6455 30.5914 6
      vertex 57.0883 22.6028 6
      vertex 59.0408 23.3759 6
    endloop
  endfacet
  facet normal 0 0 1
    outer loop
      vertex 55.6455 30.5914 6
      vertex 53.8052 29.5797 6
      vertex 57.0883 22.6028 6
    endloop
  endfacet
  facet normal 0 0 1
    outer loop
      vertex 51.3726 37.3244 6
      vertex 53.8052 29.5797 6
      vertex 55.6455 30.5914 6
    endloop
  endfacet
  facet normal 0 0 1
    outer loop
      vertex 51.3726 37.3244 6
      vertex 49.6736 36.09 6
      vertex 53.8052 29.5797 6
    endloop
  endfacet
  facet normal 0 0 1
    outer loop
      vertex 46.2895 43.4687 6
      vertex 49.6736 36.09 6
      vertex 51.3726 37.3244 6
    endloop
  endfacet
  facet normal 0 0 1
    outer loop
      vertex 46.2895 43.4687 6
      vertex 44.7587 42.0312 6
      vertex 49.6736 36.09 6
    endloop
  endfacet
  facet normal 0 0 1
    outer loop
      vertex 40.4764 48.9276 6
      vertex 44.7587 42.0312 6
      vertex 46.2895 43.4687 6
    endloop
  endfacet
  facet normal 0 0 1
    outer loop
      vertex 40.4764 48.9276 6
      vertex 39.1378 47.3095 6
      vertex 44.7587 42.0312 6
    endloop
  endfacet
  facet normal 0 0 1
    outer loop
      vertex 34.025 53.6148 6
      vertex 39.1378 47.3095 6
      vertex 40.4764 48.9276 6
    endloop
  endfacet
  facet normal 0 0 1
    outer loop
      vertex 34.025 53.6148 6
      vertex 32.8998 51.8417 6
      vertex 39.1378 47.3095 6
    endloop
  endfacet
  facet normal 0 0 1
    outer loop
      vertex 27.037 57.4565 6
      vertex 32.8998 51.8417 6
      vertex 34.025 53.6148 6
    endloop
  endfacet
  facet normal 0 0 1
    outer loop
      vertex 27.037 57.4565 6
      vertex 26.1428 55.5564 6
      vertex 32.8998 51.8417 6
    endloop
  endfacet
  facet normal 0 0 1
    outer loop
      vertex 19.6226 60.3921 6
      vertex 26.1428 55.5564 6
      vertex 27.037 57.4565 6
    endloop
  endfacet
  facet normal 0 0 1
    outer loop
      vertex 19.6226 60.3921 6
      vertex 18.9736 58.3949 6
      vertex 26.1428 55.5564 6
    endloop
  endfacet
  facet normal 0 0 1
    outer loop
      vertex 11.8987 62.3752 6
      vertex 18.9736 58.3949 6
      vertex 19.6226 60.3921 6
    endloop
  endfacet
  facet normal 0 0 1
    outer loop
      vertex 11.8987 62.3752 6
      vertex 11.5052 60.3124 6
      vertex 18.9736 58.3949 6
    endloop
  endfacet
  facet normal 0 0 1
    outer loop
      vertex 3.9872 63.3747 6
      vertex 11.5052 60.3124 6
      vertex 11.8987 62.3752 6
    endloop
  endfacet
  facet normal 0 0 1
    outer loop
      vertex 3.9872 63.3747 6
      vertex 3.85534 61.2788 6
      vertex 11.5052 60.3124 6
    endloop
  endfacet
  facet normal 0 0 1
    outer loop
      vertex 3.9872 63.3747 6
      vertex -3.85534 61.2788 6
      vertex 3.85534 61.2788 6
    endloop
  endfacet
  facet normal -0 0 1
    outer loop
      vertex -3.9872 63.3747 6
      vertex -3.85534 61.2788 6
      vertex 3.9872 63.3747 6
    endloop
  endfacet
  facet normal 0 0 1
    outer loop
      vertex -3.9872 63.3747 6
      vertex -11.5052 60.3124 6
      vertex -3.85534 61.2788 6
    endloop
  endfacet
  facet normal -0 0 1
    outer loop
      vertex -11.8987 62.3752 6
      vertex -11.5052 60.3124 6
      vertex -3.9872 63.3747 6
    endloop
  endfacet
  facet normal 0 0 1
    outer loop
      vertex -11.8987 62.3752 6
      vertex -18.9736 58.3949 6
      vertex -11.5052 60.3124 6
    endloop
  endfacet
  facet normal -0 0 1
    outer loop
      vertex -19.6226 60.3921 6
      vertex -18.9736 58.3949 6
      vertex -11.8987 62.3752 6
    endloop
  endfacet
  facet normal 0 0 1
    outer loop
      vertex -19.6226 60.3921 6
      vertex -26.1428 55.5564 6
      vertex -18.9736 58.3949 6
    endloop
  endfacet
  facet normal -0 0 1
    outer loop
      vertex -27.037 57.4565 6
      vertex -26.1428 55.5564 6
      vertex -19.6226 60.3921 6
    endloop
  endfacet
  facet normal 0 0 1
    outer loop
      vertex -27.037 57.4565 6
      vertex -32.8998 51.8417 6
      vertex -26.1428 55.5564 6
    endloop
  endfacet
  facet normal -0 0 1
    outer loop
      vertex -34.025 53.6148 6
      vertex -32.8998 51.8417 6
      vertex -27.037 57.4565 6
    endloop
  endfacet
  facet normal 0 0 1
    outer loop
      vertex -34.025 53.6148 6
      vertex -39.1378 47.3095 6
      vertex -32.8998 51.8417 6
    endloop
  endfacet
  facet normal -0 0 1
    outer loop
      vertex -40.4764 48.9276 6
      vertex -39.1378 47.3095 6
      vertex -34.025 53.6148 6
    endloop
  endfacet
  facet normal 0 0 1
    outer loop
      vertex -40.4764 48.9276 6
      vertex -44.7587 42.0312 6
      vertex -39.1378 47.3095 6
    endloop
  endfacet
  facet normal -0 0 1
    outer loop
      vertex -46.2895 43.4687 6
      vertex -44.7587 42.0312 6
      vertex -40.4764 48.9276 6
    endloop
  endfacet
  facet normal 0 0 1
    outer loop
      vertex -46.2895 43.4687 6
      vertex -49.6736 36.09 6
      vertex -44.7587 42.0312 6
    endloop
  endfacet
  facet normal -0 0 1
    outer loop
      vertex -51.3726 37.3244 6
      vertex -49.6736 36.09 6
      vertex -46.2895 43.4687 6
    endloop
  endfacet
  facet normal 0 0 1
    outer loop
      vertex -51.3726 37.3244 6
      vertex -53.8052 29.5797 6
      vertex -49.6736 36.09 6
    endloop
  endfacet
  facet normal -0 0 1
    outer loop
      vertex -55.6455 30.5914 6
      vertex -53.8052 29.5797 6
      vertex -51.3726 37.3244 6
    endloop
  endfacet
  facet normal 0 0 1
    outer loop
      vertex -55.6455 30.5914 6
      vertex -57.0883 22.6028 6
      vertex -53.8052 29.5797 6
    endloop
  endfacet
  facet normal -0 0 1
    outer loop
      vertex -59.0408 23.3759 6
      vertex -57.0883 22.6028 6
      vertex -55.6455 30.5914 6
    endloop
  endfacet
  facet normal 0 0 1
    outer loop
      vertex -59.0408 23.3759 6
      vertex -59.471 15.2696 6
      vertex -57.0883 22.6028 6
    endloop
  endfacet
  facet normal -0 0 1
    outer loop
      vertex -61.505 15.7918 6
      vertex -59.471 15.2696 6
      vertex -59.0408 23.3759 6
    endloop
  endfacet
  facet normal -0 0 1
    outer loop
      vertex -62.9993 7.95866 6
      vertex -60.9158 7.69546 6
      vertex -61.505 15.7918 6
    endloop
  endfacet
  facet normal 0 0 1
    outer loop
      vertex -59.471 15.2696 6
      vertex -61.505 15.7918 6
      vertex -60.9158 7.69546 6
    endloop
  endfacet
  facet normal 0 0 1
    outer loop
      vertex 62.9993 -7.95866 6
      vertex 60.9158 -7.69546 6
      vertex 61.505 -15.7918 6
    endloop
  endfacet
  facet normal -0 0 1
    outer loop
      vertex 59.471 -15.2696 6
      vertex 61.505 -15.7918 6
      vertex 60.9158 -7.69546 6
    endloop
  endfacet
  facet normal 0 0 1
    outer loop
      vertex 59.471 -15.2696 6
      vertex 59.0408 -23.3759 6
      vertex 61.505 -15.7918 6
    endloop
  endfacet
  facet normal -0 0 1
    outer loop
      vertex 57.0883 -22.6028 6
      vertex 59.0408 -23.3759 6
      vertex 59.471 -15.2696 6
    endloop
  endfacet
  facet normal 0 0 1
    outer loop
      vertex 57.0883 -22.6028 6
      vertex 55.6455 -30.5914 6
      vertex 59.0408 -23.3759 6
    endloop
  endfacet
  facet normal -0 0 1
    outer loop
      vertex 53.8052 -29.5797 6
      vertex 55.6455 -30.5914 6
      vertex 57.0883 -22.6028 6
    endloop
  endfacet
  facet normal 0 0 1
    outer loop
      vertex 53.8052 -29.5797 6
      vertex 51.3726 -37.3244 6
      vertex 55.6455 -30.5914 6
    endloop
  endfacet
  facet normal -0 0 1
    outer loop
      vertex 49.6736 -36.09 6
      vertex 51.3726 -37.3244 6
      vertex 53.8052 -29.5797 6
    endloop
  endfacet
  facet normal 0 0 1
    outer loop
      vertex 49.6736 -36.09 6
      vertex 46.2895 -43.4687 6
      vertex 51.3726 -37.3244 6
    endloop
  endfacet
  facet normal -0 0 1
    outer loop
      vertex 44.7587 -42.0312 6
      vertex 46.2895 -43.4687 6
      vertex 49.6736 -36.09 6
    endloop
  endfacet
  facet normal 0 0 1
    outer loop
      vertex 44.7587 -42.0312 6
      vertex 40.4764 -48.9276 6
      vertex 46.2895 -43.4687 6
    endloop
  endfacet
  facet normal -0 0 1
    outer loop
      vertex 39.1378 -47.3095 6
      vertex 40.4764 -48.9276 6
      vertex 44.7587 -42.0312 6
    endloop
  endfacet
  facet normal 0 0 1
    outer loop
      vertex 39.1378 -47.3095 6
      vertex 34.025 -53.6148 6
      vertex 40.4764 -48.9276 6
    endloop
  endfacet
  facet normal -0 0 1
    outer loop
      vertex 32.8998 -51.8417 6
      vertex 34.025 -53.6148 6
      vertex 39.1378 -47.3095 6
    endloop
  endfacet
  facet normal 0 0 1
    outer loop
      vertex 32.8998 -51.8417 6
      vertex 27.037 -57.4565 6
      vertex 34.025 -53.6148 6
    endloop
  endfacet
  facet normal -0 0 1
    outer loop
      vertex 26.1428 -55.5564 6
      vertex 27.037 -57.4565 6
      vertex 32.8998 -51.8417 6
    endloop
  endfacet
  facet normal 0 0 1
    outer loop
      vertex 26.1428 -55.5564 6
      vertex 19.6226 -60.3921 6
      vertex 27.037 -57.4565 6
    endloop
  endfacet
  facet normal -0 0 1
    outer loop
      vertex 18.9736 -58.3949 6
      vertex 19.6226 -60.3921 6
      vertex 26.1428 -55.5564 6
    endloop
  endfacet
  facet normal 0 0 1
    outer loop
      vertex 18.9736 -58.3949 6
      vertex 11.8987 -62.3752 6
      vertex 19.6226 -60.3921 6
    endloop
  endfacet
  facet normal -0 0 1
    outer loop
      vertex 11.5052 -60.3124 6
      vertex 11.8987 -62.3752 6
      vertex 18.9736 -58.3949 6
    endloop
  endfacet
  facet normal 0 0 1
    outer loop
      vertex 11.5052 -60.3124 6
      vertex 3.9872 -63.3747 6
      vertex 11.8987 -62.3752 6
    endloop
  endfacet
  facet normal -0 0 1
    outer loop
      vertex 3.85534 -61.2788 6
      vertex 3.9872 -63.3747 6
      vertex 11.5052 -60.3124 6
    endloop
  endfacet
  facet normal -0 0 1
    outer loop
      vertex -3.85534 -61.2788 6
      vertex 3.9872 -63.3747 6
      vertex 3.85534 -61.2788 6
    endloop
  endfacet
  facet normal 0 0 1
    outer loop
      vertex -3.85534 -61.2788 6
      vertex -3.9872 -63.3747 6
      vertex 3.9872 -63.3747 6
    endloop
  endfacet
  facet normal 0 0 1
    outer loop
      vertex -11.5052 -60.3124 6
      vertex -3.9872 -63.3747 6
      vertex -3.85534 -61.2788 6
    endloop
  endfacet
  facet normal 0 0 1
    outer loop
      vertex -11.5052 -60.3124 6
      vertex -11.8987 -62.3752 6
      vertex -3.9872 -63.3747 6
    endloop
  endfacet
  facet normal 0 0 1
    outer loop
      vertex -18.9736 -58.3949 6
      vertex -11.8987 -62.3752 6
      vertex -11.5052 -60.3124 6
    endloop
  endfacet
  facet normal 0 0 1
    outer loop
      vertex -18.9736 -58.3949 6
      vertex -19.6226 -60.3921 6
      vertex -11.8987 -62.3752 6
    endloop
  endfacet
  facet normal 0 0 1
    outer loop
      vertex -26.1428 -55.5564 6
      vertex -19.6226 -60.3921 6
      vertex -18.9736 -58.3949 6
    endloop
  endfacet
  facet normal 0 0 1
    outer loop
      vertex -26.1428 -55.5564 6
      vertex -27.037 -57.4565 6
      vertex -19.6226 -60.3921 6
    endloop
  endfacet
  facet normal 0 0 1
    outer loop
      vertex -32.8998 -51.8417 6
      vertex -27.037 -57.4565 6
      vertex -26.1428 -55.5564 6
    endloop
  endfacet
  facet normal 0 0 1
    outer loop
      vertex -32.8998 -51.8417 6
      vertex -34.025 -53.6148 6
      vertex -27.037 -57.4565 6
    endloop
  endfacet
  facet normal 0 0 1
    outer loop
      vertex -39.1378 -47.3095 6
      vertex -34.025 -53.6148 6
      vertex -32.8998 -51.8417 6
    endloop
  endfacet
  facet normal 0 0 1
    outer loop
      vertex -39.1378 -47.3095 6
      vertex -40.4764 -48.9276 6
      vertex -34.025 -53.6148 6
    endloop
  endfacet
  facet normal 0 0 1
    outer loop
      vertex -44.7587 -42.0312 6
      vertex -40.4764 -48.9276 6
      vertex -39.1378 -47.3095 6
    endloop
  endfacet
  facet normal 0 0 1
    outer loop
      vertex -44.7587 -42.0312 6
      vertex -46.2895 -43.4687 6
      vertex -40.4764 -48.9276 6
    endloop
  endfacet
  facet normal 0 0 1
    outer loop
      vertex -49.6736 -36.09 6
      vertex -46.2895 -43.4687 6
      vertex -44.7587 -42.0312 6
    endloop
  endfacet
  facet normal 0 0 1
    outer loop
      vertex -49.6736 -36.09 6
      vertex -51.3726 -37.3244 6
      vertex -46.2895 -43.4687 6
    endloop
  endfacet
  facet normal 0 0 1
    outer loop
      vertex -53.8052 -29.5797 6
      vertex -51.3726 -37.3244 6
      vertex -49.6736 -36.09 6
    endloop
  endfacet
  facet normal 0 0 1
    outer loop
      vertex -53.8052 -29.5797 6
      vertex -55.6455 -30.5914 6
      vertex -51.3726 -37.3244 6
    endloop
  endfacet
  facet normal 0 0 1
    outer loop
      vertex -57.0883 -22.6028 6
      vertex -55.6455 -30.5914 6
      vertex -53.8052 -29.5797 6
    endloop
  endfacet
  facet normal 0 0 1
    outer loop
      vertex -57.0883 -22.6028 6
      vertex -59.0408 -23.3759 6
      vertex -55.6455 -30.5914 6
    endloop
  endfacet
  facet normal 0 0 1
    outer loop
      vertex -59.471 -15.2696 6
      vertex -59.0408 -23.3759 6
      vertex -57.0883 -22.6028 6
    endloop
  endfacet
  facet normal 0 0 1
    outer loop
      vertex -61.505 -15.7918 6
      vertex -59.471 -15.2696 6
      vertex -60.9158 -7.69546 6
    endloop
  endfacet
  facet normal 0 0 1
    outer loop
      vertex -59.471 -15.2696 6
      vertex -61.505 -15.7918 6
      vertex -59.0408 -23.3759 6
    endloop
  endfacet
  facet normal 0 0 1
    outer loop
      vertex -62.9993 -7.95866 6
      vertex -60.9158 -7.69546 6
      vertex -61.4 0 6
    endloop
  endfacet
  facet normal 0 0 1
    outer loop
      vertex -60.9158 7.69546 6
      vertex -62.9993 7.95866 6
      vertex -61.4 0 6
    endloop
  endfacet
  facet normal 0 0 1
    outer loop
      vertex -63.5 0 6
      vertex -61.4 0 6
      vertex -62.9993 7.95866 6
    endloop
  endfacet
  facet normal 0 0 1
    outer loop
      vertex -60.9158 -7.69546 6
      vertex -62.9993 -7.95866 6
      vertex -61.505 -15.7918 6
    endloop
  endfacet
  facet normal 0 0 1
    outer loop
      vertex -61.4 0 6
      vertex -63.5 0 6
      vertex -62.9993 -7.95866 6
    endloop
  endfacet
  facet normal -0.481754 0.876307 0
    outer loop
      vertex -27.037 57.4565 0
      vertex -34.025 53.6148 6
      vertex -27.037 57.4565 6
    endloop
  endfacet
  facet normal -0.481754 0.876307 0
    outer loop
      vertex -34.025 53.6148 6
      vertex -27.037 57.4565 0
      vertex -34.025 53.6148 0
    endloop
  endfacet
  facet normal 0.998027 -0.0627906 0
    outer loop
      vertex 62.9993 -7.95866 6
      vertex 63.5 0 0
      vertex 63.5 0 6
    endloop
  endfacet
  facet normal 0.998027 -0.0627906 0
    outer loop
      vertex 63.5 0 0
      vertex 62.9993 -7.95866 6
      vertex 62.9993 -7.95866 0
    endloop
  endfacet
  facet normal 0.770513 -0.637424 0
    outer loop
      vertex 46.2895 -43.4687 6
      vertex 51.3726 -37.3244 0
      vertex 51.3726 -37.3244 6
    endloop
  endfacet
  facet normal 0.770513 -0.637424 0
    outer loop
      vertex 51.3726 -37.3244 0
      vertex 46.2895 -43.4687 6
      vertex 46.2895 -43.4687 0
    endloop
  endfacet
  facet normal 0.951056 -0.309017 0
    outer loop
      vertex 59.0408 -23.3759 6
      vertex 61.505 -15.7918 0
      vertex 61.505 -15.7918 6
    endloop
  endfacet
  facet normal 0.951056 -0.309017 0
    outer loop
      vertex 61.505 -15.7918 0
      vertex 59.0408 -23.3759 6
      vertex 59.0408 -23.3759 0
    endloop
  endfacet
  facet normal 0.982287 -0.187381 0
    outer loop
      vertex 61.505 -15.7918 6
      vertex 62.9993 -7.95866 0
      vertex 62.9993 -7.95866 6
    endloop
  endfacet
  facet normal 0.982287 -0.187381 0
    outer loop
      vertex 62.9993 -7.95866 0
      vertex 61.505 -15.7918 6
      vertex 61.505 -15.7918 0
    endloop
  endfacet
  facet normal 0 0 -1
    outer loop
      vertex 62.9993 -7.95866 0
      vertex 62.9993 7.95866 0
      vertex 63.5 0 0
    endloop
  endfacet
  facet normal 0 0 -1
    outer loop
      vertex 61.505 -15.7918 0
      vertex 62.9993 7.95866 0
      vertex 62.9993 -7.95866 0
    endloop
  endfacet
  facet normal 0 0 -1
    outer loop
      vertex 61.505 -15.7918 0
      vertex 61.505 15.7918 0
      vertex 62.9993 7.95866 0
    endloop
  endfacet
  facet normal 0 0 -1
    outer loop
      vertex 59.0408 -23.3759 0
      vertex 61.505 15.7918 0
      vertex 61.505 -15.7918 0
    endloop
  endfacet
  facet normal 0 0 -1
    outer loop
      vertex 59.0408 -23.3759 0
      vertex 59.0408 23.3759 0
      vertex 61.505 15.7918 0
    endloop
  endfacet
  facet normal 0 0 -1
    outer loop
      vertex 55.6455 -30.5914 0
      vertex 59.0408 23.3759 0
      vertex 59.0408 -23.3759 0
    endloop
  endfacet
  facet normal 0 0 -1
    outer loop
      vertex 55.6455 -30.5914 0
      vertex 55.6455 30.5914 0
      vertex 59.0408 23.3759 0
    endloop
  endfacet
  facet normal 0 0 -1
    outer loop
      vertex 51.3726 -37.3244 0
      vertex 55.6455 30.5914 0
      vertex 55.6455 -30.5914 0
    endloop
  endfacet
  facet normal 0 0 -1
    outer loop
      vertex 51.3726 -37.3244 0
      vertex 51.3726 37.3244 0
      vertex 55.6455 30.5914 0
    endloop
  endfacet
  facet normal 0 0 -1
    outer loop
      vertex 46.2895 -43.4687 0
      vertex 51.3726 37.3244 0
      vertex 51.3726 -37.3244 0
    endloop
  endfacet
  facet normal 0 0 -1
    outer loop
      vertex 46.2895 -43.4687 0
      vertex 46.2895 43.4687 0
      vertex 51.3726 37.3244 0
    endloop
  endfacet
  facet normal 0 0 -1
    outer loop
      vertex 40.4764 -48.9276 0
      vertex 46.2895 43.4687 0
      vertex 46.2895 -43.4687 0
    endloop
  endfacet
  facet normal 0 0 -1
    outer loop
      vertex 40.4764 -48.9276 0
      vertex 40.4764 48.9276 0
      vertex 46.2895 43.4687 0
    endloop
  endfacet
  facet normal 0 0 -1
    outer loop
      vertex 34.025 -53.6148 0
      vertex 40.4764 48.9276 0
      vertex 40.4764 -48.9276 0
    endloop
  endfacet
  facet normal 0 0 -1
    outer loop
      vertex 34.025 -53.6148 0
      vertex 34.025 53.6148 0
      vertex 40.4764 48.9276 0
    endloop
  endfacet
  facet normal 0 0 -1
    outer loop
      vertex 27.037 -57.4565 0
      vertex 34.025 53.6148 0
      vertex 34.025 -53.6148 0
    endloop
  endfacet
  facet normal 0 0 -1
    outer loop
      vertex 27.037 -57.4565 0
      vertex 27.037 57.4565 0
      vertex 34.025 53.6148 0
    endloop
  endfacet
  facet normal 0 0 -1
    outer loop
      vertex 19.6226 -60.3921 0
      vertex 27.037 57.4565 0
      vertex 27.037 -57.4565 0
    endloop
  endfacet
  facet normal 0 0 -1
    outer loop
      vertex 19.6226 -60.3921 0
      vertex 19.6226 60.3921 0
      vertex 27.037 57.4565 0
    endloop
  endfacet
  facet normal 0 0 -1
    outer loop
      vertex 11.8987 -62.3752 0
      vertex 19.6226 60.3921 0
      vertex 19.6226 -60.3921 0
    endloop
  endfacet
  facet normal 0 0 -1
    outer loop
      vertex 11.8987 -62.3752 0
      vertex 11.8987 62.3752 0
      vertex 19.6226 60.3921 0
    endloop
  endfacet
  facet normal 0 0 -1
    outer loop
      vertex 3.9872 -63.3747 0
      vertex 11.8987 62.3752 0
      vertex 11.8987 -62.3752 0
    endloop
  endfacet
  facet normal 0 0 -1
    outer loop
      vertex 3.9872 -63.3747 0
      vertex 3.9872 63.3747 0
      vertex 11.8987 62.3752 0
    endloop
  endfacet
  facet normal 0 0 -1
    outer loop
      vertex -3.9872 -63.3747 0
      vertex 3.9872 63.3747 0
      vertex 3.9872 -63.3747 0
    endloop
  endfacet
  facet normal 0 0 -1
    outer loop
      vertex -3.9872 -63.3747 0
      vertex -3.9872 63.3747 0
      vertex 3.9872 63.3747 0
    endloop
  endfacet
  facet normal 0 0 -1
    outer loop
      vertex -11.8987 -62.3752 0
      vertex -3.9872 63.3747 0
      vertex -3.9872 -63.3747 0
    endloop
  endfacet
  facet normal 0 0 -1
    outer loop
      vertex -11.8987 -62.3752 0
      vertex -11.8987 62.3752 0
      vertex -3.9872 63.3747 0
    endloop
  endfacet
  facet normal 0 0 -1
    outer loop
      vertex -19.6226 -60.3921 0
      vertex -11.8987 62.3752 0
      vertex -11.8987 -62.3752 0
    endloop
  endfacet
  facet normal 0 0 -1
    outer loop
      vertex -19.6226 -60.3921 0
      vertex -19.6226 60.3921 0
      vertex -11.8987 62.3752 0
    endloop
  endfacet
  facet normal 0 0 -1
    outer loop
      vertex -27.037 -57.4565 0
      vertex -19.6226 60.3921 0
      vertex -19.6226 -60.3921 0
    endloop
  endfacet
  facet normal 0 0 -1
    outer loop
      vertex -27.037 -57.4565 0
      vertex -27.037 57.4565 0
      vertex -19.6226 60.3921 0
    endloop
  endfacet
  facet normal 0 0 -1
    outer loop
      vertex -34.025 -53.6148 0
      vertex -27.037 57.4565 0
      vertex -27.037 -57.4565 0
    endloop
  endfacet
  facet normal 0 0 -1
    outer loop
      vertex -34.025 -53.6148 0
      vertex -34.025 53.6148 0
      vertex -27.037 57.4565 0
    endloop
  endfacet
  facet normal 0 0 -1
    outer loop
      vertex -40.4764 -48.9276 0
      vertex -34.025 53.6148 0
      vertex -34.025 -53.6148 0
    endloop
  endfacet
  facet normal 0 0 -1
    outer loop
      vertex -40.4764 -48.9276 0
      vertex -40.4764 48.9276 0
      vertex -34.025 53.6148 0
    endloop
  endfacet
  facet normal 0 0 -1
    outer loop
      vertex -46.2895 -43.4687 0
      vertex -40.4764 48.9276 0
      vertex -40.4764 -48.9276 0
    endloop
  endfacet
  facet normal 0 0 -1
    outer loop
      vertex -46.2895 -43.4687 0
      vertex -46.2895 43.4687 0
      vertex -40.4764 48.9276 0
    endloop
  endfacet
  facet normal 0 0 -1
    outer loop
      vertex -51.3726 -37.3244 0
      vertex -46.2895 43.4687 0
      vertex -46.2895 -43.4687 0
    endloop
  endfacet
  facet normal 0 0 -1
    outer loop
      vertex -51.3726 -37.3244 0
      vertex -51.3726 37.3244 0
      vertex -46.2895 43.4687 0
    endloop
  endfacet
  facet normal 0 0 -1
    outer loop
      vertex -55.6455 -30.5914 0
      vertex -51.3726 37.3244 0
      vertex -51.3726 -37.3244 0
    endloop
  endfacet
  facet normal 0 0 -1
    outer loop
      vertex -55.6455 -30.5914 0
      vertex -55.6455 30.5914 0
      vertex -51.3726 37.3244 0
    endloop
  endfacet
  facet normal 0 0 -1
    outer loop
      vertex -59.0408 -23.3759 0
      vertex -55.6455 30.5914 0
      vertex -55.6455 -30.5914 0
    endloop
  endfacet
  facet normal 0 0 -1
    outer loop
      vertex -59.0408 -23.3759 0
      vertex -59.0408 23.3759 0
      vertex -55.6455 30.5914 0
    endloop
  endfacet
  facet normal 0 0 -1
    outer loop
      vertex -61.505 -15.7918 0
      vertex -59.0408 23.3759 0
      vertex -59.0408 -23.3759 0
    endloop
  endfacet
  facet normal 0 0 -1
    outer loop
      vertex -61.505 -15.7918 0
      vertex -61.505 15.7918 0
      vertex -59.0408 23.3759 0
    endloop
  endfacet
  facet normal 0 0 -1
    outer loop
      vertex -62.9993 -7.95866 0
      vertex -61.505 15.7918 0
      vertex -61.505 -15.7918 0
    endloop
  endfacet
  facet normal 0 0 -1
    outer loop
      vertex -62.9993 -7.95866 0
      vertex -62.9993 7.95866 0
      vertex -61.505 15.7918 0
    endloop
  endfacet
  facet normal 0 -0 -1
    outer loop
      vertex -62.9993 7.95866 0
      vertex -62.9993 -7.95866 0
      vertex -63.5 0 0
    endloop
  endfacet
  facet normal 0.368125 -0.929776 0
    outer loop
      vertex 19.6226 -60.3921 0
      vertex 27.037 -57.4565 6
      vertex 19.6226 -60.3921 6
    endloop
  endfacet
  facet normal 0.368125 -0.929776 0
    outer loop
      vertex 27.037 -57.4565 6
      vertex 19.6226 -60.3921 0
      vertex 27.037 -57.4565 0
    endloop
  endfacet
  facet normal -0.24869 0.968583 0
    outer loop
      vertex -11.8987 62.3752 0
      vertex -19.6226 60.3921 6
      vertex -11.8987 62.3752 6
    endloop
  endfacet
  facet normal -0.24869 0.968583 0
    outer loop
      vertex -19.6226 60.3921 6
      vertex -11.8987 62.3752 0
      vertex -19.6226 60.3921 0
    endloop
  endfacet
  facet normal 0.684547 -0.728969 0
    outer loop
      vertex 40.4764 -48.9276 0
      vertex 46.2895 -43.4687 6
      vertex 40.4764 -48.9276 6
    endloop
  endfacet
  facet normal 0.684547 -0.728969 0
    outer loop
      vertex 46.2895 -43.4687 6
      vertex 40.4764 -48.9276 0
      vertex 46.2895 -43.4687 0
    endloop
  endfacet
  facet normal 0.844328 -0.535827 0
    outer loop
      vertex 51.3726 -37.3244 6
      vertex 55.6455 -30.5914 0
      vertex 55.6455 -30.5914 6
    endloop
  endfacet
  facet normal 0.844328 -0.535827 0
    outer loop
      vertex 55.6455 -30.5914 0
      vertex 51.3726 -37.3244 6
      vertex 51.3726 -37.3244 0
    endloop
  endfacet
  facet normal -0.368125 -0.929776 0
    outer loop
      vertex -27.037 -57.4565 0
      vertex -19.6226 -60.3921 6
      vertex -27.037 -57.4565 6
    endloop
  endfacet
  facet normal -0.368125 -0.929776 -0
    outer loop
      vertex -19.6226 -60.3921 6
      vertex -27.037 -57.4565 0
      vertex -19.6226 -60.3921 0
    endloop
  endfacet
  facet normal -0.770513 -0.637424 0
    outer loop
      vertex -46.2895 -43.4687 0
      vertex -51.3726 -37.3244 6
      vertex -51.3726 -37.3244 0
    endloop
  endfacet
  facet normal -0.770513 -0.637424 0
    outer loop
      vertex -51.3726 -37.3244 6
      vertex -46.2895 -43.4687 0
      vertex -46.2895 -43.4687 6
    endloop
  endfacet
  facet normal -0.951056 -0.309017 0
    outer loop
      vertex -59.0408 -23.3759 0
      vertex -61.505 -15.7918 6
      vertex -61.505 -15.7918 0
    endloop
  endfacet
  facet normal -0.951056 -0.309017 0
    outer loop
      vertex -61.505 -15.7918 6
      vertex -59.0408 -23.3759 0
      vertex -59.0408 -23.3759 6
    endloop
  endfacet
  facet normal 0.24869 -0.968583 0
    outer loop
      vertex 11.8987 -62.3752 0
      vertex 19.6226 -60.3921 6
      vertex 11.8987 -62.3752 6
    endloop
  endfacet
  facet normal 0.24869 -0.968583 0
    outer loop
      vertex 19.6226 -60.3921 6
      vertex 11.8987 -62.3752 0
      vertex 19.6226 -60.3921 0
    endloop
  endfacet
  facet normal 0.481754 -0.876307 0
    outer loop
      vertex 27.037 -57.4565 0
      vertex 34.025 -53.6148 6
      vertex 27.037 -57.4565 6
    endloop
  endfacet
  facet normal 0.481754 -0.876307 0
    outer loop
      vertex 34.025 -53.6148 6
      vertex 27.037 -57.4565 0
      vertex 34.025 -53.6148 0
    endloop
  endfacet
  facet normal 0.587785 -0.809017 0
    outer loop
      vertex 34.025 -53.6148 0
      vertex 40.4764 -48.9276 6
      vertex 34.025 -53.6148 6
    endloop
  endfacet
  facet normal 0.587785 -0.809017 0
    outer loop
      vertex 40.4764 -48.9276 6
      vertex 34.025 -53.6148 0
      vertex 40.4764 -48.9276 0
    endloop
  endfacet
  facet normal 0.904827 -0.425779 0
    outer loop
      vertex 55.6455 -30.5914 6
      vertex 59.0408 -23.3759 0
      vertex 59.0408 -23.3759 6
    endloop
  endfacet
  facet normal 0.904827 -0.425779 0
    outer loop
      vertex 59.0408 -23.3759 0
      vertex 55.6455 -30.5914 6
      vertex 55.6455 -30.5914 0
    endloop
  endfacet
  facet normal -0.125333 -0.992115 0
    outer loop
      vertex -11.8987 -62.3752 0
      vertex -3.9872 -63.3747 6
      vertex -11.8987 -62.3752 6
    endloop
  endfacet
  facet normal -0.125333 -0.992115 -0
    outer loop
      vertex -3.9872 -63.3747 6
      vertex -11.8987 -62.3752 0
      vertex -3.9872 -63.3747 0
    endloop
  endfacet
  facet normal -0.587785 -0.809017 0
    outer loop
      vertex -40.4764 -48.9276 0
      vertex -34.025 -53.6148 6
      vertex -40.4764 -48.9276 6
    endloop
  endfacet
  facet normal -0.587785 -0.809017 -0
    outer loop
      vertex -34.025 -53.6148 6
      vertex -40.4764 -48.9276 0
      vertex -34.025 -53.6148 0
    endloop
  endfacet
  facet normal -0.24869 -0.968583 0
    outer loop
      vertex -19.6226 -60.3921 0
      vertex -11.8987 -62.3752 6
      vertex -19.6226 -60.3921 6
    endloop
  endfacet
  facet normal -0.24869 -0.968583 -0
    outer loop
      vertex -11.8987 -62.3752 6
      vertex -19.6226 -60.3921 0
      vertex -11.8987 -62.3752 0
    endloop
  endfacet
  facet normal -0.684547 -0.728969 0
    outer loop
      vertex -46.2895 -43.4687 0
      vertex -40.4764 -48.9276 6
      vertex -46.2895 -43.4687 6
    endloop
  endfacet
  facet normal -0.684547 -0.728969 -0
    outer loop
      vertex -40.4764 -48.9276 6
      vertex -46.2895 -43.4687 0
      vertex -40.4764 -48.9276 0
    endloop
  endfacet
  facet normal -0.904827 -0.425779 0
    outer loop
      vertex -55.6455 -30.5914 0
      vertex -59.0408 -23.3759 6
      vertex -59.0408 -23.3759 0
    endloop
  endfacet
  facet normal -0.904827 -0.425779 0
    outer loop
      vertex -59.0408 -23.3759 6
      vertex -55.6455 -30.5914 0
      vertex -55.6455 -30.5914 6
    endloop
  endfacet
  facet normal -0.844328 -0.535827 0
    outer loop
      vertex -51.3726 -37.3244 0
      vertex -55.6455 -30.5914 6
      vertex -55.6455 -30.5914 0
    endloop
  endfacet
  facet normal -0.844328 -0.535827 0
    outer loop
      vertex -55.6455 -30.5914 6
      vertex -51.3726 -37.3244 0
      vertex -51.3726 -37.3244 6
    endloop
  endfacet
  facet normal -0.982287 -0.187381 0
    outer loop
      vertex -61.505 -15.7918 0
      vertex -62.9993 -7.95866 6
      vertex -62.9993 -7.95866 0
    endloop
  endfacet
  facet normal -0.982287 -0.187381 0
    outer loop
      vertex -62.9993 -7.95866 6
      vertex -61.505 -15.7918 0
      vertex -61.505 -15.7918 6
    endloop
  endfacet
  facet normal -0.998027 -0.0627906 0
    outer loop
      vertex -62.9993 -7.95866 0
      vertex -63.5 0 6
      vertex -63.5 0 0
    endloop
  endfacet
  facet normal -0.998027 -0.0627906 0
    outer loop
      vertex -63.5 0 6
      vertex -62.9993 -7.95866 0
      vertex -62.9993 -7.95866 6
    endloop
  endfacet
  facet normal -0.481754 -0.876307 0
    outer loop
      vertex -34.025 -53.6148 0
      vertex -27.037 -57.4565 6
      vertex -34.025 -53.6148 6
    endloop
  endfacet
  facet normal -0.481754 -0.876307 -0
    outer loop
      vertex -27.037 -57.4565 6
      vertex -34.025 -53.6148 0
      vertex -27.037 -57.4565 0
    endloop
  endfacet
  facet normal 0.998027 0.062791 0
    outer loop
      vertex 61.4 0 10
      vertex 60.9158 7.69546 6
      vertex 60.9158 7.69546 10
    endloop
  endfacet
  facet normal 0.998027 0.062791 0
    outer loop
      vertex 60.9158 7.69546 6
      vertex 61.4 0 10
      vertex 61.4 0 6
    endloop
  endfacet
  facet normal -0.998027 0.062791 0
    outer loop
      vertex -61.4 0 6
      vertex -60.9158 7.69546 10
      vertex -60.9158 7.69546 6
    endloop
  endfacet
  facet normal -0.998027 0.062791 0
    outer loop
      vertex -60.9158 7.69546 10
      vertex -61.4 0 6
      vertex -61.4 0 10
    endloop
  endfacet
  facet normal 0 1 -0
    outer loop
      vertex 3.85534 61.2788 6
      vertex -3.85534 61.2788 10
      vertex 3.85534 61.2788 10
    endloop
  endfacet
  facet normal 0 1 0
    outer loop
      vertex -3.85534 61.2788 10
      vertex 3.85534 61.2788 6
      vertex -3.85534 61.2788 6
    endloop
  endfacet
  facet normal 0 -1 0
    outer loop
      vertex -3.85534 -61.2788 6
      vertex 3.85534 -61.2788 10
      vertex -3.85534 -61.2788 10
    endloop
  endfacet
  facet normal 0 -1 -0
    outer loop
      vertex 3.85534 -61.2788 10
      vertex -3.85534 -61.2788 6
      vertex 3.85534 -61.2788 6
    endloop
  endfacet
  facet normal 0.770513 -0.637424 0
    outer loop
      vertex 44.7587 -42.0312 10
      vertex 49.6736 -36.09 6
      vertex 49.6736 -36.09 10
    endloop
  endfacet
  facet normal 0.770513 -0.637424 0
    outer loop
      vertex 49.6736 -36.09 6
      vertex 44.7587 -42.0312 10
      vertex 44.7587 -42.0312 6
    endloop
  endfacet
  facet normal 0.684547 0.728969 -0
    outer loop
      vertex 44.7587 42.0312 6
      vertex 39.1378 47.3095 10
      vertex 44.7587 42.0312 10
    endloop
  endfacet
  facet normal 0.684547 0.728969 0
    outer loop
      vertex 39.1378 47.3095 10
      vertex 44.7587 42.0312 6
      vertex 39.1378 47.3095 6
    endloop
  endfacet
  facet normal -0.684547 0.728969 0
    outer loop
      vertex -39.1378 47.3095 6
      vertex -44.7587 42.0312 10
      vertex -39.1378 47.3095 10
    endloop
  endfacet
  facet normal -0.684547 0.728969 0
    outer loop
      vertex -44.7587 42.0312 10
      vertex -39.1378 47.3095 6
      vertex -44.7587 42.0312 6
    endloop
  endfacet
  facet normal -0.368125 0.929776 0
    outer loop
      vertex -18.9736 58.3949 6
      vertex -26.1428 55.5564 10
      vertex -18.9736 58.3949 10
    endloop
  endfacet
  facet normal -0.368125 0.929776 0
    outer loop
      vertex -26.1428 55.5564 10
      vertex -18.9736 58.3949 6
      vertex -26.1428 55.5564 6
    endloop
  endfacet
  facet normal 0.904827 0.425779 0
    outer loop
      vertex 57.0883 22.6028 10
      vertex 53.8052 29.5797 6
      vertex 53.8052 29.5797 10
    endloop
  endfacet
  facet normal 0.904827 0.425779 0
    outer loop
      vertex 53.8052 29.5797 6
      vertex 57.0883 22.6028 10
      vertex 57.0883 22.6028 6
    endloop
  endfacet
  facet normal 0.844328 0.535826 0
    outer loop
      vertex 53.8052 29.5797 10
      vertex 49.6736 36.09 6
      vertex 49.6736 36.09 10
    endloop
  endfacet
  facet normal 0.844328 0.535826 0
    outer loop
      vertex 49.6736 36.09 6
      vertex 53.8052 29.5797 10
      vertex 53.8052 29.5797 6
    endloop
  endfacet
  facet normal 0.368125 0.929776 -0
    outer loop
      vertex 26.1428 55.5564 6
      vertex 18.9736 58.3949 10
      vertex 26.1428 55.5564 10
    endloop
  endfacet
  facet normal 0.368125 0.929776 0
    outer loop
      vertex 18.9736 58.3949 10
      vertex 26.1428 55.5564 6
      vertex 18.9736 58.3949 6
    endloop
  endfacet
  facet normal 0.24869 0.968583 -0
    outer loop
      vertex 18.9736 58.3949 6
      vertex 11.5052 60.3124 10
      vertex 18.9736 58.3949 10
    endloop
  endfacet
  facet normal 0.24869 0.968583 0
    outer loop
      vertex 11.5052 60.3124 10
      vertex 18.9736 58.3949 6
      vertex 11.5052 60.3124 6
    endloop
  endfacet
  facet normal 0.587785 0.809017 -0
    outer loop
      vertex 39.1378 47.3095 6
      vertex 32.8998 51.8417 10
      vertex 39.1378 47.3095 10
    endloop
  endfacet
  facet normal 0.587785 0.809017 0
    outer loop
      vertex 32.8998 51.8417 10
      vertex 39.1378 47.3095 6
      vertex 32.8998 51.8417 6
    endloop
  endfacet
  facet normal -0.844328 0.535826 0
    outer loop
      vertex -53.8052 29.5797 6
      vertex -49.6736 36.09 10
      vertex -49.6736 36.09 6
    endloop
  endfacet
  facet normal -0.844328 0.535826 0
    outer loop
      vertex -49.6736 36.09 10
      vertex -53.8052 29.5797 6
      vertex -53.8052 29.5797 10
    endloop
  endfacet
  facet normal -0.770513 0.637424 0
    outer loop
      vertex -49.6736 36.09 6
      vertex -44.7587 42.0312 10
      vertex -44.7587 42.0312 6
    endloop
  endfacet
  facet normal -0.770513 0.637424 0
    outer loop
      vertex -44.7587 42.0312 10
      vertex -49.6736 36.09 6
      vertex -49.6736 36.09 10
    endloop
  endfacet
  facet normal 0 0 1
    outer loop
      vertex 60.5 0 10
      vertex 61.4 0 10
      vertex 60.9158 7.69546 10
    endloop
  endfacet
  facet normal 0 0 1
    outer loop
      vertex 61.4 0 10
      vertex 60.5 0 10
      vertex 60.9158 -7.69546 10
    endloop
  endfacet
  facet normal 0 0 1
    outer loop
      vertex 60.9158 7.69546 10
      vertex 60.0229 7.58266 10
      vertex 60.5 0 10
    endloop
  endfacet
  facet normal 0 0 1
    outer loop
      vertex 59.471 15.2696 10
      vertex 60.0229 7.58266 10
      vertex 60.9158 7.69546 10
    endloop
  endfacet
  facet normal 0 0 1
    outer loop
      vertex 59.471 15.2696 10
      vertex 58.5993 15.0457 10
      vertex 60.0229 7.58266 10
    endloop
  endfacet
  facet normal 0 0 1
    outer loop
      vertex 57.0883 22.6028 10
      vertex 58.5993 15.0457 10
      vertex 59.471 15.2696 10
    endloop
  endfacet
  facet normal 0 0 1
    outer loop
      vertex 57.0883 22.6028 10
      vertex 56.2515 22.2715 10
      vertex 58.5993 15.0457 10
    endloop
  endfacet
  facet normal 0 0 1
    outer loop
      vertex 53.8052 29.5797 10
      vertex 56.2515 22.2715 10
      vertex 57.0883 22.6028 10
    endloop
  endfacet
  facet normal 0 0 1
    outer loop
      vertex 53.8052 29.5797 10
      vertex 53.0166 29.1461 10
      vertex 56.2515 22.2715 10
    endloop
  endfacet
  facet normal 0 0 1
    outer loop
      vertex 49.6736 36.09 10
      vertex 53.0166 29.1461 10
      vertex 53.8052 29.5797 10
    endloop
  endfacet
  facet normal 0 0 1
    outer loop
      vertex 49.6736 36.09 10
      vertex 48.9455 35.561 10
      vertex 53.0166 29.1461 10
    endloop
  endfacet
  facet normal 0 0 1
    outer loop
      vertex 44.7587 42.0312 10
      vertex 48.9455 35.561 10
      vertex 49.6736 36.09 10
    endloop
  endfacet
  facet normal 0 0 1
    outer loop
      vertex 44.7587 42.0312 10
      vertex 44.1026 41.4151 10
      vertex 48.9455 35.561 10
    endloop
  endfacet
  facet normal 0 0 1
    outer loop
      vertex 39.1378 47.3095 10
      vertex 44.1026 41.4151 10
      vertex 44.7587 42.0312 10
    endloop
  endfacet
  facet normal 0 0 1
    outer loop
      vertex 39.1378 47.3095 10
      vertex 38.5642 46.6161 10
      vertex 44.1026 41.4151 10
    endloop
  endfacet
  facet normal 0 0 1
    outer loop
      vertex 32.8998 51.8417 10
      vertex 38.5642 46.6161 10
      vertex 39.1378 47.3095 10
    endloop
  endfacet
  facet normal 0 0 1
    outer loop
      vertex 32.8998 51.8417 10
      vertex 32.4175 51.0818 10
      vertex 38.5642 46.6161 10
    endloop
  endfacet
  facet normal 0 0 1
    outer loop
      vertex 26.1428 55.5564 10
      vertex 32.4175 51.0818 10
      vertex 32.8998 51.8417 10
    endloop
  endfacet
  facet normal 0 0 1
    outer loop
      vertex 26.1428 55.5564 10
      vertex 25.7596 54.742 10
      vertex 32.4175 51.0818 10
    endloop
  endfacet
  facet normal 0 0 1
    outer loop
      vertex 18.9736 58.3949 10
      vertex 25.7596 54.742 10
      vertex 26.1428 55.5564 10
    endloop
  endfacet
  facet normal 0 0 1
    outer loop
      vertex 18.9736 58.3949 10
      vertex 18.6955 57.5389 10
      vertex 25.7596 54.742 10
    endloop
  endfacet
  facet normal 0 0 1
    outer loop
      vertex 11.5052 60.3124 10
      vertex 18.6955 57.5389 10
      vertex 18.9736 58.3949 10
    endloop
  endfacet
  facet normal 0 0 1
    outer loop
      vertex 11.5052 60.3124 10
      vertex 11.3366 59.4284 10
      vertex 18.6955 57.5389 10
    endloop
  endfacet
  facet normal 0 0 1
    outer loop
      vertex 3.85534 61.2788 10
      vertex 11.3366 59.4284 10
      vertex 11.5052 60.3124 10
    endloop
  endfacet
  facet normal 0 0 1
    outer loop
      vertex 3.85534 61.2788 10
      vertex 3.79883 60.3806 10
      vertex 11.3366 59.4284 10
    endloop
  endfacet
  facet normal 0 0 1
    outer loop
      vertex 3.85534 61.2788 10
      vertex -3.79883 60.3806 10
      vertex 3.79883 60.3806 10
    endloop
  endfacet
  facet normal -0 0 1
    outer loop
      vertex -3.85534 61.2788 10
      vertex -3.79883 60.3806 10
      vertex 3.85534 61.2788 10
    endloop
  endfacet
  facet normal 0 0 1
    outer loop
      vertex -3.85534 61.2788 10
      vertex -11.3366 59.4284 10
      vertex -3.79883 60.3806 10
    endloop
  endfacet
  facet normal -0 0 1
    outer loop
      vertex -11.5052 60.3124 10
      vertex -11.3366 59.4284 10
      vertex -3.85534 61.2788 10
    endloop
  endfacet
  facet normal 0 0 1
    outer loop
      vertex -11.5052 60.3124 10
      vertex -18.6955 57.5389 10
      vertex -11.3366 59.4284 10
    endloop
  endfacet
  facet normal -0 0 1
    outer loop
      vertex -18.9736 58.3949 10
      vertex -18.6955 57.5389 10
      vertex -11.5052 60.3124 10
    endloop
  endfacet
  facet normal 0 0 1
    outer loop
      vertex -18.9736 58.3949 10
      vertex -25.7596 54.742 10
      vertex -18.6955 57.5389 10
    endloop
  endfacet
  facet normal -0 0 1
    outer loop
      vertex -26.1428 55.5564 10
      vertex -25.7596 54.742 10
      vertex -18.9736 58.3949 10
    endloop
  endfacet
  facet normal 0 0 1
    outer loop
      vertex -26.1428 55.5564 10
      vertex -32.4175 51.0818 10
      vertex -25.7596 54.742 10
    endloop
  endfacet
  facet normal -0 0 1
    outer loop
      vertex -32.8998 51.8417 10
      vertex -32.4175 51.0818 10
      vertex -26.1428 55.5564 10
    endloop
  endfacet
  facet normal 0 0 1
    outer loop
      vertex -32.8998 51.8417 10
      vertex -38.5642 46.6161 10
      vertex -32.4175 51.0818 10
    endloop
  endfacet
  facet normal -0 0 1
    outer loop
      vertex -39.1378 47.3095 10
      vertex -38.5642 46.6161 10
      vertex -32.8998 51.8417 10
    endloop
  endfacet
  facet normal 0 0 1
    outer loop
      vertex -39.1378 47.3095 10
      vertex -44.1026 41.4151 10
      vertex -38.5642 46.6161 10
    endloop
  endfacet
  facet normal -0 0 1
    outer loop
      vertex -44.7587 42.0312 10
      vertex -44.1026 41.4151 10
      vertex -39.1378 47.3095 10
    endloop
  endfacet
  facet normal 0 0 1
    outer loop
      vertex -44.7587 42.0312 10
      vertex -48.9455 35.561 10
      vertex -44.1026 41.4151 10
    endloop
  endfacet
  facet normal -0 0 1
    outer loop
      vertex -49.6736 36.09 10
      vertex -48.9455 35.561 10
      vertex -44.7587 42.0312 10
    endloop
  endfacet
  facet normal 0 0 1
    outer loop
      vertex -49.6736 36.09 10
      vertex -53.0166 29.1461 10
      vertex -48.9455 35.561 10
    endloop
  endfacet
  facet normal -0 0 1
    outer loop
      vertex -53.8052 29.5797 10
      vertex -53.0166 29.1461 10
      vertex -49.6736 36.09 10
    endloop
  endfacet
  facet normal 0 0 1
    outer loop
      vertex -53.8052 29.5797 10
      vertex -56.2515 22.2715 10
      vertex -53.0166 29.1461 10
    endloop
  endfacet
  facet normal -0 0 1
    outer loop
      vertex -57.0883 22.6028 10
      vertex -56.2515 22.2715 10
      vertex -53.8052 29.5797 10
    endloop
  endfacet
  facet normal 0 0 1
    outer loop
      vertex -57.0883 22.6028 10
      vertex -58.5993 15.0457 10
      vertex -56.2515 22.2715 10
    endloop
  endfacet
  facet normal -0 0 1
    outer loop
      vertex -59.471 15.2696 10
      vertex -58.5993 15.0457 10
      vertex -57.0883 22.6028 10
    endloop
  endfacet
  facet normal 0 0 1
    outer loop
      vertex -59.471 15.2696 10
      vertex -60.0229 7.58266 10
      vertex -58.5993 15.0457 10
    endloop
  endfacet
  facet normal 0 0 1
    outer loop
      vertex -60.0229 7.58266 10
      vertex -60.9158 7.69546 10
      vertex -60.5 0 10
    endloop
  endfacet
  facet normal -0 0 1
    outer loop
      vertex -60.9158 7.69546 10
      vertex -60.0229 7.58266 10
      vertex -59.471 15.2696 10
    endloop
  endfacet
  facet normal -0 0 1
    outer loop
      vertex 60.0229 -7.58266 10
      vertex 60.9158 -7.69546 10
      vertex 60.5 0 10
    endloop
  endfacet
  facet normal 0 0 1
    outer loop
      vertex 60.0229 -7.58266 10
      vertex 59.471 -15.2696 10
      vertex 60.9158 -7.69546 10
    endloop
  endfacet
  facet normal -0 0 1
    outer loop
      vertex 58.5993 -15.0457 10
      vertex 59.471 -15.2696 10
      vertex 60.0229 -7.58266 10
    endloop
  endfacet
  facet normal 0 0 1
    outer loop
      vertex 58.5993 -15.0457 10
      vertex 57.0883 -22.6028 10
      vertex 59.471 -15.2696 10
    endloop
  endfacet
  facet normal -0 0 1
    outer loop
      vertex 56.2515 -22.2715 10
      vertex 57.0883 -22.6028 10
      vertex 58.5993 -15.0457 10
    endloop
  endfacet
  facet normal 0 0 1
    outer loop
      vertex 56.2515 -22.2715 10
      vertex 53.8052 -29.5797 10
      vertex 57.0883 -22.6028 10
    endloop
  endfacet
  facet normal -0 0 1
    outer loop
      vertex 53.0166 -29.1461 10
      vertex 53.8052 -29.5797 10
      vertex 56.2515 -22.2715 10
    endloop
  endfacet
  facet normal 0 0 1
    outer loop
      vertex 53.0166 -29.1461 10
      vertex 49.6736 -36.09 10
      vertex 53.8052 -29.5797 10
    endloop
  endfacet
  facet normal -0 0 1
    outer loop
      vertex 48.9455 -35.561 10
      vertex 49.6736 -36.09 10
      vertex 53.0166 -29.1461 10
    endloop
  endfacet
  facet normal 0 0 1
    outer loop
      vertex 48.9455 -35.561 10
      vertex 44.7587 -42.0312 10
      vertex 49.6736 -36.09 10
    endloop
  endfacet
  facet normal -0 0 1
    outer loop
      vertex 44.1026 -41.4151 10
      vertex 44.7587 -42.0312 10
      vertex 48.9455 -35.561 10
    endloop
  endfacet
  facet normal 0 0 1
    outer loop
      vertex 44.1026 -41.4151 10
      vertex 39.1378 -47.3095 10
      vertex 44.7587 -42.0312 10
    endloop
  endfacet
  facet normal -0 0 1
    outer loop
      vertex 38.5642 -46.6161 10
      vertex 39.1378 -47.3095 10
      vertex 44.1026 -41.4151 10
    endloop
  endfacet
  facet normal 0 0 1
    outer loop
      vertex 38.5642 -46.6161 10
      vertex 32.8998 -51.8417 10
      vertex 39.1378 -47.3095 10
    endloop
  endfacet
  facet normal -0 0 1
    outer loop
      vertex 32.4175 -51.0818 10
      vertex 32.8998 -51.8417 10
      vertex 38.5642 -46.6161 10
    endloop
  endfacet
  facet normal 0 0 1
    outer loop
      vertex 32.4175 -51.0818 10
      vertex 26.1428 -55.5564 10
      vertex 32.8998 -51.8417 10
    endloop
  endfacet
  facet normal -0 0 1
    outer loop
      vertex 25.7596 -54.742 10
      vertex 26.1428 -55.5564 10
      vertex 32.4175 -51.0818 10
    endloop
  endfacet
  facet normal 0 0 1
    outer loop
      vertex 25.7596 -54.742 10
      vertex 18.9736 -58.3949 10
      vertex 26.1428 -55.5564 10
    endloop
  endfacet
  facet normal -0 0 1
    outer loop
      vertex 18.6955 -57.5389 10
      vertex 18.9736 -58.3949 10
      vertex 25.7596 -54.742 10
    endloop
  endfacet
  facet normal 0 0 1
    outer loop
      vertex 18.6955 -57.5389 10
      vertex 11.5052 -60.3124 10
      vertex 18.9736 -58.3949 10
    endloop
  endfacet
  facet normal -0 0 1
    outer loop
      vertex 11.3366 -59.4284 10
      vertex 11.5052 -60.3124 10
      vertex 18.6955 -57.5389 10
    endloop
  endfacet
  facet normal 0 0 1
    outer loop
      vertex 11.3366 -59.4284 10
      vertex 3.85534 -61.2788 10
      vertex 11.5052 -60.3124 10
    endloop
  endfacet
  facet normal -0 0 1
    outer loop
      vertex 3.79883 -60.3806 10
      vertex 3.85534 -61.2788 10
      vertex 11.3366 -59.4284 10
    endloop
  endfacet
  facet normal -0 0 1
    outer loop
      vertex -3.79883 -60.3806 10
      vertex 3.85534 -61.2788 10
      vertex 3.79883 -60.3806 10
    endloop
  endfacet
  facet normal 0 0 1
    outer loop
      vertex -3.79883 -60.3806 10
      vertex -3.85534 -61.2788 10
      vertex 3.85534 -61.2788 10
    endloop
  endfacet
  facet normal 0 0 1
    outer loop
      vertex -11.3366 -59.4284 10
      vertex -3.85534 -61.2788 10
      vertex -3.79883 -60.3806 10
    endloop
  endfacet
  facet normal 0 0 1
    outer loop
      vertex -11.3366 -59.4284 10
      vertex -11.5052 -60.3124 10
      vertex -3.85534 -61.2788 10
    endloop
  endfacet
  facet normal 0 0 1
    outer loop
      vertex -18.6955 -57.5389 10
      vertex -11.5052 -60.3124 10
      vertex -11.3366 -59.4284 10
    endloop
  endfacet
  facet normal 0 0 1
    outer loop
      vertex -18.6955 -57.5389 10
      vertex -18.9736 -58.3949 10
      vertex -11.5052 -60.3124 10
    endloop
  endfacet
  facet normal 0 0 1
    outer loop
      vertex -25.7596 -54.742 10
      vertex -18.9736 -58.3949 10
      vertex -18.6955 -57.5389 10
    endloop
  endfacet
  facet normal 0 0 1
    outer loop
      vertex -25.7596 -54.742 10
      vertex -26.1428 -55.5564 10
      vertex -18.9736 -58.3949 10
    endloop
  endfacet
  facet normal 0 0 1
    outer loop
      vertex -32.4175 -51.0818 10
      vertex -26.1428 -55.5564 10
      vertex -25.7596 -54.742 10
    endloop
  endfacet
  facet normal 0 0 1
    outer loop
      vertex -32.4175 -51.0818 10
      vertex -32.8998 -51.8417 10
      vertex -26.1428 -55.5564 10
    endloop
  endfacet
  facet normal 0 0 1
    outer loop
      vertex -38.5642 -46.6161 10
      vertex -32.8998 -51.8417 10
      vertex -32.4175 -51.0818 10
    endloop
  endfacet
  facet normal 0 0 1
    outer loop
      vertex -38.5642 -46.6161 10
      vertex -39.1378 -47.3095 10
      vertex -32.8998 -51.8417 10
    endloop
  endfacet
  facet normal 0 0 1
    outer loop
      vertex -44.1026 -41.4151 10
      vertex -39.1378 -47.3095 10
      vertex -38.5642 -46.6161 10
    endloop
  endfacet
  facet normal 0 0 1
    outer loop
      vertex -44.1026 -41.4151 10
      vertex -44.7587 -42.0312 10
      vertex -39.1378 -47.3095 10
    endloop
  endfacet
  facet normal 0 0 1
    outer loop
      vertex -48.9455 -35.561 10
      vertex -44.7587 -42.0312 10
      vertex -44.1026 -41.4151 10
    endloop
  endfacet
  facet normal 0 0 1
    outer loop
      vertex -48.9455 -35.561 10
      vertex -49.6736 -36.09 10
      vertex -44.7587 -42.0312 10
    endloop
  endfacet
  facet normal 0 0 1
    outer loop
      vertex -53.0166 -29.1461 10
      vertex -49.6736 -36.09 10
      vertex -48.9455 -35.561 10
    endloop
  endfacet
  facet normal 0 0 1
    outer loop
      vertex -53.0166 -29.1461 10
      vertex -53.8052 -29.5797 10
      vertex -49.6736 -36.09 10
    endloop
  endfacet
  facet normal 0 0 1
    outer loop
      vertex -56.2515 -22.2715 10
      vertex -53.8052 -29.5797 10
      vertex -53.0166 -29.1461 10
    endloop
  endfacet
  facet normal 0 0 1
    outer loop
      vertex -56.2515 -22.2715 10
      vertex -57.0883 -22.6028 10
      vertex -53.8052 -29.5797 10
    endloop
  endfacet
  facet normal 0 0 1
    outer loop
      vertex -58.5993 -15.0457 10
      vertex -57.0883 -22.6028 10
      vertex -56.2515 -22.2715 10
    endloop
  endfacet
  facet normal 0 0 1
    outer loop
      vertex -58.5993 -15.0457 10
      vertex -59.471 -15.2696 10
      vertex -57.0883 -22.6028 10
    endloop
  endfacet
  facet normal 0 0 1
    outer loop
      vertex -60.0229 -7.58266 10
      vertex -59.471 -15.2696 10
      vertex -58.5993 -15.0457 10
    endloop
  endfacet
  facet normal 0 0 1
    outer loop
      vertex -60.0229 -7.58266 10
      vertex -60.9158 -7.69546 10
      vertex -59.471 -15.2696 10
    endloop
  endfacet
  facet normal 0 0 1
    outer loop
      vertex -60.5 0 10
      vertex -60.9158 -7.69546 10
      vertex -60.0229 -7.58266 10
    endloop
  endfacet
  facet normal 0 0 1
    outer loop
      vertex -61.4 0 10
      vertex -60.5 0 10
      vertex -60.9158 7.69546 10
    endloop
  endfacet
  facet normal 0 0 1
    outer loop
      vertex -60.5 0 10
      vertex -61.4 0 10
      vertex -60.9158 -7.69546 10
    endloop
  endfacet
  facet normal -0.587785 0.809017 0
    outer loop
      vertex -32.8998 51.8417 6
      vertex -39.1378 47.3095 10
      vertex -32.8998 51.8417 10
    endloop
  endfacet
  facet normal -0.587785 0.809017 0
    outer loop
      vertex -39.1378 47.3095 10
      vertex -32.8998 51.8417 6
      vertex -39.1378 47.3095 6
    endloop
  endfacet
  facet normal -0.24869 0.968583 0
    outer loop
      vertex -11.5052 60.3124 6
      vertex -18.9736 58.3949 10
      vertex -11.5052 60.3124 10
    endloop
  endfacet
  facet normal -0.24869 0.968583 0
    outer loop
      vertex -18.9736 58.3949 10
      vertex -11.5052 60.3124 6
      vertex -18.9736 58.3949 6
    endloop
  endfacet
  facet normal -0.904827 -0.425779 0
    outer loop
      vertex -53.8052 -29.5797 6
      vertex -57.0883 -22.6028 10
      vertex -57.0883 -22.6028 6
    endloop
  endfacet
  facet normal -0.904827 -0.425779 0
    outer loop
      vertex -57.0883 -22.6028 10
      vertex -53.8052 -29.5797 6
      vertex -53.8052 -29.5797 10
    endloop
  endfacet
  facet normal 0.368125 -0.929776 0
    outer loop
      vertex 18.9736 -58.3949 6
      vertex 26.1428 -55.5564 10
      vertex 18.9736 -58.3949 10
    endloop
  endfacet
  facet normal 0.368125 -0.929776 0
    outer loop
      vertex 26.1428 -55.5564 10
      vertex 18.9736 -58.3949 6
      vertex 26.1428 -55.5564 6
    endloop
  endfacet
  facet normal 0.951057 0.309017 0
    outer loop
      vertex 59.471 15.2696 10
      vertex 57.0883 22.6028 6
      vertex 57.0883 22.6028 10
    endloop
  endfacet
  facet normal 0.951057 0.309017 0
    outer loop
      vertex 57.0883 22.6028 6
      vertex 59.471 15.2696 10
      vertex 59.471 15.2696 6
    endloop
  endfacet
  facet normal 0.982287 0.187381 0
    outer loop
      vertex 60.9158 7.69546 10
      vertex 59.471 15.2696 6
      vertex 59.471 15.2696 10
    endloop
  endfacet
  facet normal 0.982287 0.187381 0
    outer loop
      vertex 59.471 15.2696 6
      vertex 60.9158 7.69546 10
      vertex 60.9158 7.69546 6
    endloop
  endfacet
  facet normal 0.770513 0.637424 0
    outer loop
      vertex 49.6736 36.09 10
      vertex 44.7587 42.0312 6
      vertex 44.7587 42.0312 10
    endloop
  endfacet
  facet normal 0.770513 0.637424 0
    outer loop
      vertex 44.7587 42.0312 6
      vertex 49.6736 36.09 10
      vertex 49.6736 36.09 6
    endloop
  endfacet
  facet normal 0.125333 0.992115 -0
    outer loop
      vertex 11.5052 60.3124 6
      vertex 3.85534 61.2788 10
      vertex 11.5052 60.3124 10
    endloop
  endfacet
  facet normal 0.125333 0.992115 0
    outer loop
      vertex 3.85534 61.2788 10
      vertex 11.5052 60.3124 6
      vertex 3.85534 61.2788 6
    endloop
  endfacet
  facet normal -0.904827 0.425779 0
    outer loop
      vertex -57.0883 22.6028 6
      vertex -53.8052 29.5797 10
      vertex -53.8052 29.5797 6
    endloop
  endfacet
  facet normal -0.904827 0.425779 0
    outer loop
      vertex -53.8052 29.5797 10
      vertex -57.0883 22.6028 6
      vertex -57.0883 22.6028 10
    endloop
  endfacet
  facet normal -0.951057 0.309017 0
    outer loop
      vertex -59.471 15.2696 6
      vertex -57.0883 22.6028 10
      vertex -57.0883 22.6028 6
    endloop
  endfacet
  facet normal -0.951057 0.309017 0
    outer loop
      vertex -57.0883 22.6028 10
      vertex -59.471 15.2696 6
      vertex -59.471 15.2696 10
    endloop
  endfacet
  facet normal -0.982287 0.187381 0
    outer loop
      vertex -60.9158 7.69546 6
      vertex -59.471 15.2696 10
      vertex -59.471 15.2696 6
    endloop
  endfacet
  facet normal -0.982287 0.187381 0
    outer loop
      vertex -59.471 15.2696 10
      vertex -60.9158 7.69546 6
      vertex -60.9158 7.69546 10
    endloop
  endfacet
  facet normal -0.481754 0.876307 0
    outer loop
      vertex -26.1428 55.5564 6
      vertex -32.8998 51.8417 10
      vertex -26.1428 55.5564 10
    endloop
  endfacet
  facet normal -0.481754 0.876307 0
    outer loop
      vertex -32.8998 51.8417 10
      vertex -26.1428 55.5564 6
      vertex -32.8998 51.8417 6
    endloop
  endfacet
  facet normal -0.125333 0.992115 0
    outer loop
      vertex -3.85534 61.2788 6
      vertex -11.5052 60.3124 10
      vertex -3.85534 61.2788 10
    endloop
  endfacet
  facet normal -0.125333 0.992115 0
    outer loop
      vertex -11.5052 60.3124 10
      vertex -3.85534 61.2788 6
      vertex -11.5052 60.3124 6
    endloop
  endfacet
  facet normal 0.998027 -0.062791 0
    outer loop
      vertex 60.9158 -7.69546 10
      vertex 61.4 0 6
      vertex 61.4 0 10
    endloop
  endfacet
  facet normal 0.998027 -0.062791 0
    outer loop
      vertex 61.4 0 6
      vertex 60.9158 -7.69546 10
      vertex 60.9158 -7.69546 6
    endloop
  endfacet
  facet normal 0.951057 -0.309017 0
    outer loop
      vertex 57.0883 -22.6028 10
      vertex 59.471 -15.2696 6
      vertex 59.471 -15.2696 10
    endloop
  endfacet
  facet normal 0.951057 -0.309017 0
    outer loop
      vertex 59.471 -15.2696 6
      vertex 57.0883 -22.6028 10
      vertex 57.0883 -22.6028 6
    endloop
  endfacet
  facet normal 0.587785 -0.809017 0
    outer loop
      vertex 32.8998 -51.8417 6
      vertex 39.1378 -47.3095 10
      vertex 32.8998 -51.8417 10
    endloop
  endfacet
  facet normal 0.587785 -0.809017 0
    outer loop
      vertex 39.1378 -47.3095 10
      vertex 32.8998 -51.8417 6
      vertex 39.1378 -47.3095 6
    endloop
  endfacet
  facet normal 0.481754 -0.876307 0
    outer loop
      vertex 26.1428 -55.5564 6
      vertex 32.8998 -51.8417 10
      vertex 26.1428 -55.5564 10
    endloop
  endfacet
  facet normal 0.481754 -0.876307 0
    outer loop
      vertex 32.8998 -51.8417 10
      vertex 26.1428 -55.5564 6
      vertex 32.8998 -51.8417 6
    endloop
  endfacet
  facet normal 0.481754 0.876307 -0
    outer loop
      vertex 32.8998 51.8417 6
      vertex 26.1428 55.5564 10
      vertex 32.8998 51.8417 10
    endloop
  endfacet
  facet normal 0.481754 0.876307 0
    outer loop
      vertex 26.1428 55.5564 10
      vertex 32.8998 51.8417 6
      vertex 26.1428 55.5564 6
    endloop
  endfacet
  facet normal -0.368125 -0.929776 0
    outer loop
      vertex -26.1428 -55.5564 6
      vertex -18.9736 -58.3949 10
      vertex -26.1428 -55.5564 10
    endloop
  endfacet
  facet normal -0.368125 -0.929776 -0
    outer loop
      vertex -18.9736 -58.3949 10
      vertex -26.1428 -55.5564 6
      vertex -18.9736 -58.3949 6
    endloop
  endfacet
  facet normal -0.24869 -0.968583 0
    outer loop
      vertex -18.9736 -58.3949 6
      vertex -11.5052 -60.3124 10
      vertex -18.9736 -58.3949 10
    endloop
  endfacet
  facet normal -0.24869 -0.968583 -0
    outer loop
      vertex -11.5052 -60.3124 10
      vertex -18.9736 -58.3949 6
      vertex -11.5052 -60.3124 6
    endloop
  endfacet
  facet normal -0.770513 -0.637424 0
    outer loop
      vertex -44.7587 -42.0312 6
      vertex -49.6736 -36.09 10
      vertex -49.6736 -36.09 6
    endloop
  endfacet
  facet normal -0.770513 -0.637424 0
    outer loop
      vertex -49.6736 -36.09 10
      vertex -44.7587 -42.0312 6
      vertex -44.7587 -42.0312 10
    endloop
  endfacet
  facet normal 0.684547 -0.728969 0
    outer loop
      vertex 39.1378 -47.3095 6
      vertex 44.7587 -42.0312 10
      vertex 39.1378 -47.3095 10
    endloop
  endfacet
  facet normal 0.684547 -0.728969 0
    outer loop
      vertex 44.7587 -42.0312 10
      vertex 39.1378 -47.3095 6
      vertex 44.7587 -42.0312 6
    endloop
  endfacet
  facet normal 0.982287 -0.187381 0
    outer loop
      vertex 59.471 -15.2696 10
      vertex 60.9158 -7.69546 6
      vertex 60.9158 -7.69546 10
    endloop
  endfacet
  facet normal 0.982287 -0.187381 0
    outer loop
      vertex 60.9158 -7.69546 6
      vertex 59.471 -15.2696 10
      vertex 59.471 -15.2696 6
    endloop
  endfacet
  facet normal 0.904827 -0.425779 0
    outer loop
      vertex 53.8052 -29.5797 10
      vertex 57.0883 -22.6028 6
      vertex 57.0883 -22.6028 10
    endloop
  endfacet
  facet normal 0.904827 -0.425779 0
    outer loop
      vertex 57.0883 -22.6028 6
      vertex 53.8052 -29.5797 10
      vertex 53.8052 -29.5797 6
    endloop
  endfacet
  facet normal 0.844328 -0.535826 0
    outer loop
      vertex 49.6736 -36.09 10
      vertex 53.8052 -29.5797 6
      vertex 53.8052 -29.5797 10
    endloop
  endfacet
  facet normal 0.844328 -0.535826 0
    outer loop
      vertex 53.8052 -29.5797 6
      vertex 49.6736 -36.09 10
      vertex 49.6736 -36.09 6
    endloop
  endfacet
  facet normal -0.125333 -0.992115 0
    outer loop
      vertex -11.5052 -60.3124 6
      vertex -3.85534 -61.2788 10
      vertex -11.5052 -60.3124 10
    endloop
  endfacet
  facet normal -0.125333 -0.992115 -0
    outer loop
      vertex -3.85534 -61.2788 10
      vertex -11.5052 -60.3124 6
      vertex -3.85534 -61.2788 6
    endloop
  endfacet
  facet normal -0.587785 -0.809017 0
    outer loop
      vertex -39.1378 -47.3095 6
      vertex -32.8998 -51.8417 10
      vertex -39.1378 -47.3095 10
    endloop
  endfacet
  facet normal -0.587785 -0.809017 -0
    outer loop
      vertex -32.8998 -51.8417 10
      vertex -39.1378 -47.3095 6
      vertex -32.8998 -51.8417 6
    endloop
  endfacet
  facet normal -0.684547 -0.728969 0
    outer loop
      vertex -44.7587 -42.0312 6
      vertex -39.1378 -47.3095 10
      vertex -44.7587 -42.0312 10
    endloop
  endfacet
  facet normal -0.684547 -0.728969 -0
    outer loop
      vertex -39.1378 -47.3095 10
      vertex -44.7587 -42.0312 6
      vertex -39.1378 -47.3095 6
    endloop
  endfacet
  facet normal -0.951057 -0.309017 0
    outer loop
      vertex -57.0883 -22.6028 6
      vertex -59.471 -15.2696 10
      vertex -59.471 -15.2696 6
    endloop
  endfacet
  facet normal -0.951057 -0.309017 0
    outer loop
      vertex -59.471 -15.2696 10
      vertex -57.0883 -22.6028 6
      vertex -57.0883 -22.6028 10
    endloop
  endfacet
  facet normal -0.982287 -0.187381 0
    outer loop
      vertex -59.471 -15.2696 6
      vertex -60.9158 -7.69546 10
      vertex -60.9158 -7.69546 6
    endloop
  endfacet
  facet normal -0.982287 -0.187381 0
    outer loop
      vertex -60.9158 -7.69546 10
      vertex -59.471 -15.2696 6
      vertex -59.471 -15.2696 10
    endloop
  endfacet
  facet normal -0.998027 -0.062791 0
    outer loop
      vertex -60.9158 -7.69546 6
      vertex -61.4 0 10
      vertex -61.4 0 6
    endloop
  endfacet
  facet normal -0.998027 -0.062791 0
    outer loop
      vertex -61.4 0 10
      vertex -60.9158 -7.69546 6
      vertex -60.9158 -7.69546 10
    endloop
  endfacet
  facet normal 0.24869 -0.968583 0
    outer loop
      vertex 11.5052 -60.3124 6
      vertex 18.9736 -58.3949 10
      vertex 11.5052 -60.3124 10
    endloop
  endfacet
  facet normal 0.24869 -0.968583 0
    outer loop
      vertex 18.9736 -58.3949 10
      vertex 11.5052 -60.3124 6
      vertex 18.9736 -58.3949 6
    endloop
  endfacet
  facet normal 0.125333 -0.992115 0
    outer loop
      vertex 3.85534 -61.2788 6
      vertex 11.5052 -60.3124 10
      vertex 3.85534 -61.2788 10
    endloop
  endfacet
  facet normal 0.125333 -0.992115 0
    outer loop
      vertex 11.5052 -60.3124 10
      vertex 3.85534 -61.2788 6
      vertex 11.5052 -60.3124 6
    endloop
  endfacet
  facet normal -0.481754 -0.876307 0
    outer loop
      vertex -32.8998 -51.8417 6
      vertex -26.1428 -55.5564 10
      vertex -32.8998 -51.8417 10
    endloop
  endfacet
  facet normal -0.481754 -0.876307 -0
    outer loop
      vertex -26.1428 -55.5564 10
      vertex -32.8998 -51.8417 6
      vertex -26.1428 -55.5564 6
    endloop
  endfacet
  facet normal -0.844328 -0.535826 0
    outer loop
      vertex -49.6736 -36.09 6
      vertex -53.8052 -29.5797 10
      vertex -53.8052 -29.5797 6
    endloop
  endfacet
  facet normal -0.844328 -0.535826 0
    outer loop
      vertex -53.8052 -29.5797 10
      vertex -49.6736 -36.09 6
      vertex -49.6736 -36.09 10
    endloop
  endfacet
  facet normal -0.998027 -0.0627907 0
    outer loop
      vertex 60.5 0 2
      vertex 60.0229 7.58266 10
      vertex 60.0229 7.58266 2
    endloop
  endfacet
  facet normal -0.998027 -0.0627907 0
    outer loop
      vertex 60.0229 7.58266 10
      vertex 60.5 0 2
      vertex 60.5 0 10
    endloop
  endfacet
  facet normal 0.998027 -0.0627907 0
    outer loop
      vertex -60.5 0 10
      vertex -60.0229 7.58266 2
      vertex -60.0229 7.58266 10
    endloop
  endfacet
  facet normal 0.998027 -0.0627907 0
    outer loop
      vertex -60.0229 7.58266 2
      vertex -60.5 0 10
      vertex -60.5 0 2
    endloop
  endfacet
  facet normal 0 -1 0
    outer loop
      vertex -3.79883 60.3806 2
      vertex 3.79883 60.3806 10
      vertex -3.79883 60.3806 10
    endloop
  endfacet
  facet normal 0 -1 -0
    outer loop
      vertex 3.79883 60.3806 10
      vertex -3.79883 60.3806 2
      vertex 3.79883 60.3806 2
    endloop
  endfacet
  facet normal 0 1 -0
    outer loop
      vertex 3.79883 -60.3806 2
      vertex -3.79883 -60.3806 10
      vertex 3.79883 -60.3806 10
    endloop
  endfacet
  facet normal 0 1 0
    outer loop
      vertex -3.79883 -60.3806 10
      vertex 3.79883 -60.3806 2
      vertex -3.79883 -60.3806 2
    endloop
  endfacet
  facet normal -0.684547 -0.728969 0
    outer loop
      vertex 38.5642 46.6161 2
      vertex 44.1026 41.4151 10
      vertex 38.5642 46.6161 10
    endloop
  endfacet
  facet normal -0.684547 -0.728969 -0
    outer loop
      vertex 44.1026 41.4151 10
      vertex 38.5642 46.6161 2
      vertex 44.1026 41.4151 2
    endloop
  endfacet
  facet normal 0.684547 -0.728969 0
    outer loop
      vertex -44.1026 41.4151 2
      vertex -38.5642 46.6161 10
      vertex -44.1026 41.4151 10
    endloop
  endfacet
  facet normal 0.684547 -0.728969 0
    outer loop
      vertex -38.5642 46.6161 10
      vertex -44.1026 41.4151 2
      vertex -38.5642 46.6161 2
    endloop
  endfacet
  facet normal 0.368125 -0.929776 0
    outer loop
      vertex -25.7596 54.742 2
      vertex -18.6955 57.5389 10
      vertex -25.7596 54.742 10
    endloop
  endfacet
  facet normal 0.368125 -0.929776 0
    outer loop
      vertex -18.6955 57.5389 10
      vertex -25.7596 54.742 2
      vertex -18.6955 57.5389 2
    endloop
  endfacet
  facet normal -0.904827 0.425779 0
    outer loop
      vertex 53.0166 -29.1461 2
      vertex 56.2515 -22.2715 10
      vertex 56.2515 -22.2715 2
    endloop
  endfacet
  facet normal -0.904827 0.425779 0
    outer loop
      vertex 56.2515 -22.2715 10
      vertex 53.0166 -29.1461 2
      vertex 53.0166 -29.1461 10
    endloop
  endfacet
  facet normal -0.904827 -0.425779 0
    outer loop
      vertex 56.2515 22.2715 2
      vertex 53.0166 29.1461 10
      vertex 53.0166 29.1461 2
    endloop
  endfacet
  facet normal -0.904827 -0.425779 0
    outer loop
      vertex 53.0166 29.1461 10
      vertex 56.2515 22.2715 2
      vertex 56.2515 22.2715 10
    endloop
  endfacet
  facet normal -0.844328 -0.535827 0
    outer loop
      vertex 53.0166 29.1461 2
      vertex 48.9455 35.561 10
      vertex 48.9455 35.561 2
    endloop
  endfacet
  facet normal -0.844328 -0.535827 0
    outer loop
      vertex 48.9455 35.561 10
      vertex 53.0166 29.1461 2
      vertex 53.0166 29.1461 10
    endloop
  endfacet
  facet normal -0.368125 -0.929776 0
    outer loop
      vertex 18.6955 57.5389 2
      vertex 25.7596 54.742 10
      vertex 18.6955 57.5389 10
    endloop
  endfacet
  facet normal -0.368125 -0.929776 -0
    outer loop
      vertex 25.7596 54.742 10
      vertex 18.6955 57.5389 2
      vertex 25.7596 54.742 2
    endloop
  endfacet
  facet normal -0.24869 -0.968583 0
    outer loop
      vertex 11.3366 59.4284 2
      vertex 18.6955 57.5389 10
      vertex 11.3366 59.4284 10
    endloop
  endfacet
  facet normal -0.24869 -0.968583 -0
    outer loop
      vertex 18.6955 57.5389 10
      vertex 11.3366 59.4284 2
      vertex 18.6955 57.5389 2
    endloop
  endfacet
  facet normal -0.481754 -0.876307 0
    outer loop
      vertex 25.7596 54.742 2
      vertex 32.4175 51.0818 10
      vertex 25.7596 54.742 10
    endloop
  endfacet
  facet normal -0.481754 -0.876307 -0
    outer loop
      vertex 32.4175 51.0818 10
      vertex 25.7596 54.742 2
      vertex 32.4175 51.0818 2
    endloop
  endfacet
  facet normal 0.904827 -0.425779 0
    outer loop
      vertex -56.2515 22.2715 10
      vertex -53.0166 29.1461 2
      vertex -53.0166 29.1461 10
    endloop
  endfacet
  facet normal 0.904827 -0.425779 0
    outer loop
      vertex -53.0166 29.1461 2
      vertex -56.2515 22.2715 10
      vertex -56.2515 22.2715 2
    endloop
  endfacet
  facet normal 0.770513 -0.637424 0
    outer loop
      vertex -48.9455 35.561 10
      vertex -44.1026 41.4151 2
      vertex -44.1026 41.4151 10
    endloop
  endfacet
  facet normal 0.770513 -0.637424 0
    outer loop
      vertex -44.1026 41.4151 2
      vertex -48.9455 35.561 10
      vertex -48.9455 35.561 2
    endloop
  endfacet
  facet normal 0.125333 -0.992115 0
    outer loop
      vertex -11.3366 59.4284 2
      vertex -3.79883 60.3806 10
      vertex -11.3366 59.4284 10
    endloop
  endfacet
  facet normal 0.125333 -0.992115 0
    outer loop
      vertex -3.79883 60.3806 10
      vertex -11.3366 59.4284 2
      vertex -3.79883 60.3806 2
    endloop
  endfacet
  facet normal -0.982287 0.187381 0
    outer loop
      vertex 58.5993 -15.0457 2
      vertex 60.0229 -7.58266 10
      vertex 60.0229 -7.58266 2
    endloop
  endfacet
  facet normal -0.982287 0.187381 0
    outer loop
      vertex 60.0229 -7.58266 10
      vertex 58.5993 -15.0457 2
      vertex 58.5993 -15.0457 10
    endloop
  endfacet
  facet normal -0.125333 0.992115 0
    outer loop
      vertex 11.3366 -59.4284 2
      vertex 3.79883 -60.3806 10
      vertex 11.3366 -59.4284 10
    endloop
  endfacet
  facet normal -0.125333 0.992115 0
    outer loop
      vertex 3.79883 -60.3806 10
      vertex 11.3366 -59.4284 2
      vertex 3.79883 -60.3806 2
    endloop
  endfacet
  facet normal -0.951056 -0.309017 0
    outer loop
      vertex 58.5993 15.0457 2
      vertex 56.2515 22.2715 10
      vertex 56.2515 22.2715 2
    endloop
  endfacet
  facet normal -0.951056 -0.309017 0
    outer loop
      vertex 56.2515 22.2715 10
      vertex 58.5993 15.0457 2
      vertex 58.5993 15.0457 10
    endloop
  endfacet
  facet normal -0.982287 -0.187381 0
    outer loop
      vertex 60.0229 7.58266 2
      vertex 58.5993 15.0457 10
      vertex 58.5993 15.0457 2
    endloop
  endfacet
  facet normal -0.982287 -0.187381 0
    outer loop
      vertex 58.5993 15.0457 10
      vertex 60.0229 7.58266 2
      vertex 60.0229 7.58266 10
    endloop
  endfacet
  facet normal -0.770513 -0.637424 0
    outer loop
      vertex 48.9455 35.561 2
      vertex 44.1026 41.4151 10
      vertex 44.1026 41.4151 2
    endloop
  endfacet
  facet normal -0.770513 -0.637424 0
    outer loop
      vertex 44.1026 41.4151 10
      vertex 48.9455 35.561 2
      vertex 48.9455 35.561 10
    endloop
  endfacet
  facet normal -0.125333 -0.992115 0
    outer loop
      vertex 3.79883 60.3806 2
      vertex 11.3366 59.4284 10
      vertex 3.79883 60.3806 10
    endloop
  endfacet
  facet normal -0.125333 -0.992115 -0
    outer loop
      vertex 11.3366 59.4284 10
      vertex 3.79883 60.3806 2
      vertex 11.3366 59.4284 2
    endloop
  endfacet
  facet normal -0.587785 -0.809017 0
    outer loop
      vertex 32.4175 51.0818 2
      vertex 38.5642 46.6161 10
      vertex 32.4175 51.0818 10
    endloop
  endfacet
  facet normal -0.587785 -0.809017 -0
    outer loop
      vertex 38.5642 46.6161 10
      vertex 32.4175 51.0818 2
      vertex 38.5642 46.6161 2
    endloop
  endfacet
  facet normal 0.844328 -0.535827 0
    outer loop
      vertex -53.0166 29.1461 10
      vertex -48.9455 35.561 2
      vertex -48.9455 35.561 10
    endloop
  endfacet
  facet normal 0.844328 -0.535827 0
    outer loop
      vertex -48.9455 35.561 2
      vertex -53.0166 29.1461 10
      vertex -53.0166 29.1461 2
    endloop
  endfacet
  facet normal 0.951056 -0.309017 0
    outer loop
      vertex -58.5993 15.0457 10
      vertex -56.2515 22.2715 2
      vertex -56.2515 22.2715 10
    endloop
  endfacet
  facet normal 0.951056 -0.309017 0
    outer loop
      vertex -56.2515 22.2715 2
      vertex -58.5993 15.0457 10
      vertex -58.5993 15.0457 2
    endloop
  endfacet
  facet normal 0.982287 -0.187381 0
    outer loop
      vertex -60.0229 7.58266 10
      vertex -58.5993 15.0457 2
      vertex -58.5993 15.0457 10
    endloop
  endfacet
  facet normal 0.982287 -0.187381 0
    outer loop
      vertex -58.5993 15.0457 2
      vertex -60.0229 7.58266 10
      vertex -60.0229 7.58266 2
    endloop
  endfacet
  facet normal 0.481754 -0.876307 0
    outer loop
      vertex -32.4175 51.0818 2
      vertex -25.7596 54.742 10
      vertex -32.4175 51.0818 10
    endloop
  endfacet
  facet normal 0.481754 -0.876307 0
    outer loop
      vertex -25.7596 54.742 10
      vertex -32.4175 51.0818 2
      vertex -25.7596 54.742 2
    endloop
  endfacet
  facet normal 0.587785 -0.809017 0
    outer loop
      vertex -38.5642 46.6161 2
      vertex -32.4175 51.0818 10
      vertex -38.5642 46.6161 10
    endloop
  endfacet
  facet normal 0.587785 -0.809017 0
    outer loop
      vertex -32.4175 51.0818 10
      vertex -38.5642 46.6161 2
      vertex -32.4175 51.0818 2
    endloop
  endfacet
  facet normal 0.24869 -0.968583 0
    outer loop
      vertex -18.6955 57.5389 2
      vertex -11.3366 59.4284 10
      vertex -18.6955 57.5389 10
    endloop
  endfacet
  facet normal 0.24869 -0.968583 0
    outer loop
      vertex -11.3366 59.4284 10
      vertex -18.6955 57.5389 2
      vertex -11.3366 59.4284 2
    endloop
  endfacet
  facet normal -0.998027 0.0627907 0
    outer loop
      vertex 60.0229 -7.58266 2
      vertex 60.5 0 10
      vertex 60.5 0 2
    endloop
  endfacet
  facet normal -0.998027 0.0627907 0
    outer loop
      vertex 60.5 0 10
      vertex 60.0229 -7.58266 2
      vertex 60.0229 -7.58266 10
    endloop
  endfacet
  facet normal -0.770513 0.637424 0
    outer loop
      vertex 44.1026 -41.4151 2
      vertex 48.9455 -35.561 10
      vertex 48.9455 -35.561 2
    endloop
  endfacet
  facet normal -0.770513 0.637424 0
    outer loop
      vertex 48.9455 -35.561 10
      vertex 44.1026 -41.4151 2
      vertex 44.1026 -41.4151 10
    endloop
  endfacet
  facet normal -0.951056 0.309017 0
    outer loop
      vertex 56.2515 -22.2715 2
      vertex 58.5993 -15.0457 10
      vertex 58.5993 -15.0457 2
    endloop
  endfacet
  facet normal -0.951056 0.309017 0
    outer loop
      vertex 58.5993 -15.0457 10
      vertex 56.2515 -22.2715 2
      vertex 56.2515 -22.2715 10
    endloop
  endfacet
  facet normal -0.684547 0.728969 0
    outer loop
      vertex 44.1026 -41.4151 2
      vertex 38.5642 -46.6161 10
      vertex 44.1026 -41.4151 10
    endloop
  endfacet
  facet normal -0.684547 0.728969 0
    outer loop
      vertex 38.5642 -46.6161 10
      vertex 44.1026 -41.4151 2
      vertex 38.5642 -46.6161 2
    endloop
  endfacet
  facet normal -0.844328 0.535827 0
    outer loop
      vertex 48.9455 -35.561 2
      vertex 53.0166 -29.1461 10
      vertex 53.0166 -29.1461 2
    endloop
  endfacet
  facet normal -0.844328 0.535827 0
    outer loop
      vertex 53.0166 -29.1461 10
      vertex 48.9455 -35.561 2
      vertex 48.9455 -35.561 10
    endloop
  endfacet
  facet normal 0 0 1
    outer loop
      vertex 60.0229 7.58266 2
      vertex 60.0229 -7.58266 2
      vertex 60.5 0 2
    endloop
  endfacet
  facet normal 0 0 1
    outer loop
      vertex 58.5993 15.0457 2
      vertex 60.0229 -7.58266 2
      vertex 60.0229 7.58266 2
    endloop
  endfacet
  facet normal 0 0 1
    outer loop
      vertex 58.5993 15.0457 2
      vertex 58.5993 -15.0457 2
      vertex 60.0229 -7.58266 2
    endloop
  endfacet
  facet normal 0 0 1
    outer loop
      vertex 56.2515 22.2715 2
      vertex 58.5993 -15.0457 2
      vertex 58.5993 15.0457 2
    endloop
  endfacet
  facet normal 0 0 1
    outer loop
      vertex 56.2515 22.2715 2
      vertex 56.2515 -22.2715 2
      vertex 58.5993 -15.0457 2
    endloop
  endfacet
  facet normal 0 0 1
    outer loop
      vertex 53.0166 29.1461 2
      vertex 56.2515 -22.2715 2
      vertex 56.2515 22.2715 2
    endloop
  endfacet
  facet normal 0 0 1
    outer loop
      vertex 53.0166 29.1461 2
      vertex 53.0166 -29.1461 2
      vertex 56.2515 -22.2715 2
    endloop
  endfacet
  facet normal 0 0 1
    outer loop
      vertex 48.9455 35.561 2
      vertex 53.0166 -29.1461 2
      vertex 53.0166 29.1461 2
    endloop
  endfacet
  facet normal 0 0 1
    outer loop
      vertex 48.9455 35.561 2
      vertex 48.9455 -35.561 2
      vertex 53.0166 -29.1461 2
    endloop
  endfacet
  facet normal 0 0 1
    outer loop
      vertex 44.1026 41.4151 2
      vertex 48.9455 -35.561 2
      vertex 48.9455 35.561 2
    endloop
  endfacet
  facet normal 0 0 1
    outer loop
      vertex 44.1026 41.4151 2
      vertex 44.1026 -41.4151 2
      vertex 48.9455 -35.561 2
    endloop
  endfacet
  facet normal 0 0 1
    outer loop
      vertex 38.5642 46.6161 2
      vertex 44.1026 -41.4151 2
      vertex 44.1026 41.4151 2
    endloop
  endfacet
  facet normal 0 0 1
    outer loop
      vertex 38.5642 46.6161 2
      vertex 38.5642 -46.6161 2
      vertex 44.1026 -41.4151 2
    endloop
  endfacet
  facet normal 0 0 1
    outer loop
      vertex 32.4175 51.0818 2
      vertex 38.5642 -46.6161 2
      vertex 38.5642 46.6161 2
    endloop
  endfacet
  facet normal 0 0 1
    outer loop
      vertex 32.4175 51.0818 2
      vertex 32.4175 -51.0818 2
      vertex 38.5642 -46.6161 2
    endloop
  endfacet
  facet normal 0 0 1
    outer loop
      vertex 25.7596 54.742 2
      vertex 32.4175 -51.0818 2
      vertex 32.4175 51.0818 2
    endloop
  endfacet
  facet normal 0 0 1
    outer loop
      vertex 25.7596 54.742 2
      vertex 25.7596 -54.742 2
      vertex 32.4175 -51.0818 2
    endloop
  endfacet
  facet normal 0 0 1
    outer loop
      vertex 18.6955 57.5389 2
      vertex 25.7596 -54.742 2
      vertex 25.7596 54.742 2
    endloop
  endfacet
  facet normal 0 0 1
    outer loop
      vertex 18.6955 57.5389 2
      vertex 18.6955 -57.5389 2
      vertex 25.7596 -54.742 2
    endloop
  endfacet
  facet normal 0 0 1
    outer loop
      vertex 11.3366 59.4284 2
      vertex 18.6955 -57.5389 2
      vertex 18.6955 57.5389 2
    endloop
  endfacet
  facet normal 0 0 1
    outer loop
      vertex 11.3366 59.4284 2
      vertex 11.3366 -59.4284 2
      vertex 18.6955 -57.5389 2
    endloop
  endfacet
  facet normal 0 0 1
    outer loop
      vertex 3.79883 60.3806 2
      vertex 11.3366 -59.4284 2
      vertex 11.3366 59.4284 2
    endloop
  endfacet
  facet normal 0 0 1
    outer loop
      vertex 3.79883 60.3806 2
      vertex 3.79883 -60.3806 2
      vertex 11.3366 -59.4284 2
    endloop
  endfacet
  facet normal -0 0 1
    outer loop
      vertex -3.79883 60.3806 2
      vertex 3.79883 -60.3806 2
      vertex 3.79883 60.3806 2
    endloop
  endfacet
  facet normal 0 0 1
    outer loop
      vertex -3.79883 60.3806 2
      vertex -3.79883 -60.3806 2
      vertex 3.79883 -60.3806 2
    endloop
  endfacet
  facet normal -0 0 1
    outer loop
      vertex -11.3366 59.4284 2
      vertex -3.79883 -60.3806 2
      vertex -3.79883 60.3806 2
    endloop
  endfacet
  facet normal 0 0 1
    outer loop
      vertex -11.3366 59.4284 2
      vertex -11.3366 -59.4284 2
      vertex -3.79883 -60.3806 2
    endloop
  endfacet
  facet normal -0 0 1
    outer loop
      vertex -18.6955 57.5389 2
      vertex -11.3366 -59.4284 2
      vertex -11.3366 59.4284 2
    endloop
  endfacet
  facet normal 0 0 1
    outer loop
      vertex -18.6955 57.5389 2
      vertex -18.6955 -57.5389 2
      vertex -11.3366 -59.4284 2
    endloop
  endfacet
  facet normal -0 0 1
    outer loop
      vertex -25.7596 54.742 2
      vertex -18.6955 -57.5389 2
      vertex -18.6955 57.5389 2
    endloop
  endfacet
  facet normal 0 0 1
    outer loop
      vertex -25.7596 54.742 2
      vertex -25.7596 -54.742 2
      vertex -18.6955 -57.5389 2
    endloop
  endfacet
  facet normal -0 0 1
    outer loop
      vertex -32.4175 51.0818 2
      vertex -25.7596 -54.742 2
      vertex -25.7596 54.742 2
    endloop
  endfacet
  facet normal 0 0 1
    outer loop
      vertex -32.4175 51.0818 2
      vertex -32.4175 -51.0818 2
      vertex -25.7596 -54.742 2
    endloop
  endfacet
  facet normal -0 0 1
    outer loop
      vertex -38.5642 46.6161 2
      vertex -32.4175 -51.0818 2
      vertex -32.4175 51.0818 2
    endloop
  endfacet
  facet normal 0 0 1
    outer loop
      vertex -38.5642 46.6161 2
      vertex -38.5642 -46.6161 2
      vertex -32.4175 -51.0818 2
    endloop
  endfacet
  facet normal -0 0 1
    outer loop
      vertex -44.1026 41.4151 2
      vertex -38.5642 -46.6161 2
      vertex -38.5642 46.6161 2
    endloop
  endfacet
  facet normal 0 0 1
    outer loop
      vertex -44.1026 41.4151 2
      vertex -44.1026 -41.4151 2
      vertex -38.5642 -46.6161 2
    endloop
  endfacet
  facet normal -0 0 1
    outer loop
      vertex -48.9455 35.561 2
      vertex -44.1026 -41.4151 2
      vertex -44.1026 41.4151 2
    endloop
  endfacet
  facet normal 0 0 1
    outer loop
      vertex -48.9455 35.561 2
      vertex -48.9455 -35.561 2
      vertex -44.1026 -41.4151 2
    endloop
  endfacet
  facet normal -0 0 1
    outer loop
      vertex -53.0166 29.1461 2
      vertex -48.9455 -35.561 2
      vertex -48.9455 35.561 2
    endloop
  endfacet
  facet normal 0 0 1
    outer loop
      vertex -53.0166 29.1461 2
      vertex -53.0166 -29.1461 2
      vertex -48.9455 -35.561 2
    endloop
  endfacet
  facet normal -0 0 1
    outer loop
      vertex -56.2515 22.2715 2
      vertex -53.0166 -29.1461 2
      vertex -53.0166 29.1461 2
    endloop
  endfacet
  facet normal 0 0 1
    outer loop
      vertex -56.2515 22.2715 2
      vertex -56.2515 -22.2715 2
      vertex -53.0166 -29.1461 2
    endloop
  endfacet
  facet normal -0 0 1
    outer loop
      vertex -58.5993 15.0457 2
      vertex -56.2515 -22.2715 2
      vertex -56.2515 22.2715 2
    endloop
  endfacet
  facet normal 0 0 1
    outer loop
      vertex -58.5993 15.0457 2
      vertex -58.5993 -15.0457 2
      vertex -56.2515 -22.2715 2
    endloop
  endfacet
  facet normal -0 0 1
    outer loop
      vertex -60.0229 7.58266 2
      vertex -58.5993 -15.0457 2
      vertex -58.5993 15.0457 2
    endloop
  endfacet
  facet normal 0 0 1
    outer loop
      vertex -60.0229 7.58266 2
      vertex -60.0229 -7.58266 2
      vertex -58.5993 -15.0457 2
    endloop
  endfacet
  facet normal 0 -0 1
    outer loop
      vertex -60.0229 -7.58266 2
      vertex -60.0229 7.58266 2
      vertex -60.5 0 2
    endloop
  endfacet
  facet normal -0.368125 0.929776 0
    outer loop
      vertex 25.7596 -54.742 2
      vertex 18.6955 -57.5389 10
      vertex 25.7596 -54.742 10
    endloop
  endfacet
  facet normal -0.368125 0.929776 0
    outer loop
      vertex 18.6955 -57.5389 10
      vertex 25.7596 -54.742 2
      vertex 18.6955 -57.5389 2
    endloop
  endfacet
  facet normal -0.24869 0.968583 0
    outer loop
      vertex 18.6955 -57.5389 2
      vertex 11.3366 -59.4284 10
      vertex 18.6955 -57.5389 10
    endloop
  endfacet
  facet normal -0.24869 0.968583 0
    outer loop
      vertex 11.3366 -59.4284 10
      vertex 18.6955 -57.5389 2
      vertex 11.3366 -59.4284 2
    endloop
  endfacet
  facet normal 0.125333 0.992115 -0
    outer loop
      vertex -3.79883 -60.3806 2
      vertex -11.3366 -59.4284 10
      vertex -3.79883 -60.3806 10
    endloop
  endfacet
  facet normal 0.125333 0.992115 0
    outer loop
      vertex -11.3366 -59.4284 10
      vertex -3.79883 -60.3806 2
      vertex -11.3366 -59.4284 2
    endloop
  endfacet
  facet normal 0.368125 0.929776 -0
    outer loop
      vertex -18.6955 -57.5389 2
      vertex -25.7596 -54.742 10
      vertex -18.6955 -57.5389 10
    endloop
  endfacet
  facet normal 0.368125 0.929776 0
    outer loop
      vertex -25.7596 -54.742 10
      vertex -18.6955 -57.5389 2
      vertex -25.7596 -54.742 2
    endloop
  endfacet
  facet normal 0.24869 0.968583 -0
    outer loop
      vertex -11.3366 -59.4284 2
      vertex -18.6955 -57.5389 10
      vertex -11.3366 -59.4284 10
    endloop
  endfacet
  facet normal 0.24869 0.968583 0
    outer loop
      vertex -18.6955 -57.5389 10
      vertex -11.3366 -59.4284 2
      vertex -18.6955 -57.5389 2
    endloop
  endfacet
  facet normal 0.770513 0.637424 0
    outer loop
      vertex -44.1026 -41.4151 10
      vertex -48.9455 -35.561 2
      vertex -48.9455 -35.561 10
    endloop
  endfacet
  facet normal 0.770513 0.637424 0
    outer loop
      vertex -48.9455 -35.561 2
      vertex -44.1026 -41.4151 10
      vertex -44.1026 -41.4151 2
    endloop
  endfacet
  facet normal 0.684547 0.728969 -0
    outer loop
      vertex -38.5642 -46.6161 2
      vertex -44.1026 -41.4151 10
      vertex -38.5642 -46.6161 10
    endloop
  endfacet
  facet normal 0.684547 0.728969 0
    outer loop
      vertex -44.1026 -41.4151 10
      vertex -38.5642 -46.6161 2
      vertex -44.1026 -41.4151 2
    endloop
  endfacet
  facet normal 0.904827 0.425779 0
    outer loop
      vertex -53.0166 -29.1461 10
      vertex -56.2515 -22.2715 2
      vertex -56.2515 -22.2715 10
    endloop
  endfacet
  facet normal 0.904827 0.425779 0
    outer loop
      vertex -56.2515 -22.2715 2
      vertex -53.0166 -29.1461 10
      vertex -53.0166 -29.1461 2
    endloop
  endfacet
  facet normal 0.951056 0.309017 0
    outer loop
      vertex -56.2515 -22.2715 10
      vertex -58.5993 -15.0457 2
      vertex -58.5993 -15.0457 10
    endloop
  endfacet
  facet normal 0.951056 0.309017 0
    outer loop
      vertex -58.5993 -15.0457 2
      vertex -56.2515 -22.2715 10
      vertex -56.2515 -22.2715 2
    endloop
  endfacet
  facet normal 0.982287 0.187381 0
    outer loop
      vertex -58.5993 -15.0457 10
      vertex -60.0229 -7.58266 2
      vertex -60.0229 -7.58266 10
    endloop
  endfacet
  facet normal 0.982287 0.187381 0
    outer loop
      vertex -60.0229 -7.58266 2
      vertex -58.5993 -15.0457 10
      vertex -58.5993 -15.0457 2
    endloop
  endfacet
  facet normal 0.998027 0.0627907 0
    outer loop
      vertex -60.0229 -7.58266 10
      vertex -60.5 0 2
      vertex -60.5 0 10
    endloop
  endfacet
  facet normal 0.998027 0.0627907 0
    outer loop
      vertex -60.5 0 2
      vertex -60.0229 -7.58266 10
      vertex -60.0229 -7.58266 2
    endloop
  endfacet
  facet normal -0.587785 0.809017 0
    outer loop
      vertex 38.5642 -46.6161 2
      vertex 32.4175 -51.0818 10
      vertex 38.5642 -46.6161 10
    endloop
  endfacet
  facet normal -0.587785 0.809017 0
    outer loop
      vertex 32.4175 -51.0818 10
      vertex 38.5642 -46.6161 2
      vertex 32.4175 -51.0818 2
    endloop
  endfacet
  facet normal -0.481754 0.876307 0
    outer loop
      vertex 32.4175 -51.0818 2
      vertex 25.7596 -54.742 10
      vertex 32.4175 -51.0818 10
    endloop
  endfacet
  facet normal -0.481754 0.876307 0
    outer loop
      vertex 25.7596 -54.742 10
      vertex 32.4175 -51.0818 2
      vertex 25.7596 -54.742 2
    endloop
  endfacet
  facet normal 0.844328 0.535827 0
    outer loop
      vertex -48.9455 -35.561 10
      vertex -53.0166 -29.1461 2
      vertex -53.0166 -29.1461 10
    endloop
  endfacet
  facet normal 0.844328 0.535827 0
    outer loop
      vertex -53.0166 -29.1461 2
      vertex -48.9455 -35.561 10
      vertex -48.9455 -35.561 2
    endloop
  endfacet
  facet normal 0.481754 0.876307 -0
    outer loop
      vertex -25.7596 -54.742 2
      vertex -32.4175 -51.0818 10
      vertex -25.7596 -54.742 10
    endloop
  endfacet
  facet normal 0.481754 0.876307 0
    outer loop
      vertex -32.4175 -51.0818 10
      vertex -25.7596 -54.742 2
      vertex -32.4175 -51.0818 2
    endloop
  endfacet
  facet normal 0.587785 0.809017 -0
    outer loop
      vertex -32.4175 -51.0818 2
      vertex -38.5642 -46.6161 10
      vertex -32.4175 -51.0818 10
    endloop
  endfacet
  facet normal 0.587785 0.809017 0
    outer loop
      vertex -38.5642 -46.6161 10
      vertex -32.4175 -51.0818 2
      vertex -38.5642 -46.6161 2
    endloop
  endfacet
endsolid OpenSCAD_Model
