solid OpenSCAD_Model
  facet normal -1 0 0
    outer loop
      vertex 0 2 0
      vertex 0 20 170
      vertex 0 20 0
    endloop
  endfacet
  facet normal -1 -0 0
    outer loop
      vertex 0 20 170
      vertex 0 2 0
      vertex 0 2 170
    endloop
  endfacet
  facet normal 0 0 1
    outer loop
      vertex 27 12 170
      vertex 35 18 170
      vertex 35 20 170
    endloop
  endfacet
  facet normal 0 0 1
    outer loop
      vertex 35 18 170
      vertex 27 12 170
      vertex 35 14 170
    endloop
  endfacet
  facet normal 0 0 1
    outer loop
      vertex 35 14 170
      vertex 27 12 170
      vertex 35 -10.9585 170
    endloop
  endfacet
  facet normal 0 0 1
    outer loop
      vertex 27 -20 170
      vertex 35 -10.9585 170
      vertex 27 12 170
    endloop
  endfacet
  facet normal 0 0 1
    outer loop
      vertex 35 -10.9585 170
      vertex 27 -20 170
      vertex 35 -15.5773 170
    endloop
  endfacet
  facet normal 0 0 1
    outer loop
      vertex 35 20 170
      vertex 8 12 170
      vertex 27 12 170
    endloop
  endfacet
  facet normal -0 0 1
    outer loop
      vertex 0 20 170
      vertex 8 12 170
      vertex 35 20 170
    endloop
  endfacet
  facet normal 0 0 1
    outer loop
      vertex 0 2 170
      vertex 8 12 170
      vertex 0 20 170
    endloop
  endfacet
  facet normal 0 0 1
    outer loop
      vertex 8 12 170
      vertex 0 2 170
      vertex 8 2 170
    endloop
  endfacet
  facet normal 0 0 1
    outer loop
      vertex 94 18 170
      vertex 98 30 170
      vertex 94 30 170
    endloop
  endfacet
  facet normal 0 0 1
    outer loop
      vertex 98 30 170
      vertex 94 18 170
      vertex 98 14 170
    endloop
  endfacet
  facet normal 0 0 1
    outer loop
      vertex 94 18 170
      vertex 86.2295 14 170
      vertex 98 14 170
    endloop
  endfacet
  facet normal 0 0 1
    outer loop
      vertex 94 18 170
      vertex 78.2295 14 170
      vertex 86.2295 14 170
    endloop
  endfacet
  facet normal -0 0 1
    outer loop
      vertex 35 18 170
      vertex 78.2295 14 170
      vertex 94 18 170
    endloop
  endfacet
  facet normal 0 0 1
    outer loop
      vertex 78.2295 14 170
      vertex 35 18 170
      vertex 35 14 170
    endloop
  endfacet
  facet normal 0 0 1
    outer loop
      vertex 35 -15.5773 170
      vertex 78.2295 14 170
      vertex 35 -10.9585 170
    endloop
  endfacet
  facet normal -0 0 1
    outer loop
      vertex 78.2295 14 170
      vertex 35 -15.5773 170
      vertex 86.2295 14 170
    endloop
  endfacet
  facet normal 0 0 1
    outer loop
      vertex 35 -15.5773 170
      vertex 27 -20 170
      vertex 35 -20 170
    endloop
  endfacet
  facet normal 1 -0 0
    outer loop
      vertex 8 2 170
      vertex 8 12 0
      vertex 8 12 170
    endloop
  endfacet
  facet normal 1 0 0
    outer loop
      vertex 8 12 0
      vertex 8 2 170
      vertex 8 2 0
    endloop
  endfacet
  facet normal 0 0 -1
    outer loop
      vertex 8 2 0
      vertex 0 2 0
      vertex 8 12 0
    endloop
  endfacet
  facet normal 0 0 -1
    outer loop
      vertex 27 -20 0
      vertex 35 -15.5773 0
      vertex 35 -20 0
    endloop
  endfacet
  facet normal -0 0 -1
    outer loop
      vertex 35 -15.5773 0
      vertex 27 -20 0
      vertex 35 -10.9585 0
    endloop
  endfacet
  facet normal 0 0 -1
    outer loop
      vertex 35 -10.9585 0
      vertex 27 12 0
      vertex 35 14 0
    endloop
  endfacet
  facet normal -0 0 -1
    outer loop
      vertex 35 14 0
      vertex 27 12 0
      vertex 35 18 0
    endloop
  endfacet
  facet normal -0 0 -1
    outer loop
      vertex 35 -10.9585 0
      vertex 27 -20 0
      vertex 27 12 0
    endloop
  endfacet
  facet normal -0 0 -1
    outer loop
      vertex 35 18 0
      vertex 27 12 0
      vertex 35 20 0
    endloop
  endfacet
  facet normal 0 0 -1
    outer loop
      vertex 8 12 0
      vertex 35 20 0
      vertex 27 12 0
    endloop
  endfacet
  facet normal 0 0 -1
    outer loop
      vertex 8 12 0
      vertex 0 20 0
      vertex 35 20 0
    endloop
  endfacet
  facet normal 0 0 -1
    outer loop
      vertex 0 20 0
      vertex 8 12 0
      vertex 0 2 0
    endloop
  endfacet
  facet normal 0 0 -1
    outer loop
      vertex 35 -15.5773 0
      vertex 78.2295 14 0
      vertex 86.2295 14 0
    endloop
  endfacet
  facet normal 0 0 -1
    outer loop
      vertex 78.2295 14 0
      vertex 35 -15.5773 0
      vertex 35 -10.9585 0
    endloop
  endfacet
  facet normal 0 0 -1
    outer loop
      vertex 98 14 0
      vertex 94 18 0
      vertex 98 30 0
    endloop
  endfacet
  facet normal 0 0 -1
    outer loop
      vertex 86.2295 14 0
      vertex 94 18 0
      vertex 98 14 0
    endloop
  endfacet
  facet normal 0 0 -1
    outer loop
      vertex 78.2295 14 0
      vertex 94 18 0
      vertex 86.2295 14 0
    endloop
  endfacet
  facet normal 0 0 -1
    outer loop
      vertex 35 18 0
      vertex 78.2295 14 0
      vertex 35 14 0
    endloop
  endfacet
  facet normal 0 0 -1
    outer loop
      vertex 78.2295 14 0
      vertex 35 18 0
      vertex 94 18 0
    endloop
  endfacet
  facet normal -0 0 -1
    outer loop
      vertex 98 30 0
      vertex 94 18 0
      vertex 94 30 0
    endloop
  endfacet
  facet normal 0 -1 0
    outer loop
      vertex 0 2 0
      vertex 8 2 170
      vertex 0 2 170
    endloop
  endfacet
  facet normal 0 -1 -0
    outer loop
      vertex 8 2 170
      vertex 0 2 0
      vertex 8 2 0
    endloop
  endfacet
  facet normal 1 -0 0
    outer loop
      vertex 35 -20 170
      vertex 35 -15.5773 0
      vertex 35 -15.5773 170
    endloop
  endfacet
  facet normal 1 0 0
    outer loop
      vertex 35 -15.5773 0
      vertex 35 -20 170
      vertex 35 -20 0
    endloop
  endfacet
  facet normal 1 -0 0
    outer loop
      vertex 35 -10.9585 170
      vertex 35 14 0
      vertex 35 14 170
    endloop
  endfacet
  facet normal 1 0 0
    outer loop
      vertex 35 14 0
      vertex 35 -10.9585 170
      vertex 35 -10.9585 0
    endloop
  endfacet
  facet normal 1 -0 0
    outer loop
      vertex 35 18 170
      vertex 35 20 0
      vertex 35 20 170
    endloop
  endfacet
  facet normal 1 0 0
    outer loop
      vertex 35 20 0
      vertex 35 18 170
      vertex 35 18 0
    endloop
  endfacet
  facet normal 0 -1 0
    outer loop
      vertex 8 12 0
      vertex 27 12 170
      vertex 8 12 170
    endloop
  endfacet
  facet normal 0 -1 -0
    outer loop
      vertex 27 12 170
      vertex 8 12 0
      vertex 27 12 0
    endloop
  endfacet
  facet normal 0 1 -0
    outer loop
      vertex 35 20 0
      vertex 0 20 170
      vertex 35 20 170
    endloop
  endfacet
  facet normal 0 1 0
    outer loop
      vertex 0 20 170
      vertex 35 20 0
      vertex 0 20 0
    endloop
  endfacet
  facet normal -1 0 0
    outer loop
      vertex 27 -20 0
      vertex 27 12 170
      vertex 27 12 0
    endloop
  endfacet
  facet normal -1 -0 0
    outer loop
      vertex 27 12 170
      vertex 27 -20 0
      vertex 27 -20 170
    endloop
  endfacet
  facet normal 1 -0 0
    outer loop
      vertex 98 14 170
      vertex 98 30 0
      vertex 98 30 170
    endloop
  endfacet
  facet normal 1 0 0
    outer loop
      vertex 98 30 0
      vertex 98 14 170
      vertex 98 14 0
    endloop
  endfacet
  facet normal 0 1 -0
    outer loop
      vertex 94 18 0
      vertex 35 18 170
      vertex 94 18 170
    endloop
  endfacet
  facet normal 0 1 0
    outer loop
      vertex 35 18 170
      vertex 94 18 0
      vertex 35 18 0
    endloop
  endfacet
  facet normal 0 -1 0
    outer loop
      vertex 86.2295 14 0
      vertex 98 14 170
      vertex 86.2295 14 170
    endloop
  endfacet
  facet normal 0 -1 -0
    outer loop
      vertex 98 14 170
      vertex 86.2295 14 0
      vertex 98 14 0
    endloop
  endfacet
  facet normal 0 -1 0
    outer loop
      vertex 35 14 0
      vertex 78.2295 14 170
      vertex 35 14 170
    endloop
  endfacet
  facet normal 0 -1 -0
    outer loop
      vertex 78.2295 14 170
      vertex 35 14 0
      vertex 78.2295 14 0
    endloop
  endfacet
  facet normal -1 0 0
    outer loop
      vertex 94 18 0
      vertex 94 30 170
      vertex 94 30 0
    endloop
  endfacet
  facet normal -1 -0 0
    outer loop
      vertex 94 30 170
      vertex 94 18 0
      vertex 94 18 170
    endloop
  endfacet
  facet normal 0 1 -0
    outer loop
      vertex 98 30 0
      vertex 94 30 170
      vertex 98 30 170
    endloop
  endfacet
  facet normal 0 1 0
    outer loop
      vertex 94 30 170
      vertex 98 30 0
      vertex 94 30 0
    endloop
  endfacet
  facet normal 0 -1 0
    outer loop
      vertex 27 -20 0
      vertex 35 -20 170
      vertex 27 -20 170
    endloop
  endfacet
  facet normal 0 -1 -0
    outer loop
      vertex 35 -20 170
      vertex 27 -20 0
      vertex 35 -20 0
    endloop
  endfacet
  facet normal -0.5 0.866025 0
    outer loop
      vertex 78.2295 14 0
      vertex 35 -10.9585 170
      vertex 78.2295 14 170
    endloop
  endfacet
  facet normal -0.5 0.866025 0
    outer loop
      vertex 35 -10.9585 170
      vertex 78.2295 14 0
      vertex 35 -10.9585 0
    endloop
  endfacet
  facet normal 0.5 -0.866025 0
    outer loop
      vertex 35 -15.5773 0
      vertex 86.2295 14 170
      vertex 35 -15.5773 170
    endloop
  endfacet
  facet normal 0.5 -0.866025 0
    outer loop
      vertex 86.2295 14 170
      vertex 35 -15.5773 0
      vertex 86.2295 14 0
    endloop
  endfacet
endsolid OpenSCAD_Model
