solid Default
  facet normal -0.000000e+00 -0.000000e+00 -1.000000e+00
    outer loop
      vertex -2.301817e+01 -9.875679e-01 0.000000e+00
      vertex -2.301817e+01 9.875679e-01 0.000000e+00
      vertex -2.237684e+01 -2.855684e+00 0.000000e+00
    endloop
  endfacet
  facet normal 0.000000e+00 0.000000e+00 -1.000000e+00
    outer loop
      vertex -2.237684e+01 -2.855684e+00 0.000000e+00
      vertex -2.301817e+01 9.875679e-01 0.000000e+00
      vertex -2.237684e+01 2.855684e+00 0.000000e+00
    endloop
  endfacet
  facet normal 0.000000e+00 0.000000e+00 -1.000000e+00
    outer loop
      vertex -2.237684e+01 -2.855684e+00 0.000000e+00
      vertex -2.237684e+01 2.855684e+00 0.000000e+00
      vertex -2.116369e+01 4.414343e+00 0.000000e+00
    endloop
  endfacet
  facet normal 0.000000e+00 0.000000e+00 -1.000000e+00
    outer loop
      vertex -2.237684e+01 -2.855684e+00 0.000000e+00
      vertex -2.116369e+01 4.414343e+00 0.000000e+00
      vertex -1.951017e+01 5.494640e+00 0.000000e+00
    endloop
  endfacet
  facet normal 0.000000e+00 0.000000e+00 -1.000000e+00
    outer loop
      vertex -2.237684e+01 -2.855684e+00 0.000000e+00
      vertex -1.951017e+01 5.494640e+00 0.000000e+00
      vertex -1.759548e+01 5.979507e+00 0.000000e+00
    endloop
  endfacet
  facet normal 0.000000e+00 0.000000e+00 -1.000000e+00
    outer loop
      vertex -2.237684e+01 -2.855684e+00 0.000000e+00
      vertex -1.759548e+01 5.979507e+00 0.000000e+00
      vertex -1.710000e+01 5.938452e+00 0.000000e+00
    endloop
  endfacet
  facet normal 0.000000e+00 0.000000e+00 -1.000000e+00
    outer loop
      vertex -1.710000e+01 5.938452e+00 0.000000e+00
      vertex -1.710000e+01 6.000000e+00 0.000000e+00
      vertex -1.110000e+01 6.000000e+00 0.000000e+00
    endloop
  endfacet
  facet normal 0.000000e+00 0.000000e+00 -1.000000e+00
    outer loop
      vertex -1.110000e+01 6.000000e+00 0.000000e+00
      vertex -1.110000e+01 2.250000e+01 0.000000e+00
      vertex 1.110000e+01 2.250000e+01 0.000000e+00
    endloop
  endfacet
  facet normal 0.000000e+00 0.000000e+00 -1.000000e+00
    outer loop
      vertex -1.617295e+01 2.853170e+00 0.000000e+00
      vertex -1.110000e+01 6.000000e+00 0.000000e+00
      vertex -1.467295e+01 1.763355e+00 0.000000e+00
    endloop
  endfacet
  facet normal 0.000000e+00 0.000000e+00 -1.000000e+00
    outer loop
      vertex -1.410000e+01 0.000000e+00 0.000000e+00
      vertex 1.110000e+01 2.250000e+01 0.000000e+00
      vertex 1.110000e+01 6.000000e+00 0.000000e+00
    endloop
  endfacet
  facet normal 0.000000e+00 0.000000e+00 -1.000000e+00
    outer loop
      vertex 1.802705e+01 2.853170e+00 0.000000e+00
      vertex 2.116369e+01 4.414343e+00 0.000000e+00
      vertex 2.237684e+01 2.855684e+00 0.000000e+00
    endloop
  endfacet
  facet normal 0.000000e+00 0.000000e+00 -1.000000e+00
    outer loop
      vertex 1.952705e+01 1.763355e+00 0.000000e+00
      vertex 2.237684e+01 2.855684e+00 0.000000e+00
      vertex 2.301817e+01 9.875679e-01 0.000000e+00
    endloop
  endfacet
  facet normal 0.000000e+00 0.000000e+00 -1.000000e+00
    outer loop
      vertex 2.010000e+01 0.000000e+00 0.000000e+00
      vertex 2.301817e+01 9.875679e-01 0.000000e+00
      vertex 2.301817e+01 -9.875679e-01 0.000000e+00
    endloop
  endfacet
  facet normal 0.000000e+00 0.000000e+00 -1.000000e+00
    outer loop
      vertex 1.952705e+01 -1.763355e+00 0.000000e+00
      vertex 2.301817e+01 -9.875679e-01 0.000000e+00
      vertex 2.237684e+01 -2.855684e+00 0.000000e+00
    endloop
  endfacet
  facet normal 0.000000e+00 0.000000e+00 -1.000000e+00
    outer loop
      vertex -2.237684e+01 -2.855684e+00 0.000000e+00
      vertex 2.237684e+01 -2.855684e+00 0.000000e+00
      vertex 2.116369e+01 -4.414343e+00 0.000000e+00
    endloop
  endfacet
  facet normal 0.000000e+00 0.000000e+00 -1.000000e+00
    outer loop
      vertex -2.237684e+01 -2.855684e+00 0.000000e+00
      vertex 2.116369e+01 -4.414343e+00 0.000000e+00
      vertex 1.951017e+01 -5.494640e+00 0.000000e+00
    endloop
  endfacet
  facet normal 0.000000e+00 0.000000e+00 -1.000000e+00
    outer loop
      vertex 1.710000e+01 -5.938452e+00 0.000000e+00
      vertex 1.951017e+01 -5.494640e+00 0.000000e+00
      vertex 1.759548e+01 -5.979507e+00 0.000000e+00
    endloop
  endfacet
  facet normal 0.000000e+00 0.000000e+00 -1.000000e+00
    outer loop
      vertex -2.237684e+01 -2.855684e+00 0.000000e+00
      vertex 1.951017e+01 -5.494640e+00 0.000000e+00
      vertex 1.710000e+01 -5.938452e+00 0.000000e+00
    endloop
  endfacet
  facet normal 0.000000e+00 0.000000e+00 -1.000000e+00
    outer loop
      vertex -1.110000e+01 -6.000000e+00 0.000000e+00
      vertex 1.110000e+01 -2.250000e+01 0.000000e+00
      vertex -1.110000e+01 -2.250000e+01 0.000000e+00
    endloop
  endfacet
  facet normal 0.000000e+00 0.000000e+00 -1.000000e+00
    outer loop
      vertex -2.237684e+01 -2.855684e+00 0.000000e+00
      vertex 1.710000e+01 -6.000000e+00 0.000000e+00
      vertex 1.110000e+01 -6.000000e+00 0.000000e+00
    endloop
  endfacet
  facet normal 0.000000e+00 0.000000e+00 -1.000000e+00
    outer loop
      vertex -1.110000e+01 -6.000000e+00 0.000000e+00
      vertex 1.110000e+01 -6.000000e+00 0.000000e+00
      vertex 1.110000e+01 -2.250000e+01 0.000000e+00
    endloop
  endfacet
  facet normal 0.000000e+00 0.000000e+00 -1.000000e+00
    outer loop
      vertex -2.237684e+01 -2.855684e+00 0.000000e+00
      vertex 1.110000e+01 -6.000000e+00 0.000000e+00
      vertex -1.110000e+01 -6.000000e+00 0.000000e+00
    endloop
  endfacet
  facet normal -0.000000e+00 -0.000000e+00 -1.000000e+00
    outer loop
      vertex -1.710000e+01 -6.000000e+00 0.000000e+00
      vertex -1.710000e+01 -5.938452e+00 0.000000e+00
      vertex -1.110000e+01 -6.000000e+00 0.000000e+00
    endloop
  endfacet
  facet normal 0.000000e+00 0.000000e+00 -1.000000e+00
    outer loop
      vertex -2.237684e+01 -2.855684e+00 0.000000e+00
      vertex -1.110000e+01 -6.000000e+00 0.000000e+00
      vertex -1.710000e+01 -5.938452e+00 0.000000e+00
    endloop
  endfacet
  facet normal 0.000000e+00 0.000000e+00 -1.000000e+00
    outer loop
      vertex -1.952705e+01 -1.763355e+00 0.000000e+00
      vertex -2.237684e+01 -2.855684e+00 0.000000e+00
      vertex -2.010000e+01 0.000000e+00 0.000000e+00
    endloop
  endfacet
  facet normal 0.000000e+00 0.000000e+00 -1.000000e+00
    outer loop
      vertex -2.237684e+01 -2.855684e+00 0.000000e+00
      vertex -1.759548e+01 -5.979507e+00 0.000000e+00
      vertex -1.951017e+01 -5.494640e+00 0.000000e+00
    endloop
  endfacet
  facet normal 0.000000e+00 0.000000e+00 -1.000000e+00
    outer loop
      vertex -2.237684e+01 -2.855684e+00 0.000000e+00
      vertex -1.951017e+01 -5.494640e+00 0.000000e+00
      vertex -2.116369e+01 -4.414343e+00 0.000000e+00
    endloop
  endfacet
  facet normal 0.000000e+00 0.000000e+00 -1.000000e+00
    outer loop
      vertex -1.952705e+01 1.763355e+00 0.000000e+00
      vertex -1.710000e+01 5.938452e+00 0.000000e+00
      vertex -1.802705e+01 2.853170e+00 0.000000e+00
    endloop
  endfacet
  facet normal 0.000000e+00 0.000000e+00 -1.000000e+00
    outer loop
      vertex -1.952705e+01 1.763355e+00 0.000000e+00
      vertex -2.010000e+01 0.000000e+00 0.000000e+00
      vertex -2.237684e+01 -2.855684e+00 0.000000e+00
    endloop
  endfacet
  facet normal 0.000000e+00 0.000000e+00 -1.000000e+00
    outer loop
      vertex -1.802705e+01 -2.853170e+00 0.000000e+00
      vertex -2.237684e+01 -2.855684e+00 0.000000e+00
      vertex -1.952705e+01 -1.763355e+00 0.000000e+00
    endloop
  endfacet
  facet normal 0.000000e+00 0.000000e+00 -1.000000e+00
    outer loop
      vertex -2.237684e+01 -2.855684e+00 0.000000e+00
      vertex -1.802705e+01 -2.853170e+00 0.000000e+00
      vertex 2.237684e+01 -2.855684e+00 0.000000e+00
    endloop
  endfacet
  facet normal 0.000000e+00 0.000000e+00 -1.000000e+00
    outer loop
      vertex -1.410000e+01 0.000000e+00 0.000000e+00
      vertex 1.710000e+01 6.000000e+00 0.000000e+00
      vertex 1.710000e+01 5.938452e+00 0.000000e+00
    endloop
  endfacet
  facet normal 0.000000e+00 0.000000e+00 -1.000000e+00
    outer loop
      vertex -1.802705e+01 -2.853170e+00 0.000000e+00
      vertex -1.617295e+01 -2.853170e+00 0.000000e+00
      vertex 2.237684e+01 -2.855684e+00 0.000000e+00
    endloop
  endfacet
  facet normal 0.000000e+00 0.000000e+00 -1.000000e+00
    outer loop
      vertex -1.467295e+01 1.763355e+00 0.000000e+00
      vertex 1.110000e+01 2.250000e+01 0.000000e+00
      vertex -1.410000e+01 0.000000e+00 0.000000e+00
    endloop
  endfacet
  facet normal 0.000000e+00 0.000000e+00 -1.000000e+00
    outer loop
      vertex -1.110000e+01 6.000000e+00 0.000000e+00
      vertex 1.110000e+01 2.250000e+01 0.000000e+00
      vertex -1.467295e+01 1.763355e+00 0.000000e+00
    endloop
  endfacet
  facet normal 0.000000e+00 0.000000e+00 -1.000000e+00
    outer loop
      vertex -1.710000e+01 5.938452e+00 0.000000e+00
      vertex -1.110000e+01 6.000000e+00 0.000000e+00
      vertex -1.617295e+01 2.853170e+00 0.000000e+00
    endloop
  endfacet
  facet normal 0.000000e+00 0.000000e+00 -1.000000e+00
    outer loop
      vertex -1.710000e+01 5.938452e+00 0.000000e+00
      vertex -1.617295e+01 2.853170e+00 0.000000e+00
      vertex -1.802705e+01 2.853170e+00 0.000000e+00
    endloop
  endfacet
  facet normal 0.000000e+00 0.000000e+00 -1.000000e+00
    outer loop
      vertex 1.802705e+01 2.853170e+00 0.000000e+00
      vertex 2.237684e+01 2.855684e+00 0.000000e+00
      vertex 1.952705e+01 1.763355e+00 0.000000e+00
    endloop
  endfacet
  facet normal 0.000000e+00 0.000000e+00 -1.000000e+00
    outer loop
      vertex 1.410000e+01 0.000000e+00 0.000000e+00
      vertex -1.467295e+01 -1.763355e+00 0.000000e+00
      vertex 1.467295e+01 1.763355e+00 0.000000e+00
    endloop
  endfacet
  facet normal 0.000000e+00 0.000000e+00 -1.000000e+00
    outer loop
      vertex -1.710000e+01 5.938452e+00 0.000000e+00
      vertex -1.952705e+01 1.763355e+00 0.000000e+00
      vertex -2.237684e+01 -2.855684e+00 0.000000e+00
    endloop
  endfacet
  facet normal 0.000000e+00 0.000000e+00 -1.000000e+00
    outer loop
      vertex -1.410000e+01 0.000000e+00 0.000000e+00
      vertex 1.710000e+01 5.938452e+00 0.000000e+00
      vertex 1.759548e+01 5.979507e+00 0.000000e+00
    endloop
  endfacet
  facet normal 0.000000e+00 0.000000e+00 -1.000000e+00
    outer loop
      vertex 1.952705e+01 -1.763355e+00 0.000000e+00
      vertex 2.237684e+01 -2.855684e+00 0.000000e+00
      vertex 1.802705e+01 -2.853170e+00 0.000000e+00
    endloop
  endfacet
  facet normal 0.000000e+00 0.000000e+00 -1.000000e+00
    outer loop
      vertex -1.617295e+01 -2.853170e+00 0.000000e+00
      vertex 1.467295e+01 -1.763355e+00 0.000000e+00
      vertex 1.617295e+01 -2.853170e+00 0.000000e+00
    endloop
  endfacet
  facet normal 0.000000e+00 0.000000e+00 -1.000000e+00
    outer loop
      vertex -1.617295e+01 -2.853170e+00 0.000000e+00
      vertex 1.617295e+01 -2.853170e+00 0.000000e+00
      vertex 2.237684e+01 -2.855684e+00 0.000000e+00
    endloop
  endfacet
  facet normal 0.000000e+00 0.000000e+00 -1.000000e+00
    outer loop
      vertex 1.617295e+01 -2.853170e+00 0.000000e+00
      vertex 1.802705e+01 -2.853170e+00 0.000000e+00
      vertex 2.237684e+01 -2.855684e+00 0.000000e+00
    endloop
  endfacet
  facet normal 0.000000e+00 0.000000e+00 -1.000000e+00
    outer loop
      vertex 2.010000e+01 0.000000e+00 0.000000e+00
      vertex 2.301817e+01 -9.875679e-01 0.000000e+00
      vertex 1.952705e+01 -1.763355e+00 0.000000e+00
    endloop
  endfacet
  facet normal 0.000000e+00 0.000000e+00 -1.000000e+00
    outer loop
      vertex 1.952705e+01 1.763355e+00 0.000000e+00
      vertex 2.301817e+01 9.875679e-01 0.000000e+00
      vertex 2.010000e+01 0.000000e+00 0.000000e+00
    endloop
  endfacet
  facet normal 0.000000e+00 0.000000e+00 -1.000000e+00
    outer loop
      vertex -1.410000e+01 0.000000e+00 0.000000e+00
      vertex 1.759548e+01 5.979507e+00 0.000000e+00
      vertex 1.951017e+01 5.494640e+00 0.000000e+00
    endloop
  endfacet
  facet normal 0.000000e+00 0.000000e+00 -1.000000e+00
    outer loop
      vertex 1.617295e+01 2.853170e+00 0.000000e+00
      vertex 2.116369e+01 4.414343e+00 0.000000e+00
      vertex 1.802705e+01 2.853170e+00 0.000000e+00
    endloop
  endfacet
  facet normal 0.000000e+00 0.000000e+00 -1.000000e+00
    outer loop
      vertex 1.467295e+01 1.763355e+00 0.000000e+00
      vertex -1.467295e+01 -1.763355e+00 0.000000e+00
      vertex 1.617295e+01 2.853170e+00 0.000000e+00
    endloop
  endfacet
  facet normal 0.000000e+00 0.000000e+00 -1.000000e+00
    outer loop
      vertex -1.467295e+01 -1.763355e+00 0.000000e+00
      vertex 2.116369e+01 4.414343e+00 0.000000e+00
      vertex 1.617295e+01 2.853170e+00 0.000000e+00
    endloop
  endfacet
  facet normal 0.000000e+00 0.000000e+00 -1.000000e+00
    outer loop
      vertex -1.410000e+01 0.000000e+00 0.000000e+00
      vertex 2.116369e+01 4.414343e+00 0.000000e+00
      vertex -1.467295e+01 -1.763355e+00 0.000000e+00
    endloop
  endfacet
  facet normal 0.000000e+00 0.000000e+00 -1.000000e+00
    outer loop
      vertex -1.410000e+01 0.000000e+00 0.000000e+00
      vertex 1.951017e+01 5.494640e+00 0.000000e+00
      vertex 2.116369e+01 4.414343e+00 0.000000e+00
    endloop
  endfacet
  facet normal 0.000000e+00 0.000000e+00 -1.000000e+00
    outer loop
      vertex 1.710000e+01 -6.000000e+00 0.000000e+00
      vertex -2.237684e+01 -2.855684e+00 0.000000e+00
      vertex 1.710000e+01 -5.938452e+00 0.000000e+00
    endloop
  endfacet
  facet normal 0.000000e+00 0.000000e+00 -1.000000e+00
    outer loop
      vertex -1.759548e+01 -5.979507e+00 0.000000e+00
      vertex -2.237684e+01 -2.855684e+00 0.000000e+00
      vertex -1.710000e+01 -5.938452e+00 0.000000e+00
    endloop
  endfacet
  facet normal 0.000000e+00 0.000000e+00 -1.000000e+00
    outer loop
      vertex 1.467295e+01 -1.763355e+00 0.000000e+00
      vertex -1.467295e+01 -1.763355e+00 0.000000e+00
      vertex 1.410000e+01 0.000000e+00 0.000000e+00
    endloop
  endfacet
  facet normal 0.000000e+00 0.000000e+00 -1.000000e+00
    outer loop
      vertex 1.467295e+01 -1.763355e+00 0.000000e+00
      vertex -1.617295e+01 -2.853170e+00 0.000000e+00
      vertex -1.467295e+01 -1.763355e+00 0.000000e+00
    endloop
  endfacet
  facet normal 0.000000e+00 0.000000e+00 -1.000000e+00
    outer loop
      vertex -1.410000e+01 0.000000e+00 0.000000e+00
      vertex 1.110000e+01 6.000000e+00 0.000000e+00
      vertex 1.710000e+01 6.000000e+00 0.000000e+00
    endloop
  endfacet
  facet normal -1.000000e+00 -0.000000e+00 -0.000000e+00
    outer loop
      vertex -2.301817e+01 -9.875679e-01 0.000000e+00
      vertex -2.301817e+01 -9.875679e-01 2.500000e+00
      vertex -2.301817e+01 9.875679e-01 0.000000e+00
    endloop
  endfacet
  facet normal -1.000000e+00 0.000000e+00 0.000000e+00
    outer loop
      vertex -2.301817e+01 9.875679e-01 0.000000e+00
      vertex -2.301817e+01 -9.875679e-01 2.500000e+00
      vertex -2.301817e+01 9.875679e-01 2.500000e+00
    endloop
  endfacet
  facet normal -9.458174e-01 -3.246991e-01 -0.000000e+00
    outer loop
      vertex -2.301817e+01 -9.875679e-01 0.000000e+00
      vertex -2.237684e+01 -2.855684e+00 0.000000e+00
      vertex -2.301817e+01 -9.875679e-01 2.500000e+00
    endloop
  endfacet
  facet normal -9.458174e-01 -3.246991e-01 0.000000e+00
    outer loop
      vertex -2.301817e+01 -9.875679e-01 2.500000e+00
      vertex -2.237684e+01 -2.855684e+00 0.000000e+00
      vertex -2.237684e+01 -2.855684e+00 2.500000e+00
    endloop
  endfacet
  facet normal -7.891402e-01 -6.142131e-01 -0.000000e+00
    outer loop
      vertex -2.237684e+01 -2.855684e+00 0.000000e+00
      vertex -2.116369e+01 -4.414343e+00 0.000000e+00
      vertex -2.237684e+01 -2.855684e+00 2.500000e+00
    endloop
  endfacet
  facet normal -7.891402e-01 -6.142131e-01 0.000000e+00
    outer loop
      vertex -2.237684e+01 -2.855684e+00 2.500000e+00
      vertex -2.116369e+01 -4.414343e+00 0.000000e+00
      vertex -2.116369e+01 -4.414343e+00 2.500000e+00
    endloop
  endfacet
  facet normal -5.469490e-01 -8.371660e-01 0.000000e+00
    outer loop
      vertex -2.116369e+01 -4.414343e+00 2.500000e+00
      vertex -2.116369e+01 -4.414343e+00 0.000000e+00
      vertex -1.951017e+01 -5.494640e+00 0.000000e+00
    endloop
  endfacet
  facet normal -5.469490e-01 -8.371660e-01 0.000000e+00
    outer loop
      vertex -1.951017e+01 -5.494640e+00 2.500000e+00
      vertex -2.116369e+01 -4.414343e+00 2.500000e+00
      vertex -1.951017e+01 -5.494640e+00 0.000000e+00
    endloop
  endfacet
  facet normal -2.454851e-01 -9.694003e-01 0.000000e+00
    outer loop
      vertex -1.951017e+01 -5.494640e+00 2.500000e+00
      vertex -1.951017e+01 -5.494640e+00 0.000000e+00
      vertex -1.759548e+01 -5.979507e+00 0.000000e+00
    endloop
  endfacet
  facet normal -2.454851e-01 -9.694003e-01 0.000000e+00
    outer loop
      vertex -1.759548e+01 -5.979507e+00 2.500000e+00
      vertex -1.951017e+01 -5.494640e+00 2.500000e+00
      vertex -1.759548e+01 -5.979507e+00 0.000000e+00
    endloop
  endfacet
  facet normal 8.257896e-02 -9.965845e-01 0.000000e+00
    outer loop
      vertex -1.759548e+01 -5.979507e+00 2.500000e+00
      vertex -1.759548e+01 -5.979507e+00 0.000000e+00
      vertex -1.710000e+01 -5.938452e+00 0.000000e+00
    endloop
  endfacet
  facet normal 8.257896e-02 -9.965845e-01 0.000000e+00
    outer loop
      vertex -1.710000e+01 -5.938452e+00 2.500000e+00
      vertex -1.759548e+01 -5.979507e+00 2.500000e+00
      vertex -1.710000e+01 -5.938452e+00 0.000000e+00
    endloop
  endfacet
  facet normal -1.000000e+00 -0.000000e+00 -0.000000e+00
    outer loop
      vertex -1.710000e+01 -6.000000e+00 0.000000e+00
      vertex -1.710000e+01 -6.000000e+00 2.500000e+00
      vertex -1.710000e+01 -5.938452e+00 0.000000e+00
    endloop
  endfacet
  facet normal -1.000000e+00 0.000000e+00 0.000000e+00
    outer loop
      vertex -1.710000e+01 -5.938452e+00 0.000000e+00
      vertex -1.710000e+01 -6.000000e+00 2.500000e+00
      vertex -1.710000e+01 -5.938452e+00 2.500000e+00
    endloop
  endfacet
  facet normal 0.000000e+00 -1.000000e+00 0.000000e+00
    outer loop
      vertex -1.710000e+01 -6.000000e+00 2.500000e+00
      vertex -1.710000e+01 -6.000000e+00 0.000000e+00
      vertex -1.110000e+01 -6.000000e+00 0.000000e+00
    endloop
  endfacet
  facet normal 0.000000e+00 -1.000000e+00 0.000000e+00
    outer loop
      vertex -1.110000e+01 -6.000000e+00 2.500000e+00
      vertex -1.710000e+01 -6.000000e+00 2.500000e+00
      vertex -1.110000e+01 -6.000000e+00 0.000000e+00
    endloop
  endfacet
  facet normal -1.000000e+00 -0.000000e+00 -0.000000e+00
    outer loop
      vertex -1.110000e+01 -2.250000e+01 0.000000e+00
      vertex -1.110000e+01 -2.250000e+01 1.000000e+01
      vertex -1.110000e+01 -6.000000e+00 0.000000e+00
    endloop
  endfacet
  facet normal -1.000000e+00 0.000000e+00 0.000000e+00
    outer loop
      vertex -1.110000e+01 -6.000000e+00 2.500000e+00
      vertex -1.110000e+01 -2.250000e+01 1.000000e+01
      vertex -1.110000e+01 2.250000e+01 1.000000e+01
    endloop
  endfacet
  facet normal -1.000000e+00 0.000000e+00 0.000000e+00
    outer loop
      vertex -1.110000e+01 6.000000e+00 0.000000e+00
      vertex -1.110000e+01 2.250000e+01 1.000000e+01
      vertex -1.110000e+01 2.250000e+01 0.000000e+00
    endloop
  endfacet
  facet normal -1.000000e+00 0.000000e+00 0.000000e+00
    outer loop
      vertex -1.110000e+01 6.000000e+00 2.500000e+00
      vertex -1.110000e+01 2.250000e+01 1.000000e+01
      vertex -1.110000e+01 6.000000e+00 0.000000e+00
    endloop
  endfacet
  facet normal -1.000000e+00 0.000000e+00 0.000000e+00
    outer loop
      vertex -1.110000e+01 -6.000000e+00 0.000000e+00
      vertex -1.110000e+01 -2.250000e+01 1.000000e+01
      vertex -1.110000e+01 -6.000000e+00 2.500000e+00
    endloop
  endfacet
  facet normal -1.000000e+00 0.000000e+00 0.000000e+00
    outer loop
      vertex -1.110000e+01 -6.000000e+00 2.500000e+00
      vertex -1.110000e+01 2.250000e+01 1.000000e+01
      vertex -1.110000e+01 6.000000e+00 2.500000e+00
    endloop
  endfacet
  facet normal 0.000000e+00 -1.000000e+00 0.000000e+00
    outer loop
      vertex -1.110000e+01 -2.250000e+01 1.000000e+01
      vertex -1.110000e+01 -2.250000e+01 0.000000e+00
      vertex 1.110000e+01 -2.250000e+01 0.000000e+00
    endloop
  endfacet
  facet normal 0.000000e+00 -1.000000e+00 0.000000e+00
    outer loop
      vertex 1.110000e+01 -2.250000e+01 1.000000e+01
      vertex -1.110000e+01 -2.250000e+01 1.000000e+01
      vertex 1.110000e+01 -2.250000e+01 0.000000e+00
    endloop
  endfacet
  facet normal 1.000000e+00 0.000000e+00 0.000000e+00
    outer loop
      vertex 1.110000e+01 -2.250000e+01 1.000000e+01
      vertex 1.110000e+01 -2.250000e+01 0.000000e+00
      vertex 1.110000e+01 -6.000000e+00 0.000000e+00
    endloop
  endfacet
  facet normal 1.000000e+00 0.000000e+00 0.000000e+00
    outer loop
      vertex 1.110000e+01 6.000000e+00 2.500000e+00
      vertex 1.110000e+01 -2.250000e+01 1.000000e+01
      vertex 1.110000e+01 -6.000000e+00 2.500000e+00
    endloop
  endfacet
  facet normal 1.000000e+00 0.000000e+00 0.000000e+00
    outer loop
      vertex 1.110000e+01 -6.000000e+00 2.500000e+00
      vertex 1.110000e+01 -2.250000e+01 1.000000e+01
      vertex 1.110000e+01 -6.000000e+00 0.000000e+00
    endloop
  endfacet
  facet normal 1.000000e+00 0.000000e+00 0.000000e+00
    outer loop
      vertex 1.110000e+01 2.250000e+01 0.000000e+00
      vertex 1.110000e+01 -2.250000e+01 1.000000e+01
      vertex 1.110000e+01 6.000000e+00 2.500000e+00
    endloop
  endfacet
  facet normal 1.000000e+00 0.000000e+00 0.000000e+00
    outer loop
      vertex 1.110000e+01 2.250000e+01 0.000000e+00
      vertex 1.110000e+01 6.000000e+00 2.500000e+00
      vertex 1.110000e+01 6.000000e+00 0.000000e+00
    endloop
  endfacet
  facet normal 1.000000e+00 0.000000e+00 0.000000e+00
    outer loop
      vertex 1.110000e+01 2.250000e+01 1.000000e+01
      vertex 1.110000e+01 -2.250000e+01 1.000000e+01
      vertex 1.110000e+01 2.250000e+01 0.000000e+00
    endloop
  endfacet
  facet normal 0.000000e+00 -1.000000e+00 0.000000e+00
    outer loop
      vertex 1.710000e+01 -6.000000e+00 0.000000e+00
      vertex 1.710000e+01 -6.000000e+00 2.500000e+00
      vertex 1.110000e+01 -6.000000e+00 2.500000e+00
    endloop
  endfacet
  facet normal -0.000000e+00 -1.000000e+00 -0.000000e+00
    outer loop
      vertex 1.110000e+01 -6.000000e+00 0.000000e+00
      vertex 1.710000e+01 -6.000000e+00 0.000000e+00
      vertex 1.110000e+01 -6.000000e+00 2.500000e+00
    endloop
  endfacet
  facet normal 1.000000e+00 0.000000e+00 0.000000e+00
    outer loop
      vertex 1.710000e+01 -5.938452e+00 0.000000e+00
      vertex 1.710000e+01 -5.938452e+00 2.500000e+00
      vertex 1.710000e+01 -6.000000e+00 2.500000e+00
    endloop
  endfacet
  facet normal 1.000000e+00 0.000000e+00 0.000000e+00
    outer loop
      vertex 1.710000e+01 -6.000000e+00 0.000000e+00
      vertex 1.710000e+01 -5.938452e+00 0.000000e+00
      vertex 1.710000e+01 -6.000000e+00 2.500000e+00
    endloop
  endfacet
  facet normal -8.257896e-02 -9.965845e-01 -0.000000e+00
    outer loop
      vertex 1.759548e+01 -5.979507e+00 0.000000e+00
      vertex 1.759548e+01 -5.979507e+00 2.500000e+00
      vertex 1.710000e+01 -5.938452e+00 2.500000e+00
    endloop
  endfacet
  facet normal -8.257896e-02 -9.965845e-01 -0.000000e+00
    outer loop
      vertex 1.710000e+01 -5.938452e+00 0.000000e+00
      vertex 1.759548e+01 -5.979507e+00 0.000000e+00
      vertex 1.710000e+01 -5.938452e+00 2.500000e+00
    endloop
  endfacet
  facet normal 2.454851e-01 -9.694003e-01 0.000000e+00
    outer loop
      vertex 1.951017e+01 -5.494640e+00 0.000000e+00
      vertex 1.951017e+01 -5.494640e+00 2.500000e+00
      vertex 1.759548e+01 -5.979507e+00 2.500000e+00
    endloop
  endfacet
  facet normal 2.454851e-01 -9.694003e-01 0.000000e+00
    outer loop
      vertex 1.759548e+01 -5.979507e+00 0.000000e+00
      vertex 1.951017e+01 -5.494640e+00 0.000000e+00
      vertex 1.759548e+01 -5.979507e+00 2.500000e+00
    endloop
  endfacet
  facet normal 5.469490e-01 -8.371660e-01 0.000000e+00
    outer loop
      vertex 2.116369e+01 -4.414343e+00 0.000000e+00
      vertex 2.116369e+01 -4.414343e+00 2.500000e+00
      vertex 1.951017e+01 -5.494640e+00 2.500000e+00
    endloop
  endfacet
  facet normal 5.469490e-01 -8.371660e-01 0.000000e+00
    outer loop
      vertex 1.951017e+01 -5.494640e+00 0.000000e+00
      vertex 2.116369e+01 -4.414343e+00 0.000000e+00
      vertex 1.951017e+01 -5.494640e+00 2.500000e+00
    endloop
  endfacet
  facet normal 7.891402e-01 -6.142131e-01 0.000000e+00
    outer loop
      vertex 2.237684e+01 -2.855684e+00 0.000000e+00
      vertex 2.237684e+01 -2.855684e+00 2.500000e+00
      vertex 2.116369e+01 -4.414343e+00 2.500000e+00
    endloop
  endfacet
  facet normal 7.891402e-01 -6.142131e-01 0.000000e+00
    outer loop
      vertex 2.116369e+01 -4.414343e+00 0.000000e+00
      vertex 2.237684e+01 -2.855684e+00 0.000000e+00
      vertex 2.116369e+01 -4.414343e+00 2.500000e+00
    endloop
  endfacet
  facet normal 9.458174e-01 -3.246991e-01 0.000000e+00
    outer loop
      vertex 2.301817e+01 -9.875679e-01 0.000000e+00
      vertex 2.301817e+01 -9.875679e-01 2.500000e+00
      vertex 2.237684e+01 -2.855684e+00 2.500000e+00
    endloop
  endfacet
  facet normal 9.458174e-01 -3.246991e-01 0.000000e+00
    outer loop
      vertex 2.237684e+01 -2.855684e+00 0.000000e+00
      vertex 2.301817e+01 -9.875679e-01 0.000000e+00
      vertex 2.237684e+01 -2.855684e+00 2.500000e+00
    endloop
  endfacet
  facet normal 1.000000e+00 0.000000e+00 0.000000e+00
    outer loop
      vertex 2.301817e+01 9.875679e-01 0.000000e+00
      vertex 2.301817e+01 9.875679e-01 2.500000e+00
      vertex 2.301817e+01 -9.875679e-01 2.500000e+00
    endloop
  endfacet
  facet normal 1.000000e+00 0.000000e+00 0.000000e+00
    outer loop
      vertex 2.301817e+01 -9.875679e-01 0.000000e+00
      vertex 2.301817e+01 9.875679e-01 0.000000e+00
      vertex 2.301817e+01 -9.875679e-01 2.500000e+00
    endloop
  endfacet
  facet normal 9.458174e-01 3.246991e-01 0.000000e+00
    outer loop
      vertex 2.237684e+01 2.855684e+00 2.500000e+00
      vertex 2.301817e+01 9.875679e-01 2.500000e+00
      vertex 2.301817e+01 9.875679e-01 0.000000e+00
    endloop
  endfacet
  facet normal 9.458174e-01 3.246991e-01 0.000000e+00
    outer loop
      vertex 2.237684e+01 2.855684e+00 0.000000e+00
      vertex 2.237684e+01 2.855684e+00 2.500000e+00
      vertex 2.301817e+01 9.875679e-01 0.000000e+00
    endloop
  endfacet
  facet normal 7.891402e-01 6.142131e-01 0.000000e+00
    outer loop
      vertex 2.116369e+01 4.414343e+00 2.500000e+00
      vertex 2.237684e+01 2.855684e+00 2.500000e+00
      vertex 2.237684e+01 2.855684e+00 0.000000e+00
    endloop
  endfacet
  facet normal 7.891402e-01 6.142131e-01 0.000000e+00
    outer loop
      vertex 2.116369e+01 4.414343e+00 0.000000e+00
      vertex 2.116369e+01 4.414343e+00 2.500000e+00
      vertex 2.237684e+01 2.855684e+00 0.000000e+00
    endloop
  endfacet
  facet normal 5.469490e-01 8.371660e-01 0.000000e+00
    outer loop
      vertex 2.116369e+01 4.414343e+00 2.500000e+00
      vertex 2.116369e+01 4.414343e+00 0.000000e+00
      vertex 1.951017e+01 5.494640e+00 2.500000e+00
    endloop
  endfacet
  facet normal 5.469490e-01 8.371660e-01 0.000000e+00
    outer loop
      vertex 1.951017e+01 5.494640e+00 2.500000e+00
      vertex 2.116369e+01 4.414343e+00 0.000000e+00
      vertex 1.951017e+01 5.494640e+00 0.000000e+00
    endloop
  endfacet
  facet normal 2.454851e-01 9.694003e-01 0.000000e+00
    outer loop
      vertex 1.951017e+01 5.494640e+00 2.500000e+00
      vertex 1.951017e+01 5.494640e+00 0.000000e+00
      vertex 1.759548e+01 5.979507e+00 2.500000e+00
    endloop
  endfacet
  facet normal 2.454851e-01 9.694003e-01 0.000000e+00
    outer loop
      vertex 1.759548e+01 5.979507e+00 2.500000e+00
      vertex 1.951017e+01 5.494640e+00 0.000000e+00
      vertex 1.759548e+01 5.979507e+00 0.000000e+00
    endloop
  endfacet
  facet normal -8.257896e-02 9.965845e-01 0.000000e+00
    outer loop
      vertex 1.759548e+01 5.979507e+00 2.500000e+00
      vertex 1.759548e+01 5.979507e+00 0.000000e+00
      vertex 1.710000e+01 5.938452e+00 2.500000e+00
    endloop
  endfacet
  facet normal -8.257896e-02 9.965845e-01 0.000000e+00
    outer loop
      vertex 1.710000e+01 5.938452e+00 2.500000e+00
      vertex 1.759548e+01 5.979507e+00 0.000000e+00
      vertex 1.710000e+01 5.938452e+00 0.000000e+00
    endloop
  endfacet
  facet normal 1.000000e+00 0.000000e+00 0.000000e+00
    outer loop
      vertex 1.710000e+01 6.000000e+00 0.000000e+00
      vertex 1.710000e+01 6.000000e+00 2.500000e+00
      vertex 1.710000e+01 5.938452e+00 2.500000e+00
    endloop
  endfacet
  facet normal 1.000000e+00 0.000000e+00 0.000000e+00
    outer loop
      vertex 1.710000e+01 5.938452e+00 0.000000e+00
      vertex 1.710000e+01 6.000000e+00 0.000000e+00
      vertex 1.710000e+01 5.938452e+00 2.500000e+00
    endloop
  endfacet
  facet normal 0.000000e+00 1.000000e+00 0.000000e+00
    outer loop
      vertex 1.710000e+01 6.000000e+00 2.500000e+00
      vertex 1.710000e+01 6.000000e+00 0.000000e+00
      vertex 1.110000e+01 6.000000e+00 2.500000e+00
    endloop
  endfacet
  facet normal 0.000000e+00 1.000000e+00 0.000000e+00
    outer loop
      vertex 1.110000e+01 6.000000e+00 2.500000e+00
      vertex 1.710000e+01 6.000000e+00 0.000000e+00
      vertex 1.110000e+01 6.000000e+00 0.000000e+00
    endloop
  endfacet
  facet normal 0.000000e+00 1.000000e+00 0.000000e+00
    outer loop
      vertex -8.600000e+00 2.250000e+01 5.000000e+00
      vertex -1.110000e+01 2.250000e+01 0.000000e+00
      vertex -8.600000e+00 2.250000e+01 6.620000e+00
    endloop
  endfacet
  facet normal 0.000000e+00 1.000000e+00 0.000000e+00
    outer loop
      vertex -8.600000e+00 2.250000e+01 6.620000e+00
      vertex -1.110000e+01 2.250000e+01 1.000000e+01
      vertex -7.600000e+00 2.250000e+01 7.620000e+00
    endloop
  endfacet
  facet normal 0.000000e+00 1.000000e+00 0.000000e+00
    outer loop
      vertex -1.110000e+01 2.250000e+01 0.000000e+00
      vertex -1.110000e+01 2.250000e+01 1.000000e+01
      vertex -8.600000e+00 2.250000e+01 6.620000e+00
    endloop
  endfacet
  facet normal 0.000000e+00 1.000000e+00 0.000000e+00
    outer loop
      vertex -7.600000e+00 2.250000e+01 2.500000e+00
      vertex -8.600000e+00 2.250000e+01 5.000000e+00
      vertex -7.600000e+00 2.250000e+01 5.000000e+00
    endloop
  endfacet
  facet normal 0.000000e+00 1.000000e+00 0.000000e+00
    outer loop
      vertex 7.600001e+00 2.250000e+01 2.500000e+00
      vertex 1.110000e+01 2.250000e+01 0.000000e+00
      vertex -7.600000e+00 2.250000e+01 2.500000e+00
    endloop
  endfacet
  facet normal 0.000000e+00 1.000000e+00 0.000000e+00
    outer loop
      vertex -1.110000e+01 2.250000e+01 0.000000e+00
      vertex -8.600000e+00 2.250000e+01 5.000000e+00
      vertex -7.600000e+00 2.250000e+01 2.500000e+00
    endloop
  endfacet
  facet normal 0.000000e+00 1.000000e+00 0.000000e+00
    outer loop
      vertex -1.110000e+01 2.250000e+01 0.000000e+00
      vertex -7.600000e+00 2.250000e+01 2.500000e+00
      vertex 1.110000e+01 2.250000e+01 0.000000e+00
    endloop
  endfacet
  facet normal 0.000000e+00 1.000000e+00 0.000000e+00
    outer loop
      vertex 1.110000e+01 2.250000e+01 0.000000e+00
      vertex 7.600001e+00 2.250000e+01 2.500000e+00
      vertex 7.600001e+00 2.250000e+01 5.000000e+00
    endloop
  endfacet
  facet normal 0.000000e+00 1.000000e+00 0.000000e+00
    outer loop
      vertex 1.110000e+01 2.250000e+01 0.000000e+00
      vertex 7.600001e+00 2.250000e+01 5.000000e+00
      vertex 8.600001e+00 2.250000e+01 5.000000e+00
    endloop
  endfacet
  facet normal 0.000000e+00 1.000000e+00 0.000000e+00
    outer loop
      vertex 8.600001e+00 2.250000e+01 5.000000e+00
      vertex 8.600001e+00 2.250000e+01 6.620000e+00
      vertex 1.110000e+01 2.250000e+01 0.000000e+00
    endloop
  endfacet
  facet normal 0.000000e+00 1.000000e+00 0.000000e+00
    outer loop
      vertex 8.600001e+00 2.250000e+01 6.620000e+00
      vertex 7.600001e+00 2.250000e+01 7.620000e+00
      vertex 7.600001e+00 2.250000e+01 1.000000e+01
    endloop
  endfacet
  facet normal 0.000000e+00 1.000000e+00 0.000000e+00
    outer loop
      vertex 8.600001e+00 2.250000e+01 6.620000e+00
      vertex 7.600001e+00 2.250000e+01 1.000000e+01
      vertex 1.110000e+01 2.250000e+01 0.000000e+00
    endloop
  endfacet
  facet normal 0.000000e+00 1.000000e+00 0.000000e+00
    outer loop
      vertex 1.110000e+01 2.250000e+01 0.000000e+00
      vertex 7.600001e+00 2.250000e+01 1.000000e+01
      vertex 1.110000e+01 2.250000e+01 1.000000e+01
    endloop
  endfacet
  facet normal 0.000000e+00 1.000000e+00 0.000000e+00
    outer loop
      vertex -7.600000e+00 2.250000e+01 7.620000e+00
      vertex -1.110000e+01 2.250000e+01 1.000000e+01
      vertex -7.600000e+00 2.250000e+01 1.000000e+01
    endloop
  endfacet
  facet normal 0.000000e+00 1.000000e+00 0.000000e+00
    outer loop
      vertex -1.710000e+01 6.000000e+00 0.000000e+00
      vertex -1.710000e+01 6.000000e+00 2.500000e+00
      vertex -1.110000e+01 6.000000e+00 0.000000e+00
    endloop
  endfacet
  facet normal 0.000000e+00 1.000000e+00 0.000000e+00
    outer loop
      vertex -1.110000e+01 6.000000e+00 0.000000e+00
      vertex -1.710000e+01 6.000000e+00 2.500000e+00
      vertex -1.110000e+01 6.000000e+00 2.500000e+00
    endloop
  endfacet
  facet normal -1.000000e+00 -0.000000e+00 -0.000000e+00
    outer loop
      vertex -1.710000e+01 5.938452e+00 0.000000e+00
      vertex -1.710000e+01 5.938452e+00 2.500000e+00
      vertex -1.710000e+01 6.000000e+00 0.000000e+00
    endloop
  endfacet
  facet normal -1.000000e+00 0.000000e+00 0.000000e+00
    outer loop
      vertex -1.710000e+01 6.000000e+00 0.000000e+00
      vertex -1.710000e+01 5.938452e+00 2.500000e+00
      vertex -1.710000e+01 6.000000e+00 2.500000e+00
    endloop
  endfacet
  facet normal 8.257896e-02 9.965845e-01 0.000000e+00
    outer loop
      vertex -1.759548e+01 5.979507e+00 0.000000e+00
      vertex -1.759548e+01 5.979507e+00 2.500000e+00
      vertex -1.710000e+01 5.938452e+00 0.000000e+00
    endloop
  endfacet
  facet normal 8.257896e-02 9.965845e-01 0.000000e+00
    outer loop
      vertex -1.710000e+01 5.938452e+00 0.000000e+00
      vertex -1.759548e+01 5.979507e+00 2.500000e+00
      vertex -1.710000e+01 5.938452e+00 2.500000e+00
    endloop
  endfacet
  facet normal -2.454851e-01 9.694003e-01 0.000000e+00
    outer loop
      vertex -1.951017e+01 5.494640e+00 0.000000e+00
      vertex -1.951017e+01 5.494640e+00 2.500000e+00
      vertex -1.759548e+01 5.979507e+00 0.000000e+00
    endloop
  endfacet
  facet normal -2.454851e-01 9.694003e-01 0.000000e+00
    outer loop
      vertex -1.759548e+01 5.979507e+00 0.000000e+00
      vertex -1.951017e+01 5.494640e+00 2.500000e+00
      vertex -1.759548e+01 5.979507e+00 2.500000e+00
    endloop
  endfacet
  facet normal -5.469490e-01 8.371660e-01 0.000000e+00
    outer loop
      vertex -2.116369e+01 4.414343e+00 0.000000e+00
      vertex -2.116369e+01 4.414343e+00 2.500000e+00
      vertex -1.951017e+01 5.494640e+00 0.000000e+00
    endloop
  endfacet
  facet normal -5.469490e-01 8.371660e-01 0.000000e+00
    outer loop
      vertex -1.951017e+01 5.494640e+00 0.000000e+00
      vertex -2.116369e+01 4.414343e+00 2.500000e+00
      vertex -1.951017e+01 5.494640e+00 2.500000e+00
    endloop
  endfacet
  facet normal -7.891402e-01 6.142131e-01 0.000000e+00
    outer loop
      vertex -2.237684e+01 2.855684e+00 0.000000e+00
      vertex -2.237684e+01 2.855684e+00 2.500000e+00
      vertex -2.116369e+01 4.414343e+00 0.000000e+00
    endloop
  endfacet
  facet normal -7.891402e-01 6.142131e-01 0.000000e+00
    outer loop
      vertex -2.116369e+01 4.414343e+00 0.000000e+00
      vertex -2.237684e+01 2.855684e+00 2.500000e+00
      vertex -2.116369e+01 4.414343e+00 2.500000e+00
    endloop
  endfacet
  facet normal -9.458174e-01 3.246991e-01 0.000000e+00
    outer loop
      vertex -2.301817e+01 9.875679e-01 0.000000e+00
      vertex -2.301817e+01 9.875679e-01 2.500000e+00
      vertex -2.237684e+01 2.855684e+00 0.000000e+00
    endloop
  endfacet
  facet normal -9.458174e-01 3.246991e-01 0.000000e+00
    outer loop
      vertex -2.237684e+01 2.855684e+00 0.000000e+00
      vertex -2.301817e+01 9.875679e-01 2.500000e+00
      vertex -2.237684e+01 2.855684e+00 2.500000e+00
    endloop
  endfacet
  facet normal 9.510565e-01 -3.090169e-01 0.000000e+00
    outer loop
      vertex -1.952705e+01 1.763355e+00 0.000000e+00
      vertex -1.952705e+01 1.763355e+00 2.500000e+00
      vertex -2.010000e+01 0.000000e+00 2.500000e+00
    endloop
  endfacet
  facet normal 9.510565e-01 -3.090169e-01 0.000000e+00
    outer loop
      vertex -2.010000e+01 0.000000e+00 0.000000e+00
      vertex -1.952705e+01 1.763355e+00 0.000000e+00
      vertex -2.010000e+01 0.000000e+00 2.500000e+00
    endloop
  endfacet
  facet normal 9.510565e-01 3.090169e-01 0.000000e+00
    outer loop
      vertex -2.010000e+01 0.000000e+00 2.500000e+00
      vertex -1.952705e+01 -1.763355e+00 2.500000e+00
      vertex -1.952705e+01 -1.763355e+00 0.000000e+00
    endloop
  endfacet
  facet normal 9.510565e-01 3.090169e-01 0.000000e+00
    outer loop
      vertex -2.010000e+01 0.000000e+00 0.000000e+00
      vertex -2.010000e+01 0.000000e+00 2.500000e+00
      vertex -1.952705e+01 -1.763355e+00 0.000000e+00
    endloop
  endfacet
  facet normal 5.877851e-01 -8.090171e-01 0.000000e+00
    outer loop
      vertex -1.802705e+01 2.853170e+00 0.000000e+00
      vertex -1.802705e+01 2.853170e+00 2.500000e+00
      vertex -1.952705e+01 1.763355e+00 2.500000e+00
    endloop
  endfacet
  facet normal 5.877851e-01 -8.090171e-01 0.000000e+00
    outer loop
      vertex -1.952705e+01 1.763355e+00 0.000000e+00
      vertex -1.802705e+01 2.853170e+00 0.000000e+00
      vertex -1.952705e+01 1.763355e+00 2.500000e+00
    endloop
  endfacet
  facet normal 0.000000e+00 -1.000000e+00 0.000000e+00
    outer loop
      vertex -1.617295e+01 2.853170e+00 0.000000e+00
      vertex -1.617295e+01 2.853170e+00 2.500000e+00
      vertex -1.802705e+01 2.853170e+00 2.500000e+00
    endloop
  endfacet
  facet normal -0.000000e+00 -1.000000e+00 -0.000000e+00
    outer loop
      vertex -1.802705e+01 2.853170e+00 0.000000e+00
      vertex -1.617295e+01 2.853170e+00 0.000000e+00
      vertex -1.802705e+01 2.853170e+00 2.500000e+00
    endloop
  endfacet
  facet normal -5.877851e-01 -8.090171e-01 -0.000000e+00
    outer loop
      vertex -1.467295e+01 1.763355e+00 0.000000e+00
      vertex -1.467295e+01 1.763355e+00 2.500000e+00
      vertex -1.617295e+01 2.853170e+00 2.500000e+00
    endloop
  endfacet
  facet normal -5.877851e-01 -8.090171e-01 -0.000000e+00
    outer loop
      vertex -1.617295e+01 2.853170e+00 0.000000e+00
      vertex -1.467295e+01 1.763355e+00 0.000000e+00
      vertex -1.617295e+01 2.853170e+00 2.500000e+00
    endloop
  endfacet
  facet normal -9.510565e-01 -3.090169e-01 0.000000e+00
    outer loop
      vertex -1.410000e+01 0.000000e+00 2.500000e+00
      vertex -1.467295e+01 1.763355e+00 2.500000e+00
      vertex -1.410000e+01 0.000000e+00 0.000000e+00
    endloop
  endfacet
  facet normal -9.510565e-01 -3.090169e-01 0.000000e+00
    outer loop
      vertex -1.410000e+01 0.000000e+00 0.000000e+00
      vertex -1.467295e+01 1.763355e+00 2.500000e+00
      vertex -1.467295e+01 1.763355e+00 0.000000e+00
    endloop
  endfacet
  facet normal -9.510565e-01 3.090169e-01 0.000000e+00
    outer loop
      vertex -1.410000e+01 0.000000e+00 2.500000e+00
      vertex -1.410000e+01 0.000000e+00 0.000000e+00
      vertex -1.467295e+01 -1.763355e+00 2.500000e+00
    endloop
  endfacet
  facet normal -9.510565e-01 3.090169e-01 0.000000e+00
    outer loop
      vertex -1.467295e+01 -1.763355e+00 2.500000e+00
      vertex -1.410000e+01 0.000000e+00 0.000000e+00
      vertex -1.467295e+01 -1.763355e+00 0.000000e+00
    endloop
  endfacet
  facet normal -5.877851e-01 8.090171e-01 0.000000e+00
    outer loop
      vertex -1.467295e+01 -1.763355e+00 2.500000e+00
      vertex -1.467295e+01 -1.763355e+00 0.000000e+00
      vertex -1.617295e+01 -2.853170e+00 2.500000e+00
    endloop
  endfacet
  facet normal -5.877851e-01 8.090171e-01 0.000000e+00
    outer loop
      vertex -1.617295e+01 -2.853170e+00 2.500000e+00
      vertex -1.467295e+01 -1.763355e+00 0.000000e+00
      vertex -1.617295e+01 -2.853170e+00 0.000000e+00
    endloop
  endfacet
  facet normal 0.000000e+00 1.000000e+00 0.000000e+00
    outer loop
      vertex -1.617295e+01 -2.853170e+00 2.500000e+00
      vertex -1.617295e+01 -2.853170e+00 0.000000e+00
      vertex -1.802705e+01 -2.853170e+00 2.500000e+00
    endloop
  endfacet
  facet normal 0.000000e+00 1.000000e+00 0.000000e+00
    outer loop
      vertex -1.802705e+01 -2.853170e+00 2.500000e+00
      vertex -1.617295e+01 -2.853170e+00 0.000000e+00
      vertex -1.802705e+01 -2.853170e+00 0.000000e+00
    endloop
  endfacet
  facet normal 5.877851e-01 8.090171e-01 0.000000e+00
    outer loop
      vertex -1.802705e+01 -2.853170e+00 2.500000e+00
      vertex -1.802705e+01 -2.853170e+00 0.000000e+00
      vertex -1.952705e+01 -1.763355e+00 2.500000e+00
    endloop
  endfacet
  facet normal 5.877851e-01 8.090171e-01 0.000000e+00
    outer loop
      vertex -1.952705e+01 -1.763355e+00 2.500000e+00
      vertex -1.802705e+01 -2.853170e+00 0.000000e+00
      vertex -1.952705e+01 -1.763355e+00 0.000000e+00
    endloop
  endfacet
  facet normal 9.510565e-01 -3.090169e-01 0.000000e+00
    outer loop
      vertex 1.410000e+01 0.000000e+00 2.500000e+00
      vertex 1.410000e+01 0.000000e+00 0.000000e+00
      vertex 1.467295e+01 1.763355e+00 0.000000e+00
    endloop
  endfacet
  facet normal 9.510565e-01 -3.090169e-01 0.000000e+00
    outer loop
      vertex 1.467295e+01 1.763355e+00 2.500000e+00
      vertex 1.410000e+01 0.000000e+00 2.500000e+00
      vertex 1.467295e+01 1.763355e+00 0.000000e+00
    endloop
  endfacet
  facet normal 9.510565e-01 3.090169e-01 0.000000e+00
    outer loop
      vertex 1.467295e+01 -1.763355e+00 0.000000e+00
      vertex 1.410000e+01 0.000000e+00 0.000000e+00
      vertex 1.410000e+01 0.000000e+00 2.500000e+00
    endloop
  endfacet
  facet normal 9.510565e-01 3.090169e-01 0.000000e+00
    outer loop
      vertex 1.467295e+01 -1.763355e+00 2.500000e+00
      vertex 1.467295e+01 -1.763355e+00 0.000000e+00
      vertex 1.410000e+01 0.000000e+00 2.500000e+00
    endloop
  endfacet
  facet normal 5.877851e-01 -8.090171e-01 0.000000e+00
    outer loop
      vertex 1.467295e+01 1.763355e+00 2.500000e+00
      vertex 1.467295e+01 1.763355e+00 0.000000e+00
      vertex 1.617295e+01 2.853170e+00 0.000000e+00
    endloop
  endfacet
  facet normal 5.877851e-01 -8.090171e-01 0.000000e+00
    outer loop
      vertex 1.617295e+01 2.853170e+00 2.500000e+00
      vertex 1.467295e+01 1.763355e+00 2.500000e+00
      vertex 1.617295e+01 2.853170e+00 0.000000e+00
    endloop
  endfacet
  facet normal 0.000000e+00 -1.000000e+00 0.000000e+00
    outer loop
      vertex 1.617295e+01 2.853170e+00 2.500000e+00
      vertex 1.617295e+01 2.853170e+00 0.000000e+00
      vertex 1.802705e+01 2.853170e+00 0.000000e+00
    endloop
  endfacet
  facet normal 0.000000e+00 -1.000000e+00 0.000000e+00
    outer loop
      vertex 1.802705e+01 2.853170e+00 2.500000e+00
      vertex 1.617295e+01 2.853170e+00 2.500000e+00
      vertex 1.802705e+01 2.853170e+00 0.000000e+00
    endloop
  endfacet
  facet normal -5.877851e-01 -8.090171e-01 0.000000e+00
    outer loop
      vertex 1.802705e+01 2.853170e+00 2.500000e+00
      vertex 1.802705e+01 2.853170e+00 0.000000e+00
      vertex 1.952705e+01 1.763355e+00 0.000000e+00
    endloop
  endfacet
  facet normal -5.877851e-01 -8.090171e-01 0.000000e+00
    outer loop
      vertex 1.952705e+01 1.763355e+00 2.500000e+00
      vertex 1.802705e+01 2.853170e+00 2.500000e+00
      vertex 1.952705e+01 1.763355e+00 0.000000e+00
    endloop
  endfacet
  facet normal -9.510565e-01 -3.090169e-01 -0.000000e+00
    outer loop
      vertex 1.952705e+01 1.763355e+00 0.000000e+00
      vertex 2.010000e+01 0.000000e+00 0.000000e+00
      vertex 1.952705e+01 1.763355e+00 2.500000e+00
    endloop
  endfacet
  facet normal -9.510565e-01 -3.090169e-01 0.000000e+00
    outer loop
      vertex 1.952705e+01 1.763355e+00 2.500000e+00
      vertex 2.010000e+01 0.000000e+00 0.000000e+00
      vertex 2.010000e+01 0.000000e+00 2.500000e+00
    endloop
  endfacet
  facet normal -9.510565e-01 3.090169e-01 0.000000e+00
    outer loop
      vertex 1.952705e+01 -1.763355e+00 0.000000e+00
      vertex 1.952705e+01 -1.763355e+00 2.500000e+00
      vertex 2.010000e+01 0.000000e+00 0.000000e+00
    endloop
  endfacet
  facet normal -9.510565e-01 3.090169e-01 0.000000e+00
    outer loop
      vertex 2.010000e+01 0.000000e+00 0.000000e+00
      vertex 1.952705e+01 -1.763355e+00 2.500000e+00
      vertex 2.010000e+01 0.000000e+00 2.500000e+00
    endloop
  endfacet
  facet normal -5.877851e-01 8.090171e-01 0.000000e+00
    outer loop
      vertex 1.802705e+01 -2.853170e+00 0.000000e+00
      vertex 1.802705e+01 -2.853170e+00 2.500000e+00
      vertex 1.952705e+01 -1.763355e+00 0.000000e+00
    endloop
  endfacet
  facet normal -5.877851e-01 8.090171e-01 0.000000e+00
    outer loop
      vertex 1.952705e+01 -1.763355e+00 0.000000e+00
      vertex 1.802705e+01 -2.853170e+00 2.500000e+00
      vertex 1.952705e+01 -1.763355e+00 2.500000e+00
    endloop
  endfacet
  facet normal 0.000000e+00 1.000000e+00 0.000000e+00
    outer loop
      vertex 1.617295e+01 -2.853170e+00 0.000000e+00
      vertex 1.617295e+01 -2.853170e+00 2.500000e+00
      vertex 1.802705e+01 -2.853170e+00 0.000000e+00
    endloop
  endfacet
  facet normal 0.000000e+00 1.000000e+00 0.000000e+00
    outer loop
      vertex 1.802705e+01 -2.853170e+00 0.000000e+00
      vertex 1.617295e+01 -2.853170e+00 2.500000e+00
      vertex 1.802705e+01 -2.853170e+00 2.500000e+00
    endloop
  endfacet
  facet normal 5.877851e-01 8.090171e-01 0.000000e+00
    outer loop
      vertex 1.467295e+01 -1.763355e+00 0.000000e+00
      vertex 1.467295e+01 -1.763355e+00 2.500000e+00
      vertex 1.617295e+01 -2.853170e+00 0.000000e+00
    endloop
  endfacet
  facet normal 5.877851e-01 8.090171e-01 0.000000e+00
    outer loop
      vertex 1.617295e+01 -2.853170e+00 0.000000e+00
      vertex 1.467295e+01 -1.763355e+00 2.500000e+00
      vertex 1.617295e+01 -2.853170e+00 2.500000e+00
    endloop
  endfacet
  facet normal 0.000000e+00 0.000000e+00 1.000000e+00
    outer loop
      vertex -2.301817e+01 9.875679e-01 2.500000e+00
      vertex -2.301817e+01 -9.875679e-01 2.500000e+00
      vertex -2.237684e+01 -2.855684e+00 2.500000e+00
    endloop
  endfacet
  facet normal 0.000000e+00 0.000000e+00 1.000000e+00
    outer loop
      vertex -1.951017e+01 -5.494640e+00 2.500000e+00
      vertex -2.301817e+01 9.875679e-01 2.500000e+00
      vertex -2.116369e+01 -4.414343e+00 2.500000e+00
    endloop
  endfacet
  facet normal 0.000000e+00 0.000000e+00 1.000000e+00
    outer loop
      vertex -2.116369e+01 -4.414343e+00 2.500000e+00
      vertex -2.301817e+01 9.875679e-01 2.500000e+00
      vertex -2.237684e+01 -2.855684e+00 2.500000e+00
    endloop
  endfacet
  facet normal 0.000000e+00 0.000000e+00 1.000000e+00
    outer loop
      vertex -1.759548e+01 -5.979507e+00 2.500000e+00
      vertex -2.301817e+01 9.875679e-01 2.500000e+00
      vertex -1.951017e+01 -5.494640e+00 2.500000e+00
    endloop
  endfacet
  facet normal 0.000000e+00 0.000000e+00 1.000000e+00
    outer loop
      vertex -1.710000e+01 -5.938452e+00 2.500000e+00
      vertex -2.301817e+01 9.875679e-01 2.500000e+00
      vertex -1.759548e+01 -5.979507e+00 2.500000e+00
    endloop
  endfacet
  facet normal 0.000000e+00 0.000000e+00 1.000000e+00
    outer loop
      vertex -1.952705e+01 -1.763355e+00 2.500000e+00
      vertex -2.301817e+01 9.875679e-01 2.500000e+00
      vertex -1.710000e+01 -5.938452e+00 2.500000e+00
    endloop
  endfacet
  facet normal 0.000000e+00 0.000000e+00 1.000000e+00
    outer loop
      vertex -1.110000e+01 -6.000000e+00 2.500000e+00
      vertex -1.710000e+01 -5.938452e+00 2.500000e+00
      vertex -1.710000e+01 -6.000000e+00 2.500000e+00
    endloop
  endfacet
  facet normal 0.000000e+00 0.000000e+00 1.000000e+00
    outer loop
      vertex -1.802705e+01 2.853170e+00 2.500000e+00
      vertex -1.617295e+01 2.853170e+00 2.500000e+00
      vertex -1.110000e+01 6.000000e+00 2.500000e+00
    endloop
  endfacet
  facet normal 0.000000e+00 0.000000e+00 1.000000e+00
    outer loop
      vertex -1.710000e+01 5.938452e+00 2.500000e+00
      vertex -2.301817e+01 9.875679e-01 2.500000e+00
      vertex -1.110000e+01 6.000000e+00 2.500000e+00
    endloop
  endfacet
  facet normal 0.000000e+00 0.000000e+00 1.000000e+00
    outer loop
      vertex -1.710000e+01 6.000000e+00 2.500000e+00
      vertex -1.710000e+01 5.938452e+00 2.500000e+00
      vertex -1.110000e+01 6.000000e+00 2.500000e+00
    endloop
  endfacet
  facet normal 0.000000e+00 0.000000e+00 1.000000e+00
    outer loop
      vertex -1.951017e+01 5.494640e+00 2.500000e+00
      vertex -2.301817e+01 9.875679e-01 2.500000e+00
      vertex -1.759548e+01 5.979507e+00 2.500000e+00
    endloop
  endfacet
  facet normal 0.000000e+00 0.000000e+00 1.000000e+00
    outer loop
      vertex -2.116369e+01 4.414343e+00 2.500000e+00
      vertex -2.301817e+01 9.875679e-01 2.500000e+00
      vertex -1.951017e+01 5.494640e+00 2.500000e+00
    endloop
  endfacet
  facet normal 0.000000e+00 0.000000e+00 1.000000e+00
    outer loop
      vertex -2.237684e+01 2.855684e+00 2.500000e+00
      vertex -2.301817e+01 9.875679e-01 2.500000e+00
      vertex -2.116369e+01 4.414343e+00 2.500000e+00
    endloop
  endfacet
  facet normal 0.000000e+00 0.000000e+00 1.000000e+00
    outer loop
      vertex -1.802705e+01 -2.853170e+00 2.500000e+00
      vertex -1.952705e+01 -1.763355e+00 2.500000e+00
      vertex -1.710000e+01 -5.938452e+00 2.500000e+00
    endloop
  endfacet
  facet normal 0.000000e+00 0.000000e+00 1.000000e+00
    outer loop
      vertex -1.617295e+01 -2.853170e+00 2.500000e+00
      vertex -1.802705e+01 -2.853170e+00 2.500000e+00
      vertex -1.110000e+01 -6.000000e+00 2.500000e+00
    endloop
  endfacet
  facet normal 0.000000e+00 0.000000e+00 1.000000e+00
    outer loop
      vertex -1.952705e+01 1.763355e+00 2.500000e+00
      vertex -2.301817e+01 9.875679e-01 2.500000e+00
      vertex -2.010000e+01 0.000000e+00 2.500000e+00
    endloop
  endfacet
  facet normal 0.000000e+00 0.000000e+00 1.000000e+00
    outer loop
      vertex -1.802705e+01 2.853170e+00 2.500000e+00
      vertex -2.301817e+01 9.875679e-01 2.500000e+00
      vertex -1.952705e+01 1.763355e+00 2.500000e+00
    endloop
  endfacet
  facet normal 0.000000e+00 0.000000e+00 1.000000e+00
    outer loop
      vertex -1.617295e+01 2.853170e+00 2.500000e+00
      vertex -1.467295e+01 1.763355e+00 2.500000e+00
      vertex -1.110000e+01 6.000000e+00 2.500000e+00
    endloop
  endfacet
  facet normal 0.000000e+00 0.000000e+00 1.000000e+00
    outer loop
      vertex -1.110000e+01 6.000000e+00 2.500000e+00
      vertex -2.301817e+01 9.875679e-01 2.500000e+00
      vertex -1.802705e+01 2.853170e+00 2.500000e+00
    endloop
  endfacet
  facet normal 0.000000e+00 0.000000e+00 1.000000e+00
    outer loop
      vertex -1.467295e+01 -1.763355e+00 2.500000e+00
      vertex -1.617295e+01 -2.853170e+00 2.500000e+00
      vertex -1.110000e+01 -6.000000e+00 2.500000e+00
    endloop
  endfacet
  facet normal 0.000000e+00 0.000000e+00 1.000000e+00
    outer loop
      vertex -1.110000e+01 6.000000e+00 2.500000e+00
      vertex -1.467295e+01 1.763355e+00 2.500000e+00
      vertex -1.110000e+01 -6.000000e+00 2.500000e+00
    endloop
  endfacet
  facet normal 0.000000e+00 0.000000e+00 1.000000e+00
    outer loop
      vertex -1.467295e+01 1.763355e+00 2.500000e+00
      vertex -1.410000e+01 0.000000e+00 2.500000e+00
      vertex -1.110000e+01 -6.000000e+00 2.500000e+00
    endloop
  endfacet
  facet normal 0.000000e+00 0.000000e+00 1.000000e+00
    outer loop
      vertex -1.410000e+01 0.000000e+00 2.500000e+00
      vertex -1.467295e+01 -1.763355e+00 2.500000e+00
      vertex -1.110000e+01 -6.000000e+00 2.500000e+00
    endloop
  endfacet
  facet normal 0.000000e+00 0.000000e+00 1.000000e+00
    outer loop
      vertex -1.110000e+01 -6.000000e+00 2.500000e+00
      vertex -1.802705e+01 -2.853170e+00 2.500000e+00
      vertex -1.710000e+01 -5.938452e+00 2.500000e+00
    endloop
  endfacet
  facet normal 0.000000e+00 0.000000e+00 1.000000e+00
    outer loop
      vertex -1.710000e+01 5.938452e+00 2.500000e+00
      vertex -1.759548e+01 5.979507e+00 2.500000e+00
      vertex -2.301817e+01 9.875679e-01 2.500000e+00
    endloop
  endfacet
  facet normal 0.000000e+00 0.000000e+00 1.000000e+00
    outer loop
      vertex -1.952705e+01 -1.763355e+00 2.500000e+00
      vertex -2.010000e+01 0.000000e+00 2.500000e+00
      vertex -2.301817e+01 9.875679e-01 2.500000e+00
    endloop
  endfacet
  facet normal 0.000000e+00 0.000000e+00 1.000000e+00
    outer loop
      vertex 7.600001e+00 -2.000000e+01 1.000000e+01
      vertex -1.110000e+01 -2.250000e+01 1.000000e+01
      vertex 1.110000e+01 -2.250000e+01 1.000000e+01
    endloop
  endfacet
  facet normal 0.000000e+00 0.000000e+00 1.000000e+00
    outer loop
      vertex -7.600000e+00 -2.000000e+01 1.000000e+01
      vertex -7.600000e+00 2.250000e+01 1.000000e+01
      vertex -1.110000e+01 2.250000e+01 1.000000e+01
    endloop
  endfacet
  facet normal 0.000000e+00 0.000000e+00 1.000000e+00
    outer loop
      vertex 1.110000e+01 2.250000e+01 1.000000e+01
      vertex 7.600001e+00 2.250000e+01 1.000000e+01
      vertex 1.110000e+01 -2.250000e+01 1.000000e+01
    endloop
  endfacet
  facet normal 0.000000e+00 0.000000e+00 1.000000e+00
    outer loop
      vertex -7.600000e+00 -2.000000e+01 1.000000e+01
      vertex -1.110000e+01 -2.250000e+01 1.000000e+01
      vertex 7.600001e+00 -2.000000e+01 1.000000e+01
    endloop
  endfacet
  facet normal 0.000000e+00 0.000000e+00 1.000000e+00
    outer loop
      vertex -1.110000e+01 2.250000e+01 1.000000e+01
      vertex -1.110000e+01 -2.250000e+01 1.000000e+01
      vertex -7.600000e+00 -2.000000e+01 1.000000e+01
    endloop
  endfacet
  facet normal 0.000000e+00 0.000000e+00 1.000000e+00
    outer loop
      vertex 7.600001e+00 2.250000e+01 1.000000e+01
      vertex 7.600001e+00 -2.000000e+01 1.000000e+01
      vertex 1.110000e+01 -2.250000e+01 1.000000e+01
    endloop
  endfacet
  facet normal 0.000000e+00 0.000000e+00 1.000000e+00
    outer loop
      vertex 1.951017e+01 -5.494640e+00 2.500000e+00
      vertex 1.710000e+01 -5.938452e+00 2.500000e+00
      vertex 1.759548e+01 -5.979507e+00 2.500000e+00
    endloop
  endfacet
  facet normal 0.000000e+00 0.000000e+00 1.000000e+00
    outer loop
      vertex 2.116369e+01 -4.414343e+00 2.500000e+00
      vertex 1.710000e+01 -5.938452e+00 2.500000e+00
      vertex 1.951017e+01 -5.494640e+00 2.500000e+00
    endloop
  endfacet
  facet normal 0.000000e+00 0.000000e+00 1.000000e+00
    outer loop
      vertex 1.617295e+01 2.853170e+00 2.500000e+00
      vertex 1.759548e+01 5.979507e+00 2.500000e+00
      vertex 1.710000e+01 5.938452e+00 2.500000e+00
    endloop
  endfacet
  facet normal 0.000000e+00 0.000000e+00 1.000000e+00
    outer loop
      vertex 2.237684e+01 -2.855684e+00 2.500000e+00
      vertex 1.710000e+01 -5.938452e+00 2.500000e+00
      vertex 2.116369e+01 -4.414343e+00 2.500000e+00
    endloop
  endfacet
  facet normal 0.000000e+00 0.000000e+00 1.000000e+00
    outer loop
      vertex 2.301817e+01 -9.875679e-01 2.500000e+00
      vertex 1.710000e+01 -5.938452e+00 2.500000e+00
      vertex 2.237684e+01 -2.855684e+00 2.500000e+00
    endloop
  endfacet
  facet normal 0.000000e+00 0.000000e+00 1.000000e+00
    outer loop
      vertex 2.301817e+01 9.875679e-01 2.500000e+00
      vertex 1.710000e+01 -5.938452e+00 2.500000e+00
      vertex 2.301817e+01 -9.875679e-01 2.500000e+00
    endloop
  endfacet
  facet normal 0.000000e+00 0.000000e+00 1.000000e+00
    outer loop
      vertex 2.237684e+01 2.855684e+00 2.500000e+00
      vertex 1.710000e+01 -5.938452e+00 2.500000e+00
      vertex 2.301817e+01 9.875679e-01 2.500000e+00
    endloop
  endfacet
  facet normal 0.000000e+00 0.000000e+00 1.000000e+00
    outer loop
      vertex 1.952705e+01 -1.763355e+00 2.500000e+00
      vertex 1.710000e+01 -5.938452e+00 2.500000e+00
      vertex 2.237684e+01 2.855684e+00 2.500000e+00
    endloop
  endfacet
  facet normal 0.000000e+00 0.000000e+00 1.000000e+00
    outer loop
      vertex 1.952705e+01 -1.763355e+00 2.500000e+00
      vertex 1.802705e+01 -2.853170e+00 2.500000e+00
      vertex 1.710000e+01 -5.938452e+00 2.500000e+00
    endloop
  endfacet
  facet normal 0.000000e+00 0.000000e+00 1.000000e+00
    outer loop
      vertex 1.802705e+01 2.853170e+00 2.500000e+00
      vertex 1.952705e+01 1.763355e+00 2.500000e+00
      vertex 1.951017e+01 5.494640e+00 2.500000e+00
    endloop
  endfacet
  facet normal 0.000000e+00 0.000000e+00 1.000000e+00
    outer loop
      vertex 1.110000e+01 6.000000e+00 2.500000e+00
      vertex 1.710000e+01 5.938452e+00 2.500000e+00
      vertex 1.710000e+01 6.000000e+00 2.500000e+00
    endloop
  endfacet
  facet normal 0.000000e+00 0.000000e+00 1.000000e+00
    outer loop
      vertex 1.110000e+01 -6.000000e+00 2.500000e+00
      vertex 1.410000e+01 0.000000e+00 2.500000e+00
      vertex 1.110000e+01 6.000000e+00 2.500000e+00
    endloop
  endfacet
  facet normal 0.000000e+00 0.000000e+00 1.000000e+00
    outer loop
      vertex 1.110000e+01 6.000000e+00 2.500000e+00
      vertex 1.467295e+01 1.763355e+00 2.500000e+00
      vertex 1.710000e+01 5.938452e+00 2.500000e+00
    endloop
  endfacet
  facet normal 0.000000e+00 0.000000e+00 1.000000e+00
    outer loop
      vertex 1.467295e+01 1.763355e+00 2.500000e+00
      vertex 1.617295e+01 2.853170e+00 2.500000e+00
      vertex 1.710000e+01 5.938452e+00 2.500000e+00
    endloop
  endfacet
  facet normal 0.000000e+00 0.000000e+00 1.000000e+00
    outer loop
      vertex 1.759548e+01 5.979507e+00 2.500000e+00
      vertex 1.802705e+01 2.853170e+00 2.500000e+00
      vertex 1.951017e+01 5.494640e+00 2.500000e+00
    endloop
  endfacet
  facet normal 0.000000e+00 0.000000e+00 1.000000e+00
    outer loop
      vertex 1.617295e+01 -2.853170e+00 2.500000e+00
      vertex 1.710000e+01 -6.000000e+00 2.500000e+00
      vertex 1.710000e+01 -5.938452e+00 2.500000e+00
    endloop
  endfacet
  facet normal 0.000000e+00 0.000000e+00 1.000000e+00
    outer loop
      vertex 1.951017e+01 5.494640e+00 2.500000e+00
      vertex 1.952705e+01 1.763355e+00 2.500000e+00
      vertex 2.116369e+01 4.414343e+00 2.500000e+00
    endloop
  endfacet
  facet normal 0.000000e+00 0.000000e+00 1.000000e+00
    outer loop
      vertex 2.116369e+01 4.414343e+00 2.500000e+00
      vertex 2.010000e+01 0.000000e+00 2.500000e+00
      vertex 2.237684e+01 2.855684e+00 2.500000e+00
    endloop
  endfacet
  facet normal 0.000000e+00 0.000000e+00 1.000000e+00
    outer loop
      vertex 2.010000e+01 0.000000e+00 2.500000e+00
      vertex 1.952705e+01 -1.763355e+00 2.500000e+00
      vertex 2.237684e+01 2.855684e+00 2.500000e+00
    endloop
  endfacet
  facet normal 0.000000e+00 0.000000e+00 1.000000e+00
    outer loop
      vertex 1.802705e+01 -2.853170e+00 2.500000e+00
      vertex 1.617295e+01 -2.853170e+00 2.500000e+00
      vertex 1.710000e+01 -5.938452e+00 2.500000e+00
    endloop
  endfacet
  facet normal 0.000000e+00 0.000000e+00 1.000000e+00
    outer loop
      vertex 1.952705e+01 1.763355e+00 2.500000e+00
      vertex 2.010000e+01 0.000000e+00 2.500000e+00
      vertex 2.116369e+01 4.414343e+00 2.500000e+00
    endloop
  endfacet
  facet normal 0.000000e+00 0.000000e+00 1.000000e+00
    outer loop
      vertex 1.110000e+01 -6.000000e+00 2.500000e+00
      vertex 1.467295e+01 -1.763355e+00 2.500000e+00
      vertex 1.410000e+01 0.000000e+00 2.500000e+00
    endloop
  endfacet
  facet normal 0.000000e+00 0.000000e+00 1.000000e+00
    outer loop
      vertex 1.110000e+01 -6.000000e+00 2.500000e+00
      vertex 1.710000e+01 -6.000000e+00 2.500000e+00
      vertex 1.467295e+01 -1.763355e+00 2.500000e+00
    endloop
  endfacet
  facet normal 0.000000e+00 0.000000e+00 1.000000e+00
    outer loop
      vertex 1.410000e+01 0.000000e+00 2.500000e+00
      vertex 1.467295e+01 1.763355e+00 2.500000e+00
      vertex 1.110000e+01 6.000000e+00 2.500000e+00
    endloop
  endfacet
  facet normal 0.000000e+00 0.000000e+00 1.000000e+00
    outer loop
      vertex 1.617295e+01 2.853170e+00 2.500000e+00
      vertex 1.802705e+01 2.853170e+00 2.500000e+00
      vertex 1.759548e+01 5.979507e+00 2.500000e+00
    endloop
  endfacet
  facet normal 0.000000e+00 0.000000e+00 1.000000e+00
    outer loop
      vertex 1.617295e+01 -2.853170e+00 2.500000e+00
      vertex 1.467295e+01 -1.763355e+00 2.500000e+00
      vertex 1.710000e+01 -6.000000e+00 2.500000e+00
    endloop
  endfacet
  facet normal -1.000000e+00 -0.000000e+00 -0.000000e+00
    outer loop
      vertex 7.600001e+00 -2.000000e+01 7.620000e+00
      vertex 7.600001e+00 -2.000000e+01 1.000000e+01
      vertex 7.600001e+00 2.250000e+01 7.620000e+00
    endloop
  endfacet
  facet normal -1.000000e+00 0.000000e+00 0.000000e+00
    outer loop
      vertex 7.600001e+00 2.250000e+01 7.620000e+00
      vertex 7.600001e+00 -2.000000e+01 1.000000e+01
      vertex 7.600001e+00 2.250000e+01 1.000000e+01
    endloop
  endfacet
  facet normal -7.071068e-01 0.000000e+00 -7.071068e-01
    outer loop
      vertex 8.600001e+00 2.250000e+01 6.620000e+00
      vertex 8.600001e+00 -2.000000e+01 6.620000e+00
      vertex 7.600001e+00 2.250000e+01 7.620000e+00
    endloop
  endfacet
  facet normal -7.071068e-01 0.000000e+00 -7.071068e-01
    outer loop
      vertex 7.600001e+00 2.250000e+01 7.620000e+00
      vertex 8.600001e+00 -2.000000e+01 6.620000e+00
      vertex 7.600001e+00 -2.000000e+01 7.620000e+00
    endloop
  endfacet
  facet normal -1.000000e+00 0.000000e+00 0.000000e+00
    outer loop
      vertex 8.600001e+00 2.250000e+01 6.620000e+00
      vertex 8.600001e+00 2.250000e+01 5.000000e+00
      vertex 8.600001e+00 -2.000000e+01 6.620000e+00
    endloop
  endfacet
  facet normal -1.000000e+00 0.000000e+00 0.000000e+00
    outer loop
      vertex 8.600001e+00 -2.000000e+01 6.620000e+00
      vertex 8.600001e+00 2.250000e+01 5.000000e+00
      vertex 8.600001e+00 -2.000000e+01 5.000000e+00
    endloop
  endfacet
  facet normal 0.000000e+00 0.000000e+00 1.000000e+00
    outer loop
      vertex 8.600001e+00 -2.000000e+01 5.000000e+00
      vertex 8.600001e+00 2.250000e+01 5.000000e+00
      vertex 7.600001e+00 2.250000e+01 5.000000e+00
    endloop
  endfacet
  facet normal 0.000000e+00 0.000000e+00 1.000000e+00
    outer loop
      vertex -7.600000e+00 -1.900000e+01 5.000000e+00
      vertex 8.600001e+00 -2.000000e+01 5.000000e+00
      vertex 7.600001e+00 -1.900000e+01 5.000000e+00
    endloop
  endfacet
  facet normal 0.000000e+00 0.000000e+00 1.000000e+00
    outer loop
      vertex 7.600001e+00 -1.900000e+01 5.000000e+00
      vertex 8.600001e+00 -2.000000e+01 5.000000e+00
      vertex 7.600001e+00 2.250000e+01 5.000000e+00
    endloop
  endfacet
  facet normal 0.000000e+00 0.000000e+00 1.000000e+00
    outer loop
      vertex -8.600000e+00 -2.000000e+01 5.000000e+00
      vertex 8.600001e+00 -2.000000e+01 5.000000e+00
      vertex -7.600000e+00 -1.900000e+01 5.000000e+00
    endloop
  endfacet
  facet normal 0.000000e+00 0.000000e+00 1.000000e+00
    outer loop
      vertex -8.600000e+00 2.250000e+01 5.000000e+00
      vertex -7.600000e+00 -1.900000e+01 5.000000e+00
      vertex -7.600000e+00 2.250000e+01 5.000000e+00
    endloop
  endfacet
  facet normal 0.000000e+00 0.000000e+00 1.000000e+00
    outer loop
      vertex -8.600000e+00 -2.000000e+01 5.000000e+00
      vertex -7.600000e+00 -1.900000e+01 5.000000e+00
      vertex -8.600000e+00 2.250000e+01 5.000000e+00
    endloop
  endfacet
  facet normal -1.000000e+00 -0.000000e+00 -0.000000e+00
    outer loop
      vertex 7.600001e+00 -1.900000e+01 2.500000e+00
      vertex 7.600001e+00 -1.900000e+01 5.000000e+00
      vertex 7.600001e+00 2.250000e+01 2.500000e+00
    endloop
  endfacet
  facet normal -1.000000e+00 0.000000e+00 0.000000e+00
    outer loop
      vertex 7.600001e+00 2.250000e+01 2.500000e+00
      vertex 7.600001e+00 -1.900000e+01 5.000000e+00
      vertex 7.600001e+00 2.250000e+01 5.000000e+00
    endloop
  endfacet
  facet normal 0.000000e+00 0.000000e+00 1.000000e+00
    outer loop
      vertex -7.600000e+00 2.250000e+01 2.500000e+00
      vertex -7.600000e+00 -1.900000e+01 2.500000e+00
      vertex 7.600001e+00 -1.900000e+01 2.500000e+00
    endloop
  endfacet
  facet normal 0.000000e+00 0.000000e+00 1.000000e+00
    outer loop
      vertex 7.600001e+00 2.250000e+01 2.500000e+00
      vertex -7.600000e+00 2.250000e+01 2.500000e+00
      vertex 7.600001e+00 -1.900000e+01 2.500000e+00
    endloop
  endfacet
  facet normal 1.000000e+00 0.000000e+00 0.000000e+00
    outer loop
      vertex -7.600000e+00 -1.900000e+01 5.000000e+00
      vertex -7.600000e+00 -1.900000e+01 2.500000e+00
      vertex -7.600000e+00 2.250000e+01 2.500000e+00
    endloop
  endfacet
  facet normal 1.000000e+00 0.000000e+00 0.000000e+00
    outer loop
      vertex -7.600000e+00 2.250000e+01 5.000000e+00
      vertex -7.600000e+00 -1.900000e+01 5.000000e+00
      vertex -7.600000e+00 2.250000e+01 2.500000e+00
    endloop
  endfacet
  facet normal 1.000000e+00 0.000000e+00 0.000000e+00
    outer loop
      vertex -8.600000e+00 2.250000e+01 5.000000e+00
      vertex -8.600000e+00 2.250000e+01 6.620000e+00
      vertex -8.600000e+00 -2.000000e+01 6.620000e+00
    endloop
  endfacet
  facet normal 1.000000e+00 0.000000e+00 0.000000e+00
    outer loop
      vertex -8.600000e+00 -2.000000e+01 5.000000e+00
      vertex -8.600000e+00 2.250000e+01 5.000000e+00
      vertex -8.600000e+00 -2.000000e+01 6.620000e+00
    endloop
  endfacet
  facet normal 7.071068e-01 0.000000e+00 -7.071068e-01
    outer loop
      vertex -8.600000e+00 2.250000e+01 6.620000e+00
      vertex -7.600000e+00 2.250000e+01 7.620000e+00
      vertex -7.600000e+00 -2.000000e+01 7.620000e+00
    endloop
  endfacet
  facet normal 7.071068e-01 0.000000e+00 -7.071068e-01
    outer loop
      vertex -8.600000e+00 -2.000000e+01 6.620000e+00
      vertex -8.600000e+00 2.250000e+01 6.620000e+00
      vertex -7.600000e+00 -2.000000e+01 7.620000e+00
    endloop
  endfacet
  facet normal 1.000000e+00 0.000000e+00 0.000000e+00
    outer loop
      vertex -7.600000e+00 -2.000000e+01 1.000000e+01
      vertex -7.600000e+00 -2.000000e+01 7.620000e+00
      vertex -7.600000e+00 2.250000e+01 7.620000e+00
    endloop
  endfacet
  facet normal 1.000000e+00 0.000000e+00 0.000000e+00
    outer loop
      vertex -7.600000e+00 2.250000e+01 1.000000e+01
      vertex -7.600000e+00 -2.000000e+01 1.000000e+01
      vertex -7.600000e+00 2.250000e+01 7.620000e+00
    endloop
  endfacet
  facet normal 0.000000e+00 1.000000e+00 0.000000e+00
    outer loop
      vertex -7.600000e+00 -2.000000e+01 7.620000e+00
      vertex -7.600000e+00 -2.000000e+01 1.000000e+01
      vertex 7.600001e+00 -2.000000e+01 1.000000e+01
    endloop
  endfacet
  facet normal 0.000000e+00 1.000000e+00 0.000000e+00
    outer loop
      vertex -7.600000e+00 -2.000000e+01 7.620000e+00
      vertex 7.600001e+00 -2.000000e+01 1.000000e+01
      vertex -8.600000e+00 -2.000000e+01 6.620000e+00
    endloop
  endfacet
  facet normal 0.000000e+00 1.000000e+00 0.000000e+00
    outer loop
      vertex -8.600000e+00 -2.000000e+01 6.620000e+00
      vertex 7.600001e+00 -2.000000e+01 1.000000e+01
      vertex 7.600001e+00 -2.000000e+01 7.620000e+00
    endloop
  endfacet
  facet normal 0.000000e+00 1.000000e+00 0.000000e+00
    outer loop
      vertex -8.600000e+00 -2.000000e+01 6.620000e+00
      vertex 7.600001e+00 -2.000000e+01 7.620000e+00
      vertex 8.600001e+00 -2.000000e+01 6.620000e+00
    endloop
  endfacet
  facet normal 0.000000e+00 1.000000e+00 0.000000e+00
    outer loop
      vertex 8.600001e+00 -2.000000e+01 6.620000e+00
      vertex 8.600001e+00 -2.000000e+01 5.000000e+00
      vertex -8.600000e+00 -2.000000e+01 6.620000e+00
    endloop
  endfacet
  facet normal 0.000000e+00 1.000000e+00 0.000000e+00
    outer loop
      vertex 8.600001e+00 -2.000000e+01 5.000000e+00
      vertex -8.600000e+00 -2.000000e+01 5.000000e+00
      vertex -8.600000e+00 -2.000000e+01 6.620000e+00
    endloop
  endfacet
  facet normal 0.000000e+00 1.000000e+00 0.000000e+00
    outer loop
      vertex -7.600000e+00 -1.900000e+01 2.500000e+00
      vertex -7.600000e+00 -1.900000e+01 5.000000e+00
      vertex 7.600001e+00 -1.900000e+01 2.500000e+00
    endloop
  endfacet
  facet normal 0.000000e+00 1.000000e+00 0.000000e+00
    outer loop
      vertex 7.600001e+00 -1.900000e+01 2.500000e+00
      vertex -7.600000e+00 -1.900000e+01 5.000000e+00
      vertex 7.600001e+00 -1.900000e+01 5.000000e+00
    endloop
  endfacet
endsolid Default
