solid OpenSCAD_Model
  facet normal 0.923925 0 -0.382573
    outer loop
      vertex 208.232 55 11.7678
      vertex 207.5 60 10
      vertex 208.232 60 11.7678
    endloop
  endfacet
  facet normal 0.923925 0 -0.382573
    outer loop
      vertex 207.5 60 10
      vertex 208.232 55 11.7678
      vertex 207.5 55 10
    endloop
  endfacet
  facet normal -0.382639 0 0.923898
    outer loop
      vertex 210 60 7.5
      vertex 211.768 55 8.23223
      vertex 211.768 60 8.23223
    endloop
  endfacet
  facet normal -0.382639 0 0.923898
    outer loop
      vertex 211.768 55 8.23223
      vertex 210 60 7.5
      vertex 210 55 7.5
    endloop
  endfacet
  facet normal -0.923923 0 0.382579
    outer loop
      vertex 211.768 55 8.23223
      vertex 212.5 60 10
      vertex 211.768 60 8.23223
    endloop
  endfacet
  facet normal -0.923923 0 0.382579
    outer loop
      vertex 212.5 60 10
      vertex 211.768 55 8.23223
      vertex 212.5 55 10
    endloop
  endfacet
  facet normal -0.923925 0 -0.382573
    outer loop
      vertex 212.5 55 10
      vertex 211.768 60 11.7678
      vertex 212.5 60 10
    endloop
  endfacet
  facet normal -0.923925 -0 -0.382573
    outer loop
      vertex 211.768 60 11.7678
      vertex 212.5 55 10
      vertex 211.768 55 11.7678
    endloop
  endfacet
  facet normal 0.382626 0 -0.923903
    outer loop
      vertex 208.232 55 11.7678
      vertex 210 60 12.5
      vertex 210 55 12.5
    endloop
  endfacet
  facet normal 0.382626 0 -0.923903
    outer loop
      vertex 210 60 12.5
      vertex 208.232 55 11.7678
      vertex 208.232 60 11.7678
    endloop
  endfacet
  facet normal 0.382639 0 0.923898
    outer loop
      vertex 208.232 60 8.23223
      vertex 210 55 7.5
      vertex 210 60 7.5
    endloop
  endfacet
  facet normal 0.382639 0 0.923898
    outer loop
      vertex 210 55 7.5
      vertex 208.232 60 8.23223
      vertex 208.232 55 8.23223
    endloop
  endfacet
  facet normal 0.923923 -0 0.382579
    outer loop
      vertex 207.5 55 10
      vertex 208.232 60 8.23223
      vertex 207.5 60 10
    endloop
  endfacet
  facet normal 0.923923 0 0.382579
    outer loop
      vertex 208.232 60 8.23223
      vertex 207.5 55 10
      vertex 208.232 55 8.23223
    endloop
  endfacet
  facet normal -0.382626 0 -0.923903
    outer loop
      vertex 210 55 12.5
      vertex 211.768 60 11.7678
      vertex 211.768 55 11.7678
    endloop
  endfacet
  facet normal -0.382626 0 -0.923903
    outer loop
      vertex 211.768 60 11.7678
      vertex 210 55 12.5
      vertex 210 60 12.5
    endloop
  endfacet
  facet normal 0 1 -0
    outer loop
      vertex 101.768 60 11.7678
      vertex 90 60 20
      vertex 208.232 60 11.7678
    endloop
  endfacet
  facet normal 0 1 0
    outer loop
      vertex 90 60 20
      vertex 101.768 60 11.7678
      vertex 100 60 12.5
    endloop
  endfacet
  facet normal 0 1 -0
    outer loop
      vertex 207.5 60 10
      vertex 101.768 60 11.7678
      vertex 208.232 60 11.7678
    endloop
  endfacet
  facet normal 0 1 0
    outer loop
      vertex 207.5 60 10
      vertex 102.5 60 10
      vertex 101.768 60 11.7678
    endloop
  endfacet
  facet normal 0 1 0
    outer loop
      vertex 208.232 60 8.23223
      vertex 102.5 60 10
      vertex 207.5 60 10
    endloop
  endfacet
  facet normal 0 1 0
    outer loop
      vertex 208.232 60 8.23223
      vertex 101.768 60 8.23223
      vertex 102.5 60 10
    endloop
  endfacet
  facet normal 0 1 0
    outer loop
      vertex 220 60 0
      vertex 208.232 60 8.23223
      vertex 210 60 7.5
    endloop
  endfacet
  facet normal 0 1 0
    outer loop
      vertex 208.232 60 8.23223
      vertex 220 60 0
      vertex 101.768 60 8.23223
    endloop
  endfacet
  facet normal 0 1 0
    outer loop
      vertex 208.232 60 11.7678
      vertex 220 60 20
      vertex 210 60 12.5
    endloop
  endfacet
  facet normal 0 1 0
    outer loop
      vertex 220 60 20
      vertex 211.768 60 11.7678
      vertex 210 60 12.5
    endloop
  endfacet
  facet normal 0 1 0
    outer loop
      vertex 220 60 20
      vertex 212.5 60 10
      vertex 211.768 60 11.7678
    endloop
  endfacet
  facet normal 0 1 -0
    outer loop
      vertex 220 60 0
      vertex 212.5 60 10
      vertex 220 60 20
    endloop
  endfacet
  facet normal 0 1 0
    outer loop
      vertex 90 60 0
      vertex 101.768 60 8.23223
      vertex 220 60 0
    endloop
  endfacet
  facet normal 0 1 0
    outer loop
      vertex 211.768 60 8.23223
      vertex 220 60 0
      vertex 210 60 7.5
    endloop
  endfacet
  facet normal 0 1 0
    outer loop
      vertex 212.5 60 10
      vertex 220 60 0
      vertex 211.768 60 8.23223
    endloop
  endfacet
  facet normal 0 1 0
    outer loop
      vertex 220 60 20
      vertex 208.232 60 11.7678
      vertex 90 60 20
    endloop
  endfacet
  facet normal 0 1 -0
    outer loop
      vertex 98.2322 60 11.7678
      vertex 90 60 20
      vertex 100 60 12.5
    endloop
  endfacet
  facet normal 0 1 -0
    outer loop
      vertex 97.5 60 10
      vertex 90 60 20
      vertex 98.2322 60 11.7678
    endloop
  endfacet
  facet normal 0 1 0
    outer loop
      vertex 90 60 0
      vertex 97.5 60 10
      vertex 98.2322 60 8.23223
    endloop
  endfacet
  facet normal 0 1 0
    outer loop
      vertex 97.5 60 10
      vertex 90 60 0
      vertex 90 60 20
    endloop
  endfacet
  facet normal 0 1 0
    outer loop
      vertex 100 60 7.5
      vertex 90 60 0
      vertex 98.2322 60 8.23223
    endloop
  endfacet
  facet normal 0 1 0
    outer loop
      vertex 101.768 60 8.23223
      vertex 90 60 0
      vertex 100 60 7.5
    endloop
  endfacet
  facet normal 0 -1 0
    outer loop
      vertex 208.087 0 14.6194
      vertex 220 0 20
      vertex 101.913 0 14.6194
    endloop
  endfacet
  facet normal 0 -1 0
    outer loop
      vertex 220 0 20
      vertex 208.087 0 14.6194
      vertex 210 0 15
    endloop
  endfacet
  facet normal 0 -1 0
    outer loop
      vertex 103.536 0 13.5355
      vertex 208.087 0 14.6194
      vertex 101.913 0 14.6194
    endloop
  endfacet
  facet normal 0 -1 0
    outer loop
      vertex 103.536 0 13.5355
      vertex 206.464 0 13.5355
      vertex 208.087 0 14.6194
    endloop
  endfacet
  facet normal 0 -1 0
    outer loop
      vertex 104.619 0 11.9134
      vertex 206.464 0 13.5355
      vertex 103.536 0 13.5355
    endloop
  endfacet
  facet normal 0 -1 0
    outer loop
      vertex 104.619 0 11.9134
      vertex 205.381 0 11.9134
      vertex 206.464 0 13.5355
    endloop
  endfacet
  facet normal 0 -1 0
    outer loop
      vertex 105 0 10
      vertex 205.381 0 11.9134
      vertex 104.619 0 11.9134
    endloop
  endfacet
  facet normal 0 -1 0
    outer loop
      vertex 105 0 10
      vertex 205 0 10
      vertex 205.381 0 11.9134
    endloop
  endfacet
  facet normal 0 -1 0
    outer loop
      vertex 104.619 0 8.08658
      vertex 205 0 10
      vertex 105 0 10
    endloop
  endfacet
  facet normal 0 -1 0
    outer loop
      vertex 104.619 0 8.08658
      vertex 205.381 0 8.08658
      vertex 205 0 10
    endloop
  endfacet
  facet normal 0 -1 0
    outer loop
      vertex 103.536 0 6.46447
      vertex 205.381 0 8.08658
      vertex 104.619 0 8.08658
    endloop
  endfacet
  facet normal 0 -1 0
    outer loop
      vertex 103.536 0 6.46447
      vertex 206.464 0 6.46447
      vertex 205.381 0 8.08658
    endloop
  endfacet
  facet normal 0 -1 0
    outer loop
      vertex 101.913 0 5.3806
      vertex 206.464 0 6.46447
      vertex 103.536 0 6.46447
    endloop
  endfacet
  facet normal 0 -1 0
    outer loop
      vertex 101.913 0 5.3806
      vertex 208.087 0 5.3806
      vertex 206.464 0 6.46447
    endloop
  endfacet
  facet normal 0 -1 0
    outer loop
      vertex 220 0 0
      vertex 101.913 0 5.3806
      vertex 100 0 5
    endloop
  endfacet
  facet normal 0 -1 0
    outer loop
      vertex 101.913 0 5.3806
      vertex 220 0 0
      vertex 208.087 0 5.3806
    endloop
  endfacet
  facet normal 0 -1 0
    outer loop
      vertex 0 0 20
      vertex 100 0 15
      vertex 220 0 20
    endloop
  endfacet
  facet normal 0 -1 0
    outer loop
      vertex 0 0 20
      vertex 98.0866 0 14.6194
      vertex 100 0 15
    endloop
  endfacet
  facet normal 0 -1 0
    outer loop
      vertex 0 0 20
      vertex 96.4645 0 13.5355
      vertex 98.0866 0 14.6194
    endloop
  endfacet
  facet normal 0 -1 0
    outer loop
      vertex 0 0 20
      vertex 95.3806 0 11.9134
      vertex 96.4645 0 13.5355
    endloop
  endfacet
  facet normal 0 -1 0
    outer loop
      vertex 0 0 20
      vertex 95 0 10
      vertex 95.3806 0 11.9134
    endloop
  endfacet
  facet normal 0 -1 0
    outer loop
      vertex 0 0 0
      vertex 95 0 10
      vertex 0 0 20
    endloop
  endfacet
  facet normal 0 -1 -0
    outer loop
      vertex 95 0 10
      vertex 0 0 0
      vertex 95.3806 0 8.08658
    endloop
  endfacet
  facet normal 0 -1 -0
    outer loop
      vertex 95.3806 0 8.08658
      vertex 0 0 0
      vertex 96.4645 0 6.46447
    endloop
  endfacet
  facet normal 0 -1 -0
    outer loop
      vertex 96.4645 0 6.46447
      vertex 0 0 0
      vertex 98.0866 0 5.3806
    endloop
  endfacet
  facet normal 0 -1 0
    outer loop
      vertex 220 0 0
      vertex 100 0 5
      vertex 0 0 0
    endloop
  endfacet
  facet normal 0 -1 -0
    outer loop
      vertex 98.0866 0 5.3806
      vertex 0 0 0
      vertex 100 0 5
    endloop
  endfacet
  facet normal 0 -1 0
    outer loop
      vertex 101.913 0 14.6194
      vertex 220 0 20
      vertex 100 0 15
    endloop
  endfacet
  facet normal 0 -1 0
    outer loop
      vertex 211.913 0 14.6194
      vertex 220 0 20
      vertex 210 0 15
    endloop
  endfacet
  facet normal 0 -1 0
    outer loop
      vertex 213.536 0 13.5355
      vertex 220 0 20
      vertex 211.913 0 14.6194
    endloop
  endfacet
  facet normal 0 -1 0
    outer loop
      vertex 214.619 0 11.9134
      vertex 220 0 20
      vertex 213.536 0 13.5355
    endloop
  endfacet
  facet normal 0 -1 0
    outer loop
      vertex 215 0 10
      vertex 220 0 20
      vertex 214.619 0 11.9134
    endloop
  endfacet
  facet normal 0 -1 0
    outer loop
      vertex 220 0 0
      vertex 215 0 10
      vertex 214.619 0 8.08658
    endloop
  endfacet
  facet normal 0 -1 0
    outer loop
      vertex 215 0 10
      vertex 220 0 0
      vertex 220 0 20
    endloop
  endfacet
  facet normal 0 -1 0
    outer loop
      vertex 213.536 0 6.46447
      vertex 220 0 0
      vertex 214.619 0 8.08658
    endloop
  endfacet
  facet normal 0 -1 0
    outer loop
      vertex 211.913 0 5.3806
      vertex 220 0 0
      vertex 213.536 0 6.46447
    endloop
  endfacet
  facet normal 0 -1 0
    outer loop
      vertex 210 0 5
      vertex 220 0 0
      vertex 211.913 0 5.3806
    endloop
  endfacet
  facet normal 0 -1 0
    outer loop
      vertex 208.087 0 5.3806
      vertex 220 0 0
      vertex 210 0 5
    endloop
  endfacet
  facet normal 0.555363 0 0.831608
    outer loop
      vertex 206.464 55 6.46447
      vertex 208.087 0 5.3806
      vertex 208.087 55 5.3806
    endloop
  endfacet
  facet normal 0.555363 0 0.831608
    outer loop
      vertex 208.087 0 5.3806
      vertex 206.464 55 6.46447
      vertex 206.464 0 6.46447
    endloop
  endfacet
  facet normal -0.831673 0 0.555266
    outer loop
      vertex 213.536 0 6.46447
      vertex 214.619 55 8.08658
      vertex 213.536 55 6.46447
    endloop
  endfacet
  facet normal -0.831673 0 0.555266
    outer loop
      vertex 214.619 55 8.08658
      vertex 213.536 0 6.46447
      vertex 214.619 0 8.08658
    endloop
  endfacet
  facet normal -0.980746 0 0.195286
    outer loop
      vertex 214.619 0 8.08658
      vertex 215 55 10
      vertex 214.619 55 8.08658
    endloop
  endfacet
  facet normal -0.980746 0 0.195286
    outer loop
      vertex 215 55 10
      vertex 214.619 0 8.08658
      vertex 215 0 10
    endloop
  endfacet
  facet normal 0.831673 -0 0.555266
    outer loop
      vertex 205.381 0 8.08658
      vertex 206.464 55 6.46447
      vertex 205.381 55 8.08658
    endloop
  endfacet
  facet normal 0.831673 0 0.555266
    outer loop
      vertex 206.464 55 6.46447
      vertex 205.381 0 8.08658
      vertex 206.464 0 6.46447
    endloop
  endfacet
  facet normal 0.19513 0 -0.980777
    outer loop
      vertex 208.087 0 14.6194
      vertex 210 55 15
      vertex 210 0 15
    endloop
  endfacet
  facet normal 0.19513 0 -0.980777
    outer loop
      vertex 210 55 15
      vertex 208.087 0 14.6194
      vertex 208.087 55 14.6194
    endloop
  endfacet
  facet normal -0.19513 0 -0.980777
    outer loop
      vertex 210 0 15
      vertex 211.913 55 14.6194
      vertex 211.913 0 14.6194
    endloop
  endfacet
  facet normal -0.19513 0 -0.980777
    outer loop
      vertex 211.913 55 14.6194
      vertex 210 0 15
      vertex 210 55 15
    endloop
  endfacet
  facet normal -0.555374 0 -0.831601
    outer loop
      vertex 211.913 0 14.6194
      vertex 213.536 55 13.5355
      vertex 213.536 0 13.5355
    endloop
  endfacet
  facet normal -0.555374 0 -0.831601
    outer loop
      vertex 213.536 55 13.5355
      vertex 211.913 0 14.6194
      vertex 211.913 55 14.6194
    endloop
  endfacet
  facet normal -0.831671 0 -0.555268
    outer loop
      vertex 214.619 0 11.9134
      vertex 213.536 55 13.5355
      vertex 214.619 55 11.9134
    endloop
  endfacet
  facet normal -0.831671 -0 -0.555268
    outer loop
      vertex 213.536 55 13.5355
      vertex 214.619 0 11.9134
      vertex 213.536 0 13.5355
    endloop
  endfacet
  facet normal 0.980746 -0 0.195286
    outer loop
      vertex 205 0 10
      vertex 205.381 55 8.08658
      vertex 205 55 10
    endloop
  endfacet
  facet normal 0.980746 0 0.195286
    outer loop
      vertex 205.381 55 8.08658
      vertex 205 0 10
      vertex 205.381 0 8.08658
    endloop
  endfacet
  facet normal -0.980746 0 -0.195288
    outer loop
      vertex 215 0 10
      vertex 214.619 55 11.9134
      vertex 215 55 10
    endloop
  endfacet
  facet normal -0.980746 -0 -0.195288
    outer loop
      vertex 214.619 55 11.9134
      vertex 215 0 10
      vertex 214.619 0 11.9134
    endloop
  endfacet
  facet normal 0.19513 0 0.980777
    outer loop
      vertex 208.087 55 5.3806
      vertex 210 0 5
      vertex 210 55 5
    endloop
  endfacet
  facet normal 0.19513 0 0.980777
    outer loop
      vertex 210 0 5
      vertex 208.087 55 5.3806
      vertex 208.087 0 5.3806
    endloop
  endfacet
  facet normal -0.19513 0 0.980777
    outer loop
      vertex 210 55 5
      vertex 211.913 0 5.3806
      vertex 211.913 55 5.3806
    endloop
  endfacet
  facet normal -0.19513 0 0.980777
    outer loop
      vertex 211.913 0 5.3806
      vertex 210 55 5
      vertex 210 0 5
    endloop
  endfacet
  facet normal -0.555363 0 0.831608
    outer loop
      vertex 211.913 55 5.3806
      vertex 213.536 0 6.46447
      vertex 213.536 55 6.46447
    endloop
  endfacet
  facet normal -0.555363 0 0.831608
    outer loop
      vertex 213.536 0 6.46447
      vertex 211.913 55 5.3806
      vertex 211.913 0 5.3806
    endloop
  endfacet
  facet normal 0.831671 0 -0.555268
    outer loop
      vertex 206.464 0 13.5355
      vertex 205.381 55 11.9134
      vertex 206.464 55 13.5355
    endloop
  endfacet
  facet normal 0.831671 0 -0.555268
    outer loop
      vertex 205.381 55 11.9134
      vertex 206.464 0 13.5355
      vertex 205.381 0 11.9134
    endloop
  endfacet
  facet normal 0 -1 0
    outer loop
      vertex 210 55 12.5
      vertex 210 55 15
      vertex 208.087 55 14.6194
    endloop
  endfacet
  facet normal 0 -1 0
    outer loop
      vertex 208.232 55 11.7678
      vertex 208.087 55 14.6194
      vertex 206.464 55 13.5355
    endloop
  endfacet
  facet normal 0 -1 0
    outer loop
      vertex 210 55 15
      vertex 210 55 12.5
      vertex 211.913 55 14.6194
    endloop
  endfacet
  facet normal 0 -1 0
    outer loop
      vertex 211.768 55 11.7678
      vertex 211.913 55 14.6194
      vertex 210 55 12.5
    endloop
  endfacet
  facet normal 0 -1 0
    outer loop
      vertex 208.232 55 11.7678
      vertex 206.464 55 13.5355
      vertex 205.381 55 11.9134
    endloop
  endfacet
  facet normal 0 -1 0
    outer loop
      vertex 208.087 55 14.6194
      vertex 208.232 55 11.7678
      vertex 210 55 12.5
    endloop
  endfacet
  facet normal 0 -1 0
    outer loop
      vertex 207.5 55 10
      vertex 205.381 55 11.9134
      vertex 205 55 10
    endloop
  endfacet
  facet normal 0 -1 0
    outer loop
      vertex 205.381 55 11.9134
      vertex 207.5 55 10
      vertex 208.232 55 11.7678
    endloop
  endfacet
  facet normal 0 -1 0
    outer loop
      vertex 205.381 55 8.08658
      vertex 207.5 55 10
      vertex 205 55 10
    endloop
  endfacet
  facet normal 0 -1 -0
    outer loop
      vertex 207.5 55 10
      vertex 205.381 55 8.08658
      vertex 208.232 55 8.23223
    endloop
  endfacet
  facet normal 0 -1 0
    outer loop
      vertex 206.464 55 6.46447
      vertex 208.232 55 8.23223
      vertex 205.381 55 8.08658
    endloop
  endfacet
  facet normal 0 -1 0
    outer loop
      vertex 208.087 55 5.3806
      vertex 208.232 55 8.23223
      vertex 206.464 55 6.46447
    endloop
  endfacet
  facet normal 0 -1 -0
    outer loop
      vertex 211.913 55 14.6194
      vertex 211.768 55 11.7678
      vertex 213.536 55 13.5355
    endloop
  endfacet
  facet normal 0 -1 -0
    outer loop
      vertex 213.536 55 13.5355
      vertex 211.768 55 11.7678
      vertex 214.619 55 11.9134
    endloop
  endfacet
  facet normal 0 -1 0
    outer loop
      vertex 212.5 55 10
      vertex 214.619 55 11.9134
      vertex 211.768 55 11.7678
    endloop
  endfacet
  facet normal 0 -1 0
    outer loop
      vertex 212.5 55 10
      vertex 215 55 10
      vertex 214.619 55 11.9134
    endloop
  endfacet
  facet normal 0 -1 0
    outer loop
      vertex 214.619 55 8.08658
      vertex 212.5 55 10
      vertex 211.768 55 8.23223
    endloop
  endfacet
  facet normal 0 -1 0
    outer loop
      vertex 212.5 55 10
      vertex 214.619 55 8.08658
      vertex 215 55 10
    endloop
  endfacet
  facet normal 0 -1 0
    outer loop
      vertex 211.913 55 5.3806
      vertex 211.768 55 8.23223
      vertex 210 55 7.5
    endloop
  endfacet
  facet normal 0 -1 -0
    outer loop
      vertex 208.232 55 8.23223
      vertex 208.087 55 5.3806
      vertex 210 55 7.5
    endloop
  endfacet
  facet normal 0 -1 0
    outer loop
      vertex 211.768 55 8.23223
      vertex 213.536 55 6.46447
      vertex 214.619 55 8.08658
    endloop
  endfacet
  facet normal 0 -1 0
    outer loop
      vertex 210 55 5
      vertex 210 55 7.5
      vertex 208.087 55 5.3806
    endloop
  endfacet
  facet normal 0 -1 0
    outer loop
      vertex 211.768 55 8.23223
      vertex 211.913 55 5.3806
      vertex 213.536 55 6.46447
    endloop
  endfacet
  facet normal 0 -1 0
    outer loop
      vertex 210 55 7.5
      vertex 210 55 5
      vertex 211.913 55 5.3806
    endloop
  endfacet
  facet normal 0.980746 0 -0.195288
    outer loop
      vertex 205.381 0 11.9134
      vertex 205 55 10
      vertex 205.381 55 11.9134
    endloop
  endfacet
  facet normal 0.980746 0 -0.195288
    outer loop
      vertex 205 55 10
      vertex 205.381 0 11.9134
      vertex 205 0 10
    endloop
  endfacet
  facet normal 0.555374 0 -0.831601
    outer loop
      vertex 206.464 0 13.5355
      vertex 208.087 55 14.6194
      vertex 208.087 0 14.6194
    endloop
  endfacet
  facet normal 0.555374 0 -0.831601
    outer loop
      vertex 208.087 55 14.6194
      vertex 206.464 0 13.5355
      vertex 206.464 55 13.5355
    endloop
  endfacet
  facet normal 0.923888 0 -0.382663
    outer loop
      vertex 98.2322 55 11.7678
      vertex 97.5 60 10
      vertex 98.2322 60 11.7678
    endloop
  endfacet
  facet normal 0.923888 0 -0.382663
    outer loop
      vertex 97.5 60 10
      vertex 98.2322 55 11.7678
      vertex 97.5 55 10
    endloop
  endfacet
  facet normal -0.382639 0 0.923898
    outer loop
      vertex 100 60 7.5
      vertex 101.768 55 8.23223
      vertex 101.768 60 8.23223
    endloop
  endfacet
  facet normal -0.382639 0 0.923898
    outer loop
      vertex 101.768 55 8.23223
      vertex 100 60 7.5
      vertex 100 55 7.5
    endloop
  endfacet
  facet normal -0.923923 0 0.382579
    outer loop
      vertex 101.768 55 8.23223
      vertex 102.5 60 10
      vertex 101.768 60 8.23223
    endloop
  endfacet
  facet normal -0.923923 0 0.382579
    outer loop
      vertex 102.5 60 10
      vertex 101.768 55 8.23223
      vertex 102.5 55 10
    endloop
  endfacet
  facet normal -0.923925 0 -0.382573
    outer loop
      vertex 102.5 55 10
      vertex 101.768 60 11.7678
      vertex 102.5 60 10
    endloop
  endfacet
  facet normal -0.923925 -0 -0.382573
    outer loop
      vertex 101.768 60 11.7678
      vertex 102.5 55 10
      vertex 101.768 55 11.7678
    endloop
  endfacet
  facet normal 0.382663 0 -0.923888
    outer loop
      vertex 98.2322 55 11.7678
      vertex 100 60 12.5
      vertex 100 55 12.5
    endloop
  endfacet
  facet normal 0.382663 0 -0.923888
    outer loop
      vertex 100 60 12.5
      vertex 98.2322 55 11.7678
      vertex 98.2322 60 11.7678
    endloop
  endfacet
  facet normal 0.382676 0 0.923883
    outer loop
      vertex 98.2322 60 8.23223
      vertex 100 55 7.5
      vertex 100 60 7.5
    endloop
  endfacet
  facet normal 0.382676 0 0.923883
    outer loop
      vertex 100 55 7.5
      vertex 98.2322 60 8.23223
      vertex 98.2322 55 8.23223
    endloop
  endfacet
  facet normal 0.923886 -0 0.382668
    outer loop
      vertex 97.5 55 10
      vertex 98.2322 60 8.23223
      vertex 97.5 60 10
    endloop
  endfacet
  facet normal 0.923886 0 0.382668
    outer loop
      vertex 98.2322 60 8.23223
      vertex 97.5 55 10
      vertex 98.2322 55 8.23223
    endloop
  endfacet
  facet normal -0.382626 0 -0.923903
    outer loop
      vertex 100 55 12.5
      vertex 101.768 60 11.7678
      vertex 101.768 55 11.7678
    endloop
  endfacet
  facet normal -0.382626 0 -0.923903
    outer loop
      vertex 101.768 60 11.7678
      vertex 100 55 12.5
      vertex 100 60 12.5
    endloop
  endfacet
  facet normal 0.555576 0 0.831465
    outer loop
      vertex 96.4645 10 6.46447
      vertex 98.0866 0 5.3806
      vertex 98.0866 10 5.3806
    endloop
  endfacet
  facet normal 0.555576 0 0.831465
    outer loop
      vertex 98.0866 0 5.3806
      vertex 96.4645 10 6.46447
      vertex 96.4645 0 6.46447
    endloop
  endfacet
  facet normal 0.555576 0 0.831465
    outer loop
      vertex 96.4645 55 6.46447
      vertex 98.0866 50 5.3806
      vertex 98.0866 55 5.3806
    endloop
  endfacet
  facet normal 0.555576 0 0.831465
    outer loop
      vertex 98.0866 50 5.3806
      vertex 96.4645 55 6.46447
      vertex 96.4645 50 6.46447
    endloop
  endfacet
  facet normal -0.831673 0 0.555266
    outer loop
      vertex 103.536 0 6.46447
      vertex 104.619 10 8.08658
      vertex 103.536 10 6.46447
    endloop
  endfacet
  facet normal -0.831673 0 0.555266
    outer loop
      vertex 104.619 10 8.08658
      vertex 103.536 0 6.46447
      vertex 104.619 0 8.08658
    endloop
  endfacet
  facet normal -0.831673 0 0.555266
    outer loop
      vertex 103.536 50 6.46447
      vertex 104.619 55 8.08658
      vertex 103.536 55 6.46447
    endloop
  endfacet
  facet normal -0.831673 0 0.555266
    outer loop
      vertex 104.619 55 8.08658
      vertex 103.536 50 6.46447
      vertex 104.619 50 8.08658
    endloop
  endfacet
  facet normal -0.980746 0 0.195286
    outer loop
      vertex 104.619 0 8.08658
      vertex 105 10 10
      vertex 104.619 10 8.08658
    endloop
  endfacet
  facet normal -0.980746 0 0.195286
    outer loop
      vertex 105 10 10
      vertex 104.619 0 8.08658
      vertex 105 0 10
    endloop
  endfacet
  facet normal -0.980746 0 0.195286
    outer loop
      vertex 104.619 50 8.08658
      vertex 105 55 10
      vertex 104.619 55 8.08658
    endloop
  endfacet
  facet normal -0.980746 0 0.195286
    outer loop
      vertex 105 55 10
      vertex 104.619 50 8.08658
      vertex 105 50 10
    endloop
  endfacet
  facet normal 0.83146 -0 0.555585
    outer loop
      vertex 95.3806 0 8.08658
      vertex 96.4645 10 6.46447
      vertex 95.3806 10 8.08658
    endloop
  endfacet
  facet normal 0.83146 0 0.555585
    outer loop
      vertex 96.4645 10 6.46447
      vertex 95.3806 0 8.08658
      vertex 96.4645 0 6.46447
    endloop
  endfacet
  facet normal 0.83146 -0 0.555585
    outer loop
      vertex 95.3806 50 8.08658
      vertex 96.4645 55 6.46447
      vertex 95.3806 55 8.08658
    endloop
  endfacet
  facet normal 0.83146 0 0.555585
    outer loop
      vertex 96.4645 55 6.46447
      vertex 95.3806 50 8.08658
      vertex 96.4645 50 6.46447
    endloop
  endfacet
  facet normal 0.195091 0 -0.980785
    outer loop
      vertex 98.0866 0 14.6194
      vertex 100 10 15
      vertex 100 0 15
    endloop
  endfacet
  facet normal 0.195091 0 -0.980785
    outer loop
      vertex 100 10 15
      vertex 98.0866 0 14.6194
      vertex 98.0866 10 14.6194
    endloop
  endfacet
  facet normal 0.195091 0 -0.980785
    outer loop
      vertex 98.0866 50 14.6194
      vertex 100 55 15
      vertex 100 50 15
    endloop
  endfacet
  facet normal 0.195091 0 -0.980785
    outer loop
      vertex 100 55 15
      vertex 98.0866 50 14.6194
      vertex 98.0866 55 14.6194
    endloop
  endfacet
  facet normal -0.19513 0 -0.980777
    outer loop
      vertex 100 0 15
      vertex 101.913 10 14.6194
      vertex 101.913 0 14.6194
    endloop
  endfacet
  facet normal -0.19513 0 -0.980777
    outer loop
      vertex 101.913 10 14.6194
      vertex 100 0 15
      vertex 100 10 15
    endloop
  endfacet
  facet normal -0.19513 0 -0.980777
    outer loop
      vertex 100 50 15
      vertex 101.913 55 14.6194
      vertex 101.913 50 14.6194
    endloop
  endfacet
  facet normal -0.19513 0 -0.980777
    outer loop
      vertex 101.913 55 14.6194
      vertex 100 50 15
      vertex 100 55 15
    endloop
  endfacet
  facet normal -0.555374 0 -0.831601
    outer loop
      vertex 101.913 0 14.6194
      vertex 103.536 10 13.5355
      vertex 103.536 0 13.5355
    endloop
  endfacet
  facet normal -0.555374 0 -0.831601
    outer loop
      vertex 103.536 10 13.5355
      vertex 101.913 0 14.6194
      vertex 101.913 10 14.6194
    endloop
  endfacet
  facet normal -0.555374 0 -0.831601
    outer loop
      vertex 101.913 50 14.6194
      vertex 103.536 55 13.5355
      vertex 103.536 50 13.5355
    endloop
  endfacet
  facet normal -0.555374 0 -0.831601
    outer loop
      vertex 103.536 55 13.5355
      vertex 101.913 50 14.6194
      vertex 101.913 55 14.6194
    endloop
  endfacet
  facet normal -0.831671 0 -0.555268
    outer loop
      vertex 104.619 50 11.9134
      vertex 103.536 55 13.5355
      vertex 104.619 55 11.9134
    endloop
  endfacet
  facet normal -0.831671 -0 -0.555268
    outer loop
      vertex 103.536 55 13.5355
      vertex 104.619 50 11.9134
      vertex 103.536 50 13.5355
    endloop
  endfacet
  facet normal -0.831671 0 -0.555268
    outer loop
      vertex 104.619 0 11.9134
      vertex 103.536 10 13.5355
      vertex 104.619 10 11.9134
    endloop
  endfacet
  facet normal -0.831671 -0 -0.555268
    outer loop
      vertex 103.536 10 13.5355
      vertex 104.619 0 11.9134
      vertex 103.536 0 13.5355
    endloop
  endfacet
  facet normal 0.980786 -0 0.195089
    outer loop
      vertex 95 0 10
      vertex 95.3806 10 8.08658
      vertex 95 10 10
    endloop
  endfacet
  facet normal 0.980786 0 0.195089
    outer loop
      vertex 95.3806 10 8.08658
      vertex 95 0 10
      vertex 95.3806 0 8.08658
    endloop
  endfacet
  facet normal 0.980786 -0 0.195089
    outer loop
      vertex 95 50 10
      vertex 95.3806 55 8.08658
      vertex 95 55 10
    endloop
  endfacet
  facet normal 0.980786 0 0.195089
    outer loop
      vertex 95.3806 55 8.08658
      vertex 95 50 10
      vertex 95.3806 50 8.08658
    endloop
  endfacet
  facet normal -0.980746 0 -0.195288
    outer loop
      vertex 105 0 10
      vertex 104.619 10 11.9134
      vertex 105 10 10
    endloop
  endfacet
  facet normal -0.980746 -0 -0.195288
    outer loop
      vertex 104.619 10 11.9134
      vertex 105 0 10
      vertex 104.619 0 11.9134
    endloop
  endfacet
  facet normal -0.980746 0 -0.195288
    outer loop
      vertex 105 50 10
      vertex 104.619 55 11.9134
      vertex 105 55 10
    endloop
  endfacet
  facet normal -0.980746 -0 -0.195288
    outer loop
      vertex 104.619 55 11.9134
      vertex 105 50 10
      vertex 104.619 50 11.9134
    endloop
  endfacet
  facet normal 0.195091 0 0.980785
    outer loop
      vertex 98.0866 55 5.3806
      vertex 100 50 5
      vertex 100 55 5
    endloop
  endfacet
  facet normal 0.195091 0 0.980785
    outer loop
      vertex 100 50 5
      vertex 98.0866 55 5.3806
      vertex 98.0866 50 5.3806
    endloop
  endfacet
  facet normal 0.195091 0 0.980785
    outer loop
      vertex 98.0866 10 5.3806
      vertex 100 0 5
      vertex 100 10 5
    endloop
  endfacet
  facet normal 0.195091 0 0.980785
    outer loop
      vertex 100 0 5
      vertex 98.0866 10 5.3806
      vertex 98.0866 0 5.3806
    endloop
  endfacet
  facet normal -0.19513 0 0.980777
    outer loop
      vertex 100 55 5
      vertex 101.913 50 5.3806
      vertex 101.913 55 5.3806
    endloop
  endfacet
  facet normal -0.19513 0 0.980777
    outer loop
      vertex 101.913 50 5.3806
      vertex 100 55 5
      vertex 100 50 5
    endloop
  endfacet
  facet normal -0.19513 0 0.980777
    outer loop
      vertex 100 10 5
      vertex 101.913 0 5.3806
      vertex 101.913 10 5.3806
    endloop
  endfacet
  facet normal -0.19513 0 0.980777
    outer loop
      vertex 101.913 0 5.3806
      vertex 100 10 5
      vertex 100 0 5
    endloop
  endfacet
  facet normal -0.555363 0 0.831608
    outer loop
      vertex 101.913 10 5.3806
      vertex 103.536 0 6.46447
      vertex 103.536 10 6.46447
    endloop
  endfacet
  facet normal -0.555363 0 0.831608
    outer loop
      vertex 103.536 0 6.46447
      vertex 101.913 10 5.3806
      vertex 101.913 0 5.3806
    endloop
  endfacet
  facet normal -0.555363 0 0.831608
    outer loop
      vertex 101.913 55 5.3806
      vertex 103.536 50 6.46447
      vertex 103.536 55 6.46447
    endloop
  endfacet
  facet normal -0.555363 0 0.831608
    outer loop
      vertex 103.536 50 6.46447
      vertex 101.913 55 5.3806
      vertex 101.913 50 5.3806
    endloop
  endfacet
  facet normal 0.831458 0 -0.555587
    outer loop
      vertex 96.4645 0 13.5355
      vertex 95.3806 10 11.9134
      vertex 96.4645 10 13.5355
    endloop
  endfacet
  facet normal 0.831458 0 -0.555587
    outer loop
      vertex 95.3806 10 11.9134
      vertex 96.4645 0 13.5355
      vertex 95.3806 0 11.9134
    endloop
  endfacet
  facet normal 0.831458 0 -0.555587
    outer loop
      vertex 96.4645 50 13.5355
      vertex 95.3806 55 11.9134
      vertex 96.4645 55 13.5355
    endloop
  endfacet
  facet normal 0.831458 0 -0.555587
    outer loop
      vertex 95.3806 55 11.9134
      vertex 96.4645 50 13.5355
      vertex 95.3806 50 11.9134
    endloop
  endfacet
  facet normal 0 -1 0
    outer loop
      vertex 100 55 12.5
      vertex 100 55 15
      vertex 98.0866 55 14.6194
    endloop
  endfacet
  facet normal 0 -1 0
    outer loop
      vertex 98.2322 55 11.7678
      vertex 98.0866 55 14.6194
      vertex 96.4645 55 13.5355
    endloop
  endfacet
  facet normal 0 -1 0
    outer loop
      vertex 100 55 15
      vertex 100 55 12.5
      vertex 101.913 55 14.6194
    endloop
  endfacet
  facet normal 0 -1 0
    outer loop
      vertex 101.768 55 11.7678
      vertex 101.913 55 14.6194
      vertex 100 55 12.5
    endloop
  endfacet
  facet normal 0 -1 0
    outer loop
      vertex 98.2322 55 11.7678
      vertex 96.4645 55 13.5355
      vertex 95.3806 55 11.9134
    endloop
  endfacet
  facet normal 0 -1 0
    outer loop
      vertex 98.0866 55 14.6194
      vertex 98.2322 55 11.7678
      vertex 100 55 12.5
    endloop
  endfacet
  facet normal 0 -1 0
    outer loop
      vertex 97.5 55 10
      vertex 95.3806 55 11.9134
      vertex 95 55 10
    endloop
  endfacet
  facet normal 0 -1 0
    outer loop
      vertex 95.3806 55 11.9134
      vertex 97.5 55 10
      vertex 98.2322 55 11.7678
    endloop
  endfacet
  facet normal 0 -1 0
    outer loop
      vertex 95.3806 55 8.08658
      vertex 97.5 55 10
      vertex 95 55 10
    endloop
  endfacet
  facet normal 0 -1 -0
    outer loop
      vertex 97.5 55 10
      vertex 95.3806 55 8.08658
      vertex 98.2322 55 8.23223
    endloop
  endfacet
  facet normal 0 -1 0
    outer loop
      vertex 96.4645 55 6.46447
      vertex 98.2322 55 8.23223
      vertex 95.3806 55 8.08658
    endloop
  endfacet
  facet normal 0 -1 0
    outer loop
      vertex 98.0866 55 5.3806
      vertex 98.2322 55 8.23223
      vertex 96.4645 55 6.46447
    endloop
  endfacet
  facet normal 0 -1 -0
    outer loop
      vertex 101.913 55 14.6194
      vertex 101.768 55 11.7678
      vertex 103.536 55 13.5355
    endloop
  endfacet
  facet normal 0 -1 -0
    outer loop
      vertex 103.536 55 13.5355
      vertex 101.768 55 11.7678
      vertex 104.619 55 11.9134
    endloop
  endfacet
  facet normal 0 -1 0
    outer loop
      vertex 102.5 55 10
      vertex 104.619 55 11.9134
      vertex 101.768 55 11.7678
    endloop
  endfacet
  facet normal 0 -1 0
    outer loop
      vertex 102.5 55 10
      vertex 105 55 10
      vertex 104.619 55 11.9134
    endloop
  endfacet
  facet normal 0 -1 0
    outer loop
      vertex 104.619 55 8.08658
      vertex 102.5 55 10
      vertex 101.768 55 8.23223
    endloop
  endfacet
  facet normal 0 -1 0
    outer loop
      vertex 102.5 55 10
      vertex 104.619 55 8.08658
      vertex 105 55 10
    endloop
  endfacet
  facet normal 0 -1 0
    outer loop
      vertex 101.913 55 5.3806
      vertex 101.768 55 8.23223
      vertex 100 55 7.5
    endloop
  endfacet
  facet normal 0 -1 -0
    outer loop
      vertex 98.2322 55 8.23223
      vertex 98.0866 55 5.3806
      vertex 100 55 7.5
    endloop
  endfacet
  facet normal 0 -1 0
    outer loop
      vertex 101.768 55 8.23223
      vertex 103.536 55 6.46447
      vertex 104.619 55 8.08658
    endloop
  endfacet
  facet normal 0 -1 0
    outer loop
      vertex 100 55 5
      vertex 100 55 7.5
      vertex 98.0866 55 5.3806
    endloop
  endfacet
  facet normal 0 -1 0
    outer loop
      vertex 101.768 55 8.23223
      vertex 101.913 55 5.3806
      vertex 103.536 55 6.46447
    endloop
  endfacet
  facet normal 0 -1 0
    outer loop
      vertex 100 55 7.5
      vertex 100 55 5
      vertex 101.913 55 5.3806
    endloop
  endfacet
  facet normal 0.980785 0 -0.195091
    outer loop
      vertex 95.3806 0 11.9134
      vertex 95 10 10
      vertex 95.3806 10 11.9134
    endloop
  endfacet
  facet normal 0.980785 0 -0.195091
    outer loop
      vertex 95 10 10
      vertex 95.3806 0 11.9134
      vertex 95 0 10
    endloop
  endfacet
  facet normal 0.980785 0 -0.195091
    outer loop
      vertex 95.3806 50 11.9134
      vertex 95 55 10
      vertex 95.3806 55 11.9134
    endloop
  endfacet
  facet normal 0.980785 0 -0.195091
    outer loop
      vertex 95 55 10
      vertex 95.3806 50 11.9134
      vertex 95 50 10
    endloop
  endfacet
  facet normal 0.555587 0 -0.831458
    outer loop
      vertex 96.4645 0 13.5355
      vertex 98.0866 10 14.6194
      vertex 98.0866 0 14.6194
    endloop
  endfacet
  facet normal 0.555587 0 -0.831458
    outer loop
      vertex 98.0866 10 14.6194
      vertex 96.4645 0 13.5355
      vertex 96.4645 10 13.5355
    endloop
  endfacet
  facet normal 0.555587 0 -0.831458
    outer loop
      vertex 96.4645 50 13.5355
      vertex 98.0866 55 14.6194
      vertex 98.0866 50 14.6194
    endloop
  endfacet
  facet normal 0.555587 0 -0.831458
    outer loop
      vertex 98.0866 55 14.6194
      vertex 96.4645 50 13.5355
      vertex 96.4645 55 13.5355
    endloop
  endfacet
  facet normal 1 -0 0
    outer loop
      vertex 220 0 20
      vertex 220 60 0
      vertex 220 60 20
    endloop
  endfacet
  facet normal 1 0 0
    outer loop
      vertex 220 60 0
      vertex 220 0 20
      vertex 220 0 0
    endloop
  endfacet
  facet normal 0 0 1
    outer loop
      vertex 220 60 20
      vertex 200 50 20
      vertex 220 0 20
    endloop
  endfacet
  facet normal -0 0 1
    outer loop
      vertex 90 60 20
      vertex 200 50 20
      vertex 220 60 20
    endloop
  endfacet
  facet normal 0 0 1
    outer loop
      vertex 200 50 20
      vertex 90 60 20
      vertex 90 50 20
    endloop
  endfacet
  facet normal -0 0 1
    outer loop
      vertex 200 10 20
      vertex 220 0 20
      vertex 200 50 20
    endloop
  endfacet
  facet normal 0 0 1
    outer loop
      vertex 0 0 20
      vertex 200 10 20
      vertex 0 10 20
    endloop
  endfacet
  facet normal 0 0 1
    outer loop
      vertex 200 10 20
      vertex 0 0 20
      vertex 220 0 20
    endloop
  endfacet
  facet normal 0 0 -1
    outer loop
      vertex 220 0 0
      vertex 200 10 0
      vertex 220 60 0
    endloop
  endfacet
  facet normal 0 0 -1
    outer loop
      vertex 0 0 0
      vertex 200 10 0
      vertex 220 0 0
    endloop
  endfacet
  facet normal -0 0 -1
    outer loop
      vertex 200 10 0
      vertex 0 0 0
      vertex 0 10 0
    endloop
  endfacet
  facet normal 0 0 -1
    outer loop
      vertex 200 50 0
      vertex 220 60 0
      vertex 200 10 0
    endloop
  endfacet
  facet normal 0 0 -1
    outer loop
      vertex 90 60 0
      vertex 200 50 0
      vertex 90 50 0
    endloop
  endfacet
  facet normal 0 0 -1
    outer loop
      vertex 200 50 0
      vertex 90 60 0
      vertex 220 60 0
    endloop
  endfacet
  facet normal -1 0 0
    outer loop
      vertex 0 0 0
      vertex 0 10 20
      vertex 0 10 0
    endloop
  endfacet
  facet normal -1 -0 0
    outer loop
      vertex 0 10 20
      vertex 0 0 0
      vertex 0 0 20
    endloop
  endfacet
  facet normal -1 0 0
    outer loop
      vertex 200 10 0
      vertex 200 50 20
      vertex 200 50 0
    endloop
  endfacet
  facet normal -1 -0 0
    outer loop
      vertex 200 50 20
      vertex 200 10 0
      vertex 200 10 20
    endloop
  endfacet
  facet normal 0 -1 0
    outer loop
      vertex 101.913 50 14.6194
      vertex 90 50 20
      vertex 100 50 15
    endloop
  endfacet
  facet normal 0 -1 0
    outer loop
      vertex 90 50 20
      vertex 98.0866 50 14.6194
      vertex 100 50 15
    endloop
  endfacet
  facet normal 0 -1 0
    outer loop
      vertex 90 50 20
      vertex 96.4645 50 13.5355
      vertex 98.0866 50 14.6194
    endloop
  endfacet
  facet normal 0 -1 0
    outer loop
      vertex 90 50 20
      vertex 95.3806 50 11.9134
      vertex 96.4645 50 13.5355
    endloop
  endfacet
  facet normal 0 -1 0
    outer loop
      vertex 90 50 20
      vertex 95 50 10
      vertex 95.3806 50 11.9134
    endloop
  endfacet
  facet normal 0 -1 0
    outer loop
      vertex 90 50 0
      vertex 95 50 10
      vertex 90 50 20
    endloop
  endfacet
  facet normal 0 -1 -0
    outer loop
      vertex 98.0866 50 5.3806
      vertex 90 50 0
      vertex 100 50 5
    endloop
  endfacet
  facet normal 0 -1 -0
    outer loop
      vertex 96.4645 50 6.46447
      vertex 90 50 0
      vertex 98.0866 50 5.3806
    endloop
  endfacet
  facet normal 0 -1 -0
    outer loop
      vertex 95.3806 50 8.08658
      vertex 90 50 0
      vertex 96.4645 50 6.46447
    endloop
  endfacet
  facet normal 0 -1 -0
    outer loop
      vertex 95 50 10
      vertex 90 50 0
      vertex 95.3806 50 8.08658
    endloop
  endfacet
  facet normal 0 -1 0
    outer loop
      vertex 90 50 20
      vertex 101.913 50 14.6194
      vertex 200 50 20
    endloop
  endfacet
  facet normal 0 -1 0
    outer loop
      vertex 103.536 50 13.5355
      vertex 200 50 20
      vertex 101.913 50 14.6194
    endloop
  endfacet
  facet normal 0 -1 0
    outer loop
      vertex 104.619 50 11.9134
      vertex 200 50 20
      vertex 103.536 50 13.5355
    endloop
  endfacet
  facet normal 0 -1 0
    outer loop
      vertex 105 50 10
      vertex 200 50 20
      vertex 104.619 50 11.9134
    endloop
  endfacet
  facet normal 0 -1 0
    outer loop
      vertex 200 50 0
      vertex 105 50 10
      vertex 104.619 50 8.08658
    endloop
  endfacet
  facet normal 0 -1 0
    outer loop
      vertex 200 50 0
      vertex 104.619 50 8.08658
      vertex 103.536 50 6.46447
    endloop
  endfacet
  facet normal 0 -1 0
    outer loop
      vertex 200 50 0
      vertex 103.536 50 6.46447
      vertex 101.913 50 5.3806
    endloop
  endfacet
  facet normal 0 -1 0
    outer loop
      vertex 90 50 0
      vertex 101.913 50 5.3806
      vertex 100 50 5
    endloop
  endfacet
  facet normal 0 -1 -0
    outer loop
      vertex 101.913 50 5.3806
      vertex 90 50 0
      vertex 200 50 0
    endloop
  endfacet
  facet normal 0 -1 0
    outer loop
      vertex 105 50 10
      vertex 200 50 0
      vertex 200 50 20
    endloop
  endfacet
  facet normal 0 1 0
    outer loop
      vertex 200 10 20
      vertex 100 10 15
      vertex 0 10 20
    endloop
  endfacet
  facet normal 0 1 0
    outer loop
      vertex 200 10 20
      vertex 101.913 10 14.6194
      vertex 100 10 15
    endloop
  endfacet
  facet normal 0 1 0
    outer loop
      vertex 200 10 20
      vertex 103.536 10 13.5355
      vertex 101.913 10 14.6194
    endloop
  endfacet
  facet normal 0 1 0
    outer loop
      vertex 200 10 20
      vertex 104.619 10 11.9134
      vertex 103.536 10 13.5355
    endloop
  endfacet
  facet normal 0 1 0
    outer loop
      vertex 200 10 20
      vertex 105 10 10
      vertex 104.619 10 11.9134
    endloop
  endfacet
  facet normal 0 1 -0
    outer loop
      vertex 200 10 0
      vertex 105 10 10
      vertex 200 10 20
    endloop
  endfacet
  facet normal 0 1 0
    outer loop
      vertex 105 10 10
      vertex 200 10 0
      vertex 104.619 10 8.08658
    endloop
  endfacet
  facet normal 0 1 0
    outer loop
      vertex 104.619 10 8.08658
      vertex 200 10 0
      vertex 103.536 10 6.46447
    endloop
  endfacet
  facet normal 0 1 0
    outer loop
      vertex 103.536 10 6.46447
      vertex 200 10 0
      vertex 101.913 10 5.3806
    endloop
  endfacet
  facet normal 0 1 0
    outer loop
      vertex 101.913 10 5.3806
      vertex 200 10 0
      vertex 100 10 5
    endloop
  endfacet
  facet normal 0 1 -0
    outer loop
      vertex 98.0866 10 14.6194
      vertex 0 10 20
      vertex 100 10 15
    endloop
  endfacet
  facet normal 0 1 -0
    outer loop
      vertex 96.4645 10 13.5355
      vertex 0 10 20
      vertex 98.0866 10 14.6194
    endloop
  endfacet
  facet normal 0 1 -0
    outer loop
      vertex 95.3806 10 11.9134
      vertex 0 10 20
      vertex 96.4645 10 13.5355
    endloop
  endfacet
  facet normal 0 1 -0
    outer loop
      vertex 95 10 10
      vertex 0 10 20
      vertex 95.3806 10 11.9134
    endloop
  endfacet
  facet normal 0 1 0
    outer loop
      vertex 0 10 0
      vertex 95 10 10
      vertex 95.3806 10 8.08658
    endloop
  endfacet
  facet normal 0 1 0
    outer loop
      vertex 0 10 0
      vertex 95.3806 10 8.08658
      vertex 96.4645 10 6.46447
    endloop
  endfacet
  facet normal 0 1 0
    outer loop
      vertex 0 10 0
      vertex 96.4645 10 6.46447
      vertex 98.0866 10 5.3806
    endloop
  endfacet
  facet normal 0 1 0
    outer loop
      vertex 0 10 0
      vertex 98.0866 10 5.3806
      vertex 100 10 5
    endloop
  endfacet
  facet normal 0 1 0
    outer loop
      vertex 95 10 10
      vertex 0 10 0
      vertex 0 10 20
    endloop
  endfacet
  facet normal 0 1 0
    outer loop
      vertex 0 10 0
      vertex 100 10 5
      vertex 200 10 0
    endloop
  endfacet
  facet normal -1 0 0
    outer loop
      vertex 90 50 0
      vertex 90 60 20
      vertex 90 60 0
    endloop
  endfacet
  facet normal -1 -0 0
    outer loop
      vertex 90 60 20
      vertex 90 50 0
      vertex 90 50 20
    endloop
  endfacet
endsolid OpenSCAD_Model
