solid Default
  facet normal 1.000000e+00 0.000000e+00 0.000000e+00
    outer loop
      vertex 9.500000e+00 3.000001e+00 8.000001e+00
      vertex 9.500000e+00 3.000001e+00 6.000000e+00
      vertex 9.500000e+00 8.000000e+00 8.000001e+00
    endloop
  endfacet
  facet normal 1.000000e+00 0.000000e+00 0.000000e+00
    outer loop
      vertex 9.500000e+00 8.000000e+00 8.000001e+00
      vertex 9.500000e+00 3.000001e+00 6.000000e+00
      vertex 9.500000e+00 3.000001e+00 3.000000e+00
    endloop
  endfacet
  facet normal 1.000000e+00 0.000000e+00 0.000000e+00
    outer loop
      vertex 9.500000e+00 -4.999997e-01 2.133975e+00
      vertex 9.500000e+00 3.000001e+00 3.000000e+00
      vertex 9.500000e+00 -4.999997e-01 3.866025e+00
    endloop
  endfacet
  facet normal 1.000000e+00 0.000000e+00 0.000000e+00
    outer loop
      vertex 9.500000e+00 -4.999997e-01 3.866025e+00
      vertex 9.500000e+00 3.000001e+00 3.000000e+00
      vertex 9.500000e+00 3.000001e+00 6.000000e+00
    endloop
  endfacet
  facet normal 1.000000e+00 0.000000e+00 0.000000e+00
    outer loop
      vertex 9.500000e+00 -4.999997e-01 3.866025e+00
      vertex 9.500000e+00 3.000001e+00 6.000000e+00
      vertex 9.500000e+00 -2.000000e+00 4.732051e+00
    endloop
  endfacet
  facet normal 1.000000e+00 0.000000e+00 0.000000e+00
    outer loop
      vertex 9.500000e+00 -2.000000e+00 4.732051e+00
      vertex 9.500000e+00 3.000001e+00 6.000000e+00
      vertex 9.500000e+00 -4.999997e-01 6.000000e+00
    endloop
  endfacet
  facet normal 1.000000e+00 0.000000e+00 0.000000e+00
    outer loop
      vertex 9.500000e+00 -3.500000e+00 3.866025e+00
      vertex 9.500000e+00 -7.000000e+00 6.500000e+00
      vertex 9.500000e+00 -3.500000e+00 2.133975e+00
    endloop
  endfacet
  facet normal 1.000000e+00 0.000000e+00 0.000000e+00
    outer loop
      vertex 9.500000e+00 -3.500000e+00 2.133975e+00
      vertex 9.500000e+00 -7.000000e+00 6.500000e+00
      vertex 9.500000e+00 -7.000000e+00 0.000000e+00
    endloop
  endfacet
  facet normal 1.000000e+00 0.000000e+00 0.000000e+00
    outer loop
      vertex 9.500000e+00 -3.500000e+00 2.133975e+00
      vertex 9.500000e+00 -7.000000e+00 0.000000e+00
      vertex 9.500000e+00 -4.999997e-01 2.133975e+00
    endloop
  endfacet
  facet normal 1.000000e+00 0.000000e+00 0.000000e+00
    outer loop
      vertex 9.500000e+00 -4.999997e-01 2.133975e+00
      vertex 9.500000e+00 -7.000000e+00 0.000000e+00
      vertex 9.500000e+00 3.000001e+00 0.000000e+00
    endloop
  endfacet
  facet normal 1.000000e+00 0.000000e+00 0.000000e+00
    outer loop
      vertex 9.500000e+00 -4.999997e-01 2.133975e+00
      vertex 9.500000e+00 3.000001e+00 0.000000e+00
      vertex 9.500000e+00 3.000001e+00 3.000000e+00
    endloop
  endfacet
  facet normal 1.000000e+00 0.000000e+00 0.000000e+00
    outer loop
      vertex 9.500000e+00 -8.000000e+00 9.500000e+00
      vertex 9.500000e+00 -8.000000e+00 7.500000e+00
      vertex 9.500000e+00 -4.999997e-01 9.500000e+00
    endloop
  endfacet
  facet normal 1.000000e+00 0.000000e+00 0.000000e+00
    outer loop
      vertex 9.500000e+00 -4.999997e-01 9.500000e+00
      vertex 9.500000e+00 -8.000000e+00 7.500000e+00
      vertex 9.500000e+00 -7.000000e+00 6.500000e+00
    endloop
  endfacet
  facet normal 1.000000e+00 0.000000e+00 0.000000e+00
    outer loop
      vertex 9.500000e+00 -4.999997e-01 9.500000e+00
      vertex 9.500000e+00 -7.000000e+00 6.500000e+00
      vertex 9.500000e+00 -4.999997e-01 6.000000e+00
    endloop
  endfacet
  facet normal 1.000000e+00 0.000000e+00 0.000000e+00
    outer loop
      vertex 9.500000e+00 -4.999997e-01 6.000000e+00
      vertex 9.500000e+00 -7.000000e+00 6.500000e+00
      vertex 9.500000e+00 -3.500000e+00 3.866025e+00
    endloop
  endfacet
  facet normal 1.000000e+00 0.000000e+00 0.000000e+00
    outer loop
      vertex 9.500000e+00 -4.999997e-01 6.000000e+00
      vertex 9.500000e+00 -3.500000e+00 3.866025e+00
      vertex 9.500000e+00 -2.000000e+00 4.732051e+00
    endloop
  endfacet
  facet normal 0.000000e+00 0.000000e+00 1.000000e+00
    outer loop
      vertex -3.000000e+00 -7.000000e+00 9.500000e+00
      vertex -3.000000e+00 -8.000000e+00 9.500000e+00
      vertex 8.500000e+00 -7.000000e+00 9.500000e+00
    endloop
  endfacet
  facet normal 0.000000e+00 0.000000e+00 1.000000e+00
    outer loop
      vertex 8.500000e+00 -7.000000e+00 9.500000e+00
      vertex -3.000000e+00 -8.000000e+00 9.500000e+00
      vertex 9.500000e+00 -8.000000e+00 9.500000e+00
    endloop
  endfacet
  facet normal 0.000000e+00 0.000000e+00 1.000000e+00
    outer loop
      vertex 8.500000e+00 -7.000000e+00 9.500000e+00
      vertex 9.500000e+00 -8.000000e+00 9.500000e+00
      vertex 8.500000e+00 -4.999997e-01 9.500000e+00
    endloop
  endfacet
  facet normal 0.000000e+00 0.000000e+00 1.000000e+00
    outer loop
      vertex 8.500000e+00 -4.999997e-01 9.500000e+00
      vertex 9.500000e+00 -8.000000e+00 9.500000e+00
      vertex 9.500000e+00 -4.999997e-01 9.500000e+00
    endloop
  endfacet
  facet normal 0.000000e+00 5.000000e-01 -8.660254e-01
    outer loop
      vertex 9.500000e+00 -3.500000e+00 3.866025e+00
      vertex 3.500001e+00 -3.500000e+00 3.866025e+00
      vertex 9.500000e+00 -2.000000e+00 4.732051e+00
    endloop
  endfacet
  facet normal 0.000000e+00 5.000000e-01 -8.660254e-01
    outer loop
      vertex 9.500000e+00 -2.000000e+00 4.732051e+00
      vertex 3.500001e+00 -3.500000e+00 3.866025e+00
      vertex 3.500001e+00 -2.079111e+00 4.686376e+00
    endloop
  endfacet
  facet normal 0.000000e+00 5.000000e-01 -8.660254e-01
    outer loop
      vertex 9.500000e+00 -2.000000e+00 4.732051e+00
      vertex 3.500001e+00 -2.079111e+00 4.686376e+00
      vertex 3.418986e+00 -2.000000e+00 4.732051e+00
    endloop
  endfacet
  facet normal 0.000000e+00 1.000000e+00 2.503857e-16
    outer loop
      vertex 6.750000e+00 -3.500000e+00 0.000000e+00
      vertex 3.500001e+00 -3.500000e+00 2.133975e+00
      vertex 6.750000e+00 -3.500000e+00 2.133975e+00
    endloop
  endfacet
  facet normal 0.000000e+00 1.000000e+00 2.503857e-16
    outer loop
      vertex 6.750000e+00 -3.500000e+00 2.133975e+00
      vertex 3.500001e+00 -3.500000e+00 2.133975e+00
      vertex 3.500001e+00 -3.500000e+00 3.866025e+00
    endloop
  endfacet
  facet normal 0.000000e+00 1.000000e+00 2.503857e-16
    outer loop
      vertex 6.750000e+00 -3.500000e+00 2.133975e+00
      vertex 3.500001e+00 -3.500000e+00 3.866025e+00
      vertex 9.500000e+00 -3.500000e+00 2.133975e+00
    endloop
  endfacet
  facet normal 0.000000e+00 1.000000e+00 2.503857e-16
    outer loop
      vertex 9.500000e+00 -3.500000e+00 2.133975e+00
      vertex 3.500001e+00 -3.500000e+00 3.866025e+00
      vertex 9.500000e+00 -3.500000e+00 3.866025e+00
    endloop
  endfacet
  facet normal 0.000000e+00 1.000000e+00 2.503857e-16
    outer loop
      vertex 3.750001e+00 -3.500000e+00 0.000000e+00
      vertex 3.661449e+00 -3.500000e+00 3.850528e-01
      vertex 6.750000e+00 -3.500000e+00 0.000000e+00
    endloop
  endfacet
  facet normal 0.000000e+00 1.000000e+00 2.503857e-16
    outer loop
      vertex 6.750000e+00 -3.500000e+00 0.000000e+00
      vertex 3.661449e+00 -3.500000e+00 3.850528e-01
      vertex 3.513340e+00 -3.500000e+00 7.513458e-01
    endloop
  endfacet
  facet normal 0.000000e+00 1.000000e+00 2.503857e-16
    outer loop
      vertex 6.750000e+00 -3.500000e+00 0.000000e+00
      vertex 3.513340e+00 -3.500000e+00 7.513458e-01
      vertex 3.500001e+00 -3.500000e+00 2.133975e+00
    endloop
  endfacet
  facet normal 0.000000e+00 1.000000e+00 2.503857e-16
    outer loop
      vertex 3.500001e+00 -3.500000e+00 2.133975e+00
      vertex 3.513340e+00 -3.500000e+00 7.513458e-01
      vertex 3.309372e+00 -3.500000e+00 1.089730e+00
    endloop
  endfacet
  facet normal 0.000000e+00 1.000000e+00 2.503857e-16
    outer loop
      vertex 3.309372e+00 -3.500000e+00 1.089730e+00
      vertex 3.054639e+00 -3.500000e+00 1.391754e+00
      vertex 3.500001e+00 -3.500000e+00 2.133975e+00
    endloop
  endfacet
  facet normal 0.000000e+00 1.000000e+00 2.503857e-16
    outer loop
      vertex 3.500001e+00 -3.500000e+00 2.133975e+00
      vertex 3.054639e+00 -3.500000e+00 1.391754e+00
      vertex 2.755504e+00 -3.500000e+00 1.649873e+00
    endloop
  endfacet
  facet normal 0.000000e+00 1.000000e+00 2.503857e-16
    outer loop
      vertex 3.500001e+00 -3.500000e+00 2.133975e+00
      vertex 2.755504e+00 -3.500000e+00 1.649873e+00
      vertex 2.419440e+00 -3.500000e+00 1.857641e+00
    endloop
  endfacet
  facet normal 0.000000e+00 1.000000e+00 2.503857e-16
    outer loop
      vertex 2.419440e+00 -3.500000e+00 1.857641e+00
      vertex 2.054840e+00 -3.500000e+00 2.009869e+00
      vertex 3.500001e+00 -3.500000e+00 2.133975e+00
    endloop
  endfacet
  facet normal 0.000000e+00 1.000000e+00 2.503857e-16
    outer loop
      vertex 3.500001e+00 -3.500000e+00 2.133975e+00
      vertex 2.054840e+00 -3.500000e+00 2.009869e+00
      vertex 1.670809e+00 -3.500000e+00 2.102753e+00
    endloop
  endfacet
  facet normal 0.000000e+00 1.000000e+00 2.503857e-16
    outer loop
      vertex 3.500001e+00 -3.500000e+00 2.133975e+00
      vertex 1.670809e+00 -3.500000e+00 2.102753e+00
      vertex 1.276940e+00 -3.500000e+00 2.133975e+00
    endloop
  endfacet
  facet normal 0.000000e+00 -1.000000e+00 -5.007715e-16
    outer loop
      vertex 2.755504e+00 -4.999997e-01 1.649873e+00
      vertex 3.054639e+00 -4.999997e-01 1.391754e+00
      vertex 3.500001e+00 -4.999997e-01 2.133975e+00
    endloop
  endfacet
  facet normal 0.000000e+00 -1.000000e+00 -5.007715e-16
    outer loop
      vertex 3.309372e+00 -4.999997e-01 1.089730e+00
      vertex 3.513340e+00 -4.999997e-01 7.513458e-01
      vertex 6.750000e+00 -4.999997e-01 0.000000e+00
    endloop
  endfacet
  facet normal 0.000000e+00 -1.000000e+00 -5.007715e-16
    outer loop
      vertex 6.750000e+00 -4.999997e-01 0.000000e+00
      vertex 3.513340e+00 -4.999997e-01 7.513458e-01
      vertex 3.661449e+00 -4.999997e-01 3.850528e-01
    endloop
  endfacet
  facet normal 0.000000e+00 -1.000000e+00 -5.007715e-16
    outer loop
      vertex 6.750000e+00 -4.999997e-01 0.000000e+00
      vertex 3.661449e+00 -4.999997e-01 3.850528e-01
      vertex 3.750001e+00 -4.999997e-01 0.000000e+00
    endloop
  endfacet
  facet normal 0.000000e+00 -1.000000e+00 -5.007715e-16
    outer loop
      vertex 3.500001e+00 -4.999997e-01 2.133975e+00
      vertex 1.276940e+00 -4.999997e-01 2.133975e+00
      vertex 1.670809e+00 -4.999997e-01 2.102753e+00
    endloop
  endfacet
  facet normal 0.000000e+00 -1.000000e+00 -5.007715e-16
    outer loop
      vertex 3.054639e+00 -4.999997e-01 1.391754e+00
      vertex 3.309372e+00 -4.999997e-01 1.089730e+00
      vertex 3.500001e+00 -4.999997e-01 2.133975e+00
    endloop
  endfacet
  facet normal 0.000000e+00 -1.000000e+00 -5.007715e-16
    outer loop
      vertex 3.500001e+00 -4.999997e-01 2.133975e+00
      vertex 3.309372e+00 -4.999997e-01 1.089730e+00
      vertex 6.750000e+00 -4.999997e-01 0.000000e+00
    endloop
  endfacet
  facet normal 0.000000e+00 -1.000000e+00 -5.007715e-16
    outer loop
      vertex 3.500001e+00 -4.999997e-01 2.133975e+00
      vertex 6.750000e+00 -4.999997e-01 0.000000e+00
      vertex 3.500001e+00 -4.999997e-01 3.866025e+00
    endloop
  endfacet
  facet normal 0.000000e+00 -1.000000e+00 -5.007715e-16
    outer loop
      vertex 3.500001e+00 -4.999997e-01 3.866025e+00
      vertex 6.750000e+00 -4.999997e-01 0.000000e+00
      vertex 6.750000e+00 -4.999997e-01 2.133975e+00
    endloop
  endfacet
  facet normal 0.000000e+00 -1.000000e+00 -5.007715e-16
    outer loop
      vertex 3.500001e+00 -4.999997e-01 3.866025e+00
      vertex 6.750000e+00 -4.999997e-01 2.133975e+00
      vertex 9.500000e+00 -4.999997e-01 3.866025e+00
    endloop
  endfacet
  facet normal 0.000000e+00 -1.000000e+00 -5.007715e-16
    outer loop
      vertex 9.500000e+00 -4.999997e-01 3.866025e+00
      vertex 6.750000e+00 -4.999997e-01 2.133975e+00
      vertex 9.500000e+00 -4.999997e-01 2.133975e+00
    endloop
  endfacet
  facet normal 0.000000e+00 -1.000000e+00 -5.007715e-16
    outer loop
      vertex 1.670809e+00 -4.999997e-01 2.102753e+00
      vertex 2.054840e+00 -4.999997e-01 2.009869e+00
      vertex 3.500001e+00 -4.999997e-01 2.133975e+00
    endloop
  endfacet
  facet normal 0.000000e+00 -1.000000e+00 -5.007715e-16
    outer loop
      vertex 3.500001e+00 -4.999997e-01 2.133975e+00
      vertex 2.054840e+00 -4.999997e-01 2.009869e+00
      vertex 2.419440e+00 -4.999997e-01 1.857641e+00
    endloop
  endfacet
  facet normal 0.000000e+00 -1.000000e+00 -5.007715e-16
    outer loop
      vertex 3.500001e+00 -4.999997e-01 2.133975e+00
      vertex 2.419440e+00 -4.999997e-01 1.857641e+00
      vertex 2.755504e+00 -4.999997e-01 1.649873e+00
    endloop
  endfacet
  facet normal 0.000000e+00 -5.000000e-01 -8.660254e-01
    outer loop
      vertex 3.500001e+00 -4.999997e-01 3.866025e+00
      vertex 9.500000e+00 -4.999997e-01 3.866025e+00
      vertex 3.500001e+00 -1.920889e+00 4.686376e+00
    endloop
  endfacet
  facet normal 0.000000e+00 -5.000000e-01 -8.660254e-01
    outer loop
      vertex 3.500001e+00 -1.920889e+00 4.686376e+00
      vertex 9.500000e+00 -4.999997e-01 3.866025e+00
      vertex 9.500000e+00 -2.000000e+00 4.732051e+00
    endloop
  endfacet
  facet normal 0.000000e+00 -5.000000e-01 -8.660254e-01
    outer loop
      vertex 3.500001e+00 -1.920889e+00 4.686376e+00
      vertex 9.500000e+00 -2.000000e+00 4.732051e+00
      vertex 3.418986e+00 -2.000000e+00 4.732051e+00
    endloop
  endfacet
  facet normal 0.000000e+00 1.000000e+00 0.000000e+00
    outer loop
      vertex 3.500001e+00 3.000001e+00 3.000000e+00
      vertex 9.500000e+00 3.000001e+00 3.000000e+00
      vertex 3.500001e+00 3.000001e+00 2.133975e+00
    endloop
  endfacet
  facet normal 0.000000e+00 1.000000e+00 0.000000e+00
    outer loop
      vertex 3.500001e+00 3.000001e+00 2.133975e+00
      vertex 9.500000e+00 3.000001e+00 3.000000e+00
      vertex 9.500000e+00 3.000001e+00 0.000000e+00
    endloop
  endfacet
  facet normal 0.000000e+00 1.000000e+00 0.000000e+00
    outer loop
      vertex 3.500001e+00 3.000001e+00 2.133975e+00
      vertex 9.500000e+00 3.000001e+00 0.000000e+00
      vertex 5.000007e-01 3.000001e+00 2.133975e+00
    endloop
  endfacet
  facet normal 0.000000e+00 1.000000e+00 0.000000e+00
    outer loop
      vertex 5.000007e-01 3.000001e+00 2.133975e+00
      vertex 9.500000e+00 3.000001e+00 0.000000e+00
      vertex -1.050000e+01 3.000001e+00 0.000000e+00
    endloop
  endfacet
  facet normal 0.000000e+00 1.000000e+00 0.000000e+00
    outer loop
      vertex 5.000007e-01 3.000001e+00 2.133975e+00
      vertex -1.050000e+01 3.000001e+00 0.000000e+00
      vertex 5.000007e-01 3.000001e+00 3.000000e+00
    endloop
  endfacet
  facet normal 0.000000e+00 1.000000e+00 0.000000e+00
    outer loop
      vertex 5.000007e-01 3.000001e+00 3.000000e+00
      vertex -1.050000e+01 3.000001e+00 0.000000e+00
      vertex -1.050000e+01 3.000001e+00 3.000000e+00
    endloop
  endfacet
  facet normal 0.000000e+00 1.445603e-16 1.000000e+00
    outer loop
      vertex 3.500001e+00 -7.000000e+00 2.133975e+00
      vertex 3.500001e+00 -3.500000e+00 2.133975e+00
      vertex 5.000007e-01 -7.000000e+00 2.133975e+00
    endloop
  endfacet
  facet normal 0.000000e+00 1.445603e-16 1.000000e+00
    outer loop
      vertex 5.000007e-01 -7.000000e+00 2.133975e+00
      vertex 3.500001e+00 -3.500000e+00 2.133975e+00
      vertex 1.276940e+00 -3.500000e+00 2.133975e+00
    endloop
  endfacet
  facet normal 0.000000e+00 1.445603e-16 1.000000e+00
    outer loop
      vertex 5.000007e-01 -7.000000e+00 2.133975e+00
      vertex 1.276940e+00 -3.500000e+00 2.133975e+00
      vertex 5.000007e-01 -3.500000e+00 2.133975e+00
    endloop
  endfacet
  facet normal 0.000000e+00 1.445603e-16 1.000000e+00
    outer loop
      vertex 3.500001e+00 -4.999997e-01 2.133975e+00
      vertex 3.500001e+00 3.000001e+00 2.133975e+00
      vertex 1.276940e+00 -4.999997e-01 2.133975e+00
    endloop
  endfacet
  facet normal 0.000000e+00 1.445603e-16 1.000000e+00
    outer loop
      vertex 1.276940e+00 -4.999997e-01 2.133975e+00
      vertex 3.500001e+00 3.000001e+00 2.133975e+00
      vertex 5.000007e-01 3.000001e+00 2.133975e+00
    endloop
  endfacet
  facet normal 0.000000e+00 1.445603e-16 1.000000e+00
    outer loop
      vertex 1.276940e+00 -4.999997e-01 2.133975e+00
      vertex 5.000007e-01 3.000001e+00 2.133975e+00
      vertex 5.000007e-01 -4.999997e-01 2.133975e+00
    endloop
  endfacet
  facet normal 0.000000e+00 1.445603e-16 1.000000e+00
    outer loop
      vertex -2.276940e+00 -4.999997e-01 2.133975e+00
      vertex -2.276940e+00 -3.500000e+00 2.133975e+00
      vertex 5.000007e-01 -4.999997e-01 2.133975e+00
    endloop
  endfacet
  facet normal 0.000000e+00 1.445603e-16 1.000000e+00
    outer loop
      vertex 5.000007e-01 -4.999997e-01 2.133975e+00
      vertex -2.276940e+00 -3.500000e+00 2.133975e+00
      vertex 5.000007e-01 -3.500000e+00 2.133975e+00
    endloop
  endfacet
  facet normal 0.000000e+00 1.445603e-16 1.000000e+00
    outer loop
      vertex 5.000007e-01 -4.999997e-01 2.133975e+00
      vertex 5.000007e-01 -3.500000e+00 2.133975e+00
      vertex 1.276940e+00 -4.999997e-01 2.133975e+00
    endloop
  endfacet
  facet normal 0.000000e+00 1.445603e-16 1.000000e+00
    outer loop
      vertex 1.276940e+00 -4.999997e-01 2.133975e+00
      vertex 5.000007e-01 -3.500000e+00 2.133975e+00
      vertex 1.276940e+00 -3.500000e+00 2.133975e+00
    endloop
  endfacet
  facet normal 0.000000e+00 1.445603e-16 1.000000e+00
    outer loop
      vertex -7.750000e+00 -4.999997e-01 2.133975e+00
      vertex -1.050000e+01 -4.999997e-01 2.133975e+00
      vertex -7.750000e+00 -3.500000e+00 2.133975e+00
    endloop
  endfacet
  facet normal 0.000000e+00 1.445603e-16 1.000000e+00
    outer loop
      vertex -7.750000e+00 -3.500000e+00 2.133975e+00
      vertex -1.050000e+01 -4.999997e-01 2.133975e+00
      vertex -1.050000e+01 -3.500000e+00 2.133975e+00
    endloop
  endfacet
  facet normal 0.000000e+00 -1.000000e+00 0.000000e+00
    outer loop
      vertex 3.500001e+00 -7.000000e+00 2.133975e+00
      vertex 9.500000e+00 -7.000000e+00 0.000000e+00
      vertex 9.500000e+00 -7.000000e+00 6.500000e+00
    endloop
  endfacet
  facet normal 0.000000e+00 -1.000000e+00 0.000000e+00
    outer loop
      vertex 9.500000e+00 -7.000000e+00 0.000000e+00
      vertex 3.500001e+00 -7.000000e+00 2.133975e+00
      vertex -1.050000e+01 -7.000000e+00 0.000000e+00
    endloop
  endfacet
  facet normal 0.000000e+00 -1.000000e+00 0.000000e+00
    outer loop
      vertex -1.050000e+01 -7.000000e+00 0.000000e+00
      vertex 3.500001e+00 -7.000000e+00 2.133975e+00
      vertex 5.000007e-01 -7.000000e+00 2.133975e+00
    endloop
  endfacet
  facet normal 0.000000e+00 -1.000000e+00 0.000000e+00
    outer loop
      vertex -1.050000e+01 -7.000000e+00 0.000000e+00
      vertex 5.000007e-01 -7.000000e+00 2.133975e+00
      vertex -1.050000e+01 -7.000000e+00 6.500000e+00
    endloop
  endfacet
  facet normal 0.000000e+00 -1.000000e+00 0.000000e+00
    outer loop
      vertex 5.000007e-01 -7.000000e+00 2.133975e+00
      vertex 5.000007e-01 -7.000000e+00 4.716069e+00
      vertex -1.050000e+01 -7.000000e+00 6.500000e+00
    endloop
  endfacet
  facet normal 0.000000e+00 -1.000000e+00 0.000000e+00
    outer loop
      vertex -1.050000e+01 -7.000000e+00 6.500000e+00
      vertex 5.000007e-01 -7.000000e+00 4.716069e+00
      vertex 2.000001e+00 -7.000000e+00 5.532051e+00
    endloop
  endfacet
  facet normal 0.000000e+00 -1.000000e+00 0.000000e+00
    outer loop
      vertex -1.050000e+01 -7.000000e+00 6.500000e+00
      vertex 2.000001e+00 -7.000000e+00 5.532051e+00
      vertex 9.500000e+00 -7.000000e+00 6.500000e+00
    endloop
  endfacet
  facet normal 0.000000e+00 -1.000000e+00 0.000000e+00
    outer loop
      vertex 9.500000e+00 -7.000000e+00 6.500000e+00
      vertex 2.000001e+00 -7.000000e+00 5.532051e+00
      vertex 3.500001e+00 -7.000000e+00 4.686376e+00
    endloop
  endfacet
  facet normal 0.000000e+00 -1.000000e+00 0.000000e+00
    outer loop
      vertex 9.500000e+00 -7.000000e+00 6.500000e+00
      vertex 3.500001e+00 -7.000000e+00 4.686376e+00
      vertex 3.500001e+00 -7.000000e+00 2.133975e+00
    endloop
  endfacet
  facet normal -1.000000e+00 0.000000e+00 0.000000e+00
    outer loop
      vertex -1.050000e+01 -2.000000e+00 4.732051e+00
      vertex -1.050000e+01 -3.500000e+00 3.866025e+00
      vertex -1.050000e+01 -7.000000e+00 6.500000e+00
    endloop
  endfacet
  facet normal -1.000000e+00 0.000000e+00 0.000000e+00
    outer loop
      vertex -1.050000e+01 -7.000000e+00 6.500000e+00
      vertex -1.050000e+01 -3.500000e+00 3.866025e+00
      vertex -1.050000e+01 -7.000000e+00 0.000000e+00
    endloop
  endfacet
  facet normal -1.000000e+00 0.000000e+00 0.000000e+00
    outer loop
      vertex -1.050000e+01 -7.000000e+00 0.000000e+00
      vertex -1.050000e+01 -3.500000e+00 3.866025e+00
      vertex -1.050000e+01 -3.500000e+00 2.133975e+00
    endloop
  endfacet
  facet normal -1.000000e+00 0.000000e+00 0.000000e+00
    outer loop
      vertex -1.050000e+01 -7.000000e+00 0.000000e+00
      vertex -1.050000e+01 -3.500000e+00 2.133975e+00
      vertex -1.050000e+01 3.000001e+00 0.000000e+00
    endloop
  endfacet
  facet normal -1.000000e+00 0.000000e+00 0.000000e+00
    outer loop
      vertex -1.050000e+01 3.000001e+00 0.000000e+00
      vertex -1.050000e+01 -3.500000e+00 2.133975e+00
      vertex -1.050000e+01 -4.999997e-01 2.133975e+00
    endloop
  endfacet
  facet normal -1.000000e+00 0.000000e+00 0.000000e+00
    outer loop
      vertex -1.050000e+01 3.000001e+00 0.000000e+00
      vertex -1.050000e+01 -4.999997e-01 2.133975e+00
      vertex -1.050000e+01 3.000001e+00 3.000000e+00
    endloop
  endfacet
  facet normal -1.000000e+00 0.000000e+00 0.000000e+00
    outer loop
      vertex -1.050000e+01 3.000001e+00 3.000000e+00
      vertex -1.050000e+01 -4.999997e-01 2.133975e+00
      vertex -1.050000e+01 -4.999997e-01 3.866025e+00
    endloop
  endfacet
  facet normal -1.000000e+00 0.000000e+00 0.000000e+00
    outer loop
      vertex -1.050000e+01 3.000001e+00 3.000000e+00
      vertex -1.050000e+01 -4.999997e-01 3.866025e+00
      vertex -1.050000e+01 8.000000e+00 8.000001e+00
    endloop
  endfacet
  facet normal -1.000000e+00 0.000000e+00 0.000000e+00
    outer loop
      vertex -1.050000e+01 8.000000e+00 8.000001e+00
      vertex -1.050000e+01 -4.999997e-01 3.866025e+00
      vertex -1.050000e+01 -2.000000e+00 4.732051e+00
    endloop
  endfacet
  facet normal -1.000000e+00 0.000000e+00 0.000000e+00
    outer loop
      vertex -1.050000e+01 8.000000e+00 8.000001e+00
      vertex -1.050000e+01 -2.000000e+00 4.732051e+00
      vertex -1.050000e+01 -8.000000e+00 8.000001e+00
    endloop
  endfacet
  facet normal -1.000000e+00 0.000000e+00 0.000000e+00
    outer loop
      vertex -1.050000e+01 -8.000000e+00 8.000001e+00
      vertex -1.050000e+01 -2.000000e+00 4.732051e+00
      vertex -1.050000e+01 -7.000000e+00 6.500000e+00
    endloop
  endfacet
  facet normal -1.000000e+00 0.000000e+00 0.000000e+00
    outer loop
      vertex -1.050000e+01 -8.000000e+00 8.000001e+00
      vertex -1.050000e+01 -7.000000e+00 6.500000e+00
      vertex -1.050000e+01 -8.000000e+00 7.500000e+00
    endloop
  endfacet
  facet normal 0.000000e+00 1.000000e+00 0.000000e+00
    outer loop
      vertex 8.500000e+00 3.000001e+00 8.000001e+00
      vertex 8.500000e+00 3.000001e+00 1.250000e+01
      vertex 9.500000e+00 3.000001e+00 8.000001e+00
    endloop
  endfacet
  facet normal 0.000000e+00 1.000000e+00 0.000000e+00
    outer loop
      vertex 9.500000e+00 3.000001e+00 8.000001e+00
      vertex 8.500000e+00 3.000001e+00 1.250000e+01
      vertex 1.050000e+01 3.000001e+00 1.250000e+01
    endloop
  endfacet
  facet normal 0.000000e+00 1.000000e+00 0.000000e+00
    outer loop
      vertex 9.500000e+00 3.000001e+00 8.000001e+00
      vertex 1.050000e+01 3.000001e+00 1.250000e+01
      vertex 9.500000e+00 3.000001e+00 6.000000e+00
    endloop
  endfacet
  facet normal 0.000000e+00 1.000000e+00 0.000000e+00
    outer loop
      vertex 9.500000e+00 3.000001e+00 6.000000e+00
      vertex 1.050000e+01 3.000001e+00 1.250000e+01
      vertex 1.050000e+01 3.000001e+00 7.000000e+00
    endloop
  endfacet
  facet normal 0.000000e+00 0.000000e+00 1.000000e+00
    outer loop
      vertex 9.500000e+00 3.000001e+00 8.000001e+00
      vertex 9.500000e+00 8.000000e+00 8.000001e+00
      vertex 8.500000e+00 3.000001e+00 8.000001e+00
    endloop
  endfacet
  facet normal 0.000000e+00 0.000000e+00 1.000000e+00
    outer loop
      vertex 8.500000e+00 3.000001e+00 8.000001e+00
      vertex 9.500000e+00 8.000000e+00 8.000001e+00
      vertex -1.050000e+01 8.000000e+00 8.000001e+00
    endloop
  endfacet
  facet normal 0.000000e+00 0.000000e+00 1.000000e+00
    outer loop
      vertex 8.500000e+00 -7.000000e+00 8.000001e+00
      vertex 8.500000e+00 3.000001e+00 8.000001e+00
      vertex -3.000000e+00 -7.000000e+00 8.000001e+00
    endloop
  endfacet
  facet normal 0.000000e+00 0.000000e+00 1.000000e+00
    outer loop
      vertex -3.000000e+00 -7.000000e+00 8.000001e+00
      vertex 8.500000e+00 3.000001e+00 8.000001e+00
      vertex -1.050000e+01 8.000000e+00 8.000001e+00
    endloop
  endfacet
  facet normal 0.000000e+00 0.000000e+00 1.000000e+00
    outer loop
      vertex -3.000000e+00 -7.000000e+00 8.000001e+00
      vertex -1.050000e+01 8.000000e+00 8.000001e+00
      vertex -3.000000e+00 -8.000000e+00 8.000001e+00
    endloop
  endfacet
  facet normal 0.000000e+00 0.000000e+00 1.000000e+00
    outer loop
      vertex -3.000000e+00 -8.000000e+00 8.000001e+00
      vertex -1.050000e+01 8.000000e+00 8.000001e+00
      vertex -1.050000e+01 -8.000000e+00 8.000001e+00
    endloop
  endfacet
  facet normal 0.000000e+00 0.000000e+00 -1.000000e+00
    outer loop
      vertex -1.050000e+01 -7.000000e+00 0.000000e+00
      vertex 3.750001e+00 -3.500000e+00 0.000000e+00
      vertex 9.500000e+00 -7.000000e+00 0.000000e+00
    endloop
  endfacet
  facet normal 0.000000e+00 0.000000e+00 -1.000000e+00
    outer loop
      vertex 9.500000e+00 -7.000000e+00 0.000000e+00
      vertex 3.750001e+00 -3.500000e+00 0.000000e+00
      vertex 6.750000e+00 -3.500000e+00 0.000000e+00
    endloop
  endfacet
  facet normal 0.000000e+00 0.000000e+00 -1.000000e+00
    outer loop
      vertex 9.500000e+00 -7.000000e+00 0.000000e+00
      vertex 6.750000e+00 -3.500000e+00 0.000000e+00
      vertex 9.500000e+00 3.000001e+00 0.000000e+00
    endloop
  endfacet
  facet normal 0.000000e+00 0.000000e+00 -1.000000e+00
    outer loop
      vertex 9.500000e+00 3.000001e+00 0.000000e+00
      vertex 6.750000e+00 -3.500000e+00 0.000000e+00
      vertex 6.750000e+00 -4.999997e-01 0.000000e+00
    endloop
  endfacet
  facet normal 0.000000e+00 0.000000e+00 -1.000000e+00
    outer loop
      vertex 9.500000e+00 3.000001e+00 0.000000e+00
      vertex 6.750000e+00 -4.999997e-01 0.000000e+00
      vertex -1.050000e+01 3.000001e+00 0.000000e+00
    endloop
  endfacet
  facet normal 0.000000e+00 0.000000e+00 -1.000000e+00
    outer loop
      vertex -1.050000e+01 3.000001e+00 0.000000e+00
      vertex 6.750000e+00 -4.999997e-01 0.000000e+00
      vertex 3.750001e+00 -4.999997e-01 0.000000e+00
    endloop
  endfacet
  facet normal 0.000000e+00 0.000000e+00 -1.000000e+00
    outer loop
      vertex -1.050000e+01 3.000001e+00 0.000000e+00
      vertex 3.750001e+00 -4.999997e-01 0.000000e+00
      vertex 3.750001e+00 -3.500000e+00 0.000000e+00
    endloop
  endfacet
  facet normal 0.000000e+00 0.000000e+00 -1.000000e+00
    outer loop
      vertex -7.750000e+00 -4.999997e-01 0.000000e+00
      vertex -7.750000e+00 -3.500000e+00 0.000000e+00
      vertex -1.050000e+01 -7.000000e+00 0.000000e+00
    endloop
  endfacet
  facet normal 0.000000e+00 0.000000e+00 -1.000000e+00
    outer loop
      vertex -1.050000e+01 -7.000000e+00 0.000000e+00
      vertex -7.750000e+00 -3.500000e+00 0.000000e+00
      vertex -4.750000e+00 -3.500000e+00 0.000000e+00
    endloop
  endfacet
  facet normal 0.000000e+00 0.000000e+00 -1.000000e+00
    outer loop
      vertex -1.050000e+01 -7.000000e+00 0.000000e+00
      vertex -4.750000e+00 -3.500000e+00 0.000000e+00
      vertex 3.750001e+00 -3.500000e+00 0.000000e+00
    endloop
  endfacet
  facet normal 0.000000e+00 0.000000e+00 -1.000000e+00
    outer loop
      vertex 3.750001e+00 -3.500000e+00 0.000000e+00
      vertex -4.750000e+00 -3.500000e+00 0.000000e+00
      vertex -4.750000e+00 -4.999997e-01 0.000000e+00
    endloop
  endfacet
  facet normal 0.000000e+00 0.000000e+00 -1.000000e+00
    outer loop
      vertex 3.750001e+00 -3.500000e+00 0.000000e+00
      vertex -4.750000e+00 -4.999997e-01 0.000000e+00
      vertex -1.050000e+01 3.000001e+00 0.000000e+00
    endloop
  endfacet
  facet normal 0.000000e+00 0.000000e+00 -1.000000e+00
    outer loop
      vertex -1.050000e+01 3.000001e+00 0.000000e+00
      vertex -4.750000e+00 -4.999997e-01 0.000000e+00
      vertex -7.750000e+00 -4.999997e-01 0.000000e+00
    endloop
  endfacet
  facet normal 0.000000e+00 0.000000e+00 -1.000000e+00
    outer loop
      vertex -1.050000e+01 3.000001e+00 0.000000e+00
      vertex -7.750000e+00 -4.999997e-01 0.000000e+00
      vertex -1.050000e+01 -7.000000e+00 0.000000e+00
    endloop
  endfacet
  facet normal 0.000000e+00 -1.000000e+00 0.000000e+00
    outer loop
      vertex -1.050000e+01 -8.000000e+00 8.000001e+00
      vertex -1.050000e+01 -8.000000e+00 7.500000e+00
      vertex -3.000000e+00 -8.000000e+00 8.000001e+00
    endloop
  endfacet
  facet normal 0.000000e+00 -1.000000e+00 0.000000e+00
    outer loop
      vertex -3.000000e+00 -8.000000e+00 8.000001e+00
      vertex -1.050000e+01 -8.000000e+00 7.500000e+00
      vertex 9.500000e+00 -8.000000e+00 7.500000e+00
    endloop
  endfacet
  facet normal 0.000000e+00 -1.000000e+00 0.000000e+00
    outer loop
      vertex -3.000000e+00 -8.000000e+00 8.000001e+00
      vertex 9.500000e+00 -8.000000e+00 7.500000e+00
      vertex -3.000000e+00 -8.000000e+00 9.500000e+00
    endloop
  endfacet
  facet normal 0.000000e+00 -1.000000e+00 0.000000e+00
    outer loop
      vertex -3.000000e+00 -8.000000e+00 9.500000e+00
      vertex 9.500000e+00 -8.000000e+00 7.500000e+00
      vertex 9.500000e+00 -8.000000e+00 9.500000e+00
    endloop
  endfacet
  facet normal 3.482882e-17 1.000000e+00 0.000000e+00
    outer loop
      vertex -3.000000e+00 -7.000000e+00 9.500000e+00
      vertex 8.500000e+00 -7.000000e+00 9.500000e+00
      vertex -3.000000e+00 -7.000000e+00 8.000001e+00
    endloop
  endfacet
  facet normal 3.482882e-17 1.000000e+00 0.000000e+00
    outer loop
      vertex -3.000000e+00 -7.000000e+00 8.000001e+00
      vertex 8.500000e+00 -7.000000e+00 9.500000e+00
      vertex 8.500000e+00 -7.000000e+00 8.000001e+00
    endloop
  endfacet
  facet normal -1.000000e+00 0.000000e+00 0.000000e+00
    outer loop
      vertex -3.000000e+00 -8.000000e+00 9.500000e+00
      vertex -3.000000e+00 -7.000000e+00 9.500000e+00
      vertex -3.000000e+00 -8.000000e+00 8.000001e+00
    endloop
  endfacet
  facet normal -1.000000e+00 0.000000e+00 0.000000e+00
    outer loop
      vertex -3.000000e+00 -8.000000e+00 8.000001e+00
      vertex -3.000000e+00 -7.000000e+00 9.500000e+00
      vertex -3.000000e+00 -7.000000e+00 8.000001e+00
    endloop
  endfacet
  facet normal -1.000000e+00 0.000000e+00 0.000000e+00
    outer loop
      vertex 8.500000e+00 -4.999997e-01 1.250000e+01
      vertex 8.500000e+00 3.000001e+00 1.250000e+01
      vertex 8.500000e+00 -4.999997e-01 9.500000e+00
    endloop
  endfacet
  facet normal -1.000000e+00 0.000000e+00 0.000000e+00
    outer loop
      vertex 8.500000e+00 -4.999997e-01 9.500000e+00
      vertex 8.500000e+00 3.000001e+00 1.250000e+01
      vertex 8.500000e+00 3.000001e+00 8.000001e+00
    endloop
  endfacet
  facet normal -1.000000e+00 0.000000e+00 0.000000e+00
    outer loop
      vertex 8.500000e+00 -4.999997e-01 9.500000e+00
      vertex 8.500000e+00 3.000001e+00 8.000001e+00
      vertex 8.500000e+00 -7.000000e+00 9.500000e+00
    endloop
  endfacet
  facet normal -1.000000e+00 0.000000e+00 0.000000e+00
    outer loop
      vertex 8.500000e+00 -7.000000e+00 9.500000e+00
      vertex 8.500000e+00 3.000001e+00 8.000001e+00
      vertex 8.500000e+00 -7.000000e+00 8.000001e+00
    endloop
  endfacet
  facet normal 0.000000e+00 5.000000e-01 -8.660254e-01
    outer loop
      vertex -1.050000e+01 -2.000000e+00 4.732051e+00
      vertex 5.293777e-01 -2.000000e+00 4.732051e+00
      vertex -1.050000e+01 -3.500000e+00 3.866025e+00
    endloop
  endfacet
  facet normal 0.000000e+00 5.000000e-01 -8.660254e-01
    outer loop
      vertex -1.050000e+01 -3.500000e+00 3.866025e+00
      vertex 5.293777e-01 -2.000000e+00 4.732051e+00
      vertex 5.000007e-01 -2.027680e+00 4.716069e+00
    endloop
  endfacet
  facet normal 0.000000e+00 5.000000e-01 -8.660254e-01
    outer loop
      vertex -1.050000e+01 -3.500000e+00 3.866025e+00
      vertex 5.000007e-01 -2.027680e+00 4.716069e+00
      vertex 5.000007e-01 -3.500000e+00 3.866025e+00
    endloop
  endfacet
  facet normal 0.000000e+00 1.000000e+00 2.503857e-16
    outer loop
      vertex -1.050000e+01 -3.500000e+00 2.133975e+00
      vertex -1.050000e+01 -3.500000e+00 3.866025e+00
      vertex -7.750000e+00 -3.500000e+00 2.133975e+00
    endloop
  endfacet
  facet normal 0.000000e+00 1.000000e+00 2.503857e-16
    outer loop
      vertex -7.750000e+00 -3.500000e+00 2.133975e+00
      vertex -1.050000e+01 -3.500000e+00 3.866025e+00
      vertex 5.000007e-01 -3.500000e+00 3.866025e+00
    endloop
  endfacet
  facet normal 0.000000e+00 1.000000e+00 2.503857e-16
    outer loop
      vertex -3.419440e+00 -3.500000e+00 1.857641e+00
      vertex -3.755504e+00 -3.500000e+00 1.649873e+00
      vertex -7.750000e+00 -3.500000e+00 2.133975e+00
    endloop
  endfacet
  facet normal 0.000000e+00 1.000000e+00 2.503857e-16
    outer loop
      vertex -7.750000e+00 -3.500000e+00 2.133975e+00
      vertex -3.755504e+00 -3.500000e+00 1.649873e+00
      vertex -4.054639e+00 -3.500000e+00 1.391754e+00
    endloop
  endfacet
  facet normal 0.000000e+00 1.000000e+00 2.503857e-16
    outer loop
      vertex -7.750000e+00 -3.500000e+00 2.133975e+00
      vertex -4.054639e+00 -3.500000e+00 1.391754e+00
      vertex -4.309371e+00 -3.500000e+00 1.089730e+00
    endloop
  endfacet
  facet normal 0.000000e+00 1.000000e+00 2.503857e-16
    outer loop
      vertex -4.750000e+00 -3.500000e+00 0.000000e+00
      vertex -7.750000e+00 -3.500000e+00 0.000000e+00
      vertex -4.661449e+00 -3.500000e+00 3.850528e-01
    endloop
  endfacet
  facet normal 0.000000e+00 1.000000e+00 2.503857e-16
    outer loop
      vertex -4.661449e+00 -3.500000e+00 3.850528e-01
      vertex -7.750000e+00 -3.500000e+00 0.000000e+00
      vertex -7.750000e+00 -3.500000e+00 2.133975e+00
    endloop
  endfacet
  facet normal 0.000000e+00 1.000000e+00 2.503857e-16
    outer loop
      vertex -4.661449e+00 -3.500000e+00 3.850528e-01
      vertex -7.750000e+00 -3.500000e+00 2.133975e+00
      vertex -4.513339e+00 -3.500000e+00 7.513458e-01
    endloop
  endfacet
  facet normal 0.000000e+00 1.000000e+00 2.503857e-16
    outer loop
      vertex -4.513339e+00 -3.500000e+00 7.513458e-01
      vertex -7.750000e+00 -3.500000e+00 2.133975e+00
      vertex -4.309371e+00 -3.500000e+00 1.089730e+00
    endloop
  endfacet
  facet normal 0.000000e+00 1.000000e+00 2.503857e-16
    outer loop
      vertex 5.000007e-01 -3.500000e+00 2.133975e+00
      vertex -2.276940e+00 -3.500000e+00 2.133975e+00
      vertex 5.000007e-01 -3.500000e+00 3.866025e+00
    endloop
  endfacet
  facet normal 0.000000e+00 1.000000e+00 2.503857e-16
    outer loop
      vertex 5.000007e-01 -3.500000e+00 3.866025e+00
      vertex -2.276940e+00 -3.500000e+00 2.133975e+00
      vertex -2.670808e+00 -3.500000e+00 2.102753e+00
    endloop
  endfacet
  facet normal 0.000000e+00 1.000000e+00 2.503857e-16
    outer loop
      vertex 5.000007e-01 -3.500000e+00 3.866025e+00
      vertex -2.670808e+00 -3.500000e+00 2.102753e+00
      vertex -7.750000e+00 -3.500000e+00 2.133975e+00
    endloop
  endfacet
  facet normal 0.000000e+00 1.000000e+00 2.503857e-16
    outer loop
      vertex -7.750000e+00 -3.500000e+00 2.133975e+00
      vertex -2.670808e+00 -3.500000e+00 2.102753e+00
      vertex -3.054839e+00 -3.500000e+00 2.009869e+00
    endloop
  endfacet
  facet normal 0.000000e+00 1.000000e+00 2.503857e-16
    outer loop
      vertex -7.750000e+00 -3.500000e+00 2.133975e+00
      vertex -3.054839e+00 -3.500000e+00 2.009869e+00
      vertex -3.419440e+00 -3.500000e+00 1.857641e+00
    endloop
  endfacet
  facet normal 0.000000e+00 1.445603e-16 1.000000e+00
    outer loop
      vertex 6.750000e+00 -3.500000e+00 2.133975e+00
      vertex 9.500000e+00 -3.500000e+00 2.133975e+00
      vertex 6.750000e+00 -4.999997e-01 2.133975e+00
    endloop
  endfacet
  facet normal 0.000000e+00 1.445603e-16 1.000000e+00
    outer loop
      vertex 6.750000e+00 -4.999997e-01 2.133975e+00
      vertex 9.500000e+00 -3.500000e+00 2.133975e+00
      vertex 9.500000e+00 -4.999997e-01 2.133975e+00
    endloop
  endfacet
  facet normal 0.000000e+00 -1.000000e+00 -5.007715e-16
    outer loop
      vertex -2.276940e+00 -4.999997e-01 2.133975e+00
      vertex 5.000007e-01 -4.999997e-01 2.133975e+00
      vertex 5.000007e-01 -4.999997e-01 3.866025e+00
    endloop
  endfacet
  facet normal 0.000000e+00 -1.000000e+00 -5.007715e-16
    outer loop
      vertex -1.050000e+01 -4.999997e-01 3.866025e+00
      vertex -1.050000e+01 -4.999997e-01 2.133975e+00
      vertex 5.000007e-01 -4.999997e-01 3.866025e+00
    endloop
  endfacet
  facet normal 0.000000e+00 -1.000000e+00 -5.007715e-16
    outer loop
      vertex 5.000007e-01 -4.999997e-01 3.866025e+00
      vertex -1.050000e+01 -4.999997e-01 2.133975e+00
      vertex -7.750000e+00 -4.999997e-01 2.133975e+00
    endloop
  endfacet
  facet normal 0.000000e+00 -1.000000e+00 -5.007715e-16
    outer loop
      vertex -7.750000e+00 -4.999997e-01 0.000000e+00
      vertex -4.750000e+00 -4.999997e-01 0.000000e+00
      vertex -7.750000e+00 -4.999997e-01 2.133975e+00
    endloop
  endfacet
  facet normal 0.000000e+00 -1.000000e+00 -5.007715e-16
    outer loop
      vertex -7.750000e+00 -4.999997e-01 2.133975e+00
      vertex -4.750000e+00 -4.999997e-01 0.000000e+00
      vertex -4.661449e+00 -4.999997e-01 3.850528e-01
    endloop
  endfacet
  facet normal 0.000000e+00 -1.000000e+00 -5.007715e-16
    outer loop
      vertex -7.750000e+00 -4.999997e-01 2.133975e+00
      vertex -4.661449e+00 -4.999997e-01 3.850528e-01
      vertex -4.513339e+00 -4.999997e-01 7.513458e-01
    endloop
  endfacet
  facet normal 0.000000e+00 -1.000000e+00 -5.007715e-16
    outer loop
      vertex -4.513339e+00 -4.999997e-01 7.513458e-01
      vertex -4.309371e+00 -4.999997e-01 1.089730e+00
      vertex -7.750000e+00 -4.999997e-01 2.133975e+00
    endloop
  endfacet
  facet normal 0.000000e+00 -1.000000e+00 -5.007715e-16
    outer loop
      vertex -7.750000e+00 -4.999997e-01 2.133975e+00
      vertex -4.309371e+00 -4.999997e-01 1.089730e+00
      vertex -4.054639e+00 -4.999997e-01 1.391754e+00
    endloop
  endfacet
  facet normal 0.000000e+00 -1.000000e+00 -5.007715e-16
    outer loop
      vertex -7.750000e+00 -4.999997e-01 2.133975e+00
      vertex -4.054639e+00 -4.999997e-01 1.391754e+00
      vertex -3.755504e+00 -4.999997e-01 1.649873e+00
    endloop
  endfacet
  facet normal 0.000000e+00 -1.000000e+00 -5.007715e-16
    outer loop
      vertex -3.755504e+00 -4.999997e-01 1.649873e+00
      vertex -3.419440e+00 -4.999997e-01 1.857641e+00
      vertex -7.750000e+00 -4.999997e-01 2.133975e+00
    endloop
  endfacet
  facet normal 0.000000e+00 -1.000000e+00 -5.007715e-16
    outer loop
      vertex -7.750000e+00 -4.999997e-01 2.133975e+00
      vertex -3.419440e+00 -4.999997e-01 1.857641e+00
      vertex -3.054839e+00 -4.999997e-01 2.009869e+00
    endloop
  endfacet
  facet normal 0.000000e+00 -1.000000e+00 -5.007715e-16
    outer loop
      vertex -7.750000e+00 -4.999997e-01 2.133975e+00
      vertex -3.054839e+00 -4.999997e-01 2.009869e+00
      vertex 5.000007e-01 -4.999997e-01 3.866025e+00
    endloop
  endfacet
  facet normal 0.000000e+00 -1.000000e+00 -5.007715e-16
    outer loop
      vertex 5.000007e-01 -4.999997e-01 3.866025e+00
      vertex -3.054839e+00 -4.999997e-01 2.009869e+00
      vertex -2.670808e+00 -4.999997e-01 2.102753e+00
    endloop
  endfacet
  facet normal 0.000000e+00 -1.000000e+00 -5.007715e-16
    outer loop
      vertex 5.000007e-01 -4.999997e-01 3.866025e+00
      vertex -2.670808e+00 -4.999997e-01 2.102753e+00
      vertex -2.276940e+00 -4.999997e-01 2.133975e+00
    endloop
  endfacet
  facet normal 0.000000e+00 -5.000000e-01 -8.660254e-01
    outer loop
      vertex -1.050000e+01 -4.999997e-01 3.866025e+00
      vertex 5.000007e-01 -4.999997e-01 3.866025e+00
      vertex -1.050000e+01 -2.000000e+00 4.732051e+00
    endloop
  endfacet
  facet normal 0.000000e+00 -5.000000e-01 -8.660254e-01
    outer loop
      vertex -1.050000e+01 -2.000000e+00 4.732051e+00
      vertex 5.000007e-01 -4.999997e-01 3.866025e+00
      vertex 5.000007e-01 -1.972320e+00 4.716069e+00
    endloop
  endfacet
  facet normal 0.000000e+00 -5.000000e-01 -8.660254e-01
    outer loop
      vertex -1.050000e+01 -2.000000e+00 4.732051e+00
      vertex 5.000007e-01 -1.972320e+00 4.716069e+00
      vertex 5.293777e-01 -2.000000e+00 4.732051e+00
    endloop
  endfacet
  facet normal 1.000000e+00 -1.445603e-16 0.000000e+00
    outer loop
      vertex -7.750000e+00 -4.999997e-01 0.000000e+00
      vertex -7.750000e+00 -4.999997e-01 2.133975e+00
      vertex -7.750000e+00 -3.500000e+00 0.000000e+00
    endloop
  endfacet
  facet normal 1.000000e+00 -1.445603e-16 0.000000e+00
    outer loop
      vertex -7.750000e+00 -3.500000e+00 0.000000e+00
      vertex -7.750000e+00 -4.999997e-01 2.133975e+00
      vertex -7.750000e+00 -3.500000e+00 2.133975e+00
    endloop
  endfacet
  facet normal -1.000000e+00 0.000000e+00 0.000000e+00
    outer loop
      vertex 6.750000e+00 -3.500000e+00 0.000000e+00
      vertex 6.750000e+00 -3.500000e+00 2.133975e+00
      vertex 6.750000e+00 -4.999997e-01 0.000000e+00
    endloop
  endfacet
  facet normal -1.000000e+00 0.000000e+00 0.000000e+00
    outer loop
      vertex 6.750000e+00 -4.999997e-01 0.000000e+00
      vertex 6.750000e+00 -3.500000e+00 2.133975e+00
      vertex 6.750000e+00 -4.999997e-01 2.133975e+00
    endloop
  endfacet
  facet normal 5.266212e-02 0.000000e+00 9.986124e-01
    outer loop
      vertex 1.276940e+00 -4.999997e-01 2.133975e+00
      vertex 1.276940e+00 -3.500000e+00 2.133975e+00
      vertex 1.670809e+00 -3.500000e+00 2.102753e+00
    endloop
  endfacet
  facet normal 1.053242e-01 0.000000e+00 9.944379e-01
    outer loop
      vertex 1.276940e+00 -4.999997e-01 2.133975e+00
      vertex 1.670809e+00 -3.500000e+00 2.102753e+00
      vertex 1.670809e+00 -4.999997e-01 2.102753e+00
    endloop
  endfacet
  facet normal 2.093331e-01 0.000000e+00 9.778444e-01
    outer loop
      vertex 1.670809e+00 -4.999997e-01 2.102753e+00
      vertex 1.670809e+00 -3.500000e+00 2.102753e+00
      vertex 2.054840e+00 -3.500000e+00 2.009869e+00
    endloop
  endfacet
  facet normal 2.606799e-01 0.000000e+00 9.654253e-01
    outer loop
      vertex 1.670809e+00 -4.999997e-01 2.102753e+00
      vertex 2.054840e+00 -3.500000e+00 2.009869e+00
      vertex 2.054840e+00 -4.999997e-01 2.009869e+00
    endloop
  endfacet
  facet normal 3.607756e-01 0.000000e+00 9.326527e-01
    outer loop
      vertex 2.054840e+00 -4.999997e-01 2.009869e+00
      vertex 2.054840e+00 -3.500000e+00 2.009869e+00
      vertex 2.419440e+00 -3.500000e+00 1.857641e+00
    endloop
  endfacet
  facet normal 4.095245e-01 0.000000e+00 9.122991e-01
    outer loop
      vertex 2.054840e+00 -4.999997e-01 2.009869e+00
      vertex 2.419440e+00 -3.500000e+00 1.857641e+00
      vertex 2.419440e+00 -4.999997e-01 1.857641e+00
    endloop
  endfacet
  facet normal 5.032070e-01 0.000000e+00 8.641660e-01
    outer loop
      vertex 2.419440e+00 -4.999997e-01 1.857641e+00
      vertex 2.419440e+00 -3.500000e+00 1.857641e+00
      vertex 2.755504e+00 -3.500000e+00 1.649873e+00
    endloop
  endfacet
  facet normal 5.481404e-01 0.000000e+00 8.363863e-01
    outer loop
      vertex 2.419440e+00 -4.999997e-01 1.857641e+00
      vertex 2.755504e+00 -3.500000e+00 1.649873e+00
      vertex 2.755504e+00 -4.999997e-01 1.649873e+00
    endloop
  endfacet
  facet normal 6.330696e-01 0.000000e+00 7.740948e-01
    outer loop
      vertex 2.755504e+00 -4.999997e-01 1.649873e+00
      vertex 2.755504e+00 -3.500000e+00 1.649873e+00
      vertex 3.054639e+00 -3.500000e+00 1.391754e+00
    endloop
  endfacet
  facet normal 6.730654e-01 0.000000e+00 7.395830e-01
    outer loop
      vertex 2.755504e+00 -4.999997e-01 1.649873e+00
      vertex 3.054639e+00 -3.500000e+00 1.391754e+00
      vertex 3.054639e+00 -4.999997e-01 1.391754e+00
    endloop
  endfacet
  facet normal 7.471201e-01 0.000000e+00 6.646891e-01
    outer loop
      vertex 3.054639e+00 -4.999997e-01 1.391754e+00
      vertex 3.054639e+00 -3.500000e+00 1.391754e+00
      vertex 3.309372e+00 -3.500000e+00 1.089730e+00
    endloop
  endfacet
  facet normal 7.811791e-01 0.000000e+00 6.243070e-01
    outer loop
      vertex 3.054639e+00 -4.999997e-01 1.391754e+00
      vertex 3.309372e+00 -3.500000e+00 1.089730e+00
      vertex 3.309372e+00 -4.999997e-01 1.089730e+00
    endloop
  endfacet
  facet normal 8.425096e-01 0.000000e+00 5.386813e-01
    outer loop
      vertex 3.309372e+00 -4.999997e-01 1.089730e+00
      vertex 3.309372e+00 -3.500000e+00 1.089730e+00
      vertex 3.513340e+00 -3.500000e+00 7.513458e-01
    endloop
  endfacet
  facet normal 8.697811e-01 0.000000e+00 4.934377e-01
    outer loop
      vertex 3.309372e+00 -4.999997e-01 1.089730e+00
      vertex 3.513340e+00 -3.500000e+00 7.513458e-01
      vertex 3.513340e+00 -4.999997e-01 7.513458e-01
    endloop
  endfacet
  facet normal 9.168556e-01 0.000000e+00 3.992189e-01
    outer loop
      vertex 3.513340e+00 -4.999997e-01 7.513458e-01
      vertex 3.513340e+00 -3.500000e+00 7.513458e-01
      vertex 3.661449e+00 -3.500000e+00 3.850528e-01
    endloop
  endfacet
  facet normal 9.366586e-01 0.000000e+00 3.502437e-01
    outer loop
      vertex 3.513340e+00 -4.999997e-01 7.513458e-01
      vertex 3.661449e+00 -3.500000e+00 3.850528e-01
      vertex 3.661449e+00 -4.999997e-01 3.850528e-01
    endloop
  endfacet
  facet normal 9.683013e-01 0.000000e+00 2.497851e-01
    outer loop
      vertex 3.661449e+00 -4.999997e-01 3.850528e-01
      vertex 3.661449e+00 -3.500000e+00 3.850528e-01
      vertex 3.750001e+00 -3.500000e+00 0.000000e+00
    endloop
  endfacet
  facet normal 9.801410e-01 0.000000e+00 1.983016e-01
    outer loop
      vertex 3.661449e+00 -4.999997e-01 3.850528e-01
      vertex 3.750001e+00 -3.500000e+00 0.000000e+00
      vertex 3.750001e+00 -4.999997e-01 0.000000e+00
    endloop
  endfacet
  facet normal -5.266212e-02 0.000000e+00 9.986124e-01
    outer loop
      vertex -2.276940e+00 -3.500000e+00 2.133975e+00
      vertex -2.276940e+00 -4.999997e-01 2.133975e+00
      vertex -2.670808e+00 -4.999997e-01 2.102753e+00
    endloop
  endfacet
  facet normal -1.053242e-01 0.000000e+00 9.944379e-01
    outer loop
      vertex -2.276940e+00 -3.500000e+00 2.133975e+00
      vertex -2.670808e+00 -4.999997e-01 2.102753e+00
      vertex -2.670808e+00 -3.500000e+00 2.102753e+00
    endloop
  endfacet
  facet normal -2.093331e-01 0.000000e+00 9.778444e-01
    outer loop
      vertex -2.670808e+00 -3.500000e+00 2.102753e+00
      vertex -2.670808e+00 -4.999997e-01 2.102753e+00
      vertex -3.054839e+00 -4.999997e-01 2.009869e+00
    endloop
  endfacet
  facet normal -2.606799e-01 0.000000e+00 9.654253e-01
    outer loop
      vertex -2.670808e+00 -3.500000e+00 2.102753e+00
      vertex -3.054839e+00 -4.999997e-01 2.009869e+00
      vertex -3.054839e+00 -3.500000e+00 2.009869e+00
    endloop
  endfacet
  facet normal -3.607756e-01 0.000000e+00 9.326527e-01
    outer loop
      vertex -3.054839e+00 -3.500000e+00 2.009869e+00
      vertex -3.054839e+00 -4.999997e-01 2.009869e+00
      vertex -3.419440e+00 -4.999997e-01 1.857641e+00
    endloop
  endfacet
  facet normal -4.095245e-01 0.000000e+00 9.122991e-01
    outer loop
      vertex -3.054839e+00 -3.500000e+00 2.009869e+00
      vertex -3.419440e+00 -4.999997e-01 1.857641e+00
      vertex -3.419440e+00 -3.500000e+00 1.857641e+00
    endloop
  endfacet
  facet normal -5.032070e-01 0.000000e+00 8.641660e-01
    outer loop
      vertex -3.419440e+00 -3.500000e+00 1.857641e+00
      vertex -3.419440e+00 -4.999997e-01 1.857641e+00
      vertex -3.755504e+00 -4.999997e-01 1.649873e+00
    endloop
  endfacet
  facet normal -5.481404e-01 0.000000e+00 8.363863e-01
    outer loop
      vertex -3.419440e+00 -3.500000e+00 1.857641e+00
      vertex -3.755504e+00 -4.999997e-01 1.649873e+00
      vertex -3.755504e+00 -3.500000e+00 1.649873e+00
    endloop
  endfacet
  facet normal -6.330696e-01 0.000000e+00 7.740948e-01
    outer loop
      vertex -3.755504e+00 -3.500000e+00 1.649873e+00
      vertex -3.755504e+00 -4.999997e-01 1.649873e+00
      vertex -4.054639e+00 -4.999997e-01 1.391754e+00
    endloop
  endfacet
  facet normal -6.730654e-01 0.000000e+00 7.395830e-01
    outer loop
      vertex -3.755504e+00 -3.500000e+00 1.649873e+00
      vertex -4.054639e+00 -4.999997e-01 1.391754e+00
      vertex -4.054639e+00 -3.500000e+00 1.391754e+00
    endloop
  endfacet
  facet normal -7.471201e-01 0.000000e+00 6.646891e-01
    outer loop
      vertex -4.054639e+00 -3.500000e+00 1.391754e+00
      vertex -4.054639e+00 -4.999997e-01 1.391754e+00
      vertex -4.309371e+00 -4.999997e-01 1.089730e+00
    endloop
  endfacet
  facet normal -7.811791e-01 0.000000e+00 6.243070e-01
    outer loop
      vertex -4.054639e+00 -3.500000e+00 1.391754e+00
      vertex -4.309371e+00 -4.999997e-01 1.089730e+00
      vertex -4.309371e+00 -3.500000e+00 1.089730e+00
    endloop
  endfacet
  facet normal -8.425096e-01 0.000000e+00 5.386813e-01
    outer loop
      vertex -4.309371e+00 -3.500000e+00 1.089730e+00
      vertex -4.309371e+00 -4.999997e-01 1.089730e+00
      vertex -4.513339e+00 -4.999997e-01 7.513458e-01
    endloop
  endfacet
  facet normal -8.697811e-01 0.000000e+00 4.934377e-01
    outer loop
      vertex -4.309371e+00 -3.500000e+00 1.089730e+00
      vertex -4.513339e+00 -4.999997e-01 7.513458e-01
      vertex -4.513339e+00 -3.500000e+00 7.513458e-01
    endloop
  endfacet
  facet normal -9.168556e-01 0.000000e+00 3.992189e-01
    outer loop
      vertex -4.513339e+00 -3.500000e+00 7.513458e-01
      vertex -4.513339e+00 -4.999997e-01 7.513458e-01
      vertex -4.661449e+00 -4.999997e-01 3.850528e-01
    endloop
  endfacet
  facet normal -9.366586e-01 0.000000e+00 3.502437e-01
    outer loop
      vertex -4.513339e+00 -3.500000e+00 7.513458e-01
      vertex -4.661449e+00 -4.999997e-01 3.850528e-01
      vertex -4.661449e+00 -3.500000e+00 3.850528e-01
    endloop
  endfacet
  facet normal -9.683013e-01 0.000000e+00 2.497851e-01
    outer loop
      vertex -4.661449e+00 -3.500000e+00 3.850528e-01
      vertex -4.661449e+00 -4.999997e-01 3.850528e-01
      vertex -4.750000e+00 -4.999997e-01 0.000000e+00
    endloop
  endfacet
  facet normal -9.801410e-01 0.000000e+00 1.983016e-01
    outer loop
      vertex -4.661449e+00 -3.500000e+00 3.850528e-01
      vertex -4.750000e+00 -4.999997e-01 0.000000e+00
      vertex -4.750000e+00 -3.500000e+00 0.000000e+00
    endloop
  endfacet
  facet normal 0.000000e+00 7.071068e-01 -7.071068e-01
    outer loop
      vertex 9.500000e+00 8.000000e+00 8.000001e+00
      vertex 9.500000e+00 3.000001e+00 3.000000e+00
      vertex 3.500001e+00 3.000001e+00 3.000000e+00
    endloop
  endfacet
  facet normal 0.000000e+00 7.071068e-01 -7.071068e-01
    outer loop
      vertex 5.000007e-01 3.000001e+00 3.000000e+00
      vertex -1.050000e+01 3.000001e+00 3.000000e+00
      vertex 5.000007e-01 4.716070e+00 4.716069e+00
    endloop
  endfacet
  facet normal 0.000000e+00 7.071068e-01 -7.071068e-01
    outer loop
      vertex 5.000007e-01 4.716070e+00 4.716069e+00
      vertex -1.050000e+01 3.000001e+00 3.000000e+00
      vertex -1.050000e+01 8.000000e+00 8.000001e+00
    endloop
  endfacet
  facet normal 0.000000e+00 7.071068e-01 -7.071068e-01
    outer loop
      vertex 5.000007e-01 4.716070e+00 4.716069e+00
      vertex -1.050000e+01 8.000000e+00 8.000001e+00
      vertex 2.000001e+00 5.532051e+00 5.532051e+00
    endloop
  endfacet
  facet normal 0.000000e+00 7.071068e-01 -7.071068e-01
    outer loop
      vertex 2.000001e+00 5.532051e+00 5.532051e+00
      vertex -1.050000e+01 8.000000e+00 8.000001e+00
      vertex 9.500000e+00 8.000000e+00 8.000001e+00
    endloop
  endfacet
  facet normal 0.000000e+00 7.071068e-01 -7.071068e-01
    outer loop
      vertex 2.000001e+00 5.532051e+00 5.532051e+00
      vertex 9.500000e+00 8.000000e+00 8.000001e+00
      vertex 3.500001e+00 4.686376e+00 4.686376e+00
    endloop
  endfacet
  facet normal 0.000000e+00 7.071068e-01 -7.071068e-01
    outer loop
      vertex 3.500001e+00 4.686376e+00 4.686376e+00
      vertex 9.500000e+00 8.000000e+00 8.000001e+00
      vertex 3.500001e+00 3.000001e+00 3.000000e+00
    endloop
  endfacet
  facet normal 4.778586e-01 0.000000e+00 -8.784367e-01
    outer loop
      vertex 5.293777e-01 -2.000000e+00 4.732051e+00
      vertex 5.000007e-01 -1.972320e+00 4.716069e+00
      vertex 5.000007e-01 4.716070e+00 4.716069e+00
    endloop
  endfacet
  facet normal 4.778586e-01 0.000000e+00 -8.784367e-01
    outer loop
      vertex 5.000007e-01 -7.000000e+00 4.716069e+00
      vertex 5.000007e-01 -2.027680e+00 4.716069e+00
      vertex 2.000001e+00 -7.000000e+00 5.532051e+00
    endloop
  endfacet
  facet normal 4.778586e-01 0.000000e+00 -8.784367e-01
    outer loop
      vertex 2.000001e+00 -7.000000e+00 5.532051e+00
      vertex 5.000007e-01 -2.027680e+00 4.716069e+00
      vertex 5.293777e-01 -2.000000e+00 4.732051e+00
    endloop
  endfacet
  facet normal 4.778586e-01 0.000000e+00 -8.784367e-01
    outer loop
      vertex 2.000001e+00 -7.000000e+00 5.532051e+00
      vertex 5.293777e-01 -2.000000e+00 4.732051e+00
      vertex 2.000001e+00 5.532051e+00 5.532051e+00
    endloop
  endfacet
  facet normal 4.778586e-01 0.000000e+00 -8.784367e-01
    outer loop
      vertex 2.000001e+00 5.532051e+00 5.532051e+00
      vertex 5.293777e-01 -2.000000e+00 4.732051e+00
      vertex 5.000007e-01 4.716070e+00 4.716069e+00
    endloop
  endfacet
  facet normal -4.911100e-01 0.000000e+00 -8.710975e-01
    outer loop
      vertex 3.418986e+00 -2.000000e+00 4.732051e+00
      vertex 3.500001e+00 -2.079111e+00 4.686376e+00
      vertex 3.500001e+00 -7.000000e+00 4.686376e+00
    endloop
  endfacet
  facet normal -4.911100e-01 0.000000e+00 -8.710975e-01
    outer loop
      vertex 3.500001e+00 4.686376e+00 4.686376e+00
      vertex 3.500001e+00 -1.920889e+00 4.686376e+00
      vertex 2.000001e+00 5.532051e+00 5.532051e+00
    endloop
  endfacet
  facet normal -4.911100e-01 0.000000e+00 -8.710975e-01
    outer loop
      vertex 2.000001e+00 5.532051e+00 5.532051e+00
      vertex 3.500001e+00 -1.920889e+00 4.686376e+00
      vertex 3.418986e+00 -2.000000e+00 4.732051e+00
    endloop
  endfacet
  facet normal -4.911100e-01 0.000000e+00 -8.710975e-01
    outer loop
      vertex 2.000001e+00 5.532051e+00 5.532051e+00
      vertex 3.418986e+00 -2.000000e+00 4.732051e+00
      vertex 2.000001e+00 -7.000000e+00 5.532051e+00
    endloop
  endfacet
  facet normal -4.911100e-01 0.000000e+00 -8.710975e-01
    outer loop
      vertex 2.000001e+00 -7.000000e+00 5.532051e+00
      vertex 3.418986e+00 -2.000000e+00 4.732051e+00
      vertex 3.500001e+00 -7.000000e+00 4.686376e+00
    endloop
  endfacet
  facet normal -1.000000e+00 0.000000e+00 0.000000e+00
    outer loop
      vertex 3.500001e+00 -3.500000e+00 2.133975e+00
      vertex 3.500001e+00 -7.000000e+00 2.133975e+00
      vertex 3.500001e+00 -3.500000e+00 3.866025e+00
    endloop
  endfacet
  facet normal -1.000000e+00 0.000000e+00 0.000000e+00
    outer loop
      vertex 3.500001e+00 -3.500000e+00 3.866025e+00
      vertex 3.500001e+00 -7.000000e+00 2.133975e+00
      vertex 3.500001e+00 -7.000000e+00 4.686376e+00
    endloop
  endfacet
  facet normal -1.000000e+00 0.000000e+00 0.000000e+00
    outer loop
      vertex 3.500001e+00 -3.500000e+00 3.866025e+00
      vertex 3.500001e+00 -7.000000e+00 4.686376e+00
      vertex 3.500001e+00 -2.079111e+00 4.686376e+00
    endloop
  endfacet
  facet normal -1.000000e+00 0.000000e+00 0.000000e+00
    outer loop
      vertex 3.500001e+00 3.000001e+00 2.133975e+00
      vertex 3.500001e+00 -4.999997e-01 2.133975e+00
      vertex 3.500001e+00 3.000001e+00 3.000000e+00
    endloop
  endfacet
  facet normal -1.000000e+00 0.000000e+00 0.000000e+00
    outer loop
      vertex 3.500001e+00 3.000001e+00 3.000000e+00
      vertex 3.500001e+00 -4.999997e-01 2.133975e+00
      vertex 3.500001e+00 -4.999997e-01 3.866025e+00
    endloop
  endfacet
  facet normal -1.000000e+00 0.000000e+00 0.000000e+00
    outer loop
      vertex 3.500001e+00 3.000001e+00 3.000000e+00
      vertex 3.500001e+00 -4.999997e-01 3.866025e+00
      vertex 3.500001e+00 4.686376e+00 4.686376e+00
    endloop
  endfacet
  facet normal -1.000000e+00 0.000000e+00 0.000000e+00
    outer loop
      vertex 3.500001e+00 4.686376e+00 4.686376e+00
      vertex 3.500001e+00 -4.999997e-01 3.866025e+00
      vertex 3.500001e+00 -1.920889e+00 4.686376e+00
    endloop
  endfacet
  facet normal 1.000000e+00 0.000000e+00 0.000000e+00
    outer loop
      vertex 5.000007e-01 -7.000000e+00 2.133975e+00
      vertex 5.000007e-01 -3.500000e+00 2.133975e+00
      vertex 5.000007e-01 -7.000000e+00 4.716069e+00
    endloop
  endfacet
  facet normal 1.000000e+00 0.000000e+00 0.000000e+00
    outer loop
      vertex 5.000007e-01 -7.000000e+00 4.716069e+00
      vertex 5.000007e-01 -3.500000e+00 2.133975e+00
      vertex 5.000007e-01 -3.500000e+00 3.866025e+00
    endloop
  endfacet
  facet normal 1.000000e+00 0.000000e+00 0.000000e+00
    outer loop
      vertex 5.000007e-01 -7.000000e+00 4.716069e+00
      vertex 5.000007e-01 -3.500000e+00 3.866025e+00
      vertex 5.000007e-01 -2.027680e+00 4.716069e+00
    endloop
  endfacet
  facet normal 1.000000e+00 0.000000e+00 0.000000e+00
    outer loop
      vertex 5.000007e-01 4.716070e+00 4.716069e+00
      vertex 5.000007e-01 -1.972320e+00 4.716069e+00
      vertex 5.000007e-01 -4.999997e-01 3.866025e+00
    endloop
  endfacet
  facet normal 1.000000e+00 0.000000e+00 0.000000e+00
    outer loop
      vertex 5.000007e-01 -4.999997e-01 2.133975e+00
      vertex 5.000007e-01 3.000001e+00 2.133975e+00
      vertex 5.000007e-01 -4.999997e-01 3.866025e+00
    endloop
  endfacet
  facet normal 1.000000e+00 0.000000e+00 0.000000e+00
    outer loop
      vertex 5.000007e-01 -4.999997e-01 3.866025e+00
      vertex 5.000007e-01 3.000001e+00 2.133975e+00
      vertex 5.000007e-01 3.000001e+00 3.000000e+00
    endloop
  endfacet
  facet normal 1.000000e+00 0.000000e+00 0.000000e+00
    outer loop
      vertex 5.000007e-01 -4.999997e-01 3.866025e+00
      vertex 5.000007e-01 3.000001e+00 3.000000e+00
      vertex 5.000007e-01 4.716070e+00 4.716069e+00
    endloop
  endfacet
  facet normal 0.000000e+00 -7.071068e-01 -7.071068e-01
    outer loop
      vertex 9.500000e+00 -7.000000e+00 6.500000e+00
      vertex 9.500000e+00 -8.000000e+00 7.500000e+00
      vertex -1.050000e+01 -7.000000e+00 6.500000e+00
    endloop
  endfacet
  facet normal 0.000000e+00 -7.071068e-01 -7.071068e-01
    outer loop
      vertex -1.050000e+01 -7.000000e+00 6.500000e+00
      vertex 9.500000e+00 -8.000000e+00 7.500000e+00
      vertex -1.050000e+01 -8.000000e+00 7.500000e+00
    endloop
  endfacet
  facet normal 0.000000e+00 -1.000000e+00 -1.334403e-16
    outer loop
      vertex 9.500000e+00 -4.999997e-01 6.000000e+00
      vertex 1.050000e+01 -4.999997e-01 7.000000e+00
      vertex 9.500000e+00 -4.999997e-01 9.500000e+00
    endloop
  endfacet
  facet normal 0.000000e+00 -1.000000e+00 -1.334403e-16
    outer loop
      vertex 9.500000e+00 -4.999997e-01 9.500000e+00
      vertex 1.050000e+01 -4.999997e-01 7.000000e+00
      vertex 1.050000e+01 -4.999997e-01 1.250000e+01
    endloop
  endfacet
  facet normal 0.000000e+00 -1.000000e+00 -1.334403e-16
    outer loop
      vertex 9.500000e+00 -4.999997e-01 9.500000e+00
      vertex 1.050000e+01 -4.999997e-01 1.250000e+01
      vertex 8.500000e+00 -4.999997e-01 9.500000e+00
    endloop
  endfacet
  facet normal 0.000000e+00 -1.000000e+00 -1.334403e-16
    outer loop
      vertex 8.500000e+00 -4.999997e-01 9.500000e+00
      vertex 1.050000e+01 -4.999997e-01 1.250000e+01
      vertex 8.500000e+00 -4.999997e-01 1.250000e+01
    endloop
  endfacet
  facet normal 0.000000e+00 0.000000e+00 1.000000e+00
    outer loop
      vertex 1.050000e+01 -4.999997e-01 1.250000e+01
      vertex 1.050000e+01 3.000001e+00 1.250000e+01
      vertex 8.500000e+00 -4.999997e-01 1.250000e+01
    endloop
  endfacet
  facet normal 0.000000e+00 0.000000e+00 1.000000e+00
    outer loop
      vertex 8.500000e+00 -4.999997e-01 1.250000e+01
      vertex 1.050000e+01 3.000001e+00 1.250000e+01
      vertex 8.500000e+00 3.000001e+00 1.250000e+01
    endloop
  endfacet
  facet normal 1.000000e+00 0.000000e+00 0.000000e+00
    outer loop
      vertex 1.050000e+01 3.000001e+00 7.000000e+00
      vertex 1.050000e+01 3.000001e+00 1.250000e+01
      vertex 1.050000e+01 -4.999997e-01 7.000000e+00
    endloop
  endfacet
  facet normal 1.000000e+00 0.000000e+00 0.000000e+00
    outer loop
      vertex 1.050000e+01 -4.999997e-01 7.000000e+00
      vertex 1.050000e+01 3.000001e+00 1.250000e+01
      vertex 1.050000e+01 -4.999997e-01 1.250000e+01
    endloop
  endfacet
  facet normal 7.071068e-01 0.000000e+00 -7.071068e-01
    outer loop
      vertex 9.500000e+00 3.000001e+00 6.000000e+00
      vertex 1.050000e+01 3.000001e+00 7.000000e+00
      vertex 9.500000e+00 -4.999997e-01 6.000000e+00
    endloop
  endfacet
  facet normal 7.071068e-01 0.000000e+00 -7.071068e-01
    outer loop
      vertex 9.500000e+00 -4.999997e-01 6.000000e+00
      vertex 1.050000e+01 3.000001e+00 7.000000e+00
      vertex 1.050000e+01 -4.999997e-01 7.000000e+00
    endloop
  endfacet
endsolid Default
