solid OpenSCAD_Model
  facet normal 1 -0 0
    outer loop
      vertex 1 1 30
      vertex 1 71 1
      vertex 1 71 30
    endloop
  endfacet
  facet normal 1 0 0
    outer loop
      vertex 1 71 1
      vertex 1 1 30
      vertex 1 1 1
    endloop
  endfacet
  facet normal -1 0 0
    outer loop
      vertex 37 1 1
      vertex 37 71 30
      vertex 37 71 1
    endloop
  endfacet
  facet normal -1 -0 0
    outer loop
      vertex 37 71 30
      vertex 37 1 1
      vertex 37 1 30
    endloop
  endfacet
  facet normal 0 0 1
    outer loop
      vertex 37 71 1
      vertex 32 66 1
      vertex 37 1 1
    endloop
  endfacet
  facet normal -0 0 1
    outer loop
      vertex 23.581 71 1
      vertex 32 66 1
      vertex 37 71 1
    endloop
  endfacet
  facet normal -0 0 1
    outer loop
      vertex 23.5761 70.9219 1
      vertex 32 66 1
      vertex 23.581 71 1
    endloop
  endfacet
  facet normal -0 0 1
    outer loop
      vertex 23.4676 70.3529 1
      vertex 32 66 1
      vertex 23.5761 70.9219 1
    endloop
  endfacet
  facet normal -0 0 1
    outer loop
      vertex 23.2886 69.802 1
      vertex 32 66 1
      vertex 23.4676 70.3529 1
    endloop
  endfacet
  facet normal -0 0 1
    outer loop
      vertex 23.042 69.2779 1
      vertex 32 66 1
      vertex 23.2886 69.802 1
    endloop
  endfacet
  facet normal -0 0 1
    outer loop
      vertex 22.7316 68.7888 1
      vertex 32 66 1
      vertex 23.042 69.2779 1
    endloop
  endfacet
  facet normal -0 0 1
    outer loop
      vertex 22.3624 68.3425 1
      vertex 32 66 1
      vertex 22.7316 68.7888 1
    endloop
  endfacet
  facet normal -0 0 1
    outer loop
      vertex 21.9401 67.946 1
      vertex 32 66 1
      vertex 22.3624 68.3425 1
    endloop
  endfacet
  facet normal -0 0 1
    outer loop
      vertex 21.4715 67.6055 1
      vertex 32 66 1
      vertex 21.9401 67.946 1
    endloop
  endfacet
  facet normal -0 0 1
    outer loop
      vertex 20.9639 67.3265 1
      vertex 32 66 1
      vertex 21.4715 67.6055 1
    endloop
  endfacet
  facet normal -0 0 1
    outer loop
      vertex 20.4253 67.1133 1
      vertex 32 66 1
      vertex 20.9639 67.3265 1
    endloop
  endfacet
  facet normal -0 0 1
    outer loop
      vertex 19.8643 66.9692 1
      vertex 32 66 1
      vertex 20.4253 67.1133 1
    endloop
  endfacet
  facet normal -0 0 1
    outer loop
      vertex 19.2896 66.8966 1
      vertex 32 66 1
      vertex 19.8643 66.9692 1
    endloop
  endfacet
  facet normal -0 0 1
    outer loop
      vertex 18.7104 66.8966 1
      vertex 32 66 1
      vertex 19.2896 66.8966 1
    endloop
  endfacet
  facet normal 0 0 1
    outer loop
      vertex 18.7104 66.8966 1
      vertex 6 66 1
      vertex 32 66 1
    endloop
  endfacet
  facet normal 0 0 1
    outer loop
      vertex 18.1357 66.9692 1
      vertex 6 66 1
      vertex 18.7104 66.8966 1
    endloop
  endfacet
  facet normal 0 0 1
    outer loop
      vertex 17.5747 67.1133 1
      vertex 6 66 1
      vertex 18.1357 66.9692 1
    endloop
  endfacet
  facet normal 0 0 1
    outer loop
      vertex 17.0361 67.3265 1
      vertex 6 66 1
      vertex 17.5747 67.1133 1
    endloop
  endfacet
  facet normal 0 0 1
    outer loop
      vertex 16.5285 67.6055 1
      vertex 6 66 1
      vertex 17.0361 67.3265 1
    endloop
  endfacet
  facet normal 0 0 1
    outer loop
      vertex 16.0599 67.946 1
      vertex 6 66 1
      vertex 16.5285 67.6055 1
    endloop
  endfacet
  facet normal 0 0 1
    outer loop
      vertex 15.6376 68.3425 1
      vertex 6 66 1
      vertex 16.0599 67.946 1
    endloop
  endfacet
  facet normal 0 0 1
    outer loop
      vertex 15.2684 68.7888 1
      vertex 6 66 1
      vertex 15.6376 68.3425 1
    endloop
  endfacet
  facet normal 0 0 1
    outer loop
      vertex 14.958 69.2779 1
      vertex 6 66 1
      vertex 15.2684 68.7888 1
    endloop
  endfacet
  facet normal 0 0 1
    outer loop
      vertex 14.7114 69.802 1
      vertex 6 66 1
      vertex 14.958 69.2779 1
    endloop
  endfacet
  facet normal 0 0 1
    outer loop
      vertex 14.5324 70.3529 1
      vertex 6 66 1
      vertex 14.7114 69.802 1
    endloop
  endfacet
  facet normal 0 0 1
    outer loop
      vertex 14.4239 70.9219 1
      vertex 6 66 1
      vertex 14.5324 70.3529 1
    endloop
  endfacet
  facet normal 0 0 1
    outer loop
      vertex 14.419 71 1
      vertex 6 66 1
      vertex 14.4239 70.9219 1
    endloop
  endfacet
  facet normal 0 0 1
    outer loop
      vertex 6 66 1
      vertex 1 71 1
      vertex 6 6 1
    endloop
  endfacet
  facet normal -0 0 1
    outer loop
      vertex 1 71 1
      vertex 6 66 1
      vertex 14.419 71 1
    endloop
  endfacet
  facet normal -0 0 1
    outer loop
      vertex 32 6 1
      vertex 37 1 1
      vertex 32 66 1
    endloop
  endfacet
  facet normal -0 0 1
    outer loop
      vertex 6 6 1
      vertex 37 1 1
      vertex 32 6 1
    endloop
  endfacet
  facet normal 0 0 1
    outer loop
      vertex 6 6 1
      vertex 1 1 1
      vertex 37 1 1
    endloop
  endfacet
  facet normal 0 0 1
    outer loop
      vertex 1 1 1
      vertex 6 6 1
      vertex 1 71 1
    endloop
  endfacet
  facet normal 0 1 -0
    outer loop
      vertex 37 1 1
      vertex 1 1 30
      vertex 37 1 30
    endloop
  endfacet
  facet normal 0 1 0
    outer loop
      vertex 1 1 30
      vertex 37 1 1
      vertex 1 1 1
    endloop
  endfacet
  facet normal 0 -1 0
    outer loop
      vertex 1 71 1
      vertex 14.419 71 30
      vertex 1 71 30
    endloop
  endfacet
  facet normal 0 -1 -0
    outer loop
      vertex 14.419 71 30
      vertex 1 71 1
      vertex 14.419 71 1
    endloop
  endfacet
  facet normal 0 -1 0
    outer loop
      vertex 23.581 71 1
      vertex 37 71 30
      vertex 23.581 71 30
    endloop
  endfacet
  facet normal 0 -1 -0
    outer loop
      vertex 37 71 30
      vertex 23.581 71 1
      vertex 37 71 1
    endloop
  endfacet
  facet normal 1 -0 0
    outer loop
      vertex 6 6 1
      vertex 6 66 0
      vertex 6 66 1
    endloop
  endfacet
  facet normal 1 0 0
    outer loop
      vertex 6 66 0
      vertex 6 6 1
      vertex 6 6 0
    endloop
  endfacet
  facet normal -1 0 0
    outer loop
      vertex 32 6 0
      vertex 32 66 1
      vertex 32 66 0
    endloop
  endfacet
  facet normal -1 -0 0
    outer loop
      vertex 32 66 1
      vertex 32 6 0
      vertex 32 6 1
    endloop
  endfacet
  facet normal 0 0 -1
    outer loop
      vertex 32 66 0
      vertex 22.075 71.5 0
      vertex 32 77 0
    endloop
  endfacet
  facet normal 0 0 -1
    outer loop
      vertex 32 66 0
      vertex 22.0508 71.1146 0
      vertex 22.075 71.5 0
    endloop
  endfacet
  facet normal 0 0 -1
    outer loop
      vertex 32 66 0
      vertex 21.9784 70.7353 0
      vertex 22.0508 71.1146 0
    endloop
  endfacet
  facet normal 0 0 -1
    outer loop
      vertex 32 66 0
      vertex 21.8591 70.368 0
      vertex 21.9784 70.7353 0
    endloop
  endfacet
  facet normal 0 0 -1
    outer loop
      vertex 32 66 0
      vertex 21.6946 70.0186 0
      vertex 21.8591 70.368 0
    endloop
  endfacet
  facet normal 0 0 -1
    outer loop
      vertex 32 66 0
      vertex 21.4877 69.6926 0
      vertex 21.6946 70.0186 0
    endloop
  endfacet
  facet normal 0 0 -1
    outer loop
      vertex 32 66 0
      vertex 21.2416 69.395 0
      vertex 21.4877 69.6926 0
    endloop
  endfacet
  facet normal 0 0 -1
    outer loop
      vertex 32 66 0
      vertex 20.9601 69.1307 0
      vertex 21.2416 69.395 0
    endloop
  endfacet
  facet normal 0 0 -1
    outer loop
      vertex 32 66 0
      vertex 20.6477 68.9037 0
      vertex 20.9601 69.1307 0
    endloop
  endfacet
  facet normal 0 0 -1
    outer loop
      vertex 32 66 0
      vertex 20.3093 68.7177 0
      vertex 20.6477 68.9037 0
    endloop
  endfacet
  facet normal 0 0 -1
    outer loop
      vertex 32 66 0
      vertex 19.9502 68.5755 0
      vertex 20.3093 68.7177 0
    endloop
  endfacet
  facet normal 0 0 -1
    outer loop
      vertex 32 66 0
      vertex 19.5762 68.4795 0
      vertex 19.9502 68.5755 0
    endloop
  endfacet
  facet normal 0 0 -1
    outer loop
      vertex 32 66 0
      vertex 19.1931 68.4311 0
      vertex 19.5762 68.4795 0
    endloop
  endfacet
  facet normal 0 0 -1
    outer loop
      vertex 32 66 0
      vertex 18.8069 68.4311 0
      vertex 19.1931 68.4311 0
    endloop
  endfacet
  facet normal 0 0 -1
    outer loop
      vertex 6 66 0
      vertex 18.8069 68.4311 0
      vertex 32 66 0
    endloop
  endfacet
  facet normal -0 0 -1
    outer loop
      vertex 15.9492 71.1146 0
      vertex 6 66 0
      vertex 15.925 71.5 0
    endloop
  endfacet
  facet normal -0 0 -1
    outer loop
      vertex 16.0216 70.7353 0
      vertex 6 66 0
      vertex 15.9492 71.1146 0
    endloop
  endfacet
  facet normal -0 0 -1
    outer loop
      vertex 16.1409 70.368 0
      vertex 6 66 0
      vertex 16.0216 70.7353 0
    endloop
  endfacet
  facet normal -0 0 -1
    outer loop
      vertex 16.3054 70.0186 0
      vertex 6 66 0
      vertex 16.1409 70.368 0
    endloop
  endfacet
  facet normal -0 0 -1
    outer loop
      vertex 16.5123 69.6926 0
      vertex 6 66 0
      vertex 16.3054 70.0186 0
    endloop
  endfacet
  facet normal -0 0 -1
    outer loop
      vertex 16.7584 69.395 0
      vertex 6 66 0
      vertex 16.5123 69.6926 0
    endloop
  endfacet
  facet normal -0 0 -1
    outer loop
      vertex 17.0399 69.1307 0
      vertex 6 66 0
      vertex 16.7584 69.395 0
    endloop
  endfacet
  facet normal -0 0 -1
    outer loop
      vertex 17.3523 68.9037 0
      vertex 6 66 0
      vertex 17.0399 69.1307 0
    endloop
  endfacet
  facet normal -0 0 -1
    outer loop
      vertex 17.6907 68.7177 0
      vertex 6 66 0
      vertex 17.3523 68.9037 0
    endloop
  endfacet
  facet normal -0 0 -1
    outer loop
      vertex 18.0498 68.5755 0
      vertex 6 66 0
      vertex 17.6907 68.7177 0
    endloop
  endfacet
  facet normal -0 0 -1
    outer loop
      vertex 18.4238 68.4795 0
      vertex 6 66 0
      vertex 18.0498 68.5755 0
    endloop
  endfacet
  facet normal -0 0 -1
    outer loop
      vertex 18.8069 68.4311 0
      vertex 6 66 0
      vertex 18.4238 68.4795 0
    endloop
  endfacet
  facet normal 0 0 -1
    outer loop
      vertex 32 66 0
      vertex 38 0 0
      vertex 32 6 0
    endloop
  endfacet
  facet normal 0 0 -1
    outer loop
      vertex 38 0 0
      vertex 6 6 0
      vertex 32 6 0
    endloop
  endfacet
  facet normal 0 0 -1
    outer loop
      vertex 0 0 0
      vertex 6 66 0
      vertex 6 6 0
    endloop
  endfacet
  facet normal -0 0 -1
    outer loop
      vertex 6 66 0
      vertex 0 0 0
      vertex 6 77 0
    endloop
  endfacet
  facet normal 0 0 -1
    outer loop
      vertex 0 143 0
      vertex 6 77 0
      vertex 0 0 0
    endloop
  endfacet
  facet normal 0 0 -1
    outer loop
      vertex 0 0 0
      vertex 6 6 0
      vertex 38 0 0
    endloop
  endfacet
  facet normal 0 0 -1
    outer loop
      vertex 38 0 0
      vertex 32 66 0
      vertex 38 143 0
    endloop
  endfacet
  facet normal 0 0 -1
    outer loop
      vertex 32 77 0
      vertex 38 143 0
      vertex 32 66 0
    endloop
  endfacet
  facet normal 0 0 -1
    outer loop
      vertex 32 137 0
      vertex 38 143 0
      vertex 32 77 0
    endloop
  endfacet
  facet normal 0 0 -1
    outer loop
      vertex 6 137 0
      vertex 38 143 0
      vertex 32 137 0
    endloop
  endfacet
  facet normal 0 0 -1
    outer loop
      vertex 6 137 0
      vertex 0 143 0
      vertex 38 143 0
    endloop
  endfacet
  facet normal 0 0 -1
    outer loop
      vertex 6 77 0
      vertex 0 143 0
      vertex 6 137 0
    endloop
  endfacet
  facet normal 0 0 -1
    outer loop
      vertex 22.0508 71.8854 0
      vertex 32 77 0
      vertex 22.075 71.5 0
    endloop
  endfacet
  facet normal 0 0 -1
    outer loop
      vertex 21.9784 72.2647 0
      vertex 32 77 0
      vertex 22.0508 71.8854 0
    endloop
  endfacet
  facet normal 0 0 -1
    outer loop
      vertex 21.8591 72.632 0
      vertex 32 77 0
      vertex 21.9784 72.2647 0
    endloop
  endfacet
  facet normal 0 0 -1
    outer loop
      vertex 21.6946 72.9814 0
      vertex 32 77 0
      vertex 21.8591 72.632 0
    endloop
  endfacet
  facet normal 0 0 -1
    outer loop
      vertex 21.4877 73.3074 0
      vertex 32 77 0
      vertex 21.6946 72.9814 0
    endloop
  endfacet
  facet normal 0 0 -1
    outer loop
      vertex 21.2416 73.605 0
      vertex 32 77 0
      vertex 21.4877 73.3074 0
    endloop
  endfacet
  facet normal 0 0 -1
    outer loop
      vertex 20.9601 73.8693 0
      vertex 32 77 0
      vertex 21.2416 73.605 0
    endloop
  endfacet
  facet normal 0 0 -1
    outer loop
      vertex 20.6477 74.0963 0
      vertex 32 77 0
      vertex 20.9601 73.8693 0
    endloop
  endfacet
  facet normal 0 0 -1
    outer loop
      vertex 20.3093 74.2823 0
      vertex 32 77 0
      vertex 20.6477 74.0963 0
    endloop
  endfacet
  facet normal 0 0 -1
    outer loop
      vertex 19.9502 74.4245 0
      vertex 32 77 0
      vertex 20.3093 74.2823 0
    endloop
  endfacet
  facet normal 0 0 -1
    outer loop
      vertex 19.5762 74.5205 0
      vertex 32 77 0
      vertex 19.9502 74.4245 0
    endloop
  endfacet
  facet normal 0 0 -1
    outer loop
      vertex 19.1931 74.5689 0
      vertex 32 77 0
      vertex 19.5762 74.5205 0
    endloop
  endfacet
  facet normal 0 0 -1
    outer loop
      vertex 18.8069 74.5689 0
      vertex 32 77 0
      vertex 19.1931 74.5689 0
    endloop
  endfacet
  facet normal 0 0 -1
    outer loop
      vertex 6 77 0
      vertex 18.8069 74.5689 0
      vertex 18.4238 74.5205 0
    endloop
  endfacet
  facet normal 0 0 -1
    outer loop
      vertex 6 77 0
      vertex 15.925 71.5 0
      vertex 6 66 0
    endloop
  endfacet
  facet normal 0 0 -1
    outer loop
      vertex 15.925 71.5 0
      vertex 6 77 0
      vertex 15.9492 71.8854 0
    endloop
  endfacet
  facet normal 0 0 -1
    outer loop
      vertex 15.9492 71.8854 0
      vertex 6 77 0
      vertex 16.0216 72.2647 0
    endloop
  endfacet
  facet normal 0 0 -1
    outer loop
      vertex 16.0216 72.2647 0
      vertex 6 77 0
      vertex 16.1409 72.632 0
    endloop
  endfacet
  facet normal 0 0 -1
    outer loop
      vertex 16.1409 72.632 0
      vertex 6 77 0
      vertex 16.3054 72.9814 0
    endloop
  endfacet
  facet normal 0 0 -1
    outer loop
      vertex 16.3054 72.9814 0
      vertex 6 77 0
      vertex 16.5123 73.3074 0
    endloop
  endfacet
  facet normal 0 0 -1
    outer loop
      vertex 16.5123 73.3074 0
      vertex 6 77 0
      vertex 16.7584 73.605 0
    endloop
  endfacet
  facet normal 0 0 -1
    outer loop
      vertex 16.7584 73.605 0
      vertex 6 77 0
      vertex 17.0399 73.8693 0
    endloop
  endfacet
  facet normal 0 0 -1
    outer loop
      vertex 18.8069 74.5689 0
      vertex 6 77 0
      vertex 32 77 0
    endloop
  endfacet
  facet normal 0 0 -1
    outer loop
      vertex 18.0498 74.4245 0
      vertex 6 77 0
      vertex 18.4238 74.5205 0
    endloop
  endfacet
  facet normal 0 0 -1
    outer loop
      vertex 17.6907 74.2823 0
      vertex 6 77 0
      vertex 18.0498 74.4245 0
    endloop
  endfacet
  facet normal 0 0 -1
    outer loop
      vertex 17.3523 74.0963 0
      vertex 6 77 0
      vertex 17.6907 74.2823 0
    endloop
  endfacet
  facet normal 0 0 -1
    outer loop
      vertex 17.0399 73.8693 0
      vertex 6 77 0
      vertex 17.3523 74.0963 0
    endloop
  endfacet
  facet normal 0 1 -0
    outer loop
      vertex 32 6 0
      vertex 6 6 1
      vertex 32 6 1
    endloop
  endfacet
  facet normal 0 1 0
    outer loop
      vertex 6 6 1
      vertex 32 6 0
      vertex 6 6 0
    endloop
  endfacet
  facet normal 0 -1 0
    outer loop
      vertex 6 66 0
      vertex 32 66 1
      vertex 6 66 1
    endloop
  endfacet
  facet normal 0 -1 -0
    outer loop
      vertex 32 66 1
      vertex 6 66 0
      vertex 32 66 0
    endloop
  endfacet
  facet normal 1 -0 0
    outer loop
      vertex 1 72 30
      vertex 1 142 1
      vertex 1 142 30
    endloop
  endfacet
  facet normal 1 0 0
    outer loop
      vertex 1 142 1
      vertex 1 72 30
      vertex 1 72 1
    endloop
  endfacet
  facet normal -1 0 0
    outer loop
      vertex 37 72 1
      vertex 37 142 30
      vertex 37 142 1
    endloop
  endfacet
  facet normal -1 -0 0
    outer loop
      vertex 37 142 30
      vertex 37 72 1
      vertex 37 72 30
    endloop
  endfacet
  facet normal 0 -1 0
    outer loop
      vertex 1 142 1
      vertex 37 142 30
      vertex 1 142 30
    endloop
  endfacet
  facet normal 0 -1 -0
    outer loop
      vertex 37 142 30
      vertex 1 142 1
      vertex 37 142 1
    endloop
  endfacet
  facet normal 0 0 1
    outer loop
      vertex 37 142 1
      vertex 32 137 1
      vertex 37 72 1
    endloop
  endfacet
  facet normal 0 0 1
    outer loop
      vertex 37 142 1
      vertex 6 137 1
      vertex 32 137 1
    endloop
  endfacet
  facet normal 0 0 1
    outer loop
      vertex 6 137 1
      vertex 1 142 1
      vertex 6 77 1
    endloop
  endfacet
  facet normal -0 0 1
    outer loop
      vertex 1 142 1
      vertex 6 137 1
      vertex 37 142 1
    endloop
  endfacet
  facet normal -0 0 1
    outer loop
      vertex 32 77 1
      vertex 37 72 1
      vertex 32 137 1
    endloop
  endfacet
  facet normal 0 0 1
    outer loop
      vertex 32 77 1
      vertex 23.581 72 1
      vertex 37 72 1
    endloop
  endfacet
  facet normal 0 0 1
    outer loop
      vertex 32 77 1
      vertex 23.5761 72.0781 1
      vertex 23.581 72 1
    endloop
  endfacet
  facet normal 0 0 1
    outer loop
      vertex 32 77 1
      vertex 23.4676 72.6471 1
      vertex 23.5761 72.0781 1
    endloop
  endfacet
  facet normal 0 0 1
    outer loop
      vertex 32 77 1
      vertex 23.2886 73.198 1
      vertex 23.4676 72.6471 1
    endloop
  endfacet
  facet normal 0 0 1
    outer loop
      vertex 32 77 1
      vertex 23.042 73.7221 1
      vertex 23.2886 73.198 1
    endloop
  endfacet
  facet normal 0 0 1
    outer loop
      vertex 32 77 1
      vertex 22.7316 74.2112 1
      vertex 23.042 73.7221 1
    endloop
  endfacet
  facet normal 0 0 1
    outer loop
      vertex 32 77 1
      vertex 22.3624 74.6575 1
      vertex 22.7316 74.2112 1
    endloop
  endfacet
  facet normal 0 0 1
    outer loop
      vertex 32 77 1
      vertex 21.9401 75.054 1
      vertex 22.3624 74.6575 1
    endloop
  endfacet
  facet normal 0 0 1
    outer loop
      vertex 32 77 1
      vertex 21.4715 75.3945 1
      vertex 21.9401 75.054 1
    endloop
  endfacet
  facet normal 0 0 1
    outer loop
      vertex 32 77 1
      vertex 20.9639 75.6735 1
      vertex 21.4715 75.3945 1
    endloop
  endfacet
  facet normal 0 0 1
    outer loop
      vertex 32 77 1
      vertex 20.4253 75.8867 1
      vertex 20.9639 75.6735 1
    endloop
  endfacet
  facet normal 0 0 1
    outer loop
      vertex 32 77 1
      vertex 19.8643 76.0308 1
      vertex 20.4253 75.8867 1
    endloop
  endfacet
  facet normal 0 0 1
    outer loop
      vertex 32 77 1
      vertex 19.2896 76.1034 1
      vertex 19.8643 76.0308 1
    endloop
  endfacet
  facet normal 0 0 1
    outer loop
      vertex 32 77 1
      vertex 18.7104 76.1034 1
      vertex 19.2896 76.1034 1
    endloop
  endfacet
  facet normal -0 0 1
    outer loop
      vertex 6 77 1
      vertex 18.7104 76.1034 1
      vertex 32 77 1
    endloop
  endfacet
  facet normal 0 0 1
    outer loop
      vertex 6 77 1
      vertex 18.1357 76.0308 1
      vertex 18.7104 76.1034 1
    endloop
  endfacet
  facet normal 0 0 1
    outer loop
      vertex 6 77 1
      vertex 17.5747 75.8867 1
      vertex 18.1357 76.0308 1
    endloop
  endfacet
  facet normal 0 0 1
    outer loop
      vertex 6 77 1
      vertex 17.0361 75.6735 1
      vertex 17.5747 75.8867 1
    endloop
  endfacet
  facet normal 0 0 1
    outer loop
      vertex 6 77 1
      vertex 16.5285 75.3945 1
      vertex 17.0361 75.6735 1
    endloop
  endfacet
  facet normal 0 0 1
    outer loop
      vertex 6 77 1
      vertex 16.0599 75.054 1
      vertex 16.5285 75.3945 1
    endloop
  endfacet
  facet normal 0 0 1
    outer loop
      vertex 6 77 1
      vertex 15.6376 74.6575 1
      vertex 16.0599 75.054 1
    endloop
  endfacet
  facet normal 0 0 1
    outer loop
      vertex 6 77 1
      vertex 15.2684 74.2112 1
      vertex 15.6376 74.6575 1
    endloop
  endfacet
  facet normal 0 0 1
    outer loop
      vertex 6 77 1
      vertex 14.958 73.7221 1
      vertex 15.2684 74.2112 1
    endloop
  endfacet
  facet normal 0 0 1
    outer loop
      vertex 6 77 1
      vertex 14.7114 73.198 1
      vertex 14.958 73.7221 1
    endloop
  endfacet
  facet normal 0 0 1
    outer loop
      vertex 6 77 1
      vertex 14.5324 72.6471 1
      vertex 14.7114 73.198 1
    endloop
  endfacet
  facet normal 0 0 1
    outer loop
      vertex 6 77 1
      vertex 14.4239 72.0781 1
      vertex 14.5324 72.6471 1
    endloop
  endfacet
  facet normal 0 0 1
    outer loop
      vertex 6 77 1
      vertex 14.419 72 1
      vertex 14.4239 72.0781 1
    endloop
  endfacet
  facet normal 0 0 1
    outer loop
      vertex 6 77 1
      vertex 1 72 1
      vertex 14.419 72 1
    endloop
  endfacet
  facet normal 0 0 1
    outer loop
      vertex 1 72 1
      vertex 6 77 1
      vertex 1 142 1
    endloop
  endfacet
  facet normal 0 1 -0
    outer loop
      vertex 14.419 72 1
      vertex 1 72 30
      vertex 14.419 72 30
    endloop
  endfacet
  facet normal 0 1 0
    outer loop
      vertex 1 72 30
      vertex 14.419 72 1
      vertex 1 72 1
    endloop
  endfacet
  facet normal 0 1 -0
    outer loop
      vertex 37 72 1
      vertex 23.581 72 30
      vertex 37 72 30
    endloop
  endfacet
  facet normal 0 1 0
    outer loop
      vertex 23.581 72 30
      vertex 37 72 1
      vertex 23.581 72 1
    endloop
  endfacet
  facet normal 1 -0 0
    outer loop
      vertex 6 77 1
      vertex 6 137 0
      vertex 6 137 1
    endloop
  endfacet
  facet normal 1 0 0
    outer loop
      vertex 6 137 0
      vertex 6 77 1
      vertex 6 77 0
    endloop
  endfacet
  facet normal -1 0 0
    outer loop
      vertex 32 77 0
      vertex 32 137 1
      vertex 32 137 0
    endloop
  endfacet
  facet normal -1 -0 0
    outer loop
      vertex 32 137 1
      vertex 32 77 0
      vertex 32 77 1
    endloop
  endfacet
  facet normal 0 -1 0
    outer loop
      vertex 6 137 0
      vertex 32 137 1
      vertex 6 137 1
    endloop
  endfacet
  facet normal 0 -1 -0
    outer loop
      vertex 32 137 1
      vertex 6 137 0
      vertex 32 137 0
    endloop
  endfacet
  facet normal 0 1 -0
    outer loop
      vertex 32 77 0
      vertex 6 77 1
      vertex 32 77 1
    endloop
  endfacet
  facet normal 0 1 0
    outer loop
      vertex 6 77 1
      vertex 32 77 0
      vertex 6 77 0
    endloop
  endfacet
  facet normal -1 0 0
    outer loop
      vertex 0 0 0
      vertex 0 143 30
      vertex 0 143 0
    endloop
  endfacet
  facet normal -1 -0 0
    outer loop
      vertex 0 143 30
      vertex 0 0 0
      vertex 0 0 30
    endloop
  endfacet
  facet normal -0 0 1
    outer loop
      vertex 23.581 72 30
      vertex 37 71 30
      vertex 37 72 30
    endloop
  endfacet
  facet normal 0 0 1
    outer loop
      vertex 23.581 72 30
      vertex 23.581 71 30
      vertex 37 71 30
    endloop
  endfacet
  facet normal 0 0 1
    outer loop
      vertex 22.0508 71.8854 30
      vertex 23.581 72 30
      vertex 23.5761 72.0781 30
    endloop
  endfacet
  facet normal 0 0 1
    outer loop
      vertex 23.581 72 30
      vertex 22.075 71.5 30
      vertex 23.581 71 30
    endloop
  endfacet
  facet normal 0 0 1
    outer loop
      vertex 22.0508 71.8854 30
      vertex 23.5761 72.0781 30
      vertex 23.4676 72.6471 30
    endloop
  endfacet
  facet normal -0 0 1
    outer loop
      vertex 22.0508 71.1146 30
      vertex 23.581 71 30
      vertex 22.075 71.5 30
    endloop
  endfacet
  facet normal 0 0 1
    outer loop
      vertex 21.9784 72.2647 30
      vertex 23.4676 72.6471 30
      vertex 23.2886 73.198 30
    endloop
  endfacet
  facet normal 0 0 1
    outer loop
      vertex 23.581 71 30
      vertex 22.0508 71.1146 30
      vertex 23.5761 70.9219 30
    endloop
  endfacet
  facet normal 0 0 1
    outer loop
      vertex 21.8591 72.632 30
      vertex 23.2886 73.198 30
      vertex 23.042 73.7221 30
    endloop
  endfacet
  facet normal 0 0 1
    outer loop
      vertex 23.5761 70.9219 30
      vertex 22.0508 71.1146 30
      vertex 23.4676 70.3529 30
    endloop
  endfacet
  facet normal 0 0 1
    outer loop
      vertex 21.6946 72.9814 30
      vertex 23.042 73.7221 30
      vertex 22.7316 74.2112 30
    endloop
  endfacet
  facet normal -0 0 1
    outer loop
      vertex 21.9784 70.7353 30
      vertex 23.4676 70.3529 30
      vertex 22.0508 71.1146 30
    endloop
  endfacet
  facet normal 0 0 1
    outer loop
      vertex 21.4877 73.3074 30
      vertex 22.7316 74.2112 30
      vertex 22.3624 74.6575 30
    endloop
  endfacet
  facet normal 0 0 1
    outer loop
      vertex 23.4676 70.3529 30
      vertex 21.9784 70.7353 30
      vertex 23.2886 69.802 30
    endloop
  endfacet
  facet normal -0 0 1
    outer loop
      vertex 21.8591 70.368 30
      vertex 23.2886 69.802 30
      vertex 21.9784 70.7353 30
    endloop
  endfacet
  facet normal 0 0 1
    outer loop
      vertex 23.581 72 30
      vertex 22.0508 71.8854 30
      vertex 22.075 71.5 30
    endloop
  endfacet
  facet normal 0 0 1
    outer loop
      vertex 23.4676 72.6471 30
      vertex 21.9784 72.2647 30
      vertex 22.0508 71.8854 30
    endloop
  endfacet
  facet normal 0 0 1
    outer loop
      vertex 21.2416 73.605 30
      vertex 22.3624 74.6575 30
      vertex 21.9401 75.054 30
    endloop
  endfacet
  facet normal 0 0 1
    outer loop
      vertex 23.2886 73.198 30
      vertex 21.8591 72.632 30
      vertex 21.9784 72.2647 30
    endloop
  endfacet
  facet normal 0 0 1
    outer loop
      vertex 23.042 73.7221 30
      vertex 21.6946 72.9814 30
      vertex 21.8591 72.632 30
    endloop
  endfacet
  facet normal 0 0 1
    outer loop
      vertex 22.7316 74.2112 30
      vertex 21.4877 73.3074 30
      vertex 21.6946 72.9814 30
    endloop
  endfacet
  facet normal 0 0 1
    outer loop
      vertex 20.9601 73.8693 30
      vertex 21.9401 75.054 30
      vertex 21.4715 75.3945 30
    endloop
  endfacet
  facet normal 0 0 1
    outer loop
      vertex 22.3624 74.6575 30
      vertex 21.2416 73.605 30
      vertex 21.4877 73.3074 30
    endloop
  endfacet
  facet normal 0 0 1
    outer loop
      vertex 20.6477 74.0963 30
      vertex 21.4715 75.3945 30
      vertex 20.9639 75.6735 30
    endloop
  endfacet
  facet normal 0 0 1
    outer loop
      vertex 21.9401 75.054 30
      vertex 20.9601 73.8693 30
      vertex 21.2416 73.605 30
    endloop
  endfacet
  facet normal 0 0 1
    outer loop
      vertex 21.4715 75.3945 30
      vertex 20.6477 74.0963 30
      vertex 20.9601 73.8693 30
    endloop
  endfacet
  facet normal 0 0 1
    outer loop
      vertex 20.3093 74.2823 30
      vertex 20.9639 75.6735 30
      vertex 20.4253 75.8867 30
    endloop
  endfacet
  facet normal 0 0 1
    outer loop
      vertex 20.9639 75.6735 30
      vertex 20.3093 74.2823 30
      vertex 20.6477 74.0963 30
    endloop
  endfacet
  facet normal 0 0 1
    outer loop
      vertex 20.4253 75.8867 30
      vertex 19.9502 74.4245 30
      vertex 20.3093 74.2823 30
    endloop
  endfacet
  facet normal 0 0 1
    outer loop
      vertex 19.8643 76.0308 30
      vertex 19.9502 74.4245 30
      vertex 20.4253 75.8867 30
    endloop
  endfacet
  facet normal 0 0 1
    outer loop
      vertex 19.8643 76.0308 30
      vertex 19.5762 74.5205 30
      vertex 19.9502 74.4245 30
    endloop
  endfacet
  facet normal 0 0 1
    outer loop
      vertex 19.2896 76.1034 30
      vertex 19.5762 74.5205 30
      vertex 19.8643 76.0308 30
    endloop
  endfacet
  facet normal 0 0 1
    outer loop
      vertex 19.2896 76.1034 30
      vertex 19.1931 74.5689 30
      vertex 19.5762 74.5205 30
    endloop
  endfacet
  facet normal 0 0 1
    outer loop
      vertex 19.2896 76.1034 30
      vertex 18.8069 74.5689 30
      vertex 19.1931 74.5689 30
    endloop
  endfacet
  facet normal -0 0 1
    outer loop
      vertex 18.7104 76.1034 30
      vertex 18.8069 74.5689 30
      vertex 19.2896 76.1034 30
    endloop
  endfacet
  facet normal 0 0 1
    outer loop
      vertex 18.7104 76.1034 30
      vertex 18.4238 74.5205 30
      vertex 18.8069 74.5689 30
    endloop
  endfacet
  facet normal -0 0 1
    outer loop
      vertex 18.1357 76.0308 30
      vertex 18.4238 74.5205 30
      vertex 18.7104 76.1034 30
    endloop
  endfacet
  facet normal 0 0 1
    outer loop
      vertex 18.1357 76.0308 30
      vertex 18.0498 74.4245 30
      vertex 18.4238 74.5205 30
    endloop
  endfacet
  facet normal -0 0 1
    outer loop
      vertex 17.5747 75.8867 30
      vertex 18.0498 74.4245 30
      vertex 18.1357 76.0308 30
    endloop
  endfacet
  facet normal 0 0 1
    outer loop
      vertex 18.0498 74.4245 30
      vertex 17.5747 75.8867 30
      vertex 17.6907 74.2823 30
    endloop
  endfacet
  facet normal -0 0 1
    outer loop
      vertex 17.0361 75.6735 30
      vertex 17.6907 74.2823 30
      vertex 17.5747 75.8867 30
    endloop
  endfacet
  facet normal 0 0 1
    outer loop
      vertex 17.6907 74.2823 30
      vertex 17.0361 75.6735 30
      vertex 17.3523 74.0963 30
    endloop
  endfacet
  facet normal -0 0 1
    outer loop
      vertex 16.5285 75.3945 30
      vertex 17.3523 74.0963 30
      vertex 17.0361 75.6735 30
    endloop
  endfacet
  facet normal 0 0 1
    outer loop
      vertex 17.3523 74.0963 30
      vertex 16.5285 75.3945 30
      vertex 17.0399 73.8693 30
    endloop
  endfacet
  facet normal -0 0 1
    outer loop
      vertex 16.0599 75.054 30
      vertex 17.0399 73.8693 30
      vertex 16.5285 75.3945 30
    endloop
  endfacet
  facet normal 0 0 1
    outer loop
      vertex 17.0399 73.8693 30
      vertex 16.0599 75.054 30
      vertex 16.7584 73.605 30
    endloop
  endfacet
  facet normal -0 0 1
    outer loop
      vertex 15.6376 74.6575 30
      vertex 16.7584 73.605 30
      vertex 16.0599 75.054 30
    endloop
  endfacet
  facet normal 0 0 1
    outer loop
      vertex 16.7584 73.605 30
      vertex 15.6376 74.6575 30
      vertex 16.5123 73.3074 30
    endloop
  endfacet
  facet normal -0 0 1
    outer loop
      vertex 15.2684 74.2112 30
      vertex 16.5123 73.3074 30
      vertex 15.6376 74.6575 30
    endloop
  endfacet
  facet normal 0 0 1
    outer loop
      vertex 16.5123 73.3074 30
      vertex 15.2684 74.2112 30
      vertex 16.3054 72.9814 30
    endloop
  endfacet
  facet normal -0 0 1
    outer loop
      vertex 14.958 73.7221 30
      vertex 16.3054 72.9814 30
      vertex 15.2684 74.2112 30
    endloop
  endfacet
  facet normal 0 0 1
    outer loop
      vertex 16.3054 72.9814 30
      vertex 14.958 73.7221 30
      vertex 16.1409 72.632 30
    endloop
  endfacet
  facet normal -0 0 1
    outer loop
      vertex 14.7114 73.198 30
      vertex 16.1409 72.632 30
      vertex 14.958 73.7221 30
    endloop
  endfacet
  facet normal 0 0 1
    outer loop
      vertex 37 72 30
      vertex 38 143 30
      vertex 37 142 30
    endloop
  endfacet
  facet normal 0 0 1
    outer loop
      vertex 38 143 30
      vertex 1 142 30
      vertex 37 142 30
    endloop
  endfacet
  facet normal 0 0 1
    outer loop
      vertex 0 143 30
      vertex 1 72 30
      vertex 1 142 30
    endloop
  endfacet
  facet normal 0 0 1
    outer loop
      vertex 1 72 30
      vertex 0 143 30
      vertex 1 71 30
    endloop
  endfacet
  facet normal 0 0 1
    outer loop
      vertex 0 0 30
      vertex 1 71 30
      vertex 0 143 30
    endloop
  endfacet
  facet normal -0 0 1
    outer loop
      vertex 0 143 30
      vertex 1 142 30
      vertex 38 143 30
    endloop
  endfacet
  facet normal 0 0 1
    outer loop
      vertex 38 143 30
      vertex 37 72 30
      vertex 38 0 30
    endloop
  endfacet
  facet normal -0 0 1
    outer loop
      vertex 37 71 30
      vertex 38 0 30
      vertex 37 72 30
    endloop
  endfacet
  facet normal -0 0 1
    outer loop
      vertex 37 1 30
      vertex 38 0 30
      vertex 37 71 30
    endloop
  endfacet
  facet normal -0 0 1
    outer loop
      vertex 1 1 30
      vertex 38 0 30
      vertex 37 1 30
    endloop
  endfacet
  facet normal 0 0 1
    outer loop
      vertex 1 1 30
      vertex 0 0 30
      vertex 38 0 30
    endloop
  endfacet
  facet normal 0 0 1
    outer loop
      vertex 1 71 30
      vertex 0 0 30
      vertex 1 1 30
    endloop
  endfacet
  facet normal 0 0 1
    outer loop
      vertex 23.2886 69.802 30
      vertex 21.8591 70.368 30
      vertex 23.042 69.2779 30
    endloop
  endfacet
  facet normal -0 0 1
    outer loop
      vertex 21.6946 70.0186 30
      vertex 23.042 69.2779 30
      vertex 21.8591 70.368 30
    endloop
  endfacet
  facet normal 0 0 1
    outer loop
      vertex 23.042 69.2779 30
      vertex 21.6946 70.0186 30
      vertex 22.7316 68.7888 30
    endloop
  endfacet
  facet normal -0 0 1
    outer loop
      vertex 21.4877 69.6926 30
      vertex 22.7316 68.7888 30
      vertex 21.6946 70.0186 30
    endloop
  endfacet
  facet normal 0 0 1
    outer loop
      vertex 22.7316 68.7888 30
      vertex 21.4877 69.6926 30
      vertex 22.3624 68.3425 30
    endloop
  endfacet
  facet normal -0 0 1
    outer loop
      vertex 21.2416 69.395 30
      vertex 22.3624 68.3425 30
      vertex 21.4877 69.6926 30
    endloop
  endfacet
  facet normal 0 0 1
    outer loop
      vertex 22.3624 68.3425 30
      vertex 21.2416 69.395 30
      vertex 21.9401 67.946 30
    endloop
  endfacet
  facet normal -0 0 1
    outer loop
      vertex 20.9601 69.1307 30
      vertex 21.9401 67.946 30
      vertex 21.2416 69.395 30
    endloop
  endfacet
  facet normal 0 0 1
    outer loop
      vertex 21.9401 67.946 30
      vertex 20.9601 69.1307 30
      vertex 21.4715 67.6055 30
    endloop
  endfacet
  facet normal -0 0 1
    outer loop
      vertex 20.6477 68.9037 30
      vertex 21.4715 67.6055 30
      vertex 20.9601 69.1307 30
    endloop
  endfacet
  facet normal 0 0 1
    outer loop
      vertex 21.4715 67.6055 30
      vertex 20.6477 68.9037 30
      vertex 20.9639 67.3265 30
    endloop
  endfacet
  facet normal -0 0 1
    outer loop
      vertex 20.3093 68.7177 30
      vertex 20.9639 67.3265 30
      vertex 20.6477 68.9037 30
    endloop
  endfacet
  facet normal 0 0 1
    outer loop
      vertex 20.9639 67.3265 30
      vertex 20.3093 68.7177 30
      vertex 20.4253 67.1133 30
    endloop
  endfacet
  facet normal -0 0 1
    outer loop
      vertex 19.9502 68.5755 30
      vertex 20.4253 67.1133 30
      vertex 20.3093 68.7177 30
    endloop
  endfacet
  facet normal 0 0 1
    outer loop
      vertex 19.9502 68.5755 30
      vertex 19.8643 66.9692 30
      vertex 20.4253 67.1133 30
    endloop
  endfacet
  facet normal -0 0 1
    outer loop
      vertex 19.5762 68.4795 30
      vertex 19.8643 66.9692 30
      vertex 19.9502 68.5755 30
    endloop
  endfacet
  facet normal 0 0 1
    outer loop
      vertex 19.5762 68.4795 30
      vertex 19.2896 66.8966 30
      vertex 19.8643 66.9692 30
    endloop
  endfacet
  facet normal -0 0 1
    outer loop
      vertex 19.1931 68.4311 30
      vertex 19.2896 66.8966 30
      vertex 19.5762 68.4795 30
    endloop
  endfacet
  facet normal -0 0 1
    outer loop
      vertex 18.8069 68.4311 30
      vertex 19.2896 66.8966 30
      vertex 19.1931 68.4311 30
    endloop
  endfacet
  facet normal 0 0 1
    outer loop
      vertex 18.8069 68.4311 30
      vertex 18.7104 66.8966 30
      vertex 19.2896 66.8966 30
    endloop
  endfacet
  facet normal 0 0 1
    outer loop
      vertex 18.4238 68.4795 30
      vertex 18.7104 66.8966 30
      vertex 18.8069 68.4311 30
    endloop
  endfacet
  facet normal 0 0 1
    outer loop
      vertex 18.4238 68.4795 30
      vertex 18.1357 66.9692 30
      vertex 18.7104 66.8966 30
    endloop
  endfacet
  facet normal 0 0 1
    outer loop
      vertex 18.0498 68.5755 30
      vertex 18.1357 66.9692 30
      vertex 18.4238 68.4795 30
    endloop
  endfacet
  facet normal 0 0 1
    outer loop
      vertex 17.5747 67.1133 30
      vertex 18.0498 68.5755 30
      vertex 17.6907 68.7177 30
    endloop
  endfacet
  facet normal 0 0 1
    outer loop
      vertex 18.0498 68.5755 30
      vertex 17.5747 67.1133 30
      vertex 18.1357 66.9692 30
    endloop
  endfacet
  facet normal 0 0 1
    outer loop
      vertex 17.0361 67.3265 30
      vertex 17.6907 68.7177 30
      vertex 17.3523 68.9037 30
    endloop
  endfacet
  facet normal 0 0 1
    outer loop
      vertex 16.5285 67.6055 30
      vertex 17.3523 68.9037 30
      vertex 17.0399 69.1307 30
    endloop
  endfacet
  facet normal 0 0 1
    outer loop
      vertex 17.6907 68.7177 30
      vertex 17.0361 67.3265 30
      vertex 17.5747 67.1133 30
    endloop
  endfacet
  facet normal 0 0 1
    outer loop
      vertex 16.0599 67.946 30
      vertex 17.0399 69.1307 30
      vertex 16.7584 69.395 30
    endloop
  endfacet
  facet normal 0 0 1
    outer loop
      vertex 17.3523 68.9037 30
      vertex 16.5285 67.6055 30
      vertex 17.0361 67.3265 30
    endloop
  endfacet
  facet normal 0 0 1
    outer loop
      vertex 15.6376 68.3425 30
      vertex 16.7584 69.395 30
      vertex 16.5123 69.6926 30
    endloop
  endfacet
  facet normal 0 0 1
    outer loop
      vertex 15.2684 68.7888 30
      vertex 16.5123 69.6926 30
      vertex 16.3054 70.0186 30
    endloop
  endfacet
  facet normal 0 0 1
    outer loop
      vertex 14.958 69.2779 30
      vertex 16.3054 70.0186 30
      vertex 16.1409 70.368 30
    endloop
  endfacet
  facet normal 0 0 1
    outer loop
      vertex 17.0399 69.1307 30
      vertex 16.0599 67.946 30
      vertex 16.5285 67.6055 30
    endloop
  endfacet
  facet normal 0 0 1
    outer loop
      vertex 14.7114 69.802 30
      vertex 16.1409 70.368 30
      vertex 16.0216 70.7353 30
    endloop
  endfacet
  facet normal 0 0 1
    outer loop
      vertex 14.5324 70.3529 30
      vertex 16.0216 70.7353 30
      vertex 15.9492 71.1146 30
    endloop
  endfacet
  facet normal 0 0 1
    outer loop
      vertex 14.419 71 30
      vertex 15.9492 71.1146 30
      vertex 15.925 71.5 30
    endloop
  endfacet
  facet normal 0 0 1
    outer loop
      vertex 16.1409 72.632 30
      vertex 14.7114 73.198 30
      vertex 16.0216 72.2647 30
    endloop
  endfacet
  facet normal 0 0 1
    outer loop
      vertex 16.7584 69.395 30
      vertex 15.6376 68.3425 30
      vertex 16.0599 67.946 30
    endloop
  endfacet
  facet normal -0 0 1
    outer loop
      vertex 14.5324 72.6471 30
      vertex 16.0216 72.2647 30
      vertex 14.7114 73.198 30
    endloop
  endfacet
  facet normal 0 0 1
    outer loop
      vertex 16.5123 69.6926 30
      vertex 15.2684 68.7888 30
      vertex 15.6376 68.3425 30
    endloop
  endfacet
  facet normal 0 0 1
    outer loop
      vertex 16.0216 72.2647 30
      vertex 14.5324 72.6471 30
      vertex 15.9492 71.8854 30
    endloop
  endfacet
  facet normal 0 0 1
    outer loop
      vertex 16.3054 70.0186 30
      vertex 14.958 69.2779 30
      vertex 15.2684 68.7888 30
    endloop
  endfacet
  facet normal -0 0 1
    outer loop
      vertex 14.4239 72.0781 30
      vertex 15.9492 71.8854 30
      vertex 14.5324 72.6471 30
    endloop
  endfacet
  facet normal 0 0 1
    outer loop
      vertex 16.1409 70.368 30
      vertex 14.7114 69.802 30
      vertex 14.958 69.2779 30
    endloop
  endfacet
  facet normal -0 0 1
    outer loop
      vertex 14.419 72 30
      vertex 15.9492 71.8854 30
      vertex 14.4239 72.0781 30
    endloop
  endfacet
  facet normal 0 0 1
    outer loop
      vertex 16.0216 70.7353 30
      vertex 14.5324 70.3529 30
      vertex 14.7114 69.802 30
    endloop
  endfacet
  facet normal 0 0 1
    outer loop
      vertex 15.9492 71.8854 30
      vertex 14.419 72 30
      vertex 15.925 71.5 30
    endloop
  endfacet
  facet normal 0 0 1
    outer loop
      vertex 14.419 71 30
      vertex 15.925 71.5 30
      vertex 14.419 72 30
    endloop
  endfacet
  facet normal 0 0 1
    outer loop
      vertex 15.9492 71.1146 30
      vertex 14.419 71 30
      vertex 14.4239 70.9219 30
    endloop
  endfacet
  facet normal 0 0 1
    outer loop
      vertex 15.9492 71.1146 30
      vertex 14.4239 70.9219 30
      vertex 14.5324 70.3529 30
    endloop
  endfacet
  facet normal -0 0 1
    outer loop
      vertex 1 72 30
      vertex 14.419 71 30
      vertex 14.419 72 30
    endloop
  endfacet
  facet normal 0 0 1
    outer loop
      vertex 14.419 71 30
      vertex 1 72 30
      vertex 1 71 30
    endloop
  endfacet
  facet normal 1 -0 0
    outer loop
      vertex 38 0 30
      vertex 38 143 0
      vertex 38 143 30
    endloop
  endfacet
  facet normal 1 0 0
    outer loop
      vertex 38 143 0
      vertex 38 0 30
      vertex 38 0 0
    endloop
  endfacet
  facet normal 0 1 -0
    outer loop
      vertex 38 143 0
      vertex 0 143 30
      vertex 38 143 30
    endloop
  endfacet
  facet normal 0 1 0
    outer loop
      vertex 0 143 30
      vertex 38 143 0
      vertex 0 143 0
    endloop
  endfacet
  facet normal 0 -1 0
    outer loop
      vertex 0 0 0
      vertex 38 0 30
      vertex 0 0 30
    endloop
  endfacet
  facet normal 0 -1 -0
    outer loop
      vertex 38 0 30
      vertex 0 0 0
      vertex 38 0 0
    endloop
  endfacet
  facet normal 0.998027 0.0627849 0
    outer loop
      vertex 23.581 72 30
      vertex 23.5761 72.0781 1
      vertex 23.5761 72.0781 30
    endloop
  endfacet
  facet normal 0.998027 0.0627849 0
    outer loop
      vertex 23.5761 72.0781 1
      vertex 23.581 72 30
      vertex 23.581 72 1
    endloop
  endfacet
  facet normal -0.125325 0.992116 0
    outer loop
      vertex 18.7104 76.1034 1
      vertex 18.1357 76.0308 30
      vertex 18.7104 76.1034 30
    endloop
  endfacet
  facet normal -0.125325 0.992116 0
    outer loop
      vertex 18.1357 76.0308 30
      vertex 18.7104 76.1034 1
      vertex 18.1357 76.0308 1
    endloop
  endfacet
  facet normal 0.68455 0.728966 -0
    outer loop
      vertex 22.3624 74.6575 1
      vertex 21.9401 75.054 30
      vertex 22.3624 74.6575 30
    endloop
  endfacet
  facet normal 0.68455 0.728966 0
    outer loop
      vertex 21.9401 75.054 30
      vertex 22.3624 74.6575 1
      vertex 21.9401 75.054 1
    endloop
  endfacet
  facet normal -0.770512 0.637425 0
    outer loop
      vertex 15.2684 74.2112 1
      vertex 15.6376 74.6575 30
      vertex 15.6376 74.6575 1
    endloop
  endfacet
  facet normal -0.770512 0.637425 0
    outer loop
      vertex 15.6376 74.6575 30
      vertex 15.2684 74.2112 1
      vertex 15.2684 74.2112 30
    endloop
  endfacet
  facet normal -0.481755 0.876306 0
    outer loop
      vertex 17.0361 75.6735 1
      vertex 16.5285 75.3945 30
      vertex 17.0361 75.6735 30
    endloop
  endfacet
  facet normal -0.481755 0.876306 0
    outer loop
      vertex 16.5285 75.3945 30
      vertex 17.0361 75.6735 1
      vertex 16.5285 75.3945 1
    endloop
  endfacet
  facet normal 0.904829 0.425775 0
    outer loop
      vertex 23.2886 73.198 30
      vertex 23.042 73.7221 1
      vertex 23.042 73.7221 30
    endloop
  endfacet
  facet normal 0.904829 0.425775 0
    outer loop
      vertex 23.042 73.7221 1
      vertex 23.2886 73.198 30
      vertex 23.2886 73.198 1
    endloop
  endfacet
  facet normal 0.982287 0.187384 0
    outer loop
      vertex 23.5761 72.0781 30
      vertex 23.4676 72.6471 1
      vertex 23.4676 72.6471 30
    endloop
  endfacet
  facet normal 0.982287 0.187384 0
    outer loop
      vertex 23.4676 72.6471 1
      vertex 23.5761 72.0781 30
      vertex 23.5761 72.0781 1
    endloop
  endfacet
  facet normal 0.248688 0.968584 -0
    outer loop
      vertex 20.4253 75.8867 1
      vertex 19.8643 76.0308 30
      vertex 20.4253 75.8867 30
    endloop
  endfacet
  facet normal 0.248688 0.968584 0
    outer loop
      vertex 19.8643 76.0308 30
      vertex 20.4253 75.8867 1
      vertex 19.8643 76.0308 1
    endloop
  endfacet
  facet normal 0.125325 0.992116 -0
    outer loop
      vertex 19.8643 76.0308 1
      vertex 19.2896 76.1034 30
      vertex 19.8643 76.0308 30
    endloop
  endfacet
  facet normal 0.125325 0.992116 0
    outer loop
      vertex 19.2896 76.1034 30
      vertex 19.8643 76.0308 1
      vertex 19.2896 76.1034 1
    endloop
  endfacet
  facet normal -0.904828 0.425777 0
    outer loop
      vertex 14.7114 73.198 1
      vertex 14.958 73.7221 30
      vertex 14.958 73.7221 1
    endloop
  endfacet
  facet normal -0.904828 0.425777 0
    outer loop
      vertex 14.958 73.7221 30
      vertex 14.7114 73.198 1
      vertex 14.7114 73.198 30
    endloop
  endfacet
  facet normal -0.844326 0.53583 0
    outer loop
      vertex 14.958 73.7221 1
      vertex 15.2684 74.2112 30
      vertex 15.2684 74.2112 1
    endloop
  endfacet
  facet normal -0.844326 0.53583 0
    outer loop
      vertex 15.2684 74.2112 30
      vertex 14.958 73.7221 1
      vertex 14.958 73.7221 30
    endloop
  endfacet
  facet normal -0.982287 0.187384 0
    outer loop
      vertex 14.4239 72.0781 1
      vertex 14.5324 72.6471 30
      vertex 14.5324 72.6471 1
    endloop
  endfacet
  facet normal -0.982287 0.187384 0
    outer loop
      vertex 14.5324 72.6471 30
      vertex 14.4239 72.0781 1
      vertex 14.4239 72.0781 30
    endloop
  endfacet
  facet normal -0.998027 -0.0627849 0
    outer loop
      vertex 14.4239 70.9219 1
      vertex 14.419 71 30
      vertex 14.419 71 1
    endloop
  endfacet
  facet normal -0.998027 -0.0627849 0
    outer loop
      vertex 14.419 71 30
      vertex 14.4239 70.9219 1
      vertex 14.4239 70.9219 30
    endloop
  endfacet
  facet normal -0.587783 0.809018 0
    outer loop
      vertex 16.5285 75.3945 1
      vertex 16.0599 75.054 30
      vertex 16.5285 75.3945 30
    endloop
  endfacet
  facet normal -0.587783 0.809018 0
    outer loop
      vertex 16.0599 75.054 30
      vertex 16.5285 75.3945 1
      vertex 16.0599 75.054 1
    endloop
  endfacet
  facet normal -0.248687 0.968584 0
    outer loop
      vertex 18.1357 76.0308 1
      vertex 17.5747 75.8867 30
      vertex 18.1357 76.0308 30
    endloop
  endfacet
  facet normal -0.248687 0.968584 0
    outer loop
      vertex 17.5747 75.8867 30
      vertex 18.1357 76.0308 1
      vertex 17.5747 75.8867 1
    endloop
  endfacet
  facet normal -0.125338 -0.992114 0
    outer loop
      vertex 18.1357 66.9692 1
      vertex 18.7104 66.8966 30
      vertex 18.1357 66.9692 30
    endloop
  endfacet
  facet normal -0.125338 -0.992114 -0
    outer loop
      vertex 18.7104 66.8966 30
      vertex 18.1357 66.9692 1
      vertex 18.7104 66.8966 1
    endloop
  endfacet
  facet normal 0.248688 -0.968584 0
    outer loop
      vertex 19.8643 66.9692 1
      vertex 20.4253 67.1133 30
      vertex 19.8643 66.9692 30
    endloop
  endfacet
  facet normal 0.248688 -0.968584 0
    outer loop
      vertex 20.4253 67.1133 30
      vertex 19.8643 66.9692 1
      vertex 20.4253 67.1133 1
    endloop
  endfacet
  facet normal 0.951056 0.309017 0
    outer loop
      vertex 23.4676 72.6471 30
      vertex 23.2886 73.198 1
      vertex 23.2886 73.198 30
    endloop
  endfacet
  facet normal 0.951056 0.309017 0
    outer loop
      vertex 23.2886 73.198 1
      vertex 23.4676 72.6471 30
      vertex 23.4676 72.6471 1
    endloop
  endfacet
  facet normal 0.770512 0.637425 0
    outer loop
      vertex 22.7316 74.2112 30
      vertex 22.3624 74.6575 1
      vertex 22.3624 74.6575 30
    endloop
  endfacet
  facet normal 0.770512 0.637425 0
    outer loop
      vertex 22.3624 74.6575 1
      vertex 22.7316 74.2112 30
      vertex 22.7316 74.2112 1
    endloop
  endfacet
  facet normal 0.844325 0.535831 0
    outer loop
      vertex 23.042 73.7221 30
      vertex 22.7316 74.2112 1
      vertex 22.7316 74.2112 30
    endloop
  endfacet
  facet normal 0.844325 0.535831 0
    outer loop
      vertex 22.7316 74.2112 1
      vertex 23.042 73.7221 30
      vertex 23.042 73.7221 1
    endloop
  endfacet
  facet normal 0 1 -0
    outer loop
      vertex 19.2896 76.1034 1
      vertex 18.7104 76.1034 30
      vertex 19.2896 76.1034 30
    endloop
  endfacet
  facet normal 0 1 0
    outer loop
      vertex 18.7104 76.1034 30
      vertex 19.2896 76.1034 1
      vertex 18.7104 76.1034 1
    endloop
  endfacet
  facet normal 0.587785 0.809017 -0
    outer loop
      vertex 21.9401 75.054 1
      vertex 21.4715 75.3945 30
      vertex 21.9401 75.054 30
    endloop
  endfacet
  facet normal 0.587785 0.809017 0
    outer loop
      vertex 21.4715 75.3945 30
      vertex 21.9401 75.054 1
      vertex 21.4715 75.3945 1
    endloop
  endfacet
  facet normal 0.481754 0.876307 -0
    outer loop
      vertex 21.4715 75.3945 1
      vertex 20.9639 75.6735 30
      vertex 21.4715 75.3945 30
    endloop
  endfacet
  facet normal 0.481754 0.876307 0
    outer loop
      vertex 20.9639 75.6735 30
      vertex 21.4715 75.3945 1
      vertex 20.9639 75.6735 1
    endloop
  endfacet
  facet normal -0.951057 0.309016 0
    outer loop
      vertex 14.5324 72.6471 1
      vertex 14.7114 73.198 30
      vertex 14.7114 73.198 1
    endloop
  endfacet
  facet normal -0.951057 0.309016 0
    outer loop
      vertex 14.7114 73.198 30
      vertex 14.5324 72.6471 1
      vertex 14.5324 72.6471 30
    endloop
  endfacet
  facet normal -0.998027 0.0627849 0
    outer loop
      vertex 14.419 72 1
      vertex 14.4239 72.0781 30
      vertex 14.4239 72.0781 1
    endloop
  endfacet
  facet normal -0.998027 0.0627849 0
    outer loop
      vertex 14.4239 72.0781 30
      vertex 14.419 72 1
      vertex 14.419 72 30
    endloop
  endfacet
  facet normal -0.68455 0.728966 0
    outer loop
      vertex 16.0599 75.054 1
      vertex 15.6376 74.6575 30
      vertex 16.0599 75.054 30
    endloop
  endfacet
  facet normal -0.68455 0.728966 0
    outer loop
      vertex 15.6376 74.6575 30
      vertex 16.0599 75.054 1
      vertex 15.6376 74.6575 1
    endloop
  endfacet
  facet normal -0.368126 0.929776 0
    outer loop
      vertex 17.5747 75.8867 1
      vertex 17.0361 75.6735 30
      vertex 17.5747 75.8867 30
    endloop
  endfacet
  facet normal -0.368126 0.929776 0
    outer loop
      vertex 17.0361 75.6735 30
      vertex 17.5747 75.8867 1
      vertex 17.0361 75.6735 1
    endloop
  endfacet
  facet normal 0.998027 -0.0627849 0
    outer loop
      vertex 23.5761 70.9219 30
      vertex 23.581 71 1
      vertex 23.581 71 30
    endloop
  endfacet
  facet normal 0.998027 -0.0627849 0
    outer loop
      vertex 23.581 71 1
      vertex 23.5761 70.9219 30
      vertex 23.5761 70.9219 1
    endloop
  endfacet
  facet normal 0.982287 -0.187384 0
    outer loop
      vertex 23.4676 70.3529 30
      vertex 23.5761 70.9219 1
      vertex 23.5761 70.9219 30
    endloop
  endfacet
  facet normal 0.982287 -0.187384 0
    outer loop
      vertex 23.5761 70.9219 1
      vertex 23.4676 70.3529 30
      vertex 23.4676 70.3529 1
    endloop
  endfacet
  facet normal 0.587785 -0.809017 0
    outer loop
      vertex 21.4715 67.6055 1
      vertex 21.9401 67.946 30
      vertex 21.4715 67.6055 30
    endloop
  endfacet
  facet normal 0.587785 -0.809017 0
    outer loop
      vertex 21.9401 67.946 30
      vertex 21.4715 67.6055 1
      vertex 21.9401 67.946 1
    endloop
  endfacet
  facet normal -0.982287 -0.187384 0
    outer loop
      vertex 14.5324 70.3529 1
      vertex 14.4239 70.9219 30
      vertex 14.4239 70.9219 1
    endloop
  endfacet
  facet normal -0.982287 -0.187384 0
    outer loop
      vertex 14.4239 70.9219 30
      vertex 14.5324 70.3529 1
      vertex 14.5324 70.3529 30
    endloop
  endfacet
  facet normal -0.904828 -0.425777 0
    outer loop
      vertex 14.958 69.2779 1
      vertex 14.7114 69.802 30
      vertex 14.7114 69.802 1
    endloop
  endfacet
  facet normal -0.904828 -0.425777 0
    outer loop
      vertex 14.7114 69.802 30
      vertex 14.958 69.2779 1
      vertex 14.958 69.2779 30
    endloop
  endfacet
  facet normal 0.481754 -0.876307 0
    outer loop
      vertex 20.9639 67.3265 1
      vertex 21.4715 67.6055 30
      vertex 20.9639 67.3265 30
    endloop
  endfacet
  facet normal 0.481754 -0.876307 0
    outer loop
      vertex 21.4715 67.6055 30
      vertex 20.9639 67.3265 1
      vertex 21.4715 67.6055 1
    endloop
  endfacet
  facet normal 0.368126 -0.929776 0
    outer loop
      vertex 20.4253 67.1133 1
      vertex 20.9639 67.3265 30
      vertex 20.4253 67.1133 30
    endloop
  endfacet
  facet normal 0.368126 -0.929776 0
    outer loop
      vertex 20.9639 67.3265 30
      vertex 20.4253 67.1133 1
      vertex 20.9639 67.3265 1
    endloop
  endfacet
  facet normal 0.368126 0.929776 -0
    outer loop
      vertex 20.9639 75.6735 1
      vertex 20.4253 75.8867 30
      vertex 20.9639 75.6735 30
    endloop
  endfacet
  facet normal 0.368126 0.929776 0
    outer loop
      vertex 20.4253 75.8867 30
      vertex 20.9639 75.6735 1
      vertex 20.4253 75.8867 1
    endloop
  endfacet
  facet normal 0.844325 -0.535831 0
    outer loop
      vertex 22.7316 68.7888 30
      vertex 23.042 69.2779 1
      vertex 23.042 69.2779 30
    endloop
  endfacet
  facet normal 0.844325 -0.535831 0
    outer loop
      vertex 23.042 69.2779 1
      vertex 22.7316 68.7888 30
      vertex 22.7316 68.7888 1
    endloop
  endfacet
  facet normal 0.68455 -0.728966 0
    outer loop
      vertex 21.9401 67.946 1
      vertex 22.3624 68.3425 30
      vertex 21.9401 67.946 30
    endloop
  endfacet
  facet normal 0.68455 -0.728966 0
    outer loop
      vertex 22.3624 68.3425 30
      vertex 21.9401 67.946 1
      vertex 22.3624 68.3425 1
    endloop
  endfacet
  facet normal 0.904829 -0.425775 0
    outer loop
      vertex 23.042 69.2779 30
      vertex 23.2886 69.802 1
      vertex 23.2886 69.802 30
    endloop
  endfacet
  facet normal 0.904829 -0.425775 0
    outer loop
      vertex 23.2886 69.802 1
      vertex 23.042 69.2779 30
      vertex 23.042 69.2779 1
    endloop
  endfacet
  facet normal 0 -1 0
    outer loop
      vertex 18.7104 66.8966 1
      vertex 19.2896 66.8966 30
      vertex 18.7104 66.8966 30
    endloop
  endfacet
  facet normal 0 -1 -0
    outer loop
      vertex 19.2896 66.8966 30
      vertex 18.7104 66.8966 1
      vertex 19.2896 66.8966 1
    endloop
  endfacet
  facet normal -0.248687 -0.968584 0
    outer loop
      vertex 17.5747 67.1133 1
      vertex 18.1357 66.9692 30
      vertex 17.5747 67.1133 30
    endloop
  endfacet
  facet normal -0.248687 -0.968584 -0
    outer loop
      vertex 18.1357 66.9692 30
      vertex 17.5747 67.1133 1
      vertex 18.1357 66.9692 1
    endloop
  endfacet
  facet normal -0.68455 -0.728966 0
    outer loop
      vertex 15.6376 68.3425 1
      vertex 16.0599 67.946 30
      vertex 15.6376 68.3425 30
    endloop
  endfacet
  facet normal -0.68455 -0.728966 -0
    outer loop
      vertex 16.0599 67.946 30
      vertex 15.6376 68.3425 1
      vertex 16.0599 67.946 1
    endloop
  endfacet
  facet normal -0.844326 -0.53583 0
    outer loop
      vertex 15.2684 68.7888 1
      vertex 14.958 69.2779 30
      vertex 14.958 69.2779 1
    endloop
  endfacet
  facet normal -0.844326 -0.53583 0
    outer loop
      vertex 14.958 69.2779 30
      vertex 15.2684 68.7888 1
      vertex 15.2684 68.7888 30
    endloop
  endfacet
  facet normal -0.951057 -0.309016 0
    outer loop
      vertex 14.7114 69.802 1
      vertex 14.5324 70.3529 30
      vertex 14.5324 70.3529 1
    endloop
  endfacet
  facet normal -0.951057 -0.309016 0
    outer loop
      vertex 14.5324 70.3529 30
      vertex 14.7114 69.802 1
      vertex 14.7114 69.802 30
    endloop
  endfacet
  facet normal 0.951056 -0.309017 0
    outer loop
      vertex 23.2886 69.802 30
      vertex 23.4676 70.3529 1
      vertex 23.4676 70.3529 30
    endloop
  endfacet
  facet normal 0.951056 -0.309017 0
    outer loop
      vertex 23.4676 70.3529 1
      vertex 23.2886 69.802 30
      vertex 23.2886 69.802 1
    endloop
  endfacet
  facet normal 0.125338 -0.992114 0
    outer loop
      vertex 19.2896 66.8966 1
      vertex 19.8643 66.9692 30
      vertex 19.2896 66.8966 30
    endloop
  endfacet
  facet normal 0.125338 -0.992114 0
    outer loop
      vertex 19.8643 66.9692 30
      vertex 19.2896 66.8966 1
      vertex 19.8643 66.9692 1
    endloop
  endfacet
  facet normal -0.368126 -0.929776 0
    outer loop
      vertex 17.0361 67.3265 1
      vertex 17.5747 67.1133 30
      vertex 17.0361 67.3265 30
    endloop
  endfacet
  facet normal -0.368126 -0.929776 -0
    outer loop
      vertex 17.5747 67.1133 30
      vertex 17.0361 67.3265 1
      vertex 17.5747 67.1133 1
    endloop
  endfacet
  facet normal -0.770512 -0.637425 0
    outer loop
      vertex 15.6376 68.3425 1
      vertex 15.2684 68.7888 30
      vertex 15.2684 68.7888 1
    endloop
  endfacet
  facet normal -0.770512 -0.637425 0
    outer loop
      vertex 15.2684 68.7888 30
      vertex 15.6376 68.3425 1
      vertex 15.6376 68.3425 30
    endloop
  endfacet
  facet normal 0.770512 -0.637425 0
    outer loop
      vertex 22.3624 68.3425 30
      vertex 22.7316 68.7888 1
      vertex 22.7316 68.7888 30
    endloop
  endfacet
  facet normal 0.770512 -0.637425 0
    outer loop
      vertex 22.7316 68.7888 1
      vertex 22.3624 68.3425 30
      vertex 22.3624 68.3425 1
    endloop
  endfacet
  facet normal -0.587783 -0.809018 0
    outer loop
      vertex 16.0599 67.946 1
      vertex 16.5285 67.6055 30
      vertex 16.0599 67.946 30
    endloop
  endfacet
  facet normal -0.587783 -0.809018 -0
    outer loop
      vertex 16.5285 67.6055 30
      vertex 16.0599 67.946 1
      vertex 16.5285 67.6055 1
    endloop
  endfacet
  facet normal -0.481755 -0.876306 0
    outer loop
      vertex 16.5285 67.6055 1
      vertex 17.0361 67.3265 30
      vertex 16.5285 67.6055 30
    endloop
  endfacet
  facet normal -0.481755 -0.876306 -0
    outer loop
      vertex 17.0361 67.3265 30
      vertex 16.5285 67.6055 1
      vertex 17.0361 67.3265 1
    endloop
  endfacet
  facet normal -0.587787 -0.809015 0
    outer loop
      vertex 20.6477 74.0963 0
      vertex 20.9601 73.8693 30
      vertex 20.6477 74.0963 30
    endloop
  endfacet
  facet normal -0.587787 -0.809015 -0
    outer loop
      vertex 20.9601 73.8693 30
      vertex 20.6477 74.0963 0
      vertex 20.9601 73.8693 0
    endloop
  endfacet
  facet normal 0.982287 -0.187381 0
    outer loop
      vertex 15.9492 71.8854 30
      vertex 16.0216 72.2647 0
      vertex 16.0216 72.2647 30
    endloop
  endfacet
  facet normal 0.982287 -0.187381 0
    outer loop
      vertex 16.0216 72.2647 0
      vertex 15.9492 71.8854 30
      vertex 15.9492 71.8854 0
    endloop
  endfacet
  facet normal -0.982288 0.187378 0
    outer loop
      vertex 21.9784 70.7353 0
      vertex 22.0508 71.1146 30
      vertex 22.0508 71.1146 0
    endloop
  endfacet
  facet normal -0.982288 0.187378 0
    outer loop
      vertex 22.0508 71.1146 30
      vertex 21.9784 70.7353 0
      vertex 21.9784 70.7353 30
    endloop
  endfacet
  facet normal -0.481754 -0.876306 0
    outer loop
      vertex 20.3093 74.2823 0
      vertex 20.6477 74.0963 30
      vertex 20.3093 74.2823 30
    endloop
  endfacet
  facet normal -0.481754 -0.876306 -0
    outer loop
      vertex 20.6477 74.0963 30
      vertex 20.3093 74.2823 0
      vertex 20.6477 74.0963 0
    endloop
  endfacet
  facet normal 0.36813 -0.929774 0
    outer loop
      vertex 17.6907 74.2823 0
      vertex 18.0498 74.4245 30
      vertex 17.6907 74.2823 30
    endloop
  endfacet
  facet normal 0.36813 -0.929774 0
    outer loop
      vertex 18.0498 74.4245 30
      vertex 17.6907 74.2823 0
      vertex 18.0498 74.4245 0
    endloop
  endfacet
  facet normal 0.951055 -0.309023 0
    outer loop
      vertex 16.0216 72.2647 30
      vertex 16.1409 72.632 0
      vertex 16.1409 72.632 30
    endloop
  endfacet
  facet normal 0.951055 -0.309023 0
    outer loop
      vertex 16.1409 72.632 0
      vertex 16.0216 72.2647 30
      vertex 16.0216 72.2647 0
    endloop
  endfacet
  facet normal 0.844329 0.535826 0
    outer loop
      vertex 16.5123 69.6926 30
      vertex 16.3054 70.0186 0
      vertex 16.3054 70.0186 30
    endloop
  endfacet
  facet normal 0.844329 0.535826 0
    outer loop
      vertex 16.3054 70.0186 0
      vertex 16.5123 69.6926 30
      vertex 16.5123 69.6926 0
    endloop
  endfacet
  facet normal -0.951055 -0.309023 0
    outer loop
      vertex 21.9784 72.2647 0
      vertex 21.8591 72.632 30
      vertex 21.8591 72.632 0
    endloop
  endfacet
  facet normal -0.951055 -0.309023 0
    outer loop
      vertex 21.8591 72.632 30
      vertex 21.9784 72.2647 0
      vertex 21.9784 72.2647 30
    endloop
  endfacet
  facet normal -0.904828 -0.425777 0
    outer loop
      vertex 21.8591 72.632 0
      vertex 21.6946 72.9814 30
      vertex 21.6946 72.9814 0
    endloop
  endfacet
  facet normal -0.904828 -0.425777 0
    outer loop
      vertex 21.6946 72.9814 30
      vertex 21.8591 72.632 0
      vertex 21.8591 72.632 30
    endloop
  endfacet
  facet normal -0.844331 -0.535822 0
    outer loop
      vertex 21.6946 72.9814 0
      vertex 21.4877 73.3074 30
      vertex 21.4877 73.3074 0
    endloop
  endfacet
  facet normal -0.844331 -0.535822 0
    outer loop
      vertex 21.4877 73.3074 30
      vertex 21.6946 72.9814 0
      vertex 21.6946 72.9814 30
    endloop
  endfacet
  facet normal -0.770506 -0.637432 0
    outer loop
      vertex 21.4877 73.3074 0
      vertex 21.2416 73.605 30
      vertex 21.2416 73.605 0
    endloop
  endfacet
  facet normal -0.770506 -0.637432 0
    outer loop
      vertex 21.2416 73.605 30
      vertex 21.4877 73.3074 0
      vertex 21.4877 73.3074 30
    endloop
  endfacet
  facet normal -0.36813 -0.929774 0
    outer loop
      vertex 19.9502 74.4245 0
      vertex 20.3093 74.2823 30
      vertex 19.9502 74.4245 30
    endloop
  endfacet
  facet normal -0.36813 -0.929774 -0
    outer loop
      vertex 20.3093 74.2823 30
      vertex 19.9502 74.4245 0
      vertex 20.3093 74.2823 0
    endloop
  endfacet
  facet normal 0 -1 0
    outer loop
      vertex 18.8069 74.5689 0
      vertex 19.1931 74.5689 30
      vertex 18.8069 74.5689 30
    endloop
  endfacet
  facet normal 0 -1 -0
    outer loop
      vertex 19.1931 74.5689 30
      vertex 18.8069 74.5689 0
      vertex 19.1931 74.5689 0
    endloop
  endfacet
  facet normal -0.125339 -0.992114 0
    outer loop
      vertex 19.1931 74.5689 0
      vertex 19.5762 74.5205 30
      vertex 19.1931 74.5689 30
    endloop
  endfacet
  facet normal -0.125339 -0.992114 -0
    outer loop
      vertex 19.5762 74.5205 30
      vertex 19.1931 74.5689 0
      vertex 19.5762 74.5205 0
    endloop
  endfacet
  facet normal 0.998027 0.0627903 0
    outer loop
      vertex 15.9492 71.1146 30
      vertex 15.925 71.5 0
      vertex 15.925 71.5 30
    endloop
  endfacet
  facet normal 0.998027 0.0627903 0
    outer loop
      vertex 15.925 71.5 0
      vertex 15.9492 71.1146 30
      vertex 15.9492 71.1146 0
    endloop
  endfacet
  facet normal 0.844329 -0.535826 0
    outer loop
      vertex 16.3054 72.9814 30
      vertex 16.5123 73.3074 0
      vertex 16.5123 73.3074 30
    endloop
  endfacet
  facet normal 0.844329 -0.535826 0
    outer loop
      vertex 16.5123 73.3074 0
      vertex 16.3054 72.9814 30
      vertex 16.3054 72.9814 0
    endloop
  endfacet
  facet normal 0.684543 -0.728972 0
    outer loop
      vertex 16.7584 73.605 0
      vertex 17.0399 73.8693 30
      vertex 16.7584 73.605 30
    endloop
  endfacet
  facet normal 0.684543 -0.728972 0
    outer loop
      vertex 17.0399 73.8693 30
      vertex 16.7584 73.605 0
      vertex 17.0399 73.8693 0
    endloop
  endfacet
  facet normal -0.36813 0.929774 0
    outer loop
      vertex 20.3093 68.7177 0
      vertex 19.9502 68.5755 30
      vertex 20.3093 68.7177 30
    endloop
  endfacet
  facet normal -0.36813 0.929774 0
    outer loop
      vertex 19.9502 68.5755 30
      vertex 20.3093 68.7177 0
      vertex 19.9502 68.5755 0
    endloop
  endfacet
  facet normal -0.770506 0.637432 0
    outer loop
      vertex 21.2416 69.395 0
      vertex 21.4877 69.6926 30
      vertex 21.4877 69.6926 0
    endloop
  endfacet
  facet normal -0.770506 0.637432 0
    outer loop
      vertex 21.4877 69.6926 30
      vertex 21.2416 69.395 0
      vertex 21.2416 69.395 30
    endloop
  endfacet
  facet normal 0.36813 0.929774 -0
    outer loop
      vertex 18.0498 68.5755 0
      vertex 17.6907 68.7177 30
      vertex 18.0498 68.5755 30
    endloop
  endfacet
  facet normal 0.36813 0.929774 0
    outer loop
      vertex 17.6907 68.7177 30
      vertex 18.0498 68.5755 0
      vertex 17.6907 68.7177 0
    endloop
  endfacet
  facet normal 0.481756 0.876305 -0
    outer loop
      vertex 17.6907 68.7177 0
      vertex 17.3523 68.9037 30
      vertex 17.6907 68.7177 30
    endloop
  endfacet
  facet normal 0.481756 0.876305 0
    outer loop
      vertex 17.3523 68.9037 30
      vertex 17.6907 68.7177 0
      vertex 17.3523 68.9037 0
    endloop
  endfacet
  facet normal 0.951055 0.309023 0
    outer loop
      vertex 16.1409 70.368 30
      vertex 16.0216 70.7353 0
      vertex 16.0216 70.7353 30
    endloop
  endfacet
  facet normal 0.951055 0.309023 0
    outer loop
      vertex 16.0216 70.7353 0
      vertex 16.1409 70.368 30
      vertex 16.1409 70.368 0
    endloop
  endfacet
  facet normal -0.982288 -0.187378 0
    outer loop
      vertex 22.0508 71.8854 0
      vertex 21.9784 72.2647 30
      vertex 21.9784 72.2647 0
    endloop
  endfacet
  facet normal -0.982288 -0.187378 0
    outer loop
      vertex 21.9784 72.2647 30
      vertex 22.0508 71.8854 0
      vertex 22.0508 71.8854 30
    endloop
  endfacet
  facet normal -0.684546 -0.72897 0
    outer loop
      vertex 20.9601 73.8693 0
      vertex 21.2416 73.605 30
      vertex 20.9601 73.8693 30
    endloop
  endfacet
  facet normal -0.684546 -0.72897 -0
    outer loop
      vertex 21.2416 73.605 30
      vertex 20.9601 73.8693 0
      vertex 21.2416 73.605 0
    endloop
  endfacet
  facet normal -0.248682 -0.968585 0
    outer loop
      vertex 19.5762 74.5205 0
      vertex 19.9502 74.4245 30
      vertex 19.5762 74.5205 30
    endloop
  endfacet
  facet normal -0.248682 -0.968585 -0
    outer loop
      vertex 19.9502 74.4245 30
      vertex 19.5762 74.5205 0
      vertex 19.9502 74.4245 0
    endloop
  endfacet
  facet normal 0.90483 -0.425773 0
    outer loop
      vertex 16.1409 72.632 30
      vertex 16.3054 72.9814 0
      vertex 16.3054 72.9814 30
    endloop
  endfacet
  facet normal 0.90483 -0.425773 0
    outer loop
      vertex 16.3054 72.9814 0
      vertex 16.1409 72.632 30
      vertex 16.1409 72.632 0
    endloop
  endfacet
  facet normal 0.125338 -0.992114 0
    outer loop
      vertex 18.4238 74.5205 0
      vertex 18.8069 74.5689 30
      vertex 18.4238 74.5205 30
    endloop
  endfacet
  facet normal 0.125338 -0.992114 0
    outer loop
      vertex 18.8069 74.5689 30
      vertex 18.4238 74.5205 0
      vertex 18.8069 74.5689 0
    endloop
  endfacet
  facet normal 0.248682 -0.968585 0
    outer loop
      vertex 18.0498 74.4245 0
      vertex 18.4238 74.5205 30
      vertex 18.0498 74.4245 30
    endloop
  endfacet
  facet normal 0.248682 -0.968585 0
    outer loop
      vertex 18.4238 74.5205 30
      vertex 18.0498 74.4245 0
      vertex 18.4238 74.5205 0
    endloop
  endfacet
  facet normal 0.481756 -0.876305 0
    outer loop
      vertex 17.3523 74.0963 0
      vertex 17.6907 74.2823 30
      vertex 17.3523 74.0963 30
    endloop
  endfacet
  facet normal 0.481756 -0.876305 0
    outer loop
      vertex 17.6907 74.2823 30
      vertex 17.3523 74.0963 0
      vertex 17.6907 74.2823 0
    endloop
  endfacet
  facet normal 0.587787 -0.809015 0
    outer loop
      vertex 17.0399 73.8693 0
      vertex 17.3523 74.0963 30
      vertex 17.0399 73.8693 30
    endloop
  endfacet
  facet normal 0.587787 -0.809015 0
    outer loop
      vertex 17.3523 74.0963 30
      vertex 17.0399 73.8693 0
      vertex 17.3523 74.0963 0
    endloop
  endfacet
  facet normal 0.770509 -0.63743 0
    outer loop
      vertex 16.5123 73.3074 30
      vertex 16.7584 73.605 0
      vertex 16.7584 73.605 30
    endloop
  endfacet
  facet normal 0.770509 -0.63743 0
    outer loop
      vertex 16.7584 73.605 0
      vertex 16.5123 73.3074 30
      vertex 16.5123 73.3074 0
    endloop
  endfacet
  facet normal -0.998027 -0.0627928 0
    outer loop
      vertex 22.075 71.5 0
      vertex 22.0508 71.8854 30
      vertex 22.0508 71.8854 0
    endloop
  endfacet
  facet normal -0.998027 -0.0627928 0
    outer loop
      vertex 22.0508 71.8854 30
      vertex 22.075 71.5 0
      vertex 22.075 71.5 30
    endloop
  endfacet
  facet normal -0.125339 0.992114 0
    outer loop
      vertex 19.5762 68.4795 0
      vertex 19.1931 68.4311 30
      vertex 19.5762 68.4795 30
    endloop
  endfacet
  facet normal -0.125339 0.992114 0
    outer loop
      vertex 19.1931 68.4311 30
      vertex 19.5762 68.4795 0
      vertex 19.1931 68.4311 0
    endloop
  endfacet
  facet normal -0.844331 0.535822 0
    outer loop
      vertex 21.4877 69.6926 0
      vertex 21.6946 70.0186 30
      vertex 21.6946 70.0186 0
    endloop
  endfacet
  facet normal -0.844331 0.535822 0
    outer loop
      vertex 21.6946 70.0186 30
      vertex 21.4877 69.6926 0
      vertex 21.4877 69.6926 30
    endloop
  endfacet
  facet normal -0.248682 0.968585 0
    outer loop
      vertex 19.9502 68.5755 0
      vertex 19.5762 68.4795 30
      vertex 19.9502 68.5755 30
    endloop
  endfacet
  facet normal -0.248682 0.968585 0
    outer loop
      vertex 19.5762 68.4795 30
      vertex 19.9502 68.5755 0
      vertex 19.5762 68.4795 0
    endloop
  endfacet
  facet normal -0.481754 0.876306 0
    outer loop
      vertex 20.6477 68.9037 0
      vertex 20.3093 68.7177 30
      vertex 20.6477 68.9037 30
    endloop
  endfacet
  facet normal -0.481754 0.876306 0
    outer loop
      vertex 20.3093 68.7177 30
      vertex 20.6477 68.9037 0
      vertex 20.3093 68.7177 0
    endloop
  endfacet
  facet normal -0.684556 0.72896 0
    outer loop
      vertex 21.2416 69.395 0
      vertex 20.9601 69.1307 30
      vertex 21.2416 69.395 30
    endloop
  endfacet
  facet normal -0.684556 0.72896 0
    outer loop
      vertex 20.9601 69.1307 30
      vertex 21.2416 69.395 0
      vertex 20.9601 69.1307 0
    endloop
  endfacet
  facet normal -0.587775 0.809025 0
    outer loop
      vertex 20.9601 69.1307 0
      vertex 20.6477 68.9037 30
      vertex 20.9601 69.1307 30
    endloop
  endfacet
  facet normal -0.587775 0.809025 0
    outer loop
      vertex 20.6477 68.9037 30
      vertex 20.9601 69.1307 0
      vertex 20.6477 68.9037 0
    endloop
  endfacet
  facet normal 0 1 -0
    outer loop
      vertex 19.1931 68.4311 0
      vertex 18.8069 68.4311 30
      vertex 19.1931 68.4311 30
    endloop
  endfacet
  facet normal 0 1 0
    outer loop
      vertex 18.8069 68.4311 30
      vertex 19.1931 68.4311 0
      vertex 18.8069 68.4311 0
    endloop
  endfacet
  facet normal 0.248682 0.968585 -0
    outer loop
      vertex 18.4238 68.4795 0
      vertex 18.0498 68.5755 30
      vertex 18.4238 68.4795 30
    endloop
  endfacet
  facet normal 0.248682 0.968585 0
    outer loop
      vertex 18.0498 68.5755 30
      vertex 18.4238 68.4795 0
      vertex 18.0498 68.5755 0
    endloop
  endfacet
  facet normal 0.125338 0.992114 -0
    outer loop
      vertex 18.8069 68.4311 0
      vertex 18.4238 68.4795 30
      vertex 18.8069 68.4311 30
    endloop
  endfacet
  facet normal 0.125338 0.992114 0
    outer loop
      vertex 18.4238 68.4795 30
      vertex 18.8069 68.4311 0
      vertex 18.4238 68.4795 0
    endloop
  endfacet
  facet normal 0.587775 0.809025 -0
    outer loop
      vertex 17.3523 68.9037 0
      vertex 17.0399 69.1307 30
      vertex 17.3523 68.9037 30
    endloop
  endfacet
  facet normal 0.587775 0.809025 0
    outer loop
      vertex 17.0399 69.1307 30
      vertex 17.3523 68.9037 0
      vertex 17.0399 69.1307 0
    endloop
  endfacet
  facet normal 0.90483 0.425773 0
    outer loop
      vertex 16.3054 70.0186 30
      vertex 16.1409 70.368 0
      vertex 16.1409 70.368 30
    endloop
  endfacet
  facet normal 0.90483 0.425773 0
    outer loop
      vertex 16.1409 70.368 0
      vertex 16.3054 70.0186 30
      vertex 16.3054 70.0186 0
    endloop
  endfacet
  facet normal 0.982287 0.187381 0
    outer loop
      vertex 16.0216 70.7353 30
      vertex 15.9492 71.1146 0
      vertex 15.9492 71.1146 30
    endloop
  endfacet
  facet normal 0.982287 0.187381 0
    outer loop
      vertex 15.9492 71.1146 0
      vertex 16.0216 70.7353 30
      vertex 16.0216 70.7353 0
    endloop
  endfacet
  facet normal 0.770509 0.63743 0
    outer loop
      vertex 16.7584 69.395 30
      vertex 16.5123 69.6926 0
      vertex 16.5123 69.6926 30
    endloop
  endfacet
  facet normal 0.770509 0.63743 0
    outer loop
      vertex 16.5123 69.6926 0
      vertex 16.7584 69.395 30
      vertex 16.7584 69.395 0
    endloop
  endfacet
  facet normal 0.684554 0.728962 -0
    outer loop
      vertex 17.0399 69.1307 0
      vertex 16.7584 69.395 30
      vertex 17.0399 69.1307 30
    endloop
  endfacet
  facet normal 0.684554 0.728962 0
    outer loop
      vertex 16.7584 69.395 30
      vertex 17.0399 69.1307 0
      vertex 16.7584 69.395 0
    endloop
  endfacet
  facet normal 0.998027 -0.0627903 0
    outer loop
      vertex 15.925 71.5 30
      vertex 15.9492 71.8854 0
      vertex 15.9492 71.8854 30
    endloop
  endfacet
  facet normal 0.998027 -0.0627903 0
    outer loop
      vertex 15.9492 71.8854 0
      vertex 15.925 71.5 30
      vertex 15.925 71.5 0
    endloop
  endfacet
  facet normal -0.998027 0.0627928 0
    outer loop
      vertex 22.0508 71.1146 0
      vertex 22.075 71.5 30
      vertex 22.075 71.5 0
    endloop
  endfacet
  facet normal -0.998027 0.0627928 0
    outer loop
      vertex 22.075 71.5 30
      vertex 22.0508 71.1146 0
      vertex 22.0508 71.1146 30
    endloop
  endfacet
  facet normal -0.951055 0.309023 0
    outer loop
      vertex 21.8591 70.368 0
      vertex 21.9784 70.7353 30
      vertex 21.9784 70.7353 0
    endloop
  endfacet
  facet normal -0.951055 0.309023 0
    outer loop
      vertex 21.9784 70.7353 30
      vertex 21.8591 70.368 0
      vertex 21.8591 70.368 30
    endloop
  endfacet
  facet normal -0.904828 0.425777 0
    outer loop
      vertex 21.6946 70.0186 0
      vertex 21.8591 70.368 30
      vertex 21.8591 70.368 0
    endloop
  endfacet
  facet normal -0.904828 0.425777 0
    outer loop
      vertex 21.8591 70.368 30
      vertex 21.6946 70.0186 0
      vertex 21.6946 70.0186 30
    endloop
  endfacet
endsolid OpenSCAD_Model
