solid OpenSCAD_Model
  facet normal -0.500034 0.866006 0
    outer loop
      vertex 8.22487 5.01436 1.90735e-07
      vertex 8.2 5 2.4
      vertex 8.22487 5.01436 2.4
    endloop
  endfacet
  facet normal -0.500034 0.866006 0
    outer loop
      vertex 8.2 5 2.4
      vertex 8.22487 5.01436 1.90735e-07
      vertex 8.2 5 1.90735e-07
    endloop
  endfacet
  facet normal -0.500034 0.866006 0
    outer loop
      vertex 3.4 2.22872 1.90735e-07
      vertex 3.37513 2.21436 2.4
      vertex 3.4 2.22872 2.4
    endloop
  endfacet
  facet normal -0.500034 0.866006 0
    outer loop
      vertex 3.37513 2.21436 2.4
      vertex 3.4 2.22872 1.90735e-07
      vertex 3.37513 2.21436 1.90735e-07
    endloop
  endfacet
  facet normal 0 0 -1
    outer loop
      vertex 3.62467 5.99923 2.4
      vertex 3.37513 7.78564 2.4
      vertex 3.4 7.77128 2.4
    endloop
  endfacet
  facet normal 0 0 -1
    outer loop
      vertex 1.8 5 2.4
      vertex 3.41938 5.62581 2.4
      vertex 3.35341 5.42277 2.4
    endloop
  endfacet
  facet normal 0 0 -1
    outer loop
      vertex 1.8 5 2.4
      vertex 3.35341 5.42277 2.4
      vertex 3.31341 5.21307 2.4
    endloop
  endfacet
  facet normal 0 0 -1
    outer loop
      vertex 1.8 5 2.4
      vertex 3.31341 5.21307 2.4
      vertex 3.3 5 2.4
    endloop
  endfacet
  facet normal 0 0 -1
    outer loop
      vertex 3.41938 5.62581 2.4
      vertex 1.8 5 2.4
      vertex 1.77513 5.01436 2.4
    endloop
  endfacet
  facet normal -0 0 -1
    outer loop
      vertex 3.51028 5.81898 2.4
      vertex 1.77513 5.01436 2.4
      vertex 3.37513 7.78564 2.4
    endloop
  endfacet
  facet normal 0 0 -1
    outer loop
      vertex 5.31855 3.33011 2.4
      vertex 6.6 2.22872 2.4
      vertex 6.6 2.2 2.4
    endloop
  endfacet
  facet normal 0 0 -1
    outer loop
      vertex 6.6 2.22872 2.4
      vertex 6.48972 4.18102 2.4
      vertex 6.58062 4.37419 2.4
    endloop
  endfacet
  facet normal 0 0 -1
    outer loop
      vertex 6.6 2.22872 2.4
      vertex 6.37533 4.00077 2.4
      vertex 6.48972 4.18102 2.4
    endloop
  endfacet
  facet normal 0 0 -1
    outer loop
      vertex 6.6 2.22872 2.4
      vertex 6.23925 3.83627 2.4
      vertex 6.37533 4.00077 2.4
    endloop
  endfacet
  facet normal 0 0 -1
    outer loop
      vertex 6.6 2.22872 2.4
      vertex 6.08362 3.69013 2.4
      vertex 6.23925 3.83627 2.4
    endloop
  endfacet
  facet normal 0 0 -1
    outer loop
      vertex 6.6 2.22872 2.4
      vertex 5.9109 3.56464 2.4
      vertex 6.08362 3.69013 2.4
    endloop
  endfacet
  facet normal 0 0 -1
    outer loop
      vertex 6.6 2.22872 2.4
      vertex 5.72382 3.46179 2.4
      vertex 5.9109 3.56464 2.4
    endloop
  endfacet
  facet normal 0 0 -1
    outer loop
      vertex 6.6 2.22872 2.4
      vertex 5.52533 3.3832 2.4
      vertex 5.72382 3.46179 2.4
    endloop
  endfacet
  facet normal 0 0 -1
    outer loop
      vertex 6.6 2.22872 2.4
      vertex 5.31855 3.33011 2.4
      vertex 5.52533 3.3832 2.4
    endloop
  endfacet
  facet normal 0 0 -1
    outer loop
      vertex 6.6 2.2 2.4
      vertex 5.10674 3.30336 2.4
      vertex 5.31855 3.33011 2.4
    endloop
  endfacet
  facet normal 0 0 -1
    outer loop
      vertex 6.6 2.2 2.4
      vertex 4.89326 3.30336 2.4
      vertex 5.10674 3.30336 2.4
    endloop
  endfacet
  facet normal 0 0 -1
    outer loop
      vertex 3.4 2.2 2.4
      vertex 4.89326 3.30336 2.4
      vertex 6.6 2.2 2.4
    endloop
  endfacet
  facet normal -0 0 -1
    outer loop
      vertex 4.89326 3.30336 2.4
      vertex 3.4 2.2 2.4
      vertex 4.68145 3.33011 2.4
    endloop
  endfacet
  facet normal 0 0 -1
    outer loop
      vertex 3.4 2.22872 2.4
      vertex 4.68145 3.33011 2.4
      vertex 3.4 2.2 2.4
    endloop
  endfacet
  facet normal -0 0 -1
    outer loop
      vertex 4.68145 3.33011 2.4
      vertex 3.4 2.22872 2.4
      vertex 4.47467 3.3832 2.4
    endloop
  endfacet
  facet normal -0 0 -1
    outer loop
      vertex 4.47467 3.3832 2.4
      vertex 3.4 2.22872 2.4
      vertex 4.27618 3.46179 2.4
    endloop
  endfacet
  facet normal -0 0 -1
    outer loop
      vertex 4.27618 3.46179 2.4
      vertex 3.4 2.22872 2.4
      vertex 4.0891 3.56464 2.4
    endloop
  endfacet
  facet normal -0 0 -1
    outer loop
      vertex 4.0891 3.56464 2.4
      vertex 3.4 2.22872 2.4
      vertex 3.91638 3.69013 2.4
    endloop
  endfacet
  facet normal -0 0 -1
    outer loop
      vertex 3.91638 3.69013 2.4
      vertex 3.4 2.22872 2.4
      vertex 3.76075 3.83627 2.4
    endloop
  endfacet
  facet normal -0 0 -1
    outer loop
      vertex 3.76075 3.83627 2.4
      vertex 3.4 2.22872 2.4
      vertex 3.62467 4.00077 2.4
    endloop
  endfacet
  facet normal 0 0 -1
    outer loop
      vertex 3.37513 2.21436 2.4
      vertex 3.62467 4.00077 2.4
      vertex 3.4 2.22872 2.4
    endloop
  endfacet
  facet normal -0 0 -1
    outer loop
      vertex 3.62467 4.00077 2.4
      vertex 3.37513 2.21436 2.4
      vertex 3.51028 4.18102 2.4
    endloop
  endfacet
  facet normal 0 0 -1
    outer loop
      vertex 1.77513 4.98564 2.4
      vertex 3.51028 4.18102 2.4
      vertex 3.37513 2.21436 2.4
    endloop
  endfacet
  facet normal 0 0 -1
    outer loop
      vertex 3.51028 4.18102 2.4
      vertex 1.77513 4.98564 2.4
      vertex 3.41938 4.37419 2.4
    endloop
  endfacet
  facet normal 0 -0 -1
    outer loop
      vertex 1.8 5 2.4
      vertex 3.41938 4.37419 2.4
      vertex 1.77513 4.98564 2.4
    endloop
  endfacet
  facet normal 0 0 -1
    outer loop
      vertex 3.41938 4.37419 2.4
      vertex 1.8 5 2.4
      vertex 3.35341 4.57723 2.4
    endloop
  endfacet
  facet normal 0 0 -1
    outer loop
      vertex 3.35341 4.57723 2.4
      vertex 1.8 5 2.4
      vertex 3.31341 4.78693 2.4
    endloop
  endfacet
  facet normal 0 0 -1
    outer loop
      vertex 3.31341 4.78693 2.4
      vertex 1.8 5 2.4
      vertex 3.3 5 2.4
    endloop
  endfacet
  facet normal 0 0 -1
    outer loop
      vertex 6.58062 4.37419 2.4
      vertex 8.2 5 2.4
      vertex 8.22487 4.98564 2.4
    endloop
  endfacet
  facet normal -0 0 -1
    outer loop
      vertex 8.2 5 2.4
      vertex 6.68659 4.78693 2.4
      vertex 6.7 5 2.4
    endloop
  endfacet
  facet normal 0 0 -1
    outer loop
      vertex 8.2 5 2.4
      vertex 6.64659 4.57723 2.4
      vertex 6.68659 4.78693 2.4
    endloop
  endfacet
  facet normal 0 0 -1
    outer loop
      vertex 6.58062 4.37419 2.4
      vertex 8.22487 4.98564 2.4
      vertex 6.62487 2.21436 2.4
    endloop
  endfacet
  facet normal 0 0 -1
    outer loop
      vertex 6.58062 4.37419 2.4
      vertex 6.62487 2.21436 2.4
      vertex 6.6 2.22872 2.4
    endloop
  endfacet
  facet normal 0 0 -1
    outer loop
      vertex 8.2 5 2.4
      vertex 6.58062 4.37419 2.4
      vertex 6.64659 4.57723 2.4
    endloop
  endfacet
  facet normal 0 0 -1
    outer loop
      vertex 6.68659 5.21307 2.4
      vertex 8.2 5 2.4
      vertex 6.7 5 2.4
    endloop
  endfacet
  facet normal 0 0 -1
    outer loop
      vertex 6.64659 5.42277 2.4
      vertex 8.2 5 2.4
      vertex 6.68659 5.21307 2.4
    endloop
  endfacet
  facet normal 0 0 -1
    outer loop
      vertex 6.58062 5.62581 2.4
      vertex 8.2 5 2.4
      vertex 6.64659 5.42277 2.4
    endloop
  endfacet
  facet normal 0 0 -1
    outer loop
      vertex 8.2 5 2.4
      vertex 6.58062 5.62581 2.4
      vertex 8.22487 5.01436 2.4
    endloop
  endfacet
  facet normal 0 0 -1
    outer loop
      vertex 6.48972 5.81898 2.4
      vertex 8.22487 5.01436 2.4
      vertex 6.58062 5.62581 2.4
    endloop
  endfacet
  facet normal 0 0 -1
    outer loop
      vertex 8.22487 5.01436 2.4
      vertex 6.48972 5.81898 2.4
      vertex 6.62487 7.78564 2.4
    endloop
  endfacet
  facet normal 0 0 -1
    outer loop
      vertex 6.37533 5.99923 2.4
      vertex 6.62487 7.78564 2.4
      vertex 6.48972 5.81898 2.4
    endloop
  endfacet
  facet normal 0 0 -1
    outer loop
      vertex 6.62487 7.78564 2.4
      vertex 6.37533 5.99923 2.4
      vertex 6.6 7.77128 2.4
    endloop
  endfacet
  facet normal 0 0 -1
    outer loop
      vertex 6.23925 6.16373 2.4
      vertex 6.6 7.77128 2.4
      vertex 6.37533 5.99923 2.4
    endloop
  endfacet
  facet normal 0 0 -1
    outer loop
      vertex 6.08362 6.30987 2.4
      vertex 6.6 7.77128 2.4
      vertex 6.23925 6.16373 2.4
    endloop
  endfacet
  facet normal 0 0 -1
    outer loop
      vertex 5.9109 6.43536 2.4
      vertex 6.6 7.77128 2.4
      vertex 6.08362 6.30987 2.4
    endloop
  endfacet
  facet normal 0 0 -1
    outer loop
      vertex 5.72382 6.53821 2.4
      vertex 6.6 7.77128 2.4
      vertex 5.9109 6.43536 2.4
    endloop
  endfacet
  facet normal 0 0 -1
    outer loop
      vertex 5.52533 6.6168 2.4
      vertex 6.6 7.77128 2.4
      vertex 5.72382 6.53821 2.4
    endloop
  endfacet
  facet normal 0 0 -1
    outer loop
      vertex 5.31855 6.66989 2.4
      vertex 6.6 7.77128 2.4
      vertex 5.52533 6.6168 2.4
    endloop
  endfacet
  facet normal -0 0 -1
    outer loop
      vertex 6.6 7.77128 2.4
      vertex 5.31855 6.66989 2.4
      vertex 6.6 7.8 2.4
    endloop
  endfacet
  facet normal 0 0 -1
    outer loop
      vertex 5.10674 6.69664 2.4
      vertex 6.6 7.8 2.4
      vertex 5.31855 6.66989 2.4
    endloop
  endfacet
  facet normal 0 0 -1
    outer loop
      vertex 4.89326 6.69664 2.4
      vertex 6.6 7.8 2.4
      vertex 5.10674 6.69664 2.4
    endloop
  endfacet
  facet normal 0 0 -1
    outer loop
      vertex 3.4 7.8 2.4
      vertex 4.89326 6.69664 2.4
      vertex 4.68145 6.66989 2.4
    endloop
  endfacet
  facet normal 0 0 -1
    outer loop
      vertex 3.4 7.77128 2.4
      vertex 4.68145 6.66989 2.4
      vertex 4.47467 6.6168 2.4
    endloop
  endfacet
  facet normal 0 0 -1
    outer loop
      vertex 3.4 7.77128 2.4
      vertex 4.47467 6.6168 2.4
      vertex 4.27618 6.53821 2.4
    endloop
  endfacet
  facet normal 0 0 -1
    outer loop
      vertex 1.77513 5.01436 2.4
      vertex 3.51028 5.81898 2.4
      vertex 3.41938 5.62581 2.4
    endloop
  endfacet
  facet normal 0 0 -1
    outer loop
      vertex 3.37513 7.78564 2.4
      vertex 3.62467 5.99923 2.4
      vertex 3.51028 5.81898 2.4
    endloop
  endfacet
  facet normal 0 0 -1
    outer loop
      vertex 3.4 7.77128 2.4
      vertex 3.76075 6.16373 2.4
      vertex 3.62467 5.99923 2.4
    endloop
  endfacet
  facet normal 0 0 -1
    outer loop
      vertex 3.4 7.77128 2.4
      vertex 3.91638 6.30987 2.4
      vertex 3.76075 6.16373 2.4
    endloop
  endfacet
  facet normal 0 0 -1
    outer loop
      vertex 3.4 7.77128 2.4
      vertex 4.0891 6.43536 2.4
      vertex 3.91638 6.30987 2.4
    endloop
  endfacet
  facet normal 0 0 -1
    outer loop
      vertex 3.4 7.77128 2.4
      vertex 4.27618 6.53821 2.4
      vertex 4.0891 6.43536 2.4
    endloop
  endfacet
  facet normal 0 0 -1
    outer loop
      vertex 4.68145 6.66989 2.4
      vertex 3.4 7.77128 2.4
      vertex 3.4 7.8 2.4
    endloop
  endfacet
  facet normal 0 0 -1
    outer loop
      vertex 4.89326 6.69664 2.4
      vertex 3.4 7.8 2.4
      vertex 6.6 7.8 2.4
    endloop
  endfacet
  facet normal 0 0 1
    outer loop
      vertex 3.62467 4.00077 1.90735e-07
      vertex 3.37513 2.21436 1.90735e-07
      vertex 3.4 2.22872 1.90735e-07
    endloop
  endfacet
  facet normal 0 0 1
    outer loop
      vertex 1.8 5 1.90735e-07
      vertex 3.41938 4.37419 1.90735e-07
      vertex 3.35341 4.57723 1.90735e-07
    endloop
  endfacet
  facet normal 0 0 1
    outer loop
      vertex 1.8 5 1.90735e-07
      vertex 3.35341 4.57723 1.90735e-07
      vertex 3.31341 4.78693 1.90735e-07
    endloop
  endfacet
  facet normal -0 0 1
    outer loop
      vertex 1.8 5 1.90735e-07
      vertex 3.31341 4.78693 1.90735e-07
      vertex 3.3 5 1.90735e-07
    endloop
  endfacet
  facet normal 0 0 1
    outer loop
      vertex 3.41938 4.37419 1.90735e-07
      vertex 1.8 5 1.90735e-07
      vertex 1.77513 4.98564 1.90735e-07
    endloop
  endfacet
  facet normal 0 0 1
    outer loop
      vertex 3.51028 4.18102 1.90735e-07
      vertex 1.77513 4.98564 1.90735e-07
      vertex 3.37513 2.21436 1.90735e-07
    endloop
  endfacet
  facet normal 0 0 1
    outer loop
      vertex 5.31855 6.66989 1.90735e-07
      vertex 6.6 7.77128 1.90735e-07
      vertex 6.6 7.8 1.90735e-07
    endloop
  endfacet
  facet normal 0 0 1
    outer loop
      vertex 6.6 7.77128 1.90735e-07
      vertex 6.48972 5.81898 1.90735e-07
      vertex 6.58062 5.62581 1.90735e-07
    endloop
  endfacet
  facet normal 0 0 1
    outer loop
      vertex 6.6 7.77128 1.90735e-07
      vertex 6.37533 5.99923 1.90735e-07
      vertex 6.48972 5.81898 1.90735e-07
    endloop
  endfacet
  facet normal 0 0 1
    outer loop
      vertex 6.6 7.77128 1.90735e-07
      vertex 6.23925 6.16373 1.90735e-07
      vertex 6.37533 5.99923 1.90735e-07
    endloop
  endfacet
  facet normal 0 0 1
    outer loop
      vertex 6.6 7.77128 1.90735e-07
      vertex 6.08362 6.30987 1.90735e-07
      vertex 6.23925 6.16373 1.90735e-07
    endloop
  endfacet
  facet normal 0 0 1
    outer loop
      vertex 6.6 7.77128 1.90735e-07
      vertex 5.9109 6.43536 1.90735e-07
      vertex 6.08362 6.30987 1.90735e-07
    endloop
  endfacet
  facet normal 0 0 1
    outer loop
      vertex 6.6 7.77128 1.90735e-07
      vertex 5.72382 6.53821 1.90735e-07
      vertex 5.9109 6.43536 1.90735e-07
    endloop
  endfacet
  facet normal 0 0 1
    outer loop
      vertex 6.6 7.77128 1.90735e-07
      vertex 5.52533 6.6168 1.90735e-07
      vertex 5.72382 6.53821 1.90735e-07
    endloop
  endfacet
  facet normal 0 0 1
    outer loop
      vertex 6.6 7.77128 1.90735e-07
      vertex 5.31855 6.66989 1.90735e-07
      vertex 5.52533 6.6168 1.90735e-07
    endloop
  endfacet
  facet normal 0 0 1
    outer loop
      vertex 6.6 7.8 1.90735e-07
      vertex 5.10674 6.69664 1.90735e-07
      vertex 5.31855 6.66989 1.90735e-07
    endloop
  endfacet
  facet normal 0 0 1
    outer loop
      vertex 6.6 7.8 1.90735e-07
      vertex 4.89326 6.69664 1.90735e-07
      vertex 5.10674 6.69664 1.90735e-07
    endloop
  endfacet
  facet normal -0 0 1
    outer loop
      vertex 3.4 7.8 1.90735e-07
      vertex 4.89326 6.69664 1.90735e-07
      vertex 6.6 7.8 1.90735e-07
    endloop
  endfacet
  facet normal 0 0 1
    outer loop
      vertex 4.89326 6.69664 1.90735e-07
      vertex 3.4 7.8 1.90735e-07
      vertex 4.68145 6.66989 1.90735e-07
    endloop
  endfacet
  facet normal -0 0 1
    outer loop
      vertex 3.4 7.77128 1.90735e-07
      vertex 4.68145 6.66989 1.90735e-07
      vertex 3.4 7.8 1.90735e-07
    endloop
  endfacet
  facet normal 0 0 1
    outer loop
      vertex 4.68145 6.66989 1.90735e-07
      vertex 3.4 7.77128 1.90735e-07
      vertex 4.47467 6.6168 1.90735e-07
    endloop
  endfacet
  facet normal 0 0 1
    outer loop
      vertex 4.47467 6.6168 1.90735e-07
      vertex 3.4 7.77128 1.90735e-07
      vertex 4.27618 6.53821 1.90735e-07
    endloop
  endfacet
  facet normal 0 0 1
    outer loop
      vertex 4.27618 6.53821 1.90735e-07
      vertex 3.4 7.77128 1.90735e-07
      vertex 4.0891 6.43536 1.90735e-07
    endloop
  endfacet
  facet normal 0 0 1
    outer loop
      vertex 4.0891 6.43536 1.90735e-07
      vertex 3.4 7.77128 1.90735e-07
      vertex 3.91638 6.30987 1.90735e-07
    endloop
  endfacet
  facet normal 0 0 1
    outer loop
      vertex 3.91638 6.30987 1.90735e-07
      vertex 3.4 7.77128 1.90735e-07
      vertex 3.76075 6.16373 1.90735e-07
    endloop
  endfacet
  facet normal 0 0 1
    outer loop
      vertex 3.76075 6.16373 1.90735e-07
      vertex 3.4 7.77128 1.90735e-07
      vertex 3.62467 5.99923 1.90735e-07
    endloop
  endfacet
  facet normal 0 0 1
    outer loop
      vertex 3.37513 7.78564 1.90735e-07
      vertex 3.62467 5.99923 1.90735e-07
      vertex 3.4 7.77128 1.90735e-07
    endloop
  endfacet
  facet normal 0 0 1
    outer loop
      vertex 3.62467 5.99923 1.90735e-07
      vertex 3.37513 7.78564 1.90735e-07
      vertex 3.51028 5.81898 1.90735e-07
    endloop
  endfacet
  facet normal 0 0 1
    outer loop
      vertex 1.77513 5.01436 1.90735e-07
      vertex 3.51028 5.81898 1.90735e-07
      vertex 3.37513 7.78564 1.90735e-07
    endloop
  endfacet
  facet normal 0 0 1
    outer loop
      vertex 3.51028 5.81898 1.90735e-07
      vertex 1.77513 5.01436 1.90735e-07
      vertex 3.41938 5.62581 1.90735e-07
    endloop
  endfacet
  facet normal 0 -0 1
    outer loop
      vertex 1.8 5 1.90735e-07
      vertex 3.41938 5.62581 1.90735e-07
      vertex 1.77513 5.01436 1.90735e-07
    endloop
  endfacet
  facet normal 0 0 1
    outer loop
      vertex 3.41938 5.62581 1.90735e-07
      vertex 1.8 5 1.90735e-07
      vertex 3.35341 5.42277 1.90735e-07
    endloop
  endfacet
  facet normal 0 0 1
    outer loop
      vertex 3.35341 5.42277 1.90735e-07
      vertex 1.8 5 1.90735e-07
      vertex 3.31341 5.21307 1.90735e-07
    endloop
  endfacet
  facet normal 0 0 1
    outer loop
      vertex 3.31341 5.21307 1.90735e-07
      vertex 1.8 5 1.90735e-07
      vertex 3.3 5 1.90735e-07
    endloop
  endfacet
  facet normal 0 0 1
    outer loop
      vertex 6.58062 5.62581 1.90735e-07
      vertex 8.2 5 1.90735e-07
      vertex 8.22487 5.01436 1.90735e-07
    endloop
  endfacet
  facet normal 0 0 1
    outer loop
      vertex 8.2 5 1.90735e-07
      vertex 6.68659 5.21307 1.90735e-07
      vertex 6.7 5 1.90735e-07
    endloop
  endfacet
  facet normal 0 0 1
    outer loop
      vertex 8.2 5 1.90735e-07
      vertex 6.64659 5.42277 1.90735e-07
      vertex 6.68659 5.21307 1.90735e-07
    endloop
  endfacet
  facet normal -0 0 1
    outer loop
      vertex 6.58062 5.62581 1.90735e-07
      vertex 8.22487 5.01436 1.90735e-07
      vertex 6.62487 7.78564 1.90735e-07
    endloop
  endfacet
  facet normal 0 0 1
    outer loop
      vertex 6.58062 5.62581 1.90735e-07
      vertex 6.62487 7.78564 1.90735e-07
      vertex 6.6 7.77128 1.90735e-07
    endloop
  endfacet
  facet normal 0 0 1
    outer loop
      vertex 8.2 5 1.90735e-07
      vertex 6.58062 5.62581 1.90735e-07
      vertex 6.64659 5.42277 1.90735e-07
    endloop
  endfacet
  facet normal 0 0 1
    outer loop
      vertex 6.68659 4.78693 1.90735e-07
      vertex 8.2 5 1.90735e-07
      vertex 6.7 5 1.90735e-07
    endloop
  endfacet
  facet normal 0 0 1
    outer loop
      vertex 6.64659 4.57723 1.90735e-07
      vertex 8.2 5 1.90735e-07
      vertex 6.68659 4.78693 1.90735e-07
    endloop
  endfacet
  facet normal 0 0 1
    outer loop
      vertex 6.58062 4.37419 1.90735e-07
      vertex 8.2 5 1.90735e-07
      vertex 6.64659 4.57723 1.90735e-07
    endloop
  endfacet
  facet normal 0 0 1
    outer loop
      vertex 8.2 5 1.90735e-07
      vertex 6.58062 4.37419 1.90735e-07
      vertex 8.22487 4.98564 1.90735e-07
    endloop
  endfacet
  facet normal 0 0 1
    outer loop
      vertex 6.48972 4.18102 1.90735e-07
      vertex 8.22487 4.98564 1.90735e-07
      vertex 6.58062 4.37419 1.90735e-07
    endloop
  endfacet
  facet normal 0 0 1
    outer loop
      vertex 8.22487 4.98564 1.90735e-07
      vertex 6.48972 4.18102 1.90735e-07
      vertex 6.62487 2.21436 1.90735e-07
    endloop
  endfacet
  facet normal -0 0 1
    outer loop
      vertex 6.37533 4.00077 1.90735e-07
      vertex 6.62487 2.21436 1.90735e-07
      vertex 6.48972 4.18102 1.90735e-07
    endloop
  endfacet
  facet normal 0 0 1
    outer loop
      vertex 6.62487 2.21436 1.90735e-07
      vertex 6.37533 4.00077 1.90735e-07
      vertex 6.6 2.22872 1.90735e-07
    endloop
  endfacet
  facet normal -0 0 1
    outer loop
      vertex 6.23925 3.83627 1.90735e-07
      vertex 6.6 2.22872 1.90735e-07
      vertex 6.37533 4.00077 1.90735e-07
    endloop
  endfacet
  facet normal -0 0 1
    outer loop
      vertex 6.08362 3.69013 1.90735e-07
      vertex 6.6 2.22872 1.90735e-07
      vertex 6.23925 3.83627 1.90735e-07
    endloop
  endfacet
  facet normal -0 0 1
    outer loop
      vertex 5.9109 3.56464 1.90735e-07
      vertex 6.6 2.22872 1.90735e-07
      vertex 6.08362 3.69013 1.90735e-07
    endloop
  endfacet
  facet normal -0 0 1
    outer loop
      vertex 5.72382 3.46179 1.90735e-07
      vertex 6.6 2.22872 1.90735e-07
      vertex 5.9109 3.56464 1.90735e-07
    endloop
  endfacet
  facet normal -0 0 1
    outer loop
      vertex 5.52533 3.3832 1.90735e-07
      vertex 6.6 2.22872 1.90735e-07
      vertex 5.72382 3.46179 1.90735e-07
    endloop
  endfacet
  facet normal -0 0 1
    outer loop
      vertex 5.31855 3.33011 1.90735e-07
      vertex 6.6 2.22872 1.90735e-07
      vertex 5.52533 3.3832 1.90735e-07
    endloop
  endfacet
  facet normal 0 0 1
    outer loop
      vertex 6.6 2.22872 1.90735e-07
      vertex 5.31855 3.33011 1.90735e-07
      vertex 6.6 2.2 1.90735e-07
    endloop
  endfacet
  facet normal -0 0 1
    outer loop
      vertex 5.10674 3.30336 1.90735e-07
      vertex 6.6 2.2 1.90735e-07
      vertex 5.31855 3.33011 1.90735e-07
    endloop
  endfacet
  facet normal -0 0 1
    outer loop
      vertex 4.89326 3.30336 1.90735e-07
      vertex 6.6 2.2 1.90735e-07
      vertex 5.10674 3.30336 1.90735e-07
    endloop
  endfacet
  facet normal 0 0 1
    outer loop
      vertex 3.4 2.2 1.90735e-07
      vertex 4.89326 3.30336 1.90735e-07
      vertex 4.68145 3.33011 1.90735e-07
    endloop
  endfacet
  facet normal 0 0 1
    outer loop
      vertex 3.4 2.22872 1.90735e-07
      vertex 4.68145 3.33011 1.90735e-07
      vertex 4.47467 3.3832 1.90735e-07
    endloop
  endfacet
  facet normal 0 0 1
    outer loop
      vertex 3.4 2.22872 1.90735e-07
      vertex 4.47467 3.3832 1.90735e-07
      vertex 4.27618 3.46179 1.90735e-07
    endloop
  endfacet
  facet normal 0 0 1
    outer loop
      vertex 1.77513 4.98564 1.90735e-07
      vertex 3.51028 4.18102 1.90735e-07
      vertex 3.41938 4.37419 1.90735e-07
    endloop
  endfacet
  facet normal 0 0 1
    outer loop
      vertex 3.37513 2.21436 1.90735e-07
      vertex 3.62467 4.00077 1.90735e-07
      vertex 3.51028 4.18102 1.90735e-07
    endloop
  endfacet
  facet normal 0 0 1
    outer loop
      vertex 3.4 2.22872 1.90735e-07
      vertex 3.76075 3.83627 1.90735e-07
      vertex 3.62467 4.00077 1.90735e-07
    endloop
  endfacet
  facet normal 0 0 1
    outer loop
      vertex 3.4 2.22872 1.90735e-07
      vertex 3.91638 3.69013 1.90735e-07
      vertex 3.76075 3.83627 1.90735e-07
    endloop
  endfacet
  facet normal 0 0 1
    outer loop
      vertex 3.4 2.22872 1.90735e-07
      vertex 4.0891 3.56464 1.90735e-07
      vertex 3.91638 3.69013 1.90735e-07
    endloop
  endfacet
  facet normal 0 0 1
    outer loop
      vertex 3.4 2.22872 1.90735e-07
      vertex 4.27618 3.46179 1.90735e-07
      vertex 4.0891 3.56464 1.90735e-07
    endloop
  endfacet
  facet normal 0 0 1
    outer loop
      vertex 4.68145 3.33011 1.90735e-07
      vertex 3.4 2.22872 1.90735e-07
      vertex 3.4 2.2 1.90735e-07
    endloop
  endfacet
  facet normal 0 0 1
    outer loop
      vertex 4.89326 3.30336 1.90735e-07
      vertex 3.4 2.2 1.90735e-07
      vertex 6.6 2.2 1.90735e-07
    endloop
  endfacet
  facet normal 0.500034 -0.866006 0
    outer loop
      vertex 6.6 7.77128 1.90735e-07
      vertex 6.62487 7.78564 2.4
      vertex 6.6 7.77128 2.4
    endloop
  endfacet
  facet normal 0.500034 -0.866006 0
    outer loop
      vertex 6.62487 7.78564 2.4
      vertex 6.6 7.77128 1.90735e-07
      vertex 6.62487 7.78564 1.90735e-07
    endloop
  endfacet
  facet normal 0.500034 -0.866006 0
    outer loop
      vertex 1.77513 4.98564 1.90735e-07
      vertex 1.8 5 2.4
      vertex 1.77513 4.98564 2.4
    endloop
  endfacet
  facet normal 0.500034 -0.866006 0
    outer loop
      vertex 1.8 5 2.4
      vertex 1.77513 4.98564 1.90735e-07
      vertex 1.8 5 1.90735e-07
    endloop
  endfacet
  facet normal -0.866025 -0.5 0
    outer loop
      vertex 8.22487 5.01436 1.90735e-07
      vertex 6.62487 7.78564 2.4
      vertex 6.62487 7.78564 1.90735e-07
    endloop
  endfacet
  facet normal -0.866025 -0.5 0
    outer loop
      vertex 6.62487 7.78564 2.4
      vertex 8.22487 5.01436 1.90735e-07
      vertex 8.22487 5.01436 2.4
    endloop
  endfacet
  facet normal 0.866025 0.5 0
    outer loop
      vertex 3.37513 2.21436 2.4
      vertex 1.77513 4.98564 1.90735e-07
      vertex 1.77513 4.98564 2.4
    endloop
  endfacet
  facet normal 0.866025 0.5 0
    outer loop
      vertex 1.77513 4.98564 1.90735e-07
      vertex 3.37513 2.21436 2.4
      vertex 3.37513 2.21436 1.90735e-07
    endloop
  endfacet
  facet normal -1 0 0
    outer loop
      vertex 6.6 7.77128 1.90735e-07
      vertex 6.6 7.8 2.4
      vertex 6.6 7.8 1.90735e-07
    endloop
  endfacet
  facet normal -1 -0 0
    outer loop
      vertex 6.6 7.8 2.4
      vertex 6.6 7.77128 1.90735e-07
      vertex 6.6 7.77128 2.4
    endloop
  endfacet
  facet normal -1 0 0
    outer loop
      vertex 6.6 2.2 1.90735e-07
      vertex 6.6 2.22872 2.4
      vertex 6.6 2.22872 1.90735e-07
    endloop
  endfacet
  facet normal -1 -0 0
    outer loop
      vertex 6.6 2.22872 2.4
      vertex 6.6 2.2 1.90735e-07
      vertex 6.6 2.2 2.4
    endloop
  endfacet
  facet normal 1 -0 0
    outer loop
      vertex 3.4 7.77128 2.4
      vertex 3.4 7.8 1.90735e-07
      vertex 3.4 7.8 2.4
    endloop
  endfacet
  facet normal 1 0 0
    outer loop
      vertex 3.4 7.8 1.90735e-07
      vertex 3.4 7.77128 2.4
      vertex 3.4 7.77128 1.90735e-07
    endloop
  endfacet
  facet normal 1 -0 0
    outer loop
      vertex 3.4 2.2 2.4
      vertex 3.4 2.22872 1.90735e-07
      vertex 3.4 2.22872 2.4
    endloop
  endfacet
  facet normal 1 0 0
    outer loop
      vertex 3.4 2.22872 1.90735e-07
      vertex 3.4 2.2 2.4
      vertex 3.4 2.2 1.90735e-07
    endloop
  endfacet
  facet normal 0 -1 0
    outer loop
      vertex 3.4 7.8 1.90735e-07
      vertex 6.6 7.8 2.4
      vertex 3.4 7.8 2.4
    endloop
  endfacet
  facet normal 0 -1 -0
    outer loop
      vertex 6.6 7.8 2.4
      vertex 3.4 7.8 1.90735e-07
      vertex 6.6 7.8 1.90735e-07
    endloop
  endfacet
  facet normal 0 1 -0
    outer loop
      vertex 6.6 2.2 1.90735e-07
      vertex 3.4 2.2 2.4
      vertex 6.6 2.2 2.4
    endloop
  endfacet
  facet normal 0 1 0
    outer loop
      vertex 3.4 2.2 2.4
      vertex 6.6 2.2 1.90735e-07
      vertex 3.4 2.2 1.90735e-07
    endloop
  endfacet
  facet normal -0.500034 -0.866006 0
    outer loop
      vertex 3.37513 7.78564 1.90735e-07
      vertex 3.4 7.77128 2.4
      vertex 3.37513 7.78564 2.4
    endloop
  endfacet
  facet normal -0.500034 -0.866006 -0
    outer loop
      vertex 3.4 7.77128 2.4
      vertex 3.37513 7.78564 1.90735e-07
      vertex 3.4 7.77128 1.90735e-07
    endloop
  endfacet
  facet normal -0.500034 -0.866006 0
    outer loop
      vertex 8.2 5 1.90735e-07
      vertex 8.22487 4.98564 2.4
      vertex 8.2 5 2.4
    endloop
  endfacet
  facet normal -0.500034 -0.866006 -0
    outer loop
      vertex 8.22487 4.98564 2.4
      vertex 8.2 5 1.90735e-07
      vertex 8.22487 4.98564 1.90735e-07
    endloop
  endfacet
  facet normal 0.500034 0.866006 -0
    outer loop
      vertex 1.8 5 1.90735e-07
      vertex 1.77513 5.01436 2.4
      vertex 1.8 5 2.4
    endloop
  endfacet
  facet normal 0.500034 0.866006 0
    outer loop
      vertex 1.77513 5.01436 2.4
      vertex 1.8 5 1.90735e-07
      vertex 1.77513 5.01436 1.90735e-07
    endloop
  endfacet
  facet normal 0.500034 0.866006 -0
    outer loop
      vertex 6.62487 2.21436 1.90735e-07
      vertex 6.6 2.22872 2.4
      vertex 6.62487 2.21436 2.4
    endloop
  endfacet
  facet normal 0.500034 0.866006 0
    outer loop
      vertex 6.6 2.22872 2.4
      vertex 6.62487 2.21436 1.90735e-07
      vertex 6.6 2.22872 1.90735e-07
    endloop
  endfacet
  facet normal 0.866025 -0.5 0
    outer loop
      vertex 1.77513 5.01436 2.4
      vertex 3.37513 7.78564 1.90735e-07
      vertex 3.37513 7.78564 2.4
    endloop
  endfacet
  facet normal 0.866025 -0.5 0
    outer loop
      vertex 3.37513 7.78564 1.90735e-07
      vertex 1.77513 5.01436 2.4
      vertex 1.77513 5.01436 1.90735e-07
    endloop
  endfacet
  facet normal -0.866025 0.5 0
    outer loop
      vertex 6.62487 2.21436 1.90735e-07
      vertex 8.22487 4.98564 2.4
      vertex 8.22487 4.98564 1.90735e-07
    endloop
  endfacet
  facet normal -0.866025 0.5 0
    outer loop
      vertex 8.22487 4.98564 2.4
      vertex 6.62487 2.21436 1.90735e-07
      vertex 6.62487 2.21436 2.4
    endloop
  endfacet
  facet normal -0.982289 0.18737 0
    outer loop
      vertex 6.64659 4.57723 2.4
      vertex 6.68659 4.78693 7
      vertex 6.68659 4.78693 2.4
    endloop
  endfacet
  facet normal -0.982289 0.18737 0
    outer loop
      vertex 6.68659 4.78693 7
      vertex 6.64659 4.57723 2.4
      vertex 6.64659 4.57723 7
    endloop
  endfacet
  facet normal -0.982289 0.18737 0
    outer loop
      vertex 6.64659 4.57723 0
      vertex 6.68659 4.78693 1.90735e-07
      vertex 6.68659 4.78693 0
    endloop
  endfacet
  facet normal -0.982289 0.18737 0
    outer loop
      vertex 6.68659 4.78693 1.90735e-07
      vertex 6.64659 4.57723 0
      vertex 6.64659 4.57723 1.90735e-07
    endloop
  endfacet
  facet normal -0.904825 0.425784 0
    outer loop
      vertex 6.48972 4.18102 2.4
      vertex 6.58062 4.37419 7
      vertex 6.58062 4.37419 2.4
    endloop
  endfacet
  facet normal -0.904825 0.425784 0
    outer loop
      vertex 6.58062 4.37419 7
      vertex 6.48972 4.18102 2.4
      vertex 6.48972 4.18102 7
    endloop
  endfacet
  facet normal -0.904825 0.425784 0
    outer loop
      vertex 6.48972 4.18102 0
      vertex 6.58062 4.37419 1.90735e-07
      vertex 6.58062 4.37419 0
    endloop
  endfacet
  facet normal -0.904825 0.425784 0
    outer loop
      vertex 6.58062 4.37419 1.90735e-07
      vertex 6.48972 4.18102 0
      vertex 6.48972 4.18102 1.90735e-07
    endloop
  endfacet
  facet normal -0.998025 -0.0628128 0
    outer loop
      vertex 6.7 5 0
      vertex 6.68659 5.21307 1.90735e-07
      vertex 6.68659 5.21307 0
    endloop
  endfacet
  facet normal -0.998025 -0.0628128 0
    outer loop
      vertex 6.68659 5.21307 1.90735e-07
      vertex 6.7 5 0
      vertex 6.7 5 1.90735e-07
    endloop
  endfacet
  facet normal -0.998025 -0.0628128 0
    outer loop
      vertex 6.7 5 2.4
      vertex 6.68659 5.21307 7
      vertex 6.68659 5.21307 2.4
    endloop
  endfacet
  facet normal -0.998025 -0.0628128 0
    outer loop
      vertex 6.68659 5.21307 7
      vertex 6.7 5 2.4
      vertex 6.7 5 7
    endloop
  endfacet
  facet normal -0.982289 -0.18737 0
    outer loop
      vertex 6.68659 5.21307 0
      vertex 6.64659 5.42277 1.90735e-07
      vertex 6.64659 5.42277 0
    endloop
  endfacet
  facet normal -0.982289 -0.18737 0
    outer loop
      vertex 6.64659 5.42277 1.90735e-07
      vertex 6.68659 5.21307 0
      vertex 6.68659 5.21307 1.90735e-07
    endloop
  endfacet
  facet normal -0.982289 -0.18737 0
    outer loop
      vertex 6.68659 5.21307 2.4
      vertex 6.64659 5.42277 7
      vertex 6.64659 5.42277 2.4
    endloop
  endfacet
  facet normal -0.982289 -0.18737 0
    outer loop
      vertex 6.64659 5.42277 7
      vertex 6.68659 5.21307 2.4
      vertex 6.68659 5.21307 7
    endloop
  endfacet
  facet normal -0.481761 -0.876303 0
    outer loop
      vertex 5.72382 6.53821 0
      vertex 5.9109 6.43536 1.90735e-07
      vertex 5.72382 6.53821 1.90735e-07
    endloop
  endfacet
  facet normal -0.481761 -0.876303 -0
    outer loop
      vertex 5.9109 6.43536 1.90735e-07
      vertex 5.72382 6.53821 0
      vertex 5.9109 6.43536 0
    endloop
  endfacet
  facet normal -0.481761 -0.876303 0
    outer loop
      vertex 5.72382 6.53821 2.4
      vertex 5.9109 6.43536 7
      vertex 5.72382 6.53821 7
    endloop
  endfacet
  facet normal -0.481761 -0.876303 -0
    outer loop
      vertex 5.9109 6.43536 7
      vertex 5.72382 6.53821 2.4
      vertex 5.9109 6.43536 2.4
    endloop
  endfacet
  facet normal -0.684531 -0.728983 0
    outer loop
      vertex 6.08362 6.30987 0
      vertex 6.23925 6.16373 1.90735e-07
      vertex 6.08362 6.30987 1.90735e-07
    endloop
  endfacet
  facet normal -0.684531 -0.728983 -0
    outer loop
      vertex 6.23925 6.16373 1.90735e-07
      vertex 6.08362 6.30987 0
      vertex 6.23925 6.16373 0
    endloop
  endfacet
  facet normal -0.684531 -0.728983 0
    outer loop
      vertex 6.08362 6.30987 2.4
      vertex 6.23925 6.16373 7
      vertex 6.08362 6.30987 7
    endloop
  endfacet
  facet normal -0.684531 -0.728983 -0
    outer loop
      vertex 6.23925 6.16373 7
      vertex 6.08362 6.30987 2.4
      vertex 6.23925 6.16373 2.4
    endloop
  endfacet
  facet normal -0.770528 0.637407 0
    outer loop
      vertex 6.23925 3.83627 2.4
      vertex 6.37533 4.00077 7
      vertex 6.37533 4.00077 2.4
    endloop
  endfacet
  facet normal -0.770528 0.637407 0
    outer loop
      vertex 6.37533 4.00077 7
      vertex 6.23925 3.83627 2.4
      vertex 6.23925 3.83627 7
    endloop
  endfacet
  facet normal -0.770528 0.637407 0
    outer loop
      vertex 6.23925 3.83627 0
      vertex 6.37533 4.00077 1.90735e-07
      vertex 6.37533 4.00077 0
    endloop
  endfacet
  facet normal -0.770528 0.637407 0
    outer loop
      vertex 6.37533 4.00077 1.90735e-07
      vertex 6.23925 3.83627 0
      vertex 6.23925 3.83627 1.90735e-07
    endloop
  endfacet
  facet normal 0.844328 -0.535826 0
    outer loop
      vertex 3.51028 5.81898 1.90735e-07
      vertex 3.62467 5.99923 0
      vertex 3.62467 5.99923 1.90735e-07
    endloop
  endfacet
  facet normal 0.844328 -0.535826 0
    outer loop
      vertex 3.62467 5.99923 0
      vertex 3.51028 5.81898 1.90735e-07
      vertex 3.51028 5.81898 0
    endloop
  endfacet
  facet normal 0.844328 -0.535826 0
    outer loop
      vertex 3.51028 5.81898 7
      vertex 3.62467 5.99923 2.4
      vertex 3.62467 5.99923 7
    endloop
  endfacet
  facet normal 0.844328 -0.535826 0
    outer loop
      vertex 3.62467 5.99923 2.4
      vertex 3.51028 5.81898 7
      vertex 3.51028 5.81898 2.4
    endloop
  endfacet
  facet normal 0.125297 0.992119 -0
    outer loop
      vertex 4.89326 3.30336 0
      vertex 4.68145 3.33011 1.90735e-07
      vertex 4.89326 3.30336 1.90735e-07
    endloop
  endfacet
  facet normal 0.125297 0.992119 0
    outer loop
      vertex 4.68145 3.33011 1.90735e-07
      vertex 4.89326 3.30336 0
      vertex 4.68145 3.33011 0
    endloop
  endfacet
  facet normal 0.125297 0.992119 -0
    outer loop
      vertex 4.89326 3.30336 2.4
      vertex 4.68145 3.33011 7
      vertex 4.89326 3.30336 7
    endloop
  endfacet
  facet normal 0.125297 0.992119 0
    outer loop
      vertex 4.68145 3.33011 7
      vertex 4.89326 3.30336 2.4
      vertex 4.68145 3.33011 2.4
    endloop
  endfacet
  facet normal 0.982289 0.18737 0
    outer loop
      vertex 3.35341 4.57723 7
      vertex 3.31341 4.78693 2.4
      vertex 3.31341 4.78693 7
    endloop
  endfacet
  facet normal 0.982289 0.18737 0
    outer loop
      vertex 3.31341 4.78693 2.4
      vertex 3.35341 4.57723 7
      vertex 3.35341 4.57723 2.4
    endloop
  endfacet
  facet normal 0.982289 0.18737 0
    outer loop
      vertex 3.35341 4.57723 1.90735e-07
      vertex 3.31341 4.78693 0
      vertex 3.31341 4.78693 1.90735e-07
    endloop
  endfacet
  facet normal 0.982289 0.18737 0
    outer loop
      vertex 3.31341 4.78693 0
      vertex 3.35341 4.57723 1.90735e-07
      vertex 3.35341 4.57723 0
    endloop
  endfacet
  facet normal -0.904825 -0.425784 0
    outer loop
      vertex 6.58062 5.62581 2.4
      vertex 6.48972 5.81898 7
      vertex 6.48972 5.81898 2.4
    endloop
  endfacet
  facet normal -0.904825 -0.425784 0
    outer loop
      vertex 6.48972 5.81898 7
      vertex 6.58062 5.62581 2.4
      vertex 6.58062 5.62581 7
    endloop
  endfacet
  facet normal -0.904825 -0.425784 0
    outer loop
      vertex 6.58062 5.62581 0
      vertex 6.48972 5.81898 1.90735e-07
      vertex 6.48972 5.81898 0
    endloop
  endfacet
  facet normal -0.904825 -0.425784 0
    outer loop
      vertex 6.48972 5.81898 1.90735e-07
      vertex 6.58062 5.62581 0
      vertex 6.58062 5.62581 1.90735e-07
    endloop
  endfacet
  facet normal 0 1 -0
    outer loop
      vertex 5.10674 3.30336 0
      vertex 4.89326 3.30336 1.90735e-07
      vertex 5.10674 3.30336 1.90735e-07
    endloop
  endfacet
  facet normal 0 1 0
    outer loop
      vertex 4.89326 3.30336 1.90735e-07
      vertex 5.10674 3.30336 0
      vertex 4.89326 3.30336 0
    endloop
  endfacet
  facet normal 0 1 -0
    outer loop
      vertex 5.10674 3.30336 2.4
      vertex 4.89326 3.30336 7
      vertex 5.10674 3.30336 7
    endloop
  endfacet
  facet normal 0 1 0
    outer loop
      vertex 4.89326 3.30336 7
      vertex 5.10674 3.30336 2.4
      vertex 4.89326 3.30336 2.4
    endloop
  endfacet
  facet normal 0.368134 0.929773 -0
    outer loop
      vertex 4.47467 3.3832 2.4
      vertex 4.27618 3.46179 7
      vertex 4.47467 3.3832 7
    endloop
  endfacet
  facet normal 0.368134 0.929773 0
    outer loop
      vertex 4.27618 3.46179 7
      vertex 4.47467 3.3832 2.4
      vertex 4.27618 3.46179 2.4
    endloop
  endfacet
  facet normal 0.368134 0.929773 -0
    outer loop
      vertex 4.47467 3.3832 0
      vertex 4.27618 3.46179 1.90735e-07
      vertex 4.47467 3.3832 1.90735e-07
    endloop
  endfacet
  facet normal 0.368134 0.929773 0
    outer loop
      vertex 4.27618 3.46179 1.90735e-07
      vertex 4.47467 3.3832 0
      vertex 4.27618 3.46179 0
    endloop
  endfacet
  facet normal 0.248681 -0.968586 0
    outer loop
      vertex 4.47467 6.6168 2.4
      vertex 4.68145 6.66989 7
      vertex 4.47467 6.6168 7
    endloop
  endfacet
  facet normal 0.248681 -0.968586 0
    outer loop
      vertex 4.68145 6.66989 7
      vertex 4.47467 6.6168 2.4
      vertex 4.68145 6.66989 2.4
    endloop
  endfacet
  facet normal 0.248681 -0.968586 0
    outer loop
      vertex 4.47467 6.6168 0
      vertex 4.68145 6.66989 1.90735e-07
      vertex 4.47467 6.6168 1.90735e-07
    endloop
  endfacet
  facet normal 0.248681 -0.968586 0
    outer loop
      vertex 4.68145 6.66989 1.90735e-07
      vertex 4.47467 6.6168 0
      vertex 4.68145 6.66989 0
    endloop
  endfacet
  facet normal 0.684531 -0.728983 0
    outer loop
      vertex 3.76075 6.16373 0
      vertex 3.91638 6.30987 1.90735e-07
      vertex 3.76075 6.16373 1.90735e-07
    endloop
  endfacet
  facet normal 0.684531 -0.728983 0
    outer loop
      vertex 3.91638 6.30987 1.90735e-07
      vertex 3.76075 6.16373 0
      vertex 3.91638 6.30987 0
    endloop
  endfacet
  facet normal 0.684531 -0.728983 0
    outer loop
      vertex 3.76075 6.16373 2.4
      vertex 3.91638 6.30987 7
      vertex 3.76075 6.16373 7
    endloop
  endfacet
  facet normal 0.684531 -0.728983 0
    outer loop
      vertex 3.91638 6.30987 7
      vertex 3.76075 6.16373 2.4
      vertex 3.91638 6.30987 2.4
    endloop
  endfacet
  facet normal -0.125297 0.992119 0
    outer loop
      vertex 5.31855 3.33011 0
      vertex 5.10674 3.30336 1.90735e-07
      vertex 5.31855 3.33011 1.90735e-07
    endloop
  endfacet
  facet normal -0.125297 0.992119 0
    outer loop
      vertex 5.10674 3.30336 1.90735e-07
      vertex 5.31855 3.33011 0
      vertex 5.10674 3.30336 0
    endloop
  endfacet
  facet normal -0.125297 0.992119 0
    outer loop
      vertex 5.31855 3.33011 2.4
      vertex 5.10674 3.30336 7
      vertex 5.31855 3.33011 7
    endloop
  endfacet
  facet normal -0.125297 0.992119 0
    outer loop
      vertex 5.10674 3.30336 7
      vertex 5.31855 3.33011 2.4
      vertex 5.10674 3.30336 2.4
    endloop
  endfacet
  facet normal 0.998025 0.0628128 0
    outer loop
      vertex 3.31341 4.78693 1.90735e-07
      vertex 3.3 5 0
      vertex 3.3 5 1.90735e-07
    endloop
  endfacet
  facet normal 0.998025 0.0628128 0
    outer loop
      vertex 3.3 5 0
      vertex 3.31341 4.78693 1.90735e-07
      vertex 3.31341 4.78693 0
    endloop
  endfacet
  facet normal 0.998025 0.0628128 0
    outer loop
      vertex 3.31341 4.78693 7
      vertex 3.3 5 2.4
      vertex 3.3 5 7
    endloop
  endfacet
  facet normal 0.998025 0.0628128 0
    outer loop
      vertex 3.3 5 2.4
      vertex 3.31341 4.78693 7
      vertex 3.31341 4.78693 2.4
    endloop
  endfacet
  facet normal 0 0 -1
    outer loop
      vertex 10 0 0
      vertex 6.7 5 0
      vertex 10 10 0
    endloop
  endfacet
  facet normal 0 0 -1
    outer loop
      vertex 10 0 0
      vertex 6.68659 4.78693 0
      vertex 6.7 5 0
    endloop
  endfacet
  facet normal 0 0 -1
    outer loop
      vertex 10 0 0
      vertex 6.64659 4.57723 0
      vertex 6.68659 4.78693 0
    endloop
  endfacet
  facet normal 0 0 -1
    outer loop
      vertex 10 0 0
      vertex 6.58062 4.37419 0
      vertex 6.64659 4.57723 0
    endloop
  endfacet
  facet normal 0 0 -1
    outer loop
      vertex 10 0 0
      vertex 6.48972 4.18102 0
      vertex 6.58062 4.37419 0
    endloop
  endfacet
  facet normal 0 0 -1
    outer loop
      vertex 10 0 0
      vertex 6.37533 4.00077 0
      vertex 6.48972 4.18102 0
    endloop
  endfacet
  facet normal 0 0 -1
    outer loop
      vertex 10 0 0
      vertex 6.23925 3.83627 0
      vertex 6.37533 4.00077 0
    endloop
  endfacet
  facet normal 0 0 -1
    outer loop
      vertex 10 0 0
      vertex 6.08362 3.69013 0
      vertex 6.23925 3.83627 0
    endloop
  endfacet
  facet normal 0 0 -1
    outer loop
      vertex 10 0 0
      vertex 5.9109 3.56464 0
      vertex 6.08362 3.69013 0
    endloop
  endfacet
  facet normal 0 0 -1
    outer loop
      vertex 10 0 0
      vertex 5.72382 3.46179 0
      vertex 5.9109 3.56464 0
    endloop
  endfacet
  facet normal 0 0 -1
    outer loop
      vertex 10 0 0
      vertex 5.52533 3.3832 0
      vertex 5.72382 3.46179 0
    endloop
  endfacet
  facet normal 0 0 -1
    outer loop
      vertex 10 0 0
      vertex 5.31855 3.33011 0
      vertex 5.52533 3.3832 0
    endloop
  endfacet
  facet normal 0 0 -1
    outer loop
      vertex 10 0 0
      vertex 5.10674 3.30336 0
      vertex 5.31855 3.33011 0
    endloop
  endfacet
  facet normal 0 0 -1
    outer loop
      vertex 10 0 0
      vertex 4.89326 3.30336 0
      vertex 5.10674 3.30336 0
    endloop
  endfacet
  facet normal 0 0 -1
    outer loop
      vertex 0 0 0
      vertex 4.89326 3.30336 0
      vertex 10 0 0
    endloop
  endfacet
  facet normal -0 0 -1
    outer loop
      vertex 4.89326 3.30336 0
      vertex 0 0 0
      vertex 4.68145 3.33011 0
    endloop
  endfacet
  facet normal -0 0 -1
    outer loop
      vertex 4.68145 3.33011 0
      vertex 0 0 0
      vertex 4.47467 3.3832 0
    endloop
  endfacet
  facet normal -0 0 -1
    outer loop
      vertex 4.47467 3.3832 0
      vertex 0 0 0
      vertex 4.27618 3.46179 0
    endloop
  endfacet
  facet normal -0 0 -1
    outer loop
      vertex 3.31341 4.78693 0
      vertex 0 0 0
      vertex 3.3 5 0
    endloop
  endfacet
  facet normal -0 0 -1
    outer loop
      vertex 3.35341 4.57723 0
      vertex 0 0 0
      vertex 3.31341 4.78693 0
    endloop
  endfacet
  facet normal -0 0 -1
    outer loop
      vertex 3.41938 4.37419 0
      vertex 0 0 0
      vertex 3.35341 4.57723 0
    endloop
  endfacet
  facet normal -0 0 -1
    outer loop
      vertex 3.51028 4.18102 0
      vertex 0 0 0
      vertex 3.41938 4.37419 0
    endloop
  endfacet
  facet normal -0 0 -1
    outer loop
      vertex 3.62467 4.00077 0
      vertex 0 0 0
      vertex 3.51028 4.18102 0
    endloop
  endfacet
  facet normal -0 0 -1
    outer loop
      vertex 3.76075 3.83627 0
      vertex 0 0 0
      vertex 3.62467 4.00077 0
    endloop
  endfacet
  facet normal -0 0 -1
    outer loop
      vertex 3.91638 3.69013 0
      vertex 0 0 0
      vertex 3.76075 3.83627 0
    endloop
  endfacet
  facet normal -0 0 -1
    outer loop
      vertex 4.0891 3.56464 0
      vertex 0 0 0
      vertex 3.91638 3.69013 0
    endloop
  endfacet
  facet normal -0 0 -1
    outer loop
      vertex 4.27618 3.46179 0
      vertex 0 0 0
      vertex 4.0891 3.56464 0
    endloop
  endfacet
  facet normal 0 0 -1
    outer loop
      vertex 6.68659 5.21307 0
      vertex 10 10 0
      vertex 6.7 5 0
    endloop
  endfacet
  facet normal 0 0 -1
    outer loop
      vertex 6.64659 5.42277 0
      vertex 10 10 0
      vertex 6.68659 5.21307 0
    endloop
  endfacet
  facet normal 0 0 -1
    outer loop
      vertex 6.58062 5.62581 0
      vertex 10 10 0
      vertex 6.64659 5.42277 0
    endloop
  endfacet
  facet normal 0 0 -1
    outer loop
      vertex 6.48972 5.81898 0
      vertex 10 10 0
      vertex 6.58062 5.62581 0
    endloop
  endfacet
  facet normal 0 0 -1
    outer loop
      vertex 6.37533 5.99923 0
      vertex 10 10 0
      vertex 6.48972 5.81898 0
    endloop
  endfacet
  facet normal 0 0 -1
    outer loop
      vertex 6.23925 6.16373 0
      vertex 10 10 0
      vertex 6.37533 5.99923 0
    endloop
  endfacet
  facet normal 0 0 -1
    outer loop
      vertex 6.08362 6.30987 0
      vertex 10 10 0
      vertex 6.23925 6.16373 0
    endloop
  endfacet
  facet normal 0 0 -1
    outer loop
      vertex 5.9109 6.43536 0
      vertex 10 10 0
      vertex 6.08362 6.30987 0
    endloop
  endfacet
  facet normal 0 0 -1
    outer loop
      vertex 5.72382 6.53821 0
      vertex 10 10 0
      vertex 5.9109 6.43536 0
    endloop
  endfacet
  facet normal 0 0 -1
    outer loop
      vertex 5.52533 6.6168 0
      vertex 10 10 0
      vertex 5.72382 6.53821 0
    endloop
  endfacet
  facet normal 0 0 -1
    outer loop
      vertex 5.31855 6.66989 0
      vertex 10 10 0
      vertex 5.52533 6.6168 0
    endloop
  endfacet
  facet normal 0 0 -1
    outer loop
      vertex 5.10674 6.69664 0
      vertex 10 10 0
      vertex 5.31855 6.66989 0
    endloop
  endfacet
  facet normal 0 0 -1
    outer loop
      vertex 4.89326 6.69664 0
      vertex 10 10 0
      vertex 5.10674 6.69664 0
    endloop
  endfacet
  facet normal 0 0 -1
    outer loop
      vertex 0 10 0
      vertex 4.89326 6.69664 0
      vertex 4.68145 6.66989 0
    endloop
  endfacet
  facet normal 0 0 -1
    outer loop
      vertex 0 10 0
      vertex 4.68145 6.66989 0
      vertex 4.47467 6.6168 0
    endloop
  endfacet
  facet normal 0 0 -1
    outer loop
      vertex 0 10 0
      vertex 4.47467 6.6168 0
      vertex 4.27618 6.53821 0
    endloop
  endfacet
  facet normal 0 0 -1
    outer loop
      vertex 0 10 0
      vertex 4.27618 6.53821 0
      vertex 4.0891 6.43536 0
    endloop
  endfacet
  facet normal 0 0 -1
    outer loop
      vertex 0 10 0
      vertex 3.3 5 0
      vertex 0 0 0
    endloop
  endfacet
  facet normal 0 0 -1
    outer loop
      vertex 3.3 5 0
      vertex 0 10 0
      vertex 3.31341 5.21307 0
    endloop
  endfacet
  facet normal 0 0 -1
    outer loop
      vertex 3.31341 5.21307 0
      vertex 0 10 0
      vertex 3.35341 5.42277 0
    endloop
  endfacet
  facet normal 0 0 -1
    outer loop
      vertex 3.35341 5.42277 0
      vertex 0 10 0
      vertex 3.41938 5.62581 0
    endloop
  endfacet
  facet normal 0 0 -1
    outer loop
      vertex 4.89326 6.69664 0
      vertex 0 10 0
      vertex 10 10 0
    endloop
  endfacet
  facet normal 0 0 -1
    outer loop
      vertex 3.91638 6.30987 0
      vertex 0 10 0
      vertex 4.0891 6.43536 0
    endloop
  endfacet
  facet normal 0 0 -1
    outer loop
      vertex 3.76075 6.16373 0
      vertex 0 10 0
      vertex 3.91638 6.30987 0
    endloop
  endfacet
  facet normal 0 0 -1
    outer loop
      vertex 3.62467 5.99923 0
      vertex 0 10 0
      vertex 3.76075 6.16373 0
    endloop
  endfacet
  facet normal 0 0 -1
    outer loop
      vertex 3.51028 5.81898 0
      vertex 0 10 0
      vertex 3.62467 5.99923 0
    endloop
  endfacet
  facet normal 0 0 -1
    outer loop
      vertex 3.41938 5.62581 0
      vertex 0 10 0
      vertex 3.51028 5.81898 0
    endloop
  endfacet
  facet normal 0.125297 -0.992119 0
    outer loop
      vertex 4.68145 6.66989 2.4
      vertex 4.89326 6.69664 7
      vertex 4.68145 6.66989 7
    endloop
  endfacet
  facet normal 0.125297 -0.992119 0
    outer loop
      vertex 4.89326 6.69664 7
      vertex 4.68145 6.66989 2.4
      vertex 4.89326 6.69664 2.4
    endloop
  endfacet
  facet normal 0.125297 -0.992119 0
    outer loop
      vertex 4.68145 6.66989 0
      vertex 4.89326 6.69664 1.90735e-07
      vertex 4.68145 6.66989 1.90735e-07
    endloop
  endfacet
  facet normal 0.125297 -0.992119 0
    outer loop
      vertex 4.89326 6.69664 1.90735e-07
      vertex 4.68145 6.66989 0
      vertex 4.89326 6.69664 0
    endloop
  endfacet
  facet normal -0.684531 0.728983 0
    outer loop
      vertex 6.23925 3.83627 2.4
      vertex 6.08362 3.69013 7
      vertex 6.23925 3.83627 7
    endloop
  endfacet
  facet normal -0.684531 0.728983 0
    outer loop
      vertex 6.08362 3.69013 7
      vertex 6.23925 3.83627 2.4
      vertex 6.08362 3.69013 2.4
    endloop
  endfacet
  facet normal -0.684531 0.728983 0
    outer loop
      vertex 6.23925 3.83627 0
      vertex 6.08362 3.69013 1.90735e-07
      vertex 6.23925 3.83627 1.90735e-07
    endloop
  endfacet
  facet normal -0.684531 0.728983 0
    outer loop
      vertex 6.08362 3.69013 1.90735e-07
      vertex 6.23925 3.83627 0
      vertex 6.08362 3.69013 0
    endloop
  endfacet
  facet normal -0.481761 0.876303 0
    outer loop
      vertex 5.9109 3.56464 2.4
      vertex 5.72382 3.46179 7
      vertex 5.9109 3.56464 7
    endloop
  endfacet
  facet normal -0.481761 0.876303 0
    outer loop
      vertex 5.72382 3.46179 7
      vertex 5.9109 3.56464 2.4
      vertex 5.72382 3.46179 2.4
    endloop
  endfacet
  facet normal -0.481761 0.876303 0
    outer loop
      vertex 5.9109 3.56464 0
      vertex 5.72382 3.46179 1.90735e-07
      vertex 5.9109 3.56464 1.90735e-07
    endloop
  endfacet
  facet normal -0.481761 0.876303 0
    outer loop
      vertex 5.72382 3.46179 1.90735e-07
      vertex 5.9109 3.56464 0
      vertex 5.72382 3.46179 0
    endloop
  endfacet
  facet normal -0.770528 -0.637407 0
    outer loop
      vertex 6.37533 5.99923 0
      vertex 6.23925 6.16373 1.90735e-07
      vertex 6.23925 6.16373 0
    endloop
  endfacet
  facet normal -0.770528 -0.637407 0
    outer loop
      vertex 6.23925 6.16373 1.90735e-07
      vertex 6.37533 5.99923 0
      vertex 6.37533 5.99923 1.90735e-07
    endloop
  endfacet
  facet normal -0.770528 -0.637407 0
    outer loop
      vertex 6.37533 5.99923 2.4
      vertex 6.23925 6.16373 7
      vertex 6.23925 6.16373 2.4
    endloop
  endfacet
  facet normal -0.770528 -0.637407 0
    outer loop
      vertex 6.23925 6.16373 7
      vertex 6.37533 5.99923 2.4
      vertex 6.37533 5.99923 7
    endloop
  endfacet
  facet normal 0.982289 -0.18737 0
    outer loop
      vertex 3.31341 5.21307 7
      vertex 3.35341 5.42277 2.4
      vertex 3.35341 5.42277 7
    endloop
  endfacet
  facet normal 0.982289 -0.18737 0
    outer loop
      vertex 3.35341 5.42277 2.4
      vertex 3.31341 5.21307 7
      vertex 3.31341 5.21307 2.4
    endloop
  endfacet
  facet normal 0.982289 -0.18737 0
    outer loop
      vertex 3.31341 5.21307 1.90735e-07
      vertex 3.35341 5.42277 0
      vertex 3.35341 5.42277 1.90735e-07
    endloop
  endfacet
  facet normal 0.982289 -0.18737 0
    outer loop
      vertex 3.35341 5.42277 0
      vertex 3.31341 5.21307 1.90735e-07
      vertex 3.31341 5.21307 0
    endloop
  endfacet
  facet normal -0.951059 0.30901 0
    outer loop
      vertex 6.58062 4.37419 2.4
      vertex 6.64659 4.57723 7
      vertex 6.64659 4.57723 2.4
    endloop
  endfacet
  facet normal -0.951059 0.30901 0
    outer loop
      vertex 6.64659 4.57723 7
      vertex 6.58062 4.37419 2.4
      vertex 6.58062 4.37419 7
    endloop
  endfacet
  facet normal -0.951059 0.30901 0
    outer loop
      vertex 6.58062 4.37419 0
      vertex 6.64659 4.57723 1.90735e-07
      vertex 6.64659 4.57723 0
    endloop
  endfacet
  facet normal -0.951059 0.30901 0
    outer loop
      vertex 6.64659 4.57723 1.90735e-07
      vertex 6.58062 4.37419 0
      vertex 6.58062 4.37419 1.90735e-07
    endloop
  endfacet
  facet normal 0.481761 -0.876303 0
    outer loop
      vertex 4.0891 6.43536 2.4
      vertex 4.27618 6.53821 7
      vertex 4.0891 6.43536 7
    endloop
  endfacet
  facet normal 0.481761 -0.876303 0
    outer loop
      vertex 4.27618 6.53821 7
      vertex 4.0891 6.43536 2.4
      vertex 4.27618 6.53821 2.4
    endloop
  endfacet
  facet normal 0.481761 -0.876303 0
    outer loop
      vertex 4.0891 6.43536 0
      vertex 4.27618 6.53821 1.90735e-07
      vertex 4.0891 6.43536 1.90735e-07
    endloop
  endfacet
  facet normal 0.481761 -0.876303 0
    outer loop
      vertex 4.27618 6.53821 1.90735e-07
      vertex 4.0891 6.43536 0
      vertex 4.27618 6.53821 0
    endloop
  endfacet
  facet normal 0.951059 0.30901 0
    outer loop
      vertex 3.41938 4.37419 7
      vertex 3.35341 4.57723 2.4
      vertex 3.35341 4.57723 7
    endloop
  endfacet
  facet normal 0.951059 0.30901 0
    outer loop
      vertex 3.35341 4.57723 2.4
      vertex 3.41938 4.37419 7
      vertex 3.41938 4.37419 2.4
    endloop
  endfacet
  facet normal 0.951059 0.30901 0
    outer loop
      vertex 3.41938 4.37419 1.90735e-07
      vertex 3.35341 4.57723 0
      vertex 3.35341 4.57723 1.90735e-07
    endloop
  endfacet
  facet normal 0.951059 0.30901 0
    outer loop
      vertex 3.35341 4.57723 0
      vertex 3.41938 4.37419 1.90735e-07
      vertex 3.41938 4.37419 0
    endloop
  endfacet
  facet normal -0.368134 0.929773 0
    outer loop
      vertex 5.72382 3.46179 2.4
      vertex 5.52533 3.3832 7
      vertex 5.72382 3.46179 7
    endloop
  endfacet
  facet normal -0.368134 0.929773 0
    outer loop
      vertex 5.52533 3.3832 7
      vertex 5.72382 3.46179 2.4
      vertex 5.52533 3.3832 2.4
    endloop
  endfacet
  facet normal -0.368134 0.929773 0
    outer loop
      vertex 5.72382 3.46179 0
      vertex 5.52533 3.3832 1.90735e-07
      vertex 5.72382 3.46179 1.90735e-07
    endloop
  endfacet
  facet normal -0.368134 0.929773 0
    outer loop
      vertex 5.52533 3.3832 1.90735e-07
      vertex 5.72382 3.46179 0
      vertex 5.52533 3.3832 0
    endloop
  endfacet
  facet normal 0.248681 0.968586 -0
    outer loop
      vertex 4.68145 3.33011 0
      vertex 4.47467 3.3832 1.90735e-07
      vertex 4.68145 3.33011 1.90735e-07
    endloop
  endfacet
  facet normal 0.248681 0.968586 0
    outer loop
      vertex 4.47467 3.3832 1.90735e-07
      vertex 4.68145 3.33011 0
      vertex 4.47467 3.3832 0
    endloop
  endfacet
  facet normal 0.248681 0.968586 -0
    outer loop
      vertex 4.68145 3.33011 2.4
      vertex 4.47467 3.3832 7
      vertex 4.68145 3.33011 7
    endloop
  endfacet
  facet normal 0.248681 0.968586 0
    outer loop
      vertex 4.47467 3.3832 7
      vertex 4.68145 3.33011 2.4
      vertex 4.47467 3.3832 2.4
    endloop
  endfacet
  facet normal -0.248681 0.968586 0
    outer loop
      vertex 5.52533 3.3832 2.4
      vertex 5.31855 3.33011 7
      vertex 5.52533 3.3832 7
    endloop
  endfacet
  facet normal -0.248681 0.968586 0
    outer loop
      vertex 5.31855 3.33011 7
      vertex 5.52533 3.3832 2.4
      vertex 5.31855 3.33011 2.4
    endloop
  endfacet
  facet normal -0.248681 0.968586 0
    outer loop
      vertex 5.52533 3.3832 0
      vertex 5.31855 3.33011 1.90735e-07
      vertex 5.52533 3.3832 1.90735e-07
    endloop
  endfacet
  facet normal -0.248681 0.968586 0
    outer loop
      vertex 5.31855 3.33011 1.90735e-07
      vertex 5.52533 3.3832 0
      vertex 5.31855 3.33011 0
    endloop
  endfacet
  facet normal -0.58779 -0.809013 0
    outer loop
      vertex 5.9109 6.43536 0
      vertex 6.08362 6.30987 1.90735e-07
      vertex 5.9109 6.43536 1.90735e-07
    endloop
  endfacet
  facet normal -0.58779 -0.809013 -0
    outer loop
      vertex 6.08362 6.30987 1.90735e-07
      vertex 5.9109 6.43536 0
      vertex 6.08362 6.30987 0
    endloop
  endfacet
  facet normal -0.58779 -0.809013 0
    outer loop
      vertex 5.9109 6.43536 2.4
      vertex 6.08362 6.30987 7
      vertex 5.9109 6.43536 7
    endloop
  endfacet
  facet normal -0.58779 -0.809013 -0
    outer loop
      vertex 6.08362 6.30987 7
      vertex 5.9109 6.43536 2.4
      vertex 6.08362 6.30987 2.4
    endloop
  endfacet
  facet normal -0.951059 -0.30901 0
    outer loop
      vertex 6.64659 5.42277 0
      vertex 6.58062 5.62581 1.90735e-07
      vertex 6.58062 5.62581 0
    endloop
  endfacet
  facet normal -0.951059 -0.30901 0
    outer loop
      vertex 6.58062 5.62581 1.90735e-07
      vertex 6.64659 5.42277 0
      vertex 6.64659 5.42277 1.90735e-07
    endloop
  endfacet
  facet normal -0.951059 -0.30901 0
    outer loop
      vertex 6.64659 5.42277 2.4
      vertex 6.58062 5.62581 7
      vertex 6.58062 5.62581 2.4
    endloop
  endfacet
  facet normal -0.951059 -0.30901 0
    outer loop
      vertex 6.58062 5.62581 7
      vertex 6.64659 5.42277 2.4
      vertex 6.64659 5.42277 7
    endloop
  endfacet
  facet normal 0.770528 -0.637407 0
    outer loop
      vertex 3.62467 5.99923 1.90735e-07
      vertex 3.76075 6.16373 0
      vertex 3.76075 6.16373 1.90735e-07
    endloop
  endfacet
  facet normal 0.770528 -0.637407 0
    outer loop
      vertex 3.76075 6.16373 0
      vertex 3.62467 5.99923 1.90735e-07
      vertex 3.62467 5.99923 0
    endloop
  endfacet
  facet normal 0.770528 -0.637407 0
    outer loop
      vertex 3.62467 5.99923 7
      vertex 3.76075 6.16373 2.4
      vertex 3.76075 6.16373 7
    endloop
  endfacet
  facet normal 0.770528 -0.637407 0
    outer loop
      vertex 3.76075 6.16373 2.4
      vertex 3.62467 5.99923 7
      vertex 3.62467 5.99923 2.4
    endloop
  endfacet
  facet normal 0.58779 -0.809013 0
    outer loop
      vertex 3.91638 6.30987 2.4
      vertex 4.0891 6.43536 7
      vertex 3.91638 6.30987 7
    endloop
  endfacet
  facet normal 0.58779 -0.809013 0
    outer loop
      vertex 4.0891 6.43536 7
      vertex 3.91638 6.30987 2.4
      vertex 4.0891 6.43536 2.4
    endloop
  endfacet
  facet normal 0.58779 -0.809013 0
    outer loop
      vertex 3.91638 6.30987 0
      vertex 4.0891 6.43536 1.90735e-07
      vertex 3.91638 6.30987 1.90735e-07
    endloop
  endfacet
  facet normal 0.58779 -0.809013 0
    outer loop
      vertex 4.0891 6.43536 1.90735e-07
      vertex 3.91638 6.30987 0
      vertex 4.0891 6.43536 0
    endloop
  endfacet
  facet normal 0 -1 0
    outer loop
      vertex 4.89326 6.69664 2.4
      vertex 5.10674 6.69664 7
      vertex 4.89326 6.69664 7
    endloop
  endfacet
  facet normal 0 -1 -0
    outer loop
      vertex 5.10674 6.69664 7
      vertex 4.89326 6.69664 2.4
      vertex 5.10674 6.69664 2.4
    endloop
  endfacet
  facet normal 0 -1 0
    outer loop
      vertex 4.89326 6.69664 0
      vertex 5.10674 6.69664 1.90735e-07
      vertex 4.89326 6.69664 1.90735e-07
    endloop
  endfacet
  facet normal 0 -1 -0
    outer loop
      vertex 5.10674 6.69664 1.90735e-07
      vertex 4.89326 6.69664 0
      vertex 5.10674 6.69664 0
    endloop
  endfacet
  facet normal -0.125297 -0.992119 0
    outer loop
      vertex 5.10674 6.69664 2.4
      vertex 5.31855 6.66989 7
      vertex 5.10674 6.69664 7
    endloop
  endfacet
  facet normal -0.125297 -0.992119 -0
    outer loop
      vertex 5.31855 6.66989 7
      vertex 5.10674 6.69664 2.4
      vertex 5.31855 6.66989 2.4
    endloop
  endfacet
  facet normal -0.125297 -0.992119 0
    outer loop
      vertex 5.10674 6.69664 0
      vertex 5.31855 6.66989 1.90735e-07
      vertex 5.10674 6.69664 1.90735e-07
    endloop
  endfacet
  facet normal -0.125297 -0.992119 -0
    outer loop
      vertex 5.31855 6.66989 1.90735e-07
      vertex 5.10674 6.69664 0
      vertex 5.31855 6.66989 0
    endloop
  endfacet
  facet normal 0.368134 -0.929773 0
    outer loop
      vertex 4.27618 6.53821 2.4
      vertex 4.47467 6.6168 7
      vertex 4.27618 6.53821 7
    endloop
  endfacet
  facet normal 0.368134 -0.929773 0
    outer loop
      vertex 4.47467 6.6168 7
      vertex 4.27618 6.53821 2.4
      vertex 4.47467 6.6168 2.4
    endloop
  endfacet
  facet normal 0.368134 -0.929773 0
    outer loop
      vertex 4.27618 6.53821 0
      vertex 4.47467 6.6168 1.90735e-07
      vertex 4.27618 6.53821 1.90735e-07
    endloop
  endfacet
  facet normal 0.368134 -0.929773 0
    outer loop
      vertex 4.47467 6.6168 1.90735e-07
      vertex 4.27618 6.53821 0
      vertex 4.47467 6.6168 0
    endloop
  endfacet
  facet normal -0.844328 -0.535826 0
    outer loop
      vertex 6.48972 5.81898 0
      vertex 6.37533 5.99923 1.90735e-07
      vertex 6.37533 5.99923 0
    endloop
  endfacet
  facet normal -0.844328 -0.535826 0
    outer loop
      vertex 6.37533 5.99923 1.90735e-07
      vertex 6.48972 5.81898 0
      vertex 6.48972 5.81898 1.90735e-07
    endloop
  endfacet
  facet normal -0.844328 -0.535826 0
    outer loop
      vertex 6.48972 5.81898 2.4
      vertex 6.37533 5.99923 7
      vertex 6.37533 5.99923 2.4
    endloop
  endfacet
  facet normal -0.844328 -0.535826 0
    outer loop
      vertex 6.37533 5.99923 7
      vertex 6.48972 5.81898 2.4
      vertex 6.48972 5.81898 7
    endloop
  endfacet
  facet normal -0.248681 -0.968586 0
    outer loop
      vertex 5.31855 6.66989 2.4
      vertex 5.52533 6.6168 7
      vertex 5.31855 6.66989 7
    endloop
  endfacet
  facet normal -0.248681 -0.968586 -0
    outer loop
      vertex 5.52533 6.6168 7
      vertex 5.31855 6.66989 2.4
      vertex 5.52533 6.6168 2.4
    endloop
  endfacet
  facet normal -0.248681 -0.968586 0
    outer loop
      vertex 5.31855 6.66989 0
      vertex 5.52533 6.6168 1.90735e-07
      vertex 5.31855 6.66989 1.90735e-07
    endloop
  endfacet
  facet normal -0.248681 -0.968586 -0
    outer loop
      vertex 5.52533 6.6168 1.90735e-07
      vertex 5.31855 6.66989 0
      vertex 5.52533 6.6168 0
    endloop
  endfacet
  facet normal 0.951059 -0.30901 0
    outer loop
      vertex 3.35341 5.42277 7
      vertex 3.41938 5.62581 2.4
      vertex 3.41938 5.62581 7
    endloop
  endfacet
  facet normal 0.951059 -0.30901 0
    outer loop
      vertex 3.41938 5.62581 2.4
      vertex 3.35341 5.42277 7
      vertex 3.35341 5.42277 2.4
    endloop
  endfacet
  facet normal 0.951059 -0.30901 0
    outer loop
      vertex 3.35341 5.42277 1.90735e-07
      vertex 3.41938 5.62581 0
      vertex 3.41938 5.62581 1.90735e-07
    endloop
  endfacet
  facet normal 0.951059 -0.30901 0
    outer loop
      vertex 3.41938 5.62581 0
      vertex 3.35341 5.42277 1.90735e-07
      vertex 3.35341 5.42277 0
    endloop
  endfacet
  facet normal -0.368134 -0.929773 0
    outer loop
      vertex 5.52533 6.6168 0
      vertex 5.72382 6.53821 1.90735e-07
      vertex 5.52533 6.6168 1.90735e-07
    endloop
  endfacet
  facet normal -0.368134 -0.929773 -0
    outer loop
      vertex 5.72382 6.53821 1.90735e-07
      vertex 5.52533 6.6168 0
      vertex 5.72382 6.53821 0
    endloop
  endfacet
  facet normal -0.368134 -0.929773 0
    outer loop
      vertex 5.52533 6.6168 2.4
      vertex 5.72382 6.53821 7
      vertex 5.52533 6.6168 7
    endloop
  endfacet
  facet normal -0.368134 -0.929773 -0
    outer loop
      vertex 5.72382 6.53821 7
      vertex 5.52533 6.6168 2.4
      vertex 5.72382 6.53821 2.4
    endloop
  endfacet
  facet normal 0.904825 0.425784 0
    outer loop
      vertex 3.51028 4.18102 7
      vertex 3.41938 4.37419 2.4
      vertex 3.41938 4.37419 7
    endloop
  endfacet
  facet normal 0.904825 0.425784 0
    outer loop
      vertex 3.41938 4.37419 2.4
      vertex 3.51028 4.18102 7
      vertex 3.51028 4.18102 2.4
    endloop
  endfacet
  facet normal 0.904825 0.425784 0
    outer loop
      vertex 3.51028 4.18102 1.90735e-07
      vertex 3.41938 4.37419 0
      vertex 3.41938 4.37419 1.90735e-07
    endloop
  endfacet
  facet normal 0.904825 0.425784 0
    outer loop
      vertex 3.41938 4.37419 0
      vertex 3.51028 4.18102 1.90735e-07
      vertex 3.51028 4.18102 0
    endloop
  endfacet
  facet normal 0.998025 -0.0628128 0
    outer loop
      vertex 3.3 5 1.90735e-07
      vertex 3.31341 5.21307 0
      vertex 3.31341 5.21307 1.90735e-07
    endloop
  endfacet
  facet normal 0.998025 -0.0628128 0
    outer loop
      vertex 3.31341 5.21307 0
      vertex 3.3 5 1.90735e-07
      vertex 3.3 5 0
    endloop
  endfacet
  facet normal 0.998025 -0.0628128 0
    outer loop
      vertex 3.3 5 7
      vertex 3.31341 5.21307 2.4
      vertex 3.31341 5.21307 7
    endloop
  endfacet
  facet normal 0.998025 -0.0628128 0
    outer loop
      vertex 3.31341 5.21307 2.4
      vertex 3.3 5 7
      vertex 3.3 5 2.4
    endloop
  endfacet
  facet normal -0.998025 0.0628128 0
    outer loop
      vertex 6.68659 4.78693 2.4
      vertex 6.7 5 7
      vertex 6.7 5 2.4
    endloop
  endfacet
  facet normal -0.998025 0.0628128 0
    outer loop
      vertex 6.7 5 7
      vertex 6.68659 4.78693 2.4
      vertex 6.68659 4.78693 7
    endloop
  endfacet
  facet normal -0.998025 0.0628128 0
    outer loop
      vertex 6.68659 4.78693 0
      vertex 6.7 5 1.90735e-07
      vertex 6.7 5 0
    endloop
  endfacet
  facet normal -0.998025 0.0628128 0
    outer loop
      vertex 6.7 5 1.90735e-07
      vertex 6.68659 4.78693 0
      vertex 6.68659 4.78693 1.90735e-07
    endloop
  endfacet
  facet normal -0.844328 0.535826 0
    outer loop
      vertex 6.37533 4.00077 2.4
      vertex 6.48972 4.18102 7
      vertex 6.48972 4.18102 2.4
    endloop
  endfacet
  facet normal -0.844328 0.535826 0
    outer loop
      vertex 6.48972 4.18102 7
      vertex 6.37533 4.00077 2.4
      vertex 6.37533 4.00077 7
    endloop
  endfacet
  facet normal -0.844328 0.535826 0
    outer loop
      vertex 6.37533 4.00077 0
      vertex 6.48972 4.18102 1.90735e-07
      vertex 6.48972 4.18102 0
    endloop
  endfacet
  facet normal -0.844328 0.535826 0
    outer loop
      vertex 6.48972 4.18102 1.90735e-07
      vertex 6.37533 4.00077 0
      vertex 6.37533 4.00077 1.90735e-07
    endloop
  endfacet
  facet normal 0.58779 0.809013 -0
    outer loop
      vertex 4.0891 3.56464 0
      vertex 3.91638 3.69013 1.90735e-07
      vertex 4.0891 3.56464 1.90735e-07
    endloop
  endfacet
  facet normal 0.58779 0.809013 0
    outer loop
      vertex 3.91638 3.69013 1.90735e-07
      vertex 4.0891 3.56464 0
      vertex 3.91638 3.69013 0
    endloop
  endfacet
  facet normal 0.58779 0.809013 -0
    outer loop
      vertex 4.0891 3.56464 2.4
      vertex 3.91638 3.69013 7
      vertex 4.0891 3.56464 7
    endloop
  endfacet
  facet normal 0.58779 0.809013 0
    outer loop
      vertex 3.91638 3.69013 7
      vertex 4.0891 3.56464 2.4
      vertex 3.91638 3.69013 2.4
    endloop
  endfacet
  facet normal 0.684531 0.728983 -0
    outer loop
      vertex 3.91638 3.69013 0
      vertex 3.76075 3.83627 1.90735e-07
      vertex 3.91638 3.69013 1.90735e-07
    endloop
  endfacet
  facet normal 0.684531 0.728983 0
    outer loop
      vertex 3.76075 3.83627 1.90735e-07
      vertex 3.91638 3.69013 0
      vertex 3.76075 3.83627 0
    endloop
  endfacet
  facet normal 0.684531 0.728983 -0
    outer loop
      vertex 3.91638 3.69013 2.4
      vertex 3.76075 3.83627 7
      vertex 3.91638 3.69013 7
    endloop
  endfacet
  facet normal 0.684531 0.728983 0
    outer loop
      vertex 3.76075 3.83627 7
      vertex 3.91638 3.69013 2.4
      vertex 3.76075 3.83627 2.4
    endloop
  endfacet
  facet normal 0.904825 -0.425784 0
    outer loop
      vertex 3.41938 5.62581 1.90735e-07
      vertex 3.51028 5.81898 0
      vertex 3.51028 5.81898 1.90735e-07
    endloop
  endfacet
  facet normal 0.904825 -0.425784 0
    outer loop
      vertex 3.51028 5.81898 0
      vertex 3.41938 5.62581 1.90735e-07
      vertex 3.41938 5.62581 0
    endloop
  endfacet
  facet normal 0.904825 -0.425784 0
    outer loop
      vertex 3.41938 5.62581 7
      vertex 3.51028 5.81898 2.4
      vertex 3.51028 5.81898 7
    endloop
  endfacet
  facet normal 0.904825 -0.425784 0
    outer loop
      vertex 3.51028 5.81898 2.4
      vertex 3.41938 5.62581 7
      vertex 3.41938 5.62581 2.4
    endloop
  endfacet
  facet normal 0.481761 0.876303 -0
    outer loop
      vertex 4.27618 3.46179 2.4
      vertex 4.0891 3.56464 7
      vertex 4.27618 3.46179 7
    endloop
  endfacet
  facet normal 0.481761 0.876303 0
    outer loop
      vertex 4.0891 3.56464 7
      vertex 4.27618 3.46179 2.4
      vertex 4.0891 3.56464 2.4
    endloop
  endfacet
  facet normal 0.481761 0.876303 -0
    outer loop
      vertex 4.27618 3.46179 0
      vertex 4.0891 3.56464 1.90735e-07
      vertex 4.27618 3.46179 1.90735e-07
    endloop
  endfacet
  facet normal 0.481761 0.876303 0
    outer loop
      vertex 4.0891 3.56464 1.90735e-07
      vertex 4.27618 3.46179 0
      vertex 4.0891 3.56464 0
    endloop
  endfacet
  facet normal 0.844328 0.535826 0
    outer loop
      vertex 3.62467 4.00077 7
      vertex 3.51028 4.18102 2.4
      vertex 3.51028 4.18102 7
    endloop
  endfacet
  facet normal 0.844328 0.535826 0
    outer loop
      vertex 3.51028 4.18102 2.4
      vertex 3.62467 4.00077 7
      vertex 3.62467 4.00077 2.4
    endloop
  endfacet
  facet normal 0.844328 0.535826 0
    outer loop
      vertex 3.62467 4.00077 1.90735e-07
      vertex 3.51028 4.18102 0
      vertex 3.51028 4.18102 1.90735e-07
    endloop
  endfacet
  facet normal 0.844328 0.535826 0
    outer loop
      vertex 3.51028 4.18102 0
      vertex 3.62467 4.00077 1.90735e-07
      vertex 3.62467 4.00077 0
    endloop
  endfacet
  facet normal 0.770528 0.637407 0
    outer loop
      vertex 3.76075 3.83627 7
      vertex 3.62467 4.00077 2.4
      vertex 3.62467 4.00077 7
    endloop
  endfacet
  facet normal 0.770528 0.637407 0
    outer loop
      vertex 3.62467 4.00077 2.4
      vertex 3.76075 3.83627 7
      vertex 3.76075 3.83627 2.4
    endloop
  endfacet
  facet normal 0.770528 0.637407 0
    outer loop
      vertex 3.76075 3.83627 1.90735e-07
      vertex 3.62467 4.00077 0
      vertex 3.62467 4.00077 1.90735e-07
    endloop
  endfacet
  facet normal 0.770528 0.637407 0
    outer loop
      vertex 3.62467 4.00077 0
      vertex 3.76075 3.83627 1.90735e-07
      vertex 3.76075 3.83627 0
    endloop
  endfacet
  facet normal -0.58779 0.809013 0
    outer loop
      vertex 6.08362 3.69013 2.4
      vertex 5.9109 3.56464 7
      vertex 6.08362 3.69013 7
    endloop
  endfacet
  facet normal -0.58779 0.809013 0
    outer loop
      vertex 5.9109 3.56464 7
      vertex 6.08362 3.69013 2.4
      vertex 5.9109 3.56464 2.4
    endloop
  endfacet
  facet normal -0.58779 0.809013 0
    outer loop
      vertex 6.08362 3.69013 0
      vertex 5.9109 3.56464 1.90735e-07
      vertex 6.08362 3.69013 1.90735e-07
    endloop
  endfacet
  facet normal -0.58779 0.809013 0
    outer loop
      vertex 5.9109 3.56464 1.90735e-07
      vertex 6.08362 3.69013 0
      vertex 5.9109 3.56464 0
    endloop
  endfacet
  facet normal 1 -0 0
    outer loop
      vertex 10 0 7
      vertex 10 10 0
      vertex 10 10 7
    endloop
  endfacet
  facet normal 1 0 0
    outer loop
      vertex 10 10 0
      vertex 10 0 7
      vertex 10 0 0
    endloop
  endfacet
  facet normal 0 0 1
    outer loop
      vertex 10 10 7
      vertex 6.7 5 7
      vertex 10 0 7
    endloop
  endfacet
  facet normal 0 0 1
    outer loop
      vertex 10 10 7
      vertex 6.68659 5.21307 7
      vertex 6.7 5 7
    endloop
  endfacet
  facet normal 0 0 1
    outer loop
      vertex 10 10 7
      vertex 6.64659 5.42277 7
      vertex 6.68659 5.21307 7
    endloop
  endfacet
  facet normal 0 0 1
    outer loop
      vertex 10 10 7
      vertex 6.58062 5.62581 7
      vertex 6.64659 5.42277 7
    endloop
  endfacet
  facet normal 0 0 1
    outer loop
      vertex 10 10 7
      vertex 6.48972 5.81898 7
      vertex 6.58062 5.62581 7
    endloop
  endfacet
  facet normal 0 0 1
    outer loop
      vertex 10 10 7
      vertex 6.37533 5.99923 7
      vertex 6.48972 5.81898 7
    endloop
  endfacet
  facet normal 0 0 1
    outer loop
      vertex 10 10 7
      vertex 6.23925 6.16373 7
      vertex 6.37533 5.99923 7
    endloop
  endfacet
  facet normal 0 0 1
    outer loop
      vertex 10 10 7
      vertex 6.08362 6.30987 7
      vertex 6.23925 6.16373 7
    endloop
  endfacet
  facet normal 0 0 1
    outer loop
      vertex 10 10 7
      vertex 5.9109 6.43536 7
      vertex 6.08362 6.30987 7
    endloop
  endfacet
  facet normal 0 0 1
    outer loop
      vertex 10 10 7
      vertex 5.72382 6.53821 7
      vertex 5.9109 6.43536 7
    endloop
  endfacet
  facet normal 0 0 1
    outer loop
      vertex 10 10 7
      vertex 5.52533 6.6168 7
      vertex 5.72382 6.53821 7
    endloop
  endfacet
  facet normal 0 0 1
    outer loop
      vertex 10 10 7
      vertex 5.31855 6.66989 7
      vertex 5.52533 6.6168 7
    endloop
  endfacet
  facet normal 0 0 1
    outer loop
      vertex 10 10 7
      vertex 5.10674 6.69664 7
      vertex 5.31855 6.66989 7
    endloop
  endfacet
  facet normal 0 0 1
    outer loop
      vertex 10 10 7
      vertex 4.89326 6.69664 7
      vertex 5.10674 6.69664 7
    endloop
  endfacet
  facet normal -0 0 1
    outer loop
      vertex 0 10 7
      vertex 4.89326 6.69664 7
      vertex 10 10 7
    endloop
  endfacet
  facet normal 0 0 1
    outer loop
      vertex 4.89326 6.69664 7
      vertex 0 10 7
      vertex 4.68145 6.66989 7
    endloop
  endfacet
  facet normal 0 0 1
    outer loop
      vertex 4.68145 6.66989 7
      vertex 0 10 7
      vertex 4.47467 6.6168 7
    endloop
  endfacet
  facet normal 0 0 1
    outer loop
      vertex 4.47467 6.6168 7
      vertex 0 10 7
      vertex 4.27618 6.53821 7
    endloop
  endfacet
  facet normal 0 0 1
    outer loop
      vertex 3.31341 5.21307 7
      vertex 0 10 7
      vertex 3.3 5 7
    endloop
  endfacet
  facet normal 0 0 1
    outer loop
      vertex 3.35341 5.42277 7
      vertex 0 10 7
      vertex 3.31341 5.21307 7
    endloop
  endfacet
  facet normal 0 0 1
    outer loop
      vertex 3.41938 5.62581 7
      vertex 0 10 7
      vertex 3.35341 5.42277 7
    endloop
  endfacet
  facet normal 0 0 1
    outer loop
      vertex 3.51028 5.81898 7
      vertex 0 10 7
      vertex 3.41938 5.62581 7
    endloop
  endfacet
  facet normal 0 0 1
    outer loop
      vertex 3.62467 5.99923 7
      vertex 0 10 7
      vertex 3.51028 5.81898 7
    endloop
  endfacet
  facet normal 0 0 1
    outer loop
      vertex 3.76075 6.16373 7
      vertex 0 10 7
      vertex 3.62467 5.99923 7
    endloop
  endfacet
  facet normal 0 0 1
    outer loop
      vertex 3.91638 6.30987 7
      vertex 0 10 7
      vertex 3.76075 6.16373 7
    endloop
  endfacet
  facet normal 0 0 1
    outer loop
      vertex 4.0891 6.43536 7
      vertex 0 10 7
      vertex 3.91638 6.30987 7
    endloop
  endfacet
  facet normal 0 0 1
    outer loop
      vertex 4.27618 6.53821 7
      vertex 0 10 7
      vertex 4.0891 6.43536 7
    endloop
  endfacet
  facet normal -0 0 1
    outer loop
      vertex 6.68659 4.78693 7
      vertex 10 0 7
      vertex 6.7 5 7
    endloop
  endfacet
  facet normal -0 0 1
    outer loop
      vertex 6.64659 4.57723 7
      vertex 10 0 7
      vertex 6.68659 4.78693 7
    endloop
  endfacet
  facet normal -0 0 1
    outer loop
      vertex 6.58062 4.37419 7
      vertex 10 0 7
      vertex 6.64659 4.57723 7
    endloop
  endfacet
  facet normal -0 0 1
    outer loop
      vertex 6.48972 4.18102 7
      vertex 10 0 7
      vertex 6.58062 4.37419 7
    endloop
  endfacet
  facet normal -0 0 1
    outer loop
      vertex 6.37533 4.00077 7
      vertex 10 0 7
      vertex 6.48972 4.18102 7
    endloop
  endfacet
  facet normal -0 0 1
    outer loop
      vertex 6.23925 3.83627 7
      vertex 10 0 7
      vertex 6.37533 4.00077 7
    endloop
  endfacet
  facet normal -0 0 1
    outer loop
      vertex 6.08362 3.69013 7
      vertex 10 0 7
      vertex 6.23925 3.83627 7
    endloop
  endfacet
  facet normal -0 0 1
    outer loop
      vertex 5.9109 3.56464 7
      vertex 10 0 7
      vertex 6.08362 3.69013 7
    endloop
  endfacet
  facet normal -0 0 1
    outer loop
      vertex 5.72382 3.46179 7
      vertex 10 0 7
      vertex 5.9109 3.56464 7
    endloop
  endfacet
  facet normal -0 0 1
    outer loop
      vertex 5.52533 3.3832 7
      vertex 10 0 7
      vertex 5.72382 3.46179 7
    endloop
  endfacet
  facet normal -0 0 1
    outer loop
      vertex 5.31855 3.33011 7
      vertex 10 0 7
      vertex 5.52533 3.3832 7
    endloop
  endfacet
  facet normal -0 0 1
    outer loop
      vertex 5.10674 3.30336 7
      vertex 10 0 7
      vertex 5.31855 3.33011 7
    endloop
  endfacet
  facet normal -0 0 1
    outer loop
      vertex 4.89326 3.30336 7
      vertex 10 0 7
      vertex 5.10674 3.30336 7
    endloop
  endfacet
  facet normal 0 0 1
    outer loop
      vertex 0 0 7
      vertex 4.89326 3.30336 7
      vertex 4.68145 3.33011 7
    endloop
  endfacet
  facet normal 0 0 1
    outer loop
      vertex 0 0 7
      vertex 4.68145 3.33011 7
      vertex 4.47467 3.3832 7
    endloop
  endfacet
  facet normal 0 0 1
    outer loop
      vertex 0 0 7
      vertex 4.47467 3.3832 7
      vertex 4.27618 3.46179 7
    endloop
  endfacet
  facet normal 0 0 1
    outer loop
      vertex 0 0 7
      vertex 4.27618 3.46179 7
      vertex 4.0891 3.56464 7
    endloop
  endfacet
  facet normal 0 0 1
    outer loop
      vertex 0 0 7
      vertex 3.3 5 7
      vertex 0 10 7
    endloop
  endfacet
  facet normal 0 0 1
    outer loop
      vertex 3.3 5 7
      vertex 0 0 7
      vertex 3.31341 4.78693 7
    endloop
  endfacet
  facet normal 0 0 1
    outer loop
      vertex 3.31341 4.78693 7
      vertex 0 0 7
      vertex 3.35341 4.57723 7
    endloop
  endfacet
  facet normal 0 0 1
    outer loop
      vertex 3.35341 4.57723 7
      vertex 0 0 7
      vertex 3.41938 4.37419 7
    endloop
  endfacet
  facet normal 0 0 1
    outer loop
      vertex 4.89326 3.30336 7
      vertex 0 0 7
      vertex 10 0 7
    endloop
  endfacet
  facet normal 0 0 1
    outer loop
      vertex 3.91638 3.69013 7
      vertex 0 0 7
      vertex 4.0891 3.56464 7
    endloop
  endfacet
  facet normal 0 0 1
    outer loop
      vertex 3.76075 3.83627 7
      vertex 0 0 7
      vertex 3.91638 3.69013 7
    endloop
  endfacet
  facet normal 0 0 1
    outer loop
      vertex 3.62467 4.00077 7
      vertex 0 0 7
      vertex 3.76075 3.83627 7
    endloop
  endfacet
  facet normal 0 0 1
    outer loop
      vertex 3.51028 4.18102 7
      vertex 0 0 7
      vertex 3.62467 4.00077 7
    endloop
  endfacet
  facet normal 0 0 1
    outer loop
      vertex 3.41938 4.37419 7
      vertex 0 0 7
      vertex 3.51028 4.18102 7
    endloop
  endfacet
  facet normal -1 0 0
    outer loop
      vertex 0 0 0
      vertex 0 10 7
      vertex 0 10 0
    endloop
  endfacet
  facet normal -1 -0 0
    outer loop
      vertex 0 10 7
      vertex 0 0 0
      vertex 0 0 7
    endloop
  endfacet
  facet normal 0 1 -0
    outer loop
      vertex 10 10 0
      vertex 0 10 7
      vertex 10 10 7
    endloop
  endfacet
  facet normal 0 1 0
    outer loop
      vertex 0 10 7
      vertex 10 10 0
      vertex 0 10 0
    endloop
  endfacet
  facet normal 0 -1 0
    outer loop
      vertex 0 0 0
      vertex 10 0 7
      vertex 0 0 7
    endloop
  endfacet
  facet normal 0 -1 -0
    outer loop
      vertex 10 0 7
      vertex 0 0 0
      vertex 10 0 0
    endloop
  endfacet
endsolid OpenSCAD_Model
