solid OpenSCAD_Model
  facet normal 0 0 -1
    outer loop
      vertex -16.9473 -7.58303 0
      vertex -16.8518 -6.59606 0
      vertex -16.9448 -7.76392 0
    endloop
  endfacet
  facet normal 0 0 -1
    outer loop
      vertex -16.9448 -7.76392 0
      vertex -16.8518 -6.59606 0
      vertex -16.6483 -5.62558 0
    endloop
  endfacet
  facet normal 0 0 -1
    outer loop
      vertex -16.9448 -7.76392 0
      vertex -16.6483 -5.62558 0
      vertex -16.3393 -4.68338 0
    endloop
  endfacet
  facet normal 0 0 -1
    outer loop
      vertex -16.9448 -7.76392 0
      vertex -16.3393 -4.68338 0
      vertex -15.9285 -3.78089 0
    endloop
  endfacet
  facet normal 0 0 -1
    outer loop
      vertex -16.9448 -7.76392 0
      vertex -15.9285 -3.78089 0
      vertex -15.4209 -2.92907 0
    endloop
  endfacet
  facet normal 0 0 -1
    outer loop
      vertex -16.9448 -7.76392 0
      vertex -15.4209 -2.92907 0
      vertex -14.8227 -2.13826 0
    endloop
  endfacet
  facet normal 0 0 -1
    outer loop
      vertex -16.9448 -7.76392 0
      vertex -14.8227 -2.13826 0
      vertex -14.1411 -1.41805 0
    endloop
  endfacet
  facet normal 0 0 -1
    outer loop
      vertex -16.9448 -7.76392 0
      vertex -14.1411 -1.41805 0
      vertex -13.3845 -0.777194 0
    endloop
  endfacet
  facet normal 0 0 -1
    outer loop
      vertex -16.9448 -7.76392 0
      vertex -13.3845 -0.777194 0
      vertex -12.5619 -0.223466 0
    endloop
  endfacet
  facet normal 0 0 -1
    outer loop
      vertex -16.9448 -7.76392 0
      vertex -12.5619 -0.223466 0
      vertex -11.6834 0.236413 0
    endloop
  endfacet
  facet normal 0 0 -1
    outer loop
      vertex -16.9448 -7.76392 0
      vertex -11.6834 0.236413 0
      vertex -10.7597 0.59686 0
    endloop
  endfacet
  facet normal 0 0 -1
    outer loop
      vertex -16.9448 -7.76392 0
      vertex -10.7597 0.59686 0
      vertex -9.80189 0.8535 0
    endloop
  endfacet
  facet normal 0 0 -1
    outer loop
      vertex -16.9448 -7.76392 0
      vertex -9.80189 0.8535 0
      vertex -8.82168 1.00322 0
    endloop
  endfacet
  facet normal 0 0 -1
    outer loop
      vertex -11.592 -2.56776 0
      vertex -8.82168 1.00322 0
      vertex -7.83094 1.04419 0
    endloop
  endfacet
  facet normal 0 0 -1
    outer loop
      vertex -10.727 -2.0757 0
      vertex -7.83094 1.04419 0
      vertex -6.84172 0.975934 0
    endloop
  endfacet
  facet normal 0 0 -1
    outer loop
      vertex -9.79707 -1.72145 0
      vertex -6.84172 0.975934 0
      vertex -5.866 0.799265 0
    endloop
  endfacet
  facet normal 0 0 -1
    outer loop
      vertex -7.83044 -1.45614 0
      vertex -5.866 0.799265 0
      vertex -4.91565 0.516331 0
    endloop
  endfacet
  facet normal 0 0 -1
    outer loop
      vertex -14.3933 -6.31764 0
      vertex -15.3232 -6.67189 0
      vertex -14.0292 -5.64107 0
    endloop
  endfacet
  facet normal 0 0 -1
    outer loop
      vertex -4.6462 0.987581 0
      vertex -4.33934 1.932 0
      vertex -4.70508 0.427406 0
    endloop
  endfacet
  facet normal 0 0 -1
    outer loop
      vertex -4.33934 1.932 0
      vertex -3.84283 2.79198 0
      vertex -4.70508 0.427406 0
    endloop
  endfacet
  facet normal 0 0 -1
    outer loop
      vertex -3.84283 2.79198 0
      vertex -3.17837 3.52994 0
      vertex -4.70508 0.427406 0
    endloop
  endfacet
  facet normal 0 0 -1
    outer loop
      vertex -4.70508 0.427406 0
      vertex -3.17837 3.52994 0
      vertex -2.375 4.11362 0
    endloop
  endfacet
  facet normal 0 0 -1
    outer loop
      vertex -2.375 4.11362 0
      vertex -1.46783 4.51752 0
      vertex -4.70508 0.427406 0
    endloop
  endfacet
  facet normal 0 0 -1
    outer loop
      vertex -4.70508 0.427406 0
      vertex -1.46783 4.51752 0
      vertex -0.49651 4.72398 0
    endloop
  endfacet
  facet normal 0 0 -1
    outer loop
      vertex -4.70508 0.427406 0
      vertex -0.49651 4.72398 0
      vertex 0.49651 4.72398 0
    endloop
  endfacet
  facet normal 0 0 -1
    outer loop
      vertex -4.70508 0.427406 0
      vertex 0.49651 4.72398 0
      vertex 1.46783 4.51752 0
    endloop
  endfacet
  facet normal 0 0 -1
    outer loop
      vertex -6.83987 -1.55131 0
      vertex 1.46783 4.51752 0
      vertex 2.375 4.11362 0
    endloop
  endfacet
  facet normal 0 0 -1
    outer loop
      vertex 0.695288 2.13988 0
      vertex 2.375 4.11362 0
      vertex 3.17837 3.52994 0
    endloop
  endfacet
  facet normal 0 0 -1
    outer loop
      vertex 0.695288 2.13988 0
      vertex 3.84283 2.79198 0
      vertex 1.50554 1.67208 0
    endloop
  endfacet
  facet normal 0 0 -1
    outer loop
      vertex 4.01141 -2.5 0
      vertex 4.01141 2.5 0
      vertex 45.9886 2.5 0
    endloop
  endfacet
  facet normal 0 0 -1
    outer loop
      vertex 45.9886 2.5 0
      vertex 46.1572 2.79198 0
      vertex 46.8216 3.52994 0
    endloop
  endfacet
  facet normal 0 0 -1
    outer loop
      vertex 45.9886 2.5 0
      vertex 46.8216 3.52994 0
      vertex 47.625 4.11362 0
    endloop
  endfacet
  facet normal 0 0 -1
    outer loop
      vertex 45.9886 2.5 0
      vertex 47.625 4.11362 0
      vertex 48.5322 4.51752 0
    endloop
  endfacet
  facet normal 0 0 -1
    outer loop
      vertex 45.9886 2.5 0
      vertex 48.5322 4.51752 0
      vertex 49.5035 4.72398 0
    endloop
  endfacet
  facet normal 0 0 -1
    outer loop
      vertex 45.9886 2.5 0
      vertex 49.5035 4.72398 0
      vertex 50.4965 4.72398 0
    endloop
  endfacet
  facet normal 0 0 -1
    outer loop
      vertex 45.9886 2.5 0
      vertex 50.4965 4.72398 0
      vertex 51.4678 4.51752 0
    endloop
  endfacet
  facet normal 0 0 -1
    outer loop
      vertex 45.9886 2.5 0
      vertex 51.4678 4.51752 0
      vertex 52.375 4.11362 0
    endloop
  endfacet
  facet normal 0 0 -1
    outer loop
      vertex 45.9886 2.5 0
      vertex 52.375 4.11362 0
      vertex 53.1784 3.52994 0
    endloop
  endfacet
  facet normal 0 0 -1
    outer loop
      vertex -6.83987 -1.55131 0
      vertex -2.20083 0.467801 0
      vertex -5.87542 -1.79658 0
    endloop
  endfacet
  facet normal 0 0 -1
    outer loop
      vertex 49.7648 2.23767 0
      vertex 53.1784 3.52994 0
      vertex 53.8428 2.79198 0
    endloop
  endfacet
  facet normal 0 0 -1
    outer loop
      vertex 51.5055 1.67208 0
      vertex 53.8428 2.79198 0
      vertex 54.3393 1.932 0
    endloop
  endfacet
  facet normal 0 0 -1
    outer loop
      vertex 52.0555 0.915157 0
      vertex 54.3393 1.932 0
      vertex 54.6462 0.987581 0
    endloop
  endfacet
  facet normal 0 0 -1
    outer loop
      vertex 52.25 0 0
      vertex 54.6462 0.987581 0
      vertex 54.75 0 0
    endloop
  endfacet
  facet normal 0 0 -1
    outer loop
      vertex 52.0555 -0.915157 0
      vertex 54.75 0 0
      vertex 54.6462 -0.987581 0
    endloop
  endfacet
  facet normal 0 0 -1
    outer loop
      vertex 50.6953 -2.13988 0
      vertex 54.6462 -0.987581 0
      vertex 54.3393 -1.932 0
    endloop
  endfacet
  facet normal 0 0 -1
    outer loop
      vertex 46.1572 -2.79198 0
      vertex 54.3393 -1.932 0
      vertex 53.8428 -2.79198 0
    endloop
  endfacet
  facet normal 0 0 -1
    outer loop
      vertex 46.8216 -3.52994 0
      vertex 53.8428 -2.79198 0
      vertex 53.1784 -3.52994 0
    endloop
  endfacet
  facet normal 0 0 -1
    outer loop
      vertex 47.625 -4.11362 0
      vertex 53.1784 -3.52994 0
      vertex 52.375 -4.11362 0
    endloop
  endfacet
  facet normal 0 0 -1
    outer loop
      vertex 48.5322 -4.51752 0
      vertex 52.375 -4.11362 0
      vertex 51.4678 -4.51752 0
    endloop
  endfacet
  facet normal 0 0 -1
    outer loop
      vertex 49.5035 -4.72398 0
      vertex 51.4678 -4.51752 0
      vertex 50.4965 -4.72398 0
    endloop
  endfacet
  facet normal 0 0 -1
    outer loop
      vertex -7.16395 -16.1882 0
      vertex -7.58303 -16.9473 0
      vertex -7.76392 -16.9448 0
    endloop
  endfacet
  facet normal 0 0 -1
    outer loop
      vertex 47.625 -4.11362 0
      vertex 52.375 -4.11362 0
      vertex 48.5322 -4.51752 0
    endloop
  endfacet
  facet normal 0 0 -1
    outer loop
      vertex 46.8216 -3.52994 0
      vertex 53.1784 -3.52994 0
      vertex 47.625 -4.11362 0
    endloop
  endfacet
  facet normal 0 0 -1
    outer loop
      vertex -1.125 1.94856 0
      vertex 2.375 4.11362 0
      vertex -0.235189 2.23767 0
    endloop
  endfacet
  facet normal 0 0 -1
    outer loop
      vertex 46.1572 -2.79198 0
      vertex 53.8428 -2.79198 0
      vertex 46.8216 -3.52994 0
    endloop
  endfacet
  facet normal 0 0 -1
    outer loop
      vertex 4.01141 -2.5 0
      vertex 45.9886 2.5 0
      vertex 49.7648 2.23767 0
    endloop
  endfacet
  facet normal 0 0 -1
    outer loop
      vertex 45.9886 -2.5 0
      vertex 54.3393 -1.932 0
      vertex 46.1572 -2.79198 0
    endloop
  endfacet
  facet normal 0 0 -1
    outer loop
      vertex 45.9886 2.5 0
      vertex 53.1784 3.52994 0
      vertex 49.7648 2.23767 0
    endloop
  endfacet
  facet normal 0 0 -1
    outer loop
      vertex 2.05548 -0.915157 0
      vertex 4.01141 2.5 0
      vertex 4.01141 -2.5 0
    endloop
  endfacet
  facet normal 0 0 -1
    outer loop
      vertex -1.82029 -1.32252 0
      vertex -4.11423 -2.71102 0
      vertex -4.95972 -2.18619 0
    endloop
  endfacet
  facet normal 0 0 -1
    outer loop
      vertex 0.975934 -6.84172 0
      vertex -1.55131 -6.83987 0
      vertex 0.799265 -5.866 0
    endloop
  endfacet
  facet normal 0 0 -1
    outer loop
      vertex -2.18619 -4.95972 0
      vertex 3.17837 -3.52994 0
      vertex 2.375 -4.11362 0
    endloop
  endfacet
  facet normal 0 0 -1
    outer loop
      vertex -2.71102 -4.11423 0
      vertex 3.84283 -2.79198 0
      vertex 3.17837 -3.52994 0
    endloop
  endfacet
  facet normal 0 0 -1
    outer loop
      vertex 0.435388 -4.72398 0
      vertex 1.46783 -4.51752 0
      vertex 0.49651 -4.72398 0
    endloop
  endfacet
  facet normal 0 0 -1
    outer loop
      vertex -2.71102 -4.11423 0
      vertex 3.17837 -3.52994 0
      vertex -2.18619 -4.95972 0
    endloop
  endfacet
  facet normal 0 0 -1
    outer loop
      vertex 0.799265 -5.866 0
      vertex -1.79658 -5.87542 0
      vertex 0.516331 -4.91565 0
    endloop
  endfacet
  facet normal 0 0 -1
    outer loop
      vertex -2.18619 -4.95972 0
      vertex 0.516331 -4.91565 0
      vertex -1.79658 -5.87542 0
    endloop
  endfacet
  facet normal 0 0 -1
    outer loop
      vertex -7.16395 -16.1882 0
      vertex -6.59606 -16.8518 0
      vertex -7.58303 -16.9473 0
    endloop
  endfacet
  facet normal 0 0 -1
    outer loop
      vertex -1.45614 -7.83044 0
      vertex 1.04419 -7.83094 0
      vertex 1.00322 -8.82168 0
    endloop
  endfacet
  facet normal 0 0 -1
    outer loop
      vertex -1.5133 -8.82394 0
      vertex 1.00322 -8.82168 0
      vertex 0.8535 -9.80189 0
    endloop
  endfacet
  facet normal 0 0 -1
    outer loop
      vertex -1.72145 -9.79707 0
      vertex 0.8535 -9.80189 0
      vertex 0.59686 -10.7597 0
    endloop
  endfacet
  facet normal 0 0 -1
    outer loop
      vertex -2.0757 -10.727 0
      vertex 0.59686 -10.7597 0
      vertex 0.236413 -11.6834 0
    endloop
  endfacet
  facet normal 0 0 -1
    outer loop
      vertex -2.56776 -11.592 0
      vertex 0.236413 -11.6834 0
      vertex -0.223466 -12.5619 0
    endloop
  endfacet
  facet normal 0 0 -1
    outer loop
      vertex -3.18608 -12.3717 0
      vertex -0.223466 -12.5619 0
      vertex -0.777194 -13.3845 0
    endloop
  endfacet
  facet normal 0 0 -1
    outer loop
      vertex -3.91619 -13.0479 0
      vertex -0.777194 -13.3845 0
      vertex -1.41805 -14.1411 0
    endloop
  endfacet
  facet normal 0 0 -1
    outer loop
      vertex -4.74096 -13.6048 0
      vertex -2.13826 -14.8227 0
      vertex -2.92907 -15.4209 0
    endloop
  endfacet
  facet normal 0 0 -1
    outer loop
      vertex -6.28015 -14.218 0
      vertex -2.92907 -15.4209 0
      vertex -3.78089 -15.9285 0
    endloop
  endfacet
  facet normal 0 0 -1
    outer loop
      vertex -6.31764 -14.3933 0
      vertex -3.78089 -15.9285 0
      vertex -4.68338 -16.3393 0
    endloop
  endfacet
  facet normal 0 0 -1
    outer loop
      vertex -6.67189 -15.3232 0
      vertex -4.68338 -16.3393 0
      vertex -5.62558 -16.6483 0
    endloop
  endfacet
  facet normal 0 0 -1
    outer loop
      vertex -7.16395 -16.1882 0
      vertex -5.62558 -16.6483 0
      vertex -6.59606 -16.8518 0
    endloop
  endfacet
  facet normal 0 0 -1
    outer loop
      vertex -6.67189 -15.3232 0
      vertex -5.62558 -16.6483 0
      vertex -7.16395 -16.1882 0
    endloop
  endfacet
  facet normal 0 0 -1
    outer loop
      vertex -6.31764 -14.3933 0
      vertex -4.68338 -16.3393 0
      vertex -6.67189 -15.3232 0
    endloop
  endfacet
  facet normal 0 0 -1
    outer loop
      vertex -6.28015 -14.218 0
      vertex -3.78089 -15.9285 0
      vertex -6.31764 -14.3933 0
    endloop
  endfacet
  facet normal 0 0 -1
    outer loop
      vertex -5.64107 -14.0292 0
      vertex -2.92907 -15.4209 0
      vertex -6.28015 -14.218 0
    endloop
  endfacet
  facet normal 0 0 -1
    outer loop
      vertex -4.74096 -13.6048 0
      vertex -2.92907 -15.4209 0
      vertex -5.64107 -14.0292 0
    endloop
  endfacet
  facet normal 0 0 -1
    outer loop
      vertex -3.91619 -13.0479 0
      vertex -2.13826 -14.8227 0
      vertex -4.74096 -13.6048 0
    endloop
  endfacet
  facet normal 0 0 -1
    outer loop
      vertex -3.91619 -13.0479 0
      vertex -1.41805 -14.1411 0
      vertex -2.13826 -14.8227 0
    endloop
  endfacet
  facet normal 0 0 -1
    outer loop
      vertex -3.18608 -12.3717 0
      vertex -0.777194 -13.3845 0
      vertex -3.91619 -13.0479 0
    endloop
  endfacet
  facet normal 0 0 -1
    outer loop
      vertex -2.56776 -11.592 0
      vertex -0.223466 -12.5619 0
      vertex -3.18608 -12.3717 0
    endloop
  endfacet
  facet normal 0 0 -1
    outer loop
      vertex -2.0757 -10.727 0
      vertex 0.236413 -11.6834 0
      vertex -2.56776 -11.592 0
    endloop
  endfacet
  facet normal 0 0 -1
    outer loop
      vertex -1.72145 -9.79707 0
      vertex 0.59686 -10.7597 0
      vertex -2.0757 -10.727 0
    endloop
  endfacet
  facet normal 0 0 -1
    outer loop
      vertex -1.5133 -8.82394 0
      vertex 0.8535 -9.80189 0
      vertex -1.72145 -9.79707 0
    endloop
  endfacet
  facet normal 0 0 -1
    outer loop
      vertex -1.55131 -6.83987 0
      vertex 1.04419 -7.83094 0
      vertex -1.45614 -7.83044 0
    endloop
  endfacet
  facet normal 0 0 -1
    outer loop
      vertex -1.45614 -7.83044 0
      vertex 1.00322 -8.82168 0
      vertex -1.5133 -8.82394 0
    endloop
  endfacet
  facet normal 0 0 -1
    outer loop
      vertex -2.18619 -4.95972 0
      vertex 0.435388 -4.72398 0
      vertex 0.516331 -4.91565 0
    endloop
  endfacet
  facet normal 0 0 -1
    outer loop
      vertex -1.55131 -6.83987 0
      vertex 0.975934 -6.84172 0
      vertex 1.04419 -7.83094 0
    endloop
  endfacet
  facet normal 0 0 -1
    outer loop
      vertex -5.87542 -1.79658 0
      vertex -2.20083 -0.467801 0
      vertex -4.95972 -2.18619 0
    endloop
  endfacet
  facet normal 0 0 -1
    outer loop
      vertex -2.71102 -4.11423 0
      vertex 4.01141 -2.5 0
      vertex 3.84283 -2.79198 0
    endloop
  endfacet
  facet normal 0 0 -1
    outer loop
      vertex 0.695288 2.13988 0
      vertex 3.17837 3.52994 0
      vertex 3.84283 2.79198 0
    endloop
  endfacet
  facet normal 0 0 -1
    outer loop
      vertex -1.82029 -1.32252 0
      vertex -4.95972 -2.18619 0
      vertex -2.20083 -0.467801 0
    endloop
  endfacet
  facet normal 0 0 -1
    outer loop
      vertex -7.83044 -1.45614 0
      vertex -4.91565 0.516331 0
      vertex -4.70508 0.427406 0
    endloop
  endfacet
  facet normal 0 0 -1
    outer loop
      vertex -8.82394 -1.5133 0
      vertex -5.866 0.799265 0
      vertex -7.83044 -1.45614 0
    endloop
  endfacet
  facet normal 0 0 -1
    outer loop
      vertex -9.79707 -1.72145 0
      vertex -5.866 0.799265 0
      vertex -8.82394 -1.5133 0
    endloop
  endfacet
  facet normal 0 0 -1
    outer loop
      vertex -10.727 -2.0757 0
      vertex -6.84172 0.975934 0
      vertex -9.79707 -1.72145 0
    endloop
  endfacet
  facet normal 0 0 -1
    outer loop
      vertex -11.592 -2.56776 0
      vertex -7.83094 1.04419 0
      vertex -10.727 -2.0757 0
    endloop
  endfacet
  facet normal 0 0 -1
    outer loop
      vertex -12.3717 -3.18608 0
      vertex -8.82168 1.00322 0
      vertex -11.592 -2.56776 0
    endloop
  endfacet
  facet normal 0 0 -1
    outer loop
      vertex -13.6048 -4.74096 0
      vertex -16.9448 -7.76392 0
      vertex -13.0479 -3.91619 0
    endloop
  endfacet
  facet normal 0 0 -1
    outer loop
      vertex -16.9448 -7.76392 0
      vertex -8.82168 1.00322 0
      vertex -12.3717 -3.18608 0
    endloop
  endfacet
  facet normal 0 0 -1
    outer loop
      vertex -16.9448 -7.76392 0
      vertex -12.3717 -3.18608 0
      vertex -13.0479 -3.91619 0
    endloop
  endfacet
  facet normal 0 0 -1
    outer loop
      vertex -14.0292 -5.64107 0
      vertex -16.1882 -7.16395 0
      vertex -13.6048 -4.74096 0
    endloop
  endfacet
  facet normal 0 0 -1
    outer loop
      vertex -2.20083 0.467801 0
      vertex -6.83987 -1.55131 0
      vertex -1.82029 1.32252 0
    endloop
  endfacet
  facet normal 0 0 -1
    outer loop
      vertex -16.1882 -7.16395 0
      vertex -16.9448 -7.76392 0
      vertex -13.6048 -4.74096 0
    endloop
  endfacet
  facet normal 0 0 -1
    outer loop
      vertex -14.218 -6.28015 0
      vertex -14.3933 -6.31764 0
      vertex -14.0292 -5.64107 0
    endloop
  endfacet
  facet normal 0 0 -1
    outer loop
      vertex -6.83987 -1.55131 0
      vertex -1.125 1.94856 0
      vertex -1.82029 1.32252 0
    endloop
  endfacet
  facet normal 0 0 -1
    outer loop
      vertex -1.125 -1.94856 0
      vertex -3.35876 -3.35876 0
      vertex -1.82029 -1.32252 0
    endloop
  endfacet
  facet normal 0 0 -1
    outer loop
      vertex -4.11423 -2.71102 0
      vertex -1.82029 -1.32252 0
      vertex -3.35876 -3.35876 0
    endloop
  endfacet
  facet normal 0 0 -1
    outer loop
      vertex 1.50554 1.67208 0
      vertex 3.84283 2.79198 0
      vertex 4.01141 2.5 0
    endloop
  endfacet
  facet normal 0 0 -1
    outer loop
      vertex -3.35876 -3.35876 0
      vertex -1.125 -1.94856 0
      vertex -2.71102 -4.11423 0
    endloop
  endfacet
  facet normal 0 0 -1
    outer loop
      vertex 2.25 0 0
      vertex 4.01141 2.5 0
      vertex 2.05548 -0.915157 0
    endloop
  endfacet
  facet normal 0 0 -1
    outer loop
      vertex -2.71102 -4.11423 0
      vertex -0.235189 -2.23767 0
      vertex 4.01141 -2.5 0
    endloop
  endfacet
  facet normal 0 0 -1
    outer loop
      vertex -0.235189 -2.23767 0
      vertex 0.695288 -2.13988 0
      vertex 4.01141 -2.5 0
    endloop
  endfacet
  facet normal 0 0 -1
    outer loop
      vertex 2.05548 0.915157 0
      vertex 4.01141 2.5 0
      vertex 2.25 0 0
    endloop
  endfacet
  facet normal 0 0 -1
    outer loop
      vertex 0.695288 -2.13988 0
      vertex 1.50554 -1.67208 0
      vertex 4.01141 -2.5 0
    endloop
  endfacet
  facet normal 0 0 -1
    outer loop
      vertex 1.50554 -1.67208 0
      vertex 2.05548 -0.915157 0
      vertex 4.01141 -2.5 0
    endloop
  endfacet
  facet normal 0 0 -1
    outer loop
      vertex 1.50554 1.67208 0
      vertex 4.01141 2.5 0
      vertex 2.05548 0.915157 0
    endloop
  endfacet
  facet normal 0 0 -1
    outer loop
      vertex -0.235189 -2.23767 0
      vertex -2.71102 -4.11423 0
      vertex -1.125 -1.94856 0
    endloop
  endfacet
  facet normal 0 0 -1
    outer loop
      vertex -6.83987 -1.55131 0
      vertex 2.375 4.11362 0
      vertex -1.125 1.94856 0
    endloop
  endfacet
  facet normal 0 0 -1
    outer loop
      vertex 49.7648 -2.23767 0
      vertex 45.9886 -2.5 0
      vertex 48.875 -1.94856 0
    endloop
  endfacet
  facet normal 0 0 -1
    outer loop
      vertex -0.235189 2.23767 0
      vertex 2.375 4.11362 0
      vertex 0.695288 2.13988 0
    endloop
  endfacet
  facet normal 0 0 -1
    outer loop
      vertex -4.70508 0.427406 0
      vertex 1.46783 4.51752 0
      vertex -6.83987 -1.55131 0
    endloop
  endfacet
  facet normal 0 0 -1
    outer loop
      vertex -7.83044 -1.45614 0
      vertex -4.70508 0.427406 0
      vertex -6.83987 -1.55131 0
    endloop
  endfacet
  facet normal 0 0 -1
    outer loop
      vertex 52.0555 -0.915157 0
      vertex 54.6462 -0.987581 0
      vertex 51.5055 -1.67208 0
    endloop
  endfacet
  facet normal 0 0 -1
    outer loop
      vertex 45.9886 -2.5 0
      vertex 49.7648 -2.23767 0
      vertex 54.3393 -1.932 0
    endloop
  endfacet
  facet normal 0 0 -1
    outer loop
      vertex 49.7648 -2.23767 0
      vertex 50.6953 -2.13988 0
      vertex 54.3393 -1.932 0
    endloop
  endfacet
  facet normal 0 0 -1
    outer loop
      vertex 51.5055 -1.67208 0
      vertex 54.6462 -0.987581 0
      vertex 50.6953 -2.13988 0
    endloop
  endfacet
  facet normal 0 0 -1
    outer loop
      vertex 52.25 0 0
      vertex 54.75 0 0
      vertex 52.0555 -0.915157 0
    endloop
  endfacet
  facet normal 0 0 -1
    outer loop
      vertex 52.0555 0.915157 0
      vertex 54.6462 0.987581 0
      vertex 52.25 0 0
    endloop
  endfacet
  facet normal 0 0 -1
    outer loop
      vertex 51.5055 1.67208 0
      vertex 54.3393 1.932 0
      vertex 52.0555 0.915157 0
    endloop
  endfacet
  facet normal 0 0 -1
    outer loop
      vertex 50.6953 2.13988 0
      vertex 53.8428 2.79198 0
      vertex 51.5055 1.67208 0
    endloop
  endfacet
  facet normal 0 0 -1
    outer loop
      vertex -16.1882 -7.16395 0
      vertex -14.0292 -5.64107 0
      vertex -15.3232 -6.67189 0
    endloop
  endfacet
  facet normal 0 0 -1
    outer loop
      vertex 48.5322 -4.51752 0
      vertex 51.4678 -4.51752 0
      vertex 49.5035 -4.72398 0
    endloop
  endfacet
  facet normal 0 0 -1
    outer loop
      vertex 4.01141 -2.5 0
      vertex 49.7648 2.23767 0
      vertex 48.875 1.94856 0
    endloop
  endfacet
  facet normal 0 0 -1
    outer loop
      vertex 4.01141 -2.5 0
      vertex 48.875 1.94856 0
      vertex 48.1797 1.32252 0
    endloop
  endfacet
  facet normal 0 0 -1
    outer loop
      vertex 49.7648 2.23767 0
      vertex 53.8428 2.79198 0
      vertex 50.6953 2.13988 0
    endloop
  endfacet
  facet normal 0 0 -1
    outer loop
      vertex 4.01141 -2.5 0
      vertex 48.1797 1.32252 0
      vertex 47.7992 0.467801 0
    endloop
  endfacet
  facet normal 0 0 -1
    outer loop
      vertex 4.01141 -2.5 0
      vertex 47.7992 0.467801 0
      vertex 47.7992 -0.467801 0
    endloop
  endfacet
  facet normal 0 0 -1
    outer loop
      vertex 4.01141 -2.5 0
      vertex 47.7992 -0.467801 0
      vertex 48.1797 -1.32252 0
    endloop
  endfacet
  facet normal 0 0 -1
    outer loop
      vertex 4.01141 -2.5 0
      vertex 48.1797 -1.32252 0
      vertex 48.875 -1.94856 0
    endloop
  endfacet
  facet normal 0 0 -1
    outer loop
      vertex 4.01141 -2.5 0
      vertex 48.875 -1.94856 0
      vertex 45.9886 -2.5 0
    endloop
  endfacet
  facet normal 0 0 -1
    outer loop
      vertex -2.20083 -0.467801 0
      vertex -5.87542 -1.79658 0
      vertex -2.20083 0.467801 0
    endloop
  endfacet
  facet normal 0 0 -1
    outer loop
      vertex -2.18619 -4.95972 0
      vertex 2.375 -4.11362 0
      vertex 1.46783 -4.51752 0
    endloop
  endfacet
  facet normal 0 0 -1
    outer loop
      vertex -1.79658 -5.87542 0
      vertex 0.799265 -5.866 0
      vertex -1.55131 -6.83987 0
    endloop
  endfacet
  facet normal 0 0 -1
    outer loop
      vertex -2.18619 -4.95972 0
      vertex 1.46783 -4.51752 0
      vertex 0.435388 -4.72398 0
    endloop
  endfacet
  facet normal -0.995352 0.0963028 0
    outer loop
      vertex -16.9473 -7.58303 0
      vertex -16.9473 -7.58303 5
      vertex -16.8518 -6.59606 0
    endloop
  endfacet
  facet normal -0.995352 0.0963028 0
    outer loop
      vertex -16.8518 -6.59606 0
      vertex -16.9473 -7.58303 5
      vertex -16.8518 -6.59606 5
    endloop
  endfacet
  facet normal -0.999905 -0.0137787 0
    outer loop
      vertex -16.9473 -7.58303 0
      vertex -16.9448 -7.76392 0
      vertex -16.9473 -7.58303 5
    endloop
  endfacet
  facet normal -0.999905 -0.0137787 0
    outer loop
      vertex -16.9473 -7.58303 5
      vertex -16.9448 -7.76392 0
      vertex -16.9448 -7.76392 5
    endloop
  endfacet
  facet normal 0.621348 -0.783535 0
    outer loop
      vertex -16.1882 -7.16395 0
      vertex -16.1882 -7.16395 5
      vertex -16.9448 -7.76392 5
    endloop
  endfacet
  facet normal 0.621348 -0.783535 0
    outer loop
      vertex -16.9448 -7.76392 0
      vertex -16.1882 -7.16395 0
      vertex -16.9448 -7.76392 5
    endloop
  endfacet
  facet normal 0.49446 -0.8692 0
    outer loop
      vertex -15.3232 -6.67189 0
      vertex -15.3232 -6.67189 5
      vertex -16.1882 -7.16395 5
    endloop
  endfacet
  facet normal 0.49446 -0.8692 0
    outer loop
      vertex -16.1882 -7.16395 0
      vertex -15.3232 -6.67189 0
      vertex -16.1882 -7.16395 5
    endloop
  endfacet
  facet normal 0.355983 -0.934492 0
    outer loop
      vertex -14.3933 -6.31764 0
      vertex -14.3933 -6.31764 5
      vertex -15.3232 -6.67189 5
    endloop
  endfacet
  facet normal 0.355983 -0.934492 0
    outer loop
      vertex -15.3232 -6.67189 0
      vertex -14.3933 -6.31764 0
      vertex -15.3232 -6.67189 5
    endloop
  endfacet
  facet normal 0.20916 -0.977881 0
    outer loop
      vertex -14.218 -6.28015 0
      vertex -14.218 -6.28015 5
      vertex -14.3933 -6.31764 5
    endloop
  endfacet
  facet normal 0.20916 -0.977881 0
    outer loop
      vertex -14.3933 -6.31764 0
      vertex -14.218 -6.28015 0
      vertex -14.3933 -6.31764 5
    endloop
  endfacet
  facet normal 0.959001 -0.283402 0
    outer loop
      vertex -14.0292 -5.64107 0
      vertex -14.0292 -5.64107 5
      vertex -14.218 -6.28015 5
    endloop
  endfacet
  facet normal 0.959001 -0.283402 0
    outer loop
      vertex -14.218 -6.28015 0
      vertex -14.0292 -5.64107 0
      vertex -14.218 -6.28015 5
    endloop
  endfacet
  facet normal 0.904501 -0.426473 0
    outer loop
      vertex -13.6048 -4.74096 0
      vertex -13.6048 -4.74096 5
      vertex -14.0292 -5.64107 5
    endloop
  endfacet
  facet normal 0.904501 -0.426473 0
    outer loop
      vertex -14.0292 -5.64107 0
      vertex -13.6048 -4.74096 0
      vertex -14.0292 -5.64107 5
    endloop
  endfacet
  facet normal 0.828799 -0.559546 0
    outer loop
      vertex -13.0479 -3.91619 0
      vertex -13.0479 -3.91619 5
      vertex -13.6048 -4.74096 5
    endloop
  endfacet
  facet normal 0.828799 -0.559546 0
    outer loop
      vertex -13.6048 -4.74096 0
      vertex -13.0479 -3.91619 0
      vertex -13.6048 -4.74096 5
    endloop
  endfacet
  facet normal 0.733672 -0.679504 0
    outer loop
      vertex -12.3717 -3.18608 0
      vertex -12.3717 -3.18608 5
      vertex -13.0479 -3.91619 5
    endloop
  endfacet
  facet normal 0.733672 -0.679504 0
    outer loop
      vertex -13.0479 -3.91619 0
      vertex -12.3717 -3.18608 0
      vertex -13.0479 -3.91619 5
    endloop
  endfacet
  facet normal 0.621348 -0.783535 0
    outer loop
      vertex -11.592 -2.56776 0
      vertex -11.592 -2.56776 5
      vertex -12.3717 -3.18608 5
    endloop
  endfacet
  facet normal 0.621348 -0.783535 0
    outer loop
      vertex -12.3717 -3.18608 0
      vertex -11.592 -2.56776 0
      vertex -12.3717 -3.18608 5
    endloop
  endfacet
  facet normal 0.49446 -0.8692 0
    outer loop
      vertex -10.727 -2.0757 0
      vertex -10.727 -2.0757 5
      vertex -11.592 -2.56776 5
    endloop
  endfacet
  facet normal 0.49446 -0.8692 0
    outer loop
      vertex -11.592 -2.56776 0
      vertex -10.727 -2.0757 0
      vertex -11.592 -2.56776 5
    endloop
  endfacet
  facet normal 0.355983 -0.934492 0
    outer loop
      vertex -9.79707 -1.72145 0
      vertex -9.79707 -1.72145 5
      vertex -10.727 -2.0757 5
    endloop
  endfacet
  facet normal 0.355983 -0.934492 0
    outer loop
      vertex -10.727 -2.0757 0
      vertex -9.79707 -1.72145 0
      vertex -10.727 -2.0757 5
    endloop
  endfacet
  facet normal 0.20916 -0.977881 0
    outer loop
      vertex -8.82394 -1.5133 0
      vertex -8.82394 -1.5133 5
      vertex -9.79707 -1.72145 5
    endloop
  endfacet
  facet normal 0.20916 -0.977881 0
    outer loop
      vertex -9.79707 -1.72145 0
      vertex -8.82394 -1.5133 0
      vertex -9.79707 -1.72145 5
    endloop
  endfacet
  facet normal 0.057436 -0.998349 0
    outer loop
      vertex -7.83044 -1.45614 0
      vertex -7.83044 -1.45614 5
      vertex -8.82394 -1.5133 5
    endloop
  endfacet
  facet normal 0.057436 -0.998349 0
    outer loop
      vertex -8.82394 -1.5133 0
      vertex -7.83044 -1.45614 0
      vertex -8.82394 -1.5133 5
    endloop
  endfacet
  facet normal -0.0956335 -0.995417 0
    outer loop
      vertex -6.83987 -1.55131 0
      vertex -6.83987 -1.55131 5
      vertex -7.83044 -1.45614 5
    endloop
  endfacet
  facet normal -0.0956335 -0.995417 0
    outer loop
      vertex -7.83044 -1.45614 0
      vertex -6.83987 -1.55131 0
      vertex -7.83044 -1.45614 5
    endloop
  endfacet
  facet normal -0.246463 -0.969152 0
    outer loop
      vertex -5.87542 -1.79658 0
      vertex -5.87542 -1.79658 5
      vertex -6.83987 -1.55131 5
    endloop
  endfacet
  facet normal -0.246463 -0.969152 0
    outer loop
      vertex -6.83987 -1.55131 0
      vertex -5.87542 -1.79658 0
      vertex -6.83987 -1.55131 5
    endloop
  endfacet
  facet normal -0.391514 -0.920172 0
    outer loop
      vertex -4.95972 -2.18619 0
      vertex -4.95972 -2.18619 5
      vertex -5.87542 -1.79658 5
    endloop
  endfacet
  facet normal -0.391514 -0.920172 0
    outer loop
      vertex -5.87542 -1.79658 0
      vertex -4.95972 -2.18619 0
      vertex -5.87542 -1.79658 5
    endloop
  endfacet
  facet normal -0.52739 -0.849623 0
    outer loop
      vertex -4.11423 -2.71102 0
      vertex -4.11423 -2.71102 5
      vertex -4.95972 -2.18619 5
    endloop
  endfacet
  facet normal -0.52739 -0.849623 0
    outer loop
      vertex -4.95972 -2.18619 0
      vertex -4.11423 -2.71102 0
      vertex -4.95972 -2.18619 5
    endloop
  endfacet
  facet normal -0.650904 -0.75916 0
    outer loop
      vertex -3.35876 -3.35876 0
      vertex -3.35876 -3.35876 5
      vertex -4.11423 -2.71102 5
    endloop
  endfacet
  facet normal -0.650904 -0.75916 0
    outer loop
      vertex -4.11423 -2.71102 0
      vertex -3.35876 -3.35876 0
      vertex -4.11423 -2.71102 5
    endloop
  endfacet
  facet normal -0.75916 -0.650904 0
    outer loop
      vertex -2.71102 -4.11423 5
      vertex -3.35876 -3.35876 5
      vertex -2.71102 -4.11423 0
    endloop
  endfacet
  facet normal -0.75916 -0.650904 0
    outer loop
      vertex -2.71102 -4.11423 0
      vertex -3.35876 -3.35876 5
      vertex -3.35876 -3.35876 0
    endloop
  endfacet
  facet normal -0.849623 -0.52739 0
    outer loop
      vertex -2.18619 -4.95972 5
      vertex -2.71102 -4.11423 5
      vertex -2.18619 -4.95972 0
    endloop
  endfacet
  facet normal -0.849623 -0.52739 0
    outer loop
      vertex -2.18619 -4.95972 0
      vertex -2.71102 -4.11423 5
      vertex -2.71102 -4.11423 0
    endloop
  endfacet
  facet normal -0.920172 -0.391514 0
    outer loop
      vertex -1.79658 -5.87542 5
      vertex -2.18619 -4.95972 5
      vertex -1.79658 -5.87542 0
    endloop
  endfacet
  facet normal -0.920172 -0.391514 0
    outer loop
      vertex -1.79658 -5.87542 0
      vertex -2.18619 -4.95972 5
      vertex -2.18619 -4.95972 0
    endloop
  endfacet
  facet normal -0.969152 -0.246463 0
    outer loop
      vertex -1.55131 -6.83987 5
      vertex -1.79658 -5.87542 5
      vertex -1.55131 -6.83987 0
    endloop
  endfacet
  facet normal -0.969152 -0.246463 0
    outer loop
      vertex -1.55131 -6.83987 0
      vertex -1.79658 -5.87542 5
      vertex -1.79658 -5.87542 0
    endloop
  endfacet
  facet normal -0.995417 -0.0956335 0
    outer loop
      vertex -1.45614 -7.83044 5
      vertex -1.55131 -6.83987 5
      vertex -1.45614 -7.83044 0
    endloop
  endfacet
  facet normal -0.995417 -0.0956335 0
    outer loop
      vertex -1.45614 -7.83044 0
      vertex -1.55131 -6.83987 5
      vertex -1.55131 -6.83987 0
    endloop
  endfacet
  facet normal -0.998349 0.057436 0
    outer loop
      vertex -1.45614 -7.83044 5
      vertex -1.45614 -7.83044 0
      vertex -1.5133 -8.82394 5
    endloop
  endfacet
  facet normal -0.998349 0.057436 0
    outer loop
      vertex -1.5133 -8.82394 5
      vertex -1.45614 -7.83044 0
      vertex -1.5133 -8.82394 0
    endloop
  endfacet
  facet normal -0.977881 0.20916 0
    outer loop
      vertex -1.5133 -8.82394 5
      vertex -1.5133 -8.82394 0
      vertex -1.72145 -9.79707 5
    endloop
  endfacet
  facet normal -0.977881 0.20916 0
    outer loop
      vertex -1.72145 -9.79707 5
      vertex -1.5133 -8.82394 0
      vertex -1.72145 -9.79707 0
    endloop
  endfacet
  facet normal -0.934492 0.355983 0
    outer loop
      vertex -1.72145 -9.79707 5
      vertex -1.72145 -9.79707 0
      vertex -2.0757 -10.727 5
    endloop
  endfacet
  facet normal -0.934492 0.355983 0
    outer loop
      vertex -2.0757 -10.727 5
      vertex -1.72145 -9.79707 0
      vertex -2.0757 -10.727 0
    endloop
  endfacet
  facet normal -0.8692 0.49446 0
    outer loop
      vertex -2.0757 -10.727 5
      vertex -2.0757 -10.727 0
      vertex -2.56776 -11.592 5
    endloop
  endfacet
  facet normal -0.8692 0.49446 0
    outer loop
      vertex -2.56776 -11.592 5
      vertex -2.0757 -10.727 0
      vertex -2.56776 -11.592 0
    endloop
  endfacet
  facet normal -0.783535 0.621348 0
    outer loop
      vertex -2.56776 -11.592 5
      vertex -2.56776 -11.592 0
      vertex -3.18608 -12.3717 5
    endloop
  endfacet
  facet normal -0.783535 0.621348 0
    outer loop
      vertex -3.18608 -12.3717 5
      vertex -2.56776 -11.592 0
      vertex -3.18608 -12.3717 0
    endloop
  endfacet
  facet normal -0.679504 0.733672 0
    outer loop
      vertex -3.18608 -12.3717 5
      vertex -3.18608 -12.3717 0
      vertex -3.91619 -13.0479 5
    endloop
  endfacet
  facet normal -0.679504 0.733672 0
    outer loop
      vertex -3.91619 -13.0479 5
      vertex -3.18608 -12.3717 0
      vertex -3.91619 -13.0479 0
    endloop
  endfacet
  facet normal -0.559546 0.828799 0
    outer loop
      vertex -3.91619 -13.0479 5
      vertex -3.91619 -13.0479 0
      vertex -4.74096 -13.6048 5
    endloop
  endfacet
  facet normal -0.559546 0.828799 0
    outer loop
      vertex -4.74096 -13.6048 5
      vertex -3.91619 -13.0479 0
      vertex -4.74096 -13.6048 0
    endloop
  endfacet
  facet normal -0.426473 0.904501 0
    outer loop
      vertex -4.74096 -13.6048 5
      vertex -4.74096 -13.6048 0
      vertex -5.64107 -14.0292 5
    endloop
  endfacet
  facet normal -0.426473 0.904501 0
    outer loop
      vertex -5.64107 -14.0292 5
      vertex -4.74096 -13.6048 0
      vertex -5.64107 -14.0292 0
    endloop
  endfacet
  facet normal -0.283402 0.959001 0
    outer loop
      vertex -5.64107 -14.0292 5
      vertex -5.64107 -14.0292 0
      vertex -6.28015 -14.218 5
    endloop
  endfacet
  facet normal -0.283402 0.959001 0
    outer loop
      vertex -6.28015 -14.218 5
      vertex -5.64107 -14.0292 0
      vertex -6.28015 -14.218 0
    endloop
  endfacet
  facet normal -0.977881 0.20916 0
    outer loop
      vertex -6.28015 -14.218 5
      vertex -6.28015 -14.218 0
      vertex -6.31764 -14.3933 5
    endloop
  endfacet
  facet normal -0.977881 0.20916 0
    outer loop
      vertex -6.31764 -14.3933 5
      vertex -6.28015 -14.218 0
      vertex -6.31764 -14.3933 0
    endloop
  endfacet
  facet normal -0.934492 0.355983 0
    outer loop
      vertex -6.31764 -14.3933 5
      vertex -6.31764 -14.3933 0
      vertex -6.67189 -15.3232 5
    endloop
  endfacet
  facet normal -0.934492 0.355983 0
    outer loop
      vertex -6.67189 -15.3232 5
      vertex -6.31764 -14.3933 0
      vertex -6.67189 -15.3232 0
    endloop
  endfacet
  facet normal -0.8692 0.49446 0
    outer loop
      vertex -6.67189 -15.3232 5
      vertex -6.67189 -15.3232 0
      vertex -7.16395 -16.1882 5
    endloop
  endfacet
  facet normal -0.8692 0.49446 0
    outer loop
      vertex -7.16395 -16.1882 5
      vertex -6.67189 -15.3232 0
      vertex -7.16395 -16.1882 0
    endloop
  endfacet
  facet normal -0.783535 0.621348 0
    outer loop
      vertex -7.16395 -16.1882 5
      vertex -7.16395 -16.1882 0
      vertex -7.76392 -16.9448 5
    endloop
  endfacet
  facet normal -0.783535 0.621348 0
    outer loop
      vertex -7.76392 -16.9448 5
      vertex -7.16395 -16.1882 0
      vertex -7.76392 -16.9448 0
    endloop
  endfacet
  facet normal -0.0137787 -0.999905 0
    outer loop
      vertex -7.76392 -16.9448 5
      vertex -7.76392 -16.9448 0
      vertex -7.58303 -16.9473 0
    endloop
  endfacet
  facet normal -0.0137787 -0.999905 0
    outer loop
      vertex -7.58303 -16.9473 5
      vertex -7.76392 -16.9448 5
      vertex -7.58303 -16.9473 0
    endloop
  endfacet
  facet normal 0.0963028 -0.995352 0
    outer loop
      vertex -7.58303 -16.9473 5
      vertex -7.58303 -16.9473 0
      vertex -6.59606 -16.8518 0
    endloop
  endfacet
  facet normal 0.0963028 -0.995352 0
    outer loop
      vertex -6.59606 -16.8518 5
      vertex -7.58303 -16.9473 5
      vertex -6.59606 -16.8518 0
    endloop
  endfacet
  facet normal 0.205215 -0.978717 0
    outer loop
      vertex -6.59606 -16.8518 5
      vertex -6.59606 -16.8518 0
      vertex -5.62558 -16.6483 0
    endloop
  endfacet
  facet normal 0.205215 -0.978717 0
    outer loop
      vertex -5.62558 -16.6483 5
      vertex -6.59606 -16.8518 5
      vertex -5.62558 -16.6483 0
    endloop
  endfacet
  facet normal 0.311637 -0.950201 0
    outer loop
      vertex -5.62558 -16.6483 5
      vertex -5.62558 -16.6483 0
      vertex -4.68338 -16.3393 0
    endloop
  endfacet
  facet normal 0.311637 -0.950201 0
    outer loop
      vertex -4.68338 -16.3393 5
      vertex -5.62558 -16.6483 5
      vertex -4.68338 -16.3393 0
    endloop
  endfacet
  facet normal 0.414275 -0.910152 0
    outer loop
      vertex -4.68338 -16.3393 5
      vertex -4.68338 -16.3393 0
      vertex -3.78089 -15.9285 0
    endloop
  endfacet
  facet normal 0.414275 -0.910152 0
    outer loop
      vertex -3.78089 -15.9285 5
      vertex -4.68338 -16.3393 5
      vertex -3.78089 -15.9285 0
    endloop
  endfacet
  facet normal 0.511885 -0.859054 0
    outer loop
      vertex -3.78089 -15.9285 5
      vertex -3.78089 -15.9285 0
      vertex -2.92907 -15.4209 0
    endloop
  endfacet
  facet normal 0.511885 -0.859054 0
    outer loop
      vertex -2.92907 -15.4209 5
      vertex -3.78089 -15.9285 5
      vertex -2.92907 -15.4209 0
    endloop
  endfacet
  facet normal 0.603281 -0.797528 0
    outer loop
      vertex -2.92907 -15.4209 5
      vertex -2.92907 -15.4209 0
      vertex -2.13826 -14.8227 0
    endloop
  endfacet
  facet normal 0.603281 -0.797528 0
    outer loop
      vertex -2.13826 -14.8227 5
      vertex -2.92907 -15.4209 5
      vertex -2.13826 -14.8227 0
    endloop
  endfacet
  facet normal 0.687354 -0.726323 0
    outer loop
      vertex -2.13826 -14.8227 5
      vertex -2.13826 -14.8227 0
      vertex -1.41805 -14.1411 0
    endloop
  endfacet
  facet normal 0.687354 -0.726323 0
    outer loop
      vertex -1.41805 -14.1411 5
      vertex -2.13826 -14.8227 5
      vertex -1.41805 -14.1411 0
    endloop
  endfacet
  facet normal 0.763084 -0.646299 0
    outer loop
      vertex -1.41805 -14.1411 5
      vertex -1.41805 -14.1411 0
      vertex -0.777194 -13.3845 0
    endloop
  endfacet
  facet normal 0.763084 -0.646299 0
    outer loop
      vertex -0.777194 -13.3845 5
      vertex -1.41805 -14.1411 5
      vertex -0.777194 -13.3845 0
    endloop
  endfacet
  facet normal 0.829551 -0.558431 0
    outer loop
      vertex -0.777194 -13.3845 5
      vertex -0.777194 -13.3845 0
      vertex -0.223466 -12.5619 0
    endloop
  endfacet
  facet normal 0.829551 -0.558431 0
    outer loop
      vertex -0.223466 -12.5619 5
      vertex -0.777194 -13.3845 5
      vertex -0.223466 -12.5619 0
    endloop
  endfacet
  facet normal 0.885948 -0.463785 0
    outer loop
      vertex -0.223466 -12.5619 5
      vertex -0.223466 -12.5619 0
      vertex 0.236413 -11.6834 0
    endloop
  endfacet
  facet normal 0.885948 -0.463785 0
    outer loop
      vertex 0.236413 -11.6834 5
      vertex -0.223466 -12.5619 5
      vertex 0.236413 -11.6834 0
    endloop
  endfacet
  facet normal 0.931591 -0.363508 0
    outer loop
      vertex 0.236413 -11.6834 5
      vertex 0.236413 -11.6834 0
      vertex 0.59686 -10.7597 0
    endloop
  endfacet
  facet normal 0.931591 -0.363508 0
    outer loop
      vertex 0.59686 -10.7597 5
      vertex 0.236413 -11.6834 5
      vertex 0.59686 -10.7597 0
    endloop
  endfacet
  facet normal 0.965926 -0.258819 0
    outer loop
      vertex 0.59686 -10.7597 5
      vertex 0.59686 -10.7597 0
      vertex 0.8535 -9.80189 0
    endloop
  endfacet
  facet normal 0.965926 -0.258819 0
    outer loop
      vertex 0.8535 -9.80189 5
      vertex 0.59686 -10.7597 5
      vertex 0.8535 -9.80189 0
    endloop
  endfacet
  facet normal 0.988535 -0.150989 0
    outer loop
      vertex 0.8535 -9.80189 5
      vertex 0.8535 -9.80189 0
      vertex 1.00322 -8.82168 0
    endloop
  endfacet
  facet normal 0.988535 -0.150989 0
    outer loop
      vertex 1.00322 -8.82168 5
      vertex 0.8535 -9.80189 5
      vertex 1.00322 -8.82168 0
    endloop
  endfacet
  facet normal 0.999146 -0.0413248 0
    outer loop
      vertex 1.00322 -8.82168 5
      vertex 1.00322 -8.82168 0
      vertex 1.04419 -7.83094 0
    endloop
  endfacet
  facet normal 0.999146 -0.0413248 0
    outer loop
      vertex 1.04419 -7.83094 5
      vertex 1.00322 -8.82168 5
      vertex 1.04419 -7.83094 0
    endloop
  endfacet
  facet normal 0.997628 0.0688402 0
    outer loop
      vertex 1.04419 -7.83094 0
      vertex 0.975934 -6.84172 0
      vertex 0.975934 -6.84172 5
    endloop
  endfacet
  facet normal 0.997628 0.0688402 0
    outer loop
      vertex 1.04419 -7.83094 5
      vertex 1.04419 -7.83094 0
      vertex 0.975934 -6.84172 5
    endloop
  endfacet
  facet normal 0.984 0.178169 0
    outer loop
      vertex 0.975934 -6.84172 0
      vertex 0.799265 -5.866 0
      vertex 0.799265 -5.866 5
    endloop
  endfacet
  facet normal 0.984 0.178169 0
    outer loop
      vertex 0.975934 -6.84172 5
      vertex 0.975934 -6.84172 0
      vertex 0.799265 -5.866 5
    endloop
  endfacet
  facet normal 0.958427 0.285337 0
    outer loop
      vertex 0.799265 -5.866 0
      vertex 0.516331 -4.91565 0
      vertex 0.516331 -4.91565 5
    endloop
  endfacet
  facet normal 0.958427 0.285337 0
    outer loop
      vertex 0.799265 -5.866 5
      vertex 0.799265 -5.866 0
      vertex 0.516331 -4.91565 5
    endloop
  endfacet
  facet normal 0.921221 0.389039 0
    outer loop
      vertex 0.516331 -4.91565 0
      vertex 0.435388 -4.72398 0
      vertex 0.435388 -4.72398 5
    endloop
  endfacet
  facet normal 0.921221 0.389039 0
    outer loop
      vertex 0.516331 -4.91565 5
      vertex 0.516331 -4.91565 0
      vertex 0.435388 -4.72398 5
    endloop
  endfacet
  facet normal 0 -1 0
    outer loop
      vertex 0.435388 -4.72398 5
      vertex 0.435388 -4.72398 0
      vertex 0.49651 -4.72398 0
    endloop
  endfacet
  facet normal 0 -1 0
    outer loop
      vertex 0.49651 -4.72398 5
      vertex 0.435388 -4.72398 5
      vertex 0.49651 -4.72398 0
    endloop
  endfacet
  facet normal 0.207912 -0.978148 0
    outer loop
      vertex 0.49651 -4.72398 5
      vertex 0.49651 -4.72398 0
      vertex 1.46783 -4.51752 0
    endloop
  endfacet
  facet normal 0.207912 -0.978148 0
    outer loop
      vertex 1.46783 -4.51752 5
      vertex 0.49651 -4.72398 5
      vertex 1.46783 -4.51752 0
    endloop
  endfacet
  facet normal 0.406736 -0.913546 0
    outer loop
      vertex 1.46783 -4.51752 5
      vertex 1.46783 -4.51752 0
      vertex 2.375 -4.11362 0
    endloop
  endfacet
  facet normal 0.406736 -0.913546 0
    outer loop
      vertex 2.375 -4.11362 5
      vertex 1.46783 -4.51752 5
      vertex 2.375 -4.11362 0
    endloop
  endfacet
  facet normal 0.587786 -0.809017 0
    outer loop
      vertex 2.375 -4.11362 5
      vertex 2.375 -4.11362 0
      vertex 3.17837 -3.52994 0
    endloop
  endfacet
  facet normal 0.587786 -0.809017 0
    outer loop
      vertex 3.17837 -3.52994 5
      vertex 2.375 -4.11362 5
      vertex 3.17837 -3.52994 0
    endloop
  endfacet
  facet normal 0.743145 -0.669131 0
    outer loop
      vertex 3.17837 -3.52994 5
      vertex 3.17837 -3.52994 0
      vertex 3.84283 -2.79198 0
    endloop
  endfacet
  facet normal 0.743145 -0.669131 0
    outer loop
      vertex 3.84283 -2.79198 5
      vertex 3.17837 -3.52994 5
      vertex 3.84283 -2.79198 0
    endloop
  endfacet
  facet normal 0.866026 -0.5 0
    outer loop
      vertex 3.84283 -2.79198 5
      vertex 3.84283 -2.79198 0
      vertex 4.01141 -2.5 0
    endloop
  endfacet
  facet normal 0.866026 -0.5 0
    outer loop
      vertex 4.01141 -2.5 5
      vertex 3.84283 -2.79198 5
      vertex 4.01141 -2.5 0
    endloop
  endfacet
  facet normal 0 -1 0
    outer loop
      vertex 4.01141 -2.5 5
      vertex 4.01141 -2.5 0
      vertex 45.9886 -2.5 0
    endloop
  endfacet
  facet normal 0 -1 0
    outer loop
      vertex 45.9886 -2.5 5
      vertex 4.01141 -2.5 5
      vertex 45.9886 -2.5 0
    endloop
  endfacet
  facet normal -0.866026 -0.5 0
    outer loop
      vertex 45.9886 -2.5 0
      vertex 46.1572 -2.79198 0
      vertex 45.9886 -2.5 5
    endloop
  endfacet
  facet normal -0.866026 -0.5 0
    outer loop
      vertex 45.9886 -2.5 5
      vertex 46.1572 -2.79198 0
      vertex 46.1572 -2.79198 5
    endloop
  endfacet
  facet normal -0.743145 -0.669131 0
    outer loop
      vertex 46.1572 -2.79198 0
      vertex 46.8216 -3.52994 0
      vertex 46.1572 -2.79198 5
    endloop
  endfacet
  facet normal -0.743145 -0.669131 0
    outer loop
      vertex 46.1572 -2.79198 5
      vertex 46.8216 -3.52994 0
      vertex 46.8216 -3.52994 5
    endloop
  endfacet
  facet normal -0.587786 -0.809017 0
    outer loop
      vertex 46.8216 -3.52994 5
      vertex 46.8216 -3.52994 0
      vertex 47.625 -4.11362 0
    endloop
  endfacet
  facet normal -0.587786 -0.809017 0
    outer loop
      vertex 47.625 -4.11362 5
      vertex 46.8216 -3.52994 5
      vertex 47.625 -4.11362 0
    endloop
  endfacet
  facet normal -0.406736 -0.913546 0
    outer loop
      vertex 47.625 -4.11362 5
      vertex 47.625 -4.11362 0
      vertex 48.5322 -4.51752 0
    endloop
  endfacet
  facet normal -0.406736 -0.913546 0
    outer loop
      vertex 48.5322 -4.51752 5
      vertex 47.625 -4.11362 5
      vertex 48.5322 -4.51752 0
    endloop
  endfacet
  facet normal -0.207912 -0.978148 0
    outer loop
      vertex 48.5322 -4.51752 5
      vertex 48.5322 -4.51752 0
      vertex 49.5035 -4.72398 0
    endloop
  endfacet
  facet normal -0.207912 -0.978148 0
    outer loop
      vertex 49.5035 -4.72398 5
      vertex 48.5322 -4.51752 5
      vertex 49.5035 -4.72398 0
    endloop
  endfacet
  facet normal 0 -1 0
    outer loop
      vertex 49.5035 -4.72398 5
      vertex 49.5035 -4.72398 0
      vertex 50.4965 -4.72398 0
    endloop
  endfacet
  facet normal 0 -1 0
    outer loop
      vertex 50.4965 -4.72398 5
      vertex 49.5035 -4.72398 5
      vertex 50.4965 -4.72398 0
    endloop
  endfacet
  facet normal 0.207912 -0.978148 0
    outer loop
      vertex 50.4965 -4.72398 5
      vertex 50.4965 -4.72398 0
      vertex 51.4678 -4.51752 0
    endloop
  endfacet
  facet normal 0.207912 -0.978148 0
    outer loop
      vertex 51.4678 -4.51752 5
      vertex 50.4965 -4.72398 5
      vertex 51.4678 -4.51752 0
    endloop
  endfacet
  facet normal 0.406736 -0.913546 0
    outer loop
      vertex 51.4678 -4.51752 5
      vertex 51.4678 -4.51752 0
      vertex 52.375 -4.11362 0
    endloop
  endfacet
  facet normal 0.406736 -0.913546 0
    outer loop
      vertex 52.375 -4.11362 5
      vertex 51.4678 -4.51752 5
      vertex 52.375 -4.11362 0
    endloop
  endfacet
  facet normal 0.587786 -0.809017 0
    outer loop
      vertex 52.375 -4.11362 5
      vertex 52.375 -4.11362 0
      vertex 53.1784 -3.52994 0
    endloop
  endfacet
  facet normal 0.587786 -0.809017 0
    outer loop
      vertex 53.1784 -3.52994 5
      vertex 52.375 -4.11362 5
      vertex 53.1784 -3.52994 0
    endloop
  endfacet
  facet normal 0.743145 -0.669131 0
    outer loop
      vertex 53.1784 -3.52994 5
      vertex 53.1784 -3.52994 0
      vertex 53.8428 -2.79198 0
    endloop
  endfacet
  facet normal 0.743145 -0.669131 0
    outer loop
      vertex 53.8428 -2.79198 5
      vertex 53.1784 -3.52994 5
      vertex 53.8428 -2.79198 0
    endloop
  endfacet
  facet normal 0.866026 -0.5 0
    outer loop
      vertex 53.8428 -2.79198 5
      vertex 53.8428 -2.79198 0
      vertex 54.3393 -1.932 0
    endloop
  endfacet
  facet normal 0.866026 -0.5 0
    outer loop
      vertex 54.3393 -1.932 5
      vertex 53.8428 -2.79198 5
      vertex 54.3393 -1.932 0
    endloop
  endfacet
  facet normal 0.951057 -0.309017 0
    outer loop
      vertex 54.3393 -1.932 5
      vertex 54.3393 -1.932 0
      vertex 54.6462 -0.987581 0
    endloop
  endfacet
  facet normal 0.951057 -0.309017 0
    outer loop
      vertex 54.6462 -0.987581 5
      vertex 54.3393 -1.932 5
      vertex 54.6462 -0.987581 0
    endloop
  endfacet
  facet normal 0.994522 -0.104529 0
    outer loop
      vertex 54.6462 -0.987581 5
      vertex 54.6462 -0.987581 0
      vertex 54.75 0 0
    endloop
  endfacet
  facet normal 0.994522 -0.104529 0
    outer loop
      vertex 54.75 0 5
      vertex 54.6462 -0.987581 5
      vertex 54.75 0 0
    endloop
  endfacet
  facet normal 0.994522 0.104529 0
    outer loop
      vertex 54.75 0 0
      vertex 54.6462 0.987581 0
      vertex 54.6462 0.987581 5
    endloop
  endfacet
  facet normal 0.994522 0.104529 0
    outer loop
      vertex 54.75 0 5
      vertex 54.75 0 0
      vertex 54.6462 0.987581 5
    endloop
  endfacet
  facet normal 0.951057 0.309017 0
    outer loop
      vertex 54.6462 0.987581 0
      vertex 54.3393 1.932 0
      vertex 54.3393 1.932 5
    endloop
  endfacet
  facet normal 0.951057 0.309017 0
    outer loop
      vertex 54.6462 0.987581 5
      vertex 54.6462 0.987581 0
      vertex 54.3393 1.932 5
    endloop
  endfacet
  facet normal 0.866026 0.5 0
    outer loop
      vertex 54.3393 1.932 0
      vertex 53.8428 2.79198 0
      vertex 53.8428 2.79198 5
    endloop
  endfacet
  facet normal 0.866026 0.5 0
    outer loop
      vertex 54.3393 1.932 5
      vertex 54.3393 1.932 0
      vertex 53.8428 2.79198 5
    endloop
  endfacet
  facet normal 0.743145 0.669131 0
    outer loop
      vertex 53.8428 2.79198 0
      vertex 53.1784 3.52994 0
      vertex 53.1784 3.52994 5
    endloop
  endfacet
  facet normal 0.743145 0.669131 0
    outer loop
      vertex 53.8428 2.79198 5
      vertex 53.8428 2.79198 0
      vertex 53.1784 3.52994 5
    endloop
  endfacet
  facet normal 0.587786 0.809017 0
    outer loop
      vertex 52.375 4.11362 0
      vertex 52.375 4.11362 5
      vertex 53.1784 3.52994 0
    endloop
  endfacet
  facet normal 0.587786 0.809017 0
    outer loop
      vertex 53.1784 3.52994 0
      vertex 52.375 4.11362 5
      vertex 53.1784 3.52994 5
    endloop
  endfacet
  facet normal 0.406736 0.913546 0
    outer loop
      vertex 51.4678 4.51752 0
      vertex 51.4678 4.51752 5
      vertex 52.375 4.11362 0
    endloop
  endfacet
  facet normal 0.406736 0.913546 0
    outer loop
      vertex 52.375 4.11362 0
      vertex 51.4678 4.51752 5
      vertex 52.375 4.11362 5
    endloop
  endfacet
  facet normal 0.207912 0.978148 0
    outer loop
      vertex 50.4965 4.72398 0
      vertex 50.4965 4.72398 5
      vertex 51.4678 4.51752 0
    endloop
  endfacet
  facet normal 0.207912 0.978148 0
    outer loop
      vertex 51.4678 4.51752 0
      vertex 50.4965 4.72398 5
      vertex 51.4678 4.51752 5
    endloop
  endfacet
  facet normal 0 1 0
    outer loop
      vertex 49.5035 4.72398 0
      vertex 49.5035 4.72398 5
      vertex 50.4965 4.72398 0
    endloop
  endfacet
  facet normal 0 1 0
    outer loop
      vertex 50.4965 4.72398 0
      vertex 49.5035 4.72398 5
      vertex 50.4965 4.72398 5
    endloop
  endfacet
  facet normal -0.207912 0.978148 0
    outer loop
      vertex 48.5322 4.51752 0
      vertex 48.5322 4.51752 5
      vertex 49.5035 4.72398 0
    endloop
  endfacet
  facet normal -0.207912 0.978148 0
    outer loop
      vertex 49.5035 4.72398 0
      vertex 48.5322 4.51752 5
      vertex 49.5035 4.72398 5
    endloop
  endfacet
  facet normal -0.406736 0.913546 0
    outer loop
      vertex 47.625 4.11362 0
      vertex 47.625 4.11362 5
      vertex 48.5322 4.51752 0
    endloop
  endfacet
  facet normal -0.406736 0.913546 0
    outer loop
      vertex 48.5322 4.51752 0
      vertex 47.625 4.11362 5
      vertex 48.5322 4.51752 5
    endloop
  endfacet
  facet normal -0.587786 0.809017 0
    outer loop
      vertex 46.8216 3.52994 0
      vertex 46.8216 3.52994 5
      vertex 47.625 4.11362 0
    endloop
  endfacet
  facet normal -0.587786 0.809017 0
    outer loop
      vertex 47.625 4.11362 0
      vertex 46.8216 3.52994 5
      vertex 47.625 4.11362 5
    endloop
  endfacet
  facet normal -0.743145 0.669131 0
    outer loop
      vertex 46.1572 2.79198 0
      vertex 46.1572 2.79198 5
      vertex 46.8216 3.52994 0
    endloop
  endfacet
  facet normal -0.743145 0.669131 0
    outer loop
      vertex 46.8216 3.52994 0
      vertex 46.1572 2.79198 5
      vertex 46.8216 3.52994 5
    endloop
  endfacet
  facet normal -0.866026 0.5 0
    outer loop
      vertex 45.9886 2.5 0
      vertex 45.9886 2.5 5
      vertex 46.1572 2.79198 0
    endloop
  endfacet
  facet normal -0.866026 0.5 0
    outer loop
      vertex 46.1572 2.79198 0
      vertex 45.9886 2.5 5
      vertex 46.1572 2.79198 5
    endloop
  endfacet
  facet normal 0 1 0
    outer loop
      vertex 4.01141 2.5 0
      vertex 4.01141 2.5 5
      vertex 45.9886 2.5 0
    endloop
  endfacet
  facet normal 0 1 0
    outer loop
      vertex 45.9886 2.5 0
      vertex 4.01141 2.5 5
      vertex 45.9886 2.5 5
    endloop
  endfacet
  facet normal 0.866026 0.5 0
    outer loop
      vertex 4.01141 2.5 0
      vertex 3.84283 2.79198 0
      vertex 3.84283 2.79198 5
    endloop
  endfacet
  facet normal 0.866026 0.5 0
    outer loop
      vertex 4.01141 2.5 5
      vertex 4.01141 2.5 0
      vertex 3.84283 2.79198 5
    endloop
  endfacet
  facet normal 0.743145 0.669131 0
    outer loop
      vertex 3.84283 2.79198 0
      vertex 3.17837 3.52994 0
      vertex 3.17837 3.52994 5
    endloop
  endfacet
  facet normal 0.743145 0.669131 0
    outer loop
      vertex 3.84283 2.79198 5
      vertex 3.84283 2.79198 0
      vertex 3.17837 3.52994 5
    endloop
  endfacet
  facet normal 0.587786 0.809017 0
    outer loop
      vertex 2.375 4.11362 0
      vertex 2.375 4.11362 5
      vertex 3.17837 3.52994 0
    endloop
  endfacet
  facet normal 0.587786 0.809017 0
    outer loop
      vertex 3.17837 3.52994 0
      vertex 2.375 4.11362 5
      vertex 3.17837 3.52994 5
    endloop
  endfacet
  facet normal 0.406736 0.913546 0
    outer loop
      vertex 1.46783 4.51752 0
      vertex 1.46783 4.51752 5
      vertex 2.375 4.11362 0
    endloop
  endfacet
  facet normal 0.406736 0.913546 0
    outer loop
      vertex 2.375 4.11362 0
      vertex 1.46783 4.51752 5
      vertex 2.375 4.11362 5
    endloop
  endfacet
  facet normal 0.207912 0.978148 0
    outer loop
      vertex 0.49651 4.72398 0
      vertex 0.49651 4.72398 5
      vertex 1.46783 4.51752 0
    endloop
  endfacet
  facet normal 0.207912 0.978148 0
    outer loop
      vertex 1.46783 4.51752 0
      vertex 0.49651 4.72398 5
      vertex 1.46783 4.51752 5
    endloop
  endfacet
  facet normal 0 1 0
    outer loop
      vertex -0.49651 4.72398 0
      vertex -0.49651 4.72398 5
      vertex 0.49651 4.72398 0
    endloop
  endfacet
  facet normal 0 1 0
    outer loop
      vertex 0.49651 4.72398 0
      vertex -0.49651 4.72398 5
      vertex 0.49651 4.72398 5
    endloop
  endfacet
  facet normal -0.207912 0.978148 0
    outer loop
      vertex -1.46783 4.51752 0
      vertex -1.46783 4.51752 5
      vertex -0.49651 4.72398 0
    endloop
  endfacet
  facet normal -0.207912 0.978148 0
    outer loop
      vertex -0.49651 4.72398 0
      vertex -1.46783 4.51752 5
      vertex -0.49651 4.72398 5
    endloop
  endfacet
  facet normal -0.406736 0.913546 0
    outer loop
      vertex -2.375 4.11362 0
      vertex -2.375 4.11362 5
      vertex -1.46783 4.51752 0
    endloop
  endfacet
  facet normal -0.406736 0.913546 0
    outer loop
      vertex -1.46783 4.51752 0
      vertex -2.375 4.11362 5
      vertex -1.46783 4.51752 5
    endloop
  endfacet
  facet normal -0.587786 0.809017 0
    outer loop
      vertex -3.17837 3.52994 0
      vertex -3.17837 3.52994 5
      vertex -2.375 4.11362 0
    endloop
  endfacet
  facet normal -0.587786 0.809017 0
    outer loop
      vertex -2.375 4.11362 0
      vertex -3.17837 3.52994 5
      vertex -2.375 4.11362 5
    endloop
  endfacet
  facet normal -0.743145 0.669131 0
    outer loop
      vertex -3.84283 2.79198 0
      vertex -3.84283 2.79198 5
      vertex -3.17837 3.52994 0
    endloop
  endfacet
  facet normal -0.743145 0.669131 0
    outer loop
      vertex -3.17837 3.52994 0
      vertex -3.84283 2.79198 5
      vertex -3.17837 3.52994 5
    endloop
  endfacet
  facet normal -0.866026 0.5 0
    outer loop
      vertex -4.33934 1.932 0
      vertex -4.33934 1.932 5
      vertex -3.84283 2.79198 0
    endloop
  endfacet
  facet normal -0.866026 0.5 0
    outer loop
      vertex -3.84283 2.79198 0
      vertex -4.33934 1.932 5
      vertex -3.84283 2.79198 5
    endloop
  endfacet
  facet normal -0.951057 0.309017 0
    outer loop
      vertex -4.6462 0.987581 0
      vertex -4.6462 0.987581 5
      vertex -4.33934 1.932 0
    endloop
  endfacet
  facet normal -0.951057 0.309017 0
    outer loop
      vertex -4.33934 1.932 0
      vertex -4.6462 0.987581 5
      vertex -4.33934 1.932 5
    endloop
  endfacet
  facet normal -0.994522 0.104529 0
    outer loop
      vertex -4.70508 0.427406 0
      vertex -4.70508 0.427406 5
      vertex -4.6462 0.987581 0
    endloop
  endfacet
  facet normal -0.994522 0.104529 0
    outer loop
      vertex -4.6462 0.987581 0
      vertex -4.70508 0.427406 5
      vertex -4.6462 0.987581 5
    endloop
  endfacet
  facet normal 0.389039 0.921221 0
    outer loop
      vertex -4.91565 0.516331 0
      vertex -4.91565 0.516331 5
      vertex -4.70508 0.427406 0
    endloop
  endfacet
  facet normal 0.389039 0.921221 0
    outer loop
      vertex -4.70508 0.427406 0
      vertex -4.91565 0.516331 5
      vertex -4.70508 0.427406 5
    endloop
  endfacet
  facet normal 0.285337 0.958427 0
    outer loop
      vertex -5.866 0.799265 0
      vertex -5.866 0.799265 5
      vertex -4.91565 0.516331 0
    endloop
  endfacet
  facet normal 0.285337 0.958427 0
    outer loop
      vertex -4.91565 0.516331 0
      vertex -5.866 0.799265 5
      vertex -4.91565 0.516331 5
    endloop
  endfacet
  facet normal 0.178169 0.984 0
    outer loop
      vertex -6.84172 0.975934 0
      vertex -6.84172 0.975934 5
      vertex -5.866 0.799265 0
    endloop
  endfacet
  facet normal 0.178169 0.984 0
    outer loop
      vertex -5.866 0.799265 0
      vertex -6.84172 0.975934 5
      vertex -5.866 0.799265 5
    endloop
  endfacet
  facet normal 0.0688402 0.997628 0
    outer loop
      vertex -7.83094 1.04419 0
      vertex -7.83094 1.04419 5
      vertex -6.84172 0.975934 0
    endloop
  endfacet
  facet normal 0.0688402 0.997628 0
    outer loop
      vertex -6.84172 0.975934 0
      vertex -7.83094 1.04419 5
      vertex -6.84172 0.975934 5
    endloop
  endfacet
  facet normal -0.0413248 0.999146 0
    outer loop
      vertex -8.82168 1.00322 0
      vertex -8.82168 1.00322 5
      vertex -7.83094 1.04419 0
    endloop
  endfacet
  facet normal -0.0413248 0.999146 0
    outer loop
      vertex -7.83094 1.04419 0
      vertex -8.82168 1.00322 5
      vertex -7.83094 1.04419 5
    endloop
  endfacet
  facet normal -0.150989 0.988535 0
    outer loop
      vertex -9.80189 0.8535 0
      vertex -9.80189 0.8535 5
      vertex -8.82168 1.00322 0
    endloop
  endfacet
  facet normal -0.150989 0.988535 0
    outer loop
      vertex -8.82168 1.00322 0
      vertex -9.80189 0.8535 5
      vertex -8.82168 1.00322 5
    endloop
  endfacet
  facet normal -0.258819 0.965926 0
    outer loop
      vertex -10.7597 0.59686 0
      vertex -10.7597 0.59686 5
      vertex -9.80189 0.8535 0
    endloop
  endfacet
  facet normal -0.258819 0.965926 0
    outer loop
      vertex -9.80189 0.8535 0
      vertex -10.7597 0.59686 5
      vertex -9.80189 0.8535 5
    endloop
  endfacet
  facet normal -0.363508 0.931591 0
    outer loop
      vertex -11.6834 0.236413 0
      vertex -11.6834 0.236413 5
      vertex -10.7597 0.59686 0
    endloop
  endfacet
  facet normal -0.363508 0.931591 0
    outer loop
      vertex -10.7597 0.59686 0
      vertex -11.6834 0.236413 5
      vertex -10.7597 0.59686 5
    endloop
  endfacet
  facet normal -0.463785 0.885948 0
    outer loop
      vertex -12.5619 -0.223466 0
      vertex -12.5619 -0.223466 5
      vertex -11.6834 0.236413 0
    endloop
  endfacet
  facet normal -0.463785 0.885948 0
    outer loop
      vertex -11.6834 0.236413 0
      vertex -12.5619 -0.223466 5
      vertex -11.6834 0.236413 5
    endloop
  endfacet
  facet normal -0.558431 0.829551 0
    outer loop
      vertex -13.3845 -0.777194 0
      vertex -13.3845 -0.777194 5
      vertex -12.5619 -0.223466 0
    endloop
  endfacet
  facet normal -0.558431 0.829551 0
    outer loop
      vertex -12.5619 -0.223466 0
      vertex -13.3845 -0.777194 5
      vertex -12.5619 -0.223466 5
    endloop
  endfacet
  facet normal -0.646299 0.763084 0
    outer loop
      vertex -14.1411 -1.41805 0
      vertex -14.1411 -1.41805 5
      vertex -13.3845 -0.777194 0
    endloop
  endfacet
  facet normal -0.646299 0.763084 0
    outer loop
      vertex -13.3845 -0.777194 0
      vertex -14.1411 -1.41805 5
      vertex -13.3845 -0.777194 5
    endloop
  endfacet
  facet normal -0.726323 0.687354 0
    outer loop
      vertex -14.8227 -2.13826 0
      vertex -14.8227 -2.13826 5
      vertex -14.1411 -1.41805 0
    endloop
  endfacet
  facet normal -0.726323 0.687354 0
    outer loop
      vertex -14.1411 -1.41805 0
      vertex -14.8227 -2.13826 5
      vertex -14.1411 -1.41805 5
    endloop
  endfacet
  facet normal -0.797528 0.603281 0
    outer loop
      vertex -15.4209 -2.92907 0
      vertex -15.4209 -2.92907 5
      vertex -14.8227 -2.13826 0
    endloop
  endfacet
  facet normal -0.797528 0.603281 0
    outer loop
      vertex -14.8227 -2.13826 0
      vertex -15.4209 -2.92907 5
      vertex -14.8227 -2.13826 5
    endloop
  endfacet
  facet normal -0.859054 0.511885 0
    outer loop
      vertex -15.9285 -3.78089 0
      vertex -15.9285 -3.78089 5
      vertex -15.4209 -2.92907 0
    endloop
  endfacet
  facet normal -0.859054 0.511885 0
    outer loop
      vertex -15.4209 -2.92907 0
      vertex -15.9285 -3.78089 5
      vertex -15.4209 -2.92907 5
    endloop
  endfacet
  facet normal -0.910152 0.414275 0
    outer loop
      vertex -16.3393 -4.68338 0
      vertex -16.3393 -4.68338 5
      vertex -15.9285 -3.78089 0
    endloop
  endfacet
  facet normal -0.910152 0.414275 0
    outer loop
      vertex -15.9285 -3.78089 0
      vertex -16.3393 -4.68338 5
      vertex -15.9285 -3.78089 5
    endloop
  endfacet
  facet normal -0.950201 0.311637 0
    outer loop
      vertex -16.6483 -5.62558 0
      vertex -16.6483 -5.62558 5
      vertex -16.3393 -4.68338 0
    endloop
  endfacet
  facet normal -0.950201 0.311637 0
    outer loop
      vertex -16.3393 -4.68338 0
      vertex -16.6483 -5.62558 5
      vertex -16.3393 -4.68338 5
    endloop
  endfacet
  facet normal -0.978717 0.205215 0
    outer loop
      vertex -16.8518 -6.59606 0
      vertex -16.8518 -6.59606 5
      vertex -16.6483 -5.62558 0
    endloop
  endfacet
  facet normal -0.978717 0.205215 0
    outer loop
      vertex -16.6483 -5.62558 0
      vertex -16.8518 -6.59606 5
      vertex -16.6483 -5.62558 5
    endloop
  endfacet
  facet normal 0.913545 -0.406737 0
    outer loop
      vertex -1.82029 1.32252 0
      vertex -1.82029 1.32252 5
      vertex -2.20083 0.467801 5
    endloop
  endfacet
  facet normal 0.913545 -0.406737 0
    outer loop
      vertex -2.20083 0.467801 0
      vertex -1.82029 1.32252 0
      vertex -2.20083 0.467801 5
    endloop
  endfacet
  facet normal 1 0 0
    outer loop
      vertex -2.20083 0.467801 0
      vertex -2.20083 0.467801 5
      vertex -2.20083 -0.467801 5
    endloop
  endfacet
  facet normal 1 0 0
    outer loop
      vertex -2.20083 -0.467801 0
      vertex -2.20083 0.467801 0
      vertex -2.20083 -0.467801 5
    endloop
  endfacet
  facet normal 0.669131 -0.743145 0
    outer loop
      vertex -1.125 1.94856 0
      vertex -1.125 1.94856 5
      vertex -1.82029 1.32252 5
    endloop
  endfacet
  facet normal 0.669131 -0.743145 0
    outer loop
      vertex -1.82029 1.32252 0
      vertex -1.125 1.94856 0
      vertex -1.82029 1.32252 5
    endloop
  endfacet
  facet normal 0.309017 -0.951057 0
    outer loop
      vertex -0.235189 2.23767 0
      vertex -0.235189 2.23767 5
      vertex -1.125 1.94856 5
    endloop
  endfacet
  facet normal 0.309017 -0.951057 0
    outer loop
      vertex -1.125 1.94856 0
      vertex -0.235189 2.23767 0
      vertex -1.125 1.94856 5
    endloop
  endfacet
  facet normal -0.104528 -0.994522 0
    outer loop
      vertex 0.695288 2.13988 0
      vertex 0.695288 2.13988 5
      vertex -0.235189 2.23767 5
    endloop
  endfacet
  facet normal -0.104528 -0.994522 0
    outer loop
      vertex -0.235189 2.23767 0
      vertex 0.695288 2.13988 0
      vertex -0.235189 2.23767 5
    endloop
  endfacet
  facet normal -0.5 -0.866026 0
    outer loop
      vertex 1.50554 1.67208 0
      vertex 1.50554 1.67208 5
      vertex 0.695288 2.13988 5
    endloop
  endfacet
  facet normal -0.5 -0.866026 0
    outer loop
      vertex 0.695288 2.13988 0
      vertex 1.50554 1.67208 0
      vertex 0.695288 2.13988 5
    endloop
  endfacet
  facet normal -0.809017 -0.587785 0
    outer loop
      vertex 2.05548 0.915157 5
      vertex 1.50554 1.67208 5
      vertex 2.05548 0.915157 0
    endloop
  endfacet
  facet normal -0.809017 -0.587785 0
    outer loop
      vertex 2.05548 0.915157 0
      vertex 1.50554 1.67208 5
      vertex 1.50554 1.67208 0
    endloop
  endfacet
  facet normal -0.978148 -0.207912 0
    outer loop
      vertex 2.25 0 5
      vertex 2.05548 0.915157 5
      vertex 2.25 0 0
    endloop
  endfacet
  facet normal -0.978148 -0.207912 0
    outer loop
      vertex 2.25 0 0
      vertex 2.05548 0.915157 5
      vertex 2.05548 0.915157 0
    endloop
  endfacet
  facet normal -0.978148 0.207912 0
    outer loop
      vertex 2.25 0 5
      vertex 2.25 0 0
      vertex 2.05548 -0.915157 5
    endloop
  endfacet
  facet normal -0.978148 0.207912 0
    outer loop
      vertex 2.05548 -0.915157 5
      vertex 2.25 0 0
      vertex 2.05548 -0.915157 0
    endloop
  endfacet
  facet normal -0.809017 0.587785 0
    outer loop
      vertex 2.05548 -0.915157 5
      vertex 2.05548 -0.915157 0
      vertex 1.50554 -1.67208 5
    endloop
  endfacet
  facet normal -0.809017 0.587785 0
    outer loop
      vertex 1.50554 -1.67208 5
      vertex 2.05548 -0.915157 0
      vertex 1.50554 -1.67208 0
    endloop
  endfacet
  facet normal -0.5 0.866026 0
    outer loop
      vertex 1.50554 -1.67208 5
      vertex 1.50554 -1.67208 0
      vertex 0.695288 -2.13988 5
    endloop
  endfacet
  facet normal -0.5 0.866026 0
    outer loop
      vertex 0.695288 -2.13988 5
      vertex 1.50554 -1.67208 0
      vertex 0.695288 -2.13988 0
    endloop
  endfacet
  facet normal -0.104528 0.994522 0
    outer loop
      vertex 0.695288 -2.13988 5
      vertex 0.695288 -2.13988 0
      vertex -0.235189 -2.23767 5
    endloop
  endfacet
  facet normal -0.104528 0.994522 0
    outer loop
      vertex -0.235189 -2.23767 5
      vertex 0.695288 -2.13988 0
      vertex -0.235189 -2.23767 0
    endloop
  endfacet
  facet normal 0.309017 0.951057 0
    outer loop
      vertex -0.235189 -2.23767 5
      vertex -0.235189 -2.23767 0
      vertex -1.125 -1.94856 5
    endloop
  endfacet
  facet normal 0.309017 0.951057 0
    outer loop
      vertex -1.125 -1.94856 5
      vertex -0.235189 -2.23767 0
      vertex -1.125 -1.94856 0
    endloop
  endfacet
  facet normal 0.669131 0.743145 0
    outer loop
      vertex -1.125 -1.94856 5
      vertex -1.125 -1.94856 0
      vertex -1.82029 -1.32252 5
    endloop
  endfacet
  facet normal 0.669131 0.743145 0
    outer loop
      vertex -1.82029 -1.32252 5
      vertex -1.125 -1.94856 0
      vertex -1.82029 -1.32252 0
    endloop
  endfacet
  facet normal 0.913545 0.406737 0
    outer loop
      vertex -2.20083 -0.467801 5
      vertex -1.82029 -1.32252 5
      vertex -1.82029 -1.32252 0
    endloop
  endfacet
  facet normal 0.913545 0.406737 0
    outer loop
      vertex -2.20083 -0.467801 0
      vertex -2.20083 -0.467801 5
      vertex -1.82029 -1.32252 0
    endloop
  endfacet
  facet normal 0.913545 -0.406737 0
    outer loop
      vertex 48.1797 1.32252 0
      vertex 48.1797 1.32252 5
      vertex 47.7992 0.467801 5
    endloop
  endfacet
  facet normal 0.913545 -0.406737 0
    outer loop
      vertex 47.7992 0.467801 0
      vertex 48.1797 1.32252 0
      vertex 47.7992 0.467801 5
    endloop
  endfacet
  facet normal 1 0 0
    outer loop
      vertex 47.7992 0.467801 0
      vertex 47.7992 0.467801 5
      vertex 47.7992 -0.467801 5
    endloop
  endfacet
  facet normal 1 0 0
    outer loop
      vertex 47.7992 -0.467801 0
      vertex 47.7992 0.467801 0
      vertex 47.7992 -0.467801 5
    endloop
  endfacet
  facet normal 0.669131 -0.743145 0
    outer loop
      vertex 48.875 1.94856 0
      vertex 48.875 1.94856 5
      vertex 48.1797 1.32252 5
    endloop
  endfacet
  facet normal 0.669131 -0.743145 0
    outer loop
      vertex 48.1797 1.32252 0
      vertex 48.875 1.94856 0
      vertex 48.1797 1.32252 5
    endloop
  endfacet
  facet normal 0.309017 -0.951057 0
    outer loop
      vertex 49.7648 2.23767 0
      vertex 49.7648 2.23767 5
      vertex 48.875 1.94856 5
    endloop
  endfacet
  facet normal 0.309017 -0.951057 0
    outer loop
      vertex 48.875 1.94856 0
      vertex 49.7648 2.23767 0
      vertex 48.875 1.94856 5
    endloop
  endfacet
  facet normal -0.104528 -0.994522 0
    outer loop
      vertex 50.6953 2.13988 0
      vertex 50.6953 2.13988 5
      vertex 49.7648 2.23767 5
    endloop
  endfacet
  facet normal -0.104528 -0.994522 0
    outer loop
      vertex 49.7648 2.23767 0
      vertex 50.6953 2.13988 0
      vertex 49.7648 2.23767 5
    endloop
  endfacet
  facet normal -0.5 -0.866026 0
    outer loop
      vertex 51.5055 1.67208 0
      vertex 51.5055 1.67208 5
      vertex 50.6953 2.13988 5
    endloop
  endfacet
  facet normal -0.5 -0.866026 0
    outer loop
      vertex 50.6953 2.13988 0
      vertex 51.5055 1.67208 0
      vertex 50.6953 2.13988 5
    endloop
  endfacet
  facet normal -0.809017 -0.587785 0
    outer loop
      vertex 52.0555 0.915157 5
      vertex 51.5055 1.67208 5
      vertex 52.0555 0.915157 0
    endloop
  endfacet
  facet normal -0.809017 -0.587785 0
    outer loop
      vertex 52.0555 0.915157 0
      vertex 51.5055 1.67208 5
      vertex 51.5055 1.67208 0
    endloop
  endfacet
  facet normal -0.978148 -0.207912 0
    outer loop
      vertex 52.25 0 5
      vertex 52.0555 0.915157 5
      vertex 52.25 0 0
    endloop
  endfacet
  facet normal -0.978148 -0.207912 0
    outer loop
      vertex 52.25 0 0
      vertex 52.0555 0.915157 5
      vertex 52.0555 0.915157 0
    endloop
  endfacet
  facet normal -0.978148 0.207912 0
    outer loop
      vertex 52.25 0 5
      vertex 52.25 0 0
      vertex 52.0555 -0.915157 5
    endloop
  endfacet
  facet normal -0.978148 0.207912 0
    outer loop
      vertex 52.0555 -0.915157 5
      vertex 52.25 0 0
      vertex 52.0555 -0.915157 0
    endloop
  endfacet
  facet normal -0.809017 0.587785 0
    outer loop
      vertex 52.0555 -0.915157 5
      vertex 52.0555 -0.915157 0
      vertex 51.5055 -1.67208 5
    endloop
  endfacet
  facet normal -0.809017 0.587785 0
    outer loop
      vertex 51.5055 -1.67208 5
      vertex 52.0555 -0.915157 0
      vertex 51.5055 -1.67208 0
    endloop
  endfacet
  facet normal -0.5 0.866026 0
    outer loop
      vertex 51.5055 -1.67208 5
      vertex 51.5055 -1.67208 0
      vertex 50.6953 -2.13988 5
    endloop
  endfacet
  facet normal -0.5 0.866026 0
    outer loop
      vertex 50.6953 -2.13988 5
      vertex 51.5055 -1.67208 0
      vertex 50.6953 -2.13988 0
    endloop
  endfacet
  facet normal -0.104528 0.994522 0
    outer loop
      vertex 50.6953 -2.13988 5
      vertex 50.6953 -2.13988 0
      vertex 49.7648 -2.23767 5
    endloop
  endfacet
  facet normal -0.104528 0.994522 0
    outer loop
      vertex 49.7648 -2.23767 5
      vertex 50.6953 -2.13988 0
      vertex 49.7648 -2.23767 0
    endloop
  endfacet
  facet normal 0.309017 0.951057 0
    outer loop
      vertex 49.7648 -2.23767 5
      vertex 49.7648 -2.23767 0
      vertex 48.875 -1.94856 5
    endloop
  endfacet
  facet normal 0.309017 0.951057 0
    outer loop
      vertex 48.875 -1.94856 5
      vertex 49.7648 -2.23767 0
      vertex 48.875 -1.94856 0
    endloop
  endfacet
  facet normal 0.669131 0.743145 0
    outer loop
      vertex 48.875 -1.94856 5
      vertex 48.875 -1.94856 0
      vertex 48.1797 -1.32252 5
    endloop
  endfacet
  facet normal 0.669131 0.743145 0
    outer loop
      vertex 48.1797 -1.32252 5
      vertex 48.875 -1.94856 0
      vertex 48.1797 -1.32252 0
    endloop
  endfacet
  facet normal 0.913545 0.406737 0
    outer loop
      vertex 47.7992 -0.467801 5
      vertex 48.1797 -1.32252 5
      vertex 48.1797 -1.32252 0
    endloop
  endfacet
  facet normal 0.913545 0.406737 0
    outer loop
      vertex 47.7992 -0.467801 0
      vertex 47.7992 -0.467801 5
      vertex 48.1797 -1.32252 0
    endloop
  endfacet
  facet normal 0 0 1
    outer loop
      vertex -16.8518 -6.59606 5
      vertex -16.9473 -7.58303 5
      vertex -16.9448 -7.76392 5
    endloop
  endfacet
  facet normal 0 0 1
    outer loop
      vertex -15.3232 -6.67189 5
      vertex -16.8518 -6.59606 5
      vertex -16.1882 -7.16395 5
    endloop
  endfacet
  facet normal 0 0 1
    outer loop
      vertex -16.1882 -7.16395 5
      vertex -16.8518 -6.59606 5
      vertex -16.9448 -7.76392 5
    endloop
  endfacet
  facet normal 0 0 1
    outer loop
      vertex -14.3933 -6.31764 5
      vertex -16.8518 -6.59606 5
      vertex -15.3232 -6.67189 5
    endloop
  endfacet
  facet normal 0 0 1
    outer loop
      vertex -14.218 -6.28015 5
      vertex -16.8518 -6.59606 5
      vertex -14.3933 -6.31764 5
    endloop
  endfacet
  facet normal 0 0 1
    outer loop
      vertex -14.0292 -5.64107 5
      vertex -16.8518 -6.59606 5
      vertex -14.218 -6.28015 5
    endloop
  endfacet
  facet normal 0 0 1
    outer loop
      vertex -13.6048 -4.74096 5
      vertex -16.8518 -6.59606 5
      vertex -14.0292 -5.64107 5
    endloop
  endfacet
  facet normal 0 0 1
    outer loop
      vertex -13.0479 -3.91619 5
      vertex -16.8518 -6.59606 5
      vertex -13.6048 -4.74096 5
    endloop
  endfacet
  facet normal 0 0 1
    outer loop
      vertex -12.3717 -3.18608 5
      vertex -16.8518 -6.59606 5
      vertex -13.0479 -3.91619 5
    endloop
  endfacet
  facet normal 0 0 1
    outer loop
      vertex -11.592 -2.56776 5
      vertex -16.8518 -6.59606 5
      vertex -12.3717 -3.18608 5
    endloop
  endfacet
  facet normal 0 0 1
    outer loop
      vertex -7.83094 1.04419 5
      vertex -16.8518 -6.59606 5
      vertex -11.592 -2.56776 5
    endloop
  endfacet
  facet normal 0 0 1
    outer loop
      vertex -5.866 0.799265 5
      vertex -6.84172 0.975934 5
      vertex -11.592 -2.56776 5
    endloop
  endfacet
  facet normal 0 0 1
    outer loop
      vertex 0.695288 2.13988 5
      vertex 1.50554 1.67208 5
      vertex 4.01141 2.5 5
    endloop
  endfacet
  facet normal 0 0 1
    outer loop
      vertex -1.82029 1.32252 5
      vertex -10.727 -2.0757 5
      vertex -9.79707 -1.72145 5
    endloop
  endfacet
  facet normal 0 0 1
    outer loop
      vertex -2.20083 0.467801 5
      vertex -9.79707 -1.72145 5
      vertex -8.82394 -1.5133 5
    endloop
  endfacet
  facet normal 0 0 1
    outer loop
      vertex -6.83987 -1.55131 5
      vertex -1.125 -1.94856 5
      vertex -7.83044 -1.45614 5
    endloop
  endfacet
  facet normal 0 0 1
    outer loop
      vertex 3.17837 -3.52994 5
      vertex -6.83987 -1.55131 5
      vertex -5.87542 -1.79658 5
    endloop
  endfacet
  facet normal 0 0 1
    outer loop
      vertex 1.46783 -4.51752 5
      vertex -5.87542 -1.79658 5
      vertex -4.95972 -2.18619 5
    endloop
  endfacet
  facet normal 0 0 1
    outer loop
      vertex 0.516331 -4.91565 5
      vertex -4.95972 -2.18619 5
      vertex -4.11423 -2.71102 5
    endloop
  endfacet
  facet normal 0 0 1
    outer loop
      vertex 0.975934 -6.84172 5
      vertex -4.11423 -2.71102 5
      vertex -3.35876 -3.35876 5
    endloop
  endfacet
  facet normal 0 0 1
    outer loop
      vertex 1.04419 -7.83094 5
      vertex -3.35876 -3.35876 5
      vertex -2.71102 -4.11423 5
    endloop
  endfacet
  facet normal 0 0 1
    outer loop
      vertex 0.8535 -9.80189 5
      vertex -2.71102 -4.11423 5
      vertex -2.18619 -4.95972 5
    endloop
  endfacet
  facet normal 0 0 1
    outer loop
      vertex 0.59686 -10.7597 5
      vertex -2.18619 -4.95972 5
      vertex -1.79658 -5.87542 5
    endloop
  endfacet
  facet normal 0 0 1
    outer loop
      vertex 0.236413 -11.6834 5
      vertex -1.79658 -5.87542 5
      vertex -1.55131 -6.83987 5
    endloop
  endfacet
  facet normal 0 0 1
    outer loop
      vertex -0.777194 -13.3845 5
      vertex -1.55131 -6.83987 5
      vertex -1.45614 -7.83044 5
    endloop
  endfacet
  facet normal 0 0 1
    outer loop
      vertex -1.41805 -14.1411 5
      vertex -1.45614 -7.83044 5
      vertex -1.5133 -8.82394 5
    endloop
  endfacet
  facet normal 0 0 1
    outer loop
      vertex -2.13826 -14.8227 5
      vertex -1.5133 -8.82394 5
      vertex -1.72145 -9.79707 5
    endloop
  endfacet
  facet normal 0 0 1
    outer loop
      vertex -3.78089 -15.9285 5
      vertex -1.72145 -9.79707 5
      vertex -2.0757 -10.727 5
    endloop
  endfacet
  facet normal 0 0 1
    outer loop
      vertex -4.68338 -16.3393 5
      vertex -2.0757 -10.727 5
      vertex -2.56776 -11.592 5
    endloop
  endfacet
  facet normal 0 0 1
    outer loop
      vertex -6.59606 -16.8518 5
      vertex -2.56776 -11.592 5
      vertex -3.18608 -12.3717 5
    endloop
  endfacet
  facet normal 0 0 1
    outer loop
      vertex -7.16395 -16.1882 5
      vertex -3.18608 -12.3717 5
      vertex -3.91619 -13.0479 5
    endloop
  endfacet
  facet normal 0 0 1
    outer loop
      vertex -6.67189 -15.3232 5
      vertex -3.91619 -13.0479 5
      vertex -4.74096 -13.6048 5
    endloop
  endfacet
  facet normal 0 0 1
    outer loop
      vertex -6.31764 -14.3933 5
      vertex -4.74096 -13.6048 5
      vertex -5.64107 -14.0292 5
    endloop
  endfacet
  facet normal 0 0 1
    outer loop
      vertex -6.31764 -14.3933 5
      vertex -5.64107 -14.0292 5
      vertex -6.28015 -14.218 5
    endloop
  endfacet
  facet normal 0 0 1
    outer loop
      vertex -6.67189 -15.3232 5
      vertex -4.74096 -13.6048 5
      vertex -6.31764 -14.3933 5
    endloop
  endfacet
  facet normal 0 0 1
    outer loop
      vertex -7.16395 -16.1882 5
      vertex -3.91619 -13.0479 5
      vertex -6.67189 -15.3232 5
    endloop
  endfacet
  facet normal 0 0 1
    outer loop
      vertex -7.76392 -16.9448 5
      vertex -3.18608 -12.3717 5
      vertex -7.16395 -16.1882 5
    endloop
  endfacet
  facet normal 0 0 1
    outer loop
      vertex -7.58303 -16.9473 5
      vertex -3.18608 -12.3717 5
      vertex -7.76392 -16.9448 5
    endloop
  endfacet
  facet normal 0 0 1
    outer loop
      vertex -6.59606 -16.8518 5
      vertex -3.18608 -12.3717 5
      vertex -7.58303 -16.9473 5
    endloop
  endfacet
  facet normal 0 0 1
    outer loop
      vertex -5.62558 -16.6483 5
      vertex -2.56776 -11.592 5
      vertex -6.59606 -16.8518 5
    endloop
  endfacet
  facet normal 0 0 1
    outer loop
      vertex -4.68338 -16.3393 5
      vertex -2.56776 -11.592 5
      vertex -5.62558 -16.6483 5
    endloop
  endfacet
  facet normal 0 0 1
    outer loop
      vertex -3.78089 -15.9285 5
      vertex -2.0757 -10.727 5
      vertex -4.68338 -16.3393 5
    endloop
  endfacet
  facet normal 0 0 1
    outer loop
      vertex -2.92907 -15.4209 5
      vertex -1.72145 -9.79707 5
      vertex -3.78089 -15.9285 5
    endloop
  endfacet
  facet normal 0 0 1
    outer loop
      vertex -2.13826 -14.8227 5
      vertex -1.72145 -9.79707 5
      vertex -2.92907 -15.4209 5
    endloop
  endfacet
  facet normal 0 0 1
    outer loop
      vertex -1.41805 -14.1411 5
      vertex -1.5133 -8.82394 5
      vertex -2.13826 -14.8227 5
    endloop
  endfacet
  facet normal 0 0 1
    outer loop
      vertex -0.777194 -13.3845 5
      vertex -1.45614 -7.83044 5
      vertex -1.41805 -14.1411 5
    endloop
  endfacet
  facet normal 0 0 1
    outer loop
      vertex -0.223466 -12.5619 5
      vertex -1.55131 -6.83987 5
      vertex -0.777194 -13.3845 5
    endloop
  endfacet
  facet normal 0 0 1
    outer loop
      vertex 0.236413 -11.6834 5
      vertex -1.55131 -6.83987 5
      vertex -0.223466 -12.5619 5
    endloop
  endfacet
  facet normal 0 0 1
    outer loop
      vertex 0.59686 -10.7597 5
      vertex -1.79658 -5.87542 5
      vertex 0.236413 -11.6834 5
    endloop
  endfacet
  facet normal 0 0 1
    outer loop
      vertex 0.8535 -9.80189 5
      vertex -2.18619 -4.95972 5
      vertex 0.59686 -10.7597 5
    endloop
  endfacet
  facet normal 0 0 1
    outer loop
      vertex 1.00322 -8.82168 5
      vertex -2.71102 -4.11423 5
      vertex 0.8535 -9.80189 5
    endloop
  endfacet
  facet normal 0 0 1
    outer loop
      vertex 1.04419 -7.83094 5
      vertex -2.71102 -4.11423 5
      vertex 1.00322 -8.82168 5
    endloop
  endfacet
  facet normal 0 0 1
    outer loop
      vertex 0.975934 -6.84172 5
      vertex -3.35876 -3.35876 5
      vertex 1.04419 -7.83094 5
    endloop
  endfacet
  facet normal 0 0 1
    outer loop
      vertex 0.799265 -5.866 5
      vertex -4.11423 -2.71102 5
      vertex 0.975934 -6.84172 5
    endloop
  endfacet
  facet normal 0 0 1
    outer loop
      vertex 0.516331 -4.91565 5
      vertex -4.11423 -2.71102 5
      vertex 0.799265 -5.866 5
    endloop
  endfacet
  facet normal 0 0 1
    outer loop
      vertex 0.435388 -4.72398 5
      vertex -4.95972 -2.18619 5
      vertex 0.516331 -4.91565 5
    endloop
  endfacet
  facet normal 0 0 1
    outer loop
      vertex 0.49651 -4.72398 5
      vertex -4.95972 -2.18619 5
      vertex 0.435388 -4.72398 5
    endloop
  endfacet
  facet normal 0 0 1
    outer loop
      vertex 1.46783 -4.51752 5
      vertex -4.95972 -2.18619 5
      vertex 0.49651 -4.72398 5
    endloop
  endfacet
  facet normal 0 0 1
    outer loop
      vertex 2.375 -4.11362 5
      vertex -5.87542 -1.79658 5
      vertex 1.46783 -4.51752 5
    endloop
  endfacet
  facet normal 0 0 1
    outer loop
      vertex 3.17837 -3.52994 5
      vertex -5.87542 -1.79658 5
      vertex 2.375 -4.11362 5
    endloop
  endfacet
  facet normal 0 0 1
    outer loop
      vertex 3.84283 -2.79198 5
      vertex -6.83987 -1.55131 5
      vertex 3.17837 -3.52994 5
    endloop
  endfacet
  facet normal 0 0 1
    outer loop
      vertex -0.235189 -2.23767 5
      vertex -6.83987 -1.55131 5
      vertex 3.84283 -2.79198 5
    endloop
  endfacet
  facet normal 0 0 1
    outer loop
      vertex -0.235189 -2.23767 5
      vertex -1.125 -1.94856 5
      vertex -6.83987 -1.55131 5
    endloop
  endfacet
  facet normal 0 0 1
    outer loop
      vertex 48.1797 -1.32252 5
      vertex 47.7992 -0.467801 5
      vertex 2.05548 -0.915157 5
    endloop
  endfacet
  facet normal 0 0 1
    outer loop
      vertex 46.8216 -3.52994 5
      vertex 45.9886 -2.5 5
      vertex 46.1572 -2.79198 5
    endloop
  endfacet
  facet normal 0 0 1
    outer loop
      vertex 47.625 -4.11362 5
      vertex 45.9886 -2.5 5
      vertex 46.8216 -3.52994 5
    endloop
  endfacet
  facet normal 0 0 1
    outer loop
      vertex 48.5322 -4.51752 5
      vertex 45.9886 -2.5 5
      vertex 47.625 -4.11362 5
    endloop
  endfacet
  facet normal 0 0 1
    outer loop
      vertex 49.5035 -4.72398 5
      vertex 45.9886 -2.5 5
      vertex 48.5322 -4.51752 5
    endloop
  endfacet
  facet normal 0 0 1
    outer loop
      vertex 50.4965 -4.72398 5
      vertex 45.9886 -2.5 5
      vertex 49.5035 -4.72398 5
    endloop
  endfacet
  facet normal 0 0 1
    outer loop
      vertex 51.4678 -4.51752 5
      vertex 45.9886 -2.5 5
      vertex 50.4965 -4.72398 5
    endloop
  endfacet
  facet normal 0 0 1
    outer loop
      vertex 52.375 -4.11362 5
      vertex 45.9886 -2.5 5
      vertex 51.4678 -4.51752 5
    endloop
  endfacet
  facet normal 0 0 1
    outer loop
      vertex 53.1784 -3.52994 5
      vertex 45.9886 -2.5 5
      vertex 52.375 -4.11362 5
    endloop
  endfacet
  facet normal 0 0 1
    outer loop
      vertex 53.8428 -2.79198 5
      vertex 45.9886 -2.5 5
      vertex 53.1784 -3.52994 5
    endloop
  endfacet
  facet normal 0 0 1
    outer loop
      vertex 54.3393 -1.932 5
      vertex 45.9886 -2.5 5
      vertex 53.8428 -2.79198 5
    endloop
  endfacet
  facet normal 0 0 1
    outer loop
      vertex 2.05548 -0.915157 5
      vertex 1.50554 -1.67208 5
      vertex 45.9886 -2.5 5
    endloop
  endfacet
  facet normal 0 0 1
    outer loop
      vertex 49.7648 -2.23767 5
      vertex 2.05548 -0.915157 5
      vertex 45.9886 -2.5 5
    endloop
  endfacet
  facet normal 0 0 1
    outer loop
      vertex -1.82029 1.32252 5
      vertex -1.125 1.94856 5
      vertex -4.70508 0.427406 5
    endloop
  endfacet
  facet normal 0 0 1
    outer loop
      vertex 1.50554 1.67208 5
      vertex 2.05548 0.915157 5
      vertex 4.01141 2.5 5
    endloop
  endfacet
  facet normal 0 0 1
    outer loop
      vertex 46.8216 3.52994 5
      vertex 46.1572 2.79198 5
      vertex 53.1784 3.52994 5
    endloop
  endfacet
  facet normal 0 0 1
    outer loop
      vertex 47.625 4.11362 5
      vertex 46.8216 3.52994 5
      vertex 52.375 4.11362 5
    endloop
  endfacet
  facet normal 0 0 1
    outer loop
      vertex 49.5035 4.72398 5
      vertex 48.5322 4.51752 5
      vertex 50.4965 4.72398 5
    endloop
  endfacet
  facet normal 0 0 1
    outer loop
      vertex -4.33934 1.932 5
      vertex 1.46783 4.51752 5
      vertex 0.49651 4.72398 5
    endloop
  endfacet
  facet normal 0 0 1
    outer loop
      vertex 51.4678 4.51752 5
      vertex 47.625 4.11362 5
      vertex 52.375 4.11362 5
    endloop
  endfacet
  facet normal 0 0 1
    outer loop
      vertex 48.1797 1.32252 5
      vertex 48.875 1.94856 5
      vertex 2.05548 -0.915157 5
    endloop
  endfacet
  facet normal 0 0 1
    outer loop
      vertex 52.375 4.11362 5
      vertex 46.8216 3.52994 5
      vertex 53.1784 3.52994 5
    endloop
  endfacet
  facet normal 0 0 1
    outer loop
      vertex 52.25 0 5
      vertex 52.0555 -0.915157 5
      vertex 54.6462 -0.987581 5
    endloop
  endfacet
  facet normal 0 0 1
    outer loop
      vertex 53.1784 3.52994 5
      vertex 46.1572 2.79198 5
      vertex 53.8428 2.79198 5
    endloop
  endfacet
  facet normal 0 0 1
    outer loop
      vertex 46.1572 2.79198 5
      vertex 45.9886 2.5 5
      vertex 53.8428 2.79198 5
    endloop
  endfacet
  facet normal 0 0 1
    outer loop
      vertex 0.695288 2.13988 5
      vertex 4.01141 2.5 5
      vertex 3.84283 2.79198 5
    endloop
  endfacet
  facet normal 0 0 1
    outer loop
      vertex -5.866 0.799265 5
      vertex -11.592 -2.56776 5
      vertex -10.727 -2.0757 5
    endloop
  endfacet
  facet normal 0 0 1
    outer loop
      vertex -3.84283 2.79198 5
      vertex -4.33934 1.932 5
      vertex -0.49651 4.72398 5
    endloop
  endfacet
  facet normal 0 0 1
    outer loop
      vertex -2.375 4.11362 5
      vertex -3.17837 3.52994 5
      vertex -1.46783 4.51752 5
    endloop
  endfacet
  facet normal 0 0 1
    outer loop
      vertex -1.46783 4.51752 5
      vertex -3.84283 2.79198 5
      vertex -0.49651 4.72398 5
    endloop
  endfacet
  facet normal 0 0 1
    outer loop
      vertex 51.5055 1.67208 5
      vertex 52.0555 0.915157 5
      vertex 54.6462 0.987581 5
    endloop
  endfacet
  facet normal 0 0 1
    outer loop
      vertex -0.49651 4.72398 5
      vertex -4.33934 1.932 5
      vertex 0.49651 4.72398 5
    endloop
  endfacet
  facet normal 0 0 1
    outer loop
      vertex 1.46783 4.51752 5
      vertex -4.6462 0.987581 5
      vertex 2.375 4.11362 5
    endloop
  endfacet
  facet normal 0 0 1
    outer loop
      vertex -0.235189 2.23767 5
      vertex 0.695288 2.13988 5
      vertex 3.17837 3.52994 5
    endloop
  endfacet
  facet normal 0 0 1
    outer loop
      vertex -4.91565 0.516331 5
      vertex -10.727 -2.0757 5
      vertex -4.70508 0.427406 5
    endloop
  endfacet
  facet normal 0 0 1
    outer loop
      vertex -4.91565 0.516331 5
      vertex -5.866 0.799265 5
      vertex -10.727 -2.0757 5
    endloop
  endfacet
  facet normal 0 0 1
    outer loop
      vertex -4.6462 0.987581 5
      vertex -4.70508 0.427406 5
      vertex 2.375 4.11362 5
    endloop
  endfacet
  facet normal 0 0 1
    outer loop
      vertex -7.83094 1.04419 5
      vertex -11.592 -2.56776 5
      vertex -6.84172 0.975934 5
    endloop
  endfacet
  facet normal 0 0 1
    outer loop
      vertex -8.82168 1.00322 5
      vertex -16.8518 -6.59606 5
      vertex -7.83094 1.04419 5
    endloop
  endfacet
  facet normal 0 0 1
    outer loop
      vertex -9.80189 0.8535 5
      vertex -16.8518 -6.59606 5
      vertex -8.82168 1.00322 5
    endloop
  endfacet
  facet normal 0 0 1
    outer loop
      vertex -10.7597 0.59686 5
      vertex -16.8518 -6.59606 5
      vertex -9.80189 0.8535 5
    endloop
  endfacet
  facet normal 0 0 1
    outer loop
      vertex -11.6834 0.236413 5
      vertex -16.8518 -6.59606 5
      vertex -10.7597 0.59686 5
    endloop
  endfacet
  facet normal 0 0 1
    outer loop
      vertex -12.5619 -0.223466 5
      vertex -16.8518 -6.59606 5
      vertex -11.6834 0.236413 5
    endloop
  endfacet
  facet normal 0 0 1
    outer loop
      vertex -13.3845 -0.777194 5
      vertex -16.8518 -6.59606 5
      vertex -12.5619 -0.223466 5
    endloop
  endfacet
  facet normal 0 0 1
    outer loop
      vertex -14.1411 -1.41805 5
      vertex -16.8518 -6.59606 5
      vertex -13.3845 -0.777194 5
    endloop
  endfacet
  facet normal 0 0 1
    outer loop
      vertex -14.8227 -2.13826 5
      vertex -16.8518 -6.59606 5
      vertex -14.1411 -1.41805 5
    endloop
  endfacet
  facet normal 0 0 1
    outer loop
      vertex -15.4209 -2.92907 5
      vertex -16.8518 -6.59606 5
      vertex -14.8227 -2.13826 5
    endloop
  endfacet
  facet normal 0 0 1
    outer loop
      vertex -15.9285 -3.78089 5
      vertex -16.8518 -6.59606 5
      vertex -15.4209 -2.92907 5
    endloop
  endfacet
  facet normal 0 0 1
    outer loop
      vertex -16.3393 -4.68338 5
      vertex -16.8518 -6.59606 5
      vertex -15.9285 -3.78089 5
    endloop
  endfacet
  facet normal 0 0 1
    outer loop
      vertex -16.6483 -5.62558 5
      vertex -16.8518 -6.59606 5
      vertex -16.3393 -4.68338 5
    endloop
  endfacet
  facet normal 0 0 1
    outer loop
      vertex -2.20083 0.467801 5
      vertex -8.82394 -1.5133 5
      vertex -2.20083 -0.467801 5
    endloop
  endfacet
  facet normal 0 0 1
    outer loop
      vertex -1.82029 1.32252 5
      vertex -4.70508 0.427406 5
      vertex -10.727 -2.0757 5
    endloop
  endfacet
  facet normal 0 0 1
    outer loop
      vertex 51.5055 -1.67208 5
      vertex 50.6953 -2.13988 5
      vertex 54.3393 -1.932 5
    endloop
  endfacet
  facet normal 0 0 1
    outer loop
      vertex 2.375 4.11362 5
      vertex -1.125 1.94856 5
      vertex 3.17837 3.52994 5
    endloop
  endfacet
  facet normal 0 0 1
    outer loop
      vertex 2.375 4.11362 5
      vertex -4.70508 0.427406 5
      vertex -1.125 1.94856 5
    endloop
  endfacet
  facet normal 0 0 1
    outer loop
      vertex -1.125 1.94856 5
      vertex -0.235189 2.23767 5
      vertex 3.17837 3.52994 5
    endloop
  endfacet
  facet normal 0 0 1
    outer loop
      vertex 3.17837 3.52994 5
      vertex 0.695288 2.13988 5
      vertex 3.84283 2.79198 5
    endloop
  endfacet
  facet normal 0 0 1
    outer loop
      vertex 2.25 0 5
      vertex 53.8428 2.79198 5
      vertex 45.9886 2.5 5
    endloop
  endfacet
  facet normal 0 0 1
    outer loop
      vertex 49.7648 2.23767 5
      vertex 50.6953 2.13988 5
      vertex 53.8428 2.79198 5
    endloop
  endfacet
  facet normal 0 0 1
    outer loop
      vertex -3.17837 3.52994 5
      vertex -3.84283 2.79198 5
      vertex -1.46783 4.51752 5
    endloop
  endfacet
  facet normal 0 0 1
    outer loop
      vertex -2.20083 0.467801 5
      vertex -1.82029 1.32252 5
      vertex -9.79707 -1.72145 5
    endloop
  endfacet
  facet normal 0 0 1
    outer loop
      vertex 45.9886 -2.5 5
      vertex 1.50554 -1.67208 5
      vertex 4.01141 -2.5 5
    endloop
  endfacet
  facet normal 0 0 1
    outer loop
      vertex -1.125 -1.94856 5
      vertex -1.82029 -1.32252 5
      vertex -7.83044 -1.45614 5
    endloop
  endfacet
  facet normal 0 0 1
    outer loop
      vertex 1.50554 -1.67208 5
      vertex 0.695288 -2.13988 5
      vertex 4.01141 -2.5 5
    endloop
  endfacet
  facet normal 0 0 1
    outer loop
      vertex 4.01141 -2.5 5
      vertex -0.235189 -2.23767 5
      vertex 3.84283 -2.79198 5
    endloop
  endfacet
  facet normal 0 0 1
    outer loop
      vertex 52.0555 -0.915157 5
      vertex 51.5055 -1.67208 5
      vertex 54.6462 -0.987581 5
    endloop
  endfacet
  facet normal 0 0 1
    outer loop
      vertex 52.25 0 5
      vertex 54.6462 -0.987581 5
      vertex 54.75 0 5
    endloop
  endfacet
  facet normal 0 0 1
    outer loop
      vertex 52.0555 0.915157 5
      vertex 54.75 0 5
      vertex 54.6462 0.987581 5
    endloop
  endfacet
  facet normal 0 0 1
    outer loop
      vertex 51.5055 1.67208 5
      vertex 54.6462 0.987581 5
      vertex 54.3393 1.932 5
    endloop
  endfacet
  facet normal 0 0 1
    outer loop
      vertex 49.7648 2.23767 5
      vertex 2.05548 -0.915157 5
      vertex 48.875 1.94856 5
    endloop
  endfacet
  facet normal 0 0 1
    outer loop
      vertex 50.6953 2.13988 5
      vertex 51.5055 1.67208 5
      vertex 54.3393 1.932 5
    endloop
  endfacet
  facet normal 0 0 1
    outer loop
      vertex 53.8428 2.79198 5
      vertex 2.05548 -0.915157 5
      vertex 49.7648 2.23767 5
    endloop
  endfacet
  facet normal 0 0 1
    outer loop
      vertex 53.8428 2.79198 5
      vertex 50.6953 2.13988 5
      vertex 54.3393 1.932 5
    endloop
  endfacet
  facet normal 0 0 1
    outer loop
      vertex 52.0555 0.915157 5
      vertex 52.25 0 5
      vertex 54.75 0 5
    endloop
  endfacet
  facet normal 0 0 1
    outer loop
      vertex 47.7992 -0.467801 5
      vertex 47.7992 0.467801 5
      vertex 2.05548 -0.915157 5
    endloop
  endfacet
  facet normal 0 0 1
    outer loop
      vertex 49.7648 -2.23767 5
      vertex 48.875 -1.94856 5
      vertex 2.05548 -0.915157 5
    endloop
  endfacet
  facet normal 0 0 1
    outer loop
      vertex 48.875 -1.94856 5
      vertex 48.1797 -1.32252 5
      vertex 2.05548 -0.915157 5
    endloop
  endfacet
  facet normal 0 0 1
    outer loop
      vertex 54.6462 -0.987581 5
      vertex 51.5055 -1.67208 5
      vertex 54.3393 -1.932 5
    endloop
  endfacet
  facet normal 0 0 1
    outer loop
      vertex 0.695288 -2.13988 5
      vertex -0.235189 -2.23767 5
      vertex 4.01141 -2.5 5
    endloop
  endfacet
  facet normal 0 0 1
    outer loop
      vertex 54.3393 -1.932 5
      vertex 49.7648 -2.23767 5
      vertex 45.9886 -2.5 5
    endloop
  endfacet
  facet normal 0 0 1
    outer loop
      vertex 54.3393 -1.932 5
      vertex 50.6953 -2.13988 5
      vertex 49.7648 -2.23767 5
    endloop
  endfacet
  facet normal 0 0 1
    outer loop
      vertex -4.33934 1.932 5
      vertex -4.6462 0.987581 5
      vertex 1.46783 4.51752 5
    endloop
  endfacet
  facet normal 0 0 1
    outer loop
      vertex 48.5322 4.51752 5
      vertex 51.4678 4.51752 5
      vertex 50.4965 4.72398 5
    endloop
  endfacet
  facet normal 0 0 1
    outer loop
      vertex 48.5322 4.51752 5
      vertex 47.625 4.11362 5
      vertex 51.4678 4.51752 5
    endloop
  endfacet
  facet normal 0 0 1
    outer loop
      vertex 2.25 0 5
      vertex 2.05548 -0.915157 5
      vertex 53.8428 2.79198 5
    endloop
  endfacet
  facet normal 0 0 1
    outer loop
      vertex 47.7992 0.467801 5
      vertex 48.1797 1.32252 5
      vertex 2.05548 -0.915157 5
    endloop
  endfacet
  facet normal 0 0 1
    outer loop
      vertex 45.9886 2.5 5
      vertex 2.05548 0.915157 5
      vertex 2.25 0 5
    endloop
  endfacet
  facet normal 0 0 1
    outer loop
      vertex 45.9886 2.5 5
      vertex 4.01141 2.5 5
      vertex 2.05548 0.915157 5
    endloop
  endfacet
  facet normal 0 0 1
    outer loop
      vertex -7.83044 -1.45614 5
      vertex -2.20083 -0.467801 5
      vertex -8.82394 -1.5133 5
    endloop
  endfacet
  facet normal 0 0 1
    outer loop
      vertex -1.82029 -1.32252 5
      vertex -2.20083 -0.467801 5
      vertex -7.83044 -1.45614 5
    endloop
  endfacet
endsolid OpenSCAD_Model
