solid OpenSCAD_Model
  facet normal 1 -0 0
    outer loop
      vertex 1 1 34
      vertex 1 36 1
      vertex 1 36 34
    endloop
  endfacet
  facet normal 1 0 0
    outer loop
      vertex 1 36 1
      vertex 1 1 34
      vertex 1 1 1
    endloop
  endfacet
  facet normal -1 0 0
    outer loop
      vertex 37 1 1
      vertex 37 36 34
      vertex 37 36 1
    endloop
  endfacet
  facet normal -1 -0 0
    outer loop
      vertex 37 36 34
      vertex 37 1 1
      vertex 37 1 34
    endloop
  endfacet
  facet normal -0 0 1
    outer loop
      vertex 1 36 1
      vertex 37 1 1
      vertex 37 36 1
    endloop
  endfacet
  facet normal 0 0 1
    outer loop
      vertex 37 1 1
      vertex 1 36 1
      vertex 1 1 1
    endloop
  endfacet
  facet normal 0 1 -0
    outer loop
      vertex 37 1 1
      vertex 1 1 34
      vertex 37 1 34
    endloop
  endfacet
  facet normal 0 1 0
    outer loop
      vertex 1 1 34
      vertex 37 1 1
      vertex 1 1 1
    endloop
  endfacet
  facet normal 0 -1 0
    outer loop
      vertex 1 36 1
      vertex 37 36 34
      vertex 1 36 34
    endloop
  endfacet
  facet normal 0 -1 -0
    outer loop
      vertex 37 36 34
      vertex 1 36 1
      vertex 37 36 1
    endloop
  endfacet
  facet normal 1 -0 0
    outer loop
      vertex 38 1 34
      vertex 38 36 1
      vertex 38 36 34
    endloop
  endfacet
  facet normal 1 0 0
    outer loop
      vertex 38 36 1
      vertex 38 1 34
      vertex 38 1 1
    endloop
  endfacet
  facet normal -1 0 0
    outer loop
      vertex 74 1 1
      vertex 74 36 34
      vertex 74 36 1
    endloop
  endfacet
  facet normal -1 -0 0
    outer loop
      vertex 74 36 34
      vertex 74 1 1
      vertex 74 1 34
    endloop
  endfacet
  facet normal 0 -1 0
    outer loop
      vertex 38 36 1
      vertex 74 36 34
      vertex 38 36 34
    endloop
  endfacet
  facet normal 0 -1 -0
    outer loop
      vertex 74 36 34
      vertex 38 36 1
      vertex 74 36 1
    endloop
  endfacet
  facet normal -0 0 1
    outer loop
      vertex 38 36 1
      vertex 74 1 1
      vertex 74 36 1
    endloop
  endfacet
  facet normal 0 0 1
    outer loop
      vertex 74 1 1
      vertex 38 36 1
      vertex 38 1 1
    endloop
  endfacet
  facet normal 0 1 -0
    outer loop
      vertex 74 1 1
      vertex 38 1 34
      vertex 74 1 34
    endloop
  endfacet
  facet normal 0 1 0
    outer loop
      vertex 38 1 34
      vertex 74 1 1
      vertex 38 1 1
    endloop
  endfacet
  facet normal 1 -0 0
    outer loop
      vertex 2 37 34
      vertex 2 67 1
      vertex 2 67 34
    endloop
  endfacet
  facet normal 1 0 0
    outer loop
      vertex 2 67 1
      vertex 2 37 34
      vertex 2 37 1
    endloop
  endfacet
  facet normal -1 0 0
    outer loop
      vertex 37 37 1
      vertex 37 67 34
      vertex 37 67 1
    endloop
  endfacet
  facet normal -1 -0 0
    outer loop
      vertex 37 67 34
      vertex 37 37 1
      vertex 37 37 34
    endloop
  endfacet
  facet normal 0 -1 0
    outer loop
      vertex 2 67 1
      vertex 37 67 34
      vertex 2 67 34
    endloop
  endfacet
  facet normal 0 -1 -0
    outer loop
      vertex 37 67 34
      vertex 2 67 1
      vertex 37 67 1
    endloop
  endfacet
  facet normal -0 0 1
    outer loop
      vertex 2 67 1
      vertex 37 37 1
      vertex 37 67 1
    endloop
  endfacet
  facet normal 0 0 1
    outer loop
      vertex 37 37 1
      vertex 2 67 1
      vertex 2 37 1
    endloop
  endfacet
  facet normal 0 1 -0
    outer loop
      vertex 37 37 1
      vertex 2 37 34
      vertex 37 37 34
    endloop
  endfacet
  facet normal 0 1 0
    outer loop
      vertex 2 37 34
      vertex 37 37 1
      vertex 2 37 1
    endloop
  endfacet
  facet normal 1 -0 0
    outer loop
      vertex 2 68 34
      vertex 2 98 1
      vertex 2 98 34
    endloop
  endfacet
  facet normal 1 0 0
    outer loop
      vertex 2 98 1
      vertex 2 68 34
      vertex 2 68 1
    endloop
  endfacet
  facet normal -1 0 0
    outer loop
      vertex 37 68 1
      vertex 37 98 34
      vertex 37 98 1
    endloop
  endfacet
  facet normal -1 -0 0
    outer loop
      vertex 37 98 34
      vertex 37 68 1
      vertex 37 68 34
    endloop
  endfacet
  facet normal 0 -1 0
    outer loop
      vertex 2 98 1
      vertex 37 98 34
      vertex 2 98 34
    endloop
  endfacet
  facet normal 0 -1 -0
    outer loop
      vertex 37 98 34
      vertex 2 98 1
      vertex 37 98 1
    endloop
  endfacet
  facet normal -0 0 1
    outer loop
      vertex 2 98 1
      vertex 37 68 1
      vertex 37 98 1
    endloop
  endfacet
  facet normal 0 0 1
    outer loop
      vertex 37 68 1
      vertex 2 98 1
      vertex 2 68 1
    endloop
  endfacet
  facet normal 0 1 -0
    outer loop
      vertex 37 68 1
      vertex 2 68 34
      vertex 37 68 34
    endloop
  endfacet
  facet normal 0 1 0
    outer loop
      vertex 2 68 34
      vertex 37 68 1
      vertex 2 68 1
    endloop
  endfacet
  facet normal 1 -0 0
    outer loop
      vertex 2 99 34
      vertex 2 129 1
      vertex 2 129 34
    endloop
  endfacet
  facet normal 1 0 0
    outer loop
      vertex 2 129 1
      vertex 2 99 34
      vertex 2 99 1
    endloop
  endfacet
  facet normal -1 0 0
    outer loop
      vertex 37 99 1
      vertex 37 129 34
      vertex 37 129 1
    endloop
  endfacet
  facet normal -1 -0 0
    outer loop
      vertex 37 129 34
      vertex 37 99 1
      vertex 37 99 34
    endloop
  endfacet
  facet normal 0 -1 0
    outer loop
      vertex 2 129 1
      vertex 37 129 34
      vertex 2 129 34
    endloop
  endfacet
  facet normal 0 -1 -0
    outer loop
      vertex 37 129 34
      vertex 2 129 1
      vertex 37 129 1
    endloop
  endfacet
  facet normal -0 0 1
    outer loop
      vertex 2 129 1
      vertex 37 99 1
      vertex 37 129 1
    endloop
  endfacet
  facet normal 0 0 1
    outer loop
      vertex 37 99 1
      vertex 2 129 1
      vertex 2 99 1
    endloop
  endfacet
  facet normal 0 1 -0
    outer loop
      vertex 37 99 1
      vertex 2 99 34
      vertex 37 99 34
    endloop
  endfacet
  facet normal 0 1 0
    outer loop
      vertex 2 99 34
      vertex 37 99 1
      vertex 2 99 1
    endloop
  endfacet
  facet normal 1 -0 0
    outer loop
      vertex 2 130 34
      vertex 2 160 1
      vertex 2 160 34
    endloop
  endfacet
  facet normal 1 0 0
    outer loop
      vertex 2 160 1
      vertex 2 130 34
      vertex 2 130 1
    endloop
  endfacet
  facet normal -1 0 0
    outer loop
      vertex 37 130 1
      vertex 37 160 34
      vertex 37 160 1
    endloop
  endfacet
  facet normal -1 -0 0
    outer loop
      vertex 37 160 34
      vertex 37 130 1
      vertex 37 130 34
    endloop
  endfacet
  facet normal 0 -1 0
    outer loop
      vertex 2 160 1
      vertex 37 160 34
      vertex 2 160 34
    endloop
  endfacet
  facet normal 0 -1 -0
    outer loop
      vertex 37 160 34
      vertex 2 160 1
      vertex 37 160 1
    endloop
  endfacet
  facet normal -0 0 1
    outer loop
      vertex 2 160 1
      vertex 37 130 1
      vertex 37 160 1
    endloop
  endfacet
  facet normal 0 0 1
    outer loop
      vertex 37 130 1
      vertex 2 160 1
      vertex 2 130 1
    endloop
  endfacet
  facet normal 0 1 -0
    outer loop
      vertex 37 130 1
      vertex 2 130 34
      vertex 37 130 34
    endloop
  endfacet
  facet normal 0 1 0
    outer loop
      vertex 2 130 34
      vertex 37 130 1
      vertex 2 130 1
    endloop
  endfacet
  facet normal 1 -0 0
    outer loop
      vertex 38 37 34
      vertex 38 67 1
      vertex 38 67 34
    endloop
  endfacet
  facet normal 1 0 0
    outer loop
      vertex 38 67 1
      vertex 38 37 34
      vertex 38 37 1
    endloop
  endfacet
  facet normal -1 0 0
    outer loop
      vertex 73 37 1
      vertex 73 67 34
      vertex 73 67 1
    endloop
  endfacet
  facet normal -1 -0 0
    outer loop
      vertex 73 67 34
      vertex 73 37 1
      vertex 73 37 34
    endloop
  endfacet
  facet normal 0 -1 0
    outer loop
      vertex 38 67 1
      vertex 73 67 34
      vertex 38 67 34
    endloop
  endfacet
  facet normal 0 -1 -0
    outer loop
      vertex 73 67 34
      vertex 38 67 1
      vertex 73 67 1
    endloop
  endfacet
  facet normal -0 0 1
    outer loop
      vertex 38 67 1
      vertex 73 37 1
      vertex 73 67 1
    endloop
  endfacet
  facet normal 0 0 1
    outer loop
      vertex 73 37 1
      vertex 38 67 1
      vertex 38 37 1
    endloop
  endfacet
  facet normal 0 1 -0
    outer loop
      vertex 73 37 1
      vertex 38 37 34
      vertex 73 37 34
    endloop
  endfacet
  facet normal 0 1 0
    outer loop
      vertex 38 37 34
      vertex 73 37 1
      vertex 38 37 1
    endloop
  endfacet
  facet normal 1 -0 0
    outer loop
      vertex 38 68 34
      vertex 38 98 1
      vertex 38 98 34
    endloop
  endfacet
  facet normal 1 0 0
    outer loop
      vertex 38 98 1
      vertex 38 68 34
      vertex 38 68 1
    endloop
  endfacet
  facet normal -1 0 0
    outer loop
      vertex 73 68 1
      vertex 73 98 34
      vertex 73 98 1
    endloop
  endfacet
  facet normal -1 -0 0
    outer loop
      vertex 73 98 34
      vertex 73 68 1
      vertex 73 68 34
    endloop
  endfacet
  facet normal 0 -1 0
    outer loop
      vertex 38 98 1
      vertex 73 98 34
      vertex 38 98 34
    endloop
  endfacet
  facet normal 0 -1 -0
    outer loop
      vertex 73 98 34
      vertex 38 98 1
      vertex 73 98 1
    endloop
  endfacet
  facet normal -0 0 1
    outer loop
      vertex 38 98 1
      vertex 73 68 1
      vertex 73 98 1
    endloop
  endfacet
  facet normal 0 0 1
    outer loop
      vertex 73 68 1
      vertex 38 98 1
      vertex 38 68 1
    endloop
  endfacet
  facet normal 0 1 -0
    outer loop
      vertex 73 68 1
      vertex 38 68 34
      vertex 73 68 34
    endloop
  endfacet
  facet normal 0 1 0
    outer loop
      vertex 38 68 34
      vertex 73 68 1
      vertex 38 68 1
    endloop
  endfacet
  facet normal 1 -0 0
    outer loop
      vertex 38 99 34
      vertex 38 129 1
      vertex 38 129 34
    endloop
  endfacet
  facet normal 1 0 0
    outer loop
      vertex 38 129 1
      vertex 38 99 34
      vertex 38 99 1
    endloop
  endfacet
  facet normal -1 0 0
    outer loop
      vertex 73 99 1
      vertex 73 129 34
      vertex 73 129 1
    endloop
  endfacet
  facet normal -1 -0 0
    outer loop
      vertex 73 129 34
      vertex 73 99 1
      vertex 73 99 34
    endloop
  endfacet
  facet normal 0 -1 0
    outer loop
      vertex 38 129 1
      vertex 73 129 34
      vertex 38 129 34
    endloop
  endfacet
  facet normal 0 -1 -0
    outer loop
      vertex 73 129 34
      vertex 38 129 1
      vertex 73 129 1
    endloop
  endfacet
  facet normal -0 0 1
    outer loop
      vertex 38 129 1
      vertex 73 99 1
      vertex 73 129 1
    endloop
  endfacet
  facet normal 0 0 1
    outer loop
      vertex 73 99 1
      vertex 38 129 1
      vertex 38 99 1
    endloop
  endfacet
  facet normal 0 1 -0
    outer loop
      vertex 73 99 1
      vertex 38 99 34
      vertex 73 99 34
    endloop
  endfacet
  facet normal 0 1 0
    outer loop
      vertex 38 99 34
      vertex 73 99 1
      vertex 38 99 1
    endloop
  endfacet
  facet normal 1 -0 0
    outer loop
      vertex 38 130 34
      vertex 38 160 1
      vertex 38 160 34
    endloop
  endfacet
  facet normal 1 0 0
    outer loop
      vertex 38 160 1
      vertex 38 130 34
      vertex 38 130 1
    endloop
  endfacet
  facet normal -1 0 0
    outer loop
      vertex 73 130 1
      vertex 73 160 34
      vertex 73 160 1
    endloop
  endfacet
  facet normal -1 -0 0
    outer loop
      vertex 73 160 34
      vertex 73 130 1
      vertex 73 130 34
    endloop
  endfacet
  facet normal 0 -1 0
    outer loop
      vertex 38 160 1
      vertex 73 160 34
      vertex 38 160 34
    endloop
  endfacet
  facet normal 0 -1 -0
    outer loop
      vertex 73 160 34
      vertex 38 160 1
      vertex 73 160 1
    endloop
  endfacet
  facet normal -0 0 1
    outer loop
      vertex 38 160 1
      vertex 73 130 1
      vertex 73 160 1
    endloop
  endfacet
  facet normal 0 0 1
    outer loop
      vertex 73 130 1
      vertex 38 160 1
      vertex 38 130 1
    endloop
  endfacet
  facet normal 0 1 -0
    outer loop
      vertex 73 130 1
      vertex 38 130 34
      vertex 73 130 34
    endloop
  endfacet
  facet normal 0 1 0
    outer loop
      vertex 38 130 34
      vertex 73 130 1
      vertex 38 130 1
    endloop
  endfacet
  facet normal 1 -0 0
    outer loop
      vertex 75 1 34
      vertex 75 28.5 1
      vertex 75 28.5 34
    endloop
  endfacet
  facet normal 1 0 0
    outer loop
      vertex 75 28.5 1
      vertex 75 1 34
      vertex 75 1 1
    endloop
  endfacet
  facet normal -1 0 0
    outer loop
      vertex 109.5 1 1
      vertex 109.5 28.5 34
      vertex 109.5 28.5 1
    endloop
  endfacet
  facet normal -1 -0 0
    outer loop
      vertex 109.5 28.5 34
      vertex 109.5 1 1
      vertex 109.5 1 34
    endloop
  endfacet
  facet normal 0 -1 0
    outer loop
      vertex 75 28.5 1
      vertex 109.5 28.5 34
      vertex 75 28.5 34
    endloop
  endfacet
  facet normal 0 -1 -0
    outer loop
      vertex 109.5 28.5 34
      vertex 75 28.5 1
      vertex 109.5 28.5 1
    endloop
  endfacet
  facet normal -0 0 1
    outer loop
      vertex 75 28.5 1
      vertex 109.5 1 1
      vertex 109.5 28.5 1
    endloop
  endfacet
  facet normal 0 0 1
    outer loop
      vertex 109.5 1 1
      vertex 75 28.5 1
      vertex 75 1 1
    endloop
  endfacet
  facet normal 0 1 -0
    outer loop
      vertex 109.5 1 1
      vertex 75 1 34
      vertex 109.5 1 34
    endloop
  endfacet
  facet normal 0 1 0
    outer loop
      vertex 75 1 34
      vertex 109.5 1 1
      vertex 75 1 1
    endloop
  endfacet
  facet normal 1 -0 0
    outer loop
      vertex 75 29.5 34
      vertex 75 57 1
      vertex 75 57 34
    endloop
  endfacet
  facet normal 1 0 0
    outer loop
      vertex 75 57 1
      vertex 75 29.5 34
      vertex 75 29.5 1
    endloop
  endfacet
  facet normal -1 0 0
    outer loop
      vertex 109.5 29.5 1
      vertex 109.5 57 34
      vertex 109.5 57 1
    endloop
  endfacet
  facet normal -1 -0 0
    outer loop
      vertex 109.5 57 34
      vertex 109.5 29.5 1
      vertex 109.5 29.5 34
    endloop
  endfacet
  facet normal 0 -1 0
    outer loop
      vertex 75 57 1
      vertex 109.5 57 34
      vertex 75 57 34
    endloop
  endfacet
  facet normal 0 -1 -0
    outer loop
      vertex 109.5 57 34
      vertex 75 57 1
      vertex 109.5 57 1
    endloop
  endfacet
  facet normal -0 0 1
    outer loop
      vertex 75 57 1
      vertex 109.5 29.5 1
      vertex 109.5 57 1
    endloop
  endfacet
  facet normal 0 0 1
    outer loop
      vertex 109.5 29.5 1
      vertex 75 57 1
      vertex 75 29.5 1
    endloop
  endfacet
  facet normal 0 1 -0
    outer loop
      vertex 109.5 29.5 1
      vertex 75 29.5 34
      vertex 109.5 29.5 34
    endloop
  endfacet
  facet normal 0 1 0
    outer loop
      vertex 75 29.5 34
      vertex 109.5 29.5 1
      vertex 75 29.5 1
    endloop
  endfacet
  facet normal 1 -0 0
    outer loop
      vertex 75 58 34
      vertex 75 85.5 1
      vertex 75 85.5 34
    endloop
  endfacet
  facet normal 1 0 0
    outer loop
      vertex 75 85.5 1
      vertex 75 58 34
      vertex 75 58 1
    endloop
  endfacet
  facet normal -1 0 0
    outer loop
      vertex 109.5 58 1
      vertex 109.5 85.5 34
      vertex 109.5 85.5 1
    endloop
  endfacet
  facet normal -1 -0 0
    outer loop
      vertex 109.5 85.5 34
      vertex 109.5 58 1
      vertex 109.5 58 34
    endloop
  endfacet
  facet normal 0 -1 0
    outer loop
      vertex 75 85.5 1
      vertex 109.5 85.5 34
      vertex 75 85.5 34
    endloop
  endfacet
  facet normal 0 -1 -0
    outer loop
      vertex 109.5 85.5 34
      vertex 75 85.5 1
      vertex 109.5 85.5 1
    endloop
  endfacet
  facet normal -0 0 1
    outer loop
      vertex 75 85.5 1
      vertex 109.5 58 1
      vertex 109.5 85.5 1
    endloop
  endfacet
  facet normal 0 0 1
    outer loop
      vertex 109.5 58 1
      vertex 75 85.5 1
      vertex 75 58 1
    endloop
  endfacet
  facet normal 0 1 -0
    outer loop
      vertex 109.5 58 1
      vertex 75 58 34
      vertex 109.5 58 34
    endloop
  endfacet
  facet normal 0 1 0
    outer loop
      vertex 75 58 34
      vertex 109.5 58 1
      vertex 75 58 1
    endloop
  endfacet
  facet normal 1 -0 0
    outer loop
      vertex 75 86.5 34
      vertex 75 114 1
      vertex 75 114 34
    endloop
  endfacet
  facet normal 1 0 0
    outer loop
      vertex 75 114 1
      vertex 75 86.5 34
      vertex 75 86.5 1
    endloop
  endfacet
  facet normal -1 0 0
    outer loop
      vertex 109.5 86.5 1
      vertex 109.5 114 34
      vertex 109.5 114 1
    endloop
  endfacet
  facet normal -1 -0 0
    outer loop
      vertex 109.5 114 34
      vertex 109.5 86.5 1
      vertex 109.5 86.5 34
    endloop
  endfacet
  facet normal 0 -1 0
    outer loop
      vertex 75 114 1
      vertex 109.5 114 34
      vertex 75 114 34
    endloop
  endfacet
  facet normal 0 -1 -0
    outer loop
      vertex 109.5 114 34
      vertex 75 114 1
      vertex 109.5 114 1
    endloop
  endfacet
  facet normal -0 0 1
    outer loop
      vertex 75 114 1
      vertex 109.5 86.5 1
      vertex 109.5 114 1
    endloop
  endfacet
  facet normal 0 0 1
    outer loop
      vertex 109.5 86.5 1
      vertex 75 114 1
      vertex 75 86.5 1
    endloop
  endfacet
  facet normal 0 1 -0
    outer loop
      vertex 109.5 86.5 1
      vertex 75 86.5 34
      vertex 109.5 86.5 34
    endloop
  endfacet
  facet normal 0 1 0
    outer loop
      vertex 75 86.5 34
      vertex 109.5 86.5 1
      vertex 75 86.5 1
    endloop
  endfacet
  facet normal 1 -0 0
    outer loop
      vertex 75 115 34
      vertex 75 142.5 1
      vertex 75 142.5 34
    endloop
  endfacet
  facet normal 1 0 0
    outer loop
      vertex 75 142.5 1
      vertex 75 115 34
      vertex 75 115 1
    endloop
  endfacet
  facet normal -1 0 0
    outer loop
      vertex 109.5 115 1
      vertex 109.5 142.5 34
      vertex 109.5 142.5 1
    endloop
  endfacet
  facet normal -1 -0 0
    outer loop
      vertex 109.5 142.5 34
      vertex 109.5 115 1
      vertex 109.5 115 34
    endloop
  endfacet
  facet normal -0 0 1
    outer loop
      vertex 75 142.5 1
      vertex 109.5 115 1
      vertex 109.5 142.5 1
    endloop
  endfacet
  facet normal 0 0 1
    outer loop
      vertex 109.5 115 1
      vertex 75 142.5 1
      vertex 75 115 1
    endloop
  endfacet
  facet normal 0 1 -0
    outer loop
      vertex 109.5 115 1
      vertex 75 115 34
      vertex 109.5 115 34
    endloop
  endfacet
  facet normal 0 1 0
    outer loop
      vertex 75 115 34
      vertex 109.5 115 1
      vertex 75 115 1
    endloop
  endfacet
  facet normal 0 -1 0
    outer loop
      vertex 75 142.5 1
      vertex 109.5 142.5 34
      vertex 75 142.5 34
    endloop
  endfacet
  facet normal 0 -1 -0
    outer loop
      vertex 109.5 142.5 34
      vertex 75 142.5 1
      vertex 109.5 142.5 1
    endloop
  endfacet
  facet normal 1 -0 0
    outer loop
      vertex 110.5 1 34
      vertex 110.5 28.5 1
      vertex 110.5 28.5 34
    endloop
  endfacet
  facet normal 1 0 0
    outer loop
      vertex 110.5 28.5 1
      vertex 110.5 1 34
      vertex 110.5 1 1
    endloop
  endfacet
  facet normal -1 0 0
    outer loop
      vertex 145 1 1
      vertex 145 28.5 34
      vertex 145 28.5 1
    endloop
  endfacet
  facet normal -1 -0 0
    outer loop
      vertex 145 28.5 34
      vertex 145 1 1
      vertex 145 1 34
    endloop
  endfacet
  facet normal -0 0 1
    outer loop
      vertex 110.5 28.5 1
      vertex 145 1 1
      vertex 145 28.5 1
    endloop
  endfacet
  facet normal 0 0 1
    outer loop
      vertex 145 1 1
      vertex 110.5 28.5 1
      vertex 110.5 1 1
    endloop
  endfacet
  facet normal 0 1 -0
    outer loop
      vertex 145 1 1
      vertex 110.5 1 34
      vertex 145 1 34
    endloop
  endfacet
  facet normal 0 1 0
    outer loop
      vertex 110.5 1 34
      vertex 145 1 1
      vertex 110.5 1 1
    endloop
  endfacet
  facet normal 0 -1 0
    outer loop
      vertex 110.5 28.5 1
      vertex 145 28.5 34
      vertex 110.5 28.5 34
    endloop
  endfacet
  facet normal 0 -1 -0
    outer loop
      vertex 145 28.5 34
      vertex 110.5 28.5 1
      vertex 145 28.5 1
    endloop
  endfacet
  facet normal 1 -0 0
    outer loop
      vertex 110.5 29.5 34
      vertex 110.5 57 1
      vertex 110.5 57 34
    endloop
  endfacet
  facet normal 1 0 0
    outer loop
      vertex 110.5 57 1
      vertex 110.5 29.5 34
      vertex 110.5 29.5 1
    endloop
  endfacet
  facet normal -1 0 0
    outer loop
      vertex 145 29.5 1
      vertex 145 57 34
      vertex 145 57 1
    endloop
  endfacet
  facet normal -1 -0 0
    outer loop
      vertex 145 57 34
      vertex 145 29.5 1
      vertex 145 29.5 34
    endloop
  endfacet
  facet normal -0 0 1
    outer loop
      vertex 110.5 57 1
      vertex 145 29.5 1
      vertex 145 57 1
    endloop
  endfacet
  facet normal 0 0 1
    outer loop
      vertex 145 29.5 1
      vertex 110.5 57 1
      vertex 110.5 29.5 1
    endloop
  endfacet
  facet normal 0 1 -0
    outer loop
      vertex 145 29.5 1
      vertex 110.5 29.5 34
      vertex 145 29.5 34
    endloop
  endfacet
  facet normal 0 1 0
    outer loop
      vertex 110.5 29.5 34
      vertex 145 29.5 1
      vertex 110.5 29.5 1
    endloop
  endfacet
  facet normal 0 -1 0
    outer loop
      vertex 110.5 57 1
      vertex 145 57 34
      vertex 110.5 57 34
    endloop
  endfacet
  facet normal 0 -1 -0
    outer loop
      vertex 145 57 34
      vertex 110.5 57 1
      vertex 145 57 1
    endloop
  endfacet
  facet normal 1 -0 0
    outer loop
      vertex 110.5 58 34
      vertex 110.5 85.5 1
      vertex 110.5 85.5 34
    endloop
  endfacet
  facet normal 1 0 0
    outer loop
      vertex 110.5 85.5 1
      vertex 110.5 58 34
      vertex 110.5 58 1
    endloop
  endfacet
  facet normal -1 0 0
    outer loop
      vertex 145 58 1
      vertex 145 85.5 34
      vertex 145 85.5 1
    endloop
  endfacet
  facet normal -1 -0 0
    outer loop
      vertex 145 85.5 34
      vertex 145 58 1
      vertex 145 58 34
    endloop
  endfacet
  facet normal -0 0 1
    outer loop
      vertex 110.5 85.5 1
      vertex 145 58 1
      vertex 145 85.5 1
    endloop
  endfacet
  facet normal 0 0 1
    outer loop
      vertex 145 58 1
      vertex 110.5 85.5 1
      vertex 110.5 58 1
    endloop
  endfacet
  facet normal 0 1 -0
    outer loop
      vertex 145 58 1
      vertex 110.5 58 34
      vertex 145 58 34
    endloop
  endfacet
  facet normal 0 1 0
    outer loop
      vertex 110.5 58 34
      vertex 145 58 1
      vertex 110.5 58 1
    endloop
  endfacet
  facet normal 0 -1 0
    outer loop
      vertex 110.5 85.5 1
      vertex 145 85.5 34
      vertex 110.5 85.5 34
    endloop
  endfacet
  facet normal 0 -1 -0
    outer loop
      vertex 145 85.5 34
      vertex 110.5 85.5 1
      vertex 145 85.5 1
    endloop
  endfacet
  facet normal 1 -0 0
    outer loop
      vertex 110.5 86.5 34
      vertex 110.5 114 1
      vertex 110.5 114 34
    endloop
  endfacet
  facet normal 1 0 0
    outer loop
      vertex 110.5 114 1
      vertex 110.5 86.5 34
      vertex 110.5 86.5 1
    endloop
  endfacet
  facet normal -1 0 0
    outer loop
      vertex 145 86.5 1
      vertex 145 114 34
      vertex 145 114 1
    endloop
  endfacet
  facet normal -1 -0 0
    outer loop
      vertex 145 114 34
      vertex 145 86.5 1
      vertex 145 86.5 34
    endloop
  endfacet
  facet normal 0 -1 0
    outer loop
      vertex 110.5 114 1
      vertex 145 114 34
      vertex 110.5 114 34
    endloop
  endfacet
  facet normal 0 -1 -0
    outer loop
      vertex 145 114 34
      vertex 110.5 114 1
      vertex 145 114 1
    endloop
  endfacet
  facet normal -0 0 1
    outer loop
      vertex 110.5 114 1
      vertex 145 86.5 1
      vertex 145 114 1
    endloop
  endfacet
  facet normal 0 0 1
    outer loop
      vertex 145 86.5 1
      vertex 110.5 114 1
      vertex 110.5 86.5 1
    endloop
  endfacet
  facet normal 0 1 -0
    outer loop
      vertex 145 86.5 1
      vertex 110.5 86.5 34
      vertex 145 86.5 34
    endloop
  endfacet
  facet normal 0 1 0
    outer loop
      vertex 110.5 86.5 34
      vertex 145 86.5 1
      vertex 110.5 86.5 1
    endloop
  endfacet
  facet normal 1 -0 0
    outer loop
      vertex 110.5 115 34
      vertex 110.5 142.5 1
      vertex 110.5 142.5 34
    endloop
  endfacet
  facet normal 1 0 0
    outer loop
      vertex 110.5 142.5 1
      vertex 110.5 115 34
      vertex 110.5 115 1
    endloop
  endfacet
  facet normal -1 0 0
    outer loop
      vertex 145 115 1
      vertex 145 142.5 34
      vertex 145 142.5 1
    endloop
  endfacet
  facet normal -1 -0 0
    outer loop
      vertex 145 142.5 34
      vertex 145 115 1
      vertex 145 115 34
    endloop
  endfacet
  facet normal 0 -1 0
    outer loop
      vertex 110.5 142.5 1
      vertex 145 142.5 34
      vertex 110.5 142.5 34
    endloop
  endfacet
  facet normal 0 -1 -0
    outer loop
      vertex 145 142.5 34
      vertex 110.5 142.5 1
      vertex 145 142.5 1
    endloop
  endfacet
  facet normal -0 0 1
    outer loop
      vertex 110.5 142.5 1
      vertex 145 115 1
      vertex 145 142.5 1
    endloop
  endfacet
  facet normal 0 0 1
    outer loop
      vertex 145 115 1
      vertex 110.5 142.5 1
      vertex 110.5 115 1
    endloop
  endfacet
  facet normal 0 1 -0
    outer loop
      vertex 145 115 1
      vertex 110.5 115 34
      vertex 145 115 34
    endloop
  endfacet
  facet normal 0 1 0
    outer loop
      vertex 110.5 115 34
      vertex 145 115 1
      vertex 110.5 115 1
    endloop
  endfacet
  facet normal 1 -0 0
    outer loop
      vertex 145.5 1 34
      vertex 145.5 20 1
      vertex 145.5 20 34
    endloop
  endfacet
  facet normal 1 0 0
    outer loop
      vertex 145.5 20 1
      vertex 145.5 1 34
      vertex 145.5 1 1
    endloop
  endfacet
  facet normal -1 0 0
    outer loop
      vertex 175.5 1 1
      vertex 175.5 20 34
      vertex 175.5 20 1
    endloop
  endfacet
  facet normal -1 -0 0
    outer loop
      vertex 175.5 20 34
      vertex 175.5 1 1
      vertex 175.5 1 34
    endloop
  endfacet
  facet normal -0 0 1
    outer loop
      vertex 145.5 20 1
      vertex 175.5 1 1
      vertex 175.5 20 1
    endloop
  endfacet
  facet normal 0 0 1
    outer loop
      vertex 175.5 1 1
      vertex 145.5 20 1
      vertex 145.5 1 1
    endloop
  endfacet
  facet normal 0 1 -0
    outer loop
      vertex 175.5 1 1
      vertex 145.5 1 34
      vertex 175.5 1 34
    endloop
  endfacet
  facet normal 0 1 0
    outer loop
      vertex 145.5 1 34
      vertex 175.5 1 1
      vertex 145.5 1 1
    endloop
  endfacet
  facet normal 0 -1 0
    outer loop
      vertex 145.5 20 1
      vertex 175.5 20 34
      vertex 145.5 20 34
    endloop
  endfacet
  facet normal 0 -1 -0
    outer loop
      vertex 175.5 20 34
      vertex 145.5 20 1
      vertex 175.5 20 1
    endloop
  endfacet
  facet normal 1 -0 0
    outer loop
      vertex 145.5 21 34
      vertex 145.5 40 1
      vertex 145.5 40 34
    endloop
  endfacet
  facet normal 1 0 0
    outer loop
      vertex 145.5 40 1
      vertex 145.5 21 34
      vertex 145.5 21 1
    endloop
  endfacet
  facet normal -1 0 0
    outer loop
      vertex 175.5 21 1
      vertex 175.5 40 34
      vertex 175.5 40 1
    endloop
  endfacet
  facet normal -1 -0 0
    outer loop
      vertex 175.5 40 34
      vertex 175.5 21 1
      vertex 175.5 21 34
    endloop
  endfacet
  facet normal 0 -1 0
    outer loop
      vertex 145.5 40 1
      vertex 175.5 40 34
      vertex 145.5 40 34
    endloop
  endfacet
  facet normal 0 -1 -0
    outer loop
      vertex 175.5 40 34
      vertex 145.5 40 1
      vertex 175.5 40 1
    endloop
  endfacet
  facet normal -0 0 1
    outer loop
      vertex 145.5 40 1
      vertex 175.5 21 1
      vertex 175.5 40 1
    endloop
  endfacet
  facet normal 0 0 1
    outer loop
      vertex 175.5 21 1
      vertex 145.5 40 1
      vertex 145.5 21 1
    endloop
  endfacet
  facet normal 0 1 -0
    outer loop
      vertex 175.5 21 1
      vertex 145.5 21 34
      vertex 175.5 21 34
    endloop
  endfacet
  facet normal 0 1 0
    outer loop
      vertex 145.5 21 34
      vertex 175.5 21 1
      vertex 145.5 21 1
    endloop
  endfacet
  facet normal 1 -0 0
    outer loop
      vertex 145.5 41 34
      vertex 145.5 60 1
      vertex 145.5 60 34
    endloop
  endfacet
  facet normal 1 0 0
    outer loop
      vertex 145.5 60 1
      vertex 145.5 41 34
      vertex 145.5 41 1
    endloop
  endfacet
  facet normal -1 0 0
    outer loop
      vertex 175.5 41 1
      vertex 175.5 60 34
      vertex 175.5 60 1
    endloop
  endfacet
  facet normal -1 -0 0
    outer loop
      vertex 175.5 60 34
      vertex 175.5 41 1
      vertex 175.5 41 34
    endloop
  endfacet
  facet normal 0 -1 0
    outer loop
      vertex 145.5 60 1
      vertex 175.5 60 34
      vertex 145.5 60 34
    endloop
  endfacet
  facet normal 0 -1 -0
    outer loop
      vertex 175.5 60 34
      vertex 145.5 60 1
      vertex 175.5 60 1
    endloop
  endfacet
  facet normal -0 0 1
    outer loop
      vertex 145.5 60 1
      vertex 175.5 41 1
      vertex 175.5 60 1
    endloop
  endfacet
  facet normal 0 0 1
    outer loop
      vertex 175.5 41 1
      vertex 145.5 60 1
      vertex 145.5 41 1
    endloop
  endfacet
  facet normal 0 1 -0
    outer loop
      vertex 175.5 41 1
      vertex 145.5 41 34
      vertex 175.5 41 34
    endloop
  endfacet
  facet normal 0 1 0
    outer loop
      vertex 145.5 41 34
      vertex 175.5 41 1
      vertex 145.5 41 1
    endloop
  endfacet
  facet normal 1 -0 0
    outer loop
      vertex 145.5 61 34
      vertex 145.5 80 1
      vertex 145.5 80 34
    endloop
  endfacet
  facet normal 1 0 0
    outer loop
      vertex 145.5 80 1
      vertex 145.5 61 34
      vertex 145.5 61 1
    endloop
  endfacet
  facet normal -1 0 0
    outer loop
      vertex 175.5 61 1
      vertex 175.5 80 34
      vertex 175.5 80 1
    endloop
  endfacet
  facet normal -1 -0 0
    outer loop
      vertex 175.5 80 34
      vertex 175.5 61 1
      vertex 175.5 61 34
    endloop
  endfacet
  facet normal 0 -1 0
    outer loop
      vertex 145.5 80 1
      vertex 175.5 80 34
      vertex 145.5 80 34
    endloop
  endfacet
  facet normal 0 -1 -0
    outer loop
      vertex 175.5 80 34
      vertex 145.5 80 1
      vertex 175.5 80 1
    endloop
  endfacet
  facet normal -0 0 1
    outer loop
      vertex 145.5 80 1
      vertex 175.5 61 1
      vertex 175.5 80 1
    endloop
  endfacet
  facet normal 0 0 1
    outer loop
      vertex 175.5 61 1
      vertex 145.5 80 1
      vertex 145.5 61 1
    endloop
  endfacet
  facet normal 0 1 -0
    outer loop
      vertex 175.5 61 1
      vertex 145.5 61 34
      vertex 175.5 61 34
    endloop
  endfacet
  facet normal 0 1 0
    outer loop
      vertex 145.5 61 34
      vertex 175.5 61 1
      vertex 145.5 61 1
    endloop
  endfacet
  facet normal 1 -0 0
    outer loop
      vertex 145.5 81 34
      vertex 145.5 100 1
      vertex 145.5 100 34
    endloop
  endfacet
  facet normal 1 0 0
    outer loop
      vertex 145.5 100 1
      vertex 145.5 81 34
      vertex 145.5 81 1
    endloop
  endfacet
  facet normal -1 0 0
    outer loop
      vertex 175.5 81 1
      vertex 175.5 100 34
      vertex 175.5 100 1
    endloop
  endfacet
  facet normal -1 -0 0
    outer loop
      vertex 175.5 100 34
      vertex 175.5 81 1
      vertex 175.5 81 34
    endloop
  endfacet
  facet normal 0 -1 0
    outer loop
      vertex 145.5 100 1
      vertex 175.5 100 34
      vertex 145.5 100 34
    endloop
  endfacet
  facet normal 0 -1 -0
    outer loop
      vertex 175.5 100 34
      vertex 145.5 100 1
      vertex 175.5 100 1
    endloop
  endfacet
  facet normal -0 0 1
    outer loop
      vertex 145.5 100 1
      vertex 175.5 81 1
      vertex 175.5 100 1
    endloop
  endfacet
  facet normal 0 0 1
    outer loop
      vertex 175.5 81 1
      vertex 145.5 100 1
      vertex 145.5 81 1
    endloop
  endfacet
  facet normal 0 1 -0
    outer loop
      vertex 175.5 81 1
      vertex 145.5 81 34
      vertex 175.5 81 34
    endloop
  endfacet
  facet normal 0 1 0
    outer loop
      vertex 145.5 81 34
      vertex 175.5 81 1
      vertex 145.5 81 1
    endloop
  endfacet
  facet normal 1 -0 0
    outer loop
      vertex 145.5 101 34
      vertex 145.5 120 1
      vertex 145.5 120 34
    endloop
  endfacet
  facet normal 1 0 0
    outer loop
      vertex 145.5 120 1
      vertex 145.5 101 34
      vertex 145.5 101 1
    endloop
  endfacet
  facet normal -1 0 0
    outer loop
      vertex 175.5 101 1
      vertex 175.5 120 34
      vertex 175.5 120 1
    endloop
  endfacet
  facet normal -1 -0 0
    outer loop
      vertex 175.5 120 34
      vertex 175.5 101 1
      vertex 175.5 101 34
    endloop
  endfacet
  facet normal 0 -1 0
    outer loop
      vertex 145.5 120 1
      vertex 175.5 120 34
      vertex 145.5 120 34
    endloop
  endfacet
  facet normal 0 -1 -0
    outer loop
      vertex 175.5 120 34
      vertex 145.5 120 1
      vertex 175.5 120 1
    endloop
  endfacet
  facet normal -0 0 1
    outer loop
      vertex 145.5 120 1
      vertex 175.5 101 1
      vertex 175.5 120 1
    endloop
  endfacet
  facet normal 0 0 1
    outer loop
      vertex 175.5 101 1
      vertex 145.5 120 1
      vertex 145.5 101 1
    endloop
  endfacet
  facet normal 0 1 -0
    outer loop
      vertex 175.5 101 1
      vertex 145.5 101 34
      vertex 175.5 101 34
    endloop
  endfacet
  facet normal 0 1 0
    outer loop
      vertex 145.5 101 34
      vertex 175.5 101 1
      vertex 145.5 101 1
    endloop
  endfacet
  facet normal 1 -0 0
    outer loop
      vertex 145.5 121 34
      vertex 145.5 140 1
      vertex 145.5 140 34
    endloop
  endfacet
  facet normal 1 0 0
    outer loop
      vertex 145.5 140 1
      vertex 145.5 121 34
      vertex 145.5 121 1
    endloop
  endfacet
  facet normal -1 0 0
    outer loop
      vertex 175.5 121 1
      vertex 175.5 140 34
      vertex 175.5 140 1
    endloop
  endfacet
  facet normal -1 -0 0
    outer loop
      vertex 175.5 140 34
      vertex 175.5 121 1
      vertex 175.5 121 34
    endloop
  endfacet
  facet normal -0 0 1
    outer loop
      vertex 145.5 140 1
      vertex 175.5 121 1
      vertex 175.5 140 1
    endloop
  endfacet
  facet normal 0 0 1
    outer loop
      vertex 175.5 121 1
      vertex 145.5 140 1
      vertex 145.5 121 1
    endloop
  endfacet
  facet normal 0 1 -0
    outer loop
      vertex 175.5 121 1
      vertex 145.5 121 34
      vertex 175.5 121 34
    endloop
  endfacet
  facet normal 0 1 0
    outer loop
      vertex 145.5 121 34
      vertex 175.5 121 1
      vertex 145.5 121 1
    endloop
  endfacet
  facet normal 0 -1 0
    outer loop
      vertex 145.5 140 1
      vertex 175.5 140 34
      vertex 145.5 140 34
    endloop
  endfacet
  facet normal 0 -1 -0
    outer loop
      vertex 175.5 140 34
      vertex 145.5 140 1
      vertex 175.5 140 1
    endloop
  endfacet
  facet normal 1 -0 0
    outer loop
      vertex 145.5 141 34
      vertex 145.5 160 1
      vertex 145.5 160 34
    endloop
  endfacet
  facet normal 1 0 0
    outer loop
      vertex 145.5 160 1
      vertex 145.5 141 34
      vertex 145.5 141 1
    endloop
  endfacet
  facet normal -1 0 0
    outer loop
      vertex 175.5 141 1
      vertex 175.5 160 34
      vertex 175.5 160 1
    endloop
  endfacet
  facet normal -1 -0 0
    outer loop
      vertex 175.5 160 34
      vertex 175.5 141 1
      vertex 175.5 141 34
    endloop
  endfacet
  facet normal 0 -1 0
    outer loop
      vertex 145.5 160 1
      vertex 175.5 160 34
      vertex 145.5 160 34
    endloop
  endfacet
  facet normal 0 -1 -0
    outer loop
      vertex 175.5 160 34
      vertex 145.5 160 1
      vertex 175.5 160 1
    endloop
  endfacet
  facet normal -0 0 1
    outer loop
      vertex 145.5 160 1
      vertex 175.5 141 1
      vertex 175.5 160 1
    endloop
  endfacet
  facet normal 0 0 1
    outer loop
      vertex 175.5 141 1
      vertex 145.5 160 1
      vertex 145.5 141 1
    endloop
  endfacet
  facet normal 0 1 -0
    outer loop
      vertex 175.5 141 1
      vertex 145.5 141 34
      vertex 175.5 141 34
    endloop
  endfacet
  facet normal 0 1 0
    outer loop
      vertex 145.5 141 34
      vertex 175.5 141 1
      vertex 145.5 141 1
    endloop
  endfacet
  facet normal -1 0 0
    outer loop
      vertex 0 0 0
      vertex 0 161 34
      vertex 0 161 0
    endloop
  endfacet
  facet normal -1 -0 0
    outer loop
      vertex 0 161 34
      vertex 0 0 0
      vertex 0 0 34
    endloop
  endfacet
  facet normal -0 0 1
    outer loop
      vertex 2 37 34
      vertex 37 36 34
      vertex 37 37 34
    endloop
  endfacet
  facet normal 0 0 1
    outer loop
      vertex 37 36 34
      vertex 2 37 34
      vertex 1 36 34
    endloop
  endfacet
  facet normal -0 0 1
    outer loop
      vertex 2 68 34
      vertex 37 67 34
      vertex 37 68 34
    endloop
  endfacet
  facet normal 0 0 1
    outer loop
      vertex 37 67 34
      vertex 2 68 34
      vertex 2 67 34
    endloop
  endfacet
  facet normal -0 0 1
    outer loop
      vertex 2 99 34
      vertex 37 98 34
      vertex 37 99 34
    endloop
  endfacet
  facet normal 0 0 1
    outer loop
      vertex 37 98 34
      vertex 2 99 34
      vertex 2 98 34
    endloop
  endfacet
  facet normal -0 0 1
    outer loop
      vertex 2 130 34
      vertex 37 129 34
      vertex 37 130 34
    endloop
  endfacet
  facet normal 0 0 1
    outer loop
      vertex 37 129 34
      vertex 2 130 34
      vertex 2 129 34
    endloop
  endfacet
  facet normal -0 0 1
    outer loop
      vertex 38 68 34
      vertex 73 67 34
      vertex 73 68 34
    endloop
  endfacet
  facet normal 0 0 1
    outer loop
      vertex 73 67 34
      vertex 38 68 34
      vertex 38 67 34
    endloop
  endfacet
  facet normal -0 0 1
    outer loop
      vertex 38 99 34
      vertex 73 98 34
      vertex 73 99 34
    endloop
  endfacet
  facet normal 0 0 1
    outer loop
      vertex 73 98 34
      vertex 38 99 34
      vertex 38 98 34
    endloop
  endfacet
  facet normal -0 0 1
    outer loop
      vertex 38 130 34
      vertex 73 129 34
      vertex 73 130 34
    endloop
  endfacet
  facet normal 0 0 1
    outer loop
      vertex 73 129 34
      vertex 38 130 34
      vertex 38 129 34
    endloop
  endfacet
  facet normal -0 0 1
    outer loop
      vertex 75 29.5 34
      vertex 109.5 28.5 34
      vertex 109.5 29.5 34
    endloop
  endfacet
  facet normal 0 0 1
    outer loop
      vertex 109.5 28.5 34
      vertex 75 29.5 34
      vertex 75 28.5 34
    endloop
  endfacet
  facet normal -0 0 1
    outer loop
      vertex 75 58 34
      vertex 109.5 57 34
      vertex 109.5 58 34
    endloop
  endfacet
  facet normal 0 0 1
    outer loop
      vertex 109.5 57 34
      vertex 75 58 34
      vertex 75 57 34
    endloop
  endfacet
  facet normal -0 0 1
    outer loop
      vertex 75 86.5 34
      vertex 109.5 85.5 34
      vertex 109.5 86.5 34
    endloop
  endfacet
  facet normal 0 0 1
    outer loop
      vertex 109.5 85.5 34
      vertex 75 86.5 34
      vertex 75 85.5 34
    endloop
  endfacet
  facet normal -0 0 1
    outer loop
      vertex 75 115 34
      vertex 109.5 114 34
      vertex 109.5 115 34
    endloop
  endfacet
  facet normal 0 0 1
    outer loop
      vertex 109.5 114 34
      vertex 75 115 34
      vertex 75 114 34
    endloop
  endfacet
  facet normal -0 0 1
    outer loop
      vertex 110.5 29.5 34
      vertex 145 28.5 34
      vertex 145 29.5 34
    endloop
  endfacet
  facet normal 0 0 1
    outer loop
      vertex 145 28.5 34
      vertex 110.5 29.5 34
      vertex 110.5 28.5 34
    endloop
  endfacet
  facet normal -0 0 1
    outer loop
      vertex 110.5 58 34
      vertex 145 57 34
      vertex 145 58 34
    endloop
  endfacet
  facet normal 0 0 1
    outer loop
      vertex 145 57 34
      vertex 110.5 58 34
      vertex 110.5 57 34
    endloop
  endfacet
  facet normal -0 0 1
    outer loop
      vertex 110.5 86.5 34
      vertex 145 85.5 34
      vertex 145 86.5 34
    endloop
  endfacet
  facet normal 0 0 1
    outer loop
      vertex 145 85.5 34
      vertex 110.5 86.5 34
      vertex 110.5 85.5 34
    endloop
  endfacet
  facet normal -0 0 1
    outer loop
      vertex 110.5 115 34
      vertex 145 114 34
      vertex 145 115 34
    endloop
  endfacet
  facet normal 0 0 1
    outer loop
      vertex 145 114 34
      vertex 110.5 115 34
      vertex 110.5 114 34
    endloop
  endfacet
  facet normal -0 0 1
    outer loop
      vertex 145.5 21 34
      vertex 175.5 20 34
      vertex 175.5 21 34
    endloop
  endfacet
  facet normal 0 0 1
    outer loop
      vertex 175.5 20 34
      vertex 145.5 21 34
      vertex 145.5 20 34
    endloop
  endfacet
  facet normal -0 0 1
    outer loop
      vertex 145.5 41 34
      vertex 175.5 40 34
      vertex 175.5 41 34
    endloop
  endfacet
  facet normal 0 0 1
    outer loop
      vertex 175.5 40 34
      vertex 145.5 41 34
      vertex 145.5 40 34
    endloop
  endfacet
  facet normal -0 0 1
    outer loop
      vertex 145.5 61 34
      vertex 175.5 60 34
      vertex 175.5 61 34
    endloop
  endfacet
  facet normal 0 0 1
    outer loop
      vertex 175.5 60 34
      vertex 145.5 61 34
      vertex 145.5 60 34
    endloop
  endfacet
  facet normal -0 0 1
    outer loop
      vertex 145.5 81 34
      vertex 175.5 80 34
      vertex 175.5 81 34
    endloop
  endfacet
  facet normal 0 0 1
    outer loop
      vertex 175.5 80 34
      vertex 145.5 81 34
      vertex 145.5 80 34
    endloop
  endfacet
  facet normal -0 0 1
    outer loop
      vertex 145.5 101 34
      vertex 175.5 100 34
      vertex 175.5 101 34
    endloop
  endfacet
  facet normal 0 0 1
    outer loop
      vertex 175.5 100 34
      vertex 145.5 101 34
      vertex 145.5 100 34
    endloop
  endfacet
  facet normal -0 0 1
    outer loop
      vertex 145.5 121 34
      vertex 175.5 120 34
      vertex 175.5 121 34
    endloop
  endfacet
  facet normal 0 0 1
    outer loop
      vertex 175.5 120 34
      vertex 145.5 121 34
      vertex 145.5 120 34
    endloop
  endfacet
  facet normal -0 0 1
    outer loop
      vertex 145.5 141 34
      vertex 175.5 140 34
      vertex 175.5 141 34
    endloop
  endfacet
  facet normal 0 0 1
    outer loop
      vertex 175.5 140 34
      vertex 145.5 141 34
      vertex 145.5 140 34
    endloop
  endfacet
  facet normal 0 0 1
    outer loop
      vertex 175.5 141 34
      vertex 176.5 161 34
      vertex 175.5 160 34
    endloop
  endfacet
  facet normal 0 0 1
    outer loop
      vertex 176.5 161 34
      vertex 145.5 160 34
      vertex 175.5 160 34
    endloop
  endfacet
  facet normal -0 0 1
    outer loop
      vertex 145 142.5 34
      vertex 145.5 141 34
      vertex 145.5 160 34
    endloop
  endfacet
  facet normal 0 0 1
    outer loop
      vertex 145.5 141 34
      vertex 145 142.5 34
      vertex 145.5 140 34
    endloop
  endfacet
  facet normal 0 0 1
    outer loop
      vertex 145.5 140 34
      vertex 145 142.5 34
      vertex 145.5 121 34
    endloop
  endfacet
  facet normal 0 0 1
    outer loop
      vertex 145 115 34
      vertex 145.5 121 34
      vertex 145 142.5 34
    endloop
  endfacet
  facet normal 0 0 1
    outer loop
      vertex 145 114 34
      vertex 145.5 120 34
      vertex 145 115 34
    endloop
  endfacet
  facet normal 0 0 1
    outer loop
      vertex 145.5 120 34
      vertex 145 114 34
      vertex 145.5 101 34
    endloop
  endfacet
  facet normal 0 0 1
    outer loop
      vertex 145.5 101 34
      vertex 145 114 34
      vertex 145.5 100 34
    endloop
  endfacet
  facet normal 0 0 1
    outer loop
      vertex 145 86.5 34
      vertex 145.5 100 34
      vertex 145 114 34
    endloop
  endfacet
  facet normal 0 0 1
    outer loop
      vertex 145.5 100 34
      vertex 145 86.5 34
      vertex 145.5 81 34
    endloop
  endfacet
  facet normal -0 0 1
    outer loop
      vertex 145 85.5 34
      vertex 145.5 81 34
      vertex 145 86.5 34
    endloop
  endfacet
  facet normal 0 0 1
    outer loop
      vertex 145.5 81 34
      vertex 145 85.5 34
      vertex 145.5 80 34
    endloop
  endfacet
  facet normal 0 0 1
    outer loop
      vertex 145 58 34
      vertex 145.5 80 34
      vertex 145 85.5 34
    endloop
  endfacet
  facet normal 0 0 1
    outer loop
      vertex 145.5 80 34
      vertex 145 58 34
      vertex 145.5 61 34
    endloop
  endfacet
  facet normal 0 0 1
    outer loop
      vertex 145.5 61 34
      vertex 145 58 34
      vertex 145.5 60 34
    endloop
  endfacet
  facet normal 0 0 1
    outer loop
      vertex 145.5 121 34
      vertex 145 115 34
      vertex 145.5 120 34
    endloop
  endfacet
  facet normal 0 0 1
    outer loop
      vertex 144.5 143 34
      vertex 145.5 160 34
      vertex 144.5 159.5 34
    endloop
  endfacet
  facet normal 0 0 1
    outer loop
      vertex 145.5 160 34
      vertex 75 159.5 34
      vertex 144.5 159.5 34
    endloop
  endfacet
  facet normal 0 0 1
    outer loop
      vertex 73 160 34
      vertex 145.5 160 34
      vertex 176.5 161 34
    endloop
  endfacet
  facet normal 0 0 1
    outer loop
      vertex 73 160 34
      vertex 75 143 34
      vertex 75 159.5 34
    endloop
  endfacet
  facet normal 0 0 1
    outer loop
      vertex 73 130 34
      vertex 75 143 34
      vertex 73 160 34
    endloop
  endfacet
  facet normal 0 0 1
    outer loop
      vertex 73 129 34
      vertex 75 142.5 34
      vertex 73 130 34
    endloop
  endfacet
  facet normal 0 0 1
    outer loop
      vertex 75 142.5 34
      vertex 73 129 34
      vertex 75 115 34
    endloop
  endfacet
  facet normal 0 0 1
    outer loop
      vertex 73 99 34
      vertex 75 114 34
      vertex 73 129 34
    endloop
  endfacet
  facet normal 0 0 1
    outer loop
      vertex 75 114 34
      vertex 73 99 34
      vertex 75 86.5 34
    endloop
  endfacet
  facet normal 0 0 1
    outer loop
      vertex 75 86.5 34
      vertex 73 98 34
      vertex 75 85.5 34
    endloop
  endfacet
  facet normal 0 0 1
    outer loop
      vertex 73 68 34
      vertex 75 85.5 34
      vertex 73 98 34
    endloop
  endfacet
  facet normal 0 0 1
    outer loop
      vertex 75 85.5 34
      vertex 73 68 34
      vertex 75 58 34
    endloop
  endfacet
  facet normal -0 0 1
    outer loop
      vertex 73 67 34
      vertex 75 58 34
      vertex 73 68 34
    endloop
  endfacet
  facet normal 0 0 1
    outer loop
      vertex 74 1 34
      vertex 75 28.5 34
      vertex 74 36 34
    endloop
  endfacet
  facet normal 0 0 1
    outer loop
      vertex 75 143 34
      vertex 73 130 34
      vertex 75 142.5 34
    endloop
  endfacet
  facet normal 0 0 1
    outer loop
      vertex 145.5 160 34
      vertex 73 160 34
      vertex 75 159.5 34
    endloop
  endfacet
  facet normal -0 0 1
    outer loop
      vertex 0 161 34
      vertex 73 160 34
      vertex 176.5 161 34
    endloop
  endfacet
  facet normal 0 0 1
    outer loop
      vertex 37 130 34
      vertex 38 130 34
      vertex 38 160 34
    endloop
  endfacet
  facet normal 0 0 1
    outer loop
      vertex 38 130 34
      vertex 37 130 34
      vertex 38 129 34
    endloop
  endfacet
  facet normal 0 0 1
    outer loop
      vertex 38 129 34
      vertex 37 129 34
      vertex 38 99 34
    endloop
  endfacet
  facet normal 0 0 1
    outer loop
      vertex 37 99 34
      vertex 38 99 34
      vertex 37 129 34
    endloop
  endfacet
  facet normal 0 0 1
    outer loop
      vertex 37 98 34
      vertex 38 98 34
      vertex 37 99 34
    endloop
  endfacet
  facet normal 0 0 1
    outer loop
      vertex 38 98 34
      vertex 37 98 34
      vertex 38 68 34
    endloop
  endfacet
  facet normal 0 0 1
    outer loop
      vertex 37 68 34
      vertex 38 68 34
      vertex 37 98 34
    endloop
  endfacet
  facet normal 0 0 1
    outer loop
      vertex 38 68 34
      vertex 37 68 34
      vertex 38 67 34
    endloop
  endfacet
  facet normal 0 0 1
    outer loop
      vertex 37 130 34
      vertex 38 160 34
      vertex 37 160 34
    endloop
  endfacet
  facet normal 0 0 1
    outer loop
      vertex 73 160 34
      vertex 0 161 34
      vertex 38 160 34
    endloop
  endfacet
  facet normal 0 0 1
    outer loop
      vertex 38 160 34
      vertex 0 161 34
      vertex 37 160 34
    endloop
  endfacet
  facet normal 0 0 1
    outer loop
      vertex 0 161 34
      vertex 2 130 34
      vertex 2 160 34
    endloop
  endfacet
  facet normal 0 0 1
    outer loop
      vertex 2 130 34
      vertex 0 161 34
      vertex 2 129 34
    endloop
  endfacet
  facet normal 0 0 1
    outer loop
      vertex 2 129 34
      vertex 0 161 34
      vertex 2 99 34
    endloop
  endfacet
  facet normal 0 0 1
    outer loop
      vertex 2 99 34
      vertex 0 161 34
      vertex 2 98 34
    endloop
  endfacet
  facet normal 0 0 1
    outer loop
      vertex 2 98 34
      vertex 0 161 34
      vertex 2 68 34
    endloop
  endfacet
  facet normal 0 -0 1
    outer loop
      vertex 1 36 34
      vertex 2 68 34
      vertex 0 161 34
    endloop
  endfacet
  facet normal 0 0 1
    outer loop
      vertex 2 68 34
      vertex 1 36 34
      vertex 2 67 34
    endloop
  endfacet
  facet normal 0 0 1
    outer loop
      vertex 0 0 34
      vertex 1 36 34
      vertex 0 161 34
    endloop
  endfacet
  facet normal 0 0 1
    outer loop
      vertex 2 67 34
      vertex 1 36 34
      vertex 2 37 34
    endloop
  endfacet
  facet normal 0 0 1
    outer loop
      vertex 37 160 34
      vertex 0 161 34
      vertex 2 160 34
    endloop
  endfacet
  facet normal 0 0 1
    outer loop
      vertex 175.5 140 34
      vertex 176.5 161 34
      vertex 175.5 141 34
    endloop
  endfacet
  facet normal 0 0 1
    outer loop
      vertex 175.5 121 34
      vertex 176.5 161 34
      vertex 175.5 140 34
    endloop
  endfacet
  facet normal 0 0 1
    outer loop
      vertex 175.5 120 34
      vertex 176.5 161 34
      vertex 175.5 121 34
    endloop
  endfacet
  facet normal 0 0 1
    outer loop
      vertex 175.5 101 34
      vertex 176.5 161 34
      vertex 175.5 120 34
    endloop
  endfacet
  facet normal 0 0 1
    outer loop
      vertex 176.5 161 34
      vertex 175.5 101 34
      vertex 176.5 0 34
    endloop
  endfacet
  facet normal -0 0 1
    outer loop
      vertex 175.5 100 34
      vertex 176.5 0 34
      vertex 175.5 101 34
    endloop
  endfacet
  facet normal -0 0 1
    outer loop
      vertex 175.5 81 34
      vertex 176.5 0 34
      vertex 175.5 100 34
    endloop
  endfacet
  facet normal -0 0 1
    outer loop
      vertex 175.5 80 34
      vertex 176.5 0 34
      vertex 175.5 81 34
    endloop
  endfacet
  facet normal -0 0 1
    outer loop
      vertex 175.5 61 34
      vertex 176.5 0 34
      vertex 175.5 80 34
    endloop
  endfacet
  facet normal -0 0 1
    outer loop
      vertex 175.5 60 34
      vertex 176.5 0 34
      vertex 175.5 61 34
    endloop
  endfacet
  facet normal -0 0 1
    outer loop
      vertex 175.5 41 34
      vertex 176.5 0 34
      vertex 175.5 60 34
    endloop
  endfacet
  facet normal -0 0 1
    outer loop
      vertex 175.5 40 34
      vertex 176.5 0 34
      vertex 175.5 41 34
    endloop
  endfacet
  facet normal -0 0 1
    outer loop
      vertex 175.5 21 34
      vertex 176.5 0 34
      vertex 175.5 40 34
    endloop
  endfacet
  facet normal -0 0 1
    outer loop
      vertex 175.5 20 34
      vertex 176.5 0 34
      vertex 175.5 21 34
    endloop
  endfacet
  facet normal -0 0 1
    outer loop
      vertex 175.5 1 34
      vertex 176.5 0 34
      vertex 175.5 20 34
    endloop
  endfacet
  facet normal -0 0 1
    outer loop
      vertex 145.5 1 34
      vertex 176.5 0 34
      vertex 175.5 1 34
    endloop
  endfacet
  facet normal 0 0 1
    outer loop
      vertex 145 57 34
      vertex 145.5 60 34
      vertex 145 58 34
    endloop
  endfacet
  facet normal 0 0 1
    outer loop
      vertex 145.5 60 34
      vertex 145 57 34
      vertex 145.5 41 34
    endloop
  endfacet
  facet normal 0 0 1
    outer loop
      vertex 145 29.5 34
      vertex 145.5 41 34
      vertex 145 57 34
    endloop
  endfacet
  facet normal 0 0 1
    outer loop
      vertex 145.5 41 34
      vertex 145 29.5 34
      vertex 145.5 40 34
    endloop
  endfacet
  facet normal 0 0 1
    outer loop
      vertex 145.5 40 34
      vertex 145 29.5 34
      vertex 145.5 21 34
    endloop
  endfacet
  facet normal -0 0 1
    outer loop
      vertex 145 28.5 34
      vertex 145.5 21 34
      vertex 145 29.5 34
    endloop
  endfacet
  facet normal 0 0 1
    outer loop
      vertex 145.5 21 34
      vertex 145 28.5 34
      vertex 145.5 20 34
    endloop
  endfacet
  facet normal 0 0 1
    outer loop
      vertex 145 1 34
      vertex 145.5 20 34
      vertex 145 28.5 34
    endloop
  endfacet
  facet normal 0 0 1
    outer loop
      vertex 145.5 20 34
      vertex 145 1 34
      vertex 145.5 1 34
    endloop
  endfacet
  facet normal -0 0 1
    outer loop
      vertex 145 1 34
      vertex 176.5 0 34
      vertex 145.5 1 34
    endloop
  endfacet
  facet normal -0 0 1
    outer loop
      vertex 110.5 1 34
      vertex 176.5 0 34
      vertex 145 1 34
    endloop
  endfacet
  facet normal 0 0 1
    outer loop
      vertex 109.5 58 34
      vertex 110.5 58 34
      vertex 109.5 85.5 34
    endloop
  endfacet
  facet normal 0 0 1
    outer loop
      vertex 110.5 58 34
      vertex 109.5 58 34
      vertex 110.5 57 34
    endloop
  endfacet
  facet normal 0 0 1
    outer loop
      vertex 109.5 57 34
      vertex 110.5 57 34
      vertex 109.5 58 34
    endloop
  endfacet
  facet normal 0 0 1
    outer loop
      vertex 110.5 57 34
      vertex 109.5 57 34
      vertex 110.5 29.5 34
    endloop
  endfacet
  facet normal 0 0 1
    outer loop
      vertex 109.5 29.5 34
      vertex 110.5 29.5 34
      vertex 109.5 57 34
    endloop
  endfacet
  facet normal 0 0 1
    outer loop
      vertex 110.5 29.5 34
      vertex 109.5 29.5 34
      vertex 110.5 28.5 34
    endloop
  endfacet
  facet normal 0 0 1
    outer loop
      vertex 109.5 28.5 34
      vertex 110.5 28.5 34
      vertex 109.5 29.5 34
    endloop
  endfacet
  facet normal 0 0 1
    outer loop
      vertex 110.5 28.5 34
      vertex 109.5 28.5 34
      vertex 110.5 1 34
    endloop
  endfacet
  facet normal 0 0 1
    outer loop
      vertex 109.5 1 34
      vertex 110.5 1 34
      vertex 109.5 28.5 34
    endloop
  endfacet
  facet normal -0 0 1
    outer loop
      vertex 109.5 1 34
      vertex 176.5 0 34
      vertex 110.5 1 34
    endloop
  endfacet
  facet normal -0 0 1
    outer loop
      vertex 75 1 34
      vertex 176.5 0 34
      vertex 109.5 1 34
    endloop
  endfacet
  facet normal 0 0 1
    outer loop
      vertex 75 28.5 34
      vertex 74 1 34
      vertex 75 1 34
    endloop
  endfacet
  facet normal -0 0 1
    outer loop
      vertex 74 1 34
      vertex 176.5 0 34
      vertex 75 1 34
    endloop
  endfacet
  facet normal 0 0 1
    outer loop
      vertex 0 0 34
      vertex 74 1 34
      vertex 38 1 34
    endloop
  endfacet
  facet normal 0 0 1
    outer loop
      vertex 38 129 34
      vertex 37 130 34
      vertex 37 129 34
    endloop
  endfacet
  facet normal 0 0 1
    outer loop
      vertex 38 99 34
      vertex 37 99 34
      vertex 38 98 34
    endloop
  endfacet
  facet normal 0 0 1
    outer loop
      vertex 37 67 34
      vertex 38 67 34
      vertex 37 68 34
    endloop
  endfacet
  facet normal 0 0 1
    outer loop
      vertex 38 67 34
      vertex 37 67 34
      vertex 38 37 34
    endloop
  endfacet
  facet normal 0 0 1
    outer loop
      vertex 37 37 34
      vertex 38 37 34
      vertex 37 67 34
    endloop
  endfacet
  facet normal 0 0 1
    outer loop
      vertex 38 37 34
      vertex 37 37 34
      vertex 38 36 34
    endloop
  endfacet
  facet normal 0 0 1
    outer loop
      vertex 37 36 34
      vertex 38 36 34
      vertex 37 37 34
    endloop
  endfacet
  facet normal 0 0 1
    outer loop
      vertex 38 36 34
      vertex 37 36 34
      vertex 38 1 34
    endloop
  endfacet
  facet normal 0 0 1
    outer loop
      vertex 37 1 34
      vertex 38 1 34
      vertex 37 36 34
    endloop
  endfacet
  facet normal 0 0 1
    outer loop
      vertex 0 0 34
      vertex 38 1 34
      vertex 37 1 34
    endloop
  endfacet
  facet normal 0 0 1
    outer loop
      vertex 0 0 34
      vertex 37 1 34
      vertex 1 1 34
    endloop
  endfacet
  facet normal 0 0 1
    outer loop
      vertex 74 1 34
      vertex 0 0 34
      vertex 176.5 0 34
    endloop
  endfacet
  facet normal 0 0 1
    outer loop
      vertex 1 36 34
      vertex 0 0 34
      vertex 1 1 34
    endloop
  endfacet
  facet normal 0 0 1
    outer loop
      vertex 145.5 160 34
      vertex 144.5 143 34
      vertex 145 142.5 34
    endloop
  endfacet
  facet normal 0 0 1
    outer loop
      vertex 144.5 143 34
      vertex 110.5 142.5 34
      vertex 145 142.5 34
    endloop
  endfacet
  facet normal -0 0 1
    outer loop
      vertex 109.5 142.5 34
      vertex 110.5 115 34
      vertex 110.5 142.5 34
    endloop
  endfacet
  facet normal 0 0 1
    outer loop
      vertex 109.5 115 34
      vertex 110.5 115 34
      vertex 109.5 142.5 34
    endloop
  endfacet
  facet normal 0 0 1
    outer loop
      vertex 110.5 115 34
      vertex 109.5 115 34
      vertex 110.5 114 34
    endloop
  endfacet
  facet normal 0 0 1
    outer loop
      vertex 109.5 114 34
      vertex 110.5 114 34
      vertex 109.5 115 34
    endloop
  endfacet
  facet normal 0 0 1
    outer loop
      vertex 110.5 114 34
      vertex 109.5 114 34
      vertex 110.5 86.5 34
    endloop
  endfacet
  facet normal 0 0 1
    outer loop
      vertex 109.5 86.5 34
      vertex 110.5 86.5 34
      vertex 109.5 114 34
    endloop
  endfacet
  facet normal 0 0 1
    outer loop
      vertex 110.5 86.5 34
      vertex 109.5 86.5 34
      vertex 110.5 85.5 34
    endloop
  endfacet
  facet normal 0 0 1
    outer loop
      vertex 109.5 85.5 34
      vertex 110.5 85.5 34
      vertex 109.5 86.5 34
    endloop
  endfacet
  facet normal 0 0 1
    outer loop
      vertex 110.5 85.5 34
      vertex 109.5 85.5 34
      vertex 110.5 58 34
    endloop
  endfacet
  facet normal 0 0 1
    outer loop
      vertex 144.5 143 34
      vertex 109.5 142.5 34
      vertex 110.5 142.5 34
    endloop
  endfacet
  facet normal -0 0 1
    outer loop
      vertex 75 143 34
      vertex 109.5 142.5 34
      vertex 144.5 143 34
    endloop
  endfacet
  facet normal 0 0 1
    outer loop
      vertex 109.5 142.5 34
      vertex 75 143 34
      vertex 75 142.5 34
    endloop
  endfacet
  facet normal 0 0 1
    outer loop
      vertex 75 115 34
      vertex 73 129 34
      vertex 75 114 34
    endloop
  endfacet
  facet normal -0 0 1
    outer loop
      vertex 73 98 34
      vertex 75 86.5 34
      vertex 73 99 34
    endloop
  endfacet
  facet normal 0 0 1
    outer loop
      vertex 75 58 34
      vertex 73 67 34
      vertex 75 57 34
    endloop
  endfacet
  facet normal 0 0 1
    outer loop
      vertex 73 37 34
      vertex 75 57 34
      vertex 73 67 34
    endloop
  endfacet
  facet normal 0 0 1
    outer loop
      vertex 75 57 34
      vertex 74 36 34
      vertex 75 29.5 34
    endloop
  endfacet
  facet normal 0 0 1
    outer loop
      vertex 75 29.5 34
      vertex 74 36 34
      vertex 75 28.5 34
    endloop
  endfacet
  facet normal 0 0 1
    outer loop
      vertex 75 57 34
      vertex 73 37 34
      vertex 74 36 34
    endloop
  endfacet
  facet normal 0 0 1
    outer loop
      vertex 38 36 34
      vertex 73 37 34
      vertex 38 37 34
    endloop
  endfacet
  facet normal 0 0 1
    outer loop
      vertex 73 37 34
      vertex 38 36 34
      vertex 74 36 34
    endloop
  endfacet
  facet normal 1 -0 0
    outer loop
      vertex 176.5 0 34
      vertex 176.5 161 0
      vertex 176.5 161 34
    endloop
  endfacet
  facet normal 1 0 0
    outer loop
      vertex 176.5 161 0
      vertex 176.5 0 34
      vertex 176.5 0 0
    endloop
  endfacet
  facet normal 0 1 -0
    outer loop
      vertex 176.5 161 0
      vertex 0 161 34
      vertex 176.5 161 34
    endloop
  endfacet
  facet normal 0 1 0
    outer loop
      vertex 0 161 34
      vertex 176.5 161 0
      vertex 0 161 0
    endloop
  endfacet
  facet normal 0 0 -1
    outer loop
      vertex 0 0 0
      vertex 176.5 161 0
      vertex 176.5 0 0
    endloop
  endfacet
  facet normal -0 0 -1
    outer loop
      vertex 176.5 161 0
      vertex 0 0 0
      vertex 0 161 0
    endloop
  endfacet
  facet normal 0 -1 0
    outer loop
      vertex 0 0 0
      vertex 176.5 0 34
      vertex 0 0 34
    endloop
  endfacet
  facet normal 0 -1 -0
    outer loop
      vertex 176.5 0 34
      vertex 0 0 0
      vertex 176.5 0 0
    endloop
  endfacet
  facet normal 1 -0 0
    outer loop
      vertex 75 143 34
      vertex 75 159.5 1
      vertex 75 159.5 34
    endloop
  endfacet
  facet normal 1 0 0
    outer loop
      vertex 75 159.5 1
      vertex 75 143 34
      vertex 75 143 1
    endloop
  endfacet
  facet normal -1 0 0
    outer loop
      vertex 144.5 143 1
      vertex 144.5 159.5 34
      vertex 144.5 159.5 1
    endloop
  endfacet
  facet normal -1 -0 0
    outer loop
      vertex 144.5 159.5 34
      vertex 144.5 143 1
      vertex 144.5 143 34
    endloop
  endfacet
  facet normal 0 -1 0
    outer loop
      vertex 75 159.5 1
      vertex 144.5 159.5 34
      vertex 75 159.5 34
    endloop
  endfacet
  facet normal 0 -1 -0
    outer loop
      vertex 144.5 159.5 34
      vertex 75 159.5 1
      vertex 144.5 159.5 1
    endloop
  endfacet
  facet normal -0 0 1
    outer loop
      vertex 75 159.5 1
      vertex 144.5 143 1
      vertex 144.5 159.5 1
    endloop
  endfacet
  facet normal 0 0 1
    outer loop
      vertex 144.5 143 1
      vertex 75 159.5 1
      vertex 75 143 1
    endloop
  endfacet
  facet normal 0 1 -0
    outer loop
      vertex 144.5 143 1
      vertex 75 143 34
      vertex 144.5 143 34
    endloop
  endfacet
  facet normal 0 1 0
    outer loop
      vertex 75 143 34
      vertex 144.5 143 1
      vertex 75 143 1
    endloop
  endfacet
endsolid OpenSCAD_Model
