solid OpenSCAD_Model
  facet normal -0.904795 -0.425848 0
    outer loop
      vertex 38.3947 16.5522 0
      vertex 38.3145 16.7226 10
      vertex 38.3145 16.7226 0
    endloop
  endfacet
  facet normal -0.904795 -0.425848 0
    outer loop
      vertex 38.3145 16.7226 10
      vertex 38.3947 16.5522 0
      vertex 38.3947 16.5522 10
    endloop
  endfacet
  facet normal -0.982278 -0.187429 0
    outer loop
      vertex 38.4882 16.188 0
      vertex 38.4529 16.373 10
      vertex 38.4529 16.373 0
    endloop
  endfacet
  facet normal -0.982278 -0.187429 0
    outer loop
      vertex 38.4529 16.373 10
      vertex 38.4882 16.188 0
      vertex 38.4882 16.188 10
    endloop
  endfacet
  facet normal -0.998036 -0.0626427 0
    outer loop
      vertex 38.5 16 0
      vertex 38.4882 16.188 10
      vertex 38.4882 16.188 0
    endloop
  endfacet
  facet normal -0.998036 -0.0626427 0
    outer loop
      vertex 38.4882 16.188 10
      vertex 38.5 16 0
      vertex 38.5 16 10
    endloop
  endfacet
  facet normal -0.904795 0.425848 0
    outer loop
      vertex 38.3145 15.2774 0
      vertex 38.3947 15.4478 10
      vertex 38.3947 15.4478 0
    endloop
  endfacet
  facet normal -0.904795 0.425848 0
    outer loop
      vertex 38.3947 15.4478 10
      vertex 38.3145 15.2774 0
      vertex 38.3145 15.2774 10
    endloop
  endfacet
  facet normal 0.481715 -0.876328 0
    outer loop
      vertex 36.1963 17.2665 0
      vertex 36.3613 17.3572 10
      vertex 36.1963 17.2665 10
    endloop
  endfacet
  facet normal 0.481715 -0.876328 0
    outer loop
      vertex 36.3613 17.3572 10
      vertex 36.1963 17.2665 0
      vertex 36.3613 17.3572 0
    endloop
  endfacet
  facet normal 0.368278 -0.929716 0
    outer loop
      vertex 36.3613 17.3572 0
      vertex 36.5365 17.4266 10
      vertex 36.3613 17.3572 10
    endloop
  endfacet
  facet normal 0.368278 -0.929716 0
    outer loop
      vertex 36.5365 17.4266 10
      vertex 36.3613 17.3572 0
      vertex 36.5365 17.4266 0
    endloop
  endfacet
  facet normal -0.248529 0.968625 0
    outer loop
      vertex 37.4635 14.5734 0
      vertex 37.2811 14.5266 10
      vertex 37.4635 14.5734 10
    endloop
  endfacet
  facet normal -0.248529 0.968625 0
    outer loop
      vertex 37.2811 14.5266 10
      vertex 37.4635 14.5734 0
      vertex 37.2811 14.5266 0
    endloop
  endfacet
  facet normal 0.982278 0.187429 0
    outer loop
      vertex 35.5471 15.627 10
      vertex 35.5118 15.812 0
      vertex 35.5118 15.812 10
    endloop
  endfacet
  facet normal 0.982278 0.187429 0
    outer loop
      vertex 35.5118 15.812 0
      vertex 35.5471 15.627 10
      vertex 35.5471 15.627 0
    endloop
  endfacet
  facet normal -0.844251 -0.535948 0
    outer loop
      vertex 38.3145 16.7226 0
      vertex 38.2135 16.8817 10
      vertex 38.2135 16.8817 0
    endloop
  endfacet
  facet normal -0.844251 -0.535948 0
    outer loop
      vertex 38.2135 16.8817 10
      vertex 38.3145 16.7226 0
      vertex 38.3145 16.7226 10
    endloop
  endfacet
  facet normal 0.125276 -0.992122 0
    outer loop
      vertex 36.7189 17.4734 0
      vertex 36.9058 17.497 10
      vertex 36.7189 17.4734 10
    endloop
  endfacet
  facet normal 0.125276 -0.992122 0
    outer loop
      vertex 36.9058 17.497 10
      vertex 36.7189 17.4734 0
      vertex 36.9058 17.497 0
    endloop
  endfacet
  facet normal 0.844251 0.535948 0
    outer loop
      vertex 35.7865 15.1183 10
      vertex 35.6855 15.2774 0
      vertex 35.6855 15.2774 10
    endloop
  endfacet
  facet normal 0.844251 0.535948 0
    outer loop
      vertex 35.6855 15.2774 0
      vertex 35.7865 15.1183 10
      vertex 35.7865 15.1183 0
    endloop
  endfacet
  facet normal -0.481715 0.876328 0
    outer loop
      vertex 37.8037 14.7335 0
      vertex 37.6387 14.6428 10
      vertex 37.8037 14.7335 10
    endloop
  endfacet
  facet normal -0.481715 0.876328 0
    outer loop
      vertex 37.6387 14.6428 10
      vertex 37.8037 14.7335 0
      vertex 37.6387 14.6428 0
    endloop
  endfacet
  facet normal 0.998036 0.0626427 0
    outer loop
      vertex 35.5118 15.812 10
      vertex 35.5 16 0
      vertex 35.5 16 10
    endloop
  endfacet
  facet normal 0.998036 0.0626427 0
    outer loop
      vertex 35.5 16 0
      vertex 35.5118 15.812 10
      vertex 35.5118 15.812 0
    endloop
  endfacet
  facet normal -0.248529 -0.968625 0
    outer loop
      vertex 37.2811 17.4734 0
      vertex 37.4635 17.4266 10
      vertex 37.2811 17.4734 10
    endloop
  endfacet
  facet normal -0.248529 -0.968625 -0
    outer loop
      vertex 37.4635 17.4266 10
      vertex 37.2811 17.4734 0
      vertex 37.4635 17.4266 0
    endloop
  endfacet
  facet normal 0.587698 -0.80908 0
    outer loop
      vertex 36.0439 17.1558 0
      vertex 36.1963 17.2665 10
      vertex 36.0439 17.1558 10
    endloop
  endfacet
  facet normal 0.587698 -0.80908 0
    outer loop
      vertex 36.1963 17.2665 10
      vertex 36.0439 17.1558 0
      vertex 36.1963 17.2665 0
    endloop
  endfacet
  facet normal 0.982278 -0.187429 0
    outer loop
      vertex 35.5118 16.188 10
      vertex 35.5471 16.373 0
      vertex 35.5471 16.373 10
    endloop
  endfacet
  facet normal 0.982278 -0.187429 0
    outer loop
      vertex 35.5471 16.373 0
      vertex 35.5118 16.188 10
      vertex 35.5118 16.188 0
    endloop
  endfacet
  facet normal 0.125276 0.992122 -0
    outer loop
      vertex 36.9058 14.503 0
      vertex 36.7189 14.5266 10
      vertex 36.9058 14.503 10
    endloop
  endfacet
  facet normal 0.125276 0.992122 0
    outer loop
      vertex 36.7189 14.5266 10
      vertex 36.9058 14.503 0
      vertex 36.7189 14.5266 0
    endloop
  endfacet
  facet normal -0.125276 -0.992122 0
    outer loop
      vertex 37.0942 17.497 0
      vertex 37.2811 17.4734 10
      vertex 37.0942 17.497 10
    endloop
  endfacet
  facet normal -0.125276 -0.992122 -0
    outer loop
      vertex 37.2811 17.4734 10
      vertex 37.0942 17.497 0
      vertex 37.2811 17.4734 0
    endloop
  endfacet
  facet normal 0.68447 0.729041 -0
    outer loop
      vertex 36.0439 14.8442 0
      vertex 35.9065 14.9732 10
      vertex 36.0439 14.8442 10
    endloop
  endfacet
  facet normal 0.68447 0.729041 0
    outer loop
      vertex 35.9065 14.9732 10
      vertex 36.0439 14.8442 0
      vertex 35.9065 14.9732 0
    endloop
  endfacet
  facet normal -0.481715 -0.876328 0
    outer loop
      vertex 37.6387 17.3572 0
      vertex 37.8037 17.2665 10
      vertex 37.6387 17.3572 10
    endloop
  endfacet
  facet normal -0.481715 -0.876328 -0
    outer loop
      vertex 37.8037 17.2665 10
      vertex 37.6387 17.3572 0
      vertex 37.8037 17.2665 0
    endloop
  endfacet
  facet normal -0.68447 -0.729041 0
    outer loop
      vertex 37.9561 17.1558 0
      vertex 38.0935 17.0268 10
      vertex 37.9561 17.1558 10
    endloop
  endfacet
  facet normal -0.68447 -0.729041 -0
    outer loop
      vertex 38.0935 17.0268 10
      vertex 37.9561 17.1558 0
      vertex 38.0935 17.0268 0
    endloop
  endfacet
  facet normal 0 0 -1
    outer loop
      vertex 44.4882 12.688 0
      vertex 65 10 0
      vertex 44.5 12.5 0
    endloop
  endfacet
  facet normal 0 0 -1
    outer loop
      vertex 65 10 0
      vertex 44.4882 12.312 0
      vertex 44.5 12.5 0
    endloop
  endfacet
  facet normal 0 0 -1
    outer loop
      vertex 65 10 0
      vertex 44.4529 12.127 0
      vertex 44.4882 12.312 0
    endloop
  endfacet
  facet normal 0 0 -1
    outer loop
      vertex 65 10 0
      vertex 44.3947 11.9478 0
      vertex 44.4529 12.127 0
    endloop
  endfacet
  facet normal 0 0 -1
    outer loop
      vertex 65 10 0
      vertex 44.3145 11.7774 0
      vertex 44.3947 11.9478 0
    endloop
  endfacet
  facet normal 0 0 -1
    outer loop
      vertex 65 10 0
      vertex 44.2135 11.6183 0
      vertex 44.3145 11.7774 0
    endloop
  endfacet
  facet normal 0 0 -1
    outer loop
      vertex 65 10 0
      vertex 44.0935 11.4732 0
      vertex 44.2135 11.6183 0
    endloop
  endfacet
  facet normal 0 0 -1
    outer loop
      vertex 65 10 0
      vertex 43.9561 11.3442 0
      vertex 44.0935 11.4732 0
    endloop
  endfacet
  facet normal 0 0 -1
    outer loop
      vertex 65 10 0
      vertex 43.8037 11.2335 0
      vertex 43.9561 11.3442 0
    endloop
  endfacet
  facet normal 0 0 -1
    outer loop
      vertex 65 10 0
      vertex 43.6387 11.1428 0
      vertex 43.8037 11.2335 0
    endloop
  endfacet
  facet normal 0 0 -1
    outer loop
      vertex 65 10 0
      vertex 43.4635 11.0734 0
      vertex 43.6387 11.1428 0
    endloop
  endfacet
  facet normal 0 0 -1
    outer loop
      vertex 65 10 0
      vertex 43.2811 11.0266 0
      vertex 43.4635 11.0734 0
    endloop
  endfacet
  facet normal 0 0 -1
    outer loop
      vertex 65 10 0
      vertex 43.0942 11.003 0
      vertex 43.2811 11.0266 0
    endloop
  endfacet
  facet normal 0 0 -1
    outer loop
      vertex 65 10 0
      vertex 42.9058 11.003 0
      vertex 43.0942 11.003 0
    endloop
  endfacet
  facet normal 0 0 -1
    outer loop
      vertex 37.6387 14.6428 0
      vertex 41.5 12.5 0
      vertex 41.5118 12.312 0
    endloop
  endfacet
  facet normal 0 0 -1
    outer loop
      vertex 37.4635 14.5734 0
      vertex 41.5118 12.312 0
      vertex 41.5471 12.127 0
    endloop
  endfacet
  facet normal 0 0 -1
    outer loop
      vertex 37.2811 14.5266 0
      vertex 41.5471 12.127 0
      vertex 41.6053 11.9478 0
    endloop
  endfacet
  facet normal 0 0 -1
    outer loop
      vertex 37.0942 14.503 0
      vertex 41.6053 11.9478 0
      vertex 41.6855 11.7774 0
    endloop
  endfacet
  facet normal 0 0 -1
    outer loop
      vertex 36.9058 14.503 0
      vertex 41.6855 11.7774 0
      vertex 41.7865 11.6183 0
    endloop
  endfacet
  facet normal 0 0 -1
    outer loop
      vertex 41.5 12.5 0
      vertex 38.4882 15.812 0
      vertex 38.5 16 0
    endloop
  endfacet
  facet normal 0 0 -1
    outer loop
      vertex 41.5 12.5 0
      vertex 38.4529 15.627 0
      vertex 38.4882 15.812 0
    endloop
  endfacet
  facet normal 0 0 -1
    outer loop
      vertex 36.7189 14.5266 0
      vertex 41.7865 11.6183 0
      vertex 41.9065 11.4732 0
    endloop
  endfacet
  facet normal 0 0 -1
    outer loop
      vertex 41.5 12.5 0
      vertex 38.3947 15.4478 0
      vertex 38.4529 15.627 0
    endloop
  endfacet
  facet normal 0 0 -1
    outer loop
      vertex 41.5 12.5 0
      vertex 38.3145 15.2774 0
      vertex 38.3947 15.4478 0
    endloop
  endfacet
  facet normal 0 0 -1
    outer loop
      vertex 41.5 12.5 0
      vertex 38.2135 15.1183 0
      vertex 38.3145 15.2774 0
    endloop
  endfacet
  facet normal 0 0 -1
    outer loop
      vertex 41.5 12.5 0
      vertex 38.0935 14.9732 0
      vertex 38.2135 15.1183 0
    endloop
  endfacet
  facet normal 0 0 -1
    outer loop
      vertex 36.5365 14.5734 0
      vertex 41.9065 11.4732 0
      vertex 42.0439 11.3442 0
    endloop
  endfacet
  facet normal 0 0 -1
    outer loop
      vertex 41.5 12.5 0
      vertex 37.9561 14.8442 0
      vertex 38.0935 14.9732 0
    endloop
  endfacet
  facet normal 0 0 -1
    outer loop
      vertex 41.5 12.5 0
      vertex 37.8037 14.7335 0
      vertex 37.9561 14.8442 0
    endloop
  endfacet
  facet normal 0 0 -1
    outer loop
      vertex 41.5 12.5 0
      vertex 37.6387 14.6428 0
      vertex 37.8037 14.7335 0
    endloop
  endfacet
  facet normal 0 0 -1
    outer loop
      vertex 41.5118 12.312 0
      vertex 37.4635 14.5734 0
      vertex 37.6387 14.6428 0
    endloop
  endfacet
  facet normal 0 0 -1
    outer loop
      vertex 36.3613 14.6428 0
      vertex 42.0439 11.3442 0
      vertex 42.1963 11.2335 0
    endloop
  endfacet
  facet normal 0 0 -1
    outer loop
      vertex 41.5471 12.127 0
      vertex 37.2811 14.5266 0
      vertex 37.4635 14.5734 0
    endloop
  endfacet
  facet normal 0 0 -1
    outer loop
      vertex 41.6053 11.9478 0
      vertex 37.0942 14.503 0
      vertex 37.2811 14.5266 0
    endloop
  endfacet
  facet normal 0 0 -1
    outer loop
      vertex 41.6855 11.7774 0
      vertex 36.9058 14.503 0
      vertex 37.0942 14.503 0
    endloop
  endfacet
  facet normal 0 0 -1
    outer loop
      vertex 41.7865 11.6183 0
      vertex 36.7189 14.5266 0
      vertex 36.9058 14.503 0
    endloop
  endfacet
  facet normal 0 0 -1
    outer loop
      vertex 41.9065 11.4732 0
      vertex 36.5365 14.5734 0
      vertex 36.7189 14.5266 0
    endloop
  endfacet
  facet normal 0 0 -1
    outer loop
      vertex 42.0439 11.3442 0
      vertex 36.3613 14.6428 0
      vertex 36.5365 14.5734 0
    endloop
  endfacet
  facet normal 0 0 -1
    outer loop
      vertex 0 10 0
      vertex 36.3613 14.6428 0
      vertex 42.1963 11.2335 0
    endloop
  endfacet
  facet normal -0 0 -1
    outer loop
      vertex 35.5118 15.812 0
      vertex 0 10 0
      vertex 35.5 16 0
    endloop
  endfacet
  facet normal -0 0 -1
    outer loop
      vertex 35.5471 15.627 0
      vertex 0 10 0
      vertex 35.5118 15.812 0
    endloop
  endfacet
  facet normal -0 0 -1
    outer loop
      vertex 35.6053 15.4478 0
      vertex 0 10 0
      vertex 35.5471 15.627 0
    endloop
  endfacet
  facet normal -0 0 -1
    outer loop
      vertex 35.6855 15.2774 0
      vertex 0 10 0
      vertex 35.6053 15.4478 0
    endloop
  endfacet
  facet normal -0 0 -1
    outer loop
      vertex 35.7865 15.1183 0
      vertex 0 10 0
      vertex 35.6855 15.2774 0
    endloop
  endfacet
  facet normal -0 0 -1
    outer loop
      vertex 35.9065 14.9732 0
      vertex 0 10 0
      vertex 35.7865 15.1183 0
    endloop
  endfacet
  facet normal -0 0 -1
    outer loop
      vertex 36.0439 14.8442 0
      vertex 0 10 0
      vertex 35.9065 14.9732 0
    endloop
  endfacet
  facet normal -0 0 -1
    outer loop
      vertex 36.1963 14.7335 0
      vertex 0 10 0
      vertex 36.0439 14.8442 0
    endloop
  endfacet
  facet normal -0 0 -1
    outer loop
      vertex 36.3613 14.6428 0
      vertex 0 10 0
      vertex 36.1963 14.7335 0
    endloop
  endfacet
  facet normal -0 0 -1
    outer loop
      vertex 42.3613 11.1428 0
      vertex 0 10 0
      vertex 42.1963 11.2335 0
    endloop
  endfacet
  facet normal -0 0 -1
    outer loop
      vertex 42.5365 11.0734 0
      vertex 0 10 0
      vertex 42.3613 11.1428 0
    endloop
  endfacet
  facet normal -0 0 -1
    outer loop
      vertex 42.7189 11.0266 0
      vertex 0 10 0
      vertex 42.5365 11.0734 0
    endloop
  endfacet
  facet normal -0 0 -1
    outer loop
      vertex 42.9058 11.003 0
      vertex 0 10 0
      vertex 42.7189 11.0266 0
    endloop
  endfacet
  facet normal 0 0 -1
    outer loop
      vertex 0 10 0
      vertex 42.9058 11.003 0
      vertex 65 10 0
    endloop
  endfacet
  facet normal 0 0 -1
    outer loop
      vertex 44.4529 12.873 0
      vertex 65 10 0
      vertex 44.4882 12.688 0
    endloop
  endfacet
  facet normal 0 0 -1
    outer loop
      vertex 44.3947 13.0522 0
      vertex 65 10 0
      vertex 44.4529 12.873 0
    endloop
  endfacet
  facet normal 0 0 -1
    outer loop
      vertex 44.3145 13.2226 0
      vertex 65 10 0
      vertex 44.3947 13.0522 0
    endloop
  endfacet
  facet normal 0 0 -1
    outer loop
      vertex 44.2135 13.3817 0
      vertex 65 10 0
      vertex 44.3145 13.2226 0
    endloop
  endfacet
  facet normal 0 0 -1
    outer loop
      vertex 65 10 0
      vertex 44.2135 13.3817 0
      vertex 65 36 0
    endloop
  endfacet
  facet normal 0 0 -1
    outer loop
      vertex 44.0935 13.5268 0
      vertex 65 36 0
      vertex 44.2135 13.3817 0
    endloop
  endfacet
  facet normal 0 0 -1
    outer loop
      vertex 43.9561 13.6558 0
      vertex 65 36 0
      vertex 44.0935 13.5268 0
    endloop
  endfacet
  facet normal 0 0 -1
    outer loop
      vertex 43.8037 13.7665 0
      vertex 65 36 0
      vertex 43.9561 13.6558 0
    endloop
  endfacet
  facet normal 0 0 -1
    outer loop
      vertex 43.6387 13.8572 0
      vertex 65 36 0
      vertex 43.8037 13.7665 0
    endloop
  endfacet
  facet normal 0 0 -1
    outer loop
      vertex 43.4635 13.9266 0
      vertex 65 36 0
      vertex 43.6387 13.8572 0
    endloop
  endfacet
  facet normal 0 0 -1
    outer loop
      vertex 38.0935 17.0268 0
      vertex 43.4635 13.9266 0
      vertex 43.2811 13.9734 0
    endloop
  endfacet
  facet normal 0 0 -1
    outer loop
      vertex 38.2135 16.8817 0
      vertex 43.2811 13.9734 0
      vertex 43.0942 13.997 0
    endloop
  endfacet
  facet normal 0 0 -1
    outer loop
      vertex 38.3145 16.7226 0
      vertex 43.0942 13.997 0
      vertex 42.9058 13.997 0
    endloop
  endfacet
  facet normal 0 0 -1
    outer loop
      vertex 38.3947 16.5522 0
      vertex 42.9058 13.997 0
      vertex 42.7189 13.9734 0
    endloop
  endfacet
  facet normal 0 0 -1
    outer loop
      vertex 38.4529 16.373 0
      vertex 42.7189 13.9734 0
      vertex 42.5365 13.9266 0
    endloop
  endfacet
  facet normal 0 0 -1
    outer loop
      vertex 38.4882 16.188 0
      vertex 42.5365 13.9266 0
      vertex 42.3613 13.8572 0
    endloop
  endfacet
  facet normal 0 0 -1
    outer loop
      vertex 38.5 16 0
      vertex 42.3613 13.8572 0
      vertex 42.1963 13.7665 0
    endloop
  endfacet
  facet normal 0 0 -1
    outer loop
      vertex 38.5 16 0
      vertex 42.1963 13.7665 0
      vertex 42.0439 13.6558 0
    endloop
  endfacet
  facet normal 0 0 -1
    outer loop
      vertex 38.5 16 0
      vertex 42.0439 13.6558 0
      vertex 41.9065 13.5268 0
    endloop
  endfacet
  facet normal 0 0 -1
    outer loop
      vertex 38.5 16 0
      vertex 41.5118 12.688 0
      vertex 41.5 12.5 0
    endloop
  endfacet
  facet normal 0 0 -1
    outer loop
      vertex 38.5 16 0
      vertex 41.5471 12.873 0
      vertex 41.5118 12.688 0
    endloop
  endfacet
  facet normal 0 0 -1
    outer loop
      vertex 38.5 16 0
      vertex 41.6053 13.0522 0
      vertex 41.5471 12.873 0
    endloop
  endfacet
  facet normal 0 0 -1
    outer loop
      vertex 38.5 16 0
      vertex 41.6855 13.2226 0
      vertex 41.6053 13.0522 0
    endloop
  endfacet
  facet normal 0 0 -1
    outer loop
      vertex 38.5 16 0
      vertex 41.7865 13.3817 0
      vertex 41.6855 13.2226 0
    endloop
  endfacet
  facet normal 0 0 -1
    outer loop
      vertex 38.5 16 0
      vertex 41.9065 13.5268 0
      vertex 41.7865 13.3817 0
    endloop
  endfacet
  facet normal 0 0 -1
    outer loop
      vertex 42.3613 13.8572 0
      vertex 38.5 16 0
      vertex 38.4882 16.188 0
    endloop
  endfacet
  facet normal 0 0 -1
    outer loop
      vertex 42.5365 13.9266 0
      vertex 38.4882 16.188 0
      vertex 38.4529 16.373 0
    endloop
  endfacet
  facet normal 0 0 -1
    outer loop
      vertex 42.7189 13.9734 0
      vertex 38.4529 16.373 0
      vertex 38.3947 16.5522 0
    endloop
  endfacet
  facet normal 0 0 -1
    outer loop
      vertex 42.9058 13.997 0
      vertex 38.3947 16.5522 0
      vertex 38.3145 16.7226 0
    endloop
  endfacet
  facet normal 0 0 -1
    outer loop
      vertex 43.0942 13.997 0
      vertex 38.3145 16.7226 0
      vertex 38.2135 16.8817 0
    endloop
  endfacet
  facet normal 0 0 -1
    outer loop
      vertex 43.2811 13.9734 0
      vertex 38.2135 16.8817 0
      vertex 38.0935 17.0268 0
    endloop
  endfacet
  facet normal 0 0 -1
    outer loop
      vertex 43.4635 13.9266 0
      vertex 38.0935 17.0268 0
      vertex 37.9561 17.1558 0
    endloop
  endfacet
  facet normal 0 0 -1
    outer loop
      vertex 43.4635 13.9266 0
      vertex 37.9561 17.1558 0
      vertex 65 36 0
    endloop
  endfacet
  facet normal 0 0 -1
    outer loop
      vertex 37.8037 17.2665 0
      vertex 65 36 0
      vertex 37.9561 17.1558 0
    endloop
  endfacet
  facet normal 0 0 -1
    outer loop
      vertex 37.6387 17.3572 0
      vertex 65 36 0
      vertex 37.8037 17.2665 0
    endloop
  endfacet
  facet normal 0 0 -1
    outer loop
      vertex 37.4635 17.4266 0
      vertex 65 36 0
      vertex 37.6387 17.3572 0
    endloop
  endfacet
  facet normal 0 0 -1
    outer loop
      vertex 37.2811 17.4734 0
      vertex 65 36 0
      vertex 37.4635 17.4266 0
    endloop
  endfacet
  facet normal 0 0 -1
    outer loop
      vertex 37.0942 17.497 0
      vertex 65 36 0
      vertex 37.2811 17.4734 0
    endloop
  endfacet
  facet normal 0 0 -1
    outer loop
      vertex 36.9058 17.497 0
      vertex 65 36 0
      vertex 37.0942 17.497 0
    endloop
  endfacet
  facet normal 0 0 -1
    outer loop
      vertex 0 36 0
      vertex 36.9058 17.497 0
      vertex 36.7189 17.4734 0
    endloop
  endfacet
  facet normal 0 0 -1
    outer loop
      vertex 0 36 0
      vertex 36.7189 17.4734 0
      vertex 36.5365 17.4266 0
    endloop
  endfacet
  facet normal 0 0 -1
    outer loop
      vertex 0 36 0
      vertex 36.5365 17.4266 0
      vertex 36.3613 17.3572 0
    endloop
  endfacet
  facet normal 0 0 -1
    outer loop
      vertex 0 36 0
      vertex 36.3613 17.3572 0
      vertex 36.1963 17.2665 0
    endloop
  endfacet
  facet normal 0 0 -1
    outer loop
      vertex 0 10 0
      vertex 35.5118 16.188 0
      vertex 35.5 16 0
    endloop
  endfacet
  facet normal 0 0 -1
    outer loop
      vertex 0 10 0
      vertex 35.5471 16.373 0
      vertex 35.5118 16.188 0
    endloop
  endfacet
  facet normal 0 0 -1
    outer loop
      vertex 0 10 0
      vertex 35.6053 16.5522 0
      vertex 35.5471 16.373 0
    endloop
  endfacet
  facet normal 0 0 -1
    outer loop
      vertex 0 36 0
      vertex 35.6053 16.5522 0
      vertex 0 10 0
    endloop
  endfacet
  facet normal 0 0 -1
    outer loop
      vertex 35.6053 16.5522 0
      vertex 0 36 0
      vertex 35.6855 16.7226 0
    endloop
  endfacet
  facet normal 0 0 -1
    outer loop
      vertex 35.6855 16.7226 0
      vertex 0 36 0
      vertex 35.7865 16.8817 0
    endloop
  endfacet
  facet normal 0 0 -1
    outer loop
      vertex 35.7865 16.8817 0
      vertex 0 36 0
      vertex 35.9065 17.0268 0
    endloop
  endfacet
  facet normal 0 0 -1
    outer loop
      vertex 35.9065 17.0268 0
      vertex 0 36 0
      vertex 36.0439 17.1558 0
    endloop
  endfacet
  facet normal 0 0 -1
    outer loop
      vertex 36.0439 17.1558 0
      vertex 0 36 0
      vertex 36.1963 17.2665 0
    endloop
  endfacet
  facet normal 0 0 -1
    outer loop
      vertex 36.9058 17.497 0
      vertex 0 36 0
      vertex 65 36 0
    endloop
  endfacet
  facet normal -0.68447 0.729041 0
    outer loop
      vertex 38.0935 14.9732 0
      vertex 37.9561 14.8442 10
      vertex 38.0935 14.9732 10
    endloop
  endfacet
  facet normal -0.68447 0.729041 0
    outer loop
      vertex 37.9561 14.8442 10
      vertex 38.0935 14.9732 0
      vertex 37.9561 14.8442 0
    endloop
  endfacet
  facet normal 0.587698 0.80908 -0
    outer loop
      vertex 36.1963 14.7335 0
      vertex 36.0439 14.8442 10
      vertex 36.1963 14.7335 10
    endloop
  endfacet
  facet normal 0.587698 0.80908 0
    outer loop
      vertex 36.0439 14.8442 10
      vertex 36.1963 14.7335 0
      vertex 36.0439 14.8442 0
    endloop
  endfacet
  facet normal 0.248529 0.968625 -0
    outer loop
      vertex 36.7189 14.5266 0
      vertex 36.5365 14.5734 10
      vertex 36.7189 14.5266 10
    endloop
  endfacet
  facet normal 0.248529 0.968625 0
    outer loop
      vertex 36.5365 14.5734 10
      vertex 36.7189 14.5266 0
      vertex 36.5365 14.5734 0
    endloop
  endfacet
  facet normal -0.982278 0.187429 0
    outer loop
      vertex 38.4529 15.627 0
      vertex 38.4882 15.812 10
      vertex 38.4882 15.812 0
    endloop
  endfacet
  facet normal -0.982278 0.187429 0
    outer loop
      vertex 38.4882 15.812 10
      vertex 38.4529 15.627 0
      vertex 38.4529 15.627 10
    endloop
  endfacet
  facet normal 0.951096 -0.308894 0
    outer loop
      vertex 35.5471 16.373 10
      vertex 35.6053 16.5522 0
      vertex 35.6053 16.5522 10
    endloop
  endfacet
  facet normal 0.951096 -0.308894 0
    outer loop
      vertex 35.6053 16.5522 0
      vertex 35.5471 16.373 10
      vertex 35.5471 16.373 0
    endloop
  endfacet
  facet normal 0.481715 0.876328 -0
    outer loop
      vertex 36.3613 14.6428 0
      vertex 36.1963 14.7335 10
      vertex 36.3613 14.6428 10
    endloop
  endfacet
  facet normal 0.481715 0.876328 0
    outer loop
      vertex 36.1963 14.7335 10
      vertex 36.3613 14.6428 0
      vertex 36.1963 14.7335 0
    endloop
  endfacet
  facet normal -0.125276 0.992122 0
    outer loop
      vertex 37.2811 14.5266 0
      vertex 37.0942 14.503 10
      vertex 37.2811 14.5266 10
    endloop
  endfacet
  facet normal -0.125276 0.992122 0
    outer loop
      vertex 37.0942 14.503 10
      vertex 37.2811 14.5266 0
      vertex 37.0942 14.503 0
    endloop
  endfacet
  facet normal 0.248529 -0.968625 0
    outer loop
      vertex 36.5365 17.4266 0
      vertex 36.7189 17.4734 10
      vertex 36.5365 17.4266 10
    endloop
  endfacet
  facet normal 0.248529 -0.968625 0
    outer loop
      vertex 36.7189 17.4734 10
      vertex 36.5365 17.4266 0
      vertex 36.7189 17.4734 0
    endloop
  endfacet
  facet normal -0.77061 -0.637307 0
    outer loop
      vertex 38.2135 16.8817 0
      vertex 38.0935 17.0268 10
      vertex 38.0935 17.0268 0
    endloop
  endfacet
  facet normal -0.77061 -0.637307 0
    outer loop
      vertex 38.0935 17.0268 10
      vertex 38.2135 16.8817 0
      vertex 38.2135 16.8817 10
    endloop
  endfacet
  facet normal -0.77061 0.637307 0
    outer loop
      vertex 38.0935 14.9732 0
      vertex 38.2135 15.1183 10
      vertex 38.2135 15.1183 0
    endloop
  endfacet
  facet normal -0.77061 0.637307 0
    outer loop
      vertex 38.2135 15.1183 10
      vertex 38.0935 14.9732 0
      vertex 38.0935 14.9732 10
    endloop
  endfacet
  facet normal 0.904795 0.425848 0
    outer loop
      vertex 35.6855 15.2774 10
      vertex 35.6053 15.4478 0
      vertex 35.6053 15.4478 10
    endloop
  endfacet
  facet normal 0.904795 0.425848 0
    outer loop
      vertex 35.6053 15.4478 0
      vertex 35.6855 15.2774 10
      vertex 35.6855 15.2774 0
    endloop
  endfacet
  facet normal -0 0 1
    outer loop
      vertex 44.4529 12.873 10
      vertex 65 0 10
      vertex 65 36 10
    endloop
  endfacet
  facet normal 0 0 1
    outer loop
      vertex 65 0 10
      vertex 44.4882 12.688 10
      vertex 44.5 12.5 10
    endloop
  endfacet
  facet normal 0 0 1
    outer loop
      vertex 65 0 10
      vertex 44.4529 12.873 10
      vertex 44.4882 12.688 10
    endloop
  endfacet
  facet normal 0 0 1
    outer loop
      vertex 65 36 10
      vertex 44.3947 13.0522 10
      vertex 44.4529 12.873 10
    endloop
  endfacet
  facet normal 0 0 1
    outer loop
      vertex 65 36 10
      vertex 44.3145 13.2226 10
      vertex 44.3947 13.0522 10
    endloop
  endfacet
  facet normal 0 0 1
    outer loop
      vertex 65 36 10
      vertex 44.2135 13.3817 10
      vertex 44.3145 13.2226 10
    endloop
  endfacet
  facet normal 0 0 1
    outer loop
      vertex 65 36 10
      vertex 44.0935 13.5268 10
      vertex 44.2135 13.3817 10
    endloop
  endfacet
  facet normal 0 0 1
    outer loop
      vertex 65 36 10
      vertex 43.9561 13.6558 10
      vertex 44.0935 13.5268 10
    endloop
  endfacet
  facet normal 0 0 1
    outer loop
      vertex 65 36 10
      vertex 43.8037 13.7665 10
      vertex 43.9561 13.6558 10
    endloop
  endfacet
  facet normal 0 0 1
    outer loop
      vertex 65 36 10
      vertex 43.6387 13.8572 10
      vertex 43.8037 13.7665 10
    endloop
  endfacet
  facet normal 0 0 1
    outer loop
      vertex 65 36 10
      vertex 43.4635 13.9266 10
      vertex 43.6387 13.8572 10
    endloop
  endfacet
  facet normal -0 0 1
    outer loop
      vertex 37.9561 17.1558 10
      vertex 43.4635 13.9266 10
      vertex 65 36 10
    endloop
  endfacet
  facet normal -0 -0 1
    outer loop
      vertex 38.0935 17.0268 10
      vertex 43.4635 13.9266 10
      vertex 37.9561 17.1558 10
    endloop
  endfacet
  facet normal 0 0 1
    outer loop
      vertex 43.4635 13.9266 10
      vertex 38.0935 17.0268 10
      vertex 43.2811 13.9734 10
    endloop
  endfacet
  facet normal -0 -0 1
    outer loop
      vertex 38.2135 16.8817 10
      vertex 43.2811 13.9734 10
      vertex 38.0935 17.0268 10
    endloop
  endfacet
  facet normal -0 -0 1
    outer loop
      vertex 38.3145 16.7226 10
      vertex 43.0942 13.997 10
      vertex 38.2135 16.8817 10
    endloop
  endfacet
  facet normal 0 0 1
    outer loop
      vertex 43.0942 13.997 10
      vertex 38.3145 16.7226 10
      vertex 42.9058 13.997 10
    endloop
  endfacet
  facet normal -0 -0 1
    outer loop
      vertex 38.3947 16.5522 10
      vertex 42.9058 13.997 10
      vertex 38.3145 16.7226 10
    endloop
  endfacet
  facet normal 0 0 1
    outer loop
      vertex 42.9058 13.997 10
      vertex 38.3947 16.5522 10
      vertex 42.7189 13.9734 10
    endloop
  endfacet
  facet normal -0 -0 1
    outer loop
      vertex 38.4529 16.373 10
      vertex 42.7189 13.9734 10
      vertex 38.3947 16.5522 10
    endloop
  endfacet
  facet normal 0 0 1
    outer loop
      vertex 41.7865 13.3817 10
      vertex 38.3145 15.2774 10
      vertex 41.6855 13.2226 10
    endloop
  endfacet
  facet normal -0 0 1
    outer loop
      vertex 38.3145 15.2774 10
      vertex 41.7865 13.3817 10
      vertex 38.3947 15.4478 10
    endloop
  endfacet
  facet normal 0 0 1
    outer loop
      vertex 41.9065 13.5268 10
      vertex 38.3947 15.4478 10
      vertex 41.7865 13.3817 10
    endloop
  endfacet
  facet normal -0 0 1
    outer loop
      vertex 38.3947 15.4478 10
      vertex 41.9065 13.5268 10
      vertex 38.4529 15.627 10
    endloop
  endfacet
  facet normal 0 0 1
    outer loop
      vertex 42.0439 13.6558 10
      vertex 38.4529 15.627 10
      vertex 41.9065 13.5268 10
    endloop
  endfacet
  facet normal -0 0 1
    outer loop
      vertex 38.4529 15.627 10
      vertex 42.0439 13.6558 10
      vertex 38.4882 15.812 10
    endloop
  endfacet
  facet normal -0 -0 1
    outer loop
      vertex 38.4882 16.188 10
      vertex 42.5365 13.9266 10
      vertex 38.4529 16.373 10
    endloop
  endfacet
  facet normal 0 0 1
    outer loop
      vertex 42.1963 13.7665 10
      vertex 38.4882 15.812 10
      vertex 42.0439 13.6558 10
    endloop
  endfacet
  facet normal -0 0 1
    outer loop
      vertex 38.4882 15.812 10
      vertex 42.1963 13.7665 10
      vertex 38.5 16 10
    endloop
  endfacet
  facet normal 0 0 1
    outer loop
      vertex 42.3613 13.8572 10
      vertex 38.5 16 10
      vertex 42.1963 13.7665 10
    endloop
  endfacet
  facet normal -0 -0 1
    outer loop
      vertex 38.5 16 10
      vertex 42.3613 13.8572 10
      vertex 38.4882 16.188 10
    endloop
  endfacet
  facet normal 0 0 1
    outer loop
      vertex 42.5365 13.9266 10
      vertex 38.4882 16.188 10
      vertex 42.3613 13.8572 10
    endloop
  endfacet
  facet normal 0 0 1
    outer loop
      vertex 42.7189 13.9734 10
      vertex 38.4529 16.373 10
      vertex 42.5365 13.9266 10
    endloop
  endfacet
  facet normal 0 0 1
    outer loop
      vertex 43.2811 13.9734 10
      vertex 38.2135 16.8817 10
      vertex 43.0942 13.997 10
    endloop
  endfacet
  facet normal 0 0 1
    outer loop
      vertex 65 36 10
      vertex 37.8037 17.2665 10
      vertex 37.9561 17.1558 10
    endloop
  endfacet
  facet normal 0 0 1
    outer loop
      vertex 65 36 10
      vertex 37.6387 17.3572 10
      vertex 37.8037 17.2665 10
    endloop
  endfacet
  facet normal 0 0 1
    outer loop
      vertex 65 36 10
      vertex 37.4635 17.4266 10
      vertex 37.6387 17.3572 10
    endloop
  endfacet
  facet normal 0 0 1
    outer loop
      vertex 65 36 10
      vertex 37.2811 17.4734 10
      vertex 37.4635 17.4266 10
    endloop
  endfacet
  facet normal 0 0 1
    outer loop
      vertex 65 36 10
      vertex 37.0942 17.497 10
      vertex 37.2811 17.4734 10
    endloop
  endfacet
  facet normal 0 0 1
    outer loop
      vertex 65 36 10
      vertex 36.9058 17.497 10
      vertex 37.0942 17.497 10
    endloop
  endfacet
  facet normal -0 0 1
    outer loop
      vertex 0 36 10
      vertex 36.9058 17.497 10
      vertex 65 36 10
    endloop
  endfacet
  facet normal 0 0 1
    outer loop
      vertex 36.9058 17.497 10
      vertex 0 36 10
      vertex 36.7189 17.4734 10
    endloop
  endfacet
  facet normal 0 0 1
    outer loop
      vertex 36.7189 17.4734 10
      vertex 0 36 10
      vertex 36.5365 17.4266 10
    endloop
  endfacet
  facet normal 0 0 1
    outer loop
      vertex 36.5365 17.4266 10
      vertex 0 36 10
      vertex 36.3613 17.3572 10
    endloop
  endfacet
  facet normal 0 0 1
    outer loop
      vertex 0 0 10
      vertex 35.5118 16.188 10
      vertex 0 36 10
    endloop
  endfacet
  facet normal 0 0 1
    outer loop
      vertex 35.5471 16.373 10
      vertex 0 36 10
      vertex 35.5118 16.188 10
    endloop
  endfacet
  facet normal 0 0 1
    outer loop
      vertex 35.6053 16.5522 10
      vertex 0 36 10
      vertex 35.5471 16.373 10
    endloop
  endfacet
  facet normal 0 0 1
    outer loop
      vertex 35.6855 16.7226 10
      vertex 0 36 10
      vertex 35.6053 16.5522 10
    endloop
  endfacet
  facet normal 0 0 1
    outer loop
      vertex 35.7865 16.8817 10
      vertex 0 36 10
      vertex 35.6855 16.7226 10
    endloop
  endfacet
  facet normal 0 0 1
    outer loop
      vertex 35.9065 17.0268 10
      vertex 0 36 10
      vertex 35.7865 16.8817 10
    endloop
  endfacet
  facet normal 0 0 1
    outer loop
      vertex 36.0439 17.1558 10
      vertex 0 36 10
      vertex 35.9065 17.0268 10
    endloop
  endfacet
  facet normal 0 0 1
    outer loop
      vertex 36.1963 17.2665 10
      vertex 0 36 10
      vertex 36.0439 17.1558 10
    endloop
  endfacet
  facet normal 0 0 1
    outer loop
      vertex 36.3613 17.3572 10
      vertex 0 36 10
      vertex 36.1963 17.2665 10
    endloop
  endfacet
  facet normal -0 0 1
    outer loop
      vertex 44.4882 12.312 10
      vertex 65 0 10
      vertex 44.5 12.5 10
    endloop
  endfacet
  facet normal -0 0 1
    outer loop
      vertex 44.4529 12.127 10
      vertex 65 0 10
      vertex 44.4882 12.312 10
    endloop
  endfacet
  facet normal -0 0 1
    outer loop
      vertex 44.3947 11.9478 10
      vertex 65 0 10
      vertex 44.4529 12.127 10
    endloop
  endfacet
  facet normal -0 0 1
    outer loop
      vertex 44.3145 11.7774 10
      vertex 65 0 10
      vertex 44.3947 11.9478 10
    endloop
  endfacet
  facet normal -0 0 1
    outer loop
      vertex 44.2135 11.6183 10
      vertex 65 0 10
      vertex 44.3145 11.7774 10
    endloop
  endfacet
  facet normal -0 0 1
    outer loop
      vertex 44.0935 11.4732 10
      vertex 65 0 10
      vertex 44.2135 11.6183 10
    endloop
  endfacet
  facet normal -0 0 1
    outer loop
      vertex 43.9561 11.3442 10
      vertex 65 0 10
      vertex 44.0935 11.4732 10
    endloop
  endfacet
  facet normal -0 0 1
    outer loop
      vertex 43.8037 11.2335 10
      vertex 65 0 10
      vertex 43.9561 11.3442 10
    endloop
  endfacet
  facet normal -0 0 1
    outer loop
      vertex 43.6387 11.1428 10
      vertex 65 0 10
      vertex 43.8037 11.2335 10
    endloop
  endfacet
  facet normal -0 0 1
    outer loop
      vertex 43.4635 11.0734 10
      vertex 65 0 10
      vertex 43.6387 11.1428 10
    endloop
  endfacet
  facet normal -0 0 1
    outer loop
      vertex 43.2811 11.0266 10
      vertex 65 0 10
      vertex 43.4635 11.0734 10
    endloop
  endfacet
  facet normal -0 0 1
    outer loop
      vertex 43.0942 11.003 10
      vertex 65 0 10
      vertex 43.2811 11.0266 10
    endloop
  endfacet
  facet normal -0 0 1
    outer loop
      vertex 42.9058 11.003 10
      vertex 65 0 10
      vertex 43.0942 11.003 10
    endloop
  endfacet
  facet normal 0 0 1
    outer loop
      vertex 42.7189 11.0266 10
      vertex 65 0 10
      vertex 42.9058 11.003 10
    endloop
  endfacet
  facet normal 0 0 1
    outer loop
      vertex 0 0 10
      vertex 42.7189 11.0266 10
      vertex 42.5365 11.0734 10
    endloop
  endfacet
  facet normal 0 0 1
    outer loop
      vertex 0 0 10
      vertex 42.5365 11.0734 10
      vertex 42.3613 11.1428 10
    endloop
  endfacet
  facet normal -0 0 1
    outer loop
      vertex 38.2135 15.1183 10
      vertex 41.6855 13.2226 10
      vertex 38.3145 15.2774 10
    endloop
  endfacet
  facet normal 0 0 1
    outer loop
      vertex 41.6855 13.2226 10
      vertex 38.2135 15.1183 10
      vertex 41.6053 13.0522 10
    endloop
  endfacet
  facet normal -0 0 1
    outer loop
      vertex 38.0935 14.9732 10
      vertex 41.6053 13.0522 10
      vertex 38.2135 15.1183 10
    endloop
  endfacet
  facet normal 0 0 1
    outer loop
      vertex 41.6053 13.0522 10
      vertex 38.0935 14.9732 10
      vertex 41.5471 12.873 10
    endloop
  endfacet
  facet normal -0 0 1
    outer loop
      vertex 37.9561 14.8442 10
      vertex 41.5471 12.873 10
      vertex 38.0935 14.9732 10
    endloop
  endfacet
  facet normal 0 0 1
    outer loop
      vertex 41.5471 12.873 10
      vertex 37.9561 14.8442 10
      vertex 41.5118 12.688 10
    endloop
  endfacet
  facet normal -0 0 1
    outer loop
      vertex 37.8037 14.7335 10
      vertex 41.5118 12.688 10
      vertex 37.9561 14.8442 10
    endloop
  endfacet
  facet normal 0 0 1
    outer loop
      vertex 41.5118 12.688 10
      vertex 37.8037 14.7335 10
      vertex 41.5 12.5 10
    endloop
  endfacet
  facet normal -0 0 1
    outer loop
      vertex 37.6387 14.6428 10
      vertex 41.5 12.5 10
      vertex 37.8037 14.7335 10
    endloop
  endfacet
  facet normal 0 0 1
    outer loop
      vertex 41.5 12.5 10
      vertex 37.6387 14.6428 10
      vertex 41.5118 12.312 10
    endloop
  endfacet
  facet normal -0 0 1
    outer loop
      vertex 37.4635 14.5734 10
      vertex 41.5118 12.312 10
      vertex 37.6387 14.6428 10
    endloop
  endfacet
  facet normal 0 0 1
    outer loop
      vertex 41.5118 12.312 10
      vertex 37.4635 14.5734 10
      vertex 41.5471 12.127 10
    endloop
  endfacet
  facet normal -0 0 1
    outer loop
      vertex 37.2811 14.5266 10
      vertex 41.5471 12.127 10
      vertex 37.4635 14.5734 10
    endloop
  endfacet
  facet normal 0 0 1
    outer loop
      vertex 41.5471 12.127 10
      vertex 37.2811 14.5266 10
      vertex 41.6053 11.9478 10
    endloop
  endfacet
  facet normal -0 0 1
    outer loop
      vertex 37.0942 14.503 10
      vertex 41.6053 11.9478 10
      vertex 37.2811 14.5266 10
    endloop
  endfacet
  facet normal 0 0 1
    outer loop
      vertex 41.6053 11.9478 10
      vertex 37.0942 14.503 10
      vertex 41.6855 11.7774 10
    endloop
  endfacet
  facet normal -0 0 1
    outer loop
      vertex 36.9058 14.503 10
      vertex 41.6855 11.7774 10
      vertex 37.0942 14.503 10
    endloop
  endfacet
  facet normal 0 0 1
    outer loop
      vertex 41.6855 11.7774 10
      vertex 36.9058 14.503 10
      vertex 41.7865 11.6183 10
    endloop
  endfacet
  facet normal 0 0 1
    outer loop
      vertex 36.7189 14.5266 10
      vertex 41.7865 11.6183 10
      vertex 36.9058 14.503 10
    endloop
  endfacet
  facet normal 0 0 1
    outer loop
      vertex 41.7865 11.6183 10
      vertex 36.7189 14.5266 10
      vertex 41.9065 11.4732 10
    endloop
  endfacet
  facet normal 0 0 1
    outer loop
      vertex 36.5365 14.5734 10
      vertex 41.9065 11.4732 10
      vertex 36.7189 14.5266 10
    endloop
  endfacet
  facet normal 0 0 1
    outer loop
      vertex 41.9065 11.4732 10
      vertex 36.5365 14.5734 10
      vertex 42.0439 11.3442 10
    endloop
  endfacet
  facet normal 0 0 1
    outer loop
      vertex 36.3613 14.6428 10
      vertex 42.0439 11.3442 10
      vertex 36.5365 14.5734 10
    endloop
  endfacet
  facet normal 0 0 1
    outer loop
      vertex 0 0 10
      vertex 42.0439 11.3442 10
      vertex 36.3613 14.6428 10
    endloop
  endfacet
  facet normal 0 0 1
    outer loop
      vertex 0 0 10
      vertex 36.3613 14.6428 10
      vertex 36.1963 14.7335 10
    endloop
  endfacet
  facet normal 0 0 1
    outer loop
      vertex 35.5118 16.188 10
      vertex 0 0 10
      vertex 35.5 16 10
    endloop
  endfacet
  facet normal 0 0 1
    outer loop
      vertex 35.5 16 10
      vertex 0 0 10
      vertex 35.5118 15.812 10
    endloop
  endfacet
  facet normal 0 0 1
    outer loop
      vertex 35.5118 15.812 10
      vertex 0 0 10
      vertex 35.5471 15.627 10
    endloop
  endfacet
  facet normal 0 0 1
    outer loop
      vertex 35.5471 15.627 10
      vertex 0 0 10
      vertex 35.6053 15.4478 10
    endloop
  endfacet
  facet normal 0 0 1
    outer loop
      vertex 35.6053 15.4478 10
      vertex 0 0 10
      vertex 35.6855 15.2774 10
    endloop
  endfacet
  facet normal 0 0 1
    outer loop
      vertex 35.6855 15.2774 10
      vertex 0 0 10
      vertex 35.7865 15.1183 10
    endloop
  endfacet
  facet normal 0 0 1
    outer loop
      vertex 35.7865 15.1183 10
      vertex 0 0 10
      vertex 35.9065 14.9732 10
    endloop
  endfacet
  facet normal 0 0 1
    outer loop
      vertex 35.9065 14.9732 10
      vertex 0 0 10
      vertex 36.0439 14.8442 10
    endloop
  endfacet
  facet normal 0 0 1
    outer loop
      vertex 42.7189 11.0266 10
      vertex 0 0 10
      vertex 65 0 10
    endloop
  endfacet
  facet normal 0 0 1
    outer loop
      vertex 42.1963 11.2335 10
      vertex 0 0 10
      vertex 42.3613 11.1428 10
    endloop
  endfacet
  facet normal 0 0 1
    outer loop
      vertex 42.0439 11.3442 10
      vertex 0 0 10
      vertex 42.1963 11.2335 10
    endloop
  endfacet
  facet normal 0 0 1
    outer loop
      vertex 36.0439 14.8442 10
      vertex 0 0 10
      vertex 36.1963 14.7335 10
    endloop
  endfacet
  facet normal -0.998036 0.0626427 0
    outer loop
      vertex 38.4882 15.812 0
      vertex 38.5 16 10
      vertex 38.5 16 0
    endloop
  endfacet
  facet normal -0.998036 0.0626427 0
    outer loop
      vertex 38.5 16 10
      vertex 38.4882 15.812 0
      vertex 38.4882 15.812 10
    endloop
  endfacet
  facet normal -0.844251 0.535948 0
    outer loop
      vertex 38.2135 15.1183 0
      vertex 38.3145 15.2774 10
      vertex 38.3145 15.2774 0
    endloop
  endfacet
  facet normal -0.844251 0.535948 0
    outer loop
      vertex 38.3145 15.2774 10
      vertex 38.2135 15.1183 0
      vertex 38.2135 15.1183 10
    endloop
  endfacet
  facet normal 0.998036 -0.0626427 0
    outer loop
      vertex 35.5 16 10
      vertex 35.5118 16.188 0
      vertex 35.5118 16.188 10
    endloop
  endfacet
  facet normal 0.998036 -0.0626427 0
    outer loop
      vertex 35.5118 16.188 0
      vertex 35.5 16 10
      vertex 35.5 16 0
    endloop
  endfacet
  facet normal 0.77061 0.637307 0
    outer loop
      vertex 35.9065 14.9732 10
      vertex 35.7865 15.1183 0
      vertex 35.7865 15.1183 10
    endloop
  endfacet
  facet normal 0.77061 0.637307 0
    outer loop
      vertex 35.7865 15.1183 0
      vertex 35.9065 14.9732 10
      vertex 35.9065 14.9732 0
    endloop
  endfacet
  facet normal -0.368278 -0.929716 0
    outer loop
      vertex 37.4635 17.4266 0
      vertex 37.6387 17.3572 10
      vertex 37.4635 17.4266 10
    endloop
  endfacet
  facet normal -0.368278 -0.929716 -0
    outer loop
      vertex 37.6387 17.3572 10
      vertex 37.4635 17.4266 0
      vertex 37.6387 17.3572 0
    endloop
  endfacet
  facet normal 0 1 -0
    outer loop
      vertex 37.0942 14.503 0
      vertex 36.9058 14.503 10
      vertex 37.0942 14.503 10
    endloop
  endfacet
  facet normal 0 1 0
    outer loop
      vertex 36.9058 14.503 10
      vertex 37.0942 14.503 0
      vertex 36.9058 14.503 0
    endloop
  endfacet
  facet normal -0.951096 -0.308894 0
    outer loop
      vertex 38.4529 16.373 0
      vertex 38.3947 16.5522 10
      vertex 38.3947 16.5522 0
    endloop
  endfacet
  facet normal -0.951096 -0.308894 0
    outer loop
      vertex 38.3947 16.5522 10
      vertex 38.4529 16.373 0
      vertex 38.4529 16.373 10
    endloop
  endfacet
  facet normal 0.951096 0.308894 0
    outer loop
      vertex 35.6053 15.4478 10
      vertex 35.5471 15.627 0
      vertex 35.5471 15.627 10
    endloop
  endfacet
  facet normal 0.951096 0.308894 0
    outer loop
      vertex 35.5471 15.627 0
      vertex 35.6053 15.4478 10
      vertex 35.6053 15.4478 0
    endloop
  endfacet
  facet normal -0.368278 0.929716 0
    outer loop
      vertex 37.6387 14.6428 0
      vertex 37.4635 14.5734 10
      vertex 37.6387 14.6428 10
    endloop
  endfacet
  facet normal -0.368278 0.929716 0
    outer loop
      vertex 37.4635 14.5734 10
      vertex 37.6387 14.6428 0
      vertex 37.4635 14.5734 0
    endloop
  endfacet
  facet normal 0.844251 -0.535948 0
    outer loop
      vertex 35.6855 16.7226 10
      vertex 35.7865 16.8817 0
      vertex 35.7865 16.8817 10
    endloop
  endfacet
  facet normal 0.844251 -0.535948 0
    outer loop
      vertex 35.7865 16.8817 0
      vertex 35.6855 16.7226 10
      vertex 35.6855 16.7226 0
    endloop
  endfacet
  facet normal -0.587698 -0.80908 0
    outer loop
      vertex 37.8037 17.2665 0
      vertex 37.9561 17.1558 10
      vertex 37.8037 17.2665 10
    endloop
  endfacet
  facet normal -0.587698 -0.80908 -0
    outer loop
      vertex 37.9561 17.1558 10
      vertex 37.8037 17.2665 0
      vertex 37.9561 17.1558 0
    endloop
  endfacet
  facet normal 0.68447 -0.729041 0
    outer loop
      vertex 35.9065 17.0268 0
      vertex 36.0439 17.1558 10
      vertex 35.9065 17.0268 10
    endloop
  endfacet
  facet normal 0.68447 -0.729041 0
    outer loop
      vertex 36.0439 17.1558 10
      vertex 35.9065 17.0268 0
      vertex 36.0439 17.1558 0
    endloop
  endfacet
  facet normal 0.77061 -0.637307 0
    outer loop
      vertex 35.7865 16.8817 10
      vertex 35.9065 17.0268 0
      vertex 35.9065 17.0268 10
    endloop
  endfacet
  facet normal 0.77061 -0.637307 0
    outer loop
      vertex 35.9065 17.0268 0
      vertex 35.7865 16.8817 10
      vertex 35.7865 16.8817 0
    endloop
  endfacet
  facet normal 0.904795 -0.425848 0
    outer loop
      vertex 35.6053 16.5522 10
      vertex 35.6855 16.7226 0
      vertex 35.6855 16.7226 10
    endloop
  endfacet
  facet normal 0.904795 -0.425848 0
    outer loop
      vertex 35.6855 16.7226 0
      vertex 35.6053 16.5522 10
      vertex 35.6053 16.5522 0
    endloop
  endfacet
  facet normal -0.951096 0.308894 0
    outer loop
      vertex 38.3947 15.4478 0
      vertex 38.4529 15.627 10
      vertex 38.4529 15.627 0
    endloop
  endfacet
  facet normal -0.951096 0.308894 0
    outer loop
      vertex 38.4529 15.627 10
      vertex 38.3947 15.4478 0
      vertex 38.3947 15.4478 10
    endloop
  endfacet
  facet normal -0.587698 0.80908 0
    outer loop
      vertex 37.9561 14.8442 0
      vertex 37.8037 14.7335 10
      vertex 37.9561 14.8442 10
    endloop
  endfacet
  facet normal -0.587698 0.80908 0
    outer loop
      vertex 37.8037 14.7335 10
      vertex 37.9561 14.8442 0
      vertex 37.8037 14.7335 0
    endloop
  endfacet
  facet normal 0 -1 0
    outer loop
      vertex 36.9058 17.497 0
      vertex 37.0942 17.497 10
      vertex 36.9058 17.497 10
    endloop
  endfacet
  facet normal 0 -1 -0
    outer loop
      vertex 37.0942 17.497 10
      vertex 36.9058 17.497 0
      vertex 37.0942 17.497 0
    endloop
  endfacet
  facet normal 0.368278 0.929716 -0
    outer loop
      vertex 36.5365 14.5734 0
      vertex 36.3613 14.6428 10
      vertex 36.5365 14.5734 10
    endloop
  endfacet
  facet normal 0.368278 0.929716 0
    outer loop
      vertex 36.3613 14.6428 10
      vertex 36.5365 14.5734 0
      vertex 36.3613 14.6428 0
    endloop
  endfacet
  facet normal -0.982278 -0.187429 0
    outer loop
      vertex 44.4882 12.688 0
      vertex 44.4529 12.873 10
      vertex 44.4529 12.873 0
    endloop
  endfacet
  facet normal -0.982278 -0.187429 0
    outer loop
      vertex 44.4529 12.873 10
      vertex 44.4882 12.688 0
      vertex 44.4882 12.688 10
    endloop
  endfacet
  facet normal -0.998036 -0.0626427 0
    outer loop
      vertex 44.5 12.5 0
      vertex 44.4882 12.688 10
      vertex 44.4882 12.688 0
    endloop
  endfacet
  facet normal -0.998036 -0.0626427 0
    outer loop
      vertex 44.4882 12.688 10
      vertex 44.5 12.5 0
      vertex 44.5 12.5 10
    endloop
  endfacet
  facet normal -0.844251 -0.535948 0
    outer loop
      vertex 44.3145 13.2226 0
      vertex 44.2135 13.3817 10
      vertex 44.2135 13.3817 0
    endloop
  endfacet
  facet normal -0.844251 -0.535948 0
    outer loop
      vertex 44.2135 13.3817 10
      vertex 44.3145 13.2226 0
      vertex 44.3145 13.2226 10
    endloop
  endfacet
  facet normal -0.368278 0.929716 0
    outer loop
      vertex 43.6387 11.1428 0
      vertex 43.4635 11.0734 10
      vertex 43.6387 11.1428 10
    endloop
  endfacet
  facet normal -0.368278 0.929716 0
    outer loop
      vertex 43.4635 11.0734 10
      vertex 43.6387 11.1428 0
      vertex 43.4635 11.0734 0
    endloop
  endfacet
  facet normal 0.951096 -0.308894 0
    outer loop
      vertex 41.5471 12.873 10
      vertex 41.6053 13.0522 0
      vertex 41.6053 13.0522 10
    endloop
  endfacet
  facet normal 0.951096 -0.308894 0
    outer loop
      vertex 41.6053 13.0522 0
      vertex 41.5471 12.873 10
      vertex 41.5471 12.873 0
    endloop
  endfacet
  facet normal -0.368278 -0.929716 0
    outer loop
      vertex 43.4635 13.9266 0
      vertex 43.6387 13.8572 10
      vertex 43.4635 13.9266 10
    endloop
  endfacet
  facet normal -0.368278 -0.929716 -0
    outer loop
      vertex 43.6387 13.8572 10
      vertex 43.4635 13.9266 0
      vertex 43.6387 13.8572 0
    endloop
  endfacet
  facet normal -0.68447 -0.729041 0
    outer loop
      vertex 43.9561 13.6558 0
      vertex 44.0935 13.5268 10
      vertex 43.9561 13.6558 10
    endloop
  endfacet
  facet normal -0.68447 -0.729041 -0
    outer loop
      vertex 44.0935 13.5268 10
      vertex 43.9561 13.6558 0
      vertex 44.0935 13.5268 0
    endloop
  endfacet
  facet normal 0.982278 0.187429 0
    outer loop
      vertex 41.5471 12.127 10
      vertex 41.5118 12.312 0
      vertex 41.5118 12.312 10
    endloop
  endfacet
  facet normal 0.982278 0.187429 0
    outer loop
      vertex 41.5118 12.312 0
      vertex 41.5471 12.127 10
      vertex 41.5471 12.127 0
    endloop
  endfacet
  facet normal 0.998036 0.0626427 0
    outer loop
      vertex 41.5118 12.312 10
      vertex 41.5 12.5 0
      vertex 41.5 12.5 10
    endloop
  endfacet
  facet normal 0.998036 0.0626427 0
    outer loop
      vertex 41.5 12.5 0
      vertex 41.5118 12.312 10
      vertex 41.5118 12.312 0
    endloop
  endfacet
  facet normal 0.951096 0.308894 0
    outer loop
      vertex 41.6053 11.9478 10
      vertex 41.5471 12.127 0
      vertex 41.5471 12.127 10
    endloop
  endfacet
  facet normal 0.951096 0.308894 0
    outer loop
      vertex 41.5471 12.127 0
      vertex 41.6053 11.9478 10
      vertex 41.6053 11.9478 0
    endloop
  endfacet
  facet normal -0.982278 0.187429 0
    outer loop
      vertex 44.4529 12.127 0
      vertex 44.4882 12.312 10
      vertex 44.4882 12.312 0
    endloop
  endfacet
  facet normal -0.982278 0.187429 0
    outer loop
      vertex 44.4882 12.312 10
      vertex 44.4529 12.127 0
      vertex 44.4529 12.127 10
    endloop
  endfacet
  facet normal -0.904795 -0.425848 0
    outer loop
      vertex 44.3947 13.0522 0
      vertex 44.3145 13.2226 10
      vertex 44.3145 13.2226 0
    endloop
  endfacet
  facet normal -0.904795 -0.425848 0
    outer loop
      vertex 44.3145 13.2226 10
      vertex 44.3947 13.0522 0
      vertex 44.3947 13.0522 10
    endloop
  endfacet
  facet normal 0.587698 -0.80908 0
    outer loop
      vertex 42.0439 13.6558 0
      vertex 42.1963 13.7665 10
      vertex 42.0439 13.6558 10
    endloop
  endfacet
  facet normal 0.587698 -0.80908 0
    outer loop
      vertex 42.1963 13.7665 10
      vertex 42.0439 13.6558 0
      vertex 42.1963 13.7665 0
    endloop
  endfacet
  facet normal 0.982278 -0.187429 0
    outer loop
      vertex 41.5118 12.688 10
      vertex 41.5471 12.873 0
      vertex 41.5471 12.873 10
    endloop
  endfacet
  facet normal 0.982278 -0.187429 0
    outer loop
      vertex 41.5471 12.873 0
      vertex 41.5118 12.688 10
      vertex 41.5118 12.688 0
    endloop
  endfacet
  facet normal -0.587698 0.80908 0
    outer loop
      vertex 43.9561 11.3442 0
      vertex 43.8037 11.2335 10
      vertex 43.9561 11.3442 10
    endloop
  endfacet
  facet normal -0.587698 0.80908 0
    outer loop
      vertex 43.8037 11.2335 10
      vertex 43.9561 11.3442 0
      vertex 43.8037 11.2335 0
    endloop
  endfacet
  facet normal -0.481715 0.876328 0
    outer loop
      vertex 43.8037 11.2335 0
      vertex 43.6387 11.1428 10
      vertex 43.8037 11.2335 10
    endloop
  endfacet
  facet normal -0.481715 0.876328 0
    outer loop
      vertex 43.6387 11.1428 10
      vertex 43.8037 11.2335 0
      vertex 43.6387 11.1428 0
    endloop
  endfacet
  facet normal 0.68447 -0.729041 0
    outer loop
      vertex 41.9065 13.5268 0
      vertex 42.0439 13.6558 10
      vertex 41.9065 13.5268 10
    endloop
  endfacet
  facet normal 0.68447 -0.729041 0
    outer loop
      vertex 42.0439 13.6558 10
      vertex 41.9065 13.5268 0
      vertex 42.0439 13.6558 0
    endloop
  endfacet
  facet normal 0.481715 -0.876328 0
    outer loop
      vertex 42.1963 13.7665 0
      vertex 42.3613 13.8572 10
      vertex 42.1963 13.7665 10
    endloop
  endfacet
  facet normal 0.481715 -0.876328 0
    outer loop
      vertex 42.3613 13.8572 10
      vertex 42.1963 13.7665 0
      vertex 42.3613 13.8572 0
    endloop
  endfacet
  facet normal 0.77061 0.637307 0
    outer loop
      vertex 41.9065 11.4732 10
      vertex 41.7865 11.6183 0
      vertex 41.7865 11.6183 10
    endloop
  endfacet
  facet normal 0.77061 0.637307 0
    outer loop
      vertex 41.7865 11.6183 0
      vertex 41.9065 11.4732 10
      vertex 41.9065 11.4732 0
    endloop
  endfacet
  facet normal 0.904795 0.425848 0
    outer loop
      vertex 41.6855 11.7774 10
      vertex 41.6053 11.9478 0
      vertex 41.6053 11.9478 10
    endloop
  endfacet
  facet normal 0.904795 0.425848 0
    outer loop
      vertex 41.6053 11.9478 0
      vertex 41.6855 11.7774 10
      vertex 41.6855 11.7774 0
    endloop
  endfacet
  facet normal 0.481715 0.876328 -0
    outer loop
      vertex 42.3613 11.1428 0
      vertex 42.1963 11.2335 10
      vertex 42.3613 11.1428 10
    endloop
  endfacet
  facet normal 0.481715 0.876328 0
    outer loop
      vertex 42.1963 11.2335 10
      vertex 42.3613 11.1428 0
      vertex 42.1963 11.2335 0
    endloop
  endfacet
  facet normal -0.998036 0.0626427 0
    outer loop
      vertex 44.4882 12.312 0
      vertex 44.5 12.5 10
      vertex 44.5 12.5 0
    endloop
  endfacet
  facet normal -0.998036 0.0626427 0
    outer loop
      vertex 44.5 12.5 10
      vertex 44.4882 12.312 0
      vertex 44.4882 12.312 10
    endloop
  endfacet
  facet normal -0.481715 -0.876328 0
    outer loop
      vertex 43.6387 13.8572 0
      vertex 43.8037 13.7665 10
      vertex 43.6387 13.8572 10
    endloop
  endfacet
  facet normal -0.481715 -0.876328 -0
    outer loop
      vertex 43.8037 13.7665 10
      vertex 43.6387 13.8572 0
      vertex 43.8037 13.7665 0
    endloop
  endfacet
  facet normal -0.904795 0.425848 0
    outer loop
      vertex 44.3145 11.7774 0
      vertex 44.3947 11.9478 10
      vertex 44.3947 11.9478 0
    endloop
  endfacet
  facet normal -0.904795 0.425848 0
    outer loop
      vertex 44.3947 11.9478 10
      vertex 44.3145 11.7774 0
      vertex 44.3145 11.7774 10
    endloop
  endfacet
  facet normal 0.844251 0.535948 0
    outer loop
      vertex 41.7865 11.6183 10
      vertex 41.6855 11.7774 0
      vertex 41.6855 11.7774 10
    endloop
  endfacet
  facet normal 0.844251 0.535948 0
    outer loop
      vertex 41.6855 11.7774 0
      vertex 41.7865 11.6183 10
      vertex 41.7865 11.6183 0
    endloop
  endfacet
  facet normal -0.248529 0.968625 0
    outer loop
      vertex 43.4635 11.0734 0
      vertex 43.2811 11.0266 10
      vertex 43.4635 11.0734 10
    endloop
  endfacet
  facet normal -0.248529 0.968625 0
    outer loop
      vertex 43.2811 11.0266 10
      vertex 43.4635 11.0734 0
      vertex 43.2811 11.0266 0
    endloop
  endfacet
  facet normal -0.248529 -0.968625 0
    outer loop
      vertex 43.2811 13.9734 0
      vertex 43.4635 13.9266 10
      vertex 43.2811 13.9734 10
    endloop
  endfacet
  facet normal -0.248529 -0.968625 -0
    outer loop
      vertex 43.4635 13.9266 10
      vertex 43.2811 13.9734 0
      vertex 43.4635 13.9266 0
    endloop
  endfacet
  facet normal 0.248529 -0.968625 0
    outer loop
      vertex 42.5365 13.9266 0
      vertex 42.7189 13.9734 10
      vertex 42.5365 13.9266 10
    endloop
  endfacet
  facet normal 0.248529 -0.968625 0
    outer loop
      vertex 42.7189 13.9734 10
      vertex 42.5365 13.9266 0
      vertex 42.7189 13.9734 0
    endloop
  endfacet
  facet normal -0.951096 0.308894 0
    outer loop
      vertex 44.3947 11.9478 0
      vertex 44.4529 12.127 10
      vertex 44.4529 12.127 0
    endloop
  endfacet
  facet normal -0.951096 0.308894 0
    outer loop
      vertex 44.4529 12.127 10
      vertex 44.3947 11.9478 0
      vertex 44.3947 11.9478 10
    endloop
  endfacet
  facet normal -0.77061 0.637307 0
    outer loop
      vertex 44.0935 11.4732 0
      vertex 44.2135 11.6183 10
      vertex 44.2135 11.6183 0
    endloop
  endfacet
  facet normal -0.77061 0.637307 0
    outer loop
      vertex 44.2135 11.6183 10
      vertex 44.0935 11.4732 0
      vertex 44.0935 11.4732 10
    endloop
  endfacet
  facet normal -0.844251 0.535948 0
    outer loop
      vertex 44.2135 11.6183 0
      vertex 44.3145 11.7774 10
      vertex 44.3145 11.7774 0
    endloop
  endfacet
  facet normal -0.844251 0.535948 0
    outer loop
      vertex 44.3145 11.7774 10
      vertex 44.2135 11.6183 0
      vertex 44.2135 11.6183 10
    endloop
  endfacet
  facet normal 0.844251 -0.535948 0
    outer loop
      vertex 41.6855 13.2226 10
      vertex 41.7865 13.3817 0
      vertex 41.7865 13.3817 10
    endloop
  endfacet
  facet normal 0.844251 -0.535948 0
    outer loop
      vertex 41.7865 13.3817 0
      vertex 41.6855 13.2226 10
      vertex 41.6855 13.2226 0
    endloop
  endfacet
  facet normal 0 1 -0
    outer loop
      vertex 43.0942 11.003 0
      vertex 42.9058 11.003 10
      vertex 43.0942 11.003 10
    endloop
  endfacet
  facet normal 0 1 0
    outer loop
      vertex 42.9058 11.003 10
      vertex 43.0942 11.003 0
      vertex 42.9058 11.003 0
    endloop
  endfacet
  facet normal 0.68447 0.729041 -0
    outer loop
      vertex 42.0439 11.3442 0
      vertex 41.9065 11.4732 10
      vertex 42.0439 11.3442 10
    endloop
  endfacet
  facet normal 0.68447 0.729041 0
    outer loop
      vertex 41.9065 11.4732 10
      vertex 42.0439 11.3442 0
      vertex 41.9065 11.4732 0
    endloop
  endfacet
  facet normal 0.998036 -0.0626427 0
    outer loop
      vertex 41.5 12.5 10
      vertex 41.5118 12.688 0
      vertex 41.5118 12.688 10
    endloop
  endfacet
  facet normal 0.998036 -0.0626427 0
    outer loop
      vertex 41.5118 12.688 0
      vertex 41.5 12.5 10
      vertex 41.5 12.5 0
    endloop
  endfacet
  facet normal 0.368278 -0.929716 0
    outer loop
      vertex 42.3613 13.8572 0
      vertex 42.5365 13.9266 10
      vertex 42.3613 13.8572 10
    endloop
  endfacet
  facet normal 0.368278 -0.929716 0
    outer loop
      vertex 42.5365 13.9266 10
      vertex 42.3613 13.8572 0
      vertex 42.5365 13.9266 0
    endloop
  endfacet
  facet normal 0.904795 -0.425848 0
    outer loop
      vertex 41.6053 13.0522 10
      vertex 41.6855 13.2226 0
      vertex 41.6855 13.2226 10
    endloop
  endfacet
  facet normal 0.904795 -0.425848 0
    outer loop
      vertex 41.6855 13.2226 0
      vertex 41.6053 13.0522 10
      vertex 41.6053 13.0522 0
    endloop
  endfacet
  facet normal 0.125276 0.992122 -0
    outer loop
      vertex 42.9058 11.003 0
      vertex 42.7189 11.0266 10
      vertex 42.9058 11.003 10
    endloop
  endfacet
  facet normal 0.125276 0.992122 0
    outer loop
      vertex 42.7189 11.0266 10
      vertex 42.9058 11.003 0
      vertex 42.7189 11.0266 0
    endloop
  endfacet
  facet normal -0.77061 -0.637307 0
    outer loop
      vertex 44.2135 13.3817 0
      vertex 44.0935 13.5268 10
      vertex 44.0935 13.5268 0
    endloop
  endfacet
  facet normal -0.77061 -0.637307 0
    outer loop
      vertex 44.0935 13.5268 10
      vertex 44.2135 13.3817 0
      vertex 44.2135 13.3817 10
    endloop
  endfacet
  facet normal -0.587698 -0.80908 0
    outer loop
      vertex 43.8037 13.7665 0
      vertex 43.9561 13.6558 10
      vertex 43.8037 13.7665 10
    endloop
  endfacet
  facet normal -0.587698 -0.80908 -0
    outer loop
      vertex 43.9561 13.6558 10
      vertex 43.8037 13.7665 0
      vertex 43.9561 13.6558 0
    endloop
  endfacet
  facet normal -0.951096 -0.308894 0
    outer loop
      vertex 44.4529 12.873 0
      vertex 44.3947 13.0522 10
      vertex 44.3947 13.0522 0
    endloop
  endfacet
  facet normal -0.951096 -0.308894 0
    outer loop
      vertex 44.3947 13.0522 10
      vertex 44.4529 12.873 0
      vertex 44.4529 12.873 10
    endloop
  endfacet
  facet normal 0.77061 -0.637307 0
    outer loop
      vertex 41.7865 13.3817 10
      vertex 41.9065 13.5268 0
      vertex 41.9065 13.5268 10
    endloop
  endfacet
  facet normal 0.77061 -0.637307 0
    outer loop
      vertex 41.9065 13.5268 0
      vertex 41.7865 13.3817 10
      vertex 41.7865 13.3817 0
    endloop
  endfacet
  facet normal -0.125276 -0.992122 0
    outer loop
      vertex 43.0942 13.997 0
      vertex 43.2811 13.9734 10
      vertex 43.0942 13.997 10
    endloop
  endfacet
  facet normal -0.125276 -0.992122 -0
    outer loop
      vertex 43.2811 13.9734 10
      vertex 43.0942 13.997 0
      vertex 43.2811 13.9734 0
    endloop
  endfacet
  facet normal 0.587698 0.80908 -0
    outer loop
      vertex 42.1963 11.2335 0
      vertex 42.0439 11.3442 10
      vertex 42.1963 11.2335 10
    endloop
  endfacet
  facet normal 0.587698 0.80908 0
    outer loop
      vertex 42.0439 11.3442 10
      vertex 42.1963 11.2335 0
      vertex 42.0439 11.3442 0
    endloop
  endfacet
  facet normal -0.125276 0.992122 0
    outer loop
      vertex 43.2811 11.0266 0
      vertex 43.0942 11.003 10
      vertex 43.2811 11.0266 10
    endloop
  endfacet
  facet normal -0.125276 0.992122 0
    outer loop
      vertex 43.0942 11.003 10
      vertex 43.2811 11.0266 0
      vertex 43.0942 11.003 0
    endloop
  endfacet
  facet normal 0.125276 -0.992122 0
    outer loop
      vertex 42.7189 13.9734 0
      vertex 42.9058 13.997 10
      vertex 42.7189 13.9734 10
    endloop
  endfacet
  facet normal 0.125276 -0.992122 0
    outer loop
      vertex 42.9058 13.997 10
      vertex 42.7189 13.9734 0
      vertex 42.9058 13.997 0
    endloop
  endfacet
  facet normal -0.68447 0.729041 0
    outer loop
      vertex 44.0935 11.4732 0
      vertex 43.9561 11.3442 10
      vertex 44.0935 11.4732 10
    endloop
  endfacet
  facet normal -0.68447 0.729041 0
    outer loop
      vertex 43.9561 11.3442 10
      vertex 44.0935 11.4732 0
      vertex 43.9561 11.3442 0
    endloop
  endfacet
  facet normal 0 -1 0
    outer loop
      vertex 42.9058 13.997 0
      vertex 43.0942 13.997 10
      vertex 42.9058 13.997 10
    endloop
  endfacet
  facet normal 0 -1 -0
    outer loop
      vertex 43.0942 13.997 10
      vertex 42.9058 13.997 0
      vertex 43.0942 13.997 0
    endloop
  endfacet
  facet normal 0.248529 0.968625 -0
    outer loop
      vertex 42.7189 11.0266 0
      vertex 42.5365 11.0734 10
      vertex 42.7189 11.0266 10
    endloop
  endfacet
  facet normal 0.248529 0.968625 0
    outer loop
      vertex 42.5365 11.0734 10
      vertex 42.7189 11.0266 0
      vertex 42.5365 11.0734 0
    endloop
  endfacet
  facet normal 0.368278 0.929716 -0
    outer loop
      vertex 42.5365 11.0734 0
      vertex 42.3613 11.1428 10
      vertex 42.5365 11.0734 10
    endloop
  endfacet
  facet normal 0.368278 0.929716 0
    outer loop
      vertex 42.3613 11.1428 10
      vertex 42.5365 11.0734 0
      vertex 42.3613 11.1428 0
    endloop
  endfacet
  facet normal 1 0 0
    outer loop
      vertex 65 36 10
      vertex 65 10 0
      vertex 65 36 0
    endloop
  endfacet
  facet normal 1 0 -0
    outer loop
      vertex 65 10 0
      vertex 65 36 10
      vertex 65 0 10
    endloop
  endfacet
  facet normal -1 0 0
    outer loop
      vertex 0 10 0
      vertex 0 36 10
      vertex 0 36 0
    endloop
  endfacet
  facet normal -1 -0 0
    outer loop
      vertex 0 36 10
      vertex 0 10 0
      vertex 0 0 10
    endloop
  endfacet
  facet normal 0 1 -0
    outer loop
      vertex 65 36 0
      vertex 0 36 10
      vertex 65 36 10
    endloop
  endfacet
  facet normal 0 1 0
    outer loop
      vertex 0 36 10
      vertex 65 36 0
      vertex 0 36 0
    endloop
  endfacet
  facet normal 0 -0.707107 -0.707107
    outer loop
      vertex 0 10 0
      vertex 65 0 10
      vertex 0 0 10
    endloop
  endfacet
  facet normal 0 -0.707107 -0.707107
    outer loop
      vertex 65 0 10
      vertex 0 10 0
      vertex 65 10 0
    endloop
  endfacet
endsolid OpenSCAD_Model
