solid OpenSCAD_Model
  facet normal -0 0 1
    outer loop
      vertex 17 17 15
      vertex 28 13 15
      vertex 28 17 15
    endloop
  endfacet
  facet normal 0 0 1
    outer loop
      vertex 28 13 15
      vertex 17 17 15
      vertex 17 13 15
    endloop
  endfacet
  facet normal 0 0 1
    outer loop
      vertex 30 30 15
      vertex 28 28 15
      vertex 30 15 15
    endloop
  endfacet
  facet normal 0 0 1
    outer loop
      vertex 30 30 15
      vertex 17 28 15
      vertex 28 28 15
    endloop
  endfacet
  facet normal 0 0 1
    outer loop
      vertex 13 17 15
      vertex 17 17 15
      vertex 17 28 15
    endloop
  endfacet
  facet normal 0 0 1
    outer loop
      vertex 17 17 15
      vertex 15 15 15
      vertex 17 13 15
    endloop
  endfacet
  facet normal 0 0 1
    outer loop
      vertex 17 13 15
      vertex 15 15 15
      vertex 17 2 15
    endloop
  endfacet
  facet normal 0 0 1
    outer loop
      vertex 13 17 15
      vertex 17 28 15
      vertex 13 28 15
    endloop
  endfacet
  facet normal 0 0 1
    outer loop
      vertex 30 30 15
      vertex 13 28 15
      vertex 17 28 15
    endloop
  endfacet
  facet normal -0 0 1
    outer loop
      vertex 0 30 15
      vertex 13 28 15
      vertex 30 30 15
    endloop
  endfacet
  facet normal 0 0 1
    outer loop
      vertex 2 28 15
      vertex 0 30 15
      vertex 2 17 15
    endloop
  endfacet
  facet normal 0 0 1
    outer loop
      vertex 13 28 15
      vertex 0 30 15
      vertex 2 28 15
    endloop
  endfacet
  facet normal 0 0 1
    outer loop
      vertex 17 17 15
      vertex 13 17 15
      vertex 15 15 15
    endloop
  endfacet
  facet normal -0 0 1
    outer loop
      vertex 2 17 15
      vertex 15 15 15
      vertex 13 17 15
    endloop
  endfacet
  facet normal 0 0 1
    outer loop
      vertex 2 17 15
      vertex 0 15 15
      vertex 15 15 15
    endloop
  endfacet
  facet normal 0 0 1
    outer loop
      vertex 0 15 15
      vertex 2 17 15
      vertex 0 30 15
    endloop
  endfacet
  facet normal 0 0 1
    outer loop
      vertex 45 15 15
      vertex 43 13 15
      vertex 45 0 15
    endloop
  endfacet
  facet normal 0 0 1
    outer loop
      vertex 45 15 15
      vertex 32 13 15
      vertex 43 13 15
    endloop
  endfacet
  facet normal 0 0 1
    outer loop
      vertex 28 13 15
      vertex 32 13 15
      vertex 30 15 15
    endloop
  endfacet
  facet normal -0 0 1
    outer loop
      vertex 30 15 15
      vertex 32 13 15
      vertex 45 15 15
    endloop
  endfacet
  facet normal -0 0 1
    outer loop
      vertex 43 2 15
      vertex 45 0 15
      vertex 43 13 15
    endloop
  endfacet
  facet normal -0 0 1
    outer loop
      vertex 32 2 15
      vertex 45 0 15
      vertex 43 2 15
    endloop
  endfacet
  facet normal -0 0 1
    outer loop
      vertex 28 17 15
      vertex 30 15 15
      vertex 28 28 15
    endloop
  endfacet
  facet normal 0 0 1
    outer loop
      vertex 28 13 15
      vertex 30 15 15
      vertex 28 17 15
    endloop
  endfacet
  facet normal 0 0 1
    outer loop
      vertex 32 13 15
      vertex 28 13 15
      vertex 32 2 15
    endloop
  endfacet
  facet normal 0 0 1
    outer loop
      vertex 28 2 15
      vertex 32 2 15
      vertex 28 13 15
    endloop
  endfacet
  facet normal -0 0 1
    outer loop
      vertex 28 2 15
      vertex 45 0 15
      vertex 32 2 15
    endloop
  endfacet
  facet normal 0 0 1
    outer loop
      vertex 15 0 15
      vertex 28 2 15
      vertex 17 2 15
    endloop
  endfacet
  facet normal 0 0 1
    outer loop
      vertex 28 2 15
      vertex 15 0 15
      vertex 45 0 15
    endloop
  endfacet
  facet normal 0 0 1
    outer loop
      vertex 15 0 15
      vertex 17 2 15
      vertex 15 15 15
    endloop
  endfacet
  facet normal 0 0 -1
    outer loop
      vertex 15 15 0
      vertex 2 17 0
      vertex 13 17 0
    endloop
  endfacet
  facet normal -0 0 -1
    outer loop
      vertex 2 17 0
      vertex 0 15 0
      vertex 2 28 0
    endloop
  endfacet
  facet normal 0 0 -1
    outer loop
      vertex 0 15 0
      vertex 2 17 0
      vertex 15 15 0
    endloop
  endfacet
  facet normal 0 0 -1
    outer loop
      vertex 17 13 0
      vertex 28 17 0
      vertex 28 13 0
    endloop
  endfacet
  facet normal -0 0 -1
    outer loop
      vertex 28 17 0
      vertex 17 13 0
      vertex 17 17 0
    endloop
  endfacet
  facet normal 0 0 -1
    outer loop
      vertex 45 0 0
      vertex 43 2 0
      vertex 45 15 0
    endloop
  endfacet
  facet normal 0 0 -1
    outer loop
      vertex 45 0 0
      vertex 32 2 0
      vertex 43 2 0
    endloop
  endfacet
  facet normal 0 0 -1
    outer loop
      vertex 28 13 0
      vertex 32 13 0
      vertex 32 2 0
    endloop
  endfacet
  facet normal 0 0 -1
    outer loop
      vertex 32 13 0
      vertex 28 13 0
      vertex 30 15 0
    endloop
  endfacet
  facet normal 0 0 -1
    outer loop
      vertex 28 13 0
      vertex 32 2 0
      vertex 28 2 0
    endloop
  endfacet
  facet normal 0 0 -1
    outer loop
      vertex 45 0 0
      vertex 28 2 0
      vertex 32 2 0
    endloop
  endfacet
  facet normal 0 0 -1
    outer loop
      vertex 15 0 0
      vertex 28 2 0
      vertex 45 0 0
    endloop
  endfacet
  facet normal 0 0 -1
    outer loop
      vertex 15 15 0
      vertex 17 13 0
      vertex 17 2 0
    endloop
  endfacet
  facet normal 0 0 -1
    outer loop
      vertex 17 13 0
      vertex 15 15 0
      vertex 17 17 0
    endloop
  endfacet
  facet normal 0 0 -1
    outer loop
      vertex 15 15 0
      vertex 17 2 0
      vertex 15 0 0
    endloop
  endfacet
  facet normal -0 0 -1
    outer loop
      vertex 28 2 0
      vertex 15 0 0
      vertex 17 2 0
    endloop
  endfacet
  facet normal 0 0 -1
    outer loop
      vertex 43 13 0
      vertex 45 15 0
      vertex 43 2 0
    endloop
  endfacet
  facet normal 0 0 -1
    outer loop
      vertex 32 13 0
      vertex 45 15 0
      vertex 43 13 0
    endloop
  endfacet
  facet normal -0 0 -1
    outer loop
      vertex 45 15 0
      vertex 32 13 0
      vertex 30 15 0
    endloop
  endfacet
  facet normal 0 0 -1
    outer loop
      vertex 28 17 0
      vertex 30 15 0
      vertex 28 13 0
    endloop
  endfacet
  facet normal 0 0 -1
    outer loop
      vertex 30 15 0
      vertex 28 17 0
      vertex 30 30 0
    endloop
  endfacet
  facet normal 0 0 -1
    outer loop
      vertex 28 28 0
      vertex 30 30 0
      vertex 28 17 0
    endloop
  endfacet
  facet normal 0 0 -1
    outer loop
      vertex 17 28 0
      vertex 30 30 0
      vertex 28 28 0
    endloop
  endfacet
  facet normal 0 0 -1
    outer loop
      vertex 13 17 0
      vertex 17 17 0
      vertex 15 15 0
    endloop
  endfacet
  facet normal 0 0 -1
    outer loop
      vertex 17 17 0
      vertex 13 17 0
      vertex 17 28 0
    endloop
  endfacet
  facet normal 0 0 -1
    outer loop
      vertex 13 28 0
      vertex 17 28 0
      vertex 13 17 0
    endloop
  endfacet
  facet normal 0 0 -1
    outer loop
      vertex 13 28 0
      vertex 30 30 0
      vertex 17 28 0
    endloop
  endfacet
  facet normal 0 0 -1
    outer loop
      vertex 0 30 0
      vertex 13 28 0
      vertex 2 28 0
    endloop
  endfacet
  facet normal 0 0 -1
    outer loop
      vertex 13 28 0
      vertex 0 30 0
      vertex 30 30 0
    endloop
  endfacet
  facet normal 0 0 -1
    outer loop
      vertex 0 30 0
      vertex 2 28 0
      vertex 0 15 0
    endloop
  endfacet
  facet normal -1 0 0
    outer loop
      vertex 0 15 0
      vertex 0 30 15
      vertex 0 30 0
    endloop
  endfacet
  facet normal -1 -0 0
    outer loop
      vertex 0 30 15
      vertex 0 15 0
      vertex 0 15 15
    endloop
  endfacet
  facet normal 0 1 -0
    outer loop
      vertex 30 30 0
      vertex 0 30 15
      vertex 30 30 15
    endloop
  endfacet
  facet normal 0 1 0
    outer loop
      vertex 0 30 15
      vertex 30 30 0
      vertex 0 30 0
    endloop
  endfacet
  facet normal 0 -1 0
    outer loop
      vertex 0 15 0
      vertex 15 15 15
      vertex 0 15 15
    endloop
  endfacet
  facet normal 0 -1 -0
    outer loop
      vertex 15 15 15
      vertex 0 15 0
      vertex 15 15 0
    endloop
  endfacet
  facet normal 0 1 -0
    outer loop
      vertex 45 15 0
      vertex 30 15 15
      vertex 45 15 15
    endloop
  endfacet
  facet normal 0 1 0
    outer loop
      vertex 30 15 15
      vertex 45 15 0
      vertex 30 15 0
    endloop
  endfacet
  facet normal -1 0 0
    outer loop
      vertex 13 17 0
      vertex 13 28 15
      vertex 13 28 0
    endloop
  endfacet
  facet normal -1 -0 0
    outer loop
      vertex 13 28 15
      vertex 13 17 0
      vertex 13 17 15
    endloop
  endfacet
  facet normal 1 -0 0
    outer loop
      vertex 2 17 15
      vertex 2 28 0
      vertex 2 28 15
    endloop
  endfacet
  facet normal 1 0 0
    outer loop
      vertex 2 28 0
      vertex 2 17 15
      vertex 2 17 0
    endloop
  endfacet
  facet normal 0 -1 0
    outer loop
      vertex 2 28 0
      vertex 13 28 15
      vertex 2 28 15
    endloop
  endfacet
  facet normal 0 -1 -0
    outer loop
      vertex 13 28 15
      vertex 2 28 0
      vertex 13 28 0
    endloop
  endfacet
  facet normal 0 1 -0
    outer loop
      vertex 13 17 0
      vertex 2 17 15
      vertex 13 17 15
    endloop
  endfacet
  facet normal 0 1 0
    outer loop
      vertex 2 17 15
      vertex 13 17 0
      vertex 2 17 0
    endloop
  endfacet
  facet normal 1 -0 0
    outer loop
      vertex 30 15 15
      vertex 30 30 0
      vertex 30 30 15
    endloop
  endfacet
  facet normal 1 0 0
    outer loop
      vertex 30 30 0
      vertex 30 15 15
      vertex 30 15 0
    endloop
  endfacet
  facet normal -1 0 0
    outer loop
      vertex 28 17 0
      vertex 28 28 15
      vertex 28 28 0
    endloop
  endfacet
  facet normal -1 -0 0
    outer loop
      vertex 28 28 15
      vertex 28 17 0
      vertex 28 17 15
    endloop
  endfacet
  facet normal 1 -0 0
    outer loop
      vertex 17 17 15
      vertex 17 28 0
      vertex 17 28 15
    endloop
  endfacet
  facet normal 1 0 0
    outer loop
      vertex 17 28 0
      vertex 17 17 15
      vertex 17 17 0
    endloop
  endfacet
  facet normal 0 -1 0
    outer loop
      vertex 17 28 0
      vertex 28 28 15
      vertex 17 28 15
    endloop
  endfacet
  facet normal 0 -1 -0
    outer loop
      vertex 28 28 15
      vertex 17 28 0
      vertex 28 28 0
    endloop
  endfacet
  facet normal 0 1 -0
    outer loop
      vertex 28 17 0
      vertex 17 17 15
      vertex 28 17 15
    endloop
  endfacet
  facet normal 0 1 0
    outer loop
      vertex 17 17 15
      vertex 28 17 0
      vertex 17 17 0
    endloop
  endfacet
  facet normal -1 0 0
    outer loop
      vertex 15 0 0
      vertex 15 15 15
      vertex 15 15 0
    endloop
  endfacet
  facet normal -1 -0 0
    outer loop
      vertex 15 15 15
      vertex 15 0 0
      vertex 15 0 15
    endloop
  endfacet
  facet normal 0 -1 0
    outer loop
      vertex 15 0 0
      vertex 45 0 15
      vertex 15 0 15
    endloop
  endfacet
  facet normal 0 -1 -0
    outer loop
      vertex 45 0 15
      vertex 15 0 0
      vertex 45 0 0
    endloop
  endfacet
  facet normal -1 0 0
    outer loop
      vertex 28 2 0
      vertex 28 13 15
      vertex 28 13 0
    endloop
  endfacet
  facet normal -1 -0 0
    outer loop
      vertex 28 13 15
      vertex 28 2 0
      vertex 28 2 15
    endloop
  endfacet
  facet normal 1 -0 0
    outer loop
      vertex 17 2 15
      vertex 17 13 0
      vertex 17 13 15
    endloop
  endfacet
  facet normal 1 0 0
    outer loop
      vertex 17 13 0
      vertex 17 2 15
      vertex 17 2 0
    endloop
  endfacet
  facet normal 0 -1 0
    outer loop
      vertex 17 13 0
      vertex 28 13 15
      vertex 17 13 15
    endloop
  endfacet
  facet normal 0 -1 -0
    outer loop
      vertex 28 13 15
      vertex 17 13 0
      vertex 28 13 0
    endloop
  endfacet
  facet normal 0 1 -0
    outer loop
      vertex 28 2 0
      vertex 17 2 15
      vertex 28 2 15
    endloop
  endfacet
  facet normal 0 1 0
    outer loop
      vertex 17 2 15
      vertex 28 2 0
      vertex 17 2 0
    endloop
  endfacet
  facet normal 1 -0 0
    outer loop
      vertex 45 0 15
      vertex 45 15 0
      vertex 45 15 15
    endloop
  endfacet
  facet normal 1 0 0
    outer loop
      vertex 45 15 0
      vertex 45 0 15
      vertex 45 0 0
    endloop
  endfacet
  facet normal -1 0 0
    outer loop
      vertex 43 2 0
      vertex 43 13 15
      vertex 43 13 0
    endloop
  endfacet
  facet normal -1 -0 0
    outer loop
      vertex 43 13 15
      vertex 43 2 0
      vertex 43 2 15
    endloop
  endfacet
  facet normal 1 -0 0
    outer loop
      vertex 32 2 15
      vertex 32 13 0
      vertex 32 13 15
    endloop
  endfacet
  facet normal 1 0 0
    outer loop
      vertex 32 13 0
      vertex 32 2 15
      vertex 32 2 0
    endloop
  endfacet
  facet normal 0 -1 0
    outer loop
      vertex 32 13 0
      vertex 43 13 15
      vertex 32 13 15
    endloop
  endfacet
  facet normal 0 -1 -0
    outer loop
      vertex 43 13 15
      vertex 32 13 0
      vertex 43 13 0
    endloop
  endfacet
  facet normal 0 1 -0
    outer loop
      vertex 43 2 0
      vertex 32 2 15
      vertex 43 2 15
    endloop
  endfacet
  facet normal 0 1 0
    outer loop
      vertex 32 2 15
      vertex 43 2 0
      vertex 32 2 0
    endloop
  endfacet
  facet normal 1 -0 0
    outer loop
      vertex 67.5 15 15
      vertex 67.5 30 0
      vertex 67.5 30 15
    endloop
  endfacet
  facet normal 1 0 0
    outer loop
      vertex 67.5 30 0
      vertex 67.5 15 15
      vertex 67.5 15 0
    endloop
  endfacet
  facet normal -0 0 1
    outer loop
      vertex 54.5 17 15
      vertex 65.5 13 15
      vertex 65.5 17 15
    endloop
  endfacet
  facet normal 0 0 1
    outer loop
      vertex 65.5 13 15
      vertex 54.5 17 15
      vertex 54.5 13 15
    endloop
  endfacet
  facet normal 0 0 1
    outer loop
      vertex 67.5 30 15
      vertex 65.5 28 15
      vertex 67.5 15 15
    endloop
  endfacet
  facet normal 0 0 1
    outer loop
      vertex 67.5 30 15
      vertex 54.5 28 15
      vertex 65.5 28 15
    endloop
  endfacet
  facet normal 0 0 1
    outer loop
      vertex 52.5 30 15
      vertex 54.5 17 15
      vertex 54.5 28 15
    endloop
  endfacet
  facet normal 0 0 1
    outer loop
      vertex 54.5 17 15
      vertex 52.5 30 15
      vertex 54.5 13 15
    endloop
  endfacet
  facet normal 0 0 1
    outer loop
      vertex 52.5 0 15
      vertex 54.5 13 15
      vertex 52.5 30 15
    endloop
  endfacet
  facet normal -0 0 1
    outer loop
      vertex 52.5 30 15
      vertex 54.5 28 15
      vertex 67.5 30 15
    endloop
  endfacet
  facet normal 0 0 1
    outer loop
      vertex 97.5 15 15
      vertex 95.5 13 15
      vertex 97.5 0 15
    endloop
  endfacet
  facet normal 0 0 1
    outer loop
      vertex 97.5 15 15
      vertex 84.5 13 15
      vertex 95.5 13 15
    endloop
  endfacet
  facet normal 0 0 1
    outer loop
      vertex 84.5 13 15
      vertex 80.5 13 15
      vertex 84.5 2 15
    endloop
  endfacet
  facet normal 0 0 1
    outer loop
      vertex 97.5 15 15
      vertex 80.5 13 15
      vertex 84.5 13 15
    endloop
  endfacet
  facet normal -0 0 1
    outer loop
      vertex 67.5 15 15
      vertex 80.5 13 15
      vertex 97.5 15 15
    endloop
  endfacet
  facet normal 0 0 1
    outer loop
      vertex 65.5 13 15
      vertex 69.5 13 15
      vertex 67.5 15 15
    endloop
  endfacet
  facet normal 0 0 1
    outer loop
      vertex 80.5 13 15
      vertex 67.5 15 15
      vertex 69.5 13 15
    endloop
  endfacet
  facet normal -0 0 1
    outer loop
      vertex 95.5 2 15
      vertex 97.5 0 15
      vertex 95.5 13 15
    endloop
  endfacet
  facet normal -0 0 1
    outer loop
      vertex 84.5 2 15
      vertex 97.5 0 15
      vertex 95.5 2 15
    endloop
  endfacet
  facet normal 0 0 1
    outer loop
      vertex 80.5 2 15
      vertex 84.5 2 15
      vertex 80.5 13 15
    endloop
  endfacet
  facet normal -0 0 1
    outer loop
      vertex 80.5 2 15
      vertex 97.5 0 15
      vertex 84.5 2 15
    endloop
  endfacet
  facet normal -0 0 1
    outer loop
      vertex 69.5 2 15
      vertex 97.5 0 15
      vertex 80.5 2 15
    endloop
  endfacet
  facet normal -0 0 1
    outer loop
      vertex 65.5 17 15
      vertex 67.5 15 15
      vertex 65.5 28 15
    endloop
  endfacet
  facet normal 0 0 1
    outer loop
      vertex 65.5 13 15
      vertex 67.5 15 15
      vertex 65.5 17 15
    endloop
  endfacet
  facet normal 0 0 1
    outer loop
      vertex 69.5 13 15
      vertex 65.5 13 15
      vertex 69.5 2 15
    endloop
  endfacet
  facet normal 0 0 1
    outer loop
      vertex 65.5 2 15
      vertex 69.5 2 15
      vertex 65.5 13 15
    endloop
  endfacet
  facet normal 0 0 1
    outer loop
      vertex 52.5 0 15
      vertex 69.5 2 15
      vertex 65.5 2 15
    endloop
  endfacet
  facet normal 0 0 1
    outer loop
      vertex 52.5 0 15
      vertex 65.5 2 15
      vertex 54.5 2 15
    endloop
  endfacet
  facet normal 0 0 1
    outer loop
      vertex 69.5 2 15
      vertex 52.5 0 15
      vertex 97.5 0 15
    endloop
  endfacet
  facet normal 0 0 1
    outer loop
      vertex 54.5 13 15
      vertex 52.5 0 15
      vertex 54.5 2 15
    endloop
  endfacet
  facet normal 0 0 -1
    outer loop
      vertex 54.5 13 0
      vertex 65.5 17 0
      vertex 65.5 13 0
    endloop
  endfacet
  facet normal -0 0 -1
    outer loop
      vertex 65.5 17 0
      vertex 54.5 13 0
      vertex 54.5 17 0
    endloop
  endfacet
  facet normal 0 0 -1
    outer loop
      vertex 97.5 0 0
      vertex 95.5 2 0
      vertex 97.5 15 0
    endloop
  endfacet
  facet normal 0 0 -1
    outer loop
      vertex 97.5 0 0
      vertex 84.5 2 0
      vertex 95.5 2 0
    endloop
  endfacet
  facet normal 0 0 -1
    outer loop
      vertex 84.5 2 0
      vertex 80.5 2 0
      vertex 84.5 13 0
    endloop
  endfacet
  facet normal 0 0 -1
    outer loop
      vertex 97.5 0 0
      vertex 80.5 2 0
      vertex 84.5 2 0
    endloop
  endfacet
  facet normal 0 0 -1
    outer loop
      vertex 97.5 0 0
      vertex 69.5 2 0
      vertex 80.5 2 0
    endloop
  endfacet
  facet normal 0 0 -1
    outer loop
      vertex 65.5 13 0
      vertex 69.5 13 0
      vertex 69.5 2 0
    endloop
  endfacet
  facet normal 0 0 -1
    outer loop
      vertex 69.5 13 0
      vertex 65.5 13 0
      vertex 67.5 15 0
    endloop
  endfacet
  facet normal 0 0 -1
    outer loop
      vertex 65.5 13 0
      vertex 69.5 2 0
      vertex 65.5 2 0
    endloop
  endfacet
  facet normal 0 0 -1
    outer loop
      vertex 52.5 0 0
      vertex 69.5 2 0
      vertex 97.5 0 0
    endloop
  endfacet
  facet normal -0 0 -1
    outer loop
      vertex 69.5 2 0
      vertex 52.5 0 0
      vertex 65.5 2 0
    endloop
  endfacet
  facet normal 0 0 -1
    outer loop
      vertex 52.5 0 0
      vertex 54.5 13 0
      vertex 54.5 2 0
    endloop
  endfacet
  facet normal -0 0 -1
    outer loop
      vertex 54.5 13 0
      vertex 52.5 0 0
      vertex 54.5 17 0
    endloop
  endfacet
  facet normal 0 0 -1
    outer loop
      vertex 52.5 30 0
      vertex 54.5 17 0
      vertex 52.5 0 0
    endloop
  endfacet
  facet normal -0 0 -1
    outer loop
      vertex 65.5 2 0
      vertex 52.5 0 0
      vertex 54.5 2 0
    endloop
  endfacet
  facet normal 0 0 -1
    outer loop
      vertex 95.5 13 0
      vertex 97.5 15 0
      vertex 95.5 2 0
    endloop
  endfacet
  facet normal 0 0 -1
    outer loop
      vertex 84.5 13 0
      vertex 97.5 15 0
      vertex 95.5 13 0
    endloop
  endfacet
  facet normal 0 0 -1
    outer loop
      vertex 80.5 13 0
      vertex 84.5 13 0
      vertex 80.5 2 0
    endloop
  endfacet
  facet normal 0 0 -1
    outer loop
      vertex 80.5 13 0
      vertex 97.5 15 0
      vertex 84.5 13 0
    endloop
  endfacet
  facet normal 0 0 -1
    outer loop
      vertex 67.5 15 0
      vertex 80.5 13 0
      vertex 69.5 13 0
    endloop
  endfacet
  facet normal 0 0 -1
    outer loop
      vertex 80.5 13 0
      vertex 67.5 15 0
      vertex 97.5 15 0
    endloop
  endfacet
  facet normal 0 0 -1
    outer loop
      vertex 65.5 17 0
      vertex 67.5 15 0
      vertex 65.5 13 0
    endloop
  endfacet
  facet normal 0 0 -1
    outer loop
      vertex 67.5 15 0
      vertex 65.5 17 0
      vertex 67.5 30 0
    endloop
  endfacet
  facet normal 0 0 -1
    outer loop
      vertex 65.5 28 0
      vertex 67.5 30 0
      vertex 65.5 17 0
    endloop
  endfacet
  facet normal 0 0 -1
    outer loop
      vertex 54.5 28 0
      vertex 67.5 30 0
      vertex 65.5 28 0
    endloop
  endfacet
  facet normal 0 0 -1
    outer loop
      vertex 54.5 28 0
      vertex 52.5 30 0
      vertex 67.5 30 0
    endloop
  endfacet
  facet normal 0 0 -1
    outer loop
      vertex 54.5 17 0
      vertex 52.5 30 0
      vertex 54.5 28 0
    endloop
  endfacet
  facet normal -1 0 0
    outer loop
      vertex 52.5 0 0
      vertex 52.5 30 15
      vertex 52.5 30 0
    endloop
  endfacet
  facet normal -1 -0 0
    outer loop
      vertex 52.5 30 15
      vertex 52.5 0 0
      vertex 52.5 0 15
    endloop
  endfacet
  facet normal 0 1 -0
    outer loop
      vertex 67.5 30 0
      vertex 52.5 30 15
      vertex 67.5 30 15
    endloop
  endfacet
  facet normal 0 1 0
    outer loop
      vertex 52.5 30 15
      vertex 67.5 30 0
      vertex 52.5 30 0
    endloop
  endfacet
  facet normal -1 0 0
    outer loop
      vertex 65.5 17 0
      vertex 65.5 28 15
      vertex 65.5 28 0
    endloop
  endfacet
  facet normal -1 -0 0
    outer loop
      vertex 65.5 28 15
      vertex 65.5 17 0
      vertex 65.5 17 15
    endloop
  endfacet
  facet normal 1 -0 0
    outer loop
      vertex 54.5 17 15
      vertex 54.5 28 0
      vertex 54.5 28 15
    endloop
  endfacet
  facet normal 1 0 0
    outer loop
      vertex 54.5 28 0
      vertex 54.5 17 15
      vertex 54.5 17 0
    endloop
  endfacet
  facet normal 0 -1 0
    outer loop
      vertex 54.5 28 0
      vertex 65.5 28 15
      vertex 54.5 28 15
    endloop
  endfacet
  facet normal 0 -1 -0
    outer loop
      vertex 65.5 28 15
      vertex 54.5 28 0
      vertex 65.5 28 0
    endloop
  endfacet
  facet normal 0 1 -0
    outer loop
      vertex 65.5 17 0
      vertex 54.5 17 15
      vertex 65.5 17 15
    endloop
  endfacet
  facet normal 0 1 0
    outer loop
      vertex 54.5 17 15
      vertex 65.5 17 0
      vertex 54.5 17 0
    endloop
  endfacet
  facet normal 0 1 -0
    outer loop
      vertex 97.5 15 0
      vertex 67.5 15 15
      vertex 97.5 15 15
    endloop
  endfacet
  facet normal 0 1 0
    outer loop
      vertex 67.5 15 15
      vertex 97.5 15 0
      vertex 67.5 15 0
    endloop
  endfacet
  facet normal 0 -1 0
    outer loop
      vertex 52.5 0 0
      vertex 97.5 0 15
      vertex 52.5 0 15
    endloop
  endfacet
  facet normal 0 -1 -0
    outer loop
      vertex 97.5 0 15
      vertex 52.5 0 0
      vertex 97.5 0 0
    endloop
  endfacet
  facet normal -1 0 0
    outer loop
      vertex 80.5 2 0
      vertex 80.5 13 15
      vertex 80.5 13 0
    endloop
  endfacet
  facet normal -1 -0 0
    outer loop
      vertex 80.5 13 15
      vertex 80.5 2 0
      vertex 80.5 2 15
    endloop
  endfacet
  facet normal 1 -0 0
    outer loop
      vertex 69.5 2 15
      vertex 69.5 13 0
      vertex 69.5 13 15
    endloop
  endfacet
  facet normal 1 0 0
    outer loop
      vertex 69.5 13 0
      vertex 69.5 2 15
      vertex 69.5 2 0
    endloop
  endfacet
  facet normal 0 -1 0
    outer loop
      vertex 69.5 13 0
      vertex 80.5 13 15
      vertex 69.5 13 15
    endloop
  endfacet
  facet normal 0 -1 -0
    outer loop
      vertex 80.5 13 15
      vertex 69.5 13 0
      vertex 80.5 13 0
    endloop
  endfacet
  facet normal 0 1 -0
    outer loop
      vertex 80.5 2 0
      vertex 69.5 2 15
      vertex 80.5 2 15
    endloop
  endfacet
  facet normal 0 1 0
    outer loop
      vertex 69.5 2 15
      vertex 80.5 2 0
      vertex 69.5 2 0
    endloop
  endfacet
  facet normal 1 -0 0
    outer loop
      vertex 97.5 0 15
      vertex 97.5 15 0
      vertex 97.5 15 15
    endloop
  endfacet
  facet normal 1 0 0
    outer loop
      vertex 97.5 15 0
      vertex 97.5 0 15
      vertex 97.5 0 0
    endloop
  endfacet
  facet normal -1 0 0
    outer loop
      vertex 95.5 2 0
      vertex 95.5 13 15
      vertex 95.5 13 0
    endloop
  endfacet
  facet normal -1 -0 0
    outer loop
      vertex 95.5 13 15
      vertex 95.5 2 0
      vertex 95.5 2 15
    endloop
  endfacet
  facet normal 1 -0 0
    outer loop
      vertex 84.5 2 15
      vertex 84.5 13 0
      vertex 84.5 13 15
    endloop
  endfacet
  facet normal 1 0 0
    outer loop
      vertex 84.5 13 0
      vertex 84.5 2 15
      vertex 84.5 2 0
    endloop
  endfacet
  facet normal 0 -1 0
    outer loop
      vertex 84.5 13 0
      vertex 95.5 13 15
      vertex 84.5 13 15
    endloop
  endfacet
  facet normal 0 -1 -0
    outer loop
      vertex 95.5 13 15
      vertex 84.5 13 0
      vertex 95.5 13 0
    endloop
  endfacet
  facet normal 0 1 -0
    outer loop
      vertex 95.5 2 0
      vertex 84.5 2 15
      vertex 95.5 2 15
    endloop
  endfacet
  facet normal 0 1 0
    outer loop
      vertex 84.5 2 15
      vertex 95.5 2 0
      vertex 84.5 2 0
    endloop
  endfacet
  facet normal -1 0 0
    outer loop
      vertex 65.5 2 0
      vertex 65.5 13 15
      vertex 65.5 13 0
    endloop
  endfacet
  facet normal -1 -0 0
    outer loop
      vertex 65.5 13 15
      vertex 65.5 2 0
      vertex 65.5 2 15
    endloop
  endfacet
  facet normal 1 -0 0
    outer loop
      vertex 54.5 2 15
      vertex 54.5 13 0
      vertex 54.5 13 15
    endloop
  endfacet
  facet normal 1 0 0
    outer loop
      vertex 54.5 13 0
      vertex 54.5 2 15
      vertex 54.5 2 0
    endloop
  endfacet
  facet normal 0 -1 0
    outer loop
      vertex 54.5 13 0
      vertex 65.5 13 15
      vertex 54.5 13 15
    endloop
  endfacet
  facet normal 0 -1 -0
    outer loop
      vertex 65.5 13 15
      vertex 54.5 13 0
      vertex 65.5 13 0
    endloop
  endfacet
  facet normal 0 1 -0
    outer loop
      vertex 65.5 2 0
      vertex 54.5 2 15
      vertex 65.5 2 15
    endloop
  endfacet
  facet normal 0 1 0
    outer loop
      vertex 54.5 2 15
      vertex 65.5 2 0
      vertex 54.5 2 0
    endloop
  endfacet
  facet normal 0 0 1
    outer loop
      vertex 165 15 15
      vertex 163 13 15
      vertex 165 0 15
    endloop
  endfacet
  facet normal 0 0 1
    outer loop
      vertex 165 15 15
      vertex 152 13 15
      vertex 163 13 15
    endloop
  endfacet
  facet normal 0 0 1
    outer loop
      vertex 152 13 15
      vertex 148 13 15
      vertex 152 2 15
    endloop
  endfacet
  facet normal 0 0 1
    outer loop
      vertex 165 15 15
      vertex 148 13 15
      vertex 152 13 15
    endloop
  endfacet
  facet normal 0 0 1
    outer loop
      vertex 165 15 15
      vertex 137 13 15
      vertex 148 13 15
    endloop
  endfacet
  facet normal 0 0 1
    outer loop
      vertex 137 13 15
      vertex 133 13 15
      vertex 137 2 15
    endloop
  endfacet
  facet normal 0 0 1
    outer loop
      vertex 165 15 15
      vertex 133 13 15
      vertex 137 13 15
    endloop
  endfacet
  facet normal -0 0 1
    outer loop
      vertex 105 15 15
      vertex 133 13 15
      vertex 165 15 15
    endloop
  endfacet
  facet normal 0 0 1
    outer loop
      vertex 122 13 15
      vertex 118 13 15
      vertex 122 2 15
    endloop
  endfacet
  facet normal 0 0 1
    outer loop
      vertex 133 13 15
      vertex 105 15 15
      vertex 122 13 15
    endloop
  endfacet
  facet normal 0 0 1
    outer loop
      vertex 122 13 15
      vertex 105 15 15
      vertex 118 13 15
    endloop
  endfacet
  facet normal 0 0 1
    outer loop
      vertex 107 13 15
      vertex 105 15 15
      vertex 107 2 15
    endloop
  endfacet
  facet normal 0 0 1
    outer loop
      vertex 118 13 15
      vertex 105 15 15
      vertex 107 13 15
    endloop
  endfacet
  facet normal -0 0 1
    outer loop
      vertex 163 2 15
      vertex 165 0 15
      vertex 163 13 15
    endloop
  endfacet
  facet normal -0 0 1
    outer loop
      vertex 152 2 15
      vertex 165 0 15
      vertex 163 2 15
    endloop
  endfacet
  facet normal 0 0 1
    outer loop
      vertex 148 2 15
      vertex 152 2 15
      vertex 148 13 15
    endloop
  endfacet
  facet normal -0 0 1
    outer loop
      vertex 148 2 15
      vertex 165 0 15
      vertex 152 2 15
    endloop
  endfacet
  facet normal -0 0 1
    outer loop
      vertex 137 2 15
      vertex 165 0 15
      vertex 148 2 15
    endloop
  endfacet
  facet normal 0 0 1
    outer loop
      vertex 133 2 15
      vertex 137 2 15
      vertex 133 13 15
    endloop
  endfacet
  facet normal -0 0 1
    outer loop
      vertex 133 2 15
      vertex 165 0 15
      vertex 137 2 15
    endloop
  endfacet
  facet normal 0 0 1
    outer loop
      vertex 105 0 15
      vertex 133 2 15
      vertex 122 2 15
    endloop
  endfacet
  facet normal 0 0 1
    outer loop
      vertex 118 2 15
      vertex 122 2 15
      vertex 118 13 15
    endloop
  endfacet
  facet normal 0 0 1
    outer loop
      vertex 105 0 15
      vertex 122 2 15
      vertex 118 2 15
    endloop
  endfacet
  facet normal 0 0 1
    outer loop
      vertex 105 0 15
      vertex 118 2 15
      vertex 107 2 15
    endloop
  endfacet
  facet normal 0 0 1
    outer loop
      vertex 133 2 15
      vertex 105 0 15
      vertex 165 0 15
    endloop
  endfacet
  facet normal 0 0 1
    outer loop
      vertex 105 0 15
      vertex 107 2 15
      vertex 105 15 15
    endloop
  endfacet
  facet normal 0 0 -1
    outer loop
      vertex 165 0 0
      vertex 163 2 0
      vertex 165 15 0
    endloop
  endfacet
  facet normal 0 0 -1
    outer loop
      vertex 165 0 0
      vertex 152 2 0
      vertex 163 2 0
    endloop
  endfacet
  facet normal 0 0 -1
    outer loop
      vertex 152 2 0
      vertex 148 2 0
      vertex 152 13 0
    endloop
  endfacet
  facet normal 0 0 -1
    outer loop
      vertex 165 0 0
      vertex 148 2 0
      vertex 152 2 0
    endloop
  endfacet
  facet normal 0 0 -1
    outer loop
      vertex 165 0 0
      vertex 137 2 0
      vertex 148 2 0
    endloop
  endfacet
  facet normal 0 0 -1
    outer loop
      vertex 137 2 0
      vertex 133 2 0
      vertex 137 13 0
    endloop
  endfacet
  facet normal 0 0 -1
    outer loop
      vertex 165 0 0
      vertex 133 2 0
      vertex 137 2 0
    endloop
  endfacet
  facet normal 0 0 -1
    outer loop
      vertex 105 0 0
      vertex 133 2 0
      vertex 165 0 0
    endloop
  endfacet
  facet normal 0 0 -1
    outer loop
      vertex 122 2 0
      vertex 118 2 0
      vertex 122 13 0
    endloop
  endfacet
  facet normal -0 0 -1
    outer loop
      vertex 133 2 0
      vertex 105 0 0
      vertex 122 2 0
    endloop
  endfacet
  facet normal -0 0 -1
    outer loop
      vertex 122 2 0
      vertex 105 0 0
      vertex 118 2 0
    endloop
  endfacet
  facet normal -0 0 -1
    outer loop
      vertex 107 2 0
      vertex 105 0 0
      vertex 107 13 0
    endloop
  endfacet
  facet normal -0 0 -1
    outer loop
      vertex 118 2 0
      vertex 105 0 0
      vertex 107 2 0
    endloop
  endfacet
  facet normal 0 0 -1
    outer loop
      vertex 163 13 0
      vertex 165 15 0
      vertex 163 2 0
    endloop
  endfacet
  facet normal 0 0 -1
    outer loop
      vertex 152 13 0
      vertex 165 15 0
      vertex 163 13 0
    endloop
  endfacet
  facet normal 0 0 -1
    outer loop
      vertex 148 13 0
      vertex 152 13 0
      vertex 148 2 0
    endloop
  endfacet
  facet normal 0 0 -1
    outer loop
      vertex 148 13 0
      vertex 165 15 0
      vertex 152 13 0
    endloop
  endfacet
  facet normal 0 0 -1
    outer loop
      vertex 137 13 0
      vertex 165 15 0
      vertex 148 13 0
    endloop
  endfacet
  facet normal 0 0 -1
    outer loop
      vertex 133 13 0
      vertex 137 13 0
      vertex 133 2 0
    endloop
  endfacet
  facet normal 0 0 -1
    outer loop
      vertex 133 13 0
      vertex 165 15 0
      vertex 137 13 0
    endloop
  endfacet
  facet normal 0 0 -1
    outer loop
      vertex 105 15 0
      vertex 133 13 0
      vertex 122 13 0
    endloop
  endfacet
  facet normal 0 0 -1
    outer loop
      vertex 118 13 0
      vertex 122 13 0
      vertex 118 2 0
    endloop
  endfacet
  facet normal 0 0 -1
    outer loop
      vertex 105 15 0
      vertex 122 13 0
      vertex 118 13 0
    endloop
  endfacet
  facet normal 0 0 -1
    outer loop
      vertex 105 15 0
      vertex 118 13 0
      vertex 107 13 0
    endloop
  endfacet
  facet normal 0 0 -1
    outer loop
      vertex 133 13 0
      vertex 105 15 0
      vertex 165 15 0
    endloop
  endfacet
  facet normal 0 0 -1
    outer loop
      vertex 105 15 0
      vertex 107 13 0
      vertex 105 0 0
    endloop
  endfacet
  facet normal 0 1 -0
    outer loop
      vertex 165 15 0
      vertex 105 15 15
      vertex 165 15 15
    endloop
  endfacet
  facet normal 0 1 0
    outer loop
      vertex 105 15 15
      vertex 165 15 0
      vertex 105 15 0
    endloop
  endfacet
  facet normal 0 -1 0
    outer loop
      vertex 105 0 0
      vertex 165 0 15
      vertex 105 0 15
    endloop
  endfacet
  facet normal 0 -1 -0
    outer loop
      vertex 165 0 15
      vertex 105 0 0
      vertex 165 0 0
    endloop
  endfacet
  facet normal -1 0 0
    outer loop
      vertex 133 2 0
      vertex 133 13 15
      vertex 133 13 0
    endloop
  endfacet
  facet normal -1 -0 0
    outer loop
      vertex 133 13 15
      vertex 133 2 0
      vertex 133 2 15
    endloop
  endfacet
  facet normal 1 -0 0
    outer loop
      vertex 122 2 15
      vertex 122 13 0
      vertex 122 13 15
    endloop
  endfacet
  facet normal 1 0 0
    outer loop
      vertex 122 13 0
      vertex 122 2 15
      vertex 122 2 0
    endloop
  endfacet
  facet normal 0 -1 0
    outer loop
      vertex 122 13 0
      vertex 133 13 15
      vertex 122 13 15
    endloop
  endfacet
  facet normal 0 -1 -0
    outer loop
      vertex 133 13 15
      vertex 122 13 0
      vertex 133 13 0
    endloop
  endfacet
  facet normal 0 1 -0
    outer loop
      vertex 133 2 0
      vertex 122 2 15
      vertex 133 2 15
    endloop
  endfacet
  facet normal 0 1 0
    outer loop
      vertex 122 2 15
      vertex 133 2 0
      vertex 122 2 0
    endloop
  endfacet
  facet normal -1 0 0
    outer loop
      vertex 148 2 0
      vertex 148 13 15
      vertex 148 13 0
    endloop
  endfacet
  facet normal -1 -0 0
    outer loop
      vertex 148 13 15
      vertex 148 2 0
      vertex 148 2 15
    endloop
  endfacet
  facet normal 1 -0 0
    outer loop
      vertex 137 2 15
      vertex 137 13 0
      vertex 137 13 15
    endloop
  endfacet
  facet normal 1 0 0
    outer loop
      vertex 137 13 0
      vertex 137 2 15
      vertex 137 2 0
    endloop
  endfacet
  facet normal 0 -1 0
    outer loop
      vertex 137 13 0
      vertex 148 13 15
      vertex 137 13 15
    endloop
  endfacet
  facet normal 0 -1 -0
    outer loop
      vertex 148 13 15
      vertex 137 13 0
      vertex 148 13 0
    endloop
  endfacet
  facet normal 0 1 -0
    outer loop
      vertex 148 2 0
      vertex 137 2 15
      vertex 148 2 15
    endloop
  endfacet
  facet normal 0 1 0
    outer loop
      vertex 137 2 15
      vertex 148 2 0
      vertex 137 2 0
    endloop
  endfacet
  facet normal -1 0 0
    outer loop
      vertex 105 0 0
      vertex 105 15 15
      vertex 105 15 0
    endloop
  endfacet
  facet normal -1 -0 0
    outer loop
      vertex 105 15 15
      vertex 105 0 0
      vertex 105 0 15
    endloop
  endfacet
  facet normal -1 0 0
    outer loop
      vertex 118 2 0
      vertex 118 13 15
      vertex 118 13 0
    endloop
  endfacet
  facet normal -1 -0 0
    outer loop
      vertex 118 13 15
      vertex 118 2 0
      vertex 118 2 15
    endloop
  endfacet
  facet normal 1 -0 0
    outer loop
      vertex 107 2 15
      vertex 107 13 0
      vertex 107 13 15
    endloop
  endfacet
  facet normal 1 0 0
    outer loop
      vertex 107 13 0
      vertex 107 2 15
      vertex 107 2 0
    endloop
  endfacet
  facet normal 0 -1 0
    outer loop
      vertex 107 13 0
      vertex 118 13 15
      vertex 107 13 15
    endloop
  endfacet
  facet normal 0 -1 -0
    outer loop
      vertex 118 13 15
      vertex 107 13 0
      vertex 118 13 0
    endloop
  endfacet
  facet normal 0 1 -0
    outer loop
      vertex 118 2 0
      vertex 107 2 15
      vertex 118 2 15
    endloop
  endfacet
  facet normal 0 1 0
    outer loop
      vertex 107 2 15
      vertex 118 2 0
      vertex 107 2 0
    endloop
  endfacet
  facet normal 1 -0 0
    outer loop
      vertex 165 0 15
      vertex 165 15 0
      vertex 165 15 15
    endloop
  endfacet
  facet normal 1 0 0
    outer loop
      vertex 165 15 0
      vertex 165 0 15
      vertex 165 0 0
    endloop
  endfacet
  facet normal -1 0 0
    outer loop
      vertex 163 2 0
      vertex 163 13 15
      vertex 163 13 0
    endloop
  endfacet
  facet normal -1 -0 0
    outer loop
      vertex 163 13 15
      vertex 163 2 0
      vertex 163 2 15
    endloop
  endfacet
  facet normal 1 -0 0
    outer loop
      vertex 152 2 15
      vertex 152 13 0
      vertex 152 13 15
    endloop
  endfacet
  facet normal 1 0 0
    outer loop
      vertex 152 13 0
      vertex 152 2 15
      vertex 152 2 0
    endloop
  endfacet
  facet normal 0 -1 0
    outer loop
      vertex 152 13 0
      vertex 163 13 15
      vertex 152 13 15
    endloop
  endfacet
  facet normal 0 -1 -0
    outer loop
      vertex 163 13 15
      vertex 152 13 0
      vertex 163 13 0
    endloop
  endfacet
  facet normal 0 1 -0
    outer loop
      vertex 163 2 0
      vertex 152 2 15
      vertex 163 2 15
    endloop
  endfacet
  facet normal 0 1 0
    outer loop
      vertex 152 2 15
      vertex 163 2 0
      vertex 152 2 0
    endloop
  endfacet
  facet normal -0 0 1
    outer loop
      vertex 2 54.5 15
      vertex 13 50.5 15
      vertex 13 54.5 15
    endloop
  endfacet
  facet normal 0 0 1
    outer loop
      vertex 13 50.5 15
      vertex 2 54.5 15
      vertex 2 50.5 15
    endloop
  endfacet
  facet normal -0 0 1
    outer loop
      vertex 17 54.5 15
      vertex 28 50.5 15
      vertex 28 54.5 15
    endloop
  endfacet
  facet normal 0 0 1
    outer loop
      vertex 28 50.5 15
      vertex 17 54.5 15
      vertex 17 50.5 15
    endloop
  endfacet
  facet normal 0 0 1
    outer loop
      vertex 28 54.5 15
      vertex 30 67.5 15
      vertex 28 65.5 15
    endloop
  endfacet
  facet normal 0 0 1
    outer loop
      vertex 30 67.5 15
      vertex 17 65.5 15
      vertex 28 65.5 15
    endloop
  endfacet
  facet normal 0 0 1
    outer loop
      vertex 13 54.5 15
      vertex 17 54.5 15
      vertex 17 65.5 15
    endloop
  endfacet
  facet normal 0 0 1
    outer loop
      vertex 17 54.5 15
      vertex 13 54.5 15
      vertex 17 50.5 15
    endloop
  endfacet
  facet normal 0 0 1
    outer loop
      vertex 13 54.5 15
      vertex 17 65.5 15
      vertex 13 65.5 15
    endloop
  endfacet
  facet normal 0 0 1
    outer loop
      vertex 30 67.5 15
      vertex 13 65.5 15
      vertex 17 65.5 15
    endloop
  endfacet
  facet normal -0 0 1
    outer loop
      vertex 0 67.5 15
      vertex 13 65.5 15
      vertex 30 67.5 15
    endloop
  endfacet
  facet normal 0 0 1
    outer loop
      vertex 0 67.5 15
      vertex 2 54.5 15
      vertex 2 65.5 15
    endloop
  endfacet
  facet normal 0 0 1
    outer loop
      vertex 2 54.5 15
      vertex 0 67.5 15
      vertex 2 50.5 15
    endloop
  endfacet
  facet normal 0 0 1
    outer loop
      vertex 0 37.5 15
      vertex 2 50.5 15
      vertex 0 67.5 15
    endloop
  endfacet
  facet normal 0 0 1
    outer loop
      vertex 13 65.5 15
      vertex 0 67.5 15
      vertex 2 65.5 15
    endloop
  endfacet
  facet normal 0 0 1
    outer loop
      vertex 30 67.5 15
      vertex 28 54.5 15
      vertex 30 37.5 15
    endloop
  endfacet
  facet normal -0 0 1
    outer loop
      vertex 28 50.5 15
      vertex 30 37.5 15
      vertex 28 54.5 15
    endloop
  endfacet
  facet normal -0 0 1
    outer loop
      vertex 28 39.5 15
      vertex 30 37.5 15
      vertex 28 50.5 15
    endloop
  endfacet
  facet normal -0 0 1
    outer loop
      vertex 17 39.5 15
      vertex 30 37.5 15
      vertex 28 39.5 15
    endloop
  endfacet
  facet normal 0 0 1
    outer loop
      vertex 13 50.5 15
      vertex 17 50.5 15
      vertex 13 54.5 15
    endloop
  endfacet
  facet normal 0 0 1
    outer loop
      vertex 17 50.5 15
      vertex 13 50.5 15
      vertex 17 39.5 15
    endloop
  endfacet
  facet normal 0 0 1
    outer loop
      vertex 13 39.5 15
      vertex 17 39.5 15
      vertex 13 50.5 15
    endloop
  endfacet
  facet normal -0 0 1
    outer loop
      vertex 13 39.5 15
      vertex 30 37.5 15
      vertex 17 39.5 15
    endloop
  endfacet
  facet normal 0 0 1
    outer loop
      vertex 0 37.5 15
      vertex 13 39.5 15
      vertex 2 39.5 15
    endloop
  endfacet
  facet normal 0 0 1
    outer loop
      vertex 13 39.5 15
      vertex 0 37.5 15
      vertex 30 37.5 15
    endloop
  endfacet
  facet normal 0 0 1
    outer loop
      vertex 2 50.5 15
      vertex 0 37.5 15
      vertex 2 39.5 15
    endloop
  endfacet
  facet normal 0 0 -1
    outer loop
      vertex 2 50.5 0
      vertex 13 54.5 0
      vertex 13 50.5 0
    endloop
  endfacet
  facet normal -0 0 -1
    outer loop
      vertex 13 54.5 0
      vertex 2 50.5 0
      vertex 2 54.5 0
    endloop
  endfacet
  facet normal 0 0 -1
    outer loop
      vertex 17 50.5 0
      vertex 28 54.5 0
      vertex 28 50.5 0
    endloop
  endfacet
  facet normal -0 0 -1
    outer loop
      vertex 28 54.5 0
      vertex 17 50.5 0
      vertex 17 54.5 0
    endloop
  endfacet
  facet normal 0 0 -1
    outer loop
      vertex 28 50.5 0
      vertex 30 37.5 0
      vertex 28 39.5 0
    endloop
  endfacet
  facet normal 0 0 -1
    outer loop
      vertex 30 37.5 0
      vertex 17 39.5 0
      vertex 28 39.5 0
    endloop
  endfacet
  facet normal 0 0 -1
    outer loop
      vertex 13 50.5 0
      vertex 17 50.5 0
      vertex 17 39.5 0
    endloop
  endfacet
  facet normal 0 0 -1
    outer loop
      vertex 17 50.5 0
      vertex 13 50.5 0
      vertex 17 54.5 0
    endloop
  endfacet
  facet normal 0 0 -1
    outer loop
      vertex 13 50.5 0
      vertex 17 39.5 0
      vertex 13 39.5 0
    endloop
  endfacet
  facet normal 0 0 -1
    outer loop
      vertex 30 37.5 0
      vertex 13 39.5 0
      vertex 17 39.5 0
    endloop
  endfacet
  facet normal 0 0 -1
    outer loop
      vertex 0 37.5 0
      vertex 13 39.5 0
      vertex 30 37.5 0
    endloop
  endfacet
  facet normal 0 0 -1
    outer loop
      vertex 0 37.5 0
      vertex 2 50.5 0
      vertex 2 39.5 0
    endloop
  endfacet
  facet normal -0 0 -1
    outer loop
      vertex 2 50.5 0
      vertex 0 37.5 0
      vertex 2 54.5 0
    endloop
  endfacet
  facet normal 0 0 -1
    outer loop
      vertex 0 67.5 0
      vertex 2 54.5 0
      vertex 0 37.5 0
    endloop
  endfacet
  facet normal -0 0 -1
    outer loop
      vertex 13 39.5 0
      vertex 0 37.5 0
      vertex 2 39.5 0
    endloop
  endfacet
  facet normal 0 0 -1
    outer loop
      vertex 30 37.5 0
      vertex 28 50.5 0
      vertex 30 67.5 0
    endloop
  endfacet
  facet normal 0 0 -1
    outer loop
      vertex 28 54.5 0
      vertex 30 67.5 0
      vertex 28 50.5 0
    endloop
  endfacet
  facet normal 0 0 -1
    outer loop
      vertex 28 65.5 0
      vertex 30 67.5 0
      vertex 28 54.5 0
    endloop
  endfacet
  facet normal 0 0 -1
    outer loop
      vertex 17 65.5 0
      vertex 30 67.5 0
      vertex 28 65.5 0
    endloop
  endfacet
  facet normal 0 0 -1
    outer loop
      vertex 13 54.5 0
      vertex 17 54.5 0
      vertex 13 50.5 0
    endloop
  endfacet
  facet normal 0 0 -1
    outer loop
      vertex 17 54.5 0
      vertex 13 54.5 0
      vertex 17 65.5 0
    endloop
  endfacet
  facet normal 0 0 -1
    outer loop
      vertex 13 65.5 0
      vertex 17 65.5 0
      vertex 13 54.5 0
    endloop
  endfacet
  facet normal 0 0 -1
    outer loop
      vertex 13 65.5 0
      vertex 30 67.5 0
      vertex 17 65.5 0
    endloop
  endfacet
  facet normal 0 0 -1
    outer loop
      vertex 0 67.5 0
      vertex 13 65.5 0
      vertex 2 65.5 0
    endloop
  endfacet
  facet normal 0 0 -1
    outer loop
      vertex 13 65.5 0
      vertex 0 67.5 0
      vertex 30 67.5 0
    endloop
  endfacet
  facet normal 0 0 -1
    outer loop
      vertex 2 54.5 0
      vertex 0 67.5 0
      vertex 2 65.5 0
    endloop
  endfacet
  facet normal -1 0 0
    outer loop
      vertex 0 37.5 0
      vertex 0 67.5 15
      vertex 0 67.5 0
    endloop
  endfacet
  facet normal -1 -0 0
    outer loop
      vertex 0 67.5 15
      vertex 0 37.5 0
      vertex 0 37.5 15
    endloop
  endfacet
  facet normal 0 1 -0
    outer loop
      vertex 30 67.5 0
      vertex 0 67.5 15
      vertex 30 67.5 15
    endloop
  endfacet
  facet normal 0 1 0
    outer loop
      vertex 0 67.5 15
      vertex 30 67.5 0
      vertex 0 67.5 0
    endloop
  endfacet
  facet normal -1 0 0
    outer loop
      vertex 13 54.5 0
      vertex 13 65.5 15
      vertex 13 65.5 0
    endloop
  endfacet
  facet normal -1 -0 0
    outer loop
      vertex 13 65.5 15
      vertex 13 54.5 0
      vertex 13 54.5 15
    endloop
  endfacet
  facet normal 1 -0 0
    outer loop
      vertex 2 54.5 15
      vertex 2 65.5 0
      vertex 2 65.5 15
    endloop
  endfacet
  facet normal 1 0 0
    outer loop
      vertex 2 65.5 0
      vertex 2 54.5 15
      vertex 2 54.5 0
    endloop
  endfacet
  facet normal 0 -1 0
    outer loop
      vertex 2 65.5 0
      vertex 13 65.5 15
      vertex 2 65.5 15
    endloop
  endfacet
  facet normal 0 -1 -0
    outer loop
      vertex 13 65.5 15
      vertex 2 65.5 0
      vertex 13 65.5 0
    endloop
  endfacet
  facet normal 0 1 -0
    outer loop
      vertex 13 54.5 0
      vertex 2 54.5 15
      vertex 13 54.5 15
    endloop
  endfacet
  facet normal 0 1 0
    outer loop
      vertex 2 54.5 15
      vertex 13 54.5 0
      vertex 2 54.5 0
    endloop
  endfacet
  facet normal 1 -0 0
    outer loop
      vertex 30 37.5 15
      vertex 30 67.5 0
      vertex 30 67.5 15
    endloop
  endfacet
  facet normal 1 0 0
    outer loop
      vertex 30 67.5 0
      vertex 30 37.5 15
      vertex 30 37.5 0
    endloop
  endfacet
  facet normal -1 0 0
    outer loop
      vertex 28 54.5 0
      vertex 28 65.5 15
      vertex 28 65.5 0
    endloop
  endfacet
  facet normal -1 -0 0
    outer loop
      vertex 28 65.5 15
      vertex 28 54.5 0
      vertex 28 54.5 15
    endloop
  endfacet
  facet normal 1 -0 0
    outer loop
      vertex 17 54.5 15
      vertex 17 65.5 0
      vertex 17 65.5 15
    endloop
  endfacet
  facet normal 1 0 0
    outer loop
      vertex 17 65.5 0
      vertex 17 54.5 15
      vertex 17 54.5 0
    endloop
  endfacet
  facet normal 0 -1 0
    outer loop
      vertex 17 65.5 0
      vertex 28 65.5 15
      vertex 17 65.5 15
    endloop
  endfacet
  facet normal 0 -1 -0
    outer loop
      vertex 28 65.5 15
      vertex 17 65.5 0
      vertex 28 65.5 0
    endloop
  endfacet
  facet normal 0 1 -0
    outer loop
      vertex 28 54.5 0
      vertex 17 54.5 15
      vertex 28 54.5 15
    endloop
  endfacet
  facet normal 0 1 0
    outer loop
      vertex 17 54.5 15
      vertex 28 54.5 0
      vertex 17 54.5 0
    endloop
  endfacet
  facet normal 0 -1 0
    outer loop
      vertex 0 37.5 0
      vertex 30 37.5 15
      vertex 0 37.5 15
    endloop
  endfacet
  facet normal 0 -1 -0
    outer loop
      vertex 30 37.5 15
      vertex 0 37.5 0
      vertex 30 37.5 0
    endloop
  endfacet
  facet normal -1 0 0
    outer loop
      vertex 28 39.5 0
      vertex 28 50.5 15
      vertex 28 50.5 0
    endloop
  endfacet
  facet normal -1 -0 0
    outer loop
      vertex 28 50.5 15
      vertex 28 39.5 0
      vertex 28 39.5 15
    endloop
  endfacet
  facet normal 1 -0 0
    outer loop
      vertex 17 39.5 15
      vertex 17 50.5 0
      vertex 17 50.5 15
    endloop
  endfacet
  facet normal 1 0 0
    outer loop
      vertex 17 50.5 0
      vertex 17 39.5 15
      vertex 17 39.5 0
    endloop
  endfacet
  facet normal 0 -1 0
    outer loop
      vertex 17 50.5 0
      vertex 28 50.5 15
      vertex 17 50.5 15
    endloop
  endfacet
  facet normal 0 -1 -0
    outer loop
      vertex 28 50.5 15
      vertex 17 50.5 0
      vertex 28 50.5 0
    endloop
  endfacet
  facet normal 0 1 -0
    outer loop
      vertex 28 39.5 0
      vertex 17 39.5 15
      vertex 28 39.5 15
    endloop
  endfacet
  facet normal 0 1 0
    outer loop
      vertex 17 39.5 15
      vertex 28 39.5 0
      vertex 17 39.5 0
    endloop
  endfacet
  facet normal -1 0 0
    outer loop
      vertex 13 39.5 0
      vertex 13 50.5 15
      vertex 13 50.5 0
    endloop
  endfacet
  facet normal -1 -0 0
    outer loop
      vertex 13 50.5 15
      vertex 13 39.5 0
      vertex 13 39.5 15
    endloop
  endfacet
  facet normal 1 -0 0
    outer loop
      vertex 2 39.5 15
      vertex 2 50.5 0
      vertex 2 50.5 15
    endloop
  endfacet
  facet normal 1 0 0
    outer loop
      vertex 2 50.5 0
      vertex 2 39.5 15
      vertex 2 39.5 0
    endloop
  endfacet
  facet normal 0 -1 0
    outer loop
      vertex 2 50.5 0
      vertex 13 50.5 15
      vertex 2 50.5 15
    endloop
  endfacet
  facet normal 0 -1 -0
    outer loop
      vertex 13 50.5 15
      vertex 2 50.5 0
      vertex 13 50.5 0
    endloop
  endfacet
  facet normal 0 1 -0
    outer loop
      vertex 13 39.5 0
      vertex 2 39.5 15
      vertex 13 39.5 15
    endloop
  endfacet
  facet normal 0 1 0
    outer loop
      vertex 2 39.5 15
      vertex 13 39.5 0
      vertex 2 39.5 0
    endloop
  endfacet
  facet normal 1 -0 0
    outer loop
      vertex 82.5 52.5 15
      vertex 82.5 67.5 0
      vertex 82.5 67.5 15
    endloop
  endfacet
  facet normal 1 0 0
    outer loop
      vertex 82.5 67.5 0
      vertex 82.5 52.5 15
      vertex 82.5 52.5 0
    endloop
  endfacet
  facet normal 0 0 1
    outer loop
      vertex 67.5 52.5 15
      vertex 54.5 50.5 15
      vertex 65.5 50.5 15
    endloop
  endfacet
  facet normal 0 0 1
    outer loop
      vertex 54.5 50.5 15
      vertex 52.5 52.5 15
      vertex 54.5 39.5 15
    endloop
  endfacet
  facet normal -0 0 1
    outer loop
      vertex 52.5 52.5 15
      vertex 54.5 50.5 15
      vertex 67.5 52.5 15
    endloop
  endfacet
  facet normal -0 0 1
    outer loop
      vertex 69.5 54.5 15
      vertex 80.5 50.5 15
      vertex 80.5 54.5 15
    endloop
  endfacet
  facet normal 0 0 1
    outer loop
      vertex 80.5 50.5 15
      vertex 69.5 54.5 15
      vertex 69.5 50.5 15
    endloop
  endfacet
  facet normal 0 0 1
    outer loop
      vertex 82.5 67.5 15
      vertex 80.5 65.5 15
      vertex 82.5 52.5 15
    endloop
  endfacet
  facet normal 0 0 1
    outer loop
      vertex 82.5 67.5 15
      vertex 69.5 65.5 15
      vertex 80.5 65.5 15
    endloop
  endfacet
  facet normal 0 0 1
    outer loop
      vertex 67.5 52.5 15
      vertex 69.5 54.5 15
      vertex 69.5 65.5 15
    endloop
  endfacet
  facet normal 0 0 1
    outer loop
      vertex 69.5 54.5 15
      vertex 67.5 52.5 15
      vertex 69.5 50.5 15
    endloop
  endfacet
  facet normal 0 0 1
    outer loop
      vertex 67.5 52.5 15
      vertex 69.5 65.5 15
      vertex 67.5 67.5 15
    endloop
  endfacet
  facet normal -0 0 1
    outer loop
      vertex 67.5 67.5 15
      vertex 69.5 65.5 15
      vertex 82.5 67.5 15
    endloop
  endfacet
  facet normal 0 0 1
    outer loop
      vertex 97.5 52.5 15
      vertex 95.5 50.5 15
      vertex 97.5 37.5 15
    endloop
  endfacet
  facet normal 0 0 1
    outer loop
      vertex 97.5 52.5 15
      vertex 84.5 50.5 15
      vertex 95.5 50.5 15
    endloop
  endfacet
  facet normal 0 0 1
    outer loop
      vertex 80.5 50.5 15
      vertex 84.5 50.5 15
      vertex 82.5 52.5 15
    endloop
  endfacet
  facet normal -0 0 1
    outer loop
      vertex 82.5 52.5 15
      vertex 84.5 50.5 15
      vertex 97.5 52.5 15
    endloop
  endfacet
  facet normal -0 0 1
    outer loop
      vertex 95.5 39.5 15
      vertex 97.5 37.5 15
      vertex 95.5 50.5 15
    endloop
  endfacet
  facet normal -0 0 1
    outer loop
      vertex 84.5 39.5 15
      vertex 97.5 37.5 15
      vertex 95.5 39.5 15
    endloop
  endfacet
  facet normal -0 0 1
    outer loop
      vertex 80.5 54.5 15
      vertex 82.5 52.5 15
      vertex 80.5 65.5 15
    endloop
  endfacet
  facet normal 0 0 1
    outer loop
      vertex 80.5 50.5 15
      vertex 82.5 52.5 15
      vertex 80.5 54.5 15
    endloop
  endfacet
  facet normal 0 0 1
    outer loop
      vertex 84.5 50.5 15
      vertex 80.5 50.5 15
      vertex 84.5 39.5 15
    endloop
  endfacet
  facet normal 0 0 1
    outer loop
      vertex 80.5 39.5 15
      vertex 84.5 39.5 15
      vertex 80.5 50.5 15
    endloop
  endfacet
  facet normal -0 0 1
    outer loop
      vertex 80.5 39.5 15
      vertex 97.5 37.5 15
      vertex 84.5 39.5 15
    endloop
  endfacet
  facet normal -0 0 1
    outer loop
      vertex 69.5 39.5 15
      vertex 97.5 37.5 15
      vertex 80.5 39.5 15
    endloop
  endfacet
  facet normal 0 0 1
    outer loop
      vertex 65.5 50.5 15
      vertex 69.5 50.5 15
      vertex 67.5 52.5 15
    endloop
  endfacet
  facet normal 0 0 1
    outer loop
      vertex 69.5 50.5 15
      vertex 65.5 50.5 15
      vertex 69.5 39.5 15
    endloop
  endfacet
  facet normal 0 0 1
    outer loop
      vertex 65.5 39.5 15
      vertex 69.5 39.5 15
      vertex 65.5 50.5 15
    endloop
  endfacet
  facet normal 0 0 1
    outer loop
      vertex 52.5 37.5 15
      vertex 69.5 39.5 15
      vertex 65.5 39.5 15
    endloop
  endfacet
  facet normal 0 0 1
    outer loop
      vertex 52.5 37.5 15
      vertex 65.5 39.5 15
      vertex 54.5 39.5 15
    endloop
  endfacet
  facet normal 0 0 1
    outer loop
      vertex 69.5 39.5 15
      vertex 52.5 37.5 15
      vertex 97.5 37.5 15
    endloop
  endfacet
  facet normal 0 0 1
    outer loop
      vertex 52.5 37.5 15
      vertex 54.5 39.5 15
      vertex 52.5 52.5 15
    endloop
  endfacet
  facet normal 0 0 -1
    outer loop
      vertex 69.5 50.5 0
      vertex 80.5 54.5 0
      vertex 80.5 50.5 0
    endloop
  endfacet
  facet normal -0 0 -1
    outer loop
      vertex 80.5 54.5 0
      vertex 69.5 50.5 0
      vertex 69.5 54.5 0
    endloop
  endfacet
  facet normal 0 0 -1
    outer loop
      vertex 97.5 37.5 0
      vertex 95.5 39.5 0
      vertex 97.5 52.5 0
    endloop
  endfacet
  facet normal 0 0 -1
    outer loop
      vertex 97.5 37.5 0
      vertex 84.5 39.5 0
      vertex 95.5 39.5 0
    endloop
  endfacet
  facet normal 0 0 -1
    outer loop
      vertex 80.5 50.5 0
      vertex 84.5 50.5 0
      vertex 84.5 39.5 0
    endloop
  endfacet
  facet normal 0 0 -1
    outer loop
      vertex 84.5 50.5 0
      vertex 80.5 50.5 0
      vertex 82.5 52.5 0
    endloop
  endfacet
  facet normal 0 0 -1
    outer loop
      vertex 80.5 50.5 0
      vertex 84.5 39.5 0
      vertex 80.5 39.5 0
    endloop
  endfacet
  facet normal 0 0 -1
    outer loop
      vertex 97.5 37.5 0
      vertex 80.5 39.5 0
      vertex 84.5 39.5 0
    endloop
  endfacet
  facet normal 0 0 -1
    outer loop
      vertex 97.5 37.5 0
      vertex 69.5 39.5 0
      vertex 80.5 39.5 0
    endloop
  endfacet
  facet normal 0 0 -1
    outer loop
      vertex 65.5 50.5 0
      vertex 69.5 50.5 0
      vertex 69.5 39.5 0
    endloop
  endfacet
  facet normal 0 0 -1
    outer loop
      vertex 69.5 50.5 0
      vertex 67.5 52.5 0
      vertex 69.5 54.5 0
    endloop
  endfacet
  facet normal -0 0 -1
    outer loop
      vertex 69.5 54.5 0
      vertex 67.5 52.5 0
      vertex 69.5 65.5 0
    endloop
  endfacet
  facet normal 0 0 -1
    outer loop
      vertex 65.5 50.5 0
      vertex 69.5 39.5 0
      vertex 65.5 39.5 0
    endloop
  endfacet
  facet normal 0 0 -1
    outer loop
      vertex 52.5 37.5 0
      vertex 69.5 39.5 0
      vertex 97.5 37.5 0
    endloop
  endfacet
  facet normal -0 0 -1
    outer loop
      vertex 69.5 39.5 0
      vertex 52.5 37.5 0
      vertex 65.5 39.5 0
    endloop
  endfacet
  facet normal -0 0 -1
    outer loop
      vertex 54.5 39.5 0
      vertex 52.5 37.5 0
      vertex 54.5 50.5 0
    endloop
  endfacet
  facet normal -0 0 -1
    outer loop
      vertex 65.5 39.5 0
      vertex 52.5 37.5 0
      vertex 54.5 39.5 0
    endloop
  endfacet
  facet normal 0 0 -1
    outer loop
      vertex 95.5 50.5 0
      vertex 97.5 52.5 0
      vertex 95.5 39.5 0
    endloop
  endfacet
  facet normal 0 0 -1
    outer loop
      vertex 84.5 50.5 0
      vertex 97.5 52.5 0
      vertex 95.5 50.5 0
    endloop
  endfacet
  facet normal -0 0 -1
    outer loop
      vertex 97.5 52.5 0
      vertex 84.5 50.5 0
      vertex 82.5 52.5 0
    endloop
  endfacet
  facet normal 0 0 -1
    outer loop
      vertex 80.5 54.5 0
      vertex 82.5 52.5 0
      vertex 80.5 50.5 0
    endloop
  endfacet
  facet normal 0 0 -1
    outer loop
      vertex 82.5 52.5 0
      vertex 80.5 54.5 0
      vertex 82.5 67.5 0
    endloop
  endfacet
  facet normal 0 0 -1
    outer loop
      vertex 80.5 65.5 0
      vertex 82.5 67.5 0
      vertex 80.5 54.5 0
    endloop
  endfacet
  facet normal 0 0 -1
    outer loop
      vertex 69.5 65.5 0
      vertex 82.5 67.5 0
      vertex 80.5 65.5 0
    endloop
  endfacet
  facet normal 0 0 -1
    outer loop
      vertex 69.5 65.5 0
      vertex 67.5 67.5 0
      vertex 82.5 67.5 0
    endloop
  endfacet
  facet normal 0 0 -1
    outer loop
      vertex 67.5 67.5 0
      vertex 69.5 65.5 0
      vertex 67.5 52.5 0
    endloop
  endfacet
  facet normal 0 0 -1
    outer loop
      vertex 69.5 50.5 0
      vertex 65.5 50.5 0
      vertex 67.5 52.5 0
    endloop
  endfacet
  facet normal 0 0 -1
    outer loop
      vertex 54.5 50.5 0
      vertex 67.5 52.5 0
      vertex 65.5 50.5 0
    endloop
  endfacet
  facet normal 0 0 -1
    outer loop
      vertex 54.5 50.5 0
      vertex 52.5 52.5 0
      vertex 67.5 52.5 0
    endloop
  endfacet
  facet normal 0 0 -1
    outer loop
      vertex 52.5 52.5 0
      vertex 54.5 50.5 0
      vertex 52.5 37.5 0
    endloop
  endfacet
  facet normal -1 0 0
    outer loop
      vertex 67.5 52.5 0
      vertex 67.5 67.5 15
      vertex 67.5 67.5 0
    endloop
  endfacet
  facet normal -1 -0 0
    outer loop
      vertex 67.5 67.5 15
      vertex 67.5 52.5 0
      vertex 67.5 52.5 15
    endloop
  endfacet
  facet normal 0 1 -0
    outer loop
      vertex 82.5 67.5 0
      vertex 67.5 67.5 15
      vertex 82.5 67.5 15
    endloop
  endfacet
  facet normal 0 1 0
    outer loop
      vertex 67.5 67.5 15
      vertex 82.5 67.5 0
      vertex 67.5 67.5 0
    endloop
  endfacet
  facet normal 0 1 -0
    outer loop
      vertex 97.5 52.5 0
      vertex 82.5 52.5 15
      vertex 97.5 52.5 15
    endloop
  endfacet
  facet normal 0 1 0
    outer loop
      vertex 82.5 52.5 15
      vertex 97.5 52.5 0
      vertex 82.5 52.5 0
    endloop
  endfacet
  facet normal -1 0 0
    outer loop
      vertex 80.5 54.5 0
      vertex 80.5 65.5 15
      vertex 80.5 65.5 0
    endloop
  endfacet
  facet normal -1 -0 0
    outer loop
      vertex 80.5 65.5 15
      vertex 80.5 54.5 0
      vertex 80.5 54.5 15
    endloop
  endfacet
  facet normal 1 -0 0
    outer loop
      vertex 69.5 54.5 15
      vertex 69.5 65.5 0
      vertex 69.5 65.5 15
    endloop
  endfacet
  facet normal 1 0 0
    outer loop
      vertex 69.5 65.5 0
      vertex 69.5 54.5 15
      vertex 69.5 54.5 0
    endloop
  endfacet
  facet normal 0 -1 0
    outer loop
      vertex 69.5 65.5 0
      vertex 80.5 65.5 15
      vertex 69.5 65.5 15
    endloop
  endfacet
  facet normal 0 -1 -0
    outer loop
      vertex 80.5 65.5 15
      vertex 69.5 65.5 0
      vertex 80.5 65.5 0
    endloop
  endfacet
  facet normal 0 1 -0
    outer loop
      vertex 80.5 54.5 0
      vertex 69.5 54.5 15
      vertex 80.5 54.5 15
    endloop
  endfacet
  facet normal 0 1 0
    outer loop
      vertex 69.5 54.5 15
      vertex 80.5 54.5 0
      vertex 69.5 54.5 0
    endloop
  endfacet
  facet normal 0 -1 0
    outer loop
      vertex 52.5 37.5 0
      vertex 97.5 37.5 15
      vertex 52.5 37.5 15
    endloop
  endfacet
  facet normal 0 -1 -0
    outer loop
      vertex 97.5 37.5 15
      vertex 52.5 37.5 0
      vertex 97.5 37.5 0
    endloop
  endfacet
  facet normal -1 0 0
    outer loop
      vertex 80.5 39.5 0
      vertex 80.5 50.5 15
      vertex 80.5 50.5 0
    endloop
  endfacet
  facet normal -1 -0 0
    outer loop
      vertex 80.5 50.5 15
      vertex 80.5 39.5 0
      vertex 80.5 39.5 15
    endloop
  endfacet
  facet normal 1 -0 0
    outer loop
      vertex 69.5 39.5 15
      vertex 69.5 50.5 0
      vertex 69.5 50.5 15
    endloop
  endfacet
  facet normal 1 0 0
    outer loop
      vertex 69.5 50.5 0
      vertex 69.5 39.5 15
      vertex 69.5 39.5 0
    endloop
  endfacet
  facet normal 0 -1 0
    outer loop
      vertex 69.5 50.5 0
      vertex 80.5 50.5 15
      vertex 69.5 50.5 15
    endloop
  endfacet
  facet normal 0 -1 -0
    outer loop
      vertex 80.5 50.5 15
      vertex 69.5 50.5 0
      vertex 80.5 50.5 0
    endloop
  endfacet
  facet normal 0 1 -0
    outer loop
      vertex 80.5 39.5 0
      vertex 69.5 39.5 15
      vertex 80.5 39.5 15
    endloop
  endfacet
  facet normal 0 1 0
    outer loop
      vertex 69.5 39.5 15
      vertex 80.5 39.5 0
      vertex 69.5 39.5 0
    endloop
  endfacet
  facet normal 1 -0 0
    outer loop
      vertex 97.5 37.5 15
      vertex 97.5 52.5 0
      vertex 97.5 52.5 15
    endloop
  endfacet
  facet normal 1 0 0
    outer loop
      vertex 97.5 52.5 0
      vertex 97.5 37.5 15
      vertex 97.5 37.5 0
    endloop
  endfacet
  facet normal -1 0 0
    outer loop
      vertex 95.5 39.5 0
      vertex 95.5 50.5 15
      vertex 95.5 50.5 0
    endloop
  endfacet
  facet normal -1 -0 0
    outer loop
      vertex 95.5 50.5 15
      vertex 95.5 39.5 0
      vertex 95.5 39.5 15
    endloop
  endfacet
  facet normal 1 -0 0
    outer loop
      vertex 84.5 39.5 15
      vertex 84.5 50.5 0
      vertex 84.5 50.5 15
    endloop
  endfacet
  facet normal 1 0 0
    outer loop
      vertex 84.5 50.5 0
      vertex 84.5 39.5 15
      vertex 84.5 39.5 0
    endloop
  endfacet
  facet normal 0 -1 0
    outer loop
      vertex 84.5 50.5 0
      vertex 95.5 50.5 15
      vertex 84.5 50.5 15
    endloop
  endfacet
  facet normal 0 -1 -0
    outer loop
      vertex 95.5 50.5 15
      vertex 84.5 50.5 0
      vertex 95.5 50.5 0
    endloop
  endfacet
  facet normal 0 1 -0
    outer loop
      vertex 95.5 39.5 0
      vertex 84.5 39.5 15
      vertex 95.5 39.5 15
    endloop
  endfacet
  facet normal 0 1 0
    outer loop
      vertex 84.5 39.5 15
      vertex 95.5 39.5 0
      vertex 84.5 39.5 0
    endloop
  endfacet
  facet normal -1 0 0
    outer loop
      vertex 52.5 37.5 0
      vertex 52.5 52.5 15
      vertex 52.5 52.5 0
    endloop
  endfacet
  facet normal -1 -0 0
    outer loop
      vertex 52.5 52.5 15
      vertex 52.5 37.5 0
      vertex 52.5 37.5 15
    endloop
  endfacet
  facet normal 0 1 -0
    outer loop
      vertex 67.5 52.5 0
      vertex 52.5 52.5 15
      vertex 67.5 52.5 15
    endloop
  endfacet
  facet normal 0 1 0
    outer loop
      vertex 52.5 52.5 15
      vertex 67.5 52.5 0
      vertex 52.5 52.5 0
    endloop
  endfacet
  facet normal -1 0 0
    outer loop
      vertex 65.5 39.5 0
      vertex 65.5 50.5 15
      vertex 65.5 50.5 0
    endloop
  endfacet
  facet normal -1 -0 0
    outer loop
      vertex 65.5 50.5 15
      vertex 65.5 39.5 0
      vertex 65.5 39.5 15
    endloop
  endfacet
  facet normal 1 -0 0
    outer loop
      vertex 54.5 39.5 15
      vertex 54.5 50.5 0
      vertex 54.5 50.5 15
    endloop
  endfacet
  facet normal 1 0 0
    outer loop
      vertex 54.5 50.5 0
      vertex 54.5 39.5 15
      vertex 54.5 39.5 0
    endloop
  endfacet
  facet normal 0 -1 0
    outer loop
      vertex 54.5 50.5 0
      vertex 65.5 50.5 15
      vertex 54.5 50.5 15
    endloop
  endfacet
  facet normal 0 -1 -0
    outer loop
      vertex 65.5 50.5 15
      vertex 54.5 50.5 0
      vertex 65.5 50.5 0
    endloop
  endfacet
  facet normal 0 1 -0
    outer loop
      vertex 65.5 39.5 0
      vertex 54.5 39.5 15
      vertex 65.5 39.5 15
    endloop
  endfacet
  facet normal 0 1 0
    outer loop
      vertex 54.5 39.5 15
      vertex 65.5 39.5 0
      vertex 54.5 39.5 0
    endloop
  endfacet
  facet normal 1 -0 0
    outer loop
      vertex 15 90 15
      vertex 15 105 0
      vertex 15 105 15
    endloop
  endfacet
  facet normal 1 0 0
    outer loop
      vertex 15 105 0
      vertex 15 90 15
      vertex 15 90 0
    endloop
  endfacet
  facet normal 0 0 1
    outer loop
      vertex 15 105 15
      vertex 13 103 15
      vertex 15 90 15
    endloop
  endfacet
  facet normal 0 0 1
    outer loop
      vertex 15 105 15
      vertex 2 103 15
      vertex 13 103 15
    endloop
  endfacet
  facet normal 0 0 1
    outer loop
      vertex 2 103 15
      vertex 0 105 15
      vertex 2 92 15
    endloop
  endfacet
  facet normal -0 0 1
    outer loop
      vertex 0 105 15
      vertex 2 103 15
      vertex 15 105 15
    endloop
  endfacet
  facet normal -0 0 1
    outer loop
      vertex 13 92 15
      vertex 15 90 15
      vertex 13 103 15
    endloop
  endfacet
  facet normal -0 0 1
    outer loop
      vertex 2 92 15
      vertex 15 90 15
      vertex 13 92 15
    endloop
  endfacet
  facet normal 0 0 1
    outer loop
      vertex 2 92 15
      vertex 0 90 15
      vertex 15 90 15
    endloop
  endfacet
  facet normal 0 0 1
    outer loop
      vertex 0 90 15
      vertex 2 92 15
      vertex 0 105 15
    endloop
  endfacet
  facet normal 0 0 -1
    outer loop
      vertex 2 88 0
      vertex 13 92 0
      vertex 13 88 0
    endloop
  endfacet
  facet normal -0 0 -1
    outer loop
      vertex 13 92 0
      vertex 2 88 0
      vertex 2 92 0
    endloop
  endfacet
  facet normal 0 0 -1
    outer loop
      vertex 30 75 0
      vertex 28 77 0
      vertex 30 90 0
    endloop
  endfacet
  facet normal 0 0 -1
    outer loop
      vertex 30 75 0
      vertex 17 77 0
      vertex 28 77 0
    endloop
  endfacet
  facet normal 0 0 -1
    outer loop
      vertex 13 88 0
      vertex 17 88 0
      vertex 17 77 0
    endloop
  endfacet
  facet normal 0 0 -1
    outer loop
      vertex 17 88 0
      vertex 13 88 0
      vertex 15 90 0
    endloop
  endfacet
  facet normal 0 0 -1
    outer loop
      vertex 13 88 0
      vertex 17 77 0
      vertex 13 77 0
    endloop
  endfacet
  facet normal 0 0 -1
    outer loop
      vertex 30 75 0
      vertex 13 77 0
      vertex 17 77 0
    endloop
  endfacet
  facet normal 0 0 -1
    outer loop
      vertex 0 75 0
      vertex 13 77 0
      vertex 30 75 0
    endloop
  endfacet
  facet normal 0 0 -1
    outer loop
      vertex 0 75 0
      vertex 2 88 0
      vertex 2 77 0
    endloop
  endfacet
  facet normal -0 0 -1
    outer loop
      vertex 2 88 0
      vertex 0 75 0
      vertex 2 92 0
    endloop
  endfacet
  facet normal 0 0 -1
    outer loop
      vertex 0 105 0
      vertex 2 92 0
      vertex 0 75 0
    endloop
  endfacet
  facet normal -0 0 -1
    outer loop
      vertex 13 77 0
      vertex 0 75 0
      vertex 2 77 0
    endloop
  endfacet
  facet normal 0 0 -1
    outer loop
      vertex 28 88 0
      vertex 30 90 0
      vertex 28 77 0
    endloop
  endfacet
  facet normal 0 0 -1
    outer loop
      vertex 17 88 0
      vertex 30 90 0
      vertex 28 88 0
    endloop
  endfacet
  facet normal -0 0 -1
    outer loop
      vertex 30 90 0
      vertex 17 88 0
      vertex 15 90 0
    endloop
  endfacet
  facet normal 0 0 -1
    outer loop
      vertex 13 92 0
      vertex 15 90 0
      vertex 13 88 0
    endloop
  endfacet
  facet normal 0 0 -1
    outer loop
      vertex 15 90 0
      vertex 13 92 0
      vertex 15 105 0
    endloop
  endfacet
  facet normal 0 0 -1
    outer loop
      vertex 13 103 0
      vertex 15 105 0
      vertex 13 92 0
    endloop
  endfacet
  facet normal 0 0 -1
    outer loop
      vertex 2 103 0
      vertex 15 105 0
      vertex 13 103 0
    endloop
  endfacet
  facet normal 0 0 -1
    outer loop
      vertex 2 103 0
      vertex 0 105 0
      vertex 15 105 0
    endloop
  endfacet
  facet normal 0 0 -1
    outer loop
      vertex 2 92 0
      vertex 0 105 0
      vertex 2 103 0
    endloop
  endfacet
  facet normal -1 0 0
    outer loop
      vertex 0 105 0
      vertex 0 90 15
      vertex 0 105 15
    endloop
  endfacet
  facet normal -1 0 0
    outer loop
      vertex 0 75 0
      vertex 0 90 15
      vertex 0 105 0
    endloop
  endfacet
  facet normal -1 0 0
    outer loop
      vertex 0 75 30
      vertex 0 90 15
      vertex 0 75 0
    endloop
  endfacet
  facet normal -1 0 0
    outer loop
      vertex 0 90 15
      vertex 0 75 30
      vertex 0 90 30
    endloop
  endfacet
  facet normal 0 1 -0
    outer loop
      vertex 15 105 0
      vertex 0 105 15
      vertex 15 105 15
    endloop
  endfacet
  facet normal 0 1 0
    outer loop
      vertex 0 105 15
      vertex 15 105 0
      vertex 0 105 0
    endloop
  endfacet
  facet normal 0 1 -0
    outer loop
      vertex 30 90 0
      vertex 15 90 15
      vertex 30 90 15
    endloop
  endfacet
  facet normal 0 1 0
    outer loop
      vertex 15 90 15
      vertex 30 90 0
      vertex 15 90 0
    endloop
  endfacet
  facet normal -1 0 0
    outer loop
      vertex 13 92 0
      vertex 13 103 15
      vertex 13 103 0
    endloop
  endfacet
  facet normal -1 -0 0
    outer loop
      vertex 13 103 15
      vertex 13 92 0
      vertex 13 92 15
    endloop
  endfacet
  facet normal 1 -0 0
    outer loop
      vertex 2 92 15
      vertex 2 103 0
      vertex 2 103 15
    endloop
  endfacet
  facet normal 1 0 0
    outer loop
      vertex 2 103 0
      vertex 2 92 15
      vertex 2 92 0
    endloop
  endfacet
  facet normal 0 -1 0
    outer loop
      vertex 2 103 0
      vertex 13 103 15
      vertex 2 103 15
    endloop
  endfacet
  facet normal 0 -1 -0
    outer loop
      vertex 13 103 15
      vertex 2 103 0
      vertex 13 103 0
    endloop
  endfacet
  facet normal 0 1 -0
    outer loop
      vertex 13 92 0
      vertex 2 92 15
      vertex 13 92 15
    endloop
  endfacet
  facet normal 0 1 0
    outer loop
      vertex 2 92 15
      vertex 13 92 0
      vertex 2 92 0
    endloop
  endfacet
  facet normal 1 -0 0
    outer loop
      vertex 30 75 15
      vertex 30 90 0
      vertex 30 90 15
    endloop
  endfacet
  facet normal 1 0 0
    outer loop
      vertex 30 90 0
      vertex 30 75 15
      vertex 30 75 0
    endloop
  endfacet
  facet normal 0 0 1
    outer loop
      vertex 30 90 15
      vertex 28 88 15
      vertex 30 75 15
    endloop
  endfacet
  facet normal 0 0 1
    outer loop
      vertex 30 90 15
      vertex 17 88 15
      vertex 28 88 15
    endloop
  endfacet
  facet normal 0 0 1
    outer loop
      vertex 17 88 15
      vertex 15 90 15
      vertex 17 77 15
    endloop
  endfacet
  facet normal -0 0 1
    outer loop
      vertex 15 90 15
      vertex 17 88 15
      vertex 30 90 15
    endloop
  endfacet
  facet normal -0 0 1
    outer loop
      vertex 28 77 15
      vertex 30 75 15
      vertex 28 88 15
    endloop
  endfacet
  facet normal -0 0 1
    outer loop
      vertex 17 77 15
      vertex 30 75 15
      vertex 28 77 15
    endloop
  endfacet
  facet normal 0 0 1
    outer loop
      vertex 17 77 15
      vertex 15 75 15
      vertex 30 75 15
    endloop
  endfacet
  facet normal 0 0 1
    outer loop
      vertex 15 75 15
      vertex 17 77 15
      vertex 15 90 15
    endloop
  endfacet
  facet normal 0 -1 0
    outer loop
      vertex 0 75 30
      vertex 15 75 15
      vertex 15 75 30
    endloop
  endfacet
  facet normal 0 -1 0
    outer loop
      vertex 0 75 0
      vertex 15 75 15
      vertex 0 75 30
    endloop
  endfacet
  facet normal 0 -1 0
    outer loop
      vertex 30 75 0
      vertex 15 75 15
      vertex 0 75 0
    endloop
  endfacet
  facet normal 0 -1 0
    outer loop
      vertex 15 75 15
      vertex 30 75 0
      vertex 30 75 15
    endloop
  endfacet
  facet normal -1 0 0
    outer loop
      vertex 28 77 0
      vertex 28 88 15
      vertex 28 88 0
    endloop
  endfacet
  facet normal -1 -0 0
    outer loop
      vertex 28 88 15
      vertex 28 77 0
      vertex 28 77 15
    endloop
  endfacet
  facet normal 1 -0 0
    outer loop
      vertex 17 77 15
      vertex 17 88 0
      vertex 17 88 15
    endloop
  endfacet
  facet normal 1 0 0
    outer loop
      vertex 17 88 0
      vertex 17 77 15
      vertex 17 77 0
    endloop
  endfacet
  facet normal 0 -1 0
    outer loop
      vertex 17 88 0
      vertex 28 88 15
      vertex 17 88 15
    endloop
  endfacet
  facet normal 0 -1 -0
    outer loop
      vertex 28 88 15
      vertex 17 88 0
      vertex 28 88 0
    endloop
  endfacet
  facet normal 0 1 -0
    outer loop
      vertex 28 77 0
      vertex 17 77 15
      vertex 28 77 15
    endloop
  endfacet
  facet normal 0 1 0
    outer loop
      vertex 17 77 15
      vertex 28 77 0
      vertex 17 77 0
    endloop
  endfacet
  facet normal -1 0 0
    outer loop
      vertex 13 77 0
      vertex 13 88 30
      vertex 13 88 0
    endloop
  endfacet
  facet normal -1 -0 0
    outer loop
      vertex 13 88 30
      vertex 13 77 0
      vertex 13 77 30
    endloop
  endfacet
  facet normal 1 -0 0
    outer loop
      vertex 2 77 30
      vertex 2 88 0
      vertex 2 88 30
    endloop
  endfacet
  facet normal 1 0 0
    outer loop
      vertex 2 88 0
      vertex 2 77 30
      vertex 2 77 0
    endloop
  endfacet
  facet normal 0 -1 0
    outer loop
      vertex 2 88 0
      vertex 13 88 30
      vertex 2 88 30
    endloop
  endfacet
  facet normal 0 -1 -0
    outer loop
      vertex 13 88 30
      vertex 2 88 0
      vertex 13 88 0
    endloop
  endfacet
  facet normal 0 1 -0
    outer loop
      vertex 13 77 0
      vertex 2 77 30
      vertex 13 77 30
    endloop
  endfacet
  facet normal 0 1 0
    outer loop
      vertex 2 77 30
      vertex 13 77 0
      vertex 2 77 0
    endloop
  endfacet
  facet normal 1 -0 0
    outer loop
      vertex 15 75 30
      vertex 15 90 15
      vertex 15 90 30
    endloop
  endfacet
  facet normal 1 0 0
    outer loop
      vertex 15 90 15
      vertex 15 75 30
      vertex 15 75 15
    endloop
  endfacet
  facet normal 0 0 1
    outer loop
      vertex 15 90 30
      vertex 13 88 30
      vertex 15 75 30
    endloop
  endfacet
  facet normal 0 0 1
    outer loop
      vertex 15 90 30
      vertex 2 88 30
      vertex 13 88 30
    endloop
  endfacet
  facet normal 0 0 1
    outer loop
      vertex 2 88 30
      vertex 0 90 30
      vertex 2 77 30
    endloop
  endfacet
  facet normal -0 0 1
    outer loop
      vertex 0 90 30
      vertex 2 88 30
      vertex 15 90 30
    endloop
  endfacet
  facet normal -0 0 1
    outer loop
      vertex 13 77 30
      vertex 15 75 30
      vertex 13 88 30
    endloop
  endfacet
  facet normal -0 0 1
    outer loop
      vertex 2 77 30
      vertex 15 75 30
      vertex 13 77 30
    endloop
  endfacet
  facet normal 0 0 1
    outer loop
      vertex 2 77 30
      vertex 0 75 30
      vertex 15 75 30
    endloop
  endfacet
  facet normal 0 0 1
    outer loop
      vertex 0 75 30
      vertex 2 77 30
      vertex 0 90 30
    endloop
  endfacet
  facet normal 0 1 -0
    outer loop
      vertex 15 90 15
      vertex 0 90 30
      vertex 15 90 30
    endloop
  endfacet
  facet normal 0 1 0
    outer loop
      vertex 0 90 30
      vertex 15 90 15
      vertex 0 90 15
    endloop
  endfacet
  facet normal 1 -0 0
    outer loop
      vertex 67.5 90 15
      vertex 67.5 105 0
      vertex 67.5 105 15
    endloop
  endfacet
  facet normal 1 0 0
    outer loop
      vertex 67.5 105 0
      vertex 67.5 90 15
      vertex 67.5 90 0
    endloop
  endfacet
  facet normal -0 0 1
    outer loop
      vertex 54.5 92 15
      vertex 65.5 88 15
      vertex 65.5 92 15
    endloop
  endfacet
  facet normal 0 0 1
    outer loop
      vertex 65.5 88 15
      vertex 54.5 92 15
      vertex 54.5 88 15
    endloop
  endfacet
  facet normal -0 0 1
    outer loop
      vertex 65.5 92 15
      vertex 67.5 90 15
      vertex 67.5 105 15
    endloop
  endfacet
  facet normal 0 0 1
    outer loop
      vertex 65.5 92 15
      vertex 67.5 105 15
      vertex 65.5 103 15
    endloop
  endfacet
  facet normal 0 0 1
    outer loop
      vertex 67.5 105 15
      vertex 54.5 103 15
      vertex 65.5 103 15
    endloop
  endfacet
  facet normal 0 0 1
    outer loop
      vertex 52.5 105 15
      vertex 54.5 92 15
      vertex 54.5 103 15
    endloop
  endfacet
  facet normal 0 0 1
    outer loop
      vertex 54.5 92 15
      vertex 52.5 105 15
      vertex 54.5 88 15
    endloop
  endfacet
  facet normal 0 0 1
    outer loop
      vertex 52.5 75 15
      vertex 54.5 88 15
      vertex 52.5 105 15
    endloop
  endfacet
  facet normal -0 0 1
    outer loop
      vertex 52.5 105 15
      vertex 54.5 103 15
      vertex 67.5 105 15
    endloop
  endfacet
  facet normal 0 0 1
    outer loop
      vertex 65.5 88 15
      vertex 67.5 90 15
      vertex 65.5 92 15
    endloop
  endfacet
  facet normal 0 0 1
    outer loop
      vertex 67.5 90 15
      vertex 65.5 88 15
      vertex 67.5 75 15
    endloop
  endfacet
  facet normal -0 0 1
    outer loop
      vertex 65.5 77 15
      vertex 67.5 75 15
      vertex 65.5 88 15
    endloop
  endfacet
  facet normal -0 0 1
    outer loop
      vertex 54.5 77 15
      vertex 67.5 75 15
      vertex 65.5 77 15
    endloop
  endfacet
  facet normal 0 0 1
    outer loop
      vertex 54.5 77 15
      vertex 52.5 75 15
      vertex 67.5 75 15
    endloop
  endfacet
  facet normal 0 0 1
    outer loop
      vertex 54.5 88 15
      vertex 52.5 75 15
      vertex 54.5 77 15
    endloop
  endfacet
  facet normal 0 0 -1
    outer loop
      vertex 54.5 88 0
      vertex 65.5 92 0
      vertex 65.5 88 0
    endloop
  endfacet
  facet normal -0 0 -1
    outer loop
      vertex 65.5 92 0
      vertex 54.5 88 0
      vertex 54.5 92 0
    endloop
  endfacet
  facet normal 0 0 -1
    outer loop
      vertex 82.5 75 0
      vertex 80.5 77 0
      vertex 82.5 90 0
    endloop
  endfacet
  facet normal 0 0 -1
    outer loop
      vertex 82.5 75 0
      vertex 69.5 77 0
      vertex 80.5 77 0
    endloop
  endfacet
  facet normal 0 0 -1
    outer loop
      vertex 65.5 88 0
      vertex 69.5 88 0
      vertex 69.5 77 0
    endloop
  endfacet
  facet normal 0 0 -1
    outer loop
      vertex 69.5 88 0
      vertex 65.5 88 0
      vertex 67.5 90 0
    endloop
  endfacet
  facet normal 0 0 -1
    outer loop
      vertex 65.5 88 0
      vertex 69.5 77 0
      vertex 65.5 77 0
    endloop
  endfacet
  facet normal 0 0 -1
    outer loop
      vertex 82.5 75 0
      vertex 65.5 77 0
      vertex 69.5 77 0
    endloop
  endfacet
  facet normal 0 0 -1
    outer loop
      vertex 52.5 75 0
      vertex 65.5 77 0
      vertex 82.5 75 0
    endloop
  endfacet
  facet normal 0 0 -1
    outer loop
      vertex 52.5 75 0
      vertex 54.5 88 0
      vertex 54.5 77 0
    endloop
  endfacet
  facet normal -0 0 -1
    outer loop
      vertex 54.5 88 0
      vertex 52.5 75 0
      vertex 54.5 92 0
    endloop
  endfacet
  facet normal 0 0 -1
    outer loop
      vertex 52.5 105 0
      vertex 54.5 92 0
      vertex 52.5 75 0
    endloop
  endfacet
  facet normal -0 0 -1
    outer loop
      vertex 65.5 77 0
      vertex 52.5 75 0
      vertex 54.5 77 0
    endloop
  endfacet
  facet normal 0 0 -1
    outer loop
      vertex 80.5 88 0
      vertex 82.5 90 0
      vertex 80.5 77 0
    endloop
  endfacet
  facet normal 0 0 -1
    outer loop
      vertex 69.5 88 0
      vertex 82.5 90 0
      vertex 80.5 88 0
    endloop
  endfacet
  facet normal -0 0 -1
    outer loop
      vertex 82.5 90 0
      vertex 69.5 88 0
      vertex 67.5 90 0
    endloop
  endfacet
  facet normal 0 0 -1
    outer loop
      vertex 65.5 92 0
      vertex 67.5 90 0
      vertex 65.5 88 0
    endloop
  endfacet
  facet normal 0 0 -1
    outer loop
      vertex 67.5 90 0
      vertex 65.5 92 0
      vertex 67.5 105 0
    endloop
  endfacet
  facet normal 0 0 -1
    outer loop
      vertex 65.5 103 0
      vertex 67.5 105 0
      vertex 65.5 92 0
    endloop
  endfacet
  facet normal 0 0 -1
    outer loop
      vertex 54.5 103 0
      vertex 67.5 105 0
      vertex 65.5 103 0
    endloop
  endfacet
  facet normal 0 0 -1
    outer loop
      vertex 54.5 103 0
      vertex 52.5 105 0
      vertex 67.5 105 0
    endloop
  endfacet
  facet normal 0 0 -1
    outer loop
      vertex 54.5 92 0
      vertex 52.5 105 0
      vertex 54.5 103 0
    endloop
  endfacet
  facet normal -1 0 0
    outer loop
      vertex 52.5 75 0
      vertex 52.5 105 15
      vertex 52.5 105 0
    endloop
  endfacet
  facet normal -1 -0 0
    outer loop
      vertex 52.5 105 15
      vertex 52.5 75 0
      vertex 52.5 75 15
    endloop
  endfacet
  facet normal 0 1 -0
    outer loop
      vertex 67.5 105 0
      vertex 52.5 105 15
      vertex 67.5 105 15
    endloop
  endfacet
  facet normal 0 1 0
    outer loop
      vertex 52.5 105 15
      vertex 67.5 105 0
      vertex 52.5 105 0
    endloop
  endfacet
  facet normal 0 1 0
    outer loop
      vertex 82.5 90 30
      vertex 67.5 90 15
      vertex 67.5 90 30
    endloop
  endfacet
  facet normal 0 1 -0
    outer loop
      vertex 82.5 90 0
      vertex 67.5 90 15
      vertex 82.5 90 30
    endloop
  endfacet
  facet normal 0 1 0
    outer loop
      vertex 67.5 90 15
      vertex 82.5 90 0
      vertex 67.5 90 0
    endloop
  endfacet
  facet normal -1 0 0
    outer loop
      vertex 65.5 92 0
      vertex 65.5 103 15
      vertex 65.5 103 0
    endloop
  endfacet
  facet normal -1 -0 0
    outer loop
      vertex 65.5 103 15
      vertex 65.5 92 0
      vertex 65.5 92 15
    endloop
  endfacet
  facet normal 1 -0 0
    outer loop
      vertex 54.5 92 15
      vertex 54.5 103 0
      vertex 54.5 103 15
    endloop
  endfacet
  facet normal 1 0 0
    outer loop
      vertex 54.5 103 0
      vertex 54.5 92 15
      vertex 54.5 92 0
    endloop
  endfacet
  facet normal 0 -1 0
    outer loop
      vertex 54.5 103 0
      vertex 65.5 103 15
      vertex 54.5 103 15
    endloop
  endfacet
  facet normal 0 -1 -0
    outer loop
      vertex 65.5 103 15
      vertex 54.5 103 0
      vertex 65.5 103 0
    endloop
  endfacet
  facet normal 0 1 -0
    outer loop
      vertex 65.5 92 0
      vertex 54.5 92 15
      vertex 65.5 92 15
    endloop
  endfacet
  facet normal 0 1 0
    outer loop
      vertex 54.5 92 15
      vertex 65.5 92 0
      vertex 54.5 92 0
    endloop
  endfacet
  facet normal 1 -0 0
    outer loop
      vertex 82.5 75 30
      vertex 82.5 90 0
      vertex 82.5 90 30
    endloop
  endfacet
  facet normal 1 0 0
    outer loop
      vertex 82.5 90 0
      vertex 82.5 75 30
      vertex 82.5 75 0
    endloop
  endfacet
  facet normal 0 -1 0
    outer loop
      vertex 52.5 75 15
      vertex 52.5 75 0
      vertex 67.5 75 15
    endloop
  endfacet
  facet normal 0 -1 0
    outer loop
      vertex 67.5 75 15
      vertex 82.5 75 30
      vertex 67.5 75 30
    endloop
  endfacet
  facet normal 0 -1 0
    outer loop
      vertex 82.5 75 0
      vertex 67.5 75 15
      vertex 52.5 75 0
    endloop
  endfacet
  facet normal 0 -1 0
    outer loop
      vertex 67.5 75 15
      vertex 82.5 75 0
      vertex 82.5 75 30
    endloop
  endfacet
  facet normal -1 0 0
    outer loop
      vertex 80.5 77 0
      vertex 80.5 88 30
      vertex 80.5 88 0
    endloop
  endfacet
  facet normal -1 -0 0
    outer loop
      vertex 80.5 88 30
      vertex 80.5 77 0
      vertex 80.5 77 30
    endloop
  endfacet
  facet normal 1 -0 0
    outer loop
      vertex 69.5 77 30
      vertex 69.5 88 0
      vertex 69.5 88 30
    endloop
  endfacet
  facet normal 1 0 0
    outer loop
      vertex 69.5 88 0
      vertex 69.5 77 30
      vertex 69.5 77 0
    endloop
  endfacet
  facet normal 0 -1 0
    outer loop
      vertex 69.5 88 0
      vertex 80.5 88 30
      vertex 69.5 88 30
    endloop
  endfacet
  facet normal 0 -1 -0
    outer loop
      vertex 80.5 88 30
      vertex 69.5 88 0
      vertex 80.5 88 0
    endloop
  endfacet
  facet normal 0 1 -0
    outer loop
      vertex 80.5 77 0
      vertex 69.5 77 30
      vertex 80.5 77 30
    endloop
  endfacet
  facet normal 0 1 0
    outer loop
      vertex 69.5 77 30
      vertex 80.5 77 0
      vertex 69.5 77 0
    endloop
  endfacet
  facet normal -1 0 0
    outer loop
      vertex 65.5 77 0
      vertex 65.5 88 15
      vertex 65.5 88 0
    endloop
  endfacet
  facet normal -1 -0 0
    outer loop
      vertex 65.5 88 15
      vertex 65.5 77 0
      vertex 65.5 77 15
    endloop
  endfacet
  facet normal 1 -0 0
    outer loop
      vertex 54.5 77 15
      vertex 54.5 88 0
      vertex 54.5 88 15
    endloop
  endfacet
  facet normal 1 0 0
    outer loop
      vertex 54.5 88 0
      vertex 54.5 77 15
      vertex 54.5 77 0
    endloop
  endfacet
  facet normal 0 -1 0
    outer loop
      vertex 54.5 88 0
      vertex 65.5 88 15
      vertex 54.5 88 15
    endloop
  endfacet
  facet normal 0 -1 -0
    outer loop
      vertex 65.5 88 15
      vertex 54.5 88 0
      vertex 65.5 88 0
    endloop
  endfacet
  facet normal 0 1 -0
    outer loop
      vertex 65.5 77 0
      vertex 54.5 77 15
      vertex 65.5 77 15
    endloop
  endfacet
  facet normal 0 1 0
    outer loop
      vertex 54.5 77 15
      vertex 65.5 77 0
      vertex 54.5 77 0
    endloop
  endfacet
  facet normal 0 0 1
    outer loop
      vertex 82.5 90 30
      vertex 80.5 88 30
      vertex 82.5 75 30
    endloop
  endfacet
  facet normal 0 0 1
    outer loop
      vertex 82.5 90 30
      vertex 69.5 88 30
      vertex 80.5 88 30
    endloop
  endfacet
  facet normal 0 0 1
    outer loop
      vertex 69.5 88 30
      vertex 67.5 90 30
      vertex 69.5 77 30
    endloop
  endfacet
  facet normal -0 0 1
    outer loop
      vertex 67.5 90 30
      vertex 69.5 88 30
      vertex 82.5 90 30
    endloop
  endfacet
  facet normal -0 0 1
    outer loop
      vertex 80.5 77 30
      vertex 82.5 75 30
      vertex 80.5 88 30
    endloop
  endfacet
  facet normal -0 0 1
    outer loop
      vertex 69.5 77 30
      vertex 82.5 75 30
      vertex 80.5 77 30
    endloop
  endfacet
  facet normal 0 0 1
    outer loop
      vertex 69.5 77 30
      vertex 67.5 75 30
      vertex 82.5 75 30
    endloop
  endfacet
  facet normal 0 0 1
    outer loop
      vertex 67.5 75 30
      vertex 69.5 77 30
      vertex 67.5 90 30
    endloop
  endfacet
  facet normal -1 0 0
    outer loop
      vertex 67.5 75 15
      vertex 67.5 90 30
      vertex 67.5 90 15
    endloop
  endfacet
  facet normal -1 -0 0
    outer loop
      vertex 67.5 90 30
      vertex 67.5 75 15
      vertex 67.5 75 30
    endloop
  endfacet
  facet normal 1 0 0
    outer loop
      vertex 120 90 15
      vertex 120 105 30
      vertex 120 90 30
    endloop
  endfacet
  facet normal 1 0 0
    outer loop
      vertex 120 105 30
      vertex 120 90 15
      vertex 120 105 0
    endloop
  endfacet
  facet normal 1 0 0
    outer loop
      vertex 120 105 0
      vertex 120 90 15
      vertex 120 90 0
    endloop
  endfacet
  facet normal 0 0 -1
    outer loop
      vertex 107 88 0
      vertex 118 92 0
      vertex 118 88 0
    endloop
  endfacet
  facet normal -0 0 -1
    outer loop
      vertex 118 92 0
      vertex 107 88 0
      vertex 107 92 0
    endloop
  endfacet
  facet normal 0 0 -1
    outer loop
      vertex 135 75 0
      vertex 133 77 0
      vertex 135 90 0
    endloop
  endfacet
  facet normal 0 0 -1
    outer loop
      vertex 135 75 0
      vertex 122 77 0
      vertex 133 77 0
    endloop
  endfacet
  facet normal 0 0 -1
    outer loop
      vertex 118 88 0
      vertex 122 88 0
      vertex 122 77 0
    endloop
  endfacet
  facet normal 0 0 -1
    outer loop
      vertex 122 88 0
      vertex 118 88 0
      vertex 120 90 0
    endloop
  endfacet
  facet normal 0 0 -1
    outer loop
      vertex 118 88 0
      vertex 122 77 0
      vertex 118 77 0
    endloop
  endfacet
  facet normal 0 0 -1
    outer loop
      vertex 135 75 0
      vertex 118 77 0
      vertex 122 77 0
    endloop
  endfacet
  facet normal 0 0 -1
    outer loop
      vertex 105 75 0
      vertex 118 77 0
      vertex 135 75 0
    endloop
  endfacet
  facet normal 0 0 -1
    outer loop
      vertex 105 75 0
      vertex 107 88 0
      vertex 107 77 0
    endloop
  endfacet
  facet normal -0 0 -1
    outer loop
      vertex 107 88 0
      vertex 105 75 0
      vertex 107 92 0
    endloop
  endfacet
  facet normal 0 0 -1
    outer loop
      vertex 105 105 0
      vertex 107 92 0
      vertex 105 75 0
    endloop
  endfacet
  facet normal -0 0 -1
    outer loop
      vertex 118 77 0
      vertex 105 75 0
      vertex 107 77 0
    endloop
  endfacet
  facet normal 0 0 -1
    outer loop
      vertex 133 88 0
      vertex 135 90 0
      vertex 133 77 0
    endloop
  endfacet
  facet normal 0 0 -1
    outer loop
      vertex 122 88 0
      vertex 135 90 0
      vertex 133 88 0
    endloop
  endfacet
  facet normal -0 0 -1
    outer loop
      vertex 135 90 0
      vertex 122 88 0
      vertex 120 90 0
    endloop
  endfacet
  facet normal 0 0 -1
    outer loop
      vertex 118 92 0
      vertex 120 90 0
      vertex 118 88 0
    endloop
  endfacet
  facet normal 0 0 -1
    outer loop
      vertex 120 90 0
      vertex 118 92 0
      vertex 120 105 0
    endloop
  endfacet
  facet normal 0 0 -1
    outer loop
      vertex 118 103 0
      vertex 120 105 0
      vertex 118 92 0
    endloop
  endfacet
  facet normal 0 0 -1
    outer loop
      vertex 107 103 0
      vertex 120 105 0
      vertex 118 103 0
    endloop
  endfacet
  facet normal 0 0 -1
    outer loop
      vertex 107 103 0
      vertex 105 105 0
      vertex 120 105 0
    endloop
  endfacet
  facet normal 0 0 -1
    outer loop
      vertex 107 92 0
      vertex 105 105 0
      vertex 107 103 0
    endloop
  endfacet
  facet normal -1 0 0
    outer loop
      vertex 105 105 0
      vertex 105 90 15
      vertex 105 105 30
    endloop
  endfacet
  facet normal -1 0 0
    outer loop
      vertex 105 75 0
      vertex 105 90 15
      vertex 105 105 0
    endloop
  endfacet
  facet normal -1 -0 0
    outer loop
      vertex 105 90 15
      vertex 105 75 0
      vertex 105 75 15
    endloop
  endfacet
  facet normal -1 -0 0
    outer loop
      vertex 105 105 30
      vertex 105 90 15
      vertex 105 90 30
    endloop
  endfacet
  facet normal 0 1 -0
    outer loop
      vertex 120 105 0
      vertex 105 105 30
      vertex 120 105 30
    endloop
  endfacet
  facet normal 0 1 0
    outer loop
      vertex 105 105 30
      vertex 120 105 0
      vertex 105 105 0
    endloop
  endfacet
  facet normal 0 -1 0
    outer loop
      vertex 105 90 15
      vertex 120 90 30
      vertex 105 90 30
    endloop
  endfacet
  facet normal 0 -1 -0
    outer loop
      vertex 120 90 30
      vertex 105 90 15
      vertex 120 90 15
    endloop
  endfacet
  facet normal 0 1 -0
    outer loop
      vertex 135 90 0
      vertex 120 90 15
      vertex 135 90 15
    endloop
  endfacet
  facet normal 0 1 0
    outer loop
      vertex 120 90 15
      vertex 135 90 0
      vertex 120 90 0
    endloop
  endfacet
  facet normal -1 0 0
    outer loop
      vertex 118 92 0
      vertex 118 103 30
      vertex 118 103 0
    endloop
  endfacet
  facet normal -1 -0 0
    outer loop
      vertex 118 103 30
      vertex 118 92 0
      vertex 118 92 30
    endloop
  endfacet
  facet normal 1 -0 0
    outer loop
      vertex 107 92 30
      vertex 107 103 0
      vertex 107 103 30
    endloop
  endfacet
  facet normal 1 0 0
    outer loop
      vertex 107 103 0
      vertex 107 92 30
      vertex 107 92 0
    endloop
  endfacet
  facet normal 0 -1 0
    outer loop
      vertex 107 103 0
      vertex 118 103 30
      vertex 107 103 30
    endloop
  endfacet
  facet normal 0 -1 -0
    outer loop
      vertex 118 103 30
      vertex 107 103 0
      vertex 118 103 0
    endloop
  endfacet
  facet normal 0 1 -0
    outer loop
      vertex 118 92 0
      vertex 107 92 30
      vertex 118 92 30
    endloop
  endfacet
  facet normal 0 1 0
    outer loop
      vertex 107 92 30
      vertex 118 92 0
      vertex 107 92 0
    endloop
  endfacet
  facet normal 1 -0 0
    outer loop
      vertex 135 75 15
      vertex 135 90 0
      vertex 135 90 15
    endloop
  endfacet
  facet normal 1 0 0
    outer loop
      vertex 135 90 0
      vertex 135 75 15
      vertex 135 75 0
    endloop
  endfacet
  facet normal 0 0 1
    outer loop
      vertex 120 90 15
      vertex 107 88 15
      vertex 118 88 15
    endloop
  endfacet
  facet normal 0 0 1
    outer loop
      vertex 107 88 15
      vertex 105 90 15
      vertex 107 77 15
    endloop
  endfacet
  facet normal -0 0 1
    outer loop
      vertex 105 90 15
      vertex 107 88 15
      vertex 120 90 15
    endloop
  endfacet
  facet normal 0 0 1
    outer loop
      vertex 135 90 15
      vertex 133 88 15
      vertex 135 75 15
    endloop
  endfacet
  facet normal 0 0 1
    outer loop
      vertex 135 90 15
      vertex 122 88 15
      vertex 133 88 15
    endloop
  endfacet
  facet normal 0 0 1
    outer loop
      vertex 118 88 15
      vertex 122 88 15
      vertex 120 90 15
    endloop
  endfacet
  facet normal -0 0 1
    outer loop
      vertex 120 90 15
      vertex 122 88 15
      vertex 135 90 15
    endloop
  endfacet
  facet normal -0 0 1
    outer loop
      vertex 133 77 15
      vertex 135 75 15
      vertex 133 88 15
    endloop
  endfacet
  facet normal -0 0 1
    outer loop
      vertex 122 77 15
      vertex 135 75 15
      vertex 133 77 15
    endloop
  endfacet
  facet normal 0 0 1
    outer loop
      vertex 122 88 15
      vertex 118 88 15
      vertex 122 77 15
    endloop
  endfacet
  facet normal 0 0 1
    outer loop
      vertex 118 77 15
      vertex 122 77 15
      vertex 118 88 15
    endloop
  endfacet
  facet normal -0 0 1
    outer loop
      vertex 118 77 15
      vertex 135 75 15
      vertex 122 77 15
    endloop
  endfacet
  facet normal 0 0 1
    outer loop
      vertex 105 75 15
      vertex 118 77 15
      vertex 107 77 15
    endloop
  endfacet
  facet normal 0 0 1
    outer loop
      vertex 118 77 15
      vertex 105 75 15
      vertex 135 75 15
    endloop
  endfacet
  facet normal 0 0 1
    outer loop
      vertex 105 75 15
      vertex 107 77 15
      vertex 105 90 15
    endloop
  endfacet
  facet normal 0 -1 0
    outer loop
      vertex 105 75 0
      vertex 135 75 15
      vertex 105 75 15
    endloop
  endfacet
  facet normal 0 -1 -0
    outer loop
      vertex 135 75 15
      vertex 105 75 0
      vertex 135 75 0
    endloop
  endfacet
  facet normal -1 0 0
    outer loop
      vertex 133 77 0
      vertex 133 88 15
      vertex 133 88 0
    endloop
  endfacet
  facet normal -1 -0 0
    outer loop
      vertex 133 88 15
      vertex 133 77 0
      vertex 133 77 15
    endloop
  endfacet
  facet normal 1 -0 0
    outer loop
      vertex 122 77 15
      vertex 122 88 0
      vertex 122 88 15
    endloop
  endfacet
  facet normal 1 0 0
    outer loop
      vertex 122 88 0
      vertex 122 77 15
      vertex 122 77 0
    endloop
  endfacet
  facet normal 0 -1 0
    outer loop
      vertex 122 88 0
      vertex 133 88 15
      vertex 122 88 15
    endloop
  endfacet
  facet normal 0 -1 -0
    outer loop
      vertex 133 88 15
      vertex 122 88 0
      vertex 133 88 0
    endloop
  endfacet
  facet normal 0 1 -0
    outer loop
      vertex 133 77 0
      vertex 122 77 15
      vertex 133 77 15
    endloop
  endfacet
  facet normal 0 1 0
    outer loop
      vertex 122 77 15
      vertex 133 77 0
      vertex 122 77 0
    endloop
  endfacet
  facet normal -1 0 0
    outer loop
      vertex 118 77 0
      vertex 118 88 15
      vertex 118 88 0
    endloop
  endfacet
  facet normal -1 -0 0
    outer loop
      vertex 118 88 15
      vertex 118 77 0
      vertex 118 77 15
    endloop
  endfacet
  facet normal 1 -0 0
    outer loop
      vertex 107 77 15
      vertex 107 88 0
      vertex 107 88 15
    endloop
  endfacet
  facet normal 1 0 0
    outer loop
      vertex 107 88 0
      vertex 107 77 15
      vertex 107 77 0
    endloop
  endfacet
  facet normal 0 -1 0
    outer loop
      vertex 107 88 0
      vertex 118 88 15
      vertex 107 88 15
    endloop
  endfacet
  facet normal 0 -1 -0
    outer loop
      vertex 118 88 15
      vertex 107 88 0
      vertex 118 88 0
    endloop
  endfacet
  facet normal 0 1 -0
    outer loop
      vertex 118 77 0
      vertex 107 77 15
      vertex 118 77 15
    endloop
  endfacet
  facet normal 0 1 0
    outer loop
      vertex 107 77 15
      vertex 118 77 0
      vertex 107 77 0
    endloop
  endfacet
  facet normal 0 0 1
    outer loop
      vertex 120 105 30
      vertex 118 103 30
      vertex 120 90 30
    endloop
  endfacet
  facet normal 0 0 1
    outer loop
      vertex 120 105 30
      vertex 107 103 30
      vertex 118 103 30
    endloop
  endfacet
  facet normal 0 0 1
    outer loop
      vertex 107 103 30
      vertex 105 105 30
      vertex 107 92 30
    endloop
  endfacet
  facet normal -0 0 1
    outer loop
      vertex 105 105 30
      vertex 107 103 30
      vertex 120 105 30
    endloop
  endfacet
  facet normal -0 0 1
    outer loop
      vertex 118 92 30
      vertex 120 90 30
      vertex 118 103 30
    endloop
  endfacet
  facet normal -0 0 1
    outer loop
      vertex 107 92 30
      vertex 120 90 30
      vertex 118 92 30
    endloop
  endfacet
  facet normal 0 0 1
    outer loop
      vertex 107 92 30
      vertex 105 90 30
      vertex 120 90 30
    endloop
  endfacet
  facet normal 0 0 1
    outer loop
      vertex 105 90 30
      vertex 107 92 30
      vertex 105 105 30
    endloop
  endfacet
endsolid OpenSCAD_Model
