solid OpenSCAD_Model
  facet normal 1 -0 0
    outer loop
      vertex 35 -27.5 2
      vertex 35 27.5 0
      vertex 35 27.5 2
    endloop
  endfacet
  facet normal 1 0 0
    outer loop
      vertex 35 27.5 0
      vertex 35 -27.5 2
      vertex 35 -27.5 0
    endloop
  endfacet
  facet normal 0 0 1
    outer loop
      vertex 35 27.5 2
      vertex 30 22.5 2
      vertex 35 -27.5 2
    endloop
  endfacet
  facet normal 0 0 1
    outer loop
      vertex 35 27.5 2
      vertex -30 22.5 2
      vertex 30 22.5 2
    endloop
  endfacet
  facet normal 0 0 1
    outer loop
      vertex -30 22.5 2
      vertex -35 27.5 2
      vertex -30 -22.5 2
    endloop
  endfacet
  facet normal -0 0 1
    outer loop
      vertex -35 27.5 2
      vertex -30 22.5 2
      vertex 35 27.5 2
    endloop
  endfacet
  facet normal -0 0 1
    outer loop
      vertex 30 -22.5 2
      vertex 35 -27.5 2
      vertex 30 22.5 2
    endloop
  endfacet
  facet normal -0 0 1
    outer loop
      vertex -30 -22.5 2
      vertex 35 -27.5 2
      vertex 30 -22.5 2
    endloop
  endfacet
  facet normal 0 0 1
    outer loop
      vertex -30 -22.5 2
      vertex -35 -27.5 2
      vertex 35 -27.5 2
    endloop
  endfacet
  facet normal 0 0 1
    outer loop
      vertex -35 -27.5 2
      vertex -30 -22.5 2
      vertex -35 27.5 2
    endloop
  endfacet
  facet normal 0 0 -1
    outer loop
      vertex 35 -27.5 0
      vertex 6.85 -6.85 0
      vertex 35 27.5 0
    endloop
  endfacet
  facet normal 0 0 -1
    outer loop
      vertex 35 -27.5 0
      vertex -6.85 -6.85 0
      vertex 6.85 -6.85 0
    endloop
  endfacet
  facet normal -0 0 -1
    outer loop
      vertex -6.85 -6.85 0
      vertex -35 -27.5 0
      vertex -6.85 6.85 0
    endloop
  endfacet
  facet normal 0 0 -1
    outer loop
      vertex -35 -27.5 0
      vertex -6.85 -6.85 0
      vertex 35 -27.5 0
    endloop
  endfacet
  facet normal 0 0 -1
    outer loop
      vertex 6.85 6.85 0
      vertex 35 27.5 0
      vertex 6.85 -6.85 0
    endloop
  endfacet
  facet normal 0 0 -1
    outer loop
      vertex -6.85 6.85 0
      vertex 35 27.5 0
      vertex 6.85 6.85 0
    endloop
  endfacet
  facet normal 0 0 -1
    outer loop
      vertex -6.85 6.85 0
      vertex -35 27.5 0
      vertex 35 27.5 0
    endloop
  endfacet
  facet normal 0 0 -1
    outer loop
      vertex -35 27.5 0
      vertex -6.85 6.85 0
      vertex -35 -27.5 0
    endloop
  endfacet
  facet normal -1 0 0
    outer loop
      vertex -35 -27.5 0
      vertex -35 27.5 2
      vertex -35 27.5 0
    endloop
  endfacet
  facet normal -1 -0 0
    outer loop
      vertex -35 27.5 2
      vertex -35 -27.5 0
      vertex -35 -27.5 2
    endloop
  endfacet
  facet normal 0 1 -0
    outer loop
      vertex 35 27.5 0
      vertex -35 27.5 2
      vertex 35 27.5 2
    endloop
  endfacet
  facet normal 0 1 0
    outer loop
      vertex -35 27.5 2
      vertex 35 27.5 0
      vertex -35 27.5 0
    endloop
  endfacet
  facet normal 0 -1 0
    outer loop
      vertex -35 -27.5 0
      vertex 35 -27.5 2
      vertex -35 -27.5 2
    endloop
  endfacet
  facet normal 0 -1 -0
    outer loop
      vertex 35 -27.5 2
      vertex -35 -27.5 0
      vertex 35 -27.5 0
    endloop
  endfacet
  facet normal 1 -0 0
    outer loop
      vertex 30 -22.5 11
      vertex 30 22.5 2
      vertex 30 22.5 11
    endloop
  endfacet
  facet normal 1 0 0
    outer loop
      vertex 30 22.5 2
      vertex 30 -22.5 11
      vertex 30 -22.5 2
    endloop
  endfacet
  facet normal -0 0 1
    outer loop
      vertex -30 22.5 11
      vertex 30 -22.5 11
      vertex 30 22.5 11
    endloop
  endfacet
  facet normal 0 0 1
    outer loop
      vertex 30 -22.5 11
      vertex -30 22.5 11
      vertex -30 -22.5 11
    endloop
  endfacet
  facet normal -1 0 0
    outer loop
      vertex -30 -22.5 2
      vertex -30 22.5 11
      vertex -30 22.5 2
    endloop
  endfacet
  facet normal -1 -0 0
    outer loop
      vertex -30 22.5 11
      vertex -30 -22.5 2
      vertex -30 -22.5 11
    endloop
  endfacet
  facet normal 0 1 -0
    outer loop
      vertex 30 22.5 2
      vertex -30 22.5 11
      vertex 30 22.5 11
    endloop
  endfacet
  facet normal 0 1 0
    outer loop
      vertex -30 22.5 11
      vertex 30 22.5 2
      vertex -30 22.5 2
    endloop
  endfacet
  facet normal 0 -1 0
    outer loop
      vertex -30 -22.5 2
      vertex 30 -22.5 11
      vertex -30 -22.5 11
    endloop
  endfacet
  facet normal 0 -1 -0
    outer loop
      vertex 30 -22.5 11
      vertex -30 -22.5 2
      vertex 30 -22.5 2
    endloop
  endfacet
  facet normal -1 0 0
    outer loop
      vertex 6.85 -6.85 0
      vertex 6.85 6.85 10
      vertex 6.85 6.85 0
    endloop
  endfacet
  facet normal -1 -0 0
    outer loop
      vertex 6.85 6.85 10
      vertex 6.85 -6.85 0
      vertex 6.85 -6.85 10
    endloop
  endfacet
  facet normal 0 0 -1
    outer loop
      vertex -6.85 -6.85 10
      vertex 6.85 6.85 10
      vertex 6.85 -6.85 10
    endloop
  endfacet
  facet normal -0 0 -1
    outer loop
      vertex 6.85 6.85 10
      vertex -6.85 -6.85 10
      vertex -6.85 6.85 10
    endloop
  endfacet
  facet normal 1 -0 0
    outer loop
      vertex -6.85 -6.85 10
      vertex -6.85 6.85 0
      vertex -6.85 6.85 10
    endloop
  endfacet
  facet normal 1 0 0
    outer loop
      vertex -6.85 6.85 0
      vertex -6.85 -6.85 10
      vertex -6.85 -6.85 0
    endloop
  endfacet
  facet normal 0 -1 0
    outer loop
      vertex -6.85 6.85 0
      vertex 6.85 6.85 10
      vertex -6.85 6.85 10
    endloop
  endfacet
  facet normal 0 -1 -0
    outer loop
      vertex 6.85 6.85 10
      vertex -6.85 6.85 0
      vertex 6.85 6.85 0
    endloop
  endfacet
  facet normal 0 1 -0
    outer loop
      vertex 6.85 -6.85 0
      vertex -6.85 -6.85 10
      vertex 6.85 -6.85 10
    endloop
  endfacet
  facet normal 0 1 0
    outer loop
      vertex -6.85 -6.85 10
      vertex 6.85 -6.85 0
      vertex -6.85 -6.85 0
    endloop
  endfacet
endsolid OpenSCAD_Model
