solid OpenSCAD_Model
  facet normal 1 -0 0
    outer loop
      vertex 35 -27.5 1
      vertex 35 27.5 0
      vertex 35 27.5 1
    endloop
  endfacet
  facet normal 1 0 0
    outer loop
      vertex 35 27.5 0
      vertex 35 -27.5 1
      vertex 35 -27.5 0
    endloop
  endfacet
  facet normal -1 0 0
    outer loop
      vertex -35 -27.5 0
      vertex -35 27.5 1
      vertex -35 27.5 0
    endloop
  endfacet
  facet normal -1 -0 0
    outer loop
      vertex -35 27.5 1
      vertex -35 -27.5 0
      vertex -35 -27.5 1
    endloop
  endfacet
  facet normal -0.946733 0 0.322018
    outer loop
      vertex -35 27.5 1
      vertex -30 -22.5 15.7
      vertex -30 22.5 15.7
    endloop
  endfacet
  facet normal -0.946733 0 0.322018
    outer loop
      vertex -30 -22.5 15.7
      vertex -35 27.5 1
      vertex -35 -27.5 1
    endloop
  endfacet
  facet normal 0 0 -1
    outer loop
      vertex 35 -27.5 0
      vertex 6.85 -6.85 0
      vertex 35 27.5 0
    endloop
  endfacet
  facet normal 0 0 -1
    outer loop
      vertex 35 -27.5 0
      vertex -6.85 -6.85 0
      vertex 6.85 -6.85 0
    endloop
  endfacet
  facet normal -0 0 -1
    outer loop
      vertex -6.85 -6.85 0
      vertex -35 -27.5 0
      vertex -6.85 6.85 0
    endloop
  endfacet
  facet normal 0 0 -1
    outer loop
      vertex -35 -27.5 0
      vertex -6.85 -6.85 0
      vertex 35 -27.5 0
    endloop
  endfacet
  facet normal 0 0 -1
    outer loop
      vertex 6.85 6.85 0
      vertex 35 27.5 0
      vertex 6.85 -6.85 0
    endloop
  endfacet
  facet normal 0 0 -1
    outer loop
      vertex -6.85 6.85 0
      vertex 35 27.5 0
      vertex 6.85 6.85 0
    endloop
  endfacet
  facet normal 0 0 -1
    outer loop
      vertex -6.85 6.85 0
      vertex -35 27.5 0
      vertex 35 27.5 0
    endloop
  endfacet
  facet normal 0 0 -1
    outer loop
      vertex -35 27.5 0
      vertex -6.85 6.85 0
      vertex -35 -27.5 0
    endloop
  endfacet
  facet normal 0 1 -0
    outer loop
      vertex 35 27.5 0
      vertex -35 27.5 1
      vertex 35 27.5 1
    endloop
  endfacet
  facet normal 0 1 0
    outer loop
      vertex -35 27.5 1
      vertex 35 27.5 0
      vertex -35 27.5 0
    endloop
  endfacet
  facet normal -0 0 1
    outer loop
      vertex -30 22.5 15.7
      vertex 30 -22.5 15.7
      vertex 30 22.5 15.7
    endloop
  endfacet
  facet normal 0 0 1
    outer loop
      vertex 30 -22.5 15.7
      vertex -30 22.5 15.7
      vertex -30 -22.5 15.7
    endloop
  endfacet
  facet normal 0 -0.946733 0.322018
    outer loop
      vertex -35 -27.5 1
      vertex 30 -22.5 15.7
      vertex -30 -22.5 15.7
    endloop
  endfacet
  facet normal 0 -0.946733 0.322018
    outer loop
      vertex 30 -22.5 15.7
      vertex -35 -27.5 1
      vertex 35 -27.5 1
    endloop
  endfacet
  facet normal 0 -1 0
    outer loop
      vertex -35 -27.5 0
      vertex 35 -27.5 1
      vertex -35 -27.5 1
    endloop
  endfacet
  facet normal 0 -1 -0
    outer loop
      vertex 35 -27.5 1
      vertex -35 -27.5 0
      vertex 35 -27.5 0
    endloop
  endfacet
  facet normal 0 0.946733 0.322018
    outer loop
      vertex 35 27.5 1
      vertex -30 22.5 15.7
      vertex 30 22.5 15.7
    endloop
  endfacet
  facet normal 0 0.946733 0.322018
    outer loop
      vertex -30 22.5 15.7
      vertex 35 27.5 1
      vertex -35 27.5 1
    endloop
  endfacet
  facet normal 0.946733 -0 0.322018
    outer loop
      vertex 30 -22.5 15.7
      vertex 35 27.5 1
      vertex 30 22.5 15.7
    endloop
  endfacet
  facet normal 0.946733 0 0.322018
    outer loop
      vertex 35 27.5 1
      vertex 30 -22.5 15.7
      vertex 35 -27.5 1
    endloop
  endfacet
  facet normal -1 0 0
    outer loop
      vertex 6.85 -6.85 0
      vertex 6.85 6.85 14.7
      vertex 6.85 6.85 0
    endloop
  endfacet
  facet normal -1 -0 0
    outer loop
      vertex 6.85 6.85 14.7
      vertex 6.85 -6.85 0
      vertex 6.85 -6.85 14.7
    endloop
  endfacet
  facet normal 0 0 -1
    outer loop
      vertex -6.85 -6.85 14.7
      vertex 6.85 6.85 14.7
      vertex 6.85 -6.85 14.7
    endloop
  endfacet
  facet normal -0 0 -1
    outer loop
      vertex 6.85 6.85 14.7
      vertex -6.85 -6.85 14.7
      vertex -6.85 6.85 14.7
    endloop
  endfacet
  facet normal 1 -0 0
    outer loop
      vertex -6.85 -6.85 14.7
      vertex -6.85 6.85 0
      vertex -6.85 6.85 14.7
    endloop
  endfacet
  facet normal 1 0 0
    outer loop
      vertex -6.85 6.85 0
      vertex -6.85 -6.85 14.7
      vertex -6.85 -6.85 0
    endloop
  endfacet
  facet normal 0 -1 0
    outer loop
      vertex -6.85 6.85 0
      vertex 6.85 6.85 14.7
      vertex -6.85 6.85 14.7
    endloop
  endfacet
  facet normal 0 -1 -0
    outer loop
      vertex 6.85 6.85 14.7
      vertex -6.85 6.85 0
      vertex 6.85 6.85 0
    endloop
  endfacet
  facet normal 0 1 -0
    outer loop
      vertex 6.85 -6.85 0
      vertex -6.85 -6.85 14.7
      vertex 6.85 -6.85 14.7
    endloop
  endfacet
  facet normal 0 1 0
    outer loop
      vertex -6.85 -6.85 14.7
      vertex 6.85 -6.85 0
      vertex -6.85 -6.85 0
    endloop
  endfacet
endsolid OpenSCAD_Model
