solid OpenSCAD_Model
  facet normal -0.707107 0.707107 0
    outer loop
      vertex -74.3528 10.6066 0
      vertex -74.3528 10.6066 15
      vertex -63.7462 21.2132 15
    endloop
  endfacet
  facet normal -0.707107 -0.707106 0
    outer loop
      vertex -74.3528 10.6066 0
      vertex -64 0.253788 0
      vertex -74.3528 10.6066 15
    endloop
  endfacet
  facet normal 0 0 -1
    outer loop
      vertex -74.3528 10.6066 0
      vertex -63.7462 21.2132 0
      vertex -64 0.253788 0
    endloop
  endfacet
  facet normal -0.707107 0.707107 0
    outer loop
      vertex -74.3528 10.6066 0
      vertex -63.7462 21.2132 15
      vertex -63.7462 21.2132 0
    endloop
  endfacet
  facet normal -0.707107 -0.707106 0
    outer loop
      vertex -74.3528 10.6066 15
      vertex -64 0.253788 0
      vertex -64 0.253788 15
    endloop
  endfacet
  facet normal -0 0 1
    outer loop
      vertex -74.3528 10.6066 15
      vertex -64 0.253788 15
      vertex -63.7462 21.2132 15
    endloop
  endfacet
  facet normal -1 0 0
    outer loop
      vertex -64 -12.5 0
      vertex -64 -12.5 15
      vertex -64 0.253788 15
    endloop
  endfacet
  facet normal 0 0 -1
    outer loop
      vertex -64 -12.5 0
      vertex -64 0.253788 0
      vertex -52.3637 -12.5 0
    endloop
  endfacet
  facet normal -1 0 0
    outer loop
      vertex -64 -12.5 0
      vertex -64 0.253788 15
      vertex -64 0.253788 0
    endloop
  endfacet
  facet normal 0 -1 0
    outer loop
      vertex -64 -12.5 0
      vertex -52.3637 -12.5 0
      vertex -52.3637 -12.5 15
    endloop
  endfacet
  facet normal 0 -1 0
    outer loop
      vertex -64 -12.5 0
      vertex -52.3637 -12.5 15
      vertex -64 -12.5 15
    endloop
  endfacet
  facet normal 0 0 1
    outer loop
      vertex -64 -12.5 15
      vertex -52.3637 -12.5 15
      vertex -64 0.253788 15
    endloop
  endfacet
  facet normal 0 0 -1
    outer loop
      vertex -64 0.253788 0
      vertex -63.7462 21.2132 0
      vertex -53.1396 10.6066 0
    endloop
  endfacet
  facet normal 0 0 -1
    outer loop
      vertex -64 0.253788 0
      vertex -53.1396 10.6066 0
      vertex -52.3637 -12.5 0
    endloop
  endfacet
  facet normal 0 0 1
    outer loop
      vertex -64 0.253788 15
      vertex -53.1396 10.6066 15
      vertex -63.7462 21.2132 15
    endloop
  endfacet
  facet normal -0 0 1
    outer loop
      vertex -64 0.253788 15
      vertex -52.3637 -12.5 15
      vertex -53.1396 10.6066 15
    endloop
  endfacet
  facet normal 0.707107 0.707107 -0
    outer loop
      vertex -63.7462 21.2132 0
      vertex -63.7462 21.2132 15
      vertex -53.1396 10.6066 15
    endloop
  endfacet
  facet normal 0.707107 0.707107 0
    outer loop
      vertex -63.7462 21.2132 0
      vertex -53.1396 10.6066 15
      vertex -53.1396 10.6066 0
    endloop
  endfacet
  facet normal -0.707107 0.707107 0
    outer loop
      vertex -53.1396 10.6066 0
      vertex -53.1396 10.6066 15
      vertex -42.533 21.2132 15
    endloop
  endfacet
  facet normal 0 0 -1
    outer loop
      vertex -53.1396 10.6066 0
      vertex -42.533 21.2132 0
      vertex -31.9264 10.6066 0
    endloop
  endfacet
  facet normal -0.707107 0.707107 0
    outer loop
      vertex -53.1396 10.6066 0
      vertex -42.533 21.2132 15
      vertex -42.533 21.2132 0
    endloop
  endfacet
  facet normal 0 0 -1
    outer loop
      vertex -53.1396 10.6066 0
      vertex -31.9264 10.6066 0
      vertex -52.3637 -12.5 0
    endloop
  endfacet
  facet normal -0 0 1
    outer loop
      vertex -53.1396 10.6066 15
      vertex -52.3637 -12.5 15
      vertex -31.9264 10.6066 15
    endloop
  endfacet
  facet normal 0 0 1
    outer loop
      vertex -53.1396 10.6066 15
      vertex -31.9264 10.6066 15
      vertex -42.533 21.2132 15
    endloop
  endfacet
  facet normal -0.838235 -0.54531 0
    outer loop
      vertex -52.3637 -12.5 0
      vertex -51.0818 -14.4705 0
      vertex -52.3637 -12.5 15
    endloop
  endfacet
  facet normal 0 0 -1
    outer loop
      vertex -52.3637 -12.5 0
      vertex -31.9264 10.6066 0
      vertex -51.0818 -14.4705 0
    endloop
  endfacet
  facet normal -0.838235 -0.54531 0
    outer loop
      vertex -52.3637 -12.5 15
      vertex -51.0818 -14.4705 0
      vertex -51.0818 -14.4705 15
    endloop
  endfacet
  facet normal -0 0 1
    outer loop
      vertex -52.3637 -12.5 15
      vertex -51.0818 -14.4705 15
      vertex -31.9264 10.6066 15
    endloop
  endfacet
  facet normal -0.800937 -0.598748 0
    outer loop
      vertex -51.0818 -14.4705 0
      vertex -48.9455 -17.3282 0
      vertex -51.0818 -14.4705 15
    endloop
  endfacet
  facet normal 0 0 -1
    outer loop
      vertex -51.0818 -14.4705 0
      vertex -31.9264 10.6066 0
      vertex -48.9455 -17.3282 0
    endloop
  endfacet
  facet normal -0.800937 -0.598748 0
    outer loop
      vertex -51.0818 -14.4705 15
      vertex -48.9455 -17.3282 0
      vertex -48.9455 -17.3282 15
    endloop
  endfacet
  facet normal -0 0 1
    outer loop
      vertex -51.0818 -14.4705 15
      vertex -48.9455 -17.3282 15
      vertex -31.9264 10.6066 15
    endloop
  endfacet
  facet normal -0.760726 -0.649073 0
    outer loop
      vertex -48.9455 -17.3282 0
      vertex -46.6161 -20.0583 0
      vertex -48.9455 -17.3282 15
    endloop
  endfacet
  facet normal 0 0 -1
    outer loop
      vertex -48.9455 -17.3282 0
      vertex -31.9264 10.6066 0
      vertex -46.6161 -20.0583 0
    endloop
  endfacet
  facet normal -0.760726 -0.649073 0
    outer loop
      vertex -48.9455 -17.3282 15
      vertex -46.6161 -20.0583 0
      vertex -46.6161 -20.0583 15
    endloop
  endfacet
  facet normal -0 0 1
    outer loop
      vertex -48.9455 -17.3282 15
      vertex -46.6161 -20.0583 15
      vertex -31.9264 10.6066 15
    endloop
  endfacet
  facet normal -0.717867 -0.69618 0
    outer loop
      vertex -46.6161 -20.0583 0
      vertex -44.1026 -22.6501 0
      vertex -46.6161 -20.0583 15
    endloop
  endfacet
  facet normal 0 0 -1
    outer loop
      vertex -46.6161 -20.0583 0
      vertex -31.9264 10.6066 0
      vertex -44.1026 -22.6501 0
    endloop
  endfacet
  facet normal -0.717867 -0.69618 0
    outer loop
      vertex -46.6161 -20.0583 15
      vertex -44.1026 -22.6501 0
      vertex -44.1026 -22.6501 15
    endloop
  endfacet
  facet normal -0 0 1
    outer loop
      vertex -46.6161 -20.0583 15
      vertex -44.1026 -22.6501 15
      vertex -31.9264 10.6066 15
    endloop
  endfacet
  facet normal -0.672676 -0.739938 0
    outer loop
      vertex -44.1026 -22.6501 0
      vertex -41.4151 -25.0933 0
      vertex -41.4151 -25.0933 15
    endloop
  endfacet
  facet normal -0.672676 -0.739938 0
    outer loop
      vertex -44.1026 -22.6501 0
      vertex -41.4151 -25.0933 15
      vertex -44.1026 -22.6501 15
    endloop
  endfacet
  facet normal 0 0 -1
    outer loop
      vertex -44.1026 -22.6501 0
      vertex -31.9264 10.6066 0
      vertex -41.4151 -25.0933 0
    endloop
  endfacet
  facet normal -0 0 1
    outer loop
      vertex -44.1026 -22.6501 15
      vertex -41.4151 -25.0933 15
      vertex -31.9264 10.6066 15
    endloop
  endfacet
  facet normal 0.707107 0.707107 -0
    outer loop
      vertex -42.533 21.2132 0
      vertex -42.533 21.2132 15
      vertex -31.9264 10.6066 15
    endloop
  endfacet
  facet normal 0.707107 0.707107 0
    outer loop
      vertex -42.533 21.2132 0
      vertex -31.9264 10.6066 15
      vertex -31.9264 10.6066 0
    endloop
  endfacet
  facet normal -0.625392 -0.78031 0
    outer loop
      vertex -41.4151 -25.0933 0
      vertex -38.5642 -27.3782 0
      vertex -38.5642 -27.3782 15
    endloop
  endfacet
  facet normal -0.625392 -0.78031 0
    outer loop
      vertex -41.4151 -25.0933 0
      vertex -38.5642 -27.3782 15
      vertex -41.4151 -25.0933 15
    endloop
  endfacet
  facet normal 0 0 -1
    outer loop
      vertex -41.4151 -25.0933 0
      vertex -31.9264 10.6066 0
      vertex -38.5642 -27.3782 0
    endloop
  endfacet
  facet normal -0 0 1
    outer loop
      vertex -41.4151 -25.0933 15
      vertex -38.5642 -27.3782 15
      vertex -31.9264 10.6066 15
    endloop
  endfacet
  facet normal -0.576282 -0.817251 0
    outer loop
      vertex -38.5642 -27.3782 0
      vertex -35.561 -29.4959 0
      vertex -35.561 -29.4959 15
    endloop
  endfacet
  facet normal -0.576282 -0.817251 0
    outer loop
      vertex -38.5642 -27.3782 0
      vertex -35.561 -29.4959 15
      vertex -38.5642 -27.3782 15
    endloop
  endfacet
  facet normal 0 0 -1
    outer loop
      vertex -38.5642 -27.3782 0
      vertex -31.9264 10.6066 0
      vertex -7.75 -21.25 0
    endloop
  endfacet
  facet normal 0 0 -1
    outer loop
      vertex -38.5642 -27.3782 0
      vertex -7.75 -21.25 0
      vertex -35.561 -29.4959 0
    endloop
  endfacet
  facet normal -0 0 1
    outer loop
      vertex -38.5642 -27.3782 15
      vertex -35.561 -29.4959 15
      vertex -7.75 -21.25 15
    endloop
  endfacet
  facet normal 0 0 1
    outer loop
      vertex -38.5642 -27.3782 15
      vertex -7.75 -21.25 15
      vertex -31.9264 10.6066 15
    endloop
  endfacet
  facet normal -0.525596 -0.850734 0
    outer loop
      vertex -35.561 -29.4959 0
      vertex -32.4175 -31.438 0
      vertex -32.4175 -31.438 15
    endloop
  endfacet
  facet normal -0.525596 -0.850734 0
    outer loop
      vertex -35.561 -29.4959 0
      vertex -32.4175 -31.438 15
      vertex -35.561 -29.4959 15
    endloop
  endfacet
  facet normal 0 0 -1
    outer loop
      vertex -35.561 -29.4959 0
      vertex -7.75 -21.25 0
      vertex -32.4175 -31.438 0
    endloop
  endfacet
  facet normal -0 0 1
    outer loop
      vertex -35.561 -29.4959 15
      vertex -32.4175 -31.438 15
      vertex -7.75 -21.25 15
    endloop
  endfacet
  facet normal -0.473552 -0.880766 0
    outer loop
      vertex -32.4175 -31.438 0
      vertex -29.1461 -33.1969 0
      vertex -29.1461 -33.1969 15
    endloop
  endfacet
  facet normal -0.473552 -0.880766 0
    outer loop
      vertex -32.4175 -31.438 0
      vertex -29.1461 -33.1969 15
      vertex -32.4175 -31.438 15
    endloop
  endfacet
  facet normal 0 0 -1
    outer loop
      vertex -32.4175 -31.438 0
      vertex -7.75 -21.25 0
      vertex -29.1461 -33.1969 0
    endloop
  endfacet
  facet normal -0 0 1
    outer loop
      vertex -32.4175 -31.438 15
      vertex -29.1461 -33.1969 15
      vertex -7.75 -21.25 15
    endloop
  endfacet
  facet normal -0.707107 0.707107 0
    outer loop
      vertex -31.9264 10.6066 0
      vertex -31.9264 10.6066 15
      vertex -21.3198 21.2132 15
    endloop
  endfacet
  facet normal 0 0 -1
    outer loop
      vertex -31.9264 10.6066 0
      vertex -21.3198 21.2132 0
      vertex -10.7132 10.6066 0
    endloop
  endfacet
  facet normal -0.707107 0.707107 0
    outer loop
      vertex -31.9264 10.6066 0
      vertex -21.3198 21.2132 15
      vertex -21.3198 21.2132 0
    endloop
  endfacet
  facet normal 0 0 -1
    outer loop
      vertex -31.9264 10.6066 0
      vertex -10.7132 10.6066 0
      vertex -7.75 -21.25 0
    endloop
  endfacet
  facet normal 0 0 1
    outer loop
      vertex -31.9264 10.6066 15
      vertex -10.7132 10.6066 15
      vertex -21.3198 21.2132 15
    endloop
  endfacet
  facet normal -0 0 1
    outer loop
      vertex -31.9264 10.6066 15
      vertex -7.75 -21.25 15
      vertex -10.7132 10.6066 15
    endloop
  endfacet
  facet normal -0.420295 -0.907388 0
    outer loop
      vertex -29.1461 -33.1969 0
      vertex -25.7596 -34.7655 0
      vertex -25.7596 -34.7655 15
    endloop
  endfacet
  facet normal -0.420295 -0.907388 0
    outer loop
      vertex -29.1461 -33.1969 0
      vertex -25.7596 -34.7655 15
      vertex -29.1461 -33.1969 15
    endloop
  endfacet
  facet normal 0 0 -1
    outer loop
      vertex -29.1461 -33.1969 0
      vertex -7.75 -21.25 0
      vertex -25.7596 -34.7655 0
    endloop
  endfacet
  facet normal -0 0 1
    outer loop
      vertex -29.1461 -33.1969 15
      vertex -25.7596 -34.7655 15
      vertex -7.75 -21.25 15
    endloop
  endfacet
  facet normal -0.366086 -0.930581 0
    outer loop
      vertex -25.7596 -34.7655 0
      vertex -22.2715 -36.1377 0
      vertex -22.2715 -36.1377 15
    endloop
  endfacet
  facet normal -0.366086 -0.930581 0
    outer loop
      vertex -25.7596 -34.7655 0
      vertex -22.2715 -36.1377 15
      vertex -25.7596 -34.7655 15
    endloop
  endfacet
  facet normal 0 0 -1
    outer loop
      vertex -25.7596 -34.7655 0
      vertex -7.75 -21.25 0
      vertex -22.2715 -36.1377 0
    endloop
  endfacet
  facet normal -0 0 1
    outer loop
      vertex -25.7596 -34.7655 15
      vertex -22.2715 -36.1377 15
      vertex -7.75 -21.25 15
    endloop
  endfacet
  facet normal -0.311057 -0.950391 0
    outer loop
      vertex -22.2715 -36.1377 0
      vertex -18.6955 -37.3081 0
      vertex -18.6955 -37.3081 15
    endloop
  endfacet
  facet normal -0.311057 -0.950391 0
    outer loop
      vertex -22.2715 -36.1377 0
      vertex -18.6955 -37.3081 15
      vertex -22.2715 -36.1377 15
    endloop
  endfacet
  facet normal 0 0 -1
    outer loop
      vertex -22.2715 -36.1377 0
      vertex -7.75 -21.25 0
      vertex -18.6955 -37.3081 0
    endloop
  endfacet
  facet normal -0 0 1
    outer loop
      vertex -22.2715 -36.1377 15
      vertex -18.6955 -37.3081 15
      vertex -7.75 -21.25 15
    endloop
  endfacet
  facet normal 0.707107 0.707107 -0
    outer loop
      vertex -21.3198 21.2132 0
      vertex -21.3198 21.2132 15
      vertex -10.7132 10.6066 15
    endloop
  endfacet
  facet normal 0.707107 0.707107 0
    outer loop
      vertex -21.3198 21.2132 0
      vertex -10.7132 10.6066 15
      vertex -10.7132 10.6066 0
    endloop
  endfacet
  facet normal -0.255367 -0.966844 0
    outer loop
      vertex -18.6955 -37.3081 0
      vertex -15.0457 -38.2721 0
      vertex -15.0457 -38.2721 15
    endloop
  endfacet
  facet normal -0.255367 -0.966844 0
    outer loop
      vertex -18.6955 -37.3081 0
      vertex -15.0457 -38.2721 15
      vertex -18.6955 -37.3081 15
    endloop
  endfacet
  facet normal 0 0 -1
    outer loop
      vertex -18.6955 -37.3081 0
      vertex -7.75 -34.75 0
      vertex -15.0457 -38.2721 0
    endloop
  endfacet
  facet normal 0 0 -1
    outer loop
      vertex -18.6955 -37.3081 0
      vertex -7.75 -21.25 0
      vertex -7.75 -34.75 0
    endloop
  endfacet
  facet normal -0 0 1
    outer loop
      vertex -18.6955 -37.3081 15
      vertex -15.0457 -38.2721 15
      vertex -7.75 -34.75 15
    endloop
  endfacet
  facet normal 0 0 1
    outer loop
      vertex -18.6955 -37.3081 15
      vertex -7.75 -34.75 15
      vertex -7.75 -21.25 15
    endloop
  endfacet
  facet normal -0.199133 -0.979972 0
    outer loop
      vertex -15.0457 -38.2721 0
      vertex -11.3366 -39.0258 0
      vertex -11.3366 -39.0258 15
    endloop
  endfacet
  facet normal -0.199133 -0.979972 0
    outer loop
      vertex -15.0457 -38.2721 0
      vertex -11.3366 -39.0258 15
      vertex -15.0457 -38.2721 15
    endloop
  endfacet
  facet normal 0 0 -1
    outer loop
      vertex -15.0457 -38.2721 0
      vertex -7.75 -34.75 0
      vertex -11.3366 -39.0258 0
    endloop
  endfacet
  facet normal -0 0 1
    outer loop
      vertex -15.0457 -38.2721 15
      vertex -11.3366 -39.0258 15
      vertex -7.75 -34.75 15
    endloop
  endfacet
  facet normal 0 0 -1
    outer loop
      vertex -11.3366 -39.0258 0
      vertex -7.75 -34.75 0
      vertex -7.58266 -39.5663 0
    endloop
  endfacet
  facet normal -0.142512 -0.989793 0
    outer loop
      vertex -11.3366 -39.0258 0
      vertex -7.58266 -39.5663 0
      vertex -7.58266 -39.5663 15
    endloop
  endfacet
  facet normal -0.142512 -0.989793 0
    outer loop
      vertex -11.3366 -39.0258 0
      vertex -7.58266 -39.5663 15
      vertex -11.3366 -39.0258 15
    endloop
  endfacet
  facet normal -0 0 1
    outer loop
      vertex -11.3366 -39.0258 15
      vertex -7.58266 -39.5663 15
      vertex -7.75 -34.75 15
    endloop
  endfacet
  facet normal -0.707107 0.707107 0
    outer loop
      vertex -10.7132 10.6066 0
      vertex -10.7132 10.6066 15
      vertex -0.106602 21.2132 15
    endloop
  endfacet
  facet normal 0 0 -1
    outer loop
      vertex -10.7132 10.6066 0
      vertex -0.106602 21.2132 0
      vertex 10.5 10.6066 0
    endloop
  endfacet
  facet normal -0.707107 0.707107 0
    outer loop
      vertex -10.7132 10.6066 0
      vertex -0.106602 21.2132 15
      vertex -0.106602 21.2132 0
    endloop
  endfacet
  facet normal 0 0 -1
    outer loop
      vertex -10.7132 10.6066 0
      vertex 7.75 -21.25 0
      vertex -7.75 -21.25 0
    endloop
  endfacet
  facet normal 0 0 -1
    outer loop
      vertex -10.7132 10.6066 0
      vertex 10.5 10.6066 0
      vertex 7.75 -21.25 0
    endloop
  endfacet
  facet normal 0 0 1
    outer loop
      vertex -10.7132 10.6066 15
      vertex -7.75 -21.25 15
      vertex 7.75 -21.25 15
    endloop
  endfacet
  facet normal -0 0 1
    outer loop
      vertex -10.7132 10.6066 15
      vertex 7.75 -21.25 15
      vertex 10.5 10.6066 15
    endloop
  endfacet
  facet normal 0 0 1
    outer loop
      vertex -10.7132 10.6066 15
      vertex 10.5 10.6066 15
      vertex -0.106602 21.2132 15
    endloop
  endfacet
  facet normal 0 1 0
    outer loop
      vertex -7.75 -36 1
      vertex -7.75 -36 14
      vertex 7.75 -36 1
    endloop
  endfacet
  facet normal 1 0 0
    outer loop
      vertex -7.75 -36 1
      vertex -7.75 -34.75 1
      vertex -7.75 -36 14
    endloop
  endfacet
  facet normal 0 0 1
    outer loop
      vertex -7.75 -36 1
      vertex 7.75 -36 1
      vertex -7.75 -34.75 1
    endloop
  endfacet
  facet normal 1 -0 0
    outer loop
      vertex -7.75 -36 14
      vertex -7.75 -34.75 1
      vertex -7.75 -34.75 14
    endloop
  endfacet
  facet normal 0 0 -1
    outer loop
      vertex -7.75 -36 14
      vertex -7.75 -34.75 14
      vertex 7.75 -34.75 14
    endloop
  endfacet
  facet normal -0 1 0
    outer loop
      vertex -7.75 -36 14
      vertex 7.75 -36 14
      vertex 7.75 -36 1
    endloop
  endfacet
  facet normal 0 0 -1
    outer loop
      vertex -7.75 -36 14
      vertex 7.75 -34.75 14
      vertex 7.75 -36 14
    endloop
  endfacet
  facet normal 0 1 0
    outer loop
      vertex -7.75 -34.75 0
      vertex -7.75 -34.75 1
      vertex 7.75 -34.75 0
    endloop
  endfacet
  facet normal 1 0 0
    outer loop
      vertex -7.75 -34.75 0
      vertex -7.75 -21.25 0
      vertex -7.75 -34.75 1
    endloop
  endfacet
  facet normal 0 0 -1
    outer loop
      vertex -7.75 -34.75 0
      vertex -3.79883 -39.8915 0
      vertex -7.58266 -39.5663 0
    endloop
  endfacet
  facet normal 0 0 -1
    outer loop
      vertex -7.75 -34.75 0
      vertex 0 -40 0
      vertex -3.79883 -39.8915 0
    endloop
  endfacet
  facet normal 0 0 -1
    outer loop
      vertex -7.75 -34.75 0
      vertex 7.75 -34.75 0
      vertex 0 -40 0
    endloop
  endfacet
  facet normal 1 -0 0
    outer loop
      vertex -7.75 -34.75 1
      vertex -7.75 -21.25 0
      vertex -7.75 -34.75 14
    endloop
  endfacet
  facet normal -0 0 1
    outer loop
      vertex -7.75 -34.75 1
      vertex 7.75 -36 1
      vertex 7.75 -34.75 1
    endloop
  endfacet
  facet normal -0 1 0
    outer loop
      vertex -7.75 -34.75 1
      vertex 7.75 -34.75 1
      vertex 7.75 -34.75 0
    endloop
  endfacet
  facet normal 0 1 0
    outer loop
      vertex -7.75 -34.75 14
      vertex -7.75 -34.75 15
      vertex 7.75 -34.75 14
    endloop
  endfacet
  facet normal 1 -0 0
    outer loop
      vertex -7.75 -34.75 14
      vertex -7.75 -21.25 0
      vertex -7.75 -21.25 15
    endloop
  endfacet
  facet normal 1 0 0
    outer loop
      vertex -7.75 -34.75 14
      vertex -7.75 -21.25 15
      vertex -7.75 -34.75 15
    endloop
  endfacet
  facet normal 0 0 1
    outer loop
      vertex -7.75 -34.75 15
      vertex -7.58266 -39.5663 15
      vertex -3.79883 -39.8915 15
    endloop
  endfacet
  facet normal 0 0 1
    outer loop
      vertex -7.75 -34.75 15
      vertex -3.79883 -39.8915 15
      vertex 0 -40 15
    endloop
  endfacet
  facet normal -0 0 1
    outer loop
      vertex -7.75 -34.75 15
      vertex 0 -40 15
      vertex 7.75 -34.75 15
    endloop
  endfacet
  facet normal -0 1 0
    outer loop
      vertex -7.75 -34.75 15
      vertex 7.75 -34.75 15
      vertex 7.75 -34.75 14
    endloop
  endfacet
  facet normal 0 -1 0
    outer loop
      vertex -7.75 -21.25 0
      vertex 7.75 -21.25 0
      vertex 7.75 -21.25 15
    endloop
  endfacet
  facet normal 0 -1 0
    outer loop
      vertex -7.75 -21.25 0
      vertex 7.75 -21.25 15
      vertex -7.75 -21.25 15
    endloop
  endfacet
  facet normal -0.085629 -0.996327 0
    outer loop
      vertex -7.58266 -39.5663 0
      vertex -3.79883 -39.8915 0
      vertex -3.79883 -39.8915 15
    endloop
  endfacet
  facet normal -0.085629 -0.996327 0
    outer loop
      vertex -7.58266 -39.5663 0
      vertex -3.79883 -39.8915 15
      vertex -7.58266 -39.5663 15
    endloop
  endfacet
  facet normal -0.0285498 -0.999592 0
    outer loop
      vertex -3.79883 -39.8915 0
      vertex 0 -40 0
      vertex 0 -40 15
    endloop
  endfacet
  facet normal -0.0285498 -0.999592 0
    outer loop
      vertex -3.79883 -39.8915 0
      vertex 0 -40 15
      vertex -3.79883 -39.8915 15
    endloop
  endfacet
  facet normal 0.707107 0.707107 -0
    outer loop
      vertex -0.106602 21.2132 0
      vertex -0.106602 21.2132 15
      vertex 10.5 10.6066 15
    endloop
  endfacet
  facet normal 0.707107 0.707107 0
    outer loop
      vertex -0.106602 21.2132 0
      vertex 10.5 10.6066 15
      vertex 10.5 10.6066 0
    endloop
  endfacet
  facet normal 0.0285498 -0.999592 0
    outer loop
      vertex 0 -40 0
      vertex 3.79883 -39.8915 0
      vertex 3.79883 -39.8915 15
    endloop
  endfacet
  facet normal 0.0285498 -0.999592 0
    outer loop
      vertex 0 -40 0
      vertex 3.79883 -39.8915 15
      vertex 0 -40 15
    endloop
  endfacet
  facet normal 0 0 -1
    outer loop
      vertex 0 -40 0
      vertex 7.75 -34.75 0
      vertex 3.79883 -39.8915 0
    endloop
  endfacet
  facet normal 0 0 1
    outer loop
      vertex 0 -40 15
      vertex 3.79883 -39.8915 15
      vertex 7.75 -34.75 15
    endloop
  endfacet
  facet normal 0.085629 -0.996327 0
    outer loop
      vertex 3.79883 -39.8915 0
      vertex 7.58266 -39.5663 0
      vertex 7.58266 -39.5663 15
    endloop
  endfacet
  facet normal 0.085629 -0.996327 0
    outer loop
      vertex 3.79883 -39.8915 0
      vertex 7.58266 -39.5663 15
      vertex 3.79883 -39.8915 15
    endloop
  endfacet
  facet normal 0 0 -1
    outer loop
      vertex 3.79883 -39.8915 0
      vertex 7.75 -34.75 0
      vertex 7.58266 -39.5663 0
    endloop
  endfacet
  facet normal 0 0 1
    outer loop
      vertex 3.79883 -39.8915 15
      vertex 7.58266 -39.5663 15
      vertex 7.75 -34.75 15
    endloop
  endfacet
  facet normal 0 0 -1
    outer loop
      vertex 7.58266 -39.5663 0
      vertex 7.75 -34.75 0
      vertex 11.3366 -39.0258 0
    endloop
  endfacet
  facet normal 0.142512 -0.989793 0
    outer loop
      vertex 7.58266 -39.5663 0
      vertex 11.3366 -39.0258 0
      vertex 11.3366 -39.0258 15
    endloop
  endfacet
  facet normal 0.142512 -0.989793 0
    outer loop
      vertex 7.58266 -39.5663 0
      vertex 11.3366 -39.0258 15
      vertex 7.58266 -39.5663 15
    endloop
  endfacet
  facet normal 0 0 1
    outer loop
      vertex 7.58266 -39.5663 15
      vertex 11.3366 -39.0258 15
      vertex 7.75 -34.75 15
    endloop
  endfacet
  facet normal -1 0 0
    outer loop
      vertex 7.75 -36 1
      vertex 7.75 -36 14
      vertex 7.75 -34.75 14
    endloop
  endfacet
  facet normal -1 0 0
    outer loop
      vertex 7.75 -36 1
      vertex 7.75 -34.75 14
      vertex 7.75 -34.75 1
    endloop
  endfacet
  facet normal -1 0 0
    outer loop
      vertex 7.75 -34.75 0
      vertex 7.75 -34.75 1
      vertex 7.75 -21.25 0
    endloop
  endfacet
  facet normal 0 0 -1
    outer loop
      vertex 7.75 -34.75 0
      vertex 7.75 -21.25 0
      vertex 18.6955 -37.3081 0
    endloop
  endfacet
  facet normal 0 0 -1
    outer loop
      vertex 7.75 -34.75 0
      vertex 15.0457 -38.2721 0
      vertex 11.3366 -39.0258 0
    endloop
  endfacet
  facet normal 0 0 -1
    outer loop
      vertex 7.75 -34.75 0
      vertex 18.6955 -37.3081 0
      vertex 15.0457 -38.2721 0
    endloop
  endfacet
  facet normal -1 0 0
    outer loop
      vertex 7.75 -34.75 1
      vertex 7.75 -34.75 14
      vertex 7.75 -21.25 15
    endloop
  endfacet
  facet normal -1 0 0
    outer loop
      vertex 7.75 -34.75 1
      vertex 7.75 -21.25 15
      vertex 7.75 -21.25 0
    endloop
  endfacet
  facet normal -1 0 0
    outer loop
      vertex 7.75 -34.75 14
      vertex 7.75 -34.75 15
      vertex 7.75 -21.25 15
    endloop
  endfacet
  facet normal 0 0 1
    outer loop
      vertex 7.75 -34.75 15
      vertex 11.3366 -39.0258 15
      vertex 15.0457 -38.2721 15
    endloop
  endfacet
  facet normal 0 0 1
    outer loop
      vertex 7.75 -34.75 15
      vertex 15.0457 -38.2721 15
      vertex 18.6955 -37.3081 15
    endloop
  endfacet
  facet normal -0 0 1
    outer loop
      vertex 7.75 -34.75 15
      vertex 18.6955 -37.3081 15
      vertex 7.75 -21.25 15
    endloop
  endfacet
  facet normal 0 0 -1
    outer loop
      vertex 7.75 -21.25 0
      vertex 10.5 10.6066 0
      vertex 31.7132 10.6066 0
    endloop
  endfacet
  facet normal 0 0 -1
    outer loop
      vertex 7.75 -21.25 0
      vertex 22.2715 -36.1377 0
      vertex 18.6955 -37.3081 0
    endloop
  endfacet
  facet normal 0 0 -1
    outer loop
      vertex 7.75 -21.25 0
      vertex 25.7596 -34.7655 0
      vertex 22.2715 -36.1377 0
    endloop
  endfacet
  facet normal 0 0 -1
    outer loop
      vertex 7.75 -21.25 0
      vertex 29.1461 -33.1969 0
      vertex 25.7596 -34.7655 0
    endloop
  endfacet
  facet normal 0 0 -1
    outer loop
      vertex 7.75 -21.25 0
      vertex 31.7132 10.6066 0
      vertex 38.5642 -27.3782 0
    endloop
  endfacet
  facet normal 0 0 -1
    outer loop
      vertex 7.75 -21.25 0
      vertex 32.4175 -31.438 0
      vertex 29.1461 -33.1969 0
    endloop
  endfacet
  facet normal 0 0 -1
    outer loop
      vertex 7.75 -21.25 0
      vertex 35.561 -29.4959 0
      vertex 32.4175 -31.438 0
    endloop
  endfacet
  facet normal 0 0 -1
    outer loop
      vertex 7.75 -21.25 0
      vertex 38.5642 -27.3782 0
      vertex 35.561 -29.4959 0
    endloop
  endfacet
  facet normal 0 0 1
    outer loop
      vertex 7.75 -21.25 15
      vertex 18.6955 -37.3081 15
      vertex 22.2715 -36.1377 15
    endloop
  endfacet
  facet normal 0 0 1
    outer loop
      vertex 7.75 -21.25 15
      vertex 22.2715 -36.1377 15
      vertex 25.7596 -34.7655 15
    endloop
  endfacet
  facet normal 0 0 1
    outer loop
      vertex 7.75 -21.25 15
      vertex 25.7596 -34.7655 15
      vertex 29.1461 -33.1969 15
    endloop
  endfacet
  facet normal 0 0 1
    outer loop
      vertex 7.75 -21.25 15
      vertex 29.1461 -33.1969 15
      vertex 32.4175 -31.438 15
    endloop
  endfacet
  facet normal 0 0 1
    outer loop
      vertex 7.75 -21.25 15
      vertex 31.7132 10.6066 15
      vertex 10.5 10.6066 15
    endloop
  endfacet
  facet normal 0 0 1
    outer loop
      vertex 7.75 -21.25 15
      vertex 32.4175 -31.438 15
      vertex 35.561 -29.4959 15
    endloop
  endfacet
  facet normal 0 0 1
    outer loop
      vertex 7.75 -21.25 15
      vertex 35.561 -29.4959 15
      vertex 38.5642 -27.3782 15
    endloop
  endfacet
  facet normal -0 0 1
    outer loop
      vertex 7.75 -21.25 15
      vertex 38.5642 -27.3782 15
      vertex 31.7132 10.6066 15
    endloop
  endfacet
  facet normal -0.707107 0.707107 0
    outer loop
      vertex 10.5 10.6066 0
      vertex 10.5 10.6066 15
      vertex 21.1066 21.2132 15
    endloop
  endfacet
  facet normal 0 0 -1
    outer loop
      vertex 10.5 10.6066 0
      vertex 21.1066 21.2132 0
      vertex 31.7132 10.6066 0
    endloop
  endfacet
  facet normal -0.707107 0.707107 0
    outer loop
      vertex 10.5 10.6066 0
      vertex 21.1066 21.2132 15
      vertex 21.1066 21.2132 0
    endloop
  endfacet
  facet normal 0 0 1
    outer loop
      vertex 10.5 10.6066 15
      vertex 31.7132 10.6066 15
      vertex 21.1066 21.2132 15
    endloop
  endfacet
  facet normal 0.199133 -0.979972 0
    outer loop
      vertex 11.3366 -39.0258 0
      vertex 15.0457 -38.2721 0
      vertex 15.0457 -38.2721 15
    endloop
  endfacet
  facet normal 0.199133 -0.979972 0
    outer loop
      vertex 11.3366 -39.0258 0
      vertex 15.0457 -38.2721 15
      vertex 11.3366 -39.0258 15
    endloop
  endfacet
  facet normal 0.255367 -0.966844 0
    outer loop
      vertex 15.0457 -38.2721 0
      vertex 18.6955 -37.3081 0
      vertex 18.6955 -37.3081 15
    endloop
  endfacet
  facet normal 0.255367 -0.966844 0
    outer loop
      vertex 15.0457 -38.2721 0
      vertex 18.6955 -37.3081 15
      vertex 15.0457 -38.2721 15
    endloop
  endfacet
  facet normal 0.311057 -0.950391 0
    outer loop
      vertex 18.6955 -37.3081 0
      vertex 22.2715 -36.1377 0
      vertex 22.2715 -36.1377 15
    endloop
  endfacet
  facet normal 0.311057 -0.950391 0
    outer loop
      vertex 18.6955 -37.3081 0
      vertex 22.2715 -36.1377 15
      vertex 18.6955 -37.3081 15
    endloop
  endfacet
  facet normal 0.707107 0.707107 -0
    outer loop
      vertex 21.1066 21.2132 0
      vertex 21.1066 21.2132 15
      vertex 31.7132 10.6066 15
    endloop
  endfacet
  facet normal 0.707107 0.707107 0
    outer loop
      vertex 21.1066 21.2132 0
      vertex 31.7132 10.6066 15
      vertex 31.7132 10.6066 0
    endloop
  endfacet
  facet normal 0.366086 -0.930581 0
    outer loop
      vertex 22.2715 -36.1377 0
      vertex 25.7596 -34.7655 0
      vertex 25.7596 -34.7655 15
    endloop
  endfacet
  facet normal 0.366086 -0.930581 0
    outer loop
      vertex 22.2715 -36.1377 0
      vertex 25.7596 -34.7655 15
      vertex 22.2715 -36.1377 15
    endloop
  endfacet
  facet normal 0.420295 -0.907388 0
    outer loop
      vertex 25.7596 -34.7655 0
      vertex 29.1461 -33.1969 0
      vertex 29.1461 -33.1969 15
    endloop
  endfacet
  facet normal 0.420295 -0.907388 0
    outer loop
      vertex 25.7596 -34.7655 0
      vertex 29.1461 -33.1969 15
      vertex 25.7596 -34.7655 15
    endloop
  endfacet
  facet normal 0.473552 -0.880766 0
    outer loop
      vertex 29.1461 -33.1969 0
      vertex 32.4175 -31.438 0
      vertex 32.4175 -31.438 15
    endloop
  endfacet
  facet normal 0.473552 -0.880766 0
    outer loop
      vertex 29.1461 -33.1969 0
      vertex 32.4175 -31.438 15
      vertex 29.1461 -33.1969 15
    endloop
  endfacet
  facet normal -0.707107 0.707107 0
    outer loop
      vertex 31.7132 10.6066 0
      vertex 31.7132 10.6066 15
      vertex 42.3198 21.2132 15
    endloop
  endfacet
  facet normal 0 0 -1
    outer loop
      vertex 31.7132 10.6066 0
      vertex 41.4151 -25.0933 0
      vertex 38.5642 -27.3782 0
    endloop
  endfacet
  facet normal 0 0 -1
    outer loop
      vertex 31.7132 10.6066 0
      vertex 42.3198 21.2132 0
      vertex 52.9264 10.6066 0
    endloop
  endfacet
  facet normal -0.707107 0.707107 0
    outer loop
      vertex 31.7132 10.6066 0
      vertex 42.3198 21.2132 15
      vertex 42.3198 21.2132 0
    endloop
  endfacet
  facet normal 0 0 -1
    outer loop
      vertex 31.7132 10.6066 0
      vertex 44.1026 -22.6501 0
      vertex 41.4151 -25.0933 0
    endloop
  endfacet
  facet normal 0 0 -1
    outer loop
      vertex 31.7132 10.6066 0
      vertex 46.6161 -20.0583 0
      vertex 44.1026 -22.6501 0
    endloop
  endfacet
  facet normal 0 0 -1
    outer loop
      vertex 31.7132 10.6066 0
      vertex 48.9455 -17.3282 0
      vertex 46.6161 -20.0583 0
    endloop
  endfacet
  facet normal 0 0 -1
    outer loop
      vertex 31.7132 10.6066 0
      vertex 51.0818 -14.4705 0
      vertex 48.9455 -17.3282 0
    endloop
  endfacet
  facet normal 0 0 -1
    outer loop
      vertex 31.7132 10.6066 0
      vertex 52.3637 -12.5 0
      vertex 51.0818 -14.4705 0
    endloop
  endfacet
  facet normal 0 0 -1
    outer loop
      vertex 31.7132 10.6066 0
      vertex 52.9264 10.6066 0
      vertex 52.3637 -12.5 0
    endloop
  endfacet
  facet normal 0 0 1
    outer loop
      vertex 31.7132 10.6066 15
      vertex 38.5642 -27.3782 15
      vertex 41.4151 -25.0933 15
    endloop
  endfacet
  facet normal 0 0 1
    outer loop
      vertex 31.7132 10.6066 15
      vertex 41.4151 -25.0933 15
      vertex 44.1026 -22.6501 15
    endloop
  endfacet
  facet normal 0 0 1
    outer loop
      vertex 31.7132 10.6066 15
      vertex 44.1026 -22.6501 15
      vertex 46.6161 -20.0583 15
    endloop
  endfacet
  facet normal 0 0 1
    outer loop
      vertex 31.7132 10.6066 15
      vertex 46.6161 -20.0583 15
      vertex 48.9455 -17.3282 15
    endloop
  endfacet
  facet normal 0 0 1
    outer loop
      vertex 31.7132 10.6066 15
      vertex 48.9455 -17.3282 15
      vertex 51.0818 -14.4705 15
    endloop
  endfacet
  facet normal 0 0 1
    outer loop
      vertex 31.7132 10.6066 15
      vertex 51.0818 -14.4705 15
      vertex 52.3637 -12.5 15
    endloop
  endfacet
  facet normal -0 0 1
    outer loop
      vertex 31.7132 10.6066 15
      vertex 52.3637 -12.5 15
      vertex 52.9264 10.6066 15
    endloop
  endfacet
  facet normal 0 0 1
    outer loop
      vertex 31.7132 10.6066 15
      vertex 52.9264 10.6066 15
      vertex 42.3198 21.2132 15
    endloop
  endfacet
  facet normal 0.525596 -0.850734 0
    outer loop
      vertex 32.4175 -31.438 0
      vertex 35.561 -29.4959 0
      vertex 35.561 -29.4959 15
    endloop
  endfacet
  facet normal 0.525596 -0.850734 0
    outer loop
      vertex 32.4175 -31.438 0
      vertex 35.561 -29.4959 15
      vertex 32.4175 -31.438 15
    endloop
  endfacet
  facet normal 0.576282 -0.817251 0
    outer loop
      vertex 35.561 -29.4959 0
      vertex 38.5642 -27.3782 0
      vertex 38.5642 -27.3782 15
    endloop
  endfacet
  facet normal 0.576282 -0.817251 0
    outer loop
      vertex 35.561 -29.4959 0
      vertex 38.5642 -27.3782 15
      vertex 35.561 -29.4959 15
    endloop
  endfacet
  facet normal 0.625392 -0.78031 0
    outer loop
      vertex 38.5642 -27.3782 0
      vertex 41.4151 -25.0933 0
      vertex 41.4151 -25.0933 15
    endloop
  endfacet
  facet normal 0.625392 -0.78031 0
    outer loop
      vertex 38.5642 -27.3782 0
      vertex 41.4151 -25.0933 15
      vertex 38.5642 -27.3782 15
    endloop
  endfacet
  facet normal 0.672676 -0.739938 0
    outer loop
      vertex 41.4151 -25.0933 0
      vertex 44.1026 -22.6501 0
      vertex 44.1026 -22.6501 15
    endloop
  endfacet
  facet normal 0.672676 -0.739938 0
    outer loop
      vertex 41.4151 -25.0933 0
      vertex 44.1026 -22.6501 15
      vertex 41.4151 -25.0933 15
    endloop
  endfacet
  facet normal 0.707107 0.707107 -0
    outer loop
      vertex 42.3198 21.2132 0
      vertex 42.3198 21.2132 15
      vertex 52.9264 10.6066 15
    endloop
  endfacet
  facet normal 0.707107 0.707107 0
    outer loop
      vertex 42.3198 21.2132 0
      vertex 52.9264 10.6066 15
      vertex 52.9264 10.6066 0
    endloop
  endfacet
  facet normal 0.717867 -0.69618 0
    outer loop
      vertex 44.1026 -22.6501 0
      vertex 46.6161 -20.0583 0
      vertex 44.1026 -22.6501 15
    endloop
  endfacet
  facet normal 0.717867 -0.69618 0
    outer loop
      vertex 44.1026 -22.6501 15
      vertex 46.6161 -20.0583 0
      vertex 46.6161 -20.0583 15
    endloop
  endfacet
  facet normal 0.760726 -0.649073 0
    outer loop
      vertex 46.6161 -20.0583 0
      vertex 48.9455 -17.3282 0
      vertex 46.6161 -20.0583 15
    endloop
  endfacet
  facet normal 0.760726 -0.649073 0
    outer loop
      vertex 46.6161 -20.0583 15
      vertex 48.9455 -17.3282 0
      vertex 48.9455 -17.3282 15
    endloop
  endfacet
  facet normal 0.800937 -0.598748 0
    outer loop
      vertex 48.9455 -17.3282 0
      vertex 51.0818 -14.4705 0
      vertex 48.9455 -17.3282 15
    endloop
  endfacet
  facet normal 0.800937 -0.598748 0
    outer loop
      vertex 48.9455 -17.3282 15
      vertex 51.0818 -14.4705 0
      vertex 51.0818 -14.4705 15
    endloop
  endfacet
  facet normal 0.838235 -0.54531 0
    outer loop
      vertex 51.0818 -14.4705 0
      vertex 52.3637 -12.5 0
      vertex 51.0818 -14.4705 15
    endloop
  endfacet
  facet normal 0.838235 -0.54531 0
    outer loop
      vertex 51.0818 -14.4705 15
      vertex 52.3637 -12.5 0
      vertex 52.3637 -12.5 15
    endloop
  endfacet
  facet normal 0 0 -1
    outer loop
      vertex 52.3637 -12.5 0
      vertex 52.9264 10.6066 0
      vertex 64 0.466991 0
    endloop
  endfacet
  facet normal 0 -1 0
    outer loop
      vertex 52.3637 -12.5 0
      vertex 64 -12.5 0
      vertex 64 -12.5 15
    endloop
  endfacet
  facet normal 0 -1 0
    outer loop
      vertex 52.3637 -12.5 0
      vertex 64 -12.5 15
      vertex 52.3637 -12.5 15
    endloop
  endfacet
  facet normal 0 0 -1
    outer loop
      vertex 52.3637 -12.5 0
      vertex 64 0.466991 0
      vertex 64 -12.5 0
    endloop
  endfacet
  facet normal 0 0 1
    outer loop
      vertex 52.3637 -12.5 15
      vertex 64 -12.5 15
      vertex 64 0.466991 15
    endloop
  endfacet
  facet normal 0 0 1
    outer loop
      vertex 52.3637 -12.5 15
      vertex 64 0.466991 15
      vertex 52.9264 10.6066 15
    endloop
  endfacet
  facet normal -0.707107 0.707107 0
    outer loop
      vertex 52.9264 10.6066 0
      vertex 52.9264 10.6066 15
      vertex 63.533 21.2132 15
    endloop
  endfacet
  facet normal 0 0 -1
    outer loop
      vertex 52.9264 10.6066 0
      vertex 63.533 21.2132 0
      vertex 64 0.466991 0
    endloop
  endfacet
  facet normal -0.707107 0.707107 0
    outer loop
      vertex 52.9264 10.6066 0
      vertex 63.533 21.2132 15
      vertex 63.533 21.2132 0
    endloop
  endfacet
  facet normal -0 0 1
    outer loop
      vertex 52.9264 10.6066 15
      vertex 64 0.466991 15
      vertex 63.533 21.2132 15
    endloop
  endfacet
  facet normal 0.707107 0.707107 -0
    outer loop
      vertex 63.533 21.2132 0
      vertex 63.533 21.2132 15
      vertex 74.1396 10.6066 15
    endloop
  endfacet
  facet normal 0 0 -1
    outer loop
      vertex 63.533 21.2132 0
      vertex 74.1396 10.6066 0
      vertex 64 0.466991 0
    endloop
  endfacet
  facet normal 0.707107 0.707107 0
    outer loop
      vertex 63.533 21.2132 0
      vertex 74.1396 10.6066 15
      vertex 74.1396 10.6066 0
    endloop
  endfacet
  facet normal 0 0 1
    outer loop
      vertex 63.533 21.2132 15
      vertex 64 0.466991 15
      vertex 74.1396 10.6066 15
    endloop
  endfacet
  facet normal 1 0 0
    outer loop
      vertex 64 -12.5 0
      vertex 64 0.466991 0
      vertex 64 -12.5 15
    endloop
  endfacet
  facet normal 1 -0 0
    outer loop
      vertex 64 -12.5 15
      vertex 64 0.466991 0
      vertex 64 0.466991 15
    endloop
  endfacet
  facet normal 0.707107 -0.707106 0
    outer loop
      vertex 64 0.466991 0
      vertex 74.1396 10.6066 0
      vertex 64 0.466991 15
    endloop
  endfacet
  facet normal 0.707107 -0.707106 0
    outer loop
      vertex 64 0.466991 15
      vertex 74.1396 10.6066 0
      vertex 74.1396 10.6066 15
    endloop
  endfacet
endsolid OpenSCAD_Model
