solid OpenSCAD_Model
  facet normal -1 0 0
    outer loop
      vertex 0 0 0
      vertex 0 0 15
      vertex 0 30 15
    endloop
  endfacet
  facet normal 0 0 -1
    outer loop
      vertex 0 0 0
      vertex 0 30 0
      vertex 1 16 0
    endloop
  endfacet
  facet normal -1 0 0
    outer loop
      vertex 0 0 0
      vertex 0 30 15
      vertex 0 30 0
    endloop
  endfacet
  facet normal 0 0 -1
    outer loop
      vertex 0 0 0
      vertex 1 1 0
      vertex 14 1 0
    endloop
  endfacet
  facet normal 0 0 -1
    outer loop
      vertex 0 0 0
      vertex 1 14 0
      vertex 1 1 0
    endloop
  endfacet
  facet normal 0 0 -1
    outer loop
      vertex 0 0 0
      vertex 1 16 0
      vertex 1 14 0
    endloop
  endfacet
  facet normal 0 0 -1
    outer loop
      vertex 0 0 0
      vertex 14 1 0
      vertex 30 0 0
    endloop
  endfacet
  facet normal 0 -1 0
    outer loop
      vertex 0 0 0
      vertex 30 0 0
      vertex 30 0 15
    endloop
  endfacet
  facet normal 0 -1 0
    outer loop
      vertex 0 0 0
      vertex 30 0 15
      vertex 0 0 15
    endloop
  endfacet
  facet normal 0 0 1
    outer loop
      vertex 0 0 15
      vertex 1 1 15
      vertex 1 14 15
    endloop
  endfacet
  facet normal 0 0 1
    outer loop
      vertex 0 0 15
      vertex 1 14 15
      vertex 0 30 15
    endloop
  endfacet
  facet normal 0 0 1
    outer loop
      vertex 0 0 15
      vertex 14 1 15
      vertex 1 1 15
    endloop
  endfacet
  facet normal 0 0 1
    outer loop
      vertex 0 0 15
      vertex 30 0 15
      vertex 14 1 15
    endloop
  endfacet
  facet normal 0 1 0
    outer loop
      vertex 0 30 0
      vertex 0 30 15
      vertex 30 30 0
    endloop
  endfacet
  facet normal 0 0 -1
    outer loop
      vertex 0 30 0
      vertex 1 29 0
      vertex 1 16 0
    endloop
  endfacet
  facet normal 0 0 -1
    outer loop
      vertex 0 30 0
      vertex 14 29 0
      vertex 1 29 0
    endloop
  endfacet
  facet normal 0 0 -1
    outer loop
      vertex 0 30 0
      vertex 30 30 0
      vertex 14 29 0
    endloop
  endfacet
  facet normal 0 0 1
    outer loop
      vertex 0 30 15
      vertex 1 14 15
      vertex 1 16 15
    endloop
  endfacet
  facet normal 0 0 1
    outer loop
      vertex 0 30 15
      vertex 1 16 15
      vertex 1 29 15
    endloop
  endfacet
  facet normal 0 0 1
    outer loop
      vertex 0 30 15
      vertex 1 29 15
      vertex 14 29 15
    endloop
  endfacet
  facet normal -0 0 1
    outer loop
      vertex 0 30 15
      vertex 14 29 15
      vertex 30 30 15
    endloop
  endfacet
  facet normal -0 1 0
    outer loop
      vertex 0 30 15
      vertex 30 30 15
      vertex 30 30 0
    endloop
  endfacet
  facet normal -1 0 0
    outer loop
      vertex 0 52.5 0
      vertex 0 52.5 15
      vertex 0 67.5 15
    endloop
  endfacet
  facet normal 0 0 -1
    outer loop
      vertex 0 52.5 0
      vertex 0 67.5 0
      vertex 1 66.5 0
    endloop
  endfacet
  facet normal -1 0 0
    outer loop
      vertex 0 52.5 0
      vertex 0 67.5 15
      vertex 0 67.5 0
    endloop
  endfacet
  facet normal 0 0 -1
    outer loop
      vertex 0 52.5 0
      vertex 1 53.5 0
      vertex 15 52.5 0
    endloop
  endfacet
  facet normal 0 0 -1
    outer loop
      vertex 0 52.5 0
      vertex 1 66.5 0
      vertex 1 53.5 0
    endloop
  endfacet
  facet normal 0 -1 0
    outer loop
      vertex 0 52.5 0
      vertex 15 52.5 0
      vertex 15 52.5 15
    endloop
  endfacet
  facet normal 0 -1 0
    outer loop
      vertex 0 52.5 0
      vertex 15 52.5 15
      vertex 0 52.5 15
    endloop
  endfacet
  facet normal 0 0 1
    outer loop
      vertex 0 52.5 15
      vertex 1 53.5 15
      vertex 0 67.5 15
    endloop
  endfacet
  facet normal 0 0 1
    outer loop
      vertex 0 52.5 15
      vertex 15 52.5 15
      vertex 1 53.5 15
    endloop
  endfacet
  facet normal 0 1 0
    outer loop
      vertex 0 67.5 0
      vertex 0 67.5 15
      vertex 30 67.5 0
    endloop
  endfacet
  facet normal 0 0 -1
    outer loop
      vertex 0 67.5 0
      vertex 14 66.5 0
      vertex 1 66.5 0
    endloop
  endfacet
  facet normal 0 0 -1
    outer loop
      vertex 0 67.5 0
      vertex 30 67.5 0
      vertex 14 66.5 0
    endloop
  endfacet
  facet normal 0 0 1
    outer loop
      vertex 0 67.5 15
      vertex 1 53.5 15
      vertex 1 66.5 15
    endloop
  endfacet
  facet normal 0 0 1
    outer loop
      vertex 0 67.5 15
      vertex 1 66.5 15
      vertex 14 66.5 15
    endloop
  endfacet
  facet normal -0 0 1
    outer loop
      vertex 0 67.5 15
      vertex 14 66.5 15
      vertex 30 67.5 15
    endloop
  endfacet
  facet normal -0 1 0
    outer loop
      vertex 0 67.5 15
      vertex 30 67.5 15
      vertex 30 67.5 0
    endloop
  endfacet
  facet normal 0 1 0
    outer loop
      vertex 1 1 0
      vertex 1 1 15
      vertex 14 1 0
    endloop
  endfacet
  facet normal 1 0 0
    outer loop
      vertex 1 1 0
      vertex 1 14 0
      vertex 1 1 15
    endloop
  endfacet
  facet normal 1 -0 0
    outer loop
      vertex 1 1 15
      vertex 1 14 0
      vertex 1 14 15
    endloop
  endfacet
  facet normal -0 1 0
    outer loop
      vertex 1 1 15
      vertex 14 1 15
      vertex 14 1 0
    endloop
  endfacet
  facet normal 0 0 -1
    outer loop
      vertex 1 14 0
      vertex 1 16 0
      vertex 14 16 0
    endloop
  endfacet
  facet normal 0 -1 0
    outer loop
      vertex 1 14 0
      vertex 14 14 0
      vertex 14 14 15
    endloop
  endfacet
  facet normal 0 -1 0
    outer loop
      vertex 1 14 0
      vertex 14 14 15
      vertex 1 14 15
    endloop
  endfacet
  facet normal 0 0 -1
    outer loop
      vertex 1 14 0
      vertex 14 16 0
      vertex 14 14 0
    endloop
  endfacet
  facet normal 0 0 1
    outer loop
      vertex 1 14 15
      vertex 14 14 15
      vertex 1 16 15
    endloop
  endfacet
  facet normal 0 1 0
    outer loop
      vertex 1 16 0
      vertex 1 16 15
      vertex 14 16 0
    endloop
  endfacet
  facet normal 1 0 0
    outer loop
      vertex 1 16 0
      vertex 1 29 0
      vertex 1 16 15
    endloop
  endfacet
  facet normal 1 -0 0
    outer loop
      vertex 1 16 15
      vertex 1 29 0
      vertex 1 29 15
    endloop
  endfacet
  facet normal -0 0 1
    outer loop
      vertex 1 16 15
      vertex 14 14 15
      vertex 14 16 15
    endloop
  endfacet
  facet normal -0 1 0
    outer loop
      vertex 1 16 15
      vertex 14 16 15
      vertex 14 16 0
    endloop
  endfacet
  facet normal 0 -1 0
    outer loop
      vertex 1 29 0
      vertex 14 29 0
      vertex 14 29 15
    endloop
  endfacet
  facet normal 0 -1 0
    outer loop
      vertex 1 29 0
      vertex 14 29 15
      vertex 1 29 15
    endloop
  endfacet
  facet normal 0 1 0
    outer loop
      vertex 1 53.5 0
      vertex 1 53.5 15
      vertex 14 53.5 0
    endloop
  endfacet
  facet normal 1 0 0
    outer loop
      vertex 1 53.5 0
      vertex 1 66.5 0
      vertex 1 53.5 15
    endloop
  endfacet
  facet normal 0 0 -1
    outer loop
      vertex 1 53.5 0
      vertex 14 53.5 0
      vertex 15 52.5 0
    endloop
  endfacet
  facet normal 1 -0 0
    outer loop
      vertex 1 53.5 15
      vertex 1 66.5 0
      vertex 1 66.5 15
    endloop
  endfacet
  facet normal -0 1 0
    outer loop
      vertex 1 53.5 15
      vertex 14 53.5 15
      vertex 14 53.5 0
    endloop
  endfacet
  facet normal -0 0 1
    outer loop
      vertex 1 53.5 15
      vertex 15 52.5 15
      vertex 14 53.5 15
    endloop
  endfacet
  facet normal 0 -1 0
    outer loop
      vertex 1 66.5 0
      vertex 14 66.5 0
      vertex 14 66.5 15
    endloop
  endfacet
  facet normal 0 -1 0
    outer loop
      vertex 1 66.5 0
      vertex 14 66.5 15
      vertex 1 66.5 15
    endloop
  endfacet
  facet normal -1 0 0
    outer loop
      vertex 14 1 0
      vertex 14 1 15
      vertex 14 14 15
    endloop
  endfacet
  facet normal 0 0 -1
    outer loop
      vertex 14 1 0
      vertex 14 14 0
      vertex 16 1 0
    endloop
  endfacet
  facet normal -1 0 0
    outer loop
      vertex 14 1 0
      vertex 14 14 15
      vertex 14 14 0
    endloop
  endfacet
  facet normal 0 0 -1
    outer loop
      vertex 14 1 0
      vertex 16 1 0
      vertex 30 0 0
    endloop
  endfacet
  facet normal 0 0 1
    outer loop
      vertex 14 1 15
      vertex 16 1 15
      vertex 14 14 15
    endloop
  endfacet
  facet normal -0 0 1
    outer loop
      vertex 14 1 15
      vertex 30 0 15
      vertex 16 1 15
    endloop
  endfacet
  facet normal 0 0 -1
    outer loop
      vertex 14 14 0
      vertex 14 16 0
      vertex 16 16 0
    endloop
  endfacet
  facet normal 0 0 -1
    outer loop
      vertex 14 14 0
      vertex 16 14 0
      vertex 16 1 0
    endloop
  endfacet
  facet normal 0 0 -1
    outer loop
      vertex 14 14 0
      vertex 16 16 0
      vertex 16 14 0
    endloop
  endfacet
  facet normal -0 0 1
    outer loop
      vertex 14 14 15
      vertex 16 1 15
      vertex 16 14 15
    endloop
  endfacet
  facet normal 0 0 1
    outer loop
      vertex 14 14 15
      vertex 16 14 15
      vertex 14 16 15
    endloop
  endfacet
  facet normal -1 0 0
    outer loop
      vertex 14 16 0
      vertex 14 16 15
      vertex 14 29 15
    endloop
  endfacet
  facet normal 0 0 -1
    outer loop
      vertex 14 16 0
      vertex 14 29 0
      vertex 16 29 0
    endloop
  endfacet
  facet normal -1 0 0
    outer loop
      vertex 14 16 0
      vertex 14 29 15
      vertex 14 29 0
    endloop
  endfacet
  facet normal 0 0 -1
    outer loop
      vertex 14 16 0
      vertex 16 29 0
      vertex 16 16 0
    endloop
  endfacet
  facet normal -0 0 1
    outer loop
      vertex 14 16 15
      vertex 16 14 15
      vertex 16 16 15
    endloop
  endfacet
  facet normal 0 0 1
    outer loop
      vertex 14 16 15
      vertex 16 16 15
      vertex 16 29 15
    endloop
  endfacet
  facet normal 0 0 1
    outer loop
      vertex 14 16 15
      vertex 16 29 15
      vertex 14 29 15
    endloop
  endfacet
  facet normal 0 0 -1
    outer loop
      vertex 14 29 0
      vertex 30 30 0
      vertex 16 29 0
    endloop
  endfacet
  facet normal 0 0 1
    outer loop
      vertex 14 29 15
      vertex 16 29 15
      vertex 30 30 15
    endloop
  endfacet
  facet normal -1 0 0
    outer loop
      vertex 14 53.5 0
      vertex 14 53.5 15
      vertex 14 66.5 15
    endloop
  endfacet
  facet normal 0 0 -1
    outer loop
      vertex 14 53.5 0
      vertex 14 66.5 0
      vertex 16 66.5 0
    endloop
  endfacet
  facet normal -1 0 0
    outer loop
      vertex 14 53.5 0
      vertex 14 66.5 15
      vertex 14 66.5 0
    endloop
  endfacet
  facet normal 0 0 -1
    outer loop
      vertex 14 53.5 0
      vertex 16 53.5 0
      vertex 15 52.5 0
    endloop
  endfacet
  facet normal 0 0 -1
    outer loop
      vertex 14 53.5 0
      vertex 16 66.5 0
      vertex 16 53.5 0
    endloop
  endfacet
  facet normal -0 0 1
    outer loop
      vertex 14 53.5 15
      vertex 15 52.5 15
      vertex 16 53.5 15
    endloop
  endfacet
  facet normal 0 0 1
    outer loop
      vertex 14 53.5 15
      vertex 16 53.5 15
      vertex 16 66.5 15
    endloop
  endfacet
  facet normal 0 0 1
    outer loop
      vertex 14 53.5 15
      vertex 16 66.5 15
      vertex 14 66.5 15
    endloop
  endfacet
  facet normal 0 0 -1
    outer loop
      vertex 14 66.5 0
      vertex 30 67.5 0
      vertex 16 66.5 0
    endloop
  endfacet
  facet normal 0 0 1
    outer loop
      vertex 14 66.5 15
      vertex 16 66.5 15
      vertex 30 67.5 15
    endloop
  endfacet
  facet normal -1 0 0
    outer loop
      vertex 15 37.5 0
      vertex 15 37.5 15
      vertex 15 52.5 15
    endloop
  endfacet
  facet normal 0 0 -1
    outer loop
      vertex 15 37.5 0
      vertex 15 52.5 0
      vertex 16 38.5 0
    endloop
  endfacet
  facet normal -1 0 0
    outer loop
      vertex 15 37.5 0
      vertex 15 52.5 15
      vertex 15 52.5 0
    endloop
  endfacet
  facet normal 0 0 -1
    outer loop
      vertex 15 37.5 0
      vertex 16 38.5 0
      vertex 29 38.5 0
    endloop
  endfacet
  facet normal 0 0 -1
    outer loop
      vertex 15 37.5 0
      vertex 29 38.5 0
      vertex 45 37.5 0
    endloop
  endfacet
  facet normal 0 -1 0
    outer loop
      vertex 15 37.5 0
      vertex 45 37.5 0
      vertex 45 37.5 15
    endloop
  endfacet
  facet normal 0 -1 0
    outer loop
      vertex 15 37.5 0
      vertex 45 37.5 15
      vertex 15 37.5 15
    endloop
  endfacet
  facet normal 0 0 1
    outer loop
      vertex 15 37.5 15
      vertex 16 38.5 15
      vertex 15 52.5 15
    endloop
  endfacet
  facet normal 0 0 1
    outer loop
      vertex 15 37.5 15
      vertex 29 38.5 15
      vertex 16 38.5 15
    endloop
  endfacet
  facet normal 0 0 1
    outer loop
      vertex 15 37.5 15
      vertex 45 37.5 15
      vertex 29 38.5 15
    endloop
  endfacet
  facet normal 0 0 -1
    outer loop
      vertex 15 52.5 0
      vertex 16 51.5 0
      vertex 16 38.5 0
    endloop
  endfacet
  facet normal 0 0 -1
    outer loop
      vertex 15 52.5 0
      vertex 16 53.5 0
      vertex 16 51.5 0
    endloop
  endfacet
  facet normal 0 0 1
    outer loop
      vertex 15 52.5 15
      vertex 16 38.5 15
      vertex 16 51.5 15
    endloop
  endfacet
  facet normal -0 0 1
    outer loop
      vertex 15 52.5 15
      vertex 16 51.5 15
      vertex 16 53.5 15
    endloop
  endfacet
  facet normal 0 1 0
    outer loop
      vertex 16 1 0
      vertex 16 1 15
      vertex 29 1 0
    endloop
  endfacet
  facet normal 1 0 0
    outer loop
      vertex 16 1 0
      vertex 16 14 0
      vertex 16 1 15
    endloop
  endfacet
  facet normal 0 0 -1
    outer loop
      vertex 16 1 0
      vertex 29 1 0
      vertex 30 0 0
    endloop
  endfacet
  facet normal 1 -0 0
    outer loop
      vertex 16 1 15
      vertex 16 14 0
      vertex 16 14 15
    endloop
  endfacet
  facet normal -0 1 0
    outer loop
      vertex 16 1 15
      vertex 29 1 15
      vertex 29 1 0
    endloop
  endfacet
  facet normal -0 0 1
    outer loop
      vertex 16 1 15
      vertex 30 0 15
      vertex 29 1 15
    endloop
  endfacet
  facet normal 0 0 -1
    outer loop
      vertex 16 14 0
      vertex 16 16 0
      vertex 29 16 0
    endloop
  endfacet
  facet normal 0 -1 0
    outer loop
      vertex 16 14 0
      vertex 29 14 0
      vertex 29 14 15
    endloop
  endfacet
  facet normal 0 -1 0
    outer loop
      vertex 16 14 0
      vertex 29 14 15
      vertex 16 14 15
    endloop
  endfacet
  facet normal 0 0 -1
    outer loop
      vertex 16 14 0
      vertex 29 16 0
      vertex 29 14 0
    endloop
  endfacet
  facet normal 0 0 1
    outer loop
      vertex 16 14 15
      vertex 29 14 15
      vertex 16 16 15
    endloop
  endfacet
  facet normal 0 1 0
    outer loop
      vertex 16 16 0
      vertex 16 16 15
      vertex 29 16 0
    endloop
  endfacet
  facet normal 1 0 0
    outer loop
      vertex 16 16 0
      vertex 16 29 0
      vertex 16 16 15
    endloop
  endfacet
  facet normal 1 -0 0
    outer loop
      vertex 16 16 15
      vertex 16 29 0
      vertex 16 29 15
    endloop
  endfacet
  facet normal -0 0 1
    outer loop
      vertex 16 16 15
      vertex 29 14 15
      vertex 29 16 15
    endloop
  endfacet
  facet normal -0 1 0
    outer loop
      vertex 16 16 15
      vertex 29 16 15
      vertex 29 16 0
    endloop
  endfacet
  facet normal 0 -1 0
    outer loop
      vertex 16 29 0
      vertex 29 29 0
      vertex 29 29 15
    endloop
  endfacet
  facet normal 0 -1 0
    outer loop
      vertex 16 29 0
      vertex 29 29 15
      vertex 16 29 15
    endloop
  endfacet
  facet normal 0 0 -1
    outer loop
      vertex 16 29 0
      vertex 30 30 0
      vertex 29 29 0
    endloop
  endfacet
  facet normal 0 0 1
    outer loop
      vertex 16 29 15
      vertex 29 29 15
      vertex 30 30 15
    endloop
  endfacet
  facet normal 0 1 0
    outer loop
      vertex 16 38.5 0
      vertex 16 38.5 15
      vertex 29 38.5 0
    endloop
  endfacet
  facet normal 1 0 0
    outer loop
      vertex 16 38.5 0
      vertex 16 51.5 0
      vertex 16 38.5 15
    endloop
  endfacet
  facet normal 1 -0 0
    outer loop
      vertex 16 38.5 15
      vertex 16 51.5 0
      vertex 16 51.5 15
    endloop
  endfacet
  facet normal -0 1 0
    outer loop
      vertex 16 38.5 15
      vertex 29 38.5 15
      vertex 29 38.5 0
    endloop
  endfacet
  facet normal 0 0 -1
    outer loop
      vertex 16 51.5 0
      vertex 16 53.5 0
      vertex 29 53.5 0
    endloop
  endfacet
  facet normal 0 -1 0
    outer loop
      vertex 16 51.5 0
      vertex 29 51.5 0
      vertex 29 51.5 15
    endloop
  endfacet
  facet normal 0 -1 0
    outer loop
      vertex 16 51.5 0
      vertex 29 51.5 15
      vertex 16 51.5 15
    endloop
  endfacet
  facet normal 0 0 -1
    outer loop
      vertex 16 51.5 0
      vertex 29 53.5 0
      vertex 29 51.5 0
    endloop
  endfacet
  facet normal 0 0 1
    outer loop
      vertex 16 51.5 15
      vertex 29 51.5 15
      vertex 16 53.5 15
    endloop
  endfacet
  facet normal 0 1 0
    outer loop
      vertex 16 53.5 0
      vertex 16 53.5 15
      vertex 29 53.5 0
    endloop
  endfacet
  facet normal 1 0 0
    outer loop
      vertex 16 53.5 0
      vertex 16 66.5 0
      vertex 16 53.5 15
    endloop
  endfacet
  facet normal 1 -0 0
    outer loop
      vertex 16 53.5 15
      vertex 16 66.5 0
      vertex 16 66.5 15
    endloop
  endfacet
  facet normal -0 0 1
    outer loop
      vertex 16 53.5 15
      vertex 29 51.5 15
      vertex 29 53.5 15
    endloop
  endfacet
  facet normal -0 1 0
    outer loop
      vertex 16 53.5 15
      vertex 29 53.5 15
      vertex 29 53.5 0
    endloop
  endfacet
  facet normal 0 -1 0
    outer loop
      vertex 16 66.5 0
      vertex 29 66.5 0
      vertex 29 66.5 15
    endloop
  endfacet
  facet normal 0 -1 0
    outer loop
      vertex 16 66.5 0
      vertex 29 66.5 15
      vertex 16 66.5 15
    endloop
  endfacet
  facet normal 0 0 -1
    outer loop
      vertex 16 66.5 0
      vertex 30 67.5 0
      vertex 29 66.5 0
    endloop
  endfacet
  facet normal 0 0 1
    outer loop
      vertex 16 66.5 15
      vertex 29 66.5 15
      vertex 30 67.5 15
    endloop
  endfacet
  facet normal -1 0 0
    outer loop
      vertex 29 1 0
      vertex 29 1 15
      vertex 29 14 15
    endloop
  endfacet
  facet normal 0 0 -1
    outer loop
      vertex 29 1 0
      vertex 29 14 0
      vertex 30 0 0
    endloop
  endfacet
  facet normal -1 0 0
    outer loop
      vertex 29 1 0
      vertex 29 14 15
      vertex 29 14 0
    endloop
  endfacet
  facet normal -0 0 1
    outer loop
      vertex 29 1 15
      vertex 30 0 15
      vertex 29 14 15
    endloop
  endfacet
  facet normal 0 0 -1
    outer loop
      vertex 29 14 0
      vertex 29 16 0
      vertex 30 30 0
    endloop
  endfacet
  facet normal 0 0 -1
    outer loop
      vertex 29 14 0
      vertex 30 30 0
      vertex 30 0 0
    endloop
  endfacet
  facet normal -0 0 1
    outer loop
      vertex 29 14 15
      vertex 30 0 15
      vertex 29 16 15
    endloop
  endfacet
  facet normal -1 0 0
    outer loop
      vertex 29 16 0
      vertex 29 16 15
      vertex 29 29 15
    endloop
  endfacet
  facet normal 0 0 -1
    outer loop
      vertex 29 16 0
      vertex 29 29 0
      vertex 30 30 0
    endloop
  endfacet
  facet normal -1 0 0
    outer loop
      vertex 29 16 0
      vertex 29 29 15
      vertex 29 29 0
    endloop
  endfacet
  facet normal -0 0 1
    outer loop
      vertex 29 16 15
      vertex 30 0 15
      vertex 30 30 15
    endloop
  endfacet
  facet normal 0 0 1
    outer loop
      vertex 29 16 15
      vertex 30 30 15
      vertex 29 29 15
    endloop
  endfacet
  facet normal -1 0 0
    outer loop
      vertex 29 38.5 0
      vertex 29 38.5 15
      vertex 29 51.5 15
    endloop
  endfacet
  facet normal 0 0 -1
    outer loop
      vertex 29 38.5 0
      vertex 29 51.5 0
      vertex 31 38.5 0
    endloop
  endfacet
  facet normal -1 0 0
    outer loop
      vertex 29 38.5 0
      vertex 29 51.5 15
      vertex 29 51.5 0
    endloop
  endfacet
  facet normal 0 0 -1
    outer loop
      vertex 29 38.5 0
      vertex 31 38.5 0
      vertex 45 37.5 0
    endloop
  endfacet
  facet normal 0 0 1
    outer loop
      vertex 29 38.5 15
      vertex 31 38.5 15
      vertex 29 51.5 15
    endloop
  endfacet
  facet normal -0 0 1
    outer loop
      vertex 29 38.5 15
      vertex 45 37.5 15
      vertex 31 38.5 15
    endloop
  endfacet
  facet normal 0 0 -1
    outer loop
      vertex 29 51.5 0
      vertex 29 53.5 0
      vertex 30 52.5 0
    endloop
  endfacet
  facet normal 0 0 -1
    outer loop
      vertex 29 51.5 0
      vertex 30 52.5 0
      vertex 31 51.5 0
    endloop
  endfacet
  facet normal 0 0 -1
    outer loop
      vertex 29 51.5 0
      vertex 31 51.5 0
      vertex 31 38.5 0
    endloop
  endfacet
  facet normal 0 0 1
    outer loop
      vertex 29 51.5 15
      vertex 30 52.5 15
      vertex 29 53.5 15
    endloop
  endfacet
  facet normal -0 0 1
    outer loop
      vertex 29 51.5 15
      vertex 31 38.5 15
      vertex 31 51.5 15
    endloop
  endfacet
  facet normal 0 0 1
    outer loop
      vertex 29 51.5 15
      vertex 31 51.5 15
      vertex 30 52.5 15
    endloop
  endfacet
  facet normal -1 0 0
    outer loop
      vertex 29 53.5 0
      vertex 29 53.5 15
      vertex 29 66.5 15
    endloop
  endfacet
  facet normal 0 0 -1
    outer loop
      vertex 29 53.5 0
      vertex 29 66.5 0
      vertex 30 67.5 0
    endloop
  endfacet
  facet normal -1 0 0
    outer loop
      vertex 29 53.5 0
      vertex 29 66.5 15
      vertex 29 66.5 0
    endloop
  endfacet
  facet normal 0 0 -1
    outer loop
      vertex 29 53.5 0
      vertex 30 67.5 0
      vertex 30 52.5 0
    endloop
  endfacet
  facet normal -0 0 1
    outer loop
      vertex 29 53.5 15
      vertex 30 52.5 15
      vertex 29 66.5 15
    endloop
  endfacet
  facet normal -0 0 1
    outer loop
      vertex 29 66.5 15
      vertex 30 52.5 15
      vertex 30 67.5 15
    endloop
  endfacet
  facet normal 1 0 0
    outer loop
      vertex 30 0 0
      vertex 30 30 0
      vertex 30 0 15
    endloop
  endfacet
  facet normal 1 -0 0
    outer loop
      vertex 30 0 15
      vertex 30 30 0
      vertex 30 30 15
    endloop
  endfacet
  facet normal 0 1 0
    outer loop
      vertex 30 52.5 0
      vertex 30 52.5 15
      vertex 45 52.5 0
    endloop
  endfacet
  facet normal 1 0 0
    outer loop
      vertex 30 52.5 0
      vertex 30 67.5 0
      vertex 30 52.5 15
    endloop
  endfacet
  facet normal 0 0 -1
    outer loop
      vertex 30 52.5 0
      vertex 45 52.5 0
      vertex 31 51.5 0
    endloop
  endfacet
  facet normal 1 -0 0
    outer loop
      vertex 30 52.5 15
      vertex 30 67.5 0
      vertex 30 67.5 15
    endloop
  endfacet
  facet normal -0 0 1
    outer loop
      vertex 30 52.5 15
      vertex 31 51.5 15
      vertex 45 52.5 15
    endloop
  endfacet
  facet normal -0 1 0
    outer loop
      vertex 30 52.5 15
      vertex 45 52.5 15
      vertex 45 52.5 0
    endloop
  endfacet
  facet normal 0 1 0
    outer loop
      vertex 31 38.5 0
      vertex 31 38.5 15
      vertex 44 38.5 0
    endloop
  endfacet
  facet normal 1 0 0
    outer loop
      vertex 31 38.5 0
      vertex 31 51.5 0
      vertex 31 38.5 15
    endloop
  endfacet
  facet normal 0 0 -1
    outer loop
      vertex 31 38.5 0
      vertex 44 38.5 0
      vertex 45 37.5 0
    endloop
  endfacet
  facet normal 1 -0 0
    outer loop
      vertex 31 38.5 15
      vertex 31 51.5 0
      vertex 31 51.5 15
    endloop
  endfacet
  facet normal -0 1 0
    outer loop
      vertex 31 38.5 15
      vertex 44 38.5 15
      vertex 44 38.5 0
    endloop
  endfacet
  facet normal -0 0 1
    outer loop
      vertex 31 38.5 15
      vertex 45 37.5 15
      vertex 44 38.5 15
    endloop
  endfacet
  facet normal 0 -1 0
    outer loop
      vertex 31 51.5 0
      vertex 44 51.5 0
      vertex 44 51.5 15
    endloop
  endfacet
  facet normal 0 -1 0
    outer loop
      vertex 31 51.5 0
      vertex 44 51.5 15
      vertex 31 51.5 15
    endloop
  endfacet
  facet normal 0 0 -1
    outer loop
      vertex 31 51.5 0
      vertex 45 52.5 0
      vertex 44 51.5 0
    endloop
  endfacet
  facet normal 0 0 1
    outer loop
      vertex 31 51.5 15
      vertex 44 51.5 15
      vertex 45 52.5 15
    endloop
  endfacet
  facet normal -1 0 0
    outer loop
      vertex 44 38.5 0
      vertex 44 38.5 15
      vertex 44 51.5 15
    endloop
  endfacet
  facet normal 0 0 -1
    outer loop
      vertex 44 38.5 0
      vertex 44 51.5 0
      vertex 45 52.5 0
    endloop
  endfacet
  facet normal -1 0 0
    outer loop
      vertex 44 38.5 0
      vertex 44 51.5 15
      vertex 44 51.5 0
    endloop
  endfacet
  facet normal 0 0 -1
    outer loop
      vertex 44 38.5 0
      vertex 45 52.5 0
      vertex 45 37.5 0
    endloop
  endfacet
  facet normal -0 0 1
    outer loop
      vertex 44 38.5 15
      vertex 45 37.5 15
      vertex 44 51.5 15
    endloop
  endfacet
  facet normal -0 0 1
    outer loop
      vertex 44 51.5 15
      vertex 45 37.5 15
      vertex 45 52.5 15
    endloop
  endfacet
  facet normal 1 0 0
    outer loop
      vertex 45 37.5 0
      vertex 45 52.5 0
      vertex 45 37.5 15
    endloop
  endfacet
  facet normal 1 -0 0
    outer loop
      vertex 45 37.5 15
      vertex 45 52.5 0
      vertex 45 52.5 15
    endloop
  endfacet
  facet normal -1 0 0
    outer loop
      vertex 52.5 0 0
      vertex 52.5 0 15
      vertex 52.5 15 15
    endloop
  endfacet
  facet normal 0 0 -1
    outer loop
      vertex 52.5 0 0
      vertex 52.5 15 0
      vertex 53.5 14 0
    endloop
  endfacet
  facet normal -1 0 0
    outer loop
      vertex 52.5 0 0
      vertex 52.5 15 15
      vertex 52.5 15 0
    endloop
  endfacet
  facet normal 0 0 -1
    outer loop
      vertex 52.5 0 0
      vertex 53.5 1 0
      vertex 66.5 1 0
    endloop
  endfacet
  facet normal 0 0 -1
    outer loop
      vertex 52.5 0 0
      vertex 53.5 14 0
      vertex 53.5 1 0
    endloop
  endfacet
  facet normal 0 0 -1
    outer loop
      vertex 52.5 0 0
      vertex 66.5 1 0
      vertex 68.5 1 0
    endloop
  endfacet
  facet normal 0 0 -1
    outer loop
      vertex 52.5 0 0
      vertex 68.5 1 0
      vertex 97.5 0 0
    endloop
  endfacet
  facet normal 0 -1 0
    outer loop
      vertex 52.5 0 0
      vertex 97.5 0 0
      vertex 97.5 0 15
    endloop
  endfacet
  facet normal 0 -1 0
    outer loop
      vertex 52.5 0 0
      vertex 97.5 0 15
      vertex 52.5 0 15
    endloop
  endfacet
  facet normal 0 0 1
    outer loop
      vertex 52.5 0 15
      vertex 53.5 1 15
      vertex 52.5 15 15
    endloop
  endfacet
  facet normal 0 0 1
    outer loop
      vertex 52.5 0 15
      vertex 66.5 1 15
      vertex 53.5 1 15
    endloop
  endfacet
  facet normal 0 0 1
    outer loop
      vertex 52.5 0 15
      vertex 68.5 1 15
      vertex 66.5 1 15
    endloop
  endfacet
  facet normal 0 0 1
    outer loop
      vertex 52.5 0 15
      vertex 97.5 0 15
      vertex 68.5 1 15
    endloop
  endfacet
  facet normal 0 1 0
    outer loop
      vertex 52.5 15 0
      vertex 52.5 15 15
      vertex 67.5 15 0
    endloop
  endfacet
  facet normal 0 0 -1
    outer loop
      vertex 52.5 15 0
      vertex 67.5 15 0
      vertex 53.5 14 0
    endloop
  endfacet
  facet normal 0 0 1
    outer loop
      vertex 52.5 15 15
      vertex 53.5 1 15
      vertex 53.5 14 15
    endloop
  endfacet
  facet normal -0 0 1
    outer loop
      vertex 52.5 15 15
      vertex 53.5 14 15
      vertex 67.5 15 15
    endloop
  endfacet
  facet normal -0 1 0
    outer loop
      vertex 52.5 15 15
      vertex 67.5 15 15
      vertex 67.5 15 0
    endloop
  endfacet
  facet normal -1 0 0
    outer loop
      vertex 52.5 37.5 0
      vertex 52.5 37.5 15
      vertex 52.5 67.5 15
    endloop
  endfacet
  facet normal 0 0 -1
    outer loop
      vertex 52.5 37.5 0
      vertex 52.5 67.5 0
      vertex 53.5 53.5 0
    endloop
  endfacet
  facet normal -1 0 0
    outer loop
      vertex 52.5 37.5 0
      vertex 52.5 67.5 15
      vertex 52.5 67.5 0
    endloop
  endfacet
  facet normal 0 0 -1
    outer loop
      vertex 52.5 37.5 0
      vertex 53.5 38.5 0
      vertex 66.5 38.5 0
    endloop
  endfacet
  facet normal 0 0 -1
    outer loop
      vertex 52.5 37.5 0
      vertex 53.5 51.5 0
      vertex 53.5 38.5 0
    endloop
  endfacet
  facet normal 0 0 -1
    outer loop
      vertex 52.5 37.5 0
      vertex 53.5 53.5 0
      vertex 53.5 51.5 0
    endloop
  endfacet
  facet normal 0 0 -1
    outer loop
      vertex 52.5 37.5 0
      vertex 66.5 38.5 0
      vertex 68.5 38.5 0
    endloop
  endfacet
  facet normal 0 0 -1
    outer loop
      vertex 52.5 37.5 0
      vertex 68.5 38.5 0
      vertex 97.5 37.5 0
    endloop
  endfacet
  facet normal 0 -1 0
    outer loop
      vertex 52.5 37.5 0
      vertex 97.5 37.5 0
      vertex 97.5 37.5 15
    endloop
  endfacet
  facet normal 0 -1 0
    outer loop
      vertex 52.5 37.5 0
      vertex 97.5 37.5 15
      vertex 52.5 37.5 15
    endloop
  endfacet
  facet normal 0 0 1
    outer loop
      vertex 52.5 37.5 15
      vertex 53.5 38.5 15
      vertex 53.5 51.5 15
    endloop
  endfacet
  facet normal 0 0 1
    outer loop
      vertex 52.5 37.5 15
      vertex 53.5 51.5 15
      vertex 52.5 67.5 15
    endloop
  endfacet
  facet normal 0 0 1
    outer loop
      vertex 52.5 37.5 15
      vertex 66.5 38.5 15
      vertex 53.5 38.5 15
    endloop
  endfacet
  facet normal 0 0 1
    outer loop
      vertex 52.5 37.5 15
      vertex 68.5 38.5 15
      vertex 66.5 38.5 15
    endloop
  endfacet
  facet normal 0 0 1
    outer loop
      vertex 52.5 37.5 15
      vertex 97.5 37.5 15
      vertex 68.5 38.5 15
    endloop
  endfacet
  facet normal 0 1 0
    outer loop
      vertex 52.5 67.5 0
      vertex 52.5 67.5 15
      vertex 67.5 67.5 0
    endloop
  endfacet
  facet normal 0 0 -1
    outer loop
      vertex 52.5 67.5 0
      vertex 53.5 66.5 0
      vertex 53.5 53.5 0
    endloop
  endfacet
  facet normal 0 0 -1
    outer loop
      vertex 52.5 67.5 0
      vertex 67.5 67.5 0
      vertex 53.5 66.5 0
    endloop
  endfacet
  facet normal 0 0 1
    outer loop
      vertex 52.5 67.5 15
      vertex 53.5 51.5 15
      vertex 53.5 53.5 15
    endloop
  endfacet
  facet normal 0 0 1
    outer loop
      vertex 52.5 67.5 15
      vertex 53.5 53.5 15
      vertex 53.5 66.5 15
    endloop
  endfacet
  facet normal -0 0 1
    outer loop
      vertex 52.5 67.5 15
      vertex 53.5 66.5 15
      vertex 67.5 67.5 15
    endloop
  endfacet
  facet normal -0 1 0
    outer loop
      vertex 52.5 67.5 15
      vertex 67.5 67.5 15
      vertex 67.5 67.5 0
    endloop
  endfacet
  facet normal 0 1 0
    outer loop
      vertex 53.5 1 0
      vertex 53.5 1 15
      vertex 66.5 1 0
    endloop
  endfacet
  facet normal 1 0 0
    outer loop
      vertex 53.5 1 0
      vertex 53.5 14 0
      vertex 53.5 1 15
    endloop
  endfacet
  facet normal 1 -0 0
    outer loop
      vertex 53.5 1 15
      vertex 53.5 14 0
      vertex 53.5 14 15
    endloop
  endfacet
  facet normal -0 1 0
    outer loop
      vertex 53.5 1 15
      vertex 66.5 1 15
      vertex 66.5 1 0
    endloop
  endfacet
  facet normal 0 -1 0
    outer loop
      vertex 53.5 14 0
      vertex 66.5 14 0
      vertex 66.5 14 15
    endloop
  endfacet
  facet normal 0 -1 0
    outer loop
      vertex 53.5 14 0
      vertex 66.5 14 15
      vertex 53.5 14 15
    endloop
  endfacet
  facet normal 0 0 -1
    outer loop
      vertex 53.5 14 0
      vertex 67.5 15 0
      vertex 66.5 14 0
    endloop
  endfacet
  facet normal 0 0 1
    outer loop
      vertex 53.5 14 15
      vertex 66.5 14 15
      vertex 67.5 15 15
    endloop
  endfacet
  facet normal 0 1 0
    outer loop
      vertex 53.5 38.5 0
      vertex 53.5 38.5 15
      vertex 66.5 38.5 0
    endloop
  endfacet
  facet normal 1 0 0
    outer loop
      vertex 53.5 38.5 0
      vertex 53.5 51.5 0
      vertex 53.5 38.5 15
    endloop
  endfacet
  facet normal 1 -0 0
    outer loop
      vertex 53.5 38.5 15
      vertex 53.5 51.5 0
      vertex 53.5 51.5 15
    endloop
  endfacet
  facet normal -0 1 0
    outer loop
      vertex 53.5 38.5 15
      vertex 66.5 38.5 15
      vertex 66.5 38.5 0
    endloop
  endfacet
  facet normal 0 0 -1
    outer loop
      vertex 53.5 51.5 0
      vertex 53.5 53.5 0
      vertex 66.5 53.5 0
    endloop
  endfacet
  facet normal 0 -1 0
    outer loop
      vertex 53.5 51.5 0
      vertex 66.5 51.5 0
      vertex 66.5 51.5 15
    endloop
  endfacet
  facet normal 0 -1 0
    outer loop
      vertex 53.5 51.5 0
      vertex 66.5 51.5 15
      vertex 53.5 51.5 15
    endloop
  endfacet
  facet normal 0 0 -1
    outer loop
      vertex 53.5 51.5 0
      vertex 66.5 53.5 0
      vertex 66.5 51.5 0
    endloop
  endfacet
  facet normal 0 0 1
    outer loop
      vertex 53.5 51.5 15
      vertex 66.5 51.5 15
      vertex 53.5 53.5 15
    endloop
  endfacet
  facet normal 0 1 0
    outer loop
      vertex 53.5 53.5 0
      vertex 53.5 53.5 15
      vertex 66.5 53.5 0
    endloop
  endfacet
  facet normal 1 0 0
    outer loop
      vertex 53.5 53.5 0
      vertex 53.5 66.5 0
      vertex 53.5 53.5 15
    endloop
  endfacet
  facet normal 1 -0 0
    outer loop
      vertex 53.5 53.5 15
      vertex 53.5 66.5 0
      vertex 53.5 66.5 15
    endloop
  endfacet
  facet normal -0 0 1
    outer loop
      vertex 53.5 53.5 15
      vertex 66.5 51.5 15
      vertex 66.5 53.5 15
    endloop
  endfacet
  facet normal -0 1 0
    outer loop
      vertex 53.5 53.5 15
      vertex 66.5 53.5 15
      vertex 66.5 53.5 0
    endloop
  endfacet
  facet normal 0 -1 0
    outer loop
      vertex 53.5 66.5 0
      vertex 66.5 66.5 0
      vertex 66.5 66.5 15
    endloop
  endfacet
  facet normal 0 -1 0
    outer loop
      vertex 53.5 66.5 0
      vertex 66.5 66.5 15
      vertex 53.5 66.5 15
    endloop
  endfacet
  facet normal 0 0 -1
    outer loop
      vertex 53.5 66.5 0
      vertex 67.5 67.5 0
      vertex 66.5 66.5 0
    endloop
  endfacet
  facet normal 0 0 1
    outer loop
      vertex 53.5 66.5 15
      vertex 66.5 66.5 15
      vertex 67.5 67.5 15
    endloop
  endfacet
  facet normal -1 0 0
    outer loop
      vertex 66.5 1 0
      vertex 66.5 1 15
      vertex 66.5 14 15
    endloop
  endfacet
  facet normal 0 0 -1
    outer loop
      vertex 66.5 1 0
      vertex 66.5 14 0
      vertex 68.5 1 0
    endloop
  endfacet
  facet normal -1 0 0
    outer loop
      vertex 66.5 1 0
      vertex 66.5 14 15
      vertex 66.5 14 0
    endloop
  endfacet
  facet normal 0 0 1
    outer loop
      vertex 66.5 1 15
      vertex 68.5 1 15
      vertex 66.5 14 15
    endloop
  endfacet
  facet normal 0 0 -1
    outer loop
      vertex 66.5 14 0
      vertex 67.5 15 0
      vertex 68.5 14 0
    endloop
  endfacet
  facet normal 0 0 -1
    outer loop
      vertex 66.5 14 0
      vertex 68.5 14 0
      vertex 68.5 1 0
    endloop
  endfacet
  facet normal -0 0 1
    outer loop
      vertex 66.5 14 15
      vertex 68.5 1 15
      vertex 68.5 14 15
    endloop
  endfacet
  facet normal 0 0 1
    outer loop
      vertex 66.5 14 15
      vertex 68.5 14 15
      vertex 67.5 15 15
    endloop
  endfacet
  facet normal -1 0 0
    outer loop
      vertex 66.5 38.5 0
      vertex 66.5 38.5 15
      vertex 66.5 51.5 15
    endloop
  endfacet
  facet normal 0 0 -1
    outer loop
      vertex 66.5 38.5 0
      vertex 66.5 51.5 0
      vertex 68.5 38.5 0
    endloop
  endfacet
  facet normal -1 0 0
    outer loop
      vertex 66.5 38.5 0
      vertex 66.5 51.5 15
      vertex 66.5 51.5 0
    endloop
  endfacet
  facet normal 0 0 1
    outer loop
      vertex 66.5 38.5 15
      vertex 68.5 38.5 15
      vertex 66.5 51.5 15
    endloop
  endfacet
  facet normal 0 0 -1
    outer loop
      vertex 66.5 51.5 0
      vertex 66.5 53.5 0
      vertex 67.5 52.5 0
    endloop
  endfacet
  facet normal 0 0 -1
    outer loop
      vertex 66.5 51.5 0
      vertex 67.5 52.5 0
      vertex 68.5 51.5 0
    endloop
  endfacet
  facet normal 0 0 -1
    outer loop
      vertex 66.5 51.5 0
      vertex 68.5 51.5 0
      vertex 68.5 38.5 0
    endloop
  endfacet
  facet normal 0 0 1
    outer loop
      vertex 66.5 51.5 15
      vertex 67.5 52.5 15
      vertex 66.5 53.5 15
    endloop
  endfacet
  facet normal -0 0 1
    outer loop
      vertex 66.5 51.5 15
      vertex 68.5 38.5 15
      vertex 68.5 51.5 15
    endloop
  endfacet
  facet normal 0 0 1
    outer loop
      vertex 66.5 51.5 15
      vertex 68.5 51.5 15
      vertex 67.5 52.5 15
    endloop
  endfacet
  facet normal -1 0 0
    outer loop
      vertex 66.5 53.5 0
      vertex 66.5 53.5 15
      vertex 66.5 66.5 15
    endloop
  endfacet
  facet normal 0 0 -1
    outer loop
      vertex 66.5 53.5 0
      vertex 66.5 66.5 0
      vertex 67.5 67.5 0
    endloop
  endfacet
  facet normal -1 0 0
    outer loop
      vertex 66.5 53.5 0
      vertex 66.5 66.5 15
      vertex 66.5 66.5 0
    endloop
  endfacet
  facet normal 0 0 -1
    outer loop
      vertex 66.5 53.5 0
      vertex 67.5 67.5 0
      vertex 67.5 52.5 0
    endloop
  endfacet
  facet normal -0 0 1
    outer loop
      vertex 66.5 53.5 15
      vertex 67.5 52.5 15
      vertex 66.5 66.5 15
    endloop
  endfacet
  facet normal -0 0 1
    outer loop
      vertex 66.5 66.5 15
      vertex 67.5 52.5 15
      vertex 67.5 67.5 15
    endloop
  endfacet
  facet normal -1 0 0
    outer loop
      vertex 67.5 15 0
      vertex 67.5 15 15
      vertex 67.5 30 15
    endloop
  endfacet
  facet normal 0 0 -1
    outer loop
      vertex 67.5 15 0
      vertex 67.5 30 0
      vertex 68.5 29 0
    endloop
  endfacet
  facet normal -1 0 0
    outer loop
      vertex 67.5 15 0
      vertex 67.5 30 15
      vertex 67.5 30 0
    endloop
  endfacet
  facet normal 0 0 -1
    outer loop
      vertex 67.5 15 0
      vertex 68.5 16 0
      vertex 68.5 14 0
    endloop
  endfacet
  facet normal 0 0 -1
    outer loop
      vertex 67.5 15 0
      vertex 68.5 29 0
      vertex 68.5 16 0
    endloop
  endfacet
  facet normal -0 0 1
    outer loop
      vertex 67.5 15 15
      vertex 68.5 14 15
      vertex 68.5 16 15
    endloop
  endfacet
  facet normal 0 0 1
    outer loop
      vertex 67.5 15 15
      vertex 68.5 16 15
      vertex 68.5 29 15
    endloop
  endfacet
  facet normal 0 0 1
    outer loop
      vertex 67.5 15 15
      vertex 68.5 29 15
      vertex 67.5 30 15
    endloop
  endfacet
  facet normal 0 1 0
    outer loop
      vertex 67.5 30 0
      vertex 67.5 30 15
      vertex 82.5 30 0
    endloop
  endfacet
  facet normal 0 0 -1
    outer loop
      vertex 67.5 30 0
      vertex 82.5 30 0
      vertex 68.5 29 0
    endloop
  endfacet
  facet normal -0 0 1
    outer loop
      vertex 67.5 30 15
      vertex 68.5 29 15
      vertex 82.5 30 15
    endloop
  endfacet
  facet normal -0 1 0
    outer loop
      vertex 67.5 30 15
      vertex 82.5 30 15
      vertex 82.5 30 0
    endloop
  endfacet
  facet normal 0 1 0
    outer loop
      vertex 67.5 52.5 0
      vertex 67.5 52.5 15
      vertex 97.5 52.5 0
    endloop
  endfacet
  facet normal 1 0 0
    outer loop
      vertex 67.5 52.5 0
      vertex 67.5 67.5 0
      vertex 67.5 52.5 15
    endloop
  endfacet
  facet normal 0 0 -1
    outer loop
      vertex 67.5 52.5 0
      vertex 81.5 51.5 0
      vertex 68.5 51.5 0
    endloop
  endfacet
  facet normal 0 0 -1
    outer loop
      vertex 67.5 52.5 0
      vertex 97.5 52.5 0
      vertex 81.5 51.5 0
    endloop
  endfacet
  facet normal 1 -0 0
    outer loop
      vertex 67.5 52.5 15
      vertex 67.5 67.5 0
      vertex 67.5 67.5 15
    endloop
  endfacet
  facet normal 0 0 1
    outer loop
      vertex 67.5 52.5 15
      vertex 68.5 51.5 15
      vertex 81.5 51.5 15
    endloop
  endfacet
  facet normal -0 0 1
    outer loop
      vertex 67.5 52.5 15
      vertex 81.5 51.5 15
      vertex 97.5 52.5 15
    endloop
  endfacet
  facet normal -0 1 0
    outer loop
      vertex 67.5 52.5 15
      vertex 97.5 52.5 15
      vertex 97.5 52.5 0
    endloop
  endfacet
  facet normal 0 1 0
    outer loop
      vertex 68.5 1 0
      vertex 68.5 1 15
      vertex 81.5 1 0
    endloop
  endfacet
  facet normal 1 0 0
    outer loop
      vertex 68.5 1 0
      vertex 68.5 14 0
      vertex 68.5 1 15
    endloop
  endfacet
  facet normal 0 0 -1
    outer loop
      vertex 68.5 1 0
      vertex 81.5 1 0
      vertex 97.5 0 0
    endloop
  endfacet
  facet normal 1 -0 0
    outer loop
      vertex 68.5 1 15
      vertex 68.5 14 0
      vertex 68.5 14 15
    endloop
  endfacet
  facet normal -0 1 0
    outer loop
      vertex 68.5 1 15
      vertex 81.5 1 15
      vertex 81.5 1 0
    endloop
  endfacet
  facet normal -0 0 1
    outer loop
      vertex 68.5 1 15
      vertex 97.5 0 15
      vertex 81.5 1 15
    endloop
  endfacet
  facet normal 0 0 -1
    outer loop
      vertex 68.5 14 0
      vertex 68.5 16 0
      vertex 81.5 16 0
    endloop
  endfacet
  facet normal 0 -1 0
    outer loop
      vertex 68.5 14 0
      vertex 81.5 14 0
      vertex 81.5 14 15
    endloop
  endfacet
  facet normal 0 -1 0
    outer loop
      vertex 68.5 14 0
      vertex 81.5 14 15
      vertex 68.5 14 15
    endloop
  endfacet
  facet normal 0 0 -1
    outer loop
      vertex 68.5 14 0
      vertex 81.5 16 0
      vertex 81.5 14 0
    endloop
  endfacet
  facet normal 0 0 1
    outer loop
      vertex 68.5 14 15
      vertex 81.5 14 15
      vertex 68.5 16 15
    endloop
  endfacet
  facet normal 0 1 0
    outer loop
      vertex 68.5 16 0
      vertex 68.5 16 15
      vertex 81.5 16 0
    endloop
  endfacet
  facet normal 1 0 0
    outer loop
      vertex 68.5 16 0
      vertex 68.5 29 0
      vertex 68.5 16 15
    endloop
  endfacet
  facet normal 1 -0 0
    outer loop
      vertex 68.5 16 15
      vertex 68.5 29 0
      vertex 68.5 29 15
    endloop
  endfacet
  facet normal -0 0 1
    outer loop
      vertex 68.5 16 15
      vertex 81.5 14 15
      vertex 81.5 16 15
    endloop
  endfacet
  facet normal -0 1 0
    outer loop
      vertex 68.5 16 15
      vertex 81.5 16 15
      vertex 81.5 16 0
    endloop
  endfacet
  facet normal 0 -1 0
    outer loop
      vertex 68.5 29 0
      vertex 81.5 29 0
      vertex 81.5 29 15
    endloop
  endfacet
  facet normal 0 -1 0
    outer loop
      vertex 68.5 29 0
      vertex 81.5 29 15
      vertex 68.5 29 15
    endloop
  endfacet
  facet normal 0 0 -1
    outer loop
      vertex 68.5 29 0
      vertex 82.5 30 0
      vertex 81.5 29 0
    endloop
  endfacet
  facet normal 0 0 1
    outer loop
      vertex 68.5 29 15
      vertex 81.5 29 15
      vertex 82.5 30 15
    endloop
  endfacet
  facet normal 0 1 0
    outer loop
      vertex 68.5 38.5 0
      vertex 68.5 38.5 15
      vertex 81.5 38.5 0
    endloop
  endfacet
  facet normal 1 0 0
    outer loop
      vertex 68.5 38.5 0
      vertex 68.5 51.5 0
      vertex 68.5 38.5 15
    endloop
  endfacet
  facet normal 0 0 -1
    outer loop
      vertex 68.5 38.5 0
      vertex 81.5 38.5 0
      vertex 97.5 37.5 0
    endloop
  endfacet
  facet normal 1 -0 0
    outer loop
      vertex 68.5 38.5 15
      vertex 68.5 51.5 0
      vertex 68.5 51.5 15
    endloop
  endfacet
  facet normal -0 1 0
    outer loop
      vertex 68.5 38.5 15
      vertex 81.5 38.5 15
      vertex 81.5 38.5 0
    endloop
  endfacet
  facet normal -0 0 1
    outer loop
      vertex 68.5 38.5 15
      vertex 97.5 37.5 15
      vertex 81.5 38.5 15
    endloop
  endfacet
  facet normal 0 -1 0
    outer loop
      vertex 68.5 51.5 0
      vertex 81.5 51.5 0
      vertex 81.5 51.5 15
    endloop
  endfacet
  facet normal 0 -1 0
    outer loop
      vertex 68.5 51.5 0
      vertex 81.5 51.5 15
      vertex 68.5 51.5 15
    endloop
  endfacet
  facet normal -1 0 0
    outer loop
      vertex 81.5 1 0
      vertex 81.5 1 15
      vertex 81.5 14 15
    endloop
  endfacet
  facet normal 0 0 -1
    outer loop
      vertex 81.5 1 0
      vertex 81.5 14 0
      vertex 83.5 1 0
    endloop
  endfacet
  facet normal -1 0 0
    outer loop
      vertex 81.5 1 0
      vertex 81.5 14 15
      vertex 81.5 14 0
    endloop
  endfacet
  facet normal 0 0 -1
    outer loop
      vertex 81.5 1 0
      vertex 83.5 1 0
      vertex 97.5 0 0
    endloop
  endfacet
  facet normal 0 0 1
    outer loop
      vertex 81.5 1 15
      vertex 83.5 1 15
      vertex 81.5 14 15
    endloop
  endfacet
  facet normal -0 0 1
    outer loop
      vertex 81.5 1 15
      vertex 97.5 0 15
      vertex 83.5 1 15
    endloop
  endfacet
  facet normal 0 0 -1
    outer loop
      vertex 81.5 14 0
      vertex 81.5 16 0
      vertex 82.5 15 0
    endloop
  endfacet
  facet normal 0 0 -1
    outer loop
      vertex 81.5 14 0
      vertex 82.5 15 0
      vertex 83.5 14 0
    endloop
  endfacet
  facet normal 0 0 -1
    outer loop
      vertex 81.5 14 0
      vertex 83.5 14 0
      vertex 83.5 1 0
    endloop
  endfacet
  facet normal 0 0 1
    outer loop
      vertex 81.5 14 15
      vertex 82.5 15 15
      vertex 81.5 16 15
    endloop
  endfacet
  facet normal -0 0 1
    outer loop
      vertex 81.5 14 15
      vertex 83.5 1 15
      vertex 83.5 14 15
    endloop
  endfacet
  facet normal 0 0 1
    outer loop
      vertex 81.5 14 15
      vertex 83.5 14 15
      vertex 82.5 15 15
    endloop
  endfacet
  facet normal -1 0 0
    outer loop
      vertex 81.5 16 0
      vertex 81.5 16 15
      vertex 81.5 29 15
    endloop
  endfacet
  facet normal 0 0 -1
    outer loop
      vertex 81.5 16 0
      vertex 81.5 29 0
      vertex 82.5 30 0
    endloop
  endfacet
  facet normal -1 0 0
    outer loop
      vertex 81.5 16 0
      vertex 81.5 29 15
      vertex 81.5 29 0
    endloop
  endfacet
  facet normal 0 0 -1
    outer loop
      vertex 81.5 16 0
      vertex 82.5 30 0
      vertex 82.5 15 0
    endloop
  endfacet
  facet normal -0 0 1
    outer loop
      vertex 81.5 16 15
      vertex 82.5 15 15
      vertex 81.5 29 15
    endloop
  endfacet
  facet normal -0 0 1
    outer loop
      vertex 81.5 29 15
      vertex 82.5 15 15
      vertex 82.5 30 15
    endloop
  endfacet
  facet normal -1 0 0
    outer loop
      vertex 81.5 38.5 0
      vertex 81.5 38.5 15
      vertex 81.5 51.5 15
    endloop
  endfacet
  facet normal 0 0 -1
    outer loop
      vertex 81.5 38.5 0
      vertex 81.5 51.5 0
      vertex 83.5 51.5 0
    endloop
  endfacet
  facet normal -1 0 0
    outer loop
      vertex 81.5 38.5 0
      vertex 81.5 51.5 15
      vertex 81.5 51.5 0
    endloop
  endfacet
  facet normal 0 0 -1
    outer loop
      vertex 81.5 38.5 0
      vertex 83.5 38.5 0
      vertex 97.5 37.5 0
    endloop
  endfacet
  facet normal 0 0 -1
    outer loop
      vertex 81.5 38.5 0
      vertex 83.5 51.5 0
      vertex 83.5 38.5 0
    endloop
  endfacet
  facet normal 0 0 1
    outer loop
      vertex 81.5 38.5 15
      vertex 83.5 38.5 15
      vertex 81.5 51.5 15
    endloop
  endfacet
  facet normal -0 0 1
    outer loop
      vertex 81.5 38.5 15
      vertex 97.5 37.5 15
      vertex 83.5 38.5 15
    endloop
  endfacet
  facet normal 0 0 -1
    outer loop
      vertex 81.5 51.5 0
      vertex 97.5 52.5 0
      vertex 83.5 51.5 0
    endloop
  endfacet
  facet normal -0 0 1
    outer loop
      vertex 81.5 51.5 15
      vertex 83.5 38.5 15
      vertex 83.5 51.5 15
    endloop
  endfacet
  facet normal 0 0 1
    outer loop
      vertex 81.5 51.5 15
      vertex 83.5 51.5 15
      vertex 97.5 52.5 15
    endloop
  endfacet
  facet normal 0 1 0
    outer loop
      vertex 82.5 15 0
      vertex 82.5 15 15
      vertex 97.5 15 0
    endloop
  endfacet
  facet normal 1 0 0
    outer loop
      vertex 82.5 15 0
      vertex 82.5 30 0
      vertex 82.5 15 15
    endloop
  endfacet
  facet normal 0 0 -1
    outer loop
      vertex 82.5 15 0
      vertex 97.5 15 0
      vertex 83.5 14 0
    endloop
  endfacet
  facet normal 1 -0 0
    outer loop
      vertex 82.5 15 15
      vertex 82.5 30 0
      vertex 82.5 30 15
    endloop
  endfacet
  facet normal -0 0 1
    outer loop
      vertex 82.5 15 15
      vertex 83.5 14 15
      vertex 97.5 15 15
    endloop
  endfacet
  facet normal -0 1 0
    outer loop
      vertex 82.5 15 15
      vertex 97.5 15 15
      vertex 97.5 15 0
    endloop
  endfacet
  facet normal 0 1 0
    outer loop
      vertex 83.5 1 0
      vertex 83.5 1 15
      vertex 96.5 1 0
    endloop
  endfacet
  facet normal 1 0 0
    outer loop
      vertex 83.5 1 0
      vertex 83.5 14 0
      vertex 83.5 1 15
    endloop
  endfacet
  facet normal 0 0 -1
    outer loop
      vertex 83.5 1 0
      vertex 96.5 1 0
      vertex 97.5 0 0
    endloop
  endfacet
  facet normal 1 -0 0
    outer loop
      vertex 83.5 1 15
      vertex 83.5 14 0
      vertex 83.5 14 15
    endloop
  endfacet
  facet normal -0 1 0
    outer loop
      vertex 83.5 1 15
      vertex 96.5 1 15
      vertex 96.5 1 0
    endloop
  endfacet
  facet normal -0 0 1
    outer loop
      vertex 83.5 1 15
      vertex 97.5 0 15
      vertex 96.5 1 15
    endloop
  endfacet
  facet normal 0 -1 0
    outer loop
      vertex 83.5 14 0
      vertex 96.5 14 0
      vertex 96.5 14 15
    endloop
  endfacet
  facet normal 0 -1 0
    outer loop
      vertex 83.5 14 0
      vertex 96.5 14 15
      vertex 83.5 14 15
    endloop
  endfacet
  facet normal 0 0 -1
    outer loop
      vertex 83.5 14 0
      vertex 97.5 15 0
      vertex 96.5 14 0
    endloop
  endfacet
  facet normal 0 0 1
    outer loop
      vertex 83.5 14 15
      vertex 96.5 14 15
      vertex 97.5 15 15
    endloop
  endfacet
  facet normal 0 1 0
    outer loop
      vertex 83.5 38.5 0
      vertex 83.5 38.5 15
      vertex 96.5 38.5 0
    endloop
  endfacet
  facet normal 1 0 0
    outer loop
      vertex 83.5 38.5 0
      vertex 83.5 51.5 0
      vertex 83.5 38.5 15
    endloop
  endfacet
  facet normal 0 0 -1
    outer loop
      vertex 83.5 38.5 0
      vertex 96.5 38.5 0
      vertex 97.5 37.5 0
    endloop
  endfacet
  facet normal 1 -0 0
    outer loop
      vertex 83.5 38.5 15
      vertex 83.5 51.5 0
      vertex 83.5 51.5 15
    endloop
  endfacet
  facet normal -0 1 0
    outer loop
      vertex 83.5 38.5 15
      vertex 96.5 38.5 15
      vertex 96.5 38.5 0
    endloop
  endfacet
  facet normal -0 0 1
    outer loop
      vertex 83.5 38.5 15
      vertex 97.5 37.5 15
      vertex 96.5 38.5 15
    endloop
  endfacet
  facet normal 0 -1 0
    outer loop
      vertex 83.5 51.5 0
      vertex 96.5 51.5 0
      vertex 96.5 51.5 15
    endloop
  endfacet
  facet normal 0 -1 0
    outer loop
      vertex 83.5 51.5 0
      vertex 96.5 51.5 15
      vertex 83.5 51.5 15
    endloop
  endfacet
  facet normal 0 0 -1
    outer loop
      vertex 83.5 51.5 0
      vertex 97.5 52.5 0
      vertex 96.5 51.5 0
    endloop
  endfacet
  facet normal 0 0 1
    outer loop
      vertex 83.5 51.5 15
      vertex 96.5 51.5 15
      vertex 97.5 52.5 15
    endloop
  endfacet
  facet normal -1 0 0
    outer loop
      vertex 96.5 1 0
      vertex 96.5 1 15
      vertex 96.5 14 15
    endloop
  endfacet
  facet normal 0 0 -1
    outer loop
      vertex 96.5 1 0
      vertex 96.5 14 0
      vertex 97.5 15 0
    endloop
  endfacet
  facet normal -1 0 0
    outer loop
      vertex 96.5 1 0
      vertex 96.5 14 15
      vertex 96.5 14 0
    endloop
  endfacet
  facet normal 0 0 -1
    outer loop
      vertex 96.5 1 0
      vertex 97.5 15 0
      vertex 97.5 0 0
    endloop
  endfacet
  facet normal -0 0 1
    outer loop
      vertex 96.5 1 15
      vertex 97.5 0 15
      vertex 96.5 14 15
    endloop
  endfacet
  facet normal -0 0 1
    outer loop
      vertex 96.5 14 15
      vertex 97.5 0 15
      vertex 97.5 15 15
    endloop
  endfacet
  facet normal -1 0 0
    outer loop
      vertex 96.5 38.5 0
      vertex 96.5 38.5 15
      vertex 96.5 51.5 15
    endloop
  endfacet
  facet normal 0 0 -1
    outer loop
      vertex 96.5 38.5 0
      vertex 96.5 51.5 0
      vertex 97.5 52.5 0
    endloop
  endfacet
  facet normal -1 0 0
    outer loop
      vertex 96.5 38.5 0
      vertex 96.5 51.5 15
      vertex 96.5 51.5 0
    endloop
  endfacet
  facet normal 0 0 -1
    outer loop
      vertex 96.5 38.5 0
      vertex 97.5 52.5 0
      vertex 97.5 37.5 0
    endloop
  endfacet
  facet normal -0 0 1
    outer loop
      vertex 96.5 38.5 15
      vertex 97.5 37.5 15
      vertex 96.5 51.5 15
    endloop
  endfacet
  facet normal -0 0 1
    outer loop
      vertex 96.5 51.5 15
      vertex 97.5 37.5 15
      vertex 97.5 52.5 15
    endloop
  endfacet
  facet normal 1 0 0
    outer loop
      vertex 97.5 0 0
      vertex 97.5 15 0
      vertex 97.5 0 15
    endloop
  endfacet
  facet normal 1 -0 0
    outer loop
      vertex 97.5 0 15
      vertex 97.5 15 0
      vertex 97.5 15 15
    endloop
  endfacet
  facet normal 1 0 0
    outer loop
      vertex 97.5 37.5 0
      vertex 97.5 52.5 0
      vertex 97.5 37.5 15
    endloop
  endfacet
  facet normal 1 -0 0
    outer loop
      vertex 97.5 37.5 15
      vertex 97.5 52.5 0
      vertex 97.5 52.5 15
    endloop
  endfacet
  facet normal -1 0 0
    outer loop
      vertex 105 0 0
      vertex 105 0 30
      vertex 105 15 15
    endloop
  endfacet
  facet normal -1 0 0
    outer loop
      vertex 105 0 0
      vertex 105 15 15
      vertex 105 30 0
    endloop
  endfacet
  facet normal 0 0 -1
    outer loop
      vertex 105 0 0
      vertex 105 30 0
      vertex 120 15 0
    endloop
  endfacet
  facet normal 0 -1 0
    outer loop
      vertex 105 0 0
      vertex 120 0 15
      vertex 105 0 30
    endloop
  endfacet
  facet normal 0 0 -1
    outer loop
      vertex 105 0 0
      vertex 120 15 0
      vertex 135 0 0
    endloop
  endfacet
  facet normal 0 -1 0
    outer loop
      vertex 105 0 0
      vertex 135 0 0
      vertex 120 0 15
    endloop
  endfacet
  facet normal -1 0 0
    outer loop
      vertex 105 0 30
      vertex 105 15 30
      vertex 105 15 15
    endloop
  endfacet
  facet normal 0 -1 0
    outer loop
      vertex 105 0 30
      vertex 120 0 15
      vertex 120 0 30
    endloop
  endfacet
  facet normal 0 0 1
    outer loop
      vertex 105 0 30
      vertex 120 0 30
      vertex 105 15 30
    endloop
  endfacet
  facet normal 0 1 0
    outer loop
      vertex 105 15 15
      vertex 105 15 30
      vertex 120 15 15
    endloop
  endfacet
  facet normal -1 0 0
    outer loop
      vertex 105 15 15
      vertex 105 30 15
      vertex 105 30 0
    endloop
  endfacet
  facet normal 0 0 1
    outer loop
      vertex 105 15 15
      vertex 120 15 15
      vertex 105 30 15
    endloop
  endfacet
  facet normal -0 0 1
    outer loop
      vertex 105 15 30
      vertex 120 0 30
      vertex 120 15 30
    endloop
  endfacet
  facet normal -0 1 0
    outer loop
      vertex 105 15 30
      vertex 120 15 30
      vertex 120 15 15
    endloop
  endfacet
  facet normal 0 1 0
    outer loop
      vertex 105 30 0
      vertex 105 30 15
      vertex 120 30 0
    endloop
  endfacet
  facet normal 0 0 -1
    outer loop
      vertex 105 30 0
      vertex 120 30 0
      vertex 120 15 0
    endloop
  endfacet
  facet normal -0 0 1
    outer loop
      vertex 105 30 15
      vertex 120 15 15
      vertex 120 30 15
    endloop
  endfacet
  facet normal -0 1 0
    outer loop
      vertex 105 30 15
      vertex 120 30 15
      vertex 120 30 0
    endloop
  endfacet
  facet normal -1 0 0
    outer loop
      vertex 105 37.5 0
      vertex 105 37.5 15
      vertex 105 52.5 15
    endloop
  endfacet
  facet normal 0 0 -1
    outer loop
      vertex 105 37.5 0
      vertex 105 52.5 0
      vertex 106 51.5 0
    endloop
  endfacet
  facet normal -1 0 0
    outer loop
      vertex 105 37.5 0
      vertex 105 52.5 15
      vertex 105 52.5 0
    endloop
  endfacet
  facet normal 0 0 -1
    outer loop
      vertex 105 37.5 0
      vertex 106 38.5 0
      vertex 119 38.5 0
    endloop
  endfacet
  facet normal 0 0 -1
    outer loop
      vertex 105 37.5 0
      vertex 106 51.5 0
      vertex 106 38.5 0
    endloop
  endfacet
  facet normal 0 0 -1
    outer loop
      vertex 105 37.5 0
      vertex 119 38.5 0
      vertex 121 38.5 0
    endloop
  endfacet
  facet normal 0 0 -1
    outer loop
      vertex 105 37.5 0
      vertex 121 38.5 0
      vertex 134 38.5 0
    endloop
  endfacet
  facet normal 0 0 -1
    outer loop
      vertex 105 37.5 0
      vertex 134 38.5 0
      vertex 165 37.5 0
    endloop
  endfacet
  facet normal 0 -1 0
    outer loop
      vertex 105 37.5 0
      vertex 165 37.5 0
      vertex 165 37.5 15
    endloop
  endfacet
  facet normal 0 -1 0
    outer loop
      vertex 105 37.5 0
      vertex 165 37.5 15
      vertex 105 37.5 15
    endloop
  endfacet
  facet normal 0 0 1
    outer loop
      vertex 105 37.5 15
      vertex 106 38.5 15
      vertex 105 52.5 15
    endloop
  endfacet
  facet normal 0 0 1
    outer loop
      vertex 105 37.5 15
      vertex 119 38.5 15
      vertex 106 38.5 15
    endloop
  endfacet
  facet normal 0 0 1
    outer loop
      vertex 105 37.5 15
      vertex 121 38.5 15
      vertex 119 38.5 15
    endloop
  endfacet
  facet normal 0 0 1
    outer loop
      vertex 105 37.5 15
      vertex 134 38.5 15
      vertex 121 38.5 15
    endloop
  endfacet
  facet normal 0 0 1
    outer loop
      vertex 105 37.5 15
      vertex 165 37.5 15
      vertex 134 38.5 15
    endloop
  endfacet
  facet normal 0 1 0
    outer loop
      vertex 105 52.5 0
      vertex 105 52.5 15
      vertex 165 52.5 0
    endloop
  endfacet
  facet normal 0 0 -1
    outer loop
      vertex 105 52.5 0
      vertex 119 51.5 0
      vertex 106 51.5 0
    endloop
  endfacet
  facet normal 0 0 -1
    outer loop
      vertex 105 52.5 0
      vertex 121 51.5 0
      vertex 119 51.5 0
    endloop
  endfacet
  facet normal 0 0 -1
    outer loop
      vertex 105 52.5 0
      vertex 134 51.5 0
      vertex 121 51.5 0
    endloop
  endfacet
  facet normal 0 0 -1
    outer loop
      vertex 105 52.5 0
      vertex 165 52.5 0
      vertex 134 51.5 0
    endloop
  endfacet
  facet normal 0 0 1
    outer loop
      vertex 105 52.5 15
      vertex 106 38.5 15
      vertex 106 51.5 15
    endloop
  endfacet
  facet normal 0 0 1
    outer loop
      vertex 105 52.5 15
      vertex 106 51.5 15
      vertex 119 51.5 15
    endloop
  endfacet
  facet normal 0 0 1
    outer loop
      vertex 105 52.5 15
      vertex 119 51.5 15
      vertex 121 51.5 15
    endloop
  endfacet
  facet normal 0 0 1
    outer loop
      vertex 105 52.5 15
      vertex 121 51.5 15
      vertex 134 51.5 15
    endloop
  endfacet
  facet normal -0 0 1
    outer loop
      vertex 105 52.5 15
      vertex 134 51.5 15
      vertex 165 52.5 15
    endloop
  endfacet
  facet normal -0 1 0
    outer loop
      vertex 105 52.5 15
      vertex 165 52.5 15
      vertex 165 52.5 0
    endloop
  endfacet
  facet normal 0 1 0
    outer loop
      vertex 106 38.5 0
      vertex 106 38.5 15
      vertex 119 38.5 0
    endloop
  endfacet
  facet normal 1 0 0
    outer loop
      vertex 106 38.5 0
      vertex 106 51.5 0
      vertex 106 38.5 15
    endloop
  endfacet
  facet normal 1 -0 0
    outer loop
      vertex 106 38.5 15
      vertex 106 51.5 0
      vertex 106 51.5 15
    endloop
  endfacet
  facet normal -0 1 0
    outer loop
      vertex 106 38.5 15
      vertex 119 38.5 15
      vertex 119 38.5 0
    endloop
  endfacet
  facet normal 0 -1 0
    outer loop
      vertex 106 51.5 0
      vertex 119 51.5 0
      vertex 119 51.5 15
    endloop
  endfacet
  facet normal 0 -1 0
    outer loop
      vertex 106 51.5 0
      vertex 119 51.5 15
      vertex 106 51.5 15
    endloop
  endfacet
  facet normal -1 0 0
    outer loop
      vertex 119 38.5 0
      vertex 119 38.5 15
      vertex 119 51.5 15
    endloop
  endfacet
  facet normal 0 0 -1
    outer loop
      vertex 119 38.5 0
      vertex 119 51.5 0
      vertex 121 51.5 0
    endloop
  endfacet
  facet normal -1 0 0
    outer loop
      vertex 119 38.5 0
      vertex 119 51.5 15
      vertex 119 51.5 0
    endloop
  endfacet
  facet normal 0 0 -1
    outer loop
      vertex 119 38.5 0
      vertex 121 51.5 0
      vertex 121 38.5 0
    endloop
  endfacet
  facet normal 0 0 1
    outer loop
      vertex 119 38.5 15
      vertex 121 38.5 15
      vertex 119 51.5 15
    endloop
  endfacet
  facet normal -0 0 1
    outer loop
      vertex 119 51.5 15
      vertex 121 38.5 15
      vertex 121 51.5 15
    endloop
  endfacet
  facet normal 1 0 0
    outer loop
      vertex 120 0 15
      vertex 120 15 15
      vertex 120 0 30
    endloop
  endfacet
  facet normal 0 -1 0
    outer loop
      vertex 120 0 15
      vertex 135 0 0
      vertex 135 0 15
    endloop
  endfacet
  facet normal 0 0 1
    outer loop
      vertex 120 0 15
      vertex 135 0 15
      vertex 120 15 15
    endloop
  endfacet
  facet normal 1 -0 0
    outer loop
      vertex 120 0 30
      vertex 120 15 15
      vertex 120 15 30
    endloop
  endfacet
  facet normal 0 1 0
    outer loop
      vertex 120 15 0
      vertex 120 15 15
      vertex 135 15 0
    endloop
  endfacet
  facet normal 1 0 0
    outer loop
      vertex 120 15 0
      vertex 120 30 0
      vertex 120 15 15
    endloop
  endfacet
  facet normal 0 0 -1
    outer loop
      vertex 120 15 0
      vertex 135 15 0
      vertex 135 0 0
    endloop
  endfacet
  facet normal 1 -0 0
    outer loop
      vertex 120 15 15
      vertex 120 30 0
      vertex 120 30 15
    endloop
  endfacet
  facet normal -0 0 1
    outer loop
      vertex 120 15 15
      vertex 135 0 15
      vertex 135 15 15
    endloop
  endfacet
  facet normal -0 1 0
    outer loop
      vertex 120 15 15
      vertex 135 15 15
      vertex 135 15 0
    endloop
  endfacet
  facet normal 0 1 0
    outer loop
      vertex 121 38.5 0
      vertex 121 38.5 15
      vertex 134 38.5 0
    endloop
  endfacet
  facet normal 1 0 0
    outer loop
      vertex 121 38.5 0
      vertex 121 51.5 0
      vertex 121 38.5 15
    endloop
  endfacet
  facet normal 1 -0 0
    outer loop
      vertex 121 38.5 15
      vertex 121 51.5 0
      vertex 121 51.5 15
    endloop
  endfacet
  facet normal -0 1 0
    outer loop
      vertex 121 38.5 15
      vertex 134 38.5 15
      vertex 134 38.5 0
    endloop
  endfacet
  facet normal 0 -1 0
    outer loop
      vertex 121 51.5 0
      vertex 134 51.5 0
      vertex 134 51.5 15
    endloop
  endfacet
  facet normal 0 -1 0
    outer loop
      vertex 121 51.5 0
      vertex 134 51.5 15
      vertex 121 51.5 15
    endloop
  endfacet
  facet normal -1 0 0
    outer loop
      vertex 134 38.5 0
      vertex 134 38.5 15
      vertex 134 51.5 15
    endloop
  endfacet
  facet normal 0 0 -1
    outer loop
      vertex 134 38.5 0
      vertex 134 51.5 0
      vertex 136 51.5 0
    endloop
  endfacet
  facet normal -1 0 0
    outer loop
      vertex 134 38.5 0
      vertex 134 51.5 15
      vertex 134 51.5 0
    endloop
  endfacet
  facet normal 0 0 -1
    outer loop
      vertex 134 38.5 0
      vertex 136 38.5 0
      vertex 165 37.5 0
    endloop
  endfacet
  facet normal 0 0 -1
    outer loop
      vertex 134 38.5 0
      vertex 136 51.5 0
      vertex 136 38.5 0
    endloop
  endfacet
  facet normal 0 0 1
    outer loop
      vertex 134 38.5 15
      vertex 136 38.5 15
      vertex 134 51.5 15
    endloop
  endfacet
  facet normal -0 0 1
    outer loop
      vertex 134 38.5 15
      vertex 165 37.5 15
      vertex 136 38.5 15
    endloop
  endfacet
  facet normal 0 0 -1
    outer loop
      vertex 134 51.5 0
      vertex 165 52.5 0
      vertex 136 51.5 0
    endloop
  endfacet
  facet normal -0 0 1
    outer loop
      vertex 134 51.5 15
      vertex 136 38.5 15
      vertex 136 51.5 15
    endloop
  endfacet
  facet normal 0 0 1
    outer loop
      vertex 134 51.5 15
      vertex 136 51.5 15
      vertex 165 52.5 15
    endloop
  endfacet
  facet normal 1 0 0
    outer loop
      vertex 135 0 0
      vertex 135 15 0
      vertex 135 0 15
    endloop
  endfacet
  facet normal 1 -0 0
    outer loop
      vertex 135 0 15
      vertex 135 15 0
      vertex 135 15 15
    endloop
  endfacet
  facet normal 0 1 0
    outer loop
      vertex 136 38.5 0
      vertex 136 38.5 15
      vertex 149 38.5 0
    endloop
  endfacet
  facet normal 1 0 0
    outer loop
      vertex 136 38.5 0
      vertex 136 51.5 0
      vertex 136 38.5 15
    endloop
  endfacet
  facet normal 0 0 -1
    outer loop
      vertex 136 38.5 0
      vertex 149 38.5 0
      vertex 165 37.5 0
    endloop
  endfacet
  facet normal 1 -0 0
    outer loop
      vertex 136 38.5 15
      vertex 136 51.5 0
      vertex 136 51.5 15
    endloop
  endfacet
  facet normal -0 1 0
    outer loop
      vertex 136 38.5 15
      vertex 149 38.5 15
      vertex 149 38.5 0
    endloop
  endfacet
  facet normal -0 0 1
    outer loop
      vertex 136 38.5 15
      vertex 165 37.5 15
      vertex 149 38.5 15
    endloop
  endfacet
  facet normal 0 -1 0
    outer loop
      vertex 136 51.5 0
      vertex 149 51.5 0
      vertex 149 51.5 15
    endloop
  endfacet
  facet normal 0 -1 0
    outer loop
      vertex 136 51.5 0
      vertex 149 51.5 15
      vertex 136 51.5 15
    endloop
  endfacet
  facet normal 0 0 -1
    outer loop
      vertex 136 51.5 0
      vertex 165 52.5 0
      vertex 149 51.5 0
    endloop
  endfacet
  facet normal 0 0 1
    outer loop
      vertex 136 51.5 15
      vertex 149 51.5 15
      vertex 165 52.5 15
    endloop
  endfacet
  facet normal -1 0 0
    outer loop
      vertex 149 38.5 0
      vertex 149 38.5 15
      vertex 149 51.5 15
    endloop
  endfacet
  facet normal 0 0 -1
    outer loop
      vertex 149 38.5 0
      vertex 149 51.5 0
      vertex 151 51.5 0
    endloop
  endfacet
  facet normal -1 0 0
    outer loop
      vertex 149 38.5 0
      vertex 149 51.5 15
      vertex 149 51.5 0
    endloop
  endfacet
  facet normal 0 0 -1
    outer loop
      vertex 149 38.5 0
      vertex 151 38.5 0
      vertex 165 37.5 0
    endloop
  endfacet
  facet normal 0 0 -1
    outer loop
      vertex 149 38.5 0
      vertex 151 51.5 0
      vertex 151 38.5 0
    endloop
  endfacet
  facet normal 0 0 1
    outer loop
      vertex 149 38.5 15
      vertex 151 38.5 15
      vertex 149 51.5 15
    endloop
  endfacet
  facet normal -0 0 1
    outer loop
      vertex 149 38.5 15
      vertex 165 37.5 15
      vertex 151 38.5 15
    endloop
  endfacet
  facet normal 0 0 -1
    outer loop
      vertex 149 51.5 0
      vertex 165 52.5 0
      vertex 151 51.5 0
    endloop
  endfacet
  facet normal -0 0 1
    outer loop
      vertex 149 51.5 15
      vertex 151 38.5 15
      vertex 151 51.5 15
    endloop
  endfacet
  facet normal 0 0 1
    outer loop
      vertex 149 51.5 15
      vertex 151 51.5 15
      vertex 165 52.5 15
    endloop
  endfacet
  facet normal 0 1 0
    outer loop
      vertex 151 38.5 0
      vertex 151 38.5 15
      vertex 164 38.5 0
    endloop
  endfacet
  facet normal 1 0 0
    outer loop
      vertex 151 38.5 0
      vertex 151 51.5 0
      vertex 151 38.5 15
    endloop
  endfacet
  facet normal 0 0 -1
    outer loop
      vertex 151 38.5 0
      vertex 164 38.5 0
      vertex 165 37.5 0
    endloop
  endfacet
  facet normal 1 -0 0
    outer loop
      vertex 151 38.5 15
      vertex 151 51.5 0
      vertex 151 51.5 15
    endloop
  endfacet
  facet normal -0 1 0
    outer loop
      vertex 151 38.5 15
      vertex 164 38.5 15
      vertex 164 38.5 0
    endloop
  endfacet
  facet normal -0 0 1
    outer loop
      vertex 151 38.5 15
      vertex 165 37.5 15
      vertex 164 38.5 15
    endloop
  endfacet
  facet normal 0 -1 0
    outer loop
      vertex 151 51.5 0
      vertex 164 51.5 0
      vertex 164 51.5 15
    endloop
  endfacet
  facet normal 0 -1 0
    outer loop
      vertex 151 51.5 0
      vertex 164 51.5 15
      vertex 151 51.5 15
    endloop
  endfacet
  facet normal 0 0 -1
    outer loop
      vertex 151 51.5 0
      vertex 165 52.5 0
      vertex 164 51.5 0
    endloop
  endfacet
  facet normal 0 0 1
    outer loop
      vertex 151 51.5 15
      vertex 164 51.5 15
      vertex 165 52.5 15
    endloop
  endfacet
  facet normal -1 0 0
    outer loop
      vertex 164 38.5 0
      vertex 164 38.5 15
      vertex 164 51.5 15
    endloop
  endfacet
  facet normal 0 0 -1
    outer loop
      vertex 164 38.5 0
      vertex 164 51.5 0
      vertex 165 52.5 0
    endloop
  endfacet
  facet normal -1 0 0
    outer loop
      vertex 164 38.5 0
      vertex 164 51.5 15
      vertex 164 51.5 0
    endloop
  endfacet
  facet normal 0 0 -1
    outer loop
      vertex 164 38.5 0
      vertex 165 52.5 0
      vertex 165 37.5 0
    endloop
  endfacet
  facet normal -0 0 1
    outer loop
      vertex 164 38.5 15
      vertex 165 37.5 15
      vertex 164 51.5 15
    endloop
  endfacet
  facet normal -0 0 1
    outer loop
      vertex 164 51.5 15
      vertex 165 37.5 15
      vertex 165 52.5 15
    endloop
  endfacet
  facet normal 1 0 0
    outer loop
      vertex 165 37.5 0
      vertex 165 52.5 0
      vertex 165 37.5 15
    endloop
  endfacet
  facet normal 1 -0 0
    outer loop
      vertex 165 37.5 15
      vertex 165 52.5 0
      vertex 165 52.5 15
    endloop
  endfacet
endsolid OpenSCAD_Model
