solid OpenSCAD_Model
  facet normal 1 -0 0
    outer loop
      vertex 7.85 -7.85 15.7
      vertex 7.85 7.85 0
      vertex 7.85 7.85 15.7
    endloop
  endfacet
  facet normal 1 0 0
    outer loop
      vertex 7.85 7.85 0
      vertex 7.85 -7.85 15.7
      vertex 7.85 -7.85 0
    endloop
  endfacet
  facet normal 0 0 1
    outer loop
      vertex 7.85 7.85 15.7
      vertex 6.6 6.6 15.7
      vertex 7.85 -7.85 15.7
    endloop
  endfacet
  facet normal 0 0 1
    outer loop
      vertex 7.85 7.85 15.7
      vertex -6.6 6.6 15.7
      vertex 6.6 6.6 15.7
    endloop
  endfacet
  facet normal 0 0 1
    outer loop
      vertex -6.6 6.6 15.7
      vertex -7.85 7.85 15.7
      vertex -6.6 -6.6 15.7
    endloop
  endfacet
  facet normal -0 0 1
    outer loop
      vertex -7.85 7.85 15.7
      vertex -6.6 6.6 15.7
      vertex 7.85 7.85 15.7
    endloop
  endfacet
  facet normal -0 0 1
    outer loop
      vertex 6.6 -6.6 15.7
      vertex 7.85 -7.85 15.7
      vertex 6.6 6.6 15.7
    endloop
  endfacet
  facet normal -0 0 1
    outer loop
      vertex -6.6 -6.6 15.7
      vertex 7.85 -7.85 15.7
      vertex 6.6 -6.6 15.7
    endloop
  endfacet
  facet normal 0 0 1
    outer loop
      vertex -6.6 -6.6 15.7
      vertex -7.85 -7.85 15.7
      vertex 7.85 -7.85 15.7
    endloop
  endfacet
  facet normal 0 0 1
    outer loop
      vertex -7.85 -7.85 15.7
      vertex -6.6 -6.6 15.7
      vertex -7.85 7.85 15.7
    endloop
  endfacet
  facet normal 0 0 -1
    outer loop
      vertex -7.85 -7.85 0
      vertex 7.85 7.85 0
      vertex 7.85 -7.85 0
    endloop
  endfacet
  facet normal -0 0 -1
    outer loop
      vertex 7.85 7.85 0
      vertex -7.85 -7.85 0
      vertex -7.85 7.85 0
    endloop
  endfacet
  facet normal -1 0 0
    outer loop
      vertex -7.85 -7.85 0
      vertex -7.85 7.85 15.7
      vertex -7.85 7.85 0
    endloop
  endfacet
  facet normal -1 -0 0
    outer loop
      vertex -7.85 7.85 15.7
      vertex -7.85 -7.85 0
      vertex -7.85 -7.85 15.7
    endloop
  endfacet
  facet normal 0 1 -0
    outer loop
      vertex 7.85 7.85 0
      vertex -7.85 7.85 15.7
      vertex 7.85 7.85 15.7
    endloop
  endfacet
  facet normal 0 1 0
    outer loop
      vertex -7.85 7.85 15.7
      vertex 7.85 7.85 0
      vertex -7.85 7.85 0
    endloop
  endfacet
  facet normal 0 -1 0
    outer loop
      vertex -7.85 -7.85 0
      vertex 7.85 -7.85 15.7
      vertex -7.85 -7.85 15.7
    endloop
  endfacet
  facet normal 0 -1 -0
    outer loop
      vertex 7.85 -7.85 15.7
      vertex -7.85 -7.85 0
      vertex 7.85 -7.85 0
    endloop
  endfacet
  facet normal -1 0 0
    outer loop
      vertex 6.6 -6.6 1
      vertex 6.6 6.6 15.7
      vertex 6.6 6.6 1
    endloop
  endfacet
  facet normal -1 -0 0
    outer loop
      vertex 6.6 6.6 15.7
      vertex 6.6 -6.6 1
      vertex 6.6 -6.6 15.7
    endloop
  endfacet
  facet normal -0 0 1
    outer loop
      vertex -6.6 6.6 1
      vertex 6.6 -6.6 1
      vertex 6.6 6.6 1
    endloop
  endfacet
  facet normal 0 0 1
    outer loop
      vertex 6.6 -6.6 1
      vertex -6.6 6.6 1
      vertex -6.6 -6.6 1
    endloop
  endfacet
  facet normal 1 -0 0
    outer loop
      vertex -6.6 -6.6 15.7
      vertex -6.6 6.6 1
      vertex -6.6 6.6 15.7
    endloop
  endfacet
  facet normal 1 0 0
    outer loop
      vertex -6.6 6.6 1
      vertex -6.6 -6.6 15.7
      vertex -6.6 -6.6 1
    endloop
  endfacet
  facet normal 0 -1 0
    outer loop
      vertex -6.6 6.6 1
      vertex 6.6 6.6 15.7
      vertex -6.6 6.6 15.7
    endloop
  endfacet
  facet normal 0 -1 -0
    outer loop
      vertex 6.6 6.6 15.7
      vertex -6.6 6.6 1
      vertex 6.6 6.6 1
    endloop
  endfacet
  facet normal 0 1 -0
    outer loop
      vertex 6.6 -6.6 1
      vertex -6.6 -6.6 15.7
      vertex 6.6 -6.6 15.7
    endloop
  endfacet
  facet normal 0 1 0
    outer loop
      vertex -6.6 -6.6 15.7
      vertex 6.6 -6.6 1
      vertex -6.6 -6.6 1
    endloop
  endfacet
endsolid OpenSCAD_Model
