solid OpenSCAD_Model
  facet normal 1 -0 0
    outer loop
      vertex 15 0 2
      vertex 15 15 0
      vertex 15 15 2
    endloop
  endfacet
  facet normal 1 0 0
    outer loop
      vertex 15 15 0
      vertex 15 0 2
      vertex 15 0 0
    endloop
  endfacet
  facet normal 0 0 1
    outer loop
      vertex 15 15 2
      vertex 13 13 2
      vertex 15 0 2
    endloop
  endfacet
  facet normal 0 0 1
    outer loop
      vertex 15 15 2
      vertex 2 13 2
      vertex 13 13 2
    endloop
  endfacet
  facet normal 0 0 1
    outer loop
      vertex 2 13 2
      vertex 0 15 2
      vertex 2 2 2
    endloop
  endfacet
  facet normal -0 0 1
    outer loop
      vertex 0 15 2
      vertex 2 13 2
      vertex 15 15 2
    endloop
  endfacet
  facet normal -0 0 1
    outer loop
      vertex 13 2 2
      vertex 15 0 2
      vertex 13 13 2
    endloop
  endfacet
  facet normal -0 0 1
    outer loop
      vertex 2 2 2
      vertex 15 0 2
      vertex 13 2 2
    endloop
  endfacet
  facet normal 0 0 1
    outer loop
      vertex 2 2 2
      vertex 0 0 2
      vertex 15 0 2
    endloop
  endfacet
  facet normal 0 0 1
    outer loop
      vertex 0 0 2
      vertex 2 2 2
      vertex 0 15 2
    endloop
  endfacet
  facet normal 0 0 -1
    outer loop
      vertex 0 0 0
      vertex 15 15 0
      vertex 15 0 0
    endloop
  endfacet
  facet normal -0 0 -1
    outer loop
      vertex 15 15 0
      vertex 0 0 0
      vertex 0 15 0
    endloop
  endfacet
  facet normal -1 0 0
    outer loop
      vertex 0 0 0
      vertex 0 15 2
      vertex 0 15 0
    endloop
  endfacet
  facet normal -1 -0 0
    outer loop
      vertex 0 15 2
      vertex 0 0 0
      vertex 0 0 2
    endloop
  endfacet
  facet normal 0 1 -0
    outer loop
      vertex 15 15 0
      vertex 0 15 2
      vertex 15 15 2
    endloop
  endfacet
  facet normal 0 1 0
    outer loop
      vertex 0 15 2
      vertex 15 15 0
      vertex 0 15 0
    endloop
  endfacet
  facet normal 0 -1 0
    outer loop
      vertex 0 0 0
      vertex 15 0 2
      vertex 0 0 2
    endloop
  endfacet
  facet normal 0 -1 -0
    outer loop
      vertex 15 0 2
      vertex 0 0 0
      vertex 15 0 0
    endloop
  endfacet
  facet normal 1 -0 0
    outer loop
      vertex 13 2 4
      vertex 13 13 2
      vertex 13 13 4
    endloop
  endfacet
  facet normal 1 0 0
    outer loop
      vertex 13 13 2
      vertex 13 2 4
      vertex 13 2 2
    endloop
  endfacet
  facet normal -0 0 1
    outer loop
      vertex 2 13 4
      vertex 13 2 4
      vertex 13 13 4
    endloop
  endfacet
  facet normal 0 0 1
    outer loop
      vertex 13 2 4
      vertex 2 13 4
      vertex 2 2 4
    endloop
  endfacet
  facet normal -1 0 0
    outer loop
      vertex 2 2 2
      vertex 2 13 4
      vertex 2 13 2
    endloop
  endfacet
  facet normal -1 -0 0
    outer loop
      vertex 2 13 4
      vertex 2 2 2
      vertex 2 2 4
    endloop
  endfacet
  facet normal 0 1 -0
    outer loop
      vertex 13 13 2
      vertex 2 13 4
      vertex 13 13 4
    endloop
  endfacet
  facet normal 0 1 0
    outer loop
      vertex 2 13 4
      vertex 13 13 2
      vertex 2 13 2
    endloop
  endfacet
  facet normal 0 -1 0
    outer loop
      vertex 2 2 2
      vertex 13 2 4
      vertex 2 2 4
    endloop
  endfacet
  facet normal 0 -1 -0
    outer loop
      vertex 13 2 4
      vertex 2 2 2
      vertex 13 2 2
    endloop
  endfacet
endsolid OpenSCAD_Model
