solid OpenSCAD_Model
  facet normal 1 -0 0
    outer loop
      vertex 15 0 13
      vertex 15 15 0
      vertex 15 15 13
    endloop
  endfacet
  facet normal 1 0 0
    outer loop
      vertex 15 15 0
      vertex 15 0 13
      vertex 15 0 0
    endloop
  endfacet
  facet normal 0 0 1
    outer loop
      vertex 15 15 13
      vertex 13 13 13
      vertex 15 0 13
    endloop
  endfacet
  facet normal 0 0 1
    outer loop
      vertex 15 15 13
      vertex 2 13 13
      vertex 13 13 13
    endloop
  endfacet
  facet normal 0 0 1
    outer loop
      vertex 2 13 13
      vertex 0 15 13
      vertex 2 2 13
    endloop
  endfacet
  facet normal -0 0 1
    outer loop
      vertex 0 15 13
      vertex 2 13 13
      vertex 15 15 13
    endloop
  endfacet
  facet normal -0 0 1
    outer loop
      vertex 13 2 13
      vertex 15 0 13
      vertex 13 13 13
    endloop
  endfacet
  facet normal -0 0 1
    outer loop
      vertex 2 2 13
      vertex 15 0 13
      vertex 13 2 13
    endloop
  endfacet
  facet normal 0 0 1
    outer loop
      vertex 2 2 13
      vertex 0 0 13
      vertex 15 0 13
    endloop
  endfacet
  facet normal 0 0 1
    outer loop
      vertex 0 0 13
      vertex 2 2 13
      vertex 0 15 13
    endloop
  endfacet
  facet normal 0 0 -1
    outer loop
      vertex 0 0 0
      vertex 15 15 0
      vertex 15 0 0
    endloop
  endfacet
  facet normal -0 0 -1
    outer loop
      vertex 15 15 0
      vertex 0 0 0
      vertex 0 15 0
    endloop
  endfacet
  facet normal -1 0 0
    outer loop
      vertex 0 0 0
      vertex 0 15 13
      vertex 0 15 0
    endloop
  endfacet
  facet normal -1 -0 0
    outer loop
      vertex 0 15 13
      vertex 0 0 0
      vertex 0 0 13
    endloop
  endfacet
  facet normal 0 1 -0
    outer loop
      vertex 15 15 0
      vertex 0 15 13
      vertex 15 15 13
    endloop
  endfacet
  facet normal 0 1 0
    outer loop
      vertex 0 15 13
      vertex 15 15 0
      vertex 0 15 0
    endloop
  endfacet
  facet normal 0 -1 0
    outer loop
      vertex 0 0 0
      vertex 15 0 13
      vertex 0 0 13
    endloop
  endfacet
  facet normal 0 -1 -0
    outer loop
      vertex 15 0 13
      vertex 0 0 0
      vertex 15 0 0
    endloop
  endfacet
  facet normal -1 0 0
    outer loop
      vertex 13 2 1
      vertex 13 13 13
      vertex 13 13 1
    endloop
  endfacet
  facet normal -1 -0 0
    outer loop
      vertex 13 13 13
      vertex 13 2 1
      vertex 13 2 13
    endloop
  endfacet
  facet normal -0 0 1
    outer loop
      vertex 2 13 1
      vertex 13 2 1
      vertex 13 13 1
    endloop
  endfacet
  facet normal 0 0 1
    outer loop
      vertex 13 2 1
      vertex 2 13 1
      vertex 2 2 1
    endloop
  endfacet
  facet normal 1 -0 0
    outer loop
      vertex 2 2 13
      vertex 2 13 1
      vertex 2 13 13
    endloop
  endfacet
  facet normal 1 0 0
    outer loop
      vertex 2 13 1
      vertex 2 2 13
      vertex 2 2 1
    endloop
  endfacet
  facet normal 0 -1 0
    outer loop
      vertex 2 13 1
      vertex 13 13 13
      vertex 2 13 13
    endloop
  endfacet
  facet normal 0 -1 -0
    outer loop
      vertex 13 13 13
      vertex 2 13 1
      vertex 13 13 1
    endloop
  endfacet
  facet normal 0 1 -0
    outer loop
      vertex 13 2 1
      vertex 2 2 13
      vertex 13 2 13
    endloop
  endfacet
  facet normal 0 1 0
    outer loop
      vertex 2 2 13
      vertex 13 2 1
      vertex 2 2 1
    endloop
  endfacet
endsolid OpenSCAD_Model
