solid OpenSCAD_Model
  facet normal -0.661322 0 0.750102
    outer loop
      vertex -15.06 -15.35 16.0373
      vertex -14.0233 -17 16.9513
      vertex -14.0233 -15.35 16.9513
    endloop
  endfacet
  facet normal -0.661322 0 0.750102
    outer loop
      vertex -14.0233 -17 16.9513
      vertex -15.06 -15.35 16.0373
      vertex -15.06 -17 16.0373
    endloop
  endfacet
  facet normal -0.661322 0 0.750102
    outer loop
      vertex -15.06 17 16.0373
      vertex -14.0233 15.35 16.9513
      vertex -14.0233 17 16.9513
    endloop
  endfacet
  facet normal -0.661322 0 0.750102
    outer loop
      vertex -14.0233 15.35 16.9513
      vertex -15.06 17 16.0373
      vertex -15.06 15.35 16.0373
    endloop
  endfacet
  facet normal -0.0941337 0 0.99556
    outer loop
      vertex -2.75733 17 21.8265
      vertex -1.38139 15.35 21.9566
      vertex -1.38139 17 21.9566
    endloop
  endfacet
  facet normal -0.0941337 0 0.99556
    outer loop
      vertex -1.38139 15.35 21.9566
      vertex -2.75733 17 21.8265
      vertex -2.75733 15.35 21.8265
    endloop
  endfacet
  facet normal -0.0941337 0 0.99556
    outer loop
      vertex -2.75733 -15.35 21.8265
      vertex -1.38139 -17 21.9566
      vertex -1.38139 -15.35 21.9566
    endloop
  endfacet
  facet normal -0.0941337 0 0.99556
    outer loop
      vertex -1.38139 -17 21.9566
      vertex -2.75733 -15.35 21.8265
      vertex -2.75733 -17 21.8265
    endloop
  endfacet
  facet normal 0.750102 -0 0.661322
    outer loop
      vertex 16.0373 -17 15.06
      vertex 16.9513 -15.35 14.0233
      vertex 16.0373 -15.35 15.06
    endloop
  endfacet
  facet normal 0.750102 0 0.661322
    outer loop
      vertex 16.9513 -15.35 14.0233
      vertex 16.0373 -17 15.06
      vertex 16.9513 -17 14.0233
    endloop
  endfacet
  facet normal 0.750102 -0 0.661322
    outer loop
      vertex 16.0373 15.35 15.06
      vertex 16.9513 17 14.0233
      vertex 16.0373 17 15.06
    endloop
  endfacet
  facet normal 0.750102 0 0.661322
    outer loop
      vertex 16.9513 17 14.0233
      vertex 16.0373 15.35 15.06
      vertex 16.9513 15.35 14.0233
    endloop
  endfacet
  facet normal 0.21815 0 0.975915
    outer loop
      vertex 4.12239 -15.35 21.6103
      vertex 5.47118 -17 21.3088
      vertex 5.47118 -15.35 21.3088
    endloop
  endfacet
  facet normal 0.21815 0 0.975915
    outer loop
      vertex 5.47118 -17 21.3088
      vertex 4.12239 -15.35 21.6103
      vertex 4.12239 -17 21.6103
    endloop
  endfacet
  facet normal 0.21815 0 0.975915
    outer loop
      vertex 4.12239 17 21.6103
      vertex 5.47118 15.35 21.3088
      vertex 5.47118 17 21.3088
    endloop
  endfacet
  facet normal 0.21815 0 0.975915
    outer loop
      vertex 5.47118 15.35 21.3088
      vertex 4.12239 17 21.6103
      vertex 4.12239 15.35 21.6103
    endloop
  endfacet
  facet normal -0.917751 0 0.397157
    outer loop
      vertex -20.4551 15.35 8.09874
      vertex -19.9062 17 9.36714
      vertex -20.4551 17 8.09874
    endloop
  endfacet
  facet normal -0.917751 0 0.397157
    outer loop
      vertex -19.9062 17 9.36714
      vertex -20.4551 15.35 8.09874
      vertex -19.9062 15.35 9.36714
    endloop
  endfacet
  facet normal -0.917751 0 0.397157
    outer loop
      vertex -20.4551 -17 8.09874
      vertex -19.9062 -15.35 9.36714
      vertex -20.4551 -15.35 8.09874
    endloop
  endfacet
  facet normal -0.917751 0 0.397157
    outer loop
      vertex -19.9062 -15.35 9.36714
      vertex -20.4551 -17 8.09874
      vertex -19.9062 -17 9.36714
    endloop
  endfacet
  facet normal 0 -1 0
    outer loop
      vertex -62 -17 0
      vertex -20.4906 -17 8
      vertex -62 -17 8
    endloop
  endfacet
  facet normal 0 -1 -0
    outer loop
      vertex -20.4906 -17 8
      vertex -62 -17 0
      vertex 20.4906 -17 8
    endloop
  endfacet
  facet normal 0 -1 0
    outer loop
      vertex 62 -17 0
      vertex 20.4906 -17 8
      vertex -62 -17 0
    endloop
  endfacet
  facet normal 0 -1 0
    outer loop
      vertex 20.4906 -17 8
      vertex 62 -17 0
      vertex 62 -17 8
    endloop
  endfacet
  facet normal 0 -1 0
    outer loop
      vertex -1.38139 -17 21.9566
      vertex 1.38139 -17 21.9566
      vertex 0 -17 22
    endloop
  endfacet
  facet normal 0 -1 0
    outer loop
      vertex -2.75733 -17 21.8265
      vertex 1.38139 -17 21.9566
      vertex -1.38139 -17 21.9566
    endloop
  endfacet
  facet normal 0 -1 0
    outer loop
      vertex -2.75733 -17 21.8265
      vertex 2.75733 -17 21.8265
      vertex 1.38139 -17 21.9566
    endloop
  endfacet
  facet normal 0 -1 0
    outer loop
      vertex -4.12239 -17 21.6103
      vertex 2.75733 -17 21.8265
      vertex -2.75733 -17 21.8265
    endloop
  endfacet
  facet normal 0 -1 0
    outer loop
      vertex -4.12239 -17 21.6103
      vertex 4.12239 -17 21.6103
      vertex 2.75733 -17 21.8265
    endloop
  endfacet
  facet normal 0 -1 0
    outer loop
      vertex -5.47118 -17 21.3088
      vertex 4.12239 -17 21.6103
      vertex -4.12239 -17 21.6103
    endloop
  endfacet
  facet normal 0 -1 0
    outer loop
      vertex -5.47118 -17 21.3088
      vertex 5.47118 -17 21.3088
      vertex 4.12239 -17 21.6103
    endloop
  endfacet
  facet normal 0 -1 0
    outer loop
      vertex -6.79837 -17 20.9232
      vertex 5.47118 -17 21.3088
      vertex -5.47118 -17 21.3088
    endloop
  endfacet
  facet normal 0 -1 0
    outer loop
      vertex -6.79837 -17 20.9232
      vertex 6.79837 -17 20.9232
      vertex 5.47118 -17 21.3088
    endloop
  endfacet
  facet normal 0 -1 0
    outer loop
      vertex -8.09874 -17 20.4551
      vertex 6.79837 -17 20.9232
      vertex -6.79837 -17 20.9232
    endloop
  endfacet
  facet normal 0 -1 0
    outer loop
      vertex -8.09874 -17 20.4551
      vertex 8.09874 -17 20.4551
      vertex 6.79837 -17 20.9232
    endloop
  endfacet
  facet normal 0 -1 0
    outer loop
      vertex -9.36714 -17 19.9062
      vertex 8.09874 -17 20.4551
      vertex -8.09874 -17 20.4551
    endloop
  endfacet
  facet normal 0 -1 0
    outer loop
      vertex -9.36714 -17 19.9062
      vertex 9.36714 -17 19.9062
      vertex 8.09874 -17 20.4551
    endloop
  endfacet
  facet normal 0 -1 0
    outer loop
      vertex -10.5986 -17 19.2787
      vertex 9.36714 -17 19.9062
      vertex -9.36714 -17 19.9062
    endloop
  endfacet
  facet normal 0 -1 0
    outer loop
      vertex -10.5986 -17 19.2787
      vertex 10.5986 -17 19.2787
      vertex 9.36714 -17 19.9062
    endloop
  endfacet
  facet normal 0 -1 0
    outer loop
      vertex -11.7882 -17 18.5752
      vertex 10.5986 -17 19.2787
      vertex -10.5986 -17 19.2787
    endloop
  endfacet
  facet normal 0 -1 0
    outer loop
      vertex -11.7882 -17 18.5752
      vertex 11.7882 -17 18.5752
      vertex 10.5986 -17 19.2787
    endloop
  endfacet
  facet normal 0 -1 0
    outer loop
      vertex -12.9313 -17 17.7984
      vertex 11.7882 -17 18.5752
      vertex -11.7882 -17 18.5752
    endloop
  endfacet
  facet normal 0 -1 0
    outer loop
      vertex -12.9313 -17 17.7984
      vertex 12.9313 -17 17.7984
      vertex 11.7882 -17 18.5752
    endloop
  endfacet
  facet normal 0 -1 0
    outer loop
      vertex -14.0233 -17 16.9513
      vertex 12.9313 -17 17.7984
      vertex -12.9313 -17 17.7984
    endloop
  endfacet
  facet normal 0 -1 0
    outer loop
      vertex -14.0233 -17 16.9513
      vertex 14.0233 -17 16.9513
      vertex 12.9313 -17 17.7984
    endloop
  endfacet
  facet normal 0 -1 0
    outer loop
      vertex -15.06 -17 16.0373
      vertex 14.0233 -17 16.9513
      vertex -14.0233 -17 16.9513
    endloop
  endfacet
  facet normal 0 -1 0
    outer loop
      vertex -15.06 -17 16.0373
      vertex 15.06 -17 16.0373
      vertex 14.0233 -17 16.9513
    endloop
  endfacet
  facet normal 0 -1 0
    outer loop
      vertex -16.0373 -17 15.06
      vertex 15.06 -17 16.0373
      vertex -15.06 -17 16.0373
    endloop
  endfacet
  facet normal 0 -1 0
    outer loop
      vertex -16.0373 -17 15.06
      vertex 16.0373 -17 15.06
      vertex 15.06 -17 16.0373
    endloop
  endfacet
  facet normal 0 -1 0
    outer loop
      vertex -16.9513 -17 14.0233
      vertex 16.0373 -17 15.06
      vertex -16.0373 -17 15.06
    endloop
  endfacet
  facet normal 0 -1 0
    outer loop
      vertex -16.9513 -17 14.0233
      vertex 16.9513 -17 14.0233
      vertex 16.0373 -17 15.06
    endloop
  endfacet
  facet normal 0 -1 0
    outer loop
      vertex -17.7984 -17 12.9313
      vertex 16.9513 -17 14.0233
      vertex -16.9513 -17 14.0233
    endloop
  endfacet
  facet normal 0 -1 0
    outer loop
      vertex -17.7984 -17 12.9313
      vertex 17.7984 -17 12.9313
      vertex 16.9513 -17 14.0233
    endloop
  endfacet
  facet normal 0 -1 0
    outer loop
      vertex -18.5752 -17 11.7882
      vertex 17.7984 -17 12.9313
      vertex -17.7984 -17 12.9313
    endloop
  endfacet
  facet normal 0 -1 0
    outer loop
      vertex -18.5752 -17 11.7882
      vertex 18.5752 -17 11.7882
      vertex 17.7984 -17 12.9313
    endloop
  endfacet
  facet normal 0 -1 0
    outer loop
      vertex -19.2787 -17 10.5986
      vertex 18.5752 -17 11.7882
      vertex -18.5752 -17 11.7882
    endloop
  endfacet
  facet normal 0 -1 0
    outer loop
      vertex -19.2787 -17 10.5986
      vertex 19.2787 -17 10.5986
      vertex 18.5752 -17 11.7882
    endloop
  endfacet
  facet normal 0 -1 0
    outer loop
      vertex -19.9062 -17 9.36714
      vertex 19.2787 -17 10.5986
      vertex -19.2787 -17 10.5986
    endloop
  endfacet
  facet normal 0 -1 0
    outer loop
      vertex -19.9062 -17 9.36714
      vertex 19.9062 -17 9.36714
      vertex 19.2787 -17 10.5986
    endloop
  endfacet
  facet normal 0 -1 0
    outer loop
      vertex -20.4906 -17 8
      vertex -19.9062 -17 9.36714
      vertex -20.4551 -17 8.09874
    endloop
  endfacet
  facet normal 0 -1 -0
    outer loop
      vertex -19.9062 -17 9.36714
      vertex -20.4906 -17 8
      vertex 19.9062 -17 9.36714
    endloop
  endfacet
  facet normal 0 -1 0
    outer loop
      vertex 20.4906 -17 8
      vertex 19.9062 -17 9.36714
      vertex -20.4906 -17 8
    endloop
  endfacet
  facet normal 0 -1 0
    outer loop
      vertex 19.9062 -17 9.36714
      vertex 20.4906 -17 8
      vertex 20.4551 -17 8.09874
    endloop
  endfacet
  facet normal -0.279002 0 0.960291
    outer loop
      vertex -6.79837 17 20.9232
      vertex -5.47118 15.35 21.3088
      vertex -5.47118 17 21.3088
    endloop
  endfacet
  facet normal -0.279002 0 0.960291
    outer loop
      vertex -5.47118 15.35 21.3088
      vertex -6.79837 17 20.9232
      vertex -6.79837 15.35 20.9232
    endloop
  endfacet
  facet normal -0.279002 0 0.960291
    outer loop
      vertex -6.79837 -15.35 20.9232
      vertex -5.47118 -17 21.3088
      vertex -5.47118 -15.35 21.3088
    endloop
  endfacet
  facet normal -0.279002 0 0.960291
    outer loop
      vertex -5.47118 -17 21.3088
      vertex -6.79837 -15.35 20.9232
      vertex -6.79837 -17 20.9232
    endloop
  endfacet
  facet normal 0.509027 0 0.860751
    outer loop
      vertex 10.5986 17 19.2787
      vertex 11.7882 15.35 18.5752
      vertex 11.7882 17 18.5752
    endloop
  endfacet
  facet normal 0.509027 0 0.860751
    outer loop
      vertex 11.7882 15.35 18.5752
      vertex 10.5986 17 19.2787
      vertex 10.5986 15.35 19.2787
    endloop
  endfacet
  facet normal 0.509027 0 0.860751
    outer loop
      vertex 10.5986 -15.35 19.2787
      vertex 11.7882 -17 18.5752
      vertex 11.7882 -15.35 18.5752
    endloop
  endfacet
  facet normal 0.509027 0 0.860751
    outer loop
      vertex 11.7882 -17 18.5752
      vertex 10.5986 -15.35 19.2787
      vertex 10.5986 -17 19.2787
    endloop
  endfacet
  facet normal 0.860751 -0 0.509027
    outer loop
      vertex 18.5752 15.35 11.7882
      vertex 19.2787 17 10.5986
      vertex 18.5752 17 11.7882
    endloop
  endfacet
  facet normal 0.860751 0 0.509027
    outer loop
      vertex 19.2787 17 10.5986
      vertex 18.5752 15.35 11.7882
      vertex 19.2787 15.35 10.5986
    endloop
  endfacet
  facet normal 0.860751 -0 0.509027
    outer loop
      vertex 18.5752 -17 11.7882
      vertex 19.2787 -15.35 10.5986
      vertex 18.5752 -15.35 11.7882
    endloop
  endfacet
  facet normal 0.860751 0 0.509027
    outer loop
      vertex 19.2787 -15.35 10.5986
      vertex 18.5752 -17 11.7882
      vertex 19.2787 -17 10.5986
    endloop
  endfacet
  facet normal -0.454013 0 0.890995
    outer loop
      vertex -10.5986 17 19.2787
      vertex -9.36714 15.35 19.9062
      vertex -9.36714 17 19.9062
    endloop
  endfacet
  facet normal -0.454013 0 0.890995
    outer loop
      vertex -9.36714 15.35 19.9062
      vertex -10.5986 17 19.2787
      vertex -10.5986 15.35 19.2787
    endloop
  endfacet
  facet normal -0.454013 0 0.890995
    outer loop
      vertex -10.5986 -15.35 19.2787
      vertex -9.36714 -17 19.9062
      vertex -9.36714 -15.35 19.9062
    endloop
  endfacet
  facet normal -0.454013 0 0.890995
    outer loop
      vertex -9.36714 -17 19.9062
      vertex -10.5986 -15.35 19.2787
      vertex -10.5986 -17 19.2787
    endloop
  endfacet
  facet normal 0.890995 -0 0.454013
    outer loop
      vertex 19.2787 -17 10.5986
      vertex 19.9062 -15.35 9.36714
      vertex 19.2787 -15.35 10.5986
    endloop
  endfacet
  facet normal 0.890995 0 0.454013
    outer loop
      vertex 19.9062 -15.35 9.36714
      vertex 19.2787 -17 10.5986
      vertex 19.9062 -17 9.36714
    endloop
  endfacet
  facet normal 0.890995 -0 0.454013
    outer loop
      vertex 19.2787 15.35 10.5986
      vertex 19.9062 17 9.36714
      vertex 19.2787 17 10.5986
    endloop
  endfacet
  facet normal 0.890995 0 0.454013
    outer loop
      vertex 19.9062 17 9.36714
      vertex 19.2787 15.35 10.5986
      vertex 19.9062 15.35 9.36714
    endloop
  endfacet
  facet normal 0.941028 -0 0.338328
    outer loop
      vertex 20.4551 15.35 8.09874
      vertex 20.4906 17 8
      vertex 20.4551 17 8.09874
    endloop
  endfacet
  facet normal 0.941028 0 0.338328
    outer loop
      vertex 20.4906 17 8
      vertex 20.4551 15.35 8.09874
      vertex 20.4906 15.35 8
    endloop
  endfacet
  facet normal 0.941028 -0 0.338328
    outer loop
      vertex 20.4551 -17 8.09874
      vertex 20.4906 -15.35 8
      vertex 20.4551 -15.35 8.09874
    endloop
  endfacet
  facet normal 0.941028 0 0.338328
    outer loop
      vertex 20.4906 -15.35 8
      vertex 20.4551 -17 8.09874
      vertex 20.4906 -17 8
    endloop
  endfacet
  facet normal -0.790135 0 0.612933
    outer loop
      vertex -17.7984 -17 12.9313
      vertex -16.9513 -15.35 14.0233
      vertex -17.7984 -15.35 12.9313
    endloop
  endfacet
  facet normal -0.790135 0 0.612933
    outer loop
      vertex -16.9513 -15.35 14.0233
      vertex -17.7984 -17 12.9313
      vertex -16.9513 -17 14.0233
    endloop
  endfacet
  facet normal -0.790135 0 0.612933
    outer loop
      vertex -17.7984 15.35 12.9313
      vertex -16.9513 17 14.0233
      vertex -17.7984 17 12.9313
    endloop
  endfacet
  facet normal -0.790135 0 0.612933
    outer loop
      vertex -16.9513 17 14.0233
      vertex -17.7984 15.35 12.9313
      vertex -16.9513 15.35 14.0233
    endloop
  endfacet
  facet normal -0.827097 0 0.562059
    outer loop
      vertex -18.5752 15.35 11.7882
      vertex -17.7984 17 12.9313
      vertex -18.5752 17 11.7882
    endloop
  endfacet
  facet normal -0.827097 0 0.562059
    outer loop
      vertex -17.7984 17 12.9313
      vertex -18.5752 15.35 11.7882
      vertex -17.7984 15.35 12.9313
    endloop
  endfacet
  facet normal -0.827097 0 0.562059
    outer loop
      vertex -18.5752 -17 11.7882
      vertex -17.7984 -15.35 12.9313
      vertex -18.5752 -15.35 11.7882
    endloop
  endfacet
  facet normal -0.827097 0 0.562059
    outer loop
      vertex -17.7984 -15.35 12.9313
      vertex -18.5752 -17 11.7882
      vertex -17.7984 -17 12.9313
    endloop
  endfacet
  facet normal 0.279002 0 0.960291
    outer loop
      vertex 5.47118 -15.35 21.3088
      vertex 6.79837 -17 20.9232
      vertex 6.79837 -15.35 20.9232
    endloop
  endfacet
  facet normal 0.279002 0 0.960291
    outer loop
      vertex 6.79837 -17 20.9232
      vertex 5.47118 -15.35 21.3088
      vertex 5.47118 -17 21.3088
    endloop
  endfacet
  facet normal 0.279002 0 0.960291
    outer loop
      vertex 5.47118 17 21.3088
      vertex 6.79837 15.35 20.9232
      vertex 6.79837 17 20.9232
    endloop
  endfacet
  facet normal 0.279002 0 0.960291
    outer loop
      vertex 6.79837 15.35 20.9232
      vertex 5.47118 17 21.3088
      vertex 5.47118 15.35 21.3088
    endloop
  endfacet
  facet normal -0.860751 0 0.509027
    outer loop
      vertex -19.2787 15.35 10.5986
      vertex -18.5752 17 11.7882
      vertex -19.2787 17 10.5986
    endloop
  endfacet
  facet normal -0.860751 0 0.509027
    outer loop
      vertex -18.5752 17 11.7882
      vertex -19.2787 15.35 10.5986
      vertex -18.5752 15.35 11.7882
    endloop
  endfacet
  facet normal -0.860751 0 0.509027
    outer loop
      vertex -19.2787 -17 10.5986
      vertex -18.5752 -15.35 11.7882
      vertex -19.2787 -15.35 10.5986
    endloop
  endfacet
  facet normal -0.860751 0 0.509027
    outer loop
      vertex -18.5752 -15.35 11.7882
      vertex -19.2787 -17 10.5986
      vertex -18.5752 -17 11.7882
    endloop
  endfacet
  facet normal -0.509027 0 0.860751
    outer loop
      vertex -11.7882 17 18.5752
      vertex -10.5986 15.35 19.2787
      vertex -10.5986 17 19.2787
    endloop
  endfacet
  facet normal -0.509027 0 0.860751
    outer loop
      vertex -10.5986 15.35 19.2787
      vertex -11.7882 17 18.5752
      vertex -11.7882 15.35 18.5752
    endloop
  endfacet
  facet normal -0.509027 0 0.860751
    outer loop
      vertex -11.7882 -15.35 18.5752
      vertex -10.5986 -17 19.2787
      vertex -10.5986 -15.35 19.2787
    endloop
  endfacet
  facet normal -0.509027 0 0.860751
    outer loop
      vertex -10.5986 -17 19.2787
      vertex -11.7882 -15.35 18.5752
      vertex -11.7882 -17 18.5752
    endloop
  endfacet
  facet normal 0.827097 -0 0.562059
    outer loop
      vertex 17.7984 15.35 12.9313
      vertex 18.5752 17 11.7882
      vertex 17.7984 17 12.9313
    endloop
  endfacet
  facet normal 0.827097 0 0.562059
    outer loop
      vertex 18.5752 17 11.7882
      vertex 17.7984 15.35 12.9313
      vertex 18.5752 15.35 11.7882
    endloop
  endfacet
  facet normal 0.827097 -0 0.562059
    outer loop
      vertex 17.7984 -17 12.9313
      vertex 18.5752 -15.35 11.7882
      vertex 17.7984 -15.35 12.9313
    endloop
  endfacet
  facet normal 0.827097 0 0.562059
    outer loop
      vertex 18.5752 -15.35 11.7882
      vertex 17.7984 -17 12.9313
      vertex 18.5752 -17 11.7882
    endloop
  endfacet
  facet normal -0.0314021 0 0.999507
    outer loop
      vertex -1.38139 17 21.9566
      vertex 0 15.35 22
      vertex 0 17 22
    endloop
  endfacet
  facet normal -0.0314021 0 0.999507
    outer loop
      vertex 0 15.35 22
      vertex -1.38139 17 21.9566
      vertex -1.38139 15.35 21.9566
    endloop
  endfacet
  facet normal -0.0314021 0 0.999507
    outer loop
      vertex -1.38139 -15.35 21.9566
      vertex 0 -17 22
      vertex 0 -15.35 22
    endloop
  endfacet
  facet normal -0.0314021 0 0.999507
    outer loop
      vertex 0 -17 22
      vertex -1.38139 -15.35 21.9566
      vertex -1.38139 -17 21.9566
    endloop
  endfacet
  facet normal 0.156431 0 0.987689
    outer loop
      vertex 2.75733 17 21.8265
      vertex 4.12239 15.35 21.6103
      vertex 4.12239 17 21.6103
    endloop
  endfacet
  facet normal 0.156431 0 0.987689
    outer loop
      vertex 4.12239 15.35 21.6103
      vertex 2.75733 17 21.8265
      vertex 2.75733 15.35 21.8265
    endloop
  endfacet
  facet normal 0.156431 0 0.987689
    outer loop
      vertex 2.75733 -15.35 21.8265
      vertex 4.12239 -17 21.6103
      vertex 4.12239 -15.35 21.6103
    endloop
  endfacet
  facet normal 0.156431 0 0.987689
    outer loop
      vertex 4.12239 -17 21.6103
      vertex 2.75733 -15.35 21.8265
      vertex 2.75733 -17 21.8265
    endloop
  endfacet
  facet normal 0.0314021 0 0.999507
    outer loop
      vertex 0 -15.35 22
      vertex 1.38139 -17 21.9566
      vertex 1.38139 -15.35 21.9566
    endloop
  endfacet
  facet normal 0.0314021 0 0.999507
    outer loop
      vertex 1.38139 -17 21.9566
      vertex 0 -15.35 22
      vertex 0 -17 22
    endloop
  endfacet
  facet normal 0.0314021 0 0.999507
    outer loop
      vertex 0 17 22
      vertex 1.38139 15.35 21.9566
      vertex 1.38139 17 21.9566
    endloop
  endfacet
  facet normal 0.0314021 0 0.999507
    outer loop
      vertex 1.38139 15.35 21.9566
      vertex 0 17 22
      vertex 0 15.35 22
    endloop
  endfacet
  facet normal -0.941028 0 0.338328
    outer loop
      vertex -20.4906 -17 8
      vertex -20.4551 -15.35 8.09874
      vertex -20.4906 -15.35 8
    endloop
  endfacet
  facet normal -0.941028 0 0.338328
    outer loop
      vertex -20.4551 -15.35 8.09874
      vertex -20.4906 -17 8
      vertex -20.4551 -17 8.09874
    endloop
  endfacet
  facet normal -0.941028 0 0.338328
    outer loop
      vertex -20.4906 15.35 8
      vertex -20.4551 17 8.09874
      vertex -20.4906 17 8
    endloop
  endfacet
  facet normal -0.941028 0 0.338328
    outer loop
      vertex -20.4551 17 8.09874
      vertex -20.4906 15.35 8
      vertex -20.4551 15.35 8.09874
    endloop
  endfacet
  facet normal -0.338698 0 0.940895
    outer loop
      vertex -8.09874 -15.35 20.4551
      vertex -6.79837 -17 20.9232
      vertex -6.79837 -15.35 20.9232
    endloop
  endfacet
  facet normal -0.338698 0 0.940895
    outer loop
      vertex -6.79837 -17 20.9232
      vertex -8.09874 -15.35 20.4551
      vertex -8.09874 -17 20.4551
    endloop
  endfacet
  facet normal -0.338698 0 0.940895
    outer loop
      vertex -8.09874 17 20.4551
      vertex -6.79837 15.35 20.9232
      vertex -6.79837 17 20.9232
    endloop
  endfacet
  facet normal -0.338698 0 0.940895
    outer loop
      vertex -6.79837 15.35 20.9232
      vertex -8.09874 17 20.4551
      vertex -8.09874 15.35 20.4551
    endloop
  endfacet
  facet normal -0.562059 0 0.827097
    outer loop
      vertex -12.9313 -15.35 17.7984
      vertex -11.7882 -17 18.5752
      vertex -11.7882 -15.35 18.5752
    endloop
  endfacet
  facet normal -0.562059 0 0.827097
    outer loop
      vertex -11.7882 -17 18.5752
      vertex -12.9313 -15.35 17.7984
      vertex -12.9313 -17 17.7984
    endloop
  endfacet
  facet normal -0.562059 0 0.827097
    outer loop
      vertex -12.9313 17 17.7984
      vertex -11.7882 15.35 18.5752
      vertex -11.7882 17 18.5752
    endloop
  endfacet
  facet normal -0.562059 0 0.827097
    outer loop
      vertex -11.7882 15.35 18.5752
      vertex -12.9313 17 17.7984
      vertex -12.9313 15.35 17.7984
    endloop
  endfacet
  facet normal -0.397157 0 0.917751
    outer loop
      vertex -9.36714 -15.35 19.9062
      vertex -8.09874 -17 20.4551
      vertex -8.09874 -15.35 20.4551
    endloop
  endfacet
  facet normal -0.397157 0 0.917751
    outer loop
      vertex -8.09874 -17 20.4551
      vertex -9.36714 -15.35 19.9062
      vertex -9.36714 -17 19.9062
    endloop
  endfacet
  facet normal -0.397157 0 0.917751
    outer loop
      vertex -9.36714 17 19.9062
      vertex -8.09874 15.35 20.4551
      vertex -8.09874 17 20.4551
    endloop
  endfacet
  facet normal -0.397157 0 0.917751
    outer loop
      vertex -8.09874 15.35 20.4551
      vertex -9.36714 17 19.9062
      vertex -9.36714 15.35 19.9062
    endloop
  endfacet
  facet normal -0.750102 0 0.661322
    outer loop
      vertex -16.9513 -17 14.0233
      vertex -16.0373 -15.35 15.06
      vertex -16.9513 -15.35 14.0233
    endloop
  endfacet
  facet normal -0.750102 0 0.661322
    outer loop
      vertex -16.0373 -15.35 15.06
      vertex -16.9513 -17 14.0233
      vertex -16.0373 -17 15.06
    endloop
  endfacet
  facet normal -0.750102 0 0.661322
    outer loop
      vertex -16.9513 15.35 14.0233
      vertex -16.0373 17 15.06
      vertex -16.9513 17 14.0233
    endloop
  endfacet
  facet normal -0.750102 0 0.661322
    outer loop
      vertex -16.0373 17 15.06
      vertex -16.9513 15.35 14.0233
      vertex -16.0373 15.35 15.06
    endloop
  endfacet
  facet normal 0.338698 0 0.940895
    outer loop
      vertex 6.79837 -15.35 20.9232
      vertex 8.09874 -17 20.4551
      vertex 8.09874 -15.35 20.4551
    endloop
  endfacet
  facet normal 0.338698 0 0.940895
    outer loop
      vertex 8.09874 -17 20.4551
      vertex 6.79837 -15.35 20.9232
      vertex 6.79837 -17 20.9232
    endloop
  endfacet
  facet normal 0.338698 0 0.940895
    outer loop
      vertex 6.79837 17 20.9232
      vertex 8.09874 15.35 20.4551
      vertex 8.09874 17 20.4551
    endloop
  endfacet
  facet normal 0.338698 0 0.940895
    outer loop
      vertex 8.09874 15.35 20.4551
      vertex 6.79837 17 20.9232
      vertex 6.79837 15.35 20.9232
    endloop
  endfacet
  facet normal 0.562059 0 0.827097
    outer loop
      vertex 11.7882 17 18.5752
      vertex 12.9313 15.35 17.7984
      vertex 12.9313 17 17.7984
    endloop
  endfacet
  facet normal 0.562059 0 0.827097
    outer loop
      vertex 12.9313 15.35 17.7984
      vertex 11.7882 17 18.5752
      vertex 11.7882 15.35 18.5752
    endloop
  endfacet
  facet normal 0.562059 0 0.827097
    outer loop
      vertex 11.7882 -15.35 18.5752
      vertex 12.9313 -17 17.7984
      vertex 12.9313 -15.35 17.7984
    endloop
  endfacet
  facet normal 0.562059 0 0.827097
    outer loop
      vertex 12.9313 -17 17.7984
      vertex 11.7882 -15.35 18.5752
      vertex 11.7882 -17 18.5752
    endloop
  endfacet
  facet normal 0.661322 0 0.750102
    outer loop
      vertex 14.0233 -15.35 16.9513
      vertex 15.06 -17 16.0373
      vertex 15.06 -15.35 16.0373
    endloop
  endfacet
  facet normal 0.661322 0 0.750102
    outer loop
      vertex 15.06 -17 16.0373
      vertex 14.0233 -15.35 16.9513
      vertex 14.0233 -17 16.9513
    endloop
  endfacet
  facet normal 0.661322 0 0.750102
    outer loop
      vertex 14.0233 17 16.9513
      vertex 15.06 15.35 16.0373
      vertex 15.06 17 16.0373
    endloop
  endfacet
  facet normal 0.661322 0 0.750102
    outer loop
      vertex 15.06 15.35 16.0373
      vertex 14.0233 17 16.9513
      vertex 14.0233 15.35 16.9513
    endloop
  endfacet
  facet normal -0.612933 0 0.790135
    outer loop
      vertex -14.0233 -15.35 16.9513
      vertex -12.9313 -17 17.7984
      vertex -12.9313 -15.35 17.7984
    endloop
  endfacet
  facet normal -0.612933 0 0.790135
    outer loop
      vertex -12.9313 -17 17.7984
      vertex -14.0233 -15.35 16.9513
      vertex -14.0233 -17 16.9513
    endloop
  endfacet
  facet normal -0.612933 0 0.790135
    outer loop
      vertex -14.0233 17 16.9513
      vertex -12.9313 15.35 17.7984
      vertex -12.9313 17 17.7984
    endloop
  endfacet
  facet normal -0.612933 0 0.790135
    outer loop
      vertex -12.9313 15.35 17.7984
      vertex -14.0233 17 16.9513
      vertex -14.0233 15.35 16.9513
    endloop
  endfacet
  facet normal -0.156431 0 0.987689
    outer loop
      vertex -4.12239 17 21.6103
      vertex -2.75733 15.35 21.8265
      vertex -2.75733 17 21.8265
    endloop
  endfacet
  facet normal -0.156431 0 0.987689
    outer loop
      vertex -2.75733 15.35 21.8265
      vertex -4.12239 17 21.6103
      vertex -4.12239 15.35 21.6103
    endloop
  endfacet
  facet normal -0.156431 0 0.987689
    outer loop
      vertex -4.12239 -15.35 21.6103
      vertex -2.75733 -17 21.8265
      vertex -2.75733 -15.35 21.8265
    endloop
  endfacet
  facet normal -0.156431 0 0.987689
    outer loop
      vertex -2.75733 -17 21.8265
      vertex -4.12239 -15.35 21.6103
      vertex -4.12239 -17 21.6103
    endloop
  endfacet
  facet normal -0.21815 0 0.975915
    outer loop
      vertex -5.47118 17 21.3088
      vertex -4.12239 15.35 21.6103
      vertex -4.12239 17 21.6103
    endloop
  endfacet
  facet normal -0.21815 0 0.975915
    outer loop
      vertex -4.12239 15.35 21.6103
      vertex -5.47118 17 21.3088
      vertex -5.47118 15.35 21.3088
    endloop
  endfacet
  facet normal -0.21815 0 0.975915
    outer loop
      vertex -5.47118 -15.35 21.3088
      vertex -4.12239 -17 21.6103
      vertex -4.12239 -15.35 21.6103
    endloop
  endfacet
  facet normal -0.21815 0 0.975915
    outer loop
      vertex -4.12239 -17 21.6103
      vertex -5.47118 -15.35 21.3088
      vertex -5.47118 -17 21.3088
    endloop
  endfacet
  facet normal 0.397157 0 0.917751
    outer loop
      vertex 8.09874 17 20.4551
      vertex 9.36714 15.35 19.9062
      vertex 9.36714 17 19.9062
    endloop
  endfacet
  facet normal 0.397157 0 0.917751
    outer loop
      vertex 9.36714 15.35 19.9062
      vertex 8.09874 17 20.4551
      vertex 8.09874 15.35 20.4551
    endloop
  endfacet
  facet normal 0.397157 0 0.917751
    outer loop
      vertex 8.09874 -15.35 20.4551
      vertex 9.36714 -17 19.9062
      vertex 9.36714 -15.35 19.9062
    endloop
  endfacet
  facet normal 0.397157 0 0.917751
    outer loop
      vertex 9.36714 -17 19.9062
      vertex 8.09874 -15.35 20.4551
      vertex 8.09874 -17 20.4551
    endloop
  endfacet
  facet normal 0.790135 -0 0.612933
    outer loop
      vertex 16.9513 -17 14.0233
      vertex 17.7984 -15.35 12.9313
      vertex 16.9513 -15.35 14.0233
    endloop
  endfacet
  facet normal 0.790135 0 0.612933
    outer loop
      vertex 17.7984 -15.35 12.9313
      vertex 16.9513 -17 14.0233
      vertex 17.7984 -17 12.9313
    endloop
  endfacet
  facet normal 0.790135 -0 0.612933
    outer loop
      vertex 16.9513 15.35 14.0233
      vertex 17.7984 17 12.9313
      vertex 16.9513 17 14.0233
    endloop
  endfacet
  facet normal 0.790135 0 0.612933
    outer loop
      vertex 17.7984 17 12.9313
      vertex 16.9513 15.35 14.0233
      vertex 17.7984 15.35 12.9313
    endloop
  endfacet
  facet normal -0.707107 0 0.707107
    outer loop
      vertex -16.0373 -17 15.06
      vertex -15.06 -15.35 16.0373
      vertex -16.0373 -15.35 15.06
    endloop
  endfacet
  facet normal -0.707107 0 0.707107
    outer loop
      vertex -15.06 -15.35 16.0373
      vertex -16.0373 -17 15.06
      vertex -15.06 -17 16.0373
    endloop
  endfacet
  facet normal -0.707107 0 0.707107
    outer loop
      vertex -16.0373 15.35 15.06
      vertex -15.06 17 16.0373
      vertex -16.0373 17 15.06
    endloop
  endfacet
  facet normal -0.707107 0 0.707107
    outer loop
      vertex -15.06 17 16.0373
      vertex -16.0373 15.35 15.06
      vertex -15.06 15.35 16.0373
    endloop
  endfacet
  facet normal 0.917751 -0 0.397157
    outer loop
      vertex 19.9062 -17 9.36714
      vertex 20.4551 -15.35 8.09874
      vertex 19.9062 -15.35 9.36714
    endloop
  endfacet
  facet normal 0.917751 0 0.397157
    outer loop
      vertex 20.4551 -15.35 8.09874
      vertex 19.9062 -17 9.36714
      vertex 20.4551 -17 8.09874
    endloop
  endfacet
  facet normal 0.917751 -0 0.397157
    outer loop
      vertex 19.9062 15.35 9.36714
      vertex 20.4551 17 8.09874
      vertex 19.9062 17 9.36714
    endloop
  endfacet
  facet normal 0.917751 0 0.397157
    outer loop
      vertex 20.4551 17 8.09874
      vertex 19.9062 15.35 9.36714
      vertex 20.4551 15.35 8.09874
    endloop
  endfacet
  facet normal 0.707107 -0 0.707107
    outer loop
      vertex 15.06 -17 16.0373
      vertex 16.0373 -15.35 15.06
      vertex 15.06 -15.35 16.0373
    endloop
  endfacet
  facet normal 0.707107 0 0.707107
    outer loop
      vertex 16.0373 -15.35 15.06
      vertex 15.06 -17 16.0373
      vertex 16.0373 -17 15.06
    endloop
  endfacet
  facet normal 0.707107 -0 0.707107
    outer loop
      vertex 15.06 15.35 16.0373
      vertex 16.0373 17 15.06
      vertex 15.06 17 16.0373
    endloop
  endfacet
  facet normal 0.707107 0 0.707107
    outer loop
      vertex 16.0373 17 15.06
      vertex 15.06 15.35 16.0373
      vertex 16.0373 15.35 15.06
    endloop
  endfacet
  facet normal 0.612933 0 0.790135
    outer loop
      vertex 12.9313 17 17.7984
      vertex 14.0233 15.35 16.9513
      vertex 14.0233 17 16.9513
    endloop
  endfacet
  facet normal 0.612933 0 0.790135
    outer loop
      vertex 14.0233 15.35 16.9513
      vertex 12.9313 17 17.7984
      vertex 12.9313 15.35 17.7984
    endloop
  endfacet
  facet normal 0.612933 0 0.790135
    outer loop
      vertex 12.9313 -15.35 17.7984
      vertex 14.0233 -17 16.9513
      vertex 14.0233 -15.35 16.9513
    endloop
  endfacet
  facet normal 0.612933 0 0.790135
    outer loop
      vertex 14.0233 -17 16.9513
      vertex 12.9313 -15.35 17.7984
      vertex 12.9313 -17 17.7984
    endloop
  endfacet
  facet normal 0.0941337 0 0.99556
    outer loop
      vertex 1.38139 17 21.9566
      vertex 2.75733 15.35 21.8265
      vertex 2.75733 17 21.8265
    endloop
  endfacet
  facet normal 0.0941337 0 0.99556
    outer loop
      vertex 2.75733 15.35 21.8265
      vertex 1.38139 17 21.9566
      vertex 1.38139 15.35 21.9566
    endloop
  endfacet
  facet normal 0.0941337 0 0.99556
    outer loop
      vertex 1.38139 -15.35 21.9566
      vertex 2.75733 -17 21.8265
      vertex 2.75733 -15.35 21.8265
    endloop
  endfacet
  facet normal 0.0941337 0 0.99556
    outer loop
      vertex 2.75733 -17 21.8265
      vertex 1.38139 -15.35 21.9566
      vertex 1.38139 -17 21.9566
    endloop
  endfacet
  facet normal -0.890995 0 0.454013
    outer loop
      vertex -19.9062 15.35 9.36714
      vertex -19.2787 17 10.5986
      vertex -19.9062 17 9.36714
    endloop
  endfacet
  facet normal -0.890995 0 0.454013
    outer loop
      vertex -19.2787 17 10.5986
      vertex -19.9062 15.35 9.36714
      vertex -19.2787 15.35 10.5986
    endloop
  endfacet
  facet normal -0.890995 0 0.454013
    outer loop
      vertex -19.9062 -17 9.36714
      vertex -19.2787 -15.35 10.5986
      vertex -19.9062 -15.35 9.36714
    endloop
  endfacet
  facet normal -0.890995 0 0.454013
    outer loop
      vertex -19.2787 -15.35 10.5986
      vertex -19.9062 -17 9.36714
      vertex -19.2787 -17 10.5986
    endloop
  endfacet
  facet normal 0.454013 0 0.890995
    outer loop
      vertex 9.36714 -15.35 19.9062
      vertex 10.5986 -17 19.2787
      vertex 10.5986 -15.35 19.2787
    endloop
  endfacet
  facet normal 0.454013 0 0.890995
    outer loop
      vertex 10.5986 -17 19.2787
      vertex 9.36714 -15.35 19.9062
      vertex 9.36714 -17 19.9062
    endloop
  endfacet
  facet normal 0.454013 0 0.890995
    outer loop
      vertex 9.36714 17 19.9062
      vertex 10.5986 15.35 19.2787
      vertex 10.5986 17 19.2787
    endloop
  endfacet
  facet normal 0.454013 0 0.890995
    outer loop
      vertex 10.5986 15.35 19.2787
      vertex 9.36714 17 19.9062
      vertex 9.36714 15.35 19.9062
    endloop
  endfacet
  facet normal 0 1 -0
    outer loop
      vertex 62 17 0
      vertex 20.4906 17 8
      vertex 62 17 8
    endloop
  endfacet
  facet normal 0 1 0
    outer loop
      vertex 20.4906 17 8
      vertex 62 17 0
      vertex -20.4906 17 8
    endloop
  endfacet
  facet normal 0 1 0
    outer loop
      vertex -62 17 0
      vertex -20.4906 17 8
      vertex 62 17 0
    endloop
  endfacet
  facet normal 0 1 0
    outer loop
      vertex -20.4906 17 8
      vertex -62 17 0
      vertex -62 17 8
    endloop
  endfacet
  facet normal 0 1 0
    outer loop
      vertex 1.38139 17 21.9566
      vertex -1.38139 17 21.9566
      vertex 0 17 22
    endloop
  endfacet
  facet normal 0 1 0
    outer loop
      vertex 2.75733 17 21.8265
      vertex -1.38139 17 21.9566
      vertex 1.38139 17 21.9566
    endloop
  endfacet
  facet normal 0 1 0
    outer loop
      vertex 2.75733 17 21.8265
      vertex -2.75733 17 21.8265
      vertex -1.38139 17 21.9566
    endloop
  endfacet
  facet normal 0 1 0
    outer loop
      vertex 4.12239 17 21.6103
      vertex -2.75733 17 21.8265
      vertex 2.75733 17 21.8265
    endloop
  endfacet
  facet normal 0 1 0
    outer loop
      vertex 4.12239 17 21.6103
      vertex -4.12239 17 21.6103
      vertex -2.75733 17 21.8265
    endloop
  endfacet
  facet normal 0 1 0
    outer loop
      vertex 5.47118 17 21.3088
      vertex -4.12239 17 21.6103
      vertex 4.12239 17 21.6103
    endloop
  endfacet
  facet normal 0 1 0
    outer loop
      vertex 5.47118 17 21.3088
      vertex -5.47118 17 21.3088
      vertex -4.12239 17 21.6103
    endloop
  endfacet
  facet normal 0 1 0
    outer loop
      vertex 6.79837 17 20.9232
      vertex -5.47118 17 21.3088
      vertex 5.47118 17 21.3088
    endloop
  endfacet
  facet normal 0 1 0
    outer loop
      vertex 6.79837 17 20.9232
      vertex -6.79837 17 20.9232
      vertex -5.47118 17 21.3088
    endloop
  endfacet
  facet normal 0 1 0
    outer loop
      vertex 8.09874 17 20.4551
      vertex -6.79837 17 20.9232
      vertex 6.79837 17 20.9232
    endloop
  endfacet
  facet normal 0 1 0
    outer loop
      vertex 8.09874 17 20.4551
      vertex -8.09874 17 20.4551
      vertex -6.79837 17 20.9232
    endloop
  endfacet
  facet normal 0 1 0
    outer loop
      vertex 9.36714 17 19.9062
      vertex -8.09874 17 20.4551
      vertex 8.09874 17 20.4551
    endloop
  endfacet
  facet normal 0 1 0
    outer loop
      vertex 9.36714 17 19.9062
      vertex -9.36714 17 19.9062
      vertex -8.09874 17 20.4551
    endloop
  endfacet
  facet normal 0 1 0
    outer loop
      vertex 10.5986 17 19.2787
      vertex -9.36714 17 19.9062
      vertex 9.36714 17 19.9062
    endloop
  endfacet
  facet normal 0 1 0
    outer loop
      vertex 10.5986 17 19.2787
      vertex -10.5986 17 19.2787
      vertex -9.36714 17 19.9062
    endloop
  endfacet
  facet normal 0 1 0
    outer loop
      vertex 11.7882 17 18.5752
      vertex -10.5986 17 19.2787
      vertex 10.5986 17 19.2787
    endloop
  endfacet
  facet normal 0 1 0
    outer loop
      vertex 11.7882 17 18.5752
      vertex -11.7882 17 18.5752
      vertex -10.5986 17 19.2787
    endloop
  endfacet
  facet normal 0 1 0
    outer loop
      vertex 12.9313 17 17.7984
      vertex -11.7882 17 18.5752
      vertex 11.7882 17 18.5752
    endloop
  endfacet
  facet normal 0 1 0
    outer loop
      vertex 12.9313 17 17.7984
      vertex -12.9313 17 17.7984
      vertex -11.7882 17 18.5752
    endloop
  endfacet
  facet normal 0 1 0
    outer loop
      vertex 14.0233 17 16.9513
      vertex -12.9313 17 17.7984
      vertex 12.9313 17 17.7984
    endloop
  endfacet
  facet normal 0 1 0
    outer loop
      vertex 14.0233 17 16.9513
      vertex -14.0233 17 16.9513
      vertex -12.9313 17 17.7984
    endloop
  endfacet
  facet normal 0 1 0
    outer loop
      vertex 15.06 17 16.0373
      vertex -14.0233 17 16.9513
      vertex 14.0233 17 16.9513
    endloop
  endfacet
  facet normal 0 1 0
    outer loop
      vertex 15.06 17 16.0373
      vertex -15.06 17 16.0373
      vertex -14.0233 17 16.9513
    endloop
  endfacet
  facet normal 0 1 0
    outer loop
      vertex 16.0373 17 15.06
      vertex -15.06 17 16.0373
      vertex 15.06 17 16.0373
    endloop
  endfacet
  facet normal 0 1 0
    outer loop
      vertex 16.0373 17 15.06
      vertex -16.0373 17 15.06
      vertex -15.06 17 16.0373
    endloop
  endfacet
  facet normal 0 1 0
    outer loop
      vertex 16.9513 17 14.0233
      vertex -16.0373 17 15.06
      vertex 16.0373 17 15.06
    endloop
  endfacet
  facet normal 0 1 0
    outer loop
      vertex 16.9513 17 14.0233
      vertex -16.9513 17 14.0233
      vertex -16.0373 17 15.06
    endloop
  endfacet
  facet normal 0 1 0
    outer loop
      vertex 17.7984 17 12.9313
      vertex -16.9513 17 14.0233
      vertex 16.9513 17 14.0233
    endloop
  endfacet
  facet normal 0 1 0
    outer loop
      vertex 17.7984 17 12.9313
      vertex -17.7984 17 12.9313
      vertex -16.9513 17 14.0233
    endloop
  endfacet
  facet normal 0 1 0
    outer loop
      vertex 18.5752 17 11.7882
      vertex -17.7984 17 12.9313
      vertex 17.7984 17 12.9313
    endloop
  endfacet
  facet normal 0 1 0
    outer loop
      vertex 18.5752 17 11.7882
      vertex -18.5752 17 11.7882
      vertex -17.7984 17 12.9313
    endloop
  endfacet
  facet normal 0 1 0
    outer loop
      vertex 19.2787 17 10.5986
      vertex -18.5752 17 11.7882
      vertex 18.5752 17 11.7882
    endloop
  endfacet
  facet normal 0 1 0
    outer loop
      vertex 19.2787 17 10.5986
      vertex -19.2787 17 10.5986
      vertex -18.5752 17 11.7882
    endloop
  endfacet
  facet normal 0 1 0
    outer loop
      vertex 19.9062 17 9.36714
      vertex -19.2787 17 10.5986
      vertex 19.2787 17 10.5986
    endloop
  endfacet
  facet normal 0 1 0
    outer loop
      vertex 19.9062 17 9.36714
      vertex -19.9062 17 9.36714
      vertex -19.2787 17 10.5986
    endloop
  endfacet
  facet normal 0 1 0
    outer loop
      vertex 20.4906 17 8
      vertex 19.9062 17 9.36714
      vertex 20.4551 17 8.09874
    endloop
  endfacet
  facet normal 0 1 0
    outer loop
      vertex 19.9062 17 9.36714
      vertex 20.4906 17 8
      vertex -19.9062 17 9.36714
    endloop
  endfacet
  facet normal 0 1 0
    outer loop
      vertex -20.4906 17 8
      vertex -19.9062 17 9.36714
      vertex 20.4906 17 8
    endloop
  endfacet
  facet normal 0 1 0
    outer loop
      vertex -19.9062 17 9.36714
      vertex -20.4906 17 8
      vertex -20.4551 17 8.09874
    endloop
  endfacet
  facet normal 0 0 -1
    outer loop
      vertex 62 -17 0
      vertex 57 -12 0
      vertex 62 17 0
    endloop
  endfacet
  facet normal 0 0 -1
    outer loop
      vertex 62 -17 0
      vertex -57 -12 0
      vertex 57 -12 0
    endloop
  endfacet
  facet normal -0 0 -1
    outer loop
      vertex -57 -12 0
      vertex -62 -17 0
      vertex -57 12 0
    endloop
  endfacet
  facet normal 0 0 -1
    outer loop
      vertex -62 -17 0
      vertex -57 -12 0
      vertex 62 -17 0
    endloop
  endfacet
  facet normal 0 0 -1
    outer loop
      vertex 57 12 0
      vertex 62 17 0
      vertex 57 -12 0
    endloop
  endfacet
  facet normal 0 0 -1
    outer loop
      vertex -57 12 0
      vertex 62 17 0
      vertex 57 12 0
    endloop
  endfacet
  facet normal 0 0 -1
    outer loop
      vertex -57 12 0
      vertex -62 17 0
      vertex 62 17 0
    endloop
  endfacet
  facet normal 0 0 -1
    outer loop
      vertex -62 17 0
      vertex -57 12 0
      vertex -62 -17 0
    endloop
  endfacet
  facet normal 1 -0 0
    outer loop
      vertex 62 -17 8
      vertex 62 17 0
      vertex 62 17 8
    endloop
  endfacet
  facet normal 1 0 0
    outer loop
      vertex 62 17 0
      vertex 62 -17 8
      vertex 62 -17 0
    endloop
  endfacet
  facet normal 0 0 1
    outer loop
      vertex -20.4906 17 8
      vertex -60.35 15.35 8
      vertex -20.4906 15.35 8
    endloop
  endfacet
  facet normal 0 0 1
    outer loop
      vertex -60.35 15.35 8
      vertex -62 17 8
      vertex -60.35 -15.35 8
    endloop
  endfacet
  facet normal -0 0 1
    outer loop
      vertex -62 17 8
      vertex -60.35 15.35 8
      vertex -20.4906 17 8
    endloop
  endfacet
  facet normal -0 0 1
    outer loop
      vertex -60.35 -15.35 8
      vertex -20.4906 -17 8
      vertex -20.4906 -15.35 8
    endloop
  endfacet
  facet normal 0 0 1
    outer loop
      vertex -60.35 -15.35 8
      vertex -62 -17 8
      vertex -20.4906 -17 8
    endloop
  endfacet
  facet normal 0 0 1
    outer loop
      vertex -62 -17 8
      vertex -60.35 -15.35 8
      vertex -62 17 8
    endloop
  endfacet
  facet normal 0 0 1
    outer loop
      vertex 62 17 8
      vertex 60.35 15.35 8
      vertex 62 -17 8
    endloop
  endfacet
  facet normal -0 0 1
    outer loop
      vertex 20.4906 17 8
      vertex 60.35 15.35 8
      vertex 62 17 8
    endloop
  endfacet
  facet normal 0 0 1
    outer loop
      vertex 60.35 15.35 8
      vertex 20.4906 17 8
      vertex 20.4906 15.35 8
    endloop
  endfacet
  facet normal -0 0 1
    outer loop
      vertex 60.35 -15.35 8
      vertex 62 -17 8
      vertex 60.35 15.35 8
    endloop
  endfacet
  facet normal 0 0 1
    outer loop
      vertex 20.4906 -17 8
      vertex 60.35 -15.35 8
      vertex 20.4906 -15.35 8
    endloop
  endfacet
  facet normal 0 0 1
    outer loop
      vertex 60.35 -15.35 8
      vertex 20.4906 -17 8
      vertex 62 -17 8
    endloop
  endfacet
  facet normal -1 0 0
    outer loop
      vertex -62 -17 0
      vertex -62 17 8
      vertex -62 17 0
    endloop
  endfacet
  facet normal -1 -0 0
    outer loop
      vertex -62 17 8
      vertex -62 -17 0
      vertex -62 -17 8
    endloop
  endfacet
  facet normal -1 0 0
    outer loop
      vertex 60.35 -15.35 2
      vertex 60.35 15.35 8
      vertex 60.35 15.35 2
    endloop
  endfacet
  facet normal -1 -0 0
    outer loop
      vertex 60.35 15.35 8
      vertex 60.35 -15.35 2
      vertex 60.35 -15.35 8
    endloop
  endfacet
  facet normal 0 0 1
    outer loop
      vertex 60.35 15.35 2
      vertex 57 12 2
      vertex 60.35 -15.35 2
    endloop
  endfacet
  facet normal 0 0 1
    outer loop
      vertex 60.35 15.35 2
      vertex -57 12 2
      vertex 57 12 2
    endloop
  endfacet
  facet normal 0 0 1
    outer loop
      vertex -57 12 2
      vertex -60.35 15.35 2
      vertex -57 -12 2
    endloop
  endfacet
  facet normal -0 0 1
    outer loop
      vertex -60.35 15.35 2
      vertex -57 12 2
      vertex 60.35 15.35 2
    endloop
  endfacet
  facet normal -0 0 1
    outer loop
      vertex 57 -12 2
      vertex 60.35 -15.35 2
      vertex 57 12 2
    endloop
  endfacet
  facet normal -0 0 1
    outer loop
      vertex -57 -12 2
      vertex 60.35 -15.35 2
      vertex 57 -12 2
    endloop
  endfacet
  facet normal 0 0 1
    outer loop
      vertex -57 -12 2
      vertex -60.35 -15.35 2
      vertex 60.35 -15.35 2
    endloop
  endfacet
  facet normal 0 0 1
    outer loop
      vertex -60.35 -15.35 2
      vertex -57 -12 2
      vertex -60.35 15.35 2
    endloop
  endfacet
  facet normal 1 -0 0
    outer loop
      vertex -60.35 -15.35 8
      vertex -60.35 15.35 2
      vertex -60.35 15.35 8
    endloop
  endfacet
  facet normal 1 0 0
    outer loop
      vertex -60.35 15.35 2
      vertex -60.35 -15.35 8
      vertex -60.35 -15.35 2
    endloop
  endfacet
  facet normal 0 -1 0
    outer loop
      vertex -60.35 15.35 2
      vertex -20.4906 15.35 8
      vertex -60.35 15.35 8
    endloop
  endfacet
  facet normal 0 -1 -0
    outer loop
      vertex -20.4906 15.35 8
      vertex -60.35 15.35 2
      vertex 20.4906 15.35 8
    endloop
  endfacet
  facet normal 0 -1 0
    outer loop
      vertex 60.35 15.35 2
      vertex 20.4906 15.35 8
      vertex -60.35 15.35 2
    endloop
  endfacet
  facet normal 0 -1 0
    outer loop
      vertex 20.4906 15.35 8
      vertex 60.35 15.35 2
      vertex 60.35 15.35 8
    endloop
  endfacet
  facet normal 0 -1 0
    outer loop
      vertex -1.38139 15.35 21.9566
      vertex 1.38139 15.35 21.9566
      vertex 0 15.35 22
    endloop
  endfacet
  facet normal 0 -1 0
    outer loop
      vertex -2.75733 15.35 21.8265
      vertex 1.38139 15.35 21.9566
      vertex -1.38139 15.35 21.9566
    endloop
  endfacet
  facet normal 0 -1 0
    outer loop
      vertex -2.75733 15.35 21.8265
      vertex 2.75733 15.35 21.8265
      vertex 1.38139 15.35 21.9566
    endloop
  endfacet
  facet normal 0 -1 0
    outer loop
      vertex -4.12239 15.35 21.6103
      vertex 2.75733 15.35 21.8265
      vertex -2.75733 15.35 21.8265
    endloop
  endfacet
  facet normal 0 -1 0
    outer loop
      vertex -4.12239 15.35 21.6103
      vertex 4.12239 15.35 21.6103
      vertex 2.75733 15.35 21.8265
    endloop
  endfacet
  facet normal 0 -1 0
    outer loop
      vertex -5.47118 15.35 21.3088
      vertex 4.12239 15.35 21.6103
      vertex -4.12239 15.35 21.6103
    endloop
  endfacet
  facet normal 0 -1 0
    outer loop
      vertex -5.47118 15.35 21.3088
      vertex 5.47118 15.35 21.3088
      vertex 4.12239 15.35 21.6103
    endloop
  endfacet
  facet normal 0 -1 0
    outer loop
      vertex -6.79837 15.35 20.9232
      vertex 5.47118 15.35 21.3088
      vertex -5.47118 15.35 21.3088
    endloop
  endfacet
  facet normal 0 -1 0
    outer loop
      vertex -6.79837 15.35 20.9232
      vertex 6.79837 15.35 20.9232
      vertex 5.47118 15.35 21.3088
    endloop
  endfacet
  facet normal 0 -1 0
    outer loop
      vertex -8.09874 15.35 20.4551
      vertex 6.79837 15.35 20.9232
      vertex -6.79837 15.35 20.9232
    endloop
  endfacet
  facet normal 0 -1 0
    outer loop
      vertex -8.09874 15.35 20.4551
      vertex 8.09874 15.35 20.4551
      vertex 6.79837 15.35 20.9232
    endloop
  endfacet
  facet normal 0 -1 0
    outer loop
      vertex -9.36714 15.35 19.9062
      vertex 8.09874 15.35 20.4551
      vertex -8.09874 15.35 20.4551
    endloop
  endfacet
  facet normal 0 -1 0
    outer loop
      vertex -9.36714 15.35 19.9062
      vertex 9.36714 15.35 19.9062
      vertex 8.09874 15.35 20.4551
    endloop
  endfacet
  facet normal 0 -1 0
    outer loop
      vertex -10.5986 15.35 19.2787
      vertex 9.36714 15.35 19.9062
      vertex -9.36714 15.35 19.9062
    endloop
  endfacet
  facet normal 0 -1 0
    outer loop
      vertex -10.5986 15.35 19.2787
      vertex 10.5986 15.35 19.2787
      vertex 9.36714 15.35 19.9062
    endloop
  endfacet
  facet normal 0 -1 0
    outer loop
      vertex -11.7882 15.35 18.5752
      vertex 10.5986 15.35 19.2787
      vertex -10.5986 15.35 19.2787
    endloop
  endfacet
  facet normal 0 -1 0
    outer loop
      vertex -11.7882 15.35 18.5752
      vertex 11.7882 15.35 18.5752
      vertex 10.5986 15.35 19.2787
    endloop
  endfacet
  facet normal 0 -1 0
    outer loop
      vertex -12.9313 15.35 17.7984
      vertex 11.7882 15.35 18.5752
      vertex -11.7882 15.35 18.5752
    endloop
  endfacet
  facet normal 0 -1 0
    outer loop
      vertex -12.9313 15.35 17.7984
      vertex 12.9313 15.35 17.7984
      vertex 11.7882 15.35 18.5752
    endloop
  endfacet
  facet normal 0 -1 0
    outer loop
      vertex -14.0233 15.35 16.9513
      vertex 12.9313 15.35 17.7984
      vertex -12.9313 15.35 17.7984
    endloop
  endfacet
  facet normal 0 -1 0
    outer loop
      vertex -14.0233 15.35 16.9513
      vertex 14.0233 15.35 16.9513
      vertex 12.9313 15.35 17.7984
    endloop
  endfacet
  facet normal 0 -1 0
    outer loop
      vertex -15.06 15.35 16.0373
      vertex 14.0233 15.35 16.9513
      vertex -14.0233 15.35 16.9513
    endloop
  endfacet
  facet normal 0 -1 0
    outer loop
      vertex -15.06 15.35 16.0373
      vertex 15.06 15.35 16.0373
      vertex 14.0233 15.35 16.9513
    endloop
  endfacet
  facet normal 0 -1 0
    outer loop
      vertex -16.0373 15.35 15.06
      vertex 15.06 15.35 16.0373
      vertex -15.06 15.35 16.0373
    endloop
  endfacet
  facet normal 0 -1 0
    outer loop
      vertex -16.0373 15.35 15.06
      vertex 16.0373 15.35 15.06
      vertex 15.06 15.35 16.0373
    endloop
  endfacet
  facet normal 0 -1 0
    outer loop
      vertex -16.9513 15.35 14.0233
      vertex 16.0373 15.35 15.06
      vertex -16.0373 15.35 15.06
    endloop
  endfacet
  facet normal 0 -1 0
    outer loop
      vertex -16.9513 15.35 14.0233
      vertex 16.9513 15.35 14.0233
      vertex 16.0373 15.35 15.06
    endloop
  endfacet
  facet normal 0 -1 0
    outer loop
      vertex -17.7984 15.35 12.9313
      vertex 16.9513 15.35 14.0233
      vertex -16.9513 15.35 14.0233
    endloop
  endfacet
  facet normal 0 -1 0
    outer loop
      vertex -17.7984 15.35 12.9313
      vertex 17.7984 15.35 12.9313
      vertex 16.9513 15.35 14.0233
    endloop
  endfacet
  facet normal 0 -1 0
    outer loop
      vertex -18.5752 15.35 11.7882
      vertex 17.7984 15.35 12.9313
      vertex -17.7984 15.35 12.9313
    endloop
  endfacet
  facet normal 0 -1 0
    outer loop
      vertex -18.5752 15.35 11.7882
      vertex 18.5752 15.35 11.7882
      vertex 17.7984 15.35 12.9313
    endloop
  endfacet
  facet normal 0 -1 0
    outer loop
      vertex -19.2787 15.35 10.5986
      vertex 18.5752 15.35 11.7882
      vertex -18.5752 15.35 11.7882
    endloop
  endfacet
  facet normal 0 -1 0
    outer loop
      vertex -19.2787 15.35 10.5986
      vertex 19.2787 15.35 10.5986
      vertex 18.5752 15.35 11.7882
    endloop
  endfacet
  facet normal 0 -1 0
    outer loop
      vertex -19.9062 15.35 9.36714
      vertex 19.2787 15.35 10.5986
      vertex -19.2787 15.35 10.5986
    endloop
  endfacet
  facet normal 0 -1 0
    outer loop
      vertex -19.9062 15.35 9.36714
      vertex 19.9062 15.35 9.36714
      vertex 19.2787 15.35 10.5986
    endloop
  endfacet
  facet normal 0 -1 0
    outer loop
      vertex -20.4906 15.35 8
      vertex -19.9062 15.35 9.36714
      vertex -20.4551 15.35 8.09874
    endloop
  endfacet
  facet normal 0 -1 -0
    outer loop
      vertex -19.9062 15.35 9.36714
      vertex -20.4906 15.35 8
      vertex 19.9062 15.35 9.36714
    endloop
  endfacet
  facet normal 0 -1 0
    outer loop
      vertex 20.4906 15.35 8
      vertex 19.9062 15.35 9.36714
      vertex -20.4906 15.35 8
    endloop
  endfacet
  facet normal 0 -1 0
    outer loop
      vertex 19.9062 15.35 9.36714
      vertex 20.4906 15.35 8
      vertex 20.4551 15.35 8.09874
    endloop
  endfacet
  facet normal 0 1 -0
    outer loop
      vertex 60.35 -15.35 2
      vertex 20.4906 -15.35 8
      vertex 60.35 -15.35 8
    endloop
  endfacet
  facet normal 0 1 0
    outer loop
      vertex 20.4906 -15.35 8
      vertex 60.35 -15.35 2
      vertex -20.4906 -15.35 8
    endloop
  endfacet
  facet normal 0 1 0
    outer loop
      vertex -60.35 -15.35 2
      vertex -20.4906 -15.35 8
      vertex 60.35 -15.35 2
    endloop
  endfacet
  facet normal 0 1 0
    outer loop
      vertex -20.4906 -15.35 8
      vertex -60.35 -15.35 2
      vertex -60.35 -15.35 8
    endloop
  endfacet
  facet normal 0 1 0
    outer loop
      vertex 1.38139 -15.35 21.9566
      vertex -1.38139 -15.35 21.9566
      vertex 0 -15.35 22
    endloop
  endfacet
  facet normal 0 1 0
    outer loop
      vertex 2.75733 -15.35 21.8265
      vertex -1.38139 -15.35 21.9566
      vertex 1.38139 -15.35 21.9566
    endloop
  endfacet
  facet normal 0 1 0
    outer loop
      vertex 2.75733 -15.35 21.8265
      vertex -2.75733 -15.35 21.8265
      vertex -1.38139 -15.35 21.9566
    endloop
  endfacet
  facet normal 0 1 0
    outer loop
      vertex 4.12239 -15.35 21.6103
      vertex -2.75733 -15.35 21.8265
      vertex 2.75733 -15.35 21.8265
    endloop
  endfacet
  facet normal 0 1 0
    outer loop
      vertex 4.12239 -15.35 21.6103
      vertex -4.12239 -15.35 21.6103
      vertex -2.75733 -15.35 21.8265
    endloop
  endfacet
  facet normal 0 1 0
    outer loop
      vertex 5.47118 -15.35 21.3088
      vertex -4.12239 -15.35 21.6103
      vertex 4.12239 -15.35 21.6103
    endloop
  endfacet
  facet normal 0 1 0
    outer loop
      vertex 5.47118 -15.35 21.3088
      vertex -5.47118 -15.35 21.3088
      vertex -4.12239 -15.35 21.6103
    endloop
  endfacet
  facet normal 0 1 0
    outer loop
      vertex 6.79837 -15.35 20.9232
      vertex -5.47118 -15.35 21.3088
      vertex 5.47118 -15.35 21.3088
    endloop
  endfacet
  facet normal 0 1 0
    outer loop
      vertex 6.79837 -15.35 20.9232
      vertex -6.79837 -15.35 20.9232
      vertex -5.47118 -15.35 21.3088
    endloop
  endfacet
  facet normal 0 1 0
    outer loop
      vertex 8.09874 -15.35 20.4551
      vertex -6.79837 -15.35 20.9232
      vertex 6.79837 -15.35 20.9232
    endloop
  endfacet
  facet normal 0 1 0
    outer loop
      vertex 8.09874 -15.35 20.4551
      vertex -8.09874 -15.35 20.4551
      vertex -6.79837 -15.35 20.9232
    endloop
  endfacet
  facet normal 0 1 0
    outer loop
      vertex 9.36714 -15.35 19.9062
      vertex -8.09874 -15.35 20.4551
      vertex 8.09874 -15.35 20.4551
    endloop
  endfacet
  facet normal 0 1 0
    outer loop
      vertex 9.36714 -15.35 19.9062
      vertex -9.36714 -15.35 19.9062
      vertex -8.09874 -15.35 20.4551
    endloop
  endfacet
  facet normal 0 1 0
    outer loop
      vertex 10.5986 -15.35 19.2787
      vertex -9.36714 -15.35 19.9062
      vertex 9.36714 -15.35 19.9062
    endloop
  endfacet
  facet normal 0 1 0
    outer loop
      vertex 10.5986 -15.35 19.2787
      vertex -10.5986 -15.35 19.2787
      vertex -9.36714 -15.35 19.9062
    endloop
  endfacet
  facet normal 0 1 0
    outer loop
      vertex 11.7882 -15.35 18.5752
      vertex -10.5986 -15.35 19.2787
      vertex 10.5986 -15.35 19.2787
    endloop
  endfacet
  facet normal 0 1 0
    outer loop
      vertex 11.7882 -15.35 18.5752
      vertex -11.7882 -15.35 18.5752
      vertex -10.5986 -15.35 19.2787
    endloop
  endfacet
  facet normal 0 1 0
    outer loop
      vertex 12.9313 -15.35 17.7984
      vertex -11.7882 -15.35 18.5752
      vertex 11.7882 -15.35 18.5752
    endloop
  endfacet
  facet normal 0 1 0
    outer loop
      vertex 12.9313 -15.35 17.7984
      vertex -12.9313 -15.35 17.7984
      vertex -11.7882 -15.35 18.5752
    endloop
  endfacet
  facet normal 0 1 0
    outer loop
      vertex 14.0233 -15.35 16.9513
      vertex -12.9313 -15.35 17.7984
      vertex 12.9313 -15.35 17.7984
    endloop
  endfacet
  facet normal 0 1 0
    outer loop
      vertex 14.0233 -15.35 16.9513
      vertex -14.0233 -15.35 16.9513
      vertex -12.9313 -15.35 17.7984
    endloop
  endfacet
  facet normal 0 1 0
    outer loop
      vertex 15.06 -15.35 16.0373
      vertex -14.0233 -15.35 16.9513
      vertex 14.0233 -15.35 16.9513
    endloop
  endfacet
  facet normal 0 1 0
    outer loop
      vertex 15.06 -15.35 16.0373
      vertex -15.06 -15.35 16.0373
      vertex -14.0233 -15.35 16.9513
    endloop
  endfacet
  facet normal 0 1 0
    outer loop
      vertex 16.0373 -15.35 15.06
      vertex -15.06 -15.35 16.0373
      vertex 15.06 -15.35 16.0373
    endloop
  endfacet
  facet normal 0 1 0
    outer loop
      vertex 16.0373 -15.35 15.06
      vertex -16.0373 -15.35 15.06
      vertex -15.06 -15.35 16.0373
    endloop
  endfacet
  facet normal 0 1 0
    outer loop
      vertex 16.9513 -15.35 14.0233
      vertex -16.0373 -15.35 15.06
      vertex 16.0373 -15.35 15.06
    endloop
  endfacet
  facet normal 0 1 0
    outer loop
      vertex 16.9513 -15.35 14.0233
      vertex -16.9513 -15.35 14.0233
      vertex -16.0373 -15.35 15.06
    endloop
  endfacet
  facet normal 0 1 0
    outer loop
      vertex 17.7984 -15.35 12.9313
      vertex -16.9513 -15.35 14.0233
      vertex 16.9513 -15.35 14.0233
    endloop
  endfacet
  facet normal 0 1 0
    outer loop
      vertex 17.7984 -15.35 12.9313
      vertex -17.7984 -15.35 12.9313
      vertex -16.9513 -15.35 14.0233
    endloop
  endfacet
  facet normal 0 1 0
    outer loop
      vertex 18.5752 -15.35 11.7882
      vertex -17.7984 -15.35 12.9313
      vertex 17.7984 -15.35 12.9313
    endloop
  endfacet
  facet normal 0 1 0
    outer loop
      vertex 18.5752 -15.35 11.7882
      vertex -18.5752 -15.35 11.7882
      vertex -17.7984 -15.35 12.9313
    endloop
  endfacet
  facet normal 0 1 0
    outer loop
      vertex 19.2787 -15.35 10.5986
      vertex -18.5752 -15.35 11.7882
      vertex 18.5752 -15.35 11.7882
    endloop
  endfacet
  facet normal 0 1 0
    outer loop
      vertex 19.2787 -15.35 10.5986
      vertex -19.2787 -15.35 10.5986
      vertex -18.5752 -15.35 11.7882
    endloop
  endfacet
  facet normal 0 1 0
    outer loop
      vertex 19.9062 -15.35 9.36714
      vertex -19.2787 -15.35 10.5986
      vertex 19.2787 -15.35 10.5986
    endloop
  endfacet
  facet normal 0 1 0
    outer loop
      vertex 19.9062 -15.35 9.36714
      vertex -19.9062 -15.35 9.36714
      vertex -19.2787 -15.35 10.5986
    endloop
  endfacet
  facet normal 0 1 0
    outer loop
      vertex 20.4906 -15.35 8
      vertex 19.9062 -15.35 9.36714
      vertex 20.4551 -15.35 8.09874
    endloop
  endfacet
  facet normal 0 1 0
    outer loop
      vertex 19.9062 -15.35 9.36714
      vertex 20.4906 -15.35 8
      vertex -19.9062 -15.35 9.36714
    endloop
  endfacet
  facet normal 0 1 0
    outer loop
      vertex -20.4906 -15.35 8
      vertex -19.9062 -15.35 9.36714
      vertex 20.4906 -15.35 8
    endloop
  endfacet
  facet normal 0 1 0
    outer loop
      vertex -19.9062 -15.35 9.36714
      vertex -20.4906 -15.35 8
      vertex -20.4551 -15.35 8.09874
    endloop
  endfacet
  facet normal -1 0 0
    outer loop
      vertex 57 -12 0
      vertex 57 12 2
      vertex 57 12 0
    endloop
  endfacet
  facet normal -1 -0 0
    outer loop
      vertex 57 12 2
      vertex 57 -12 0
      vertex 57 -12 2
    endloop
  endfacet
  facet normal 1 -0 0
    outer loop
      vertex -57 -12 2
      vertex -57 12 0
      vertex -57 12 2
    endloop
  endfacet
  facet normal 1 0 0
    outer loop
      vertex -57 12 0
      vertex -57 -12 2
      vertex -57 -12 0
    endloop
  endfacet
  facet normal 0 -1 0
    outer loop
      vertex -57 12 0
      vertex 57 12 2
      vertex -57 12 2
    endloop
  endfacet
  facet normal 0 -1 -0
    outer loop
      vertex 57 12 2
      vertex -57 12 0
      vertex 57 12 0
    endloop
  endfacet
  facet normal 0 1 -0
    outer loop
      vertex 57 -12 0
      vertex -57 -12 2
      vertex 57 -12 2
    endloop
  endfacet
  facet normal 0 1 0
    outer loop
      vertex -57 -12 2
      vertex 57 -12 0
      vertex -57 -12 0
    endloop
  endfacet
endsolid OpenSCAD_Model
