solid ascii
  facet normal -6.828839e-01 -7.305269e-01 0.000000e+00
    outer loop
      vertex   -1.630000e+01 9.779508e-01 0.000000e+00
      vertex   -1.236545e+01 -2.700000e+00 0.000000e+00
      vertex   -1.630000e+01 9.779508e-01 1.000000e+00
    endloop
  endfacet
  facet normal -6.828839e-01 -7.305269e-01 0.000000e+00
    outer loop
      vertex   -1.630000e+01 9.779508e-01 1.000000e+00
      vertex   -1.236545e+01 -2.700000e+00 0.000000e+00
      vertex   -1.236545e+01 -2.700000e+00 1.000000e+00
    endloop
  endfacet
  facet normal -1.000000e+00 0.000000e+00 0.000000e+00
    outer loop
      vertex   -1.630000e+01 5.622049e+00 0.000000e+00
      vertex   -1.630000e+01 9.779508e-01 0.000000e+00
      vertex   -1.630000e+01 5.622049e+00 1.000000e+00
    endloop
  endfacet
  facet normal -1.000000e+00 -0.000000e+00 0.000000e+00
    outer loop
      vertex   -1.630000e+01 5.622049e+00 1.000000e+00
      vertex   -1.630000e+01 9.779508e-01 0.000000e+00
      vertex   -1.630000e+01 9.779508e-01 1.000000e+00
    endloop
  endfacet
  facet normal -6.828839e-01 7.305269e-01 1.319262e-15
    outer loop
      vertex   -1.236545e+01 9.300000e+00 0.000000e+00
      vertex   -1.630000e+01 5.622049e+00 0.000000e+00
      vertex   -1.236545e+01 9.300000e+00 1.000000e+00
    endloop
  endfacet
  facet normal -6.828839e-01 7.305269e-01 0.000000e+00
    outer loop
      vertex   -1.236545e+01 9.300000e+00 1.000000e+00
      vertex   -1.630000e+01 5.622049e+00 0.000000e+00
      vertex   -1.630000e+01 5.622049e+00 1.000000e+00
    endloop
  endfacet
  facet normal 0.000000e+00 1.000000e+00 -0.000000e+00
    outer loop
      vertex   2.900000e+00 9.300000e+00 0.000000e+00
      vertex   -1.236545e+01 9.300000e+00 0.000000e+00
      vertex   2.900000e+00 9.300000e+00 1.000000e+00
    endloop
  endfacet
  facet normal -1.163645e-16 1.000000e+00 1.776357e-15
    outer loop
      vertex   2.900000e+00 9.300000e+00 1.000000e+00
      vertex   -1.236545e+01 9.300000e+00 0.000000e+00
      vertex   -1.236545e+01 9.300000e+00 1.000000e+00
    endloop
  endfacet
  facet normal 1.000000e+00 0.000000e+00 -4.440892e-16
    outer loop
      vertex   2.900000e+00 -2.700000e+00 0.000000e+00
      vertex   2.900000e+00 9.300000e+00 0.000000e+00
      vertex   2.900000e+00 -2.700000e+00 1.000000e+00
    endloop
  endfacet
  facet normal 1.000000e+00 0.000000e+00 -4.440892e-16
    outer loop
      vertex   2.900000e+00 -2.700000e+00 1.000000e+00
      vertex   2.900000e+00 9.300000e+00 0.000000e+00
      vertex   2.900000e+00 9.300000e+00 1.000000e+00
    endloop
  endfacet
  facet normal -2.909114e-17 -1.000000e+00 0.000000e+00
    outer loop
      vertex   -1.236545e+01 -2.700000e+00 0.000000e+00
      vertex   2.900000e+00 -2.700000e+00 0.000000e+00
      vertex   -1.236545e+01 -2.700000e+00 1.000000e+00
    endloop
  endfacet
  facet normal -2.909114e-17 -1.000000e+00 1.291906e-32
    outer loop
      vertex   -1.236545e+01 -2.700000e+00 1.000000e+00
      vertex   2.900000e+00 -2.700000e+00 0.000000e+00
      vertex   2.900000e+00 -2.700000e+00 1.000000e+00
    endloop
  endfacet
  facet normal 0.000000e+00 0.000000e+00 1.000000e+00
    outer loop
      vertex   2.900000e+00 -2.700000e+00 1.000000e+00
      vertex   1.900000e+00 -1.700000e+00 1.000000e+00
      vertex   -1.236545e+01 -2.700000e+00 1.000000e+00
    endloop
  endfacet
  facet normal 0.000000e+00 0.000000e+00 1.000000e+00
    outer loop
      vertex   2.900000e+00 -2.700000e+00 1.000000e+00
      vertex   1.900000e+00 8.300000e+00 1.000000e+00
      vertex   1.900000e+00 -1.700000e+00 1.000000e+00
    endloop
  endfacet
  facet normal 0.000000e+00 -0.000000e+00 1.000000e+00
    outer loop
      vertex   2.900000e+00 -2.700000e+00 1.000000e+00
      vertex   2.900000e+00 9.300000e+00 1.000000e+00
      vertex   1.900000e+00 8.300000e+00 1.000000e+00
    endloop
  endfacet
  facet normal 0.000000e+00 -0.000000e+00 1.000000e+00
    outer loop
      vertex   1.900000e+00 8.300000e+00 1.000000e+00
      vertex   2.900000e+00 9.300000e+00 1.000000e+00
      vertex   -1.236545e+01 9.300000e+00 1.000000e+00
    endloop
  endfacet
  facet normal 0.000000e+00 0.000000e+00 1.000000e+00
    outer loop
      vertex   -1.197084e+01 8.300000e+00 1.000000e+00
      vertex   -1.236545e+01 9.300000e+00 1.000000e+00
      vertex   -1.630000e+01 5.622049e+00 1.000000e+00
    endloop
  endfacet
  facet normal 0.000000e+00 0.000000e+00 1.000000e+00
    outer loop
      vertex   -1.530000e+01 5.187957e+00 1.000000e+00
      vertex   -1.630000e+01 5.622049e+00 1.000000e+00
      vertex   -1.630000e+01 9.779508e-01 1.000000e+00
    endloop
  endfacet
  facet normal 0.000000e+00 0.000000e+00 1.000000e+00
    outer loop
      vertex   -1.530000e+01 1.412043e+00 1.000000e+00
      vertex   -1.630000e+01 9.779508e-01 1.000000e+00
      vertex   -1.197084e+01 -1.700000e+00 1.000000e+00
    endloop
  endfacet
  facet normal 0.000000e+00 -0.000000e+00 1.000000e+00
    outer loop
      vertex   -1.530000e+01 1.412043e+00 1.000000e+00
      vertex   -1.530000e+01 5.187957e+00 1.000000e+00
      vertex   -1.630000e+01 9.779508e-01 1.000000e+00
    endloop
  endfacet
  facet normal 0.000000e+00 0.000000e+00 1.000000e+00
    outer loop
      vertex   1.900000e+00 8.300000e+00 1.000000e+00
      vertex   -1.236545e+01 9.300000e+00 1.000000e+00
      vertex   -1.197084e+01 8.300000e+00 1.000000e+00
    endloop
  endfacet
  facet normal 0.000000e+00 0.000000e+00 1.000000e+00
    outer loop
      vertex   -1.197084e+01 8.300000e+00 1.000000e+00
      vertex   -1.630000e+01 5.622049e+00 1.000000e+00
      vertex   -1.530000e+01 5.187957e+00 1.000000e+00
    endloop
  endfacet
  facet normal -0.000000e+00 0.000000e+00 1.000000e+00
    outer loop
      vertex   -1.630000e+01 9.779508e-01 1.000000e+00
      vertex   -1.236545e+01 -2.700000e+00 1.000000e+00
      vertex   -1.197084e+01 -1.700000e+00 1.000000e+00
    endloop
  endfacet
  facet normal -0.000000e+00 0.000000e+00 1.000000e+00
    outer loop
      vertex   -1.197084e+01 -1.700000e+00 1.000000e+00
      vertex   -1.236545e+01 -2.700000e+00 1.000000e+00
      vertex   1.900000e+00 -1.700000e+00 1.000000e+00
    endloop
  endfacet
  facet normal -6.828839e-01 7.305269e-01 0.000000e+00
    outer loop
      vertex   -1.197084e+01 8.300000e+00 1.000000e+00
      vertex   -1.530000e+01 5.187957e+00 1.000000e+00
      vertex   -1.197084e+01 8.300000e+00 1.000000e+01
    endloop
  endfacet
  facet normal -6.828839e-01 7.305269e-01 0.000000e+00
    outer loop
      vertex   -1.197084e+01 8.300000e+00 1.000000e+01
      vertex   -1.530000e+01 5.187957e+00 1.000000e+00
      vertex   -1.530000e+01 5.187957e+00 1.000000e+01
    endloop
  endfacet
  facet normal -1.000000e+00 0.000000e+00 0.000000e+00
    outer loop
      vertex   -1.530000e+01 5.187957e+00 1.000000e+00
      vertex   -1.530000e+01 1.412043e+00 1.000000e+00
      vertex   -1.530000e+01 5.187957e+00 1.000000e+01
    endloop
  endfacet
  facet normal -1.000000e+00 -0.000000e+00 0.000000e+00
    outer loop
      vertex   -1.530000e+01 5.187957e+00 1.000000e+01
      vertex   -1.530000e+01 1.412043e+00 1.000000e+00
      vertex   -1.530000e+01 1.412043e+00 1.000000e+01
    endloop
  endfacet
  facet normal -6.828839e-01 -7.305269e-01 -4.331008e-17
    outer loop
      vertex   -1.530000e+01 1.412043e+00 1.000000e+00
      vertex   -1.197084e+01 -1.700000e+00 1.000000e+00
      vertex   -1.530000e+01 1.412043e+00 1.000000e+01
    endloop
  endfacet
  facet normal -6.828839e-01 -7.305269e-01 0.000000e+00
    outer loop
      vertex   -1.530000e+01 1.412043e+00 1.000000e+01
      vertex   -1.197084e+01 -1.700000e+00 1.000000e+00
      vertex   -1.197084e+01 -1.700000e+00 1.000000e+01
    endloop
  endfacet
  facet normal 0.000000e+00 -1.000000e+00 0.000000e+00
    outer loop
      vertex   -1.137892e+01 6.800000e+00 1.000000e+00
      vertex   4.000000e-01 6.800000e+00 1.000000e+00
      vertex   -1.137892e+01 6.800000e+00 1.000000e+01
    endloop
  endfacet
  facet normal 0.000000e+00 -1.000000e+00 0.000000e+00
    outer loop
      vertex   -1.137892e+01 6.800000e+00 1.000000e+01
      vertex   4.000000e-01 6.800000e+00 1.000000e+00
      vertex   4.000000e-01 6.800000e+00 1.000000e+01
    endloop
  endfacet
  facet normal -1.000000e+00 0.000000e+00 0.000000e+00
    outer loop
      vertex   4.000000e-01 6.800000e+00 1.000000e+00
      vertex   4.000000e-01 -2.000000e-01 1.000000e+00
      vertex   4.000000e-01 6.800000e+00 1.000000e+01
    endloop
  endfacet
  facet normal -1.000000e+00 -0.000000e+00 0.000000e+00
    outer loop
      vertex   4.000000e-01 6.800000e+00 1.000000e+01
      vertex   4.000000e-01 -2.000000e-01 1.000000e+00
      vertex   4.000000e-01 -2.000000e-01 1.000000e+01
    endloop
  endfacet
  facet normal 0.000000e+00 1.000000e+00 -0.000000e+00
    outer loop
      vertex   4.000000e-01 -2.000000e-01 1.000000e+00
      vertex   -1.137892e+01 -2.000000e-01 1.000000e+00
      vertex   4.000000e-01 -2.000000e-01 1.000000e+01
    endloop
  endfacet
  facet normal 0.000000e+00 1.000000e+00 -0.000000e+00
    outer loop
      vertex   4.000000e-01 -2.000000e-01 1.000000e+01
      vertex   -1.137892e+01 -2.000000e-01 1.000000e+00
      vertex   -1.137892e+01 -2.000000e-01 1.000000e+01
    endloop
  endfacet
  facet normal 6.828839e-01 -7.305269e-01 0.000000e+00
    outer loop
      vertex   -1.380000e+01 4.536818e+00 1.000000e+00
      vertex   -1.137892e+01 6.800000e+00 1.000000e+00
      vertex   -1.380000e+01 4.536818e+00 1.000000e+01
    endloop
  endfacet
  facet normal 6.828839e-01 -7.305269e-01 0.000000e+00
    outer loop
      vertex   -1.380000e+01 4.536818e+00 1.000000e+01
      vertex   -1.137892e+01 6.800000e+00 1.000000e+00
      vertex   -1.137892e+01 6.800000e+00 1.000000e+01
    endloop
  endfacet
  facet normal 1.000000e+00 0.000000e+00 -0.000000e+00
    outer loop
      vertex   -1.380000e+01 2.063182e+00 1.000000e+00
      vertex   -1.380000e+01 4.536818e+00 1.000000e+00
      vertex   -1.380000e+01 2.063182e+00 1.000000e+01
    endloop
  endfacet
  facet normal 1.000000e+00 -0.000000e+00 0.000000e+00
    outer loop
      vertex   -1.380000e+01 2.063182e+00 1.000000e+01
      vertex   -1.380000e+01 4.536818e+00 1.000000e+00
      vertex   -1.380000e+01 4.536818e+00 1.000000e+01
    endloop
  endfacet
  facet normal 6.828839e-01 7.305269e-01 0.000000e+00
    outer loop
      vertex   -1.137892e+01 -2.000000e-01 1.000000e+00
      vertex   -1.380000e+01 2.063182e+00 1.000000e+00
      vertex   -1.137892e+01 -2.000000e-01 1.000000e+01
    endloop
  endfacet
  facet normal 6.828839e-01 7.305269e-01 -0.000000e+00
    outer loop
      vertex   -1.137892e+01 -2.000000e-01 1.000000e+01
      vertex   -1.380000e+01 2.063182e+00 1.000000e+00
      vertex   -1.380000e+01 2.063182e+00 1.000000e+01
    endloop
  endfacet
  facet normal 0.000000e+00 1.000000e+00 -0.000000e+00
    outer loop
      vertex   1.900000e+00 8.300000e+00 1.000000e+00
      vertex   -1.197084e+01 8.300000e+00 1.000000e+00
      vertex   1.900000e+00 8.300000e+00 1.000000e+01
    endloop
  endfacet
  facet normal 0.000000e+00 1.000000e+00 -0.000000e+00
    outer loop
      vertex   1.900000e+00 8.300000e+00 1.000000e+01
      vertex   -1.197084e+01 8.300000e+00 1.000000e+00
      vertex   -1.197084e+01 8.300000e+00 1.000000e+01
    endloop
  endfacet
  facet normal 1.000000e+00 0.000000e+00 -0.000000e+00
    outer loop
      vertex   1.900000e+00 -1.700000e+00 1.000000e+00
      vertex   1.900000e+00 8.300000e+00 1.000000e+00
      vertex   1.900000e+00 -1.700000e+00 1.000000e+01
    endloop
  endfacet
  facet normal 1.000000e+00 -0.000000e+00 0.000000e+00
    outer loop
      vertex   1.900000e+00 -1.700000e+00 1.000000e+01
      vertex   1.900000e+00 8.300000e+00 1.000000e+00
      vertex   1.900000e+00 8.300000e+00 1.000000e+01
    endloop
  endfacet
  facet normal -1.600802e-17 -1.000000e+00 0.000000e+00
    outer loop
      vertex   -1.197084e+01 -1.700000e+00 1.000000e+00
      vertex   1.900000e+00 -1.700000e+00 1.000000e+00
      vertex   -1.197084e+01 -1.700000e+00 1.000000e+01
    endloop
  endfacet
  facet normal -1.600802e-17 -1.000000e+00 0.000000e+00
    outer loop
      vertex   -1.197084e+01 -1.700000e+00 1.000000e+01
      vertex   1.900000e+00 -1.700000e+00 1.000000e+00
      vertex   1.900000e+00 -1.700000e+00 1.000000e+01
    endloop
  endfacet
  facet normal -0.000000e+00 0.000000e+00 1.000000e+00
    outer loop
      vertex   -1.137892e+01 -2.000000e-01 1.000000e+01
      vertex   -1.197084e+01 -1.700000e+00 1.000000e+01
      vertex   4.000000e-01 -2.000000e-01 1.000000e+01
    endloop
  endfacet
  facet normal 0.000000e+00 0.000000e+00 1.000000e+00
    outer loop
      vertex   -1.137892e+01 -2.000000e-01 1.000000e+01
      vertex   -1.530000e+01 1.412043e+00 1.000000e+01
      vertex   -1.197084e+01 -1.700000e+00 1.000000e+01
    endloop
  endfacet
  facet normal 0.000000e+00 0.000000e+00 1.000000e+00
    outer loop
      vertex   -1.137892e+01 -2.000000e-01 1.000000e+01
      vertex   -1.380000e+01 2.063182e+00 1.000000e+01
      vertex   -1.530000e+01 1.412043e+00 1.000000e+01
    endloop
  endfacet
  facet normal 0.000000e+00 0.000000e+00 1.000000e+00
    outer loop
      vertex   -1.530000e+01 1.412043e+00 1.000000e+01
      vertex   -1.380000e+01 2.063182e+00 1.000000e+01
      vertex   -1.380000e+01 4.536818e+00 1.000000e+01
    endloop
  endfacet
  facet normal -0.000000e+00 0.000000e+00 1.000000e+00
    outer loop
      vertex   -1.530000e+01 5.187957e+00 1.000000e+01
      vertex   -1.380000e+01 4.536818e+00 1.000000e+01
      vertex   -1.137892e+01 6.800000e+00 1.000000e+01
    endloop
  endfacet
  facet normal -0.000000e+00 0.000000e+00 1.000000e+00
    outer loop
      vertex   -1.197084e+01 8.300000e+00 1.000000e+01
      vertex   -1.137892e+01 6.800000e+00 1.000000e+01
      vertex   4.000000e-01 6.800000e+00 1.000000e+01
    endloop
  endfacet
  facet normal 0.000000e+00 0.000000e+00 1.000000e+00
    outer loop
      vertex   1.900000e+00 8.300000e+00 1.000000e+01
      vertex   4.000000e-01 6.800000e+00 1.000000e+01
      vertex   1.900000e+00 -1.700000e+00 1.000000e+01
    endloop
  endfacet
  facet normal 0.000000e+00 0.000000e+00 1.000000e+00
    outer loop
      vertex   1.900000e+00 8.300000e+00 1.000000e+01
      vertex   -1.197084e+01 8.300000e+00 1.000000e+01
      vertex   4.000000e-01 6.800000e+00 1.000000e+01
    endloop
  endfacet
  facet normal 0.000000e+00 -0.000000e+00 1.000000e+00
    outer loop
      vertex   -1.530000e+01 1.412043e+00 1.000000e+01
      vertex   -1.380000e+01 4.536818e+00 1.000000e+01
      vertex   -1.530000e+01 5.187957e+00 1.000000e+01
    endloop
  endfacet
  facet normal 0.000000e+00 -0.000000e+00 1.000000e+00
    outer loop
      vertex   -1.530000e+01 5.187957e+00 1.000000e+01
      vertex   -1.137892e+01 6.800000e+00 1.000000e+01
      vertex   -1.197084e+01 8.300000e+00 1.000000e+01
    endloop
  endfacet
  facet normal 0.000000e+00 0.000000e+00 1.000000e+00
    outer loop
      vertex   4.000000e-01 6.800000e+00 1.000000e+01
      vertex   4.000000e-01 -2.000000e-01 1.000000e+01
      vertex   1.900000e+00 -1.700000e+00 1.000000e+01
    endloop
  endfacet
  facet normal 0.000000e+00 0.000000e+00 1.000000e+00
    outer loop
      vertex   1.900000e+00 -1.700000e+00 1.000000e+01
      vertex   4.000000e-01 -2.000000e-01 1.000000e+01
      vertex   -1.197084e+01 -1.700000e+00 1.000000e+01
    endloop
  endfacet
  facet normal 9.981756e-01 6.037850e-02 5.362688e-17
    outer loop
      vertex   -8.312510e+00 4.469263e+00 1.000000e+00
      vertex   -8.312510e+00 4.469263e+00 0.000000e+00
      vertex   -8.323446e+00 4.650068e+00 1.000000e+00
    endloop
  endfacet
  facet normal 9.836199e-01 1.802550e-01 1.628080e-16
    outer loop
      vertex   -8.312510e+00 4.469263e+00 1.000000e+00
      vertex   -8.279859e+00 4.291095e+00 0.000000e+00
      vertex   -8.312510e+00 4.469263e+00 0.000000e+00
    endloop
  endfacet
  facet normal 9.836199e-01 1.802550e-01 1.600986e-16
    outer loop
      vertex   -8.312510e+00 4.469263e+00 1.000000e+00
      vertex   -8.279859e+00 4.291095e+00 1.000000e+00
      vertex   -8.279859e+00 4.291095e+00 0.000000e+00
    endloop
  endfacet
  facet normal 9.547209e-01 2.975031e-01 2.642358e-16
    outer loop
      vertex   -8.279859e+00 4.291095e+00 0.000000e+00
      vertex   -8.279859e+00 4.291095e+00 1.000000e+00
      vertex   -8.225971e+00 4.118161e+00 0.000000e+00
    endloop
  endfacet
  facet normal 9.547209e-01 2.975031e-01 0.000000e+00
    outer loop
      vertex   -8.225971e+00 4.118161e+00 0.000000e+00
      vertex   -8.279859e+00 4.291095e+00 1.000000e+00
      vertex   -8.225971e+00 4.118161e+00 1.000000e+00
    endloop
  endfacet
  facet normal 9.118998e-01 4.104128e-01 1.819618e-16
    outer loop
      vertex   -8.151630e+00 3.952983e+00 0.000000e+00
      vertex   -8.225971e+00 4.118161e+00 1.000000e+00
      vertex   -8.151630e+00 3.952983e+00 1.000000e+00
    endloop
  endfacet
  facet normal 8.557813e-01 5.173378e-01 0.000000e+00
    outer loop
      vertex   -8.057922e+00 3.797971e+00 0.000000e+00
      vertex   -8.151630e+00 3.952983e+00 1.000000e+00
      vertex   -8.057922e+00 3.797971e+00 1.000000e+00
    endloop
  endfacet
  facet normal 7.871835e-01 6.167189e-01 0.000000e+00
    outer loop
      vertex   -7.946212e+00 3.655384e+00 0.000000e+00
      vertex   -8.057922e+00 3.797971e+00 1.000000e+00
      vertex   -7.946212e+00 3.655384e+00 1.000000e+00
    endloop
  endfacet
  facet normal 7.071068e-01 7.071068e-01 -3.064620e-16
    outer loop
      vertex   -7.818130e+00 3.527302e+00 0.000000e+00
      vertex   -7.946212e+00 3.655384e+00 1.000000e+00
      vertex   -7.818130e+00 3.527302e+00 1.000000e+00
    endloop
  endfacet
  facet normal 6.167189e-01 7.871835e-01 0.000000e+00
    outer loop
      vertex   -7.675543e+00 3.415592e+00 0.000000e+00
      vertex   -7.818130e+00 3.527302e+00 1.000000e+00
      vertex   -7.675543e+00 3.415592e+00 1.000000e+00
    endloop
  endfacet
  facet normal 5.173378e-01 8.557813e-01 -4.596930e-16
    outer loop
      vertex   -7.520531e+00 3.321884e+00 0.000000e+00
      vertex   -7.675543e+00 3.415592e+00 1.000000e+00
      vertex   -7.520531e+00 3.321884e+00 1.000000e+00
    endloop
  endfacet
  facet normal 4.104128e-01 9.118998e-01 0.000000e+00
    outer loop
      vertex   -7.355354e+00 3.247544e+00 0.000000e+00
      vertex   -7.520531e+00 3.321884e+00 1.000000e+00
      vertex   -7.355354e+00 3.247544e+00 1.000000e+00
    endloop
  endfacet
  facet normal 2.975031e-01 9.547209e-01 4.213853e-16
    outer loop
      vertex   -7.182420e+00 3.193655e+00 0.000000e+00
      vertex   -7.355354e+00 3.247544e+00 1.000000e+00
      vertex   -7.182420e+00 3.193655e+00 1.000000e+00
    endloop
  endfacet
  facet normal 1.802550e-01 9.836199e-01 -1.580195e-16
    outer loop
      vertex   -7.004251e+00 3.161005e+00 0.000000e+00
      vertex   -7.182420e+00 3.193655e+00 1.000000e+00
      vertex   -7.004251e+00 3.161005e+00 1.000000e+00
    endloop
  endfacet
  facet normal 6.037850e-02 9.981756e-01 0.000000e+00
    outer loop
      vertex   -6.823446e+00 3.150068e+00 0.000000e+00
      vertex   -7.004251e+00 3.161005e+00 1.000000e+00
      vertex   -6.823446e+00 3.150068e+00 1.000000e+00
    endloop
  endfacet
  facet normal -6.037850e-02 9.981756e-01 5.267316e-17
    outer loop
      vertex   -6.642641e+00 3.161005e+00 0.000000e+00
      vertex   -6.823446e+00 3.150068e+00 1.000000e+00
      vertex   -6.642641e+00 3.161005e+00 1.000000e+00
    endloop
  endfacet
  facet normal -1.802550e-01 9.836199e-01 0.000000e+00
    outer loop
      vertex   -6.464473e+00 3.193655e+00 0.000000e+00
      vertex   -6.642641e+00 3.161005e+00 1.000000e+00
      vertex   -6.464473e+00 3.193655e+00 1.000000e+00
    endloop
  endfacet
  facet normal -2.975031e-01 9.547209e-01 -1.532310e-16
    outer loop
      vertex   -6.291539e+00 3.247544e+00 0.000000e+00
      vertex   -6.464473e+00 3.193655e+00 1.000000e+00
      vertex   -6.291539e+00 3.247544e+00 1.000000e+00
    endloop
  endfacet
  facet normal -4.104128e-01 9.118998e-01 -4.022314e-16
    outer loop
      vertex   -6.126362e+00 3.321884e+00 0.000000e+00
      vertex   -6.291539e+00 3.247544e+00 1.000000e+00
      vertex   -6.126362e+00 3.321884e+00 1.000000e+00
    endloop
  endfacet
  facet normal -5.173378e-01 8.557813e-01 0.000000e+00
    outer loop
      vertex   -5.971349e+00 3.415592e+00 0.000000e+00
      vertex   -6.126362e+00 3.321884e+00 1.000000e+00
      vertex   -5.971349e+00 3.415592e+00 1.000000e+00
    endloop
  endfacet
  facet normal -6.167189e-01 7.871835e-01 -3.447698e-16
    outer loop
      vertex   -5.828762e+00 3.527302e+00 0.000000e+00
      vertex   -5.971349e+00 3.415592e+00 1.000000e+00
      vertex   -5.828762e+00 3.527302e+00 1.000000e+00
    endloop
  endfacet
  facet normal -7.071068e-01 7.071068e-01 6.320779e-16
    outer loop
      vertex   -5.700680e+00 3.655384e+00 0.000000e+00
      vertex   -5.828762e+00 3.527302e+00 1.000000e+00
      vertex   -5.700680e+00 3.655384e+00 1.000000e+00
    endloop
  endfacet
  facet normal -7.871835e-01 6.167189e-01 0.000000e+00
    outer loop
      vertex   -5.588971e+00 3.797971e+00 0.000000e+00
      vertex   -5.700680e+00 3.655384e+00 1.000000e+00
      vertex   -5.588971e+00 3.797971e+00 1.000000e+00
    endloop
  endfacet
  facet normal -8.557813e-01 5.173378e-01 0.000000e+00
    outer loop
      vertex   -5.495262e+00 3.952983e+00 0.000000e+00
      vertex   -5.588971e+00 3.797971e+00 1.000000e+00
      vertex   -5.495262e+00 3.952983e+00 1.000000e+00
    endloop
  endfacet
  facet normal -9.118998e-01 4.104128e-01 0.000000e+00
    outer loop
      vertex   -5.420922e+00 4.118161e+00 0.000000e+00
      vertex   -5.495262e+00 3.952983e+00 1.000000e+00
      vertex   -5.420922e+00 4.118161e+00 1.000000e+00
    endloop
  endfacet
  facet normal -9.547209e-01 2.975031e-01 0.000000e+00
    outer loop
      vertex   -5.367034e+00 4.291095e+00 0.000000e+00
      vertex   -5.420922e+00 4.118161e+00 1.000000e+00
      vertex   -5.367034e+00 4.291095e+00 1.000000e+00
    endloop
  endfacet
  facet normal -9.836199e-01 1.802550e-01 -1.628080e-16
    outer loop
      vertex   -5.334383e+00 4.469263e+00 0.000000e+00
      vertex   -5.367034e+00 4.291095e+00 1.000000e+00
      vertex   -5.334383e+00 4.469263e+00 1.000000e+00
    endloop
  endfacet
  facet normal -9.981756e-01 6.037850e-02 0.000000e+00
    outer loop
      vertex   -5.323446e+00 4.650068e+00 0.000000e+00
      vertex   -5.334383e+00 4.469263e+00 1.000000e+00
      vertex   -5.323446e+00 4.650068e+00 1.000000e+00
    endloop
  endfacet
  facet normal -9.981756e-01 -6.037850e-02 5.267316e-17
    outer loop
      vertex   -5.334383e+00 4.830873e+00 0.000000e+00
      vertex   -5.323446e+00 4.650068e+00 1.000000e+00
      vertex   -5.334383e+00 4.830873e+00 1.000000e+00
    endloop
  endfacet
  facet normal -9.836199e-01 -1.802550e-01 0.000000e+00
    outer loop
      vertex   -5.367034e+00 5.009042e+00 0.000000e+00
      vertex   -5.334383e+00 4.830873e+00 1.000000e+00
      vertex   -5.367034e+00 5.009042e+00 1.000000e+00
    endloop
  endfacet
  facet normal -9.547209e-01 -2.975031e-01 0.000000e+00
    outer loop
      vertex   -5.420922e+00 5.181975e+00 0.000000e+00
      vertex   -5.367034e+00 5.009042e+00 1.000000e+00
      vertex   -5.420922e+00 5.181975e+00 1.000000e+00
    endloop
  endfacet
  facet normal -9.118998e-01 -4.104128e-01 0.000000e+00
    outer loop
      vertex   -5.495262e+00 5.347153e+00 0.000000e+00
      vertex   -5.420922e+00 5.181975e+00 1.000000e+00
      vertex   -5.495262e+00 5.347153e+00 1.000000e+00
    endloop
  endfacet
  facet normal -8.557813e-01 -5.173378e-01 0.000000e+00
    outer loop
      vertex   -5.588971e+00 5.502165e+00 0.000000e+00
      vertex   -5.495262e+00 5.347153e+00 1.000000e+00
      vertex   -5.588971e+00 5.502165e+00 1.000000e+00
    endloop
  endfacet
  facet normal -7.871835e-01 -6.167189e-01 -6.895396e-16
    outer loop
      vertex   -5.700680e+00 5.644752e+00 0.000000e+00
      vertex   -5.588971e+00 5.502165e+00 1.000000e+00
      vertex   -5.700680e+00 5.644752e+00 1.000000e+00
    endloop
  endfacet
  facet normal -7.071068e-01 -7.071068e-01 6.320779e-16
    outer loop
      vertex   -5.828762e+00 5.772834e+00 0.000000e+00
      vertex   -5.700680e+00 5.644752e+00 1.000000e+00
      vertex   -5.828762e+00 5.772834e+00 1.000000e+00
    endloop
  endfacet
  facet normal -6.167189e-01 -7.871835e-01 0.000000e+00
    outer loop
      vertex   -5.971349e+00 5.884544e+00 0.000000e+00
      vertex   -5.828762e+00 5.772834e+00 1.000000e+00
      vertex   -5.971349e+00 5.884544e+00 1.000000e+00
    endloop
  endfacet
  facet normal -5.173378e-01 -8.557813e-01 7.661551e-16
    outer loop
      vertex   -6.126362e+00 5.978252e+00 0.000000e+00
      vertex   -5.971349e+00 5.884544e+00 1.000000e+00
      vertex   -6.126362e+00 5.978252e+00 1.000000e+00
    endloop
  endfacet
  facet normal -4.104128e-01 -9.118998e-01 -3.639237e-16
    outer loop
      vertex   -6.291539e+00 6.052593e+00 0.000000e+00
      vertex   -6.126362e+00 5.978252e+00 1.000000e+00
      vertex   -6.291539e+00 6.052593e+00 1.000000e+00
    endloop
  endfacet
  facet normal -2.975031e-01 -9.547209e-01 0.000000e+00
    outer loop
      vertex   -6.464473e+00 6.106481e+00 0.000000e+00
      vertex   -6.291539e+00 6.052593e+00 1.000000e+00
      vertex   -6.464473e+00 6.106481e+00 1.000000e+00
    endloop
  endfacet
  facet normal -1.802550e-01 -9.836199e-01 -1.628080e-16
    outer loop
      vertex   -6.642641e+00 6.139131e+00 0.000000e+00
      vertex   -6.464473e+00 6.106481e+00 1.000000e+00
      vertex   -6.642641e+00 6.139131e+00 1.000000e+00
    endloop
  endfacet
  facet normal -6.037850e-02 -9.981756e-01 0.000000e+00
    outer loop
      vertex   -6.823446e+00 6.150068e+00 0.000000e+00
      vertex   -6.642641e+00 6.139131e+00 1.000000e+00
      vertex   -6.823446e+00 6.150068e+00 1.000000e+00
    endloop
  endfacet
  facet normal 6.037850e-02 -9.981756e-01 5.506740e-17
    outer loop
      vertex   -7.004251e+00 6.139131e+00 0.000000e+00
      vertex   -6.823446e+00 6.150068e+00 1.000000e+00
      vertex   -7.004251e+00 6.139131e+00 1.000000e+00
    endloop
  endfacet
  facet normal 1.802550e-01 -9.836199e-01 -8.762899e-16
    outer loop
      vertex   -7.182420e+00 6.106481e+00 0.000000e+00
      vertex   -7.004251e+00 6.139131e+00 1.000000e+00
      vertex   -7.182420e+00 6.106481e+00 1.000000e+00
    endloop
  endfacet
  facet normal 2.975031e-01 -9.547209e-01 0.000000e+00
    outer loop
      vertex   -7.355354e+00 6.052593e+00 0.000000e+00
      vertex   -7.182420e+00 6.106481e+00 1.000000e+00
      vertex   -7.355354e+00 6.052593e+00 1.000000e+00
    endloop
  endfacet
  facet normal 4.104128e-01 -9.118998e-01 3.639237e-16
    outer loop
      vertex   -7.520531e+00 5.978252e+00 0.000000e+00
      vertex   -7.355354e+00 6.052593e+00 1.000000e+00
      vertex   -7.520531e+00 5.978252e+00 1.000000e+00
    endloop
  endfacet
  facet normal 5.173378e-01 -8.557813e-01 0.000000e+00
    outer loop
      vertex   -7.675543e+00 5.884544e+00 0.000000e+00
      vertex   -7.520531e+00 5.978252e+00 1.000000e+00
      vertex   -7.675543e+00 5.884544e+00 1.000000e+00
    endloop
  endfacet
  facet normal 6.167189e-01 -7.871835e-01 5.363086e-16
    outer loop
      vertex   -7.818130e+00 5.772834e+00 0.000000e+00
      vertex   -7.675543e+00 5.884544e+00 1.000000e+00
      vertex   -7.818130e+00 5.772834e+00 1.000000e+00
    endloop
  endfacet
  facet normal 7.071068e-01 -7.071068e-01 0.000000e+00
    outer loop
      vertex   -7.946212e+00 5.644752e+00 0.000000e+00
      vertex   -7.818130e+00 5.772834e+00 1.000000e+00
      vertex   -7.946212e+00 5.644752e+00 1.000000e+00
    endloop
  endfacet
  facet normal 7.871835e-01 -6.167189e-01 0.000000e+00
    outer loop
      vertex   -8.057922e+00 5.502165e+00 0.000000e+00
      vertex   -7.946212e+00 5.644752e+00 1.000000e+00
      vertex   -8.057922e+00 5.502165e+00 1.000000e+00
    endloop
  endfacet
  facet normal 8.557813e-01 -5.173378e-01 -4.596930e-16
    outer loop
      vertex   -8.151630e+00 5.347153e+00 0.000000e+00
      vertex   -8.057922e+00 5.502165e+00 1.000000e+00
      vertex   -8.151630e+00 5.347153e+00 1.000000e+00
    endloop
  endfacet
  facet normal 9.118998e-01 -4.104128e-01 0.000000e+00
    outer loop
      vertex   -8.225971e+00 5.181975e+00 0.000000e+00
      vertex   -8.151630e+00 5.347153e+00 1.000000e+00
      vertex   -8.225971e+00 5.181975e+00 1.000000e+00
    endloop
  endfacet
  facet normal 9.547209e-01 -2.975031e-01 -2.681543e-16
    outer loop
      vertex   -8.279859e+00 5.009042e+00 0.000000e+00
      vertex   -8.225971e+00 5.181975e+00 1.000000e+00
      vertex   -8.279859e+00 5.009042e+00 1.000000e+00
    endloop
  endfacet
  facet normal 9.836199e-01 -1.802550e-01 -1.628080e-16
    outer loop
      vertex   -8.312510e+00 4.830873e+00 0.000000e+00
      vertex   -8.279859e+00 5.009042e+00 1.000000e+00
      vertex   -8.312510e+00 4.830873e+00 1.000000e+00
    endloop
  endfacet
  facet normal 9.981756e-01 -6.037850e-02 0.000000e+00
    outer loop
      vertex   -8.323446e+00 4.650068e+00 0.000000e+00
      vertex   -8.312510e+00 4.830873e+00 1.000000e+00
      vertex   -8.323446e+00 4.650068e+00 1.000000e+00
    endloop
  endfacet
  facet normal 9.981756e-01 6.037850e-02 -0.000000e+00
    outer loop
      vertex   -8.312510e+00 4.469263e+00 0.000000e+00
      vertex   -8.323446e+00 4.650068e+00 0.000000e+00
      vertex   -8.323446e+00 4.650068e+00 1.000000e+00
    endloop
  endfacet
  facet normal 9.118998e-01 4.104128e-01 -0.000000e+00
    outer loop
      vertex   -8.225971e+00 4.118161e+00 0.000000e+00
      vertex   -8.225971e+00 4.118161e+00 1.000000e+00
      vertex   -8.151630e+00 3.952983e+00 0.000000e+00
    endloop
  endfacet
  facet normal 8.557813e-01 5.173378e-01 2.297441e-16
    outer loop
      vertex   -8.151630e+00 3.952983e+00 0.000000e+00
      vertex   -8.151630e+00 3.952983e+00 1.000000e+00
      vertex   -8.057922e+00 3.797971e+00 0.000000e+00
    endloop
  endfacet
  facet normal 7.871835e-01 6.167189e-01 -0.000000e+00
    outer loop
      vertex   -8.057922e+00 3.797971e+00 0.000000e+00
      vertex   -8.057922e+00 3.797971e+00 1.000000e+00
      vertex   -7.946212e+00 3.655384e+00 0.000000e+00
    endloop
  endfacet
  facet normal 7.071068e-01 7.071068e-01 -0.000000e+00
    outer loop
      vertex   -7.946212e+00 3.655384e+00 0.000000e+00
      vertex   -7.946212e+00 3.655384e+00 1.000000e+00
      vertex   -7.818130e+00 3.527302e+00 0.000000e+00
    endloop
  endfacet
  facet normal 6.167189e-01 7.871835e-01 -1.981767e-16
    outer loop
      vertex   -7.818130e+00 3.527302e+00 0.000000e+00
      vertex   -7.818130e+00 3.527302e+00 1.000000e+00
      vertex   -7.675543e+00 3.415592e+00 0.000000e+00
    endloop
  endfacet
  facet normal 5.173378e-01 8.557813e-01 -0.000000e+00
    outer loop
      vertex   -7.675543e+00 3.415592e+00 0.000000e+00
      vertex   -7.675543e+00 3.415592e+00 1.000000e+00
      vertex   -7.520531e+00 3.321884e+00 0.000000e+00
    endloop
  endfacet
  facet normal 4.104128e-01 9.118998e-01 -3.645198e-16
    outer loop
      vertex   -7.520531e+00 3.321884e+00 0.000000e+00
      vertex   -7.520531e+00 3.321884e+00 1.000000e+00
      vertex   -7.355354e+00 3.247544e+00 0.000000e+00
    endloop
  endfacet
  facet normal 2.975031e-01 9.547209e-01 -0.000000e+00
    outer loop
      vertex   -7.355354e+00 3.247544e+00 0.000000e+00
      vertex   -7.355354e+00 3.247544e+00 1.000000e+00
      vertex   -7.182420e+00 3.193655e+00 0.000000e+00
    endloop
  endfacet
  facet normal 1.802550e-01 9.836199e-01 4.368150e-16
    outer loop
      vertex   -7.182420e+00 3.193655e+00 0.000000e+00
      vertex   -7.182420e+00 3.193655e+00 1.000000e+00
      vertex   -7.004251e+00 3.161005e+00 0.000000e+00
    endloop
  endfacet
  facet normal 6.037850e-02 9.981756e-01 -5.362688e-17
    outer loop
      vertex   -7.004251e+00 3.161005e+00 0.000000e+00
      vertex   -7.004251e+00 3.161005e+00 1.000000e+00
      vertex   -6.823446e+00 3.150068e+00 0.000000e+00
    endloop
  endfacet
  facet normal -6.037850e-02 9.981756e-01 0.000000e+00
    outer loop
      vertex   -6.823446e+00 3.150068e+00 0.000000e+00
      vertex   -6.823446e+00 3.150068e+00 1.000000e+00
      vertex   -6.642641e+00 3.161005e+00 0.000000e+00
    endloop
  endfacet
  facet normal -1.802550e-01 9.836199e-01 1.600986e-16
    outer loop
      vertex   -6.642641e+00 3.161005e+00 0.000000e+00
      vertex   -6.642641e+00 3.161005e+00 1.000000e+00
      vertex   -6.464473e+00 3.193655e+00 0.000000e+00
    endloop
  endfacet
  facet normal -2.975031e-01 9.547209e-01 0.000000e+00
    outer loop
      vertex   -6.464473e+00 3.193655e+00 0.000000e+00
      vertex   -6.464473e+00 3.193655e+00 1.000000e+00
      vertex   -6.291539e+00 3.247544e+00 0.000000e+00
    endloop
  endfacet
  facet normal -4.104128e-01 9.118998e-01 -4.044509e-17
    outer loop
      vertex   -6.291539e+00 3.247544e+00 0.000000e+00
      vertex   -6.291539e+00 3.247544e+00 1.000000e+00
      vertex   -6.126362e+00 3.321884e+00 0.000000e+00
    endloop
  endfacet
  facet normal -5.173378e-01 8.557813e-01 -3.800432e-16
    outer loop
      vertex   -6.126362e+00 3.321884e+00 0.000000e+00
      vertex   -6.126362e+00 3.321884e+00 1.000000e+00
      vertex   -5.971349e+00 3.415592e+00 0.000000e+00
    endloop
  endfacet
  facet normal -6.167189e-01 7.871835e-01 0.000000e+00
    outer loop
      vertex   -5.971349e+00 3.415592e+00 0.000000e+00
      vertex   -5.971349e+00 3.415592e+00 1.000000e+00
      vertex   -5.828762e+00 3.527302e+00 0.000000e+00
    endloop
  endfacet
  facet normal -7.071068e-01 7.071068e-01 -3.140185e-16
    outer loop
      vertex   -5.828762e+00 3.527302e+00 0.000000e+00
      vertex   -5.828762e+00 3.527302e+00 1.000000e+00
      vertex   -5.700680e+00 3.655384e+00 0.000000e+00
    endloop
  endfacet
  facet normal -7.871835e-01 6.167189e-01 6.991594e-16
    outer loop
      vertex   -5.700680e+00 3.655384e+00 0.000000e+00
      vertex   -5.700680e+00 3.655384e+00 1.000000e+00
      vertex   -5.588971e+00 3.797971e+00 0.000000e+00
    endloop
  endfacet
  facet normal -8.557813e-01 5.173378e-01 0.000000e+00
    outer loop
      vertex   -5.588971e+00 3.797971e+00 0.000000e+00
      vertex   -5.588971e+00 3.797971e+00 1.000000e+00
      vertex   -5.495262e+00 3.952983e+00 0.000000e+00
    endloop
  endfacet
  facet normal -9.118998e-01 4.104128e-01 0.000000e+00
    outer loop
      vertex   -5.495262e+00 3.952983e+00 0.000000e+00
      vertex   -5.495262e+00 3.952983e+00 1.000000e+00
      vertex   -5.420922e+00 4.118161e+00 0.000000e+00
    endloop
  endfacet
  facet normal -9.547209e-01 2.975031e-01 0.000000e+00
    outer loop
      vertex   -5.420922e+00 4.118161e+00 0.000000e+00
      vertex   -5.420922e+00 4.118161e+00 1.000000e+00
      vertex   -5.367034e+00 4.291095e+00 0.000000e+00
    endloop
  endfacet
  facet normal -9.836199e-01 1.802550e-01 0.000000e+00
    outer loop
      vertex   -5.367034e+00 4.291095e+00 0.000000e+00
      vertex   -5.367034e+00 4.291095e+00 1.000000e+00
      vertex   -5.334383e+00 4.469263e+00 0.000000e+00
    endloop
  endfacet
  facet normal -9.981756e-01 6.037850e-02 -5.362688e-17
    outer loop
      vertex   -5.334383e+00 4.469263e+00 0.000000e+00
      vertex   -5.334383e+00 4.469263e+00 1.000000e+00
      vertex   -5.323446e+00 4.650068e+00 0.000000e+00
    endloop
  endfacet
  facet normal -9.981756e-01 -6.037850e-02 0.000000e+00
    outer loop
      vertex   -5.323446e+00 4.650068e+00 0.000000e+00
      vertex   -5.323446e+00 4.650068e+00 1.000000e+00
      vertex   -5.334383e+00 4.830873e+00 0.000000e+00
    endloop
  endfacet
  facet normal -9.836199e-01 -1.802550e-01 1.600986e-16
    outer loop
      vertex   -5.334383e+00 4.830873e+00 0.000000e+00
      vertex   -5.334383e+00 4.830873e+00 1.000000e+00
      vertex   -5.367034e+00 5.009042e+00 0.000000e+00
    endloop
  endfacet
  facet normal -9.547209e-01 -2.975031e-01 0.000000e+00
    outer loop
      vertex   -5.367034e+00 5.009042e+00 0.000000e+00
      vertex   -5.367034e+00 5.009042e+00 1.000000e+00
      vertex   -5.420922e+00 5.181975e+00 0.000000e+00
    endloop
  endfacet
  facet normal -9.118998e-01 -4.104128e-01 0.000000e+00
    outer loop
      vertex   -5.420922e+00 5.181975e+00 0.000000e+00
      vertex   -5.420922e+00 5.181975e+00 1.000000e+00
      vertex   -5.495262e+00 5.347153e+00 0.000000e+00
    endloop
  endfacet
  facet normal -8.557813e-01 -5.173378e-01 0.000000e+00
    outer loop
      vertex   -5.495262e+00 5.347153e+00 0.000000e+00
      vertex   -5.495262e+00 5.347153e+00 1.000000e+00
      vertex   -5.588971e+00 5.502165e+00 0.000000e+00
    endloop
  endfacet
  facet normal -7.871835e-01 -6.167189e-01 0.000000e+00
    outer loop
      vertex   -5.588971e+00 5.502165e+00 0.000000e+00
      vertex   -5.588971e+00 5.502165e+00 1.000000e+00
      vertex   -5.700680e+00 5.644752e+00 0.000000e+00
    endloop
  endfacet
  facet normal -7.071068e-01 -7.071068e-01 -6.280370e-16
    outer loop
      vertex   -5.700680e+00 5.644752e+00 0.000000e+00
      vertex   -5.700680e+00 5.644752e+00 1.000000e+00
      vertex   -5.828762e+00 5.772834e+00 0.000000e+00
    endloop
  endfacet
  facet normal -6.167189e-01 -7.871835e-01 6.991594e-16
    outer loop
      vertex   -5.828762e+00 5.772834e+00 0.000000e+00
      vertex   -5.828762e+00 5.772834e+00 1.000000e+00
      vertex   -5.971349e+00 5.884544e+00 0.000000e+00
    endloop
  endfacet
  facet normal -5.173378e-01 -8.557813e-01 0.000000e+00
    outer loop
      vertex   -5.971349e+00 5.884544e+00 0.000000e+00
      vertex   -5.971349e+00 5.884544e+00 1.000000e+00
      vertex   -6.126362e+00 5.978252e+00 0.000000e+00
    endloop
  endfacet
  facet normal -4.104128e-01 -9.118998e-01 8.099298e-16
    outer loop
      vertex   -6.126362e+00 5.978252e+00 0.000000e+00
      vertex   -6.126362e+00 5.978252e+00 1.000000e+00
      vertex   -6.291539e+00 6.052593e+00 0.000000e+00
    endloop
  endfacet
  facet normal -2.975031e-01 -9.547209e-01 -2.642358e-16
    outer loop
      vertex   -6.291539e+00 6.052593e+00 0.000000e+00
      vertex   -6.291539e+00 6.052593e+00 1.000000e+00
      vertex   -6.464473e+00 6.106481e+00 0.000000e+00
    endloop
  endfacet
  facet normal -1.802550e-01 -9.836199e-01 0.000000e+00
    outer loop
      vertex   -6.464473e+00 6.106481e+00 0.000000e+00
      vertex   -6.464473e+00 6.106481e+00 1.000000e+00
      vertex   -6.642641e+00 6.139131e+00 0.000000e+00
    endloop
  endfacet
  facet normal -6.037850e-02 -9.981756e-01 -5.362688e-17
    outer loop
      vertex   -6.642641e+00 6.139131e+00 0.000000e+00
      vertex   -6.642641e+00 6.139131e+00 1.000000e+00
      vertex   -6.823446e+00 6.150068e+00 0.000000e+00
    endloop
  endfacet
  facet normal 6.037850e-02 -9.981756e-01 0.000000e+00
    outer loop
      vertex   -6.823446e+00 6.150068e+00 0.000000e+00
      vertex   -6.823446e+00 6.150068e+00 1.000000e+00
      vertex   -7.004251e+00 6.139131e+00 0.000000e+00
    endloop
  endfacet
  facet normal 1.802550e-01 -9.836199e-01 1.600986e-16
    outer loop
      vertex   -7.004251e+00 6.139131e+00 0.000000e+00
      vertex   -7.004251e+00 6.139131e+00 1.000000e+00
      vertex   -7.182420e+00 6.106481e+00 0.000000e+00
    endloop
  endfacet
  facet normal 2.975031e-01 -9.547209e-01 -8.479625e-16
    outer loop
      vertex   -7.182420e+00 6.106481e+00 0.000000e+00
      vertex   -7.182420e+00 6.106481e+00 1.000000e+00
      vertex   -7.355354e+00 6.052593e+00 0.000000e+00
    endloop
  endfacet
  facet normal 4.104128e-01 -9.118998e-01 0.000000e+00
    outer loop
      vertex   -7.355354e+00 6.052593e+00 0.000000e+00
      vertex   -7.355354e+00 6.052593e+00 1.000000e+00
      vertex   -7.520531e+00 5.978252e+00 0.000000e+00
    endloop
  endfacet
  facet normal 5.173378e-01 -8.557813e-01 4.594883e-16
    outer loop
      vertex   -7.520531e+00 5.978252e+00 0.000000e+00
      vertex   -7.520531e+00 5.978252e+00 1.000000e+00
      vertex   -7.675543e+00 5.884544e+00 0.000000e+00
    endloop
  endfacet
  facet normal 6.167189e-01 -7.871835e-01 0.000000e+00
    outer loop
      vertex   -7.675543e+00 5.884544e+00 0.000000e+00
      vertex   -7.675543e+00 5.884544e+00 1.000000e+00
      vertex   -7.818130e+00 5.772834e+00 0.000000e+00
    endloop
  endfacet
  facet normal 7.071068e-01 -7.071068e-01 6.280370e-16
    outer loop
      vertex   -7.818130e+00 5.772834e+00 0.000000e+00
      vertex   -7.818130e+00 5.772834e+00 1.000000e+00
      vertex   -7.946212e+00 5.644752e+00 0.000000e+00
    endloop
  endfacet
  facet normal 7.871835e-01 -6.167189e-01 0.000000e+00
    outer loop
      vertex   -7.946212e+00 5.644752e+00 0.000000e+00
      vertex   -7.946212e+00 5.644752e+00 1.000000e+00
      vertex   -8.057922e+00 5.502165e+00 0.000000e+00
    endloop
  endfacet
  facet normal 8.557813e-01 -5.173378e-01 0.000000e+00
    outer loop
      vertex   -8.057922e+00 5.502165e+00 0.000000e+00
      vertex   -8.057922e+00 5.502165e+00 1.000000e+00
      vertex   -8.151630e+00 5.347153e+00 0.000000e+00
    endloop
  endfacet
  facet normal 9.118998e-01 -4.104128e-01 -3.645198e-16
    outer loop
      vertex   -8.151630e+00 5.347153e+00 0.000000e+00
      vertex   -8.151630e+00 5.347153e+00 1.000000e+00
      vertex   -8.225971e+00 5.181975e+00 0.000000e+00
    endloop
  endfacet
  facet normal 9.547209e-01 -2.975031e-01 0.000000e+00
    outer loop
      vertex   -8.225971e+00 5.181975e+00 0.000000e+00
      vertex   -8.225971e+00 5.181975e+00 1.000000e+00
      vertex   -8.279859e+00 5.009042e+00 0.000000e+00
    endloop
  endfacet
  facet normal 9.836199e-01 -1.802550e-01 -1.600986e-16
    outer loop
      vertex   -8.279859e+00 5.009042e+00 0.000000e+00
      vertex   -8.279859e+00 5.009042e+00 1.000000e+00
      vertex   -8.312510e+00 4.830873e+00 0.000000e+00
    endloop
  endfacet
  facet normal 9.981756e-01 -6.037850e-02 -5.362688e-17
    outer loop
      vertex   -8.312510e+00 4.830873e+00 0.000000e+00
      vertex   -8.312510e+00 4.830873e+00 1.000000e+00
      vertex   -8.323446e+00 4.650068e+00 0.000000e+00
    endloop
  endfacet
  facet normal 0.000000e+00 0.000000e+00 1.000000e+00
    outer loop
      vertex   4.000000e-01 -2.000000e-01 1.000000e+00
      vertex   -6.642641e+00 3.161005e+00 1.000000e+00
      vertex   -1.137892e+01 -2.000000e-01 1.000000e+00
    endloop
  endfacet
  facet normal 0.000000e+00 0.000000e+00 1.000000e+00
    outer loop
      vertex   4.000000e-01 -2.000000e-01 1.000000e+00
      vertex   -6.464473e+00 3.193655e+00 1.000000e+00
      vertex   -6.642641e+00 3.161005e+00 1.000000e+00
    endloop
  endfacet
  facet normal 0.000000e+00 0.000000e+00 1.000000e+00
    outer loop
      vertex   4.000000e-01 -2.000000e-01 1.000000e+00
      vertex   -6.291539e+00 3.247544e+00 1.000000e+00
      vertex   -6.464473e+00 3.193655e+00 1.000000e+00
    endloop
  endfacet
  facet normal 0.000000e+00 0.000000e+00 1.000000e+00
    outer loop
      vertex   4.000000e-01 -2.000000e-01 1.000000e+00
      vertex   -6.126362e+00 3.321884e+00 1.000000e+00
      vertex   -6.291539e+00 3.247544e+00 1.000000e+00
    endloop
  endfacet
  facet normal 0.000000e+00 0.000000e+00 1.000000e+00
    outer loop
      vertex   4.000000e-01 -2.000000e-01 1.000000e+00
      vertex   -5.971349e+00 3.415592e+00 1.000000e+00
      vertex   -6.126362e+00 3.321884e+00 1.000000e+00
    endloop
  endfacet
  facet normal 0.000000e+00 0.000000e+00 1.000000e+00
    outer loop
      vertex   4.000000e-01 -2.000000e-01 1.000000e+00
      vertex   -5.828762e+00 3.527302e+00 1.000000e+00
      vertex   -5.971349e+00 3.415592e+00 1.000000e+00
    endloop
  endfacet
  facet normal 0.000000e+00 0.000000e+00 1.000000e+00
    outer loop
      vertex   4.000000e-01 -2.000000e-01 1.000000e+00
      vertex   -5.700680e+00 3.655384e+00 1.000000e+00
      vertex   -5.828762e+00 3.527302e+00 1.000000e+00
    endloop
  endfacet
  facet normal 0.000000e+00 0.000000e+00 1.000000e+00
    outer loop
      vertex   4.000000e-01 -2.000000e-01 1.000000e+00
      vertex   -5.588971e+00 3.797971e+00 1.000000e+00
      vertex   -5.700680e+00 3.655384e+00 1.000000e+00
    endloop
  endfacet
  facet normal 0.000000e+00 0.000000e+00 1.000000e+00
    outer loop
      vertex   4.000000e-01 -2.000000e-01 1.000000e+00
      vertex   -5.495262e+00 3.952983e+00 1.000000e+00
      vertex   -5.588971e+00 3.797971e+00 1.000000e+00
    endloop
  endfacet
  facet normal 0.000000e+00 0.000000e+00 1.000000e+00
    outer loop
      vertex   4.000000e-01 -2.000000e-01 1.000000e+00
      vertex   -5.420922e+00 4.118161e+00 1.000000e+00
      vertex   -5.495262e+00 3.952983e+00 1.000000e+00
    endloop
  endfacet
  facet normal 0.000000e+00 -0.000000e+00 1.000000e+00
    outer loop
      vertex   4.000000e-01 -2.000000e-01 1.000000e+00
      vertex   4.000000e-01 6.800000e+00 1.000000e+00
      vertex   -5.420922e+00 4.118161e+00 1.000000e+00
    endloop
  endfacet
  facet normal 0.000000e+00 -0.000000e+00 1.000000e+00
    outer loop
      vertex   -5.420922e+00 4.118161e+00 1.000000e+00
      vertex   4.000000e-01 6.800000e+00 1.000000e+00
      vertex   -5.367034e+00 4.291095e+00 1.000000e+00
    endloop
  endfacet
  facet normal 0.000000e+00 -0.000000e+00 1.000000e+00
    outer loop
      vertex   -5.367034e+00 4.291095e+00 1.000000e+00
      vertex   4.000000e-01 6.800000e+00 1.000000e+00
      vertex   -5.334383e+00 4.469263e+00 1.000000e+00
    endloop
  endfacet
  facet normal 0.000000e+00 -0.000000e+00 1.000000e+00
    outer loop
      vertex   -5.334383e+00 4.469263e+00 1.000000e+00
      vertex   4.000000e-01 6.800000e+00 1.000000e+00
      vertex   -5.323446e+00 4.650068e+00 1.000000e+00
    endloop
  endfacet
  facet normal 0.000000e+00 -0.000000e+00 1.000000e+00
    outer loop
      vertex   -5.323446e+00 4.650068e+00 1.000000e+00
      vertex   4.000000e-01 6.800000e+00 1.000000e+00
      vertex   -5.334383e+00 4.830873e+00 1.000000e+00
    endloop
  endfacet
  facet normal 0.000000e+00 -0.000000e+00 1.000000e+00
    outer loop
      vertex   -5.334383e+00 4.830873e+00 1.000000e+00
      vertex   4.000000e-01 6.800000e+00 1.000000e+00
      vertex   -5.367034e+00 5.009042e+00 1.000000e+00
    endloop
  endfacet
  facet normal 0.000000e+00 -0.000000e+00 1.000000e+00
    outer loop
      vertex   -5.367034e+00 5.009042e+00 1.000000e+00
      vertex   4.000000e-01 6.800000e+00 1.000000e+00
      vertex   -5.420922e+00 5.181975e+00 1.000000e+00
    endloop
  endfacet
  facet normal 0.000000e+00 -0.000000e+00 1.000000e+00
    outer loop
      vertex   -5.420922e+00 5.181975e+00 1.000000e+00
      vertex   4.000000e-01 6.800000e+00 1.000000e+00
      vertex   -5.495262e+00 5.347153e+00 1.000000e+00
    endloop
  endfacet
  facet normal 0.000000e+00 -0.000000e+00 1.000000e+00
    outer loop
      vertex   -5.495262e+00 5.347153e+00 1.000000e+00
      vertex   4.000000e-01 6.800000e+00 1.000000e+00
      vertex   -5.588971e+00 5.502165e+00 1.000000e+00
    endloop
  endfacet
  facet normal 0.000000e+00 -0.000000e+00 1.000000e+00
    outer loop
      vertex   -5.588971e+00 5.502165e+00 1.000000e+00
      vertex   4.000000e-01 6.800000e+00 1.000000e+00
      vertex   -5.700680e+00 5.644752e+00 1.000000e+00
    endloop
  endfacet
  facet normal 0.000000e+00 -0.000000e+00 1.000000e+00
    outer loop
      vertex   -5.700680e+00 5.644752e+00 1.000000e+00
      vertex   4.000000e-01 6.800000e+00 1.000000e+00
      vertex   -5.828762e+00 5.772834e+00 1.000000e+00
    endloop
  endfacet
  facet normal 0.000000e+00 -0.000000e+00 1.000000e+00
    outer loop
      vertex   -5.828762e+00 5.772834e+00 1.000000e+00
      vertex   4.000000e-01 6.800000e+00 1.000000e+00
      vertex   -5.971349e+00 5.884544e+00 1.000000e+00
    endloop
  endfacet
  facet normal 0.000000e+00 -0.000000e+00 1.000000e+00
    outer loop
      vertex   -5.971349e+00 5.884544e+00 1.000000e+00
      vertex   4.000000e-01 6.800000e+00 1.000000e+00
      vertex   -6.126362e+00 5.978252e+00 1.000000e+00
    endloop
  endfacet
  facet normal 0.000000e+00 -0.000000e+00 1.000000e+00
    outer loop
      vertex   -6.126362e+00 5.978252e+00 1.000000e+00
      vertex   4.000000e-01 6.800000e+00 1.000000e+00
      vertex   -6.291539e+00 6.052593e+00 1.000000e+00
    endloop
  endfacet
  facet normal 0.000000e+00 -0.000000e+00 1.000000e+00
    outer loop
      vertex   -6.291539e+00 6.052593e+00 1.000000e+00
      vertex   4.000000e-01 6.800000e+00 1.000000e+00
      vertex   -6.464473e+00 6.106481e+00 1.000000e+00
    endloop
  endfacet
  facet normal 0.000000e+00 -0.000000e+00 1.000000e+00
    outer loop
      vertex   -6.464473e+00 6.106481e+00 1.000000e+00
      vertex   4.000000e-01 6.800000e+00 1.000000e+00
      vertex   -6.642641e+00 6.139131e+00 1.000000e+00
    endloop
  endfacet
  facet normal 0.000000e+00 -0.000000e+00 1.000000e+00
    outer loop
      vertex   -6.642641e+00 6.139131e+00 1.000000e+00
      vertex   4.000000e-01 6.800000e+00 1.000000e+00
      vertex   -6.823446e+00 6.150068e+00 1.000000e+00
    endloop
  endfacet
  facet normal 0.000000e+00 -0.000000e+00 1.000000e+00
    outer loop
      vertex   -6.823446e+00 6.150068e+00 1.000000e+00
      vertex   4.000000e-01 6.800000e+00 1.000000e+00
      vertex   -1.137892e+01 6.800000e+00 1.000000e+00
    endloop
  endfacet
  facet normal 0.000000e+00 0.000000e+00 1.000000e+00
    outer loop
      vertex   -7.004251e+00 6.139131e+00 1.000000e+00
      vertex   -1.137892e+01 6.800000e+00 1.000000e+00
      vertex   -7.182420e+00 6.106481e+00 1.000000e+00
    endloop
  endfacet
  facet normal 0.000000e+00 -0.000000e+00 1.000000e+00
    outer loop
      vertex   -7.004251e+00 6.139131e+00 1.000000e+00
      vertex   -6.823446e+00 6.150068e+00 1.000000e+00
      vertex   -1.137892e+01 6.800000e+00 1.000000e+00
    endloop
  endfacet
  facet normal 0.000000e+00 -0.000000e+00 1.000000e+00
    outer loop
      vertex   -1.380000e+01 4.536818e+00 1.000000e+00
      vertex   -8.279859e+00 5.009042e+00 1.000000e+00
      vertex   -1.137892e+01 6.800000e+00 1.000000e+00
    endloop
  endfacet
  facet normal 0.000000e+00 0.000000e+00 1.000000e+00
    outer loop
      vertex   -1.380000e+01 4.536818e+00 1.000000e+00
      vertex   -8.312510e+00 4.830873e+00 1.000000e+00
      vertex   -8.279859e+00 5.009042e+00 1.000000e+00
    endloop
  endfacet
  facet normal 0.000000e+00 0.000000e+00 1.000000e+00
    outer loop
      vertex   -1.380000e+01 4.536818e+00 1.000000e+00
      vertex   -8.323446e+00 4.650068e+00 1.000000e+00
      vertex   -8.312510e+00 4.830873e+00 1.000000e+00
    endloop
  endfacet
  facet normal -0.000000e+00 -0.000000e+00 1.000000e+00
    outer loop
      vertex   -1.380000e+01 4.536818e+00 1.000000e+00
      vertex   -8.312510e+00 4.469263e+00 1.000000e+00
      vertex   -8.323446e+00 4.650068e+00 1.000000e+00
    endloop
  endfacet
  facet normal -0.000000e+00 -0.000000e+00 1.000000e+00
    outer loop
      vertex   -1.380000e+01 4.536818e+00 1.000000e+00
      vertex   -8.279859e+00 4.291095e+00 1.000000e+00
      vertex   -8.312510e+00 4.469263e+00 1.000000e+00
    endloop
  endfacet
  facet normal -0.000000e+00 -0.000000e+00 1.000000e+00
    outer loop
      vertex   -1.380000e+01 4.536818e+00 1.000000e+00
      vertex   -8.225971e+00 4.118161e+00 1.000000e+00
      vertex   -8.279859e+00 4.291095e+00 1.000000e+00
    endloop
  endfacet
  facet normal -0.000000e+00 -0.000000e+00 1.000000e+00
    outer loop
      vertex   -1.380000e+01 4.536818e+00 1.000000e+00
      vertex   -8.151630e+00 3.952983e+00 1.000000e+00
      vertex   -8.225971e+00 4.118161e+00 1.000000e+00
    endloop
  endfacet
  facet normal -0.000000e+00 -0.000000e+00 1.000000e+00
    outer loop
      vertex   -1.380000e+01 4.536818e+00 1.000000e+00
      vertex   -8.057922e+00 3.797971e+00 1.000000e+00
      vertex   -8.151630e+00 3.952983e+00 1.000000e+00
    endloop
  endfacet
  facet normal -0.000000e+00 0.000000e+00 1.000000e+00
    outer loop
      vertex   -1.380000e+01 4.536818e+00 1.000000e+00
      vertex   -1.380000e+01 2.063182e+00 1.000000e+00
      vertex   -8.057922e+00 3.797971e+00 1.000000e+00
    endloop
  endfacet
  facet normal -0.000000e+00 0.000000e+00 1.000000e+00
    outer loop
      vertex   -8.057922e+00 3.797971e+00 1.000000e+00
      vertex   -1.380000e+01 2.063182e+00 1.000000e+00
      vertex   -7.946212e+00 3.655384e+00 1.000000e+00
    endloop
  endfacet
  facet normal -0.000000e+00 0.000000e+00 1.000000e+00
    outer loop
      vertex   -7.946212e+00 3.655384e+00 1.000000e+00
      vertex   -1.380000e+01 2.063182e+00 1.000000e+00
      vertex   -7.818130e+00 3.527302e+00 1.000000e+00
    endloop
  endfacet
  facet normal -0.000000e+00 0.000000e+00 1.000000e+00
    outer loop
      vertex   -7.818130e+00 3.527302e+00 1.000000e+00
      vertex   -1.380000e+01 2.063182e+00 1.000000e+00
      vertex   -7.675543e+00 3.415592e+00 1.000000e+00
    endloop
  endfacet
  facet normal -0.000000e+00 0.000000e+00 1.000000e+00
    outer loop
      vertex   -7.675543e+00 3.415592e+00 1.000000e+00
      vertex   -1.380000e+01 2.063182e+00 1.000000e+00
      vertex   -7.520531e+00 3.321884e+00 1.000000e+00
    endloop
  endfacet
  facet normal -0.000000e+00 0.000000e+00 1.000000e+00
    outer loop
      vertex   -7.520531e+00 3.321884e+00 1.000000e+00
      vertex   -1.380000e+01 2.063182e+00 1.000000e+00
      vertex   -7.355354e+00 3.247544e+00 1.000000e+00
    endloop
  endfacet
  facet normal 0.000000e+00 0.000000e+00 1.000000e+00
    outer loop
      vertex   -7.355354e+00 3.247544e+00 1.000000e+00
      vertex   -1.380000e+01 2.063182e+00 1.000000e+00
      vertex   -1.137892e+01 -2.000000e-01 1.000000e+00
    endloop
  endfacet
  facet normal -0.000000e+00 0.000000e+00 1.000000e+00
    outer loop
      vertex   -7.182420e+00 3.193655e+00 1.000000e+00
      vertex   -1.137892e+01 -2.000000e-01 1.000000e+00
      vertex   -7.004251e+00 3.161005e+00 1.000000e+00
    endloop
  endfacet
  facet normal 0.000000e+00 0.000000e+00 1.000000e+00
    outer loop
      vertex   -7.182420e+00 3.193655e+00 1.000000e+00
      vertex   -7.355354e+00 3.247544e+00 1.000000e+00
      vertex   -1.137892e+01 -2.000000e-01 1.000000e+00
    endloop
  endfacet
  facet normal 0.000000e+00 -0.000000e+00 1.000000e+00
    outer loop
      vertex   -8.279859e+00 5.009042e+00 1.000000e+00
      vertex   -8.225971e+00 5.181975e+00 1.000000e+00
      vertex   -1.137892e+01 6.800000e+00 1.000000e+00
    endloop
  endfacet
  facet normal -0.000000e+00 0.000000e+00 1.000000e+00
    outer loop
      vertex   -1.137892e+01 6.800000e+00 1.000000e+00
      vertex   -8.225971e+00 5.181975e+00 1.000000e+00
      vertex   -8.151630e+00 5.347153e+00 1.000000e+00
    endloop
  endfacet
  facet normal 0.000000e+00 0.000000e+00 1.000000e+00
    outer loop
      vertex   -8.057922e+00 5.502165e+00 1.000000e+00
      vertex   -1.137892e+01 6.800000e+00 1.000000e+00
      vertex   -8.151630e+00 5.347153e+00 1.000000e+00
    endloop
  endfacet
  facet normal 0.000000e+00 -0.000000e+00 1.000000e+00
    outer loop
      vertex   -8.057922e+00 5.502165e+00 1.000000e+00
      vertex   -7.946212e+00 5.644752e+00 1.000000e+00
      vertex   -1.137892e+01 6.800000e+00 1.000000e+00
    endloop
  endfacet
  facet normal -0.000000e+00 0.000000e+00 1.000000e+00
    outer loop
      vertex   -1.137892e+01 6.800000e+00 1.000000e+00
      vertex   -7.946212e+00 5.644752e+00 1.000000e+00
      vertex   -7.818130e+00 5.772834e+00 1.000000e+00
    endloop
  endfacet
  facet normal 0.000000e+00 0.000000e+00 1.000000e+00
    outer loop
      vertex   -7.675543e+00 5.884544e+00 1.000000e+00
      vertex   -1.137892e+01 6.800000e+00 1.000000e+00
      vertex   -7.818130e+00 5.772834e+00 1.000000e+00
    endloop
  endfacet
  facet normal 0.000000e+00 -0.000000e+00 1.000000e+00
    outer loop
      vertex   -7.675543e+00 5.884544e+00 1.000000e+00
      vertex   -7.520531e+00 5.978252e+00 1.000000e+00
      vertex   -1.137892e+01 6.800000e+00 1.000000e+00
    endloop
  endfacet
  facet normal -0.000000e+00 0.000000e+00 1.000000e+00
    outer loop
      vertex   -1.137892e+01 6.800000e+00 1.000000e+00
      vertex   -7.520531e+00 5.978252e+00 1.000000e+00
      vertex   -7.355354e+00 6.052593e+00 1.000000e+00
    endloop
  endfacet
  facet normal 0.000000e+00 0.000000e+00 1.000000e+00
    outer loop
      vertex   -7.182420e+00 6.106481e+00 1.000000e+00
      vertex   -1.137892e+01 6.800000e+00 1.000000e+00
      vertex   -7.355354e+00 6.052593e+00 1.000000e+00
    endloop
  endfacet
  facet normal 0.000000e+00 0.000000e+00 1.000000e+00
    outer loop
      vertex   -6.642641e+00 3.161005e+00 1.000000e+00
      vertex   -6.823446e+00 3.150068e+00 1.000000e+00
      vertex   -1.137892e+01 -2.000000e-01 1.000000e+00
    endloop
  endfacet
  facet normal 0.000000e+00 -0.000000e+00 1.000000e+00
    outer loop
      vertex   -1.137892e+01 -2.000000e-01 1.000000e+00
      vertex   -6.823446e+00 3.150068e+00 1.000000e+00
      vertex   -7.004251e+00 3.161005e+00 1.000000e+00
    endloop
  endfacet
  facet normal 0.000000e+00 0.000000e+00 -1.000000e+00
    outer loop
      vertex   -1.236545e+01 -2.700000e+00 0.000000e+00
      vertex   -6.642641e+00 3.161005e+00 0.000000e+00
      vertex   2.900000e+00 -2.700000e+00 0.000000e+00
    endloop
  endfacet
  facet normal 0.000000e+00 0.000000e+00 -1.000000e+00
    outer loop
      vertex   -1.236545e+01 -2.700000e+00 0.000000e+00
      vertex   -6.823446e+00 3.150068e+00 0.000000e+00
      vertex   -6.642641e+00 3.161005e+00 0.000000e+00
    endloop
  endfacet
  facet normal 0.000000e+00 0.000000e+00 -1.000000e+00
    outer loop
      vertex   -1.236545e+01 -2.700000e+00 0.000000e+00
      vertex   -7.004251e+00 3.161005e+00 0.000000e+00
      vertex   -6.823446e+00 3.150068e+00 0.000000e+00
    endloop
  endfacet
  facet normal 0.000000e+00 0.000000e+00 -1.000000e+00
    outer loop
      vertex   -1.236545e+01 -2.700000e+00 0.000000e+00
      vertex   -7.182420e+00 3.193655e+00 0.000000e+00
      vertex   -7.004251e+00 3.161005e+00 0.000000e+00
    endloop
  endfacet
  facet normal 0.000000e+00 0.000000e+00 -1.000000e+00
    outer loop
      vertex   -1.236545e+01 -2.700000e+00 0.000000e+00
      vertex   -7.355354e+00 3.247544e+00 0.000000e+00
      vertex   -7.182420e+00 3.193655e+00 0.000000e+00
    endloop
  endfacet
  facet normal 0.000000e+00 0.000000e+00 -1.000000e+00
    outer loop
      vertex   -1.236545e+01 -2.700000e+00 0.000000e+00
      vertex   -7.520531e+00 3.321884e+00 0.000000e+00
      vertex   -7.355354e+00 3.247544e+00 0.000000e+00
    endloop
  endfacet
  facet normal 0.000000e+00 0.000000e+00 -1.000000e+00
    outer loop
      vertex   -1.236545e+01 -2.700000e+00 0.000000e+00
      vertex   -1.630000e+01 9.779508e-01 0.000000e+00
      vertex   -7.520531e+00 3.321884e+00 0.000000e+00
    endloop
  endfacet
  facet normal -0.000000e+00 0.000000e+00 -1.000000e+00
    outer loop
      vertex   -7.520531e+00 3.321884e+00 0.000000e+00
      vertex   -1.630000e+01 9.779508e-01 0.000000e+00
      vertex   -7.675543e+00 3.415592e+00 0.000000e+00
    endloop
  endfacet
  facet normal -0.000000e+00 0.000000e+00 -1.000000e+00
    outer loop
      vertex   -7.675543e+00 3.415592e+00 0.000000e+00
      vertex   -1.630000e+01 9.779508e-01 0.000000e+00
      vertex   -7.818130e+00 3.527302e+00 0.000000e+00
    endloop
  endfacet
  facet normal -0.000000e+00 0.000000e+00 -1.000000e+00
    outer loop
      vertex   -7.818130e+00 3.527302e+00 0.000000e+00
      vertex   -1.630000e+01 9.779508e-01 0.000000e+00
      vertex   -7.946212e+00 3.655384e+00 0.000000e+00
    endloop
  endfacet
  facet normal -0.000000e+00 0.000000e+00 -1.000000e+00
    outer loop
      vertex   -7.946212e+00 3.655384e+00 0.000000e+00
      vertex   -1.630000e+01 9.779508e-01 0.000000e+00
      vertex   -8.057922e+00 3.797971e+00 0.000000e+00
    endloop
  endfacet
  facet normal -0.000000e+00 0.000000e+00 -1.000000e+00
    outer loop
      vertex   -8.057922e+00 3.797971e+00 0.000000e+00
      vertex   -1.630000e+01 9.779508e-01 0.000000e+00
      vertex   -8.151630e+00 3.952983e+00 0.000000e+00
    endloop
  endfacet
  facet normal -0.000000e+00 0.000000e+00 -1.000000e+00
    outer loop
      vertex   -8.151630e+00 3.952983e+00 0.000000e+00
      vertex   -1.630000e+01 9.779508e-01 0.000000e+00
      vertex   -8.225971e+00 4.118161e+00 0.000000e+00
    endloop
  endfacet
  facet normal -0.000000e+00 0.000000e+00 -1.000000e+00
    outer loop
      vertex   -8.225971e+00 4.118161e+00 0.000000e+00
      vertex   -1.630000e+01 9.779508e-01 0.000000e+00
      vertex   -1.630000e+01 5.622049e+00 0.000000e+00
    endloop
  endfacet
  facet normal 0.000000e+00 0.000000e+00 -1.000000e+00
    outer loop
      vertex   -8.279859e+00 4.291095e+00 0.000000e+00
      vertex   -1.630000e+01 5.622049e+00 0.000000e+00
      vertex   -8.312510e+00 4.469263e+00 0.000000e+00
    endloop
  endfacet
  facet normal -0.000000e+00 -0.000000e+00 -1.000000e+00
    outer loop
      vertex   -8.279859e+00 4.291095e+00 0.000000e+00
      vertex   -8.225971e+00 4.118161e+00 0.000000e+00
      vertex   -1.630000e+01 5.622049e+00 0.000000e+00
    endloop
  endfacet
  facet normal -0.000000e+00 -0.000000e+00 -1.000000e+00
    outer loop
      vertex   -1.236545e+01 9.300000e+00 0.000000e+00
      vertex   -8.057922e+00 5.502165e+00 0.000000e+00
      vertex   -1.630000e+01 5.622049e+00 0.000000e+00
    endloop
  endfacet
  facet normal 0.000000e+00 -0.000000e+00 -1.000000e+00
    outer loop
      vertex   -1.236545e+01 9.300000e+00 0.000000e+00
      vertex   -7.946212e+00 5.644752e+00 0.000000e+00
      vertex   -8.057922e+00 5.502165e+00 0.000000e+00
    endloop
  endfacet
  facet normal 0.000000e+00 -0.000000e+00 -1.000000e+00
    outer loop
      vertex   -1.236545e+01 9.300000e+00 0.000000e+00
      vertex   -7.818130e+00 5.772834e+00 0.000000e+00
      vertex   -7.946212e+00 5.644752e+00 0.000000e+00
    endloop
  endfacet
  facet normal 0.000000e+00 -0.000000e+00 -1.000000e+00
    outer loop
      vertex   -1.236545e+01 9.300000e+00 0.000000e+00
      vertex   -7.675543e+00 5.884544e+00 0.000000e+00
      vertex   -7.818130e+00 5.772834e+00 0.000000e+00
    endloop
  endfacet
  facet normal 0.000000e+00 -0.000000e+00 -1.000000e+00
    outer loop
      vertex   -1.236545e+01 9.300000e+00 0.000000e+00
      vertex   -7.520531e+00 5.978252e+00 0.000000e+00
      vertex   -7.675543e+00 5.884544e+00 0.000000e+00
    endloop
  endfacet
  facet normal 0.000000e+00 -0.000000e+00 -1.000000e+00
    outer loop
      vertex   -1.236545e+01 9.300000e+00 0.000000e+00
      vertex   -7.355354e+00 6.052593e+00 0.000000e+00
      vertex   -7.520531e+00 5.978252e+00 0.000000e+00
    endloop
  endfacet
  facet normal 0.000000e+00 -0.000000e+00 -1.000000e+00
    outer loop
      vertex   -1.236545e+01 9.300000e+00 0.000000e+00
      vertex   -7.182420e+00 6.106481e+00 0.000000e+00
      vertex   -7.355354e+00 6.052593e+00 0.000000e+00
    endloop
  endfacet
  facet normal 0.000000e+00 -0.000000e+00 -1.000000e+00
    outer loop
      vertex   -1.236545e+01 9.300000e+00 0.000000e+00
      vertex   -7.004251e+00 6.139131e+00 0.000000e+00
      vertex   -7.182420e+00 6.106481e+00 0.000000e+00
    endloop
  endfacet
  facet normal 0.000000e+00 -0.000000e+00 -1.000000e+00
    outer loop
      vertex   -1.236545e+01 9.300000e+00 0.000000e+00
      vertex   -6.823446e+00 6.150068e+00 0.000000e+00
      vertex   -7.004251e+00 6.139131e+00 0.000000e+00
    endloop
  endfacet
  facet normal -0.000000e+00 -0.000000e+00 -1.000000e+00
    outer loop
      vertex   -1.236545e+01 9.300000e+00 0.000000e+00
      vertex   -6.642641e+00 6.139131e+00 0.000000e+00
      vertex   -6.823446e+00 6.150068e+00 0.000000e+00
    endloop
  endfacet
  facet normal 0.000000e+00 -0.000000e+00 -1.000000e+00
    outer loop
      vertex   -1.236545e+01 9.300000e+00 0.000000e+00
      vertex   2.900000e+00 9.300000e+00 0.000000e+00
      vertex   -6.642641e+00 6.139131e+00 0.000000e+00
    endloop
  endfacet
  facet normal 0.000000e+00 -0.000000e+00 -1.000000e+00
    outer loop
      vertex   -6.642641e+00 6.139131e+00 0.000000e+00
      vertex   2.900000e+00 9.300000e+00 0.000000e+00
      vertex   -6.464473e+00 6.106481e+00 0.000000e+00
    endloop
  endfacet
  facet normal 0.000000e+00 -0.000000e+00 -1.000000e+00
    outer loop
      vertex   -6.464473e+00 6.106481e+00 0.000000e+00
      vertex   2.900000e+00 9.300000e+00 0.000000e+00
      vertex   -6.291539e+00 6.052593e+00 0.000000e+00
    endloop
  endfacet
  facet normal 0.000000e+00 -0.000000e+00 -1.000000e+00
    outer loop
      vertex   -6.291539e+00 6.052593e+00 0.000000e+00
      vertex   2.900000e+00 9.300000e+00 0.000000e+00
      vertex   -6.126362e+00 5.978252e+00 0.000000e+00
    endloop
  endfacet
  facet normal 0.000000e+00 -0.000000e+00 -1.000000e+00
    outer loop
      vertex   -6.126362e+00 5.978252e+00 0.000000e+00
      vertex   2.900000e+00 9.300000e+00 0.000000e+00
      vertex   -5.971349e+00 5.884544e+00 0.000000e+00
    endloop
  endfacet
  facet normal 0.000000e+00 -0.000000e+00 -1.000000e+00
    outer loop
      vertex   -5.971349e+00 5.884544e+00 0.000000e+00
      vertex   2.900000e+00 9.300000e+00 0.000000e+00
      vertex   -5.828762e+00 5.772834e+00 0.000000e+00
    endloop
  endfacet
  facet normal 0.000000e+00 -0.000000e+00 -1.000000e+00
    outer loop
      vertex   -5.828762e+00 5.772834e+00 0.000000e+00
      vertex   2.900000e+00 9.300000e+00 0.000000e+00
      vertex   -5.700680e+00 5.644752e+00 0.000000e+00
    endloop
  endfacet
  facet normal 0.000000e+00 -0.000000e+00 -1.000000e+00
    outer loop
      vertex   -5.700680e+00 5.644752e+00 0.000000e+00
      vertex   2.900000e+00 9.300000e+00 0.000000e+00
      vertex   -5.588971e+00 5.502165e+00 0.000000e+00
    endloop
  endfacet
  facet normal 0.000000e+00 -0.000000e+00 -1.000000e+00
    outer loop
      vertex   -5.588971e+00 5.502165e+00 0.000000e+00
      vertex   2.900000e+00 9.300000e+00 0.000000e+00
      vertex   -5.495262e+00 5.347153e+00 0.000000e+00
    endloop
  endfacet
  facet normal 0.000000e+00 -0.000000e+00 -1.000000e+00
    outer loop
      vertex   -5.495262e+00 5.347153e+00 0.000000e+00
      vertex   2.900000e+00 9.300000e+00 0.000000e+00
      vertex   -5.420922e+00 5.181975e+00 0.000000e+00
    endloop
  endfacet
  facet normal 0.000000e+00 -0.000000e+00 -1.000000e+00
    outer loop
      vertex   -5.420922e+00 5.181975e+00 0.000000e+00
      vertex   2.900000e+00 9.300000e+00 0.000000e+00
      vertex   -5.367034e+00 5.009042e+00 0.000000e+00
    endloop
  endfacet
  facet normal 0.000000e+00 -0.000000e+00 -1.000000e+00
    outer loop
      vertex   -5.367034e+00 5.009042e+00 0.000000e+00
      vertex   2.900000e+00 9.300000e+00 0.000000e+00
      vertex   -5.334383e+00 4.830873e+00 0.000000e+00
    endloop
  endfacet
  facet normal 0.000000e+00 -0.000000e+00 -1.000000e+00
    outer loop
      vertex   -5.334383e+00 4.830873e+00 0.000000e+00
      vertex   2.900000e+00 9.300000e+00 0.000000e+00
      vertex   -5.323446e+00 4.650068e+00 0.000000e+00
    endloop
  endfacet
  facet normal 0.000000e+00 -0.000000e+00 -1.000000e+00
    outer loop
      vertex   -5.323446e+00 4.650068e+00 0.000000e+00
      vertex   2.900000e+00 9.300000e+00 0.000000e+00
      vertex   -5.334383e+00 4.469263e+00 0.000000e+00
    endloop
  endfacet
  facet normal 0.000000e+00 -0.000000e+00 -1.000000e+00
    outer loop
      vertex   -5.334383e+00 4.469263e+00 0.000000e+00
      vertex   2.900000e+00 9.300000e+00 0.000000e+00
      vertex   -5.367034e+00 4.291095e+00 0.000000e+00
    endloop
  endfacet
  facet normal 0.000000e+00 0.000000e+00 -1.000000e+00
    outer loop
      vertex   -5.367034e+00 4.291095e+00 0.000000e+00
      vertex   2.900000e+00 9.300000e+00 0.000000e+00
      vertex   2.900000e+00 -2.700000e+00 0.000000e+00
    endloop
  endfacet
  facet normal -0.000000e+00 -0.000000e+00 -1.000000e+00
    outer loop
      vertex   -5.420922e+00 4.118161e+00 0.000000e+00
      vertex   2.900000e+00 -2.700000e+00 0.000000e+00
      vertex   -5.495262e+00 3.952983e+00 0.000000e+00
    endloop
  endfacet
  facet normal 0.000000e+00 0.000000e+00 -1.000000e+00
    outer loop
      vertex   -5.420922e+00 4.118161e+00 0.000000e+00
      vertex   -5.367034e+00 4.291095e+00 0.000000e+00
      vertex   2.900000e+00 -2.700000e+00 0.000000e+00
    endloop
  endfacet
  facet normal -0.000000e+00 0.000000e+00 -1.000000e+00
    outer loop
      vertex   -8.312510e+00 4.830873e+00 0.000000e+00
      vertex   -8.323446e+00 4.650068e+00 0.000000e+00
      vertex   -1.630000e+01 5.622049e+00 0.000000e+00
    endloop
  endfacet
  facet normal 0.000000e+00 0.000000e+00 -1.000000e+00
    outer loop
      vertex   -8.279859e+00 5.009042e+00 0.000000e+00
      vertex   -1.630000e+01 5.622049e+00 0.000000e+00
      vertex   -8.225971e+00 5.181975e+00 0.000000e+00
    endloop
  endfacet
  facet normal -0.000000e+00 0.000000e+00 -1.000000e+00
    outer loop
      vertex   -8.279859e+00 5.009042e+00 0.000000e+00
      vertex   -8.312510e+00 4.830873e+00 0.000000e+00
      vertex   -1.630000e+01 5.622049e+00 0.000000e+00
    endloop
  endfacet
  facet normal -0.000000e+00 -0.000000e+00 -1.000000e+00
    outer loop
      vertex   -8.323446e+00 4.650068e+00 0.000000e+00
      vertex   -8.312510e+00 4.469263e+00 0.000000e+00
      vertex   -1.630000e+01 5.622049e+00 0.000000e+00
    endloop
  endfacet
  facet normal 0.000000e+00 0.000000e+00 -1.000000e+00
    outer loop
      vertex   -6.642641e+00 3.161005e+00 0.000000e+00
      vertex   -6.464473e+00 3.193655e+00 0.000000e+00
      vertex   2.900000e+00 -2.700000e+00 0.000000e+00
    endloop
  endfacet
  facet normal 0.000000e+00 0.000000e+00 -1.000000e+00
    outer loop
      vertex   2.900000e+00 -2.700000e+00 0.000000e+00
      vertex   -6.464473e+00 3.193655e+00 0.000000e+00
      vertex   -6.291539e+00 3.247544e+00 0.000000e+00
    endloop
  endfacet
  facet normal -0.000000e+00 -0.000000e+00 -1.000000e+00
    outer loop
      vertex   -6.126362e+00 3.321884e+00 0.000000e+00
      vertex   2.900000e+00 -2.700000e+00 0.000000e+00
      vertex   -6.291539e+00 3.247544e+00 0.000000e+00
    endloop
  endfacet
  facet normal 0.000000e+00 0.000000e+00 -1.000000e+00
    outer loop
      vertex   -6.126362e+00 3.321884e+00 0.000000e+00
      vertex   -5.971349e+00 3.415592e+00 0.000000e+00
      vertex   2.900000e+00 -2.700000e+00 0.000000e+00
    endloop
  endfacet
  facet normal 0.000000e+00 0.000000e+00 -1.000000e+00
    outer loop
      vertex   2.900000e+00 -2.700000e+00 0.000000e+00
      vertex   -5.971349e+00 3.415592e+00 0.000000e+00
      vertex   -5.828762e+00 3.527302e+00 0.000000e+00
    endloop
  endfacet
  facet normal -0.000000e+00 -0.000000e+00 -1.000000e+00
    outer loop
      vertex   -5.700680e+00 3.655384e+00 0.000000e+00
      vertex   2.900000e+00 -2.700000e+00 0.000000e+00
      vertex   -5.828762e+00 3.527302e+00 0.000000e+00
    endloop
  endfacet
  facet normal 0.000000e+00 0.000000e+00 -1.000000e+00
    outer loop
      vertex   -5.700680e+00 3.655384e+00 0.000000e+00
      vertex   -5.588971e+00 3.797971e+00 0.000000e+00
      vertex   2.900000e+00 -2.700000e+00 0.000000e+00
    endloop
  endfacet
  facet normal 0.000000e+00 0.000000e+00 -1.000000e+00
    outer loop
      vertex   2.900000e+00 -2.700000e+00 0.000000e+00
      vertex   -5.588971e+00 3.797971e+00 0.000000e+00
      vertex   -5.495262e+00 3.952983e+00 0.000000e+00
    endloop
  endfacet
  facet normal -0.000000e+00 0.000000e+00 -1.000000e+00
    outer loop
      vertex   -8.057922e+00 5.502165e+00 0.000000e+00
      vertex   -8.151630e+00 5.347153e+00 0.000000e+00
      vertex   -1.630000e+01 5.622049e+00 0.000000e+00
    endloop
  endfacet
  facet normal 0.000000e+00 -0.000000e+00 -1.000000e+00
    outer loop
      vertex   -1.630000e+01 5.622049e+00 0.000000e+00
      vertex   -8.151630e+00 5.347153e+00 0.000000e+00
      vertex   -8.225971e+00 5.181975e+00 0.000000e+00
    endloop
  endfacet
endsolid
