solid OpenSCAD_Model
  facet normal -1 0 0
    outer loop
      vertex 0 0 0
      vertex 0 0 1
      vertex 0 5.33333 0
    endloop
  endfacet
  facet normal -1 0 0
    outer loop
      vertex 0 5.33333 0
      vertex 0 0 1
      vertex 0 5.33333 1
    endloop
  endfacet
  facet normal 0 -1 0
    outer loop
      vertex 0 0 1
      vertex 0 0 0
      vertex 10.6667 0 0
    endloop
  endfacet
  facet normal 0 -1 0
    outer loop
      vertex 10.6667 0 1
      vertex 0 0 1
      vertex 10.6667 0 0
    endloop
  endfacet
  facet normal 0 0 -1
    outer loop
      vertex 6.66667 2.66667 0
      vertex 10.6667 0 0
      vertex 1.33333 2.66667 0
    endloop
  endfacet
  facet normal 0 0 -1
    outer loop
      vertex 0 0 0
      vertex 0 5.33333 0
      vertex 1.33333 2.66667 0
    endloop
  endfacet
  facet normal 0 0 -1
    outer loop
      vertex 0 0 0
      vertex 1.33333 2.66667 0
      vertex 10.6667 0 0
    endloop
  endfacet
  facet normal 0 0 -1
    outer loop
      vertex 0 10.6667 0
      vertex 1.33333 13.3333 0
      vertex 1.33333 10.6667 0
    endloop
  endfacet
  facet normal 0 0 -1
    outer loop
      vertex 10.6667 0 0
      vertex 6.66667 2.66667 0
      vertex 6.66667 13.3333 0
    endloop
  endfacet
  facet normal 0 0 -1
    outer loop
      vertex 2.66667 37.3333 0
      vertex 0 44 0
      vertex 2.66667 42.6667 0
    endloop
  endfacet
  facet normal 0 0 -1
    outer loop
      vertex 1.33333 13.3333 0
      vertex 0 10.6667 0
      vertex 0 16 0
    endloop
  endfacet
  facet normal 0 0 -1
    outer loop
      vertex 1.33333 13.3333 0
      vertex 0 16 0
      vertex 6.66667 13.3333 0
    endloop
  endfacet
  facet normal 0 0 -1
    outer loop
      vertex 6.66667 13.3333 0
      vertex 0 16 0
      vertex 5.33333 16 0
    endloop
  endfacet
  facet normal 0 0 -1
    outer loop
      vertex 6.66667 13.3333 0
      vertex 5.33333 16 0
      vertex 5.33333 34.6667 0
    endloop
  endfacet
  facet normal 0 0 -1
    outer loop
      vertex 6.66667 13.3333 0
      vertex 5.33333 34.6667 0
      vertex 10.6667 0 0
    endloop
  endfacet
  facet normal 0 0 -1
    outer loop
      vertex 2.66667 37.3333 0
      vertex 0 34.6667 0
      vertex 0 44 0
    endloop
  endfacet
  facet normal 0 0 -1
    outer loop
      vertex 5.33333 42.6667 0
      vertex 0 44 0
      vertex 5.33333 44 0
    endloop
  endfacet
  facet normal 0 0 -1
    outer loop
      vertex 2.66667 42.6667 0
      vertex 0 44 0
      vertex 5.33333 42.6667 0
    endloop
  endfacet
  facet normal 0 0 -1
    outer loop
      vertex 13.3333 37.3333 0
      vertex 10.6667 34.6667 0
      vertex 5.33333 34.6667 0
    endloop
  endfacet
  facet normal 0 0 -1
    outer loop
      vertex 5.33333 34.6667 0
      vertex 0 34.6667 0
      vertex 2.66667 37.3333 0
    endloop
  endfacet
  facet normal 0 0 -1
    outer loop
      vertex 10.6667 34.6667 0
      vertex 10.6667 0 0
      vertex 5.33333 34.6667 0
    endloop
  endfacet
  facet normal 0 0 -1
    outer loop
      vertex 10.6667 44 0
      vertex 13.3333 42.6667 0
      vertex 10.6667 42.6667 0
    endloop
  endfacet
  facet normal 0 0 -1
    outer loop
      vertex 10.6667 34.6667 0
      vertex 13.3333 37.3333 0
      vertex 16 34.6667 0
    endloop
  endfacet
  facet normal 0 0 -1
    outer loop
      vertex 13.3333 37.3333 0
      vertex 16 44 0
      vertex 16 34.6667 0
    endloop
  endfacet
  facet normal 0 0 -1
    outer loop
      vertex 13.3333 42.6667 0
      vertex 10.6667 44 0
      vertex 16 44 0
    endloop
  endfacet
  facet normal 0 0 -1
    outer loop
      vertex 13.3333 42.6667 0
      vertex 16 44 0
      vertex 13.3333 37.3333 0
    endloop
  endfacet
  facet normal 0 0 -1
    outer loop
      vertex 1.33333 2.66667 0
      vertex 0 5.33333 0
      vertex 1.33333 5.33333 0
    endloop
  endfacet
  facet normal 0 0 -1
    outer loop
      vertex 13.3333 37.3333 0
      vertex 5.33333 34.6667 0
      vertex 2.66667 37.3333 0
    endloop
  endfacet
  facet normal 0 1 0
    outer loop
      vertex 1.33333 5.33333 1
      vertex 1.33333 5.33333 0
      vertex 0 5.33333 1
    endloop
  endfacet
  facet normal 0 1 0
    outer loop
      vertex 0 5.33333 1
      vertex 1.33333 5.33333 0
      vertex 0 5.33333 0
    endloop
  endfacet
  facet normal 0 0 1
    outer loop
      vertex 1.33333 2.66667 1
      vertex 0 0 1
      vertex 10.6667 0 1
    endloop
  endfacet
  facet normal 0 0 1
    outer loop
      vertex 0 34.6667 1
      vertex 2.66667 37.3333 1
      vertex 2.66667 42.6667 1
    endloop
  endfacet
  facet normal 0 0 1
    outer loop
      vertex 1.33333 2.66667 1
      vertex 1.33333 5.33333 1
      vertex 0 5.33333 1
    endloop
  endfacet
  facet normal 0 0 1
    outer loop
      vertex 13.3333 37.3333 1
      vertex 10.6667 34.6667 1
      vertex 16 34.6667 1
    endloop
  endfacet
  facet normal 0 0 1
    outer loop
      vertex 10.6667 44 1
      vertex 10.6667 42.6667 1
      vertex 16 44 1
    endloop
  endfacet
  facet normal 0 0 1
    outer loop
      vertex 10.6667 42.6667 1
      vertex 13.3333 42.6667 1
      vertex 16 44 1
    endloop
  endfacet
  facet normal 0 0 1
    outer loop
      vertex 0 34.6667 1
      vertex 5.33333 34.6667 1
      vertex 2.66667 37.3333 1
    endloop
  endfacet
  facet normal 0 0 1
    outer loop
      vertex 16 44 1
      vertex 13.3333 37.3333 1
      vertex 16 34.6667 1
    endloop
  endfacet
  facet normal 0 0 1
    outer loop
      vertex 5.33333 34.6667 1
      vertex 5.33333 16 1
      vertex 10.6667 34.6667 1
    endloop
  endfacet
  facet normal 0 0 1
    outer loop
      vertex 1.33333 13.3333 1
      vertex 0 16 1
      vertex 0 10.6667 1
    endloop
  endfacet
  facet normal 0 0 1
    outer loop
      vertex 0 10.6667 1
      vertex 1.33333 10.6667 1
      vertex 1.33333 13.3333 1
    endloop
  endfacet
  facet normal 0 0 1
    outer loop
      vertex 0 44 1
      vertex 2.66667 42.6667 1
      vertex 5.33333 44 1
    endloop
  endfacet
  facet normal 0 0 1
    outer loop
      vertex 0 44 1
      vertex 0 34.6667 1
      vertex 2.66667 42.6667 1
    endloop
  endfacet
  facet normal 0 0 1
    outer loop
      vertex 1.33333 13.3333 1
      vertex 6.66667 13.3333 1
      vertex 5.33333 16 1
    endloop
  endfacet
  facet normal 0 0 1
    outer loop
      vertex 5.33333 16 1
      vertex 0 16 1
      vertex 1.33333 13.3333 1
    endloop
  endfacet
  facet normal 0 0 1
    outer loop
      vertex 5.33333 42.6667 1
      vertex 5.33333 44 1
      vertex 2.66667 42.6667 1
    endloop
  endfacet
  facet normal 0 0 1
    outer loop
      vertex 10.6667 34.6667 1
      vertex 6.66667 13.3333 1
      vertex 10.6667 0 1
    endloop
  endfacet
  facet normal 0 0 1
    outer loop
      vertex 10.6667 34.6667 1
      vertex 5.33333 16 1
      vertex 6.66667 13.3333 1
    endloop
  endfacet
  facet normal 0 0 1
    outer loop
      vertex 6.66667 2.66667 1
      vertex 1.33333 2.66667 1
      vertex 10.6667 0 1
    endloop
  endfacet
  facet normal 0 0 1
    outer loop
      vertex 0 5.33333 1
      vertex 0 0 1
      vertex 1.33333 2.66667 1
    endloop
  endfacet
  facet normal 0 0 1
    outer loop
      vertex 13.3333 42.6667 1
      vertex 13.3333 37.3333 1
      vertex 16 44 1
    endloop
  endfacet
  facet normal 0 0 1
    outer loop
      vertex 6.66667 13.3333 1
      vertex 6.66667 2.66667 1
      vertex 10.6667 0 1
    endloop
  endfacet
  facet normal 0 0 1
    outer loop
      vertex 13.3333 37.3333 1
      vertex 5.33333 34.6667 1
      vertex 10.6667 34.6667 1
    endloop
  endfacet
  facet normal 0 0 1
    outer loop
      vertex 13.3333 37.3333 1
      vertex 2.66667 37.3333 1
      vertex 5.33333 34.6667 1
    endloop
  endfacet
  facet normal 1 0 0
    outer loop
      vertex 10.6667 34.6667 0
      vertex 10.6667 34.6667 1
      vertex 10.6667 0 1
    endloop
  endfacet
  facet normal 1 0 0
    outer loop
      vertex 10.6667 0 0
      vertex 10.6667 34.6667 0
      vertex 10.6667 0 1
    endloop
  endfacet
  facet normal 0 -1 0
    outer loop
      vertex 16 34.6667 0
      vertex 16 34.6667 1
      vertex 10.6667 34.6667 1
    endloop
  endfacet
  facet normal 0 -1 0
    outer loop
      vertex 10.6667 34.6667 0
      vertex 16 34.6667 0
      vertex 10.6667 34.6667 1
    endloop
  endfacet
  facet normal 1 0 0
    outer loop
      vertex 16 34.6667 1
      vertex 16 34.6667 0
      vertex 16 44 0
    endloop
  endfacet
  facet normal 1 0 0
    outer loop
      vertex 16 44 1
      vertex 16 34.6667 1
      vertex 16 44 0
    endloop
  endfacet
  facet normal 0 1 0
    outer loop
      vertex 10.6667 44 0
      vertex 10.6667 44 1
      vertex 16 44 0
    endloop
  endfacet
  facet normal 0 1 0
    outer loop
      vertex 16 44 0
      vertex 10.6667 44 1
      vertex 16 44 1
    endloop
  endfacet
  facet normal -1 0 0
    outer loop
      vertex 10.6667 44 1
      vertex 10.6667 44 0
      vertex 10.6667 42.6667 1
    endloop
  endfacet
  facet normal -1 0 0
    outer loop
      vertex 10.6667 42.6667 1
      vertex 10.6667 44 0
      vertex 10.6667 42.6667 0
    endloop
  endfacet
  facet normal 0 -1 0
    outer loop
      vertex 13.3333 42.6667 0
      vertex 13.3333 42.6667 1
      vertex 10.6667 42.6667 1
    endloop
  endfacet
  facet normal 0 -1 0
    outer loop
      vertex 10.6667 42.6667 0
      vertex 13.3333 42.6667 0
      vertex 10.6667 42.6667 1
    endloop
  endfacet
  facet normal -1 0 0
    outer loop
      vertex 13.3333 42.6667 1
      vertex 13.3333 42.6667 0
      vertex 13.3333 37.3333 1
    endloop
  endfacet
  facet normal -1 0 0
    outer loop
      vertex 13.3333 37.3333 1
      vertex 13.3333 42.6667 0
      vertex 13.3333 37.3333 0
    endloop
  endfacet
  facet normal 0 1 0
    outer loop
      vertex 13.3333 37.3333 1
      vertex 13.3333 37.3333 0
      vertex 2.66667 37.3333 1
    endloop
  endfacet
  facet normal 0 1 0
    outer loop
      vertex 2.66667 37.3333 1
      vertex 13.3333 37.3333 0
      vertex 2.66667 37.3333 0
    endloop
  endfacet
  facet normal 1 0 0
    outer loop
      vertex 2.66667 42.6667 0
      vertex 2.66667 42.6667 1
      vertex 2.66667 37.3333 1
    endloop
  endfacet
  facet normal 1 0 0
    outer loop
      vertex 2.66667 37.3333 0
      vertex 2.66667 42.6667 0
      vertex 2.66667 37.3333 1
    endloop
  endfacet
  facet normal 0 -1 0
    outer loop
      vertex 5.33333 42.6667 0
      vertex 5.33333 42.6667 1
      vertex 2.66667 42.6667 1
    endloop
  endfacet
  facet normal 0 -1 0
    outer loop
      vertex 2.66667 42.6667 0
      vertex 5.33333 42.6667 0
      vertex 2.66667 42.6667 1
    endloop
  endfacet
  facet normal 1 0 0
    outer loop
      vertex 5.33333 44 0
      vertex 5.33333 44 1
      vertex 5.33333 42.6667 1
    endloop
  endfacet
  facet normal 1 0 0
    outer loop
      vertex 5.33333 42.6667 0
      vertex 5.33333 44 0
      vertex 5.33333 42.6667 1
    endloop
  endfacet
  facet normal 0 1 0
    outer loop
      vertex 0 44 0
      vertex 0 44 1
      vertex 5.33333 44 0
    endloop
  endfacet
  facet normal 0 1 0
    outer loop
      vertex 5.33333 44 0
      vertex 0 44 1
      vertex 5.33333 44 1
    endloop
  endfacet
  facet normal -1 0 0
    outer loop
      vertex 0 34.6667 0
      vertex 0 34.6667 1
      vertex 0 44 0
    endloop
  endfacet
  facet normal -1 0 0
    outer loop
      vertex 0 44 0
      vertex 0 34.6667 1
      vertex 0 44 1
    endloop
  endfacet
  facet normal 0 -1 0
    outer loop
      vertex 5.33333 34.6667 0
      vertex 5.33333 34.6667 1
      vertex 0 34.6667 1
    endloop
  endfacet
  facet normal 0 -1 0
    outer loop
      vertex 0 34.6667 0
      vertex 5.33333 34.6667 0
      vertex 0 34.6667 1
    endloop
  endfacet
  facet normal -1 0 0
    outer loop
      vertex 5.33333 34.6667 1
      vertex 5.33333 34.6667 0
      vertex 5.33333 16 1
    endloop
  endfacet
  facet normal -1 0 0
    outer loop
      vertex 5.33333 16 1
      vertex 5.33333 34.6667 0
      vertex 5.33333 16 0
    endloop
  endfacet
  facet normal 0 1 0
    outer loop
      vertex 5.33333 16 1
      vertex 5.33333 16 0
      vertex 0 16 1
    endloop
  endfacet
  facet normal 0 1 0
    outer loop
      vertex 0 16 1
      vertex 5.33333 16 0
      vertex 0 16 0
    endloop
  endfacet
  facet normal -1 0 0
    outer loop
      vertex 0 10.6667 0
      vertex 0 10.6667 1
      vertex 0 16 0
    endloop
  endfacet
  facet normal -1 0 0
    outer loop
      vertex 0 16 0
      vertex 0 10.6667 1
      vertex 0 16 1
    endloop
  endfacet
  facet normal 0 -1 0
    outer loop
      vertex 1.33333 10.6667 0
      vertex 1.33333 10.6667 1
      vertex 0 10.6667 1
    endloop
  endfacet
  facet normal 0 -1 0
    outer loop
      vertex 0 10.6667 0
      vertex 1.33333 10.6667 0
      vertex 0 10.6667 1
    endloop
  endfacet
  facet normal 1 0 0
    outer loop
      vertex 1.33333 13.3333 0
      vertex 1.33333 13.3333 1
      vertex 1.33333 10.6667 1
    endloop
  endfacet
  facet normal 1 0 0
    outer loop
      vertex 1.33333 10.6667 0
      vertex 1.33333 13.3333 0
      vertex 1.33333 10.6667 1
    endloop
  endfacet
  facet normal 0 -1 0
    outer loop
      vertex 6.66667 13.3333 0
      vertex 6.66667 13.3333 1
      vertex 1.33333 13.3333 1
    endloop
  endfacet
  facet normal 0 -1 0
    outer loop
      vertex 1.33333 13.3333 0
      vertex 6.66667 13.3333 0
      vertex 1.33333 13.3333 1
    endloop
  endfacet
  facet normal -1 0 0
    outer loop
      vertex 6.66667 13.3333 1
      vertex 6.66667 13.3333 0
      vertex 6.66667 2.66667 1
    endloop
  endfacet
  facet normal -1 0 0
    outer loop
      vertex 6.66667 2.66667 1
      vertex 6.66667 13.3333 0
      vertex 6.66667 2.66667 0
    endloop
  endfacet
  facet normal 0 1 0
    outer loop
      vertex 6.66667 2.66667 1
      vertex 6.66667 2.66667 0
      vertex 1.33333 2.66667 1
    endloop
  endfacet
  facet normal 0 1 0
    outer loop
      vertex 1.33333 2.66667 1
      vertex 6.66667 2.66667 0
      vertex 1.33333 2.66667 0
    endloop
  endfacet
  facet normal 1 0 0
    outer loop
      vertex 1.33333 5.33333 0
      vertex 1.33333 5.33333 1
      vertex 1.33333 2.66667 1
    endloop
  endfacet
  facet normal 1 0 0
    outer loop
      vertex 1.33333 2.66667 0
      vertex 1.33333 5.33333 0
      vertex 1.33333 2.66667 1
    endloop
  endfacet
endsolid OpenSCAD_Model
