solid OpenSCAD_Model
  facet normal -1 -0 -3.15797e-015
    outer loop
      vertex -45 4 2.25
      vertex -45 19.5 2.25
      vertex -45 4 -5.51073e-015
    endloop
  endfacet
  facet normal -1 -0 -3.15797e-015
    outer loop
      vertex -45 4 -5.51073e-015
      vertex -45 19.5 2.25
      vertex -45 19.5 -5.51073e-015
    endloop
  endfacet
  facet normal -1.20701e-016 -2.27766e-018 1
    outer loop
      vertex -34 6 2.25
      vertex -45 4 2.25
      vertex -30.283 4 2.25
    endloop
  endfacet
  facet normal 0 0 1
    outer loop
      vertex -34 6 2.25
      vertex -34 9.30902 2.25
      vertex -34.4142 9.58579 2.25
    endloop
  endfacet
  facet normal -1.41122e-016 -1.63018e-017 1
    outer loop
      vertex -34 6 2.25
      vertex -34.4142 9.58579 2.25
      vertex -45 19.5 2.25
    endloop
  endfacet
  facet normal 0 0 1
    outer loop
      vertex -32 6 2.25
      vertex -30.283 4 2.25
      vertex -30.35 4.25 2.25
    endloop
  endfacet
  facet normal -2.22045e-016 -1.90624e-016 1
    outer loop
      vertex -32 6 2.25
      vertex -34 6 2.25
      vertex -30.283 4 2.25
    endloop
  endfacet
  facet normal -9.92083e-016 -6.89118e-016 1
    outer loop
      vertex -32 9.30902 2.25
      vertex -29.25 5.35 2.25
      vertex -28.7 5.20263 2.25
    endloop
  endfacet
  facet normal -1.19947e-016 -1.19947e-016 1
    outer loop
      vertex -5.28301 4 2.25
      vertex -28.7 5.20263 2.25
      vertex -28.2974 4.8 2.25
    endloop
  endfacet
  facet normal -1.16866e-016 -3.1314e-017 1
    outer loop
      vertex -5.28301 4 2.25
      vertex -28.2974 4.8 2.25
      vertex -28.15 4.25 2.25
    endloop
  endfacet
  facet normal -1.16183e-016 3.11311e-017 1
    outer loop
      vertex -5.28301 4 2.25
      vertex -28.15 4.25 2.25
      vertex -28.217 4 2.25
    endloop
  endfacet
  facet normal -1.32273e-016 -3.54424e-017 1
    outer loop
      vertex -32 16 2.25
      vertex -5.28301 4 2.25
      vertex -5.35 4.25 2.25
    endloop
  endfacet
  facet normal -1.04322e-016 2.79529e-017 1
    outer loop
      vertex -32 16 2.25
      vertex -5.35 4.25 2.25
      vertex -5.20263 4.8 2.25
    endloop
  endfacet
  facet normal -8.18116e-017 8.18116e-017 1
    outer loop
      vertex -32 16 2.25
      vertex -5.20263 4.8 2.25
      vertex -4.8 5.20263 2.25
    endloop
  endfacet
  facet normal -4.60562e-017 1.71884e-016 1
    outer loop
      vertex -32 16 2.25
      vertex -4.8 5.20263 2.25
      vertex -4.25 5.35 2.25
    endloop
  endfacet
  facet normal 2.59131e-016 9.67089e-016 1
    outer loop
      vertex -32 16 2.25
      vertex -4.25 5.35 2.25
      vertex -4 5.28301 2.25
    endloop
  endfacet
  facet normal -1.249e-016 -8.2972e-018 1
    outer loop
      vertex -8.5 19.5 2.25
      vertex -40.5 19.5 2.25
      vertex -4 5.28301 2.25
    endloop
  endfacet
  facet normal -9.86865e-017 0 1
    outer loop
      vertex -4 19.5 2.25
      vertex -8.5 19.5 2.25
      vertex -4 5.28301 2.25
    endloop
  endfacet
  facet normal -9.86865e-017 0 1
    outer loop
      vertex -4 44.5 2.25
      vertex -4 58.717 2.25
      vertex -8.5 44.5 2.25
    endloop
  endfacet
  facet normal -9.65357e-017 -2.58667e-017 1
    outer loop
      vertex -15.5 45.5 2.25
      vertex -34.9845 32.375 2.25
      vertex -34.75 31.5 2.25
    endloop
  endfacet
  facet normal -1.21115e-016 0 1
    outer loop
      vertex -34 12.691 2.25
      vertex -34 16 2.25
      vertex -45 19.5 2.25
    endloop
  endfacet
  facet normal -1.04256e-016 2.79352e-017 1
    outer loop
      vertex -40.5 44.5 2.25
      vertex -38.25 37 2.25
      vertex -38.0155 37.875 2.25
    endloop
  endfacet
  facet normal -4.15824e-017 -4.15824e-017 1
    outer loop
      vertex -35.625 33.0155 2.25
      vertex -34.9845 32.375 2.25
      vertex -26.75 45.5 2.25
    endloop
  endfacet
  facet normal -1.06864e-016 0 1
    outer loop
      vertex -5.28301 60 2.25
      vertex -17.75 60 2.25
      vertex -17.75 55.5 2.25
    endloop
  endfacet
  facet normal -9.86865e-017 -1.06688e-017 1
    outer loop
      vertex -26.75 46.25 2.25
      vertex -31.25 46.25 2.25
      vertex -34.75 37 2.25
    endloop
  endfacet
  facet normal 1.41817e-032 -2.96059e-016 1
    outer loop
      vertex -5.28301 60 2.25
      vertex -17.75 55.5 2.25
      vertex -15.5 55.5 2.25
    endloop
  endfacet
  facet normal -1.25663e-016 8.53862e-018 1
    outer loop
      vertex -8.5 44.5 2.25
      vertex -4 58.717 2.25
      vertex -15.5 45.5 2.25
    endloop
  endfacet
  facet normal 0 -0 1
    outer loop
      vertex -32 9.30902 2.25
      vertex -32 6 2.25
      vertex -30.2026 4.8 2.25
    endloop
  endfacet
  facet normal 0 0 1
    outer loop
      vertex -45 44.5 2.25
      vertex -44.2 58.7974 2.25
      vertex -44.75 58.65 2.25
    endloop
  endfacet
  facet normal -1.42485e-016 -3.81787e-017 1
    outer loop
      vertex -31.25 60 2.25
      vertex -43.717 60 2.25
      vertex -43.65 59.75 2.25
    endloop
  endfacet
  facet normal 0 -0 1
    outer loop
      vertex -38.0155 41.625 2.25
      vertex -38.0155 37.875 2.25
      vertex -37.375 40.9845 2.25
    endloop
  endfacet
  facet normal -1.78747e-016 0 1
    outer loop
      vertex -40.5 44.5 2.25
      vertex -38.0155 37.875 2.25
      vertex -38.0155 41.625 2.25
    endloop
  endfacet
  facet normal -0 0 1
    outer loop
      vertex -44.75 58.65 2.25
      vertex -45 58.717 2.25
      vertex -45 44.5 2.25
    endloop
  endfacet
  facet normal -1.43245e-016 -4.67739e-019 1
    outer loop
      vertex -31.25 60 2.25
      vertex -43.65 59.75 2.25
      vertex -40.5 44.5 2.25
    endloop
  endfacet
  facet normal -1.249e-016 0 1
    outer loop
      vertex -8.5 44.5 2.25
      vertex -40.5 19.5 2.25
      vertex -8.5 19.5 2.25
    endloop
  endfacet
  facet normal -9.86865e-017 8.73618e-018 1
    outer loop
      vertex -45 44.5 2.25
      vertex -40.5 44.5 2.25
      vertex -43.65 59.75 2.25
    endloop
  endfacet
  facet normal -4.45468e-016 2.31619e-016 1
    outer loop
      vertex -36.5 33.25 2.25
      vertex -35.625 33.0155 2.25
      vertex -26.75 46.25 2.25
    endloop
  endfacet
  facet normal -7.42806e-017 -1.99035e-017 1
    outer loop
      vertex -34.9845 37.875 2.25
      vertex -34.75 37 2.25
      vertex -31.25 46.25 2.25
    endloop
  endfacet
  facet normal 0 0 1
    outer loop
      vertex -45 44.5 2.25
      vertex -43.65 59.75 2.25
      vertex -43.7974 59.2 2.25
    endloop
  endfacet
  facet normal -1.00076e-016 0 1
    outer loop
      vertex -26.75 45.5 2.25
      vertex -26.75 46.25 2.25
      vertex -35.625 33.0155 2.25
    endloop
  endfacet
  facet normal -1.60859e-016 4.31022e-017 1
    outer loop
      vertex -26.75 46.25 2.25
      vertex -34.75 37 2.25
      vertex -34.9845 36.125 2.25
    endloop
  endfacet
  facet normal 2.33263e-016 -2.77429e-016 1
    outer loop
      vertex -26.75 46.25 2.25
      vertex -34.9845 36.125 2.25
      vertex -36.5 33.25 2.25
    endloop
  endfacet
  facet normal -1.50316e-016 -1.00438e-016 1
    outer loop
      vertex -31.5858 12.4142 2.25
      vertex -31.1522 11.7654 2.25
      vertex -5.28301 4 2.25
    endloop
  endfacet
  facet normal -1.18424e-016 6.62682e-018 1
    outer loop
      vertex -15.5 45.5 2.25
      vertex -26.75 45.5 2.25
      vertex -34.9845 32.375 2.25
    endloop
  endfacet
  facet normal 5.94968e-017 -2.22045e-016 1
    outer loop
      vertex -37.375 33.0155 2.25
      vertex -36.5 33.25 2.25
      vertex -35.625 35.4845 2.25
    endloop
  endfacet
  facet normal -1.84747e-015 -4.95029e-016 1
    outer loop
      vertex -40.5 44.5 2.25
      vertex -38.0155 36.125 2.25
      vertex -38.25 37 2.25
    endloop
  endfacet
  facet normal -3.66729e-017 -3.66729e-017 1
    outer loop
      vertex -35.625 38.5155 2.25
      vertex -34.9845 37.875 2.25
      vertex -31.25 46.25 2.25
    endloop
  endfacet
  facet normal 9.00839e-017 -9.00839e-017 1
    outer loop
      vertex -38.0155 43.375 2.25
      vertex -37.375 44.0155 2.25
      vertex -31.25 60 2.25
    endloop
  endfacet
  facet normal 0 0 1
    outer loop
      vertex -37.375 38.5155 2.25
      vertex -36.5 38.75 2.25
      vertex -36.5 40.75 2.25
    endloop
  endfacet
  facet normal -5.67027e-016 2.22045e-016 1
    outer loop
      vertex -35.625 35.4845 2.25
      vertex -36.5 35.25 2.25
      vertex -37.375 33.0155 2.25
    endloop
  endfacet
  facet normal 0 0 1
    outer loop
      vertex -45 44.5 2.25
      vertex -43.7974 59.2 2.25
      vertex -44.2 58.7974 2.25
    endloop
  endfacet
  facet normal -1.60336e-016 -3.18927e-017 1
    outer loop
      vertex -34.8478 10.2346 2.25
      vertex -35 11 2.25
      vertex -45 19.5 2.25
    endloop
  endfacet
  facet normal 3.26667e-016 -3.26667e-016 1
    outer loop
      vertex -34.9845 36.125 2.25
      vertex -35.625 35.4845 2.25
      vertex -36.5 33.25 2.25
    endloop
  endfacet
  facet normal -0 0 1
    outer loop
      vertex -36.5 35.25 2.25
      vertex -37.375 35.4845 2.25
      vertex -38.0155 32.375 2.25
    endloop
  endfacet
  facet normal -4.79788e-016 1.03537e-016 1
    outer loop
      vertex -36.5 44.25 2.25
      vertex -35.625 44.0155 2.25
      vertex -31.25 60 2.25
    endloop
  endfacet
  facet normal -2.5908e-016 -6.94204e-017 1
    outer loop
      vertex -38.25 42.5 2.25
      vertex -40.5 44.5 2.25
      vertex -38.0155 41.625 2.25
    endloop
  endfacet
  facet normal -1.59406e-016 4.27128e-017 1
    outer loop
      vertex -38.0155 43.375 2.25
      vertex -40.5 44.5 2.25
      vertex -38.25 42.5 2.25
    endloop
  endfacet
  facet normal 1.65923e-017 -6.1923e-017 1
    outer loop
      vertex -37.375 44.0155 2.25
      vertex -36.5 44.25 2.25
      vertex -31.25 60 2.25
    endloop
  endfacet
  facet normal -1.71361e-016 1.63111e-017 1
    outer loop
      vertex -31.25 60 2.25
      vertex -40.5 44.5 2.25
      vertex -38.0155 43.375 2.25
    endloop
  endfacet
  facet normal -3.36318e-016 -2.2472e-016 1
    outer loop
      vertex -34.4142 9.58579 2.25
      vertex -34.8478 10.2346 2.25
      vertex -45 19.5 2.25
    endloop
  endfacet
  facet normal -5.07531e-016 0 1
    outer loop
      vertex -35.625 40.9845 2.25
      vertex -36.5 40.75 2.25
      vertex -36.5 38.75 2.25
    endloop
  endfacet
  facet normal -4.54091e-016 1.9944e-016 1
    outer loop
      vertex -36.5 38.75 2.25
      vertex -35.625 38.5155 2.25
      vertex -31.25 46.25 2.25
    endloop
  endfacet
  facet normal 3.26667e-016 -3.26667e-016 1
    outer loop
      vertex -34.9845 41.625 2.25
      vertex -35.625 40.9845 2.25
      vertex -36.5 38.75 2.25
    endloop
  endfacet
  facet normal 0 0 1
    outer loop
      vertex -36.5 40.75 2.25
      vertex -38.0155 37.875 2.25
      vertex -37.375 38.5155 2.25
    endloop
  endfacet
  facet normal -1.18917e-016 0 1
    outer loop
      vertex -31.25 46.25 2.25
      vertex -31.25 60 2.25
      vertex -34.9845 43.375 2.25
    endloop
  endfacet
  facet normal -9.85811e-017 -2.64148e-017 1
    outer loop
      vertex -31.25 46.25 2.25
      vertex -34.9845 43.375 2.25
      vertex -34.75 42.5 2.25
    endloop
  endfacet
  facet normal 2.08511e-016 -2.64382e-016 1
    outer loop
      vertex -31.25 46.25 2.25
      vertex -34.9845 41.625 2.25
      vertex -36.5 38.75 2.25
    endloop
  endfacet
  facet normal -1.77978e-016 4.76892e-017 1
    outer loop
      vertex -31.25 46.25 2.25
      vertex -34.75 42.5 2.25
      vertex -34.9845 41.625 2.25
    endloop
  endfacet
  facet normal -1.13959e-016 2.26679e-017 1
    outer loop
      vertex -34.8478 11.7654 2.25
      vertex -45 19.5 2.25
      vertex -35 11 2.25
    endloop
  endfacet
  facet normal -8.69607e-017 5.81052e-017 1
    outer loop
      vertex -34.4142 12.4142 2.25
      vertex -45 19.5 2.25
      vertex -34.8478 11.7654 2.25
    endloop
  endfacet
  facet normal -6.28712e-017 9.40935e-017 1
    outer loop
      vertex -34 12.691 2.25
      vertex -45 19.5 2.25
      vertex -34.4142 12.4142 2.25
    endloop
  endfacet
  facet normal 0 0 1
    outer loop
      vertex -32 9.30902 2.25
      vertex -30.2026 4.8 2.25
      vertex -29.8 5.20263 2.25
    endloop
  endfacet
  facet normal 0 0 1
    outer loop
      vertex -32 9.30902 2.25
      vertex -29.8 5.20263 2.25
      vertex -29.25 5.35 2.25
    endloop
  endfacet
  facet normal -9.86865e-017 7.04904e-017 1
    outer loop
      vertex -40.5 19.5 2.25
      vertex -45 19.5 2.25
      vertex -34 16 2.25
    endloop
  endfacet
  facet normal 4.92022e-016 1.57556e-015 1
    outer loop
      vertex -40.5 19.5 2.25
      vertex -32 16 2.25
      vertex -4 5.28301 2.25
    endloop
  endfacet
  facet normal -2.22045e-016 -1.58603e-016 1
    outer loop
      vertex -40.5 19.5 2.25
      vertex -34 16 2.25
      vertex -32 16 2.25
    endloop
  endfacet
  facet normal -1.16354e-016 0 1
    outer loop
      vertex -32 16 2.25
      vertex -32 12.691 2.25
      vertex -5.28301 4 2.25
    endloop
  endfacet
  facet normal -1.27798e-016 -2.54205e-017 1
    outer loop
      vertex -31.1522 11.7654 2.25
      vertex -31 11 2.25
      vertex -5.28301 4 2.25
    endloop
  endfacet
  facet normal -2.26742e-016 -3.39343e-016 1
    outer loop
      vertex -5.28301 4 2.25
      vertex -32 12.691 2.25
      vertex -31.5858 12.4142 2.25
    endloop
  endfacet
  facet normal -1.1467e-016 2.28092e-017 1
    outer loop
      vertex -31 11 2.25
      vertex -31.1522 10.2346 2.25
      vertex -5.28301 4 2.25
    endloop
  endfacet
  facet normal -1.035e-016 6.91563e-017 1
    outer loop
      vertex -31.1522 10.2346 2.25
      vertex -31.5858 9.58579 2.25
      vertex -5.28301 4 2.25
    endloop
  endfacet
  facet normal -1.12383e-016 2.73264e-017 1
    outer loop
      vertex -5.28301 4 2.25
      vertex -31.5858 9.58579 2.25
      vertex -28.7 5.20263 2.25
    endloop
  endfacet
  facet normal -4.70152e-017 7.03633e-017 1
    outer loop
      vertex -31.5858 9.58579 2.25
      vertex -32 9.30902 2.25
      vertex -28.7 5.20263 2.25
    endloop
  endfacet
  facet normal -0 0 1
    outer loop
      vertex -30.2026 4.8 2.25
      vertex -32 6 2.25
      vertex -30.35 4.25 2.25
    endloop
  endfacet
  facet normal -1.21115e-016 0 1
    outer loop
      vertex -45 19.5 2.25
      vertex -45 4 2.25
      vertex -34 6 2.25
    endloop
  endfacet
  facet normal 0 0 1
    outer loop
      vertex -38.0155 32.375 2.25
      vertex -37.375 33.0155 2.25
      vertex -36.5 35.25 2.25
    endloop
  endfacet
  facet normal -1.43267e-016 3.83882e-017 1
    outer loop
      vertex -15.5 45.5 2.25
      vertex -34.75 31.5 2.25
      vertex -34.9845 30.625 2.25
    endloop
  endfacet
  facet normal -0 0 1
    outer loop
      vertex -36.5 40.75 2.25
      vertex -37.375 40.9845 2.25
      vertex -38.0155 37.875 2.25
    endloop
  endfacet
  facet normal -1.47845e-016 3.96151e-017 1
    outer loop
      vertex -15.5 55.5 2.25
      vertex -5.35 59.75 2.25
      vertex -5.28301 60 2.25
    endloop
  endfacet
  facet normal -1.18017e-016 -3.16225e-017 1
    outer loop
      vertex -15.5 55.5 2.25
      vertex -5.20263 59.2 2.25
      vertex -5.35 59.75 2.25
    endloop
  endfacet
  facet normal -9.51798e-017 -9.51798e-017 1
    outer loop
      vertex -15.5 55.5 2.25
      vertex -4.8 58.7974 2.25
      vertex -5.20263 59.2 2.25
    endloop
  endfacet
  facet normal -5.79097e-017 -2.16122e-016 1
    outer loop
      vertex -15.5 55.5 2.25
      vertex -4.25 58.65 2.25
      vertex -4.8 58.7974 2.25
    endloop
  endfacet
  facet normal 2.63312e-015 -9.82696e-015 1
    outer loop
      vertex -15.5 55.5 2.25
      vertex -4 58.717 2.25
      vertex -4.25 58.65 2.25
    endloop
  endfacet
  facet normal -1.15849e-016 0 1
    outer loop
      vertex -15.5 55.5 2.25
      vertex -15.5 45.5 2.25
      vertex -4 58.717 2.25
    endloop
  endfacet
  facet normal 0 -0 1
    outer loop
      vertex -38.0155 36.125 2.25
      vertex -38.0155 32.375 2.25
      vertex -37.375 35.4845 2.25
    endloop
  endfacet
  facet normal -1.78747e-016 0 1
    outer loop
      vertex -40.5 44.5 2.25
      vertex -38.0155 32.375 2.25
      vertex -38.0155 36.125 2.25
    endloop
  endfacet
  facet normal -7.74572e-017 2.07546e-017 1
    outer loop
      vertex -40.5 44.5 2.25
      vertex -38.25 31.5 2.25
      vertex -38.0155 32.375 2.25
    endloop
  endfacet
  facet normal -2.18124e-017 -2.18124e-017 1
    outer loop
      vertex -35.625 44.0155 2.25
      vertex -34.9845 43.375 2.25
      vertex -31.25 60 2.25
    endloop
  endfacet
  facet normal -4.81715e-016 4.81715e-016 1
    outer loop
      vertex -35.625 29.9845 2.25
      vertex -15.5 45.5 2.25
      vertex -34.9845 30.625 2.25
    endloop
  endfacet
  facet normal -1.24295e-016 1.81108e-017 1
    outer loop
      vertex -35.625 29.9845 2.25
      vertex -8.5 44.5 2.25
      vertex -15.5 45.5 2.25
    endloop
  endfacet
  facet normal -9.22158e-017 -4.18359e-017 1
    outer loop
      vertex -35.625 29.9845 2.25
      vertex -40.5 19.5 2.25
      vertex -8.5 44.5 2.25
    endloop
  endfacet
  facet normal -5.53833e-016 1.72804e-016 1
    outer loop
      vertex -36.5 29.75 2.25
      vertex -40.5 19.5 2.25
      vertex -35.625 29.9845 2.25
    endloop
  endfacet
  facet normal -1.05101e-017 -3.92243e-017 1
    outer loop
      vertex -37.375 29.9845 2.25
      vertex -40.5 19.5 2.25
      vertex -36.5 29.75 2.25
    endloop
  endfacet
  facet normal -3.26309e-017 -3.26309e-017 1
    outer loop
      vertex -38.0155 30.625 2.25
      vertex -40.5 19.5 2.25
      vertex -37.375 29.9845 2.25
    endloop
  endfacet
  facet normal -8.12547e-017 -2.17722e-017 1
    outer loop
      vertex -38.25 31.5 2.25
      vertex -40.5 19.5 2.25
      vertex -38.0155 30.625 2.25
    endloop
  endfacet
  facet normal -1.97373e-016 0 1
    outer loop
      vertex -40.5 44.5 2.25
      vertex -40.5 19.5 2.25
      vertex -38.25 31.5 2.25
    endloop
  endfacet
  facet normal 0 -1 0
    outer loop
      vertex -30.283 4 2.25
      vertex -45 4 2.25
      vertex -45 4 -5.51073e-015
    endloop
  endfacet
  facet normal 0 -1 -0
    outer loop
      vertex -30.508 4 0.75
      vertex -30.283 4 2.25
      vertex -31.183 4 -3.81869e-015
    endloop
  endfacet
  facet normal 0 -1 -0
    outer loop
      vertex -31.183 4 -3.81869e-015
      vertex -30.283 4 2.25
      vertex -45 4 -5.51073e-015
    endloop
  endfacet
  facet normal 0 -1 0
    outer loop
      vertex -30.283 4 1
      vertex -30.283 4 2.25
      vertex -30.508 4 0.75
    endloop
  endfacet
  facet normal 1.22461e-016 0 -1
    outer loop
      vertex -45 4 -5.51073e-015
      vertex -45 19.5 -5.51073e-015
      vertex -31.183 4 -3.81869e-015
    endloop
  endfacet
  facet normal 1.22461e-016 -5.60138e-032 -1
    outer loop
      vertex -31.183 4 -3.81869e-015
      vertex -45 19.5 -5.51073e-015
      vertex -40.5 19.5 -4.95966e-015
    endloop
  endfacet
  facet normal 1.22461e-016 0 -1
    outer loop
      vertex -38.25 31.5 -4.68412e-015
      vertex -40.5 19.5 -4.95966e-015
      vertex -40.5 44.5 -4.95966e-015
    endloop
  endfacet
  facet normal 1.22461e-016 0 -1
    outer loop
      vertex -40.5 44.5 -4.95966e-015
      vertex -45 44.5 -5.51073e-015
      vertex -45 57.817 -5.51073e-015
    endloop
  endfacet
  facet normal 1.22461e-016 -2.45437e-032 -1
    outer loop
      vertex -40.5 44.5 -4.95966e-015
      vertex -45 57.817 -5.51073e-015
      vertex -44.75 57.75 -5.48011e-015
    endloop
  endfacet
  facet normal 1.22461e-016 1.0032e-033 -1
    outer loop
      vertex -40.5 44.5 -4.95966e-015
      vertex -44.75 57.75 -5.48011e-015
      vertex -43.75 58.0179 -5.35765e-015
    endloop
  endfacet
  facet normal 1.22461e-016 2.49708e-031 -1
    outer loop
      vertex -43.75 58.0179 -5.35765e-015
      vertex -43.0179 58.75 -5.26801e-015
      vertex -40.5 44.5 -4.95966e-015
    endloop
  endfacet
  facet normal 1.22461e-016 9.56157e-031 -1
    outer loop
      vertex -38.0155 32.375 -4.65541e-015
      vertex -40.5 44.5 -4.95966e-015
      vertex -43.0179 58.75 -5.26801e-015
    endloop
  endfacet
  facet normal 1.22461e-016 5.03235e-030 -1
    outer loop
      vertex -42.75 59.75 -5.23519e-015
      vertex -42.817 60 -5.2434e-015
      vertex -31.25 60 -3.82689e-015
    endloop
  endfacet
  facet normal 1.22461e-016 0 -1
    outer loop
      vertex -42.75 59.75 -5.23519e-015
      vertex -31.25 60 -3.82689e-015
      vertex -31.25 46.25 -3.82689e-015
    endloop
  endfacet
  facet normal 1.22461e-016 0 -1
    outer loop
      vertex -17.75 46.25 -2.17368e-015
      vertex -17.75 60 -2.17368e-015
      vertex -6.18301 60 -7.57176e-016
    endloop
  endfacet
  facet normal 1.22461e-016 -1.88707e-032 -1
    outer loop
      vertex -30.9821 5.25 -3.79408e-015
      vertex -17.75 46.25 -2.17368e-015
      vertex -6.18301 60 -7.57176e-016
    endloop
  endfacet
  facet normal 1.22461e-016 -3.04576e-031 -1
    outer loop
      vertex -30.9821 5.25 -3.79408e-015
      vertex -6.18301 60 -7.57176e-016
      vertex -6.25 59.75 -7.65379e-016
    endloop
  endfacet
  facet normal 1.22461e-016 2.19393e-031 -1
    outer loop
      vertex -30.9821 5.25 -3.79408e-015
      vertex -6.25 59.75 -7.65379e-016
      vertex -5.98205 58.75 -7.32566e-016
    endloop
  endfacet
  facet normal 1.22461e-016 0 -1
    outer loop
      vertex -8.5 44.5 -1.04092e-015
      vertex -4 57.817 -4.89843e-016
      vertex -4 44.5 -4.89843e-016
    endloop
  endfacet
  facet normal 1.22461e-016 3.41619e-031 -1
    outer loop
      vertex -30.9821 5.25 -3.79408e-015
      vertex -5.98205 58.75 -7.32566e-016
      vertex -30.25 5.98205 -3.70443e-015
    endloop
  endfacet
  facet normal 1.22461e-016 -4.22403e-032 -1
    outer loop
      vertex -28.25 5.98205 -3.45951e-015
      vertex -8.5 19.5 -1.04092e-015
      vertex -4 19.5 -4.89843e-016
    endloop
  endfacet
  facet normal 1.22461e-016 0 -1
    outer loop
      vertex -4.25 6.25 -5.20458e-016
      vertex -4 19.5 -4.89843e-016
      vertex -4 6.18301 -4.89843e-016
    endloop
  endfacet
  facet normal 1.22461e-016 2.4854e-032 -1
    outer loop
      vertex -27.5179 5.25 -3.36987e-015
      vertex -4 19.5 -4.89843e-016
      vertex -4.25 6.25 -5.20458e-016
    endloop
  endfacet
  facet normal 1.22461e-016 -1.73583e-030 -1
    outer loop
      vertex -27.25 4.25 -3.33705e-015
      vertex -6.25 4.25 -7.65379e-016
      vertex -27.317 4 -3.34526e-015
    endloop
  endfacet
  facet normal 1.22461e-016 8.45221e-032 -1
    outer loop
      vertex -27.25 4.25 -3.33705e-015
      vertex -5.98205 5.25 -7.32566e-016
      vertex -6.25 4.25 -7.65379e-016
    endloop
  endfacet
  facet normal 1.22461e-016 7.04822e-031 -1
    outer loop
      vertex -27.25 4.25 -3.33705e-015
      vertex -5.25 5.98205 -6.42918e-016
      vertex -5.98205 5.25 -7.32566e-016
    endloop
  endfacet
  facet normal 1.22461e-016 5.4086e-031 -1
    outer loop
      vertex -27.5179 5.25 -3.36987e-015
      vertex -5.25 5.98205 -6.42918e-016
      vertex -27.25 4.25 -3.33705e-015
    endloop
  endfacet
  facet normal 1.22461e-016 -2.79406e-031 -1
    outer loop
      vertex -6.25 4.25 -7.65379e-016
      vertex -6.18301 4 -7.57176e-016
      vertex -27.317 4 -3.34526e-015
    endloop
  endfacet
  facet normal 1.22461e-016 8.31392e-032 -1
    outer loop
      vertex -30.25 5.98205 -3.70443e-015
      vertex -4 57.817 -4.89843e-016
      vertex -8.5 44.5 -1.04092e-015
    endloop
  endfacet
  facet normal 1.22461e-016 -6.57333e-031 -1
    outer loop
      vertex -27.5179 5.25 -3.36987e-015
      vertex -4.25 6.25 -5.20458e-016
      vertex -5.25 5.98205 -6.42918e-016
    endloop
  endfacet
  facet normal 1.22461e-016 -4.6285e-031 -1
    outer loop
      vertex -28.25 5.98205 -3.45951e-015
      vertex -4 19.5 -4.89843e-016
      vertex -27.5179 5.25 -3.36987e-015
    endloop
  endfacet
  facet normal 1.22461e-016 -7.50773e-032 -1
    outer loop
      vertex -30.25 5.98205 -3.70443e-015
      vertex -4.25 57.75 -5.20458e-016
      vertex -4 57.817 -4.89843e-016
    endloop
  endfacet
  facet normal 1.22461e-016 -6.35442e-033 -1
    outer loop
      vertex -29.25 6.25 -3.58197e-015
      vertex -8.5 19.5 -1.04092e-015
      vertex -28.25 5.98205 -3.45951e-015
    endloop
  endfacet
  facet normal 1.22461e-016 1.05435e-032 -1
    outer loop
      vertex -30.25 5.98205 -3.70443e-015
      vertex -5.25 58.0179 -6.42918e-016
      vertex -4.25 57.75 -5.20458e-016
    endloop
  endfacet
  facet normal 1.22461e-016 3.71409e-032 -1
    outer loop
      vertex -5.98205 58.75 -7.32566e-016
      vertex -5.25 58.0179 -6.42918e-016
      vertex -30.25 5.98205 -3.70443e-015
    endloop
  endfacet
  facet normal 1.22461e-016 4.04684e-031 -1
    outer loop
      vertex -34.9845 32.375 -4.28422e-015
      vertex -31.25 46.25 -3.82689e-015
      vertex -34.75 31.5 -4.25551e-015
    endloop
  endfacet
  facet normal 1.22461e-016 0 -1
    outer loop
      vertex -8.5 19.5 -1.04092e-015
      vertex -29.25 6.25 -3.58197e-015
      vertex -8.5 44.5 -1.04092e-015
    endloop
  endfacet
  facet normal 1.22461e-016 -2.8171e-030 -1
    outer loop
      vertex -31.183 4 -3.81869e-015
      vertex -40.5 19.5 -4.95966e-015
      vertex -31.25 4.25 -3.82689e-015
    endloop
  endfacet
  facet normal 1.22461e-016 4.20424e-031 -1
    outer loop
      vertex -38.25 31.5 -4.68412e-015
      vertex -40.5 44.5 -4.95966e-015
      vertex -38.0155 32.375 -4.65541e-015
    endloop
  endfacet
  facet normal 1.22461e-016 -9.18047e-033 -1
    outer loop
      vertex -31.25 4.25 -3.82689e-015
      vertex -40.5 19.5 -4.95966e-015
      vertex -38.25 31.5 -4.68412e-015
    endloop
  endfacet
  facet normal 1.22461e-016 -1.99546e-032 -1
    outer loop
      vertex -36.5 29.75 -4.46981e-015
      vertex -31.25 4.25 -3.82689e-015
      vertex -37.375 29.9845 -4.57697e-015
    endloop
  endfacet
  facet normal 1.22461e-016 2.64498e-029 -1
    outer loop
      vertex -31.25 4.25 -3.82689e-015
      vertex -38.25 31.5 -4.68412e-015
      vertex -38.0155 30.625 -4.65541e-015
    endloop
  endfacet
  facet normal 1.22461e-016 4.54129e-031 -1
    outer loop
      vertex -38.25 37 -4.68412e-015
      vertex -42.75 59.75 -5.23519e-015
      vertex -38.0155 37.875 -4.65541e-015
    endloop
  endfacet
  facet normal 1.22461e-016 -4.56356e-031 -1
    outer loop
      vertex -31.25 4.25 -3.82689e-015
      vertex -38.0155 30.625 -4.65541e-015
      vertex -37.375 29.9845 -4.57697e-015
    endloop
  endfacet
  facet normal 1.22461e-016 0 -1
    outer loop
      vertex -37.375 38.5155 -4.57697e-015
      vertex -37.375 40.9845 -4.57697e-015
      vertex -36.5 38.75 -4.46981e-015
    endloop
  endfacet
  facet normal 1.22461e-016 -2.56899e-031 -1
    outer loop
      vertex -35.625 33.0155 -4.36266e-015
      vertex -31.25 46.25 -3.82689e-015
      vertex -34.9845 32.375 -4.28422e-015
    endloop
  endfacet
  facet normal 1.22461e-016 0 -1
    outer loop
      vertex -37.375 33.0155 -4.57697e-015
      vertex -37.375 35.4845 -4.57697e-015
      vertex -36.5 33.25 -4.46981e-015
    endloop
  endfacet
  facet normal 1.22461e-016 0 -1
    outer loop
      vertex -36.5 35.25 -4.46981e-015
      vertex -36.5 33.25 -4.46981e-015
      vertex -37.375 35.4845 -4.57697e-015
    endloop
  endfacet
  facet normal 1.22461e-016 5.6466e-031 -1
    outer loop
      vertex -34.9845 36.125 -4.28422e-015
      vertex -31.25 46.25 -3.82689e-015
      vertex -35.625 33.0155 -4.36266e-015
    endloop
  endfacet
  facet normal 1.22461e-016 0 -1
    outer loop
      vertex -36.5 35.25 -4.46981e-015
      vertex -35.625 33.0155 -4.36266e-015
      vertex -36.5 33.25 -4.46981e-015
    endloop
  endfacet
  facet normal 1.22461e-016 -3.74077e-031 -1
    outer loop
      vertex -38.0155 43.375 -4.65541e-015
      vertex -42.75 59.75 -5.23519e-015
      vertex -37.375 44.0155 -4.57697e-015
    endloop
  endfacet
  facet normal 1.22461e-016 4.86692e-030 -1
    outer loop
      vertex -38.0155 36.125 -4.65541e-015
      vertex -37.375 33.0155 -4.57697e-015
      vertex -38.25 37 -4.68412e-015
    endloop
  endfacet
  facet normal 1.22461e-016 -4.42385e-031 -1
    outer loop
      vertex -38.25 37 -4.68412e-015
      vertex -43.0179 58.75 -5.26801e-015
      vertex -42.75 59.75 -5.23519e-015
    endloop
  endfacet
  facet normal 1.22461e-016 0 -1
    outer loop
      vertex -37.375 35.4845 -4.57697e-015
      vertex -37.375 33.0155 -4.57697e-015
      vertex -38.0155 36.125 -4.65541e-015
    endloop
  endfacet
  facet normal 1.22461e-016 -2.62725e-031 -1
    outer loop
      vertex -38.0155 32.375 -4.65541e-015
      vertex -38.25 37 -4.68412e-015
      vertex -37.375 33.0155 -4.57697e-015
    endloop
  endfacet
  facet normal 1.22461e-016 0 -1
    outer loop
      vertex -35.625 35.4845 -4.36266e-015
      vertex -35.625 33.0155 -4.36266e-015
      vertex -36.5 35.25 -4.46981e-015
    endloop
  endfacet
  facet normal 1.22461e-016 -1.54882e-032 -1
    outer loop
      vertex -37.375 38.5155 -4.57697e-015
      vertex -42.75 59.75 -5.23519e-015
      vertex -38.25 42.5 -4.68412e-015
    endloop
  endfacet
  facet normal 1.22461e-016 5.047e-031 -1
    outer loop
      vertex -34.9845 37.875 -4.28422e-015
      vertex -31.25 46.25 -3.82689e-015
      vertex -34.75 37 -4.25551e-015
    endloop
  endfacet
  facet normal 1.22461e-016 -2.94358e-030 -1
    outer loop
      vertex -34.75 37 -4.25551e-015
      vertex -31.25 46.25 -3.82689e-015
      vertex -34.9845 36.125 -4.28422e-015
    endloop
  endfacet
  facet normal 1.22461e-016 0 -1
    outer loop
      vertex -35.625 35.4845 -4.36266e-015
      vertex -34.9845 36.125 -4.28422e-015
      vertex -35.625 33.0155 -4.36266e-015
    endloop
  endfacet
  facet normal 1.22461e-016 4.9253e-030 -1
    outer loop
      vertex -37.375 38.5155 -4.57697e-015
      vertex -38.25 42.5 -4.68412e-015
      vertex -38.0155 41.625 -4.65541e-015
    endloop
  endfacet
  facet normal 1.22461e-016 0 -1
    outer loop
      vertex -34.9845 41.625 -4.28422e-015
      vertex -31.25 46.25 -3.82689e-015
      vertex -34.9845 37.875 -4.28422e-015
    endloop
  endfacet
  facet normal 1.22461e-016 0 -1
    outer loop
      vertex -36.5 40.75 -4.46981e-015
      vertex -35.625 38.5155 -4.36266e-015
      vertex -36.5 38.75 -4.46981e-015
    endloop
  endfacet
  facet normal 1.22461e-016 -2.92696e-031 -1
    outer loop
      vertex -38.0155 37.875 -4.65541e-015
      vertex -42.75 59.75 -5.23519e-015
      vertex -37.375 38.5155 -4.57697e-015
    endloop
  endfacet
  facet normal 1.22461e-016 0 -1
    outer loop
      vertex -36.5 40.75 -4.46981e-015
      vertex -36.5 38.75 -4.46981e-015
      vertex -37.375 40.9845 -4.57697e-015
    endloop
  endfacet
  facet normal 1.22461e-016 5.25327e-031 -1
    outer loop
      vertex -38.25 42.5 -4.68412e-015
      vertex -42.75 59.75 -5.23519e-015
      vertex -38.0155 43.375 -4.65541e-015
    endloop
  endfacet
  facet normal 1.22461e-016 -2.75695e-031 -1
    outer loop
      vertex -38.0155 32.375 -4.65541e-015
      vertex -43.0179 58.75 -5.26801e-015
      vertex -38.25 37 -4.68412e-015
    endloop
  endfacet
  facet normal 1.22461e-016 0 -1
    outer loop
      vertex -37.375 38.5155 -4.57697e-015
      vertex -38.0155 41.625 -4.65541e-015
      vertex -37.375 40.9845 -4.57697e-015
    endloop
  endfacet
  facet normal 1.22461e-016 0 -1
    outer loop
      vertex -35.625 40.9845 -4.36266e-015
      vertex -35.625 38.5155 -4.36266e-015
      vertex -36.5 40.75 -4.46981e-015
    endloop
  endfacet
  facet normal 1.22461e-016 0 -1
    outer loop
      vertex -35.625 40.9845 -4.36266e-015
      vertex -34.9845 37.875 -4.28422e-015
      vertex -35.625 38.5155 -4.36266e-015
    endloop
  endfacet
  facet normal 1.22461e-016 9.33768e-031 -1
    outer loop
      vertex -35.625 44.0155 -4.36266e-015
      vertex -42.75 59.75 -5.23519e-015
      vertex -34.9845 43.375 -4.28422e-015
    endloop
  endfacet
  facet normal 1.22461e-016 -1.20949e-030 -1
    outer loop
      vertex -34.75 42.5 -4.25551e-015
      vertex -31.25 46.25 -3.82689e-015
      vertex -34.9845 41.625 -4.28422e-015
    endloop
  endfacet
  facet normal 1.22461e-016 0 -1
    outer loop
      vertex -35.625 40.9845 -4.36266e-015
      vertex -34.9845 41.625 -4.28422e-015
      vertex -34.9845 37.875 -4.28422e-015
    endloop
  endfacet
  facet normal 1.22461e-016 6.71746e-031 -1
    outer loop
      vertex -34.9845 43.375 -4.28422e-015
      vertex -31.25 46.25 -3.82689e-015
      vertex -34.75 42.5 -4.25551e-015
    endloop
  endfacet
  facet normal 1.22461e-016 -5.98817e-032 -1
    outer loop
      vertex -42.75 59.75 -5.23519e-015
      vertex -31.25 46.25 -3.82689e-015
      vertex -34.9845 43.375 -4.28422e-015
    endloop
  endfacet
  facet normal 1.22461e-016 -5.76315e-034 -1
    outer loop
      vertex -37.375 44.0155 -4.57697e-015
      vertex -42.75 59.75 -5.23519e-015
      vertex -36.5 44.25 -4.46981e-015
    endloop
  endfacet
  facet normal 1.22461e-016 5.45035e-032 -1
    outer loop
      vertex -42.75 59.75 -5.23519e-015
      vertex -35.625 44.0155 -4.36266e-015
      vertex -36.5 44.25 -4.46981e-015
    endloop
  endfacet
  facet normal 1.22461e-016 -8.94733e-033 -1
    outer loop
      vertex -17.75 46.25 -2.17368e-015
      vertex -30.9821 5.25 -3.79408e-015
      vertex -31.25 46.25 -3.82689e-015
    endloop
  endfacet
  facet normal 1.22461e-016 2.50957e-033 -1
    outer loop
      vertex -30.25 5.98205 -3.70443e-015
      vertex -8.5 44.5 -1.04092e-015
      vertex -29.25 6.25 -3.58197e-015
    endloop
  endfacet
  facet normal 1.22461e-016 -1.3311e-032 -1
    outer loop
      vertex -31.25 4.25 -3.82689e-015
      vertex -36.5 29.75 -4.46981e-015
      vertex -35.625 29.9845 -4.36266e-015
    endloop
  endfacet
  facet normal 1.22461e-016 1.52575e-031 -1
    outer loop
      vertex -31.25 4.25 -3.82689e-015
      vertex -35.625 29.9845 -4.36266e-015
      vertex -34.9845 30.625 -4.28422e-015
    endloop
  endfacet
  facet normal 1.22461e-016 -2.89238e-031 -1
    outer loop
      vertex -31.25 4.25 -3.82689e-015
      vertex -34.9845 30.625 -4.28422e-015
      vertex -34.75 31.5 -4.25551e-015
    endloop
  endfacet
  facet normal 1.22461e-016 0 -1
    outer loop
      vertex -31.25 4.25 -3.82689e-015
      vertex -34.75 31.5 -4.25551e-015
      vertex -31.25 46.25 -3.82689e-015
    endloop
  endfacet
  facet normal 1.22461e-016 0 -1
    outer loop
      vertex -31.25 4.25 -3.82689e-015
      vertex -31.25 46.25 -3.82689e-015
      vertex -30.9821 5.25 -3.79408e-015
    endloop
  endfacet
  facet normal -0 1 0
    outer loop
      vertex -40.5 19.5 -4.95966e-015
      vertex -45 19.5 -5.51073e-015
      vertex -40.5 19.5 2.25
    endloop
  endfacet
  facet normal 0 1 0
    outer loop
      vertex -40.5 19.5 2.25
      vertex -45 19.5 -5.51073e-015
      vertex -45 19.5 2.25
    endloop
  endfacet
  facet normal -1 0 -3.15797e-015
    outer loop
      vertex -40.5 44.5 -4.95966e-015
      vertex -40.5 19.5 -4.95966e-015
      vertex -40.5 44.5 2.25
    endloop
  endfacet
  facet normal -1 0 -3.15797e-015
    outer loop
      vertex -40.5 44.5 2.25
      vertex -40.5 19.5 -4.95966e-015
      vertex -40.5 19.5 2.25
    endloop
  endfacet
  facet normal 0 -1 0
    outer loop
      vertex -45 44.5 -5.51073e-015
      vertex -40.5 44.5 -4.95966e-015
      vertex -40.5 44.5 2.25
    endloop
  endfacet
  facet normal -0 -1 0
    outer loop
      vertex -45 44.5 2.25
      vertex -45 44.5 -5.51073e-015
      vertex -40.5 44.5 2.25
    endloop
  endfacet
  facet normal -1 -0 -3.15797e-015
    outer loop
      vertex -45 44.5 2.25
      vertex -45 58.717 2.25
      vertex -45 44.5 -5.51073e-015
    endloop
  endfacet
  facet normal -1 3.99827e-016 -5.68434e-015
    outer loop
      vertex -45 44.5 -5.51073e-015
      vertex -45 58.717 2.25
      vertex -45 58.717 1
    endloop
  endfacet
  facet normal -1 0 0
    outer loop
      vertex -45 44.5 -5.51073e-015
      vertex -45 58.717 1
      vertex -45 58.2261 0.454545
    endloop
  endfacet
  facet normal -1 -0 0
    outer loop
      vertex -45 44.5 -5.51073e-015
      vertex -45 58.2261 0.454545
      vertex -45 57.817 -5.51073e-015
    endloop
  endfacet
  facet normal 0.258819 0.965926 1.47122e-015
    outer loop
      vertex -44.75 58.65 1
      vertex -45 58.717 1
      vertex -44.75 58.65 2.25
    endloop
  endfacet
  facet normal 0.258819 0.965926 1.47265e-015
    outer loop
      vertex -44.75 58.65 2.25
      vertex -45 58.717 1
      vertex -45 58.717 2.25
    endloop
  endfacet
  facet normal -0.258819 0.965926 0
    outer loop
      vertex -44.2 58.7974 1
      vertex -44.75 58.65 1
      vertex -44.2 58.7974 2.25
    endloop
  endfacet
  facet normal -0.258819 0.965926 -1.47983e-015
    outer loop
      vertex -44.2 58.7974 2.25
      vertex -44.75 58.65 1
      vertex -44.75 58.65 2.25
    endloop
  endfacet
  facet normal -0.707107 0.707107 0
    outer loop
      vertex -43.7974 59.2 1
      vertex -44.2 58.7974 1
      vertex -43.7974 59.2 2.25
    endloop
  endfacet
  facet normal -0.707107 0.707107 0
    outer loop
      vertex -43.7974 59.2 2.25
      vertex -44.2 58.7974 1
      vertex -44.2 58.7974 2.25
    endloop
  endfacet
  facet normal -0.965926 0.258819 0
    outer loop
      vertex -43.65 59.75 1
      vertex -43.7974 59.2 1
      vertex -43.65 59.75 2.25
    endloop
  endfacet
  facet normal -0.965926 0.258819 0
    outer loop
      vertex -43.65 59.75 2.25
      vertex -43.7974 59.2 1
      vertex -43.7974 59.2 2.25
    endloop
  endfacet
  facet normal -0.965926 -0.258819 -0
    outer loop
      vertex -43.65 59.75 1
      vertex -43.65 59.75 2.25
      vertex -43.717 60 1
    endloop
  endfacet
  facet normal -0.965926 -0.258819 -0
    outer loop
      vertex -43.717 60 1
      vertex -43.65 59.75 2.25
      vertex -43.717 60 2.25
    endloop
  endfacet
  facet normal 0 1 -0
    outer loop
      vertex -43.717 60 2.25
      vertex -31.25 60 2.25
      vertex -43.717 60 1
    endloop
  endfacet
  facet normal 0 1 0
    outer loop
      vertex -43.717 60 1
      vertex -31.25 60 2.25
      vertex -31.25 60 -3.82689e-015
    endloop
  endfacet
  facet normal 0 1 0
    outer loop
      vertex -43.492 60 0.75
      vertex -31.25 60 -3.82689e-015
      vertex -42.817 60 -5.2434e-015
    endloop
  endfacet
  facet normal 0 1 0
    outer loop
      vertex -43.717 60 1
      vertex -31.25 60 -3.82689e-015
      vertex -43.492 60 0.75
    endloop
  endfacet
  facet normal 1 0 1.57898e-015
    outer loop
      vertex -31.25 46.25 -3.82689e-015
      vertex -31.25 60 -3.82689e-015
      vertex -31.25 60 2.25
    endloop
  endfacet
  facet normal 1 0 1.57898e-015
    outer loop
      vertex -31.25 46.25 2.25
      vertex -31.25 46.25 -3.82689e-015
      vertex -31.25 60 2.25
    endloop
  endfacet
  facet normal 0 2.4152e-016 0
    outer loop
      vertex -26.75 46.25 0
      vertex -17.75 46.25 0
      vertex -17.75 46.25 -2.17368e-015
    endloop
  endfacet
  facet normal 0 5.4597e-016 -0
    outer loop
      vertex -26.75 46.25 0
      vertex -17.75 46.25 -2.17368e-015
      vertex -31.25 46.25 -3.82689e-015
    endloop
  endfacet
  facet normal -0 1 0
    outer loop
      vertex -26.75 46.25 0
      vertex -31.25 46.25 -3.82689e-015
      vertex -26.75 46.25 2.25
    endloop
  endfacet
  facet normal 0 1 0
    outer loop
      vertex -31.25 46.25 -3.82689e-015
      vertex -31.25 46.25 2.25
      vertex -26.75 46.25 2.25
    endloop
  endfacet
  facet normal -1 -0 -0
    outer loop
      vertex -26.75 45.5 2.25
      vertex -26.75 45.5 4.5
      vertex -26.75 46.25 2.25
    endloop
  endfacet
  facet normal -1 0 -0
    outer loop
      vertex -26.75 46.25 2.25
      vertex -26.75 45.5 4.5
      vertex -26.75 52.0883 4.5
    endloop
  endfacet
  facet normal -1 -0 0
    outer loop
      vertex -26.75 46.25 2.25
      vertex -26.75 52.0883 4.5
      vertex -26.75 52.0883 0
    endloop
  endfacet
  facet normal -1 0 0
    outer loop
      vertex -26.75 46.25 2.25
      vertex -26.75 52.0883 0
      vertex -26.75 46.25 0
    endloop
  endfacet
  facet normal 0 -1 0
    outer loop
      vertex -26.75 45.5 4.5
      vertex -26.75 45.5 2.25
      vertex -15.5 45.5 2.25
    endloop
  endfacet
  facet normal 0 -1 0
    outer loop
      vertex -15.5 45.5 4.5
      vertex -26.75 45.5 4.5
      vertex -15.5 45.5 2.25
    endloop
  endfacet
  facet normal 1 0 -0
    outer loop
      vertex -15.5 45.5 4.5
      vertex -15.5 45.5 2.25
      vertex -15.5 55.5 2.25
    endloop
  endfacet
  facet normal 1 0 0
    outer loop
      vertex -15.5 55.5 4.5
      vertex -15.5 45.5 4.5
      vertex -15.5 55.5 2.25
    endloop
  endfacet
  facet normal 0 1 0
    outer loop
      vertex -26.75 55.5 0
      vertex -26.75 55.5 4.5
      vertex -17.75 55.5 0
    endloop
  endfacet
  facet normal 0 1 0
    outer loop
      vertex -17.75 55.5 2.25
      vertex -26.75 55.5 4.5
      vertex -15.5 55.5 4.5
    endloop
  endfacet
  facet normal 0 1 0
    outer loop
      vertex -17.75 55.5 0
      vertex -26.75 55.5 4.5
      vertex -17.75 55.5 2.25
    endloop
  endfacet
  facet normal 0 1 0
    outer loop
      vertex -17.75 55.5 2.25
      vertex -15.5 55.5 4.5
      vertex -15.5 55.5 2.25
    endloop
  endfacet
  facet normal -1 -0 -1.57898e-015
    outer loop
      vertex -17.75 55.5 2.25
      vertex -17.75 60 2.25
      vertex -17.75 55.5 0
    endloop
  endfacet
  facet normal -1.58086e-016 0 0
    outer loop
      vertex -17.75 60 -2.17368e-015
      vertex -17.75 46.25 -2.17368e-015
      vertex -17.75 55.5 0
    endloop
  endfacet
  facet normal -1 -7.62711e-031 -1.57898e-015
    outer loop
      vertex -17.75 60 -2.17368e-015
      vertex -17.75 55.5 0
      vertex -17.75 60 2.25
    endloop
  endfacet
  facet normal -2.34992e-016 0 0
    outer loop
      vertex -17.75 55.5 0
      vertex -17.75 46.25 -2.17368e-015
      vertex -17.75 46.25 0
    endloop
  endfacet
  facet normal 0 1 0
    outer loop
      vertex -17.75 60 2.25
      vertex -5.28301 60 2.25
      vertex -17.75 60 -2.17368e-015
    endloop
  endfacet
  facet normal 0 1 0
    outer loop
      vertex -17.75 60 -2.17368e-015
      vertex -5.28301 60 2.25
      vertex -5.28301 60 1
    endloop
  endfacet
  facet normal 0 1 0
    outer loop
      vertex -17.75 60 -2.17368e-015
      vertex -5.28301 60 1
      vertex -5.77392 60 0.454545
    endloop
  endfacet
  facet normal 0 1 0
    outer loop
      vertex -17.75 60 -2.17368e-015
      vertex -5.77392 60 0.454545
      vertex -6.18301 60 -7.57176e-016
    endloop
  endfacet
  facet normal 0.965926 -0.258819 0
    outer loop
      vertex -5.35 59.75 1
      vertex -5.28301 60 1
      vertex -5.28301 60 2.25
    endloop
  endfacet
  facet normal 0.965926 -0.258819 0
    outer loop
      vertex -5.35 59.75 2.25
      vertex -5.35 59.75 1
      vertex -5.28301 60 2.25
    endloop
  endfacet
  facet normal 0.965926 0.258819 6.86332e-016
    outer loop
      vertex -5.20263 59.2 2.25
      vertex -5.20263 59.2 1
      vertex -5.35 59.75 1
    endloop
  endfacet
  facet normal 0.965926 0.258819 -0
    outer loop
      vertex -5.35 59.75 2.25
      vertex -5.20263 59.2 2.25
      vertex -5.35 59.75 1
    endloop
  endfacet
  facet normal 0.707107 0.707107 5.0243e-016
    outer loop
      vertex -4.8 58.7974 1
      vertex -5.20263 59.2 1
      vertex -4.8 58.7974 2.25
    endloop
  endfacet
  facet normal 0.707107 0.707107 5.10286e-016
    outer loop
      vertex -4.8 58.7974 2.25
      vertex -5.20263 59.2 1
      vertex -5.20263 59.2 2.25
    endloop
  endfacet
  facet normal 0.258819 0.965926 1.83902e-016
    outer loop
      vertex -4.25 58.65 1
      vertex -4.8 58.7974 1
      vertex -4.25 58.65 2.25
    endloop
  endfacet
  facet normal 0.258819 0.965926 1.86774e-016
    outer loop
      vertex -4.25 58.65 2.25
      vertex -4.8 58.7974 1
      vertex -4.8 58.7974 2.25
    endloop
  endfacet
  facet normal -0.258819 0.965926 -9.1951e-017
    outer loop
      vertex -4 58.717 1
      vertex -4.25 58.65 1
      vertex -4 58.717 2.25
    endloop
  endfacet
  facet normal -0.258819 0.965926 -1.79593e-016
    outer loop
      vertex -4 58.717 2.25
      vertex -4.25 58.65 1
      vertex -4.25 58.65 2.25
    endloop
  endfacet
  facet normal 1 -0 1.97373e-016
    outer loop
      vertex -4 58.717 2.25
      vertex -4 44.5 2.25
      vertex -4 44.5 -4.89843e-016
    endloop
  endfacet
  facet normal 1 -3.94746e-016 3.55271e-016
    outer loop
      vertex -4 58.492 0.75
      vertex -4 58.717 2.25
      vertex -4 57.817 -4.89843e-016
    endloop
  endfacet
  facet normal 1 -0 1.97373e-016
    outer loop
      vertex -4 57.817 -4.89843e-016
      vertex -4 58.717 2.25
      vertex -4 44.5 -4.89843e-016
    endloop
  endfacet
  facet normal 1 -3.94746e-016 3.55271e-016
    outer loop
      vertex -4 58.717 1
      vertex -4 58.717 2.25
      vertex -4 58.492 0.75
    endloop
  endfacet
  facet normal 0 -1 0
    outer loop
      vertex -8.5 44.5 -1.04092e-015
      vertex -4 44.5 -4.89843e-016
      vertex -4 44.5 2.25
    endloop
  endfacet
  facet normal -0 -1 0
    outer loop
      vertex -8.5 44.5 2.25
      vertex -8.5 44.5 -1.04092e-015
      vertex -4 44.5 2.25
    endloop
  endfacet
  facet normal 1 0 7.89492e-016
    outer loop
      vertex -8.5 19.5 -1.04092e-015
      vertex -8.5 44.5 -1.04092e-015
      vertex -8.5 44.5 2.25
    endloop
  endfacet
  facet normal 1 0 7.89492e-016
    outer loop
      vertex -8.5 19.5 2.25
      vertex -8.5 19.5 -1.04092e-015
      vertex -8.5 44.5 2.25
    endloop
  endfacet
  facet normal -0 1 0
    outer loop
      vertex -4 19.5 -4.89843e-016
      vertex -8.5 19.5 -1.04092e-015
      vertex -4 19.5 2.25
    endloop
  endfacet
  facet normal 0 1 0
    outer loop
      vertex -4 19.5 2.25
      vertex -8.5 19.5 -1.04092e-015
      vertex -8.5 19.5 2.25
    endloop
  endfacet
  facet normal 1 -0 3.55271e-016
    outer loop
      vertex -4 19.5 2.25
      vertex -4 5.28301 2.25
      vertex -4 5.28301 1
    endloop
  endfacet
  facet normal 1 2.8946e-017 2.60514e-017
    outer loop
      vertex -4 6.18301 -4.89843e-016
      vertex -4 19.5 2.25
      vertex -4 5.77392 0.454545
    endloop
  endfacet
  facet normal 1 2.8946e-017 2.60514e-017
    outer loop
      vertex -4 5.77392 0.454545
      vertex -4 19.5 2.25
      vertex -4 5.28301 1
    endloop
  endfacet
  facet normal 1 -0 1.97373e-016
    outer loop
      vertex -4 19.5 -4.89843e-016
      vertex -4 19.5 2.25
      vertex -4 6.18301 -4.89843e-016
    endloop
  endfacet
  facet normal -0.258819 -0.965926 -8.62025e-017
    outer loop
      vertex -4.25 5.35 1
      vertex -4 5.28301 1
      vertex -4 5.28301 2.25
    endloop
  endfacet
  facet normal -0.258819 -0.965926 -1.83902e-016
    outer loop
      vertex -4.25 5.35 2.25
      vertex -4.25 5.35 1
      vertex -4 5.28301 2.25
    endloop
  endfacet
  facet normal 0.258819 -0.965926 1.86774e-016
    outer loop
      vertex -4.8 5.20263 1
      vertex -4.25 5.35 1
      vertex -4.25 5.35 2.25
    endloop
  endfacet
  facet normal 0.258819 -0.965926 1.83902e-016
    outer loop
      vertex -4.8 5.20263 2.25
      vertex -4.8 5.20263 1
      vertex -4.25 5.35 2.25
    endloop
  endfacet
  facet normal 0.707107 -0.707107 5.10286e-016
    outer loop
      vertex -5.20263 4.8 1
      vertex -4.8 5.20263 1
      vertex -4.8 5.20263 2.25
    endloop
  endfacet
  facet normal 0.707107 -0.707107 5.0243e-016
    outer loop
      vertex -5.20263 4.8 2.25
      vertex -5.20263 4.8 1
      vertex -4.8 5.20263 2.25
    endloop
  endfacet
  facet normal 0.965926 -0.258819 6.83649e-016
    outer loop
      vertex -5.35 4.25 1
      vertex -5.20263 4.8 1
      vertex -5.20263 4.8 2.25
    endloop
  endfacet
  facet normal 0.965926 -0.258819 0
    outer loop
      vertex -5.35 4.25 2.25
      vertex -5.35 4.25 1
      vertex -5.20263 4.8 2.25
    endloop
  endfacet
  facet normal 0.965926 0.258819 -0
    outer loop
      vertex -5.28301 4 2.25
      vertex -5.28301 4 1
      vertex -5.35 4.25 1
    endloop
  endfacet
  facet normal 0.965926 0.258819 -0
    outer loop
      vertex -5.35 4.25 2.25
      vertex -5.28301 4 2.25
      vertex -5.35 4.25 1
    endloop
  endfacet
  facet normal 0 -1 0
    outer loop
      vertex -5.28301 4 2.25
      vertex -28.217 4 2.25
      vertex -28.217 4 1
    endloop
  endfacet
  facet normal 0 -1 -0
    outer loop
      vertex -27.317 4 -3.34526e-015
      vertex -5.28301 4 2.25
      vertex -27.7261 4 0.454545
    endloop
  endfacet
  facet normal 0 -1 -0
    outer loop
      vertex -27.7261 4 0.454545
      vertex -5.28301 4 2.25
      vertex -28.217 4 1
    endloop
  endfacet
  facet normal 0 -1 -0
    outer loop
      vertex -6.18301 4 -7.57176e-016
      vertex -5.28301 4 2.25
      vertex -27.317 4 -3.34526e-015
    endloop
  endfacet
  facet normal 0 -1 -0
    outer loop
      vertex -5.50801 4 0.75
      vertex -5.28301 4 2.25
      vertex -6.18301 4 -7.57176e-016
    endloop
  endfacet
  facet normal 0 -1 0
    outer loop
      vertex -5.28301 4 1
      vertex -5.28301 4 2.25
      vertex -5.50801 4 0.75
    endloop
  endfacet
  facet normal -0.965926 0.258819 0
    outer loop
      vertex -28.15 4.25 1
      vertex -28.217 4 1
      vertex -28.15 4.25 2.25
    endloop
  endfacet
  facet normal -0.965926 0.258819 0
    outer loop
      vertex -28.15 4.25 2.25
      vertex -28.217 4 1
      vertex -28.217 4 2.25
    endloop
  endfacet
  facet normal -0.965926 -0.258819 -0
    outer loop
      vertex -28.15 4.25 1
      vertex -28.15 4.25 2.25
      vertex -28.2974 4.8 1
    endloop
  endfacet
  facet normal -0.965926 -0.258819 -0
    outer loop
      vertex -28.2974 4.8 1
      vertex -28.15 4.25 2.25
      vertex -28.2974 4.8 2.25
    endloop
  endfacet
  facet normal -0.707107 -0.707107 0
    outer loop
      vertex -28.7 5.20263 1
      vertex -28.2974 4.8 1
      vertex -28.2974 4.8 2.25
    endloop
  endfacet
  facet normal -0.707107 -0.707107 0
    outer loop
      vertex -28.7 5.20263 2.25
      vertex -28.7 5.20263 1
      vertex -28.2974 4.8 2.25
    endloop
  endfacet
  facet normal -0.258819 -0.965926 0
    outer loop
      vertex -29.25 5.35 1
      vertex -28.7 5.20263 1
      vertex -28.7 5.20263 2.25
    endloop
  endfacet
  facet normal -0.258819 -0.965926 -7.35608e-016
    outer loop
      vertex -29.25 5.35 2.25
      vertex -29.25 5.35 1
      vertex -28.7 5.20263 2.25
    endloop
  endfacet
  facet normal 0.258819 -0.965926 7.32732e-016
    outer loop
      vertex -29.8 5.20263 1
      vertex -29.25 5.35 1
      vertex -29.25 5.35 2.25
    endloop
  endfacet
  facet normal 0.258819 -0.965926 0
    outer loop
      vertex -29.8 5.20263 2.25
      vertex -29.8 5.20263 1
      vertex -29.25 5.35 2.25
    endloop
  endfacet
  facet normal 0.707107 -0.707107 0
    outer loop
      vertex -30.2026 4.8 1
      vertex -29.8 5.20263 1
      vertex -29.8 5.20263 2.25
    endloop
  endfacet
  facet normal 0.707107 -0.707107 0
    outer loop
      vertex -30.2026 4.8 2.25
      vertex -30.2026 4.8 1
      vertex -29.8 5.20263 2.25
    endloop
  endfacet
  facet normal 0.965926 -0.258819 0
    outer loop
      vertex -30.35 4.25 1
      vertex -30.2026 4.8 1
      vertex -30.2026 4.8 2.25
    endloop
  endfacet
  facet normal 0.965926 -0.258819 0
    outer loop
      vertex -30.35 4.25 2.25
      vertex -30.35 4.25 1
      vertex -30.2026 4.8 2.25
    endloop
  endfacet
  facet normal 0.965926 0.258819 -0
    outer loop
      vertex -30.283 4 2.25
      vertex -30.283 4 1
      vertex -30.35 4.25 1
    endloop
  endfacet
  facet normal 0.965926 0.258819 -0
    outer loop
      vertex -30.35 4.25 2.25
      vertex -30.283 4 2.25
      vertex -30.35 4.25 1
    endloop
  endfacet
  facet normal 0.965926 0.25882 -0
    outer loop
      vertex -38.0155 30.625 2.25
      vertex -38.0155 30.625 -4.65541e-015
      vertex -38.25 31.5 -4.68412e-015
    endloop
  endfacet
  facet normal 0.965926 0.25882 3.05036e-015
    outer loop
      vertex -38.25 31.5 2.25
      vertex -38.0155 30.625 2.25
      vertex -38.25 31.5 -4.68412e-015
    endloop
  endfacet
  facet normal 0.707107 0.707107 2.23302e-015
    outer loop
      vertex -37.375 29.9845 -4.57697e-015
      vertex -38.0155 30.625 -4.65541e-015
      vertex -37.375 29.9845 2.25
    endloop
  endfacet
  facet normal 0.707107 0.707107 0
    outer loop
      vertex -37.375 29.9845 2.25
      vertex -38.0155 30.625 -4.65541e-015
      vertex -38.0155 30.625 2.25
    endloop
  endfacet
  facet normal 0.25882 0.965926 8.17344e-016
    outer loop
      vertex -36.5 29.75 -4.46981e-015
      vertex -37.375 29.9845 -4.57697e-015
      vertex -36.5 29.75 2.25
    endloop
  endfacet
  facet normal 0.25882 0.965926 8.18943e-016
    outer loop
      vertex -36.5 29.75 2.25
      vertex -37.375 29.9845 -4.57697e-015
      vertex -37.375 29.9845 2.25
    endloop
  endfacet
  facet normal -0.25882 0.965926 -8.17344e-016
    outer loop
      vertex -35.625 29.9845 -4.36266e-015
      vertex -36.5 29.75 -4.46981e-015
      vertex -35.625 29.9845 2.25
    endloop
  endfacet
  facet normal -0.25882 0.965926 -8.18943e-016
    outer loop
      vertex -35.625 29.9845 2.25
      vertex -36.5 29.75 -4.46981e-015
      vertex -36.5 29.75 2.25
    endloop
  endfacet
  facet normal -0.707107 0.707107 0
    outer loop
      vertex -34.9845 30.625 -4.28422e-015
      vertex -35.625 29.9845 -4.36266e-015
      vertex -34.9845 30.625 2.25
    endloop
  endfacet
  facet normal -0.707107 0.707107 -2.23737e-015
    outer loop
      vertex -34.9845 30.625 2.25
      vertex -35.625 29.9845 -4.36266e-015
      vertex -35.625 29.9845 2.25
    endloop
  endfacet
  facet normal -0.965926 0.25882 -3.05036e-015
    outer loop
      vertex -34.75 31.5 -4.25551e-015
      vertex -34.9845 30.625 -4.28422e-015
      vertex -34.75 31.5 2.25
    endloop
  endfacet
  facet normal -0.965926 0.25882 0
    outer loop
      vertex -34.75 31.5 2.25
      vertex -34.9845 30.625 -4.28422e-015
      vertex -34.9845 30.625 2.25
    endloop
  endfacet
  facet normal -0.965926 -0.25882 -3.05036e-015
    outer loop
      vertex -34.75 31.5 -4.25551e-015
      vertex -34.75 31.5 2.25
      vertex -34.9845 32.375 -4.28422e-015
    endloop
  endfacet
  facet normal -0.965926 -0.25882 -0
    outer loop
      vertex -34.9845 32.375 -4.28422e-015
      vertex -34.75 31.5 2.25
      vertex -34.9845 32.375 2.25
    endloop
  endfacet
  facet normal -0.707107 -0.707107 0
    outer loop
      vertex -35.625 33.0155 -4.36266e-015
      vertex -34.9845 32.375 -4.28422e-015
      vertex -34.9845 32.375 2.25
    endloop
  endfacet
  facet normal -0.707107 -0.707107 -2.23302e-015
    outer loop
      vertex -35.625 33.0155 2.25
      vertex -35.625 33.0155 -4.36266e-015
      vertex -34.9845 32.375 2.25
    endloop
  endfacet
  facet normal -0.25882 -0.965926 -8.18935e-016
    outer loop
      vertex -36.5 33.25 -4.46981e-015
      vertex -35.625 33.0155 -4.36266e-015
      vertex -35.625 33.0155 2.25
    endloop
  endfacet
  facet normal -0.25882 -0.965926 -8.17344e-016
    outer loop
      vertex -36.5 33.25 2.25
      vertex -36.5 33.25 -4.46981e-015
      vertex -35.625 33.0155 2.25
    endloop
  endfacet
  facet normal 0.25882 -0.965926 8.18935e-016
    outer loop
      vertex -37.375 33.0155 -4.57697e-015
      vertex -36.5 33.25 -4.46981e-015
      vertex -36.5 33.25 2.25
    endloop
  endfacet
  facet normal 0.25882 -0.965926 8.17344e-016
    outer loop
      vertex -37.375 33.0155 2.25
      vertex -37.375 33.0155 -4.57697e-015
      vertex -36.5 33.25 2.25
    endloop
  endfacet
  facet normal 0.707107 -0.707107 2.23737e-015
    outer loop
      vertex -38.0155 32.375 -4.65541e-015
      vertex -37.375 33.0155 -4.57697e-015
      vertex -37.375 33.0155 2.25
    endloop
  endfacet
  facet normal 0.707107 -0.707107 0
    outer loop
      vertex -38.0155 32.375 2.25
      vertex -38.0155 32.375 -4.65541e-015
      vertex -37.375 33.0155 2.25
    endloop
  endfacet
  facet normal 0.965926 -0.25882 0
    outer loop
      vertex -38.25 31.5 -4.68412e-015
      vertex -38.0155 32.375 -4.65541e-015
      vertex -38.0155 32.375 2.25
    endloop
  endfacet
  facet normal 0.965926 -0.25882 3.05036e-015
    outer loop
      vertex -38.25 31.5 2.25
      vertex -38.25 31.5 -4.68412e-015
      vertex -38.0155 32.375 2.25
    endloop
  endfacet
  facet normal 0.965926 0.25882 -0
    outer loop
      vertex -38.0155 36.125 2.25
      vertex -38.0155 36.125 -4.65541e-015
      vertex -38.25 37 -4.68412e-015
    endloop
  endfacet
  facet normal 0.965926 0.25882 3.05036e-015
    outer loop
      vertex -38.25 37 2.25
      vertex -38.0155 36.125 2.25
      vertex -38.25 37 -4.68412e-015
    endloop
  endfacet
  facet normal 0.707107 0.707107 2.23302e-015
    outer loop
      vertex -37.375 35.4845 -4.57697e-015
      vertex -38.0155 36.125 -4.65541e-015
      vertex -37.375 35.4845 2.25
    endloop
  endfacet
  facet normal 0.707107 0.707107 0
    outer loop
      vertex -37.375 35.4845 2.25
      vertex -38.0155 36.125 -4.65541e-015
      vertex -38.0155 36.125 2.25
    endloop
  endfacet
  facet normal 0.25882 0.965926 8.17344e-016
    outer loop
      vertex -36.5 35.25 -4.46981e-015
      vertex -37.375 35.4845 -4.57697e-015
      vertex -36.5 35.25 2.25
    endloop
  endfacet
  facet normal 0.25882 0.965926 8.18943e-016
    outer loop
      vertex -36.5 35.25 2.25
      vertex -37.375 35.4845 -4.57697e-015
      vertex -37.375 35.4845 2.25
    endloop
  endfacet
  facet normal -0.25882 0.965926 -8.17344e-016
    outer loop
      vertex -35.625 35.4845 -4.36266e-015
      vertex -36.5 35.25 -4.46981e-015
      vertex -35.625 35.4845 2.25
    endloop
  endfacet
  facet normal -0.25882 0.965926 -8.18935e-016
    outer loop
      vertex -35.625 35.4845 2.25
      vertex -36.5 35.25 -4.46981e-015
      vertex -36.5 35.25 2.25
    endloop
  endfacet
  facet normal -0.707107 0.707107 0
    outer loop
      vertex -34.9845 36.125 -4.28422e-015
      vertex -35.625 35.4845 -4.36266e-015
      vertex -34.9845 36.125 2.25
    endloop
  endfacet
  facet normal -0.707107 0.707107 -2.23739e-015
    outer loop
      vertex -34.9845 36.125 2.25
      vertex -35.625 35.4845 -4.36266e-015
      vertex -35.625 35.4845 2.25
    endloop
  endfacet
  facet normal -0.965926 0.25882 -3.05036e-015
    outer loop
      vertex -34.75 37 -4.25551e-015
      vertex -34.9845 36.125 -4.28422e-015
      vertex -34.75 37 2.25
    endloop
  endfacet
  facet normal -0.965926 0.25882 0
    outer loop
      vertex -34.75 37 2.25
      vertex -34.9845 36.125 -4.28422e-015
      vertex -34.9845 36.125 2.25
    endloop
  endfacet
  facet normal -0.965926 -0.25882 -3.05036e-015
    outer loop
      vertex -34.75 37 -4.25551e-015
      vertex -34.75 37 2.25
      vertex -34.9845 37.875 -4.28422e-015
    endloop
  endfacet
  facet normal -0.965926 -0.25882 -0
    outer loop
      vertex -34.9845 37.875 -4.28422e-015
      vertex -34.75 37 2.25
      vertex -34.9845 37.875 2.25
    endloop
  endfacet
  facet normal -0.707107 -0.707107 0
    outer loop
      vertex -35.625 38.5155 -4.36266e-015
      vertex -34.9845 37.875 -4.28422e-015
      vertex -34.9845 37.875 2.25
    endloop
  endfacet
  facet normal -0.707107 -0.707107 -2.23302e-015
    outer loop
      vertex -35.625 38.5155 2.25
      vertex -35.625 38.5155 -4.36266e-015
      vertex -34.9845 37.875 2.25
    endloop
  endfacet
  facet normal -0.25882 -0.965926 -8.18935e-016
    outer loop
      vertex -36.5 38.75 -4.46981e-015
      vertex -35.625 38.5155 -4.36266e-015
      vertex -35.625 38.5155 2.25
    endloop
  endfacet
  facet normal -0.25882 -0.965926 -8.17344e-016
    outer loop
      vertex -36.5 38.75 2.25
      vertex -36.5 38.75 -4.46981e-015
      vertex -35.625 38.5155 2.25
    endloop
  endfacet
  facet normal 0.25882 -0.965926 8.18935e-016
    outer loop
      vertex -37.375 38.5155 -4.57697e-015
      vertex -36.5 38.75 -4.46981e-015
      vertex -36.5 38.75 2.25
    endloop
  endfacet
  facet normal 0.25882 -0.965926 8.17344e-016
    outer loop
      vertex -37.375 38.5155 2.25
      vertex -37.375 38.5155 -4.57697e-015
      vertex -36.5 38.75 2.25
    endloop
  endfacet
  facet normal 0.707107 -0.707107 2.23737e-015
    outer loop
      vertex -38.0155 37.875 -4.65541e-015
      vertex -37.375 38.5155 -4.57697e-015
      vertex -37.375 38.5155 2.25
    endloop
  endfacet
  facet normal 0.707107 -0.707107 0
    outer loop
      vertex -38.0155 37.875 2.25
      vertex -38.0155 37.875 -4.65541e-015
      vertex -37.375 38.5155 2.25
    endloop
  endfacet
  facet normal 0.965926 -0.25882 0
    outer loop
      vertex -38.25 37 -4.68412e-015
      vertex -38.0155 37.875 -4.65541e-015
      vertex -38.0155 37.875 2.25
    endloop
  endfacet
  facet normal 0.965926 -0.25882 3.05036e-015
    outer loop
      vertex -38.25 37 2.25
      vertex -38.25 37 -4.68412e-015
      vertex -38.0155 37.875 2.25
    endloop
  endfacet
  facet normal 0.965926 0.25882 -0
    outer loop
      vertex -38.0155 41.625 2.25
      vertex -38.0155 41.625 -4.65541e-015
      vertex -38.25 42.5 -4.68412e-015
    endloop
  endfacet
  facet normal 0.965926 0.25882 3.05036e-015
    outer loop
      vertex -38.25 42.5 2.25
      vertex -38.0155 41.625 2.25
      vertex -38.25 42.5 -4.68412e-015
    endloop
  endfacet
  facet normal 0.707107 0.707107 2.23302e-015
    outer loop
      vertex -37.375 40.9845 -4.57697e-015
      vertex -38.0155 41.625 -4.65541e-015
      vertex -37.375 40.9845 2.25
    endloop
  endfacet
  facet normal 0.707107 0.707107 0
    outer loop
      vertex -37.375 40.9845 2.25
      vertex -38.0155 41.625 -4.65541e-015
      vertex -38.0155 41.625 2.25
    endloop
  endfacet
  facet normal 0.25882 0.965926 8.17344e-016
    outer loop
      vertex -36.5 40.75 -4.46981e-015
      vertex -37.375 40.9845 -4.57697e-015
      vertex -36.5 40.75 2.25
    endloop
  endfacet
  facet normal 0.25882 0.965926 8.18943e-016
    outer loop
      vertex -36.5 40.75 2.25
      vertex -37.375 40.9845 -4.57697e-015
      vertex -37.375 40.9845 2.25
    endloop
  endfacet
  facet normal -0.25882 0.965926 -8.17344e-016
    outer loop
      vertex -35.625 40.9845 -4.36266e-015
      vertex -36.5 40.75 -4.46981e-015
      vertex -35.625 40.9845 2.25
    endloop
  endfacet
  facet normal -0.25882 0.965926 -8.18935e-016
    outer loop
      vertex -35.625 40.9845 2.25
      vertex -36.5 40.75 -4.46981e-015
      vertex -36.5 40.75 2.25
    endloop
  endfacet
  facet normal -0.707107 0.707107 0
    outer loop
      vertex -34.9845 41.625 -4.28422e-015
      vertex -35.625 40.9845 -4.36266e-015
      vertex -34.9845 41.625 2.25
    endloop
  endfacet
  facet normal -0.707107 0.707107 -2.23739e-015
    outer loop
      vertex -34.9845 41.625 2.25
      vertex -35.625 40.9845 -4.36266e-015
      vertex -35.625 40.9845 2.25
    endloop
  endfacet
  facet normal -0.965926 0.25882 -3.05036e-015
    outer loop
      vertex -34.75 42.5 -4.25551e-015
      vertex -34.9845 41.625 -4.28422e-015
      vertex -34.75 42.5 2.25
    endloop
  endfacet
  facet normal -0.965926 0.25882 0
    outer loop
      vertex -34.75 42.5 2.25
      vertex -34.9845 41.625 -4.28422e-015
      vertex -34.9845 41.625 2.25
    endloop
  endfacet
  facet normal -0.965926 -0.25882 -3.05036e-015
    outer loop
      vertex -34.75 42.5 -4.25551e-015
      vertex -34.75 42.5 2.25
      vertex -34.9845 43.375 -4.28422e-015
    endloop
  endfacet
  facet normal -0.965926 -0.25882 -0
    outer loop
      vertex -34.9845 43.375 -4.28422e-015
      vertex -34.75 42.5 2.25
      vertex -34.9845 43.375 2.25
    endloop
  endfacet
  facet normal -0.707107 -0.707107 0
    outer loop
      vertex -35.625 44.0155 -4.36266e-015
      vertex -34.9845 43.375 -4.28422e-015
      vertex -34.9845 43.375 2.25
    endloop
  endfacet
  facet normal -0.707107 -0.707107 -2.23302e-015
    outer loop
      vertex -35.625 44.0155 2.25
      vertex -35.625 44.0155 -4.36266e-015
      vertex -34.9845 43.375 2.25
    endloop
  endfacet
  facet normal -0.25882 -0.965926 -8.18935e-016
    outer loop
      vertex -36.5 44.25 -4.46981e-015
      vertex -35.625 44.0155 -4.36266e-015
      vertex -35.625 44.0155 2.25
    endloop
  endfacet
  facet normal -0.25882 -0.965926 -8.17344e-016
    outer loop
      vertex -36.5 44.25 2.25
      vertex -36.5 44.25 -4.46981e-015
      vertex -35.625 44.0155 2.25
    endloop
  endfacet
  facet normal 0.25882 -0.965926 8.18935e-016
    outer loop
      vertex -37.375 44.0155 -4.57697e-015
      vertex -36.5 44.25 -4.46981e-015
      vertex -36.5 44.25 2.25
    endloop
  endfacet
  facet normal 0.25882 -0.965926 8.17344e-016
    outer loop
      vertex -37.375 44.0155 2.25
      vertex -37.375 44.0155 -4.57697e-015
      vertex -36.5 44.25 2.25
    endloop
  endfacet
  facet normal 0.707107 -0.707107 2.23737e-015
    outer loop
      vertex -38.0155 43.375 -4.65541e-015
      vertex -37.375 44.0155 -4.57697e-015
      vertex -37.375 44.0155 2.25
    endloop
  endfacet
  facet normal 0.707107 -0.707107 0
    outer loop
      vertex -38.0155 43.375 2.25
      vertex -38.0155 43.375 -4.65541e-015
      vertex -37.375 44.0155 2.25
    endloop
  endfacet
  facet normal 0.965926 -0.25882 0
    outer loop
      vertex -38.25 42.5 -4.68412e-015
      vertex -38.0155 43.375 -4.65541e-015
      vertex -38.0155 43.375 2.25
    endloop
  endfacet
  facet normal 0.965926 -0.25882 3.05036e-015
    outer loop
      vertex -38.25 42.5 2.25
      vertex -38.25 42.5 -4.68412e-015
      vertex -38.0155 43.375 2.25
    endloop
  endfacet
  facet normal -0.980785 -0.19509 -0
    outer loop
      vertex -35 11 2.25
      vertex -34.8478 10.2346 2.25
      vertex -35 11 9.5
    endloop
  endfacet
  facet normal -0.980785 -0.19509 0
    outer loop
      vertex -35 11 9.5
      vertex -34.8478 10.2346 2.25
      vertex -34.8478 10.2346 9.5
    endloop
  endfacet
  facet normal -0.83147 -0.55557 -0
    outer loop
      vertex -34.8478 10.2346 2.25
      vertex -34.4142 9.58579 2.25
      vertex -34.8478 10.2346 9.5
    endloop
  endfacet
  facet normal -0.83147 -0.55557 0
    outer loop
      vertex -34.8478 10.2346 9.5
      vertex -34.4142 9.58579 2.25
      vertex -34.4142 9.58579 9.5
    endloop
  endfacet
  facet normal -0.55557 -0.83147 0
    outer loop
      vertex -34.4142 9.58579 9.5
      vertex -34.4142 9.58579 2.25
      vertex -34 9.30902 2.25
    endloop
  endfacet
  facet normal -0.55557 -0.83147 0
    outer loop
      vertex -34 9.30902 9.5
      vertex -34.4142 9.58579 9.5
      vertex -34 9.30902 2.25
    endloop
  endfacet
  facet normal -1 -0 -0
    outer loop
      vertex -34 6 2.25
      vertex -34 6 14.5
      vertex -34 9.30902 2.25
    endloop
  endfacet
  facet normal -1 0 -0
    outer loop
      vertex -34 12.691 9.5
      vertex -34 6 14.5
      vertex -34 16 14.5
    endloop
  endfacet
  facet normal -1 -0 0
    outer loop
      vertex -34 12.691 2.25
      vertex -34 16 14.5
      vertex -34 16 2.25
    endloop
  endfacet
  facet normal -1 -0 -0
    outer loop
      vertex -34 9.30902 9.5
      vertex -34 6 14.5
      vertex -34 12.691 9.5
    endloop
  endfacet
  facet normal -1 0 0
    outer loop
      vertex -34 9.30902 2.25
      vertex -34 6 14.5
      vertex -34 9.30902 9.5
    endloop
  endfacet
  facet normal -1 -0 0
    outer loop
      vertex -34 12.691 9.5
      vertex -34 16 14.5
      vertex -34 12.691 2.25
    endloop
  endfacet
  facet normal 0 -1 0
    outer loop
      vertex -34 6 14.5
      vertex -34 6 2.25
      vertex -32 6 2.25
    endloop
  endfacet
  facet normal 0 -1 0
    outer loop
      vertex -32 6 14.5
      vertex -34 6 14.5
      vertex -32 6 2.25
    endloop
  endfacet
  facet normal 1 0 -0
    outer loop
      vertex -32 6 14.5
      vertex -32 6 2.25
      vertex -32 9.30902 2.25
    endloop
  endfacet
  facet normal 1 -0 0
    outer loop
      vertex -32 12.691 9.5
      vertex -32 6 14.5
      vertex -32 9.30902 9.5
    endloop
  endfacet
  facet normal 1 -0 0
    outer loop
      vertex -32 9.30902 9.5
      vertex -32 6 14.5
      vertex -32 9.30902 2.25
    endloop
  endfacet
  facet normal 1 0 0
    outer loop
      vertex -32 16 14.5
      vertex -32 6 14.5
      vertex -32 12.691 9.5
    endloop
  endfacet
  facet normal 1 -0 0
    outer loop
      vertex -32 16 2.25
      vertex -32 12.691 9.5
      vertex -32 12.691 2.25
    endloop
  endfacet
  facet normal 1 0 0
    outer loop
      vertex -32 16 14.5
      vertex -32 12.691 9.5
      vertex -32 16 2.25
    endloop
  endfacet
  facet normal 0.55557 -0.83147 0
    outer loop
      vertex -32 9.30902 9.5
      vertex -32 9.30902 2.25
      vertex -31.5858 9.58579 2.25
    endloop
  endfacet
  facet normal 0.55557 -0.83147 0
    outer loop
      vertex -31.5858 9.58579 9.5
      vertex -32 9.30902 9.5
      vertex -31.5858 9.58579 2.25
    endloop
  endfacet
  facet normal 0.83147 -0.55557 0
    outer loop
      vertex -31.5858 9.58579 9.5
      vertex -31.5858 9.58579 2.25
      vertex -31.1522 10.2346 2.25
    endloop
  endfacet
  facet normal 0.83147 -0.55557 0
    outer loop
      vertex -31.1522 10.2346 9.5
      vertex -31.5858 9.58579 9.5
      vertex -31.1522 10.2346 2.25
    endloop
  endfacet
  facet normal 0.980785 -0.19509 0
    outer loop
      vertex -31.1522 10.2346 9.5
      vertex -31.1522 10.2346 2.25
      vertex -31 11 2.25
    endloop
  endfacet
  facet normal 0.980785 -0.19509 0
    outer loop
      vertex -31 11 9.5
      vertex -31.1522 10.2346 9.5
      vertex -31 11 2.25
    endloop
  endfacet
  facet normal 0.980785 0.19509 0
    outer loop
      vertex -31 11 2.25
      vertex -31.1522 11.7654 2.25
      vertex -31.1522 11.7654 9.5
    endloop
  endfacet
  facet normal 0.980785 0.19509 -0
    outer loop
      vertex -31 11 9.5
      vertex -31 11 2.25
      vertex -31.1522 11.7654 9.5
    endloop
  endfacet
  facet normal 0.83147 0.55557 0
    outer loop
      vertex -31.1522 11.7654 2.25
      vertex -31.5858 12.4142 2.25
      vertex -31.5858 12.4142 9.5
    endloop
  endfacet
  facet normal 0.83147 0.55557 -0
    outer loop
      vertex -31.1522 11.7654 9.5
      vertex -31.1522 11.7654 2.25
      vertex -31.5858 12.4142 9.5
    endloop
  endfacet
  facet normal 0.55557 0.83147 0
    outer loop
      vertex -32 12.691 2.25
      vertex -32 12.691 9.5
      vertex -31.5858 12.4142 2.25
    endloop
  endfacet
  facet normal 0.55557 0.83147 0
    outer loop
      vertex -31.5858 12.4142 2.25
      vertex -32 12.691 9.5
      vertex -31.5858 12.4142 9.5
    endloop
  endfacet
  facet normal 0 1 0
    outer loop
      vertex -34 16 2.25
      vertex -34 16 14.5
      vertex -32 16 2.25
    endloop
  endfacet
  facet normal 0 1 0
    outer loop
      vertex -32 16 2.25
      vertex -34 16 14.5
      vertex -32 16 14.5
    endloop
  endfacet
  facet normal -0.55557 0.83147 0
    outer loop
      vertex -34.4142 12.4142 2.25
      vertex -34.4142 12.4142 9.5
      vertex -34 12.691 2.25
    endloop
  endfacet
  facet normal -0.55557 0.83147 0
    outer loop
      vertex -34 12.691 2.25
      vertex -34.4142 12.4142 9.5
      vertex -34 12.691 9.5
    endloop
  endfacet
  facet normal -0.83147 0.55557 0
    outer loop
      vertex -34.8478 11.7654 2.25
      vertex -34.8478 11.7654 9.5
      vertex -34.4142 12.4142 2.25
    endloop
  endfacet
  facet normal -0.83147 0.55557 0
    outer loop
      vertex -34.4142 12.4142 2.25
      vertex -34.8478 11.7654 9.5
      vertex -34.4142 12.4142 9.5
    endloop
  endfacet
  facet normal -0.980785 0.19509 0
    outer loop
      vertex -35 11 2.25
      vertex -35 11 9.5
      vertex -34.8478 11.7654 2.25
    endloop
  endfacet
  facet normal -0.980785 0.19509 0
    outer loop
      vertex -34.8478 11.7654 2.25
      vertex -35 11 9.5
      vertex -34.8478 11.7654 9.5
    endloop
  endfacet
  facet normal 0.728977 0.195329 -0.656079
    outer loop
      vertex -30.35 4.25 1
      vertex -30.283 4 1
      vertex -30.508 4 0.75
    endloop
  endfacet
  facet normal 0.728977 0.195329 -0.656079
    outer loop
      vertex -30.35 4.25 1
      vertex -30.508 4 0.75
      vertex -31.183 4 -3.81869e-015
    endloop
  endfacet
  facet normal 0.728977 0.195329 -0.656079
    outer loop
      vertex -31.25 4.25 -3.82689e-015
      vertex -30.35 4.25 1
      vertex -31.183 4 -3.81869e-015
    endloop
  endfacet
  facet normal 0.728977 -0.195329 -0.656079
    outer loop
      vertex -30.2026 4.8 1
      vertex -30.35 4.25 1
      vertex -31.25 4.25 -3.82689e-015
    endloop
  endfacet
  facet normal 0.728977 -0.195329 -0.656079
    outer loop
      vertex -30.9821 5.25 -3.79408e-015
      vertex -30.2026 4.8 1
      vertex -31.25 4.25 -3.82689e-015
    endloop
  endfacet
  facet normal 0.533648 -0.533648 -0.656079
    outer loop
      vertex -29.8 5.20263 1
      vertex -30.2026 4.8 1
      vertex -30.25 5.98205 -3.70443e-015
    endloop
  endfacet
  facet normal 0.533648 -0.533648 -0.656079
    outer loop
      vertex -30.25 5.98205 -3.70443e-015
      vertex -30.2026 4.8 1
      vertex -30.9821 5.25 -3.79408e-015
    endloop
  endfacet
  facet normal 0.195329 -0.728977 -0.656079
    outer loop
      vertex -29.25 5.35 1
      vertex -29.8 5.20263 1
      vertex -30.25 5.98205 -3.70443e-015
    endloop
  endfacet
  facet normal 0.195329 -0.728977 -0.656079
    outer loop
      vertex -29.25 6.25 -3.58197e-015
      vertex -29.25 5.35 1
      vertex -30.25 5.98205 -3.70443e-015
    endloop
  endfacet
  facet normal -0.195329 -0.728977 -0.656079
    outer loop
      vertex -29.25 6.25 -3.58197e-015
      vertex -28.7 5.20263 1
      vertex -29.25 5.35 1
    endloop
  endfacet
  facet normal -0.195329 -0.728977 -0.656079
    outer loop
      vertex -28.25 5.98205 -3.45951e-015
      vertex -28.7 5.20263 1
      vertex -29.25 6.25 -3.58197e-015
    endloop
  endfacet
  facet normal -0.533648 -0.533648 -0.656079
    outer loop
      vertex -27.5179 5.25 -3.36987e-015
      vertex -28.2974 4.8 1
      vertex -28.25 5.98205 -3.45951e-015
    endloop
  endfacet
  facet normal -0.533648 -0.533648 -0.656079
    outer loop
      vertex -28.25 5.98205 -3.45951e-015
      vertex -28.2974 4.8 1
      vertex -28.7 5.20263 1
    endloop
  endfacet
  facet normal -0.728977 -0.195329 -0.656079
    outer loop
      vertex -27.5179 5.25 -3.36987e-015
      vertex -28.15 4.25 1
      vertex -28.2974 4.8 1
    endloop
  endfacet
  facet normal -0.728977 -0.195329 -0.656079
    outer loop
      vertex -27.5179 5.25 -3.36987e-015
      vertex -27.25 4.25 -3.33705e-015
      vertex -28.15 4.25 1
    endloop
  endfacet
  facet normal -0.728977 0.195329 -0.656079
    outer loop
      vertex -27.25 4.25 -3.33705e-015
      vertex -27.7261 4 0.454545
      vertex -28.15 4.25 1
    endloop
  endfacet
  facet normal -0.728977 0.195329 -0.656079
    outer loop
      vertex -28.15 4.25 1
      vertex -27.7261 4 0.454545
      vertex -28.217 4 1
    endloop
  endfacet
  facet normal -0.728977 0.195329 -0.656079
    outer loop
      vertex -27.25 4.25 -3.33705e-015
      vertex -27.317 4 -3.34526e-015
      vertex -27.7261 4 0.454545
    endloop
  endfacet
  facet normal 0.728977 0.195329 -0.656079
    outer loop
      vertex -5.35 4.25 1
      vertex -5.50801 4 0.75
      vertex -6.18301 4 -7.57176e-016
    endloop
  endfacet
  facet normal 0.728977 0.195329 -0.656079
    outer loop
      vertex -6.25 4.25 -7.65379e-016
      vertex -5.35 4.25 1
      vertex -6.18301 4 -7.57176e-016
    endloop
  endfacet
  facet normal 0.728977 -0.195329 -0.656079
    outer loop
      vertex -5.20263 4.8 1
      vertex -5.35 4.25 1
      vertex -6.25 4.25 -7.65379e-016
    endloop
  endfacet
  facet normal 0.728977 -0.195329 -0.656079
    outer loop
      vertex -5.98205 5.25 -7.32566e-016
      vertex -5.20263 4.8 1
      vertex -6.25 4.25 -7.65379e-016
    endloop
  endfacet
  facet normal 0.533648 -0.533648 -0.656079
    outer loop
      vertex -4.8 5.20263 1
      vertex -5.20263 4.8 1
      vertex -5.25 5.98205 -6.42918e-016
    endloop
  endfacet
  facet normal 0.533648 -0.533648 -0.656079
    outer loop
      vertex -5.25 5.98205 -6.42918e-016
      vertex -5.20263 4.8 1
      vertex -5.98205 5.25 -7.32566e-016
    endloop
  endfacet
  facet normal 0.195329 -0.728977 -0.656079
    outer loop
      vertex -4.25 5.35 1
      vertex -4.8 5.20263 1
      vertex -5.25 5.98205 -6.42918e-016
    endloop
  endfacet
  facet normal 0.195329 -0.728977 -0.656079
    outer loop
      vertex -4.25 6.25 -5.20458e-016
      vertex -4.25 5.35 1
      vertex -5.25 5.98205 -6.42918e-016
    endloop
  endfacet
  facet normal -0.195329 -0.728977 -0.656079
    outer loop
      vertex -4.25 6.25 -5.20458e-016
      vertex -4 5.77392 0.454545
      vertex -4 5.28301 1
    endloop
  endfacet
  facet normal -0.195329 -0.728977 -0.656079
    outer loop
      vertex -4.25 5.35 1
      vertex -4.25 6.25 -5.20458e-016
      vertex -4 5.28301 1
    endloop
  endfacet
  facet normal -0.195329 -0.728977 -0.656079
    outer loop
      vertex -4 6.18301 -4.89843e-016
      vertex -4 5.77392 0.454545
      vertex -4.25 6.25 -5.20458e-016
    endloop
  endfacet
  facet normal -0.195329 0.728977 -0.656079
    outer loop
      vertex -4 57.817 -4.89843e-016
      vertex -4.25 57.75 -5.20458e-016
      vertex -4 58.492 0.75
    endloop
  endfacet
  facet normal -0.195329 0.728977 -0.656079
    outer loop
      vertex -4 58.492 0.75
      vertex -4.25 57.75 -5.20458e-016
      vertex -4.25 58.65 1
    endloop
  endfacet
  facet normal 0.195329 0.728977 -0.656079
    outer loop
      vertex -4.25 58.65 1
      vertex -4.25 57.75 -5.20458e-016
      vertex -4.8 58.7974 1
    endloop
  endfacet
  facet normal 0.195329 0.728977 -0.656079
    outer loop
      vertex -4.8 58.7974 1
      vertex -4.25 57.75 -5.20458e-016
      vertex -5.25 58.0179 -6.42918e-016
    endloop
  endfacet
  facet normal 0.533648 0.533648 -0.656079
    outer loop
      vertex -4.8 58.7974 1
      vertex -5.25 58.0179 -6.42918e-016
      vertex -5.20263 59.2 1
    endloop
  endfacet
  facet normal 0.533648 0.533648 -0.656079
    outer loop
      vertex -5.20263 59.2 1
      vertex -5.25 58.0179 -6.42918e-016
      vertex -5.98205 58.75 -7.32566e-016
    endloop
  endfacet
  facet normal 0.728977 0.195329 -0.656079
    outer loop
      vertex -5.35 59.75 1
      vertex -5.20263 59.2 1
      vertex -5.98205 58.75 -7.32566e-016
    endloop
  endfacet
  facet normal 0.728977 0.195329 -0.656079
    outer loop
      vertex -5.35 59.75 1
      vertex -5.98205 58.75 -7.32566e-016
      vertex -6.25 59.75 -7.65379e-016
    endloop
  endfacet
  facet normal 0.728977 -0.195329 -0.656079
    outer loop
      vertex -5.77392 60 0.454545
      vertex -5.28301 60 1
      vertex -5.35 59.75 1
    endloop
  endfacet
  facet normal 0.728977 -0.195329 -0.656079
    outer loop
      vertex -6.25 59.75 -7.65379e-016
      vertex -5.77392 60 0.454545
      vertex -5.35 59.75 1
    endloop
  endfacet
  facet normal 0.728977 -0.195329 -0.656079
    outer loop
      vertex -6.18301 60 -7.57176e-016
      vertex -5.77392 60 0.454545
      vertex -6.25 59.75 -7.65379e-016
    endloop
  endfacet
  facet normal -0.728977 -0.195329 -0.656079
    outer loop
      vertex -42.817 60 -5.2434e-015
      vertex -42.75 59.75 -5.23519e-015
      vertex -43.492 60 0.75
    endloop
  endfacet
  facet normal -0.728977 -0.195329 -0.656079
    outer loop
      vertex -43.492 60 0.75
      vertex -42.75 59.75 -5.23519e-015
      vertex -43.65 59.75 1
    endloop
  endfacet
  facet normal -0.728977 0.195329 -0.656079
    outer loop
      vertex -43.65 59.75 1
      vertex -42.75 59.75 -5.23519e-015
      vertex -43.7974 59.2 1
    endloop
  endfacet
  facet normal -0.728977 0.195329 -0.656079
    outer loop
      vertex -42.75 59.75 -5.23519e-015
      vertex -43.0179 58.75 -5.26801e-015
      vertex -43.7974 59.2 1
    endloop
  endfacet
  facet normal -0.533648 0.533648 -0.656079
    outer loop
      vertex -43.0179 58.75 -5.26801e-015
      vertex -43.75 58.0179 -5.35765e-015
      vertex -43.7974 59.2 1
    endloop
  endfacet
  facet normal -0.533648 0.533648 -0.656079
    outer loop
      vertex -43.7974 59.2 1
      vertex -43.75 58.0179 -5.35765e-015
      vertex -44.2 58.7974 1
    endloop
  endfacet
  facet normal -0.195329 0.728977 -0.656079
    outer loop
      vertex -44.2 58.7974 1
      vertex -43.75 58.0179 -5.35765e-015
      vertex -44.75 58.65 1
    endloop
  endfacet
  facet normal -0.195329 0.728977 -0.656079
    outer loop
      vertex -43.75 58.0179 -5.35765e-015
      vertex -44.75 57.75 -5.48011e-015
      vertex -44.75 58.65 1
    endloop
  endfacet
  facet normal 0.195329 0.728977 -0.656079
    outer loop
      vertex -44.75 57.75 -5.48011e-015
      vertex -45 58.2261 0.454545
      vertex -44.75 58.65 1
    endloop
  endfacet
  facet normal 0.195329 0.728977 -0.656079
    outer loop
      vertex -44.75 58.65 1
      vertex -45 58.2261 0.454545
      vertex -45 58.717 1
    endloop
  endfacet
  facet normal 0.195329 0.728977 -0.656079
    outer loop
      vertex -44.75 57.75 -5.48011e-015
      vertex -45 57.817 -5.51073e-015
      vertex -45 58.2261 0.454545
    endloop
  endfacet
  facet normal -0.728977 -0.195329 -0.656079
    outer loop
      vertex -43.492 60 0.75
      vertex -43.65 59.75 1
      vertex -43.717 60 1
    endloop
  endfacet
  facet normal -0 0 -1
    outer loop
      vertex -27 53 0
      vertex -26.8478 53.7654 0
      vertex -26.8478 52.2346 0
    endloop
  endfacet
  facet normal 0 -0 -1
    outer loop
      vertex -26.8478 52.2346 0
      vertex -26.8478 53.7654 0
      vertex -26.75 53.9117 0
    endloop
  endfacet
  facet normal 0 -0 -1
    outer loop
      vertex -26.75 53.9117 0
      vertex -26.75 55.5 0
      vertex -17.75 55.5 0
    endloop
  endfacet
  facet normal 0 0 -1
    outer loop
      vertex -26.8478 52.2346 0
      vertex -26.75 53.9117 0
      vertex -17.75 55.5 0
    endloop
  endfacet
  facet normal -0 0 -1
    outer loop
      vertex -26.8478 52.2346 0
      vertex -17.75 55.5 0
      vertex -17.75 46.25 0
    endloop
  endfacet
  facet normal 0 0 -1
    outer loop
      vertex -26.75 52.0883 0
      vertex -17.75 46.25 0
      vertex -26.75 46.25 0
    endloop
  endfacet
  facet normal 0 0 -1
    outer loop
      vertex -26.8478 52.2346 0
      vertex -17.75 46.25 0
      vertex -26.75 52.0883 0
    endloop
  endfacet
  facet normal -0.83147 -0.55557 -0
    outer loop
      vertex -26.8478 52.2346 0
      vertex -26.75 52.0883 0
      vertex -26.8478 52.2346 14.5
    endloop
  endfacet
  facet normal -0.83147 -0.55557 0
    outer loop
      vertex -26.8478 52.2346 14.5
      vertex -26.75 52.0883 0
      vertex -26.75 52.0883 4.5
    endloop
  endfacet
  facet normal -0.83147 -0.55557 3.81999e-017
    outer loop
      vertex -26.8478 52.2346 14.5
      vertex -26.75 52.0883 4.5
      vertex -26.4142 51.5858 4.5
    endloop
  endfacet
  facet normal -0.83147 -0.55557 0
    outer loop
      vertex -26.8478 52.2346 14.5
      vertex -26.4142 51.5858 4.5
      vertex -26.4142 51.5858 14.5
    endloop
  endfacet
  facet normal 0 -0 1
    outer loop
      vertex -25 51 4.5
      vertex -26.75 45.5 4.5
      vertex -15.5 45.5 4.5
    endloop
  endfacet
  facet normal 0 -0 1
    outer loop
      vertex -24.2346 51.1522 4.5
      vertex -25 51 4.5
      vertex -15.5 45.5 4.5
    endloop
  endfacet
  facet normal 0 0 1
    outer loop
      vertex -23.1522 53.7654 4.5
      vertex -23 53 4.5
      vertex -15.5 55.5 4.5
    endloop
  endfacet
  facet normal 0 0 1
    outer loop
      vertex -23.5858 54.4142 4.5
      vertex -23.1522 53.7654 4.5
      vertex -15.5 55.5 4.5
    endloop
  endfacet
  facet normal 0 -0 1
    outer loop
      vertex -26.75 55.5 4.5
      vertex -26.75 53.9117 4.5
      vertex -26.4142 54.4142 4.5
    endloop
  endfacet
  facet normal 0 0 1
    outer loop
      vertex -24.2346 54.8478 4.5
      vertex -23.5858 54.4142 4.5
      vertex -15.5 55.5 4.5
    endloop
  endfacet
  facet normal 0 0 1
    outer loop
      vertex -26.75 55.5 4.5
      vertex -26.4142 54.4142 4.5
      vertex -25.7654 54.8478 4.5
    endloop
  endfacet
  facet normal 0 0 1
    outer loop
      vertex -26.75 55.5 4.5
      vertex -25 55 4.5
      vertex -15.5 55.5 4.5
    endloop
  endfacet
  facet normal 0 0 1
    outer loop
      vertex -26.75 55.5 4.5
      vertex -25.7654 54.8478 4.5
      vertex -25 55 4.5
    endloop
  endfacet
  facet normal 0 0 1
    outer loop
      vertex -15.5 55.5 4.5
      vertex -23 53 4.5
      vertex -15.5 45.5 4.5
    endloop
  endfacet
  facet normal 0 -0 1
    outer loop
      vertex -23 53 4.5
      vertex -23.1522 52.2346 4.5
      vertex -15.5 45.5 4.5
    endloop
  endfacet
  facet normal 0 -0 1
    outer loop
      vertex -23.1522 52.2346 4.5
      vertex -23.5858 51.5858 4.5
      vertex -15.5 45.5 4.5
    endloop
  endfacet
  facet normal 0 -0 1
    outer loop
      vertex -23.5858 51.5858 4.5
      vertex -24.2346 51.1522 4.5
      vertex -15.5 45.5 4.5
    endloop
  endfacet
  facet normal 0 -0 1
    outer loop
      vertex -25.7654 51.1522 4.5
      vertex -26.75 45.5 4.5
      vertex -25 51 4.5
    endloop
  endfacet
  facet normal 0 -0 1
    outer loop
      vertex -26.4142 51.5858 4.5
      vertex -26.75 45.5 4.5
      vertex -25.7654 51.1522 4.5
    endloop
  endfacet
  facet normal 0 -0 1
    outer loop
      vertex -26.75 52.0883 4.5
      vertex -26.75 45.5 4.5
      vertex -26.4142 51.5858 4.5
    endloop
  endfacet
  facet normal 0 0 1
    outer loop
      vertex -25 55 4.5
      vertex -24.2346 54.8478 4.5
      vertex -15.5 55.5 4.5
    endloop
  endfacet
  facet normal -1 -0 -0
    outer loop
      vertex -26.75 53.9117 0
      vertex -26.75 53.9117 4.5
      vertex -26.75 55.5 0
    endloop
  endfacet
  facet normal -1 0 0
    outer loop
      vertex -26.75 55.5 0
      vertex -26.75 53.9117 4.5
      vertex -26.75 55.5 4.5
    endloop
  endfacet
  facet normal -0.195329 0.728977 -0.656079
    outer loop
      vertex -4 58.717 1
      vertex -4 58.492 0.75
      vertex -4.25 58.65 1
    endloop
  endfacet
  facet normal 0.728977 0.195329 -0.656079
    outer loop
      vertex -5.35 4.25 1
      vertex -5.28301 4 1
      vertex -5.50801 4 0.75
    endloop
  endfacet
  facet normal 0 0 1
    outer loop
      vertex -34.8478 11.7654 9.5
      vertex -35 11 9.5
      vertex -34.8478 10.2346 9.5
    endloop
  endfacet
  facet normal 0 0 1
    outer loop
      vertex -34 9.30902 9.5
      vertex -34.8478 11.7654 9.5
      vertex -34.4142 9.58579 9.5
    endloop
  endfacet
  facet normal 0 0 1
    outer loop
      vertex -34.4142 9.58579 9.5
      vertex -34.8478 11.7654 9.5
      vertex -34.8478 10.2346 9.5
    endloop
  endfacet
  facet normal 0 0 1
    outer loop
      vertex -34 12.691 9.5
      vertex -34.8478 11.7654 9.5
      vertex -34 9.30902 9.5
    endloop
  endfacet
  facet normal 0 -0 1
    outer loop
      vertex -34.4142 12.4142 9.5
      vertex -34.8478 11.7654 9.5
      vertex -34 12.691 9.5
    endloop
  endfacet
  facet normal 0 -0 1
    outer loop
      vertex -34 16 14.5
      vertex -34 6 14.5
      vertex -32 6 14.5
    endloop
  endfacet
  facet normal 0 0 1
    outer loop
      vertex -32 16 14.5
      vertex -34 16 14.5
      vertex -32 6 14.5
    endloop
  endfacet
  facet normal 0 -0 1
    outer loop
      vertex -32 12.691 9.5
      vertex -32 9.30902 9.5
      vertex -31.5858 9.58579 9.5
    endloop
  endfacet
  facet normal -0 0 1
    outer loop
      vertex -31 11 9.5
      vertex -32 12.691 9.5
      vertex -31.1522 10.2346 9.5
    endloop
  endfacet
  facet normal -0 0 1
    outer loop
      vertex -31.1522 10.2346 9.5
      vertex -32 12.691 9.5
      vertex -31.5858 9.58579 9.5
    endloop
  endfacet
  facet normal -0 -0 1
    outer loop
      vertex -31.1522 11.7654 9.5
      vertex -32 12.691 9.5
      vertex -31 11 9.5
    endloop
  endfacet
  facet normal -0 -0 1
    outer loop
      vertex -31.5858 12.4142 9.5
      vertex -32 12.691 9.5
      vertex -31.1522 11.7654 9.5
    endloop
  endfacet
  facet normal -0.980785 -0.19509 -0
    outer loop
      vertex -27 53 0
      vertex -26.8478 52.2346 0
      vertex -27 53 14.5
    endloop
  endfacet
  facet normal -0.980785 -0.19509 0
    outer loop
      vertex -27 53 14.5
      vertex -26.8478 52.2346 0
      vertex -26.8478 52.2346 14.5
    endloop
  endfacet
  facet normal -0.83147 0.55557 0
    outer loop
      vertex -26.8478 53.7654 0
      vertex -26.8478 53.7654 14.5
      vertex -26.75 53.9117 0
    endloop
  endfacet
  facet normal -0.83147 0.55557 3.0454e-017
    outer loop
      vertex -26.75 53.9117 4.5
      vertex -26.8478 53.7654 14.5
      vertex -26.4142 54.4142 14.5
    endloop
  endfacet
  facet normal -0.83147 0.55557 0
    outer loop
      vertex -26.75 53.9117 0
      vertex -26.8478 53.7654 14.5
      vertex -26.75 53.9117 4.5
    endloop
  endfacet
  facet normal -0.83147 0.55557 0
    outer loop
      vertex -26.75 53.9117 4.5
      vertex -26.4142 54.4142 14.5
      vertex -26.4142 54.4142 4.5
    endloop
  endfacet
  facet normal -0.980785 0.19509 0
    outer loop
      vertex -27 53 0
      vertex -27 53 14.5
      vertex -26.8478 53.7654 0
    endloop
  endfacet
  facet normal -0.980785 0.19509 0
    outer loop
      vertex -26.8478 53.7654 0
      vertex -27 53 14.5
      vertex -26.8478 53.7654 14.5
    endloop
  endfacet
  facet normal 0 0 1
    outer loop
      vertex -26.8478 53.7654 14.5
      vertex -27 53 14.5
      vertex -26.8478 52.2346 14.5
    endloop
  endfacet
  facet normal 0 0 1
    outer loop
      vertex -25.7654 51.1522 14.5
      vertex -26.8478 53.7654 14.5
      vertex -26.4142 51.5858 14.5
    endloop
  endfacet
  facet normal 0 0 1
    outer loop
      vertex -26.4142 51.5858 14.5
      vertex -26.8478 53.7654 14.5
      vertex -26.8478 52.2346 14.5
    endloop
  endfacet
  facet normal 0 0 1
    outer loop
      vertex -25 51 14.5
      vertex -26.8478 53.7654 14.5
      vertex -25.7654 51.1522 14.5
    endloop
  endfacet
  facet normal -0 0 1
    outer loop
      vertex -24.2346 51.1522 14.5
      vertex -26.8478 53.7654 14.5
      vertex -25 51 14.5
    endloop
  endfacet
  facet normal -0 0 1
    outer loop
      vertex -23.5858 51.5858 14.5
      vertex -26.8478 53.7654 14.5
      vertex -24.2346 51.1522 14.5
    endloop
  endfacet
  facet normal -0 0 1
    outer loop
      vertex -23.1522 52.2346 14.5
      vertex -26.8478 53.7654 14.5
      vertex -23.5858 51.5858 14.5
    endloop
  endfacet
  facet normal -0 0 1
    outer loop
      vertex -23 53 14.5
      vertex -26.8478 53.7654 14.5
      vertex -23.1522 52.2346 14.5
    endloop
  endfacet
  facet normal 0 -0 1
    outer loop
      vertex -23.1522 53.7654 14.5
      vertex -26.8478 53.7654 14.5
      vertex -23 53 14.5
    endloop
  endfacet
  facet normal 0 -0 1
    outer loop
      vertex -23.5858 54.4142 14.5
      vertex -26.8478 53.7654 14.5
      vertex -23.1522 53.7654 14.5
    endloop
  endfacet
  facet normal 0 -0 1
    outer loop
      vertex -24.2346 54.8478 14.5
      vertex -26.8478 53.7654 14.5
      vertex -23.5858 54.4142 14.5
    endloop
  endfacet
  facet normal 0 -0 1
    outer loop
      vertex -25 55 14.5
      vertex -26.8478 53.7654 14.5
      vertex -24.2346 54.8478 14.5
    endloop
  endfacet
  facet normal 0 -0 1
    outer loop
      vertex -25.7654 54.8478 14.5
      vertex -26.8478 53.7654 14.5
      vertex -25 55 14.5
    endloop
  endfacet
  facet normal 0 -0 1
    outer loop
      vertex -26.4142 54.4142 14.5
      vertex -26.8478 53.7654 14.5
      vertex -25.7654 54.8478 14.5
    endloop
  endfacet
  facet normal -0.55557 -0.83147 0
    outer loop
      vertex -26.4142 51.5858 14.5
      vertex -26.4142 51.5858 4.5
      vertex -25.7654 51.1522 4.5
    endloop
  endfacet
  facet normal -0.55557 -0.83147 0
    outer loop
      vertex -25.7654 51.1522 14.5
      vertex -26.4142 51.5858 14.5
      vertex -25.7654 51.1522 4.5
    endloop
  endfacet
  facet normal -0.19509 -0.980785 0
    outer loop
      vertex -25.7654 51.1522 14.5
      vertex -25.7654 51.1522 4.5
      vertex -25 51 4.5
    endloop
  endfacet
  facet normal -0.19509 -0.980785 0
    outer loop
      vertex -25 51 14.5
      vertex -25.7654 51.1522 14.5
      vertex -25 51 4.5
    endloop
  endfacet
  facet normal 0.19509 -0.980785 0
    outer loop
      vertex -25 51 14.5
      vertex -25 51 4.5
      vertex -24.2346 51.1522 4.5
    endloop
  endfacet
  facet normal 0.19509 -0.980785 0
    outer loop
      vertex -24.2346 51.1522 14.5
      vertex -25 51 14.5
      vertex -24.2346 51.1522 4.5
    endloop
  endfacet
  facet normal 0.55557 -0.83147 0
    outer loop
      vertex -24.2346 51.1522 14.5
      vertex -24.2346 51.1522 4.5
      vertex -23.5858 51.5858 4.5
    endloop
  endfacet
  facet normal 0.55557 -0.83147 0
    outer loop
      vertex -23.5858 51.5858 14.5
      vertex -24.2346 51.1522 14.5
      vertex -23.5858 51.5858 4.5
    endloop
  endfacet
  facet normal 0.83147 -0.55557 0
    outer loop
      vertex -23.5858 51.5858 14.5
      vertex -23.5858 51.5858 4.5
      vertex -23.1522 52.2346 4.5
    endloop
  endfacet
  facet normal 0.83147 -0.55557 0
    outer loop
      vertex -23.1522 52.2346 14.5
      vertex -23.5858 51.5858 14.5
      vertex -23.1522 52.2346 4.5
    endloop
  endfacet
  facet normal 0.980785 -0.19509 0
    outer loop
      vertex -23.1522 52.2346 14.5
      vertex -23.1522 52.2346 4.5
      vertex -23 53 4.5
    endloop
  endfacet
  facet normal 0.980785 -0.19509 0
    outer loop
      vertex -23 53 14.5
      vertex -23.1522 52.2346 14.5
      vertex -23 53 4.5
    endloop
  endfacet
  facet normal 0.980785 0.19509 0
    outer loop
      vertex -23 53 4.5
      vertex -23.1522 53.7654 4.5
      vertex -23.1522 53.7654 14.5
    endloop
  endfacet
  facet normal 0.980785 0.19509 -0
    outer loop
      vertex -23 53 14.5
      vertex -23 53 4.5
      vertex -23.1522 53.7654 14.5
    endloop
  endfacet
  facet normal 0.83147 0.55557 0
    outer loop
      vertex -23.1522 53.7654 4.5
      vertex -23.5858 54.4142 4.5
      vertex -23.5858 54.4142 14.5
    endloop
  endfacet
  facet normal 0.83147 0.55557 -0
    outer loop
      vertex -23.1522 53.7654 14.5
      vertex -23.1522 53.7654 4.5
      vertex -23.5858 54.4142 14.5
    endloop
  endfacet
  facet normal 0.55557 0.83147 0
    outer loop
      vertex -24.2346 54.8478 4.5
      vertex -24.2346 54.8478 14.5
      vertex -23.5858 54.4142 4.5
    endloop
  endfacet
  facet normal 0.55557 0.83147 0
    outer loop
      vertex -23.5858 54.4142 4.5
      vertex -24.2346 54.8478 14.5
      vertex -23.5858 54.4142 14.5
    endloop
  endfacet
  facet normal 0.19509 0.980785 0
    outer loop
      vertex -25 55 4.5
      vertex -25 55 14.5
      vertex -24.2346 54.8478 4.5
    endloop
  endfacet
  facet normal 0.19509 0.980785 0
    outer loop
      vertex -24.2346 54.8478 4.5
      vertex -25 55 14.5
      vertex -24.2346 54.8478 14.5
    endloop
  endfacet
  facet normal -0.19509 0.980785 0
    outer loop
      vertex -25.7654 54.8478 4.5
      vertex -25.7654 54.8478 14.5
      vertex -25 55 4.5
    endloop
  endfacet
  facet normal -0.19509 0.980785 0
    outer loop
      vertex -25 55 4.5
      vertex -25.7654 54.8478 14.5
      vertex -25 55 14.5
    endloop
  endfacet
  facet normal -0.55557 0.83147 0
    outer loop
      vertex -26.4142 54.4142 4.5
      vertex -26.4142 54.4142 14.5
      vertex -25.7654 54.8478 4.5
    endloop
  endfacet
  facet normal -0.55557 0.83147 0
    outer loop
      vertex -25.7654 54.8478 4.5
      vertex -26.4142 54.4142 14.5
      vertex -25.7654 54.8478 14.5
    endloop
  endfacet
endsolid OpenSCAD_Model
