solid OpenSCAD_Model
  facet normal 1 -0 0
    outer loop
      vertex 40 0 18
      vertex 40 10 0
      vertex 40 10 18
    endloop
  endfacet
  facet normal 1 0 0
    outer loop
      vertex 40 10 0
      vertex 40 0 18
      vertex 40 0 0
    endloop
  endfacet
  facet normal 0 0 1
    outer loop
      vertex 40 10 18
      vertex 37 5 18
      vertex 40 0 18
    endloop
  endfacet
  facet normal 0 0 1
    outer loop
      vertex 40 10 18
      vertex 36.8042 6.23607 18
      vertex 37 5 18
    endloop
  endfacet
  facet normal 0 0 1
    outer loop
      vertex 40 10 18
      vertex 36.2361 7.35114 18
      vertex 36.8042 6.23607 18
    endloop
  endfacet
  facet normal 0 0 1
    outer loop
      vertex 40 10 18
      vertex 35.3511 8.23607 18
      vertex 36.2361 7.35114 18
    endloop
  endfacet
  facet normal 0 0 1
    outer loop
      vertex 40 10 18
      vertex 34.2361 8.80423 18
      vertex 35.3511 8.23607 18
    endloop
  endfacet
  facet normal 0 0 1
    outer loop
      vertex 40 10 18
      vertex 33 9 18
      vertex 34.2361 8.80423 18
    endloop
  endfacet
  facet normal -0 0 1
    outer loop
      vertex 6.42658 5.46352 18
      vertex 29 5 18
      vertex 29.1958 6.23607 18
    endloop
  endfacet
  facet normal 0 0 1
    outer loop
      vertex 6.21352 5.88168 18
      vertex 29.1958 6.23607 18
      vertex 29.7639 7.35114 18
    endloop
  endfacet
  facet normal 0 0 1
    outer loop
      vertex 5.88168 6.21352 18
      vertex 29.7639 7.35114 18
      vertex 30.6489 8.23607 18
    endloop
  endfacet
  facet normal 0 0 1
    outer loop
      vertex 0 10 18
      vertex 30.6489 8.23607 18
      vertex 31.7639 8.80423 18
    endloop
  endfacet
  facet normal 0 0 1
    outer loop
      vertex 0 10 18
      vertex 31.7639 8.80423 18
      vertex 33 9 18
    endloop
  endfacet
  facet normal 0 0 1
    outer loop
      vertex 29 5 18
      vertex 6.42658 5.46352 18
      vertex 6.5 5 18
    endloop
  endfacet
  facet normal -0 0 1
    outer loop
      vertex 0 10 18
      vertex 33 9 18
      vertex 40 10 18
    endloop
  endfacet
  facet normal 0 0 1
    outer loop
      vertex 29.1958 6.23607 18
      vertex 6.21352 5.88168 18
      vertex 6.42658 5.46352 18
    endloop
  endfacet
  facet normal 0 0 1
    outer loop
      vertex 29.7639 7.35114 18
      vertex 5.88168 6.21352 18
      vertex 6.21352 5.88168 18
    endloop
  endfacet
  facet normal 0 0 1
    outer loop
      vertex 30.6489 8.23607 18
      vertex 5.46352 6.42658 18
      vertex 5.88168 6.21352 18
    endloop
  endfacet
  facet normal 0 0 1
    outer loop
      vertex 30.6489 8.23607 18
      vertex 0 10 18
      vertex 5.46352 6.42658 18
    endloop
  endfacet
  facet normal 0 0 1
    outer loop
      vertex 3.57341 5.46352 18
      vertex 0 10 18
      vertex 3.5 5 18
    endloop
  endfacet
  facet normal 0 0 1
    outer loop
      vertex 3.78647 5.88168 18
      vertex 0 10 18
      vertex 3.57341 5.46352 18
    endloop
  endfacet
  facet normal 0 0 1
    outer loop
      vertex 4.11832 6.21352 18
      vertex 0 10 18
      vertex 3.78647 5.88168 18
    endloop
  endfacet
  facet normal 0 0 1
    outer loop
      vertex 4.53647 6.42658 18
      vertex 0 10 18
      vertex 4.11832 6.21352 18
    endloop
  endfacet
  facet normal 0 0 1
    outer loop
      vertex 5 6.5 18
      vertex 0 10 18
      vertex 4.53647 6.42658 18
    endloop
  endfacet
  facet normal 0 0 1
    outer loop
      vertex 5.46352 6.42658 18
      vertex 0 10 18
      vertex 5 6.5 18
    endloop
  endfacet
  facet normal -0 0 1
    outer loop
      vertex 36.8042 3.76393 18
      vertex 40 0 18
      vertex 37 5 18
    endloop
  endfacet
  facet normal -0 0 1
    outer loop
      vertex 36.2361 2.64886 18
      vertex 40 0 18
      vertex 36.8042 3.76393 18
    endloop
  endfacet
  facet normal -0 0 1
    outer loop
      vertex 35.3511 1.76393 18
      vertex 40 0 18
      vertex 36.2361 2.64886 18
    endloop
  endfacet
  facet normal -0 0 1
    outer loop
      vertex 34.2361 1.19577 18
      vertex 40 0 18
      vertex 35.3511 1.76393 18
    endloop
  endfacet
  facet normal -0 0 1
    outer loop
      vertex 33 1 18
      vertex 40 0 18
      vertex 34.2361 1.19577 18
    endloop
  endfacet
  facet normal 0 0 1
    outer loop
      vertex 6.42658 4.53647 18
      vertex 29 5 18
      vertex 6.5 5 18
    endloop
  endfacet
  facet normal 0 0 1
    outer loop
      vertex 29 5 18
      vertex 6.42658 4.53647 18
      vertex 29.1958 3.76393 18
    endloop
  endfacet
  facet normal -0 0 1
    outer loop
      vertex 6.21352 4.11832 18
      vertex 29.1958 3.76393 18
      vertex 6.42658 4.53647 18
    endloop
  endfacet
  facet normal 0 0 1
    outer loop
      vertex 29.1958 3.76393 18
      vertex 6.21352 4.11832 18
      vertex 29.7639 2.64886 18
    endloop
  endfacet
  facet normal -0 0 1
    outer loop
      vertex 5.88168 3.78647 18
      vertex 29.7639 2.64886 18
      vertex 6.21352 4.11832 18
    endloop
  endfacet
  facet normal 0 0 1
    outer loop
      vertex 29.7639 2.64886 18
      vertex 5.88168 3.78647 18
      vertex 30.6489 1.76393 18
    endloop
  endfacet
  facet normal -0 0 1
    outer loop
      vertex 5.46352 3.57341 18
      vertex 30.6489 1.76393 18
      vertex 5.88168 3.78647 18
    endloop
  endfacet
  facet normal 0 0 1
    outer loop
      vertex 0 0 18
      vertex 30.6489 1.76393 18
      vertex 5.46352 3.57341 18
    endloop
  endfacet
  facet normal 0 0 1
    outer loop
      vertex 30.6489 1.76393 18
      vertex 0 0 18
      vertex 31.7639 1.19577 18
    endloop
  endfacet
  facet normal 0 0 1
    outer loop
      vertex 31.7639 1.19577 18
      vertex 0 0 18
      vertex 33 1 18
    endloop
  endfacet
  facet normal 0 0 1
    outer loop
      vertex 0 0 18
      vertex 5.46352 3.57341 18
      vertex 5 3.5 18
    endloop
  endfacet
  facet normal 0 0 1
    outer loop
      vertex 0 0 18
      vertex 3.5 5 18
      vertex 0 10 18
    endloop
  endfacet
  facet normal 0 0 1
    outer loop
      vertex 3.5 5 18
      vertex 0 0 18
      vertex 3.57341 4.53647 18
    endloop
  endfacet
  facet normal 0 0 1
    outer loop
      vertex 33 1 18
      vertex 0 0 18
      vertex 40 0 18
    endloop
  endfacet
  facet normal 0 0 1
    outer loop
      vertex 4.53647 3.57341 18
      vertex 0 0 18
      vertex 5 3.5 18
    endloop
  endfacet
  facet normal 0 0 1
    outer loop
      vertex 4.11832 3.78647 18
      vertex 0 0 18
      vertex 4.53647 3.57341 18
    endloop
  endfacet
  facet normal 0 0 1
    outer loop
      vertex 3.78647 4.11832 18
      vertex 0 0 18
      vertex 4.11832 3.78647 18
    endloop
  endfacet
  facet normal 0 0 1
    outer loop
      vertex 3.57341 4.53647 18
      vertex 0 0 18
      vertex 3.78647 4.11832 18
    endloop
  endfacet
  facet normal 0 0 -1
    outer loop
      vertex 40 0 0
      vertex 35 5 0
      vertex 40 10 0
    endloop
  endfacet
  facet normal 0 0 -1
    outer loop
      vertex 40 0 0
      vertex 34.9021 4.38197 0
      vertex 35 5 0
    endloop
  endfacet
  facet normal 0 0 -1
    outer loop
      vertex 40 0 0
      vertex 34.618 3.82443 0
      vertex 34.9021 4.38197 0
    endloop
  endfacet
  facet normal 0 0 -1
    outer loop
      vertex 40 0 0
      vertex 34.1756 3.38197 0
      vertex 34.618 3.82443 0
    endloop
  endfacet
  facet normal 0 0 -1
    outer loop
      vertex 40 0 0
      vertex 33.618 3.09789 0
      vertex 34.1756 3.38197 0
    endloop
  endfacet
  facet normal 0 0 -1
    outer loop
      vertex 40 0 0
      vertex 33 3 0
      vertex 33.618 3.09789 0
    endloop
  endfacet
  facet normal 0 0 -1
    outer loop
      vertex 40 0 0
      vertex 32.382 3.09789 0
      vertex 33 3 0
    endloop
  endfacet
  facet normal 0 0 -1
    outer loop
      vertex 31.0979 4.38197 0
      vertex 6.5 5 0
      vertex 31 5 0
    endloop
  endfacet
  facet normal 0 0 -1
    outer loop
      vertex 6.21352 4.11832 0
      vertex 31.0979 4.38197 0
      vertex 31.382 3.82443 0
    endloop
  endfacet
  facet normal 0 0 -1
    outer loop
      vertex 5.88168 3.78647 0
      vertex 31.382 3.82443 0
      vertex 31.8244 3.38197 0
    endloop
  endfacet
  facet normal 0 0 -1
    outer loop
      vertex 0 0 0
      vertex 31.8244 3.38197 0
      vertex 32.382 3.09789 0
    endloop
  endfacet
  facet normal 0 0 -1
    outer loop
      vertex 0 0 0
      vertex 32.382 3.09789 0
      vertex 40 0 0
    endloop
  endfacet
  facet normal 0 0 -1
    outer loop
      vertex 31.0979 4.38197 0
      vertex 6.42658 4.53647 0
      vertex 6.5 5 0
    endloop
  endfacet
  facet normal -0 0 -1
    outer loop
      vertex 31.0979 4.38197 0
      vertex 6.21352 4.11832 0
      vertex 6.42658 4.53647 0
    endloop
  endfacet
  facet normal -0 0 -1
    outer loop
      vertex 31.382 3.82443 0
      vertex 5.88168 3.78647 0
      vertex 6.21352 4.11832 0
    endloop
  endfacet
  facet normal 0 0 -1
    outer loop
      vertex 31.8244 3.38197 0
      vertex 5.46352 3.57341 0
      vertex 5.88168 3.78647 0
    endloop
  endfacet
  facet normal -0 0 -1
    outer loop
      vertex 31.8244 3.38197 0
      vertex 0 0 0
      vertex 5.46352 3.57341 0
    endloop
  endfacet
  facet normal -0 0 -1
    outer loop
      vertex 3.57341 4.53647 0
      vertex 0 0 0
      vertex 3.5 5 0
    endloop
  endfacet
  facet normal -0 0 -1
    outer loop
      vertex 3.78647 4.11832 0
      vertex 0 0 0
      vertex 3.57341 4.53647 0
    endloop
  endfacet
  facet normal -0 0 -1
    outer loop
      vertex 4.11832 3.78647 0
      vertex 0 0 0
      vertex 3.78647 4.11832 0
    endloop
  endfacet
  facet normal -0 0 -1
    outer loop
      vertex 4.53647 3.57341 0
      vertex 0 0 0
      vertex 4.11832 3.78647 0
    endloop
  endfacet
  facet normal -0 0 -1
    outer loop
      vertex 5 3.5 0
      vertex 0 0 0
      vertex 4.53647 3.57341 0
    endloop
  endfacet
  facet normal 0 0 -1
    outer loop
      vertex 5.46352 3.57341 0
      vertex 0 0 0
      vertex 5 3.5 0
    endloop
  endfacet
  facet normal 0 0 -1
    outer loop
      vertex 34.9021 5.61803 0
      vertex 40 10 0
      vertex 35 5 0
    endloop
  endfacet
  facet normal 0 0 -1
    outer loop
      vertex 34.618 6.17557 0
      vertex 40 10 0
      vertex 34.9021 5.61803 0
    endloop
  endfacet
  facet normal 0 0 -1
    outer loop
      vertex 34.1756 6.61803 0
      vertex 40 10 0
      vertex 34.618 6.17557 0
    endloop
  endfacet
  facet normal 0 0 -1
    outer loop
      vertex 33.618 6.90211 0
      vertex 40 10 0
      vertex 34.1756 6.61803 0
    endloop
  endfacet
  facet normal 0 0 -1
    outer loop
      vertex 33 7 0
      vertex 40 10 0
      vertex 33.618 6.90211 0
    endloop
  endfacet
  facet normal 0 0 -1
    outer loop
      vertex 32.382 6.90211 0
      vertex 40 10 0
      vertex 33 7 0
    endloop
  endfacet
  facet normal 0 0 -1
    outer loop
      vertex 6.5 5 0
      vertex 31.0979 5.61803 0
      vertex 31 5 0
    endloop
  endfacet
  facet normal 0 0 -1
    outer loop
      vertex 6.42658 5.46352 0
      vertex 31.0979 5.61803 0
      vertex 6.5 5 0
    endloop
  endfacet
  facet normal 0 0 -1
    outer loop
      vertex 6.21352 5.88168 0
      vertex 31.0979 5.61803 0
      vertex 6.42658 5.46352 0
    endloop
  endfacet
  facet normal 0 0 -1
    outer loop
      vertex 31.0979 5.61803 0
      vertex 6.21352 5.88168 0
      vertex 31.382 6.17557 0
    endloop
  endfacet
  facet normal 0 0 -1
    outer loop
      vertex 5.88168 6.21352 0
      vertex 31.382 6.17557 0
      vertex 6.21352 5.88168 0
    endloop
  endfacet
  facet normal 0 0 -1
    outer loop
      vertex 31.382 6.17557 0
      vertex 5.88168 6.21352 0
      vertex 31.8244 6.61803 0
    endloop
  endfacet
  facet normal 0 0 -1
    outer loop
      vertex 5.46352 6.42658 0
      vertex 31.8244 6.61803 0
      vertex 5.88168 6.21352 0
    endloop
  endfacet
  facet normal 0 0 -1
    outer loop
      vertex 0 10 0
      vertex 31.8244 6.61803 0
      vertex 5.46352 6.42658 0
    endloop
  endfacet
  facet normal 0 0 -1
    outer loop
      vertex 31.8244 6.61803 0
      vertex 0 10 0
      vertex 32.382 6.90211 0
    endloop
  endfacet
  facet normal 0 0 -1
    outer loop
      vertex 0 10 0
      vertex 5.46352 6.42658 0
      vertex 5 6.5 0
    endloop
  endfacet
  facet normal 0 0 -1
    outer loop
      vertex 0 10 0
      vertex 3.5 5 0
      vertex 0 0 0
    endloop
  endfacet
  facet normal 0 0 -1
    outer loop
      vertex 3.5 5 0
      vertex 0 10 0
      vertex 3.57341 5.46352 0
    endloop
  endfacet
  facet normal 0 0 -1
    outer loop
      vertex 32.382 6.90211 0
      vertex 0 10 0
      vertex 40 10 0
    endloop
  endfacet
  facet normal 0 0 -1
    outer loop
      vertex 4.53647 6.42658 0
      vertex 0 10 0
      vertex 5 6.5 0
    endloop
  endfacet
  facet normal 0 0 -1
    outer loop
      vertex 4.11832 6.21352 0
      vertex 0 10 0
      vertex 4.53647 6.42658 0
    endloop
  endfacet
  facet normal 0 0 -1
    outer loop
      vertex 3.78647 5.88168 0
      vertex 0 10 0
      vertex 4.11832 6.21352 0
    endloop
  endfacet
  facet normal 0 0 -1
    outer loop
      vertex 3.57341 5.46352 0
      vertex 0 10 0
      vertex 3.78647 5.88168 0
    endloop
  endfacet
  facet normal -1 0 0
    outer loop
      vertex 0 0 0
      vertex 0 10 18
      vertex 0 10 0
    endloop
  endfacet
  facet normal -1 -0 0
    outer loop
      vertex 0 10 18
      vertex 0 0 0
      vertex 0 0 18
    endloop
  endfacet
  facet normal 0 1 -0
    outer loop
      vertex 40 10 0
      vertex 0 10 18
      vertex 40 10 18
    endloop
  endfacet
  facet normal 0 1 0
    outer loop
      vertex 0 10 18
      vertex 40 10 0
      vertex 0 10 0
    endloop
  endfacet
  facet normal 0 -1 0
    outer loop
      vertex 0 0 0
      vertex 40 0 18
      vertex 0 0 18
    endloop
  endfacet
  facet normal 0 -1 -0
    outer loop
      vertex 40 0 18
      vertex 0 0 0
      vertex 40 0 0
    endloop
  endfacet
  facet normal -0.891009 -0.453985 0
    outer loop
      vertex 6.42658 5.46352 0
      vertex 6.21352 5.88168 18
      vertex 6.21352 5.88168 0
    endloop
  endfacet
  facet normal -0.891009 -0.453985 0
    outer loop
      vertex 6.21352 5.88168 18
      vertex 6.42658 5.46352 0
      vertex 6.42658 5.46352 18
    endloop
  endfacet
  facet normal -0.987686 -0.156446 0
    outer loop
      vertex 6.5 5 0
      vertex 6.42658 5.46352 18
      vertex 6.42658 5.46352 0
    endloop
  endfacet
  facet normal -0.987686 -0.156446 0
    outer loop
      vertex 6.42658 5.46352 18
      vertex 6.5 5 0
      vertex 6.5 5 18
    endloop
  endfacet
  facet normal -0.707107 -0.707107 0
    outer loop
      vertex 6.21352 5.88168 0
      vertex 5.88168 6.21352 18
      vertex 5.88168 6.21352 0
    endloop
  endfacet
  facet normal -0.707107 -0.707107 0
    outer loop
      vertex 5.88168 6.21352 18
      vertex 6.21352 5.88168 0
      vertex 6.21352 5.88168 18
    endloop
  endfacet
  facet normal 0.156443 -0.987687 0
    outer loop
      vertex 4.53647 6.42658 0
      vertex 5 6.5 18
      vertex 4.53647 6.42658 18
    endloop
  endfacet
  facet normal 0.156443 -0.987687 0
    outer loop
      vertex 5 6.5 18
      vertex 4.53647 6.42658 0
      vertex 5 6.5 0
    endloop
  endfacet
  facet normal 0.707096 -0.707117 0
    outer loop
      vertex 3.78647 5.88168 18
      vertex 4.11832 6.21352 0
      vertex 4.11832 6.21352 18
    endloop
  endfacet
  facet normal 0.707096 -0.707117 0
    outer loop
      vertex 4.11832 6.21352 0
      vertex 3.78647 5.88168 18
      vertex 3.78647 5.88168 0
    endloop
  endfacet
  facet normal -0.453985 -0.891009 0
    outer loop
      vertex 5.46352 6.42658 0
      vertex 5.88168 6.21352 18
      vertex 5.46352 6.42658 18
    endloop
  endfacet
  facet normal -0.453985 -0.891009 -0
    outer loop
      vertex 5.88168 6.21352 18
      vertex 5.46352 6.42658 0
      vertex 5.88168 6.21352 0
    endloop
  endfacet
  facet normal -0.891005 0.453994 0
    outer loop
      vertex 6.21352 4.11832 0
      vertex 6.42658 4.53647 18
      vertex 6.42658 4.53647 0
    endloop
  endfacet
  facet normal -0.891005 0.453994 0
    outer loop
      vertex 6.42658 4.53647 18
      vertex 6.21352 4.11832 0
      vertex 6.21352 4.11832 18
    endloop
  endfacet
  facet normal -0.156446 -0.987686 0
    outer loop
      vertex 5 6.5 0
      vertex 5.46352 6.42658 18
      vertex 5 6.5 18
    endloop
  endfacet
  facet normal -0.156446 -0.987686 -0
    outer loop
      vertex 5.46352 6.42658 18
      vertex 5 6.5 0
      vertex 5.46352 6.42658 0
    endloop
  endfacet
  facet normal 0.453994 0.891005 -0
    outer loop
      vertex 4.53647 3.57341 0
      vertex 4.11832 3.78647 18
      vertex 4.53647 3.57341 18
    endloop
  endfacet
  facet normal 0.453994 0.891005 0
    outer loop
      vertex 4.11832 3.78647 18
      vertex 4.53647 3.57341 0
      vertex 4.11832 3.78647 0
    endloop
  endfacet
  facet normal -0.453985 0.891009 0
    outer loop
      vertex 5.88168 3.78647 0
      vertex 5.46352 3.57341 18
      vertex 5.88168 3.78647 18
    endloop
  endfacet
  facet normal -0.453985 0.891009 0
    outer loop
      vertex 5.46352 3.57341 18
      vertex 5.88168 3.78647 0
      vertex 5.46352 3.57341 0
    endloop
  endfacet
  facet normal -0.987687 0.156443 0
    outer loop
      vertex 6.42658 4.53647 0
      vertex 6.5 5 18
      vertex 6.5 5 0
    endloop
  endfacet
  facet normal -0.987687 0.156443 0
    outer loop
      vertex 6.5 5 18
      vertex 6.42658 4.53647 0
      vertex 6.42658 4.53647 18
    endloop
  endfacet
  facet normal -0.707117 0.707096 0
    outer loop
      vertex 5.88168 3.78647 0
      vertex 6.21352 4.11832 18
      vertex 6.21352 4.11832 0
    endloop
  endfacet
  facet normal -0.707117 0.707096 0
    outer loop
      vertex 6.21352 4.11832 18
      vertex 5.88168 3.78647 0
      vertex 5.88168 3.78647 18
    endloop
  endfacet
  facet normal 0.891005 0.453994 0
    outer loop
      vertex 3.78647 4.11832 18
      vertex 3.57341 4.53647 0
      vertex 3.57341 4.53647 18
    endloop
  endfacet
  facet normal 0.891005 0.453994 0
    outer loop
      vertex 3.57341 4.53647 0
      vertex 3.78647 4.11832 18
      vertex 3.78647 4.11832 0
    endloop
  endfacet
  facet normal 0.453994 -0.891005 0
    outer loop
      vertex 4.11832 6.21352 0
      vertex 4.53647 6.42658 18
      vertex 4.11832 6.21352 18
    endloop
  endfacet
  facet normal 0.453994 -0.891005 0
    outer loop
      vertex 4.53647 6.42658 18
      vertex 4.11832 6.21352 0
      vertex 4.53647 6.42658 0
    endloop
  endfacet
  facet normal 0.891009 -0.453985 0
    outer loop
      vertex 3.57341 5.46352 18
      vertex 3.78647 5.88168 0
      vertex 3.78647 5.88168 18
    endloop
  endfacet
  facet normal 0.891009 -0.453985 0
    outer loop
      vertex 3.78647 5.88168 0
      vertex 3.57341 5.46352 18
      vertex 3.57341 5.46352 0
    endloop
  endfacet
  facet normal 0.156422 0.98769 -0
    outer loop
      vertex 5 3.5 0
      vertex 4.53647 3.57341 18
      vertex 5 3.5 18
    endloop
  endfacet
  facet normal 0.156422 0.98769 0
    outer loop
      vertex 4.53647 3.57341 18
      vertex 5 3.5 0
      vertex 4.53647 3.57341 0
    endloop
  endfacet
  facet normal 0.98769 0.156422 0
    outer loop
      vertex 3.57341 4.53647 18
      vertex 3.5 5 0
      vertex 3.5 5 18
    endloop
  endfacet
  facet normal 0.98769 0.156422 0
    outer loop
      vertex 3.5 5 0
      vertex 3.57341 4.53647 18
      vertex 3.57341 4.53647 0
    endloop
  endfacet
  facet normal 0.98769 -0.156425 0
    outer loop
      vertex 3.5 5 18
      vertex 3.57341 5.46352 0
      vertex 3.57341 5.46352 18
    endloop
  endfacet
  facet normal 0.98769 -0.156425 0
    outer loop
      vertex 3.57341 5.46352 0
      vertex 3.5 5 18
      vertex 3.5 5 0
    endloop
  endfacet
  facet normal 0.707107 0.707107 0
    outer loop
      vertex 4.11832 3.78647 18
      vertex 3.78647 4.11832 0
      vertex 3.78647 4.11832 18
    endloop
  endfacet
  facet normal 0.707107 0.707107 0
    outer loop
      vertex 3.78647 4.11832 0
      vertex 4.11832 3.78647 18
      vertex 4.11832 3.78647 0
    endloop
  endfacet
  facet normal -0.156425 0.98769 0
    outer loop
      vertex 5.46352 3.57341 0
      vertex 5 3.5 18
      vertex 5.46352 3.57341 18
    endloop
  endfacet
  facet normal -0.156425 0.98769 0
    outer loop
      vertex 5 3.5 18
      vertex 5.46352 3.57341 0
      vertex 5 3.5 0
    endloop
  endfacet
  facet normal -0.890994 -0.454015 0
    outer loop
      vertex 34.9021 5.61803 0
      vertex 34.618 6.17557 10
      vertex 34.618 6.17557 0
    endloop
  endfacet
  facet normal -0.890994 -0.454015 0
    outer loop
      vertex 34.618 6.17557 10
      vertex 34.9021 5.61803 0
      vertex 34.9021 5.61803 10
    endloop
  endfacet
  facet normal -0.987685 -0.156456 0
    outer loop
      vertex 35 5 0
      vertex 34.9021 5.61803 10
      vertex 34.9021 5.61803 0
    endloop
  endfacet
  facet normal -0.987685 -0.156456 0
    outer loop
      vertex 34.9021 5.61803 10
      vertex 35 5 0
      vertex 35 5 10
    endloop
  endfacet
  facet normal 0.156448 -0.987686 0
    outer loop
      vertex 32.382 6.90211 0
      vertex 33 7 10
      vertex 32.382 6.90211 10
    endloop
  endfacet
  facet normal 0.156448 -0.987686 0
    outer loop
      vertex 33 7 10
      vertex 32.382 6.90211 0
      vertex 33 7 0
    endloop
  endfacet
  facet normal 0.890994 -0.454015 0
    outer loop
      vertex 31.0979 5.61803 10
      vertex 31.382 6.17557 0
      vertex 31.382 6.17557 10
    endloop
  endfacet
  facet normal 0.890994 -0.454015 0
    outer loop
      vertex 31.382 6.17557 0
      vertex 31.0979 5.61803 10
      vertex 31.0979 5.61803 0
    endloop
  endfacet
  facet normal 0.707155 -0.707059 0
    outer loop
      vertex 31.382 6.17557 10
      vertex 31.8244 6.61803 0
      vertex 31.8244 6.61803 10
    endloop
  endfacet
  facet normal 0.707155 -0.707059 0
    outer loop
      vertex 31.8244 6.61803 0
      vertex 31.382 6.17557 10
      vertex 31.382 6.17557 0
    endloop
  endfacet
  facet normal 0.987685 0.156456 0
    outer loop
      vertex 31.0979 4.38197 10
      vertex 31 5 0
      vertex 31 5 10
    endloop
  endfacet
  facet normal 0.987685 0.156456 0
    outer loop
      vertex 31 5 0
      vertex 31.0979 4.38197 10
      vertex 31.0979 4.38197 0
    endloop
  endfacet
  facet normal -0.156448 -0.987686 0
    outer loop
      vertex 33 7 0
      vertex 33.618 6.90211 10
      vertex 33 7 10
    endloop
  endfacet
  facet normal -0.156448 -0.987686 -0
    outer loop
      vertex 33.618 6.90211 10
      vertex 33 7 0
      vertex 33.618 6.90211 0
    endloop
  endfacet
  facet normal 0.156448 0.987686 -0
    outer loop
      vertex 33 3 0
      vertex 32.382 3.09789 10
      vertex 33 3 10
    endloop
  endfacet
  facet normal 0.156448 0.987686 0
    outer loop
      vertex 32.382 3.09789 10
      vertex 33 3 0
      vertex 32.382 3.09789 0
    endloop
  endfacet
  facet normal 0.453951 -0.891027 0
    outer loop
      vertex 31.8244 6.61803 0
      vertex 32.382 6.90211 10
      vertex 31.8244 6.61803 10
    endloop
  endfacet
  facet normal 0.453951 -0.891027 0
    outer loop
      vertex 32.382 6.90211 10
      vertex 31.8244 6.61803 0
      vertex 32.382 6.90211 0
    endloop
  endfacet
  facet normal 0.890994 0.454015 0
    outer loop
      vertex 31.382 3.82443 10
      vertex 31.0979 4.38197 0
      vertex 31.0979 4.38197 10
    endloop
  endfacet
  facet normal 0.890994 0.454015 0
    outer loop
      vertex 31.0979 4.38197 0
      vertex 31.382 3.82443 10
      vertex 31.382 3.82443 0
    endloop
  endfacet
  facet normal -0.707155 0.707059 0
    outer loop
      vertex 34.1756 3.38197 0
      vertex 34.618 3.82443 10
      vertex 34.618 3.82443 0
    endloop
  endfacet
  facet normal -0.707155 0.707059 0
    outer loop
      vertex 34.618 3.82443 10
      vertex 34.1756 3.38197 0
      vertex 34.1756 3.38197 10
    endloop
  endfacet
  facet normal -0.987685 0.156456 0
    outer loop
      vertex 34.9021 4.38197 0
      vertex 35 5 10
      vertex 35 5 0
    endloop
  endfacet
  facet normal -0.987685 0.156456 0
    outer loop
      vertex 35 5 10
      vertex 34.9021 4.38197 0
      vertex 34.9021 4.38197 10
    endloop
  endfacet
  facet normal -0.890994 0.454015 0
    outer loop
      vertex 34.618 3.82443 0
      vertex 34.9021 4.38197 10
      vertex 34.9021 4.38197 0
    endloop
  endfacet
  facet normal -0.890994 0.454015 0
    outer loop
      vertex 34.9021 4.38197 10
      vertex 34.618 3.82443 0
      vertex 34.618 3.82443 10
    endloop
  endfacet
  facet normal 0.987685 -0.156456 0
    outer loop
      vertex 31 5 10
      vertex 31.0979 5.61803 0
      vertex 31.0979 5.61803 10
    endloop
  endfacet
  facet normal 0.987685 -0.156456 0
    outer loop
      vertex 31.0979 5.61803 0
      vertex 31 5 10
      vertex 31 5 0
    endloop
  endfacet
  facet normal 0.453951 0.891027 -0
    outer loop
      vertex 32.382 3.09789 0
      vertex 31.8244 3.38197 10
      vertex 32.382 3.09789 10
    endloop
  endfacet
  facet normal 0.453951 0.891027 0
    outer loop
      vertex 31.8244 3.38197 10
      vertex 32.382 3.09789 0
      vertex 31.8244 3.38197 0
    endloop
  endfacet
  facet normal -0.453951 0.891027 0
    outer loop
      vertex 34.1756 3.38197 0
      vertex 33.618 3.09789 10
      vertex 34.1756 3.38197 10
    endloop
  endfacet
  facet normal -0.453951 0.891027 0
    outer loop
      vertex 33.618 3.09789 10
      vertex 34.1756 3.38197 0
      vertex 33.618 3.09789 0
    endloop
  endfacet
  facet normal -0.453951 -0.891027 0
    outer loop
      vertex 33.618 6.90211 0
      vertex 34.1756 6.61803 10
      vertex 33.618 6.90211 10
    endloop
  endfacet
  facet normal -0.453951 -0.891027 -0
    outer loop
      vertex 34.1756 6.61803 10
      vertex 33.618 6.90211 0
      vertex 34.1756 6.61803 0
    endloop
  endfacet
  facet normal -0.156448 0.987686 0
    outer loop
      vertex 33.618 3.09789 0
      vertex 33 3 10
      vertex 33.618 3.09789 10
    endloop
  endfacet
  facet normal -0.156448 0.987686 0
    outer loop
      vertex 33 3 10
      vertex 33.618 3.09789 0
      vertex 33 3 0
    endloop
  endfacet
  facet normal -0.707155 -0.707059 0
    outer loop
      vertex 34.618 6.17557 0
      vertex 34.1756 6.61803 10
      vertex 34.1756 6.61803 0
    endloop
  endfacet
  facet normal -0.707155 -0.707059 0
    outer loop
      vertex 34.1756 6.61803 10
      vertex 34.618 6.17557 0
      vertex 34.618 6.17557 10
    endloop
  endfacet
  facet normal 0.707155 0.707059 0
    outer loop
      vertex 31.8244 3.38197 10
      vertex 31.382 3.82443 0
      vertex 31.382 3.82443 10
    endloop
  endfacet
  facet normal 0.707155 0.707059 0
    outer loop
      vertex 31.382 3.82443 0
      vertex 31.8244 3.38197 10
      vertex 31.8244 3.38197 0
    endloop
  endfacet
  facet normal -0.891025 -0.453955 0
    outer loop
      vertex 36.8042 6.23607 10
      vertex 36.2361 7.35114 18
      vertex 36.2361 7.35114 10
    endloop
  endfacet
  facet normal -0.891025 -0.453955 0
    outer loop
      vertex 36.2361 7.35114 18
      vertex 36.8042 6.23607 10
      vertex 36.8042 6.23607 18
    endloop
  endfacet
  facet normal -0.987685 -0.156455 0
    outer loop
      vertex 37 5 10
      vertex 36.8042 6.23607 18
      vertex 36.8042 6.23607 10
    endloop
  endfacet
  facet normal -0.987685 -0.156455 0
    outer loop
      vertex 36.8042 6.23607 18
      vertex 37 5 10
      vertex 37 5 18
    endloop
  endfacet
  facet normal 0.891025 0.453955 0
    outer loop
      vertex 29.7639 2.64886 18
      vertex 29.1958 3.76393 10
      vertex 29.1958 3.76393 18
    endloop
  endfacet
  facet normal 0.891025 0.453955 0
    outer loop
      vertex 29.1958 3.76393 10
      vertex 29.7639 2.64886 18
      vertex 29.7639 2.64886 10
    endloop
  endfacet
  facet normal 0.156427 -0.987689 0
    outer loop
      vertex 31.7639 8.80423 10
      vertex 33 9 18
      vertex 31.7639 8.80423 18
    endloop
  endfacet
  facet normal 0.156427 -0.987689 0
    outer loop
      vertex 33 9 18
      vertex 31.7639 8.80423 10
      vertex 33 9 10
    endloop
  endfacet
  facet normal -0.707079 -0.707135 0
    outer loop
      vertex 36.2361 7.35114 10
      vertex 35.3511 8.23607 18
      vertex 35.3511 8.23607 10
    endloop
  endfacet
  facet normal -0.707079 -0.707135 0
    outer loop
      vertex 35.3511 8.23607 18
      vertex 36.2361 7.35114 10
      vertex 36.2361 7.35114 18
    endloop
  endfacet
  facet normal -0.707079 0.707135 0
    outer loop
      vertex 35.3511 1.76393 10
      vertex 36.2361 2.64886 18
      vertex 36.2361 2.64886 10
    endloop
  endfacet
  facet normal -0.707079 0.707135 0
    outer loop
      vertex 36.2361 2.64886 18
      vertex 35.3511 1.76393 10
      vertex 35.3511 1.76393 18
    endloop
  endfacet
  facet normal -0.156427 0.987689 0
    outer loop
      vertex 34.2361 1.19577 10
      vertex 33 1 18
      vertex 34.2361 1.19577 18
    endloop
  endfacet
  facet normal -0.156427 0.987689 0
    outer loop
      vertex 33 1 18
      vertex 34.2361 1.19577 10
      vertex 33 1 10
    endloop
  endfacet
  facet normal -0.987685 0.156455 0
    outer loop
      vertex 36.8042 3.76393 10
      vertex 37 5 18
      vertex 37 5 10
    endloop
  endfacet
  facet normal -0.987685 0.156455 0
    outer loop
      vertex 37 5 18
      vertex 36.8042 3.76393 10
      vertex 36.8042 3.76393 18
    endloop
  endfacet
  facet normal 0.454015 0.890994 -0
    outer loop
      vertex 31.7639 1.19577 10
      vertex 30.6489 1.76393 18
      vertex 31.7639 1.19577 18
    endloop
  endfacet
  facet normal 0.454015 0.890994 0
    outer loop
      vertex 30.6489 1.76393 18
      vertex 31.7639 1.19577 10
      vertex 30.6489 1.76393 10
    endloop
  endfacet
  facet normal -0.156427 -0.987689 0
    outer loop
      vertex 33 9 10
      vertex 34.2361 8.80423 18
      vertex 33 9 18
    endloop
  endfacet
  facet normal -0.156427 -0.987689 -0
    outer loop
      vertex 34.2361 8.80423 18
      vertex 33 9 10
      vertex 34.2361 8.80423 10
    endloop
  endfacet
  facet normal 0.891025 -0.453955 0
    outer loop
      vertex 29.1958 6.23607 18
      vertex 29.7639 7.35114 10
      vertex 29.7639 7.35114 18
    endloop
  endfacet
  facet normal 0.891025 -0.453955 0
    outer loop
      vertex 29.7639 7.35114 10
      vertex 29.1958 6.23607 18
      vertex 29.1958 6.23607 10
    endloop
  endfacet
  facet normal 0.156427 0.987689 -0
    outer loop
      vertex 33 1 10
      vertex 31.7639 1.19577 18
      vertex 33 1 18
    endloop
  endfacet
  facet normal 0.156427 0.987689 0
    outer loop
      vertex 31.7639 1.19577 18
      vertex 33 1 10
      vertex 31.7639 1.19577 10
    endloop
  endfacet
  facet normal 0.454015 -0.890994 0
    outer loop
      vertex 30.6489 8.23607 10
      vertex 31.7639 8.80423 18
      vertex 30.6489 8.23607 18
    endloop
  endfacet
  facet normal 0.454015 -0.890994 0
    outer loop
      vertex 31.7639 8.80423 18
      vertex 30.6489 8.23607 10
      vertex 31.7639 8.80423 10
    endloop
  endfacet
  facet normal -0.454015 0.890994 0
    outer loop
      vertex 35.3511 1.76393 10
      vertex 34.2361 1.19577 18
      vertex 35.3511 1.76393 18
    endloop
  endfacet
  facet normal -0.454015 0.890994 0
    outer loop
      vertex 34.2361 1.19577 18
      vertex 35.3511 1.76393 10
      vertex 34.2361 1.19577 10
    endloop
  endfacet
  facet normal -0.891025 0.453955 0
    outer loop
      vertex 36.2361 2.64886 10
      vertex 36.8042 3.76393 18
      vertex 36.8042 3.76393 10
    endloop
  endfacet
  facet normal -0.891025 0.453955 0
    outer loop
      vertex 36.8042 3.76393 18
      vertex 36.2361 2.64886 10
      vertex 36.2361 2.64886 18
    endloop
  endfacet
  facet normal -0.454015 -0.890994 0
    outer loop
      vertex 34.2361 8.80423 10
      vertex 35.3511 8.23607 18
      vertex 34.2361 8.80423 18
    endloop
  endfacet
  facet normal -0.454015 -0.890994 -0
    outer loop
      vertex 35.3511 8.23607 18
      vertex 34.2361 8.80423 10
      vertex 35.3511 8.23607 10
    endloop
  endfacet
  facet normal 0.987685 0.156455 0
    outer loop
      vertex 29.1958 3.76393 18
      vertex 29 5 10
      vertex 29 5 18
    endloop
  endfacet
  facet normal 0.987685 0.156455 0
    outer loop
      vertex 29 5 10
      vertex 29.1958 3.76393 18
      vertex 29.1958 3.76393 10
    endloop
  endfacet
  facet normal 0 0 1
    outer loop
      vertex 35 5 10
      vertex 37 5 10
      vertex 36.8042 6.23607 10
    endloop
  endfacet
  facet normal 0 0 1
    outer loop
      vertex 34.9021 5.61803 10
      vertex 36.8042 6.23607 10
      vertex 36.2361 7.35114 10
    endloop
  endfacet
  facet normal 0 0 1
    outer loop
      vertex 37 5 10
      vertex 35 5 10
      vertex 36.8042 3.76393 10
    endloop
  endfacet
  facet normal 0 0 1
    outer loop
      vertex 34.618 6.17557 10
      vertex 36.2361 7.35114 10
      vertex 35.3511 8.23607 10
    endloop
  endfacet
  facet normal -0 0 1
    outer loop
      vertex 34.9021 4.38197 10
      vertex 36.8042 3.76393 10
      vertex 35 5 10
    endloop
  endfacet
  facet normal 0 0 1
    outer loop
      vertex 36.8042 3.76393 10
      vertex 34.9021 4.38197 10
      vertex 36.2361 2.64886 10
    endloop
  endfacet
  facet normal 0 0 1
    outer loop
      vertex 36.8042 6.23607 10
      vertex 34.9021 5.61803 10
      vertex 35 5 10
    endloop
  endfacet
  facet normal 0 0 1
    outer loop
      vertex 36.2361 7.35114 10
      vertex 34.618 6.17557 10
      vertex 34.9021 5.61803 10
    endloop
  endfacet
  facet normal 0 0 1
    outer loop
      vertex 34.1756 6.61803 10
      vertex 35.3511 8.23607 10
      vertex 34.2361 8.80423 10
    endloop
  endfacet
  facet normal 0 0 1
    outer loop
      vertex 35.3511 8.23607 10
      vertex 34.1756 6.61803 10
      vertex 34.618 6.17557 10
    endloop
  endfacet
  facet normal 0 0 1
    outer loop
      vertex 34.2361 8.80423 10
      vertex 33.618 6.90211 10
      vertex 34.1756 6.61803 10
    endloop
  endfacet
  facet normal 0 0 1
    outer loop
      vertex 33 9 10
      vertex 33.618 6.90211 10
      vertex 34.2361 8.80423 10
    endloop
  endfacet
  facet normal 0 0 1
    outer loop
      vertex 33 9 10
      vertex 33 7 10
      vertex 33.618 6.90211 10
    endloop
  endfacet
  facet normal 0 0 1
    outer loop
      vertex 33 9 10
      vertex 32.382 6.90211 10
      vertex 33 7 10
    endloop
  endfacet
  facet normal -0 0 1
    outer loop
      vertex 31.7639 8.80423 10
      vertex 32.382 6.90211 10
      vertex 33 9 10
    endloop
  endfacet
  facet normal 0 0 1
    outer loop
      vertex 32.382 6.90211 10
      vertex 31.7639 8.80423 10
      vertex 31.8244 6.61803 10
    endloop
  endfacet
  facet normal -0 0 1
    outer loop
      vertex 30.6489 8.23607 10
      vertex 31.8244 6.61803 10
      vertex 31.7639 8.80423 10
    endloop
  endfacet
  facet normal 0 0 1
    outer loop
      vertex 31.8244 6.61803 10
      vertex 30.6489 8.23607 10
      vertex 31.382 6.17557 10
    endloop
  endfacet
  facet normal 0 0 1
    outer loop
      vertex 31.382 6.17557 10
      vertex 29.7639 7.35114 10
      vertex 31.0979 5.61803 10
    endloop
  endfacet
  facet normal -0 0 1
    outer loop
      vertex 29.7639 7.35114 10
      vertex 31.382 6.17557 10
      vertex 30.6489 8.23607 10
    endloop
  endfacet
  facet normal -0 0 1
    outer loop
      vertex 34.618 3.82443 10
      vertex 36.2361 2.64886 10
      vertex 34.9021 4.38197 10
    endloop
  endfacet
  facet normal 0 0 1
    outer loop
      vertex 36.2361 2.64886 10
      vertex 34.618 3.82443 10
      vertex 35.3511 1.76393 10
    endloop
  endfacet
  facet normal -0 0 1
    outer loop
      vertex 34.1756 3.38197 10
      vertex 35.3511 1.76393 10
      vertex 34.618 3.82443 10
    endloop
  endfacet
  facet normal 0 0 1
    outer loop
      vertex 35.3511 1.76393 10
      vertex 34.1756 3.38197 10
      vertex 34.2361 1.19577 10
    endloop
  endfacet
  facet normal -0 0 1
    outer loop
      vertex 33.618 3.09789 10
      vertex 34.2361 1.19577 10
      vertex 34.1756 3.38197 10
    endloop
  endfacet
  facet normal -0 0 1
    outer loop
      vertex 33 3 10
      vertex 34.2361 1.19577 10
      vertex 33.618 3.09789 10
    endloop
  endfacet
  facet normal 0 0 1
    outer loop
      vertex 33 3 10
      vertex 33 1 10
      vertex 34.2361 1.19577 10
    endloop
  endfacet
  facet normal 0 0 1
    outer loop
      vertex 32.382 3.09789 10
      vertex 33 1 10
      vertex 33 3 10
    endloop
  endfacet
  facet normal 0 0 1
    outer loop
      vertex 31.7639 1.19577 10
      vertex 32.382 3.09789 10
      vertex 31.8244 3.38197 10
    endloop
  endfacet
  facet normal 0 0 1
    outer loop
      vertex 32.382 3.09789 10
      vertex 31.7639 1.19577 10
      vertex 33 1 10
    endloop
  endfacet
  facet normal 0 0 1
    outer loop
      vertex 30.6489 1.76393 10
      vertex 31.8244 3.38197 10
      vertex 31.382 3.82443 10
    endloop
  endfacet
  facet normal 0 0 1
    outer loop
      vertex 29.7639 2.64886 10
      vertex 31.382 3.82443 10
      vertex 31.0979 4.38197 10
    endloop
  endfacet
  facet normal 0 0 1
    outer loop
      vertex 31.8244 3.38197 10
      vertex 30.6489 1.76393 10
      vertex 31.7639 1.19577 10
    endloop
  endfacet
  facet normal 0 0 1
    outer loop
      vertex 29.1958 3.76393 10
      vertex 31.0979 4.38197 10
      vertex 31 5 10
    endloop
  endfacet
  facet normal -0 0 1
    outer loop
      vertex 29.1958 6.23607 10
      vertex 31.0979 5.61803 10
      vertex 29.7639 7.35114 10
    endloop
  endfacet
  facet normal 0 0 1
    outer loop
      vertex 31.0979 5.61803 10
      vertex 29.1958 6.23607 10
      vertex 31 5 10
    endloop
  endfacet
  facet normal 0 0 1
    outer loop
      vertex 31.382 3.82443 10
      vertex 29.7639 2.64886 10
      vertex 30.6489 1.76393 10
    endloop
  endfacet
  facet normal 0 0 1
    outer loop
      vertex 29 5 10
      vertex 31 5 10
      vertex 29.1958 6.23607 10
    endloop
  endfacet
  facet normal 0 0 1
    outer loop
      vertex 31.0979 4.38197 10
      vertex 29.1958 3.76393 10
      vertex 29.7639 2.64886 10
    endloop
  endfacet
  facet normal 0 0 1
    outer loop
      vertex 31 5 10
      vertex 29 5 10
      vertex 29.1958 3.76393 10
    endloop
  endfacet
  facet normal 0.987685 -0.156455 0
    outer loop
      vertex 29 5 18
      vertex 29.1958 6.23607 10
      vertex 29.1958 6.23607 18
    endloop
  endfacet
  facet normal 0.987685 -0.156455 0
    outer loop
      vertex 29.1958 6.23607 10
      vertex 29 5 18
      vertex 29 5 10
    endloop
  endfacet
  facet normal 0.707079 0.707135 0
    outer loop
      vertex 30.6489 1.76393 18
      vertex 29.7639 2.64886 10
      vertex 29.7639 2.64886 18
    endloop
  endfacet
  facet normal 0.707079 0.707135 0
    outer loop
      vertex 29.7639 2.64886 10
      vertex 30.6489 1.76393 18
      vertex 30.6489 1.76393 10
    endloop
  endfacet
  facet normal 0.707079 -0.707135 0
    outer loop
      vertex 29.7639 7.35114 18
      vertex 30.6489 8.23607 10
      vertex 30.6489 8.23607 18
    endloop
  endfacet
  facet normal 0.707079 -0.707135 0
    outer loop
      vertex 30.6489 8.23607 10
      vertex 29.7639 7.35114 18
      vertex 29.7639 7.35114 10
    endloop
  endfacet
endsolid OpenSCAD_Model
