solid OpenSCAD_Model
  facet normal -0.587783 0.809018 0
    outer loop
      vertex -18.7539 29.5515 0
      vertex -22.3098 26.968 10
      vertex -18.7539 29.5515 10
    endloop
  endfacet
  facet normal -0.587783 0.809018 0
    outer loop
      vertex -22.3098 26.968 10
      vertex -18.7539 29.5515 0
      vertex -22.3098 26.968 0
    endloop
  endfacet
  facet normal 0.982287 0.18738 0
    outer loop
      vertex 34.724 4.38666 10
      vertex 33.9004 8.70415 0
      vertex 33.9004 8.70415 10
    endloop
  endfacet
  facet normal 0.982287 0.18738 0
    outer loop
      vertex 33.9004 8.70415 0
      vertex 34.724 4.38666 10
      vertex 34.724 4.38666 0
    endloop
  endfacet
  facet normal 0.998027 0.0627939 0
    outer loop
      vertex 35 0 10
      vertex 34.724 4.38666 0
      vertex 34.724 4.38666 10
    endloop
  endfacet
  facet normal 0.998027 0.0627939 0
    outer loop
      vertex 34.724 4.38666 0
      vertex 35 0 10
      vertex 35 0 0
    endloop
  endfacet
  facet normal 0.95106 0.309008 0
    outer loop
      vertex 33.9004 8.70415 10
      vertex 32.5422 12.8844 0
      vertex 32.5422 12.8844 10
    endloop
  endfacet
  facet normal 0.95106 0.309008 0
    outer loop
      vertex 32.5422 12.8844 0
      vertex 33.9004 8.70415 10
      vertex 33.9004 8.70415 0
    endloop
  endfacet
  facet normal 0.368137 0.929772 -0
    outer loop
      vertex 14.9023 31.6689 0
      vertex 10.8156 33.287 10
      vertex 14.9023 31.6689 10
    endloop
  endfacet
  facet normal 0.368137 0.929772 0
    outer loop
      vertex 10.8156 33.287 10
      vertex 14.9023 31.6689 0
      vertex 10.8156 33.287 0
    endloop
  endfacet
  facet normal 0.125315 -0.992117 0
    outer loop
      vertex 2.19767 -34.9309 0
      vertex 6.55835 -34.3801 10
      vertex 2.19767 -34.9309 10
    endloop
  endfacet
  facet normal 0.125315 -0.992117 0
    outer loop
      vertex 6.55835 -34.3801 10
      vertex 2.19767 -34.9309 0
      vertex 6.55835 -34.3801 0
    endloop
  endfacet
  facet normal -0.125315 -0.992117 0
    outer loop
      vertex -6.55835 -34.3801 0
      vertex -2.19767 -34.9309 10
      vertex -6.55835 -34.3801 10
    endloop
  endfacet
  facet normal -0.125315 -0.992117 -0
    outer loop
      vertex -2.19767 -34.9309 10
      vertex -6.55835 -34.3801 0
      vertex -2.19767 -34.9309 0
    endloop
  endfacet
  facet normal 0.904821 0.425792 0
    outer loop
      vertex 32.5422 12.8844 10
      vertex 30.6707 16.8614 0
      vertex 30.6707 16.8614 10
    endloop
  endfacet
  facet normal 0.904821 0.425792 0
    outer loop
      vertex 30.6707 16.8614 0
      vertex 32.5422 12.8844 10
      vertex 32.5422 12.8844 0
    endloop
  endfacet
  facet normal -0.125315 0.992117 0
    outer loop
      vertex -2.19767 34.9309 0
      vertex -6.55835 34.3801 10
      vertex -2.19767 34.9309 10
    endloop
  endfacet
  facet normal -0.125315 0.992117 0
    outer loop
      vertex -6.55835 34.3801 10
      vertex -2.19767 34.9309 0
      vertex -6.55835 34.3801 0
    endloop
  endfacet
  facet normal -0.770506 -0.637432 0
    outer loop
      vertex -25.5139 -23.9591 0
      vertex -28.3156 -20.5725 10
      vertex -28.3156 -20.5725 0
    endloop
  endfacet
  facet normal -0.770506 -0.637432 0
    outer loop
      vertex -28.3156 -20.5725 10
      vertex -25.5139 -23.9591 0
      vertex -25.5139 -23.9591 10
    endloop
  endfacet
  facet normal -0.248695 -0.968582 0
    outer loop
      vertex -10.8156 -33.287 0
      vertex -6.55835 -34.3801 10
      vertex -10.8156 -33.287 10
    endloop
  endfacet
  facet normal -0.248695 -0.968582 -0
    outer loop
      vertex -6.55835 -34.3801 10
      vertex -10.8156 -33.287 0
      vertex -6.55835 -34.3801 0
    endloop
  endfacet
  facet normal -0.844332 0.535821 0
    outer loop
      vertex -30.6707 16.8614 0
      vertex -28.3156 20.5725 10
      vertex -28.3156 20.5725 0
    endloop
  endfacet
  facet normal -0.844332 0.535821 0
    outer loop
      vertex -28.3156 20.5725 10
      vertex -30.6707 16.8614 0
      vertex -30.6707 16.8614 10
    endloop
  endfacet
  facet normal 0.844332 0.535821 0
    outer loop
      vertex 30.6707 16.8614 10
      vertex 28.3156 20.5725 0
      vertex 28.3156 20.5725 10
    endloop
  endfacet
  facet normal 0.844332 0.535821 0
    outer loop
      vertex 28.3156 20.5725 0
      vertex 30.6707 16.8614 10
      vertex 30.6707 16.8614 0
    endloop
  endfacet
  facet normal 0.982287 -0.18738 0
    outer loop
      vertex 33.9004 -8.70415 10
      vertex 34.724 -4.38666 0
      vertex 34.724 -4.38666 10
    endloop
  endfacet
  facet normal 0.982287 -0.18738 0
    outer loop
      vertex 34.724 -4.38666 0
      vertex 33.9004 -8.70415 10
      vertex 33.9004 -8.70415 0
    endloop
  endfacet
  facet normal -0.95106 0.309008 0
    outer loop
      vertex -33.9004 8.70415 0
      vertex -32.5422 12.8844 10
      vertex -32.5422 12.8844 0
    endloop
  endfacet
  facet normal -0.95106 0.309008 0
    outer loop
      vertex -32.5422 12.8844 10
      vertex -33.9004 8.70415 0
      vertex -33.9004 8.70415 10
    endloop
  endfacet
  facet normal -0.684553 0.728963 0
    outer loop
      vertex -22.3098 26.968 0
      vertex -25.5139 23.9591 10
      vertex -22.3098 26.968 10
    endloop
  endfacet
  facet normal -0.684553 0.728963 0
    outer loop
      vertex -25.5139 23.9591 10
      vertex -22.3098 26.968 0
      vertex -25.5139 23.9591 0
    endloop
  endfacet
  facet normal 0.125315 0.992117 -0
    outer loop
      vertex 6.55835 34.3801 0
      vertex 2.19767 34.9309 10
      vertex 6.55835 34.3801 10
    endloop
  endfacet
  facet normal 0.125315 0.992117 0
    outer loop
      vertex 2.19767 34.9309 10
      vertex 6.55835 34.3801 0
      vertex 2.19767 34.9309 0
    endloop
  endfacet
  facet normal 0 -1 0
    outer loop
      vertex -2.19767 -34.9309 0
      vertex 2.19767 -34.9309 10
      vertex -2.19767 -34.9309 10
    endloop
  endfacet
  facet normal 0 -1 -0
    outer loop
      vertex 2.19767 -34.9309 10
      vertex -2.19767 -34.9309 0
      vertex 2.19767 -34.9309 0
    endloop
  endfacet
  facet normal 0 0 1
    outer loop
      vertex 30 0 10
      vertex 35 0 10
      vertex 34.724 4.38666 10
    endloop
  endfacet
  facet normal 0 0 1
    outer loop
      vertex 29.7634 3.76 10
      vertex 34.724 4.38666 10
      vertex 33.9004 8.70415 10
    endloop
  endfacet
  facet normal 0 0 1
    outer loop
      vertex 35 0 10
      vertex 30 0 10
      vertex 34.724 -4.38666 10
    endloop
  endfacet
  facet normal 0 0 1
    outer loop
      vertex 29.0575 7.4607 10
      vertex 33.9004 8.70415 10
      vertex 32.5422 12.8844 10
    endloop
  endfacet
  facet normal -0 0 1
    outer loop
      vertex 29.7634 -3.76 10
      vertex 34.724 -4.38666 10
      vertex 30 0 10
    endloop
  endfacet
  facet normal 0 0 1
    outer loop
      vertex 27.8933 11.0437 10
      vertex 32.5422 12.8844 10
      vertex 30.6707 16.8614 10
    endloop
  endfacet
  facet normal 0 0 1
    outer loop
      vertex 34.724 -4.38666 10
      vertex 29.7634 -3.76 10
      vertex 33.9004 -8.70415 10
    endloop
  endfacet
  facet normal -0 0 1
    outer loop
      vertex 29.0575 -7.4607 10
      vertex 33.9004 -8.70415 10
      vertex 29.7634 -3.76 10
    endloop
  endfacet
  facet normal 0 0 1
    outer loop
      vertex 34.724 4.38666 10
      vertex 29.7634 3.76 10
      vertex 30 0 10
    endloop
  endfacet
  facet normal 0 0 1
    outer loop
      vertex 33.9004 8.70415 10
      vertex 29.0575 7.4607 10
      vertex 29.7634 3.76 10
    endloop
  endfacet
  facet normal 0 0 1
    outer loop
      vertex 26.2892 14.4526 10
      vertex 30.6707 16.8614 10
      vertex 28.3156 20.5725 10
    endloop
  endfacet
  facet normal 0 0 1
    outer loop
      vertex 32.5422 12.8844 10
      vertex 27.8933 11.0437 10
      vertex 29.0575 7.4607 10
    endloop
  endfacet
  facet normal 0 0 1
    outer loop
      vertex 30.6707 16.8614 10
      vertex 26.2892 14.4526 10
      vertex 27.8933 11.0437 10
    endloop
  endfacet
  facet normal 0 0 1
    outer loop
      vertex 24.2705 17.6336 10
      vertex 28.3156 20.5725 10
      vertex 25.5139 23.9591 10
    endloop
  endfacet
  facet normal 0 0 1
    outer loop
      vertex 28.3156 20.5725 10
      vertex 24.2705 17.6336 10
      vertex 26.2892 14.4526 10
    endloop
  endfacet
  facet normal 0 0 1
    outer loop
      vertex 21.8691 20.5364 10
      vertex 25.5139 23.9591 10
      vertex 22.3098 26.968 10
    endloop
  endfacet
  facet normal 0 0 1
    outer loop
      vertex 25.5139 23.9591 10
      vertex 21.8691 20.5364 10
      vertex 24.2705 17.6336 10
    endloop
  endfacet
  facet normal 0 0 1
    outer loop
      vertex 22.3098 26.968 10
      vertex 19.1227 23.1154 10
      vertex 21.8691 20.5364 10
    endloop
  endfacet
  facet normal 0 0 1
    outer loop
      vertex 18.7539 29.5515 10
      vertex 19.1227 23.1154 10
      vertex 22.3098 26.968 10
    endloop
  endfacet
  facet normal 0 0 1
    outer loop
      vertex 18.7539 29.5515 10
      vertex 16.0748 25.3298 10
      vertex 19.1227 23.1154 10
    endloop
  endfacet
  facet normal 0 0 1
    outer loop
      vertex 14.9023 31.6689 10
      vertex 16.0748 25.3298 10
      vertex 18.7539 29.5515 10
    endloop
  endfacet
  facet normal 0 0 1
    outer loop
      vertex 14.9023 31.6689 10
      vertex 12.7734 27.1448 10
      vertex 16.0748 25.3298 10
    endloop
  endfacet
  facet normal 0 0 1
    outer loop
      vertex 10.8156 33.287 10
      vertex 12.7734 27.1448 10
      vertex 14.9023 31.6689 10
    endloop
  endfacet
  facet normal 0 0 1
    outer loop
      vertex 10.8156 33.287 10
      vertex 9.27051 28.5317 10
      vertex 12.7734 27.1448 10
    endloop
  endfacet
  facet normal 0 0 1
    outer loop
      vertex 6.55835 34.3801 10
      vertex 9.27051 28.5317 10
      vertex 10.8156 33.287 10
    endloop
  endfacet
  facet normal 0 0 1
    outer loop
      vertex 6.55835 34.3801 10
      vertex 5.62144 29.4686 10
      vertex 9.27051 28.5317 10
    endloop
  endfacet
  facet normal 0 0 1
    outer loop
      vertex 2.19767 34.9309 10
      vertex 5.62144 29.4686 10
      vertex 6.55835 34.3801 10
    endloop
  endfacet
  facet normal 0 0 1
    outer loop
      vertex 2.19767 34.9309 10
      vertex 1.88371 29.9408 10
      vertex 5.62144 29.4686 10
    endloop
  endfacet
  facet normal 0 0 1
    outer loop
      vertex 2.19767 34.9309 10
      vertex -1.88371 29.9408 10
      vertex 1.88371 29.9408 10
    endloop
  endfacet
  facet normal -0 0 1
    outer loop
      vertex -2.19767 34.9309 10
      vertex -1.88371 29.9408 10
      vertex 2.19767 34.9309 10
    endloop
  endfacet
  facet normal 0 0 1
    outer loop
      vertex -2.19767 34.9309 10
      vertex -5.62144 29.4686 10
      vertex -1.88371 29.9408 10
    endloop
  endfacet
  facet normal -0 0 1
    outer loop
      vertex -6.55835 34.3801 10
      vertex -5.62144 29.4686 10
      vertex -2.19767 34.9309 10
    endloop
  endfacet
  facet normal 0 0 1
    outer loop
      vertex -6.55835 34.3801 10
      vertex -9.27051 28.5317 10
      vertex -5.62144 29.4686 10
    endloop
  endfacet
  facet normal -0 0 1
    outer loop
      vertex -10.8156 33.287 10
      vertex -9.27051 28.5317 10
      vertex -6.55835 34.3801 10
    endloop
  endfacet
  facet normal 0 0 1
    outer loop
      vertex -10.8156 33.287 10
      vertex -12.7734 27.1448 10
      vertex -9.27051 28.5317 10
    endloop
  endfacet
  facet normal -0 0 1
    outer loop
      vertex -14.9023 31.6689 10
      vertex -12.7734 27.1448 10
      vertex -10.8156 33.287 10
    endloop
  endfacet
  facet normal 0 0 1
    outer loop
      vertex -14.9023 31.6689 10
      vertex -16.0748 25.3298 10
      vertex -12.7734 27.1448 10
    endloop
  endfacet
  facet normal -0 0 1
    outer loop
      vertex -18.7539 29.5515 10
      vertex -16.0748 25.3298 10
      vertex -14.9023 31.6689 10
    endloop
  endfacet
  facet normal 0 0 1
    outer loop
      vertex -18.7539 29.5515 10
      vertex -19.1227 23.1154 10
      vertex -16.0748 25.3298 10
    endloop
  endfacet
  facet normal -0 0 1
    outer loop
      vertex -22.3098 26.968 10
      vertex -19.1227 23.1154 10
      vertex -18.7539 29.5515 10
    endloop
  endfacet
  facet normal 0 0 1
    outer loop
      vertex -19.1227 23.1154 10
      vertex -22.3098 26.968 10
      vertex -21.8691 20.5364 10
    endloop
  endfacet
  facet normal -0 0 1
    outer loop
      vertex -25.5139 23.9591 10
      vertex -21.8691 20.5364 10
      vertex -22.3098 26.968 10
    endloop
  endfacet
  facet normal 0 0 1
    outer loop
      vertex -21.8691 20.5364 10
      vertex -25.5139 23.9591 10
      vertex -24.2705 17.6336 10
    endloop
  endfacet
  facet normal -0 0 1
    outer loop
      vertex -28.3156 20.5725 10
      vertex -24.2705 17.6336 10
      vertex -25.5139 23.9591 10
    endloop
  endfacet
  facet normal 0 0 1
    outer loop
      vertex -24.2705 17.6336 10
      vertex -28.3156 20.5725 10
      vertex -26.2892 14.4526 10
    endloop
  endfacet
  facet normal -0 0 1
    outer loop
      vertex -30.6707 16.8614 10
      vertex -26.2892 14.4526 10
      vertex -28.3156 20.5725 10
    endloop
  endfacet
  facet normal 0 0 1
    outer loop
      vertex -26.2892 14.4526 10
      vertex -30.6707 16.8614 10
      vertex -27.8933 11.0437 10
    endloop
  endfacet
  facet normal -0 0 1
    outer loop
      vertex -32.5422 12.8844 10
      vertex -27.8933 11.0437 10
      vertex -30.6707 16.8614 10
    endloop
  endfacet
  facet normal -0 0 1
    outer loop
      vertex -33.9004 8.70415 10
      vertex -29.0575 7.4607 10
      vertex -32.5422 12.8844 10
    endloop
  endfacet
  facet normal 0 0 1
    outer loop
      vertex -27.8933 11.0437 10
      vertex -32.5422 12.8844 10
      vertex -29.0575 7.4607 10
    endloop
  endfacet
  facet normal 0 0 1
    outer loop
      vertex 33.9004 -8.70415 10
      vertex 29.0575 -7.4607 10
      vertex 32.5422 -12.8844 10
    endloop
  endfacet
  facet normal -0 0 1
    outer loop
      vertex 27.8933 -11.0437 10
      vertex 32.5422 -12.8844 10
      vertex 29.0575 -7.4607 10
    endloop
  endfacet
  facet normal 0 0 1
    outer loop
      vertex 32.5422 -12.8844 10
      vertex 27.8933 -11.0437 10
      vertex 30.6707 -16.8614 10
    endloop
  endfacet
  facet normal -0 0 1
    outer loop
      vertex 26.2892 -14.4526 10
      vertex 30.6707 -16.8614 10
      vertex 27.8933 -11.0437 10
    endloop
  endfacet
  facet normal 0 0 1
    outer loop
      vertex 30.6707 -16.8614 10
      vertex 26.2892 -14.4526 10
      vertex 28.3156 -20.5725 10
    endloop
  endfacet
  facet normal -0 0 1
    outer loop
      vertex 24.2705 -17.6336 10
      vertex 28.3156 -20.5725 10
      vertex 26.2892 -14.4526 10
    endloop
  endfacet
  facet normal 0 0 1
    outer loop
      vertex 28.3156 -20.5725 10
      vertex 24.2705 -17.6336 10
      vertex 25.5139 -23.9591 10
    endloop
  endfacet
  facet normal -0 0 1
    outer loop
      vertex 21.8691 -20.5364 10
      vertex 25.5139 -23.9591 10
      vertex 24.2705 -17.6336 10
    endloop
  endfacet
  facet normal 0 0 1
    outer loop
      vertex 25.5139 -23.9591 10
      vertex 21.8691 -20.5364 10
      vertex 22.3098 -26.968 10
    endloop
  endfacet
  facet normal -0 0 1
    outer loop
      vertex 19.1227 -23.1154 10
      vertex 22.3098 -26.968 10
      vertex 21.8691 -20.5364 10
    endloop
  endfacet
  facet normal 0 0 1
    outer loop
      vertex 19.1227 -23.1154 10
      vertex 18.7539 -29.5515 10
      vertex 22.3098 -26.968 10
    endloop
  endfacet
  facet normal -0 0 1
    outer loop
      vertex 16.0748 -25.3298 10
      vertex 18.7539 -29.5515 10
      vertex 19.1227 -23.1154 10
    endloop
  endfacet
  facet normal 0 0 1
    outer loop
      vertex 16.0748 -25.3298 10
      vertex 14.9023 -31.6689 10
      vertex 18.7539 -29.5515 10
    endloop
  endfacet
  facet normal -0 0 1
    outer loop
      vertex 12.7734 -27.1448 10
      vertex 14.9023 -31.6689 10
      vertex 16.0748 -25.3298 10
    endloop
  endfacet
  facet normal 0 0 1
    outer loop
      vertex 12.7734 -27.1448 10
      vertex 10.8156 -33.287 10
      vertex 14.9023 -31.6689 10
    endloop
  endfacet
  facet normal -0 0 1
    outer loop
      vertex 9.27051 -28.5317 10
      vertex 10.8156 -33.287 10
      vertex 12.7734 -27.1448 10
    endloop
  endfacet
  facet normal 0 0 1
    outer loop
      vertex 9.27051 -28.5317 10
      vertex 6.55835 -34.3801 10
      vertex 10.8156 -33.287 10
    endloop
  endfacet
  facet normal -0 0 1
    outer loop
      vertex 5.62144 -29.4686 10
      vertex 6.55835 -34.3801 10
      vertex 9.27051 -28.5317 10
    endloop
  endfacet
  facet normal 0 0 1
    outer loop
      vertex 5.62144 -29.4686 10
      vertex 2.19767 -34.9309 10
      vertex 6.55835 -34.3801 10
    endloop
  endfacet
  facet normal -0 0 1
    outer loop
      vertex 1.88371 -29.9408 10
      vertex 2.19767 -34.9309 10
      vertex 5.62144 -29.4686 10
    endloop
  endfacet
  facet normal -0 0 1
    outer loop
      vertex -1.88371 -29.9408 10
      vertex 2.19767 -34.9309 10
      vertex 1.88371 -29.9408 10
    endloop
  endfacet
  facet normal 0 0 1
    outer loop
      vertex -1.88371 -29.9408 10
      vertex -2.19767 -34.9309 10
      vertex 2.19767 -34.9309 10
    endloop
  endfacet
  facet normal 0 0 1
    outer loop
      vertex -5.62144 -29.4686 10
      vertex -2.19767 -34.9309 10
      vertex -1.88371 -29.9408 10
    endloop
  endfacet
  facet normal 0 0 1
    outer loop
      vertex -5.62144 -29.4686 10
      vertex -6.55835 -34.3801 10
      vertex -2.19767 -34.9309 10
    endloop
  endfacet
  facet normal 0 0 1
    outer loop
      vertex -9.27051 -28.5317 10
      vertex -6.55835 -34.3801 10
      vertex -5.62144 -29.4686 10
    endloop
  endfacet
  facet normal 0 0 1
    outer loop
      vertex -9.27051 -28.5317 10
      vertex -10.8156 -33.287 10
      vertex -6.55835 -34.3801 10
    endloop
  endfacet
  facet normal 0 0 1
    outer loop
      vertex -12.7734 -27.1448 10
      vertex -10.8156 -33.287 10
      vertex -9.27051 -28.5317 10
    endloop
  endfacet
  facet normal 0 0 1
    outer loop
      vertex -12.7734 -27.1448 10
      vertex -14.9023 -31.6689 10
      vertex -10.8156 -33.287 10
    endloop
  endfacet
  facet normal 0 0 1
    outer loop
      vertex -16.0748 -25.3298 10
      vertex -14.9023 -31.6689 10
      vertex -12.7734 -27.1448 10
    endloop
  endfacet
  facet normal 0 0 1
    outer loop
      vertex -16.0748 -25.3298 10
      vertex -18.7539 -29.5515 10
      vertex -14.9023 -31.6689 10
    endloop
  endfacet
  facet normal 0 0 1
    outer loop
      vertex -19.1227 -23.1154 10
      vertex -18.7539 -29.5515 10
      vertex -16.0748 -25.3298 10
    endloop
  endfacet
  facet normal 0 0 1
    outer loop
      vertex -22.3098 -26.968 10
      vertex -19.1227 -23.1154 10
      vertex -21.8691 -20.5364 10
    endloop
  endfacet
  facet normal 0 0 1
    outer loop
      vertex -19.1227 -23.1154 10
      vertex -22.3098 -26.968 10
      vertex -18.7539 -29.5515 10
    endloop
  endfacet
  facet normal 0 0 1
    outer loop
      vertex -25.5139 -23.9591 10
      vertex -21.8691 -20.5364 10
      vertex -24.2705 -17.6336 10
    endloop
  endfacet
  facet normal 0 0 1
    outer loop
      vertex -21.8691 -20.5364 10
      vertex -25.5139 -23.9591 10
      vertex -22.3098 -26.968 10
    endloop
  endfacet
  facet normal 0 0 1
    outer loop
      vertex -28.3156 -20.5725 10
      vertex -24.2705 -17.6336 10
      vertex -26.2892 -14.4526 10
    endloop
  endfacet
  facet normal 0 0 1
    outer loop
      vertex -30.6707 -16.8614 10
      vertex -26.2892 -14.4526 10
      vertex -27.8933 -11.0437 10
    endloop
  endfacet
  facet normal 0 0 1
    outer loop
      vertex -24.2705 -17.6336 10
      vertex -28.3156 -20.5725 10
      vertex -25.5139 -23.9591 10
    endloop
  endfacet
  facet normal 0 0 1
    outer loop
      vertex -32.5422 -12.8844 10
      vertex -27.8933 -11.0437 10
      vertex -29.0575 -7.4607 10
    endloop
  endfacet
  facet normal 0 0 1
    outer loop
      vertex -33.9004 -8.70415 10
      vertex -29.0575 -7.4607 10
      vertex -29.7634 -3.76 10
    endloop
  endfacet
  facet normal 0 0 1
    outer loop
      vertex -26.2892 -14.4526 10
      vertex -30.6707 -16.8614 10
      vertex -28.3156 -20.5725 10
    endloop
  endfacet
  facet normal 0 0 1
    outer loop
      vertex -34.724 -4.38666 10
      vertex -29.7634 -3.76 10
      vertex -30 0 10
    endloop
  endfacet
  facet normal 0 0 1
    outer loop
      vertex -29.0575 7.4607 10
      vertex -33.9004 8.70415 10
      vertex -29.7634 3.76 10
    endloop
  endfacet
  facet normal -0 0 1
    outer loop
      vertex -34.724 4.38666 10
      vertex -29.7634 3.76 10
      vertex -33.9004 8.70415 10
    endloop
  endfacet
  facet normal 0 0 1
    outer loop
      vertex -27.8933 -11.0437 10
      vertex -32.5422 -12.8844 10
      vertex -30.6707 -16.8614 10
    endloop
  endfacet
  facet normal 0 0 1
    outer loop
      vertex -29.7634 3.76 10
      vertex -34.724 4.38666 10
      vertex -30 0 10
    endloop
  endfacet
  facet normal 0 0 1
    outer loop
      vertex -29.0575 -7.4607 10
      vertex -33.9004 -8.70415 10
      vertex -32.5422 -12.8844 10
    endloop
  endfacet
  facet normal 0 0 1
    outer loop
      vertex -35 0 10
      vertex -30 0 10
      vertex -34.724 4.38666 10
    endloop
  endfacet
  facet normal 0 0 1
    outer loop
      vertex -29.7634 -3.76 10
      vertex -34.724 -4.38666 10
      vertex -33.9004 -8.70415 10
    endloop
  endfacet
  facet normal 0 0 1
    outer loop
      vertex -30 0 10
      vertex -35 0 10
      vertex -34.724 -4.38666 10
    endloop
  endfacet
  facet normal 0 0 -1
    outer loop
      vertex 34.724 -4.38666 0
      vertex 34.724 4.38666 0
      vertex 35 0 0
    endloop
  endfacet
  facet normal 0 0 -1
    outer loop
      vertex 33.9004 -8.70415 0
      vertex 34.724 4.38666 0
      vertex 34.724 -4.38666 0
    endloop
  endfacet
  facet normal 0 0 -1
    outer loop
      vertex 33.9004 -8.70415 0
      vertex 33.9004 8.70415 0
      vertex 34.724 4.38666 0
    endloop
  endfacet
  facet normal 0 0 -1
    outer loop
      vertex 32.5422 -12.8844 0
      vertex 33.9004 8.70415 0
      vertex 33.9004 -8.70415 0
    endloop
  endfacet
  facet normal 0 0 -1
    outer loop
      vertex 32.5422 -12.8844 0
      vertex 32.5422 12.8844 0
      vertex 33.9004 8.70415 0
    endloop
  endfacet
  facet normal 0 0 -1
    outer loop
      vertex 30.6707 -16.8614 0
      vertex 32.5422 12.8844 0
      vertex 32.5422 -12.8844 0
    endloop
  endfacet
  facet normal 0 0 -1
    outer loop
      vertex 30.6707 -16.8614 0
      vertex 30.6707 16.8614 0
      vertex 32.5422 12.8844 0
    endloop
  endfacet
  facet normal 0 0 -1
    outer loop
      vertex 28.3156 -20.5725 0
      vertex 30.6707 16.8614 0
      vertex 30.6707 -16.8614 0
    endloop
  endfacet
  facet normal 0 0 -1
    outer loop
      vertex 28.3156 -20.5725 0
      vertex 28.3156 20.5725 0
      vertex 30.6707 16.8614 0
    endloop
  endfacet
  facet normal 0 0 -1
    outer loop
      vertex 25.5139 -23.9591 0
      vertex 28.3156 20.5725 0
      vertex 28.3156 -20.5725 0
    endloop
  endfacet
  facet normal 0 0 -1
    outer loop
      vertex 25.5139 -23.9591 0
      vertex 25.5139 23.9591 0
      vertex 28.3156 20.5725 0
    endloop
  endfacet
  facet normal 0 0 -1
    outer loop
      vertex 22.3098 -26.968 0
      vertex 25.5139 23.9591 0
      vertex 25.5139 -23.9591 0
    endloop
  endfacet
  facet normal 0 0 -1
    outer loop
      vertex 22.3098 -26.968 0
      vertex 22.3098 26.968 0
      vertex 25.5139 23.9591 0
    endloop
  endfacet
  facet normal 0 0 -1
    outer loop
      vertex 18.7539 -29.5515 0
      vertex 22.3098 26.968 0
      vertex 22.3098 -26.968 0
    endloop
  endfacet
  facet normal 0 0 -1
    outer loop
      vertex 18.7539 -29.5515 0
      vertex 18.7539 29.5515 0
      vertex 22.3098 26.968 0
    endloop
  endfacet
  facet normal 0 0 -1
    outer loop
      vertex 14.9023 -31.6689 0
      vertex 18.7539 29.5515 0
      vertex 18.7539 -29.5515 0
    endloop
  endfacet
  facet normal 0 0 -1
    outer loop
      vertex 14.9023 -31.6689 0
      vertex 14.9023 31.6689 0
      vertex 18.7539 29.5515 0
    endloop
  endfacet
  facet normal 0 0 -1
    outer loop
      vertex 10.8156 -33.287 0
      vertex 14.9023 31.6689 0
      vertex 14.9023 -31.6689 0
    endloop
  endfacet
  facet normal 0 0 -1
    outer loop
      vertex 10.8156 -33.287 0
      vertex 10.8156 33.287 0
      vertex 14.9023 31.6689 0
    endloop
  endfacet
  facet normal 0 0 -1
    outer loop
      vertex 6.55835 -34.3801 0
      vertex 10.8156 33.287 0
      vertex 10.8156 -33.287 0
    endloop
  endfacet
  facet normal 0 0 -1
    outer loop
      vertex 6.55835 -34.3801 0
      vertex 6.55835 34.3801 0
      vertex 10.8156 33.287 0
    endloop
  endfacet
  facet normal 0 0 -1
    outer loop
      vertex 2.19767 -34.9309 0
      vertex 6.55835 34.3801 0
      vertex 6.55835 -34.3801 0
    endloop
  endfacet
  facet normal 0 0 -1
    outer loop
      vertex 2.19767 -34.9309 0
      vertex 2.19767 34.9309 0
      vertex 6.55835 34.3801 0
    endloop
  endfacet
  facet normal 0 0 -1
    outer loop
      vertex -2.19767 -34.9309 0
      vertex 2.19767 34.9309 0
      vertex 2.19767 -34.9309 0
    endloop
  endfacet
  facet normal 0 0 -1
    outer loop
      vertex -2.19767 -34.9309 0
      vertex -2.19767 34.9309 0
      vertex 2.19767 34.9309 0
    endloop
  endfacet
  facet normal 0 0 -1
    outer loop
      vertex -6.55835 -34.3801 0
      vertex -2.19767 34.9309 0
      vertex -2.19767 -34.9309 0
    endloop
  endfacet
  facet normal 0 0 -1
    outer loop
      vertex -6.55835 -34.3801 0
      vertex -6.55835 34.3801 0
      vertex -2.19767 34.9309 0
    endloop
  endfacet
  facet normal 0 0 -1
    outer loop
      vertex -10.8156 -33.287 0
      vertex -6.55835 34.3801 0
      vertex -6.55835 -34.3801 0
    endloop
  endfacet
  facet normal 0 0 -1
    outer loop
      vertex -10.8156 -33.287 0
      vertex -10.8156 33.287 0
      vertex -6.55835 34.3801 0
    endloop
  endfacet
  facet normal 0 0 -1
    outer loop
      vertex -14.9023 -31.6689 0
      vertex -10.8156 33.287 0
      vertex -10.8156 -33.287 0
    endloop
  endfacet
  facet normal 0 0 -1
    outer loop
      vertex -14.9023 -31.6689 0
      vertex -14.9023 31.6689 0
      vertex -10.8156 33.287 0
    endloop
  endfacet
  facet normal 0 0 -1
    outer loop
      vertex -18.7539 -29.5515 0
      vertex -14.9023 31.6689 0
      vertex -14.9023 -31.6689 0
    endloop
  endfacet
  facet normal 0 0 -1
    outer loop
      vertex -18.7539 -29.5515 0
      vertex -18.7539 29.5515 0
      vertex -14.9023 31.6689 0
    endloop
  endfacet
  facet normal 0 0 -1
    outer loop
      vertex -22.3098 -26.968 0
      vertex -18.7539 29.5515 0
      vertex -18.7539 -29.5515 0
    endloop
  endfacet
  facet normal 0 0 -1
    outer loop
      vertex -22.3098 -26.968 0
      vertex -22.3098 26.968 0
      vertex -18.7539 29.5515 0
    endloop
  endfacet
  facet normal 0 0 -1
    outer loop
      vertex -25.5139 -23.9591 0
      vertex -22.3098 26.968 0
      vertex -22.3098 -26.968 0
    endloop
  endfacet
  facet normal 0 0 -1
    outer loop
      vertex -25.5139 -23.9591 0
      vertex -25.5139 23.9591 0
      vertex -22.3098 26.968 0
    endloop
  endfacet
  facet normal 0 0 -1
    outer loop
      vertex -28.3156 -20.5725 0
      vertex -25.5139 23.9591 0
      vertex -25.5139 -23.9591 0
    endloop
  endfacet
  facet normal 0 0 -1
    outer loop
      vertex -28.3156 -20.5725 0
      vertex -28.3156 20.5725 0
      vertex -25.5139 23.9591 0
    endloop
  endfacet
  facet normal 0 0 -1
    outer loop
      vertex -30.6707 -16.8614 0
      vertex -28.3156 20.5725 0
      vertex -28.3156 -20.5725 0
    endloop
  endfacet
  facet normal 0 0 -1
    outer loop
      vertex -30.6707 -16.8614 0
      vertex -30.6707 16.8614 0
      vertex -28.3156 20.5725 0
    endloop
  endfacet
  facet normal 0 0 -1
    outer loop
      vertex -32.5422 -12.8844 0
      vertex -30.6707 16.8614 0
      vertex -30.6707 -16.8614 0
    endloop
  endfacet
  facet normal 0 0 -1
    outer loop
      vertex -32.5422 -12.8844 0
      vertex -32.5422 12.8844 0
      vertex -30.6707 16.8614 0
    endloop
  endfacet
  facet normal 0 0 -1
    outer loop
      vertex -33.9004 -8.70415 0
      vertex -32.5422 12.8844 0
      vertex -32.5422 -12.8844 0
    endloop
  endfacet
  facet normal 0 0 -1
    outer loop
      vertex -33.9004 -8.70415 0
      vertex -33.9004 8.70415 0
      vertex -32.5422 12.8844 0
    endloop
  endfacet
  facet normal 0 0 -1
    outer loop
      vertex -34.724 -4.38666 0
      vertex -33.9004 8.70415 0
      vertex -33.9004 -8.70415 0
    endloop
  endfacet
  facet normal 0 0 -1
    outer loop
      vertex -34.724 -4.38666 0
      vertex -34.724 4.38666 0
      vertex -33.9004 8.70415 0
    endloop
  endfacet
  facet normal 0 -0 -1
    outer loop
      vertex -34.724 4.38666 0
      vertex -34.724 -4.38666 0
      vertex -35 0 0
    endloop
  endfacet
  facet normal 0.95106 -0.309008 0
    outer loop
      vertex 32.5422 -12.8844 10
      vertex 33.9004 -8.70415 0
      vertex 33.9004 -8.70415 10
    endloop
  endfacet
  facet normal 0.95106 -0.309008 0
    outer loop
      vertex 33.9004 -8.70415 0
      vertex 32.5422 -12.8844 10
      vertex 32.5422 -12.8844 0
    endloop
  endfacet
  facet normal -0.481748 -0.87631 0
    outer loop
      vertex -18.7539 -29.5515 0
      vertex -14.9023 -31.6689 10
      vertex -18.7539 -29.5515 10
    endloop
  endfacet
  facet normal -0.481748 -0.87631 -0
    outer loop
      vertex -14.9023 -31.6689 10
      vertex -18.7539 -29.5515 0
      vertex -14.9023 -31.6689 0
    endloop
  endfacet
  facet normal 0.684553 0.728963 -0
    outer loop
      vertex 25.5139 23.9591 0
      vertex 22.3098 26.968 10
      vertex 25.5139 23.9591 10
    endloop
  endfacet
  facet normal 0.684553 0.728963 0
    outer loop
      vertex 22.3098 26.968 10
      vertex 25.5139 23.9591 0
      vertex 22.3098 26.968 0
    endloop
  endfacet
  facet normal -0.684553 -0.728963 0
    outer loop
      vertex -25.5139 -23.9591 0
      vertex -22.3098 -26.968 10
      vertex -25.5139 -23.9591 10
    endloop
  endfacet
  facet normal -0.684553 -0.728963 -0
    outer loop
      vertex -22.3098 -26.968 10
      vertex -25.5139 -23.9591 0
      vertex -22.3098 -26.968 0
    endloop
  endfacet
  facet normal -0.998027 0.0627939 0
    outer loop
      vertex -35 0 0
      vertex -34.724 4.38666 10
      vertex -34.724 4.38666 0
    endloop
  endfacet
  facet normal -0.998027 0.0627939 0
    outer loop
      vertex -34.724 4.38666 10
      vertex -35 0 0
      vertex -35 0 10
    endloop
  endfacet
  facet normal 0.684553 -0.728963 0
    outer loop
      vertex 22.3098 -26.968 0
      vertex 25.5139 -23.9591 10
      vertex 22.3098 -26.968 10
    endloop
  endfacet
  facet normal 0.684553 -0.728963 0
    outer loop
      vertex 25.5139 -23.9591 10
      vertex 22.3098 -26.968 0
      vertex 25.5139 -23.9591 0
    endloop
  endfacet
  facet normal 0.770506 0.637432 0
    outer loop
      vertex 28.3156 20.5725 10
      vertex 25.5139 23.9591 0
      vertex 25.5139 23.9591 10
    endloop
  endfacet
  facet normal 0.770506 0.637432 0
    outer loop
      vertex 25.5139 23.9591 0
      vertex 28.3156 20.5725 10
      vertex 28.3156 20.5725 0
    endloop
  endfacet
  facet normal 0.998027 -0.0627939 0
    outer loop
      vertex 34.724 -4.38666 10
      vertex 35 0 0
      vertex 35 0 10
    endloop
  endfacet
  facet normal 0.998027 -0.0627939 0
    outer loop
      vertex 35 0 0
      vertex 34.724 -4.38666 10
      vertex 34.724 -4.38666 0
    endloop
  endfacet
  facet normal -0.368137 0.929772 0
    outer loop
      vertex -10.8156 33.287 0
      vertex -14.9023 31.6689 10
      vertex -10.8156 33.287 10
    endloop
  endfacet
  facet normal -0.368137 0.929772 0
    outer loop
      vertex -14.9023 31.6689 10
      vertex -10.8156 33.287 0
      vertex -14.9023 31.6689 0
    endloop
  endfacet
  facet normal -0.982287 -0.18738 0
    outer loop
      vertex -33.9004 -8.70415 0
      vertex -34.724 -4.38666 10
      vertex -34.724 -4.38666 0
    endloop
  endfacet
  facet normal -0.982287 -0.18738 0
    outer loop
      vertex -34.724 -4.38666 10
      vertex -33.9004 -8.70415 0
      vertex -33.9004 -8.70415 10
    endloop
  endfacet
  facet normal 0.844332 -0.535821 0
    outer loop
      vertex 28.3156 -20.5725 10
      vertex 30.6707 -16.8614 0
      vertex 30.6707 -16.8614 10
    endloop
  endfacet
  facet normal 0.844332 -0.535821 0
    outer loop
      vertex 30.6707 -16.8614 0
      vertex 28.3156 -20.5725 10
      vertex 28.3156 -20.5725 0
    endloop
  endfacet
  facet normal 0.368137 -0.929772 0
    outer loop
      vertex 10.8156 -33.287 0
      vertex 14.9023 -31.6689 10
      vertex 10.8156 -33.287 10
    endloop
  endfacet
  facet normal 0.368137 -0.929772 0
    outer loop
      vertex 14.9023 -31.6689 10
      vertex 10.8156 -33.287 0
      vertex 14.9023 -31.6689 0
    endloop
  endfacet
  facet normal 0.481748 -0.87631 0
    outer loop
      vertex 14.9023 -31.6689 0
      vertex 18.7539 -29.5515 10
      vertex 14.9023 -31.6689 10
    endloop
  endfacet
  facet normal 0.481748 -0.87631 0
    outer loop
      vertex 18.7539 -29.5515 10
      vertex 14.9023 -31.6689 0
      vertex 18.7539 -29.5515 0
    endloop
  endfacet
  facet normal 0.481748 0.87631 -0
    outer loop
      vertex 18.7539 29.5515 0
      vertex 14.9023 31.6689 10
      vertex 18.7539 29.5515 10
    endloop
  endfacet
  facet normal 0.481748 0.87631 0
    outer loop
      vertex 14.9023 31.6689 10
      vertex 18.7539 29.5515 0
      vertex 14.9023 31.6689 0
    endloop
  endfacet
  facet normal -0.95106 -0.309008 0
    outer loop
      vertex -32.5422 -12.8844 0
      vertex -33.9004 -8.70415 10
      vertex -33.9004 -8.70415 0
    endloop
  endfacet
  facet normal -0.95106 -0.309008 0
    outer loop
      vertex -33.9004 -8.70415 10
      vertex -32.5422 -12.8844 0
      vertex -32.5422 -12.8844 10
    endloop
  endfacet
  facet normal 0.904821 -0.425792 0
    outer loop
      vertex 30.6707 -16.8614 10
      vertex 32.5422 -12.8844 0
      vertex 32.5422 -12.8844 10
    endloop
  endfacet
  facet normal 0.904821 -0.425792 0
    outer loop
      vertex 32.5422 -12.8844 0
      vertex 30.6707 -16.8614 10
      vertex 30.6707 -16.8614 0
    endloop
  endfacet
  facet normal 0.587783 0.809018 -0
    outer loop
      vertex 22.3098 26.968 0
      vertex 18.7539 29.5515 10
      vertex 22.3098 26.968 10
    endloop
  endfacet
  facet normal 0.587783 0.809018 0
    outer loop
      vertex 18.7539 29.5515 10
      vertex 22.3098 26.968 0
      vertex 18.7539 29.5515 0
    endloop
  endfacet
  facet normal -0.368137 -0.929772 0
    outer loop
      vertex -14.9023 -31.6689 0
      vertex -10.8156 -33.287 10
      vertex -14.9023 -31.6689 10
    endloop
  endfacet
  facet normal -0.368137 -0.929772 -0
    outer loop
      vertex -10.8156 -33.287 10
      vertex -14.9023 -31.6689 0
      vertex -10.8156 -33.287 0
    endloop
  endfacet
  facet normal -0.481748 0.87631 0
    outer loop
      vertex -14.9023 31.6689 0
      vertex -18.7539 29.5515 10
      vertex -14.9023 31.6689 10
    endloop
  endfacet
  facet normal -0.481748 0.87631 0
    outer loop
      vertex -18.7539 29.5515 10
      vertex -14.9023 31.6689 0
      vertex -18.7539 29.5515 0
    endloop
  endfacet
  facet normal -0.904821 -0.425792 0
    outer loop
      vertex -30.6707 -16.8614 0
      vertex -32.5422 -12.8844 10
      vertex -32.5422 -12.8844 0
    endloop
  endfacet
  facet normal -0.904821 -0.425792 0
    outer loop
      vertex -32.5422 -12.8844 10
      vertex -30.6707 -16.8614 0
      vertex -30.6707 -16.8614 10
    endloop
  endfacet
  facet normal 0.248695 -0.968582 0
    outer loop
      vertex 6.55835 -34.3801 0
      vertex 10.8156 -33.287 10
      vertex 6.55835 -34.3801 10
    endloop
  endfacet
  facet normal 0.248695 -0.968582 0
    outer loop
      vertex 10.8156 -33.287 10
      vertex 6.55835 -34.3801 0
      vertex 10.8156 -33.287 0
    endloop
  endfacet
  facet normal 0.248695 0.968582 -0
    outer loop
      vertex 10.8156 33.287 0
      vertex 6.55835 34.3801 10
      vertex 10.8156 33.287 10
    endloop
  endfacet
  facet normal 0.248695 0.968582 0
    outer loop
      vertex 6.55835 34.3801 10
      vertex 10.8156 33.287 0
      vertex 6.55835 34.3801 0
    endloop
  endfacet
  facet normal -0.998027 -0.0627939 0
    outer loop
      vertex -34.724 -4.38666 0
      vertex -35 0 10
      vertex -35 0 0
    endloop
  endfacet
  facet normal -0.998027 -0.0627939 0
    outer loop
      vertex -35 0 10
      vertex -34.724 -4.38666 0
      vertex -34.724 -4.38666 10
    endloop
  endfacet
  facet normal -0.844332 -0.535821 0
    outer loop
      vertex -28.3156 -20.5725 0
      vertex -30.6707 -16.8614 10
      vertex -30.6707 -16.8614 0
    endloop
  endfacet
  facet normal -0.844332 -0.535821 0
    outer loop
      vertex -30.6707 -16.8614 10
      vertex -28.3156 -20.5725 0
      vertex -28.3156 -20.5725 10
    endloop
  endfacet
  facet normal -0.248695 0.968582 0
    outer loop
      vertex -6.55835 34.3801 0
      vertex -10.8156 33.287 10
      vertex -6.55835 34.3801 10
    endloop
  endfacet
  facet normal -0.248695 0.968582 0
    outer loop
      vertex -10.8156 33.287 10
      vertex -6.55835 34.3801 0
      vertex -10.8156 33.287 0
    endloop
  endfacet
  facet normal 0.770506 -0.637432 0
    outer loop
      vertex 25.5139 -23.9591 10
      vertex 28.3156 -20.5725 0
      vertex 28.3156 -20.5725 10
    endloop
  endfacet
  facet normal 0.770506 -0.637432 0
    outer loop
      vertex 28.3156 -20.5725 0
      vertex 25.5139 -23.9591 10
      vertex 25.5139 -23.9591 0
    endloop
  endfacet
  facet normal 0.587783 -0.809018 0
    outer loop
      vertex 18.7539 -29.5515 0
      vertex 22.3098 -26.968 10
      vertex 18.7539 -29.5515 10
    endloop
  endfacet
  facet normal 0.587783 -0.809018 0
    outer loop
      vertex 22.3098 -26.968 10
      vertex 18.7539 -29.5515 0
      vertex 22.3098 -26.968 0
    endloop
  endfacet
  facet normal -0.982287 0.18738 0
    outer loop
      vertex -34.724 4.38666 0
      vertex -33.9004 8.70415 10
      vertex -33.9004 8.70415 0
    endloop
  endfacet
  facet normal -0.982287 0.18738 0
    outer loop
      vertex -33.9004 8.70415 10
      vertex -34.724 4.38666 0
      vertex -34.724 4.38666 10
    endloop
  endfacet
  facet normal 0 1 -0
    outer loop
      vertex 2.19767 34.9309 0
      vertex -2.19767 34.9309 10
      vertex 2.19767 34.9309 10
    endloop
  endfacet
  facet normal 0 1 0
    outer loop
      vertex -2.19767 34.9309 10
      vertex 2.19767 34.9309 0
      vertex -2.19767 34.9309 0
    endloop
  endfacet
  facet normal -0.587783 -0.809018 0
    outer loop
      vertex -22.3098 -26.968 0
      vertex -18.7539 -29.5515 10
      vertex -22.3098 -26.968 10
    endloop
  endfacet
  facet normal -0.587783 -0.809018 -0
    outer loop
      vertex -18.7539 -29.5515 10
      vertex -22.3098 -26.968 0
      vertex -18.7539 -29.5515 0
    endloop
  endfacet
  facet normal -0.904821 0.425792 0
    outer loop
      vertex -32.5422 12.8844 0
      vertex -30.6707 16.8614 10
      vertex -30.6707 16.8614 0
    endloop
  endfacet
  facet normal -0.904821 0.425792 0
    outer loop
      vertex -30.6707 16.8614 10
      vertex -32.5422 12.8844 0
      vertex -32.5422 12.8844 10
    endloop
  endfacet
  facet normal -0.770506 0.637432 0
    outer loop
      vertex -28.3156 20.5725 0
      vertex -25.5139 23.9591 10
      vertex -25.5139 23.9591 0
    endloop
  endfacet
  facet normal -0.770506 0.637432 0
    outer loop
      vertex -25.5139 23.9591 10
      vertex -28.3156 20.5725 0
      vertex -28.3156 20.5725 10
    endloop
  endfacet
  facet normal -0.98229 -0.187369 0
    outer loop
      vertex 29.7634 3.76 6
      vertex 29.0575 7.4607 10
      vertex 29.0575 7.4607 6
    endloop
  endfacet
  facet normal -0.98229 -0.187369 0
    outer loop
      vertex 29.0575 7.4607 10
      vertex 29.7634 3.76 6
      vertex 29.7634 3.76 10
    endloop
  endfacet
  facet normal -0.998026 -0.0628013 0
    outer loop
      vertex 30 0 6
      vertex 29.7634 3.76 10
      vertex 29.7634 3.76 6
    endloop
  endfacet
  facet normal -0.998026 -0.0628013 0
    outer loop
      vertex 29.7634 3.76 10
      vertex 30 0 6
      vertex 30 0 10
    endloop
  endfacet
  facet normal -0.951056 -0.30902 0
    outer loop
      vertex 29.0575 7.4607 6
      vertex 27.8933 11.0437 10
      vertex 27.8933 11.0437 6
    endloop
  endfacet
  facet normal -0.951056 -0.30902 0
    outer loop
      vertex 27.8933 11.0437 10
      vertex 29.0575 7.4607 6
      vertex 29.0575 7.4607 10
    endloop
  endfacet
  facet normal -0.684541 -0.728974 0
    outer loop
      vertex 19.1227 23.1154 6
      vertex 21.8691 20.5364 10
      vertex 19.1227 23.1154 10
    endloop
  endfacet
  facet normal -0.684541 -0.728974 -0
    outer loop
      vertex 21.8691 20.5364 10
      vertex 19.1227 23.1154 6
      vertex 21.8691 20.5364 6
    endloop
  endfacet
  facet normal 0.368126 0.929776 -0
    outer loop
      vertex -9.27051 -28.5317 6
      vertex -12.7734 -27.1448 10
      vertex -9.27051 -28.5317 10
    endloop
  endfacet
  facet normal 0.368126 0.929776 0
    outer loop
      vertex -12.7734 -27.1448 10
      vertex -9.27051 -28.5317 6
      vertex -12.7734 -27.1448 6
    endloop
  endfacet
  facet normal -0.770514 -0.637423 0
    outer loop
      vertex 24.2705 17.6336 6
      vertex 21.8691 20.5364 10
      vertex 21.8691 20.5364 6
    endloop
  endfacet
  facet normal -0.770514 -0.637423 0
    outer loop
      vertex 21.8691 20.5364 10
      vertex 24.2705 17.6336 6
      vertex 24.2705 17.6336 10
    endloop
  endfacet
  facet normal 0.998026 -0.0628013 0
    outer loop
      vertex -30 0 10
      vertex -29.7634 3.76 6
      vertex -29.7634 3.76 10
    endloop
  endfacet
  facet normal 0.998026 -0.0628013 0
    outer loop
      vertex -29.7634 3.76 6
      vertex -30 0 10
      vertex -30 0 6
    endloop
  endfacet
  facet normal -0.684541 0.728974 0
    outer loop
      vertex 21.8691 -20.5364 6
      vertex 19.1227 -23.1154 10
      vertex 21.8691 -20.5364 10
    endloop
  endfacet
  facet normal -0.684541 0.728974 0
    outer loop
      vertex 19.1227 -23.1154 10
      vertex 21.8691 -20.5364 6
      vertex 19.1227 -23.1154 6
    endloop
  endfacet
  facet normal -0.844331 -0.535822 0
    outer loop
      vertex 26.2892 14.4526 6
      vertex 24.2705 17.6336 10
      vertex 24.2705 17.6336 6
    endloop
  endfacet
  facet normal -0.844331 -0.535822 0
    outer loop
      vertex 24.2705 17.6336 10
      vertex 26.2892 14.4526 6
      vertex 26.2892 14.4526 10
    endloop
  endfacet
  facet normal -0.904828 -0.425778 0
    outer loop
      vertex 27.8933 11.0437 6
      vertex 26.2892 14.4526 10
      vertex 26.2892 14.4526 6
    endloop
  endfacet
  facet normal -0.904828 -0.425778 0
    outer loop
      vertex 26.2892 14.4526 10
      vertex 27.8933 11.0437 6
      vertex 27.8933 11.0437 10
    endloop
  endfacet
  facet normal 0.98229 0.187369 0
    outer loop
      vertex -29.0575 -7.4607 10
      vertex -29.7634 -3.76 6
      vertex -29.7634 -3.76 10
    endloop
  endfacet
  facet normal 0.98229 0.187369 0
    outer loop
      vertex -29.7634 -3.76 6
      vertex -29.0575 -7.4607 10
      vertex -29.0575 -7.4607 6
    endloop
  endfacet
  facet normal 0.770514 -0.637423 0
    outer loop
      vertex -24.2705 17.6336 10
      vertex -21.8691 20.5364 6
      vertex -21.8691 20.5364 10
    endloop
  endfacet
  facet normal 0.770514 -0.637423 0
    outer loop
      vertex -21.8691 20.5364 6
      vertex -24.2705 17.6336 10
      vertex -24.2705 17.6336 6
    endloop
  endfacet
  facet normal -0.951056 0.30902 0
    outer loop
      vertex 27.8933 -11.0437 6
      vertex 29.0575 -7.4607 10
      vertex 29.0575 -7.4607 6
    endloop
  endfacet
  facet normal -0.951056 0.30902 0
    outer loop
      vertex 29.0575 -7.4607 10
      vertex 27.8933 -11.0437 6
      vertex 27.8933 -11.0437 10
    endloop
  endfacet
  facet normal 0.248684 0.968585 -0
    outer loop
      vertex -5.62144 -29.4686 6
      vertex -9.27051 -28.5317 10
      vertex -5.62144 -29.4686 10
    endloop
  endfacet
  facet normal 0.248684 0.968585 0
    outer loop
      vertex -9.27051 -28.5317 10
      vertex -5.62144 -29.4686 6
      vertex -9.27051 -28.5317 6
    endloop
  endfacet
  facet normal 0.998026 0.0628013 0
    outer loop
      vertex -29.7634 -3.76 10
      vertex -30 0 6
      vertex -30 0 10
    endloop
  endfacet
  facet normal 0.998026 0.0628013 0
    outer loop
      vertex -30 0 6
      vertex -29.7634 -3.76 10
      vertex -29.7634 -3.76 6
    endloop
  endfacet
  facet normal -0.58778 -0.809021 0
    outer loop
      vertex 16.0748 25.3298 6
      vertex 19.1227 23.1154 10
      vertex 16.0748 25.3298 10
    endloop
  endfacet
  facet normal -0.58778 -0.809021 -0
    outer loop
      vertex 19.1227 23.1154 10
      vertex 16.0748 25.3298 6
      vertex 19.1227 23.1154 6
    endloop
  endfacet
  facet normal -0.844331 0.535822 0
    outer loop
      vertex 24.2705 -17.6336 6
      vertex 26.2892 -14.4526 10
      vertex 26.2892 -14.4526 6
    endloop
  endfacet
  facet normal -0.844331 0.535822 0
    outer loop
      vertex 26.2892 -14.4526 10
      vertex 24.2705 -17.6336 6
      vertex 24.2705 -17.6336 10
    endloop
  endfacet
  facet normal 0.904828 -0.425778 0
    outer loop
      vertex -27.8933 11.0437 10
      vertex -26.2892 14.4526 6
      vertex -26.2892 14.4526 10
    endloop
  endfacet
  facet normal 0.904828 -0.425778 0
    outer loop
      vertex -26.2892 14.4526 6
      vertex -27.8933 11.0437 10
      vertex -27.8933 11.0437 6
    endloop
  endfacet
  facet normal -0.248684 0.968585 0
    outer loop
      vertex 9.27051 -28.5317 6
      vertex 5.62144 -29.4686 10
      vertex 9.27051 -28.5317 10
    endloop
  endfacet
  facet normal -0.248684 0.968585 0
    outer loop
      vertex 5.62144 -29.4686 10
      vertex 9.27051 -28.5317 6
      vertex 5.62144 -29.4686 6
    endloop
  endfacet
  facet normal 0.98229 -0.187369 0
    outer loop
      vertex -29.7634 3.76 10
      vertex -29.0575 7.4607 6
      vertex -29.0575 7.4607 10
    endloop
  endfacet
  facet normal 0.98229 -0.187369 0
    outer loop
      vertex -29.0575 7.4607 6
      vertex -29.7634 3.76 10
      vertex -29.7634 3.76 6
    endloop
  endfacet
  facet normal -0.481762 0.876302 0
    outer loop
      vertex 16.0748 -25.3298 6
      vertex 12.7734 -27.1448 10
      vertex 16.0748 -25.3298 10
    endloop
  endfacet
  facet normal -0.481762 0.876302 0
    outer loop
      vertex 12.7734 -27.1448 10
      vertex 16.0748 -25.3298 6
      vertex 12.7734 -27.1448 6
    endloop
  endfacet
  facet normal -0.248684 -0.968585 0
    outer loop
      vertex 5.62144 29.4686 6
      vertex 9.27051 28.5317 10
      vertex 5.62144 29.4686 10
    endloop
  endfacet
  facet normal -0.248684 -0.968585 -0
    outer loop
      vertex 9.27051 28.5317 10
      vertex 5.62144 29.4686 6
      vertex 9.27051 28.5317 6
    endloop
  endfacet
  facet normal 0.125337 0.992114 -0
    outer loop
      vertex -1.88371 -29.9408 6
      vertex -5.62144 -29.4686 10
      vertex -1.88371 -29.9408 10
    endloop
  endfacet
  facet normal 0.125337 0.992114 0
    outer loop
      vertex -5.62144 -29.4686 10
      vertex -1.88371 -29.9408 6
      vertex -5.62144 -29.4686 6
    endloop
  endfacet
  facet normal 0.368126 -0.929776 0
    outer loop
      vertex -12.7734 27.1448 6
      vertex -9.27051 28.5317 10
      vertex -12.7734 27.1448 10
    endloop
  endfacet
  facet normal 0.368126 -0.929776 0
    outer loop
      vertex -9.27051 28.5317 10
      vertex -12.7734 27.1448 6
      vertex -9.27051 28.5317 6
    endloop
  endfacet
  facet normal -0.481762 -0.876302 0
    outer loop
      vertex 12.7734 27.1448 6
      vertex 16.0748 25.3298 10
      vertex 12.7734 27.1448 10
    endloop
  endfacet
  facet normal -0.481762 -0.876302 -0
    outer loop
      vertex 16.0748 25.3298 10
      vertex 12.7734 27.1448 6
      vertex 16.0748 25.3298 6
    endloop
  endfacet
  facet normal 0.248684 -0.968585 0
    outer loop
      vertex -9.27051 28.5317 6
      vertex -5.62144 29.4686 10
      vertex -9.27051 28.5317 10
    endloop
  endfacet
  facet normal 0.248684 -0.968585 0
    outer loop
      vertex -5.62144 29.4686 10
      vertex -9.27051 28.5317 6
      vertex -5.62144 29.4686 6
    endloop
  endfacet
  facet normal 0.58778 0.809021 -0
    outer loop
      vertex -16.0748 -25.3298 6
      vertex -19.1227 -23.1154 10
      vertex -16.0748 -25.3298 10
    endloop
  endfacet
  facet normal 0.58778 0.809021 0
    outer loop
      vertex -19.1227 -23.1154 10
      vertex -16.0748 -25.3298 6
      vertex -19.1227 -23.1154 6
    endloop
  endfacet
  facet normal 0.481762 -0.876302 0
    outer loop
      vertex -16.0748 25.3298 6
      vertex -12.7734 27.1448 10
      vertex -16.0748 25.3298 10
    endloop
  endfacet
  facet normal 0.481762 -0.876302 0
    outer loop
      vertex -12.7734 27.1448 10
      vertex -16.0748 25.3298 6
      vertex -12.7734 27.1448 6
    endloop
  endfacet
  facet normal -0.904828 0.425778 0
    outer loop
      vertex 26.2892 -14.4526 6
      vertex 27.8933 -11.0437 10
      vertex 27.8933 -11.0437 6
    endloop
  endfacet
  facet normal -0.904828 0.425778 0
    outer loop
      vertex 27.8933 -11.0437 10
      vertex 26.2892 -14.4526 6
      vertex 26.2892 -14.4526 10
    endloop
  endfacet
  facet normal 0.684541 0.728974 -0
    outer loop
      vertex -19.1227 -23.1154 6
      vertex -21.8691 -20.5364 10
      vertex -19.1227 -23.1154 10
    endloop
  endfacet
  facet normal 0.684541 0.728974 0
    outer loop
      vertex -21.8691 -20.5364 10
      vertex -19.1227 -23.1154 6
      vertex -21.8691 -20.5364 6
    endloop
  endfacet
  facet normal -0.125337 -0.992114 0
    outer loop
      vertex 1.88371 29.9408 6
      vertex 5.62144 29.4686 10
      vertex 1.88371 29.9408 10
    endloop
  endfacet
  facet normal -0.125337 -0.992114 -0
    outer loop
      vertex 5.62144 29.4686 10
      vertex 1.88371 29.9408 6
      vertex 5.62144 29.4686 6
    endloop
  endfacet
  facet normal -0.98229 0.187369 0
    outer loop
      vertex 29.0575 -7.4607 6
      vertex 29.7634 -3.76 10
      vertex 29.7634 -3.76 6
    endloop
  endfacet
  facet normal -0.98229 0.187369 0
    outer loop
      vertex 29.7634 -3.76 10
      vertex 29.0575 -7.4607 6
      vertex 29.0575 -7.4607 10
    endloop
  endfacet
  facet normal 0.125337 -0.992114 0
    outer loop
      vertex -5.62144 29.4686 6
      vertex -1.88371 29.9408 10
      vertex -5.62144 29.4686 10
    endloop
  endfacet
  facet normal 0.125337 -0.992114 0
    outer loop
      vertex -1.88371 29.9408 10
      vertex -5.62144 29.4686 6
      vertex -1.88371 29.9408 6
    endloop
  endfacet
  facet normal 0.951056 -0.30902 0
    outer loop
      vertex -29.0575 7.4607 10
      vertex -27.8933 11.0437 6
      vertex -27.8933 11.0437 10
    endloop
  endfacet
  facet normal 0.951056 -0.30902 0
    outer loop
      vertex -27.8933 11.0437 6
      vertex -29.0575 7.4607 10
      vertex -29.0575 7.4607 6
    endloop
  endfacet
  facet normal 0.844331 -0.535822 0
    outer loop
      vertex -26.2892 14.4526 10
      vertex -24.2705 17.6336 6
      vertex -24.2705 17.6336 10
    endloop
  endfacet
  facet normal 0.844331 -0.535822 0
    outer loop
      vertex -24.2705 17.6336 6
      vertex -26.2892 14.4526 10
      vertex -26.2892 14.4526 6
    endloop
  endfacet
  facet normal 0.951056 0.30902 0
    outer loop
      vertex -27.8933 -11.0437 10
      vertex -29.0575 -7.4607 6
      vertex -29.0575 -7.4607 10
    endloop
  endfacet
  facet normal 0.951056 0.30902 0
    outer loop
      vertex -29.0575 -7.4607 6
      vertex -27.8933 -11.0437 10
      vertex -27.8933 -11.0437 6
    endloop
  endfacet
  facet normal -0.125337 0.992114 0
    outer loop
      vertex 5.62144 -29.4686 6
      vertex 1.88371 -29.9408 10
      vertex 5.62144 -29.4686 10
    endloop
  endfacet
  facet normal -0.125337 0.992114 0
    outer loop
      vertex 1.88371 -29.9408 10
      vertex 5.62144 -29.4686 6
      vertex 1.88371 -29.9408 6
    endloop
  endfacet
  facet normal 0.58778 -0.809021 0
    outer loop
      vertex -19.1227 23.1154 6
      vertex -16.0748 25.3298 10
      vertex -19.1227 23.1154 10
    endloop
  endfacet
  facet normal 0.58778 -0.809021 0
    outer loop
      vertex -16.0748 25.3298 10
      vertex -19.1227 23.1154 6
      vertex -16.0748 25.3298 6
    endloop
  endfacet
  facet normal -0.368126 -0.929776 0
    outer loop
      vertex 9.27051 28.5317 6
      vertex 12.7734 27.1448 10
      vertex 9.27051 28.5317 10
    endloop
  endfacet
  facet normal -0.368126 -0.929776 -0
    outer loop
      vertex 12.7734 27.1448 10
      vertex 9.27051 28.5317 6
      vertex 12.7734 27.1448 6
    endloop
  endfacet
  facet normal -0.998026 0.0628013 0
    outer loop
      vertex 29.7634 -3.76 6
      vertex 30 0 10
      vertex 30 0 6
    endloop
  endfacet
  facet normal -0.998026 0.0628013 0
    outer loop
      vertex 30 0 10
      vertex 29.7634 -3.76 6
      vertex 29.7634 -3.76 10
    endloop
  endfacet
  facet normal 0.770514 0.637423 0
    outer loop
      vertex -21.8691 -20.5364 10
      vertex -24.2705 -17.6336 6
      vertex -24.2705 -17.6336 10
    endloop
  endfacet
  facet normal 0.770514 0.637423 0
    outer loop
      vertex -24.2705 -17.6336 6
      vertex -21.8691 -20.5364 10
      vertex -21.8691 -20.5364 6
    endloop
  endfacet
  facet normal -0.368126 0.929776 0
    outer loop
      vertex 12.7734 -27.1448 6
      vertex 9.27051 -28.5317 10
      vertex 12.7734 -27.1448 10
    endloop
  endfacet
  facet normal -0.368126 0.929776 0
    outer loop
      vertex 9.27051 -28.5317 10
      vertex 12.7734 -27.1448 6
      vertex 9.27051 -28.5317 6
    endloop
  endfacet
  facet normal 0.481762 0.876302 -0
    outer loop
      vertex -12.7734 -27.1448 6
      vertex -16.0748 -25.3298 10
      vertex -12.7734 -27.1448 10
    endloop
  endfacet
  facet normal 0.481762 0.876302 0
    outer loop
      vertex -16.0748 -25.3298 10
      vertex -12.7734 -27.1448 6
      vertex -16.0748 -25.3298 6
    endloop
  endfacet
  facet normal 0 -1 0
    outer loop
      vertex -1.88371 29.9408 6
      vertex 1.88371 29.9408 10
      vertex -1.88371 29.9408 10
    endloop
  endfacet
  facet normal 0 -1 -0
    outer loop
      vertex 1.88371 29.9408 10
      vertex -1.88371 29.9408 6
      vertex 1.88371 29.9408 6
    endloop
  endfacet
  facet normal 0 1 -0
    outer loop
      vertex 1.88371 -29.9408 6
      vertex -1.88371 -29.9408 10
      vertex 1.88371 -29.9408 10
    endloop
  endfacet
  facet normal 0 1 0
    outer loop
      vertex -1.88371 -29.9408 10
      vertex 1.88371 -29.9408 6
      vertex -1.88371 -29.9408 6
    endloop
  endfacet
  facet normal 0.684541 -0.728974 0
    outer loop
      vertex -21.8691 20.5364 6
      vertex -19.1227 23.1154 10
      vertex -21.8691 20.5364 10
    endloop
  endfacet
  facet normal 0.684541 -0.728974 0
    outer loop
      vertex -19.1227 23.1154 10
      vertex -21.8691 20.5364 6
      vertex -19.1227 23.1154 6
    endloop
  endfacet
  facet normal -0.58778 0.809021 0
    outer loop
      vertex 19.1227 -23.1154 6
      vertex 16.0748 -25.3298 10
      vertex 19.1227 -23.1154 10
    endloop
  endfacet
  facet normal -0.58778 0.809021 0
    outer loop
      vertex 16.0748 -25.3298 10
      vertex 19.1227 -23.1154 6
      vertex 16.0748 -25.3298 6
    endloop
  endfacet
  facet normal 0.844331 0.535822 0
    outer loop
      vertex -24.2705 -17.6336 10
      vertex -26.2892 -14.4526 6
      vertex -26.2892 -14.4526 10
    endloop
  endfacet
  facet normal 0.844331 0.535822 0
    outer loop
      vertex -26.2892 -14.4526 6
      vertex -24.2705 -17.6336 10
      vertex -24.2705 -17.6336 6
    endloop
  endfacet
  facet normal -0.770514 0.637423 0
    outer loop
      vertex 21.8691 -20.5364 6
      vertex 24.2705 -17.6336 10
      vertex 24.2705 -17.6336 6
    endloop
  endfacet
  facet normal -0.770514 0.637423 0
    outer loop
      vertex 24.2705 -17.6336 10
      vertex 21.8691 -20.5364 6
      vertex 21.8691 -20.5364 10
    endloop
  endfacet
  facet normal 0.904828 0.425778 0
    outer loop
      vertex -26.2892 -14.4526 10
      vertex -27.8933 -11.0437 6
      vertex -27.8933 -11.0437 10
    endloop
  endfacet
  facet normal 0.904828 0.425778 0
    outer loop
      vertex -27.8933 -11.0437 6
      vertex -26.2892 -14.4526 10
      vertex -26.2892 -14.4526 6
    endloop
  endfacet
  facet normal 0 0 1
    outer loop
      vertex 29.7634 3.76 6
      vertex 29.7634 -3.76 6
      vertex 30 0 6
    endloop
  endfacet
  facet normal 0 0 1
    outer loop
      vertex 29.0575 7.4607 6
      vertex 29.7634 -3.76 6
      vertex 29.7634 3.76 6
    endloop
  endfacet
  facet normal 0 0 1
    outer loop
      vertex 29.0575 7.4607 6
      vertex 29.0575 -7.4607 6
      vertex 29.7634 -3.76 6
    endloop
  endfacet
  facet normal 0 0 1
    outer loop
      vertex 27.8933 11.0437 6
      vertex 29.0575 -7.4607 6
      vertex 29.0575 7.4607 6
    endloop
  endfacet
  facet normal 0 0 1
    outer loop
      vertex 27.8933 11.0437 6
      vertex 27.8933 -11.0437 6
      vertex 29.0575 -7.4607 6
    endloop
  endfacet
  facet normal 0 0 1
    outer loop
      vertex 26.2892 14.4526 6
      vertex 27.8933 -11.0437 6
      vertex 27.8933 11.0437 6
    endloop
  endfacet
  facet normal 0 0 1
    outer loop
      vertex 26.2892 14.4526 6
      vertex 26.2892 -14.4526 6
      vertex 27.8933 -11.0437 6
    endloop
  endfacet
  facet normal 0 0 1
    outer loop
      vertex 24.2705 17.6336 6
      vertex 26.2892 -14.4526 6
      vertex 26.2892 14.4526 6
    endloop
  endfacet
  facet normal 0 0 1
    outer loop
      vertex 24.2705 17.6336 6
      vertex 24.2705 -17.6336 6
      vertex 26.2892 -14.4526 6
    endloop
  endfacet
  facet normal 0 0 1
    outer loop
      vertex 21.8691 20.5364 6
      vertex 24.2705 -17.6336 6
      vertex 24.2705 17.6336 6
    endloop
  endfacet
  facet normal 0 0 1
    outer loop
      vertex 21.8691 20.5364 6
      vertex 21.8691 -20.5364 6
      vertex 24.2705 -17.6336 6
    endloop
  endfacet
  facet normal 0 0 1
    outer loop
      vertex 19.1227 23.1154 6
      vertex 21.8691 -20.5364 6
      vertex 21.8691 20.5364 6
    endloop
  endfacet
  facet normal 0 0 1
    outer loop
      vertex 19.1227 23.1154 6
      vertex 19.1227 -23.1154 6
      vertex 21.8691 -20.5364 6
    endloop
  endfacet
  facet normal 0 0 1
    outer loop
      vertex 16.0748 25.3298 6
      vertex 19.1227 -23.1154 6
      vertex 19.1227 23.1154 6
    endloop
  endfacet
  facet normal 0 0 1
    outer loop
      vertex 16.0748 25.3298 6
      vertex 16.0748 -25.3298 6
      vertex 19.1227 -23.1154 6
    endloop
  endfacet
  facet normal 0 0 1
    outer loop
      vertex 12.7734 27.1448 6
      vertex 16.0748 -25.3298 6
      vertex 16.0748 25.3298 6
    endloop
  endfacet
  facet normal 0 0 1
    outer loop
      vertex 12.7734 27.1448 6
      vertex 12.7734 -27.1448 6
      vertex 16.0748 -25.3298 6
    endloop
  endfacet
  facet normal 0 0 1
    outer loop
      vertex 9.27051 28.5317 6
      vertex 12.7734 -27.1448 6
      vertex 12.7734 27.1448 6
    endloop
  endfacet
  facet normal 0 0 1
    outer loop
      vertex 9.27051 28.5317 6
      vertex 9.27051 -28.5317 6
      vertex 12.7734 -27.1448 6
    endloop
  endfacet
  facet normal 0 0 1
    outer loop
      vertex 5.62144 29.4686 6
      vertex 9.27051 -28.5317 6
      vertex 9.27051 28.5317 6
    endloop
  endfacet
  facet normal 0 0 1
    outer loop
      vertex 5.62144 29.4686 6
      vertex 5.62144 -29.4686 6
      vertex 9.27051 -28.5317 6
    endloop
  endfacet
  facet normal 0 0 1
    outer loop
      vertex 1.88371 29.9408 6
      vertex 5.62144 -29.4686 6
      vertex 5.62144 29.4686 6
    endloop
  endfacet
  facet normal 0 0 1
    outer loop
      vertex 1.88371 29.9408 6
      vertex 1.88371 -29.9408 6
      vertex 5.62144 -29.4686 6
    endloop
  endfacet
  facet normal -0 0 1
    outer loop
      vertex -1.88371 29.9408 6
      vertex 1.88371 -29.9408 6
      vertex 1.88371 29.9408 6
    endloop
  endfacet
  facet normal 0 0 1
    outer loop
      vertex -1.88371 29.9408 6
      vertex -1.88371 -29.9408 6
      vertex 1.88371 -29.9408 6
    endloop
  endfacet
  facet normal -0 0 1
    outer loop
      vertex -5.62144 29.4686 6
      vertex -1.88371 -29.9408 6
      vertex -1.88371 29.9408 6
    endloop
  endfacet
  facet normal 0 0 1
    outer loop
      vertex -5.62144 29.4686 6
      vertex -5.62144 -29.4686 6
      vertex -1.88371 -29.9408 6
    endloop
  endfacet
  facet normal -0 0 1
    outer loop
      vertex -9.27051 28.5317 6
      vertex -5.62144 -29.4686 6
      vertex -5.62144 29.4686 6
    endloop
  endfacet
  facet normal 0 0 1
    outer loop
      vertex -9.27051 28.5317 6
      vertex -9.27051 -28.5317 6
      vertex -5.62144 -29.4686 6
    endloop
  endfacet
  facet normal -0 0 1
    outer loop
      vertex -12.7734 27.1448 6
      vertex -9.27051 -28.5317 6
      vertex -9.27051 28.5317 6
    endloop
  endfacet
  facet normal 0 0 1
    outer loop
      vertex -12.7734 27.1448 6
      vertex -12.7734 -27.1448 6
      vertex -9.27051 -28.5317 6
    endloop
  endfacet
  facet normal -0 0 1
    outer loop
      vertex -16.0748 25.3298 6
      vertex -12.7734 -27.1448 6
      vertex -12.7734 27.1448 6
    endloop
  endfacet
  facet normal 0 0 1
    outer loop
      vertex -16.0748 25.3298 6
      vertex -16.0748 -25.3298 6
      vertex -12.7734 -27.1448 6
    endloop
  endfacet
  facet normal -0 0 1
    outer loop
      vertex -19.1227 23.1154 6
      vertex -16.0748 -25.3298 6
      vertex -16.0748 25.3298 6
    endloop
  endfacet
  facet normal 0 0 1
    outer loop
      vertex -19.1227 23.1154 6
      vertex -19.1227 -23.1154 6
      vertex -16.0748 -25.3298 6
    endloop
  endfacet
  facet normal -0 0 1
    outer loop
      vertex -21.8691 20.5364 6
      vertex -19.1227 -23.1154 6
      vertex -19.1227 23.1154 6
    endloop
  endfacet
  facet normal 0 0 1
    outer loop
      vertex -21.8691 20.5364 6
      vertex -21.8691 -20.5364 6
      vertex -19.1227 -23.1154 6
    endloop
  endfacet
  facet normal -0 0 1
    outer loop
      vertex -24.2705 17.6336 6
      vertex -21.8691 -20.5364 6
      vertex -21.8691 20.5364 6
    endloop
  endfacet
  facet normal 0 0 1
    outer loop
      vertex -24.2705 17.6336 6
      vertex -24.2705 -17.6336 6
      vertex -21.8691 -20.5364 6
    endloop
  endfacet
  facet normal -0 0 1
    outer loop
      vertex -26.2892 14.4526 6
      vertex -24.2705 -17.6336 6
      vertex -24.2705 17.6336 6
    endloop
  endfacet
  facet normal 0 0 1
    outer loop
      vertex -26.2892 14.4526 6
      vertex -26.2892 -14.4526 6
      vertex -24.2705 -17.6336 6
    endloop
  endfacet
  facet normal -0 0 1
    outer loop
      vertex -27.8933 11.0437 6
      vertex -26.2892 -14.4526 6
      vertex -26.2892 14.4526 6
    endloop
  endfacet
  facet normal 0 0 1
    outer loop
      vertex -27.8933 11.0437 6
      vertex -27.8933 -11.0437 6
      vertex -26.2892 -14.4526 6
    endloop
  endfacet
  facet normal -0 0 1
    outer loop
      vertex -29.0575 7.4607 6
      vertex -27.8933 -11.0437 6
      vertex -27.8933 11.0437 6
    endloop
  endfacet
  facet normal 0 0 1
    outer loop
      vertex -29.0575 7.4607 6
      vertex -29.0575 -7.4607 6
      vertex -27.8933 -11.0437 6
    endloop
  endfacet
  facet normal -0 0 1
    outer loop
      vertex -29.7634 3.76 6
      vertex -29.0575 -7.4607 6
      vertex -29.0575 7.4607 6
    endloop
  endfacet
  facet normal 0 0 1
    outer loop
      vertex -29.7634 3.76 6
      vertex -29.7634 -3.76 6
      vertex -29.0575 -7.4607 6
    endloop
  endfacet
  facet normal 0 -0 1
    outer loop
      vertex -29.7634 -3.76 6
      vertex -29.7634 3.76 6
      vertex -30 0 6
    endloop
  endfacet
endsolid OpenSCAD_Model
