solid OpenSCAD_Model
  facet normal -0.982294 -0.187349 0
    outer loop
      vertex 15.746 10.6596 0
      vertex 15.6222 11.3087 3
      vertex 15.6222 11.3087 0
    endloop
  endfacet
  facet normal -0.982294 -0.187349 0
    outer loop
      vertex 15.6222 11.3087 3
      vertex 15.746 10.6596 0
      vertex 15.746 10.6596 3
    endloop
  endfacet
  facet normal -0.998027 -0.0627928 0
    outer loop
      vertex 15.7875 10 0
      vertex 15.746 10.6596 3
      vertex 15.746 10.6596 0
    endloop
  endfacet
  facet normal -0.998027 -0.0627928 0
    outer loop
      vertex 15.746 10.6596 3
      vertex 15.7875 10 0
      vertex 15.7875 10 3
    endloop
  endfacet
  facet normal -0.951032 -0.309093 0
    outer loop
      vertex 15.6222 11.3087 0
      vertex 15.4179 11.9373 3
      vertex 15.4179 11.9373 0
    endloop
  endfacet
  facet normal -0.951032 -0.309093 0
    outer loop
      vertex 15.4179 11.9373 3
      vertex 15.6222 11.3087 0
      vertex 15.6222 11.3087 3
    endloop
  endfacet
  facet normal -0.367997 -0.929827 0
    outer loop
      vertex 12.1512 15.0049 0
      vertex 12.7657 14.7617 3
      vertex 12.1512 15.0049 3
    endloop
  endfacet
  facet normal -0.367997 -0.929827 -0
    outer loop
      vertex 12.7657 14.7617 3
      vertex 12.1512 15.0049 0
      vertex 12.7657 14.7617 0
    endloop
  endfacet
  facet normal 0.684545 -0.728971 0
    outer loop
      vertex 6.6888 13.6024 0
      vertex 7.17056 14.0548 3
      vertex 6.6888 13.6024 3
    endloop
  endfacet
  facet normal 0.684545 -0.728971 0
    outer loop
      vertex 7.17056 14.0548 3
      vertex 6.6888 13.6024 0
      vertex 7.17056 14.0548 0
    endloop
  endfacet
  facet normal 0.982285 -0.187392 0
    outer loop
      vertex 5.304 10.6596 3
      vertex 5.42783 11.3087 0
      vertex 5.42783 11.3087 3
    endloop
  endfacet
  facet normal 0.982285 -0.187392 0
    outer loop
      vertex 5.42783 11.3087 0
      vertex 5.304 10.6596 3
      vertex 5.304 10.6596 0
    endloop
  endfacet
  facet normal -0.84434 -0.535808 0
    outer loop
      vertex 15.1366 12.5352 0
      vertex 14.7825 13.0932 3
      vertex 14.7825 13.0932 0
    endloop
  endfacet
  facet normal -0.84434 -0.535808 0
    outer loop
      vertex 14.7825 13.0932 3
      vertex 15.1366 12.5352 0
      vertex 15.1366 12.5352 3
    endloop
  endfacet
  facet normal -0.904856 -0.425717 0
    outer loop
      vertex 15.4179 11.9373 0
      vertex 15.1366 12.5352 3
      vertex 15.1366 12.5352 0
    endloop
  endfacet
  facet normal -0.904856 -0.425717 0
    outer loop
      vertex 15.1366 12.5352 3
      vertex 15.4179 11.9373 0
      vertex 15.4179 11.9373 3
    endloop
  endfacet
  facet normal 0.951056 0.309019 0
    outer loop
      vertex 5.63205 8.06275 3
      vertex 5.42783 8.69127 0
      vertex 5.42783 8.69127 3
    endloop
  endfacet
  facet normal 0.951056 0.309019 0
    outer loop
      vertex 5.42783 8.69127 0
      vertex 5.63205 8.06275 3
      vertex 5.63205 8.06275 0
    endloop
  endfacet
  facet normal 0 -1 0
    outer loop
      vertex 10.1946 15.2521 0
      vertex 10.8554 15.2521 3
      vertex 10.1946 15.2521 3
    endloop
  endfacet
  facet normal 0 -1 -0
    outer loop
      vertex 10.8554 15.2521 3
      vertex 10.1946 15.2521 0
      vertex 10.8554 15.2521 0
    endloop
  endfacet
  facet normal -0.95102 0.309128 0
    outer loop
      vertex 15.4179 8.06275 0
      vertex 15.6222 8.69127 3
      vertex 15.6222 8.69127 0
    endloop
  endfacet
  facet normal -0.95102 0.309128 0
    outer loop
      vertex 15.6222 8.69127 3
      vertex 15.4179 8.06275 0
      vertex 15.4179 8.06275 3
    endloop
  endfacet
  facet normal 0.368122 0.929777 -0
    outer loop
      vertex 8.8988 4.99507 0
      vertex 8.28434 5.23835 3
      vertex 8.8988 4.99507 3
    endloop
  endfacet
  facet normal 0.368122 0.929777 0
    outer loop
      vertex 8.28434 5.23835 3
      vertex 8.8988 4.99507 0
      vertex 8.28434 5.23835 0
    endloop
  endfacet
  facet normal 0.125329 0.992115 -0
    outer loop
      vertex 10.1946 4.74788 0
      vertex 9.53891 4.83071 3
      vertex 10.1946 4.74788 3
    endloop
  endfacet
  facet normal 0.125329 0.992115 0
    outer loop
      vertex 9.53891 4.83071 3
      vertex 10.1946 4.74788 0
      vertex 9.53891 4.83071 0
    endloop
  endfacet
  facet normal -0.248704 0.968579 0
    outer loop
      vertex 12.1512 4.99507 0
      vertex 11.5111 4.83071 3
      vertex 12.1512 4.99507 3
    endloop
  endfacet
  facet normal -0.248704 0.968579 0
    outer loop
      vertex 11.5111 4.83071 3
      vertex 12.1512 4.99507 0
      vertex 11.5111 4.83071 0
    endloop
  endfacet
  facet normal 0.368017 -0.929819 0
    outer loop
      vertex 8.28434 14.7617 0
      vertex 8.8988 15.0049 3
      vertex 8.28434 14.7617 3
    endloop
  endfacet
  facet normal 0.368017 -0.929819 0
    outer loop
      vertex 8.8988 15.0049 3
      vertex 8.28434 14.7617 0
      vertex 8.8988 15.0049 0
    endloop
  endfacet
  facet normal 0.248758 -0.968566 0
    outer loop
      vertex 8.8988 15.0049 0
      vertex 9.53891 15.1693 3
      vertex 8.8988 15.0049 3
    endloop
  endfacet
  facet normal 0.248758 -0.968566 0
    outer loop
      vertex 9.53891 15.1693 3
      vertex 8.8988 15.0049 0
      vertex 9.53891 15.1693 0
    endloop
  endfacet
  facet normal -0.77048 0.637464 0
    outer loop
      vertex 14.3612 6.39757 0
      vertex 14.7825 6.90678 3
      vertex 14.7825 6.90678 0
    endloop
  endfacet
  facet normal -0.77048 0.637464 0
    outer loop
      vertex 14.7825 6.90678 3
      vertex 14.3612 6.39757 0
      vertex 14.3612 6.39757 3
    endloop
  endfacet
  facet normal 0.125284 -0.992121 0
    outer loop
      vertex 9.53891 15.1693 0
      vertex 10.1946 15.2521 3
      vertex 9.53891 15.1693 3
    endloop
  endfacet
  facet normal 0.125284 -0.992121 0
    outer loop
      vertex 10.1946 15.2521 3
      vertex 9.53891 15.1693 0
      vertex 10.1946 15.2521 0
    endloop
  endfacet
  facet normal 0.587839 -0.808978 0
    outer loop
      vertex 7.17056 14.0548 0
      vertex 7.70521 14.4433 3
      vertex 7.17056 14.0548 3
    endloop
  endfacet
  facet normal 0.587839 -0.808978 0
    outer loop
      vertex 7.70521 14.4433 3
      vertex 7.17056 14.0548 0
      vertex 7.70521 14.4433 0
    endloop
  endfacet
  facet normal -0.587875 -0.808952 0
    outer loop
      vertex 13.3448 14.4433 0
      vertex 13.8794 14.0548 3
      vertex 13.3448 14.4433 3
    endloop
  endfacet
  facet normal -0.587875 -0.808952 -0
    outer loop
      vertex 13.8794 14.0548 3
      vertex 13.3448 14.4433 0
      vertex 13.8794 14.0548 0
    endloop
  endfacet
  facet normal 0.481778 -0.876294 0
    outer loop
      vertex 7.70521 14.4433 0
      vertex 8.28434 14.7617 3
      vertex 7.70521 14.4433 3
    endloop
  endfacet
  facet normal 0.481778 -0.876294 0
    outer loop
      vertex 8.28434 14.7617 3
      vertex 7.70521 14.4433 0
      vertex 8.28434 14.7617 0
    endloop
  endfacet
  facet normal 0.982288 0.187376 0
    outer loop
      vertex 5.42783 8.69127 3
      vertex 5.304 9.34043 0
      vertex 5.304 9.34043 3
    endloop
  endfacet
  facet normal 0.982288 0.187376 0
    outer loop
      vertex 5.304 9.34043 0
      vertex 5.42783 8.69127 3
      vertex 5.42783 8.69127 0
    endloop
  endfacet
  facet normal -0.982297 0.187332 0
    outer loop
      vertex 15.6222 8.69127 0
      vertex 15.746 9.34043 3
      vertex 15.746 9.34043 0
    endloop
  endfacet
  facet normal -0.982297 0.187332 0
    outer loop
      vertex 15.746 9.34043 3
      vertex 15.6222 8.69127 0
      vertex 15.6222 8.69127 3
    endloop
  endfacet
  facet normal -0.844336 0.535815 0
    outer loop
      vertex 14.7825 6.90678 0
      vertex 15.1366 7.46477 3
      vertex 15.1366 7.46477 0
    endloop
  endfacet
  facet normal -0.844336 0.535815 0
    outer loop
      vertex 15.1366 7.46477 3
      vertex 14.7825 6.90678 0
      vertex 14.7825 6.90678 3
    endloop
  endfacet
  facet normal 0.844333 -0.535819 0
    outer loop
      vertex 5.91344 12.5352 3
      vertex 6.26755 13.0932 0
      vertex 6.26755 13.0932 3
    endloop
  endfacet
  facet normal 0.844333 -0.535819 0
    outer loop
      vertex 6.26755 13.0932 0
      vertex 5.91344 12.5352 3
      vertex 5.91344 12.5352 0
    endloop
  endfacet
  facet normal 0.770511 -0.637427 0
    outer loop
      vertex 6.26755 13.0932 3
      vertex 6.6888 13.6024 0
      vertex 6.6888 13.6024 3
    endloop
  endfacet
  facet normal 0.770511 -0.637427 0
    outer loop
      vertex 6.6888 13.6024 0
      vertex 6.26755 13.0932 3
      vertex 6.26755 13.0932 0
    endloop
  endfacet
  facet normal -0.125327 0.992115 0
    outer loop
      vertex 11.5111 4.83071 0
      vertex 10.8554 4.74788 3
      vertex 11.5111 4.83071 3
    endloop
  endfacet
  facet normal -0.125327 0.992115 0
    outer loop
      vertex 10.8554 4.74788 3
      vertex 11.5111 4.83071 0
      vertex 10.8554 4.74788 0
    endloop
  endfacet
  facet normal -0.368101 0.929786 0
    outer loop
      vertex 12.7657 5.23835 0
      vertex 12.1512 4.99507 3
      vertex 12.7657 5.23835 3
    endloop
  endfacet
  facet normal -0.368101 0.929786 0
    outer loop
      vertex 12.1512 4.99507 3
      vertex 12.7657 5.23835 0
      vertex 12.1512 4.99507 0
    endloop
  endfacet
  facet normal -0.125282 -0.992121 0
    outer loop
      vertex 10.8554 15.2521 0
      vertex 11.5111 15.1693 3
      vertex 10.8554 15.2521 3
    endloop
  endfacet
  facet normal -0.125282 -0.992121 -0
    outer loop
      vertex 11.5111 15.1693 3
      vertex 10.8554 15.2521 0
      vertex 11.5111 15.1693 0
    endloop
  endfacet
  facet normal -0.998026 0.0627956 0
    outer loop
      vertex 15.746 9.34043 0
      vertex 15.7875 10 3
      vertex 15.7875 10 0
    endloop
  endfacet
  facet normal -0.998026 0.0627956 0
    outer loop
      vertex 15.7875 10 3
      vertex 15.746 9.34043 0
      vertex 15.746 9.34043 3
    endloop
  endfacet
  facet normal 0.904804 -0.425828 0
    outer loop
      vertex 5.63205 11.9373 3
      vertex 5.91344 12.5352 0
      vertex 5.91344 12.5352 3
    endloop
  endfacet
  facet normal 0.904804 -0.425828 0
    outer loop
      vertex 5.91344 12.5352 0
      vertex 5.63205 11.9373 3
      vertex 5.63205 11.9373 0
    endloop
  endfacet
  facet normal 0.998026 0.0627956 0
    outer loop
      vertex 5.304 9.34043 3
      vertex 5.2625 10 0
      vertex 5.2625 10 3
    endloop
  endfacet
  facet normal 0.998026 0.0627956 0
    outer loop
      vertex 5.2625 10 0
      vertex 5.304 9.34043 3
      vertex 5.304 9.34043 0
    endloop
  endfacet
  facet normal 0.770517 0.637419 0
    outer loop
      vertex 6.6888 6.39757 3
      vertex 6.26755 6.90678 0
      vertex 6.26755 6.90678 3
    endloop
  endfacet
  facet normal 0.770517 0.637419 0
    outer loop
      vertex 6.26755 6.90678 0
      vertex 6.6888 6.39757 3
      vertex 6.6888 6.39757 0
    endloop
  endfacet
  facet normal 0.998027 -0.0627928 0
    outer loop
      vertex 5.2625 10 3
      vertex 5.304 10.6596 0
      vertex 5.304 10.6596 3
    endloop
  endfacet
  facet normal 0.998027 -0.0627928 0
    outer loop
      vertex 5.304 10.6596 0
      vertex 5.2625 10 3
      vertex 5.2625 10 0
    endloop
  endfacet
  facet normal 0 1 -0
    outer loop
      vertex 10.8554 4.74788 0
      vertex 10.1946 4.74788 3
      vertex 10.8554 4.74788 3
    endloop
  endfacet
  facet normal 0 1 0
    outer loop
      vertex 10.1946 4.74788 3
      vertex 10.8554 4.74788 0
      vertex 10.1946 4.74788 0
    endloop
  endfacet
  facet normal -0.481797 -0.876283 0
    outer loop
      vertex 12.7657 14.7617 0
      vertex 13.3448 14.4433 3
      vertex 12.7657 14.7617 3
    endloop
  endfacet
  facet normal -0.481797 -0.876283 -0
    outer loop
      vertex 13.3448 14.4433 3
      vertex 12.7657 14.7617 0
      vertex 13.3448 14.4433 0
    endloop
  endfacet
  facet normal -0.248761 -0.968565 0
    outer loop
      vertex 11.5111 15.1693 0
      vertex 12.1512 15.0049 3
      vertex 11.5111 15.1693 3
    endloop
  endfacet
  facet normal -0.248761 -0.968565 -0
    outer loop
      vertex 12.1512 15.0049 3
      vertex 11.5111 15.1693 0
      vertex 12.1512 15.0049 0
    endloop
  endfacet
  facet normal -0.904878 0.42567 0
    outer loop
      vertex 15.1366 7.46477 0
      vertex 15.4179 8.06275 3
      vertex 15.4179 8.06275 0
    endloop
  endfacet
  facet normal -0.904878 0.42567 0
    outer loop
      vertex 15.4179 8.06275 3
      vertex 15.1366 7.46477 0
      vertex 15.1366 7.46477 3
    endloop
  endfacet
  facet normal -0.684515 0.728999 0
    outer loop
      vertex 14.3612 6.39757 0
      vertex 13.8794 5.94517 3
      vertex 14.3612 6.39757 3
    endloop
  endfacet
  facet normal -0.684515 0.728999 0
    outer loop
      vertex 13.8794 5.94517 3
      vertex 14.3612 6.39757 0
      vertex 13.8794 5.94517 0
    endloop
  endfacet
  facet normal 0.587789 0.809014 -0
    outer loop
      vertex 7.70521 5.55672 0
      vertex 7.17056 5.94517 3
      vertex 7.70521 5.55672 3
    endloop
  endfacet
  facet normal 0.587789 0.809014 0
    outer loop
      vertex 7.17056 5.94517 3
      vertex 7.70521 5.55672 0
      vertex 7.17056 5.94517 0
    endloop
  endfacet
  facet normal -0.481762 0.876302 0
    outer loop
      vertex 13.3448 5.55672 0
      vertex 12.7657 5.23835 3
      vertex 13.3448 5.55672 3
    endloop
  endfacet
  facet normal -0.481762 0.876302 0
    outer loop
      vertex 12.7657 5.23835 3
      vertex 13.3448 5.55672 0
      vertex 12.7657 5.23835 0
    endloop
  endfacet
  facet normal -0.587825 0.808988 0
    outer loop
      vertex 13.8794 5.94517 0
      vertex 13.3448 5.55672 3
      vertex 13.8794 5.94517 3
    endloop
  endfacet
  facet normal -0.587825 0.808988 0
    outer loop
      vertex 13.3448 5.55672 3
      vertex 13.8794 5.94517 0
      vertex 13.3448 5.55672 0
    endloop
  endfacet
  facet normal -0.770474 -0.637472 0
    outer loop
      vertex 14.7825 13.0932 0
      vertex 14.3612 13.6024 3
      vertex 14.3612 13.6024 0
    endloop
  endfacet
  facet normal -0.770474 -0.637472 0
    outer loop
      vertex 14.3612 13.6024 3
      vertex 14.7825 13.0932 0
      vertex 14.7825 13.0932 3
    endloop
  endfacet
  facet normal -0.684515 -0.728999 0
    outer loop
      vertex 13.8794 14.0548 0
      vertex 14.3612 13.6024 3
      vertex 13.8794 14.0548 3
    endloop
  endfacet
  facet normal -0.684515 -0.728999 -0
    outer loop
      vertex 14.3612 13.6024 3
      vertex 13.8794 14.0548 0
      vertex 14.3612 13.6024 0
    endloop
  endfacet
  facet normal 0.684545 0.728971 -0
    outer loop
      vertex 7.17056 5.94517 0
      vertex 6.6888 6.39757 3
      vertex 7.17056 5.94517 3
    endloop
  endfacet
  facet normal 0.684545 0.728971 0
    outer loop
      vertex 6.6888 6.39757 3
      vertex 7.17056 5.94517 0
      vertex 6.6888 6.39757 0
    endloop
  endfacet
  facet normal 0.951067 -0.308983 0
    outer loop
      vertex 5.42783 11.3087 3
      vertex 5.63205 11.9373 0
      vertex 5.63205 11.9373 3
    endloop
  endfacet
  facet normal 0.951067 -0.308983 0
    outer loop
      vertex 5.63205 11.9373 0
      vertex 5.42783 11.3087 3
      vertex 5.42783 11.3087 0
    endloop
  endfacet
  facet normal 0.844329 0.535825 0
    outer loop
      vertex 6.26755 6.90678 3
      vertex 5.91344 7.46477 0
      vertex 5.91344 7.46477 3
    endloop
  endfacet
  facet normal 0.844329 0.535825 0
    outer loop
      vertex 5.91344 7.46477 0
      vertex 6.26755 6.90678 3
      vertex 6.26755 6.90678 0
    endloop
  endfacet
  facet normal 0.904826 0.425782 0
    outer loop
      vertex 5.91344 7.46477 3
      vertex 5.63205 8.06275 0
      vertex 5.63205 8.06275 3
    endloop
  endfacet
  facet normal 0.904826 0.425782 0
    outer loop
      vertex 5.63205 8.06275 0
      vertex 5.91344 7.46477 3
      vertex 5.91344 7.46477 0
    endloop
  endfacet
  facet normal 0.248701 0.96858 -0
    outer loop
      vertex 9.53891 4.83071 0
      vertex 8.8988 4.99507 3
      vertex 9.53891 4.83071 3
    endloop
  endfacet
  facet normal 0.248701 0.96858 0
    outer loop
      vertex 8.8988 4.99507 3
      vertex 9.53891 4.83071 0
      vertex 8.8988 4.99507 0
    endloop
  endfacet
  facet normal 0.481743 0.876313 -0
    outer loop
      vertex 8.28434 5.23835 0
      vertex 7.70521 5.55672 3
      vertex 8.28434 5.23835 3
    endloop
  endfacet
  facet normal 0.481743 0.876313 0
    outer loop
      vertex 7.70521 5.55672 3
      vertex 8.28434 5.23835 0
      vertex 7.70521 5.55672 0
    endloop
  endfacet
  facet normal 0 0 -1
    outer loop
      vertex 70 0 0
      vertex 57.8875 10 0
      vertex 70 20 0
    endloop
  endfacet
  facet normal 0 0 -1
    outer loop
      vertex 70 0 0
      vertex 57.846 9.34043 0
      vertex 57.8875 10 0
    endloop
  endfacet
  facet normal 0 0 -1
    outer loop
      vertex 70 0 0
      vertex 57.7222 8.69127 0
      vertex 57.846 9.34043 0
    endloop
  endfacet
  facet normal 0 0 -1
    outer loop
      vertex 70 0 0
      vertex 57.5179 8.06275 0
      vertex 57.7222 8.69127 0
    endloop
  endfacet
  facet normal 0 0 -1
    outer loop
      vertex 70 0 0
      vertex 57.2366 7.46477 0
      vertex 57.5179 8.06275 0
    endloop
  endfacet
  facet normal 0 0 -1
    outer loop
      vertex 70 0 0
      vertex 56.8825 6.90678 0
      vertex 57.2366 7.46477 0
    endloop
  endfacet
  facet normal 0 0 -1
    outer loop
      vertex 70 0 0
      vertex 56.4612 6.39757 0
      vertex 56.8825 6.90678 0
    endloop
  endfacet
  facet normal 0 0 -1
    outer loop
      vertex 70 0 0
      vertex 55.9794 5.94517 0
      vertex 56.4612 6.39757 0
    endloop
  endfacet
  facet normal 0 0 -1
    outer loop
      vertex 70 0 0
      vertex 55.4448 5.55672 0
      vertex 55.9794 5.94517 0
    endloop
  endfacet
  facet normal 0 0 -1
    outer loop
      vertex 70 0 0
      vertex 54.8657 5.23835 0
      vertex 55.4448 5.55672 0
    endloop
  endfacet
  facet normal 0 0 -1
    outer loop
      vertex 70 0 0
      vertex 54.2512 4.99507 0
      vertex 54.8657 5.23835 0
    endloop
  endfacet
  facet normal 0 0 -1
    outer loop
      vertex 70 0 0
      vertex 53.6111 4.83071 0
      vertex 54.2512 4.99507 0
    endloop
  endfacet
  facet normal 0 0 -1
    outer loop
      vertex 70 0 0
      vertex 52.9554 4.74788 0
      vertex 53.6111 4.83071 0
    endloop
  endfacet
  facet normal 0 0 -1
    outer loop
      vertex 70 0 0
      vertex 52.2946 4.74788 0
      vertex 52.9554 4.74788 0
    endloop
  endfacet
  facet normal 0 0 -1
    outer loop
      vertex 70 0 0
      vertex 51.6389 4.83071 0
      vertex 52.2946 4.74788 0
    endloop
  endfacet
  facet normal 0 0 -1
    outer loop
      vertex 32.5611 4.83071 0
      vertex 51.6389 4.83071 0
      vertex 70 0 0
    endloop
  endfacet
  facet normal 0 0 -1
    outer loop
      vertex 47.404 9.34043 0
      vertex 36.8375 10 0
      vertex 47.3625 10 0
    endloop
  endfacet
  facet normal 0 0 -1
    outer loop
      vertex 36.796 9.34043 0
      vertex 47.404 9.34043 0
      vertex 47.5278 8.69127 0
    endloop
  endfacet
  facet normal 0 0 -1
    outer loop
      vertex 36.6722 8.69127 0
      vertex 47.5278 8.69127 0
      vertex 47.7321 8.06275 0
    endloop
  endfacet
  facet normal 0 0 -1
    outer loop
      vertex 36.4679 8.06275 0
      vertex 47.7321 8.06275 0
      vertex 48.0134 7.46477 0
    endloop
  endfacet
  facet normal 0 0 -1
    outer loop
      vertex 36.1866 7.46477 0
      vertex 48.0134 7.46477 0
      vertex 48.3675 6.90678 0
    endloop
  endfacet
  facet normal 0 0 -1
    outer loop
      vertex 35.8325 6.90678 0
      vertex 48.3675 6.90678 0
      vertex 48.7888 6.39757 0
    endloop
  endfacet
  facet normal 0 0 -1
    outer loop
      vertex 35.4112 6.39757 0
      vertex 48.7888 6.39757 0
      vertex 49.2706 5.94517 0
    endloop
  endfacet
  facet normal 0 0 -1
    outer loop
      vertex 34.9294 5.94517 0
      vertex 49.2706 5.94517 0
      vertex 49.8052 5.55672 0
    endloop
  endfacet
  facet normal 0 0 -1
    outer loop
      vertex 34.3948 5.55672 0
      vertex 49.8052 5.55672 0
      vertex 50.3843 5.23835 0
    endloop
  endfacet
  facet normal 0 0 -1
    outer loop
      vertex 33.8157 5.23835 0
      vertex 50.3843 5.23835 0
      vertex 50.9988 4.99507 0
    endloop
  endfacet
  facet normal 0 0 -1
    outer loop
      vertex 47.404 9.34043 0
      vertex 36.796 9.34043 0
      vertex 36.8375 10 0
    endloop
  endfacet
  facet normal 0 0 -1
    outer loop
      vertex 47.5278 8.69127 0
      vertex 36.6722 8.69127 0
      vertex 36.796 9.34043 0
    endloop
  endfacet
  facet normal 0 0 -1
    outer loop
      vertex 51.6389 4.83071 0
      vertex 32.5611 4.83071 0
      vertex 50.9988 4.99507 0
    endloop
  endfacet
  facet normal 0 0 -1
    outer loop
      vertex 47.7321 8.06275 0
      vertex 36.4679 8.06275 0
      vertex 36.6722 8.69127 0
    endloop
  endfacet
  facet normal 0 0 -1
    outer loop
      vertex 48.0134 7.46477 0
      vertex 36.1866 7.46477 0
      vertex 36.4679 8.06275 0
    endloop
  endfacet
  facet normal 0 0 -1
    outer loop
      vertex 48.3675 6.90678 0
      vertex 35.8325 6.90678 0
      vertex 36.1866 7.46477 0
    endloop
  endfacet
  facet normal 0 0 -1
    outer loop
      vertex 48.7888 6.39757 0
      vertex 35.4112 6.39757 0
      vertex 35.8325 6.90678 0
    endloop
  endfacet
  facet normal 0 0 -1
    outer loop
      vertex 49.2706 5.94517 0
      vertex 34.9294 5.94517 0
      vertex 35.4112 6.39757 0
    endloop
  endfacet
  facet normal 0 0 -1
    outer loop
      vertex 49.8052 5.55672 0
      vertex 34.3948 5.55672 0
      vertex 34.9294 5.94517 0
    endloop
  endfacet
  facet normal 0 0 -1
    outer loop
      vertex 50.3843 5.23835 0
      vertex 33.8157 5.23835 0
      vertex 34.3948 5.55672 0
    endloop
  endfacet
  facet normal 0 0 -1
    outer loop
      vertex 50.9988 4.99507 0
      vertex 33.2012 4.99507 0
      vertex 33.8157 5.23835 0
    endloop
  endfacet
  facet normal -0 0 -1
    outer loop
      vertex 50.9988 4.99507 0
      vertex 32.5611 4.83071 0
      vertex 33.2012 4.99507 0
    endloop
  endfacet
  facet normal 0 0 -1
    outer loop
      vertex 70 0 0
      vertex 31.9054 4.74788 0
      vertex 32.5611 4.83071 0
    endloop
  endfacet
  facet normal 0 0 -1
    outer loop
      vertex 0 0 0
      vertex 31.9054 4.74788 0
      vertex 70 0 0
    endloop
  endfacet
  facet normal 0 0 -1
    outer loop
      vertex 26.354 9.34043 0
      vertex 15.7875 10 0
      vertex 26.3125 10 0
    endloop
  endfacet
  facet normal 0 0 -1
    outer loop
      vertex 15.746 9.34043 0
      vertex 26.354 9.34043 0
      vertex 26.4778 8.69127 0
    endloop
  endfacet
  facet normal 0 0 -1
    outer loop
      vertex 15.6222 8.69127 0
      vertex 26.4778 8.69127 0
      vertex 26.6821 8.06275 0
    endloop
  endfacet
  facet normal 0 0 -1
    outer loop
      vertex 15.4179 8.06275 0
      vertex 26.6821 8.06275 0
      vertex 26.9634 7.46477 0
    endloop
  endfacet
  facet normal 0 0 -1
    outer loop
      vertex 15.1366 7.46477 0
      vertex 26.9634 7.46477 0
      vertex 27.3175 6.90678 0
    endloop
  endfacet
  facet normal 0 0 -1
    outer loop
      vertex 14.7825 6.90678 0
      vertex 27.3175 6.90678 0
      vertex 27.7388 6.39757 0
    endloop
  endfacet
  facet normal 0 0 -1
    outer loop
      vertex 14.3612 6.39757 0
      vertex 27.7388 6.39757 0
      vertex 28.2206 5.94517 0
    endloop
  endfacet
  facet normal 0 0 -1
    outer loop
      vertex 13.8794 5.94517 0
      vertex 28.2206 5.94517 0
      vertex 28.7552 5.55672 0
    endloop
  endfacet
  facet normal 0 0 -1
    outer loop
      vertex 13.3448 5.55672 0
      vertex 28.7552 5.55672 0
      vertex 29.3343 5.23835 0
    endloop
  endfacet
  facet normal 0 0 -1
    outer loop
      vertex 12.7657 5.23835 0
      vertex 29.3343 5.23835 0
      vertex 29.9488 4.99507 0
    endloop
  endfacet
  facet normal 0 0 -1
    outer loop
      vertex 26.354 9.34043 0
      vertex 15.746 9.34043 0
      vertex 15.7875 10 0
    endloop
  endfacet
  facet normal 0 0 -1
    outer loop
      vertex 26.4778 8.69127 0
      vertex 15.6222 8.69127 0
      vertex 15.746 9.34043 0
    endloop
  endfacet
  facet normal 0 0 -1
    outer loop
      vertex 26.6821 8.06275 0
      vertex 15.4179 8.06275 0
      vertex 15.6222 8.69127 0
    endloop
  endfacet
  facet normal 0 0 -1
    outer loop
      vertex 12.1512 4.99507 0
      vertex 29.9488 4.99507 0
      vertex 30.5889 4.83071 0
    endloop
  endfacet
  facet normal 0 0 -1
    outer loop
      vertex 26.9634 7.46477 0
      vertex 15.1366 7.46477 0
      vertex 15.4179 8.06275 0
    endloop
  endfacet
  facet normal 0 0 -1
    outer loop
      vertex 27.3175 6.90678 0
      vertex 14.7825 6.90678 0
      vertex 15.1366 7.46477 0
    endloop
  endfacet
  facet normal 0 0 -1
    outer loop
      vertex 27.7388 6.39757 0
      vertex 14.3612 6.39757 0
      vertex 14.7825 6.90678 0
    endloop
  endfacet
  facet normal 0 0 -1
    outer loop
      vertex 0 0 0
      vertex 30.5889 4.83071 0
      vertex 31.2446 4.74788 0
    endloop
  endfacet
  facet normal -0 0 -1
    outer loop
      vertex 31.9054 4.74788 0
      vertex 0 0 0
      vertex 31.2446 4.74788 0
    endloop
  endfacet
  facet normal 0 0 -1
    outer loop
      vertex 28.2206 5.94517 0
      vertex 13.8794 5.94517 0
      vertex 14.3612 6.39757 0
    endloop
  endfacet
  facet normal 0 0 -1
    outer loop
      vertex 28.7552 5.55672 0
      vertex 13.3448 5.55672 0
      vertex 13.8794 5.94517 0
    endloop
  endfacet
  facet normal 0 0 -1
    outer loop
      vertex 29.3343 5.23835 0
      vertex 12.7657 5.23835 0
      vertex 13.3448 5.55672 0
    endloop
  endfacet
  facet normal 0 0 -1
    outer loop
      vertex 29.9488 4.99507 0
      vertex 12.1512 4.99507 0
      vertex 12.7657 5.23835 0
    endloop
  endfacet
  facet normal -0 0 -1
    outer loop
      vertex 30.5889 4.83071 0
      vertex 0 0 0
      vertex 11.5111 4.83071 0
    endloop
  endfacet
  facet normal 0 0 -1
    outer loop
      vertex 30.5889 4.83071 0
      vertex 11.5111 4.83071 0
      vertex 12.1512 4.99507 0
    endloop
  endfacet
  facet normal 0 0 -1
    outer loop
      vertex 11.5111 4.83071 0
      vertex 0 0 0
      vertex 10.8554 4.74788 0
    endloop
  endfacet
  facet normal -0 0 -1
    outer loop
      vertex 5.304 9.34043 0
      vertex 0 0 0
      vertex 5.2625 10 0
    endloop
  endfacet
  facet normal -0 0 -1
    outer loop
      vertex 5.42783 8.69127 0
      vertex 0 0 0
      vertex 5.304 9.34043 0
    endloop
  endfacet
  facet normal -0 0 -1
    outer loop
      vertex 5.63205 8.06275 0
      vertex 0 0 0
      vertex 5.42783 8.69127 0
    endloop
  endfacet
  facet normal -0 0 -1
    outer loop
      vertex 5.91344 7.46477 0
      vertex 0 0 0
      vertex 5.63205 8.06275 0
    endloop
  endfacet
  facet normal -0 0 -1
    outer loop
      vertex 6.26755 6.90678 0
      vertex 0 0 0
      vertex 5.91344 7.46477 0
    endloop
  endfacet
  facet normal -0 0 -1
    outer loop
      vertex 6.6888 6.39757 0
      vertex 0 0 0
      vertex 6.26755 6.90678 0
    endloop
  endfacet
  facet normal -0 0 -1
    outer loop
      vertex 7.17056 5.94517 0
      vertex 0 0 0
      vertex 6.6888 6.39757 0
    endloop
  endfacet
  facet normal -0 0 -1
    outer loop
      vertex 7.70521 5.55672 0
      vertex 0 0 0
      vertex 7.17056 5.94517 0
    endloop
  endfacet
  facet normal -0 0 -1
    outer loop
      vertex 8.28434 5.23835 0
      vertex 0 0 0
      vertex 7.70521 5.55672 0
    endloop
  endfacet
  facet normal -0 0 -1
    outer loop
      vertex 8.8988 4.99507 0
      vertex 0 0 0
      vertex 8.28434 5.23835 0
    endloop
  endfacet
  facet normal -0 0 -1
    outer loop
      vertex 9.53891 4.83071 0
      vertex 0 0 0
      vertex 8.8988 4.99507 0
    endloop
  endfacet
  facet normal -0 0 -1
    outer loop
      vertex 10.1946 4.74788 0
      vertex 0 0 0
      vertex 9.53891 4.83071 0
    endloop
  endfacet
  facet normal -0 0 -1
    outer loop
      vertex 10.8554 4.74788 0
      vertex 0 0 0
      vertex 10.1946 4.74788 0
    endloop
  endfacet
  facet normal 0 0 -1
    outer loop
      vertex 57.846 10.6596 0
      vertex 70 20 0
      vertex 57.8875 10 0
    endloop
  endfacet
  facet normal 0 0 -1
    outer loop
      vertex 57.7222 11.3087 0
      vertex 70 20 0
      vertex 57.846 10.6596 0
    endloop
  endfacet
  facet normal 0 0 -1
    outer loop
      vertex 57.5179 11.9373 0
      vertex 70 20 0
      vertex 57.7222 11.3087 0
    endloop
  endfacet
  facet normal 0 0 -1
    outer loop
      vertex 57.2366 12.5352 0
      vertex 70 20 0
      vertex 57.5179 11.9373 0
    endloop
  endfacet
  facet normal 0 0 -1
    outer loop
      vertex 56.8825 13.0932 0
      vertex 70 20 0
      vertex 57.2366 12.5352 0
    endloop
  endfacet
  facet normal 0 0 -1
    outer loop
      vertex 56.4612 13.6024 0
      vertex 70 20 0
      vertex 56.8825 13.0932 0
    endloop
  endfacet
  facet normal 0 0 -1
    outer loop
      vertex 55.9794 14.0548 0
      vertex 70 20 0
      vertex 56.4612 13.6024 0
    endloop
  endfacet
  facet normal 0 0 -1
    outer loop
      vertex 55.4448 14.4433 0
      vertex 70 20 0
      vertex 55.9794 14.0548 0
    endloop
  endfacet
  facet normal 0 0 -1
    outer loop
      vertex 54.8657 14.7617 0
      vertex 70 20 0
      vertex 55.4448 14.4433 0
    endloop
  endfacet
  facet normal 0 0 -1
    outer loop
      vertex 54.2512 15.0049 0
      vertex 70 20 0
      vertex 54.8657 14.7617 0
    endloop
  endfacet
  facet normal 0 0 -1
    outer loop
      vertex 53.6111 15.1693 0
      vertex 70 20 0
      vertex 54.2512 15.0049 0
    endloop
  endfacet
  facet normal 0 0 -1
    outer loop
      vertex 52.9554 15.2521 0
      vertex 70 20 0
      vertex 53.6111 15.1693 0
    endloop
  endfacet
  facet normal 0 0 -1
    outer loop
      vertex 52.2946 15.2521 0
      vertex 70 20 0
      vertex 52.9554 15.2521 0
    endloop
  endfacet
  facet normal 0 0 -1
    outer loop
      vertex 51.6389 15.1693 0
      vertex 70 20 0
      vertex 52.2946 15.2521 0
    endloop
  endfacet
  facet normal 0 0 -1
    outer loop
      vertex 32.5611 15.1693 0
      vertex 51.6389 15.1693 0
      vertex 50.9988 15.0049 0
    endloop
  endfacet
  facet normal 0 0 -1
    outer loop
      vertex 36.8375 10 0
      vertex 47.404 10.6596 0
      vertex 47.3625 10 0
    endloop
  endfacet
  facet normal 0 0 -1
    outer loop
      vertex 36.796 10.6596 0
      vertex 47.404 10.6596 0
      vertex 36.8375 10 0
    endloop
  endfacet
  facet normal 0 0 -1
    outer loop
      vertex 47.404 10.6596 0
      vertex 36.796 10.6596 0
      vertex 47.5278 11.3087 0
    endloop
  endfacet
  facet normal 0 0 -1
    outer loop
      vertex 36.6722 11.3087 0
      vertex 47.5278 11.3087 0
      vertex 36.796 10.6596 0
    endloop
  endfacet
  facet normal 0 0 -1
    outer loop
      vertex 47.5278 11.3087 0
      vertex 36.6722 11.3087 0
      vertex 47.7321 11.9373 0
    endloop
  endfacet
  facet normal 0 0 -1
    outer loop
      vertex 36.4679 11.9373 0
      vertex 47.7321 11.9373 0
      vertex 36.6722 11.3087 0
    endloop
  endfacet
  facet normal 0 0 -1
    outer loop
      vertex 47.7321 11.9373 0
      vertex 36.4679 11.9373 0
      vertex 48.0134 12.5352 0
    endloop
  endfacet
  facet normal 0 0 -1
    outer loop
      vertex 36.1866 12.5352 0
      vertex 48.0134 12.5352 0
      vertex 36.4679 11.9373 0
    endloop
  endfacet
  facet normal 0 0 -1
    outer loop
      vertex 48.0134 12.5352 0
      vertex 36.1866 12.5352 0
      vertex 48.3675 13.0932 0
    endloop
  endfacet
  facet normal 0 0 -1
    outer loop
      vertex 35.8325 13.0932 0
      vertex 48.3675 13.0932 0
      vertex 36.1866 12.5352 0
    endloop
  endfacet
  facet normal 0 0 -1
    outer loop
      vertex 48.3675 13.0932 0
      vertex 35.8325 13.0932 0
      vertex 48.7888 13.6024 0
    endloop
  endfacet
  facet normal 0 0 -1
    outer loop
      vertex 35.4112 13.6024 0
      vertex 48.7888 13.6024 0
      vertex 35.8325 13.0932 0
    endloop
  endfacet
  facet normal 0 0 -1
    outer loop
      vertex 48.7888 13.6024 0
      vertex 35.4112 13.6024 0
      vertex 49.2706 14.0548 0
    endloop
  endfacet
  facet normal 0 0 -1
    outer loop
      vertex 34.9294 14.0548 0
      vertex 49.2706 14.0548 0
      vertex 35.4112 13.6024 0
    endloop
  endfacet
  facet normal 0 0 -1
    outer loop
      vertex 49.2706 14.0548 0
      vertex 34.9294 14.0548 0
      vertex 49.8052 14.4433 0
    endloop
  endfacet
  facet normal 0 0 -1
    outer loop
      vertex 34.3948 14.4433 0
      vertex 49.8052 14.4433 0
      vertex 34.9294 14.0548 0
    endloop
  endfacet
  facet normal 0 0 -1
    outer loop
      vertex 49.8052 14.4433 0
      vertex 34.3948 14.4433 0
      vertex 50.3843 14.7617 0
    endloop
  endfacet
  facet normal 0 0 -1
    outer loop
      vertex 33.8157 14.7617 0
      vertex 50.3843 14.7617 0
      vertex 34.3948 14.4433 0
    endloop
  endfacet
  facet normal 0 0 -1
    outer loop
      vertex 50.3843 14.7617 0
      vertex 33.8157 14.7617 0
      vertex 50.9988 15.0049 0
    endloop
  endfacet
  facet normal 0 0 -1
    outer loop
      vertex 33.2012 15.0049 0
      vertex 50.9988 15.0049 0
      vertex 33.8157 14.7617 0
    endloop
  endfacet
  facet normal 0 0 -1
    outer loop
      vertex 32.5611 15.1693 0
      vertex 50.9988 15.0049 0
      vertex 33.2012 15.0049 0
    endloop
  endfacet
  facet normal 0 0 -1
    outer loop
      vertex 51.6389 15.1693 0
      vertex 32.5611 15.1693 0
      vertex 70 20 0
    endloop
  endfacet
  facet normal 0 0 -1
    outer loop
      vertex 31.9054 15.2521 0
      vertex 70 20 0
      vertex 32.5611 15.1693 0
    endloop
  endfacet
  facet normal 0 0 -1
    outer loop
      vertex 0 20 0
      vertex 31.9054 15.2521 0
      vertex 31.2446 15.2521 0
    endloop
  endfacet
  facet normal 0 0 -1
    outer loop
      vertex 15.7875 10 0
      vertex 26.354 10.6596 0
      vertex 26.3125 10 0
    endloop
  endfacet
  facet normal 0 0 -1
    outer loop
      vertex 15.746 10.6596 0
      vertex 26.354 10.6596 0
      vertex 15.7875 10 0
    endloop
  endfacet
  facet normal 0 0 -1
    outer loop
      vertex 26.354 10.6596 0
      vertex 15.746 10.6596 0
      vertex 26.4778 11.3087 0
    endloop
  endfacet
  facet normal 0 0 -1
    outer loop
      vertex 15.6222 11.3087 0
      vertex 26.4778 11.3087 0
      vertex 15.746 10.6596 0
    endloop
  endfacet
  facet normal 0 0 -1
    outer loop
      vertex 26.4778 11.3087 0
      vertex 15.6222 11.3087 0
      vertex 26.6821 11.9373 0
    endloop
  endfacet
  facet normal 0 0 -1
    outer loop
      vertex 15.4179 11.9373 0
      vertex 26.6821 11.9373 0
      vertex 15.6222 11.3087 0
    endloop
  endfacet
  facet normal 0 0 -1
    outer loop
      vertex 26.6821 11.9373 0
      vertex 15.4179 11.9373 0
      vertex 26.9634 12.5352 0
    endloop
  endfacet
  facet normal 0 0 -1
    outer loop
      vertex 15.1366 12.5352 0
      vertex 26.9634 12.5352 0
      vertex 15.4179 11.9373 0
    endloop
  endfacet
  facet normal 0 0 -1
    outer loop
      vertex 26.9634 12.5352 0
      vertex 15.1366 12.5352 0
      vertex 27.3175 13.0932 0
    endloop
  endfacet
  facet normal 0 0 -1
    outer loop
      vertex 14.7825 13.0932 0
      vertex 27.3175 13.0932 0
      vertex 15.1366 12.5352 0
    endloop
  endfacet
  facet normal 0 0 -1
    outer loop
      vertex 27.3175 13.0932 0
      vertex 14.7825 13.0932 0
      vertex 27.7388 13.6024 0
    endloop
  endfacet
  facet normal 0 0 -1
    outer loop
      vertex 14.3612 13.6024 0
      vertex 27.7388 13.6024 0
      vertex 14.7825 13.0932 0
    endloop
  endfacet
  facet normal 0 0 -1
    outer loop
      vertex 27.7388 13.6024 0
      vertex 14.3612 13.6024 0
      vertex 28.2206 14.0548 0
    endloop
  endfacet
  facet normal 0 0 -1
    outer loop
      vertex 13.8794 14.0548 0
      vertex 28.2206 14.0548 0
      vertex 14.3612 13.6024 0
    endloop
  endfacet
  facet normal 0 0 -1
    outer loop
      vertex 28.2206 14.0548 0
      vertex 13.8794 14.0548 0
      vertex 28.7552 14.4433 0
    endloop
  endfacet
  facet normal 0 0 -1
    outer loop
      vertex 13.3448 14.4433 0
      vertex 28.7552 14.4433 0
      vertex 13.8794 14.0548 0
    endloop
  endfacet
  facet normal 0 0 -1
    outer loop
      vertex 28.7552 14.4433 0
      vertex 13.3448 14.4433 0
      vertex 29.3343 14.7617 0
    endloop
  endfacet
  facet normal 0 0 -1
    outer loop
      vertex 12.7657 14.7617 0
      vertex 29.3343 14.7617 0
      vertex 13.3448 14.4433 0
    endloop
  endfacet
  facet normal 0 0 -1
    outer loop
      vertex 29.3343 14.7617 0
      vertex 12.7657 14.7617 0
      vertex 29.9488 15.0049 0
    endloop
  endfacet
  facet normal 0 0 -1
    outer loop
      vertex 12.1512 15.0049 0
      vertex 29.9488 15.0049 0
      vertex 12.7657 14.7617 0
    endloop
  endfacet
  facet normal 0 0 -1
    outer loop
      vertex 29.9488 15.0049 0
      vertex 12.1512 15.0049 0
      vertex 30.5889 15.1693 0
    endloop
  endfacet
  facet normal 0 0 -1
    outer loop
      vertex 11.5111 15.1693 0
      vertex 30.5889 15.1693 0
      vertex 12.1512 15.0049 0
    endloop
  endfacet
  facet normal 0 0 -1
    outer loop
      vertex 0 20 0
      vertex 30.5889 15.1693 0
      vertex 11.5111 15.1693 0
    endloop
  endfacet
  facet normal 0 0 -1
    outer loop
      vertex 30.5889 15.1693 0
      vertex 0 20 0
      vertex 31.2446 15.2521 0
    endloop
  endfacet
  facet normal 0 0 -1
    outer loop
      vertex 0 20 0
      vertex 11.5111 15.1693 0
      vertex 10.8554 15.2521 0
    endloop
  endfacet
  facet normal 0 0 -1
    outer loop
      vertex 0 20 0
      vertex 10.8554 15.2521 0
      vertex 10.1946 15.2521 0
    endloop
  endfacet
  facet normal 0 0 -1
    outer loop
      vertex 0 20 0
      vertex 5.2625 10 0
      vertex 0 0 0
    endloop
  endfacet
  facet normal 0 0 -1
    outer loop
      vertex 5.2625 10 0
      vertex 0 20 0
      vertex 5.304 10.6596 0
    endloop
  endfacet
  facet normal 0 0 -1
    outer loop
      vertex 5.304 10.6596 0
      vertex 0 20 0
      vertex 5.42783 11.3087 0
    endloop
  endfacet
  facet normal 0 0 -1
    outer loop
      vertex 5.42783 11.3087 0
      vertex 0 20 0
      vertex 5.63205 11.9373 0
    endloop
  endfacet
  facet normal 0 0 -1
    outer loop
      vertex 31.9054 15.2521 0
      vertex 0 20 0
      vertex 70 20 0
    endloop
  endfacet
  facet normal 0 0 -1
    outer loop
      vertex 9.53891 15.1693 0
      vertex 0 20 0
      vertex 10.1946 15.2521 0
    endloop
  endfacet
  facet normal 0 0 -1
    outer loop
      vertex 8.8988 15.0049 0
      vertex 0 20 0
      vertex 9.53891 15.1693 0
    endloop
  endfacet
  facet normal 0 0 -1
    outer loop
      vertex 8.28434 14.7617 0
      vertex 0 20 0
      vertex 8.8988 15.0049 0
    endloop
  endfacet
  facet normal 0 0 -1
    outer loop
      vertex 7.70521 14.4433 0
      vertex 0 20 0
      vertex 8.28434 14.7617 0
    endloop
  endfacet
  facet normal 0 0 -1
    outer loop
      vertex 7.17056 14.0548 0
      vertex 0 20 0
      vertex 7.70521 14.4433 0
    endloop
  endfacet
  facet normal 0 0 -1
    outer loop
      vertex 6.6888 13.6024 0
      vertex 0 20 0
      vertex 7.17056 14.0548 0
    endloop
  endfacet
  facet normal 0 0 -1
    outer loop
      vertex 6.26755 13.0932 0
      vertex 0 20 0
      vertex 6.6888 13.6024 0
    endloop
  endfacet
  facet normal 0 0 -1
    outer loop
      vertex 5.91344 12.5352 0
      vertex 0 20 0
      vertex 6.26755 13.0932 0
    endloop
  endfacet
  facet normal 0 0 -1
    outer loop
      vertex 5.63205 11.9373 0
      vertex 0 20 0
      vertex 5.91344 12.5352 0
    endloop
  endfacet
  facet normal -0.125327 0.992115 0
    outer loop
      vertex 32.5611 4.83071 0
      vertex 31.9054 4.74788 3
      vertex 32.5611 4.83071 3
    endloop
  endfacet
  facet normal -0.125327 0.992115 0
    outer loop
      vertex 31.9054 4.74788 3
      vertex 32.5611 4.83071 0
      vertex 31.9054 4.74788 0
    endloop
  endfacet
  facet normal -0.248704 0.968579 0
    outer loop
      vertex 33.2012 4.99507 0
      vertex 32.5611 4.83071 3
      vertex 33.2012 4.99507 3
    endloop
  endfacet
  facet normal -0.248704 0.968579 0
    outer loop
      vertex 32.5611 4.83071 3
      vertex 33.2012 4.99507 0
      vertex 32.5611 4.83071 0
    endloop
  endfacet
  facet normal 0.982294 -0.187349 0
    outer loop
      vertex 26.354 10.6596 3
      vertex 26.4778 11.3087 0
      vertex 26.4778 11.3087 3
    endloop
  endfacet
  facet normal 0.982294 -0.187349 0
    outer loop
      vertex 26.4778 11.3087 0
      vertex 26.354 10.6596 3
      vertex 26.354 10.6596 0
    endloop
  endfacet
  facet normal -0.368101 0.929786 0
    outer loop
      vertex 33.8157 5.23835 0
      vertex 33.2012 4.99507 3
      vertex 33.8157 5.23835 3
    endloop
  endfacet
  facet normal -0.368101 0.929786 0
    outer loop
      vertex 33.2012 4.99507 3
      vertex 33.8157 5.23835 0
      vertex 33.2012 4.99507 0
    endloop
  endfacet
  facet normal -0.770474 -0.637472 0
    outer loop
      vertex 35.8325 13.0932 0
      vertex 35.4112 13.6024 3
      vertex 35.4112 13.6024 0
    endloop
  endfacet
  facet normal -0.770474 -0.637472 0
    outer loop
      vertex 35.4112 13.6024 3
      vertex 35.8325 13.0932 0
      vertex 35.8325 13.0932 3
    endloop
  endfacet
  facet normal -0.77048 0.637464 0
    outer loop
      vertex 35.4112 6.39757 0
      vertex 35.8325 6.90678 3
      vertex 35.8325 6.90678 0
    endloop
  endfacet
  facet normal -0.77048 0.637464 0
    outer loop
      vertex 35.8325 6.90678 3
      vertex 35.4112 6.39757 0
      vertex 35.4112 6.39757 3
    endloop
  endfacet
  facet normal 0.998026 0.0627956 0
    outer loop
      vertex 26.354 9.34043 3
      vertex 26.3125 10 0
      vertex 26.3125 10 3
    endloop
  endfacet
  facet normal 0.998026 0.0627956 0
    outer loop
      vertex 26.3125 10 0
      vertex 26.354 9.34043 3
      vertex 26.354 9.34043 0
    endloop
  endfacet
  facet normal 0.982297 0.187332 0
    outer loop
      vertex 26.4778 8.69127 3
      vertex 26.354 9.34043 0
      vertex 26.354 9.34043 3
    endloop
  endfacet
  facet normal 0.982297 0.187332 0
    outer loop
      vertex 26.354 9.34043 0
      vertex 26.4778 8.69127 3
      vertex 26.4778 8.69127 0
    endloop
  endfacet
  facet normal 0.125282 -0.992121 0
    outer loop
      vertex 30.5889 15.1693 0
      vertex 31.2446 15.2521 3
      vertex 30.5889 15.1693 3
    endloop
  endfacet
  facet normal 0.125282 -0.992121 0
    outer loop
      vertex 31.2446 15.2521 3
      vertex 30.5889 15.1693 0
      vertex 31.2446 15.2521 0
    endloop
  endfacet
  facet normal -0.982294 -0.187349 0
    outer loop
      vertex 36.796 10.6596 0
      vertex 36.6722 11.3087 3
      vertex 36.6722 11.3087 0
    endloop
  endfacet
  facet normal -0.982294 -0.187349 0
    outer loop
      vertex 36.6722 11.3087 3
      vertex 36.796 10.6596 0
      vertex 36.796 10.6596 3
    endloop
  endfacet
  facet normal -0.125282 -0.992121 0
    outer loop
      vertex 31.9054 15.2521 0
      vertex 32.5611 15.1693 3
      vertex 31.9054 15.2521 3
    endloop
  endfacet
  facet normal -0.125282 -0.992121 -0
    outer loop
      vertex 32.5611 15.1693 3
      vertex 31.9054 15.2521 0
      vertex 32.5611 15.1693 0
    endloop
  endfacet
  facet normal 0.904856 -0.425717 0
    outer loop
      vertex 26.6821 11.9373 3
      vertex 26.9634 12.5352 0
      vertex 26.9634 12.5352 3
    endloop
  endfacet
  facet normal 0.904856 -0.425717 0
    outer loop
      vertex 26.9634 12.5352 0
      vertex 26.6821 11.9373 3
      vertex 26.6821 11.9373 0
    endloop
  endfacet
  facet normal 0.84434 -0.535808 0
    outer loop
      vertex 26.9634 12.5352 3
      vertex 27.3175 13.0932 0
      vertex 27.3175 13.0932 3
    endloop
  endfacet
  facet normal 0.84434 -0.535808 0
    outer loop
      vertex 27.3175 13.0932 0
      vertex 26.9634 12.5352 3
      vertex 26.9634 12.5352 0
    endloop
  endfacet
  facet normal -0.951032 -0.309093 0
    outer loop
      vertex 36.6722 11.3087 0
      vertex 36.4679 11.9373 3
      vertex 36.4679 11.9373 0
    endloop
  endfacet
  facet normal -0.951032 -0.309093 0
    outer loop
      vertex 36.4679 11.9373 3
      vertex 36.6722 11.3087 0
      vertex 36.6722 11.3087 3
    endloop
  endfacet
  facet normal -0.998027 -0.0627928 0
    outer loop
      vertex 36.8375 10 0
      vertex 36.796 10.6596 3
      vertex 36.796 10.6596 0
    endloop
  endfacet
  facet normal -0.998027 -0.0627928 0
    outer loop
      vertex 36.796 10.6596 3
      vertex 36.8375 10 0
      vertex 36.8375 10 3
    endloop
  endfacet
  facet normal 0.684515 -0.728999 0
    outer loop
      vertex 27.7388 13.6024 0
      vertex 28.2206 14.0548 3
      vertex 27.7388 13.6024 3
    endloop
  endfacet
  facet normal 0.684515 -0.728999 0
    outer loop
      vertex 28.2206 14.0548 3
      vertex 27.7388 13.6024 0
      vertex 28.2206 14.0548 0
    endloop
  endfacet
  facet normal -0.684515 -0.728999 0
    outer loop
      vertex 34.9294 14.0548 0
      vertex 35.4112 13.6024 3
      vertex 34.9294 14.0548 3
    endloop
  endfacet
  facet normal -0.684515 -0.728999 -0
    outer loop
      vertex 35.4112 13.6024 3
      vertex 34.9294 14.0548 0
      vertex 35.4112 13.6024 0
    endloop
  endfacet
  facet normal -0.95102 0.309128 0
    outer loop
      vertex 36.4679 8.06275 0
      vertex 36.6722 8.69127 3
      vertex 36.6722 8.69127 0
    endloop
  endfacet
  facet normal -0.95102 0.309128 0
    outer loop
      vertex 36.6722 8.69127 3
      vertex 36.4679 8.06275 0
      vertex 36.4679 8.06275 3
    endloop
  endfacet
  facet normal -0.587875 -0.808952 0
    outer loop
      vertex 34.3948 14.4433 0
      vertex 34.9294 14.0548 3
      vertex 34.3948 14.4433 3
    endloop
  endfacet
  facet normal -0.587875 -0.808952 -0
    outer loop
      vertex 34.9294 14.0548 3
      vertex 34.3948 14.4433 0
      vertex 34.9294 14.0548 0
    endloop
  endfacet
  facet normal -0.998026 0.0627956 0
    outer loop
      vertex 36.796 9.34043 0
      vertex 36.8375 10 3
      vertex 36.8375 10 0
    endloop
  endfacet
  facet normal -0.998026 0.0627956 0
    outer loop
      vertex 36.8375 10 3
      vertex 36.796 9.34043 0
      vertex 36.796 9.34043 3
    endloop
  endfacet
  facet normal 0.95102 0.309128 0
    outer loop
      vertex 26.6821 8.06275 3
      vertex 26.4778 8.69127 0
      vertex 26.4778 8.69127 3
    endloop
  endfacet
  facet normal 0.95102 0.309128 0
    outer loop
      vertex 26.4778 8.69127 0
      vertex 26.6821 8.06275 3
      vertex 26.6821 8.06275 0
    endloop
  endfacet
  facet normal -0.982297 0.187332 0
    outer loop
      vertex 36.6722 8.69127 0
      vertex 36.796 9.34043 3
      vertex 36.796 9.34043 0
    endloop
  endfacet
  facet normal -0.982297 0.187332 0
    outer loop
      vertex 36.796 9.34043 3
      vertex 36.6722 8.69127 0
      vertex 36.6722 8.69127 3
    endloop
  endfacet
  facet normal 0.368101 0.929786 -0
    outer loop
      vertex 29.9488 4.99507 0
      vertex 29.3343 5.23835 3
      vertex 29.9488 4.99507 3
    endloop
  endfacet
  facet normal 0.368101 0.929786 0
    outer loop
      vertex 29.3343 5.23835 3
      vertex 29.9488 4.99507 0
      vertex 29.3343 5.23835 0
    endloop
  endfacet
  facet normal 0 1 -0
    outer loop
      vertex 31.9054 4.74788 0
      vertex 31.2446 4.74788 3
      vertex 31.9054 4.74788 3
    endloop
  endfacet
  facet normal 0 1 0
    outer loop
      vertex 31.2446 4.74788 3
      vertex 31.9054 4.74788 0
      vertex 31.2446 4.74788 0
    endloop
  endfacet
  facet normal -0.84434 -0.535808 0
    outer loop
      vertex 36.1866 12.5352 0
      vertex 35.8325 13.0932 3
      vertex 35.8325 13.0932 0
    endloop
  endfacet
  facet normal -0.84434 -0.535808 0
    outer loop
      vertex 35.8325 13.0932 3
      vertex 36.1866 12.5352 0
      vertex 36.1866 12.5352 3
    endloop
  endfacet
  facet normal -0.367997 -0.929827 0
    outer loop
      vertex 33.2012 15.0049 0
      vertex 33.8157 14.7617 3
      vertex 33.2012 15.0049 3
    endloop
  endfacet
  facet normal -0.367997 -0.929827 -0
    outer loop
      vertex 33.8157 14.7617 3
      vertex 33.2012 15.0049 0
      vertex 33.8157 14.7617 0
    endloop
  endfacet
  facet normal 0 -1 0
    outer loop
      vertex 31.2446 15.2521 0
      vertex 31.9054 15.2521 3
      vertex 31.2446 15.2521 3
    endloop
  endfacet
  facet normal 0 -1 -0
    outer loop
      vertex 31.9054 15.2521 3
      vertex 31.2446 15.2521 0
      vertex 31.9054 15.2521 0
    endloop
  endfacet
  facet normal -0.248761 -0.968565 0
    outer loop
      vertex 32.5611 15.1693 0
      vertex 33.2012 15.0049 3
      vertex 32.5611 15.1693 3
    endloop
  endfacet
  facet normal -0.248761 -0.968565 -0
    outer loop
      vertex 33.2012 15.0049 3
      vertex 32.5611 15.1693 0
      vertex 33.2012 15.0049 0
    endloop
  endfacet
  facet normal 0.951032 -0.309093 0
    outer loop
      vertex 26.4778 11.3087 3
      vertex 26.6821 11.9373 0
      vertex 26.6821 11.9373 3
    endloop
  endfacet
  facet normal 0.951032 -0.309093 0
    outer loop
      vertex 26.6821 11.9373 0
      vertex 26.4778 11.3087 3
      vertex 26.4778 11.3087 0
    endloop
  endfacet
  facet normal 0.684515 0.728999 -0
    outer loop
      vertex 28.2206 5.94517 0
      vertex 27.7388 6.39757 3
      vertex 28.2206 5.94517 3
    endloop
  endfacet
  facet normal 0.684515 0.728999 0
    outer loop
      vertex 27.7388 6.39757 3
      vertex 28.2206 5.94517 0
      vertex 27.7388 6.39757 0
    endloop
  endfacet
  facet normal 0.367997 -0.929827 0
    outer loop
      vertex 29.3343 14.7617 0
      vertex 29.9488 15.0049 3
      vertex 29.3343 14.7617 3
    endloop
  endfacet
  facet normal 0.367997 -0.929827 0
    outer loop
      vertex 29.9488 15.0049 3
      vertex 29.3343 14.7617 0
      vertex 29.9488 15.0049 0
    endloop
  endfacet
  facet normal 0.248761 -0.968565 0
    outer loop
      vertex 29.9488 15.0049 0
      vertex 30.5889 15.1693 3
      vertex 29.9488 15.0049 3
    endloop
  endfacet
  facet normal 0.248761 -0.968565 0
    outer loop
      vertex 30.5889 15.1693 3
      vertex 29.9488 15.0049 0
      vertex 30.5889 15.1693 0
    endloop
  endfacet
  facet normal 0.844336 0.535815 0
    outer loop
      vertex 27.3175 6.90678 3
      vertex 26.9634 7.46477 0
      vertex 26.9634 7.46477 3
    endloop
  endfacet
  facet normal 0.844336 0.535815 0
    outer loop
      vertex 26.9634 7.46477 0
      vertex 27.3175 6.90678 3
      vertex 27.3175 6.90678 0
    endloop
  endfacet
  facet normal 0.998027 -0.0627928 0
    outer loop
      vertex 26.3125 10 3
      vertex 26.354 10.6596 0
      vertex 26.354 10.6596 3
    endloop
  endfacet
  facet normal 0.998027 -0.0627928 0
    outer loop
      vertex 26.354 10.6596 0
      vertex 26.3125 10 3
      vertex 26.3125 10 0
    endloop
  endfacet
  facet normal 0.904878 0.42567 0
    outer loop
      vertex 26.9634 7.46477 3
      vertex 26.6821 8.06275 0
      vertex 26.6821 8.06275 3
    endloop
  endfacet
  facet normal 0.904878 0.42567 0
    outer loop
      vertex 26.6821 8.06275 0
      vertex 26.9634 7.46477 3
      vertex 26.9634 7.46477 0
    endloop
  endfacet
  facet normal -0.684515 0.728999 0
    outer loop
      vertex 35.4112 6.39757 0
      vertex 34.9294 5.94517 3
      vertex 35.4112 6.39757 3
    endloop
  endfacet
  facet normal -0.684515 0.728999 0
    outer loop
      vertex 34.9294 5.94517 3
      vertex 35.4112 6.39757 0
      vertex 34.9294 5.94517 0
    endloop
  endfacet
  facet normal -0.481797 -0.876283 0
    outer loop
      vertex 33.8157 14.7617 0
      vertex 34.3948 14.4433 3
      vertex 33.8157 14.7617 3
    endloop
  endfacet
  facet normal -0.481797 -0.876283 -0
    outer loop
      vertex 34.3948 14.4433 3
      vertex 33.8157 14.7617 0
      vertex 34.3948 14.4433 0
    endloop
  endfacet
  facet normal -0.904856 -0.425717 0
    outer loop
      vertex 36.4679 11.9373 0
      vertex 36.1866 12.5352 3
      vertex 36.1866 12.5352 0
    endloop
  endfacet
  facet normal -0.904856 -0.425717 0
    outer loop
      vertex 36.1866 12.5352 3
      vertex 36.4679 11.9373 0
      vertex 36.4679 11.9373 3
    endloop
  endfacet
  facet normal -0.481762 0.876302 0
    outer loop
      vertex 34.3948 5.55672 0
      vertex 33.8157 5.23835 3
      vertex 34.3948 5.55672 3
    endloop
  endfacet
  facet normal -0.481762 0.876302 0
    outer loop
      vertex 33.8157 5.23835 3
      vertex 34.3948 5.55672 0
      vertex 33.8157 5.23835 0
    endloop
  endfacet
  facet normal 0.481762 0.876302 -0
    outer loop
      vertex 29.3343 5.23835 0
      vertex 28.7552 5.55672 3
      vertex 29.3343 5.23835 3
    endloop
  endfacet
  facet normal 0.481762 0.876302 0
    outer loop
      vertex 28.7552 5.55672 3
      vertex 29.3343 5.23835 0
      vertex 28.7552 5.55672 0
    endloop
  endfacet
  facet normal -0.904878 0.42567 0
    outer loop
      vertex 36.1866 7.46477 0
      vertex 36.4679 8.06275 3
      vertex 36.4679 8.06275 0
    endloop
  endfacet
  facet normal -0.904878 0.42567 0
    outer loop
      vertex 36.4679 8.06275 3
      vertex 36.1866 7.46477 0
      vertex 36.1866 7.46477 3
    endloop
  endfacet
  facet normal -0.844336 0.535815 0
    outer loop
      vertex 35.8325 6.90678 0
      vertex 36.1866 7.46477 3
      vertex 36.1866 7.46477 0
    endloop
  endfacet
  facet normal -0.844336 0.535815 0
    outer loop
      vertex 36.1866 7.46477 3
      vertex 35.8325 6.90678 0
      vertex 35.8325 6.90678 3
    endloop
  endfacet
  facet normal -0.587825 0.808988 0
    outer loop
      vertex 34.9294 5.94517 0
      vertex 34.3948 5.55672 3
      vertex 34.9294 5.94517 3
    endloop
  endfacet
  facet normal -0.587825 0.808988 0
    outer loop
      vertex 34.3948 5.55672 3
      vertex 34.9294 5.94517 0
      vertex 34.3948 5.55672 0
    endloop
  endfacet
  facet normal 0.125327 0.992115 -0
    outer loop
      vertex 31.2446 4.74788 0
      vertex 30.5889 4.83071 3
      vertex 31.2446 4.74788 3
    endloop
  endfacet
  facet normal 0.125327 0.992115 0
    outer loop
      vertex 30.5889 4.83071 3
      vertex 31.2446 4.74788 0
      vertex 30.5889 4.83071 0
    endloop
  endfacet
  facet normal 0.587825 0.808988 -0
    outer loop
      vertex 28.7552 5.55672 0
      vertex 28.2206 5.94517 3
      vertex 28.7552 5.55672 3
    endloop
  endfacet
  facet normal 0.587825 0.808988 0
    outer loop
      vertex 28.2206 5.94517 3
      vertex 28.7552 5.55672 0
      vertex 28.2206 5.94517 0
    endloop
  endfacet
  facet normal 0.77048 0.637464 0
    outer loop
      vertex 27.7388 6.39757 3
      vertex 27.3175 6.90678 0
      vertex 27.3175 6.90678 3
    endloop
  endfacet
  facet normal 0.77048 0.637464 0
    outer loop
      vertex 27.3175 6.90678 0
      vertex 27.7388 6.39757 3
      vertex 27.7388 6.39757 0
    endloop
  endfacet
  facet normal 0.481797 -0.876283 0
    outer loop
      vertex 28.7552 14.4433 0
      vertex 29.3343 14.7617 3
      vertex 28.7552 14.4433 3
    endloop
  endfacet
  facet normal 0.481797 -0.876283 0
    outer loop
      vertex 29.3343 14.7617 3
      vertex 28.7552 14.4433 0
      vertex 29.3343 14.7617 0
    endloop
  endfacet
  facet normal 0.587875 -0.808952 0
    outer loop
      vertex 28.2206 14.0548 0
      vertex 28.7552 14.4433 3
      vertex 28.2206 14.0548 3
    endloop
  endfacet
  facet normal 0.587875 -0.808952 0
    outer loop
      vertex 28.7552 14.4433 3
      vertex 28.2206 14.0548 0
      vertex 28.7552 14.4433 0
    endloop
  endfacet
  facet normal 0.248704 0.968579 -0
    outer loop
      vertex 30.5889 4.83071 0
      vertex 29.9488 4.99507 3
      vertex 30.5889 4.83071 3
    endloop
  endfacet
  facet normal 0.248704 0.968579 0
    outer loop
      vertex 29.9488 4.99507 3
      vertex 30.5889 4.83071 0
      vertex 29.9488 4.99507 0
    endloop
  endfacet
  facet normal 0.770474 -0.637472 0
    outer loop
      vertex 27.3175 13.0932 3
      vertex 27.7388 13.6024 0
      vertex 27.7388 13.6024 3
    endloop
  endfacet
  facet normal 0.770474 -0.637472 0
    outer loop
      vertex 27.7388 13.6024 0
      vertex 27.3175 13.0932 3
      vertex 27.3175 13.0932 0
    endloop
  endfacet
  facet normal -0.84434 -0.535808 0
    outer loop
      vertex 57.2366 12.5352 0
      vertex 56.8825 13.0932 3
      vertex 56.8825 13.0932 0
    endloop
  endfacet
  facet normal -0.84434 -0.535808 0
    outer loop
      vertex 56.8825 13.0932 3
      vertex 57.2366 12.5352 0
      vertex 57.2366 12.5352 3
    endloop
  endfacet
  facet normal -0.587875 -0.808952 0
    outer loop
      vertex 55.4448 14.4433 0
      vertex 55.9794 14.0548 3
      vertex 55.4448 14.4433 3
    endloop
  endfacet
  facet normal -0.587875 -0.808952 -0
    outer loop
      vertex 55.9794 14.0548 3
      vertex 55.4448 14.4433 0
      vertex 55.9794 14.0548 0
    endloop
  endfacet
  facet normal -0.481797 -0.876283 0
    outer loop
      vertex 54.8657 14.7617 0
      vertex 55.4448 14.4433 3
      vertex 54.8657 14.7617 3
    endloop
  endfacet
  facet normal -0.481797 -0.876283 -0
    outer loop
      vertex 55.4448 14.4433 3
      vertex 54.8657 14.7617 0
      vertex 55.4448 14.4433 0
    endloop
  endfacet
  facet normal 0.770474 -0.637472 0
    outer loop
      vertex 48.3675 13.0932 3
      vertex 48.7888 13.6024 0
      vertex 48.7888 13.6024 3
    endloop
  endfacet
  facet normal 0.770474 -0.637472 0
    outer loop
      vertex 48.7888 13.6024 0
      vertex 48.3675 13.0932 3
      vertex 48.3675 13.0932 0
    endloop
  endfacet
  facet normal -0.904856 -0.425717 0
    outer loop
      vertex 57.5179 11.9373 0
      vertex 57.2366 12.5352 3
      vertex 57.2366 12.5352 0
    endloop
  endfacet
  facet normal -0.904856 -0.425717 0
    outer loop
      vertex 57.2366 12.5352 3
      vertex 57.5179 11.9373 0
      vertex 57.5179 11.9373 3
    endloop
  endfacet
  facet normal 0.998027 -0.0627928 0
    outer loop
      vertex 47.3625 10 3
      vertex 47.404 10.6596 0
      vertex 47.404 10.6596 3
    endloop
  endfacet
  facet normal 0.998027 -0.0627928 0
    outer loop
      vertex 47.404 10.6596 0
      vertex 47.3625 10 3
      vertex 47.3625 10 0
    endloop
  endfacet
  facet normal -0.248704 0.968579 0
    outer loop
      vertex 54.2512 4.99507 0
      vertex 53.6111 4.83071 3
      vertex 54.2512 4.99507 3
    endloop
  endfacet
  facet normal -0.248704 0.968579 0
    outer loop
      vertex 53.6111 4.83071 3
      vertex 54.2512 4.99507 0
      vertex 53.6111 4.83071 0
    endloop
  endfacet
  facet normal 0.125327 0.992115 -0
    outer loop
      vertex 52.2946 4.74788 0
      vertex 51.6389 4.83071 3
      vertex 52.2946 4.74788 3
    endloop
  endfacet
  facet normal 0.125327 0.992115 0
    outer loop
      vertex 51.6389 4.83071 3
      vertex 52.2946 4.74788 0
      vertex 51.6389 4.83071 0
    endloop
  endfacet
  facet normal -0.684515 0.728999 0
    outer loop
      vertex 56.4612 6.39757 0
      vertex 55.9794 5.94517 3
      vertex 56.4612 6.39757 3
    endloop
  endfacet
  facet normal -0.684515 0.728999 0
    outer loop
      vertex 55.9794 5.94517 3
      vertex 56.4612 6.39757 0
      vertex 55.9794 5.94517 0
    endloop
  endfacet
  facet normal 0 -1 0
    outer loop
      vertex 52.2946 15.2521 0
      vertex 52.9554 15.2521 3
      vertex 52.2946 15.2521 3
    endloop
  endfacet
  facet normal 0 -1 -0
    outer loop
      vertex 52.9554 15.2521 3
      vertex 52.2946 15.2521 0
      vertex 52.9554 15.2521 0
    endloop
  endfacet
  facet normal -0.904878 0.42567 0
    outer loop
      vertex 57.2366 7.46477 0
      vertex 57.5179 8.06275 3
      vertex 57.5179 8.06275 0
    endloop
  endfacet
  facet normal -0.904878 0.42567 0
    outer loop
      vertex 57.5179 8.06275 3
      vertex 57.2366 7.46477 0
      vertex 57.2366 7.46477 3
    endloop
  endfacet
  facet normal 0.125282 -0.992121 0
    outer loop
      vertex 51.6389 15.1693 0
      vertex 52.2946 15.2521 3
      vertex 51.6389 15.1693 3
    endloop
  endfacet
  facet normal 0.125282 -0.992121 0
    outer loop
      vertex 52.2946 15.2521 3
      vertex 51.6389 15.1693 0
      vertex 52.2946 15.2521 0
    endloop
  endfacet
  facet normal 0.904878 0.42567 0
    outer loop
      vertex 48.0134 7.46477 3
      vertex 47.7321 8.06275 0
      vertex 47.7321 8.06275 3
    endloop
  endfacet
  facet normal 0.904878 0.42567 0
    outer loop
      vertex 47.7321 8.06275 0
      vertex 48.0134 7.46477 3
      vertex 48.0134 7.46477 0
    endloop
  endfacet
  facet normal 0.951032 -0.309093 0
    outer loop
      vertex 47.5278 11.3087 3
      vertex 47.7321 11.9373 0
      vertex 47.7321 11.9373 3
    endloop
  endfacet
  facet normal 0.951032 -0.309093 0
    outer loop
      vertex 47.7321 11.9373 0
      vertex 47.5278 11.3087 3
      vertex 47.5278 11.3087 0
    endloop
  endfacet
  facet normal 0.248761 -0.968565 0
    outer loop
      vertex 50.9988 15.0049 0
      vertex 51.6389 15.1693 3
      vertex 50.9988 15.0049 3
    endloop
  endfacet
  facet normal 0.248761 -0.968565 0
    outer loop
      vertex 51.6389 15.1693 3
      vertex 50.9988 15.0049 0
      vertex 51.6389 15.1693 0
    endloop
  endfacet
  facet normal -0.481762 0.876302 0
    outer loop
      vertex 55.4448 5.55672 0
      vertex 54.8657 5.23835 3
      vertex 55.4448 5.55672 3
    endloop
  endfacet
  facet normal -0.481762 0.876302 0
    outer loop
      vertex 54.8657 5.23835 3
      vertex 55.4448 5.55672 0
      vertex 54.8657 5.23835 0
    endloop
  endfacet
  facet normal -0.982294 -0.187349 0
    outer loop
      vertex 57.846 10.6596 0
      vertex 57.7222 11.3087 3
      vertex 57.7222 11.3087 0
    endloop
  endfacet
  facet normal -0.982294 -0.187349 0
    outer loop
      vertex 57.7222 11.3087 3
      vertex 57.846 10.6596 0
      vertex 57.846 10.6596 3
    endloop
  endfacet
  facet normal -0.770474 -0.637472 0
    outer loop
      vertex 56.8825 13.0932 0
      vertex 56.4612 13.6024 3
      vertex 56.4612 13.6024 0
    endloop
  endfacet
  facet normal -0.770474 -0.637472 0
    outer loop
      vertex 56.4612 13.6024 3
      vertex 56.8825 13.0932 0
      vertex 56.8825 13.0932 3
    endloop
  endfacet
  facet normal -0.77048 0.637464 0
    outer loop
      vertex 56.4612 6.39757 0
      vertex 56.8825 6.90678 3
      vertex 56.8825 6.90678 0
    endloop
  endfacet
  facet normal -0.77048 0.637464 0
    outer loop
      vertex 56.8825 6.90678 3
      vertex 56.4612 6.39757 0
      vertex 56.4612 6.39757 3
    endloop
  endfacet
  facet normal -0.998027 -0.0627928 0
    outer loop
      vertex 57.8875 10 0
      vertex 57.846 10.6596 3
      vertex 57.846 10.6596 0
    endloop
  endfacet
  facet normal -0.998027 -0.0627928 0
    outer loop
      vertex 57.846 10.6596 3
      vertex 57.8875 10 0
      vertex 57.8875 10 3
    endloop
  endfacet
  facet normal 0.998026 0.0627956 0
    outer loop
      vertex 47.404 9.34043 3
      vertex 47.3625 10 0
      vertex 47.3625 10 3
    endloop
  endfacet
  facet normal 0.998026 0.0627956 0
    outer loop
      vertex 47.3625 10 0
      vertex 47.404 9.34043 3
      vertex 47.404 9.34043 0
    endloop
  endfacet
  facet normal 0 1 -0
    outer loop
      vertex 52.9554 4.74788 0
      vertex 52.2946 4.74788 3
      vertex 52.9554 4.74788 3
    endloop
  endfacet
  facet normal 0 1 0
    outer loop
      vertex 52.2946 4.74788 3
      vertex 52.9554 4.74788 0
      vertex 52.2946 4.74788 0
    endloop
  endfacet
  facet normal 0.684515 -0.728999 0
    outer loop
      vertex 48.7888 13.6024 0
      vertex 49.2706 14.0548 3
      vertex 48.7888 13.6024 3
    endloop
  endfacet
  facet normal 0.684515 -0.728999 0
    outer loop
      vertex 49.2706 14.0548 3
      vertex 48.7888 13.6024 0
      vertex 49.2706 14.0548 0
    endloop
  endfacet
  facet normal -0.998026 0.0627956 0
    outer loop
      vertex 57.846 9.34043 0
      vertex 57.8875 10 3
      vertex 57.8875 10 0
    endloop
  endfacet
  facet normal -0.998026 0.0627956 0
    outer loop
      vertex 57.8875 10 3
      vertex 57.846 9.34043 0
      vertex 57.846 9.34043 3
    endloop
  endfacet
  facet normal -0.844336 0.535815 0
    outer loop
      vertex 56.8825 6.90678 0
      vertex 57.2366 7.46477 3
      vertex 57.2366 7.46477 0
    endloop
  endfacet
  facet normal -0.844336 0.535815 0
    outer loop
      vertex 57.2366 7.46477 3
      vertex 56.8825 6.90678 0
      vertex 56.8825 6.90678 3
    endloop
  endfacet
  facet normal -0.982297 0.187332 0
    outer loop
      vertex 57.7222 8.69127 0
      vertex 57.846 9.34043 3
      vertex 57.846 9.34043 0
    endloop
  endfacet
  facet normal -0.982297 0.187332 0
    outer loop
      vertex 57.846 9.34043 3
      vertex 57.7222 8.69127 0
      vertex 57.7222 8.69127 3
    endloop
  endfacet
  facet normal 0.982294 -0.187349 0
    outer loop
      vertex 47.404 10.6596 3
      vertex 47.5278 11.3087 0
      vertex 47.5278 11.3087 3
    endloop
  endfacet
  facet normal 0.982294 -0.187349 0
    outer loop
      vertex 47.5278 11.3087 0
      vertex 47.404 10.6596 3
      vertex 47.404 10.6596 0
    endloop
  endfacet
  facet normal -0.951032 -0.309093 0
    outer loop
      vertex 57.7222 11.3087 0
      vertex 57.5179 11.9373 3
      vertex 57.5179 11.9373 0
    endloop
  endfacet
  facet normal -0.951032 -0.309093 0
    outer loop
      vertex 57.5179 11.9373 3
      vertex 57.7222 11.3087 0
      vertex 57.7222 11.3087 3
    endloop
  endfacet
  facet normal -0.368101 0.929786 0
    outer loop
      vertex 54.8657 5.23835 0
      vertex 54.2512 4.99507 3
      vertex 54.8657 5.23835 3
    endloop
  endfacet
  facet normal -0.368101 0.929786 0
    outer loop
      vertex 54.2512 4.99507 3
      vertex 54.8657 5.23835 0
      vertex 54.2512 4.99507 0
    endloop
  endfacet
  facet normal 0.84434 -0.535808 0
    outer loop
      vertex 48.0134 12.5352 3
      vertex 48.3675 13.0932 0
      vertex 48.3675 13.0932 3
    endloop
  endfacet
  facet normal 0.84434 -0.535808 0
    outer loop
      vertex 48.3675 13.0932 0
      vertex 48.0134 12.5352 3
      vertex 48.0134 12.5352 0
    endloop
  endfacet
  facet normal 0.684515 0.728999 -0
    outer loop
      vertex 49.2706 5.94517 0
      vertex 48.7888 6.39757 3
      vertex 49.2706 5.94517 3
    endloop
  endfacet
  facet normal 0.684515 0.728999 0
    outer loop
      vertex 48.7888 6.39757 3
      vertex 49.2706 5.94517 0
      vertex 48.7888 6.39757 0
    endloop
  endfacet
  facet normal -0.367997 -0.929827 0
    outer loop
      vertex 54.2512 15.0049 0
      vertex 54.8657 14.7617 3
      vertex 54.2512 15.0049 3
    endloop
  endfacet
  facet normal -0.367997 -0.929827 -0
    outer loop
      vertex 54.8657 14.7617 3
      vertex 54.2512 15.0049 0
      vertex 54.8657 14.7617 0
    endloop
  endfacet
  facet normal 0.367997 -0.929827 0
    outer loop
      vertex 50.3843 14.7617 0
      vertex 50.9988 15.0049 3
      vertex 50.3843 14.7617 3
    endloop
  endfacet
  facet normal 0.367997 -0.929827 0
    outer loop
      vertex 50.9988 15.0049 3
      vertex 50.3843 14.7617 0
      vertex 50.9988 15.0049 0
    endloop
  endfacet
  facet normal 0.368101 0.929786 -0
    outer loop
      vertex 50.9988 4.99507 0
      vertex 50.3843 5.23835 3
      vertex 50.9988 4.99507 3
    endloop
  endfacet
  facet normal 0.368101 0.929786 0
    outer loop
      vertex 50.3843 5.23835 3
      vertex 50.9988 4.99507 0
      vertex 50.3843 5.23835 0
    endloop
  endfacet
  facet normal 0.95102 0.309128 0
    outer loop
      vertex 47.7321 8.06275 3
      vertex 47.5278 8.69127 0
      vertex 47.5278 8.69127 3
    endloop
  endfacet
  facet normal 0.95102 0.309128 0
    outer loop
      vertex 47.5278 8.69127 0
      vertex 47.7321 8.06275 3
      vertex 47.7321 8.06275 0
    endloop
  endfacet
  facet normal 0.481797 -0.876283 0
    outer loop
      vertex 49.8052 14.4433 0
      vertex 50.3843 14.7617 3
      vertex 49.8052 14.4433 3
    endloop
  endfacet
  facet normal 0.481797 -0.876283 0
    outer loop
      vertex 50.3843 14.7617 3
      vertex 49.8052 14.4433 0
      vertex 50.3843 14.7617 0
    endloop
  endfacet
  facet normal -0.248761 -0.968565 0
    outer loop
      vertex 53.6111 15.1693 0
      vertex 54.2512 15.0049 3
      vertex 53.6111 15.1693 3
    endloop
  endfacet
  facet normal -0.248761 -0.968565 -0
    outer loop
      vertex 54.2512 15.0049 3
      vertex 53.6111 15.1693 0
      vertex 54.2512 15.0049 0
    endloop
  endfacet
  facet normal -0.125282 -0.992121 0
    outer loop
      vertex 52.9554 15.2521 0
      vertex 53.6111 15.1693 3
      vertex 52.9554 15.2521 3
    endloop
  endfacet
  facet normal -0.125282 -0.992121 -0
    outer loop
      vertex 53.6111 15.1693 3
      vertex 52.9554 15.2521 0
      vertex 53.6111 15.1693 0
    endloop
  endfacet
  facet normal 0.481762 0.876302 -0
    outer loop
      vertex 50.3843 5.23835 0
      vertex 49.8052 5.55672 3
      vertex 50.3843 5.23835 3
    endloop
  endfacet
  facet normal 0.481762 0.876302 0
    outer loop
      vertex 49.8052 5.55672 3
      vertex 50.3843 5.23835 0
      vertex 49.8052 5.55672 0
    endloop
  endfacet
  facet normal 0.844336 0.535815 0
    outer loop
      vertex 48.3675 6.90678 3
      vertex 48.0134 7.46477 0
      vertex 48.0134 7.46477 3
    endloop
  endfacet
  facet normal 0.844336 0.535815 0
    outer loop
      vertex 48.0134 7.46477 0
      vertex 48.3675 6.90678 3
      vertex 48.3675 6.90678 0
    endloop
  endfacet
  facet normal 0.982297 0.187332 0
    outer loop
      vertex 47.5278 8.69127 3
      vertex 47.404 9.34043 0
      vertex 47.404 9.34043 3
    endloop
  endfacet
  facet normal 0.982297 0.187332 0
    outer loop
      vertex 47.404 9.34043 0
      vertex 47.5278 8.69127 3
      vertex 47.5278 8.69127 0
    endloop
  endfacet
  facet normal -0.587825 0.808988 0
    outer loop
      vertex 55.9794 5.94517 0
      vertex 55.4448 5.55672 3
      vertex 55.9794 5.94517 3
    endloop
  endfacet
  facet normal -0.587825 0.808988 0
    outer loop
      vertex 55.4448 5.55672 3
      vertex 55.9794 5.94517 0
      vertex 55.4448 5.55672 0
    endloop
  endfacet
  facet normal -0.95102 0.309128 0
    outer loop
      vertex 57.5179 8.06275 0
      vertex 57.7222 8.69127 3
      vertex 57.7222 8.69127 0
    endloop
  endfacet
  facet normal -0.95102 0.309128 0
    outer loop
      vertex 57.7222 8.69127 3
      vertex 57.5179 8.06275 0
      vertex 57.5179 8.06275 3
    endloop
  endfacet
  facet normal 0.904856 -0.425717 0
    outer loop
      vertex 47.7321 11.9373 3
      vertex 48.0134 12.5352 0
      vertex 48.0134 12.5352 3
    endloop
  endfacet
  facet normal 0.904856 -0.425717 0
    outer loop
      vertex 48.0134 12.5352 0
      vertex 47.7321 11.9373 3
      vertex 47.7321 11.9373 0
    endloop
  endfacet
  facet normal -0.684515 -0.728999 0
    outer loop
      vertex 55.9794 14.0548 0
      vertex 56.4612 13.6024 3
      vertex 55.9794 14.0548 3
    endloop
  endfacet
  facet normal -0.684515 -0.728999 -0
    outer loop
      vertex 56.4612 13.6024 3
      vertex 55.9794 14.0548 0
      vertex 56.4612 13.6024 0
    endloop
  endfacet
  facet normal -0.125327 0.992115 0
    outer loop
      vertex 53.6111 4.83071 0
      vertex 52.9554 4.74788 3
      vertex 53.6111 4.83071 3
    endloop
  endfacet
  facet normal -0.125327 0.992115 0
    outer loop
      vertex 52.9554 4.74788 3
      vertex 53.6111 4.83071 0
      vertex 52.9554 4.74788 0
    endloop
  endfacet
  facet normal 0.77048 0.637464 0
    outer loop
      vertex 48.7888 6.39757 3
      vertex 48.3675 6.90678 0
      vertex 48.3675 6.90678 3
    endloop
  endfacet
  facet normal 0.77048 0.637464 0
    outer loop
      vertex 48.3675 6.90678 0
      vertex 48.7888 6.39757 3
      vertex 48.7888 6.39757 0
    endloop
  endfacet
  facet normal 0.587825 0.808988 -0
    outer loop
      vertex 49.8052 5.55672 0
      vertex 49.2706 5.94517 3
      vertex 49.8052 5.55672 3
    endloop
  endfacet
  facet normal 0.587825 0.808988 0
    outer loop
      vertex 49.2706 5.94517 3
      vertex 49.8052 5.55672 0
      vertex 49.2706 5.94517 0
    endloop
  endfacet
  facet normal 0.587875 -0.808952 0
    outer loop
      vertex 49.2706 14.0548 0
      vertex 49.8052 14.4433 3
      vertex 49.2706 14.0548 3
    endloop
  endfacet
  facet normal 0.587875 -0.808952 0
    outer loop
      vertex 49.8052 14.4433 3
      vertex 49.2706 14.0548 0
      vertex 49.8052 14.4433 0
    endloop
  endfacet
  facet normal 0.248704 0.968579 -0
    outer loop
      vertex 51.6389 4.83071 0
      vertex 50.9988 4.99507 3
      vertex 51.6389 4.83071 3
    endloop
  endfacet
  facet normal 0.248704 0.968579 0
    outer loop
      vertex 50.9988 4.99507 3
      vertex 51.6389 4.83071 0
      vertex 50.9988 4.99507 0
    endloop
  endfacet
  facet normal 1 -0 0
    outer loop
      vertex 70 0 3
      vertex 70 20 0
      vertex 70 20 3
    endloop
  endfacet
  facet normal 1 0 0
    outer loop
      vertex 70 20 0
      vertex 70 0 3
      vertex 70 0 0
    endloop
  endfacet
  facet normal 0 0 1
    outer loop
      vertex 70 20 3
      vertex 57.8875 10 3
      vertex 70 0 3
    endloop
  endfacet
  facet normal 0 0 1
    outer loop
      vertex 70 20 3
      vertex 57.846 10.6596 3
      vertex 57.8875 10 3
    endloop
  endfacet
  facet normal 0 0 1
    outer loop
      vertex 70 20 3
      vertex 57.7222 11.3087 3
      vertex 57.846 10.6596 3
    endloop
  endfacet
  facet normal 0 0 1
    outer loop
      vertex 70 20 3
      vertex 57.5179 11.9373 3
      vertex 57.7222 11.3087 3
    endloop
  endfacet
  facet normal 0 0 1
    outer loop
      vertex 70 20 3
      vertex 57.2366 12.5352 3
      vertex 57.5179 11.9373 3
    endloop
  endfacet
  facet normal 0 0 1
    outer loop
      vertex 70 20 3
      vertex 56.8825 13.0932 3
      vertex 57.2366 12.5352 3
    endloop
  endfacet
  facet normal 0 0 1
    outer loop
      vertex 70 20 3
      vertex 56.4612 13.6024 3
      vertex 56.8825 13.0932 3
    endloop
  endfacet
  facet normal 0 0 1
    outer loop
      vertex 70 20 3
      vertex 55.9794 14.0548 3
      vertex 56.4612 13.6024 3
    endloop
  endfacet
  facet normal 0 0 1
    outer loop
      vertex 70 20 3
      vertex 55.4448 14.4433 3
      vertex 55.9794 14.0548 3
    endloop
  endfacet
  facet normal 0 0 1
    outer loop
      vertex 70 20 3
      vertex 54.8657 14.7617 3
      vertex 55.4448 14.4433 3
    endloop
  endfacet
  facet normal 0 0 1
    outer loop
      vertex 70 20 3
      vertex 54.2512 15.0049 3
      vertex 54.8657 14.7617 3
    endloop
  endfacet
  facet normal 0 0 1
    outer loop
      vertex 70 20 3
      vertex 53.6111 15.1693 3
      vertex 54.2512 15.0049 3
    endloop
  endfacet
  facet normal 0 0 1
    outer loop
      vertex 70 20 3
      vertex 52.9554 15.2521 3
      vertex 53.6111 15.1693 3
    endloop
  endfacet
  facet normal 0 0 1
    outer loop
      vertex 70 20 3
      vertex 52.2946 15.2521 3
      vertex 52.9554 15.2521 3
    endloop
  endfacet
  facet normal 0 0 1
    outer loop
      vertex 70 20 3
      vertex 51.6389 15.1693 3
      vertex 52.2946 15.2521 3
    endloop
  endfacet
  facet normal 0 0 1
    outer loop
      vertex 32.5611 15.1693 3
      vertex 51.6389 15.1693 3
      vertex 70 20 3
    endloop
  endfacet
  facet normal 0 0 1
    outer loop
      vertex 47.404 10.6596 3
      vertex 36.8375 10 3
      vertex 47.3625 10 3
    endloop
  endfacet
  facet normal 0 0 1
    outer loop
      vertex 36.796 10.6596 3
      vertex 47.404 10.6596 3
      vertex 47.5278 11.3087 3
    endloop
  endfacet
  facet normal 0 0 1
    outer loop
      vertex 36.6722 11.3087 3
      vertex 47.5278 11.3087 3
      vertex 47.7321 11.9373 3
    endloop
  endfacet
  facet normal 0 0 1
    outer loop
      vertex 36.4679 11.9373 3
      vertex 47.7321 11.9373 3
      vertex 48.0134 12.5352 3
    endloop
  endfacet
  facet normal 0 0 1
    outer loop
      vertex 36.1866 12.5352 3
      vertex 48.0134 12.5352 3
      vertex 48.3675 13.0932 3
    endloop
  endfacet
  facet normal 0 0 1
    outer loop
      vertex 35.8325 13.0932 3
      vertex 48.3675 13.0932 3
      vertex 48.7888 13.6024 3
    endloop
  endfacet
  facet normal 0 0 1
    outer loop
      vertex 35.4112 13.6024 3
      vertex 48.7888 13.6024 3
      vertex 49.2706 14.0548 3
    endloop
  endfacet
  facet normal 0 0 1
    outer loop
      vertex 34.9294 14.0548 3
      vertex 49.2706 14.0548 3
      vertex 49.8052 14.4433 3
    endloop
  endfacet
  facet normal 0 0 1
    outer loop
      vertex 34.3948 14.4433 3
      vertex 49.8052 14.4433 3
      vertex 50.3843 14.7617 3
    endloop
  endfacet
  facet normal 0 0 1
    outer loop
      vertex 33.8157 14.7617 3
      vertex 50.3843 14.7617 3
      vertex 50.9988 15.0049 3
    endloop
  endfacet
  facet normal 0 0 1
    outer loop
      vertex 47.404 10.6596 3
      vertex 36.796 10.6596 3
      vertex 36.8375 10 3
    endloop
  endfacet
  facet normal 0 0 1
    outer loop
      vertex 47.5278 11.3087 3
      vertex 36.6722 11.3087 3
      vertex 36.796 10.6596 3
    endloop
  endfacet
  facet normal 0 0 1
    outer loop
      vertex 51.6389 15.1693 3
      vertex 32.5611 15.1693 3
      vertex 50.9988 15.0049 3
    endloop
  endfacet
  facet normal 0 0 1
    outer loop
      vertex 47.7321 11.9373 3
      vertex 36.4679 11.9373 3
      vertex 36.6722 11.3087 3
    endloop
  endfacet
  facet normal 0 0 1
    outer loop
      vertex 48.0134 12.5352 3
      vertex 36.1866 12.5352 3
      vertex 36.4679 11.9373 3
    endloop
  endfacet
  facet normal 0 0 1
    outer loop
      vertex 48.3675 13.0932 3
      vertex 35.8325 13.0932 3
      vertex 36.1866 12.5352 3
    endloop
  endfacet
  facet normal 0 0 1
    outer loop
      vertex 48.7888 13.6024 3
      vertex 35.4112 13.6024 3
      vertex 35.8325 13.0932 3
    endloop
  endfacet
  facet normal 0 0 1
    outer loop
      vertex 49.2706 14.0548 3
      vertex 34.9294 14.0548 3
      vertex 35.4112 13.6024 3
    endloop
  endfacet
  facet normal 0 0 1
    outer loop
      vertex 49.8052 14.4433 3
      vertex 34.3948 14.4433 3
      vertex 34.9294 14.0548 3
    endloop
  endfacet
  facet normal 0 0 1
    outer loop
      vertex 50.3843 14.7617 3
      vertex 33.8157 14.7617 3
      vertex 34.3948 14.4433 3
    endloop
  endfacet
  facet normal 0 0 1
    outer loop
      vertex 50.9988 15.0049 3
      vertex 33.2012 15.0049 3
      vertex 33.8157 14.7617 3
    endloop
  endfacet
  facet normal 0 0 1
    outer loop
      vertex 50.9988 15.0049 3
      vertex 32.5611 15.1693 3
      vertex 33.2012 15.0049 3
    endloop
  endfacet
  facet normal 0 0 1
    outer loop
      vertex 70 20 3
      vertex 31.9054 15.2521 3
      vertex 32.5611 15.1693 3
    endloop
  endfacet
  facet normal -0 0 1
    outer loop
      vertex 0 20 3
      vertex 31.9054 15.2521 3
      vertex 70 20 3
    endloop
  endfacet
  facet normal 0 0 1
    outer loop
      vertex 26.354 10.6596 3
      vertex 15.7875 10 3
      vertex 26.3125 10 3
    endloop
  endfacet
  facet normal 0 0 1
    outer loop
      vertex 15.746 10.6596 3
      vertex 26.354 10.6596 3
      vertex 26.4778 11.3087 3
    endloop
  endfacet
  facet normal 0 0 1
    outer loop
      vertex 15.6222 11.3087 3
      vertex 26.4778 11.3087 3
      vertex 26.6821 11.9373 3
    endloop
  endfacet
  facet normal 0 0 1
    outer loop
      vertex 15.4179 11.9373 3
      vertex 26.6821 11.9373 3
      vertex 26.9634 12.5352 3
    endloop
  endfacet
  facet normal 0 0 1
    outer loop
      vertex 15.1366 12.5352 3
      vertex 26.9634 12.5352 3
      vertex 27.3175 13.0932 3
    endloop
  endfacet
  facet normal 0 0 1
    outer loop
      vertex 14.7825 13.0932 3
      vertex 27.3175 13.0932 3
      vertex 27.7388 13.6024 3
    endloop
  endfacet
  facet normal 0 0 1
    outer loop
      vertex 14.3612 13.6024 3
      vertex 27.7388 13.6024 3
      vertex 28.2206 14.0548 3
    endloop
  endfacet
  facet normal 0 0 1
    outer loop
      vertex 13.8794 14.0548 3
      vertex 28.2206 14.0548 3
      vertex 28.7552 14.4433 3
    endloop
  endfacet
  facet normal 0 0 1
    outer loop
      vertex 13.3448 14.4433 3
      vertex 28.7552 14.4433 3
      vertex 29.3343 14.7617 3
    endloop
  endfacet
  facet normal 0 0 1
    outer loop
      vertex 12.7657 14.7617 3
      vertex 29.3343 14.7617 3
      vertex 29.9488 15.0049 3
    endloop
  endfacet
  facet normal 0 0 1
    outer loop
      vertex 26.354 10.6596 3
      vertex 15.746 10.6596 3
      vertex 15.7875 10 3
    endloop
  endfacet
  facet normal 0 0 1
    outer loop
      vertex 26.4778 11.3087 3
      vertex 15.6222 11.3087 3
      vertex 15.746 10.6596 3
    endloop
  endfacet
  facet normal 0 0 1
    outer loop
      vertex 26.6821 11.9373 3
      vertex 15.4179 11.9373 3
      vertex 15.6222 11.3087 3
    endloop
  endfacet
  facet normal 0 0 1
    outer loop
      vertex 12.1512 15.0049 3
      vertex 29.9488 15.0049 3
      vertex 30.5889 15.1693 3
    endloop
  endfacet
  facet normal 0 0 1
    outer loop
      vertex 26.9634 12.5352 3
      vertex 15.1366 12.5352 3
      vertex 15.4179 11.9373 3
    endloop
  endfacet
  facet normal 0 0 1
    outer loop
      vertex 27.3175 13.0932 3
      vertex 14.7825 13.0932 3
      vertex 15.1366 12.5352 3
    endloop
  endfacet
  facet normal 0 0 1
    outer loop
      vertex 27.7388 13.6024 3
      vertex 14.3612 13.6024 3
      vertex 14.7825 13.0932 3
    endloop
  endfacet
  facet normal 0 0 1
    outer loop
      vertex 0 20 3
      vertex 30.5889 15.1693 3
      vertex 31.2446 15.2521 3
    endloop
  endfacet
  facet normal 0 0 1
    outer loop
      vertex 31.9054 15.2521 3
      vertex 0 20 3
      vertex 31.2446 15.2521 3
    endloop
  endfacet
  facet normal 0 0 1
    outer loop
      vertex 28.2206 14.0548 3
      vertex 13.8794 14.0548 3
      vertex 14.3612 13.6024 3
    endloop
  endfacet
  facet normal 0 0 1
    outer loop
      vertex 28.7552 14.4433 3
      vertex 13.3448 14.4433 3
      vertex 13.8794 14.0548 3
    endloop
  endfacet
  facet normal 0 0 1
    outer loop
      vertex 29.3343 14.7617 3
      vertex 12.7657 14.7617 3
      vertex 13.3448 14.4433 3
    endloop
  endfacet
  facet normal 0 0 1
    outer loop
      vertex 29.9488 15.0049 3
      vertex 12.1512 15.0049 3
      vertex 12.7657 14.7617 3
    endloop
  endfacet
  facet normal 0 0 1
    outer loop
      vertex 30.5889 15.1693 3
      vertex 0 20 3
      vertex 11.5111 15.1693 3
    endloop
  endfacet
  facet normal 0 0 1
    outer loop
      vertex 30.5889 15.1693 3
      vertex 11.5111 15.1693 3
      vertex 12.1512 15.0049 3
    endloop
  endfacet
  facet normal 0 0 1
    outer loop
      vertex 11.5111 15.1693 3
      vertex 0 20 3
      vertex 10.8554 15.2521 3
    endloop
  endfacet
  facet normal 0 0 1
    outer loop
      vertex 5.304 10.6596 3
      vertex 0 20 3
      vertex 5.2625 10 3
    endloop
  endfacet
  facet normal 0 0 1
    outer loop
      vertex 5.42783 11.3087 3
      vertex 0 20 3
      vertex 5.304 10.6596 3
    endloop
  endfacet
  facet normal 0 0 1
    outer loop
      vertex 5.63205 11.9373 3
      vertex 0 20 3
      vertex 5.42783 11.3087 3
    endloop
  endfacet
  facet normal 0 0 1
    outer loop
      vertex 5.91344 12.5352 3
      vertex 0 20 3
      vertex 5.63205 11.9373 3
    endloop
  endfacet
  facet normal 0 0 1
    outer loop
      vertex 6.26755 13.0932 3
      vertex 0 20 3
      vertex 5.91344 12.5352 3
    endloop
  endfacet
  facet normal 0 0 1
    outer loop
      vertex 6.6888 13.6024 3
      vertex 0 20 3
      vertex 6.26755 13.0932 3
    endloop
  endfacet
  facet normal 0 0 1
    outer loop
      vertex 7.17056 14.0548 3
      vertex 0 20 3
      vertex 6.6888 13.6024 3
    endloop
  endfacet
  facet normal 0 0 1
    outer loop
      vertex 7.70521 14.4433 3
      vertex 0 20 3
      vertex 7.17056 14.0548 3
    endloop
  endfacet
  facet normal 0 0 1
    outer loop
      vertex 8.28434 14.7617 3
      vertex 0 20 3
      vertex 7.70521 14.4433 3
    endloop
  endfacet
  facet normal 0 0 1
    outer loop
      vertex 8.8988 15.0049 3
      vertex 0 20 3
      vertex 8.28434 14.7617 3
    endloop
  endfacet
  facet normal 0 0 1
    outer loop
      vertex 9.53891 15.1693 3
      vertex 0 20 3
      vertex 8.8988 15.0049 3
    endloop
  endfacet
  facet normal 0 0 1
    outer loop
      vertex 10.1946 15.2521 3
      vertex 0 20 3
      vertex 9.53891 15.1693 3
    endloop
  endfacet
  facet normal 0 0 1
    outer loop
      vertex 10.8554 15.2521 3
      vertex 0 20 3
      vertex 10.1946 15.2521 3
    endloop
  endfacet
  facet normal -0 0 1
    outer loop
      vertex 57.846 9.34043 3
      vertex 70 0 3
      vertex 57.8875 10 3
    endloop
  endfacet
  facet normal -0 0 1
    outer loop
      vertex 57.7222 8.69127 3
      vertex 70 0 3
      vertex 57.846 9.34043 3
    endloop
  endfacet
  facet normal -0 0 1
    outer loop
      vertex 57.5179 8.06275 3
      vertex 70 0 3
      vertex 57.7222 8.69127 3
    endloop
  endfacet
  facet normal -0 0 1
    outer loop
      vertex 57.2366 7.46477 3
      vertex 70 0 3
      vertex 57.5179 8.06275 3
    endloop
  endfacet
  facet normal -0 0 1
    outer loop
      vertex 56.8825 6.90678 3
      vertex 70 0 3
      vertex 57.2366 7.46477 3
    endloop
  endfacet
  facet normal -0 0 1
    outer loop
      vertex 56.4612 6.39757 3
      vertex 70 0 3
      vertex 56.8825 6.90678 3
    endloop
  endfacet
  facet normal -0 0 1
    outer loop
      vertex 55.9794 5.94517 3
      vertex 70 0 3
      vertex 56.4612 6.39757 3
    endloop
  endfacet
  facet normal -0 0 1
    outer loop
      vertex 55.4448 5.55672 3
      vertex 70 0 3
      vertex 55.9794 5.94517 3
    endloop
  endfacet
  facet normal -0 0 1
    outer loop
      vertex 54.8657 5.23835 3
      vertex 70 0 3
      vertex 55.4448 5.55672 3
    endloop
  endfacet
  facet normal -0 0 1
    outer loop
      vertex 54.2512 4.99507 3
      vertex 70 0 3
      vertex 54.8657 5.23835 3
    endloop
  endfacet
  facet normal -0 0 1
    outer loop
      vertex 53.6111 4.83071 3
      vertex 70 0 3
      vertex 54.2512 4.99507 3
    endloop
  endfacet
  facet normal -0 0 1
    outer loop
      vertex 52.9554 4.74788 3
      vertex 70 0 3
      vertex 53.6111 4.83071 3
    endloop
  endfacet
  facet normal -0 0 1
    outer loop
      vertex 52.2946 4.74788 3
      vertex 70 0 3
      vertex 52.9554 4.74788 3
    endloop
  endfacet
  facet normal 0 0 1
    outer loop
      vertex 51.6389 4.83071 3
      vertex 70 0 3
      vertex 52.2946 4.74788 3
    endloop
  endfacet
  facet normal 0 0 1
    outer loop
      vertex 32.5611 4.83071 3
      vertex 51.6389 4.83071 3
      vertex 50.9988 4.99507 3
    endloop
  endfacet
  facet normal -0 0 1
    outer loop
      vertex 36.8375 10 3
      vertex 47.404 9.34043 3
      vertex 47.3625 10 3
    endloop
  endfacet
  facet normal 0 0 1
    outer loop
      vertex 36.796 9.34043 3
      vertex 47.404 9.34043 3
      vertex 36.8375 10 3
    endloop
  endfacet
  facet normal 0 0 1
    outer loop
      vertex 47.404 9.34043 3
      vertex 36.796 9.34043 3
      vertex 47.5278 8.69127 3
    endloop
  endfacet
  facet normal 0 0 1
    outer loop
      vertex 36.6722 8.69127 3
      vertex 47.5278 8.69127 3
      vertex 36.796 9.34043 3
    endloop
  endfacet
  facet normal 0 0 1
    outer loop
      vertex 47.5278 8.69127 3
      vertex 36.6722 8.69127 3
      vertex 47.7321 8.06275 3
    endloop
  endfacet
  facet normal 0 0 1
    outer loop
      vertex 36.4679 8.06275 3
      vertex 47.7321 8.06275 3
      vertex 36.6722 8.69127 3
    endloop
  endfacet
  facet normal 0 0 1
    outer loop
      vertex 47.7321 8.06275 3
      vertex 36.4679 8.06275 3
      vertex 48.0134 7.46477 3
    endloop
  endfacet
  facet normal 0 0 1
    outer loop
      vertex 36.1866 7.46477 3
      vertex 48.0134 7.46477 3
      vertex 36.4679 8.06275 3
    endloop
  endfacet
  facet normal 0 0 1
    outer loop
      vertex 48.0134 7.46477 3
      vertex 36.1866 7.46477 3
      vertex 48.3675 6.90678 3
    endloop
  endfacet
  facet normal 0 0 1
    outer loop
      vertex 35.8325 6.90678 3
      vertex 48.3675 6.90678 3
      vertex 36.1866 7.46477 3
    endloop
  endfacet
  facet normal 0 0 1
    outer loop
      vertex 48.3675 6.90678 3
      vertex 35.8325 6.90678 3
      vertex 48.7888 6.39757 3
    endloop
  endfacet
  facet normal 0 0 1
    outer loop
      vertex 35.4112 6.39757 3
      vertex 48.7888 6.39757 3
      vertex 35.8325 6.90678 3
    endloop
  endfacet
  facet normal 0 0 1
    outer loop
      vertex 48.7888 6.39757 3
      vertex 35.4112 6.39757 3
      vertex 49.2706 5.94517 3
    endloop
  endfacet
  facet normal 0 0 1
    outer loop
      vertex 34.9294 5.94517 3
      vertex 49.2706 5.94517 3
      vertex 35.4112 6.39757 3
    endloop
  endfacet
  facet normal 0 0 1
    outer loop
      vertex 49.2706 5.94517 3
      vertex 34.9294 5.94517 3
      vertex 49.8052 5.55672 3
    endloop
  endfacet
  facet normal 0 0 1
    outer loop
      vertex 34.3948 5.55672 3
      vertex 49.8052 5.55672 3
      vertex 34.9294 5.94517 3
    endloop
  endfacet
  facet normal 0 0 1
    outer loop
      vertex 49.8052 5.55672 3
      vertex 34.3948 5.55672 3
      vertex 50.3843 5.23835 3
    endloop
  endfacet
  facet normal 0 0 1
    outer loop
      vertex 33.8157 5.23835 3
      vertex 50.3843 5.23835 3
      vertex 34.3948 5.55672 3
    endloop
  endfacet
  facet normal 0 0 1
    outer loop
      vertex 50.3843 5.23835 3
      vertex 33.8157 5.23835 3
      vertex 50.9988 4.99507 3
    endloop
  endfacet
  facet normal 0 0 1
    outer loop
      vertex 33.2012 4.99507 3
      vertex 50.9988 4.99507 3
      vertex 33.8157 5.23835 3
    endloop
  endfacet
  facet normal 0 0 1
    outer loop
      vertex 32.5611 4.83071 3
      vertex 50.9988 4.99507 3
      vertex 33.2012 4.99507 3
    endloop
  endfacet
  facet normal 0 0 1
    outer loop
      vertex 51.6389 4.83071 3
      vertex 32.5611 4.83071 3
      vertex 70 0 3
    endloop
  endfacet
  facet normal -0 0 1
    outer loop
      vertex 31.9054 4.74788 3
      vertex 70 0 3
      vertex 32.5611 4.83071 3
    endloop
  endfacet
  facet normal 0 0 1
    outer loop
      vertex 0 0 3
      vertex 31.9054 4.74788 3
      vertex 31.2446 4.74788 3
    endloop
  endfacet
  facet normal -0 0 1
    outer loop
      vertex 15.7875 10 3
      vertex 26.354 9.34043 3
      vertex 26.3125 10 3
    endloop
  endfacet
  facet normal 0 0 1
    outer loop
      vertex 15.746 9.34043 3
      vertex 26.354 9.34043 3
      vertex 15.7875 10 3
    endloop
  endfacet
  facet normal 0 0 1
    outer loop
      vertex 26.354 9.34043 3
      vertex 15.746 9.34043 3
      vertex 26.4778 8.69127 3
    endloop
  endfacet
  facet normal 0 0 1
    outer loop
      vertex 15.6222 8.69127 3
      vertex 26.4778 8.69127 3
      vertex 15.746 9.34043 3
    endloop
  endfacet
  facet normal 0 0 1
    outer loop
      vertex 26.4778 8.69127 3
      vertex 15.6222 8.69127 3
      vertex 26.6821 8.06275 3
    endloop
  endfacet
  facet normal 0 0 1
    outer loop
      vertex 15.4179 8.06275 3
      vertex 26.6821 8.06275 3
      vertex 15.6222 8.69127 3
    endloop
  endfacet
  facet normal 0 0 1
    outer loop
      vertex 26.6821 8.06275 3
      vertex 15.4179 8.06275 3
      vertex 26.9634 7.46477 3
    endloop
  endfacet
  facet normal 0 0 1
    outer loop
      vertex 15.1366 7.46477 3
      vertex 26.9634 7.46477 3
      vertex 15.4179 8.06275 3
    endloop
  endfacet
  facet normal 0 0 1
    outer loop
      vertex 26.9634 7.46477 3
      vertex 15.1366 7.46477 3
      vertex 27.3175 6.90678 3
    endloop
  endfacet
  facet normal 0 0 1
    outer loop
      vertex 14.7825 6.90678 3
      vertex 27.3175 6.90678 3
      vertex 15.1366 7.46477 3
    endloop
  endfacet
  facet normal 0 0 1
    outer loop
      vertex 27.3175 6.90678 3
      vertex 14.7825 6.90678 3
      vertex 27.7388 6.39757 3
    endloop
  endfacet
  facet normal 0 0 1
    outer loop
      vertex 14.3612 6.39757 3
      vertex 27.7388 6.39757 3
      vertex 14.7825 6.90678 3
    endloop
  endfacet
  facet normal 0 0 1
    outer loop
      vertex 27.7388 6.39757 3
      vertex 14.3612 6.39757 3
      vertex 28.2206 5.94517 3
    endloop
  endfacet
  facet normal 0 0 1
    outer loop
      vertex 13.8794 5.94517 3
      vertex 28.2206 5.94517 3
      vertex 14.3612 6.39757 3
    endloop
  endfacet
  facet normal 0 0 1
    outer loop
      vertex 28.2206 5.94517 3
      vertex 13.8794 5.94517 3
      vertex 28.7552 5.55672 3
    endloop
  endfacet
  facet normal 0 0 1
    outer loop
      vertex 13.3448 5.55672 3
      vertex 28.7552 5.55672 3
      vertex 13.8794 5.94517 3
    endloop
  endfacet
  facet normal 0 0 1
    outer loop
      vertex 28.7552 5.55672 3
      vertex 13.3448 5.55672 3
      vertex 29.3343 5.23835 3
    endloop
  endfacet
  facet normal 0 0 1
    outer loop
      vertex 12.7657 5.23835 3
      vertex 29.3343 5.23835 3
      vertex 13.3448 5.55672 3
    endloop
  endfacet
  facet normal 0 0 1
    outer loop
      vertex 29.3343 5.23835 3
      vertex 12.7657 5.23835 3
      vertex 29.9488 4.99507 3
    endloop
  endfacet
  facet normal 0 0 1
    outer loop
      vertex 12.1512 4.99507 3
      vertex 29.9488 4.99507 3
      vertex 12.7657 5.23835 3
    endloop
  endfacet
  facet normal 0 0 1
    outer loop
      vertex 29.9488 4.99507 3
      vertex 12.1512 4.99507 3
      vertex 30.5889 4.83071 3
    endloop
  endfacet
  facet normal 0 0 1
    outer loop
      vertex 11.5111 4.83071 3
      vertex 30.5889 4.83071 3
      vertex 12.1512 4.99507 3
    endloop
  endfacet
  facet normal 0 0 1
    outer loop
      vertex 0 0 3
      vertex 30.5889 4.83071 3
      vertex 11.5111 4.83071 3
    endloop
  endfacet
  facet normal 0 0 1
    outer loop
      vertex 30.5889 4.83071 3
      vertex 0 0 3
      vertex 31.2446 4.74788 3
    endloop
  endfacet
  facet normal 0 0 1
    outer loop
      vertex 0 0 3
      vertex 11.5111 4.83071 3
      vertex 10.8554 4.74788 3
    endloop
  endfacet
  facet normal 0 0 1
    outer loop
      vertex 0 0 3
      vertex 10.8554 4.74788 3
      vertex 10.1946 4.74788 3
    endloop
  endfacet
  facet normal 0 0 1
    outer loop
      vertex 0 0 3
      vertex 5.2625 10 3
      vertex 0 20 3
    endloop
  endfacet
  facet normal 0 0 1
    outer loop
      vertex 5.2625 10 3
      vertex 0 0 3
      vertex 5.304 9.34043 3
    endloop
  endfacet
  facet normal 0 0 1
    outer loop
      vertex 5.304 9.34043 3
      vertex 0 0 3
      vertex 5.42783 8.69127 3
    endloop
  endfacet
  facet normal 0 0 1
    outer loop
      vertex 5.42783 8.69127 3
      vertex 0 0 3
      vertex 5.63205 8.06275 3
    endloop
  endfacet
  facet normal 0 0 1
    outer loop
      vertex 31.9054 4.74788 3
      vertex 0 0 3
      vertex 70 0 3
    endloop
  endfacet
  facet normal 0 0 1
    outer loop
      vertex 9.53891 4.83071 3
      vertex 0 0 3
      vertex 10.1946 4.74788 3
    endloop
  endfacet
  facet normal 0 0 1
    outer loop
      vertex 8.8988 4.99507 3
      vertex 0 0 3
      vertex 9.53891 4.83071 3
    endloop
  endfacet
  facet normal 0 0 1
    outer loop
      vertex 8.28434 5.23835 3
      vertex 0 0 3
      vertex 8.8988 4.99507 3
    endloop
  endfacet
  facet normal 0 0 1
    outer loop
      vertex 7.70521 5.55672 3
      vertex 0 0 3
      vertex 8.28434 5.23835 3
    endloop
  endfacet
  facet normal 0 0 1
    outer loop
      vertex 7.17056 5.94517 3
      vertex 0 0 3
      vertex 7.70521 5.55672 3
    endloop
  endfacet
  facet normal 0 0 1
    outer loop
      vertex 6.6888 6.39757 3
      vertex 0 0 3
      vertex 7.17056 5.94517 3
    endloop
  endfacet
  facet normal 0 0 1
    outer loop
      vertex 6.26755 6.90678 3
      vertex 0 0 3
      vertex 6.6888 6.39757 3
    endloop
  endfacet
  facet normal 0 0 1
    outer loop
      vertex 5.91344 7.46477 3
      vertex 0 0 3
      vertex 6.26755 6.90678 3
    endloop
  endfacet
  facet normal 0 0 1
    outer loop
      vertex 5.63205 8.06275 3
      vertex 0 0 3
      vertex 5.91344 7.46477 3
    endloop
  endfacet
  facet normal -1 0 0
    outer loop
      vertex 0 0 0
      vertex 0 20 3
      vertex 0 20 0
    endloop
  endfacet
  facet normal -1 -0 0
    outer loop
      vertex 0 20 3
      vertex 0 0 0
      vertex 0 0 3
    endloop
  endfacet
  facet normal 0 1 -0
    outer loop
      vertex 70 20 0
      vertex 0 20 3
      vertex 70 20 3
    endloop
  endfacet
  facet normal 0 1 0
    outer loop
      vertex 0 20 3
      vertex 70 20 0
      vertex 0 20 0
    endloop
  endfacet
  facet normal 0 -1 0
    outer loop
      vertex 0 0 0
      vertex 70 0 3
      vertex 0 0 3
    endloop
  endfacet
  facet normal 0 -1 -0
    outer loop
      vertex 70 0 3
      vertex 0 0 0
      vertex 70 0 0
    endloop
  endfacet
endsolid OpenSCAD_Model
