solid OpenSCAD_Model
  facet normal 0.684608 0.728911 -0
    outer loop
      vertex 2.64484 18.7827 0
      vertex 2.18712 19.2126 10
      vertex 2.64484 18.7827 10
    endloop
  endfacet
  facet normal 0.684608 0.728911 0
    outer loop
      vertex 2.18712 19.2126 10
      vertex 2.64484 18.7827 0
      vertex 2.18712 19.2126 0
    endloop
  endfacet
  facet normal 0.904842 0.425747 0
    outer loop
      vertex 3.64888 17.2006 10
      vertex 3.38153 17.7688 0
      vertex 3.38153 17.7688 10
    endloop
  endfacet
  facet normal 0.904842 0.425747 0
    outer loop
      vertex 3.38153 17.7688 0
      vertex 3.64888 17.2006 10
      vertex 3.64888 17.2006 0
    endloop
  endfacet
  facet normal -0.770509 -0.63743 0
    outer loop
      vertex -4.64484 11.9373 0
      vertex -5.04508 12.4211 10
      vertex -5.04508 12.4211 0
    endloop
  endfacet
  facet normal -0.770509 -0.63743 0
    outer loop
      vertex -5.04508 12.4211 10
      vertex -4.64484 11.9373 0
      vertex -4.64484 11.9373 10
    endloop
  endfacet
  facet normal 0.368195 0.929749 -0
    outer loop
      vertex 1.1289 19.8841 0
      vertex 0.545085 20.1153 10
      vertex 1.1289 19.8841 10
    endloop
  endfacet
  facet normal 0.368195 0.929749 0
    outer loop
      vertex 0.545085 20.1153 10
      vertex 1.1289 19.8841 0
      vertex 0.545085 20.1153 0
    endloop
  endfacet
  facet normal -0.982285 -0.187394 0
    outer loop
      vertex -5.84292 14.1166 0
      vertex -5.96057 14.7333 10
      vertex -5.96057 14.7333 0
    endloop
  endfacet
  facet normal -0.982285 -0.187394 0
    outer loop
      vertex -5.96057 14.7333 10
      vertex -5.84292 14.1166 0
      vertex -5.84292 14.1166 10
    endloop
  endfacet
  facet normal -0.481764 0.876301 0
    outer loop
      vertex -3.1289 19.8841 0
      vertex -3.67913 19.5816 10
      vertex -3.1289 19.8841 10
    endloop
  endfacet
  facet normal -0.481764 0.876301 0
    outer loop
      vertex -3.67913 19.5816 10
      vertex -3.1289 19.8841 0
      vertex -3.67913 19.5816 0
    endloop
  endfacet
  facet normal -0.368192 -0.92975 0
    outer loop
      vertex -3.1289 10.8359 0
      vertex -2.54508 10.6047 10
      vertex -3.1289 10.8359 10
    endloop
  endfacet
  facet normal -0.368192 -0.92975 -0
    outer loop
      vertex -2.54508 10.6047 10
      vertex -3.1289 10.8359 0
      vertex -2.54508 10.6047 0
    endloop
  endfacet
  facet normal 0.998027 0.0627927 0
    outer loop
      vertex 4 15.36 10
      vertex 3.96057 15.9867 0
      vertex 3.96057 15.9867 10
    endloop
  endfacet
  facet normal 0.998027 0.0627927 0
    outer loop
      vertex 3.96057 15.9867 0
      vertex 4 15.36 10
      vertex 4 15.36 0
    endloop
  endfacet
  facet normal -0.481764 -0.876301 0
    outer loop
      vertex -3.67913 11.1384 0
      vertex -3.1289 10.8359 10
      vertex -3.67913 11.1384 10
    endloop
  endfacet
  facet normal -0.481764 -0.876301 -0
    outer loop
      vertex -3.1289 10.8359 10
      vertex -3.67913 11.1384 0
      vertex -3.1289 10.8359 0
    endloop
  endfacet
  facet normal 0.904844 -0.425742 0
    outer loop
      vertex 3.57388 13.36 10
      vertex 3.64888 13.5194 0
      vertex 3.64888 13.5194 10
    endloop
  endfacet
  facet normal 0.904844 -0.425742 0
    outer loop
      vertex 3.64888 13.5194 0
      vertex 3.57388 13.36 10
      vertex 3.57388 13.36 0
    endloop
  endfacet
  facet normal 0.248609 0.968604 -0
    outer loop
      vertex 0.545085 20.1153 0
      vertex -0.0630941 20.2714 10
      vertex 0.545085 20.1153 10
    endloop
  endfacet
  facet normal 0.248609 0.968604 0
    outer loop
      vertex -0.0630941 20.2714 10
      vertex 0.545085 20.1153 0
      vertex -0.0630941 20.2714 0
    endloop
  endfacet
  facet normal 0.982285 -0.187394 0
    outer loop
      vertex 3.84292 14.1166 10
      vertex 3.96057 14.7333 0
      vertex 3.96057 14.7333 10
    endloop
  endfacet
  facet normal 0.982285 -0.187394 0
    outer loop
      vertex 3.96057 14.7333 0
      vertex 3.84292 14.1166 10
      vertex 3.84292 14.1166 0
    endloop
  endfacet
  facet normal 0.982285 0.187394 0
    outer loop
      vertex 3.96057 15.9867 10
      vertex 3.84292 16.6034 0
      vertex 3.84292 16.6034 10
    endloop
  endfacet
  facet normal 0.982285 0.187394 0
    outer loop
      vertex 3.84292 16.6034 0
      vertex 3.96057 15.9867 10
      vertex 3.96057 15.9867 0
    endloop
  endfacet
  facet normal -0.8443 -0.53587 0
    outer loop
      vertex -5.04508 12.4211 0
      vertex -5.38153 12.9512 10
      vertex -5.38153 12.9512 0
    endloop
  endfacet
  facet normal -0.8443 -0.53587 0
    outer loop
      vertex -5.38153 12.9512 10
      vertex -5.04508 12.4211 0
      vertex -5.04508 12.4211 10
    endloop
  endfacet
  facet normal 0 -1 0
    outer loop
      vertex -1.31395 10.3699 0
      vertex -0.686048 10.3699 10
      vertex -1.31395 10.3699 10
    endloop
  endfacet
  facet normal 0 -1 -0
    outer loop
      vertex -0.686048 10.3699 10
      vertex -1.31395 10.3699 0
      vertex -0.686048 10.3699 0
    endloop
  endfacet
  facet normal -0.951057 -0.309014 0
    outer loop
      vertex -5.64888 13.5194 0
      vertex -5.84292 14.1166 10
      vertex -5.84292 14.1166 0
    endloop
  endfacet
  facet normal -0.951057 -0.309014 0
    outer loop
      vertex -5.84292 14.1166 10
      vertex -5.64888 13.5194 0
      vertex -5.64888 13.5194 10
    endloop
  endfacet
  facet normal 0 0 -1
    outer loop
      vertex -0.344166 11.922 0
      vertex 0 10.4648 0
      vertex -0.0630941 10.4486 0
    endloop
  endfacet
  facet normal 0 0 -1
    outer loop
      vertex 0 10.4648 0
      vertex -0.344166 11.922 0
      vertex 0 12.0104 0
    endloop
  endfacet
  facet normal 0 0 -1
    outer loop
      vertex -0.686048 10.3699 0
      vertex -0.344166 11.922 0
      vertex -0.0630941 10.4486 0
    endloop
  endfacet
  facet normal 0 0 -1
    outer loop
      vertex -0.686048 10.3699 0
      vertex -0.780233 11.8669 0
      vertex -0.344166 11.922 0
    endloop
  endfacet
  facet normal 0 0 -1
    outer loop
      vertex -0.686048 10.3699 0
      vertex -1.21977 11.8669 0
      vertex -0.780233 11.8669 0
    endloop
  endfacet
  facet normal 0 0 -1
    outer loop
      vertex -1.31395 10.3699 0
      vertex -1.21977 11.8669 0
      vertex -0.686048 10.3699 0
    endloop
  endfacet
  facet normal 0 0 -1
    outer loop
      vertex -1.31395 10.3699 0
      vertex -1.65583 11.922 0
      vertex -1.21977 11.8669 0
    endloop
  endfacet
  facet normal 0 0 -1
    outer loop
      vertex -1.93691 10.4486 0
      vertex -1.65583 11.922 0
      vertex -1.31395 10.3699 0
    endloop
  endfacet
  facet normal 0 0 -1
    outer loop
      vertex -1.93691 10.4486 0
      vertex -2.08156 12.0313 0
      vertex -1.65583 11.922 0
    endloop
  endfacet
  facet normal 0 0 -1
    outer loop
      vertex -2.54508 10.6047 0
      vertex -2.08156 12.0313 0
      vertex -1.93691 10.4486 0
    endloop
  endfacet
  facet normal -0 0 -1
    outer loop
      vertex -2.08156 12.0313 0
      vertex -2.54508 10.6047 0
      vertex -2.49023 12.1931 0
    endloop
  endfacet
  facet normal 0 0 -1
    outer loop
      vertex -3.1289 10.8359 0
      vertex -2.49023 12.1931 0
      vertex -2.54508 10.6047 0
    endloop
  endfacet
  facet normal -0 0 -1
    outer loop
      vertex -2.49023 12.1931 0
      vertex -3.1289 10.8359 0
      vertex -2.87539 12.4049 0
    endloop
  endfacet
  facet normal 0 0 -1
    outer loop
      vertex -3.67913 11.1384 0
      vertex -2.87539 12.4049 0
      vertex -3.1289 10.8359 0
    endloop
  endfacet
  facet normal -0 0 -1
    outer loop
      vertex -2.87539 12.4049 0
      vertex -3.67913 11.1384 0
      vertex -3.23098 12.6632 0
    endloop
  endfacet
  facet normal 0 0 -1
    outer loop
      vertex -4.18712 11.5074 0
      vertex -3.23098 12.6632 0
      vertex -3.67913 11.1384 0
    endloop
  endfacet
  facet normal -0 0 -1
    outer loop
      vertex -3.23098 12.6632 0
      vertex -4.18712 11.5074 0
      vertex -3.55139 12.9641 0
    endloop
  endfacet
  facet normal 0 0 -1
    outer loop
      vertex -4.64484 11.9373 0
      vertex -3.55139 12.9641 0
      vertex -4.18712 11.5074 0
    endloop
  endfacet
  facet normal -0 0 -1
    outer loop
      vertex -3.55139 12.9641 0
      vertex -4.64484 11.9373 0
      vertex -3.83156 13.3028 0
    endloop
  endfacet
  facet normal 0 0 -1
    outer loop
      vertex -5.04508 12.4211 0
      vertex -3.83156 13.3028 0
      vertex -4.64484 11.9373 0
    endloop
  endfacet
  facet normal -0 0 -1
    outer loop
      vertex -3.83156 13.3028 0
      vertex -5.04508 12.4211 0
      vertex -4.06707 13.6739 0
    endloop
  endfacet
  facet normal 0 0 -1
    outer loop
      vertex -5.38153 12.9512 0
      vertex -4.06707 13.6739 0
      vertex -5.04508 12.4211 0
    endloop
  endfacet
  facet normal 0 0 -1
    outer loop
      vertex -5.64888 13.5194 0
      vertex -4.25422 14.0716 0
      vertex -5.38153 12.9512 0
    endloop
  endfacet
  facet normal -0 0 -1
    outer loop
      vertex -4.06707 13.6739 0
      vertex -5.38153 12.9512 0
      vertex -4.25422 14.0716 0
    endloop
  endfacet
  facet normal 0 0 -1
    outer loop
      vertex 10 0 0
      vertex 2 2 0
      vertex 10 2 0
    endloop
  endfacet
  facet normal 0 0 -1
    outer loop
      vertex 0 10.4648 0
      vertex 2 11.36 0
      vertex 2 2 0
    endloop
  endfacet
  facet normal 0 0 -1
    outer loop
      vertex 0 0 0
      vertex 2 2 0
      vertex 10 0 0
    endloop
  endfacet
  facet normal 0 0 -1
    outer loop
      vertex 0 10.4648 0
      vertex 2 2 0
      vertex 0 0 0
    endloop
  endfacet
  facet normal 0 0 -1
    outer loop
      vertex 0 12.0104 0
      vertex 2 11.36 0
      vertex 0 10.4648 0
    endloop
  endfacet
  facet normal 0 0 -1
    outer loop
      vertex 2 11.36 0
      vertex 0 12.0104 0
      vertex 1.86789 13.36 0
    endloop
  endfacet
  facet normal -0 0 -1
    outer loop
      vertex 1.86789 13.36 0
      vertex 0 12.0104 0
      vertex 0 13.36 0
    endloop
  endfacet
  facet normal 0 0 -1
    outer loop
      vertex 10 11.36 0
      vertex 3.57388 13.36 0
      vertex 10 13.36 0
    endloop
  endfacet
  facet normal 0 0 -1
    outer loop
      vertex 2.39004 16.2304 0
      vertex 3.84292 16.6034 0
      vertex 2.4724 15.7987 0
    endloop
  endfacet
  facet normal 0 0 -1
    outer loop
      vertex 2.25422 16.6484 0
      vertex 3.64888 17.2006 0
      vertex 2.39004 16.2304 0
    endloop
  endfacet
  facet normal -0 0 -1
    outer loop
      vertex 3.84292 16.6034 0
      vertex 2.39004 16.2304 0
      vertex 3.64888 17.2006 0
    endloop
  endfacet
  facet normal 0 0 -1
    outer loop
      vertex 3.57388 13.36 0
      vertex 2.4724 14.9213 0
      vertex 2.5 15.36 0
    endloop
  endfacet
  facet normal 0 0 -1
    outer loop
      vertex 3.57388 13.36 0
      vertex 2.39004 14.4896 0
      vertex 2.4724 14.9213 0
    endloop
  endfacet
  facet normal 0 0 -1
    outer loop
      vertex 3.57388 13.36 0
      vertex 2.25422 14.0716 0
      vertex 2.39004 14.4896 0
    endloop
  endfacet
  facet normal 0 0 -1
    outer loop
      vertex 3.57388 13.36 0
      vertex 2.06707 13.6739 0
      vertex 2.25422 14.0716 0
    endloop
  endfacet
  facet normal 0 0 -1
    outer loop
      vertex 2 11.36 0
      vertex 3.57388 13.36 0
      vertex 10 11.36 0
    endloop
  endfacet
  facet normal 0 0 -1
    outer loop
      vertex 1.86789 13.36 0
      vertex 3.57388 13.36 0
      vertex 2 11.36 0
    endloop
  endfacet
  facet normal 0 0 -1
    outer loop
      vertex 3.57388 13.36 0
      vertex 1.86789 13.36 0
      vertex 2.06707 13.6739 0
    endloop
  endfacet
  facet normal 0 0 -1
    outer loop
      vertex 2.5 15.36 0
      vertex 4 15.36 0
      vertex 3.96057 14.7333 0
    endloop
  endfacet
  facet normal 0 0 -1
    outer loop
      vertex 2.5 15.36 0
      vertex 3.96057 14.7333 0
      vertex 3.84292 14.1166 0
    endloop
  endfacet
  facet normal 0 0 -1
    outer loop
      vertex 4 15.36 0
      vertex 2.5 15.36 0
      vertex 3.96057 15.9867 0
    endloop
  endfacet
  facet normal 0 0 -1
    outer loop
      vertex 2.5 15.36 0
      vertex 3.64888 13.5194 0
      vertex 3.57388 13.36 0
    endloop
  endfacet
  facet normal 0 0 -1
    outer loop
      vertex 3.64888 13.5194 0
      vertex 2.5 15.36 0
      vertex 3.84292 14.1166 0
    endloop
  endfacet
  facet normal 0 0 -1
    outer loop
      vertex 2.4724 15.7987 0
      vertex 3.96057 15.9867 0
      vertex 2.5 15.36 0
    endloop
  endfacet
  facet normal -0 0 -1
    outer loop
      vertex 3.96057 15.9867 0
      vertex 2.4724 15.7987 0
      vertex 3.84292 16.6034 0
    endloop
  endfacet
  facet normal -0 0 -1
    outer loop
      vertex 3.64888 17.2006 0
      vertex 2.25422 16.6484 0
      vertex 3.38153 17.7688 0
    endloop
  endfacet
  facet normal 0 0 -1
    outer loop
      vertex 2.06707 17.0461 0
      vertex 3.38153 17.7688 0
      vertex 2.25422 16.6484 0
    endloop
  endfacet
  facet normal -0 0 -1
    outer loop
      vertex 3.38153 17.7688 0
      vertex 2.06707 17.0461 0
      vertex 3.04508 18.2989 0
    endloop
  endfacet
  facet normal 0 0 -1
    outer loop
      vertex 1.83156 17.4172 0
      vertex 3.04508 18.2989 0
      vertex 2.06707 17.0461 0
    endloop
  endfacet
  facet normal -0 0 -1
    outer loop
      vertex 3.04508 18.2989 0
      vertex 1.83156 17.4172 0
      vertex 2.64484 18.7827 0
    endloop
  endfacet
  facet normal 0 0 -1
    outer loop
      vertex 1.55139 17.7559 0
      vertex 2.64484 18.7827 0
      vertex 1.83156 17.4172 0
    endloop
  endfacet
  facet normal -0 0 -1
    outer loop
      vertex 2.64484 18.7827 0
      vertex 1.55139 17.7559 0
      vertex 2.18712 19.2126 0
    endloop
  endfacet
  facet normal 0 0 -1
    outer loop
      vertex 1.23098 18.0568 0
      vertex 2.18712 19.2126 0
      vertex 1.55139 17.7559 0
    endloop
  endfacet
  facet normal -0 0 -1
    outer loop
      vertex 2.18712 19.2126 0
      vertex 1.23098 18.0568 0
      vertex 1.67913 19.5816 0
    endloop
  endfacet
  facet normal 0 0 -1
    outer loop
      vertex 0.875393 18.3151 0
      vertex 1.67913 19.5816 0
      vertex 1.23098 18.0568 0
    endloop
  endfacet
  facet normal -0 0 -1
    outer loop
      vertex 1.67913 19.5816 0
      vertex 0.875393 18.3151 0
      vertex 1.1289 19.8841 0
    endloop
  endfacet
  facet normal 0 0 -1
    outer loop
      vertex 0.490227 18.5269 0
      vertex 1.1289 19.8841 0
      vertex 0.875393 18.3151 0
    endloop
  endfacet
  facet normal -0 0 -1
    outer loop
      vertex 1.1289 19.8841 0
      vertex 0.490227 18.5269 0
      vertex 0.545085 20.1153 0
    endloop
  endfacet
  facet normal 0 0 -1
    outer loop
      vertex 0.0815592 18.6887 0
      vertex 0.545085 20.1153 0
      vertex 0.490227 18.5269 0
    endloop
  endfacet
  facet normal 0 0 -1
    outer loop
      vertex 0.0815592 18.6887 0
      vertex -0.0630941 20.2714 0
      vertex 0.545085 20.1153 0
    endloop
  endfacet
  facet normal 0 0 -1
    outer loop
      vertex -0.344166 18.798 0
      vertex -0.0630941 20.2714 0
      vertex 0.0815592 18.6887 0
    endloop
  endfacet
  facet normal 0 0 -1
    outer loop
      vertex -0.344166 18.798 0
      vertex -0.686048 20.3501 0
      vertex -0.0630941 20.2714 0
    endloop
  endfacet
  facet normal 0 0 -1
    outer loop
      vertex -0.780233 18.8531 0
      vertex -0.686048 20.3501 0
      vertex -0.344166 18.798 0
    endloop
  endfacet
  facet normal 0 0 -1
    outer loop
      vertex -1.21977 18.8531 0
      vertex -0.686048 20.3501 0
      vertex -0.780233 18.8531 0
    endloop
  endfacet
  facet normal 0 0 -1
    outer loop
      vertex -1.21977 18.8531 0
      vertex -1.31395 20.3501 0
      vertex -0.686048 20.3501 0
    endloop
  endfacet
  facet normal 0 0 -1
    outer loop
      vertex -1.65583 18.798 0
      vertex -1.31395 20.3501 0
      vertex -1.21977 18.8531 0
    endloop
  endfacet
  facet normal 0 0 -1
    outer loop
      vertex -1.65583 18.798 0
      vertex -1.93691 20.2714 0
      vertex -1.31395 20.3501 0
    endloop
  endfacet
  facet normal 0 0 -1
    outer loop
      vertex -2.08156 18.6887 0
      vertex -1.93691 20.2714 0
      vertex -1.65583 18.798 0
    endloop
  endfacet
  facet normal 0 0 -1
    outer loop
      vertex -2.54508 20.1153 0
      vertex -2.08156 18.6887 0
      vertex -2.49023 18.5269 0
    endloop
  endfacet
  facet normal 0 0 -1
    outer loop
      vertex -2.08156 18.6887 0
      vertex -2.54508 20.1153 0
      vertex -1.93691 20.2714 0
    endloop
  endfacet
  facet normal 0 0 -1
    outer loop
      vertex -3.1289 19.8841 0
      vertex -2.49023 18.5269 0
      vertex -2.87539 18.3151 0
    endloop
  endfacet
  facet normal 0 0 -1
    outer loop
      vertex -2.49023 18.5269 0
      vertex -3.1289 19.8841 0
      vertex -2.54508 20.1153 0
    endloop
  endfacet
  facet normal 0 0 -1
    outer loop
      vertex -3.67913 19.5816 0
      vertex -2.87539 18.3151 0
      vertex -3.23098 18.0568 0
    endloop
  endfacet
  facet normal 0 0 -1
    outer loop
      vertex -4.18712 19.2126 0
      vertex -3.23098 18.0568 0
      vertex -3.55139 17.7559 0
    endloop
  endfacet
  facet normal 0 0 -1
    outer loop
      vertex -2.87539 18.3151 0
      vertex -3.67913 19.5816 0
      vertex -3.1289 19.8841 0
    endloop
  endfacet
  facet normal 0 0 -1
    outer loop
      vertex -4.64484 18.7827 0
      vertex -3.55139 17.7559 0
      vertex -3.83156 17.4172 0
    endloop
  endfacet
  facet normal 0 0 -1
    outer loop
      vertex -5.04508 18.2989 0
      vertex -3.83156 17.4172 0
      vertex -4.06707 17.0461 0
    endloop
  endfacet
  facet normal 0 0 -1
    outer loop
      vertex -3.23098 18.0568 0
      vertex -4.18712 19.2126 0
      vertex -3.67913 19.5816 0
    endloop
  endfacet
  facet normal 0 0 -1
    outer loop
      vertex -5.38153 17.7688 0
      vertex -4.06707 17.0461 0
      vertex -4.25422 16.6484 0
    endloop
  endfacet
  facet normal 0 0 -1
    outer loop
      vertex -5.64888 17.2006 0
      vertex -4.25422 16.6484 0
      vertex -4.39004 16.2304 0
    endloop
  endfacet
  facet normal 0 0 -1
    outer loop
      vertex -5.84292 16.6034 0
      vertex -4.39004 16.2304 0
      vertex -4.4724 15.7987 0
    endloop
  endfacet
  facet normal 0 0 -1
    outer loop
      vertex -3.55139 17.7559 0
      vertex -4.64484 18.7827 0
      vertex -4.18712 19.2126 0
    endloop
  endfacet
  facet normal 0 0 -1
    outer loop
      vertex -5.96057 15.9867 0
      vertex -4.4724 15.7987 0
      vertex -4.5 15.36 0
    endloop
  endfacet
  facet normal -0 0 -1
    outer loop
      vertex -4.25422 14.0716 0
      vertex -5.64888 13.5194 0
      vertex -4.39004 14.4896 0
    endloop
  endfacet
  facet normal 0 0 -1
    outer loop
      vertex -5.84292 14.1166 0
      vertex -4.39004 14.4896 0
      vertex -5.64888 13.5194 0
    endloop
  endfacet
  facet normal 0 0 -1
    outer loop
      vertex -3.83156 17.4172 0
      vertex -5.04508 18.2989 0
      vertex -4.64484 18.7827 0
    endloop
  endfacet
  facet normal -0 0 -1
    outer loop
      vertex -4.39004 14.4896 0
      vertex -5.84292 14.1166 0
      vertex -4.4724 14.9213 0
    endloop
  endfacet
  facet normal 0 0 -1
    outer loop
      vertex -4.06707 17.0461 0
      vertex -5.38153 17.7688 0
      vertex -5.04508 18.2989 0
    endloop
  endfacet
  facet normal 0 0 -1
    outer loop
      vertex -5.96057 14.7333 0
      vertex -4.4724 14.9213 0
      vertex -5.84292 14.1166 0
    endloop
  endfacet
  facet normal 0 0 -1
    outer loop
      vertex -4.25422 16.6484 0
      vertex -5.64888 17.2006 0
      vertex -5.38153 17.7688 0
    endloop
  endfacet
  facet normal -0 0 -1
    outer loop
      vertex -4.4724 14.9213 0
      vertex -5.96057 14.7333 0
      vertex -4.5 15.36 0
    endloop
  endfacet
  facet normal 0 0 -1
    outer loop
      vertex -4.39004 16.2304 0
      vertex -5.84292 16.6034 0
      vertex -5.64888 17.2006 0
    endloop
  endfacet
  facet normal 0 0 -1
    outer loop
      vertex -6 15.36 0
      vertex -4.5 15.36 0
      vertex -5.96057 14.7333 0
    endloop
  endfacet
  facet normal 0 0 -1
    outer loop
      vertex -4.4724 15.7987 0
      vertex -5.96057 15.9867 0
      vertex -5.84292 16.6034 0
    endloop
  endfacet
  facet normal 0 0 -1
    outer loop
      vertex -4.5 15.36 0
      vertex -6 15.36 0
      vertex -5.96057 15.9867 0
    endloop
  endfacet
  facet normal 0.8443 0.53587 0
    outer loop
      vertex 3.38153 17.7688 10
      vertex 3.04508 18.2989 0
      vertex 3.04508 18.2989 10
    endloop
  endfacet
  facet normal 0.8443 0.53587 0
    outer loop
      vertex 3.04508 18.2989 0
      vertex 3.38153 17.7688 10
      vertex 3.38153 17.7688 0
    endloop
  endfacet
  facet normal 0.125337 -0.992114 0
    outer loop
      vertex -0.686048 10.3699 0
      vertex -0.0630941 10.4486 10
      vertex -0.686048 10.3699 10
    endloop
  endfacet
  facet normal 0.125337 -0.992114 0
    outer loop
      vertex -0.0630941 10.4486 10
      vertex -0.686048 10.3699 0
      vertex -0.0630941 10.4486 0
    endloop
  endfacet
  facet normal -0.951057 0.309014 0
    outer loop
      vertex -5.84292 16.6034 0
      vertex -5.64888 17.2006 10
      vertex -5.64888 17.2006 0
    endloop
  endfacet
  facet normal -0.951057 0.309014 0
    outer loop
      vertex -5.64888 17.2006 10
      vertex -5.84292 16.6034 0
      vertex -5.84292 16.6034 10
    endloop
  endfacet
  facet normal 0.998027 -0.0627927 0
    outer loop
      vertex 3.96057 14.7333 10
      vertex 4 15.36 0
      vertex 4 15.36 10
    endloop
  endfacet
  facet normal 0.998027 -0.0627927 0
    outer loop
      vertex 4 15.36 0
      vertex 3.96057 14.7333 10
      vertex 3.96057 14.7333 0
    endloop
  endfacet
  facet normal -0.125336 0.992114 0
    outer loop
      vertex -1.31395 20.3501 0
      vertex -1.93691 20.2714 10
      vertex -1.31395 20.3501 10
    endloop
  endfacet
  facet normal -0.125336 0.992114 0
    outer loop
      vertex -1.93691 20.2714 10
      vertex -1.31395 20.3501 0
      vertex -1.93691 20.2714 0
    endloop
  endfacet
  facet normal -0.248613 -0.968603 0
    outer loop
      vertex -2.54508 10.6047 0
      vertex -1.93691 10.4486 10
      vertex -2.54508 10.6047 10
    endloop
  endfacet
  facet normal -0.248613 -0.968603 -0
    outer loop
      vertex -1.93691 10.4486 10
      vertex -2.54508 10.6047 0
      vertex -1.93691 10.4486 0
    endloop
  endfacet
  facet normal 0.951057 0.309014 0
    outer loop
      vertex 3.84292 16.6034 10
      vertex 3.64888 17.2006 0
      vertex 3.64888 17.2006 10
    endloop
  endfacet
  facet normal 0.951057 0.309014 0
    outer loop
      vertex 3.64888 17.2006 0
      vertex 3.84292 16.6034 10
      vertex 3.84292 16.6034 0
    endloop
  endfacet
  facet normal -0.998027 -0.0627927 0
    outer loop
      vertex -5.96057 14.7333 0
      vertex -6 15.36 10
      vertex -6 15.36 0
    endloop
  endfacet
  facet normal -0.998027 -0.0627927 0
    outer loop
      vertex -6 15.36 10
      vertex -5.96057 14.7333 0
      vertex -5.96057 14.7333 10
    endloop
  endfacet
  facet normal 0.125337 0.992114 -0
    outer loop
      vertex -0.0630941 20.2714 0
      vertex -0.686048 20.3501 10
      vertex -0.0630941 20.2714 10
    endloop
  endfacet
  facet normal 0.125337 0.992114 0
    outer loop
      vertex -0.686048 20.3501 10
      vertex -0.0630941 20.2714 0
      vertex -0.686048 20.3501 0
    endloop
  endfacet
  facet normal -0.684608 0.728911 0
    outer loop
      vertex -4.18712 19.2126 0
      vertex -4.64484 18.7827 10
      vertex -4.18712 19.2126 10
    endloop
  endfacet
  facet normal -0.684608 0.728911 0
    outer loop
      vertex -4.64484 18.7827 10
      vertex -4.18712 19.2126 0
      vertex -4.64484 18.7827 0
    endloop
  endfacet
  facet normal -0.368192 0.92975 0
    outer loop
      vertex -2.54508 20.1153 0
      vertex -3.1289 19.8841 10
      vertex -2.54508 20.1153 10
    endloop
  endfacet
  facet normal -0.368192 0.92975 0
    outer loop
      vertex -3.1289 19.8841 10
      vertex -2.54508 20.1153 0
      vertex -3.1289 19.8841 0
    endloop
  endfacet
  facet normal 0.770509 0.63743 0
    outer loop
      vertex 3.04508 18.2989 10
      vertex 2.64484 18.7827 0
      vertex 2.64484 18.7827 10
    endloop
  endfacet
  facet normal 0.770509 0.63743 0
    outer loop
      vertex 2.64484 18.7827 0
      vertex 3.04508 18.2989 10
      vertex 3.04508 18.2989 0
    endloop
  endfacet
  facet normal -0.587706 -0.809075 0
    outer loop
      vertex -4.18712 11.5074 0
      vertex -3.67913 11.1384 10
      vertex -4.18712 11.5074 10
    endloop
  endfacet
  facet normal -0.587706 -0.809075 -0
    outer loop
      vertex -3.67913 11.1384 10
      vertex -4.18712 11.5074 0
      vertex -3.67913 11.1384 0
    endloop
  endfacet
  facet normal 0.587706 0.809075 -0
    outer loop
      vertex 2.18712 19.2126 0
      vertex 1.67913 19.5816 10
      vertex 2.18712 19.2126 10
    endloop
  endfacet
  facet normal 0.587706 0.809075 0
    outer loop
      vertex 1.67913 19.5816 10
      vertex 2.18712 19.2126 0
      vertex 1.67913 19.5816 0
    endloop
  endfacet
  facet normal -0.248613 0.968603 0
    outer loop
      vertex -1.93691 20.2714 0
      vertex -2.54508 20.1153 10
      vertex -1.93691 20.2714 10
    endloop
  endfacet
  facet normal -0.248613 0.968603 0
    outer loop
      vertex -2.54508 20.1153 10
      vertex -1.93691 20.2714 0
      vertex -2.54508 20.1153 0
    endloop
  endfacet
  facet normal -0.904842 -0.425747 0
    outer loop
      vertex -5.38153 12.9512 0
      vertex -5.64888 13.5194 10
      vertex -5.64888 13.5194 0
    endloop
  endfacet
  facet normal -0.904842 -0.425747 0
    outer loop
      vertex -5.64888 13.5194 10
      vertex -5.38153 12.9512 0
      vertex -5.38153 12.9512 10
    endloop
  endfacet
  facet normal 0 1 -0
    outer loop
      vertex -0.686048 20.3501 0
      vertex -1.31395 20.3501 10
      vertex -0.686048 20.3501 10
    endloop
  endfacet
  facet normal 0 1 0
    outer loop
      vertex -1.31395 20.3501 10
      vertex -0.686048 20.3501 0
      vertex -1.31395 20.3501 0
    endloop
  endfacet
  facet normal 0.248693 -0.968582 0
    outer loop
      vertex -0.0630941 10.4486 0
      vertex 0 10.4648 10
      vertex -0.0630941 10.4486 10
    endloop
  endfacet
  facet normal 0.248693 -0.968582 0
    outer loop
      vertex 0 10.4648 10
      vertex -0.0630941 10.4486 0
      vertex 0 10.4648 0
    endloop
  endfacet
  facet normal 0.481764 0.876301 -0
    outer loop
      vertex 1.67913 19.5816 0
      vertex 1.1289 19.8841 10
      vertex 1.67913 19.5816 10
    endloop
  endfacet
  facet normal 0.481764 0.876301 0
    outer loop
      vertex 1.1289 19.8841 10
      vertex 1.67913 19.5816 0
      vertex 1.1289 19.8841 0
    endloop
  endfacet
  facet normal -0.587706 0.809075 0
    outer loop
      vertex -3.67913 19.5816 0
      vertex -4.18712 19.2126 10
      vertex -3.67913 19.5816 10
    endloop
  endfacet
  facet normal -0.587706 0.809075 0
    outer loop
      vertex -4.18712 19.2126 10
      vertex -3.67913 19.5816 0
      vertex -4.18712 19.2126 0
    endloop
  endfacet
  facet normal -0.770509 0.63743 0
    outer loop
      vertex -5.04508 18.2989 0
      vertex -4.64484 18.7827 10
      vertex -4.64484 18.7827 0
    endloop
  endfacet
  facet normal -0.770509 0.63743 0
    outer loop
      vertex -4.64484 18.7827 10
      vertex -5.04508 18.2989 0
      vertex -5.04508 18.2989 10
    endloop
  endfacet
  facet normal -0.998027 0.0627927 0
    outer loop
      vertex -6 15.36 0
      vertex -5.96057 15.9867 10
      vertex -5.96057 15.9867 0
    endloop
  endfacet
  facet normal -0.998027 0.0627927 0
    outer loop
      vertex -5.96057 15.9867 10
      vertex -6 15.36 0
      vertex -6 15.36 10
    endloop
  endfacet
  facet normal 0.951057 -0.309014 0
    outer loop
      vertex 3.64888 13.5194 10
      vertex 3.84292 14.1166 0
      vertex 3.84292 14.1166 10
    endloop
  endfacet
  facet normal 0.951057 -0.309014 0
    outer loop
      vertex 3.84292 14.1166 0
      vertex 3.64888 13.5194 10
      vertex 3.64888 13.5194 0
    endloop
  endfacet
  facet normal -0.982285 0.187394 0
    outer loop
      vertex -5.96057 15.9867 0
      vertex -5.84292 16.6034 10
      vertex -5.84292 16.6034 0
    endloop
  endfacet
  facet normal -0.982285 0.187394 0
    outer loop
      vertex -5.84292 16.6034 10
      vertex -5.96057 15.9867 0
      vertex -5.96057 15.9867 10
    endloop
  endfacet
  facet normal -0.684608 -0.728911 0
    outer loop
      vertex -4.64484 11.9373 0
      vertex -4.18712 11.5074 10
      vertex -4.64484 11.9373 10
    endloop
  endfacet
  facet normal -0.684608 -0.728911 -0
    outer loop
      vertex -4.18712 11.5074 10
      vertex -4.64484 11.9373 0
      vertex -4.18712 11.5074 0
    endloop
  endfacet
  facet normal -0.904842 0.425747 0
    outer loop
      vertex -5.64888 17.2006 0
      vertex -5.38153 17.7688 10
      vertex -5.38153 17.7688 0
    endloop
  endfacet
  facet normal -0.904842 0.425747 0
    outer loop
      vertex -5.38153 17.7688 10
      vertex -5.64888 17.2006 0
      vertex -5.64888 17.2006 10
    endloop
  endfacet
  facet normal -0.125336 -0.992114 0
    outer loop
      vertex -1.93691 10.4486 0
      vertex -1.31395 10.3699 10
      vertex -1.93691 10.4486 10
    endloop
  endfacet
  facet normal -0.125336 -0.992114 -0
    outer loop
      vertex -1.31395 10.3699 10
      vertex -1.93691 10.4486 0
      vertex -1.31395 10.3699 0
    endloop
  endfacet
  facet normal -0.8443 0.53587 0
    outer loop
      vertex -5.38153 17.7688 0
      vertex -5.04508 18.2989 10
      vertex -5.04508 18.2989 0
    endloop
  endfacet
  facet normal -0.8443 0.53587 0
    outer loop
      vertex -5.04508 18.2989 10
      vertex -5.38153 17.7688 0
      vertex -5.38153 17.7688 10
    endloop
  endfacet
  facet normal 0 0 1
    outer loop
      vertex 3.96057 15.9867 10
      vertex 2.4724 15.7987 10
      vertex 2.5 15.36 10
    endloop
  endfacet
  facet normal 0 0 1
    outer loop
      vertex 3.04508 18.2989 10
      vertex 2.39004 16.2304 10
      vertex 2.4724 15.7987 10
    endloop
  endfacet
  facet normal 0 0 1
    outer loop
      vertex 3.04508 18.2989 10
      vertex 2.25422 16.6484 10
      vertex 2.39004 16.2304 10
    endloop
  endfacet
  facet normal 0 0 1
    outer loop
      vertex 1.55139 17.7559 10
      vertex 2.64484 18.7827 10
      vertex 2.18712 19.2126 10
    endloop
  endfacet
  facet normal 0 0 1
    outer loop
      vertex 3.04508 18.2989 10
      vertex 2.06707 17.0461 10
      vertex 2.25422 16.6484 10
    endloop
  endfacet
  facet normal 0 0 1
    outer loop
      vertex 3.04508 18.2989 10
      vertex 1.83156 17.4172 10
      vertex 2.06707 17.0461 10
    endloop
  endfacet
  facet normal 0 0 1
    outer loop
      vertex 1.23098 18.0568 10
      vertex 2.18712 19.2126 10
      vertex 1.67913 19.5816 10
    endloop
  endfacet
  facet normal 0 0 1
    outer loop
      vertex 2.64484 18.7827 10
      vertex 1.55139 17.7559 10
      vertex 1.83156 17.4172 10
    endloop
  endfacet
  facet normal 0 0 1
    outer loop
      vertex 2.18712 19.2126 10
      vertex 1.23098 18.0568 10
      vertex 1.55139 17.7559 10
    endloop
  endfacet
  facet normal 0 0 1
    outer loop
      vertex 0.875393 18.3151 10
      vertex 1.67913 19.5816 10
      vertex 1.1289 19.8841 10
    endloop
  endfacet
  facet normal 0 0 1
    outer loop
      vertex 1.67913 19.5816 10
      vertex 0.875393 18.3151 10
      vertex 1.23098 18.0568 10
    endloop
  endfacet
  facet normal 0 0 1
    outer loop
      vertex 0.490227 18.5269 10
      vertex 1.1289 19.8841 10
      vertex 0.545085 20.1153 10
    endloop
  endfacet
  facet normal 0 0 1
    outer loop
      vertex 1.1289 19.8841 10
      vertex 0.490227 18.5269 10
      vertex 0.875393 18.3151 10
    endloop
  endfacet
  facet normal 0 0 1
    outer loop
      vertex 0.545085 20.1153 10
      vertex 0.0815592 18.6887 10
      vertex 0.490227 18.5269 10
    endloop
  endfacet
  facet normal 0 0 1
    outer loop
      vertex -0.0630941 20.2714 10
      vertex 0.0815592 18.6887 10
      vertex 0.545085 20.1153 10
    endloop
  endfacet
  facet normal 0 0 1
    outer loop
      vertex -0.0630941 20.2714 10
      vertex -0.344166 18.798 10
      vertex 0.0815592 18.6887 10
    endloop
  endfacet
  facet normal 0 0 1
    outer loop
      vertex -0.686048 20.3501 10
      vertex -0.344166 18.798 10
      vertex -0.0630941 20.2714 10
    endloop
  endfacet
  facet normal 0 0 1
    outer loop
      vertex -0.686048 20.3501 10
      vertex -0.780233 18.8531 10
      vertex -0.344166 18.798 10
    endloop
  endfacet
  facet normal 0 0 1
    outer loop
      vertex -0.686048 20.3501 10
      vertex -1.21977 18.8531 10
      vertex -0.780233 18.8531 10
    endloop
  endfacet
  facet normal -0 0 1
    outer loop
      vertex -1.31395 20.3501 10
      vertex -1.21977 18.8531 10
      vertex -0.686048 20.3501 10
    endloop
  endfacet
  facet normal 0 0 1
    outer loop
      vertex -1.31395 20.3501 10
      vertex -1.65583 18.798 10
      vertex -1.21977 18.8531 10
    endloop
  endfacet
  facet normal -0 0 1
    outer loop
      vertex -1.93691 20.2714 10
      vertex -1.65583 18.798 10
      vertex -1.31395 20.3501 10
    endloop
  endfacet
  facet normal 0 0 1
    outer loop
      vertex -1.93691 20.2714 10
      vertex -2.08156 18.6887 10
      vertex -1.65583 18.798 10
    endloop
  endfacet
  facet normal -0 0 1
    outer loop
      vertex -2.54508 20.1153 10
      vertex -2.08156 18.6887 10
      vertex -1.93691 20.2714 10
    endloop
  endfacet
  facet normal 0 0 1
    outer loop
      vertex -2.08156 18.6887 10
      vertex -2.54508 20.1153 10
      vertex -2.49023 18.5269 10
    endloop
  endfacet
  facet normal -0 0 1
    outer loop
      vertex -3.1289 19.8841 10
      vertex -2.49023 18.5269 10
      vertex -2.54508 20.1153 10
    endloop
  endfacet
  facet normal 0 0 1
    outer loop
      vertex -2.49023 18.5269 10
      vertex -3.1289 19.8841 10
      vertex -2.87539 18.3151 10
    endloop
  endfacet
  facet normal -0 0 1
    outer loop
      vertex -3.67913 19.5816 10
      vertex -2.87539 18.3151 10
      vertex -3.1289 19.8841 10
    endloop
  endfacet
  facet normal 0 0 1
    outer loop
      vertex -2.87539 18.3151 10
      vertex -3.67913 19.5816 10
      vertex -3.23098 18.0568 10
    endloop
  endfacet
  facet normal -0 0 1
    outer loop
      vertex -4.18712 19.2126 10
      vertex -3.23098 18.0568 10
      vertex -3.67913 19.5816 10
    endloop
  endfacet
  facet normal 0 0 1
    outer loop
      vertex -3.23098 18.0568 10
      vertex -4.18712 19.2126 10
      vertex -3.55139 17.7559 10
    endloop
  endfacet
  facet normal -0 0 1
    outer loop
      vertex -4.64484 18.7827 10
      vertex -3.55139 17.7559 10
      vertex -4.18712 19.2126 10
    endloop
  endfacet
  facet normal 0 0 1
    outer loop
      vertex -3.55139 17.7559 10
      vertex -4.64484 18.7827 10
      vertex -3.83156 17.4172 10
    endloop
  endfacet
  facet normal -0 0 1
    outer loop
      vertex -5.04508 18.2989 10
      vertex -3.83156 17.4172 10
      vertex -4.64484 18.7827 10
    endloop
  endfacet
  facet normal 0 0 1
    outer loop
      vertex -3.83156 17.4172 10
      vertex -5.04508 18.2989 10
      vertex -4.06707 17.0461 10
    endloop
  endfacet
  facet normal -0 0 1
    outer loop
      vertex -5.38153 17.7688 10
      vertex -4.06707 17.0461 10
      vertex -5.04508 18.2989 10
    endloop
  endfacet
  facet normal -0 0 1
    outer loop
      vertex -5.64888 17.2006 10
      vertex -4.25422 16.6484 10
      vertex -5.38153 17.7688 10
    endloop
  endfacet
  facet normal 0 0 1
    outer loop
      vertex -4.06707 17.0461 10
      vertex -5.38153 17.7688 10
      vertex -4.25422 16.6484 10
    endloop
  endfacet
  facet normal 0 0 1
    outer loop
      vertex 2.5 15.36 10
      vertex 4 15.36 10
      vertex 3.96057 15.9867 10
    endloop
  endfacet
  facet normal 0 0 1
    outer loop
      vertex 2.4724 15.7987 10
      vertex 3.96057 15.9867 10
      vertex 3.84292 16.6034 10
    endloop
  endfacet
  facet normal 0 0 1
    outer loop
      vertex 4 15.36 10
      vertex 2.5 15.36 10
      vertex 3.96057 14.7333 10
    endloop
  endfacet
  facet normal 0 0 1
    outer loop
      vertex 2.4724 15.7987 10
      vertex 3.84292 16.6034 10
      vertex 3.64888 17.2006 10
    endloop
  endfacet
  facet normal -0 0 1
    outer loop
      vertex 2.4724 14.9213 10
      vertex 3.96057 14.7333 10
      vertex 2.5 15.36 10
    endloop
  endfacet
  facet normal 0 0 1
    outer loop
      vertex 3.96057 14.7333 10
      vertex 2.4724 14.9213 10
      vertex 3.84292 14.1166 10
    endloop
  endfacet
  facet normal 0 0 1
    outer loop
      vertex 2.4724 15.7987 10
      vertex 3.64888 17.2006 10
      vertex 3.38153 17.7688 10
    endloop
  endfacet
  facet normal -0 0 1
    outer loop
      vertex 3.57388 13.36 10
      vertex 10 11.36 10
      vertex 10 13.36 10
    endloop
  endfacet
  facet normal 0 0 1
    outer loop
      vertex 2.4724 15.7987 10
      vertex 3.38153 17.7688 10
      vertex 3.04508 18.2989 10
    endloop
  endfacet
  facet normal 0 0 1
    outer loop
      vertex 1.83156 17.4172 10
      vertex 3.04508 18.2989 10
      vertex 2.64484 18.7827 10
    endloop
  endfacet
  facet normal -0 0 1
    outer loop
      vertex 2.39004 14.4896 10
      vertex 3.84292 14.1166 10
      vertex 2.4724 14.9213 10
    endloop
  endfacet
  facet normal 0 0 1
    outer loop
      vertex 3.84292 14.1166 10
      vertex 2.39004 14.4896 10
      vertex 3.64888 13.5194 10
    endloop
  endfacet
  facet normal -0 0 1
    outer loop
      vertex 2.25422 14.0716 10
      vertex 3.64888 13.5194 10
      vertex 2.39004 14.4896 10
    endloop
  endfacet
  facet normal 0 0 1
    outer loop
      vertex 3.64888 13.5194 10
      vertex 2.25422 14.0716 10
      vertex 3.57388 13.36 10
    endloop
  endfacet
  facet normal -0 0 1
    outer loop
      vertex 2.06707 13.6739 10
      vertex 3.57388 13.36 10
      vertex 2.25422 14.0716 10
    endloop
  endfacet
  facet normal 0 0 1
    outer loop
      vertex 1.86789 13.36 10
      vertex 3.57388 13.36 10
      vertex 2.06707 13.6739 10
    endloop
  endfacet
  facet normal 0 0 1
    outer loop
      vertex 3.57388 13.36 10
      vertex 2 11.36 10
      vertex 10 11.36 10
    endloop
  endfacet
  facet normal -0 0 1
    outer loop
      vertex 0 12.0104 10
      vertex 2 11.36 10
      vertex 1.86789 13.36 10
    endloop
  endfacet
  facet normal 0 0 1
    outer loop
      vertex 3.57388 13.36 10
      vertex 1.86789 13.36 10
      vertex 2 11.36 10
    endloop
  endfacet
  facet normal -0 0 1
    outer loop
      vertex 2 2 10
      vertex 10 0 10
      vertex 10 2 10
    endloop
  endfacet
  facet normal 0 0 1
    outer loop
      vertex 0 12.0104 10
      vertex 1.86789 13.36 10
      vertex 0 13.36 10
    endloop
  endfacet
  facet normal 0 0 1
    outer loop
      vertex 2 11.36 10
      vertex 0 12.0104 10
      vertex 0 10.4648 10
    endloop
  endfacet
  facet normal 0 0 1
    outer loop
      vertex 2 11.36 10
      vertex 0 10.4648 10
      vertex 2 2 10
    endloop
  endfacet
  facet normal 0 0 1
    outer loop
      vertex 2 2 10
      vertex 0 0 10
      vertex 10 0 10
    endloop
  endfacet
  facet normal 0 0 1
    outer loop
      vertex 0 0 10
      vertex 2 2 10
      vertex 0 10.4648 10
    endloop
  endfacet
  facet normal -0 0 1
    outer loop
      vertex -0.344166 11.922 10
      vertex 0 10.4648 10
      vertex 0 12.0104 10
    endloop
  endfacet
  facet normal 0 0 1
    outer loop
      vertex 0 10.4648 10
      vertex -0.344166 11.922 10
      vertex -0.0630941 10.4486 10
    endloop
  endfacet
  facet normal 0 0 1
    outer loop
      vertex -0.344166 11.922 10
      vertex -0.686048 10.3699 10
      vertex -0.0630941 10.4486 10
    endloop
  endfacet
  facet normal -0 0 1
    outer loop
      vertex -0.780233 11.8669 10
      vertex -0.686048 10.3699 10
      vertex -0.344166 11.922 10
    endloop
  endfacet
  facet normal -0 0 1
    outer loop
      vertex -1.21977 11.8669 10
      vertex -0.686048 10.3699 10
      vertex -0.780233 11.8669 10
    endloop
  endfacet
  facet normal 0 0 1
    outer loop
      vertex -1.21977 11.8669 10
      vertex -1.31395 10.3699 10
      vertex -0.686048 10.3699 10
    endloop
  endfacet
  facet normal 0 0 1
    outer loop
      vertex -1.65583 11.922 10
      vertex -1.31395 10.3699 10
      vertex -1.21977 11.8669 10
    endloop
  endfacet
  facet normal 0 0 1
    outer loop
      vertex -1.65583 11.922 10
      vertex -1.93691 10.4486 10
      vertex -1.31395 10.3699 10
    endloop
  endfacet
  facet normal 0 0 1
    outer loop
      vertex -2.08156 12.0313 10
      vertex -1.93691 10.4486 10
      vertex -1.65583 11.922 10
    endloop
  endfacet
  facet normal 0 0 1
    outer loop
      vertex -2.54508 10.6047 10
      vertex -2.08156 12.0313 10
      vertex -2.49023 12.1931 10
    endloop
  endfacet
  facet normal 0 0 1
    outer loop
      vertex -2.08156 12.0313 10
      vertex -2.54508 10.6047 10
      vertex -1.93691 10.4486 10
    endloop
  endfacet
  facet normal 0 0 1
    outer loop
      vertex -3.1289 10.8359 10
      vertex -2.49023 12.1931 10
      vertex -2.87539 12.4049 10
    endloop
  endfacet
  facet normal 0 0 1
    outer loop
      vertex -2.49023 12.1931 10
      vertex -3.1289 10.8359 10
      vertex -2.54508 10.6047 10
    endloop
  endfacet
  facet normal 0 0 1
    outer loop
      vertex -3.67913 11.1384 10
      vertex -2.87539 12.4049 10
      vertex -3.23098 12.6632 10
    endloop
  endfacet
  facet normal 0 0 1
    outer loop
      vertex -4.18712 11.5074 10
      vertex -3.23098 12.6632 10
      vertex -3.55139 12.9641 10
    endloop
  endfacet
  facet normal 0 0 1
    outer loop
      vertex -2.87539 12.4049 10
      vertex -3.67913 11.1384 10
      vertex -3.1289 10.8359 10
    endloop
  endfacet
  facet normal 0 0 1
    outer loop
      vertex -4.64484 11.9373 10
      vertex -3.55139 12.9641 10
      vertex -3.83156 13.3028 10
    endloop
  endfacet
  facet normal 0 0 1
    outer loop
      vertex -5.04508 12.4211 10
      vertex -3.83156 13.3028 10
      vertex -4.06707 13.6739 10
    endloop
  endfacet
  facet normal 0 0 1
    outer loop
      vertex -3.23098 12.6632 10
      vertex -4.18712 11.5074 10
      vertex -3.67913 11.1384 10
    endloop
  endfacet
  facet normal 0 0 1
    outer loop
      vertex -5.38153 12.9512 10
      vertex -4.06707 13.6739 10
      vertex -4.25422 14.0716 10
    endloop
  endfacet
  facet normal 0 0 1
    outer loop
      vertex -5.64888 13.5194 10
      vertex -4.25422 14.0716 10
      vertex -4.39004 14.4896 10
    endloop
  endfacet
  facet normal 0 0 1
    outer loop
      vertex -5.84292 14.1166 10
      vertex -4.39004 14.4896 10
      vertex -4.4724 14.9213 10
    endloop
  endfacet
  facet normal 0 0 1
    outer loop
      vertex -3.55139 12.9641 10
      vertex -4.64484 11.9373 10
      vertex -4.18712 11.5074 10
    endloop
  endfacet
  facet normal 0 0 1
    outer loop
      vertex -5.96057 14.7333 10
      vertex -4.4724 14.9213 10
      vertex -4.5 15.36 10
    endloop
  endfacet
  facet normal 0 0 1
    outer loop
      vertex -4.25422 16.6484 10
      vertex -5.64888 17.2006 10
      vertex -4.39004 16.2304 10
    endloop
  endfacet
  facet normal -0 0 1
    outer loop
      vertex -5.84292 16.6034 10
      vertex -4.39004 16.2304 10
      vertex -5.64888 17.2006 10
    endloop
  endfacet
  facet normal 0 0 1
    outer loop
      vertex -3.83156 13.3028 10
      vertex -5.04508 12.4211 10
      vertex -4.64484 11.9373 10
    endloop
  endfacet
  facet normal 0 0 1
    outer loop
      vertex -4.39004 16.2304 10
      vertex -5.84292 16.6034 10
      vertex -4.4724 15.7987 10
    endloop
  endfacet
  facet normal 0 0 1
    outer loop
      vertex -4.06707 13.6739 10
      vertex -5.38153 12.9512 10
      vertex -5.04508 12.4211 10
    endloop
  endfacet
  facet normal -0 0 1
    outer loop
      vertex -5.96057 15.9867 10
      vertex -4.4724 15.7987 10
      vertex -5.84292 16.6034 10
    endloop
  endfacet
  facet normal 0 0 1
    outer loop
      vertex -4.25422 14.0716 10
      vertex -5.64888 13.5194 10
      vertex -5.38153 12.9512 10
    endloop
  endfacet
  facet normal 0 0 1
    outer loop
      vertex -4.4724 15.7987 10
      vertex -5.96057 15.9867 10
      vertex -4.5 15.36 10
    endloop
  endfacet
  facet normal 0 0 1
    outer loop
      vertex -4.39004 14.4896 10
      vertex -5.84292 14.1166 10
      vertex -5.64888 13.5194 10
    endloop
  endfacet
  facet normal 0 0 1
    outer loop
      vertex -6 15.36 10
      vertex -4.5 15.36 10
      vertex -5.96057 15.9867 10
    endloop
  endfacet
  facet normal 0 0 1
    outer loop
      vertex -4.4724 14.9213 10
      vertex -5.96057 14.7333 10
      vertex -5.84292 14.1166 10
    endloop
  endfacet
  facet normal 0 0 1
    outer loop
      vertex -4.5 15.36 10
      vertex -6 15.36 10
      vertex -5.96057 14.7333 10
    endloop
  endfacet
  facet normal -0.982284 -0.187401 0
    outer loop
      vertex 2.4724 15.7987 0
      vertex 2.39004 16.2304 10
      vertex 2.39004 16.2304 0
    endloop
  endfacet
  facet normal -0.982284 -0.187401 0
    outer loop
      vertex 2.39004 16.2304 10
      vertex 2.4724 15.7987 0
      vertex 2.4724 15.7987 10
    endloop
  endfacet
  facet normal -0.998027 -0.062789 0
    outer loop
      vertex 2.5 15.36 0
      vertex 2.4724 15.7987 10
      vertex 2.4724 15.7987 0
    endloop
  endfacet
  facet normal -0.998027 -0.062789 0
    outer loop
      vertex 2.4724 15.7987 10
      vertex 2.5 15.36 0
      vertex 2.5 15.36 10
    endloop
  endfacet
  facet normal 0.248671 0.968588 -0
    outer loop
      vertex -1.65583 11.922 0
      vertex -2.08156 12.0313 10
      vertex -1.65583 11.922 10
    endloop
  endfacet
  facet normal 0.248671 0.968588 0
    outer loop
      vertex -2.08156 12.0313 10
      vertex -1.65583 11.922 0
      vertex -2.08156 12.0313 0
    endloop
  endfacet
  facet normal -0.844325 -0.535831 0
    outer loop
      vertex 2.06707 17.0461 0
      vertex 1.83156 17.4172 10
      vertex 1.83156 17.4172 0
    endloop
  endfacet
  facet normal -0.844325 -0.535831 0
    outer loop
      vertex 1.83156 17.4172 10
      vertex 2.06707 17.0461 0
      vertex 2.06707 17.0461 10
    endloop
  endfacet
  facet normal -0.587712 -0.80907 0
    outer loop
      vertex 0.875393 18.3151 0
      vertex 1.23098 18.0568 10
      vertex 0.875393 18.3151 10
    endloop
  endfacet
  facet normal -0.587712 -0.80907 -0
    outer loop
      vertex 1.23098 18.0568 10
      vertex 0.875393 18.3151 0
      vertex 1.23098 18.0568 0
    endloop
  endfacet
  facet normal -0.248778 0.968561 0
    outer loop
      vertex 0 12.0104 0
      vertex -0.344166 11.922 10
      vertex 0 12.0104 10
    endloop
  endfacet
  facet normal -0.248778 0.968561 0
    outer loop
      vertex -0.344166 11.922 10
      vertex 0 12.0104 0
      vertex -0.344166 11.922 0
    endloop
  endfacet
  facet normal -0.951054 0.309024 0
    outer loop
      vertex 2.25422 14.0716 0
      vertex 2.39004 14.4896 10
      vertex 2.39004 14.4896 0
    endloop
  endfacet
  facet normal -0.951054 0.309024 0
    outer loop
      vertex 2.39004 14.4896 10
      vertex 2.25422 14.0716 0
      vertex 2.25422 14.0716 10
    endloop
  endfacet
  facet normal -0.368119 -0.929779 0
    outer loop
      vertex 0.0815592 18.6887 0
      vertex 0.490227 18.5269 10
      vertex 0.0815592 18.6887 10
    endloop
  endfacet
  facet normal -0.368119 -0.929779 -0
    outer loop
      vertex 0.490227 18.5269 10
      vertex 0.0815592 18.6887 0
      vertex 0.490227 18.5269 0
    endloop
  endfacet
  facet normal -0.844361 0.535775 0
    outer loop
      vertex 1.86789 13.36 0
      vertex 2.06707 13.6739 10
      vertex 2.06707 13.6739 0
    endloop
  endfacet
  facet normal -0.844361 0.535775 0
    outer loop
      vertex 2.06707 13.6739 10
      vertex 1.86789 13.36 0
      vertex 1.86789 13.36 10
    endloop
  endfacet
  facet normal 0 -1 0
    outer loop
      vertex -1.21977 18.8531 0
      vertex -0.780233 18.8531 10
      vertex -1.21977 18.8531 10
    endloop
  endfacet
  facet normal 0 -1 -0
    outer loop
      vertex -0.780233 18.8531 10
      vertex -1.21977 18.8531 0
      vertex -0.780233 18.8531 0
    endloop
  endfacet
  facet normal -0.904821 -0.425792 0
    outer loop
      vertex 2.25422 16.6484 0
      vertex 2.06707 17.0461 10
      vertex 2.06707 17.0461 0
    endloop
  endfacet
  facet normal -0.904821 -0.425792 0
    outer loop
      vertex 2.06707 17.0461 10
      vertex 2.25422 16.6484 0
      vertex 2.25422 16.6484 10
    endloop
  endfacet
  facet normal -0.12536 0.992111 0
    outer loop
      vertex -0.344166 11.922 0
      vertex -0.780233 11.8669 10
      vertex -0.344166 11.922 10
    endloop
  endfacet
  facet normal -0.12536 0.992111 0
    outer loop
      vertex -0.780233 11.8669 10
      vertex -0.344166 11.922 0
      vertex -0.780233 11.8669 0
    endloop
  endfacet
  facet normal 0.125362 0.992111 -0
    outer loop
      vertex -1.21977 11.8669 0
      vertex -1.65583 11.922 10
      vertex -1.21977 11.8669 10
    endloop
  endfacet
  facet normal 0.125362 0.992111 0
    outer loop
      vertex -1.65583 11.922 10
      vertex -1.21977 11.8669 0
      vertex -1.65583 11.922 0
    endloop
  endfacet
  facet normal 0.770543 0.637388 0
    outer loop
      vertex -3.55139 12.9641 10
      vertex -3.83156 13.3028 0
      vertex -3.83156 13.3028 10
    endloop
  endfacet
  facet normal 0.770543 0.637388 0
    outer loop
      vertex -3.83156 13.3028 0
      vertex -3.55139 12.9641 10
      vertex -3.55139 12.9641 0
    endloop
  endfacet
  facet normal 0.684565 -0.728952 0
    outer loop
      vertex -3.55139 17.7559 0
      vertex -3.23098 18.0568 10
      vertex -3.55139 17.7559 10
    endloop
  endfacet
  facet normal 0.684565 -0.728952 0
    outer loop
      vertex -3.23098 18.0568 10
      vertex -3.55139 17.7559 0
      vertex -3.23098 18.0568 0
    endloop
  endfacet
  facet normal 0.587709 0.809072 -0
    outer loop
      vertex -2.87539 12.4049 0
      vertex -3.23098 12.6632 10
      vertex -2.87539 12.4049 10
    endloop
  endfacet
  facet normal 0.587709 0.809072 0
    outer loop
      vertex -3.23098 12.6632 10
      vertex -2.87539 12.4049 0
      vertex -3.23098 12.6632 0
    endloop
  endfacet
  facet normal 0.684565 0.728952 -0
    outer loop
      vertex -3.23098 12.6632 0
      vertex -3.55139 12.9641 10
      vertex -3.23098 12.6632 10
    endloop
  endfacet
  facet normal 0.684565 0.728952 0
    outer loop
      vertex -3.55139 12.9641 10
      vertex -3.23098 12.6632 0
      vertex -3.55139 12.9641 0
    endloop
  endfacet
  facet normal -0.248674 -0.968587 0
    outer loop
      vertex -0.344166 18.798 0
      vertex 0.0815592 18.6887 10
      vertex -0.344166 18.798 10
    endloop
  endfacet
  facet normal -0.248674 -0.968587 -0
    outer loop
      vertex 0.0815592 18.6887 10
      vertex -0.344166 18.798 0
      vertex 0.0815592 18.6887 0
    endloop
  endfacet
  facet normal 0.844325 -0.535831 0
    outer loop
      vertex -4.06707 17.0461 10
      vertex -3.83156 17.4172 0
      vertex -3.83156 17.4172 10
    endloop
  endfacet
  facet normal 0.844325 -0.535831 0
    outer loop
      vertex -3.83156 17.4172 0
      vertex -4.06707 17.0461 10
      vertex -4.06707 17.0461 0
    endloop
  endfacet
  facet normal -0.998027 0.062789 0
    outer loop
      vertex 2.4724 14.9213 0
      vertex 2.5 15.36 10
      vertex 2.5 15.36 0
    endloop
  endfacet
  facet normal -0.998027 0.062789 0
    outer loop
      vertex 2.5 15.36 10
      vertex 2.4724 14.9213 0
      vertex 2.4724 14.9213 10
    endloop
  endfacet
  facet normal 0.368117 -0.92978 0
    outer loop
      vertex -2.49023 18.5269 0
      vertex -2.08156 18.6887 10
      vertex -2.49023 18.5269 10
    endloop
  endfacet
  facet normal 0.368117 -0.92978 0
    outer loop
      vertex -2.08156 18.6887 10
      vertex -2.49023 18.5269 0
      vertex -2.08156 18.6887 0
    endloop
  endfacet
  facet normal 0.982284 0.187401 0
    outer loop
      vertex -4.39004 14.4896 10
      vertex -4.4724 14.9213 0
      vertex -4.4724 14.9213 10
    endloop
  endfacet
  facet normal 0.982284 0.187401 0
    outer loop
      vertex -4.4724 14.9213 0
      vertex -4.39004 14.4896 10
      vertex -4.39004 14.4896 0
    endloop
  endfacet
  facet normal -0.982284 0.187401 0
    outer loop
      vertex 2.39004 14.4896 0
      vertex 2.4724 14.9213 10
      vertex 2.4724 14.9213 0
    endloop
  endfacet
  facet normal -0.982284 0.187401 0
    outer loop
      vertex 2.4724 14.9213 10
      vertex 2.39004 14.4896 0
      vertex 2.39004 14.4896 10
    endloop
  endfacet
  facet normal 0.951054 -0.309024 0
    outer loop
      vertex -4.39004 16.2304 10
      vertex -4.25422 16.6484 0
      vertex -4.25422 16.6484 10
    endloop
  endfacet
  facet normal 0.951054 -0.309024 0
    outer loop
      vertex -4.25422 16.6484 0
      vertex -4.39004 16.2304 10
      vertex -4.39004 16.2304 0
    endloop
  endfacet
  facet normal 0.248671 -0.968588 0
    outer loop
      vertex -2.08156 18.6887 0
      vertex -1.65583 18.798 10
      vertex -2.08156 18.6887 10
    endloop
  endfacet
  facet normal 0.248671 -0.968588 0
    outer loop
      vertex -1.65583 18.798 10
      vertex -2.08156 18.6887 0
      vertex -1.65583 18.798 0
    endloop
  endfacet
  facet normal 0 1 -0
    outer loop
      vertex -0.780233 11.8669 0
      vertex -1.21977 11.8669 10
      vertex -0.780233 11.8669 10
    endloop
  endfacet
  facet normal 0 1 0
    outer loop
      vertex -1.21977 11.8669 10
      vertex -0.780233 11.8669 0
      vertex -1.21977 11.8669 0
    endloop
  endfacet
  facet normal 0.844325 0.535831 0
    outer loop
      vertex -3.83156 13.3028 10
      vertex -4.06707 13.6739 0
      vertex -4.06707 13.6739 10
    endloop
  endfacet
  facet normal 0.844325 0.535831 0
    outer loop
      vertex -4.06707 13.6739 0
      vertex -3.83156 13.3028 10
      vertex -3.83156 13.3028 0
    endloop
  endfacet
  facet normal -0.904821 0.425792 0
    outer loop
      vertex 2.06707 13.6739 0
      vertex 2.25422 14.0716 10
      vertex 2.25422 14.0716 0
    endloop
  endfacet
  facet normal -0.904821 0.425792 0
    outer loop
      vertex 2.25422 14.0716 10
      vertex 2.06707 13.6739 0
      vertex 2.06707 13.6739 10
    endloop
  endfacet
  facet normal -0.684565 -0.728952 0
    outer loop
      vertex 1.23098 18.0568 0
      vertex 1.55139 17.7559 10
      vertex 1.23098 18.0568 10
    endloop
  endfacet
  facet normal -0.684565 -0.728952 -0
    outer loop
      vertex 1.55139 17.7559 10
      vertex 1.23098 18.0568 0
      vertex 1.55139 17.7559 0
    endloop
  endfacet
  facet normal -0.481847 -0.876256 0
    outer loop
      vertex 0.490227 18.5269 0
      vertex 0.875393 18.3151 10
      vertex 0.490227 18.5269 10
    endloop
  endfacet
  facet normal -0.481847 -0.876256 -0
    outer loop
      vertex 0.875393 18.3151 10
      vertex 0.490227 18.5269 0
      vertex 0.875393 18.3151 0
    endloop
  endfacet
  facet normal -0.951054 -0.309024 0
    outer loop
      vertex 2.39004 16.2304 0
      vertex 2.25422 16.6484 10
      vertex 2.25422 16.6484 0
    endloop
  endfacet
  facet normal -0.951054 -0.309024 0
    outer loop
      vertex 2.25422 16.6484 10
      vertex 2.39004 16.2304 0
      vertex 2.39004 16.2304 10
    endloop
  endfacet
  facet normal -0.770543 -0.637388 0
    outer loop
      vertex 1.83156 17.4172 0
      vertex 1.55139 17.7559 10
      vertex 1.55139 17.7559 0
    endloop
  endfacet
  facet normal -0.770543 -0.637388 0
    outer loop
      vertex 1.55139 17.7559 10
      vertex 1.83156 17.4172 0
      vertex 1.83156 17.4172 10
    endloop
  endfacet
  facet normal 0.998027 0.062789 0
    outer loop
      vertex -4.4724 14.9213 10
      vertex -4.5 15.36 0
      vertex -4.5 15.36 10
    endloop
  endfacet
  facet normal 0.998027 0.062789 0
    outer loop
      vertex -4.5 15.36 0
      vertex -4.4724 14.9213 10
      vertex -4.4724 14.9213 0
    endloop
  endfacet
  facet normal 0.125362 -0.992111 0
    outer loop
      vertex -1.65583 18.798 0
      vertex -1.21977 18.8531 10
      vertex -1.65583 18.798 10
    endloop
  endfacet
  facet normal 0.125362 -0.992111 0
    outer loop
      vertex -1.21977 18.8531 10
      vertex -1.65583 18.798 0
      vertex -1.21977 18.8531 0
    endloop
  endfacet
  facet normal 0.951054 0.309024 0
    outer loop
      vertex -4.25422 14.0716 10
      vertex -4.39004 14.4896 0
      vertex -4.39004 14.4896 10
    endloop
  endfacet
  facet normal 0.951054 0.309024 0
    outer loop
      vertex -4.39004 14.4896 0
      vertex -4.25422 14.0716 10
      vertex -4.25422 14.0716 0
    endloop
  endfacet
  facet normal 0.481852 -0.876252 0
    outer loop
      vertex -2.87539 18.3151 0
      vertex -2.49023 18.5269 10
      vertex -2.87539 18.3151 10
    endloop
  endfacet
  facet normal 0.481852 -0.876252 0
    outer loop
      vertex -2.49023 18.5269 10
      vertex -2.87539 18.3151 0
      vertex -2.49023 18.5269 0
    endloop
  endfacet
  facet normal 0.998027 -0.062789 0
    outer loop
      vertex -4.5 15.36 10
      vertex -4.4724 15.7987 0
      vertex -4.4724 15.7987 10
    endloop
  endfacet
  facet normal 0.998027 -0.062789 0
    outer loop
      vertex -4.4724 15.7987 0
      vertex -4.5 15.36 10
      vertex -4.5 15.36 0
    endloop
  endfacet
  facet normal 0.368117 0.92978 -0
    outer loop
      vertex -2.08156 12.0313 0
      vertex -2.49023 12.1931 10
      vertex -2.08156 12.0313 10
    endloop
  endfacet
  facet normal 0.368117 0.92978 0
    outer loop
      vertex -2.49023 12.1931 10
      vertex -2.08156 12.0313 0
      vertex -2.49023 12.1931 0
    endloop
  endfacet
  facet normal -0.12536 -0.992111 0
    outer loop
      vertex -0.780233 18.8531 0
      vertex -0.344166 18.798 10
      vertex -0.780233 18.8531 10
    endloop
  endfacet
  facet normal -0.12536 -0.992111 -0
    outer loop
      vertex -0.344166 18.798 10
      vertex -0.780233 18.8531 0
      vertex -0.344166 18.798 0
    endloop
  endfacet
  facet normal 0.770543 -0.637388 0
    outer loop
      vertex -3.83156 17.4172 10
      vertex -3.55139 17.7559 0
      vertex -3.55139 17.7559 10
    endloop
  endfacet
  facet normal 0.770543 -0.637388 0
    outer loop
      vertex -3.55139 17.7559 0
      vertex -3.83156 17.4172 10
      vertex -3.83156 17.4172 0
    endloop
  endfacet
  facet normal 0.982284 -0.187401 0
    outer loop
      vertex -4.4724 15.7987 10
      vertex -4.39004 16.2304 0
      vertex -4.39004 16.2304 10
    endloop
  endfacet
  facet normal 0.982284 -0.187401 0
    outer loop
      vertex -4.39004 16.2304 0
      vertex -4.4724 15.7987 10
      vertex -4.4724 15.7987 0
    endloop
  endfacet
  facet normal 0.587709 -0.809072 0
    outer loop
      vertex -3.23098 18.0568 0
      vertex -2.87539 18.3151 10
      vertex -3.23098 18.0568 10
    endloop
  endfacet
  facet normal 0.587709 -0.809072 0
    outer loop
      vertex -2.87539 18.3151 10
      vertex -3.23098 18.0568 0
      vertex -2.87539 18.3151 0
    endloop
  endfacet
  facet normal 0.904821 0.425792 0
    outer loop
      vertex -4.06707 13.6739 10
      vertex -4.25422 14.0716 0
      vertex -4.25422 14.0716 10
    endloop
  endfacet
  facet normal 0.904821 0.425792 0
    outer loop
      vertex -4.25422 14.0716 0
      vertex -4.06707 13.6739 10
      vertex -4.06707 13.6739 0
    endloop
  endfacet
  facet normal 0.481852 0.876252 -0
    outer loop
      vertex -2.49023 12.1931 0
      vertex -2.87539 12.4049 10
      vertex -2.49023 12.1931 10
    endloop
  endfacet
  facet normal 0.481852 0.876252 0
    outer loop
      vertex -2.87539 12.4049 10
      vertex -2.49023 12.1931 0
      vertex -2.87539 12.4049 0
    endloop
  endfacet
  facet normal 0.904821 -0.425792 0
    outer loop
      vertex -4.25422 16.6484 10
      vertex -4.06707 17.0461 0
      vertex -4.06707 17.0461 10
    endloop
  endfacet
  facet normal 0.904821 -0.425792 0
    outer loop
      vertex -4.06707 17.0461 0
      vertex -4.25422 16.6484 10
      vertex -4.25422 16.6484 0
    endloop
  endfacet
  facet normal -1 0 0
    outer loop
      vertex 0 12.0104 0
      vertex 0 13.36 10
      vertex 0 13.36 0
    endloop
  endfacet
  facet normal -1 -0 0
    outer loop
      vertex 0 13.36 10
      vertex 0 12.0104 0
      vertex 0 12.0104 10
    endloop
  endfacet
  facet normal -1 0 0
    outer loop
      vertex 0 0 0
      vertex 0 10.4648 10
      vertex 0 10.4648 0
    endloop
  endfacet
  facet normal -1 -0 0
    outer loop
      vertex 0 10.4648 10
      vertex 0 0 0
      vertex 0 0 10
    endloop
  endfacet
  facet normal 0 1 -0
    outer loop
      vertex 1.86789 13.36 0
      vertex 0 13.36 10
      vertex 1.86789 13.36 10
    endloop
  endfacet
  facet normal 0 1 0
    outer loop
      vertex 0 13.36 10
      vertex 1.86789 13.36 0
      vertex 0 13.36 0
    endloop
  endfacet
  facet normal 0 1 -0
    outer loop
      vertex 10 13.36 0
      vertex 3.57388 13.36 10
      vertex 10 13.36 10
    endloop
  endfacet
  facet normal 0 1 0
    outer loop
      vertex 3.57388 13.36 10
      vertex 10 13.36 0
      vertex 3.57388 13.36 0
    endloop
  endfacet
  facet normal 0 -1 0
    outer loop
      vertex 0 0 0
      vertex 10 0 10
      vertex 0 0 10
    endloop
  endfacet
  facet normal 0 -1 -0
    outer loop
      vertex 10 0 10
      vertex 0 0 0
      vertex 10 0 0
    endloop
  endfacet
  facet normal 1 -0 0
    outer loop
      vertex 2 2 10
      vertex 2 11.36 0
      vertex 2 11.36 10
    endloop
  endfacet
  facet normal 1 0 0
    outer loop
      vertex 2 11.36 0
      vertex 2 2 10
      vertex 2 2 0
    endloop
  endfacet
  facet normal 0 -1 0
    outer loop
      vertex 2 11.36 0
      vertex 10 11.36 10
      vertex 2 11.36 10
    endloop
  endfacet
  facet normal 0 -1 -0
    outer loop
      vertex 10 11.36 10
      vertex 2 11.36 0
      vertex 10 11.36 0
    endloop
  endfacet
  facet normal 0 1 -0
    outer loop
      vertex 10 2 0
      vertex 2 2 10
      vertex 10 2 10
    endloop
  endfacet
  facet normal 0 1 0
    outer loop
      vertex 2 2 10
      vertex 10 2 0
      vertex 2 2 0
    endloop
  endfacet
  facet normal 1 -0 0
    outer loop
      vertex 10 11.36 10
      vertex 10 13.36 0
      vertex 10 13.36 10
    endloop
  endfacet
  facet normal 1 0 0
    outer loop
      vertex 10 13.36 0
      vertex 10 11.36 10
      vertex 10 11.36 0
    endloop
  endfacet
  facet normal 1 -0 0
    outer loop
      vertex 10 0 10
      vertex 10 2 0
      vertex 10 2 10
    endloop
  endfacet
  facet normal 1 0 0
    outer loop
      vertex 10 2 0
      vertex 10 0 10
      vertex 10 0 0
    endloop
  endfacet
endsolid OpenSCAD_Model
