solid OpenSCAD_Model
  facet normal -0 0 1
    outer loop
      vertex 19.05 32.6 38.1
      vertex 38.1 0 38.1
      vertex 38.1 32.6 38.1
    endloop
  endfacet
  facet normal 0 0 1
    outer loop
      vertex 38.1 0 38.1
      vertex 19.05 32.6 38.1
      vertex 19.05 0 38.1
    endloop
  endfacet
  facet normal -1 0 0
    outer loop
      vertex 0 32.6 0
      vertex 0 24.45 28.575
      vertex 0 32.6 57.15
    endloop
  endfacet
  facet normal -1 0 0
    outer loop
      vertex 0 32.6 0
      vertex 0 8.15 28.575
      vertex 0 24.45 28.575
    endloop
  endfacet
  facet normal -1 0 0
    outer loop
      vertex 0 0 57.15
      vertex 0 8.15 28.575
      vertex 0 0 0
    endloop
  endfacet
  facet normal -1 0 0
    outer loop
      vertex 0 0 0
      vertex 0 8.15 28.575
      vertex 0 32.6 0
    endloop
  endfacet
  facet normal -1 0 0
    outer loop
      vertex 0 24.45 34.875
      vertex 0 32.6 57.15
      vertex 0 24.45 28.575
    endloop
  endfacet
  facet normal -1 0 0
    outer loop
      vertex 0 8.15 34.875
      vertex 0 32.6 57.15
      vertex 0 24.45 34.875
    endloop
  endfacet
  facet normal -1 0 0
    outer loop
      vertex 0 8.15 34.875
      vertex 0 0 57.15
      vertex 0 32.6 57.15
    endloop
  endfacet
  facet normal -1 0 0
    outer loop
      vertex 0 8.15 28.575
      vertex 0 0 57.15
      vertex 0 8.15 34.875
    endloop
  endfacet
  facet normal 0 1 0
    outer loop
      vertex 38.1 32.6 38.1
      vertex 0 32.6 0
      vertex 19.05 32.6 38.1
    endloop
  endfacet
  facet normal 0 1 -0
    outer loop
      vertex 19.05 32.6 38.1
      vertex 0 32.6 57.15
      vertex 19.05 32.6 57.15
    endloop
  endfacet
  facet normal 0 1 0
    outer loop
      vertex 0 32.6 57.15
      vertex 19.05 32.6 38.1
      vertex 0 32.6 0
    endloop
  endfacet
  facet normal 0 -1 0
    outer loop
      vertex 0 0 57.15
      vertex 19.05 0 38.1
      vertex 19.05 0 57.15
    endloop
  endfacet
  facet normal 0 -1 -0
    outer loop
      vertex 19.05 0 38.1
      vertex 0 0 0
      vertex 38.1 0 38.1
    endloop
  endfacet
  facet normal 0 -1 0
    outer loop
      vertex 0 0 0
      vertex 19.05 0 38.1
      vertex 0 0 57.15
    endloop
  endfacet
  facet normal 0.707107 0 -0.707107
    outer loop
      vertex 38.1 0 38.1
      vertex 0 32.6 0
      vertex 38.1 32.6 38.1
    endloop
  endfacet
  facet normal 0.707107 0 -0.707107
    outer loop
      vertex 0 32.6 0
      vertex 38.1 0 38.1
      vertex 0 0 0
    endloop
  endfacet
  facet normal 1 -0 0
    outer loop
      vertex 19.05 0 57.15
      vertex 19.05 32.6 38.1
      vertex 19.05 32.6 57.15
    endloop
  endfacet
  facet normal 1 0 0
    outer loop
      vertex 19.05 32.6 38.1
      vertex 19.05 0 57.15
      vertex 19.05 0 38.1
    endloop
  endfacet
  facet normal -0 0 1
    outer loop
      vertex 0 32.6 57.15
      vertex 19.05 0 57.15
      vertex 19.05 32.6 57.15
    endloop
  endfacet
  facet normal 0 0 1
    outer loop
      vertex 19.05 0 57.15
      vertex 0 32.6 57.15
      vertex 0 0 57.15
    endloop
  endfacet
  facet normal -1 0 0
    outer loop
      vertex 17 8.15 28.575
      vertex 17 24.45 34.875
      vertex 17 24.45 28.575
    endloop
  endfacet
  facet normal -1 -0 0
    outer loop
      vertex 17 24.45 34.875
      vertex 17 8.15 28.575
      vertex 17 8.15 34.875
    endloop
  endfacet
  facet normal 0 0 -1
    outer loop
      vertex 0 8.15 34.875
      vertex 17 24.45 34.875
      vertex 17 8.15 34.875
    endloop
  endfacet
  facet normal -0 0 -1
    outer loop
      vertex 17 24.45 34.875
      vertex 0 8.15 34.875
      vertex 0 24.45 34.875
    endloop
  endfacet
  facet normal -0 0 1
    outer loop
      vertex 0 24.45 28.575
      vertex 17 8.15 28.575
      vertex 17 24.45 28.575
    endloop
  endfacet
  facet normal 0 0 1
    outer loop
      vertex 17 8.15 28.575
      vertex 0 24.45 28.575
      vertex 0 8.15 28.575
    endloop
  endfacet
  facet normal 0 -1 0
    outer loop
      vertex 0 24.45 28.575
      vertex 17 24.45 34.875
      vertex 0 24.45 34.875
    endloop
  endfacet
  facet normal 0 -1 -0
    outer loop
      vertex 17 24.45 34.875
      vertex 0 24.45 28.575
      vertex 17 24.45 28.575
    endloop
  endfacet
  facet normal 0 1 -0
    outer loop
      vertex 17 8.15 28.575
      vertex 0 8.15 34.875
      vertex 17 8.15 34.875
    endloop
  endfacet
  facet normal 0 1 0
    outer loop
      vertex 0 8.15 34.875
      vertex 17 8.15 28.575
      vertex 0 8.15 28.575
    endloop
  endfacet
endsolid OpenSCAD_Model
