solid OpenSCAD_Model
  facet normal 0.11215 -0.887729 -0.446498
    outer loop
      vertex 1.25581 -19.9605 2
      vertex 1.19302 -18.9625 0
      vertex 3.74763 -19.6457 2
    endloop
  endfacet
  facet normal -0.612536 0.652258 -0.446497
    outer loop
      vertex -12.1111 14.6398 0
      vertex -14.5794 13.6909 2
      vertex -12.7485 15.4103 2
    endloop
  endfacet
  facet normal 0.87893 -0.167653 -0.446513
    outer loop
      vertex 19.3717 -4.9738 2
      vertex 18.4031 -4.72511 0
      vertex 19.8423 -2.50666 2
    endloop
  endfacet
  facet normal 0.893014 0.0561817 -0.446507
    outer loop
      vertex 20 0 2
      vertex 19 0 0
      vertex 19.8423 2.50666 2
    endloop
  endfacet
  facet normal 0.893018 0.0561762 -0.446502
    outer loop
      vertex 19 0 0
      vertex 18.8502 2.38133 0
      vertex 19.8423 2.50666 2
    endloop
  endfacet
  facet normal -0.893018 0.0561762 -0.446502
    outer loop
      vertex -19 0 0
      vertex -19.8423 2.50666 2
      vertex -18.8502 2.38133 0
    endloop
  endfacet
  facet normal -0.612538 0.652251 -0.446503
    outer loop
      vertex -13.8504 13.0064 0
      vertex -14.5794 13.6909 2
      vertex -12.1111 14.6398 0
    endloop
  endfacet
  facet normal 0.329405 -0.831945 -0.446497
    outer loop
      vertex 8.51558 -18.0965 2
      vertex 5.87132 -18.0701 0
      vertex 8.08981 -17.1917 0
    endloop
  endfacet
  facet normal 0.689447 -0.570347 -0.446505
    outer loop
      vertex 14.5794 -13.6909 2
      vertex 13.8504 -13.0064 0
      vertex 16.1803 -11.7557 2
    endloop
  endfacet
  facet normal 0.431041 -0.784104 -0.446525
    outer loop
      vertex 10.7165 -16.8866 2
      vertex 8.51558 -18.0965 2
      vertex 10.1807 -16.0422 0
    endloop
  endfacet
  facet normal 0.851002 -0.276497 -0.44648
    outer loop
      vertex 18.5955 -7.36249 2
      vertex 17.6658 -6.99437 0
      vertex 18.4031 -4.72511 0
    endloop
  endfacet
  facet normal -0.755487 -0.47945 -0.446504
    outer loop
      vertex -15.3713 -11.1679 0
      vertex -17.5261 -9.63507 2
      vertex -16.6498 -9.15332 0
    endloop
  endfacet
  facet normal 0.112129 -0.887742 -0.446476
    outer loop
      vertex 3.74763 -19.6457 2
      vertex 1.19302 -18.9625 0
      vertex 3.56024 -18.6635 0
    endloop
  endfacet
  facet normal 0.525933 -0.723902 -0.446498
    outer loop
      vertex 12.7485 -15.4103 2
      vertex 10.7165 -16.8866 2
      vertex 12.1111 -14.6398 0
    endloop
  endfacet
  facet normal 0.87893 0.167653 -0.446513
    outer loop
      vertex 19.8423 2.50666 2
      vertex 18.4031 4.72511 0
      vertex 19.3717 4.9738 2
    endloop
  endfacet
  facet normal -0.612538 -0.652251 -0.446503
    outer loop
      vertex -12.1111 -14.6398 0
      vertex -14.5794 -13.6909 2
      vertex -13.8504 -13.0064 0
    endloop
  endfacet
  facet normal -0.525933 -0.723902 -0.446498
    outer loop
      vertex -10.7165 -16.8866 2
      vertex -12.7485 -15.4103 2
      vertex -12.1111 -14.6398 0
    endloop
  endfacet
  facet normal -0.11215 0.887729 -0.446498
    outer loop
      vertex -1.19302 18.9625 0
      vertex -3.74763 19.6457 2
      vertex -1.25581 19.9605 2
    endloop
  endfacet
  facet normal 0.112129 0.887742 -0.446476
    outer loop
      vertex 3.56024 18.6635 0
      vertex 1.19302 18.9625 0
      vertex 3.74763 19.6457 2
    endloop
  endfacet
  facet normal 0.431073 -0.784103 -0.446497
    outer loop
      vertex 8.51558 -18.0965 2
      vertex 8.08981 -17.1917 0
      vertex 10.1807 -16.0422 0
    endloop
  endfacet
  facet normal 0.893018 -0.0561762 -0.446502
    outer loop
      vertex 19.8423 -2.50666 2
      vertex 18.8502 -2.38133 0
      vertex 19 0 0
    endloop
  endfacet
  facet normal -0.329398 0.831952 -0.446489
    outer loop
      vertex -5.87132 18.0701 0
      vertex -8.51558 18.0965 2
      vertex -6.18034 19.0211 2
    endloop
  endfacet
  facet normal 0.222521 0.866679 -0.446488
    outer loop
      vertex 5.87132 18.0701 0
      vertex 3.74763 19.6457 2
      vertex 6.18034 19.0211 2
    endloop
  endfacet
  facet normal -0.878934 0.167666 -0.446502
    outer loop
      vertex -18.8502 2.38133 0
      vertex -19.8423 2.50666 2
      vertex -18.4031 4.72511 0
    endloop
  endfacet
  facet normal -0.850977 -0.276523 -0.446512
    outer loop
      vertex -18.5955 -7.36249 2
      vertex -19.3717 -4.9738 2
      vertex -18.4031 -4.72511 0
    endloop
  endfacet
  facet normal 0.689448 -0.570346 -0.446506
    outer loop
      vertex 16.1803 -11.7557 2
      vertex 13.8504 -13.0064 0
      vertex 15.3713 -11.1679 0
    endloop
  endfacet
  facet normal 0 0 -1
    outer loop
      vertex 18.8502 -2.38133 0
      vertex 18.8502 2.38133 0
      vertex 19 0 0
    endloop
  endfacet
  facet normal 0 0 -1
    outer loop
      vertex 18.4031 -4.72511 0
      vertex 18.8502 2.38133 0
      vertex 18.8502 -2.38133 0
    endloop
  endfacet
  facet normal 0 0 -1
    outer loop
      vertex 18.4031 -4.72511 0
      vertex 18.4031 4.72511 0
      vertex 18.8502 2.38133 0
    endloop
  endfacet
  facet normal 0 0 -1
    outer loop
      vertex 17.6658 -6.99437 0
      vertex 18.4031 4.72511 0
      vertex 18.4031 -4.72511 0
    endloop
  endfacet
  facet normal 0 0 -1
    outer loop
      vertex 17.6658 -6.99437 0
      vertex 17.6658 6.99437 0
      vertex 18.4031 4.72511 0
    endloop
  endfacet
  facet normal 0 0 -1
    outer loop
      vertex 16.6498 -9.15332 0
      vertex 17.6658 6.99437 0
      vertex 17.6658 -6.99437 0
    endloop
  endfacet
  facet normal 0 0 -1
    outer loop
      vertex 16.6498 -9.15332 0
      vertex 16.6498 9.15332 0
      vertex 17.6658 6.99437 0
    endloop
  endfacet
  facet normal 0 0 -1
    outer loop
      vertex 15.3713 -11.1679 0
      vertex 16.6498 9.15332 0
      vertex 16.6498 -9.15332 0
    endloop
  endfacet
  facet normal 0 0 -1
    outer loop
      vertex 15.3713 -11.1679 0
      vertex 15.3713 11.1679 0
      vertex 16.6498 9.15332 0
    endloop
  endfacet
  facet normal 0 0 -1
    outer loop
      vertex 13.8504 -13.0064 0
      vertex 15.3713 11.1679 0
      vertex 15.3713 -11.1679 0
    endloop
  endfacet
  facet normal 0 0 -1
    outer loop
      vertex 13.8504 -13.0064 0
      vertex 13.8504 13.0064 0
      vertex 15.3713 11.1679 0
    endloop
  endfacet
  facet normal 0 0 -1
    outer loop
      vertex 12.1111 -14.6398 0
      vertex 13.8504 13.0064 0
      vertex 13.8504 -13.0064 0
    endloop
  endfacet
  facet normal 0 0 -1
    outer loop
      vertex 12.1111 -14.6398 0
      vertex 12.1111 14.6398 0
      vertex 13.8504 13.0064 0
    endloop
  endfacet
  facet normal 0 0 -1
    outer loop
      vertex 10.1807 -16.0422 0
      vertex 12.1111 14.6398 0
      vertex 12.1111 -14.6398 0
    endloop
  endfacet
  facet normal 0 0 -1
    outer loop
      vertex 10.1807 -16.0422 0
      vertex 10.1807 16.0422 0
      vertex 12.1111 14.6398 0
    endloop
  endfacet
  facet normal 0 0 -1
    outer loop
      vertex 8.08981 -17.1917 0
      vertex 10.1807 16.0422 0
      vertex 10.1807 -16.0422 0
    endloop
  endfacet
  facet normal 0 0 -1
    outer loop
      vertex 8.08981 -17.1917 0
      vertex 8.08981 17.1917 0
      vertex 10.1807 16.0422 0
    endloop
  endfacet
  facet normal 0 0 -1
    outer loop
      vertex 5.87132 -18.0701 0
      vertex 8.08981 17.1917 0
      vertex 8.08981 -17.1917 0
    endloop
  endfacet
  facet normal 0 0 -1
    outer loop
      vertex 5.87132 -18.0701 0
      vertex 5.87132 18.0701 0
      vertex 8.08981 17.1917 0
    endloop
  endfacet
  facet normal 0 0 -1
    outer loop
      vertex 3.56024 -18.6635 0
      vertex 5.87132 18.0701 0
      vertex 5.87132 -18.0701 0
    endloop
  endfacet
  facet normal 0 0 -1
    outer loop
      vertex 3.56024 -18.6635 0
      vertex 3.56024 18.6635 0
      vertex 5.87132 18.0701 0
    endloop
  endfacet
  facet normal 0 0 -1
    outer loop
      vertex 1.19302 -18.9625 0
      vertex 3.56024 18.6635 0
      vertex 3.56024 -18.6635 0
    endloop
  endfacet
  facet normal 0 0 -1
    outer loop
      vertex 1.19302 -18.9625 0
      vertex 1.19302 18.9625 0
      vertex 3.56024 18.6635 0
    endloop
  endfacet
  facet normal 0 0 -1
    outer loop
      vertex -1.19302 -18.9625 0
      vertex 1.19302 18.9625 0
      vertex 1.19302 -18.9625 0
    endloop
  endfacet
  facet normal 0 0 -1
    outer loop
      vertex -1.19302 -18.9625 0
      vertex -1.19302 18.9625 0
      vertex 1.19302 18.9625 0
    endloop
  endfacet
  facet normal 0 0 -1
    outer loop
      vertex -3.56024 -18.6635 0
      vertex -1.19302 18.9625 0
      vertex -1.19302 -18.9625 0
    endloop
  endfacet
  facet normal 0 0 -1
    outer loop
      vertex -3.56024 -18.6635 0
      vertex -3.56024 18.6635 0
      vertex -1.19302 18.9625 0
    endloop
  endfacet
  facet normal 0 0 -1
    outer loop
      vertex -5.87132 -18.0701 0
      vertex -3.56024 18.6635 0
      vertex -3.56024 -18.6635 0
    endloop
  endfacet
  facet normal 0 0 -1
    outer loop
      vertex -5.87132 -18.0701 0
      vertex -5.87132 18.0701 0
      vertex -3.56024 18.6635 0
    endloop
  endfacet
  facet normal 0 0 -1
    outer loop
      vertex -8.08981 -17.1917 0
      vertex -5.87132 18.0701 0
      vertex -5.87132 -18.0701 0
    endloop
  endfacet
  facet normal 0 0 -1
    outer loop
      vertex -8.08981 -17.1917 0
      vertex -8.08981 17.1917 0
      vertex -5.87132 18.0701 0
    endloop
  endfacet
  facet normal 0 0 -1
    outer loop
      vertex -10.1807 -16.0422 0
      vertex -8.08981 17.1917 0
      vertex -8.08981 -17.1917 0
    endloop
  endfacet
  facet normal 0 0 -1
    outer loop
      vertex -10.1807 -16.0422 0
      vertex -10.1807 16.0422 0
      vertex -8.08981 17.1917 0
    endloop
  endfacet
  facet normal 0 0 -1
    outer loop
      vertex -12.1111 -14.6398 0
      vertex -10.1807 16.0422 0
      vertex -10.1807 -16.0422 0
    endloop
  endfacet
  facet normal 0 0 -1
    outer loop
      vertex -12.1111 -14.6398 0
      vertex -12.1111 14.6398 0
      vertex -10.1807 16.0422 0
    endloop
  endfacet
  facet normal 0 0 -1
    outer loop
      vertex -13.8504 -13.0064 0
      vertex -12.1111 14.6398 0
      vertex -12.1111 -14.6398 0
    endloop
  endfacet
  facet normal 0 0 -1
    outer loop
      vertex -13.8504 -13.0064 0
      vertex -13.8504 13.0064 0
      vertex -12.1111 14.6398 0
    endloop
  endfacet
  facet normal 0 0 -1
    outer loop
      vertex -15.3713 -11.1679 0
      vertex -13.8504 13.0064 0
      vertex -13.8504 -13.0064 0
    endloop
  endfacet
  facet normal 0 0 -1
    outer loop
      vertex -15.3713 -11.1679 0
      vertex -15.3713 11.1679 0
      vertex -13.8504 13.0064 0
    endloop
  endfacet
  facet normal 0 0 -1
    outer loop
      vertex -16.6498 -9.15332 0
      vertex -15.3713 11.1679 0
      vertex -15.3713 -11.1679 0
    endloop
  endfacet
  facet normal 0 0 -1
    outer loop
      vertex -16.6498 -9.15332 0
      vertex -16.6498 9.15332 0
      vertex -15.3713 11.1679 0
    endloop
  endfacet
  facet normal 0 0 -1
    outer loop
      vertex -17.6658 -6.99437 0
      vertex -16.6498 9.15332 0
      vertex -16.6498 -9.15332 0
    endloop
  endfacet
  facet normal 0 0 -1
    outer loop
      vertex -17.6658 -6.99437 0
      vertex -17.6658 6.99437 0
      vertex -16.6498 9.15332 0
    endloop
  endfacet
  facet normal 0 0 -1
    outer loop
      vertex -18.4031 -4.72511 0
      vertex -17.6658 6.99437 0
      vertex -17.6658 -6.99437 0
    endloop
  endfacet
  facet normal 0 0 -1
    outer loop
      vertex -18.4031 -4.72511 0
      vertex -18.4031 4.72511 0
      vertex -17.6658 6.99437 0
    endloop
  endfacet
  facet normal 0 0 -1
    outer loop
      vertex -18.8502 -2.38133 0
      vertex -18.4031 4.72511 0
      vertex -18.4031 -4.72511 0
    endloop
  endfacet
  facet normal 0 0 -1
    outer loop
      vertex -18.8502 -2.38133 0
      vertex -18.8502 2.38133 0
      vertex -18.4031 4.72511 0
    endloop
  endfacet
  facet normal 0 -0 -1
    outer loop
      vertex -18.8502 2.38133 0
      vertex -18.8502 -2.38133 0
      vertex -19 0 0
    endloop
  endfacet
  facet normal -0.689447 -0.570347 -0.446505
    outer loop
      vertex -14.5794 -13.6909 2
      vertex -16.1803 -11.7557 2
      vertex -13.8504 -13.0064 0
    endloop
  endfacet
  facet normal 0.755488 -0.47945 -0.446505
    outer loop
      vertex 16.1803 -11.7557 2
      vertex 15.3713 -11.1679 0
      vertex 17.5261 -9.63507 2
    endloop
  endfacet
  facet normal 0.809622 -0.381007 -0.446481
    outer loop
      vertex 18.5955 -7.36249 2
      vertex 16.6498 -9.15332 0
      vertex 17.6658 -6.99437 0
    endloop
  endfacet
  facet normal -0.809622 -0.380981 -0.446505
    outer loop
      vertex -17.5261 -9.63507 2
      vertex -18.5955 -7.36249 2
      vertex -16.6498 -9.15332 0
    endloop
  endfacet
  facet normal -0.329398 -0.831952 -0.446489
    outer loop
      vertex -6.18034 -19.0211 2
      vertex -8.51558 -18.0965 2
      vertex -5.87132 -18.0701 0
    endloop
  endfacet
  facet normal 0.878934 -0.167666 -0.446502
    outer loop
      vertex 19.8423 -2.50666 2
      vertex 18.4031 -4.72511 0
      vertex 18.8502 -2.38133 0
    endloop
  endfacet
  facet normal 0.850977 -0.276523 -0.446512
    outer loop
      vertex 18.5955 -7.36249 2
      vertex 18.4031 -4.72511 0
      vertex 19.3717 -4.9738 2
    endloop
  endfacet
  facet normal 0.893014 -0.0561817 -0.446507
    outer loop
      vertex 19.8423 -2.50666 2
      vertex 19 0 0
      vertex 20 0 2
    endloop
  endfacet
  facet normal 0.329398 -0.831952 -0.446489
    outer loop
      vertex 6.18034 -19.0211 2
      vertex 5.87132 -18.0701 0
      vertex 8.51558 -18.0965 2
    endloop
  endfacet
  facet normal 0.222521 -0.866679 -0.446488
    outer loop
      vertex 6.18034 -19.0211 2
      vertex 3.74763 -19.6457 2
      vertex 5.87132 -18.0701 0
    endloop
  endfacet
  facet normal -0.755488 -0.47945 -0.446505
    outer loop
      vertex -16.1803 -11.7557 2
      vertex -17.5261 -9.63507 2
      vertex -15.3713 -11.1679 0
    endloop
  endfacet
  facet normal 0.525933 0.723902 -0.446498
    outer loop
      vertex 12.1111 14.6398 0
      vertex 10.7165 16.8866 2
      vertex 12.7485 15.4103 2
    endloop
  endfacet
  facet normal -0.612536 -0.652258 -0.446497
    outer loop
      vertex -12.7485 -15.4103 2
      vertex -14.5794 -13.6909 2
      vertex -12.1111 -14.6398 0
    endloop
  endfacet
  facet normal 0.11215 0.887729 -0.446498
    outer loop
      vertex 3.74763 19.6457 2
      vertex 1.19302 18.9625 0
      vertex 1.25581 19.9605 2
    endloop
  endfacet
  facet normal -0.87893 0.167653 -0.446513
    outer loop
      vertex -18.4031 4.72511 0
      vertex -19.8423 2.50666 2
      vertex -19.3717 4.9738 2
    endloop
  endfacet
  facet normal 0.612536 0.652258 -0.446497
    outer loop
      vertex 14.5794 13.6909 2
      vertex 12.1111 14.6398 0
      vertex 12.7485 15.4103 2
    endloop
  endfacet
  facet normal -0.809622 0.380981 -0.446505
    outer loop
      vertex -16.6498 9.15332 0
      vertex -18.5955 7.36249 2
      vertex -17.5261 9.63507 2
    endloop
  endfacet
  facet normal -0.87893 -0.167653 -0.446513
    outer loop
      vertex -19.3717 -4.9738 2
      vertex -19.8423 -2.50666 2
      vertex -18.4031 -4.72511 0
    endloop
  endfacet
  facet normal -0.525905 -0.723907 -0.446523
    outer loop
      vertex -10.7165 -16.8866 2
      vertex -12.1111 -14.6398 0
      vertex -10.1807 -16.0422 0
    endloop
  endfacet
  facet normal 0.612538 0.652251 -0.446503
    outer loop
      vertex 13.8504 13.0064 0
      vertex 12.1111 14.6398 0
      vertex 14.5794 13.6909 2
    endloop
  endfacet
  facet normal 0.755487 -0.47945 -0.446504
    outer loop
      vertex 17.5261 -9.63507 2
      vertex 15.3713 -11.1679 0
      vertex 16.6498 -9.15332 0
    endloop
  endfacet
  facet normal 0.755488 0.47945 -0.446505
    outer loop
      vertex 17.5261 9.63507 2
      vertex 15.3713 11.1679 0
      vertex 16.1803 11.7557 2
    endloop
  endfacet
  facet normal 0 -0.894785 -0.446498
    outer loop
      vertex -1.19302 -18.9625 0
      vertex 1.25581 -19.9605 2
      vertex -1.25581 -19.9605 2
    endloop
  endfacet
  facet normal 0 -0.894785 -0.446498
    outer loop
      vertex 1.25581 -19.9605 2
      vertex -1.19302 -18.9625 0
      vertex 1.19302 -18.9625 0
    endloop
  endfacet
  facet normal -0.431073 -0.784103 -0.446497
    outer loop
      vertex -8.51558 -18.0965 2
      vertex -10.1807 -16.0422 0
      vertex -8.08981 -17.1917 0
    endloop
  endfacet
  facet normal -0.809622 0.381007 -0.446481
    outer loop
      vertex -17.6658 6.99437 0
      vertex -18.5955 7.36249 2
      vertex -16.6498 9.15332 0
    endloop
  endfacet
  facet normal 0.222532 -0.866682 -0.446478
    outer loop
      vertex 3.74763 -19.6457 2
      vertex 3.56024 -18.6635 0
      vertex 5.87132 -18.0701 0
    endloop
  endfacet
  facet normal -0.755488 0.47945 -0.446505
    outer loop
      vertex -15.3713 11.1679 0
      vertex -17.5261 9.63507 2
      vertex -16.1803 11.7557 2
    endloop
  endfacet
  facet normal -0.329405 0.831945 -0.446497
    outer loop
      vertex -8.08981 17.1917 0
      vertex -8.51558 18.0965 2
      vertex -5.87132 18.0701 0
    endloop
  endfacet
  facet normal 0.612536 -0.652258 -0.446497
    outer loop
      vertex 12.7485 -15.4103 2
      vertex 12.1111 -14.6398 0
      vertex 14.5794 -13.6909 2
    endloop
  endfacet
  facet normal -0.893014 0.0561817 -0.446507
    outer loop
      vertex -19 0 0
      vertex -20 0 2
      vertex -19.8423 2.50666 2
    endloop
  endfacet
  facet normal -0.329405 -0.831945 -0.446497
    outer loop
      vertex -5.87132 -18.0701 0
      vertex -8.51558 -18.0965 2
      vertex -8.08981 -17.1917 0
    endloop
  endfacet
  facet normal -0.851002 -0.276497 -0.44648
    outer loop
      vertex -17.6658 -6.99437 0
      vertex -18.5955 -7.36249 2
      vertex -18.4031 -4.72511 0
    endloop
  endfacet
  facet normal -0.878934 -0.167666 -0.446502
    outer loop
      vertex -18.4031 -4.72511 0
      vertex -19.8423 -2.50666 2
      vertex -18.8502 -2.38133 0
    endloop
  endfacet
  facet normal 0.809622 -0.380981 -0.446505
    outer loop
      vertex 17.5261 -9.63507 2
      vertex 16.6498 -9.15332 0
      vertex 18.5955 -7.36249 2
    endloop
  endfacet
  facet normal 0.222532 0.866682 -0.446478
    outer loop
      vertex 5.87132 18.0701 0
      vertex 3.56024 18.6635 0
      vertex 3.74763 19.6457 2
    endloop
  endfacet
  facet normal -0.431041 -0.784104 -0.446525
    outer loop
      vertex -8.51558 -18.0965 2
      vertex -10.7165 -16.8866 2
      vertex -10.1807 -16.0422 0
    endloop
  endfacet
  facet normal 0.525905 -0.723907 -0.446523
    outer loop
      vertex 10.7165 -16.8866 2
      vertex 10.1807 -16.0422 0
      vertex 12.1111 -14.6398 0
    endloop
  endfacet
  facet normal -0.222521 0.866679 -0.446488
    outer loop
      vertex -5.87132 18.0701 0
      vertex -6.18034 19.0211 2
      vertex -3.74763 19.6457 2
    endloop
  endfacet
  facet normal -0.850977 0.276523 -0.446512
    outer loop
      vertex -18.4031 4.72511 0
      vertex -19.3717 4.9738 2
      vertex -18.5955 7.36249 2
    endloop
  endfacet
  facet normal 0.689448 0.570346 -0.446506
    outer loop
      vertex 15.3713 11.1679 0
      vertex 13.8504 13.0064 0
      vertex 16.1803 11.7557 2
    endloop
  endfacet
  facet normal 0.525905 0.723907 -0.446523
    outer loop
      vertex 12.1111 14.6398 0
      vertex 10.1807 16.0422 0
      vertex 10.7165 16.8866 2
    endloop
  endfacet
  facet normal 0.329398 0.831952 -0.446489
    outer loop
      vertex 8.51558 18.0965 2
      vertex 5.87132 18.0701 0
      vertex 6.18034 19.0211 2
    endloop
  endfacet
  facet normal -0.689448 -0.570346 -0.446506
    outer loop
      vertex -13.8504 -13.0064 0
      vertex -16.1803 -11.7557 2
      vertex -15.3713 -11.1679 0
    endloop
  endfacet
  facet normal -0.431073 0.784103 -0.446497
    outer loop
      vertex -8.08981 17.1917 0
      vertex -10.1807 16.0422 0
      vertex -8.51558 18.0965 2
    endloop
  endfacet
  facet normal -0.431041 0.784104 -0.446525
    outer loop
      vertex -10.1807 16.0422 0
      vertex -10.7165 16.8866 2
      vertex -8.51558 18.0965 2
    endloop
  endfacet
  facet normal -0.222532 0.866682 -0.446478
    outer loop
      vertex -3.56024 18.6635 0
      vertex -5.87132 18.0701 0
      vertex -3.74763 19.6457 2
    endloop
  endfacet
  facet normal 0.612538 -0.652251 -0.446503
    outer loop
      vertex 14.5794 -13.6909 2
      vertex 12.1111 -14.6398 0
      vertex 13.8504 -13.0064 0
    endloop
  endfacet
  facet normal -0.112129 0.887742 -0.446476
    outer loop
      vertex -3.56024 18.6635 0
      vertex -3.74763 19.6457 2
      vertex -1.19302 18.9625 0
    endloop
  endfacet
  facet normal -0.11215 -0.887729 -0.446498
    outer loop
      vertex -1.25581 -19.9605 2
      vertex -3.74763 -19.6457 2
      vertex -1.19302 -18.9625 0
    endloop
  endfacet
  facet normal 0.809622 0.380981 -0.446505
    outer loop
      vertex 18.5955 7.36249 2
      vertex 16.6498 9.15332 0
      vertex 17.5261 9.63507 2
    endloop
  endfacet
  facet normal -0.222521 -0.866679 -0.446488
    outer loop
      vertex -3.74763 -19.6457 2
      vertex -6.18034 -19.0211 2
      vertex -5.87132 -18.0701 0
    endloop
  endfacet
  facet normal -0.809622 -0.381007 -0.446481
    outer loop
      vertex -16.6498 -9.15332 0
      vertex -18.5955 -7.36249 2
      vertex -17.6658 -6.99437 0
    endloop
  endfacet
  facet normal -0.893014 -0.0561817 -0.446507
    outer loop
      vertex -19.8423 -2.50666 2
      vertex -20 0 2
      vertex -19 0 0
    endloop
  endfacet
  facet normal -0.893018 -0.0561762 -0.446502
    outer loop
      vertex -18.8502 -2.38133 0
      vertex -19.8423 -2.50666 2
      vertex -19 0 0
    endloop
  endfacet
  facet normal -0.689447 0.570347 -0.446505
    outer loop
      vertex -13.8504 13.0064 0
      vertex -16.1803 11.7557 2
      vertex -14.5794 13.6909 2
    endloop
  endfacet
  facet normal -0.755487 0.47945 -0.446504
    outer loop
      vertex -16.6498 9.15332 0
      vertex -17.5261 9.63507 2
      vertex -15.3713 11.1679 0
    endloop
  endfacet
  facet normal 0 0 1
    outer loop
      vertex 18.75 0 2
      vertex 20 0 2
      vertex 19.8423 2.50666 2
    endloop
  endfacet
  facet normal 0 0 1
    outer loop
      vertex 18.6021 2.35 2
      vertex 19.8423 2.50666 2
      vertex 19.3717 4.9738 2
    endloop
  endfacet
  facet normal 0 0 1
    outer loop
      vertex 20 0 2
      vertex 18.75 0 2
      vertex 19.8423 -2.50666 2
    endloop
  endfacet
  facet normal -0 0 1
    outer loop
      vertex 18.6021 -2.35 2
      vertex 19.8423 -2.50666 2
      vertex 18.75 0 2
    endloop
  endfacet
  facet normal 0 0 1
    outer loop
      vertex 19.8423 2.50666 2
      vertex 18.6021 2.35 2
      vertex 18.75 0 2
    endloop
  endfacet
  facet normal 0 0 1
    outer loop
      vertex 18.1609 4.66294 2
      vertex 19.3717 4.9738 2
      vertex 18.5955 7.36249 2
    endloop
  endfacet
  facet normal 0 0 1
    outer loop
      vertex 19.3717 4.9738 2
      vertex 18.1609 4.66294 2
      vertex 18.6021 2.35 2
    endloop
  endfacet
  facet normal 0 0 1
    outer loop
      vertex 17.4333 6.90234 2
      vertex 18.5955 7.36249 2
      vertex 17.5261 9.63507 2
    endloop
  endfacet
  facet normal 0 0 1
    outer loop
      vertex 18.5955 7.36249 2
      vertex 17.4333 6.90234 2
      vertex 18.1609 4.66294 2
    endloop
  endfacet
  facet normal 0 0 1
    outer loop
      vertex 17.5261 9.63507 2
      vertex 16.4307 9.03288 2
      vertex 17.4333 6.90234 2
    endloop
  endfacet
  facet normal 0 0 1
    outer loop
      vertex 16.1803 11.7557 2
      vertex 16.4307 9.03288 2
      vertex 17.5261 9.63507 2
    endloop
  endfacet
  facet normal 0 0 1
    outer loop
      vertex 16.1803 11.7557 2
      vertex 15.1691 11.021 2
      vertex 16.4307 9.03288 2
    endloop
  endfacet
  facet normal 0 0 1
    outer loop
      vertex 14.5794 13.6909 2
      vertex 15.1691 11.021 2
      vertex 16.1803 11.7557 2
    endloop
  endfacet
  facet normal 0 0 1
    outer loop
      vertex 14.5794 13.6909 2
      vertex 13.6682 12.8353 2
      vertex 15.1691 11.021 2
    endloop
  endfacet
  facet normal 0 0 1
    outer loop
      vertex 12.7485 15.4103 2
      vertex 13.6682 12.8353 2
      vertex 14.5794 13.6909 2
    endloop
  endfacet
  facet normal 0 0 1
    outer loop
      vertex 12.7485 15.4103 2
      vertex 11.9517 14.4471 2
      vertex 13.6682 12.8353 2
    endloop
  endfacet
  facet normal 0 0 1
    outer loop
      vertex 10.7165 16.8866 2
      vertex 11.9517 14.4471 2
      vertex 12.7485 15.4103 2
    endloop
  endfacet
  facet normal 0 0 1
    outer loop
      vertex 10.7165 16.8866 2
      vertex 10.0468 15.8311 2
      vertex 11.9517 14.4471 2
    endloop
  endfacet
  facet normal 0 0 1
    outer loop
      vertex 8.51558 18.0965 2
      vertex 10.0468 15.8311 2
      vertex 10.7165 16.8866 2
    endloop
  endfacet
  facet normal 0 0 1
    outer loop
      vertex 8.51558 18.0965 2
      vertex 7.98336 16.9655 2
      vertex 10.0468 15.8311 2
    endloop
  endfacet
  facet normal 0 0 1
    outer loop
      vertex 6.18034 19.0211 2
      vertex 7.98336 16.9655 2
      vertex 8.51558 18.0965 2
    endloop
  endfacet
  facet normal 0 0 1
    outer loop
      vertex 6.18034 19.0211 2
      vertex 5.79407 17.8323 2
      vertex 7.98336 16.9655 2
    endloop
  endfacet
  facet normal 0 0 1
    outer loop
      vertex 3.74763 19.6457 2
      vertex 5.79407 17.8323 2
      vertex 6.18034 19.0211 2
    endloop
  endfacet
  facet normal 0 0 1
    outer loop
      vertex 3.74763 19.6457 2
      vertex 3.5134 18.4179 2
      vertex 5.79407 17.8323 2
    endloop
  endfacet
  facet normal 0 0 1
    outer loop
      vertex 1.25581 19.9605 2
      vertex 3.5134 18.4179 2
      vertex 3.74763 19.6457 2
    endloop
  endfacet
  facet normal 0 0 1
    outer loop
      vertex 1.25581 19.9605 2
      vertex 1.17732 18.713 2
      vertex 3.5134 18.4179 2
    endloop
  endfacet
  facet normal 0 0 1
    outer loop
      vertex 1.25581 19.9605 2
      vertex -1.17732 18.713 2
      vertex 1.17732 18.713 2
    endloop
  endfacet
  facet normal -0 0 1
    outer loop
      vertex -1.25581 19.9605 2
      vertex -1.17732 18.713 2
      vertex 1.25581 19.9605 2
    endloop
  endfacet
  facet normal 0 0 1
    outer loop
      vertex -1.25581 19.9605 2
      vertex -3.5134 18.4179 2
      vertex -1.17732 18.713 2
    endloop
  endfacet
  facet normal -0 0 1
    outer loop
      vertex -3.74763 19.6457 2
      vertex -3.5134 18.4179 2
      vertex -1.25581 19.9605 2
    endloop
  endfacet
  facet normal 0 0 1
    outer loop
      vertex -3.74763 19.6457 2
      vertex -5.79407 17.8323 2
      vertex -3.5134 18.4179 2
    endloop
  endfacet
  facet normal -0 0 1
    outer loop
      vertex -6.18034 19.0211 2
      vertex -5.79407 17.8323 2
      vertex -3.74763 19.6457 2
    endloop
  endfacet
  facet normal 0 0 1
    outer loop
      vertex -6.18034 19.0211 2
      vertex -7.98336 16.9655 2
      vertex -5.79407 17.8323 2
    endloop
  endfacet
  facet normal -0 0 1
    outer loop
      vertex -8.51558 18.0965 2
      vertex -7.98336 16.9655 2
      vertex -6.18034 19.0211 2
    endloop
  endfacet
  facet normal 0 0 1
    outer loop
      vertex -8.51558 18.0965 2
      vertex -10.0468 15.8311 2
      vertex -7.98336 16.9655 2
    endloop
  endfacet
  facet normal -0 0 1
    outer loop
      vertex -10.7165 16.8866 2
      vertex -10.0468 15.8311 2
      vertex -8.51558 18.0965 2
    endloop
  endfacet
  facet normal 0 0 1
    outer loop
      vertex -10.7165 16.8866 2
      vertex -11.9517 14.4471 2
      vertex -10.0468 15.8311 2
    endloop
  endfacet
  facet normal -0 0 1
    outer loop
      vertex -12.7485 15.4103 2
      vertex -11.9517 14.4471 2
      vertex -10.7165 16.8866 2
    endloop
  endfacet
  facet normal 0 0 1
    outer loop
      vertex -12.7485 15.4103 2
      vertex -13.6682 12.8353 2
      vertex -11.9517 14.4471 2
    endloop
  endfacet
  facet normal -0 0 1
    outer loop
      vertex -14.5794 13.6909 2
      vertex -13.6682 12.8353 2
      vertex -12.7485 15.4103 2
    endloop
  endfacet
  facet normal 0 0 1
    outer loop
      vertex -14.5794 13.6909 2
      vertex -15.1691 11.021 2
      vertex -13.6682 12.8353 2
    endloop
  endfacet
  facet normal -0 0 1
    outer loop
      vertex -16.1803 11.7557 2
      vertex -15.1691 11.021 2
      vertex -14.5794 13.6909 2
    endloop
  endfacet
  facet normal 0 0 1
    outer loop
      vertex -16.1803 11.7557 2
      vertex -16.4307 9.03288 2
      vertex -15.1691 11.021 2
    endloop
  endfacet
  facet normal -0 0 1
    outer loop
      vertex -17.5261 9.63507 2
      vertex -16.4307 9.03288 2
      vertex -16.1803 11.7557 2
    endloop
  endfacet
  facet normal 0 0 1
    outer loop
      vertex -16.4307 9.03288 2
      vertex -17.5261 9.63507 2
      vertex -17.4333 6.90234 2
    endloop
  endfacet
  facet normal -0 0 1
    outer loop
      vertex -18.5955 7.36249 2
      vertex -17.4333 6.90234 2
      vertex -17.5261 9.63507 2
    endloop
  endfacet
  facet normal 0 0 1
    outer loop
      vertex -17.4333 6.90234 2
      vertex -18.5955 7.36249 2
      vertex -18.1609 4.66294 2
    endloop
  endfacet
  facet normal -0 0 1
    outer loop
      vertex -19.3717 4.9738 2
      vertex -18.1609 4.66294 2
      vertex -18.5955 7.36249 2
    endloop
  endfacet
  facet normal 0 0 1
    outer loop
      vertex -18.1609 4.66294 2
      vertex -19.3717 4.9738 2
      vertex -18.6021 2.35 2
    endloop
  endfacet
  facet normal -0 0 1
    outer loop
      vertex -19.8423 2.50666 2
      vertex -18.6021 2.35 2
      vertex -19.3717 4.9738 2
    endloop
  endfacet
  facet normal 0 0 1
    outer loop
      vertex 19.8423 -2.50666 2
      vertex 18.6021 -2.35 2
      vertex 19.3717 -4.9738 2
    endloop
  endfacet
  facet normal -0 0 1
    outer loop
      vertex 18.1609 -4.66294 2
      vertex 19.3717 -4.9738 2
      vertex 18.6021 -2.35 2
    endloop
  endfacet
  facet normal 0 0 1
    outer loop
      vertex 19.3717 -4.9738 2
      vertex 18.1609 -4.66294 2
      vertex 18.5955 -7.36249 2
    endloop
  endfacet
  facet normal -0 0 1
    outer loop
      vertex 17.4333 -6.90234 2
      vertex 18.5955 -7.36249 2
      vertex 18.1609 -4.66294 2
    endloop
  endfacet
  facet normal 0 0 1
    outer loop
      vertex 18.5955 -7.36249 2
      vertex 17.4333 -6.90234 2
      vertex 17.5261 -9.63507 2
    endloop
  endfacet
  facet normal -0 0 1
    outer loop
      vertex 16.4307 -9.03288 2
      vertex 17.5261 -9.63507 2
      vertex 17.4333 -6.90234 2
    endloop
  endfacet
  facet normal 0 0 1
    outer loop
      vertex 16.4307 -9.03288 2
      vertex 16.1803 -11.7557 2
      vertex 17.5261 -9.63507 2
    endloop
  endfacet
  facet normal -0 0 1
    outer loop
      vertex 15.1691 -11.021 2
      vertex 16.1803 -11.7557 2
      vertex 16.4307 -9.03288 2
    endloop
  endfacet
  facet normal 0 0 1
    outer loop
      vertex 15.1691 -11.021 2
      vertex 14.5794 -13.6909 2
      vertex 16.1803 -11.7557 2
    endloop
  endfacet
  facet normal -0 0 1
    outer loop
      vertex 13.6682 -12.8353 2
      vertex 14.5794 -13.6909 2
      vertex 15.1691 -11.021 2
    endloop
  endfacet
  facet normal 0 0 1
    outer loop
      vertex 13.6682 -12.8353 2
      vertex 12.7485 -15.4103 2
      vertex 14.5794 -13.6909 2
    endloop
  endfacet
  facet normal -0 0 1
    outer loop
      vertex 11.9517 -14.4471 2
      vertex 12.7485 -15.4103 2
      vertex 13.6682 -12.8353 2
    endloop
  endfacet
  facet normal 0 0 1
    outer loop
      vertex 11.9517 -14.4471 2
      vertex 10.7165 -16.8866 2
      vertex 12.7485 -15.4103 2
    endloop
  endfacet
  facet normal -0 0 1
    outer loop
      vertex 10.0468 -15.8311 2
      vertex 10.7165 -16.8866 2
      vertex 11.9517 -14.4471 2
    endloop
  endfacet
  facet normal 0 0 1
    outer loop
      vertex 10.0468 -15.8311 2
      vertex 8.51558 -18.0965 2
      vertex 10.7165 -16.8866 2
    endloop
  endfacet
  facet normal -0 0 1
    outer loop
      vertex 7.98336 -16.9655 2
      vertex 8.51558 -18.0965 2
      vertex 10.0468 -15.8311 2
    endloop
  endfacet
  facet normal 0 0 1
    outer loop
      vertex 7.98336 -16.9655 2
      vertex 6.18034 -19.0211 2
      vertex 8.51558 -18.0965 2
    endloop
  endfacet
  facet normal -0 0 1
    outer loop
      vertex 5.79407 -17.8323 2
      vertex 6.18034 -19.0211 2
      vertex 7.98336 -16.9655 2
    endloop
  endfacet
  facet normal 0 0 1
    outer loop
      vertex 5.79407 -17.8323 2
      vertex 3.74763 -19.6457 2
      vertex 6.18034 -19.0211 2
    endloop
  endfacet
  facet normal -0 0 1
    outer loop
      vertex 3.5134 -18.4179 2
      vertex 3.74763 -19.6457 2
      vertex 5.79407 -17.8323 2
    endloop
  endfacet
  facet normal 0 0 1
    outer loop
      vertex 3.5134 -18.4179 2
      vertex 1.25581 -19.9605 2
      vertex 3.74763 -19.6457 2
    endloop
  endfacet
  facet normal -0 0 1
    outer loop
      vertex 1.17732 -18.713 2
      vertex 1.25581 -19.9605 2
      vertex 3.5134 -18.4179 2
    endloop
  endfacet
  facet normal -0 0 1
    outer loop
      vertex -1.17732 -18.713 2
      vertex 1.25581 -19.9605 2
      vertex 1.17732 -18.713 2
    endloop
  endfacet
  facet normal 0 0 1
    outer loop
      vertex -1.17732 -18.713 2
      vertex -1.25581 -19.9605 2
      vertex 1.25581 -19.9605 2
    endloop
  endfacet
  facet normal 0 0 1
    outer loop
      vertex -3.5134 -18.4179 2
      vertex -1.25581 -19.9605 2
      vertex -1.17732 -18.713 2
    endloop
  endfacet
  facet normal 0 0 1
    outer loop
      vertex -3.5134 -18.4179 2
      vertex -3.74763 -19.6457 2
      vertex -1.25581 -19.9605 2
    endloop
  endfacet
  facet normal 0 0 1
    outer loop
      vertex -5.79407 -17.8323 2
      vertex -3.74763 -19.6457 2
      vertex -3.5134 -18.4179 2
    endloop
  endfacet
  facet normal 0 0 1
    outer loop
      vertex -5.79407 -17.8323 2
      vertex -6.18034 -19.0211 2
      vertex -3.74763 -19.6457 2
    endloop
  endfacet
  facet normal 0 0 1
    outer loop
      vertex -7.98336 -16.9655 2
      vertex -6.18034 -19.0211 2
      vertex -5.79407 -17.8323 2
    endloop
  endfacet
  facet normal 0 0 1
    outer loop
      vertex -7.98336 -16.9655 2
      vertex -8.51558 -18.0965 2
      vertex -6.18034 -19.0211 2
    endloop
  endfacet
  facet normal 0 0 1
    outer loop
      vertex -10.0468 -15.8311 2
      vertex -8.51558 -18.0965 2
      vertex -7.98336 -16.9655 2
    endloop
  endfacet
  facet normal 0 0 1
    outer loop
      vertex -10.0468 -15.8311 2
      vertex -10.7165 -16.8866 2
      vertex -8.51558 -18.0965 2
    endloop
  endfacet
  facet normal 0 0 1
    outer loop
      vertex -11.9517 -14.4471 2
      vertex -10.7165 -16.8866 2
      vertex -10.0468 -15.8311 2
    endloop
  endfacet
  facet normal 0 0 1
    outer loop
      vertex -11.9517 -14.4471 2
      vertex -12.7485 -15.4103 2
      vertex -10.7165 -16.8866 2
    endloop
  endfacet
  facet normal 0 0 1
    outer loop
      vertex -13.6682 -12.8353 2
      vertex -12.7485 -15.4103 2
      vertex -11.9517 -14.4471 2
    endloop
  endfacet
  facet normal 0 0 1
    outer loop
      vertex -13.6682 -12.8353 2
      vertex -14.5794 -13.6909 2
      vertex -12.7485 -15.4103 2
    endloop
  endfacet
  facet normal 0 0 1
    outer loop
      vertex -15.1691 -11.021 2
      vertex -14.5794 -13.6909 2
      vertex -13.6682 -12.8353 2
    endloop
  endfacet
  facet normal 0 0 1
    outer loop
      vertex -15.1691 -11.021 2
      vertex -16.1803 -11.7557 2
      vertex -14.5794 -13.6909 2
    endloop
  endfacet
  facet normal 0 0 1
    outer loop
      vertex -16.4307 -9.03288 2
      vertex -16.1803 -11.7557 2
      vertex -15.1691 -11.021 2
    endloop
  endfacet
  facet normal 0 0 1
    outer loop
      vertex -17.5261 -9.63507 2
      vertex -16.4307 -9.03288 2
      vertex -17.4333 -6.90234 2
    endloop
  endfacet
  facet normal 0 0 1
    outer loop
      vertex -16.4307 -9.03288 2
      vertex -17.5261 -9.63507 2
      vertex -16.1803 -11.7557 2
    endloop
  endfacet
  facet normal 0 0 1
    outer loop
      vertex -18.5955 -7.36249 2
      vertex -17.4333 -6.90234 2
      vertex -18.1609 -4.66294 2
    endloop
  endfacet
  facet normal 0 0 1
    outer loop
      vertex -17.4333 -6.90234 2
      vertex -18.5955 -7.36249 2
      vertex -17.5261 -9.63507 2
    endloop
  endfacet
  facet normal 0 0 1
    outer loop
      vertex -19.3717 -4.9738 2
      vertex -18.1609 -4.66294 2
      vertex -18.6021 -2.35 2
    endloop
  endfacet
  facet normal 0 0 1
    outer loop
      vertex -19.8423 -2.50666 2
      vertex -18.6021 -2.35 2
      vertex -18.75 0 2
    endloop
  endfacet
  facet normal 0 0 1
    outer loop
      vertex -18.6021 2.35 2
      vertex -19.8423 2.50666 2
      vertex -18.75 0 2
    endloop
  endfacet
  facet normal 0 0 1
    outer loop
      vertex -18.1609 -4.66294 2
      vertex -19.3717 -4.9738 2
      vertex -18.5955 -7.36249 2
    endloop
  endfacet
  facet normal 0 0 1
    outer loop
      vertex -20 0 2
      vertex -18.75 0 2
      vertex -19.8423 2.50666 2
    endloop
  endfacet
  facet normal 0 0 1
    outer loop
      vertex -18.6021 -2.35 2
      vertex -19.8423 -2.50666 2
      vertex -19.3717 -4.9738 2
    endloop
  endfacet
  facet normal 0 0 1
    outer loop
      vertex -18.75 0 2
      vertex -20 0 2
      vertex -19.8423 -2.50666 2
    endloop
  endfacet
  facet normal 0.431073 0.784103 -0.446497
    outer loop
      vertex 10.1807 16.0422 0
      vertex 8.08981 17.1917 0
      vertex 8.51558 18.0965 2
    endloop
  endfacet
  facet normal 0.809622 0.381007 -0.446481
    outer loop
      vertex 17.6658 6.99437 0
      vertex 16.6498 9.15332 0
      vertex 18.5955 7.36249 2
    endloop
  endfacet
  facet normal 0 0.894785 -0.446498
    outer loop
      vertex 1.19302 18.9625 0
      vertex -1.25581 19.9605 2
      vertex 1.25581 19.9605 2
    endloop
  endfacet
  facet normal 0 0.894785 -0.446498
    outer loop
      vertex -1.25581 19.9605 2
      vertex 1.19302 18.9625 0
      vertex -1.19302 18.9625 0
    endloop
  endfacet
  facet normal -0.689448 0.570346 -0.446506
    outer loop
      vertex -15.3713 11.1679 0
      vertex -16.1803 11.7557 2
      vertex -13.8504 13.0064 0
    endloop
  endfacet
  facet normal -0.851002 0.276497 -0.44648
    outer loop
      vertex -18.4031 4.72511 0
      vertex -18.5955 7.36249 2
      vertex -17.6658 6.99437 0
    endloop
  endfacet
  facet normal 0.431041 0.784104 -0.446525
    outer loop
      vertex 10.1807 16.0422 0
      vertex 8.51558 18.0965 2
      vertex 10.7165 16.8866 2
    endloop
  endfacet
  facet normal 0.850977 0.276523 -0.446512
    outer loop
      vertex 19.3717 4.9738 2
      vertex 18.4031 4.72511 0
      vertex 18.5955 7.36249 2
    endloop
  endfacet
  facet normal -0.525933 0.723902 -0.446498
    outer loop
      vertex -12.1111 14.6398 0
      vertex -12.7485 15.4103 2
      vertex -10.7165 16.8866 2
    endloop
  endfacet
  facet normal 0.878934 0.167666 -0.446502
    outer loop
      vertex 18.8502 2.38133 0
      vertex 18.4031 4.72511 0
      vertex 19.8423 2.50666 2
    endloop
  endfacet
  facet normal 0.755487 0.47945 -0.446504
    outer loop
      vertex 16.6498 9.15332 0
      vertex 15.3713 11.1679 0
      vertex 17.5261 9.63507 2
    endloop
  endfacet
  facet normal -0.112129 -0.887742 -0.446476
    outer loop
      vertex -1.19302 -18.9625 0
      vertex -3.74763 -19.6457 2
      vertex -3.56024 -18.6635 0
    endloop
  endfacet
  facet normal -0.525905 0.723907 -0.446523
    outer loop
      vertex -10.1807 16.0422 0
      vertex -12.1111 14.6398 0
      vertex -10.7165 16.8866 2
    endloop
  endfacet
  facet normal -0.222532 -0.866682 -0.446478
    outer loop
      vertex -3.74763 -19.6457 2
      vertex -5.87132 -18.0701 0
      vertex -3.56024 -18.6635 0
    endloop
  endfacet
  facet normal 0.689447 0.570347 -0.446505
    outer loop
      vertex 16.1803 11.7557 2
      vertex 13.8504 13.0064 0
      vertex 14.5794 13.6909 2
    endloop
  endfacet
  facet normal 0.329405 0.831945 -0.446497
    outer loop
      vertex 8.08981 17.1917 0
      vertex 5.87132 18.0701 0
      vertex 8.51558 18.0965 2
    endloop
  endfacet
  facet normal 0.851002 0.276497 -0.44648
    outer loop
      vertex 18.4031 4.72511 0
      vertex 17.6658 6.99437 0
      vertex 18.5955 7.36249 2
    endloop
  endfacet
  facet normal -0.982289 -0.187374 0
    outer loop
      vertex -18.1609 -4.66294 2
      vertex -18.6021 -2.35 7
      vertex -18.6021 -2.35 2
    endloop
  endfacet
  facet normal -0.982289 -0.187374 0
    outer loop
      vertex -18.6021 -2.35 7
      vertex -18.1609 -4.66294 2
      vertex -18.1609 -4.66294 7
    endloop
  endfacet
  facet normal -0.998025 0.0628119 0
    outer loop
      vertex -18.75 0 2
      vertex -18.6021 2.35 7
      vertex -18.6021 2.35 2
    endloop
  endfacet
  facet normal -0.998025 0.0628119 0
    outer loop
      vertex -18.6021 2.35 7
      vertex -18.75 0 2
      vertex -18.75 0 7
    endloop
  endfacet
  facet normal 0.125327 -0.992116 0
    outer loop
      vertex 1.17732 -18.713 2
      vertex 3.5134 -18.4179 7
      vertex 1.17732 -18.713 7
    endloop
  endfacet
  facet normal 0.125327 -0.992116 0
    outer loop
      vertex 3.5134 -18.4179 7
      vertex 1.17732 -18.713 2
      vertex 3.5134 -18.4179 2
    endloop
  endfacet
  facet normal 0.90482 0.425795 0
    outer loop
      vertex 17.4333 6.90234 7
      vertex 16.4307 9.03288 2
      vertex 16.4307 9.03288 7
    endloop
  endfacet
  facet normal 0.90482 0.425795 0
    outer loop
      vertex 16.4307 9.03288 2
      vertex 17.4333 6.90234 7
      vertex 17.4333 6.90234 2
    endloop
  endfacet
  facet normal 0.125327 0.992116 -0
    outer loop
      vertex 3.5134 18.4179 2
      vertex 1.17732 18.713 7
      vertex 3.5134 18.4179 7
    endloop
  endfacet
  facet normal 0.125327 0.992116 0
    outer loop
      vertex 1.17732 18.713 7
      vertex 3.5134 18.4179 2
      vertex 1.17732 18.713 2
    endloop
  endfacet
  facet normal -0.125327 0.992116 0
    outer loop
      vertex -1.17732 18.713 2
      vertex -3.5134 18.4179 7
      vertex -1.17732 18.713 7
    endloop
  endfacet
  facet normal -0.125327 0.992116 0
    outer loop
      vertex -3.5134 18.4179 7
      vertex -1.17732 18.713 2
      vertex -3.5134 18.4179 2
    endloop
  endfacet
  facet normal 0 -1 0
    outer loop
      vertex -1.17732 -18.713 2
      vertex 1.17732 -18.713 7
      vertex -1.17732 -18.713 7
    endloop
  endfacet
  facet normal 0 -1 -0
    outer loop
      vertex 1.17732 -18.713 7
      vertex -1.17732 -18.713 2
      vertex 1.17732 -18.713 2
    endloop
  endfacet
  facet normal 0.998025 0.0628119 0
    outer loop
      vertex 18.75 0 7
      vertex 18.6021 2.35 2
      vertex 18.6021 2.35 7
    endloop
  endfacet
  facet normal 0.998025 0.0628119 0
    outer loop
      vertex 18.6021 2.35 2
      vertex 18.75 0 7
      vertex 18.75 0 2
    endloop
  endfacet
  facet normal -0.95106 -0.309007 0
    outer loop
      vertex -17.4333 -6.90234 2
      vertex -18.1609 -4.66294 7
      vertex -18.1609 -4.66294 2
    endloop
  endfacet
  facet normal -0.95106 -0.309007 0
    outer loop
      vertex -18.1609 -4.66294 7
      vertex -17.4333 -6.90234 2
      vertex -17.4333 -6.90234 7
    endloop
  endfacet
  facet normal 0 1 -0
    outer loop
      vertex 1.17732 18.713 2
      vertex -1.17732 18.713 7
      vertex 1.17732 18.713 7
    endloop
  endfacet
  facet normal 0 1 0
    outer loop
      vertex -1.17732 18.713 7
      vertex 1.17732 18.713 2
      vertex -1.17732 18.713 2
    endloop
  endfacet
  facet normal -0.368124 0.929777 0
    outer loop
      vertex -5.79407 17.8323 2
      vertex -7.98336 16.9655 7
      vertex -5.79407 17.8323 7
    endloop
  endfacet
  facet normal -0.368124 0.929777 0
    outer loop
      vertex -7.98336 16.9655 7
      vertex -5.79407 17.8323 2
      vertex -7.98336 16.9655 2
    endloop
  endfacet
  facet normal 0.684524 0.72899 -0
    outer loop
      vertex 13.6682 12.8353 2
      vertex 11.9517 14.4471 7
      vertex 13.6682 12.8353 7
    endloop
  endfacet
  facet normal 0.684524 0.72899 0
    outer loop
      vertex 11.9517 14.4471 7
      vertex 13.6682 12.8353 2
      vertex 11.9517 14.4471 2
    endloop
  endfacet
  facet normal 0.982289 -0.187374 0
    outer loop
      vertex 18.1609 -4.66294 7
      vertex 18.6021 -2.35 2
      vertex 18.6021 -2.35 7
    endloop
  endfacet
  facet normal 0.982289 -0.187374 0
    outer loop
      vertex 18.6021 -2.35 2
      vertex 18.1609 -4.66294 7
      vertex 18.1609 -4.66294 2
    endloop
  endfacet
  facet normal 0.368124 -0.929777 0
    outer loop
      vertex 5.79407 -17.8323 2
      vertex 7.98336 -16.9655 7
      vertex 5.79407 -17.8323 7
    endloop
  endfacet
  facet normal 0.368124 -0.929777 0
    outer loop
      vertex 7.98336 -16.9655 7
      vertex 5.79407 -17.8323 2
      vertex 7.98336 -16.9655 2
    endloop
  endfacet
  facet normal -0.770517 -0.637419 0
    outer loop
      vertex -13.6682 -12.8353 2
      vertex -15.1691 -11.021 7
      vertex -15.1691 -11.021 2
    endloop
  endfacet
  facet normal -0.770517 -0.637419 0
    outer loop
      vertex -15.1691 -11.021 7
      vertex -13.6682 -12.8353 2
      vertex -13.6682 -12.8353 7
    endloop
  endfacet
  facet normal 0.998025 -0.0628119 0
    outer loop
      vertex 18.6021 -2.35 7
      vertex 18.75 0 2
      vertex 18.75 0 7
    endloop
  endfacet
  facet normal 0.998025 -0.0628119 0
    outer loop
      vertex 18.75 0 2
      vertex 18.6021 -2.35 7
      vertex 18.6021 -2.35 2
    endloop
  endfacet
  facet normal 0.982289 0.187374 0
    outer loop
      vertex 18.6021 2.35 7
      vertex 18.1609 4.66294 2
      vertex 18.1609 4.66294 7
    endloop
  endfacet
  facet normal 0.982289 0.187374 0
    outer loop
      vertex 18.1609 4.66294 2
      vertex 18.6021 2.35 7
      vertex 18.6021 2.35 2
    endloop
  endfacet
  facet normal -0.982289 0.187374 0
    outer loop
      vertex -18.6021 2.35 2
      vertex -18.1609 4.66294 7
      vertex -18.1609 4.66294 2
    endloop
  endfacet
  facet normal -0.982289 0.187374 0
    outer loop
      vertex -18.1609 4.66294 7
      vertex -18.6021 2.35 2
      vertex -18.6021 2.35 7
    endloop
  endfacet
  facet normal 0.770517 -0.637419 0
    outer loop
      vertex 13.6682 -12.8353 7
      vertex 15.1691 -11.021 2
      vertex 15.1691 -11.021 7
    endloop
  endfacet
  facet normal 0.770517 -0.637419 0
    outer loop
      vertex 15.1691 -11.021 2
      vertex 13.6682 -12.8353 7
      vertex 13.6682 -12.8353 2
    endloop
  endfacet
  facet normal 0.844347 0.535797 0
    outer loop
      vertex 16.4307 9.03288 7
      vertex 15.1691 11.021 2
      vertex 15.1691 11.021 7
    endloop
  endfacet
  facet normal 0.844347 0.535797 0
    outer loop
      vertex 15.1691 11.021 2
      vertex 16.4307 9.03288 7
      vertex 16.4307 9.03288 2
    endloop
  endfacet
  facet normal 0.481758 -0.876304 0
    outer loop
      vertex 7.98336 -16.9655 2
      vertex 10.0468 -15.8311 7
      vertex 7.98336 -16.9655 7
    endloop
  endfacet
  facet normal 0.481758 -0.876304 0
    outer loop
      vertex 10.0468 -15.8311 7
      vertex 7.98336 -16.9655 2
      vertex 10.0468 -15.8311 2
    endloop
  endfacet
  facet normal 0.95106 0.309007 0
    outer loop
      vertex 18.1609 4.66294 7
      vertex 17.4333 6.90234 2
      vertex 17.4333 6.90234 7
    endloop
  endfacet
  facet normal 0.95106 0.309007 0
    outer loop
      vertex 17.4333 6.90234 2
      vertex 18.1609 4.66294 7
      vertex 18.1609 4.66294 2
    endloop
  endfacet
  facet normal 0.844347 -0.535797 0
    outer loop
      vertex 15.1691 -11.021 7
      vertex 16.4307 -9.03288 2
      vertex 16.4307 -9.03288 7
    endloop
  endfacet
  facet normal 0.844347 -0.535797 0
    outer loop
      vertex 16.4307 -9.03288 2
      vertex 15.1691 -11.021 7
      vertex 15.1691 -11.021 2
    endloop
  endfacet
  facet normal 0.95106 -0.309007 0
    outer loop
      vertex 17.4333 -6.90234 7
      vertex 18.1609 -4.66294 2
      vertex 18.1609 -4.66294 7
    endloop
  endfacet
  facet normal 0.95106 -0.309007 0
    outer loop
      vertex 18.1609 -4.66294 2
      vertex 17.4333 -6.90234 7
      vertex 17.4333 -6.90234 2
    endloop
  endfacet
  facet normal -0.248699 -0.968581 0
    outer loop
      vertex -5.79407 -17.8323 2
      vertex -3.5134 -18.4179 7
      vertex -5.79407 -17.8323 7
    endloop
  endfacet
  facet normal -0.248699 -0.968581 -0
    outer loop
      vertex -3.5134 -18.4179 7
      vertex -5.79407 -17.8323 2
      vertex -3.5134 -18.4179 2
    endloop
  endfacet
  facet normal 0.770517 0.637419 0
    outer loop
      vertex 15.1691 11.021 7
      vertex 13.6682 12.8353 2
      vertex 13.6682 12.8353 7
    endloop
  endfacet
  facet normal 0.770517 0.637419 0
    outer loop
      vertex 13.6682 12.8353 2
      vertex 15.1691 11.021 7
      vertex 15.1691 11.021 2
    endloop
  endfacet
  facet normal 0.587788 0.809015 -0
    outer loop
      vertex 11.9517 14.4471 2
      vertex 10.0468 15.8311 7
      vertex 11.9517 14.4471 7
    endloop
  endfacet
  facet normal 0.587788 0.809015 0
    outer loop
      vertex 10.0468 15.8311 7
      vertex 11.9517 14.4471 2
      vertex 10.0468 15.8311 2
    endloop
  endfacet
  facet normal -0.770517 0.637419 0
    outer loop
      vertex -15.1691 11.021 2
      vertex -13.6682 12.8353 7
      vertex -13.6682 12.8353 2
    endloop
  endfacet
  facet normal -0.770517 0.637419 0
    outer loop
      vertex -13.6682 12.8353 7
      vertex -15.1691 11.021 2
      vertex -15.1691 11.021 7
    endloop
  endfacet
  facet normal 0.248699 0.968581 -0
    outer loop
      vertex 5.79407 17.8323 2
      vertex 3.5134 18.4179 7
      vertex 5.79407 17.8323 7
    endloop
  endfacet
  facet normal 0.248699 0.968581 0
    outer loop
      vertex 3.5134 18.4179 7
      vertex 5.79407 17.8323 2
      vertex 3.5134 18.4179 2
    endloop
  endfacet
  facet normal 0.481758 0.876304 -0
    outer loop
      vertex 10.0468 15.8311 2
      vertex 7.98336 16.9655 7
      vertex 10.0468 15.8311 7
    endloop
  endfacet
  facet normal 0.481758 0.876304 0
    outer loop
      vertex 7.98336 16.9655 7
      vertex 10.0468 15.8311 2
      vertex 7.98336 16.9655 2
    endloop
  endfacet
  facet normal -0.481758 -0.876304 0
    outer loop
      vertex -10.0468 -15.8311 2
      vertex -7.98336 -16.9655 7
      vertex -10.0468 -15.8311 7
    endloop
  endfacet
  facet normal -0.481758 -0.876304 -0
    outer loop
      vertex -7.98336 -16.9655 7
      vertex -10.0468 -15.8311 2
      vertex -7.98336 -16.9655 2
    endloop
  endfacet
  facet normal -0.481758 0.876304 0
    outer loop
      vertex -7.98336 16.9655 2
      vertex -10.0468 15.8311 7
      vertex -7.98336 16.9655 7
    endloop
  endfacet
  facet normal -0.481758 0.876304 0
    outer loop
      vertex -10.0468 15.8311 7
      vertex -7.98336 16.9655 2
      vertex -10.0468 15.8311 2
    endloop
  endfacet
  facet normal -0.368124 -0.929777 0
    outer loop
      vertex -7.98336 -16.9655 2
      vertex -5.79407 -17.8323 7
      vertex -7.98336 -16.9655 7
    endloop
  endfacet
  facet normal -0.368124 -0.929777 -0
    outer loop
      vertex -5.79407 -17.8323 7
      vertex -7.98336 -16.9655 2
      vertex -5.79407 -17.8323 2
    endloop
  endfacet
  facet normal 0.90482 -0.425795 0
    outer loop
      vertex 16.4307 -9.03288 7
      vertex 17.4333 -6.90234 2
      vertex 17.4333 -6.90234 7
    endloop
  endfacet
  facet normal 0.90482 -0.425795 0
    outer loop
      vertex 17.4333 -6.90234 2
      vertex 16.4307 -9.03288 7
      vertex 16.4307 -9.03288 2
    endloop
  endfacet
  facet normal -0.587788 -0.809015 0
    outer loop
      vertex -11.9517 -14.4471 2
      vertex -10.0468 -15.8311 7
      vertex -11.9517 -14.4471 7
    endloop
  endfacet
  facet normal -0.587788 -0.809015 -0
    outer loop
      vertex -10.0468 -15.8311 7
      vertex -11.9517 -14.4471 2
      vertex -10.0468 -15.8311 2
    endloop
  endfacet
  facet normal -0.125327 -0.992116 0
    outer loop
      vertex -3.5134 -18.4179 2
      vertex -1.17732 -18.713 7
      vertex -3.5134 -18.4179 7
    endloop
  endfacet
  facet normal -0.125327 -0.992116 -0
    outer loop
      vertex -1.17732 -18.713 7
      vertex -3.5134 -18.4179 2
      vertex -1.17732 -18.713 2
    endloop
  endfacet
  facet normal -0.248699 0.968581 0
    outer loop
      vertex -3.5134 18.4179 2
      vertex -5.79407 17.8323 7
      vertex -3.5134 18.4179 7
    endloop
  endfacet
  facet normal -0.248699 0.968581 0
    outer loop
      vertex -5.79407 17.8323 7
      vertex -3.5134 18.4179 2
      vertex -5.79407 17.8323 2
    endloop
  endfacet
  facet normal -0.684524 -0.72899 0
    outer loop
      vertex -13.6682 -12.8353 2
      vertex -11.9517 -14.4471 7
      vertex -13.6682 -12.8353 7
    endloop
  endfacet
  facet normal -0.684524 -0.72899 -0
    outer loop
      vertex -11.9517 -14.4471 7
      vertex -13.6682 -12.8353 2
      vertex -11.9517 -14.4471 2
    endloop
  endfacet
  facet normal 0.368124 0.929777 -0
    outer loop
      vertex 7.98336 16.9655 2
      vertex 5.79407 17.8323 7
      vertex 7.98336 16.9655 7
    endloop
  endfacet
  facet normal 0.368124 0.929777 0
    outer loop
      vertex 5.79407 17.8323 7
      vertex 7.98336 16.9655 2
      vertex 5.79407 17.8323 2
    endloop
  endfacet
  facet normal -0.587788 0.809015 0
    outer loop
      vertex -10.0468 15.8311 2
      vertex -11.9517 14.4471 7
      vertex -10.0468 15.8311 7
    endloop
  endfacet
  facet normal -0.587788 0.809015 0
    outer loop
      vertex -11.9517 14.4471 7
      vertex -10.0468 15.8311 2
      vertex -11.9517 14.4471 2
    endloop
  endfacet
  facet normal -0.684524 0.72899 0
    outer loop
      vertex -11.9517 14.4471 2
      vertex -13.6682 12.8353 7
      vertex -11.9517 14.4471 7
    endloop
  endfacet
  facet normal -0.684524 0.72899 0
    outer loop
      vertex -13.6682 12.8353 7
      vertex -11.9517 14.4471 2
      vertex -13.6682 12.8353 2
    endloop
  endfacet
  facet normal -0.95106 0.309007 0
    outer loop
      vertex -18.1609 4.66294 2
      vertex -17.4333 6.90234 7
      vertex -17.4333 6.90234 2
    endloop
  endfacet
  facet normal -0.95106 0.309007 0
    outer loop
      vertex -17.4333 6.90234 7
      vertex -18.1609 4.66294 2
      vertex -18.1609 4.66294 7
    endloop
  endfacet
  facet normal 0.684524 -0.72899 0
    outer loop
      vertex 11.9517 -14.4471 2
      vertex 13.6682 -12.8353 7
      vertex 11.9517 -14.4471 7
    endloop
  endfacet
  facet normal 0.684524 -0.72899 0
    outer loop
      vertex 13.6682 -12.8353 7
      vertex 11.9517 -14.4471 2
      vertex 13.6682 -12.8353 2
    endloop
  endfacet
  facet normal 0.587788 -0.809015 0
    outer loop
      vertex 10.0468 -15.8311 2
      vertex 11.9517 -14.4471 7
      vertex 10.0468 -15.8311 7
    endloop
  endfacet
  facet normal 0.587788 -0.809015 0
    outer loop
      vertex 11.9517 -14.4471 7
      vertex 10.0468 -15.8311 2
      vertex 11.9517 -14.4471 2
    endloop
  endfacet
  facet normal 0.248699 -0.968581 0
    outer loop
      vertex 3.5134 -18.4179 2
      vertex 5.79407 -17.8323 7
      vertex 3.5134 -18.4179 7
    endloop
  endfacet
  facet normal 0.248699 -0.968581 0
    outer loop
      vertex 5.79407 -17.8323 7
      vertex 3.5134 -18.4179 2
      vertex 5.79407 -17.8323 2
    endloop
  endfacet
  facet normal -0.998025 -0.0628119 0
    outer loop
      vertex -18.6021 -2.35 2
      vertex -18.75 0 7
      vertex -18.75 0 2
    endloop
  endfacet
  facet normal -0.998025 -0.0628119 0
    outer loop
      vertex -18.75 0 7
      vertex -18.6021 -2.35 2
      vertex -18.6021 -2.35 7
    endloop
  endfacet
  facet normal -0.90482 -0.425795 0
    outer loop
      vertex -16.4307 -9.03288 2
      vertex -17.4333 -6.90234 7
      vertex -17.4333 -6.90234 2
    endloop
  endfacet
  facet normal -0.90482 -0.425795 0
    outer loop
      vertex -17.4333 -6.90234 7
      vertex -16.4307 -9.03288 2
      vertex -16.4307 -9.03288 7
    endloop
  endfacet
  facet normal -0.844347 -0.535797 0
    outer loop
      vertex -15.1691 -11.021 2
      vertex -16.4307 -9.03288 7
      vertex -16.4307 -9.03288 2
    endloop
  endfacet
  facet normal -0.844347 -0.535797 0
    outer loop
      vertex -16.4307 -9.03288 7
      vertex -15.1691 -11.021 2
      vertex -15.1691 -11.021 7
    endloop
  endfacet
  facet normal -0.844347 0.535797 0
    outer loop
      vertex -16.4307 9.03288 2
      vertex -15.1691 11.021 7
      vertex -15.1691 11.021 2
    endloop
  endfacet
  facet normal -0.844347 0.535797 0
    outer loop
      vertex -15.1691 11.021 7
      vertex -16.4307 9.03288 2
      vertex -16.4307 9.03288 7
    endloop
  endfacet
  facet normal 0 0 1
    outer loop
      vertex 16.75 0 7
      vertex 18.75 0 7
      vertex 18.6021 2.35 7
    endloop
  endfacet
  facet normal 0 0 1
    outer loop
      vertex 16.6179 2.09933 7
      vertex 18.6021 2.35 7
      vertex 18.1609 4.66294 7
    endloop
  endfacet
  facet normal 0 0 1
    outer loop
      vertex 18.75 0 7
      vertex 16.75 0 7
      vertex 18.6021 -2.35 7
    endloop
  endfacet
  facet normal 0 0 1
    outer loop
      vertex 16.2238 4.16556 7
      vertex 18.1609 4.66294 7
      vertex 17.4333 6.90234 7
    endloop
  endfacet
  facet normal -0 0 1
    outer loop
      vertex 16.6179 -2.09933 7
      vertex 18.6021 -2.35 7
      vertex 16.75 0 7
    endloop
  endfacet
  facet normal 0 0 1
    outer loop
      vertex 18.6021 -2.35 7
      vertex 16.6179 -2.09933 7
      vertex 18.1609 -4.66294 7
    endloop
  endfacet
  facet normal 0 0 1
    outer loop
      vertex 18.6021 2.35 7
      vertex 16.6179 2.09933 7
      vertex 16.75 0 7
    endloop
  endfacet
  facet normal 0 0 1
    outer loop
      vertex 15.5738 6.16609 7
      vertex 17.4333 6.90234 7
      vertex 16.4307 9.03288 7
    endloop
  endfacet
  facet normal 0 0 1
    outer loop
      vertex 18.1609 4.66294 7
      vertex 16.2238 4.16556 7
      vertex 16.6179 2.09933 7
    endloop
  endfacet
  facet normal 0 0 1
    outer loop
      vertex 17.4333 6.90234 7
      vertex 15.5738 6.16609 7
      vertex 16.2238 4.16556 7
    endloop
  endfacet
  facet normal 0 0 1
    outer loop
      vertex 14.6781 8.06937 7
      vertex 16.4307 9.03288 7
      vertex 15.1691 11.021 7
    endloop
  endfacet
  facet normal 0 0 1
    outer loop
      vertex 16.4307 9.03288 7
      vertex 14.6781 8.06937 7
      vertex 15.5738 6.16609 7
    endloop
  endfacet
  facet normal 0 0 1
    outer loop
      vertex 13.551 9.8454 7
      vertex 15.1691 11.021 7
      vertex 13.6682 12.8353 7
    endloop
  endfacet
  facet normal 0 0 1
    outer loop
      vertex 15.1691 11.021 7
      vertex 13.551 9.8454 7
      vertex 14.6781 8.06937 7
    endloop
  endfacet
  facet normal 0 0 1
    outer loop
      vertex 13.6682 12.8353 7
      vertex 12.2102 11.4662 7
      vertex 13.551 9.8454 7
    endloop
  endfacet
  facet normal 0 0 1
    outer loop
      vertex 11.9517 14.4471 7
      vertex 12.2102 11.4662 7
      vertex 13.6682 12.8353 7
    endloop
  endfacet
  facet normal 0 0 1
    outer loop
      vertex 11.9517 14.4471 7
      vertex 10.6769 12.9061 7
      vertex 12.2102 11.4662 7
    endloop
  endfacet
  facet normal 0 0 1
    outer loop
      vertex 10.0468 15.8311 7
      vertex 10.6769 12.9061 7
      vertex 11.9517 14.4471 7
    endloop
  endfacet
  facet normal 0 0 1
    outer loop
      vertex 10.0468 15.8311 7
      vertex 8.9751 14.1425 7
      vertex 10.6769 12.9061 7
    endloop
  endfacet
  facet normal 0 0 1
    outer loop
      vertex 7.98336 16.9655 7
      vertex 8.9751 14.1425 7
      vertex 10.0468 15.8311 7
    endloop
  endfacet
  facet normal 0 0 1
    outer loop
      vertex 7.98336 16.9655 7
      vertex 7.1318 15.1559 7
      vertex 8.9751 14.1425 7
    endloop
  endfacet
  facet normal 0 0 1
    outer loop
      vertex 5.79407 17.8323 7
      vertex 7.1318 15.1559 7
      vertex 7.98336 16.9655 7
    endloop
  endfacet
  facet normal 0 0 1
    outer loop
      vertex 5.79407 17.8323 7
      vertex 5.17603 15.9302 7
      vertex 7.1318 15.1559 7
    endloop
  endfacet
  facet normal 0 0 1
    outer loop
      vertex 3.5134 18.4179 7
      vertex 5.17603 15.9302 7
      vertex 5.79407 17.8323 7
    endloop
  endfacet
  facet normal 0 0 1
    outer loop
      vertex 3.5134 18.4179 7
      vertex 3.13864 16.4533 7
      vertex 5.17603 15.9302 7
    endloop
  endfacet
  facet normal 0 0 1
    outer loop
      vertex 1.17732 18.713 7
      vertex 3.13864 16.4533 7
      vertex 3.5134 18.4179 7
    endloop
  endfacet
  facet normal 0 0 1
    outer loop
      vertex 1.17732 18.713 7
      vertex 1.05174 16.7169 7
      vertex 3.13864 16.4533 7
    endloop
  endfacet
  facet normal 0 0 1
    outer loop
      vertex 1.17732 18.713 7
      vertex -1.05174 16.7169 7
      vertex 1.05174 16.7169 7
    endloop
  endfacet
  facet normal -0 0 1
    outer loop
      vertex -1.17732 18.713 7
      vertex -1.05174 16.7169 7
      vertex 1.17732 18.713 7
    endloop
  endfacet
  facet normal 0 0 1
    outer loop
      vertex -1.17732 18.713 7
      vertex -3.13864 16.4533 7
      vertex -1.05174 16.7169 7
    endloop
  endfacet
  facet normal -0 0 1
    outer loop
      vertex -3.5134 18.4179 7
      vertex -3.13864 16.4533 7
      vertex -1.17732 18.713 7
    endloop
  endfacet
  facet normal 0 0 1
    outer loop
      vertex -3.5134 18.4179 7
      vertex -5.17603 15.9302 7
      vertex -3.13864 16.4533 7
    endloop
  endfacet
  facet normal -0 0 1
    outer loop
      vertex -5.79407 17.8323 7
      vertex -5.17603 15.9302 7
      vertex -3.5134 18.4179 7
    endloop
  endfacet
  facet normal 0 0 1
    outer loop
      vertex -5.79407 17.8323 7
      vertex -7.1318 15.1559 7
      vertex -5.17603 15.9302 7
    endloop
  endfacet
  facet normal -0 0 1
    outer loop
      vertex -7.98336 16.9655 7
      vertex -7.1318 15.1559 7
      vertex -5.79407 17.8323 7
    endloop
  endfacet
  facet normal 0 0 1
    outer loop
      vertex -7.98336 16.9655 7
      vertex -8.9751 14.1425 7
      vertex -7.1318 15.1559 7
    endloop
  endfacet
  facet normal -0 0 1
    outer loop
      vertex -10.0468 15.8311 7
      vertex -8.9751 14.1425 7
      vertex -7.98336 16.9655 7
    endloop
  endfacet
  facet normal 0 0 1
    outer loop
      vertex -10.0468 15.8311 7
      vertex -10.6769 12.9061 7
      vertex -8.9751 14.1425 7
    endloop
  endfacet
  facet normal -0 0 1
    outer loop
      vertex -11.9517 14.4471 7
      vertex -10.6769 12.9061 7
      vertex -10.0468 15.8311 7
    endloop
  endfacet
  facet normal 0 0 1
    outer loop
      vertex -11.9517 14.4471 7
      vertex -12.2102 11.4662 7
      vertex -10.6769 12.9061 7
    endloop
  endfacet
  facet normal -0 0 1
    outer loop
      vertex -13.6682 12.8353 7
      vertex -12.2102 11.4662 7
      vertex -11.9517 14.4471 7
    endloop
  endfacet
  facet normal 0 0 1
    outer loop
      vertex -12.2102 11.4662 7
      vertex -13.6682 12.8353 7
      vertex -13.551 9.8454 7
    endloop
  endfacet
  facet normal -0 0 1
    outer loop
      vertex -15.1691 11.021 7
      vertex -13.551 9.8454 7
      vertex -13.6682 12.8353 7
    endloop
  endfacet
  facet normal 0 0 1
    outer loop
      vertex -13.551 9.8454 7
      vertex -15.1691 11.021 7
      vertex -14.6781 8.06937 7
    endloop
  endfacet
  facet normal -0 0 1
    outer loop
      vertex -16.4307 9.03288 7
      vertex -14.6781 8.06937 7
      vertex -15.1691 11.021 7
    endloop
  endfacet
  facet normal 0 0 1
    outer loop
      vertex -14.6781 8.06937 7
      vertex -16.4307 9.03288 7
      vertex -15.5738 6.16609 7
    endloop
  endfacet
  facet normal -0 0 1
    outer loop
      vertex -17.4333 6.90234 7
      vertex -15.5738 6.16609 7
      vertex -16.4307 9.03288 7
    endloop
  endfacet
  facet normal 0 0 1
    outer loop
      vertex -15.5738 6.16609 7
      vertex -17.4333 6.90234 7
      vertex -16.2238 4.16556 7
    endloop
  endfacet
  facet normal -0 0 1
    outer loop
      vertex -18.1609 4.66294 7
      vertex -16.2238 4.16556 7
      vertex -17.4333 6.90234 7
    endloop
  endfacet
  facet normal 0 0 1
    outer loop
      vertex -16.2238 4.16556 7
      vertex -18.1609 4.66294 7
      vertex -16.6179 2.09933 7
    endloop
  endfacet
  facet normal -0 0 1
    outer loop
      vertex 16.2238 -4.16556 7
      vertex 18.1609 -4.66294 7
      vertex 16.6179 -2.09933 7
    endloop
  endfacet
  facet normal 0 0 1
    outer loop
      vertex 18.1609 -4.66294 7
      vertex 16.2238 -4.16556 7
      vertex 17.4333 -6.90234 7
    endloop
  endfacet
  facet normal -0 0 1
    outer loop
      vertex 15.5738 -6.16609 7
      vertex 17.4333 -6.90234 7
      vertex 16.2238 -4.16556 7
    endloop
  endfacet
  facet normal 0 0 1
    outer loop
      vertex 17.4333 -6.90234 7
      vertex 15.5738 -6.16609 7
      vertex 16.4307 -9.03288 7
    endloop
  endfacet
  facet normal -0 0 1
    outer loop
      vertex 14.6781 -8.06937 7
      vertex 16.4307 -9.03288 7
      vertex 15.5738 -6.16609 7
    endloop
  endfacet
  facet normal 0 0 1
    outer loop
      vertex 16.4307 -9.03288 7
      vertex 14.6781 -8.06937 7
      vertex 15.1691 -11.021 7
    endloop
  endfacet
  facet normal -0 0 1
    outer loop
      vertex 13.551 -9.8454 7
      vertex 15.1691 -11.021 7
      vertex 14.6781 -8.06937 7
    endloop
  endfacet
  facet normal 0 0 1
    outer loop
      vertex 15.1691 -11.021 7
      vertex 13.551 -9.8454 7
      vertex 13.6682 -12.8353 7
    endloop
  endfacet
  facet normal -0 0 1
    outer loop
      vertex 12.2102 -11.4662 7
      vertex 13.6682 -12.8353 7
      vertex 13.551 -9.8454 7
    endloop
  endfacet
  facet normal 0 0 1
    outer loop
      vertex 12.2102 -11.4662 7
      vertex 11.9517 -14.4471 7
      vertex 13.6682 -12.8353 7
    endloop
  endfacet
  facet normal -0 0 1
    outer loop
      vertex 10.6769 -12.9061 7
      vertex 11.9517 -14.4471 7
      vertex 12.2102 -11.4662 7
    endloop
  endfacet
  facet normal 0 0 1
    outer loop
      vertex 10.6769 -12.9061 7
      vertex 10.0468 -15.8311 7
      vertex 11.9517 -14.4471 7
    endloop
  endfacet
  facet normal -0 0 1
    outer loop
      vertex 8.9751 -14.1425 7
      vertex 10.0468 -15.8311 7
      vertex 10.6769 -12.9061 7
    endloop
  endfacet
  facet normal 0 0 1
    outer loop
      vertex 8.9751 -14.1425 7
      vertex 7.98336 -16.9655 7
      vertex 10.0468 -15.8311 7
    endloop
  endfacet
  facet normal -0 0 1
    outer loop
      vertex 7.1318 -15.1559 7
      vertex 7.98336 -16.9655 7
      vertex 8.9751 -14.1425 7
    endloop
  endfacet
  facet normal 0 0 1
    outer loop
      vertex 7.1318 -15.1559 7
      vertex 5.79407 -17.8323 7
      vertex 7.98336 -16.9655 7
    endloop
  endfacet
  facet normal -0 0 1
    outer loop
      vertex 5.17603 -15.9302 7
      vertex 5.79407 -17.8323 7
      vertex 7.1318 -15.1559 7
    endloop
  endfacet
  facet normal 0 0 1
    outer loop
      vertex 5.17603 -15.9302 7
      vertex 3.5134 -18.4179 7
      vertex 5.79407 -17.8323 7
    endloop
  endfacet
  facet normal -0 0 1
    outer loop
      vertex 3.13864 -16.4533 7
      vertex 3.5134 -18.4179 7
      vertex 5.17603 -15.9302 7
    endloop
  endfacet
  facet normal 0 0 1
    outer loop
      vertex 3.13864 -16.4533 7
      vertex 1.17732 -18.713 7
      vertex 3.5134 -18.4179 7
    endloop
  endfacet
  facet normal -0 0 1
    outer loop
      vertex 1.05174 -16.7169 7
      vertex 1.17732 -18.713 7
      vertex 3.13864 -16.4533 7
    endloop
  endfacet
  facet normal -0 0 1
    outer loop
      vertex -1.05174 -16.7169 7
      vertex 1.17732 -18.713 7
      vertex 1.05174 -16.7169 7
    endloop
  endfacet
  facet normal 0 0 1
    outer loop
      vertex -1.05174 -16.7169 7
      vertex -1.17732 -18.713 7
      vertex 1.17732 -18.713 7
    endloop
  endfacet
  facet normal 0 0 1
    outer loop
      vertex -3.13864 -16.4533 7
      vertex -1.17732 -18.713 7
      vertex -1.05174 -16.7169 7
    endloop
  endfacet
  facet normal 0 0 1
    outer loop
      vertex -3.13864 -16.4533 7
      vertex -3.5134 -18.4179 7
      vertex -1.17732 -18.713 7
    endloop
  endfacet
  facet normal 0 0 1
    outer loop
      vertex -5.17603 -15.9302 7
      vertex -3.5134 -18.4179 7
      vertex -3.13864 -16.4533 7
    endloop
  endfacet
  facet normal 0 0 1
    outer loop
      vertex -5.17603 -15.9302 7
      vertex -5.79407 -17.8323 7
      vertex -3.5134 -18.4179 7
    endloop
  endfacet
  facet normal 0 0 1
    outer loop
      vertex -7.1318 -15.1559 7
      vertex -5.79407 -17.8323 7
      vertex -5.17603 -15.9302 7
    endloop
  endfacet
  facet normal 0 0 1
    outer loop
      vertex -7.1318 -15.1559 7
      vertex -7.98336 -16.9655 7
      vertex -5.79407 -17.8323 7
    endloop
  endfacet
  facet normal 0 0 1
    outer loop
      vertex -8.9751 -14.1425 7
      vertex -7.98336 -16.9655 7
      vertex -7.1318 -15.1559 7
    endloop
  endfacet
  facet normal 0 0 1
    outer loop
      vertex -8.9751 -14.1425 7
      vertex -10.0468 -15.8311 7
      vertex -7.98336 -16.9655 7
    endloop
  endfacet
  facet normal 0 0 1
    outer loop
      vertex -10.6769 -12.9061 7
      vertex -10.0468 -15.8311 7
      vertex -8.9751 -14.1425 7
    endloop
  endfacet
  facet normal 0 0 1
    outer loop
      vertex -10.6769 -12.9061 7
      vertex -11.9517 -14.4471 7
      vertex -10.0468 -15.8311 7
    endloop
  endfacet
  facet normal 0 0 1
    outer loop
      vertex -12.2102 -11.4662 7
      vertex -11.9517 -14.4471 7
      vertex -10.6769 -12.9061 7
    endloop
  endfacet
  facet normal 0 0 1
    outer loop
      vertex -13.6682 -12.8353 7
      vertex -12.2102 -11.4662 7
      vertex -13.551 -9.8454 7
    endloop
  endfacet
  facet normal 0 0 1
    outer loop
      vertex -12.2102 -11.4662 7
      vertex -13.6682 -12.8353 7
      vertex -11.9517 -14.4471 7
    endloop
  endfacet
  facet normal 0 0 1
    outer loop
      vertex -15.1691 -11.021 7
      vertex -13.551 -9.8454 7
      vertex -14.6781 -8.06937 7
    endloop
  endfacet
  facet normal 0 0 1
    outer loop
      vertex -13.551 -9.8454 7
      vertex -15.1691 -11.021 7
      vertex -13.6682 -12.8353 7
    endloop
  endfacet
  facet normal 0 0 1
    outer loop
      vertex -16.4307 -9.03288 7
      vertex -14.6781 -8.06937 7
      vertex -15.5738 -6.16609 7
    endloop
  endfacet
  facet normal 0 0 1
    outer loop
      vertex -17.4333 -6.90234 7
      vertex -15.5738 -6.16609 7
      vertex -16.2238 -4.16556 7
    endloop
  endfacet
  facet normal 0 0 1
    outer loop
      vertex -14.6781 -8.06937 7
      vertex -16.4307 -9.03288 7
      vertex -15.1691 -11.021 7
    endloop
  endfacet
  facet normal 0 0 1
    outer loop
      vertex -18.1609 -4.66294 7
      vertex -16.2238 -4.16556 7
      vertex -16.6179 -2.09933 7
    endloop
  endfacet
  facet normal 0 0 1
    outer loop
      vertex -18.6021 -2.35 7
      vertex -16.6179 -2.09933 7
      vertex -16.75 0 7
    endloop
  endfacet
  facet normal -0 0 1
    outer loop
      vertex -18.6021 2.35 7
      vertex -16.6179 2.09933 7
      vertex -18.1609 4.66294 7
    endloop
  endfacet
  facet normal 0 0 1
    outer loop
      vertex -15.5738 -6.16609 7
      vertex -17.4333 -6.90234 7
      vertex -16.4307 -9.03288 7
    endloop
  endfacet
  facet normal 0 0 1
    outer loop
      vertex -16.6179 2.09933 7
      vertex -18.6021 2.35 7
      vertex -16.75 0 7
    endloop
  endfacet
  facet normal 0 0 1
    outer loop
      vertex -16.2238 -4.16556 7
      vertex -18.1609 -4.66294 7
      vertex -17.4333 -6.90234 7
    endloop
  endfacet
  facet normal 0 0 1
    outer loop
      vertex -18.75 0 7
      vertex -16.75 0 7
      vertex -18.6021 2.35 7
    endloop
  endfacet
  facet normal 0 0 1
    outer loop
      vertex -16.6179 -2.09933 7
      vertex -18.6021 -2.35 7
      vertex -18.1609 -4.66294 7
    endloop
  endfacet
  facet normal 0 0 1
    outer loop
      vertex -16.75 0 7
      vertex -18.75 0 7
      vertex -18.6021 -2.35 7
    endloop
  endfacet
  facet normal -0.90482 0.425795 0
    outer loop
      vertex -17.4333 6.90234 2
      vertex -16.4307 9.03288 7
      vertex -16.4307 9.03288 2
    endloop
  endfacet
  facet normal -0.90482 0.425795 0
    outer loop
      vertex -16.4307 9.03288 7
      vertex -17.4333 6.90234 2
      vertex -17.4333 6.90234 7
    endloop
  endfacet
  facet normal -0.982292 -0.187356 0
    outer loop
      vertex 16.6179 2.09933 2
      vertex 16.2238 4.16556 7
      vertex 16.2238 4.16556 2
    endloop
  endfacet
  facet normal -0.982292 -0.187356 0
    outer loop
      vertex 16.2238 4.16556 7
      vertex 16.6179 2.09933 2
      vertex 16.6179 2.09933 7
    endloop
  endfacet
  facet normal -0.998026 -0.0628006 0
    outer loop
      vertex 16.75 0 2
      vertex 16.6179 2.09933 7
      vertex 16.6179 2.09933 2
    endloop
  endfacet
  facet normal -0.998026 -0.0628006 0
    outer loop
      vertex 16.6179 2.09933 7
      vertex 16.75 0 2
      vertex 16.75 0 7
    endloop
  endfacet
  facet normal -0.904812 0.425812 0
    outer loop
      vertex 14.6781 -8.06937 2
      vertex 15.5738 -6.16609 7
      vertex 15.5738 -6.16609 2
    endloop
  endfacet
  facet normal -0.904812 0.425812 0
    outer loop
      vertex 15.5738 -6.16609 7
      vertex 14.6781 -8.06937 2
      vertex 14.6781 -8.06937 7
    endloop
  endfacet
  facet normal 0.368106 -0.929784 0
    outer loop
      vertex -7.1318 15.1559 2
      vertex -5.17603 15.9302 7
      vertex -7.1318 15.1559 7
    endloop
  endfacet
  facet normal 0.368106 -0.929784 0
    outer loop
      vertex -5.17603 15.9302 7
      vertex -7.1318 15.1559 2
      vertex -5.17603 15.9302 2
    endloop
  endfacet
  facet normal -0.481767 0.876299 0
    outer loop
      vertex 8.9751 -14.1425 2
      vertex 7.1318 -15.1559 7
      vertex 8.9751 -14.1425 7
    endloop
  endfacet
  facet normal -0.481767 0.876299 0
    outer loop
      vertex 7.1318 -15.1559 7
      vertex 8.9751 -14.1425 2
      vertex 7.1318 -15.1559 2
    endloop
  endfacet
  facet normal -0.481767 -0.876299 0
    outer loop
      vertex 7.1318 15.1559 2
      vertex 8.9751 14.1425 7
      vertex 7.1318 15.1559 7
    endloop
  endfacet
  facet normal -0.481767 -0.876299 -0
    outer loop
      vertex 8.9751 14.1425 7
      vertex 7.1318 15.1559 2
      vertex 8.9751 14.1425 2
    endloop
  endfacet
  facet normal 0.248684 0.968585 -0
    outer loop
      vertex -3.13864 -16.4533 2
      vertex -5.17603 -15.9302 7
      vertex -3.13864 -16.4533 7
    endloop
  endfacet
  facet normal 0.248684 0.968585 0
    outer loop
      vertex -5.17603 -15.9302 7
      vertex -3.13864 -16.4533 2
      vertex -5.17603 -15.9302 2
    endloop
  endfacet
  facet normal -0.982292 0.187356 0
    outer loop
      vertex 16.2238 -4.16556 2
      vertex 16.6179 -2.09933 7
      vertex 16.6179 -2.09933 2
    endloop
  endfacet
  facet normal -0.982292 0.187356 0
    outer loop
      vertex 16.6179 -2.09933 7
      vertex 16.2238 -4.16556 2
      vertex 16.2238 -4.16556 7
    endloop
  endfacet
  facet normal 0.587776 0.809024 -0
    outer loop
      vertex -8.9751 -14.1425 2
      vertex -10.6769 -12.9061 7
      vertex -8.9751 -14.1425 7
    endloop
  endfacet
  facet normal 0.587776 0.809024 0
    outer loop
      vertex -10.6769 -12.9061 7
      vertex -8.9751 -14.1425 2
      vertex -10.6769 -12.9061 2
    endloop
  endfacet
  facet normal -0.684556 -0.72896 0
    outer loop
      vertex 10.6769 12.9061 2
      vertex 12.2102 11.4662 7
      vertex 10.6769 12.9061 7
    endloop
  endfacet
  facet normal -0.684556 -0.72896 -0
    outer loop
      vertex 12.2102 11.4662 7
      vertex 10.6769 12.9061 2
      vertex 12.2102 11.4662 2
    endloop
  endfacet
  facet normal -0.998026 0.0628006 0
    outer loop
      vertex 16.6179 -2.09933 2
      vertex 16.75 0 7
      vertex 16.75 0 2
    endloop
  endfacet
  facet normal -0.998026 0.0628006 0
    outer loop
      vertex 16.75 0 7
      vertex 16.6179 -2.09933 2
      vertex 16.6179 -2.09933 7
    endloop
  endfacet
  facet normal 0.982292 0.187356 0
    outer loop
      vertex -16.2238 -4.16556 7
      vertex -16.6179 -2.09933 2
      vertex -16.6179 -2.09933 7
    endloop
  endfacet
  facet normal 0.982292 0.187356 0
    outer loop
      vertex -16.6179 -2.09933 2
      vertex -16.2238 -4.16556 7
      vertex -16.2238 -4.16556 2
    endloop
  endfacet
  facet normal 0.248684 -0.968585 0
    outer loop
      vertex -5.17603 15.9302 2
      vertex -3.13864 16.4533 7
      vertex -5.17603 15.9302 7
    endloop
  endfacet
  facet normal 0.248684 -0.968585 0
    outer loop
      vertex -3.13864 16.4533 7
      vertex -5.17603 15.9302 2
      vertex -3.13864 16.4533 2
    endloop
  endfacet
  facet normal -0.368106 0.929784 0
    outer loop
      vertex 7.1318 -15.1559 2
      vertex 5.17603 -15.9302 7
      vertex 7.1318 -15.1559 7
    endloop
  endfacet
  facet normal -0.368106 0.929784 0
    outer loop
      vertex 5.17603 -15.9302 7
      vertex 7.1318 -15.1559 2
      vertex 5.17603 -15.9302 2
    endloop
  endfacet
  facet normal 0.684556 0.72896 -0
    outer loop
      vertex -10.6769 -12.9061 2
      vertex -12.2102 -11.4662 7
      vertex -10.6769 -12.9061 7
    endloop
  endfacet
  facet normal 0.684556 0.72896 0
    outer loop
      vertex -12.2102 -11.4662 7
      vertex -10.6769 -12.9061 2
      vertex -12.2102 -11.4662 2
    endloop
  endfacet
  facet normal 0 -1 0
    outer loop
      vertex -1.05174 16.7169 2
      vertex 1.05174 16.7169 7
      vertex -1.05174 16.7169 7
    endloop
  endfacet
  facet normal 0 -1 -0
    outer loop
      vertex 1.05174 16.7169 7
      vertex -1.05174 16.7169 2
      vertex 1.05174 16.7169 2
    endloop
  endfacet
  facet normal -0.844329 0.535826 0
    outer loop
      vertex 13.551 -9.8454 2
      vertex 14.6781 -8.06937 7
      vertex 14.6781 -8.06937 2
    endloop
  endfacet
  facet normal -0.844329 0.535826 0
    outer loop
      vertex 14.6781 -8.06937 7
      vertex 13.551 -9.8454 2
      vertex 13.551 -9.8454 7
    endloop
  endfacet
  facet normal 0.684556 -0.72896 0
    outer loop
      vertex -12.2102 11.4662 2
      vertex -10.6769 12.9061 7
      vertex -12.2102 11.4662 7
    endloop
  endfacet
  facet normal 0.684556 -0.72896 0
    outer loop
      vertex -10.6769 12.9061 7
      vertex -12.2102 11.4662 2
      vertex -10.6769 12.9061 2
    endloop
  endfacet
  facet normal 0 1 -0
    outer loop
      vertex 1.05174 -16.7169 2
      vertex -1.05174 -16.7169 7
      vertex 1.05174 -16.7169 7
    endloop
  endfacet
  facet normal 0 1 0
    outer loop
      vertex -1.05174 -16.7169 7
      vertex 1.05174 -16.7169 2
      vertex -1.05174 -16.7169 2
    endloop
  endfacet
  facet normal 0.481767 -0.876299 0
    outer loop
      vertex -8.9751 14.1425 2
      vertex -7.1318 15.1559 7
      vertex -8.9751 14.1425 7
    endloop
  endfacet
  facet normal 0.481767 -0.876299 0
    outer loop
      vertex -7.1318 15.1559 7
      vertex -8.9751 14.1425 2
      vertex -7.1318 15.1559 2
    endloop
  endfacet
  facet normal 0.904812 -0.425812 0
    outer loop
      vertex -15.5738 6.16609 7
      vertex -14.6781 8.06937 2
      vertex -14.6781 8.06937 7
    endloop
  endfacet
  facet normal 0.904812 -0.425812 0
    outer loop
      vertex -14.6781 8.06937 2
      vertex -15.5738 6.16609 7
      vertex -15.5738 6.16609 2
    endloop
  endfacet
  facet normal -0.844329 -0.535826 0
    outer loop
      vertex 14.6781 8.06937 2
      vertex 13.551 9.8454 7
      vertex 13.551 9.8454 2
    endloop
  endfacet
  facet normal -0.844329 -0.535826 0
    outer loop
      vertex 13.551 9.8454 7
      vertex 14.6781 8.06937 2
      vertex 14.6781 8.06937 7
    endloop
  endfacet
  facet normal -0.951058 0.309012 0
    outer loop
      vertex 15.5738 -6.16609 2
      vertex 16.2238 -4.16556 7
      vertex 16.2238 -4.16556 2
    endloop
  endfacet
  facet normal -0.951058 0.309012 0
    outer loop
      vertex 16.2238 -4.16556 7
      vertex 15.5738 -6.16609 2
      vertex 15.5738 -6.16609 7
    endloop
  endfacet
  facet normal 0.481767 0.876299 -0
    outer loop
      vertex -7.1318 -15.1559 2
      vertex -8.9751 -14.1425 7
      vertex -7.1318 -15.1559 7
    endloop
  endfacet
  facet normal 0.481767 0.876299 0
    outer loop
      vertex -8.9751 -14.1425 7
      vertex -7.1318 -15.1559 2
      vertex -8.9751 -14.1425 2
    endloop
  endfacet
  facet normal 0.951058 -0.309012 0
    outer loop
      vertex -16.2238 4.16556 7
      vertex -15.5738 6.16609 2
      vertex -15.5738 6.16609 7
    endloop
  endfacet
  facet normal 0.951058 -0.309012 0
    outer loop
      vertex -15.5738 6.16609 2
      vertex -16.2238 4.16556 7
      vertex -16.2238 4.16556 2
    endloop
  endfacet
  facet normal 0.844329 -0.535826 0
    outer loop
      vertex -14.6781 8.06937 7
      vertex -13.551 9.8454 2
      vertex -13.551 9.8454 7
    endloop
  endfacet
  facet normal 0.844329 -0.535826 0
    outer loop
      vertex -13.551 9.8454 2
      vertex -14.6781 8.06937 7
      vertex -14.6781 8.06937 2
    endloop
  endfacet
  facet normal -0.904812 -0.425812 0
    outer loop
      vertex 15.5738 6.16609 2
      vertex 14.6781 8.06937 7
      vertex 14.6781 8.06937 2
    endloop
  endfacet
  facet normal -0.904812 -0.425812 0
    outer loop
      vertex 14.6781 8.06937 7
      vertex 15.5738 6.16609 2
      vertex 15.5738 6.16609 7
    endloop
  endfacet
  facet normal -0.587776 -0.809024 0
    outer loop
      vertex 8.9751 14.1425 2
      vertex 10.6769 12.9061 7
      vertex 8.9751 14.1425 7
    endloop
  endfacet
  facet normal -0.587776 -0.809024 -0
    outer loop
      vertex 10.6769 12.9061 7
      vertex 8.9751 14.1425 2
      vertex 10.6769 12.9061 2
    endloop
  endfacet
  facet normal 0.998026 -0.0628006 0
    outer loop
      vertex -16.75 0 7
      vertex -16.6179 2.09933 2
      vertex -16.6179 2.09933 7
    endloop
  endfacet
  facet normal 0.998026 -0.0628006 0
    outer loop
      vertex -16.6179 2.09933 2
      vertex -16.75 0 7
      vertex -16.75 0 2
    endloop
  endfacet
  facet normal -0.125316 0.992117 0
    outer loop
      vertex 3.13864 -16.4533 2
      vertex 1.05174 -16.7169 7
      vertex 3.13864 -16.4533 7
    endloop
  endfacet
  facet normal -0.125316 0.992117 0
    outer loop
      vertex 1.05174 -16.7169 7
      vertex 3.13864 -16.4533 2
      vertex 1.05174 -16.7169 2
    endloop
  endfacet
  facet normal 0.125316 -0.992117 0
    outer loop
      vertex -3.13864 16.4533 2
      vertex -1.05174 16.7169 7
      vertex -3.13864 16.4533 7
    endloop
  endfacet
  facet normal 0.125316 -0.992117 0
    outer loop
      vertex -1.05174 16.7169 7
      vertex -3.13864 16.4533 2
      vertex -1.05174 16.7169 2
    endloop
  endfacet
  facet normal -0.248684 0.968585 0
    outer loop
      vertex 5.17603 -15.9302 2
      vertex 3.13864 -16.4533 7
      vertex 5.17603 -15.9302 7
    endloop
  endfacet
  facet normal -0.248684 0.968585 0
    outer loop
      vertex 3.13864 -16.4533 7
      vertex 5.17603 -15.9302 2
      vertex 3.13864 -16.4533 2
    endloop
  endfacet
  facet normal 0.587776 -0.809024 0
    outer loop
      vertex -10.6769 12.9061 2
      vertex -8.9751 14.1425 7
      vertex -10.6769 12.9061 7
    endloop
  endfacet
  facet normal 0.587776 -0.809024 0
    outer loop
      vertex -8.9751 14.1425 7
      vertex -10.6769 12.9061 2
      vertex -8.9751 14.1425 2
    endloop
  endfacet
  facet normal 0.951058 0.309012 0
    outer loop
      vertex -15.5738 -6.16609 7
      vertex -16.2238 -4.16556 2
      vertex -16.2238 -4.16556 7
    endloop
  endfacet
  facet normal 0.951058 0.309012 0
    outer loop
      vertex -16.2238 -4.16556 2
      vertex -15.5738 -6.16609 7
      vertex -15.5738 -6.16609 2
    endloop
  endfacet
  facet normal 0.368106 0.929784 -0
    outer loop
      vertex -5.17603 -15.9302 2
      vertex -7.1318 -15.1559 7
      vertex -5.17603 -15.9302 7
    endloop
  endfacet
  facet normal 0.368106 0.929784 0
    outer loop
      vertex -7.1318 -15.1559 7
      vertex -5.17603 -15.9302 2
      vertex -7.1318 -15.1559 2
    endloop
  endfacet
  facet normal 0.904812 0.425812 0
    outer loop
      vertex -14.6781 -8.06937 7
      vertex -15.5738 -6.16609 2
      vertex -15.5738 -6.16609 7
    endloop
  endfacet
  facet normal 0.904812 0.425812 0
    outer loop
      vertex -15.5738 -6.16609 2
      vertex -14.6781 -8.06937 7
      vertex -14.6781 -8.06937 2
    endloop
  endfacet
  facet normal -0.684556 0.72896 0
    outer loop
      vertex 12.2102 -11.4662 2
      vertex 10.6769 -12.9061 7
      vertex 12.2102 -11.4662 7
    endloop
  endfacet
  facet normal -0.684556 0.72896 0
    outer loop
      vertex 10.6769 -12.9061 7
      vertex 12.2102 -11.4662 2
      vertex 10.6769 -12.9061 2
    endloop
  endfacet
  facet normal 0.982292 -0.187356 0
    outer loop
      vertex -16.6179 2.09933 7
      vertex -16.2238 4.16556 2
      vertex -16.2238 4.16556 7
    endloop
  endfacet
  facet normal 0.982292 -0.187356 0
    outer loop
      vertex -16.2238 4.16556 2
      vertex -16.6179 2.09933 7
      vertex -16.6179 2.09933 2
    endloop
  endfacet
  facet normal -0.368106 -0.929784 0
    outer loop
      vertex 5.17603 15.9302 2
      vertex 7.1318 15.1559 7
      vertex 5.17603 15.9302 7
    endloop
  endfacet
  facet normal -0.368106 -0.929784 -0
    outer loop
      vertex 7.1318 15.1559 7
      vertex 5.17603 15.9302 2
      vertex 7.1318 15.1559 2
    endloop
  endfacet
  facet normal -0.770523 -0.637412 0
    outer loop
      vertex 13.551 9.8454 2
      vertex 12.2102 11.4662 7
      vertex 12.2102 11.4662 2
    endloop
  endfacet
  facet normal -0.770523 -0.637412 0
    outer loop
      vertex 12.2102 11.4662 7
      vertex 13.551 9.8454 2
      vertex 13.551 9.8454 7
    endloop
  endfacet
  facet normal -0.951058 -0.309012 0
    outer loop
      vertex 16.2238 4.16556 2
      vertex 15.5738 6.16609 7
      vertex 15.5738 6.16609 2
    endloop
  endfacet
  facet normal -0.951058 -0.309012 0
    outer loop
      vertex 15.5738 6.16609 7
      vertex 16.2238 4.16556 2
      vertex 16.2238 4.16556 7
    endloop
  endfacet
  facet normal 0.770523 0.637412 0
    outer loop
      vertex -12.2102 -11.4662 7
      vertex -13.551 -9.8454 2
      vertex -13.551 -9.8454 7
    endloop
  endfacet
  facet normal 0.770523 0.637412 0
    outer loop
      vertex -13.551 -9.8454 2
      vertex -12.2102 -11.4662 7
      vertex -12.2102 -11.4662 2
    endloop
  endfacet
  facet normal -0.770523 0.637412 0
    outer loop
      vertex 12.2102 -11.4662 2
      vertex 13.551 -9.8454 7
      vertex 13.551 -9.8454 2
    endloop
  endfacet
  facet normal -0.770523 0.637412 0
    outer loop
      vertex 13.551 -9.8454 7
      vertex 12.2102 -11.4662 2
      vertex 12.2102 -11.4662 7
    endloop
  endfacet
  facet normal 0 0 1
    outer loop
      vertex 16.6179 2.09933 2
      vertex 16.6179 -2.09933 2
      vertex 16.75 0 2
    endloop
  endfacet
  facet normal 0 0 1
    outer loop
      vertex 16.2238 4.16556 2
      vertex 16.6179 -2.09933 2
      vertex 16.6179 2.09933 2
    endloop
  endfacet
  facet normal 0 0 1
    outer loop
      vertex 16.2238 4.16556 2
      vertex 16.2238 -4.16556 2
      vertex 16.6179 -2.09933 2
    endloop
  endfacet
  facet normal 0 0 1
    outer loop
      vertex 15.5738 6.16609 2
      vertex 16.2238 -4.16556 2
      vertex 16.2238 4.16556 2
    endloop
  endfacet
  facet normal 0 0 1
    outer loop
      vertex 15.5738 6.16609 2
      vertex 15.5738 -6.16609 2
      vertex 16.2238 -4.16556 2
    endloop
  endfacet
  facet normal 0 0 1
    outer loop
      vertex 14.6781 8.06937 2
      vertex 15.5738 -6.16609 2
      vertex 15.5738 6.16609 2
    endloop
  endfacet
  facet normal 0 0 1
    outer loop
      vertex 14.6781 8.06937 2
      vertex 14.6781 -8.06937 2
      vertex 15.5738 -6.16609 2
    endloop
  endfacet
  facet normal 0 0 1
    outer loop
      vertex 13.551 9.8454 2
      vertex 14.6781 -8.06937 2
      vertex 14.6781 8.06937 2
    endloop
  endfacet
  facet normal 0 0 1
    outer loop
      vertex 13.551 9.8454 2
      vertex 13.551 -9.8454 2
      vertex 14.6781 -8.06937 2
    endloop
  endfacet
  facet normal 0 0 1
    outer loop
      vertex 12.2102 11.4662 2
      vertex 13.551 -9.8454 2
      vertex 13.551 9.8454 2
    endloop
  endfacet
  facet normal 0 0 1
    outer loop
      vertex 12.2102 11.4662 2
      vertex 12.2102 -11.4662 2
      vertex 13.551 -9.8454 2
    endloop
  endfacet
  facet normal 0 0 1
    outer loop
      vertex 10.6769 12.9061 2
      vertex 12.2102 -11.4662 2
      vertex 12.2102 11.4662 2
    endloop
  endfacet
  facet normal 0 0 1
    outer loop
      vertex 10.6769 12.9061 2
      vertex 10.6769 -12.9061 2
      vertex 12.2102 -11.4662 2
    endloop
  endfacet
  facet normal 0 0 1
    outer loop
      vertex 8.9751 14.1425 2
      vertex 10.6769 -12.9061 2
      vertex 10.6769 12.9061 2
    endloop
  endfacet
  facet normal 0 0 1
    outer loop
      vertex 8.9751 14.1425 2
      vertex 8.9751 -14.1425 2
      vertex 10.6769 -12.9061 2
    endloop
  endfacet
  facet normal 0 0 1
    outer loop
      vertex 7.1318 15.1559 2
      vertex 8.9751 -14.1425 2
      vertex 8.9751 14.1425 2
    endloop
  endfacet
  facet normal 0 0 1
    outer loop
      vertex 7.1318 15.1559 2
      vertex 7.1318 -15.1559 2
      vertex 8.9751 -14.1425 2
    endloop
  endfacet
  facet normal 0 0 1
    outer loop
      vertex 5.17603 15.9302 2
      vertex 7.1318 -15.1559 2
      vertex 7.1318 15.1559 2
    endloop
  endfacet
  facet normal 0 0 1
    outer loop
      vertex 5.17603 15.9302 2
      vertex 5.17603 -15.9302 2
      vertex 7.1318 -15.1559 2
    endloop
  endfacet
  facet normal 0 0 1
    outer loop
      vertex 3.13864 16.4533 2
      vertex 5.17603 -15.9302 2
      vertex 5.17603 15.9302 2
    endloop
  endfacet
  facet normal 0 0 1
    outer loop
      vertex 3.13864 16.4533 2
      vertex 3.13864 -16.4533 2
      vertex 5.17603 -15.9302 2
    endloop
  endfacet
  facet normal 0 0 1
    outer loop
      vertex 1.05174 16.7169 2
      vertex 3.13864 -16.4533 2
      vertex 3.13864 16.4533 2
    endloop
  endfacet
  facet normal 0 0 1
    outer loop
      vertex 1.05174 16.7169 2
      vertex 1.05174 -16.7169 2
      vertex 3.13864 -16.4533 2
    endloop
  endfacet
  facet normal -0 0 1
    outer loop
      vertex -1.05174 16.7169 2
      vertex 1.05174 -16.7169 2
      vertex 1.05174 16.7169 2
    endloop
  endfacet
  facet normal 0 0 1
    outer loop
      vertex -1.05174 16.7169 2
      vertex -1.05174 -16.7169 2
      vertex 1.05174 -16.7169 2
    endloop
  endfacet
  facet normal -0 0 1
    outer loop
      vertex -3.13864 16.4533 2
      vertex -1.05174 -16.7169 2
      vertex -1.05174 16.7169 2
    endloop
  endfacet
  facet normal 0 0 1
    outer loop
      vertex -3.13864 16.4533 2
      vertex -3.13864 -16.4533 2
      vertex -1.05174 -16.7169 2
    endloop
  endfacet
  facet normal -0 0 1
    outer loop
      vertex -5.17603 15.9302 2
      vertex -3.13864 -16.4533 2
      vertex -3.13864 16.4533 2
    endloop
  endfacet
  facet normal 0 0 1
    outer loop
      vertex -5.17603 15.9302 2
      vertex -5.17603 -15.9302 2
      vertex -3.13864 -16.4533 2
    endloop
  endfacet
  facet normal -0 0 1
    outer loop
      vertex -7.1318 15.1559 2
      vertex -5.17603 -15.9302 2
      vertex -5.17603 15.9302 2
    endloop
  endfacet
  facet normal 0 0 1
    outer loop
      vertex -7.1318 15.1559 2
      vertex -7.1318 -15.1559 2
      vertex -5.17603 -15.9302 2
    endloop
  endfacet
  facet normal -0 0 1
    outer loop
      vertex -8.9751 14.1425 2
      vertex -7.1318 -15.1559 2
      vertex -7.1318 15.1559 2
    endloop
  endfacet
  facet normal 0 0 1
    outer loop
      vertex -8.9751 14.1425 2
      vertex -8.9751 -14.1425 2
      vertex -7.1318 -15.1559 2
    endloop
  endfacet
  facet normal -0 0 1
    outer loop
      vertex -10.6769 12.9061 2
      vertex -8.9751 -14.1425 2
      vertex -8.9751 14.1425 2
    endloop
  endfacet
  facet normal 0 0 1
    outer loop
      vertex -10.6769 12.9061 2
      vertex -10.6769 -12.9061 2
      vertex -8.9751 -14.1425 2
    endloop
  endfacet
  facet normal -0 0 1
    outer loop
      vertex -12.2102 11.4662 2
      vertex -10.6769 -12.9061 2
      vertex -10.6769 12.9061 2
    endloop
  endfacet
  facet normal 0 0 1
    outer loop
      vertex -12.2102 11.4662 2
      vertex -12.2102 -11.4662 2
      vertex -10.6769 -12.9061 2
    endloop
  endfacet
  facet normal -0 0 1
    outer loop
      vertex -13.551 9.8454 2
      vertex -12.2102 -11.4662 2
      vertex -12.2102 11.4662 2
    endloop
  endfacet
  facet normal 0 0 1
    outer loop
      vertex -13.551 9.8454 2
      vertex -13.551 -9.8454 2
      vertex -12.2102 -11.4662 2
    endloop
  endfacet
  facet normal -0 0 1
    outer loop
      vertex -14.6781 8.06937 2
      vertex -13.551 -9.8454 2
      vertex -13.551 9.8454 2
    endloop
  endfacet
  facet normal 0 0 1
    outer loop
      vertex -14.6781 8.06937 2
      vertex -14.6781 -8.06937 2
      vertex -13.551 -9.8454 2
    endloop
  endfacet
  facet normal -0 0 1
    outer loop
      vertex -15.5738 6.16609 2
      vertex -14.6781 -8.06937 2
      vertex -14.6781 8.06937 2
    endloop
  endfacet
  facet normal 0 0 1
    outer loop
      vertex -15.5738 6.16609 2
      vertex -15.5738 -6.16609 2
      vertex -14.6781 -8.06937 2
    endloop
  endfacet
  facet normal -0 0 1
    outer loop
      vertex -16.2238 4.16556 2
      vertex -15.5738 -6.16609 2
      vertex -15.5738 6.16609 2
    endloop
  endfacet
  facet normal 0 0 1
    outer loop
      vertex -16.2238 4.16556 2
      vertex -16.2238 -4.16556 2
      vertex -15.5738 -6.16609 2
    endloop
  endfacet
  facet normal -0 0 1
    outer loop
      vertex -16.6179 2.09933 2
      vertex -16.2238 -4.16556 2
      vertex -16.2238 4.16556 2
    endloop
  endfacet
  facet normal 0 0 1
    outer loop
      vertex -16.6179 2.09933 2
      vertex -16.6179 -2.09933 2
      vertex -16.2238 -4.16556 2
    endloop
  endfacet
  facet normal 0 -0 1
    outer loop
      vertex -16.6179 -2.09933 2
      vertex -16.6179 2.09933 2
      vertex -16.75 0 2
    endloop
  endfacet
  facet normal -0.125316 -0.992117 0
    outer loop
      vertex 1.05174 16.7169 2
      vertex 3.13864 16.4533 7
      vertex 1.05174 16.7169 7
    endloop
  endfacet
  facet normal -0.125316 -0.992117 -0
    outer loop
      vertex 3.13864 16.4533 7
      vertex 1.05174 16.7169 2
      vertex 3.13864 16.4533 2
    endloop
  endfacet
  facet normal 0.998026 0.0628006 0
    outer loop
      vertex -16.6179 -2.09933 7
      vertex -16.75 0 2
      vertex -16.75 0 7
    endloop
  endfacet
  facet normal 0.998026 0.0628006 0
    outer loop
      vertex -16.75 0 2
      vertex -16.6179 -2.09933 7
      vertex -16.6179 -2.09933 2
    endloop
  endfacet
  facet normal 0.844329 0.535826 0
    outer loop
      vertex -13.551 -9.8454 7
      vertex -14.6781 -8.06937 2
      vertex -14.6781 -8.06937 7
    endloop
  endfacet
  facet normal 0.844329 0.535826 0
    outer loop
      vertex -14.6781 -8.06937 2
      vertex -13.551 -9.8454 7
      vertex -13.551 -9.8454 2
    endloop
  endfacet
  facet normal 0.770523 -0.637412 0
    outer loop
      vertex -13.551 9.8454 7
      vertex -12.2102 11.4662 2
      vertex -12.2102 11.4662 7
    endloop
  endfacet
  facet normal 0.770523 -0.637412 0
    outer loop
      vertex -12.2102 11.4662 2
      vertex -13.551 9.8454 7
      vertex -13.551 9.8454 2
    endloop
  endfacet
  facet normal 0.125316 0.992117 -0
    outer loop
      vertex -1.05174 -16.7169 2
      vertex -3.13864 -16.4533 7
      vertex -1.05174 -16.7169 7
    endloop
  endfacet
  facet normal 0.125316 0.992117 0
    outer loop
      vertex -3.13864 -16.4533 7
      vertex -1.05174 -16.7169 2
      vertex -3.13864 -16.4533 2
    endloop
  endfacet
  facet normal -0.587776 0.809024 0
    outer loop
      vertex 10.6769 -12.9061 2
      vertex 8.9751 -14.1425 7
      vertex 10.6769 -12.9061 7
    endloop
  endfacet
  facet normal -0.587776 0.809024 0
    outer loop
      vertex 8.9751 -14.1425 7
      vertex 10.6769 -12.9061 2
      vertex 8.9751 -14.1425 2
    endloop
  endfacet
  facet normal -0.248684 -0.968585 0
    outer loop
      vertex 3.13864 16.4533 2
      vertex 5.17603 15.9302 7
      vertex 3.13864 16.4533 7
    endloop
  endfacet
  facet normal -0.248684 -0.968585 -0
    outer loop
      vertex 5.17603 15.9302 7
      vertex 3.13864 16.4533 2
      vertex 5.17603 15.9302 2
    endloop
  endfacet
endsolid OpenSCAD_Model
