solid OpenSCAD_Model
  facet normal 1 -0 0
    outer loop
      vertex 13.9 0 3
      vertex 13.9 8.7 0
      vertex 13.9 8.7 3
    endloop
  endfacet
  facet normal 1 0 0
    outer loop
      vertex 13.9 8.7 0
      vertex 13.9 0 3
      vertex 13.9 0 0
    endloop
  endfacet
  facet normal 0 0 1
    outer loop
      vertex 13.9 8.7 3
      vertex 12.9 7.7 3
      vertex 13.9 0 3
    endloop
  endfacet
  facet normal 0 0 1
    outer loop
      vertex 13.9 8.7 3
      vertex 1 7.7 3
      vertex 12.9 7.7 3
    endloop
  endfacet
  facet normal 0 0 1
    outer loop
      vertex 1 7.7 3
      vertex 0 8.7 3
      vertex 1 1 3
    endloop
  endfacet
  facet normal -0 0 1
    outer loop
      vertex 0 8.7 3
      vertex 1 7.7 3
      vertex 13.9 8.7 3
    endloop
  endfacet
  facet normal -0 0 1
    outer loop
      vertex 12.9 1 3
      vertex 13.9 0 3
      vertex 12.9 7.7 3
    endloop
  endfacet
  facet normal -0 0 1
    outer loop
      vertex 1 1 3
      vertex 13.9 0 3
      vertex 12.9 1 3
    endloop
  endfacet
  facet normal 0 0 1
    outer loop
      vertex 1 1 3
      vertex 0 0 3
      vertex 13.9 0 3
    endloop
  endfacet
  facet normal 0 0 1
    outer loop
      vertex 0 0 3
      vertex 1 1 3
      vertex 0 8.7 3
    endloop
  endfacet
  facet normal 0 0 -1
    outer loop
      vertex 13.9 0 0
      vertex 12.15 1.75 0
      vertex 13.9 8.7 0
    endloop
  endfacet
  facet normal 0 0 -1
    outer loop
      vertex 13.9 0 0
      vertex 1.75 1.75 0
      vertex 12.15 1.75 0
    endloop
  endfacet
  facet normal -0 0 -1
    outer loop
      vertex 1.75 1.75 0
      vertex 0 0 0
      vertex 1.75 6.95 0
    endloop
  endfacet
  facet normal 0 0 -1
    outer loop
      vertex 0 0 0
      vertex 1.75 1.75 0
      vertex 13.9 0 0
    endloop
  endfacet
  facet normal 0 0 -1
    outer loop
      vertex 12.15 6.95 0
      vertex 13.9 8.7 0
      vertex 12.15 1.75 0
    endloop
  endfacet
  facet normal 0 0 -1
    outer loop
      vertex 1.75 6.95 0
      vertex 13.9 8.7 0
      vertex 12.15 6.95 0
    endloop
  endfacet
  facet normal 0 0 -1
    outer loop
      vertex 1.75 6.95 0
      vertex 0 8.7 0
      vertex 13.9 8.7 0
    endloop
  endfacet
  facet normal 0 0 -1
    outer loop
      vertex 0 8.7 0
      vertex 1.75 6.95 0
      vertex 0 0 0
    endloop
  endfacet
  facet normal -1 0 0
    outer loop
      vertex 0 0 0
      vertex 0 8.7 3
      vertex 0 8.7 0
    endloop
  endfacet
  facet normal -1 -0 0
    outer loop
      vertex 0 8.7 3
      vertex 0 0 0
      vertex 0 0 3
    endloop
  endfacet
  facet normal 0 1 -0
    outer loop
      vertex 13.9 8.7 0
      vertex 0 8.7 3
      vertex 13.9 8.7 3
    endloop
  endfacet
  facet normal 0 1 0
    outer loop
      vertex 0 8.7 3
      vertex 13.9 8.7 0
      vertex 0 8.7 0
    endloop
  endfacet
  facet normal 0 -1 0
    outer loop
      vertex 0 0 0
      vertex 13.9 0 3
      vertex 0 0 3
    endloop
  endfacet
  facet normal 0 -1 -0
    outer loop
      vertex 13.9 0 3
      vertex 0 0 0
      vertex 13.9 0 0
    endloop
  endfacet
  facet normal -1 0 0
    outer loop
      vertex 12.9 1 1
      vertex 12.9 7.7 3
      vertex 12.9 7.7 1
    endloop
  endfacet
  facet normal -1 -0 0
    outer loop
      vertex 12.9 7.7 3
      vertex 12.9 1 1
      vertex 12.9 1 3
    endloop
  endfacet
  facet normal 0 0 1
    outer loop
      vertex 12.9 7.7 1
      vertex 12.15 6.95 1
      vertex 12.9 1 1
    endloop
  endfacet
  facet normal 0 0 1
    outer loop
      vertex 12.9 7.7 1
      vertex 1.75 6.95 1
      vertex 12.15 6.95 1
    endloop
  endfacet
  facet normal 0 0 1
    outer loop
      vertex 1.75 6.95 1
      vertex 1 7.7 1
      vertex 1.75 1.75 1
    endloop
  endfacet
  facet normal -0 0 1
    outer loop
      vertex 1 7.7 1
      vertex 1.75 6.95 1
      vertex 12.9 7.7 1
    endloop
  endfacet
  facet normal -0 0 1
    outer loop
      vertex 12.15 1.75 1
      vertex 12.9 1 1
      vertex 12.15 6.95 1
    endloop
  endfacet
  facet normal -0 0 1
    outer loop
      vertex 1.75 1.75 1
      vertex 12.9 1 1
      vertex 12.15 1.75 1
    endloop
  endfacet
  facet normal 0 0 1
    outer loop
      vertex 1.75 1.75 1
      vertex 1 1 1
      vertex 12.9 1 1
    endloop
  endfacet
  facet normal 0 0 1
    outer loop
      vertex 1 1 1
      vertex 1.75 1.75 1
      vertex 1 7.7 1
    endloop
  endfacet
  facet normal 1 -0 0
    outer loop
      vertex 1 1 3
      vertex 1 7.7 1
      vertex 1 7.7 3
    endloop
  endfacet
  facet normal 1 0 0
    outer loop
      vertex 1 7.7 1
      vertex 1 1 3
      vertex 1 1 1
    endloop
  endfacet
  facet normal 0 -1 0
    outer loop
      vertex 1 7.7 1
      vertex 12.9 7.7 3
      vertex 1 7.7 3
    endloop
  endfacet
  facet normal 0 -1 -0
    outer loop
      vertex 12.9 7.7 3
      vertex 1 7.7 1
      vertex 12.9 7.7 1
    endloop
  endfacet
  facet normal 0 1 -0
    outer loop
      vertex 12.9 1 1
      vertex 1 1 3
      vertex 12.9 1 3
    endloop
  endfacet
  facet normal 0 1 0
    outer loop
      vertex 1 1 3
      vertex 12.9 1 1
      vertex 1 1 1
    endloop
  endfacet
  facet normal -1 0 0
    outer loop
      vertex 12.15 1.75 0
      vertex 12.15 6.95 1
      vertex 12.15 6.95 0
    endloop
  endfacet
  facet normal -1 -0 0
    outer loop
      vertex 12.15 6.95 1
      vertex 12.15 1.75 0
      vertex 12.15 1.75 1
    endloop
  endfacet
  facet normal 1 -0 0
    outer loop
      vertex 1.75 1.75 1
      vertex 1.75 6.95 0
      vertex 1.75 6.95 1
    endloop
  endfacet
  facet normal 1 0 0
    outer loop
      vertex 1.75 6.95 0
      vertex 1.75 1.75 1
      vertex 1.75 1.75 0
    endloop
  endfacet
  facet normal 0 -1 0
    outer loop
      vertex 1.75 6.95 0
      vertex 12.15 6.95 1
      vertex 1.75 6.95 1
    endloop
  endfacet
  facet normal 0 -1 -0
    outer loop
      vertex 12.15 6.95 1
      vertex 1.75 6.95 0
      vertex 12.15 6.95 0
    endloop
  endfacet
  facet normal 0 1 -0
    outer loop
      vertex 12.15 1.75 0
      vertex 1.75 1.75 1
      vertex 12.15 1.75 1
    endloop
  endfacet
  facet normal 0 1 0
    outer loop
      vertex 1.75 1.75 1
      vertex 12.15 1.75 0
      vertex 1.75 1.75 0
    endloop
  endfacet
endsolid OpenSCAD_Model
