solid OpenSCAD_Model
  facet normal 1 -0 0
    outer loop
      vertex 170 0 30
      vertex 170 90 0
      vertex 170 90 30
    endloop
  endfacet
  facet normal 1 0 0
    outer loop
      vertex 170 90 0
      vertex 170 0 30
      vertex 170 0 0
    endloop
  endfacet
  facet normal -0 0 1
    outer loop
      vertex 0 90 30
      vertex 170 0 30
      vertex 170 90 30
    endloop
  endfacet
  facet normal 0 0 1
    outer loop
      vertex 170 0 30
      vertex 0 90 30
      vertex 0 0 30
    endloop
  endfacet
  facet normal 0 0 -1
    outer loop
      vertex 0 0 0
      vertex 170 90 0
      vertex 170 0 0
    endloop
  endfacet
  facet normal -0 0 -1
    outer loop
      vertex 170 90 0
      vertex 0 0 0
      vertex 0 90 0
    endloop
  endfacet
  facet normal -1 0 0
    outer loop
      vertex 0 0 0
      vertex 0 90 30
      vertex 0 90 0
    endloop
  endfacet
  facet normal -1 -0 0
    outer loop
      vertex 0 90 30
      vertex 0 0 0
      vertex 0 0 30
    endloop
  endfacet
  facet normal 0 1 -0
    outer loop
      vertex 170 90 0
      vertex 0 90 30
      vertex 170 90 30
    endloop
  endfacet
  facet normal 0 1 0
    outer loop
      vertex 0 90 30
      vertex 170 90 0
      vertex 0 90 0
    endloop
  endfacet
  facet normal 0 -1 0
    outer loop
      vertex 0 0 0
      vertex 170 0 30
      vertex 0 0 30
    endloop
  endfacet
  facet normal 0 -1 -0
    outer loop
      vertex 170 0 30
      vertex 0 0 0
      vertex 170 0 0
    endloop
  endfacet
endsolid OpenSCAD_Model
