solid OpenSCAD_Model
  facet normal -0.406717 -0.913554 0
    outer loop
      vertex 22.0807 31.2903 2
      vertex 24.85 30.0574 15
      vertex 22.0807 31.2903 15
    endloop
  endfacet
  facet normal -0.406717 -0.913554 -0
    outer loop
      vertex 24.85 30.0574 15
      vertex 22.0807 31.2903 2
      vertex 24.85 30.0574 2
    endloop
  endfacet
  facet normal -0.951061 -0.309004 0
    outer loop
      vertex 31.7831 20.5147 2
      vertex 30.8464 23.3977 15
      vertex 30.8464 23.3977 2
    endloop
  endfacet
  facet normal -0.951061 -0.309004 0
    outer loop
      vertex 30.8464 23.3977 15
      vertex 31.7831 20.5147 2
      vertex 31.7831 20.5147 15
    endloop
  endfacet
  facet normal -0.99452 -0.104542 0
    outer loop
      vertex 32.1 17.5 2
      vertex 31.7831 20.5147 15
      vertex 31.7831 20.5147 2
    endloop
  endfacet
  facet normal -0.99452 -0.104542 0
    outer loop
      vertex 31.7831 20.5147 15
      vertex 32.1 17.5 2
      vertex 32.1 17.5 15
    endloop
  endfacet
  facet normal -0.86602 -0.50001 0
    outer loop
      vertex 30.8464 23.3977 2
      vertex 29.3307 26.0229 15
      vertex 29.3307 26.0229 2
    endloop
  endfacet
  facet normal -0.86602 -0.50001 0
    outer loop
      vertex 29.3307 26.0229 15
      vertex 30.8464 23.3977 2
      vertex 30.8464 23.3977 15
    endloop
  endfacet
  facet normal -0.207934 -0.978143 0
    outer loop
      vertex 19.1157 31.9206 2
      vertex 22.0807 31.2903 15
      vertex 19.1157 31.9206 15
    endloop
  endfacet
  facet normal -0.207934 -0.978143 -0
    outer loop
      vertex 22.0807 31.2903 15
      vertex 19.1157 31.9206 2
      vertex 22.0807 31.2903 2
    endloop
  endfacet
  facet normal -0.951061 0.309004 0
    outer loop
      vertex 30.8464 11.6023 2
      vertex 31.7831 14.4853 15
      vertex 31.7831 14.4853 2
    endloop
  endfacet
  facet normal -0.951061 0.309004 0
    outer loop
      vertex 31.7831 14.4853 15
      vertex 30.8464 11.6023 2
      vertex 30.8464 11.6023 15
    endloop
  endfacet
  facet normal 0.406731 0.913548 -0
    outer loop
      vertex 13.1193 3.70968 2
      vertex 10.35 4.94263 15
      vertex 13.1193 3.70968 15
    endloop
  endfacet
  facet normal 0.406731 0.913548 0
    outer loop
      vertex 10.35 4.94263 15
      vertex 13.1193 3.70968 2
      vertex 10.35 4.94263 2
    endloop
  endfacet
  facet normal 0.587786 0.809016 -0
    outer loop
      vertex 10.35 4.94263 2
      vertex 7.89761 6.7244 15
      vertex 10.35 4.94263 15
    endloop
  endfacet
  facet normal 0.587786 0.809016 0
    outer loop
      vertex 7.89761 6.7244 15
      vertex 10.35 4.94263 2
      vertex 7.89761 6.7244 2
    endloop
  endfacet
  facet normal -0.743151 -0.669123 0
    outer loop
      vertex 29.3307 26.0229 2
      vertex 27.3024 28.2756 15
      vertex 27.3024 28.2756 2
    endloop
  endfacet
  facet normal -0.743151 -0.669123 0
    outer loop
      vertex 27.3024 28.2756 15
      vertex 29.3307 26.0229 2
      vertex 29.3307 26.0229 15
    endloop
  endfacet
  facet normal -0.587785 0.809017 0
    outer loop
      vertex 27.3024 6.7244 2
      vertex 24.85 4.94263 15
      vertex 27.3024 6.7244 15
    endloop
  endfacet
  facet normal -0.587785 0.809017 0
    outer loop
      vertex 24.85 4.94263 15
      vertex 27.3024 6.7244 2
      vertex 24.85 4.94263 2
    endloop
  endfacet
  facet normal 0.743142 -0.669134 0
    outer loop
      vertex 5.86925 26.0229 15
      vertex 7.89761 28.2756 2
      vertex 7.89761 28.2756 15
    endloop
  endfacet
  facet normal 0.743142 -0.669134 0
    outer loop
      vertex 7.89761 28.2756 2
      vertex 5.86925 26.0229 15
      vertex 5.86925 26.0229 2
    endloop
  endfacet
  facet normal -0.99452 0.104542 0
    outer loop
      vertex 31.7831 14.4853 2
      vertex 32.1 17.5 15
      vertex 32.1 17.5 2
    endloop
  endfacet
  facet normal -0.99452 0.104542 0
    outer loop
      vertex 32.1 17.5 15
      vertex 31.7831 14.4853 2
      vertex 31.7831 14.4853 15
    endloop
  endfacet
  facet normal 0.207918 0.978146 -0
    outer loop
      vertex 16.0843 3.07943 2
      vertex 13.1193 3.70968 15
      vertex 16.0843 3.07943 15
    endloop
  endfacet
  facet normal 0.207918 0.978146 0
    outer loop
      vertex 13.1193 3.70968 15
      vertex 16.0843 3.07943 2
      vertex 13.1193 3.70968 2
    endloop
  endfacet
  facet normal 0.406717 -0.913554 0
    outer loop
      vertex 10.35 30.0574 2
      vertex 13.1193 31.2903 15
      vertex 10.35 30.0574 15
    endloop
  endfacet
  facet normal 0.406717 -0.913554 0
    outer loop
      vertex 13.1193 31.2903 15
      vertex 10.35 30.0574 2
      vertex 13.1193 31.2903 2
    endloop
  endfacet
  facet normal 0.587793 -0.809012 0
    outer loop
      vertex 7.89761 28.2756 2
      vertex 10.35 30.0574 15
      vertex 7.89761 28.2756 15
    endloop
  endfacet
  facet normal 0.587793 -0.809012 0
    outer loop
      vertex 10.35 30.0574 15
      vertex 7.89761 28.2756 2
      vertex 10.35 30.0574 2
    endloop
  endfacet
  facet normal 0.866025 0.500001 0
    outer loop
      vertex 5.86925 8.97711 15
      vertex 4.35359 11.6023 2
      vertex 4.35359 11.6023 15
    endloop
  endfacet
  facet normal 0.866025 0.500001 0
    outer loop
      vertex 4.35359 11.6023 2
      vertex 5.86925 8.97711 15
      vertex 5.86925 8.97711 2
    endloop
  endfacet
  facet normal 0.866025 -0.5 0
    outer loop
      vertex 4.35359 23.3977 15
      vertex 5.86925 26.0229 2
      vertex 5.86925 26.0229 15
    endloop
  endfacet
  facet normal 0.866025 -0.5 0
    outer loop
      vertex 5.86925 26.0229 2
      vertex 4.35359 23.3977 15
      vertex 4.35359 23.3977 2
    endloop
  endfacet
  facet normal 0.951058 -0.309013 0
    outer loop
      vertex 3.41686 20.5147 15
      vertex 4.35359 23.3977 2
      vertex 4.35359 23.3977 15
    endloop
  endfacet
  facet normal 0.951058 -0.309013 0
    outer loop
      vertex 4.35359 23.3977 2
      vertex 3.41686 20.5147 15
      vertex 3.41686 20.5147 2
    endloop
  endfacet
  facet normal 0.207934 -0.978143 0
    outer loop
      vertex 13.1193 31.2903 2
      vertex 16.0843 31.9206 15
      vertex 13.1193 31.2903 15
    endloop
  endfacet
  facet normal 0.207934 -0.978143 0
    outer loop
      vertex 16.0843 31.9206 15
      vertex 13.1193 31.2903 2
      vertex 16.0843 31.9206 2
    endloop
  endfacet
  facet normal -0.207918 0.978146 0
    outer loop
      vertex 22.0807 3.70968 2
      vertex 19.1157 3.07943 15
      vertex 22.0807 3.70968 15
    endloop
  endfacet
  facet normal -0.207918 0.978146 0
    outer loop
      vertex 19.1157 3.07943 15
      vertex 22.0807 3.70968 2
      vertex 19.1157 3.07943 2
    endloop
  endfacet
  facet normal 0 -1 0
    outer loop
      vertex 16.0843 31.9206 2
      vertex 19.1157 31.9206 15
      vertex 16.0843 31.9206 15
    endloop
  endfacet
  facet normal 0 -1 -0
    outer loop
      vertex 19.1157 31.9206 15
      vertex 16.0843 31.9206 2
      vertex 19.1157 31.9206 2
    endloop
  endfacet
  facet normal -0.866019 0.500011 0
    outer loop
      vertex 29.3307 8.97711 2
      vertex 30.8464 11.6023 15
      vertex 30.8464 11.6023 2
    endloop
  endfacet
  facet normal -0.866019 0.500011 0
    outer loop
      vertex 30.8464 11.6023 15
      vertex 29.3307 8.97711 2
      vertex 29.3307 8.97711 15
    endloop
  endfacet
  facet normal -0.406731 0.913548 0
    outer loop
      vertex 24.85 4.94263 2
      vertex 22.0807 3.70968 15
      vertex 24.85 4.94263 15
    endloop
  endfacet
  facet normal -0.406731 0.913548 0
    outer loop
      vertex 22.0807 3.70968 15
      vertex 24.85 4.94263 2
      vertex 22.0807 3.70968 2
    endloop
  endfacet
  facet normal 0.994522 -0.104529 0
    outer loop
      vertex 3.1 17.5 15
      vertex 3.41686 20.5147 2
      vertex 3.41686 20.5147 15
    endloop
  endfacet
  facet normal 0.994522 -0.104529 0
    outer loop
      vertex 3.41686 20.5147 2
      vertex 3.1 17.5 15
      vertex 3.1 17.5 2
    endloop
  endfacet
  facet normal -0.743153 0.669122 0
    outer loop
      vertex 27.3024 6.7244 2
      vertex 29.3307 8.97711 15
      vertex 29.3307 8.97711 2
    endloop
  endfacet
  facet normal -0.743153 0.669122 0
    outer loop
      vertex 29.3307 8.97711 15
      vertex 27.3024 6.7244 2
      vertex 27.3024 6.7244 15
    endloop
  endfacet
  facet normal -0.587791 -0.809013 0
    outer loop
      vertex 24.85 30.0574 2
      vertex 27.3024 28.2756 15
      vertex 24.85 30.0574 15
    endloop
  endfacet
  facet normal -0.587791 -0.809013 -0
    outer loop
      vertex 27.3024 28.2756 15
      vertex 24.85 30.0574 2
      vertex 27.3024 28.2756 2
    endloop
  endfacet
  facet normal 0 0 1
    outer loop
      vertex 170 35 15
      vertex 160.5 17.5 15
      vertex 170 0 15
    endloop
  endfacet
  facet normal 0 0 1
    outer loop
      vertex 170 35 15
      vertex 160.183 20.5147 15
      vertex 160.5 17.5 15
    endloop
  endfacet
  facet normal 0 0 1
    outer loop
      vertex 170 35 15
      vertex 159.246 23.3977 15
      vertex 160.183 20.5147 15
    endloop
  endfacet
  facet normal 0 0 1
    outer loop
      vertex 170 35 15
      vertex 157.731 26.0229 15
      vertex 159.246 23.3977 15
    endloop
  endfacet
  facet normal 0 0 1
    outer loop
      vertex 170 35 15
      vertex 155.702 28.2756 15
      vertex 157.731 26.0229 15
    endloop
  endfacet
  facet normal 0 0 1
    outer loop
      vertex 170 35 15
      vertex 153.25 30.0574 15
      vertex 155.702 28.2756 15
    endloop
  endfacet
  facet normal 0 0 1
    outer loop
      vertex 170 35 15
      vertex 150.481 31.2903 15
      vertex 153.25 30.0574 15
    endloop
  endfacet
  facet normal 0 0 1
    outer loop
      vertex 170 35 15
      vertex 147.516 31.9206 15
      vertex 150.481 31.2903 15
    endloop
  endfacet
  facet normal 0 0 1
    outer loop
      vertex 170 35 15
      vertex 144.484 31.9206 15
      vertex 147.516 31.9206 15
    endloop
  endfacet
  facet normal 0 0 1
    outer loop
      vertex 131.817 20.5147 15
      vertex 128.4 17.5 15
      vertex 131.5 17.5 15
    endloop
  endfacet
  facet normal 0 0 1
    outer loop
      vertex 128.083 20.5147 15
      vertex 131.817 20.5147 15
      vertex 132.754 23.3977 15
    endloop
  endfacet
  facet normal 0 0 1
    outer loop
      vertex 127.146 23.3977 15
      vertex 132.754 23.3977 15
      vertex 134.269 26.0229 15
    endloop
  endfacet
  facet normal 0 0 1
    outer loop
      vertex 131.817 20.5147 15
      vertex 128.083 20.5147 15
      vertex 128.4 17.5 15
    endloop
  endfacet
  facet normal 0 0 1
    outer loop
      vertex 125.631 26.0229 15
      vertex 134.269 26.0229 15
      vertex 136.298 28.2756 15
    endloop
  endfacet
  facet normal 0 0 1
    outer loop
      vertex 132.754 23.3977 15
      vertex 127.146 23.3977 15
      vertex 128.083 20.5147 15
    endloop
  endfacet
  facet normal 0 0 1
    outer loop
      vertex 123.602 28.2756 15
      vertex 136.298 28.2756 15
      vertex 138.75 30.0574 15
    endloop
  endfacet
  facet normal 0 0 1
    outer loop
      vertex 134.269 26.0229 15
      vertex 125.631 26.0229 15
      vertex 127.146 23.3977 15
    endloop
  endfacet
  facet normal 0 0 1
    outer loop
      vertex 121.15 30.0574 15
      vertex 138.75 30.0574 15
      vertex 141.519 31.2903 15
    endloop
  endfacet
  facet normal 0 0 1
    outer loop
      vertex 136.298 28.2756 15
      vertex 123.602 28.2756 15
      vertex 125.631 26.0229 15
    endloop
  endfacet
  facet normal 0 0 1
    outer loop
      vertex 118.381 31.2903 15
      vertex 141.519 31.2903 15
      vertex 144.484 31.9206 15
    endloop
  endfacet
  facet normal 0 0 1
    outer loop
      vertex 138.75 30.0574 15
      vertex 121.15 30.0574 15
      vertex 123.602 28.2756 15
    endloop
  endfacet
  facet normal 0 0 1
    outer loop
      vertex 115.416 31.9206 15
      vertex 144.484 31.9206 15
      vertex 170 35 15
    endloop
  endfacet
  facet normal 0 0 1
    outer loop
      vertex 141.519 31.2903 15
      vertex 118.381 31.2903 15
      vertex 121.15 30.0574 15
    endloop
  endfacet
  facet normal 0 0 1
    outer loop
      vertex 144.484 31.9206 15
      vertex 115.416 31.9206 15
      vertex 118.381 31.2903 15
    endloop
  endfacet
  facet normal 0 0 1
    outer loop
      vertex 170 35 15
      vertex 112.384 31.9206 15
      vertex 115.416 31.9206 15
    endloop
  endfacet
  facet normal 0 0 1
    outer loop
      vertex 99.7169 20.5147 15
      vertex 96.3 17.5 15
      vertex 99.4 17.5 15
    endloop
  endfacet
  facet normal 0 0 1
    outer loop
      vertex 95.9831 20.5147 15
      vertex 99.7169 20.5147 15
      vertex 100.654 23.3977 15
    endloop
  endfacet
  facet normal 0 0 1
    outer loop
      vertex 95.0464 23.3977 15
      vertex 100.654 23.3977 15
      vertex 102.169 26.0229 15
    endloop
  endfacet
  facet normal 0 0 1
    outer loop
      vertex 99.7169 20.5147 15
      vertex 95.9831 20.5147 15
      vertex 96.3 17.5 15
    endloop
  endfacet
  facet normal 0 0 1
    outer loop
      vertex 93.5307 26.0229 15
      vertex 102.169 26.0229 15
      vertex 104.198 28.2756 15
    endloop
  endfacet
  facet normal 0 0 1
    outer loop
      vertex 100.654 23.3977 15
      vertex 95.0464 23.3977 15
      vertex 95.9831 20.5147 15
    endloop
  endfacet
  facet normal 0 0 1
    outer loop
      vertex 91.5024 28.2756 15
      vertex 104.198 28.2756 15
      vertex 106.65 30.0574 15
    endloop
  endfacet
  facet normal 0 0 1
    outer loop
      vertex 102.169 26.0229 15
      vertex 93.5307 26.0229 15
      vertex 95.0464 23.3977 15
    endloop
  endfacet
  facet normal 0 0 1
    outer loop
      vertex 89.05 30.0574 15
      vertex 106.65 30.0574 15
      vertex 109.419 31.2903 15
    endloop
  endfacet
  facet normal 0 0 1
    outer loop
      vertex 104.198 28.2756 15
      vertex 91.5024 28.2756 15
      vertex 93.5307 26.0229 15
    endloop
  endfacet
  facet normal 0 0 1
    outer loop
      vertex 86.2807 31.2903 15
      vertex 109.419 31.2903 15
      vertex 112.384 31.9206 15
    endloop
  endfacet
  facet normal 0 0 1
    outer loop
      vertex 106.65 30.0574 15
      vertex 89.05 30.0574 15
      vertex 91.5024 28.2756 15
    endloop
  endfacet
  facet normal 0 0 1
    outer loop
      vertex 109.419 31.2903 15
      vertex 86.2807 31.2903 15
      vertex 89.05 30.0574 15
    endloop
  endfacet
  facet normal 0 0 1
    outer loop
      vertex 83.3157 31.9206 15
      vertex 112.384 31.9206 15
      vertex 170 35 15
    endloop
  endfacet
  facet normal 0 0 1
    outer loop
      vertex 112.384 31.9206 15
      vertex 83.3157 31.9206 15
      vertex 86.2807 31.2903 15
    endloop
  endfacet
  facet normal 0 0 1
    outer loop
      vertex 170 35 15
      vertex 80.2843 31.9206 15
      vertex 83.3157 31.9206 15
    endloop
  endfacet
  facet normal 0 0 1
    outer loop
      vertex 67.6169 20.5147 15
      vertex 64.2 17.5 15
      vertex 67.3 17.5 15
    endloop
  endfacet
  facet normal 0 0 1
    outer loop
      vertex 63.8831 20.5147 15
      vertex 67.6169 20.5147 15
      vertex 68.5536 23.3977 15
    endloop
  endfacet
  facet normal 0 0 1
    outer loop
      vertex 62.9464 23.3977 15
      vertex 68.5536 23.3977 15
      vertex 70.0693 26.0229 15
    endloop
  endfacet
  facet normal 0 0 1
    outer loop
      vertex 67.6169 20.5147 15
      vertex 63.8831 20.5147 15
      vertex 64.2 17.5 15
    endloop
  endfacet
  facet normal 0 0 1
    outer loop
      vertex 61.4307 26.0229 15
      vertex 70.0693 26.0229 15
      vertex 72.0976 28.2756 15
    endloop
  endfacet
  facet normal 0 0 1
    outer loop
      vertex 68.5536 23.3977 15
      vertex 62.9464 23.3977 15
      vertex 63.8831 20.5147 15
    endloop
  endfacet
  facet normal 0 0 1
    outer loop
      vertex 59.4024 28.2756 15
      vertex 72.0976 28.2756 15
      vertex 74.55 30.0574 15
    endloop
  endfacet
  facet normal 0 0 1
    outer loop
      vertex 70.0693 26.0229 15
      vertex 61.4307 26.0229 15
      vertex 62.9464 23.3977 15
    endloop
  endfacet
  facet normal 0 0 1
    outer loop
      vertex 56.95 30.0574 15
      vertex 74.55 30.0574 15
      vertex 77.3193 31.2903 15
    endloop
  endfacet
  facet normal 0 0 1
    outer loop
      vertex 72.0976 28.2756 15
      vertex 59.4024 28.2756 15
      vertex 61.4307 26.0229 15
    endloop
  endfacet
  facet normal 0 0 1
    outer loop
      vertex 54.1807 31.2903 15
      vertex 77.3193 31.2903 15
      vertex 80.2843 31.9206 15
    endloop
  endfacet
  facet normal 0 0 1
    outer loop
      vertex 74.55 30.0574 15
      vertex 56.95 30.0574 15
      vertex 59.4024 28.2756 15
    endloop
  endfacet
  facet normal 0 0 1
    outer loop
      vertex 77.3193 31.2903 15
      vertex 54.1807 31.2903 15
      vertex 56.95 30.0574 15
    endloop
  endfacet
  facet normal -0 0 1
    outer loop
      vertex 0 35 15
      vertex 80.2843 31.9206 15
      vertex 170 35 15
    endloop
  endfacet
  facet normal 0 0 1
    outer loop
      vertex 80.2843 31.9206 15
      vertex 51.2157 31.9206 15
      vertex 54.1807 31.2903 15
    endloop
  endfacet
  facet normal 0 0 1
    outer loop
      vertex 80.2843 31.9206 15
      vertex 0 35 15
      vertex 51.2157 31.9206 15
    endloop
  endfacet
  facet normal 0 0 1
    outer loop
      vertex 35.5169 20.5147 15
      vertex 32.1 17.5 15
      vertex 35.2 17.5 15
    endloop
  endfacet
  facet normal 0 0 1
    outer loop
      vertex 31.7831 20.5147 15
      vertex 35.5169 20.5147 15
      vertex 36.4536 23.3977 15
    endloop
  endfacet
  facet normal 0 0 1
    outer loop
      vertex 30.8464 23.3977 15
      vertex 36.4536 23.3977 15
      vertex 37.9693 26.0229 15
    endloop
  endfacet
  facet normal 0 0 1
    outer loop
      vertex 35.5169 20.5147 15
      vertex 31.7831 20.5147 15
      vertex 32.1 17.5 15
    endloop
  endfacet
  facet normal 0 0 1
    outer loop
      vertex 29.3307 26.0229 15
      vertex 37.9693 26.0229 15
      vertex 39.9976 28.2756 15
    endloop
  endfacet
  facet normal 0 0 1
    outer loop
      vertex 36.4536 23.3977 15
      vertex 30.8464 23.3977 15
      vertex 31.7831 20.5147 15
    endloop
  endfacet
  facet normal 0 0 1
    outer loop
      vertex 27.3024 28.2756 15
      vertex 39.9976 28.2756 15
      vertex 42.45 30.0574 15
    endloop
  endfacet
  facet normal 0 0 1
    outer loop
      vertex 37.9693 26.0229 15
      vertex 29.3307 26.0229 15
      vertex 30.8464 23.3977 15
    endloop
  endfacet
  facet normal 0 0 1
    outer loop
      vertex 24.85 30.0574 15
      vertex 42.45 30.0574 15
      vertex 45.2193 31.2903 15
    endloop
  endfacet
  facet normal 0 0 1
    outer loop
      vertex 39.9976 28.2756 15
      vertex 27.3024 28.2756 15
      vertex 29.3307 26.0229 15
    endloop
  endfacet
  facet normal 0 0 1
    outer loop
      vertex 22.0807 31.2903 15
      vertex 45.2193 31.2903 15
      vertex 48.1843 31.9206 15
    endloop
  endfacet
  facet normal 0 0 1
    outer loop
      vertex 42.45 30.0574 15
      vertex 24.85 30.0574 15
      vertex 27.3024 28.2756 15
    endloop
  endfacet
  facet normal 0 0 1
    outer loop
      vertex 45.2193 31.2903 15
      vertex 22.0807 31.2903 15
      vertex 24.85 30.0574 15
    endloop
  endfacet
  facet normal 0 0 1
    outer loop
      vertex 51.2157 31.9206 15
      vertex 0 35 15
      vertex 48.1843 31.9206 15
    endloop
  endfacet
  facet normal 0 0 1
    outer loop
      vertex 48.1843 31.9206 15
      vertex 19.1157 31.9206 15
      vertex 22.0807 31.2903 15
    endloop
  endfacet
  facet normal 0 0 1
    outer loop
      vertex 48.1843 31.9206 15
      vertex 0 35 15
      vertex 19.1157 31.9206 15
    endloop
  endfacet
  facet normal 0 0 1
    outer loop
      vertex 3.41686 20.5147 15
      vertex 0 35 15
      vertex 3.1 17.5 15
    endloop
  endfacet
  facet normal 0 0 1
    outer loop
      vertex 4.35359 23.3977 15
      vertex 0 35 15
      vertex 3.41686 20.5147 15
    endloop
  endfacet
  facet normal 0 0 1
    outer loop
      vertex 5.86925 26.0229 15
      vertex 0 35 15
      vertex 4.35359 23.3977 15
    endloop
  endfacet
  facet normal 0 0 1
    outer loop
      vertex 7.89761 28.2756 15
      vertex 0 35 15
      vertex 5.86925 26.0229 15
    endloop
  endfacet
  facet normal 0 0 1
    outer loop
      vertex 10.35 30.0574 15
      vertex 0 35 15
      vertex 7.89761 28.2756 15
    endloop
  endfacet
  facet normal 0 0 1
    outer loop
      vertex 13.1193 31.2903 15
      vertex 0 35 15
      vertex 10.35 30.0574 15
    endloop
  endfacet
  facet normal 0 0 1
    outer loop
      vertex 16.0843 31.9206 15
      vertex 0 35 15
      vertex 13.1193 31.2903 15
    endloop
  endfacet
  facet normal 0 0 1
    outer loop
      vertex 19.1157 31.9206 15
      vertex 0 35 15
      vertex 16.0843 31.9206 15
    endloop
  endfacet
  facet normal -0 0 1
    outer loop
      vertex 160.183 14.4853 15
      vertex 170 0 15
      vertex 160.5 17.5 15
    endloop
  endfacet
  facet normal -0 0 1
    outer loop
      vertex 159.246 11.6023 15
      vertex 170 0 15
      vertex 160.183 14.4853 15
    endloop
  endfacet
  facet normal -0 0 1
    outer loop
      vertex 157.731 8.97711 15
      vertex 170 0 15
      vertex 159.246 11.6023 15
    endloop
  endfacet
  facet normal -0 0 1
    outer loop
      vertex 155.702 6.7244 15
      vertex 170 0 15
      vertex 157.731 8.97711 15
    endloop
  endfacet
  facet normal -0 0 1
    outer loop
      vertex 153.25 4.94263 15
      vertex 170 0 15
      vertex 155.702 6.7244 15
    endloop
  endfacet
  facet normal -0 0 1
    outer loop
      vertex 150.481 3.70968 15
      vertex 170 0 15
      vertex 153.25 4.94263 15
    endloop
  endfacet
  facet normal -0 0 1
    outer loop
      vertex 147.516 3.07943 15
      vertex 170 0 15
      vertex 150.481 3.70968 15
    endloop
  endfacet
  facet normal -0 0 1
    outer loop
      vertex 144.484 3.07943 15
      vertex 170 0 15
      vertex 147.516 3.07943 15
    endloop
  endfacet
  facet normal -0 0 1
    outer loop
      vertex 128.4 17.5 15
      vertex 131.817 14.4853 15
      vertex 131.5 17.5 15
    endloop
  endfacet
  facet normal 0 0 1
    outer loop
      vertex 128.083 14.4853 15
      vertex 131.817 14.4853 15
      vertex 128.4 17.5 15
    endloop
  endfacet
  facet normal 0 0 1
    outer loop
      vertex 131.817 14.4853 15
      vertex 128.083 14.4853 15
      vertex 132.754 11.6023 15
    endloop
  endfacet
  facet normal 0 0 1
    outer loop
      vertex 127.146 11.6023 15
      vertex 132.754 11.6023 15
      vertex 128.083 14.4853 15
    endloop
  endfacet
  facet normal 0 0 1
    outer loop
      vertex 132.754 11.6023 15
      vertex 127.146 11.6023 15
      vertex 134.269 8.97711 15
    endloop
  endfacet
  facet normal 0 0 1
    outer loop
      vertex 125.631 8.97711 15
      vertex 134.269 8.97711 15
      vertex 127.146 11.6023 15
    endloop
  endfacet
  facet normal 0 0 1
    outer loop
      vertex 134.269 8.97711 15
      vertex 125.631 8.97711 15
      vertex 136.298 6.7244 15
    endloop
  endfacet
  facet normal 0 0 1
    outer loop
      vertex 123.602 6.7244 15
      vertex 136.298 6.7244 15
      vertex 125.631 8.97711 15
    endloop
  endfacet
  facet normal 0 0 1
    outer loop
      vertex 136.298 6.7244 15
      vertex 123.602 6.7244 15
      vertex 138.75 4.94263 15
    endloop
  endfacet
  facet normal 0 0 1
    outer loop
      vertex 121.15 4.94263 15
      vertex 138.75 4.94263 15
      vertex 123.602 6.7244 15
    endloop
  endfacet
  facet normal 0 0 1
    outer loop
      vertex 138.75 4.94263 15
      vertex 121.15 4.94263 15
      vertex 141.519 3.70968 15
    endloop
  endfacet
  facet normal 0 0 1
    outer loop
      vertex 118.381 3.70968 15
      vertex 141.519 3.70968 15
      vertex 121.15 4.94263 15
    endloop
  endfacet
  facet normal 0 0 1
    outer loop
      vertex 141.519 3.70968 15
      vertex 118.381 3.70968 15
      vertex 144.484 3.07943 15
    endloop
  endfacet
  facet normal 0 0 1
    outer loop
      vertex 115.416 3.07943 15
      vertex 144.484 3.07943 15
      vertex 118.381 3.70968 15
    endloop
  endfacet
  facet normal 0 0 1
    outer loop
      vertex 144.484 3.07943 15
      vertex 115.416 3.07943 15
      vertex 170 0 15
    endloop
  endfacet
  facet normal -0 0 1
    outer loop
      vertex 112.384 3.07943 15
      vertex 170 0 15
      vertex 115.416 3.07943 15
    endloop
  endfacet
  facet normal -0 0 1
    outer loop
      vertex 96.3 17.5 15
      vertex 99.7169 14.4853 15
      vertex 99.4 17.5 15
    endloop
  endfacet
  facet normal 0 0 1
    outer loop
      vertex 95.9831 14.4853 15
      vertex 99.7169 14.4853 15
      vertex 96.3 17.5 15
    endloop
  endfacet
  facet normal 0 0 1
    outer loop
      vertex 99.7169 14.4853 15
      vertex 95.9831 14.4853 15
      vertex 100.654 11.6023 15
    endloop
  endfacet
  facet normal 0 0 1
    outer loop
      vertex 95.0464 11.6023 15
      vertex 100.654 11.6023 15
      vertex 95.9831 14.4853 15
    endloop
  endfacet
  facet normal 0 0 1
    outer loop
      vertex 100.654 11.6023 15
      vertex 95.0464 11.6023 15
      vertex 102.169 8.97711 15
    endloop
  endfacet
  facet normal 0 0 1
    outer loop
      vertex 93.5307 8.97711 15
      vertex 102.169 8.97711 15
      vertex 95.0464 11.6023 15
    endloop
  endfacet
  facet normal 0 0 1
    outer loop
      vertex 102.169 8.97711 15
      vertex 93.5307 8.97711 15
      vertex 104.198 6.7244 15
    endloop
  endfacet
  facet normal 0 0 1
    outer loop
      vertex 91.5024 6.7244 15
      vertex 104.198 6.7244 15
      vertex 93.5307 8.97711 15
    endloop
  endfacet
  facet normal 0 0 1
    outer loop
      vertex 104.198 6.7244 15
      vertex 91.5024 6.7244 15
      vertex 106.65 4.94263 15
    endloop
  endfacet
  facet normal 0 0 1
    outer loop
      vertex 89.05 4.94263 15
      vertex 106.65 4.94263 15
      vertex 91.5024 6.7244 15
    endloop
  endfacet
  facet normal 0 0 1
    outer loop
      vertex 106.65 4.94263 15
      vertex 89.05 4.94263 15
      vertex 109.419 3.70968 15
    endloop
  endfacet
  facet normal 0 0 1
    outer loop
      vertex 86.2807 3.70968 15
      vertex 109.419 3.70968 15
      vertex 89.05 4.94263 15
    endloop
  endfacet
  facet normal 0 0 1
    outer loop
      vertex 109.419 3.70968 15
      vertex 86.2807 3.70968 15
      vertex 112.384 3.07943 15
    endloop
  endfacet
  facet normal 0 0 1
    outer loop
      vertex 83.3157 3.07943 15
      vertex 112.384 3.07943 15
      vertex 86.2807 3.70968 15
    endloop
  endfacet
  facet normal 0 0 1
    outer loop
      vertex 112.384 3.07943 15
      vertex 83.3157 3.07943 15
      vertex 170 0 15
    endloop
  endfacet
  facet normal -0 0 1
    outer loop
      vertex 80.2843 3.07943 15
      vertex 170 0 15
      vertex 83.3157 3.07943 15
    endloop
  endfacet
  facet normal -0 0 1
    outer loop
      vertex 64.2 17.5 15
      vertex 67.6169 14.4853 15
      vertex 67.3 17.5 15
    endloop
  endfacet
  facet normal 0 0 1
    outer loop
      vertex 63.8831 14.4853 15
      vertex 67.6169 14.4853 15
      vertex 64.2 17.5 15
    endloop
  endfacet
  facet normal 0 0 1
    outer loop
      vertex 67.6169 14.4853 15
      vertex 63.8831 14.4853 15
      vertex 68.5536 11.6023 15
    endloop
  endfacet
  facet normal 0 0 1
    outer loop
      vertex 62.9464 11.6023 15
      vertex 68.5536 11.6023 15
      vertex 63.8831 14.4853 15
    endloop
  endfacet
  facet normal 0 0 1
    outer loop
      vertex 68.5536 11.6023 15
      vertex 62.9464 11.6023 15
      vertex 70.0693 8.97711 15
    endloop
  endfacet
  facet normal 0 0 1
    outer loop
      vertex 61.4307 8.97711 15
      vertex 70.0693 8.97711 15
      vertex 62.9464 11.6023 15
    endloop
  endfacet
  facet normal 0 0 1
    outer loop
      vertex 70.0693 8.97711 15
      vertex 61.4307 8.97711 15
      vertex 72.0976 6.7244 15
    endloop
  endfacet
  facet normal 0 0 1
    outer loop
      vertex 59.4024 6.7244 15
      vertex 72.0976 6.7244 15
      vertex 61.4307 8.97711 15
    endloop
  endfacet
  facet normal 0 0 1
    outer loop
      vertex 72.0976 6.7244 15
      vertex 59.4024 6.7244 15
      vertex 74.55 4.94263 15
    endloop
  endfacet
  facet normal 0 0 1
    outer loop
      vertex 56.95 4.94263 15
      vertex 74.55 4.94263 15
      vertex 59.4024 6.7244 15
    endloop
  endfacet
  facet normal 0 0 1
    outer loop
      vertex 74.55 4.94263 15
      vertex 56.95 4.94263 15
      vertex 77.3193 3.70968 15
    endloop
  endfacet
  facet normal 0 0 1
    outer loop
      vertex 54.1807 3.70968 15
      vertex 77.3193 3.70968 15
      vertex 56.95 4.94263 15
    endloop
  endfacet
  facet normal 0 0 1
    outer loop
      vertex 77.3193 3.70968 15
      vertex 54.1807 3.70968 15
      vertex 80.2843 3.07943 15
    endloop
  endfacet
  facet normal 0 0 1
    outer loop
      vertex 51.2157 3.07943 15
      vertex 80.2843 3.07943 15
      vertex 54.1807 3.70968 15
    endloop
  endfacet
  facet normal 0 0 1
    outer loop
      vertex 0 0 15
      vertex 80.2843 3.07943 15
      vertex 51.2157 3.07943 15
    endloop
  endfacet
  facet normal 0 0 1
    outer loop
      vertex 0 0 15
      vertex 51.2157 3.07943 15
      vertex 48.1843 3.07943 15
    endloop
  endfacet
  facet normal -0 0 1
    outer loop
      vertex 32.1 17.5 15
      vertex 35.5169 14.4853 15
      vertex 35.2 17.5 15
    endloop
  endfacet
  facet normal 0 0 1
    outer loop
      vertex 31.7831 14.4853 15
      vertex 35.5169 14.4853 15
      vertex 32.1 17.5 15
    endloop
  endfacet
  facet normal 0 0 1
    outer loop
      vertex 35.5169 14.4853 15
      vertex 31.7831 14.4853 15
      vertex 36.4536 11.6023 15
    endloop
  endfacet
  facet normal 0 0 1
    outer loop
      vertex 30.8464 11.6023 15
      vertex 36.4536 11.6023 15
      vertex 31.7831 14.4853 15
    endloop
  endfacet
  facet normal 0 0 1
    outer loop
      vertex 36.4536 11.6023 15
      vertex 30.8464 11.6023 15
      vertex 37.9693 8.97711 15
    endloop
  endfacet
  facet normal 0 0 1
    outer loop
      vertex 29.3307 8.97711 15
      vertex 37.9693 8.97711 15
      vertex 30.8464 11.6023 15
    endloop
  endfacet
  facet normal 0 0 1
    outer loop
      vertex 37.9693 8.97711 15
      vertex 29.3307 8.97711 15
      vertex 39.9976 6.7244 15
    endloop
  endfacet
  facet normal 0 0 1
    outer loop
      vertex 27.3024 6.7244 15
      vertex 39.9976 6.7244 15
      vertex 29.3307 8.97711 15
    endloop
  endfacet
  facet normal 0 0 1
    outer loop
      vertex 39.9976 6.7244 15
      vertex 27.3024 6.7244 15
      vertex 42.45 4.94263 15
    endloop
  endfacet
  facet normal 0 0 1
    outer loop
      vertex 24.85 4.94263 15
      vertex 42.45 4.94263 15
      vertex 27.3024 6.7244 15
    endloop
  endfacet
  facet normal 0 0 1
    outer loop
      vertex 42.45 4.94263 15
      vertex 24.85 4.94263 15
      vertex 45.2193 3.70968 15
    endloop
  endfacet
  facet normal 0 0 1
    outer loop
      vertex 22.0807 3.70968 15
      vertex 45.2193 3.70968 15
      vertex 24.85 4.94263 15
    endloop
  endfacet
  facet normal 0 0 1
    outer loop
      vertex 45.2193 3.70968 15
      vertex 22.0807 3.70968 15
      vertex 48.1843 3.07943 15
    endloop
  endfacet
  facet normal 0 0 1
    outer loop
      vertex 19.1157 3.07943 15
      vertex 48.1843 3.07943 15
      vertex 22.0807 3.70968 15
    endloop
  endfacet
  facet normal 0 0 1
    outer loop
      vertex 0 0 15
      vertex 48.1843 3.07943 15
      vertex 19.1157 3.07943 15
    endloop
  endfacet
  facet normal 0 0 1
    outer loop
      vertex 0 0 15
      vertex 19.1157 3.07943 15
      vertex 16.0843 3.07943 15
    endloop
  endfacet
  facet normal 0 0 1
    outer loop
      vertex 0 0 15
      vertex 3.1 17.5 15
      vertex 0 35 15
    endloop
  endfacet
  facet normal 0 0 1
    outer loop
      vertex 80.2843 3.07943 15
      vertex 0 0 15
      vertex 170 0 15
    endloop
  endfacet
  facet normal 0 0 1
    outer loop
      vertex 13.1193 3.70968 15
      vertex 0 0 15
      vertex 16.0843 3.07943 15
    endloop
  endfacet
  facet normal 0 0 1
    outer loop
      vertex 10.35 4.94263 15
      vertex 0 0 15
      vertex 13.1193 3.70968 15
    endloop
  endfacet
  facet normal 0 0 1
    outer loop
      vertex 7.89761 6.7244 15
      vertex 0 0 15
      vertex 10.35 4.94263 15
    endloop
  endfacet
  facet normal 0 0 1
    outer loop
      vertex 5.86925 8.97711 15
      vertex 0 0 15
      vertex 7.89761 6.7244 15
    endloop
  endfacet
  facet normal 0 0 1
    outer loop
      vertex 4.35359 11.6023 15
      vertex 0 0 15
      vertex 5.86925 8.97711 15
    endloop
  endfacet
  facet normal 0 0 1
    outer loop
      vertex 3.41686 14.4853 15
      vertex 0 0 15
      vertex 4.35359 11.6023 15
    endloop
  endfacet
  facet normal 0 0 1
    outer loop
      vertex 3.1 17.5 15
      vertex 0 0 15
      vertex 3.41686 14.4853 15
    endloop
  endfacet
  facet normal 0 1 -0
    outer loop
      vertex 19.1157 3.07943 2
      vertex 16.0843 3.07943 15
      vertex 19.1157 3.07943 15
    endloop
  endfacet
  facet normal 0 1 0
    outer loop
      vertex 16.0843 3.07943 15
      vertex 19.1157 3.07943 2
      vertex 16.0843 3.07943 2
    endloop
  endfacet
  facet normal 0.951058 0.309013 0
    outer loop
      vertex 4.35359 11.6023 15
      vertex 3.41686 14.4853 2
      vertex 3.41686 14.4853 15
    endloop
  endfacet
  facet normal 0.951058 0.309013 0
    outer loop
      vertex 3.41686 14.4853 2
      vertex 4.35359 11.6023 15
      vertex 4.35359 11.6023 2
    endloop
  endfacet
  facet normal 0.743143 0.669133 0
    outer loop
      vertex 7.89761 6.7244 15
      vertex 5.86925 8.97711 2
      vertex 5.86925 8.97711 15
    endloop
  endfacet
  facet normal 0.743143 0.669133 0
    outer loop
      vertex 5.86925 8.97711 2
      vertex 7.89761 6.7244 15
      vertex 7.89761 6.7244 2
    endloop
  endfacet
  facet normal 0 0 1
    outer loop
      vertex 31.7831 20.5147 2
      vertex 31.7831 14.4853 2
      vertex 32.1 17.5 2
    endloop
  endfacet
  facet normal 0 0 1
    outer loop
      vertex 30.8464 23.3977 2
      vertex 31.7831 14.4853 2
      vertex 31.7831 20.5147 2
    endloop
  endfacet
  facet normal 0 0 1
    outer loop
      vertex 30.8464 23.3977 2
      vertex 30.8464 11.6023 2
      vertex 31.7831 14.4853 2
    endloop
  endfacet
  facet normal 0 0 1
    outer loop
      vertex 29.3307 26.0229 2
      vertex 30.8464 11.6023 2
      vertex 30.8464 23.3977 2
    endloop
  endfacet
  facet normal 0 0 1
    outer loop
      vertex 29.3307 26.0229 2
      vertex 29.3307 8.97711 2
      vertex 30.8464 11.6023 2
    endloop
  endfacet
  facet normal 0 0 1
    outer loop
      vertex 27.3024 28.2756 2
      vertex 29.3307 8.97711 2
      vertex 29.3307 26.0229 2
    endloop
  endfacet
  facet normal 0 0 1
    outer loop
      vertex 27.3024 28.2756 2
      vertex 27.3024 6.7244 2
      vertex 29.3307 8.97711 2
    endloop
  endfacet
  facet normal 0 0 1
    outer loop
      vertex 24.85 30.0574 2
      vertex 27.3024 6.7244 2
      vertex 27.3024 28.2756 2
    endloop
  endfacet
  facet normal 0 0 1
    outer loop
      vertex 24.85 30.0574 2
      vertex 24.85 4.94263 2
      vertex 27.3024 6.7244 2
    endloop
  endfacet
  facet normal 0 0 1
    outer loop
      vertex 22.0807 31.2903 2
      vertex 24.85 4.94263 2
      vertex 24.85 30.0574 2
    endloop
  endfacet
  facet normal 0 0 1
    outer loop
      vertex 22.0807 31.2903 2
      vertex 22.0807 3.70968 2
      vertex 24.85 4.94263 2
    endloop
  endfacet
  facet normal 0 0 1
    outer loop
      vertex 19.1157 31.9206 2
      vertex 22.0807 3.70968 2
      vertex 22.0807 31.2903 2
    endloop
  endfacet
  facet normal 0 0 1
    outer loop
      vertex 19.1157 31.9206 2
      vertex 19.1157 3.07943 2
      vertex 22.0807 3.70968 2
    endloop
  endfacet
  facet normal -0 0 1
    outer loop
      vertex 16.0843 31.9206 2
      vertex 19.1157 3.07943 2
      vertex 19.1157 31.9206 2
    endloop
  endfacet
  facet normal 0 0 1
    outer loop
      vertex 16.0843 31.9206 2
      vertex 16.0843 3.07943 2
      vertex 19.1157 3.07943 2
    endloop
  endfacet
  facet normal -0 0 1
    outer loop
      vertex 13.1193 31.2903 2
      vertex 16.0843 3.07943 2
      vertex 16.0843 31.9206 2
    endloop
  endfacet
  facet normal 0 0 1
    outer loop
      vertex 13.1193 31.2903 2
      vertex 13.1193 3.70968 2
      vertex 16.0843 3.07943 2
    endloop
  endfacet
  facet normal -0 0 1
    outer loop
      vertex 10.35 30.0574 2
      vertex 13.1193 3.70968 2
      vertex 13.1193 31.2903 2
    endloop
  endfacet
  facet normal 0 0 1
    outer loop
      vertex 10.35 30.0574 2
      vertex 10.35 4.94263 2
      vertex 13.1193 3.70968 2
    endloop
  endfacet
  facet normal -0 0 1
    outer loop
      vertex 7.89761 28.2756 2
      vertex 10.35 4.94263 2
      vertex 10.35 30.0574 2
    endloop
  endfacet
  facet normal 0 0 1
    outer loop
      vertex 7.89761 28.2756 2
      vertex 7.89761 6.7244 2
      vertex 10.35 4.94263 2
    endloop
  endfacet
  facet normal -0 0 1
    outer loop
      vertex 5.86925 26.0229 2
      vertex 7.89761 6.7244 2
      vertex 7.89761 28.2756 2
    endloop
  endfacet
  facet normal 0 0 1
    outer loop
      vertex 5.86925 26.0229 2
      vertex 5.86925 8.97711 2
      vertex 7.89761 6.7244 2
    endloop
  endfacet
  facet normal -0 0 1
    outer loop
      vertex 4.35359 23.3977 2
      vertex 5.86925 8.97711 2
      vertex 5.86925 26.0229 2
    endloop
  endfacet
  facet normal 0 0 1
    outer loop
      vertex 4.35359 23.3977 2
      vertex 4.35359 11.6023 2
      vertex 5.86925 8.97711 2
    endloop
  endfacet
  facet normal -0 0 1
    outer loop
      vertex 3.41686 20.5147 2
      vertex 4.35359 11.6023 2
      vertex 4.35359 23.3977 2
    endloop
  endfacet
  facet normal 0 0 1
    outer loop
      vertex 3.41686 20.5147 2
      vertex 3.41686 14.4853 2
      vertex 4.35359 11.6023 2
    endloop
  endfacet
  facet normal 0 -0 1
    outer loop
      vertex 3.41686 14.4853 2
      vertex 3.41686 20.5147 2
      vertex 3.1 17.5 2
    endloop
  endfacet
  facet normal 0.994522 0.104529 0
    outer loop
      vertex 3.41686 14.4853 15
      vertex 3.1 17.5 2
      vertex 3.1 17.5 15
    endloop
  endfacet
  facet normal 0.994522 0.104529 0
    outer loop
      vertex 3.1 17.5 2
      vertex 3.41686 14.4853 15
      vertex 3.41686 14.4853 2
    endloop
  endfacet
  facet normal 0.99452 0.104542 0
    outer loop
      vertex 35.5169 14.4853 15
      vertex 35.2 17.5 2
      vertex 35.2 17.5 15
    endloop
  endfacet
  facet normal 0.99452 0.104542 0
    outer loop
      vertex 35.2 17.5 2
      vertex 35.5169 14.4853 15
      vertex 35.5169 14.4853 2
    endloop
  endfacet
  facet normal -0.951061 -0.309004 0
    outer loop
      vertex 63.8831 20.5147 2
      vertex 62.9464 23.3977 15
      vertex 62.9464 23.3977 2
    endloop
  endfacet
  facet normal -0.951061 -0.309004 0
    outer loop
      vertex 62.9464 23.3977 15
      vertex 63.8831 20.5147 2
      vertex 63.8831 20.5147 15
    endloop
  endfacet
  facet normal -0.99452 -0.104542 0
    outer loop
      vertex 64.2 17.5 2
      vertex 63.8831 20.5147 15
      vertex 63.8831 20.5147 2
    endloop
  endfacet
  facet normal -0.99452 -0.104542 0
    outer loop
      vertex 63.8831 20.5147 15
      vertex 64.2 17.5 2
      vertex 64.2 17.5 15
    endloop
  endfacet
  facet normal -0.86602 -0.50001 0
    outer loop
      vertex 62.9464 23.3977 2
      vertex 61.4307 26.0229 15
      vertex 61.4307 26.0229 2
    endloop
  endfacet
  facet normal -0.86602 -0.50001 0
    outer loop
      vertex 61.4307 26.0229 15
      vertex 62.9464 23.3977 2
      vertex 62.9464 23.3977 15
    endloop
  endfacet
  facet normal 0.743153 0.669122 0
    outer loop
      vertex 39.9976 6.7244 15
      vertex 37.9693 8.97711 2
      vertex 37.9693 8.97711 15
    endloop
  endfacet
  facet normal 0.743153 0.669122 0
    outer loop
      vertex 37.9693 8.97711 2
      vertex 39.9976 6.7244 15
      vertex 39.9976 6.7244 2
    endloop
  endfacet
  facet normal -0.406731 0.913548 0
    outer loop
      vertex 56.95 4.94263 2
      vertex 54.1807 3.70968 15
      vertex 56.95 4.94263 15
    endloop
  endfacet
  facet normal -0.406731 0.913548 0
    outer loop
      vertex 54.1807 3.70968 15
      vertex 56.95 4.94263 2
      vertex 54.1807 3.70968 2
    endloop
  endfacet
  facet normal -0.99452 0.104542 0
    outer loop
      vertex 63.8831 14.4853 2
      vertex 64.2 17.5 15
      vertex 64.2 17.5 2
    endloop
  endfacet
  facet normal -0.99452 0.104542 0
    outer loop
      vertex 64.2 17.5 15
      vertex 63.8831 14.4853 2
      vertex 63.8831 14.4853 15
    endloop
  endfacet
  facet normal -0.866019 0.500011 0
    outer loop
      vertex 61.4307 8.97711 2
      vertex 62.9464 11.6023 15
      vertex 62.9464 11.6023 2
    endloop
  endfacet
  facet normal -0.866019 0.500011 0
    outer loop
      vertex 62.9464 11.6023 15
      vertex 61.4307 8.97711 2
      vertex 61.4307 8.97711 15
    endloop
  endfacet
  facet normal 0.743151 -0.669123 0
    outer loop
      vertex 37.9693 26.0229 15
      vertex 39.9976 28.2756 2
      vertex 39.9976 28.2756 15
    endloop
  endfacet
  facet normal 0.743151 -0.669123 0
    outer loop
      vertex 39.9976 28.2756 2
      vertex 37.9693 26.0229 15
      vertex 37.9693 26.0229 2
    endloop
  endfacet
  facet normal 0.951061 -0.309004 0
    outer loop
      vertex 35.5169 20.5147 15
      vertex 36.4536 23.3977 2
      vertex 36.4536 23.3977 15
    endloop
  endfacet
  facet normal 0.951061 -0.309004 0
    outer loop
      vertex 36.4536 23.3977 2
      vertex 35.5169 20.5147 15
      vertex 35.5169 20.5147 2
    endloop
  endfacet
  facet normal -0.207918 0.978146 0
    outer loop
      vertex 54.1807 3.70968 2
      vertex 51.2157 3.07943 15
      vertex 54.1807 3.70968 15
    endloop
  endfacet
  facet normal -0.207918 0.978146 0
    outer loop
      vertex 51.2157 3.07943 15
      vertex 54.1807 3.70968 2
      vertex 51.2157 3.07943 2
    endloop
  endfacet
  facet normal 0.587791 -0.809013 0
    outer loop
      vertex 39.9976 28.2756 2
      vertex 42.45 30.0574 15
      vertex 39.9976 28.2756 15
    endloop
  endfacet
  facet normal 0.587791 -0.809013 0
    outer loop
      vertex 42.45 30.0574 15
      vertex 39.9976 28.2756 2
      vertex 42.45 30.0574 2
    endloop
  endfacet
  facet normal -0.951061 0.309004 0
    outer loop
      vertex 62.9464 11.6023 2
      vertex 63.8831 14.4853 15
      vertex 63.8831 14.4853 2
    endloop
  endfacet
  facet normal -0.951061 0.309004 0
    outer loop
      vertex 63.8831 14.4853 15
      vertex 62.9464 11.6023 2
      vertex 62.9464 11.6023 15
    endloop
  endfacet
  facet normal 0.587785 0.809017 -0
    outer loop
      vertex 42.45 4.94263 2
      vertex 39.9976 6.7244 15
      vertex 42.45 4.94263 15
    endloop
  endfacet
  facet normal 0.587785 0.809017 0
    outer loop
      vertex 39.9976 6.7244 15
      vertex 42.45 4.94263 2
      vertex 39.9976 6.7244 2
    endloop
  endfacet
  facet normal 0.99452 -0.104542 0
    outer loop
      vertex 35.2 17.5 15
      vertex 35.5169 20.5147 2
      vertex 35.5169 20.5147 15
    endloop
  endfacet
  facet normal 0.99452 -0.104542 0
    outer loop
      vertex 35.5169 20.5147 2
      vertex 35.2 17.5 15
      vertex 35.2 17.5 2
    endloop
  endfacet
  facet normal -0.587791 -0.809013 0
    outer loop
      vertex 56.95 30.0574 2
      vertex 59.4024 28.2756 15
      vertex 56.95 30.0574 15
    endloop
  endfacet
  facet normal -0.587791 -0.809013 -0
    outer loop
      vertex 59.4024 28.2756 15
      vertex 56.95 30.0574 2
      vertex 59.4024 28.2756 2
    endloop
  endfacet
  facet normal -0.743153 0.669122 0
    outer loop
      vertex 59.4024 6.7244 2
      vertex 61.4307 8.97711 15
      vertex 61.4307 8.97711 2
    endloop
  endfacet
  facet normal -0.743153 0.669122 0
    outer loop
      vertex 61.4307 8.97711 15
      vertex 59.4024 6.7244 2
      vertex 59.4024 6.7244 15
    endloop
  endfacet
  facet normal 0.207934 -0.978143 0
    outer loop
      vertex 45.2193 31.2903 2
      vertex 48.1843 31.9206 15
      vertex 45.2193 31.2903 15
    endloop
  endfacet
  facet normal 0.207934 -0.978143 0
    outer loop
      vertex 48.1843 31.9206 15
      vertex 45.2193 31.2903 2
      vertex 48.1843 31.9206 2
    endloop
  endfacet
  facet normal -0.207934 -0.978143 0
    outer loop
      vertex 51.2157 31.9206 2
      vertex 54.1807 31.2903 15
      vertex 51.2157 31.9206 15
    endloop
  endfacet
  facet normal -0.207934 -0.978143 -0
    outer loop
      vertex 54.1807 31.2903 15
      vertex 51.2157 31.9206 2
      vertex 54.1807 31.2903 2
    endloop
  endfacet
  facet normal -0.743151 -0.669123 0
    outer loop
      vertex 61.4307 26.0229 2
      vertex 59.4024 28.2756 15
      vertex 59.4024 28.2756 2
    endloop
  endfacet
  facet normal -0.743151 -0.669123 0
    outer loop
      vertex 59.4024 28.2756 15
      vertex 61.4307 26.0229 2
      vertex 61.4307 26.0229 15
    endloop
  endfacet
  facet normal 0.951061 0.309004 0
    outer loop
      vertex 36.4536 11.6023 15
      vertex 35.5169 14.4853 2
      vertex 35.5169 14.4853 15
    endloop
  endfacet
  facet normal 0.951061 0.309004 0
    outer loop
      vertex 35.5169 14.4853 2
      vertex 36.4536 11.6023 15
      vertex 36.4536 11.6023 2
    endloop
  endfacet
  facet normal -0.406717 -0.913554 0
    outer loop
      vertex 54.1807 31.2903 2
      vertex 56.95 30.0574 15
      vertex 54.1807 31.2903 15
    endloop
  endfacet
  facet normal -0.406717 -0.913554 -0
    outer loop
      vertex 56.95 30.0574 15
      vertex 54.1807 31.2903 2
      vertex 56.95 30.0574 2
    endloop
  endfacet
  facet normal 0 -1 0
    outer loop
      vertex 48.1843 31.9206 2
      vertex 51.2157 31.9206 15
      vertex 48.1843 31.9206 15
    endloop
  endfacet
  facet normal 0 -1 -0
    outer loop
      vertex 51.2157 31.9206 15
      vertex 48.1843 31.9206 2
      vertex 51.2157 31.9206 2
    endloop
  endfacet
  facet normal 0.406731 0.913548 -0
    outer loop
      vertex 45.2193 3.70968 2
      vertex 42.45 4.94263 15
      vertex 45.2193 3.70968 15
    endloop
  endfacet
  facet normal 0.406731 0.913548 0
    outer loop
      vertex 42.45 4.94263 15
      vertex 45.2193 3.70968 2
      vertex 42.45 4.94263 2
    endloop
  endfacet
  facet normal 0.406717 -0.913554 0
    outer loop
      vertex 42.45 30.0574 2
      vertex 45.2193 31.2903 15
      vertex 42.45 30.0574 15
    endloop
  endfacet
  facet normal 0.406717 -0.913554 0
    outer loop
      vertex 45.2193 31.2903 15
      vertex 42.45 30.0574 2
      vertex 45.2193 31.2903 2
    endloop
  endfacet
  facet normal 0.86602 -0.50001 0
    outer loop
      vertex 36.4536 23.3977 15
      vertex 37.9693 26.0229 2
      vertex 37.9693 26.0229 15
    endloop
  endfacet
  facet normal 0.86602 -0.50001 0
    outer loop
      vertex 37.9693 26.0229 2
      vertex 36.4536 23.3977 15
      vertex 36.4536 23.3977 2
    endloop
  endfacet
  facet normal 0.866019 0.500011 0
    outer loop
      vertex 37.9693 8.97711 15
      vertex 36.4536 11.6023 2
      vertex 36.4536 11.6023 15
    endloop
  endfacet
  facet normal 0.866019 0.500011 0
    outer loop
      vertex 36.4536 11.6023 2
      vertex 37.9693 8.97711 15
      vertex 37.9693 8.97711 2
    endloop
  endfacet
  facet normal 0 1 -0
    outer loop
      vertex 51.2157 3.07943 2
      vertex 48.1843 3.07943 15
      vertex 51.2157 3.07943 15
    endloop
  endfacet
  facet normal 0 1 0
    outer loop
      vertex 48.1843 3.07943 15
      vertex 51.2157 3.07943 2
      vertex 48.1843 3.07943 2
    endloop
  endfacet
  facet normal 0.207918 0.978146 -0
    outer loop
      vertex 48.1843 3.07943 2
      vertex 45.2193 3.70968 15
      vertex 48.1843 3.07943 15
    endloop
  endfacet
  facet normal 0.207918 0.978146 0
    outer loop
      vertex 45.2193 3.70968 15
      vertex 48.1843 3.07943 2
      vertex 45.2193 3.70968 2
    endloop
  endfacet
  facet normal -0.587785 0.809017 0
    outer loop
      vertex 59.4024 6.7244 2
      vertex 56.95 4.94263 15
      vertex 59.4024 6.7244 15
    endloop
  endfacet
  facet normal -0.587785 0.809017 0
    outer loop
      vertex 56.95 4.94263 15
      vertex 59.4024 6.7244 2
      vertex 56.95 4.94263 2
    endloop
  endfacet
  facet normal 0 0 1
    outer loop
      vertex 63.8831 20.5147 2
      vertex 63.8831 14.4853 2
      vertex 64.2 17.5 2
    endloop
  endfacet
  facet normal 0 0 1
    outer loop
      vertex 62.9464 23.3977 2
      vertex 63.8831 14.4853 2
      vertex 63.8831 20.5147 2
    endloop
  endfacet
  facet normal 0 0 1
    outer loop
      vertex 62.9464 23.3977 2
      vertex 62.9464 11.6023 2
      vertex 63.8831 14.4853 2
    endloop
  endfacet
  facet normal 0 0 1
    outer loop
      vertex 61.4307 26.0229 2
      vertex 62.9464 11.6023 2
      vertex 62.9464 23.3977 2
    endloop
  endfacet
  facet normal 0 0 1
    outer loop
      vertex 61.4307 26.0229 2
      vertex 61.4307 8.97711 2
      vertex 62.9464 11.6023 2
    endloop
  endfacet
  facet normal 0 0 1
    outer loop
      vertex 59.4024 28.2756 2
      vertex 61.4307 8.97711 2
      vertex 61.4307 26.0229 2
    endloop
  endfacet
  facet normal 0 0 1
    outer loop
      vertex 59.4024 28.2756 2
      vertex 59.4024 6.7244 2
      vertex 61.4307 8.97711 2
    endloop
  endfacet
  facet normal 0 0 1
    outer loop
      vertex 56.95 30.0574 2
      vertex 59.4024 6.7244 2
      vertex 59.4024 28.2756 2
    endloop
  endfacet
  facet normal 0 0 1
    outer loop
      vertex 56.95 30.0574 2
      vertex 56.95 4.94263 2
      vertex 59.4024 6.7244 2
    endloop
  endfacet
  facet normal 0 0 1
    outer loop
      vertex 54.1807 31.2903 2
      vertex 56.95 4.94263 2
      vertex 56.95 30.0574 2
    endloop
  endfacet
  facet normal 0 0 1
    outer loop
      vertex 54.1807 31.2903 2
      vertex 54.1807 3.70968 2
      vertex 56.95 4.94263 2
    endloop
  endfacet
  facet normal 0 0 1
    outer loop
      vertex 51.2157 31.9206 2
      vertex 54.1807 3.70968 2
      vertex 54.1807 31.2903 2
    endloop
  endfacet
  facet normal 0 0 1
    outer loop
      vertex 51.2157 31.9206 2
      vertex 51.2157 3.07943 2
      vertex 54.1807 3.70968 2
    endloop
  endfacet
  facet normal -0 0 1
    outer loop
      vertex 48.1843 31.9206 2
      vertex 51.2157 3.07943 2
      vertex 51.2157 31.9206 2
    endloop
  endfacet
  facet normal 0 0 1
    outer loop
      vertex 48.1843 31.9206 2
      vertex 48.1843 3.07943 2
      vertex 51.2157 3.07943 2
    endloop
  endfacet
  facet normal -0 0 1
    outer loop
      vertex 45.2193 31.2903 2
      vertex 48.1843 3.07943 2
      vertex 48.1843 31.9206 2
    endloop
  endfacet
  facet normal 0 0 1
    outer loop
      vertex 45.2193 31.2903 2
      vertex 45.2193 3.70968 2
      vertex 48.1843 3.07943 2
    endloop
  endfacet
  facet normal -0 0 1
    outer loop
      vertex 42.45 30.0574 2
      vertex 45.2193 3.70968 2
      vertex 45.2193 31.2903 2
    endloop
  endfacet
  facet normal 0 0 1
    outer loop
      vertex 42.45 30.0574 2
      vertex 42.45 4.94263 2
      vertex 45.2193 3.70968 2
    endloop
  endfacet
  facet normal -0 0 1
    outer loop
      vertex 39.9976 28.2756 2
      vertex 42.45 4.94263 2
      vertex 42.45 30.0574 2
    endloop
  endfacet
  facet normal 0 0 1
    outer loop
      vertex 39.9976 28.2756 2
      vertex 39.9976 6.7244 2
      vertex 42.45 4.94263 2
    endloop
  endfacet
  facet normal -0 0 1
    outer loop
      vertex 37.9693 26.0229 2
      vertex 39.9976 6.7244 2
      vertex 39.9976 28.2756 2
    endloop
  endfacet
  facet normal 0 0 1
    outer loop
      vertex 37.9693 26.0229 2
      vertex 37.9693 8.97711 2
      vertex 39.9976 6.7244 2
    endloop
  endfacet
  facet normal -0 0 1
    outer loop
      vertex 36.4536 23.3977 2
      vertex 37.9693 8.97711 2
      vertex 37.9693 26.0229 2
    endloop
  endfacet
  facet normal 0 0 1
    outer loop
      vertex 36.4536 23.3977 2
      vertex 36.4536 11.6023 2
      vertex 37.9693 8.97711 2
    endloop
  endfacet
  facet normal -0 0 1
    outer loop
      vertex 35.5169 20.5147 2
      vertex 36.4536 11.6023 2
      vertex 36.4536 23.3977 2
    endloop
  endfacet
  facet normal 0 0 1
    outer loop
      vertex 35.5169 20.5147 2
      vertex 35.5169 14.4853 2
      vertex 36.4536 11.6023 2
    endloop
  endfacet
  facet normal 0 -0 1
    outer loop
      vertex 35.5169 14.4853 2
      vertex 35.5169 20.5147 2
      vertex 35.2 17.5 2
    endloop
  endfacet
  facet normal -0.951061 -0.309004 0
    outer loop
      vertex 95.9831 20.5147 2
      vertex 95.0464 23.3977 15
      vertex 95.0464 23.3977 2
    endloop
  endfacet
  facet normal -0.951061 -0.309004 0
    outer loop
      vertex 95.0464 23.3977 15
      vertex 95.9831 20.5147 2
      vertex 95.9831 20.5147 15
    endloop
  endfacet
  facet normal -0.99452 -0.104542 0
    outer loop
      vertex 96.3 17.5 2
      vertex 95.9831 20.5147 15
      vertex 95.9831 20.5147 2
    endloop
  endfacet
  facet normal -0.99452 -0.104542 0
    outer loop
      vertex 95.9831 20.5147 15
      vertex 96.3 17.5 2
      vertex 96.3 17.5 15
    endloop
  endfacet
  facet normal -0.951061 0.309004 0
    outer loop
      vertex 95.0464 11.6023 2
      vertex 95.9831 14.4853 15
      vertex 95.9831 14.4853 2
    endloop
  endfacet
  facet normal -0.951061 0.309004 0
    outer loop
      vertex 95.9831 14.4853 15
      vertex 95.0464 11.6023 2
      vertex 95.0464 11.6023 15
    endloop
  endfacet
  facet normal 0.587785 0.809017 -0
    outer loop
      vertex 74.55 4.94263 2
      vertex 72.0976 6.7244 15
      vertex 74.55 4.94263 15
    endloop
  endfacet
  facet normal 0.587785 0.809017 0
    outer loop
      vertex 72.0976 6.7244 15
      vertex 74.55 4.94263 2
      vertex 72.0976 6.7244 2
    endloop
  endfacet
  facet normal -0.207918 0.978146 0
    outer loop
      vertex 86.2807 3.70968 2
      vertex 83.3157 3.07943 15
      vertex 86.2807 3.70968 15
    endloop
  endfacet
  facet normal -0.207918 0.978146 0
    outer loop
      vertex 83.3157 3.07943 15
      vertex 86.2807 3.70968 2
      vertex 83.3157 3.07943 2
    endloop
  endfacet
  facet normal 0.866019 0.500011 0
    outer loop
      vertex 70.0693 8.97711 15
      vertex 68.5536 11.6023 2
      vertex 68.5536 11.6023 15
    endloop
  endfacet
  facet normal 0.866019 0.500011 0
    outer loop
      vertex 68.5536 11.6023 2
      vertex 70.0693 8.97711 15
      vertex 70.0693 8.97711 2
    endloop
  endfacet
  facet normal -0.207934 -0.978143 0
    outer loop
      vertex 83.3157 31.9206 2
      vertex 86.2807 31.2903 15
      vertex 83.3157 31.9206 15
    endloop
  endfacet
  facet normal -0.207934 -0.978143 -0
    outer loop
      vertex 86.2807 31.2903 15
      vertex 83.3157 31.9206 2
      vertex 86.2807 31.2903 2
    endloop
  endfacet
  facet normal 0.207918 0.978146 -0
    outer loop
      vertex 80.2843 3.07943 2
      vertex 77.3193 3.70968 15
      vertex 80.2843 3.07943 15
    endloop
  endfacet
  facet normal 0.207918 0.978146 0
    outer loop
      vertex 77.3193 3.70968 15
      vertex 80.2843 3.07943 2
      vertex 77.3193 3.70968 2
    endloop
  endfacet
  facet normal -0.587791 -0.809013 0
    outer loop
      vertex 89.05 30.0574 2
      vertex 91.5024 28.2756 15
      vertex 89.05 30.0574 15
    endloop
  endfacet
  facet normal -0.587791 -0.809013 -0
    outer loop
      vertex 91.5024 28.2756 15
      vertex 89.05 30.0574 2
      vertex 91.5024 28.2756 2
    endloop
  endfacet
  facet normal -0.406717 -0.913554 0
    outer loop
      vertex 86.2807 31.2903 2
      vertex 89.05 30.0574 15
      vertex 86.2807 31.2903 15
    endloop
  endfacet
  facet normal -0.406717 -0.913554 -0
    outer loop
      vertex 89.05 30.0574 15
      vertex 86.2807 31.2903 2
      vertex 89.05 30.0574 2
    endloop
  endfacet
  facet normal 0.951061 -0.309004 0
    outer loop
      vertex 67.6169 20.5147 15
      vertex 68.5536 23.3977 2
      vertex 68.5536 23.3977 15
    endloop
  endfacet
  facet normal 0.951061 -0.309004 0
    outer loop
      vertex 68.5536 23.3977 2
      vertex 67.6169 20.5147 15
      vertex 67.6169 20.5147 2
    endloop
  endfacet
  facet normal 0.406731 0.913548 -0
    outer loop
      vertex 77.3193 3.70968 2
      vertex 74.55 4.94263 15
      vertex 77.3193 3.70968 15
    endloop
  endfacet
  facet normal 0.406731 0.913548 0
    outer loop
      vertex 74.55 4.94263 15
      vertex 77.3193 3.70968 2
      vertex 74.55 4.94263 2
    endloop
  endfacet
  facet normal 0.86602 -0.50001 0
    outer loop
      vertex 68.5536 23.3977 15
      vertex 70.0693 26.0229 2
      vertex 70.0693 26.0229 15
    endloop
  endfacet
  facet normal 0.86602 -0.50001 0
    outer loop
      vertex 70.0693 26.0229 2
      vertex 68.5536 23.3977 15
      vertex 68.5536 23.3977 2
    endloop
  endfacet
  facet normal -0.587785 0.809017 0
    outer loop
      vertex 91.5024 6.7244 2
      vertex 89.05 4.94263 15
      vertex 91.5024 6.7244 15
    endloop
  endfacet
  facet normal -0.587785 0.809017 0
    outer loop
      vertex 89.05 4.94263 15
      vertex 91.5024 6.7244 2
      vertex 89.05 4.94263 2
    endloop
  endfacet
  facet normal 0.207934 -0.978143 0
    outer loop
      vertex 77.3193 31.2903 2
      vertex 80.2843 31.9206 15
      vertex 77.3193 31.2903 15
    endloop
  endfacet
  facet normal 0.207934 -0.978143 0
    outer loop
      vertex 80.2843 31.9206 15
      vertex 77.3193 31.2903 2
      vertex 80.2843 31.9206 2
    endloop
  endfacet
  facet normal -0.99452 0.104542 0
    outer loop
      vertex 95.9831 14.4853 2
      vertex 96.3 17.5 15
      vertex 96.3 17.5 2
    endloop
  endfacet
  facet normal -0.99452 0.104542 0
    outer loop
      vertex 96.3 17.5 15
      vertex 95.9831 14.4853 2
      vertex 95.9831 14.4853 15
    endloop
  endfacet
  facet normal 0.743151 -0.669123 0
    outer loop
      vertex 70.0693 26.0229 15
      vertex 72.0976 28.2756 2
      vertex 72.0976 28.2756 15
    endloop
  endfacet
  facet normal 0.743151 -0.669123 0
    outer loop
      vertex 72.0976 28.2756 2
      vertex 70.0693 26.0229 15
      vertex 70.0693 26.0229 2
    endloop
  endfacet
  facet normal 0 -1 0
    outer loop
      vertex 80.2843 31.9206 2
      vertex 83.3157 31.9206 15
      vertex 80.2843 31.9206 15
    endloop
  endfacet
  facet normal 0 -1 -0
    outer loop
      vertex 83.3157 31.9206 15
      vertex 80.2843 31.9206 2
      vertex 83.3157 31.9206 2
    endloop
  endfacet
  facet normal -0.866019 0.500011 0
    outer loop
      vertex 93.5307 8.97711 2
      vertex 95.0464 11.6023 15
      vertex 95.0464 11.6023 2
    endloop
  endfacet
  facet normal -0.866019 0.500011 0
    outer loop
      vertex 95.0464 11.6023 15
      vertex 93.5307 8.97711 2
      vertex 93.5307 8.97711 15
    endloop
  endfacet
  facet normal 0.587791 -0.809013 0
    outer loop
      vertex 72.0976 28.2756 2
      vertex 74.55 30.0574 15
      vertex 72.0976 28.2756 15
    endloop
  endfacet
  facet normal 0.587791 -0.809013 0
    outer loop
      vertex 74.55 30.0574 15
      vertex 72.0976 28.2756 2
      vertex 74.55 30.0574 2
    endloop
  endfacet
  facet normal -0.406731 0.913548 0
    outer loop
      vertex 89.05 4.94263 2
      vertex 86.2807 3.70968 15
      vertex 89.05 4.94263 15
    endloop
  endfacet
  facet normal -0.406731 0.913548 0
    outer loop
      vertex 86.2807 3.70968 15
      vertex 89.05 4.94263 2
      vertex 86.2807 3.70968 2
    endloop
  endfacet
  facet normal 0.406717 -0.913554 0
    outer loop
      vertex 74.55 30.0574 2
      vertex 77.3193 31.2903 15
      vertex 74.55 30.0574 15
    endloop
  endfacet
  facet normal 0.406717 -0.913554 0
    outer loop
      vertex 77.3193 31.2903 15
      vertex 74.55 30.0574 2
      vertex 77.3193 31.2903 2
    endloop
  endfacet
  facet normal -0.743153 0.669122 0
    outer loop
      vertex 91.5024 6.7244 2
      vertex 93.5307 8.97711 15
      vertex 93.5307 8.97711 2
    endloop
  endfacet
  facet normal -0.743153 0.669122 0
    outer loop
      vertex 93.5307 8.97711 15
      vertex 91.5024 6.7244 2
      vertex 91.5024 6.7244 15
    endloop
  endfacet
  facet normal -0.743151 -0.669123 0
    outer loop
      vertex 93.5307 26.0229 2
      vertex 91.5024 28.2756 15
      vertex 91.5024 28.2756 2
    endloop
  endfacet
  facet normal -0.743151 -0.669123 0
    outer loop
      vertex 91.5024 28.2756 15
      vertex 93.5307 26.0229 2
      vertex 93.5307 26.0229 15
    endloop
  endfacet
  facet normal 0.99452 -0.104542 0
    outer loop
      vertex 67.3 17.5 15
      vertex 67.6169 20.5147 2
      vertex 67.6169 20.5147 15
    endloop
  endfacet
  facet normal 0.99452 -0.104542 0
    outer loop
      vertex 67.6169 20.5147 2
      vertex 67.3 17.5 15
      vertex 67.3 17.5 2
    endloop
  endfacet
  facet normal -0.86602 -0.50001 0
    outer loop
      vertex 95.0464 23.3977 2
      vertex 93.5307 26.0229 15
      vertex 93.5307 26.0229 2
    endloop
  endfacet
  facet normal -0.86602 -0.50001 0
    outer loop
      vertex 93.5307 26.0229 15
      vertex 95.0464 23.3977 2
      vertex 95.0464 23.3977 15
    endloop
  endfacet
  facet normal 0 1 -0
    outer loop
      vertex 83.3157 3.07943 2
      vertex 80.2843 3.07943 15
      vertex 83.3157 3.07943 15
    endloop
  endfacet
  facet normal 0 1 0
    outer loop
      vertex 80.2843 3.07943 15
      vertex 83.3157 3.07943 2
      vertex 80.2843 3.07943 2
    endloop
  endfacet
  facet normal 0.951061 0.309004 0
    outer loop
      vertex 68.5536 11.6023 15
      vertex 67.6169 14.4853 2
      vertex 67.6169 14.4853 15
    endloop
  endfacet
  facet normal 0.951061 0.309004 0
    outer loop
      vertex 67.6169 14.4853 2
      vertex 68.5536 11.6023 15
      vertex 68.5536 11.6023 2
    endloop
  endfacet
  facet normal 0.743153 0.669122 0
    outer loop
      vertex 72.0976 6.7244 15
      vertex 70.0693 8.97711 2
      vertex 70.0693 8.97711 15
    endloop
  endfacet
  facet normal 0.743153 0.669122 0
    outer loop
      vertex 70.0693 8.97711 2
      vertex 72.0976 6.7244 15
      vertex 72.0976 6.7244 2
    endloop
  endfacet
  facet normal 0 0 1
    outer loop
      vertex 95.9831 20.5147 2
      vertex 95.9831 14.4853 2
      vertex 96.3 17.5 2
    endloop
  endfacet
  facet normal 0 0 1
    outer loop
      vertex 95.0464 23.3977 2
      vertex 95.9831 14.4853 2
      vertex 95.9831 20.5147 2
    endloop
  endfacet
  facet normal 0 0 1
    outer loop
      vertex 95.0464 23.3977 2
      vertex 95.0464 11.6023 2
      vertex 95.9831 14.4853 2
    endloop
  endfacet
  facet normal 0 0 1
    outer loop
      vertex 93.5307 26.0229 2
      vertex 95.0464 11.6023 2
      vertex 95.0464 23.3977 2
    endloop
  endfacet
  facet normal 0 0 1
    outer loop
      vertex 93.5307 26.0229 2
      vertex 93.5307 8.97711 2
      vertex 95.0464 11.6023 2
    endloop
  endfacet
  facet normal 0 0 1
    outer loop
      vertex 91.5024 28.2756 2
      vertex 93.5307 8.97711 2
      vertex 93.5307 26.0229 2
    endloop
  endfacet
  facet normal 0 0 1
    outer loop
      vertex 91.5024 28.2756 2
      vertex 91.5024 6.7244 2
      vertex 93.5307 8.97711 2
    endloop
  endfacet
  facet normal 0 0 1
    outer loop
      vertex 89.05 30.0574 2
      vertex 91.5024 6.7244 2
      vertex 91.5024 28.2756 2
    endloop
  endfacet
  facet normal 0 0 1
    outer loop
      vertex 89.05 30.0574 2
      vertex 89.05 4.94263 2
      vertex 91.5024 6.7244 2
    endloop
  endfacet
  facet normal 0 0 1
    outer loop
      vertex 86.2807 31.2903 2
      vertex 89.05 4.94263 2
      vertex 89.05 30.0574 2
    endloop
  endfacet
  facet normal 0 0 1
    outer loop
      vertex 86.2807 31.2903 2
      vertex 86.2807 3.70968 2
      vertex 89.05 4.94263 2
    endloop
  endfacet
  facet normal 0 0 1
    outer loop
      vertex 83.3157 31.9206 2
      vertex 86.2807 3.70968 2
      vertex 86.2807 31.2903 2
    endloop
  endfacet
  facet normal 0 0 1
    outer loop
      vertex 83.3157 31.9206 2
      vertex 83.3157 3.07943 2
      vertex 86.2807 3.70968 2
    endloop
  endfacet
  facet normal -0 0 1
    outer loop
      vertex 80.2843 31.9206 2
      vertex 83.3157 3.07943 2
      vertex 83.3157 31.9206 2
    endloop
  endfacet
  facet normal 0 0 1
    outer loop
      vertex 80.2843 31.9206 2
      vertex 80.2843 3.07943 2
      vertex 83.3157 3.07943 2
    endloop
  endfacet
  facet normal -0 0 1
    outer loop
      vertex 77.3193 31.2903 2
      vertex 80.2843 3.07943 2
      vertex 80.2843 31.9206 2
    endloop
  endfacet
  facet normal 0 0 1
    outer loop
      vertex 77.3193 31.2903 2
      vertex 77.3193 3.70968 2
      vertex 80.2843 3.07943 2
    endloop
  endfacet
  facet normal -0 0 1
    outer loop
      vertex 74.55 30.0574 2
      vertex 77.3193 3.70968 2
      vertex 77.3193 31.2903 2
    endloop
  endfacet
  facet normal 0 0 1
    outer loop
      vertex 74.55 30.0574 2
      vertex 74.55 4.94263 2
      vertex 77.3193 3.70968 2
    endloop
  endfacet
  facet normal -0 0 1
    outer loop
      vertex 72.0976 28.2756 2
      vertex 74.55 4.94263 2
      vertex 74.55 30.0574 2
    endloop
  endfacet
  facet normal 0 0 1
    outer loop
      vertex 72.0976 28.2756 2
      vertex 72.0976 6.7244 2
      vertex 74.55 4.94263 2
    endloop
  endfacet
  facet normal -0 0 1
    outer loop
      vertex 70.0693 26.0229 2
      vertex 72.0976 6.7244 2
      vertex 72.0976 28.2756 2
    endloop
  endfacet
  facet normal 0 0 1
    outer loop
      vertex 70.0693 26.0229 2
      vertex 70.0693 8.97711 2
      vertex 72.0976 6.7244 2
    endloop
  endfacet
  facet normal -0 0 1
    outer loop
      vertex 68.5536 23.3977 2
      vertex 70.0693 8.97711 2
      vertex 70.0693 26.0229 2
    endloop
  endfacet
  facet normal 0 0 1
    outer loop
      vertex 68.5536 23.3977 2
      vertex 68.5536 11.6023 2
      vertex 70.0693 8.97711 2
    endloop
  endfacet
  facet normal -0 0 1
    outer loop
      vertex 67.6169 20.5147 2
      vertex 68.5536 11.6023 2
      vertex 68.5536 23.3977 2
    endloop
  endfacet
  facet normal 0 0 1
    outer loop
      vertex 67.6169 20.5147 2
      vertex 67.6169 14.4853 2
      vertex 68.5536 11.6023 2
    endloop
  endfacet
  facet normal 0 -0 1
    outer loop
      vertex 67.6169 14.4853 2
      vertex 67.6169 20.5147 2
      vertex 67.3 17.5 2
    endloop
  endfacet
  facet normal 0.99452 0.104542 0
    outer loop
      vertex 67.6169 14.4853 15
      vertex 67.3 17.5 2
      vertex 67.3 17.5 15
    endloop
  endfacet
  facet normal 0.99452 0.104542 0
    outer loop
      vertex 67.3 17.5 2
      vertex 67.6169 14.4853 15
      vertex 67.6169 14.4853 2
    endloop
  endfacet
  facet normal -0.951032 0.309094 0
    outer loop
      vertex 127.146 11.6023 2
      vertex 128.083 14.4853 15
      vertex 128.083 14.4853 2
    endloop
  endfacet
  facet normal -0.951032 0.309094 0
    outer loop
      vertex 128.083 14.4853 15
      vertex 127.146 11.6023 2
      vertex 127.146 11.6023 15
    endloop
  endfacet
  facet normal -0.951032 -0.309094 0
    outer loop
      vertex 128.083 20.5147 2
      vertex 127.146 23.3977 15
      vertex 127.146 23.3977 2
    endloop
  endfacet
  facet normal -0.951032 -0.309094 0
    outer loop
      vertex 127.146 23.3977 15
      vertex 128.083 20.5147 2
      vertex 128.083 20.5147 15
    endloop
  endfacet
  facet normal -0.994517 -0.104575 0
    outer loop
      vertex 128.4 17.5 2
      vertex 128.083 20.5147 15
      vertex 128.083 20.5147 2
    endloop
  endfacet
  facet normal -0.994517 -0.104575 0
    outer loop
      vertex 128.083 20.5147 15
      vertex 128.4 17.5 2
      vertex 128.4 17.5 15
    endloop
  endfacet
  facet normal -0.86612 -0.499837 0
    outer loop
      vertex 127.146 23.3977 2
      vertex 125.631 26.0229 15
      vertex 125.631 26.0229 2
    endloop
  endfacet
  facet normal -0.86612 -0.499837 0
    outer loop
      vertex 125.631 26.0229 15
      vertex 127.146 23.3977 2
      vertex 127.146 23.3977 15
    endloop
  endfacet
  facet normal -0.406767 0.913532 0
    outer loop
      vertex 121.15 4.94263 2
      vertex 118.381 3.70968 15
      vertex 121.15 4.94263 15
    endloop
  endfacet
  facet normal -0.406767 0.913532 0
    outer loop
      vertex 118.381 3.70968 15
      vertex 121.15 4.94263 2
      vertex 118.381 3.70968 2
    endloop
  endfacet
  facet normal 0.207918 0.978146 -0
    outer loop
      vertex 112.384 3.07943 2
      vertex 109.419 3.70968 15
      vertex 112.384 3.07943 15
    endloop
  endfacet
  facet normal 0.207918 0.978146 0
    outer loop
      vertex 109.419 3.70968 15
      vertex 112.384 3.07943 2
      vertex 109.419 3.70968 2
    endloop
  endfacet
  facet normal 0.207934 -0.978143 0
    outer loop
      vertex 109.419 31.2903 2
      vertex 112.384 31.9206 15
      vertex 109.419 31.2903 15
    endloop
  endfacet
  facet normal 0.207934 -0.978143 0
    outer loop
      vertex 112.384 31.9206 15
      vertex 109.419 31.2903 2
      vertex 112.384 31.9206 2
    endloop
  endfacet
  facet normal -0.207934 -0.978143 0
    outer loop
      vertex 115.416 31.9206 2
      vertex 118.381 31.2903 15
      vertex 115.416 31.9206 15
    endloop
  endfacet
  facet normal -0.207934 -0.978143 -0
    outer loop
      vertex 118.381 31.2903 15
      vertex 115.416 31.9206 2
      vertex 118.381 31.2903 2
    endloop
  endfacet
  facet normal 0 1 -0
    outer loop
      vertex 115.416 3.07943 2
      vertex 112.384 3.07943 15
      vertex 115.416 3.07943 15
    endloop
  endfacet
  facet normal 0 1 0
    outer loop
      vertex 112.384 3.07943 15
      vertex 115.416 3.07943 2
      vertex 112.384 3.07943 2
    endloop
  endfacet
  facet normal 0.951022 -0.309123 0
    outer loop
      vertex 99.7169 20.5147 15
      vertex 100.654 23.3977 2
      vertex 100.654 23.3977 15
    endloop
  endfacet
  facet normal 0.951022 -0.309123 0
    outer loop
      vertex 100.654 23.3977 2
      vertex 99.7169 20.5147 15
      vertex 99.7169 20.5147 2
    endloop
  endfacet
  facet normal 0.866119 0.499838 0
    outer loop
      vertex 102.169 8.97711 15
      vertex 100.654 11.6023 2
      vertex 100.654 11.6023 15
    endloop
  endfacet
  facet normal 0.866119 0.499838 0
    outer loop
      vertex 100.654 11.6023 2
      vertex 102.169 8.97711 15
      vertex 102.169 8.97711 2
    endloop
  endfacet
  facet normal -0.866119 0.499838 0
    outer loop
      vertex 125.631 8.97711 2
      vertex 127.146 11.6023 15
      vertex 127.146 11.6023 2
    endloop
  endfacet
  facet normal -0.866119 0.499838 0
    outer loop
      vertex 127.146 11.6023 15
      vertex 125.631 8.97711 2
      vertex 125.631 8.97711 15
    endloop
  endfacet
  facet normal -0.406754 -0.913538 0
    outer loop
      vertex 118.381 31.2903 2
      vertex 121.15 30.0574 15
      vertex 118.381 31.2903 15
    endloop
  endfacet
  facet normal -0.406754 -0.913538 -0
    outer loop
      vertex 121.15 30.0574 15
      vertex 118.381 31.2903 2
      vertex 121.15 30.0574 2
    endloop
  endfacet
  facet normal -0.994517 0.104575 0
    outer loop
      vertex 128.083 14.4853 2
      vertex 128.4 17.5 15
      vertex 128.4 17.5 2
    endloop
  endfacet
  facet normal -0.994517 0.104575 0
    outer loop
      vertex 128.4 17.5 15
      vertex 128.083 14.4853 2
      vertex 128.083 14.4853 15
    endloop
  endfacet
  facet normal 0.406754 -0.913538 0
    outer loop
      vertex 106.65 30.0574 2
      vertex 109.419 31.2903 15
      vertex 106.65 30.0574 15
    endloop
  endfacet
  facet normal 0.406754 -0.913538 0
    outer loop
      vertex 109.419 31.2903 15
      vertex 106.65 30.0574 2
      vertex 109.419 31.2903 2
    endloop
  endfacet
  facet normal 0 0 1
    outer loop
      vertex 128.083 20.5147 2
      vertex 128.083 14.4853 2
      vertex 128.4 17.5 2
    endloop
  endfacet
  facet normal 0 0 1
    outer loop
      vertex 127.146 23.3977 2
      vertex 128.083 14.4853 2
      vertex 128.083 20.5147 2
    endloop
  endfacet
  facet normal 0 0 1
    outer loop
      vertex 127.146 23.3977 2
      vertex 127.146 11.6023 2
      vertex 128.083 14.4853 2
    endloop
  endfacet
  facet normal 0 0 1
    outer loop
      vertex 125.631 26.0229 2
      vertex 127.146 11.6023 2
      vertex 127.146 23.3977 2
    endloop
  endfacet
  facet normal 0 0 1
    outer loop
      vertex 125.631 26.0229 2
      vertex 125.631 8.97711 2
      vertex 127.146 11.6023 2
    endloop
  endfacet
  facet normal 0 0 1
    outer loop
      vertex 123.602 28.2756 2
      vertex 125.631 8.97711 2
      vertex 125.631 26.0229 2
    endloop
  endfacet
  facet normal 0 0 1
    outer loop
      vertex 123.602 28.2756 2
      vertex 123.602 6.7244 2
      vertex 125.631 8.97711 2
    endloop
  endfacet
  facet normal 0 0 1
    outer loop
      vertex 121.15 30.0574 2
      vertex 123.602 6.7244 2
      vertex 123.602 28.2756 2
    endloop
  endfacet
  facet normal 0 0 1
    outer loop
      vertex 121.15 30.0574 2
      vertex 121.15 4.94263 2
      vertex 123.602 6.7244 2
    endloop
  endfacet
  facet normal 0 0 1
    outer loop
      vertex 118.381 31.2903 2
      vertex 121.15 4.94263 2
      vertex 121.15 30.0574 2
    endloop
  endfacet
  facet normal 0 0 1
    outer loop
      vertex 118.381 31.2903 2
      vertex 118.381 3.70968 2
      vertex 121.15 4.94263 2
    endloop
  endfacet
  facet normal 0 0 1
    outer loop
      vertex 115.416 31.9206 2
      vertex 118.381 3.70968 2
      vertex 118.381 31.2903 2
    endloop
  endfacet
  facet normal 0 0 1
    outer loop
      vertex 115.416 31.9206 2
      vertex 115.416 3.07943 2
      vertex 118.381 3.70968 2
    endloop
  endfacet
  facet normal -0 0 1
    outer loop
      vertex 112.384 31.9206 2
      vertex 115.416 3.07943 2
      vertex 115.416 31.9206 2
    endloop
  endfacet
  facet normal 0 0 1
    outer loop
      vertex 112.384 31.9206 2
      vertex 112.384 3.07943 2
      vertex 115.416 3.07943 2
    endloop
  endfacet
  facet normal -0 0 1
    outer loop
      vertex 109.419 31.2903 2
      vertex 112.384 3.07943 2
      vertex 112.384 31.9206 2
    endloop
  endfacet
  facet normal 0 0 1
    outer loop
      vertex 109.419 31.2903 2
      vertex 109.419 3.70968 2
      vertex 112.384 3.07943 2
    endloop
  endfacet
  facet normal -0 0 1
    outer loop
      vertex 106.65 30.0574 2
      vertex 109.419 3.70968 2
      vertex 109.419 31.2903 2
    endloop
  endfacet
  facet normal 0 0 1
    outer loop
      vertex 106.65 30.0574 2
      vertex 106.65 4.94263 2
      vertex 109.419 3.70968 2
    endloop
  endfacet
  facet normal -0 0 1
    outer loop
      vertex 104.198 28.2756 2
      vertex 106.65 4.94263 2
      vertex 106.65 30.0574 2
    endloop
  endfacet
  facet normal 0 0 1
    outer loop
      vertex 104.198 28.2756 2
      vertex 104.198 6.7244 2
      vertex 106.65 4.94263 2
    endloop
  endfacet
  facet normal -0 0 1
    outer loop
      vertex 102.169 26.0229 2
      vertex 104.198 6.7244 2
      vertex 104.198 28.2756 2
    endloop
  endfacet
  facet normal 0 0 1
    outer loop
      vertex 102.169 26.0229 2
      vertex 102.169 8.97711 2
      vertex 104.198 6.7244 2
    endloop
  endfacet
  facet normal -0 0 1
    outer loop
      vertex 100.654 23.3977 2
      vertex 102.169 8.97711 2
      vertex 102.169 26.0229 2
    endloop
  endfacet
  facet normal 0 0 1
    outer loop
      vertex 100.654 23.3977 2
      vertex 100.654 11.6023 2
      vertex 102.169 8.97711 2
    endloop
  endfacet
  facet normal -0 0 1
    outer loop
      vertex 99.7169 20.5147 2
      vertex 100.654 11.6023 2
      vertex 100.654 23.3977 2
    endloop
  endfacet
  facet normal 0 0 1
    outer loop
      vertex 99.7169 20.5147 2
      vertex 99.7169 14.4853 2
      vertex 100.654 11.6023 2
    endloop
  endfacet
  facet normal 0 -0 1
    outer loop
      vertex 99.7169 14.4853 2
      vertex 99.7169 20.5147 2
      vertex 99.4 17.5 2
    endloop
  endfacet
  facet normal 0 -1 0
    outer loop
      vertex 112.384 31.9206 2
      vertex 115.416 31.9206 15
      vertex 112.384 31.9206 15
    endloop
  endfacet
  facet normal 0 -1 -0
    outer loop
      vertex 115.416 31.9206 15
      vertex 112.384 31.9206 2
      vertex 115.416 31.9206 2
    endloop
  endfacet
  facet normal 0.743037 -0.669251 0
    outer loop
      vertex 102.169 26.0229 15
      vertex 104.198 28.2756 2
      vertex 104.198 28.2756 15
    endloop
  endfacet
  facet normal 0.743037 -0.669251 0
    outer loop
      vertex 104.198 28.2756 2
      vertex 102.169 26.0229 15
      vertex 102.169 26.0229 2
    endloop
  endfacet
  facet normal -0.743037 -0.669251 0
    outer loop
      vertex 125.631 26.0229 2
      vertex 123.602 28.2756 15
      vertex 123.602 28.2756 2
    endloop
  endfacet
  facet normal -0.743037 -0.669251 0
    outer loop
      vertex 123.602 28.2756 15
      vertex 125.631 26.0229 2
      vertex 125.631 26.0229 15
    endloop
  endfacet
  facet normal 0.587854 -0.808967 0
    outer loop
      vertex 104.198 28.2756 2
      vertex 106.65 30.0574 15
      vertex 104.198 28.2756 15
    endloop
  endfacet
  facet normal 0.587854 -0.808967 0
    outer loop
      vertex 106.65 30.0574 15
      vertex 104.198 28.2756 2
      vertex 106.65 30.0574 2
    endloop
  endfacet
  facet normal -0.587854 -0.808967 0
    outer loop
      vertex 121.15 30.0574 2
      vertex 123.602 28.2756 15
      vertex 121.15 30.0574 15
    endloop
  endfacet
  facet normal -0.587854 -0.808967 -0
    outer loop
      vertex 123.602 28.2756 15
      vertex 121.15 30.0574 2
      vertex 123.602 28.2756 2
    endloop
  endfacet
  facet normal -0.743038 0.669249 0
    outer loop
      vertex 123.602 6.7244 2
      vertex 125.631 8.97711 15
      vertex 125.631 8.97711 2
    endloop
  endfacet
  facet normal -0.743038 0.669249 0
    outer loop
      vertex 125.631 8.97711 15
      vertex 123.602 6.7244 2
      vertex 123.602 6.7244 15
    endloop
  endfacet
  facet normal 0.99452 0.104542 0
    outer loop
      vertex 99.7169 14.4853 15
      vertex 99.4 17.5 2
      vertex 99.4 17.5 15
    endloop
  endfacet
  facet normal 0.99452 0.104542 0
    outer loop
      vertex 99.4 17.5 2
      vertex 99.7169 14.4853 15
      vertex 99.7169 14.4853 2
    endloop
  endfacet
  facet normal 0.99452 -0.104542 0
    outer loop
      vertex 99.4 17.5 15
      vertex 99.7169 20.5147 2
      vertex 99.7169 20.5147 15
    endloop
  endfacet
  facet normal 0.99452 -0.104542 0
    outer loop
      vertex 99.7169 20.5147 2
      vertex 99.4 17.5 15
      vertex 99.4 17.5 2
    endloop
  endfacet
  facet normal -0.207918 0.978146 0
    outer loop
      vertex 118.381 3.70968 2
      vertex 115.416 3.07943 15
      vertex 118.381 3.70968 15
    endloop
  endfacet
  facet normal -0.207918 0.978146 0
    outer loop
      vertex 115.416 3.07943 15
      vertex 118.381 3.70968 2
      vertex 115.416 3.07943 2
    endloop
  endfacet
  facet normal 0.951022 0.309123 0
    outer loop
      vertex 100.654 11.6023 15
      vertex 99.7169 14.4853 2
      vertex 99.7169 14.4853 15
    endloop
  endfacet
  facet normal 0.951022 0.309123 0
    outer loop
      vertex 99.7169 14.4853 2
      vertex 100.654 11.6023 15
      vertex 100.654 11.6023 2
    endloop
  endfacet
  facet normal 0.86612 -0.499837 0
    outer loop
      vertex 100.654 23.3977 15
      vertex 102.169 26.0229 2
      vertex 102.169 26.0229 15
    endloop
  endfacet
  facet normal 0.86612 -0.499837 0
    outer loop
      vertex 102.169 26.0229 2
      vertex 100.654 23.3977 15
      vertex 100.654 23.3977 2
    endloop
  endfacet
  facet normal -0.587847 0.808972 0
    outer loop
      vertex 123.602 6.7244 2
      vertex 121.15 4.94263 15
      vertex 123.602 6.7244 15
    endloop
  endfacet
  facet normal -0.587847 0.808972 0
    outer loop
      vertex 121.15 4.94263 15
      vertex 123.602 6.7244 2
      vertex 121.15 4.94263 2
    endloop
  endfacet
  facet normal 0.743038 0.669249 0
    outer loop
      vertex 104.198 6.7244 15
      vertex 102.169 8.97711 2
      vertex 102.169 8.97711 15
    endloop
  endfacet
  facet normal 0.743038 0.669249 0
    outer loop
      vertex 102.169 8.97711 2
      vertex 104.198 6.7244 15
      vertex 104.198 6.7244 2
    endloop
  endfacet
  facet normal 0.587847 0.808972 -0
    outer loop
      vertex 106.65 4.94263 2
      vertex 104.198 6.7244 15
      vertex 106.65 4.94263 15
    endloop
  endfacet
  facet normal 0.587847 0.808972 0
    outer loop
      vertex 104.198 6.7244 15
      vertex 106.65 4.94263 2
      vertex 104.198 6.7244 2
    endloop
  endfacet
  facet normal 0.406767 0.913532 -0
    outer loop
      vertex 109.419 3.70968 2
      vertex 106.65 4.94263 15
      vertex 109.419 3.70968 15
    endloop
  endfacet
  facet normal 0.406767 0.913532 0
    outer loop
      vertex 106.65 4.94263 15
      vertex 109.419 3.70968 2
      vertex 106.65 4.94263 2
    endloop
  endfacet
  facet normal -0.951032 -0.309094 0
    outer loop
      vertex 160.183 20.5147 2
      vertex 159.246 23.3977 15
      vertex 159.246 23.3977 2
    endloop
  endfacet
  facet normal -0.951032 -0.309094 0
    outer loop
      vertex 159.246 23.3977 15
      vertex 160.183 20.5147 2
      vertex 160.183 20.5147 15
    endloop
  endfacet
  facet normal -0.994517 -0.104575 0
    outer loop
      vertex 160.5 17.5 2
      vertex 160.183 20.5147 15
      vertex 160.183 20.5147 2
    endloop
  endfacet
  facet normal -0.994517 -0.104575 0
    outer loop
      vertex 160.183 20.5147 15
      vertex 160.5 17.5 2
      vertex 160.5 17.5 15
    endloop
  endfacet
  facet normal -0.86612 -0.499837 0
    outer loop
      vertex 159.246 23.3977 2
      vertex 157.731 26.0229 15
      vertex 157.731 26.0229 2
    endloop
  endfacet
  facet normal -0.86612 -0.499837 0
    outer loop
      vertex 157.731 26.0229 15
      vertex 159.246 23.3977 2
      vertex 159.246 23.3977 15
    endloop
  endfacet
  facet normal -0.951032 0.309094 0
    outer loop
      vertex 159.246 11.6023 2
      vertex 160.183 14.4853 15
      vertex 160.183 14.4853 2
    endloop
  endfacet
  facet normal -0.951032 0.309094 0
    outer loop
      vertex 160.183 14.4853 15
      vertex 159.246 11.6023 2
      vertex 159.246 11.6023 15
    endloop
  endfacet
  facet normal -0.406767 0.913532 0
    outer loop
      vertex 153.25 4.94263 2
      vertex 150.481 3.70968 15
      vertex 153.25 4.94263 15
    endloop
  endfacet
  facet normal -0.406767 0.913532 0
    outer loop
      vertex 150.481 3.70968 15
      vertex 153.25 4.94263 2
      vertex 150.481 3.70968 2
    endloop
  endfacet
  facet normal 0.951032 0.309094 0
    outer loop
      vertex 132.754 11.6023 15
      vertex 131.817 14.4853 2
      vertex 131.817 14.4853 15
    endloop
  endfacet
  facet normal 0.951032 0.309094 0
    outer loop
      vertex 131.817 14.4853 2
      vertex 132.754 11.6023 15
      vertex 132.754 11.6023 2
    endloop
  endfacet
  facet normal -0.994517 0.104575 0
    outer loop
      vertex 160.183 14.4853 2
      vertex 160.5 17.5 15
      vertex 160.5 17.5 2
    endloop
  endfacet
  facet normal -0.994517 0.104575 0
    outer loop
      vertex 160.5 17.5 15
      vertex 160.183 14.4853 2
      vertex 160.183 14.4853 15
    endloop
  endfacet
  facet normal 0.743037 -0.669251 0
    outer loop
      vertex 134.269 26.0229 15
      vertex 136.298 28.2756 2
      vertex 136.298 28.2756 15
    endloop
  endfacet
  facet normal 0.743037 -0.669251 0
    outer loop
      vertex 136.298 28.2756 2
      vertex 134.269 26.0229 15
      vertex 134.269 26.0229 2
    endloop
  endfacet
  facet normal 0.587847 0.808972 -0
    outer loop
      vertex 138.75 4.94263 2
      vertex 136.298 6.7244 15
      vertex 138.75 4.94263 15
    endloop
  endfacet
  facet normal 0.587847 0.808972 0
    outer loop
      vertex 136.298 6.7244 15
      vertex 138.75 4.94263 2
      vertex 136.298 6.7244 2
    endloop
  endfacet
  facet normal 0.994517 0.104575 0
    outer loop
      vertex 131.817 14.4853 15
      vertex 131.5 17.5 2
      vertex 131.5 17.5 15
    endloop
  endfacet
  facet normal 0.994517 0.104575 0
    outer loop
      vertex 131.5 17.5 2
      vertex 131.817 14.4853 15
      vertex 131.817 14.4853 2
    endloop
  endfacet
  facet normal 0.406754 -0.913538 0
    outer loop
      vertex 138.75 30.0574 2
      vertex 141.519 31.2903 15
      vertex 138.75 30.0574 15
    endloop
  endfacet
  facet normal 0.406754 -0.913538 0
    outer loop
      vertex 141.519 31.2903 15
      vertex 138.75 30.0574 2
      vertex 141.519 31.2903 2
    endloop
  endfacet
  facet normal 0.207934 -0.978143 0
    outer loop
      vertex 141.519 31.2903 2
      vertex 144.484 31.9206 15
      vertex 141.519 31.2903 15
    endloop
  endfacet
  facet normal 0.207934 -0.978143 0
    outer loop
      vertex 144.484 31.9206 15
      vertex 141.519 31.2903 2
      vertex 144.484 31.9206 2
    endloop
  endfacet
  facet normal 0.406767 0.913532 -0
    outer loop
      vertex 141.519 3.70968 2
      vertex 138.75 4.94263 15
      vertex 141.519 3.70968 15
    endloop
  endfacet
  facet normal 0.406767 0.913532 0
    outer loop
      vertex 138.75 4.94263 15
      vertex 141.519 3.70968 2
      vertex 138.75 4.94263 2
    endloop
  endfacet
  facet normal 0.951032 -0.309094 0
    outer loop
      vertex 131.817 20.5147 15
      vertex 132.754 23.3977 2
      vertex 132.754 23.3977 15
    endloop
  endfacet
  facet normal 0.951032 -0.309094 0
    outer loop
      vertex 132.754 23.3977 2
      vertex 131.817 20.5147 15
      vertex 131.817 20.5147 2
    endloop
  endfacet
  facet normal 0 1 -0
    outer loop
      vertex 147.516 3.07943 2
      vertex 144.484 3.07943 15
      vertex 147.516 3.07943 15
    endloop
  endfacet
  facet normal 0 1 0
    outer loop
      vertex 144.484 3.07943 15
      vertex 147.516 3.07943 2
      vertex 144.484 3.07943 2
    endloop
  endfacet
  facet normal -0.207934 -0.978143 0
    outer loop
      vertex 147.516 31.9206 2
      vertex 150.481 31.2903 15
      vertex 147.516 31.9206 15
    endloop
  endfacet
  facet normal -0.207934 -0.978143 -0
    outer loop
      vertex 150.481 31.2903 15
      vertex 147.516 31.9206 2
      vertex 150.481 31.2903 2
    endloop
  endfacet
  facet normal 0.994517 -0.104575 0
    outer loop
      vertex 131.5 17.5 15
      vertex 131.817 20.5147 2
      vertex 131.817 20.5147 15
    endloop
  endfacet
  facet normal 0.994517 -0.104575 0
    outer loop
      vertex 131.817 20.5147 2
      vertex 131.5 17.5 15
      vertex 131.5 17.5 2
    endloop
  endfacet
  facet normal -0.743037 -0.669251 0
    outer loop
      vertex 157.731 26.0229 2
      vertex 155.702 28.2756 15
      vertex 155.702 28.2756 2
    endloop
  endfacet
  facet normal -0.743037 -0.669251 0
    outer loop
      vertex 155.702 28.2756 15
      vertex 157.731 26.0229 2
      vertex 157.731 26.0229 15
    endloop
  endfacet
  facet normal -0.866119 0.499838 0
    outer loop
      vertex 157.731 8.97711 2
      vertex 159.246 11.6023 15
      vertex 159.246 11.6023 2
    endloop
  endfacet
  facet normal -0.866119 0.499838 0
    outer loop
      vertex 159.246 11.6023 15
      vertex 157.731 8.97711 2
      vertex 157.731 8.97711 15
    endloop
  endfacet
  facet normal -0.587854 -0.808967 0
    outer loop
      vertex 153.25 30.0574 2
      vertex 155.702 28.2756 15
      vertex 153.25 30.0574 15
    endloop
  endfacet
  facet normal -0.587854 -0.808967 -0
    outer loop
      vertex 155.702 28.2756 15
      vertex 153.25 30.0574 2
      vertex 155.702 28.2756 2
    endloop
  endfacet
  facet normal 0 -1 0
    outer loop
      vertex 144.484 31.9206 2
      vertex 147.516 31.9206 15
      vertex 144.484 31.9206 15
    endloop
  endfacet
  facet normal 0 -1 -0
    outer loop
      vertex 147.516 31.9206 15
      vertex 144.484 31.9206 2
      vertex 147.516 31.9206 2
    endloop
  endfacet
  facet normal -0.406754 -0.913538 0
    outer loop
      vertex 150.481 31.2903 2
      vertex 153.25 30.0574 15
      vertex 150.481 31.2903 15
    endloop
  endfacet
  facet normal -0.406754 -0.913538 -0
    outer loop
      vertex 153.25 30.0574 15
      vertex 150.481 31.2903 2
      vertex 153.25 30.0574 2
    endloop
  endfacet
  facet normal 0.207918 0.978146 -0
    outer loop
      vertex 144.484 3.07943 2
      vertex 141.519 3.70968 15
      vertex 144.484 3.07943 15
    endloop
  endfacet
  facet normal 0.207918 0.978146 0
    outer loop
      vertex 141.519 3.70968 15
      vertex 144.484 3.07943 2
      vertex 141.519 3.70968 2
    endloop
  endfacet
  facet normal -0.587847 0.808972 0
    outer loop
      vertex 155.702 6.7244 2
      vertex 153.25 4.94263 15
      vertex 155.702 6.7244 15
    endloop
  endfacet
  facet normal -0.587847 0.808972 0
    outer loop
      vertex 153.25 4.94263 15
      vertex 155.702 6.7244 2
      vertex 153.25 4.94263 2
    endloop
  endfacet
  facet normal -0.743038 0.669249 0
    outer loop
      vertex 155.702 6.7244 2
      vertex 157.731 8.97711 15
      vertex 157.731 8.97711 2
    endloop
  endfacet
  facet normal -0.743038 0.669249 0
    outer loop
      vertex 157.731 8.97711 15
      vertex 155.702 6.7244 2
      vertex 155.702 6.7244 15
    endloop
  endfacet
  facet normal -0.207918 0.978146 0
    outer loop
      vertex 150.481 3.70968 2
      vertex 147.516 3.07943 15
      vertex 150.481 3.70968 15
    endloop
  endfacet
  facet normal -0.207918 0.978146 0
    outer loop
      vertex 147.516 3.07943 15
      vertex 150.481 3.70968 2
      vertex 147.516 3.07943 2
    endloop
  endfacet
  facet normal 0.587854 -0.808967 0
    outer loop
      vertex 136.298 28.2756 2
      vertex 138.75 30.0574 15
      vertex 136.298 28.2756 15
    endloop
  endfacet
  facet normal 0.587854 -0.808967 0
    outer loop
      vertex 138.75 30.0574 15
      vertex 136.298 28.2756 2
      vertex 138.75 30.0574 2
    endloop
  endfacet
  facet normal 0.743038 0.669249 0
    outer loop
      vertex 136.298 6.7244 15
      vertex 134.269 8.97711 2
      vertex 134.269 8.97711 15
    endloop
  endfacet
  facet normal 0.743038 0.669249 0
    outer loop
      vertex 134.269 8.97711 2
      vertex 136.298 6.7244 15
      vertex 136.298 6.7244 2
    endloop
  endfacet
  facet normal 0.866119 0.499838 0
    outer loop
      vertex 134.269 8.97711 15
      vertex 132.754 11.6023 2
      vertex 132.754 11.6023 15
    endloop
  endfacet
  facet normal 0.866119 0.499838 0
    outer loop
      vertex 132.754 11.6023 2
      vertex 134.269 8.97711 15
      vertex 134.269 8.97711 2
    endloop
  endfacet
  facet normal 0 0 1
    outer loop
      vertex 160.183 20.5147 2
      vertex 160.183 14.4853 2
      vertex 160.5 17.5 2
    endloop
  endfacet
  facet normal 0 0 1
    outer loop
      vertex 159.246 23.3977 2
      vertex 160.183 14.4853 2
      vertex 160.183 20.5147 2
    endloop
  endfacet
  facet normal 0 0 1
    outer loop
      vertex 159.246 23.3977 2
      vertex 159.246 11.6023 2
      vertex 160.183 14.4853 2
    endloop
  endfacet
  facet normal 0 0 1
    outer loop
      vertex 157.731 26.0229 2
      vertex 159.246 11.6023 2
      vertex 159.246 23.3977 2
    endloop
  endfacet
  facet normal 0 0 1
    outer loop
      vertex 157.731 26.0229 2
      vertex 157.731 8.97711 2
      vertex 159.246 11.6023 2
    endloop
  endfacet
  facet normal 0 0 1
    outer loop
      vertex 155.702 28.2756 2
      vertex 157.731 8.97711 2
      vertex 157.731 26.0229 2
    endloop
  endfacet
  facet normal 0 0 1
    outer loop
      vertex 155.702 28.2756 2
      vertex 155.702 6.7244 2
      vertex 157.731 8.97711 2
    endloop
  endfacet
  facet normal 0 0 1
    outer loop
      vertex 153.25 30.0574 2
      vertex 155.702 6.7244 2
      vertex 155.702 28.2756 2
    endloop
  endfacet
  facet normal 0 0 1
    outer loop
      vertex 153.25 30.0574 2
      vertex 153.25 4.94263 2
      vertex 155.702 6.7244 2
    endloop
  endfacet
  facet normal 0 0 1
    outer loop
      vertex 150.481 31.2903 2
      vertex 153.25 4.94263 2
      vertex 153.25 30.0574 2
    endloop
  endfacet
  facet normal 0 0 1
    outer loop
      vertex 150.481 31.2903 2
      vertex 150.481 3.70968 2
      vertex 153.25 4.94263 2
    endloop
  endfacet
  facet normal 0 0 1
    outer loop
      vertex 147.516 31.9206 2
      vertex 150.481 3.70968 2
      vertex 150.481 31.2903 2
    endloop
  endfacet
  facet normal 0 0 1
    outer loop
      vertex 147.516 31.9206 2
      vertex 147.516 3.07943 2
      vertex 150.481 3.70968 2
    endloop
  endfacet
  facet normal -0 0 1
    outer loop
      vertex 144.484 31.9206 2
      vertex 147.516 3.07943 2
      vertex 147.516 31.9206 2
    endloop
  endfacet
  facet normal 0 0 1
    outer loop
      vertex 144.484 31.9206 2
      vertex 144.484 3.07943 2
      vertex 147.516 3.07943 2
    endloop
  endfacet
  facet normal -0 0 1
    outer loop
      vertex 141.519 31.2903 2
      vertex 144.484 3.07943 2
      vertex 144.484 31.9206 2
    endloop
  endfacet
  facet normal 0 0 1
    outer loop
      vertex 141.519 31.2903 2
      vertex 141.519 3.70968 2
      vertex 144.484 3.07943 2
    endloop
  endfacet
  facet normal -0 0 1
    outer loop
      vertex 138.75 30.0574 2
      vertex 141.519 3.70968 2
      vertex 141.519 31.2903 2
    endloop
  endfacet
  facet normal 0 0 1
    outer loop
      vertex 138.75 30.0574 2
      vertex 138.75 4.94263 2
      vertex 141.519 3.70968 2
    endloop
  endfacet
  facet normal -0 0 1
    outer loop
      vertex 136.298 28.2756 2
      vertex 138.75 4.94263 2
      vertex 138.75 30.0574 2
    endloop
  endfacet
  facet normal 0 0 1
    outer loop
      vertex 136.298 28.2756 2
      vertex 136.298 6.7244 2
      vertex 138.75 4.94263 2
    endloop
  endfacet
  facet normal -0 0 1
    outer loop
      vertex 134.269 26.0229 2
      vertex 136.298 6.7244 2
      vertex 136.298 28.2756 2
    endloop
  endfacet
  facet normal 0 0 1
    outer loop
      vertex 134.269 26.0229 2
      vertex 134.269 8.97711 2
      vertex 136.298 6.7244 2
    endloop
  endfacet
  facet normal -0 0 1
    outer loop
      vertex 132.754 23.3977 2
      vertex 134.269 8.97711 2
      vertex 134.269 26.0229 2
    endloop
  endfacet
  facet normal 0 0 1
    outer loop
      vertex 132.754 23.3977 2
      vertex 132.754 11.6023 2
      vertex 134.269 8.97711 2
    endloop
  endfacet
  facet normal -0 0 1
    outer loop
      vertex 131.817 20.5147 2
      vertex 132.754 11.6023 2
      vertex 132.754 23.3977 2
    endloop
  endfacet
  facet normal 0 0 1
    outer loop
      vertex 131.817 20.5147 2
      vertex 131.817 14.4853 2
      vertex 132.754 11.6023 2
    endloop
  endfacet
  facet normal 0 -0 1
    outer loop
      vertex 131.817 14.4853 2
      vertex 131.817 20.5147 2
      vertex 131.5 17.5 2
    endloop
  endfacet
  facet normal 0.86612 -0.499837 0
    outer loop
      vertex 132.754 23.3977 15
      vertex 134.269 26.0229 2
      vertex 134.269 26.0229 15
    endloop
  endfacet
  facet normal 0.86612 -0.499837 0
    outer loop
      vertex 134.269 26.0229 2
      vertex 132.754 23.3977 15
      vertex 132.754 23.3977 2
    endloop
  endfacet
  facet normal 1 -0 0
    outer loop
      vertex 170 0 15
      vertex 170 35 0
      vertex 170 35 15
    endloop
  endfacet
  facet normal 1 0 0
    outer loop
      vertex 170 35 0
      vertex 170 0 15
      vertex 170 0 0
    endloop
  endfacet
  facet normal 0 0 -1
    outer loop
      vertex 0 0 0
      vertex 170 35 0
      vertex 170 0 0
    endloop
  endfacet
  facet normal -0 0 -1
    outer loop
      vertex 170 35 0
      vertex 0 0 0
      vertex 0 35 0
    endloop
  endfacet
  facet normal -1 0 0
    outer loop
      vertex 0 0 0
      vertex 0 35 15
      vertex 0 35 0
    endloop
  endfacet
  facet normal -1 -0 0
    outer loop
      vertex 0 35 15
      vertex 0 0 0
      vertex 0 0 15
    endloop
  endfacet
  facet normal 0 1 -0
    outer loop
      vertex 170 35 0
      vertex 0 35 15
      vertex 170 35 15
    endloop
  endfacet
  facet normal 0 1 0
    outer loop
      vertex 0 35 15
      vertex 170 35 0
      vertex 0 35 0
    endloop
  endfacet
  facet normal 0 -1 0
    outer loop
      vertex 0 0 0
      vertex 170 0 15
      vertex 0 0 15
    endloop
  endfacet
  facet normal 0 -1 -0
    outer loop
      vertex 170 0 15
      vertex 0 0 0
      vertex 170 0 0
    endloop
  endfacet
endsolid OpenSCAD_Model
