solid OpenSCAD_Model
  facet normal -0.848395 0.432269 0.305566
    outer loop
      vertex -1.69479 0.550672 0.907981
      vertex -1.44168 1.04744 0.907981
      vertex -1.59811 1.1611 0.312868
    endloop
  endfacet
  facet normal 0.368855 -0.723897 -0.583026
    outer loop
      vertex 0.437016 -1.345 -1.41421
      vertex 0.831253 -1.14412 -1.41421
      vertex 1.04744 -1.44168 -0.907981
    endloop
  endfacet
  facet normal 0.585258 -0.092687 -0.805532
    outer loop
      vertex 0.907981 0 -1.78201
      vertex 1.41421 0 -1.41421
      vertex 1.345 -0.437016 -1.41421
    endloop
  endfacet
  facet normal -0.269018 0.527961 0.805535
    outer loop
      vertex -0.831253 1.14412 1.41421
      vertex -0.280581 0.863541 1.78201
      vertex -0.437016 1.345 1.41421
    endloop
  endfacet
  facet normal -0.673286 -0.673286 -0.305569
    outer loop
      vertex -1.04744 -1.44168 -0.907981
      vertex -1.59811 -1.1611 -0.312868
      vertex -1.44168 -1.04744 -0.907981
    endloop
  endfacet
  facet normal -0.673286 -0.673286 -0.305569
    outer loop
      vertex -1.59811 -1.1611 -0.312868
      vertex -1.04744 -1.44168 -0.907981
      vertex -1.1611 -1.59811 -0.312868
    endloop
  endfacet
  facet normal -0.308657 0.0488868 0.949916
    outer loop
      vertex -0.907981 0 1.78201
      vertex -0.297556 0.0966816 1.97538
      vertex -0.863541 0.280581 1.78201
    endloop
  endfacet
  facet normal 0.092687 0.585258 0.805532
    outer loop
      vertex 0 0.907981 1.78201
      vertex 0.437016 1.345 1.41421
      vertex 0 1.41421 1.41421
    endloop
  endfacet
  facet normal 0.80246 0.1271 0.583013
    outer loop
      vertex 1.345 0.437016 1.41421
      vertex 1.78201 0 0.907981
      vertex 1.69479 0.550672 0.907981
    endloop
  endfacet
  facet normal 0.278443 -0.141875 -0.949916
    outer loop
      vertex 0.297556 -0.0966816 -1.97538
      vertex 0.863541 -0.280581 -1.78201
      vertex 0.734571 -0.533697 -1.78201
    endloop
  endfacet
  facet normal -0.848392 -0.432272 -0.305569
    outer loop
      vertex -1.87869 -0.610424 -0.312868
      vertex -1.69479 -0.550672 -0.907981
      vertex -1.59811 -1.1611 -0.312868
    endloop
  endfacet
  facet normal 0.308657 0.0488868 0.949916
    outer loop
      vertex 0.297556 0.0966816 1.97538
      vertex 0.907981 0 1.78201
      vertex 0.863541 0.280581 1.78201
    endloop
  endfacet
  facet normal -0.148956 -0.940446 0.30557
    outer loop
      vertex -0.610424 -1.87869 0.312868
      vertex 0 -1.78201 0.907981
      vertex -0.550672 -1.69479 0.907981
    endloop
  endfacet
  facet normal 0.1271 0.80246 -0.583013
    outer loop
      vertex 0 1.78201 -0.907981
      vertex 0.550672 1.69479 -0.907981
      vertex 0.437016 1.345 -1.41421
    endloop
  endfacet
  facet normal 0.092687 0.585258 -0.805532
    outer loop
      vertex 0 0.907981 -1.78201
      vertex 0 1.41421 -1.41421
      vertex 0.437016 1.345 -1.41421
    endloop
  endfacet
  facet normal 0.368843 -0.723913 -0.583014
    outer loop
      vertex 0.437016 -1.345 -1.41421
      vertex 1.04744 -1.44168 -0.907981
      vertex 0.550672 -1.69479 -0.907981
    endloop
  endfacet
  facet normal -0.156448 0.987686 0
    outer loop
      vertex 0 1.97538 -0.312868
      vertex -0.610424 1.87869 0.312868
      vertex 0 1.97538 0.312868
    endloop
  endfacet
  facet normal -0.156448 0.987686 0
    outer loop
      vertex -0.610424 1.87869 0.312868
      vertex 0 1.97538 -0.312868
      vertex -0.610424 1.87869 -0.312868
    endloop
  endfacet
  facet normal -0.940446 -0.148956 0.30557
    outer loop
      vertex -1.87869 -0.610424 0.312868
      vertex -1.69479 -0.550672 0.907981
      vertex -1.78201 0 0.907981
    endloop
  endfacet
  facet normal -0.802455 -0.127084 -0.583023
    outer loop
      vertex -1.78201 0 -0.907981
      vertex -1.41421 0 -1.41421
      vertex -1.345 -0.437016 -1.41421
    endloop
  endfacet
  facet normal -0.0926956 0.585252 0.805535
    outer loop
      vertex -0.437016 1.345 1.41421
      vertex -0.280581 0.863541 1.78201
      vertex 0 0.907981 1.78201
    endloop
  endfacet
  facet normal 0.269014 0.527966 0.805533
    outer loop
      vertex 0.280581 0.863541 1.78201
      vertex 0.533697 0.734571 1.78201
      vertex 0.831253 1.14412 1.41421
    endloop
  endfacet
  facet normal -0.141875 0.278443 0.949916
    outer loop
      vertex -0.533697 0.734571 1.78201
      vertex -0.183899 0.253116 1.97538
      vertex -0.0966816 0.297556 1.97538
    endloop
  endfacet
  facet normal 0.418997 0.418997 0.805533
    outer loop
      vertex 0.831253 1.14412 1.41421
      vertex 0.734571 0.533697 1.78201
      vertex 1.14412 0.831253 1.41421
    endloop
  endfacet
  facet normal 0.418997 0.418997 0.805533
    outer loop
      vertex 0.734571 0.533697 1.78201
      vertex 0.831253 1.14412 1.41421
      vertex 0.533697 0.734571 1.78201
    endloop
  endfacet
  facet normal -0.848392 0.432272 0.305569
    outer loop
      vertex -1.87869 0.610424 0.312868
      vertex -1.69479 0.550672 0.907981
      vertex -1.59811 1.1611 0.312868
    endloop
  endfacet
  facet normal -0.585252 -0.0926956 0.805535
    outer loop
      vertex -1.345 -0.437016 1.41421
      vertex -0.863541 -0.280581 1.78201
      vertex -0.907981 0 1.78201
    endloop
  endfacet
  facet normal 0.585258 -0.092687 0.805532
    outer loop
      vertex 0.907981 0 1.78201
      vertex 1.345 -0.437016 1.41421
      vertex 1.41421 0 1.41421
    endloop
  endfacet
  facet normal 0.0488868 0.308657 0.949916
    outer loop
      vertex 0 0.907981 1.78201
      vertex 0.0966816 0.297556 1.97538
      vertex 0.280581 0.863541 1.78201
    endloop
  endfacet
  facet normal 0.308656 0.0488836 0.949917
    outer loop
      vertex 0.297556 0.0966816 1.97538
      vertex 0.312868 0 1.97538
      vertex 0.907981 0 1.78201
    endloop
  endfacet
  facet normal 0.432269 0.848395 0.305566
    outer loop
      vertex 0.550672 1.69479 0.907981
      vertex 1.04744 1.44168 0.907981
      vertex 1.1611 1.59811 0.312868
    endloop
  endfacet
  facet normal 0.848392 -0.432272 0.305569
    outer loop
      vertex 1.59811 -1.1611 0.312868
      vertex 1.87869 -0.610424 0.312868
      vertex 1.69479 -0.550672 0.907981
    endloop
  endfacet
  facet normal 0.802455 0.127084 0.583023
    outer loop
      vertex 1.345 0.437016 1.41421
      vertex 1.41421 0 1.41421
      vertex 1.78201 0 0.907981
    endloop
  endfacet
  facet normal 0.148964 0.940442 0.305578
    outer loop
      vertex 0 1.78201 0.907981
      vertex 0.610424 1.87869 0.312868
      vertex 0 1.97538 0.312868
    endloop
  endfacet
  facet normal -0.308657 0.0488868 -0.949916
    outer loop
      vertex -0.907981 0 -1.78201
      vertex -0.863541 0.280581 -1.78201
      vertex -0.297556 0.0966816 -1.97538
    endloop
  endfacet
  facet normal -0.987686 0.156448 0
    outer loop
      vertex -1.97538 0 -0.312868
      vertex -1.87869 0.610424 0.312868
      vertex -1.87869 0.610424 -0.312868
    endloop
  endfacet
  facet normal -0.987686 0.156448 0
    outer loop
      vertex -1.87869 0.610424 0.312868
      vertex -1.97538 0 -0.312868
      vertex -1.97538 0 0.312868
    endloop
  endfacet
  facet normal 0.432272 0.848392 -0.305569
    outer loop
      vertex 0.550672 1.69479 -0.907981
      vertex 0.610424 1.87869 -0.312868
      vertex 1.1611 1.59811 -0.312868
    endloop
  endfacet
  facet normal -0.148964 -0.940442 0.305578
    outer loop
      vertex -0.610424 -1.87869 0.312868
      vertex 0 -1.97538 0.312868
      vertex 0 -1.78201 0.907981
    endloop
  endfacet
  facet normal -0.723897 -0.368855 0.583026
    outer loop
      vertex -1.44168 -1.04744 0.907981
      vertex -1.14412 -0.831253 1.41421
      vertex -1.345 -0.437016 1.41421
    endloop
  endfacet
  facet normal 0.673286 -0.673286 0.305569
    outer loop
      vertex 1.04744 -1.44168 0.907981
      vertex 1.59811 -1.1611 0.312868
      vertex 1.44168 -1.04744 0.907981
    endloop
  endfacet
  facet normal 0.673286 -0.673286 0.305569
    outer loop
      vertex 1.59811 -1.1611 0.312868
      vertex 1.04744 -1.44168 0.907981
      vertex 1.1611 -1.59811 0.312868
    endloop
  endfacet
  facet normal -0.269018 -0.527961 -0.805535
    outer loop
      vertex -0.831253 -1.14412 -1.41421
      vertex -0.280581 -0.863541 -1.78201
      vertex -0.437016 -1.345 -1.41421
    endloop
  endfacet
  facet normal -0.368855 -0.723897 0.583026
    outer loop
      vertex -1.04744 -1.44168 0.907981
      vertex -0.437016 -1.345 1.41421
      vertex -0.831253 -1.14412 1.41421
    endloop
  endfacet
  facet normal 0.848392 -0.432272 -0.305569
    outer loop
      vertex 1.59811 -1.1611 -0.312868
      vertex 1.69479 -0.550672 -0.907981
      vertex 1.87869 -0.610424 -0.312868
    endloop
  endfacet
  facet normal 0.527966 0.269014 -0.805533
    outer loop
      vertex 0.734571 0.533697 -1.78201
      vertex 1.14412 0.831253 -1.41421
      vertex 0.863541 0.280581 -1.78201
    endloop
  endfacet
  facet normal -0.0488868 -0.308657 -0.949916
    outer loop
      vertex -0.280581 -0.863541 -1.78201
      vertex -0.0966816 -0.297556 -1.97538
      vertex 0 -0.907981 -1.78201
    endloop
  endfacet
  facet normal 0.585258 0.092687 -0.805532
    outer loop
      vertex 0.907981 0 -1.78201
      vertex 1.345 0.437016 -1.41421
      vertex 1.41421 0 -1.41421
    endloop
  endfacet
  facet normal 0.308656 -0.0488836 -0.949917
    outer loop
      vertex 0.297556 -0.0966816 -1.97538
      vertex 0.312868 0 -1.97538
      vertex 0.907981 0 -1.78201
    endloop
  endfacet
  facet normal -0.0926956 0.585252 -0.805535
    outer loop
      vertex -0.437016 1.345 -1.41421
      vertex 0 0.907981 -1.78201
      vertex -0.280581 0.863541 -1.78201
    endloop
  endfacet
  facet normal 0.802455 0.127084 -0.583023
    outer loop
      vertex 1.345 0.437016 -1.41421
      vertex 1.78201 0 -0.907981
      vertex 1.41421 0 -1.41421
    endloop
  endfacet
  facet normal 0.269018 0.527961 -0.805535
    outer loop
      vertex 0.280581 0.863541 -1.78201
      vertex 0.437016 1.345 -1.41421
      vertex 0.831253 1.14412 -1.41421
    endloop
  endfacet
  facet normal -0.432272 0.848392 0.305569
    outer loop
      vertex -1.1611 1.59811 0.312868
      vertex -0.550672 1.69479 0.907981
      vertex -0.610424 1.87869 0.312868
    endloop
  endfacet
  facet normal 0.940446 0.148956 0.30557
    outer loop
      vertex 1.69479 0.550672 0.907981
      vertex 1.78201 0 0.907981
      vertex 1.87869 0.610424 0.312868
    endloop
  endfacet
  facet normal 0.585252 0.0926956 0.805535
    outer loop
      vertex 0.863541 0.280581 1.78201
      vertex 0.907981 0 1.78201
      vertex 1.345 0.437016 1.41421
    endloop
  endfacet
  facet normal 0.141875 0.278443 0.949916
    outer loop
      vertex 0.0966816 0.297556 1.97538
      vertex 0.533697 0.734571 1.78201
      vertex 0.280581 0.863541 1.78201
    endloop
  endfacet
  facet normal 0.940446 0.148956 -0.30557
    outer loop
      vertex 1.69479 0.550672 -0.907981
      vertex 1.87869 0.610424 -0.312868
      vertex 1.78201 0 -0.907981
    endloop
  endfacet
  facet normal 0.723913 0.368843 0.583014
    outer loop
      vertex 1.345 0.437016 1.41421
      vertex 1.69479 0.550672 0.907981
      vertex 1.44168 1.04744 0.907981
    endloop
  endfacet
  facet normal 0.527961 0.269018 0.805535
    outer loop
      vertex 0.863541 0.280581 1.78201
      vertex 1.345 0.437016 1.41421
      vertex 1.14412 0.831253 1.41421
    endloop
  endfacet
  facet normal -0.940442 -0.148964 -0.305578
    outer loop
      vertex -1.97538 0 -0.312868
      vertex -1.78201 0 -0.907981
      vertex -1.87869 -0.610424 -0.312868
    endloop
  endfacet
  facet normal -0.585252 0.0926956 0.805535
    outer loop
      vertex -1.345 0.437016 1.41421
      vertex -0.907981 0 1.78201
      vertex -0.863541 0.280581 1.78201
    endloop
  endfacet
  facet normal -0.723897 0.368855 -0.583026
    outer loop
      vertex -1.44168 1.04744 -0.907981
      vertex -1.14412 0.831253 -1.41421
      vertex -1.345 0.437016 -1.41421
    endloop
  endfacet
  facet normal -0.574492 0.574492 0.583024
    outer loop
      vertex -1.04744 1.44168 0.907981
      vertex -1.14412 0.831253 1.41421
      vertex -0.831253 1.14412 1.41421
    endloop
  endfacet
  facet normal -0.574492 0.574492 0.583024
    outer loop
      vertex -1.14412 0.831253 1.41421
      vertex -1.04744 1.44168 0.907981
      vertex -1.44168 1.04744 0.907981
    endloop
  endfacet
  facet normal -0.940446 0.148956 0.30557
    outer loop
      vertex -1.87869 0.610424 0.312868
      vertex -1.78201 0 0.907981
      vertex -1.69479 0.550672 0.907981
    endloop
  endfacet
  facet normal -0.432272 0.848392 -0.305569
    outer loop
      vertex -1.1611 1.59811 -0.312868
      vertex -0.610424 1.87869 -0.312868
      vertex -0.550672 1.69479 -0.907981
    endloop
  endfacet
  facet normal -0.308656 -0.0488836 0.949917
    outer loop
      vertex -0.907981 0 1.78201
      vertex -0.297556 -0.0966816 1.97538
      vertex -0.312868 0 1.97538
    endloop
  endfacet
  facet normal -0.723913 -0.368843 0.583014
    outer loop
      vertex -1.69479 -0.550672 0.907981
      vertex -1.44168 -1.04744 0.907981
      vertex -1.345 -0.437016 1.41421
    endloop
  endfacet
  facet normal -0.673286 -0.673286 0.305569
    outer loop
      vertex -1.59811 -1.1611 0.312868
      vertex -1.04744 -1.44168 0.907981
      vertex -1.44168 -1.04744 0.907981
    endloop
  endfacet
  facet normal -0.673286 -0.673286 0.305569
    outer loop
      vertex -1.04744 -1.44168 0.907981
      vertex -1.59811 -1.1611 0.312868
      vertex -1.1611 -1.59811 0.312868
    endloop
  endfacet
  facet normal 0.707107 0.707107 0
    outer loop
      vertex 1.59811 1.1611 0.312868
      vertex 1.1611 1.59811 -0.312868
      vertex 1.1611 1.59811 0.312868
    endloop
  endfacet
  facet normal 0.707107 0.707107 0
    outer loop
      vertex 1.1611 1.59811 -0.312868
      vertex 1.59811 1.1611 0.312868
      vertex 1.59811 1.1611 -0.312868
    endloop
  endfacet
  facet normal 0.987686 -0.156448 0
    outer loop
      vertex 1.87869 -0.610424 0.312868
      vertex 1.97538 0 -0.312868
      vertex 1.97538 0 0.312868
    endloop
  endfacet
  facet normal 0.987686 -0.156448 0
    outer loop
      vertex 1.97538 0 -0.312868
      vertex 1.87869 -0.610424 0.312868
      vertex 1.87869 -0.610424 -0.312868
    endloop
  endfacet
  facet normal 0.723913 -0.368843 0.583014
    outer loop
      vertex 1.345 -0.437016 1.41421
      vertex 1.44168 -1.04744 0.907981
      vertex 1.69479 -0.550672 0.907981
    endloop
  endfacet
  facet normal 0.940442 -0.148964 0.305578
    outer loop
      vertex 1.78201 0 0.907981
      vertex 1.87869 -0.610424 0.312868
      vertex 1.97538 0 0.312868
    endloop
  endfacet
  facet normal 0.432272 -0.848392 -0.305569
    outer loop
      vertex 0.550672 -1.69479 -0.907981
      vertex 1.1611 -1.59811 -0.312868
      vertex 0.610424 -1.87869 -0.312868
    endloop
  endfacet
  facet normal 0.848395 -0.432269 -0.305566
    outer loop
      vertex 1.44168 -1.04744 -0.907981
      vertex 1.69479 -0.550672 -0.907981
      vertex 1.59811 -1.1611 -0.312868
    endloop
  endfacet
  facet normal 0.891009 -0.453986 0
    outer loop
      vertex 1.59811 -1.1611 0.312868
      vertex 1.87869 -0.610424 -0.312868
      vertex 1.87869 -0.610424 0.312868
    endloop
  endfacet
  facet normal 0.891009 -0.453986 0
    outer loop
      vertex 1.87869 -0.610424 -0.312868
      vertex 1.59811 -1.1611 0.312868
      vertex 1.59811 -1.1611 -0.312868
    endloop
  endfacet
  facet normal 0.574492 -0.574492 -0.583024
    outer loop
      vertex 1.04744 -1.44168 -0.907981
      vertex 1.14412 -0.831253 -1.41421
      vertex 1.44168 -1.04744 -0.907981
    endloop
  endfacet
  facet normal 0.574492 -0.574492 -0.583024
    outer loop
      vertex 1.14412 -0.831253 -1.41421
      vertex 1.04744 -1.44168 -0.907981
      vertex 0.831253 -1.14412 -1.41421
    endloop
  endfacet
  facet normal -0.848395 -0.432269 -0.305566
    outer loop
      vertex -1.69479 -0.550672 -0.907981
      vertex -1.44168 -1.04744 -0.907981
      vertex -1.59811 -1.1611 -0.312868
    endloop
  endfacet
  facet normal -0.278443 0.141875 -0.949916
    outer loop
      vertex -0.863541 0.280581 -1.78201
      vertex -0.734571 0.533697 -1.78201
      vertex -0.297556 0.0966816 -1.97538
    endloop
  endfacet
  facet normal 0.141875 -0.278443 -0.949916
    outer loop
      vertex 0.0966816 -0.297556 -1.97538
      vertex 0.533697 -0.734571 -1.78201
      vertex 0.280581 -0.863541 -1.78201
    endloop
  endfacet
  facet normal -0.80246 0.1271 -0.583013
    outer loop
      vertex -1.78201 0 -0.907981
      vertex -1.69479 0.550672 -0.907981
      vertex -1.345 0.437016 -1.41421
    endloop
  endfacet
  facet normal 0.453986 0.891009 -0
    outer loop
      vertex 1.1611 1.59811 -0.312868
      vertex 0.610424 1.87869 0.312868
      vertex 1.1611 1.59811 0.312868
    endloop
  endfacet
  facet normal 0.453986 0.891009 0
    outer loop
      vertex 0.610424 1.87869 0.312868
      vertex 1.1611 1.59811 -0.312868
      vertex 0.610424 1.87869 -0.312868
    endloop
  endfacet
  facet normal 0.156448 0.987686 -0
    outer loop
      vertex 0.610424 1.87869 -0.312868
      vertex 0 1.97538 0.312868
      vertex 0.610424 1.87869 0.312868
    endloop
  endfacet
  facet normal 0.156448 0.987686 0
    outer loop
      vertex 0 1.97538 0.312868
      vertex 0.610424 1.87869 -0.312868
      vertex 0 1.97538 -0.312868
    endloop
  endfacet
  facet normal 0.127084 0.802455 0.583023
    outer loop
      vertex 0 1.41421 1.41421
      vertex 0.437016 1.345 1.41421
      vertex 0 1.78201 0.907981
    endloop
  endfacet
  facet normal -0.0488836 0.308656 0.949917
    outer loop
      vertex -0.0966816 0.297556 1.97538
      vertex 0 0.312868 1.97538
      vertex 0 0.907981 1.78201
    endloop
  endfacet
  facet normal 0.278443 0.141875 0.949916
    outer loop
      vertex 0.253116 0.183899 1.97538
      vertex 0.297556 0.0966816 1.97538
      vertex 0.734571 0.533697 1.78201
    endloop
  endfacet
  facet normal 0.585258 0.092687 0.805532
    outer loop
      vertex 0.907981 0 1.78201
      vertex 1.41421 0 1.41421
      vertex 1.345 0.437016 1.41421
    endloop
  endfacet
  facet normal 0.574492 0.574492 0.583024
    outer loop
      vertex 1.04744 1.44168 0.907981
      vertex 1.14412 0.831253 1.41421
      vertex 1.44168 1.04744 0.907981
    endloop
  endfacet
  facet normal 0.574492 0.574492 0.583024
    outer loop
      vertex 1.14412 0.831253 1.41421
      vertex 1.04744 1.44168 0.907981
      vertex 0.831253 1.14412 1.41421
    endloop
  endfacet
  facet normal -0.432272 -0.848392 0.305569
    outer loop
      vertex -1.1611 -1.59811 0.312868
      vertex -0.610424 -1.87869 0.312868
      vertex -0.550672 -1.69479 0.907981
    endloop
  endfacet
  facet normal -0.156448 -0.987686 0
    outer loop
      vertex -0.610424 -1.87869 -0.312868
      vertex 0 -1.97538 0.312868
      vertex -0.610424 -1.87869 0.312868
    endloop
  endfacet
  facet normal -0.156448 -0.987686 -0
    outer loop
      vertex 0 -1.97538 0.312868
      vertex -0.610424 -1.87869 -0.312868
      vertex 0 -1.97538 -0.312868
    endloop
  endfacet
  facet normal -0.891009 0.453986 0
    outer loop
      vertex -1.87869 0.610424 -0.312868
      vertex -1.59811 1.1611 0.312868
      vertex -1.59811 1.1611 -0.312868
    endloop
  endfacet
  facet normal -0.891009 0.453986 0
    outer loop
      vertex -1.59811 1.1611 0.312868
      vertex -1.87869 0.610424 -0.312868
      vertex -1.87869 0.610424 0.312868
    endloop
  endfacet
  facet normal -0.940442 0.148964 -0.305578
    outer loop
      vertex -1.97538 0 -0.312868
      vertex -1.87869 0.610424 -0.312868
      vertex -1.78201 0 -0.907981
    endloop
  endfacet
  facet normal -0.80246 -0.1271 0.583013
    outer loop
      vertex -1.78201 0 0.907981
      vertex -1.69479 -0.550672 0.907981
      vertex -1.345 -0.437016 1.41421
    endloop
  endfacet
  facet normal -0.368855 0.723897 0.583026
    outer loop
      vertex -1.04744 1.44168 0.907981
      vertex -0.831253 1.14412 1.41421
      vertex -0.437016 1.345 1.41421
    endloop
  endfacet
  facet normal -0.723913 0.368843 0.583014
    outer loop
      vertex -1.69479 0.550672 0.907981
      vertex -1.345 0.437016 1.41421
      vertex -1.44168 1.04744 0.907981
    endloop
  endfacet
  facet normal -0.673286 0.673286 0.305569
    outer loop
      vertex -1.59811 1.1611 0.312868
      vertex -1.04744 1.44168 0.907981
      vertex -1.1611 1.59811 0.312868
    endloop
  endfacet
  facet normal -0.673286 0.673286 0.305569
    outer loop
      vertex -1.04744 1.44168 0.907981
      vertex -1.59811 1.1611 0.312868
      vertex -1.44168 1.04744 0.907981
    endloop
  endfacet
  facet normal -0.148956 0.940446 0.30557
    outer loop
      vertex -0.610424 1.87869 0.312868
      vertex -0.550672 1.69479 0.907981
      vertex 0 1.78201 0.907981
    endloop
  endfacet
  facet normal -0.574492 0.574492 -0.583024
    outer loop
      vertex -1.14412 0.831253 -1.41421
      vertex -1.04744 1.44168 -0.907981
      vertex -0.831253 1.14412 -1.41421
    endloop
  endfacet
  facet normal -0.574492 0.574492 -0.583024
    outer loop
      vertex -1.04744 1.44168 -0.907981
      vertex -1.14412 0.831253 -1.41421
      vertex -1.44168 1.04744 -0.907981
    endloop
  endfacet
  facet normal -0.148964 0.940442 -0.305578
    outer loop
      vertex -0.610424 1.87869 -0.312868
      vertex 0 1.97538 -0.312868
      vertex 0 1.78201 -0.907981
    endloop
  endfacet
  facet normal -0.987686 -0.156448 0
    outer loop
      vertex -1.87869 -0.610424 -0.312868
      vertex -1.97538 0 0.312868
      vertex -1.97538 0 -0.312868
    endloop
  endfacet
  facet normal -0.987686 -0.156448 0
    outer loop
      vertex -1.97538 0 0.312868
      vertex -1.87869 -0.610424 -0.312868
      vertex -1.87869 -0.610424 0.312868
    endloop
  endfacet
  facet normal -0.848392 0.432272 -0.305569
    outer loop
      vertex -1.87869 0.610424 -0.312868
      vertex -1.59811 1.1611 -0.312868
      vertex -1.69479 0.550672 -0.907981
    endloop
  endfacet
  facet normal 0.432272 0.848392 0.305569
    outer loop
      vertex 0.550672 1.69479 0.907981
      vertex 1.1611 1.59811 0.312868
      vertex 0.610424 1.87869 0.312868
    endloop
  endfacet
  facet normal 0.848395 0.432269 0.305566
    outer loop
      vertex 1.44168 1.04744 0.907981
      vertex 1.69479 0.550672 0.907981
      vertex 1.59811 1.1611 0.312868
    endloop
  endfacet
  facet normal -0.723897 0.368855 0.583026
    outer loop
      vertex -1.44168 1.04744 0.907981
      vertex -1.345 0.437016 1.41421
      vertex -1.14412 0.831253 1.41421
    endloop
  endfacet
  facet normal -0.0488836 -0.308656 0.949917
    outer loop
      vertex -0.0966816 -0.297556 1.97538
      vertex 0 -0.907981 1.78201
      vertex 0 -0.312868 1.97538
    endloop
  endfacet
  facet normal -0.0488868 0.308657 0.949916
    outer loop
      vertex -0.280581 0.863541 1.78201
      vertex -0.0966816 0.297556 1.97538
      vertex 0 0.907981 1.78201
    endloop
  endfacet
  facet normal -0.220974 -0.220974 0.949916
    outer loop
      vertex -0.253116 -0.183899 1.97538
      vertex -0.533697 -0.734571 1.78201
      vertex -0.183899 -0.253116 1.97538
    endloop
  endfacet
  facet normal -0.220974 -0.220974 0.949916
    outer loop
      vertex -0.533697 -0.734571 1.78201
      vertex -0.253116 -0.183899 1.97538
      vertex -0.734571 -0.533697 1.78201
    endloop
  endfacet
  facet normal -0.0488868 -0.308657 0.949916
    outer loop
      vertex -0.280581 -0.863541 1.78201
      vertex 0 -0.907981 1.78201
      vertex -0.0966816 -0.297556 1.97538
    endloop
  endfacet
  facet normal -0.269014 -0.527966 0.805533
    outer loop
      vertex -0.831253 -1.14412 1.41421
      vertex -0.280581 -0.863541 1.78201
      vertex -0.533697 -0.734571 1.78201
    endloop
  endfacet
  facet normal -0.127084 -0.802455 0.583023
    outer loop
      vertex -0.437016 -1.345 1.41421
      vertex 0 -1.78201 0.907981
      vertex 0 -1.41421 1.41421
    endloop
  endfacet
  facet normal 0.269014 0.527966 -0.805533
    outer loop
      vertex 0.280581 0.863541 -1.78201
      vertex 0.831253 1.14412 -1.41421
      vertex 0.533697 0.734571 -1.78201
    endloop
  endfacet
  facet normal 0.368843 0.723913 -0.583014
    outer loop
      vertex 0.437016 1.345 -1.41421
      vertex 0.550672 1.69479 -0.907981
      vertex 1.04744 1.44168 -0.907981
    endloop
  endfacet
  facet normal 0.368855 0.723897 -0.583026
    outer loop
      vertex 0.437016 1.345 -1.41421
      vertex 1.04744 1.44168 -0.907981
      vertex 0.831253 1.14412 -1.41421
    endloop
  endfacet
  facet normal 0.723897 0.368855 -0.583026
    outer loop
      vertex 1.14412 0.831253 -1.41421
      vertex 1.44168 1.04744 -0.907981
      vertex 1.345 0.437016 -1.41421
    endloop
  endfacet
  facet normal 0.527961 0.269018 -0.805535
    outer loop
      vertex 0.863541 0.280581 -1.78201
      vertex 1.14412 0.831253 -1.41421
      vertex 1.345 0.437016 -1.41421
    endloop
  endfacet
  facet normal 0.723913 -0.368843 -0.583014
    outer loop
      vertex 1.345 -0.437016 -1.41421
      vertex 1.69479 -0.550672 -0.907981
      vertex 1.44168 -1.04744 -0.907981
    endloop
  endfacet
  facet normal 0.673286 0.673286 -0.305569
    outer loop
      vertex 1.59811 1.1611 -0.312868
      vertex 1.04744 1.44168 -0.907981
      vertex 1.1611 1.59811 -0.312868
    endloop
  endfacet
  facet normal 0.673286 0.673286 -0.305569
    outer loop
      vertex 1.04744 1.44168 -0.907981
      vertex 1.59811 1.1611 -0.312868
      vertex 1.44168 1.04744 -0.907981
    endloop
  endfacet
  facet normal 0.987686 0.156448 0
    outer loop
      vertex 1.97538 0 0.312868
      vertex 1.87869 0.610424 -0.312868
      vertex 1.87869 0.610424 0.312868
    endloop
  endfacet
  facet normal 0.987686 0.156448 0
    outer loop
      vertex 1.87869 0.610424 -0.312868
      vertex 1.97538 0 0.312868
      vertex 1.97538 0 -0.312868
    endloop
  endfacet
  facet normal 0.848395 -0.432269 0.305566
    outer loop
      vertex 1.44168 -1.04744 0.907981
      vertex 1.59811 -1.1611 0.312868
      vertex 1.69479 -0.550672 0.907981
    endloop
  endfacet
  facet normal 0.940446 -0.148956 0.30557
    outer loop
      vertex 1.69479 -0.550672 0.907981
      vertex 1.87869 -0.610424 0.312868
      vertex 1.78201 0 0.907981
    endloop
  endfacet
  facet normal 0.80246 -0.1271 0.583013
    outer loop
      vertex 1.345 -0.437016 1.41421
      vertex 1.69479 -0.550672 0.907981
      vertex 1.78201 0 0.907981
    endloop
  endfacet
  facet normal 0.802455 -0.127084 0.583023
    outer loop
      vertex 1.345 -0.437016 1.41421
      vertex 1.78201 0 0.907981
      vertex 1.41421 0 1.41421
    endloop
  endfacet
  facet normal 0.940442 -0.148964 -0.305578
    outer loop
      vertex 1.78201 0 -0.907981
      vertex 1.97538 0 -0.312868
      vertex 1.87869 -0.610424 -0.312868
    endloop
  endfacet
  facet normal 0.269014 -0.527966 0.805533
    outer loop
      vertex 0.280581 -0.863541 1.78201
      vertex 0.831253 -1.14412 1.41421
      vertex 0.533697 -0.734571 1.78201
    endloop
  endfacet
  facet normal 0.148956 -0.940446 0.30557
    outer loop
      vertex 0 -1.78201 0.907981
      vertex 0.610424 -1.87869 0.312868
      vertex 0.550672 -1.69479 0.907981
    endloop
  endfacet
  facet normal 0.092687 -0.585258 0.805532
    outer loop
      vertex 0 -1.41421 1.41421
      vertex 0.437016 -1.345 1.41421
      vertex 0 -0.907981 1.78201
    endloop
  endfacet
  facet normal 0.1271 -0.80246 0.583013
    outer loop
      vertex 0 -1.78201 0.907981
      vertex 0.550672 -1.69479 0.907981
      vertex 0.437016 -1.345 1.41421
    endloop
  endfacet
  facet normal 0.585252 -0.0926956 -0.805535
    outer loop
      vertex 0.863541 -0.280581 -1.78201
      vertex 0.907981 0 -1.78201
      vertex 1.345 -0.437016 -1.41421
    endloop
  endfacet
  facet normal 0.308657 -0.0488868 -0.949916
    outer loop
      vertex 0.297556 -0.0966816 -1.97538
      vertex 0.907981 0 -1.78201
      vertex 0.863541 -0.280581 -1.78201
    endloop
  endfacet
  facet normal 0.802455 -0.127084 -0.583023
    outer loop
      vertex 1.345 -0.437016 -1.41421
      vertex 1.41421 0 -1.41421
      vertex 1.78201 0 -0.907981
    endloop
  endfacet
  facet normal 0.80246 -0.1271 -0.583013
    outer loop
      vertex 1.345 -0.437016 -1.41421
      vertex 1.78201 0 -0.907981
      vertex 1.69479 -0.550672 -0.907981
    endloop
  endfacet
  facet normal -0.0488836 0.308656 -0.949917
    outer loop
      vertex -0.0966816 0.297556 -1.97538
      vertex 0 0.907981 -1.78201
      vertex 0 0.312868 -1.97538
    endloop
  endfacet
  facet normal 0.269014 -0.527966 -0.805533
    outer loop
      vertex 0.280581 -0.863541 -1.78201
      vertex 0.533697 -0.734571 -1.78201
      vertex 0.831253 -1.14412 -1.41421
    endloop
  endfacet
  facet normal 0.432269 -0.848395 -0.305566
    outer loop
      vertex 0.550672 -1.69479 -0.907981
      vertex 1.04744 -1.44168 -0.907981
      vertex 1.1611 -1.59811 -0.312868
    endloop
  endfacet
  facet normal 0.1271 -0.80246 -0.583013
    outer loop
      vertex 0 -1.78201 -0.907981
      vertex 0.437016 -1.345 -1.41421
      vertex 0.550672 -1.69479 -0.907981
    endloop
  endfacet
  facet normal -0.148964 -0.940442 -0.305578
    outer loop
      vertex -0.610424 -1.87869 -0.312868
      vertex 0 -1.78201 -0.907981
      vertex 0 -1.97538 -0.312868
    endloop
  endfacet
  facet normal -0.148956 -0.940446 -0.30557
    outer loop
      vertex -0.610424 -1.87869 -0.312868
      vertex -0.550672 -1.69479 -0.907981
      vertex 0 -1.78201 -0.907981
    endloop
  endfacet
  facet normal -0.368843 0.723913 -0.583014
    outer loop
      vertex -1.04744 1.44168 -0.907981
      vertex -0.550672 1.69479 -0.907981
      vertex -0.437016 1.345 -1.41421
    endloop
  endfacet
  facet normal -0.418997 0.418997 -0.805533
    outer loop
      vertex -0.734571 0.533697 -1.78201
      vertex -0.831253 1.14412 -1.41421
      vertex -0.533697 0.734571 -1.78201
    endloop
  endfacet
  facet normal -0.418997 0.418997 -0.805533
    outer loop
      vertex -0.831253 1.14412 -1.41421
      vertex -0.734571 0.533697 -1.78201
      vertex -1.14412 0.831253 -1.41421
    endloop
  endfacet
  facet normal 0.432269 0.848395 -0.305566
    outer loop
      vertex 0.550672 1.69479 -0.907981
      vertex 1.1611 1.59811 -0.312868
      vertex 1.04744 1.44168 -0.907981
    endloop
  endfacet
  facet normal 0.891009 0.453986 0
    outer loop
      vertex 1.87869 0.610424 0.312868
      vertex 1.59811 1.1611 -0.312868
      vertex 1.59811 1.1611 0.312868
    endloop
  endfacet
  facet normal 0.891009 0.453986 0
    outer loop
      vertex 1.59811 1.1611 -0.312868
      vertex 1.87869 0.610424 0.312868
      vertex 1.87869 0.610424 -0.312868
    endloop
  endfacet
  facet normal 0.1271 0.80246 0.583013
    outer loop
      vertex 0 1.78201 0.907981
      vertex 0.437016 1.345 1.41421
      vertex 0.550672 1.69479 0.907981
    endloop
  endfacet
  facet normal 0.368843 0.723913 0.583014
    outer loop
      vertex 0.437016 1.345 1.41421
      vertex 1.04744 1.44168 0.907981
      vertex 0.550672 1.69479 0.907981
    endloop
  endfacet
  facet normal 0.527966 0.269014 0.805533
    outer loop
      vertex 0.734571 0.533697 1.78201
      vertex 0.863541 0.280581 1.78201
      vertex 1.14412 0.831253 1.41421
    endloop
  endfacet
  facet normal 0.278443 0.141875 0.949916
    outer loop
      vertex 0.297556 0.0966816 1.97538
      vertex 0.863541 0.280581 1.78201
      vertex 0.734571 0.533697 1.78201
    endloop
  endfacet
  facet normal 0.368855 0.723897 0.583026
    outer loop
      vertex 0.437016 1.345 1.41421
      vertex 0.831253 1.14412 1.41421
      vertex 1.04744 1.44168 0.907981
    endloop
  endfacet
  facet normal 0.220974 0.220974 0.949916
    outer loop
      vertex 0.533697 0.734571 1.78201
      vertex 0.253116 0.183899 1.97538
      vertex 0.734571 0.533697 1.78201
    endloop
  endfacet
  facet normal 0.220974 0.220974 0.949916
    outer loop
      vertex 0.253116 0.183899 1.97538
      vertex 0.533697 0.734571 1.78201
      vertex 0.183899 0.253116 1.97538
    endloop
  endfacet
  facet normal -0.141875 -0.278443 0.949916
    outer loop
      vertex -0.533697 -0.734571 1.78201
      vertex -0.280581 -0.863541 1.78201
      vertex -0.0966816 -0.297556 1.97538
    endloop
  endfacet
  facet normal -0.707107 -0.707107 0
    outer loop
      vertex -1.1611 -1.59811 -0.312868
      vertex -1.59811 -1.1611 0.312868
      vertex -1.59811 -1.1611 -0.312868
    endloop
  endfacet
  facet normal -0.707107 -0.707107 0
    outer loop
      vertex -1.59811 -1.1611 0.312868
      vertex -1.1611 -1.59811 -0.312868
      vertex -1.1611 -1.59811 0.312868
    endloop
  endfacet
  facet normal -0.940442 0.148964 0.305578
    outer loop
      vertex -1.97538 0 0.312868
      vertex -1.78201 0 0.907981
      vertex -1.87869 0.610424 0.312868
    endloop
  endfacet
  facet normal -0.940442 -0.148964 0.305578
    outer loop
      vertex -1.97538 0 0.312868
      vertex -1.87869 -0.610424 0.312868
      vertex -1.78201 0 0.907981
    endloop
  endfacet
  facet normal -0.80246 0.1271 0.583013
    outer loop
      vertex -1.78201 0 0.907981
      vertex -1.345 0.437016 1.41421
      vertex -1.69479 0.550672 0.907981
    endloop
  endfacet
  facet normal -0.278443 0.141875 0.949916
    outer loop
      vertex -0.863541 0.280581 1.78201
      vertex -0.297556 0.0966816 1.97538
      vertex -0.734571 0.533697 1.78201
    endloop
  endfacet
  facet normal -0.127084 0.802455 0.583023
    outer loop
      vertex -0.437016 1.345 1.41421
      vertex 0 1.41421 1.41421
      vertex 0 1.78201 0.907981
    endloop
  endfacet
  facet normal -0.092687 0.585258 0.805532
    outer loop
      vertex -0.437016 1.345 1.41421
      vertex 0 0.907981 1.78201
      vertex 0 1.41421 1.41421
    endloop
  endfacet
  facet normal -0.453986 0.891009 0
    outer loop
      vertex -0.610424 1.87869 -0.312868
      vertex -1.1611 1.59811 0.312868
      vertex -0.610424 1.87869 0.312868
    endloop
  endfacet
  facet normal -0.453986 0.891009 0
    outer loop
      vertex -1.1611 1.59811 0.312868
      vertex -0.610424 1.87869 -0.312868
      vertex -1.1611 1.59811 -0.312868
    endloop
  endfacet
  facet normal -0.368843 0.723913 0.583014
    outer loop
      vertex -1.04744 1.44168 0.907981
      vertex -0.437016 1.345 1.41421
      vertex -0.550672 1.69479 0.907981
    endloop
  endfacet
  facet normal -0.1271 0.80246 0.583013
    outer loop
      vertex -0.550672 1.69479 0.907981
      vertex -0.437016 1.345 1.41421
      vertex 0 1.78201 0.907981
    endloop
  endfacet
  facet normal -0.269018 0.527961 -0.805535
    outer loop
      vertex -0.831253 1.14412 -1.41421
      vertex -0.437016 1.345 -1.41421
      vertex -0.280581 0.863541 -1.78201
    endloop
  endfacet
  facet normal -0.148956 0.940446 -0.30557
    outer loop
      vertex -0.610424 1.87869 -0.312868
      vertex 0 1.78201 -0.907981
      vertex -0.550672 1.69479 -0.907981
    endloop
  endfacet
  facet normal -0.527966 0.269014 -0.805533
    outer loop
      vertex -1.14412 0.831253 -1.41421
      vertex -0.734571 0.533697 -1.78201
      vertex -0.863541 0.280581 -1.78201
    endloop
  endfacet
  facet normal -0.432269 0.848395 0.305566
    outer loop
      vertex -1.1611 1.59811 0.312868
      vertex -1.04744 1.44168 0.907981
      vertex -0.550672 1.69479 0.907981
    endloop
  endfacet
  facet normal -0.723897 -0.368855 -0.583026
    outer loop
      vertex -1.44168 -1.04744 -0.907981
      vertex -1.345 -0.437016 -1.41421
      vertex -1.14412 -0.831253 -1.41421
    endloop
  endfacet
  facet normal -0.574492 -0.574492 -0.583024
    outer loop
      vertex -1.04744 -1.44168 -0.907981
      vertex -1.14412 -0.831253 -1.41421
      vertex -0.831253 -1.14412 -1.41421
    endloop
  endfacet
  facet normal -0.574492 -0.574492 -0.583024
    outer loop
      vertex -1.14412 -0.831253 -1.41421
      vertex -1.04744 -1.44168 -0.907981
      vertex -1.44168 -1.04744 -0.907981
    endloop
  endfacet
  facet normal -0.723913 0.368843 -0.583014
    outer loop
      vertex -1.69479 0.550672 -0.907981
      vertex -1.44168 1.04744 -0.907981
      vertex -1.345 0.437016 -1.41421
    endloop
  endfacet
  facet normal -0.940446 0.148956 -0.30557
    outer loop
      vertex -1.87869 0.610424 -0.312868
      vertex -1.69479 0.550672 -0.907981
      vertex -1.78201 0 -0.907981
    endloop
  endfacet
  facet normal -0.848395 0.432269 -0.305566
    outer loop
      vertex -1.69479 0.550672 -0.907981
      vertex -1.59811 1.1611 -0.312868
      vertex -1.44168 1.04744 -0.907981
    endloop
  endfacet
  facet normal 0.0488836 0.308656 0.949917
    outer loop
      vertex 0 0.312868 1.97538
      vertex 0.0966816 0.297556 1.97538
      vertex 0 0.907981 1.78201
    endloop
  endfacet
  facet normal 0.0488836 -0.308656 0.949917
    outer loop
      vertex 0 -0.907981 1.78201
      vertex 0.0966816 -0.297556 1.97538
      vertex 0 -0.312868 1.97538
    endloop
  endfacet
  facet normal 0.527961 -0.269018 0.805535
    outer loop
      vertex 0.863541 -0.280581 1.78201
      vertex 1.14412 -0.831253 1.41421
      vertex 1.345 -0.437016 1.41421
    endloop
  endfacet
  facet normal 0.127084 -0.802455 0.583023
    outer loop
      vertex 0 -1.78201 0.907981
      vertex 0.437016 -1.345 1.41421
      vertex 0 -1.41421 1.41421
    endloop
  endfacet
  facet normal 0.527966 -0.269014 0.805533
    outer loop
      vertex 0.734571 -0.533697 1.78201
      vertex 1.14412 -0.831253 1.41421
      vertex 0.863541 -0.280581 1.78201
    endloop
  endfacet
  facet normal -0.527966 -0.269014 0.805533
    outer loop
      vertex -1.14412 -0.831253 1.41421
      vertex -0.734571 -0.533697 1.78201
      vertex -0.863541 -0.280581 1.78201
    endloop
  endfacet
  facet normal -0.527961 -0.269018 0.805535
    outer loop
      vertex -1.345 -0.437016 1.41421
      vertex -1.14412 -0.831253 1.41421
      vertex -0.863541 -0.280581 1.78201
    endloop
  endfacet
  facet normal -0.1271 -0.80246 0.583013
    outer loop
      vertex -0.550672 -1.69479 0.907981
      vertex 0 -1.78201 0.907981
      vertex -0.437016 -1.345 1.41421
    endloop
  endfacet
  facet normal -0.418997 -0.418997 0.805533
    outer loop
      vertex -0.734571 -0.533697 1.78201
      vertex -0.831253 -1.14412 1.41421
      vertex -0.533697 -0.734571 1.78201
    endloop
  endfacet
  facet normal -0.418997 -0.418997 0.805533
    outer loop
      vertex -0.831253 -1.14412 1.41421
      vertex -0.734571 -0.533697 1.78201
      vertex -1.14412 -0.831253 1.41421
    endloop
  endfacet
  facet normal 0.0926956 0.585252 -0.805535
    outer loop
      vertex 0 0.907981 -1.78201
      vertex 0.437016 1.345 -1.41421
      vertex 0.280581 0.863541 -1.78201
    endloop
  endfacet
  facet normal -0.278443 0.141875 -0.949916
    outer loop
      vertex -0.734571 0.533697 -1.78201
      vertex -0.253116 0.183899 -1.97538
      vertex -0.297556 0.0966816 -1.97538
    endloop
  endfacet
  facet normal 0.418997 0.418997 -0.805533
    outer loop
      vertex 0.734571 0.533697 -1.78201
      vertex 0.831253 1.14412 -1.41421
      vertex 1.14412 0.831253 -1.41421
    endloop
  endfacet
  facet normal 0.418997 0.418997 -0.805533
    outer loop
      vertex 0.831253 1.14412 -1.41421
      vertex 0.734571 0.533697 -1.78201
      vertex 0.533697 0.734571 -1.78201
    endloop
  endfacet
  facet normal -0.220974 -0.220974 -0.949916
    outer loop
      vertex -0.533697 -0.734571 -1.78201
      vertex -0.253116 -0.183899 -1.97538
      vertex -0.183899 -0.253116 -1.97538
    endloop
  endfacet
  facet normal -0.220974 -0.220974 -0.949916
    outer loop
      vertex -0.253116 -0.183899 -1.97538
      vertex -0.533697 -0.734571 -1.78201
      vertex -0.734571 -0.533697 -1.78201
    endloop
  endfacet
  facet normal 0.80246 0.1271 -0.583013
    outer loop
      vertex 1.345 0.437016 -1.41421
      vertex 1.69479 0.550672 -0.907981
      vertex 1.78201 0 -0.907981
    endloop
  endfacet
  facet normal 0.723913 0.368843 -0.583014
    outer loop
      vertex 1.345 0.437016 -1.41421
      vertex 1.44168 1.04744 -0.907981
      vertex 1.69479 0.550672 -0.907981
    endloop
  endfacet
  facet normal 0.574492 0.574492 -0.583024
    outer loop
      vertex 1.14412 0.831253 -1.41421
      vertex 1.04744 1.44168 -0.907981
      vertex 1.44168 1.04744 -0.907981
    endloop
  endfacet
  facet normal 0.574492 0.574492 -0.583024
    outer loop
      vertex 1.04744 1.44168 -0.907981
      vertex 1.14412 0.831253 -1.41421
      vertex 0.831253 1.14412 -1.41421
    endloop
  endfacet
  facet normal 0.940446 -0.148956 -0.30557
    outer loop
      vertex 1.69479 -0.550672 -0.907981
      vertex 1.78201 0 -0.907981
      vertex 1.87869 -0.610424 -0.312868
    endloop
  endfacet
  facet normal 0.940442 0.148964 -0.305578
    outer loop
      vertex 1.78201 0 -0.907981
      vertex 1.87869 0.610424 -0.312868
      vertex 1.97538 0 -0.312868
    endloop
  endfacet
  facet normal 0.848392 0.432272 -0.305569
    outer loop
      vertex 1.59811 1.1611 -0.312868
      vertex 1.87869 0.610424 -0.312868
      vertex 1.69479 0.550672 -0.907981
    endloop
  endfacet
  facet normal 0.848395 0.432269 -0.305566
    outer loop
      vertex 1.44168 1.04744 -0.907981
      vertex 1.59811 1.1611 -0.312868
      vertex 1.69479 0.550672 -0.907981
    endloop
  endfacet
  facet normal 0.940442 0.148964 0.305578
    outer loop
      vertex 1.78201 0 0.907981
      vertex 1.97538 0 0.312868
      vertex 1.87869 0.610424 0.312868
    endloop
  endfacet
  facet normal 0.308657 -0.0488868 0.949916
    outer loop
      vertex 0.297556 -0.0966816 1.97538
      vertex 0.863541 -0.280581 1.78201
      vertex 0.907981 0 1.78201
    endloop
  endfacet
  facet normal 0.673286 -0.673286 -0.305569
    outer loop
      vertex 1.59811 -1.1611 -0.312868
      vertex 1.04744 -1.44168 -0.907981
      vertex 1.44168 -1.04744 -0.907981
    endloop
  endfacet
  facet normal 0.673286 -0.673286 -0.305569
    outer loop
      vertex 1.04744 -1.44168 -0.907981
      vertex 1.59811 -1.1611 -0.312868
      vertex 1.1611 -1.59811 -0.312868
    endloop
  endfacet
  facet normal 0.418997 -0.418997 0.805533
    outer loop
      vertex 0.734571 -0.533697 1.78201
      vertex 0.831253 -1.14412 1.41421
      vertex 1.14412 -0.831253 1.41421
    endloop
  endfacet
  facet normal 0.418997 -0.418997 0.805533
    outer loop
      vertex 0.831253 -1.14412 1.41421
      vertex 0.734571 -0.533697 1.78201
      vertex 0.533697 -0.734571 1.78201
    endloop
  endfacet
  facet normal -0.0926956 -0.585252 0.805535
    outer loop
      vertex -0.437016 -1.345 1.41421
      vertex 0 -0.907981 1.78201
      vertex -0.280581 -0.863541 1.78201
    endloop
  endfacet
  facet normal 0.148964 -0.940442 0.305578
    outer loop
      vertex 0 -1.97538 0.312868
      vertex 0.610424 -1.87869 0.312868
      vertex 0 -1.78201 0.907981
    endloop
  endfacet
  facet normal 0.432272 -0.848392 0.305569
    outer loop
      vertex 0.550672 -1.69479 0.907981
      vertex 0.610424 -1.87869 0.312868
      vertex 1.1611 -1.59811 0.312868
    endloop
  endfacet
  facet normal 0.453986 -0.891009 0
    outer loop
      vertex 0.610424 -1.87869 -0.312868
      vertex 1.1611 -1.59811 0.312868
      vertex 0.610424 -1.87869 0.312868
    endloop
  endfacet
  facet normal 0.453986 -0.891009 0
    outer loop
      vertex 1.1611 -1.59811 0.312868
      vertex 0.610424 -1.87869 -0.312868
      vertex 1.1611 -1.59811 -0.312868
    endloop
  endfacet
  facet normal 0.585252 0.0926956 -0.805535
    outer loop
      vertex 0.863541 0.280581 -1.78201
      vertex 1.345 0.437016 -1.41421
      vertex 0.907981 0 -1.78201
    endloop
  endfacet
  facet normal 0 0 -1
    outer loop
      vertex 0.297556 -0.0966816 -1.97538
      vertex 0.297556 0.0966816 -1.97538
      vertex 0.312868 0 -1.97538
    endloop
  endfacet
  facet normal 0 0 -1
    outer loop
      vertex 0.253116 -0.183899 -1.97538
      vertex 0.297556 0.0966816 -1.97538
      vertex 0.297556 -0.0966816 -1.97538
    endloop
  endfacet
  facet normal 0 0 -1
    outer loop
      vertex 0.253116 -0.183899 -1.97538
      vertex 0.253116 0.183899 -1.97538
      vertex 0.297556 0.0966816 -1.97538
    endloop
  endfacet
  facet normal 0 0 -1
    outer loop
      vertex 0.183899 -0.253116 -1.97538
      vertex 0.253116 0.183899 -1.97538
      vertex 0.253116 -0.183899 -1.97538
    endloop
  endfacet
  facet normal 0 0 -1
    outer loop
      vertex 0.183899 -0.253116 -1.97538
      vertex 0.183899 0.253116 -1.97538
      vertex 0.253116 0.183899 -1.97538
    endloop
  endfacet
  facet normal 0 0 -1
    outer loop
      vertex 0.0966816 -0.297556 -1.97538
      vertex 0.183899 0.253116 -1.97538
      vertex 0.183899 -0.253116 -1.97538
    endloop
  endfacet
  facet normal 0 0 -1
    outer loop
      vertex 0.0966816 -0.297556 -1.97538
      vertex 0.0966816 0.297556 -1.97538
      vertex 0.183899 0.253116 -1.97538
    endloop
  endfacet
  facet normal 0 0 -1
    outer loop
      vertex 0 -0.312868 -1.97538
      vertex 0.0966816 0.297556 -1.97538
      vertex 0.0966816 -0.297556 -1.97538
    endloop
  endfacet
  facet normal 0 0 -1
    outer loop
      vertex 0 -0.312868 -1.97538
      vertex 0 0.312868 -1.97538
      vertex 0.0966816 0.297556 -1.97538
    endloop
  endfacet
  facet normal 0 0 -1
    outer loop
      vertex -0.0966816 -0.297556 -1.97538
      vertex 0 0.312868 -1.97538
      vertex 0 -0.312868 -1.97538
    endloop
  endfacet
  facet normal 0 0 -1
    outer loop
      vertex -0.0966816 -0.297556 -1.97538
      vertex -0.0966816 0.297556 -1.97538
      vertex 0 0.312868 -1.97538
    endloop
  endfacet
  facet normal 0 0 -1
    outer loop
      vertex -0.183899 -0.253116 -1.97538
      vertex -0.0966816 0.297556 -1.97538
      vertex -0.0966816 -0.297556 -1.97538
    endloop
  endfacet
  facet normal 0 0 -1
    outer loop
      vertex -0.183899 -0.253116 -1.97538
      vertex -0.183899 0.253116 -1.97538
      vertex -0.0966816 0.297556 -1.97538
    endloop
  endfacet
  facet normal 0 0 -1
    outer loop
      vertex -0.253116 -0.183899 -1.97538
      vertex -0.183899 0.253116 -1.97538
      vertex -0.183899 -0.253116 -1.97538
    endloop
  endfacet
  facet normal 0 0 -1
    outer loop
      vertex -0.253116 -0.183899 -1.97538
      vertex -0.253116 0.183899 -1.97538
      vertex -0.183899 0.253116 -1.97538
    endloop
  endfacet
  facet normal 0 0 -1
    outer loop
      vertex -0.297556 -0.0966816 -1.97538
      vertex -0.253116 0.183899 -1.97538
      vertex -0.253116 -0.183899 -1.97538
    endloop
  endfacet
  facet normal 0 0 -1
    outer loop
      vertex -0.297556 -0.0966816 -1.97538
      vertex -0.297556 0.0966816 -1.97538
      vertex -0.253116 0.183899 -1.97538
    endloop
  endfacet
  facet normal 0 -0 -1
    outer loop
      vertex -0.297556 0.0966816 -1.97538
      vertex -0.297556 -0.0966816 -1.97538
      vertex -0.312868 0 -1.97538
    endloop
  endfacet
  facet normal 0.527961 -0.269018 -0.805535
    outer loop
      vertex 0.863541 -0.280581 -1.78201
      vertex 1.345 -0.437016 -1.41421
      vertex 1.14412 -0.831253 -1.41421
    endloop
  endfacet
  facet normal 0.723897 -0.368855 -0.583026
    outer loop
      vertex 1.14412 -0.831253 -1.41421
      vertex 1.345 -0.437016 -1.41421
      vertex 1.44168 -1.04744 -0.907981
    endloop
  endfacet
  facet normal 0.220974 -0.220974 -0.949916
    outer loop
      vertex 0.533697 -0.734571 -1.78201
      vertex 0.253116 -0.183899 -1.97538
      vertex 0.734571 -0.533697 -1.78201
    endloop
  endfacet
  facet normal 0.220974 -0.220974 -0.949916
    outer loop
      vertex 0.253116 -0.183899 -1.97538
      vertex 0.533697 -0.734571 -1.78201
      vertex 0.183899 -0.253116 -1.97538
    endloop
  endfacet
  facet normal 0.0488868 0.308657 -0.949916
    outer loop
      vertex 0 0.907981 -1.78201
      vertex 0.280581 0.863541 -1.78201
      vertex 0.0966816 0.297556 -1.97538
    endloop
  endfacet
  facet normal 0.269018 -0.527961 -0.805535
    outer loop
      vertex 0.280581 -0.863541 -1.78201
      vertex 0.831253 -1.14412 -1.41421
      vertex 0.437016 -1.345 -1.41421
    endloop
  endfacet
  facet normal -0.1271 -0.80246 -0.583013
    outer loop
      vertex -0.550672 -1.69479 -0.907981
      vertex -0.437016 -1.345 -1.41421
      vertex 0 -1.78201 -0.907981
    endloop
  endfacet
  facet normal -0.127084 -0.802455 -0.583023
    outer loop
      vertex -0.437016 -1.345 -1.41421
      vertex 0 -1.41421 -1.41421
      vertex 0 -1.78201 -0.907981
    endloop
  endfacet
  facet normal 0.156448 -0.987686 0
    outer loop
      vertex 0 -1.97538 -0.312868
      vertex 0.610424 -1.87869 0.312868
      vertex 0 -1.97538 0.312868
    endloop
  endfacet
  facet normal 0.156448 -0.987686 0
    outer loop
      vertex 0.610424 -1.87869 0.312868
      vertex 0 -1.97538 -0.312868
      vertex 0.610424 -1.87869 -0.312868
    endloop
  endfacet
  facet normal -0.432272 -0.848392 -0.305569
    outer loop
      vertex -1.1611 -1.59811 -0.312868
      vertex -0.550672 -1.69479 -0.907981
      vertex -0.610424 -1.87869 -0.312868
    endloop
  endfacet
  facet normal 0.127084 -0.802455 -0.583023
    outer loop
      vertex 0 -1.78201 -0.907981
      vertex 0 -1.41421 -1.41421
      vertex 0.437016 -1.345 -1.41421
    endloop
  endfacet
  facet normal -0.368843 -0.723913 -0.583014
    outer loop
      vertex -1.04744 -1.44168 -0.907981
      vertex -0.437016 -1.345 -1.41421
      vertex -0.550672 -1.69479 -0.907981
    endloop
  endfacet
  facet normal -0.432269 -0.848395 -0.305566
    outer loop
      vertex -1.1611 -1.59811 -0.312868
      vertex -1.04744 -1.44168 -0.907981
      vertex -0.550672 -1.69479 -0.907981
    endloop
  endfacet
  facet normal 0.148956 -0.940446 -0.30557
    outer loop
      vertex 0 -1.78201 -0.907981
      vertex 0.550672 -1.69479 -0.907981
      vertex 0.610424 -1.87869 -0.312868
    endloop
  endfacet
  facet normal 0.148964 -0.940442 -0.305578
    outer loop
      vertex 0 -1.97538 -0.312868
      vertex 0 -1.78201 -0.907981
      vertex 0.610424 -1.87869 -0.312868
    endloop
  endfacet
  facet normal 0.148956 0.940446 0.30557
    outer loop
      vertex 0 1.78201 0.907981
      vertex 0.550672 1.69479 0.907981
      vertex 0.610424 1.87869 0.312868
    endloop
  endfacet
  facet normal 0.269018 0.527961 0.805535
    outer loop
      vertex 0.280581 0.863541 1.78201
      vertex 0.831253 1.14412 1.41421
      vertex 0.437016 1.345 1.41421
    endloop
  endfacet
  facet normal 0.0926956 0.585252 0.805535
    outer loop
      vertex 0 0.907981 1.78201
      vertex 0.280581 0.863541 1.78201
      vertex 0.437016 1.345 1.41421
    endloop
  endfacet
  facet normal -0.453986 -0.891009 0
    outer loop
      vertex -1.1611 -1.59811 -0.312868
      vertex -0.610424 -1.87869 0.312868
      vertex -1.1611 -1.59811 0.312868
    endloop
  endfacet
  facet normal -0.453986 -0.891009 -0
    outer loop
      vertex -0.610424 -1.87869 0.312868
      vertex -1.1611 -1.59811 -0.312868
      vertex -0.610424 -1.87869 -0.312868
    endloop
  endfacet
  facet normal -0.940446 -0.148956 -0.30557
    outer loop
      vertex -1.87869 -0.610424 -0.312868
      vertex -1.78201 0 -0.907981
      vertex -1.69479 -0.550672 -0.907981
    endloop
  endfacet
  facet normal -0.802455 0.127084 0.583023
    outer loop
      vertex -1.78201 0 0.907981
      vertex -1.41421 0 1.41421
      vertex -1.345 0.437016 1.41421
    endloop
  endfacet
  facet normal -0.802455 -0.127084 0.583023
    outer loop
      vertex -1.78201 0 0.907981
      vertex -1.345 -0.437016 1.41421
      vertex -1.41421 0 1.41421
    endloop
  endfacet
  facet normal -0.269014 0.527966 -0.805533
    outer loop
      vertex -0.831253 1.14412 -1.41421
      vertex -0.280581 0.863541 -1.78201
      vertex -0.533697 0.734571 -1.78201
    endloop
  endfacet
  facet normal -0.0488868 0.308657 -0.949916
    outer loop
      vertex -0.280581 0.863541 -1.78201
      vertex 0 0.907981 -1.78201
      vertex -0.0966816 0.297556 -1.97538
    endloop
  endfacet
  facet normal -0.148964 0.940442 0.305578
    outer loop
      vertex -0.610424 1.87869 0.312868
      vertex 0 1.78201 0.907981
      vertex 0 1.97538 0.312868
    endloop
  endfacet
  facet normal -0.723913 -0.368843 -0.583014
    outer loop
      vertex -1.69479 -0.550672 -0.907981
      vertex -1.345 -0.437016 -1.41421
      vertex -1.44168 -1.04744 -0.907981
    endloop
  endfacet
  facet normal -0.673286 0.673286 -0.305569
    outer loop
      vertex -1.04744 1.44168 -0.907981
      vertex -1.59811 1.1611 -0.312868
      vertex -1.1611 1.59811 -0.312868
    endloop
  endfacet
  facet normal -0.673286 0.673286 -0.305569
    outer loop
      vertex -1.59811 1.1611 -0.312868
      vertex -1.04744 1.44168 -0.907981
      vertex -1.44168 1.04744 -0.907981
    endloop
  endfacet
  facet normal -0.432269 0.848395 -0.305566
    outer loop
      vertex -1.1611 1.59811 -0.312868
      vertex -0.550672 1.69479 -0.907981
      vertex -1.04744 1.44168 -0.907981
    endloop
  endfacet
  facet normal -0.308656 0.0488836 0.949917
    outer loop
      vertex -0.907981 0 1.78201
      vertex -0.312868 0 1.97538
      vertex -0.297556 0.0966816 1.97538
    endloop
  endfacet
  facet normal -0.308657 -0.0488868 0.949916
    outer loop
      vertex -0.907981 0 1.78201
      vertex -0.863541 -0.280581 1.78201
      vertex -0.297556 -0.0966816 1.97538
    endloop
  endfacet
  facet normal -0.141875 -0.278443 0.949916
    outer loop
      vertex -0.533697 -0.734571 1.78201
      vertex -0.0966816 -0.297556 1.97538
      vertex -0.183899 -0.253116 1.97538
    endloop
  endfacet
  facet normal -0.220974 0.220974 0.949916
    outer loop
      vertex -0.533697 0.734571 1.78201
      vertex -0.253116 0.183899 1.97538
      vertex -0.183899 0.253116 1.97538
    endloop
  endfacet
  facet normal -0.220974 0.220974 0.949916
    outer loop
      vertex -0.253116 0.183899 1.97538
      vertex -0.533697 0.734571 1.78201
      vertex -0.734571 0.533697 1.78201
    endloop
  endfacet
  facet normal -0.432269 -0.848395 0.305566
    outer loop
      vertex -1.1611 -1.59811 0.312868
      vertex -0.550672 -1.69479 0.907981
      vertex -1.04744 -1.44168 0.907981
    endloop
  endfacet
  facet normal -0.278443 -0.141875 0.949916
    outer loop
      vertex -0.863541 -0.280581 1.78201
      vertex -0.734571 -0.533697 1.78201
      vertex -0.297556 -0.0966816 1.97538
    endloop
  endfacet
  facet normal -0.574492 -0.574492 0.583024
    outer loop
      vertex -1.14412 -0.831253 1.41421
      vertex -1.04744 -1.44168 0.907981
      vertex -0.831253 -1.14412 1.41421
    endloop
  endfacet
  facet normal -0.574492 -0.574492 0.583024
    outer loop
      vertex -1.04744 -1.44168 0.907981
      vertex -1.14412 -0.831253 1.41421
      vertex -1.44168 -1.04744 0.907981
    endloop
  endfacet
  facet normal -0.092687 -0.585258 0.805532
    outer loop
      vertex -0.437016 -1.345 1.41421
      vertex 0 -1.41421 1.41421
      vertex 0 -0.907981 1.78201
    endloop
  endfacet
  facet normal -0.418997 0.418997 0.805533
    outer loop
      vertex -0.831253 1.14412 1.41421
      vertex -0.734571 0.533697 1.78201
      vertex -0.533697 0.734571 1.78201
    endloop
  endfacet
  facet normal -0.418997 0.418997 0.805533
    outer loop
      vertex -0.734571 0.533697 1.78201
      vertex -0.831253 1.14412 1.41421
      vertex -1.14412 0.831253 1.41421
    endloop
  endfacet
  facet normal -0.278443 0.141875 0.949916
    outer loop
      vertex -0.734571 0.533697 1.78201
      vertex -0.297556 0.0966816 1.97538
      vertex -0.253116 0.183899 1.97538
    endloop
  endfacet
  facet normal -0.1271 0.80246 -0.583013
    outer loop
      vertex -0.550672 1.69479 -0.907981
      vertex 0 1.78201 -0.907981
      vertex -0.437016 1.345 -1.41421
    endloop
  endfacet
  facet normal -0.092687 0.585258 -0.805532
    outer loop
      vertex -0.437016 1.345 -1.41421
      vertex 0 1.41421 -1.41421
      vertex 0 0.907981 -1.78201
    endloop
  endfacet
  facet normal 0.848392 0.432272 0.305569
    outer loop
      vertex 1.59811 1.1611 0.312868
      vertex 1.69479 0.550672 0.907981
      vertex 1.87869 0.610424 0.312868
    endloop
  endfacet
  facet normal 0.723897 0.368855 0.583026
    outer loop
      vertex 1.14412 0.831253 1.41421
      vertex 1.345 0.437016 1.41421
      vertex 1.44168 1.04744 0.907981
    endloop
  endfacet
  facet normal 0.278443 -0.141875 0.949916
    outer loop
      vertex 0.297556 -0.0966816 1.97538
      vertex 0.734571 -0.533697 1.78201
      vertex 0.863541 -0.280581 1.78201
    endloop
  endfacet
  facet normal 0.308656 -0.0488836 0.949917
    outer loop
      vertex 0.297556 -0.0966816 1.97538
      vertex 0.907981 0 1.78201
      vertex 0.312868 0 1.97538
    endloop
  endfacet
  facet normal 0.141875 -0.278443 0.949916
    outer loop
      vertex 0.0966816 -0.297556 1.97538
      vertex 0.533697 -0.734571 1.78201
      vertex 0.183899 -0.253116 1.97538
    endloop
  endfacet
  facet normal 0.368855 -0.723897 0.583026
    outer loop
      vertex 0.437016 -1.345 1.41421
      vertex 1.04744 -1.44168 0.907981
      vertex 0.831253 -1.14412 1.41421
    endloop
  endfacet
  facet normal 0.574492 -0.574492 0.583024
    outer loop
      vertex 1.14412 -0.831253 1.41421
      vertex 1.04744 -1.44168 0.907981
      vertex 1.44168 -1.04744 0.907981
    endloop
  endfacet
  facet normal 0.574492 -0.574492 0.583024
    outer loop
      vertex 1.04744 -1.44168 0.907981
      vertex 1.14412 -0.831253 1.41421
      vertex 0.831253 -1.14412 1.41421
    endloop
  endfacet
  facet normal 0.585252 -0.0926956 0.805535
    outer loop
      vertex 0.863541 -0.280581 1.78201
      vertex 1.345 -0.437016 1.41421
      vertex 0.907981 0 1.78201
    endloop
  endfacet
  facet normal 0.707107 -0.707107 0
    outer loop
      vertex 1.1611 -1.59811 0.312868
      vertex 1.59811 -1.1611 -0.312868
      vertex 1.59811 -1.1611 0.312868
    endloop
  endfacet
  facet normal 0.707107 -0.707107 0
    outer loop
      vertex 1.59811 -1.1611 -0.312868
      vertex 1.1611 -1.59811 0.312868
      vertex 1.1611 -1.59811 -0.312868
    endloop
  endfacet
  facet normal 0.368843 -0.723913 0.583014
    outer loop
      vertex 0.437016 -1.345 1.41421
      vertex 0.550672 -1.69479 0.907981
      vertex 1.04744 -1.44168 0.907981
    endloop
  endfacet
  facet normal 0.723897 -0.368855 0.583026
    outer loop
      vertex 1.14412 -0.831253 1.41421
      vertex 1.44168 -1.04744 0.907981
      vertex 1.345 -0.437016 1.41421
    endloop
  endfacet
  facet normal 0.141875 -0.278443 -0.949916
    outer loop
      vertex 0.0966816 -0.297556 -1.97538
      vertex 0.183899 -0.253116 -1.97538
      vertex 0.533697 -0.734571 -1.78201
    endloop
  endfacet
  facet normal -0.585258 -0.092687 -0.805532
    outer loop
      vertex -1.41421 0 -1.41421
      vertex -0.907981 0 -1.78201
      vertex -1.345 -0.437016 -1.41421
    endloop
  endfacet
  facet normal 0.527966 -0.269014 -0.805533
    outer loop
      vertex 0.734571 -0.533697 -1.78201
      vertex 0.863541 -0.280581 -1.78201
      vertex 1.14412 -0.831253 -1.41421
    endloop
  endfacet
  facet normal 0.278443 -0.141875 -0.949916
    outer loop
      vertex 0.253116 -0.183899 -1.97538
      vertex 0.297556 -0.0966816 -1.97538
      vertex 0.734571 -0.533697 -1.78201
    endloop
  endfacet
  facet normal -0.308656 -0.0488836 -0.949917
    outer loop
      vertex -0.907981 0 -1.78201
      vertex -0.312868 0 -1.97538
      vertex -0.297556 -0.0966816 -1.97538
    endloop
  endfacet
  facet normal -0.220974 0.220974 -0.949916
    outer loop
      vertex -0.253116 0.183899 -1.97538
      vertex -0.533697 0.734571 -1.78201
      vertex -0.183899 0.253116 -1.97538
    endloop
  endfacet
  facet normal -0.220974 0.220974 -0.949916
    outer loop
      vertex -0.533697 0.734571 -1.78201
      vertex -0.253116 0.183899 -1.97538
      vertex -0.734571 0.533697 -1.78201
    endloop
  endfacet
  facet normal 0.0926956 -0.585252 -0.805535
    outer loop
      vertex 0 -0.907981 -1.78201
      vertex 0.280581 -0.863541 -1.78201
      vertex 0.437016 -1.345 -1.41421
    endloop
  endfacet
  facet normal 0.092687 -0.585258 -0.805532
    outer loop
      vertex 0 -1.41421 -1.41421
      vertex 0 -0.907981 -1.78201
      vertex 0.437016 -1.345 -1.41421
    endloop
  endfacet
  facet normal -0.0926956 -0.585252 -0.805535
    outer loop
      vertex -0.437016 -1.345 -1.41421
      vertex -0.280581 -0.863541 -1.78201
      vertex 0 -0.907981 -1.78201
    endloop
  endfacet
  facet normal -0.092687 -0.585258 -0.805532
    outer loop
      vertex -0.437016 -1.345 -1.41421
      vertex 0 -0.907981 -1.78201
      vertex 0 -1.41421 -1.41421
    endloop
  endfacet
  facet normal 0.141875 0.278443 0.949916
    outer loop
      vertex 0.0966816 0.297556 1.97538
      vertex 0.183899 0.253116 1.97538
      vertex 0.533697 0.734571 1.78201
    endloop
  endfacet
  facet normal -0.368855 -0.723897 -0.583026
    outer loop
      vertex -1.04744 -1.44168 -0.907981
      vertex -0.831253 -1.14412 -1.41421
      vertex -0.437016 -1.345 -1.41421
    endloop
  endfacet
  facet normal -0.848395 -0.432269 0.305566
    outer loop
      vertex -1.69479 -0.550672 0.907981
      vertex -1.59811 -1.1611 0.312868
      vertex -1.44168 -1.04744 0.907981
    endloop
  endfacet
  facet normal -0.848392 -0.432272 0.305569
    outer loop
      vertex -1.87869 -0.610424 0.312868
      vertex -1.59811 -1.1611 0.312868
      vertex -1.69479 -0.550672 0.907981
    endloop
  endfacet
  facet normal -0.585258 0.092687 0.805532
    outer loop
      vertex -1.41421 0 1.41421
      vertex -0.907981 0 1.78201
      vertex -1.345 0.437016 1.41421
    endloop
  endfacet
  facet normal -0.585258 -0.092687 0.805532
    outer loop
      vertex -1.41421 0 1.41421
      vertex -1.345 -0.437016 1.41421
      vertex -0.907981 0 1.78201
    endloop
  endfacet
  facet normal -0.707107 0.707107 0
    outer loop
      vertex -1.59811 1.1611 -0.312868
      vertex -1.1611 1.59811 0.312868
      vertex -1.1611 1.59811 -0.312868
    endloop
  endfacet
  facet normal -0.707107 0.707107 0
    outer loop
      vertex -1.1611 1.59811 0.312868
      vertex -1.59811 1.1611 -0.312868
      vertex -1.59811 1.1611 0.312868
    endloop
  endfacet
  facet normal -0.80246 -0.1271 -0.583013
    outer loop
      vertex -1.78201 0 -0.907981
      vertex -1.345 -0.437016 -1.41421
      vertex -1.69479 -0.550672 -0.907981
    endloop
  endfacet
  facet normal -0.802455 0.127084 -0.583023
    outer loop
      vertex -1.78201 0 -0.907981
      vertex -1.345 0.437016 -1.41421
      vertex -1.41421 0 -1.41421
    endloop
  endfacet
  facet normal -0.585258 0.092687 -0.805532
    outer loop
      vertex -1.41421 0 -1.41421
      vertex -1.345 0.437016 -1.41421
      vertex -0.907981 0 -1.78201
    endloop
  endfacet
  facet normal 0.141875 0.278443 -0.949916
    outer loop
      vertex 0.0966816 0.297556 -1.97538
      vertex 0.280581 0.863541 -1.78201
      vertex 0.533697 0.734571 -1.78201
    endloop
  endfacet
  facet normal -0.368855 0.723897 -0.583026
    outer loop
      vertex -1.04744 1.44168 -0.907981
      vertex -0.437016 1.345 -1.41421
      vertex -0.831253 1.14412 -1.41421
    endloop
  endfacet
  facet normal 0.220974 -0.220974 0.949916
    outer loop
      vertex 0.253116 -0.183899 1.97538
      vertex 0.533697 -0.734571 1.78201
      vertex 0.734571 -0.533697 1.78201
    endloop
  endfacet
  facet normal 0.220974 -0.220974 0.949916
    outer loop
      vertex 0.533697 -0.734571 1.78201
      vertex 0.253116 -0.183899 1.97538
      vertex 0.183899 -0.253116 1.97538
    endloop
  endfacet
  facet normal 0 0 1
    outer loop
      vertex 0.297556 0.0966816 1.97538
      vertex 0.297556 -0.0966816 1.97538
      vertex 0.312868 0 1.97538
    endloop
  endfacet
  facet normal 0 0 1
    outer loop
      vertex 0.253116 0.183899 1.97538
      vertex 0.297556 -0.0966816 1.97538
      vertex 0.297556 0.0966816 1.97538
    endloop
  endfacet
  facet normal 0 0 1
    outer loop
      vertex 0.253116 0.183899 1.97538
      vertex 0.253116 -0.183899 1.97538
      vertex 0.297556 -0.0966816 1.97538
    endloop
  endfacet
  facet normal 0 0 1
    outer loop
      vertex 0.183899 0.253116 1.97538
      vertex 0.253116 -0.183899 1.97538
      vertex 0.253116 0.183899 1.97538
    endloop
  endfacet
  facet normal 0 0 1
    outer loop
      vertex 0.183899 0.253116 1.97538
      vertex 0.183899 -0.253116 1.97538
      vertex 0.253116 -0.183899 1.97538
    endloop
  endfacet
  facet normal 0 0 1
    outer loop
      vertex 0.0966816 0.297556 1.97538
      vertex 0.183899 -0.253116 1.97538
      vertex 0.183899 0.253116 1.97538
    endloop
  endfacet
  facet normal 0 0 1
    outer loop
      vertex 0.0966816 0.297556 1.97538
      vertex 0.0966816 -0.297556 1.97538
      vertex 0.183899 -0.253116 1.97538
    endloop
  endfacet
  facet normal 0 0 1
    outer loop
      vertex 0 0.312868 1.97538
      vertex 0.0966816 -0.297556 1.97538
      vertex 0.0966816 0.297556 1.97538
    endloop
  endfacet
  facet normal 0 0 1
    outer loop
      vertex 0 0.312868 1.97538
      vertex 0 -0.312868 1.97538
      vertex 0.0966816 -0.297556 1.97538
    endloop
  endfacet
  facet normal -0 0 1
    outer loop
      vertex -0.0966816 0.297556 1.97538
      vertex 0 -0.312868 1.97538
      vertex 0 0.312868 1.97538
    endloop
  endfacet
  facet normal 0 0 1
    outer loop
      vertex -0.0966816 0.297556 1.97538
      vertex -0.0966816 -0.297556 1.97538
      vertex 0 -0.312868 1.97538
    endloop
  endfacet
  facet normal -0 0 1
    outer loop
      vertex -0.183899 0.253116 1.97538
      vertex -0.0966816 -0.297556 1.97538
      vertex -0.0966816 0.297556 1.97538
    endloop
  endfacet
  facet normal 0 0 1
    outer loop
      vertex -0.183899 0.253116 1.97538
      vertex -0.183899 -0.253116 1.97538
      vertex -0.0966816 -0.297556 1.97538
    endloop
  endfacet
  facet normal -0 0 1
    outer loop
      vertex -0.253116 0.183899 1.97538
      vertex -0.183899 -0.253116 1.97538
      vertex -0.183899 0.253116 1.97538
    endloop
  endfacet
  facet normal 0 0 1
    outer loop
      vertex -0.253116 0.183899 1.97538
      vertex -0.253116 -0.183899 1.97538
      vertex -0.183899 -0.253116 1.97538
    endloop
  endfacet
  facet normal -0 0 1
    outer loop
      vertex -0.297556 0.0966816 1.97538
      vertex -0.253116 -0.183899 1.97538
      vertex -0.253116 0.183899 1.97538
    endloop
  endfacet
  facet normal 0 0 1
    outer loop
      vertex -0.297556 0.0966816 1.97538
      vertex -0.297556 -0.0966816 1.97538
      vertex -0.253116 -0.183899 1.97538
    endloop
  endfacet
  facet normal 0 -0 1
    outer loop
      vertex -0.297556 -0.0966816 1.97538
      vertex -0.297556 0.0966816 1.97538
      vertex -0.312868 0 1.97538
    endloop
  endfacet
  facet normal -0.269018 -0.527961 0.805535
    outer loop
      vertex -0.831253 -1.14412 1.41421
      vertex -0.437016 -1.345 1.41421
      vertex -0.280581 -0.863541 1.78201
    endloop
  endfacet
  facet normal -0.368843 -0.723913 0.583014
    outer loop
      vertex -1.04744 -1.44168 0.907981
      vertex -0.550672 -1.69479 0.907981
      vertex -0.437016 -1.345 1.41421
    endloop
  endfacet
  facet normal -0.127084 0.802455 -0.583023
    outer loop
      vertex -0.437016 1.345 -1.41421
      vertex 0 1.78201 -0.907981
      vertex 0 1.41421 -1.41421
    endloop
  endfacet
  facet normal 0.127084 0.802455 -0.583023
    outer loop
      vertex 0 1.41421 -1.41421
      vertex 0 1.78201 -0.907981
      vertex 0.437016 1.345 -1.41421
    endloop
  endfacet
  facet normal 0.673286 0.673286 0.305569
    outer loop
      vertex 1.04744 1.44168 0.907981
      vertex 1.59811 1.1611 0.312868
      vertex 1.1611 1.59811 0.312868
    endloop
  endfacet
  facet normal 0.673286 0.673286 0.305569
    outer loop
      vertex 1.59811 1.1611 0.312868
      vertex 1.04744 1.44168 0.907981
      vertex 1.44168 1.04744 0.907981
    endloop
  endfacet
  facet normal 0.278443 -0.141875 0.949916
    outer loop
      vertex 0.253116 -0.183899 1.97538
      vertex 0.734571 -0.533697 1.78201
      vertex 0.297556 -0.0966816 1.97538
    endloop
  endfacet
  facet normal 0.269018 -0.527961 0.805535
    outer loop
      vertex 0.280581 -0.863541 1.78201
      vertex 0.437016 -1.345 1.41421
      vertex 0.831253 -1.14412 1.41421
    endloop
  endfacet
  facet normal 0.0926956 -0.585252 0.805535
    outer loop
      vertex 0 -0.907981 1.78201
      vertex 0.437016 -1.345 1.41421
      vertex 0.280581 -0.863541 1.78201
    endloop
  endfacet
  facet normal 0.432269 -0.848395 0.305566
    outer loop
      vertex 0.550672 -1.69479 0.907981
      vertex 1.1611 -1.59811 0.312868
      vertex 1.04744 -1.44168 0.907981
    endloop
  endfacet
  facet normal 0.418997 -0.418997 -0.805533
    outer loop
      vertex 0.831253 -1.14412 -1.41421
      vertex 0.734571 -0.533697 -1.78201
      vertex 1.14412 -0.831253 -1.41421
    endloop
  endfacet
  facet normal 0.418997 -0.418997 -0.805533
    outer loop
      vertex 0.734571 -0.533697 -1.78201
      vertex 0.831253 -1.14412 -1.41421
      vertex 0.533697 -0.734571 -1.78201
    endloop
  endfacet
  facet normal -0.141875 0.278443 -0.949916
    outer loop
      vertex -0.533697 0.734571 -1.78201
      vertex -0.280581 0.863541 -1.78201
      vertex -0.0966816 0.297556 -1.97538
    endloop
  endfacet
  facet normal 0.0488836 -0.308656 -0.949917
    outer loop
      vertex 0 -0.907981 -1.78201
      vertex 0 -0.312868 -1.97538
      vertex 0.0966816 -0.297556 -1.97538
    endloop
  endfacet
  facet normal -0.278443 -0.141875 -0.949916
    outer loop
      vertex -0.734571 -0.533697 -1.78201
      vertex -0.297556 -0.0966816 -1.97538
      vertex -0.253116 -0.183899 -1.97538
    endloop
  endfacet
  facet normal -0.585252 0.0926956 -0.805535
    outer loop
      vertex -1.345 0.437016 -1.41421
      vertex -0.863541 0.280581 -1.78201
      vertex -0.907981 0 -1.78201
    endloop
  endfacet
  facet normal -0.527961 0.269018 -0.805535
    outer loop
      vertex -1.345 0.437016 -1.41421
      vertex -1.14412 0.831253 -1.41421
      vertex -0.863541 0.280581 -1.78201
    endloop
  endfacet
  facet normal -0.308657 -0.0488868 -0.949916
    outer loop
      vertex -0.907981 0 -1.78201
      vertex -0.297556 -0.0966816 -1.97538
      vertex -0.863541 -0.280581 -1.78201
    endloop
  endfacet
  facet normal -0.278443 -0.141875 -0.949916
    outer loop
      vertex -0.863541 -0.280581 -1.78201
      vertex -0.297556 -0.0966816 -1.97538
      vertex -0.734571 -0.533697 -1.78201
    endloop
  endfacet
  facet normal 0.0488868 -0.308657 -0.949916
    outer loop
      vertex 0 -0.907981 -1.78201
      vertex 0.0966816 -0.297556 -1.97538
      vertex 0.280581 -0.863541 -1.78201
    endloop
  endfacet
  facet normal -0.527966 -0.269014 -0.805533
    outer loop
      vertex -1.14412 -0.831253 -1.41421
      vertex -0.863541 -0.280581 -1.78201
      vertex -0.734571 -0.533697 -1.78201
    endloop
  endfacet
  facet normal 0.148956 0.940446 -0.30557
    outer loop
      vertex 0 1.78201 -0.907981
      vertex 0.610424 1.87869 -0.312868
      vertex 0.550672 1.69479 -0.907981
    endloop
  endfacet
  facet normal 0.148964 0.940442 -0.305578
    outer loop
      vertex 0 1.78201 -0.907981
      vertex 0 1.97538 -0.312868
      vertex 0.610424 1.87869 -0.312868
    endloop
  endfacet
  facet normal -0.527966 0.269014 0.805533
    outer loop
      vertex -1.14412 0.831253 1.41421
      vertex -0.863541 0.280581 1.78201
      vertex -0.734571 0.533697 1.78201
    endloop
  endfacet
  facet normal -0.527961 0.269018 0.805535
    outer loop
      vertex -1.345 0.437016 1.41421
      vertex -0.863541 0.280581 1.78201
      vertex -1.14412 0.831253 1.41421
    endloop
  endfacet
  facet normal -0.585252 -0.0926956 -0.805535
    outer loop
      vertex -1.345 -0.437016 -1.41421
      vertex -0.907981 0 -1.78201
      vertex -0.863541 -0.280581 -1.78201
    endloop
  endfacet
  facet normal -0.527961 -0.269018 -0.805535
    outer loop
      vertex -1.345 -0.437016 -1.41421
      vertex -0.863541 -0.280581 -1.78201
      vertex -1.14412 -0.831253 -1.41421
    endloop
  endfacet
  facet normal -0.891009 -0.453986 0
    outer loop
      vertex -1.59811 -1.1611 -0.312868
      vertex -1.87869 -0.610424 0.312868
      vertex -1.87869 -0.610424 -0.312868
    endloop
  endfacet
  facet normal -0.891009 -0.453986 0
    outer loop
      vertex -1.87869 -0.610424 0.312868
      vertex -1.59811 -1.1611 -0.312868
      vertex -1.59811 -1.1611 0.312868
    endloop
  endfacet
  facet normal -0.141875 0.278443 0.949916
    outer loop
      vertex -0.533697 0.734571 1.78201
      vertex -0.0966816 0.297556 1.97538
      vertex -0.280581 0.863541 1.78201
    endloop
  endfacet
  facet normal -0.269014 0.527966 0.805533
    outer loop
      vertex -0.831253 1.14412 1.41421
      vertex -0.533697 0.734571 1.78201
      vertex -0.280581 0.863541 1.78201
    endloop
  endfacet
  facet normal -0.278443 -0.141875 0.949916
    outer loop
      vertex -0.734571 -0.533697 1.78201
      vertex -0.253116 -0.183899 1.97538
      vertex -0.297556 -0.0966816 1.97538
    endloop
  endfacet
  facet normal 0.141875 -0.278443 0.949916
    outer loop
      vertex 0.0966816 -0.297556 1.97538
      vertex 0.280581 -0.863541 1.78201
      vertex 0.533697 -0.734571 1.78201
    endloop
  endfacet
  facet normal 0.0488868 -0.308657 0.949916
    outer loop
      vertex 0 -0.907981 1.78201
      vertex 0.280581 -0.863541 1.78201
      vertex 0.0966816 -0.297556 1.97538
    endloop
  endfacet
  facet normal -0.269014 -0.527966 -0.805533
    outer loop
      vertex -0.831253 -1.14412 -1.41421
      vertex -0.533697 -0.734571 -1.78201
      vertex -0.280581 -0.863541 -1.78201
    endloop
  endfacet
  facet normal -0.418997 -0.418997 -0.805533
    outer loop
      vertex -0.831253 -1.14412 -1.41421
      vertex -0.734571 -0.533697 -1.78201
      vertex -0.533697 -0.734571 -1.78201
    endloop
  endfacet
  facet normal -0.418997 -0.418997 -0.805533
    outer loop
      vertex -0.734571 -0.533697 -1.78201
      vertex -0.831253 -1.14412 -1.41421
      vertex -1.14412 -0.831253 -1.41421
    endloop
  endfacet
  facet normal -0.0488836 -0.308656 -0.949917
    outer loop
      vertex -0.0966816 -0.297556 -1.97538
      vertex 0 -0.312868 -1.97538
      vertex 0 -0.907981 -1.78201
    endloop
  endfacet
  facet normal -0.141875 -0.278443 -0.949916
    outer loop
      vertex -0.533697 -0.734571 -1.78201
      vertex -0.0966816 -0.297556 -1.97538
      vertex -0.280581 -0.863541 -1.78201
    endloop
  endfacet
  facet normal -0.141875 -0.278443 -0.949916
    outer loop
      vertex -0.533697 -0.734571 -1.78201
      vertex -0.183899 -0.253116 -1.97538
      vertex -0.0966816 -0.297556 -1.97538
    endloop
  endfacet
  facet normal -0.308656 0.0488836 -0.949917
    outer loop
      vertex -0.907981 0 -1.78201
      vertex -0.297556 0.0966816 -1.97538
      vertex -0.312868 0 -1.97538
    endloop
  endfacet
  facet normal -0.141875 0.278443 -0.949916
    outer loop
      vertex -0.533697 0.734571 -1.78201
      vertex -0.0966816 0.297556 -1.97538
      vertex -0.183899 0.253116 -1.97538
    endloop
  endfacet
  facet normal 0.278443 0.141875 -0.949916
    outer loop
      vertex 0.297556 0.0966816 -1.97538
      vertex 0.734571 0.533697 -1.78201
      vertex 0.863541 0.280581 -1.78201
    endloop
  endfacet
  facet normal 0.141875 0.278443 -0.949916
    outer loop
      vertex 0.0966816 0.297556 -1.97538
      vertex 0.533697 0.734571 -1.78201
      vertex 0.183899 0.253116 -1.97538
    endloop
  endfacet
  facet normal 0.0488836 0.308656 -0.949917
    outer loop
      vertex 0 0.312868 -1.97538
      vertex 0 0.907981 -1.78201
      vertex 0.0966816 0.297556 -1.97538
    endloop
  endfacet
  facet normal 0.220974 0.220974 -0.949916
    outer loop
      vertex 0.253116 0.183899 -1.97538
      vertex 0.533697 0.734571 -1.78201
      vertex 0.734571 0.533697 -1.78201
    endloop
  endfacet
  facet normal 0.220974 0.220974 -0.949916
    outer loop
      vertex 0.533697 0.734571 -1.78201
      vertex 0.253116 0.183899 -1.97538
      vertex 0.183899 0.253116 -1.97538
    endloop
  endfacet
  facet normal 0.308657 0.0488868 -0.949916
    outer loop
      vertex 0.297556 0.0966816 -1.97538
      vertex 0.863541 0.280581 -1.78201
      vertex 0.907981 0 -1.78201
    endloop
  endfacet
  facet normal 0.308656 0.0488836 -0.949917
    outer loop
      vertex 0.297556 0.0966816 -1.97538
      vertex 0.907981 0 -1.78201
      vertex 0.312868 0 -1.97538
    endloop
  endfacet
  facet normal 0.278443 0.141875 -0.949916
    outer loop
      vertex 0.253116 0.183899 -1.97538
      vertex 0.734571 0.533697 -1.78201
      vertex 0.297556 0.0966816 -1.97538
    endloop
  endfacet
endsolid OpenSCAD_Model
